%FSLAX45Y45*%
G04 Gerber Fmt 4.5, Leading zero omitted, Abs format (unit mm)*
G04 Created by KiCad (PCBNEW (5.1.2-1)-1) date 2022-11-22 19:01:17*
%MOMM*%
%LPD*%
G04 APERTURE LIST*
%ADD10C,0.120000*%
%ADD11C,0.050000*%
%ADD12C,0.200000*%
%ADD13C,0.300000*%
G04 APERTURE END LIST*
D10*
X1841500Y-13843000D02*
G75*
G03X1841500Y-13843000I-190500J0D01*
G01*
X1841500Y-1778000D02*
G75*
G03X1841500Y-1778000I-190500J0D01*
G01*
D11*
X10287000Y-2032000D02*
G75*
G02X10223500Y-2095500I-63500J0D01*
G01*
X9080500Y-2095500D02*
G75*
G02X9017000Y-2032000I0J63500D01*
G01*
X9017000Y-1397000D02*
X9017000Y-2032000D01*
X10287000Y-1397000D02*
G75*
G02X10414000Y-1270000I127000J0D01*
G01*
X10414000Y-1270000D02*
X18796000Y-1270000D01*
X10287000Y-2032000D02*
X10287000Y-1397000D01*
X9080500Y-2095500D02*
X10223500Y-2095500D01*
X8890000Y-1270000D02*
G75*
G02X9017000Y-1397000I0J-127000D01*
G01*
D10*
X3035300Y-2438400D02*
G75*
G03X3035300Y-2438400I-190500J0D01*
G01*
X2019300Y-2438400D02*
G75*
G03X2019300Y-2438400I-190500J0D01*
G01*
D11*
X1270000Y-10350500D02*
G75*
G02X1397000Y-10223500I127000J0D01*
G01*
X3429000Y-10096500D02*
G75*
G02X3302000Y-10223500I-127000J0D01*
G01*
X3302000Y-3238500D02*
G75*
G02X3429000Y-3365500I0J-127000D01*
G01*
X1397000Y-3238500D02*
G75*
G02X1270000Y-3111500I0J127000D01*
G01*
X1524000Y-14351000D02*
G75*
G02X1270000Y-14097000I0J254000D01*
G01*
X19050000Y-14097000D02*
G75*
G02X18796000Y-14351000I-254000J0D01*
G01*
X18796000Y-1270000D02*
G75*
G02X19050000Y-1524000I0J-254000D01*
G01*
X1270000Y-1524000D02*
G75*
G02X1524000Y-1270000I254000J0D01*
G01*
X1270000Y-3111500D02*
X1270000Y-1524000D01*
X3302000Y-3238500D02*
X1397000Y-3238500D01*
X3429000Y-10096500D02*
X3429000Y-3365500D01*
X1397000Y-10223500D02*
X3302000Y-10223500D01*
X1270000Y-14097000D02*
X1270000Y-10350500D01*
X18796000Y-14351000D02*
X1524000Y-14351000D01*
X19050000Y-1524000D02*
X19050000Y-14097000D01*
X1524000Y-1270000D02*
X8890000Y-1270000D01*
D12*
X16731000Y-12413000D02*
X17051000Y-12733000D01*
X17051000Y-12413000D02*
X16731000Y-12733000D01*
X16731000Y-8603000D02*
X17051000Y-8923000D01*
X17051000Y-8603000D02*
X16731000Y-8923000D01*
X4031000Y-12413000D02*
X4351000Y-12733000D01*
X4351000Y-12413000D02*
X4031000Y-12733000D01*
X4031000Y-8603000D02*
X4351000Y-8923000D01*
X4351000Y-8603000D02*
X4031000Y-8923000D01*
D13*
X1553928Y-14819214D02*
X1553928Y-14519214D01*
X1625357Y-14519214D01*
X1668214Y-14533500D01*
X1696786Y-14562071D01*
X1711071Y-14590643D01*
X1725357Y-14647786D01*
X1725357Y-14690643D01*
X1711071Y-14747786D01*
X1696786Y-14776357D01*
X1668214Y-14804929D01*
X1625357Y-14819214D01*
X1553928Y-14819214D01*
X1853928Y-14819214D02*
X1853928Y-14619214D01*
X1853928Y-14676357D02*
X1868214Y-14647786D01*
X1882500Y-14633500D01*
X1911071Y-14619214D01*
X1939643Y-14619214D01*
X2039643Y-14819214D02*
X2039643Y-14619214D01*
X2039643Y-14519214D02*
X2025357Y-14533500D01*
X2039643Y-14547786D01*
X2053928Y-14533500D01*
X2039643Y-14519214D01*
X2039643Y-14547786D01*
X2225357Y-14819214D02*
X2196786Y-14804929D01*
X2182500Y-14776357D01*
X2182500Y-14519214D01*
X2382500Y-14819214D02*
X2353928Y-14804929D01*
X2339643Y-14776357D01*
X2339643Y-14519214D01*
X2725357Y-14819214D02*
X2725357Y-14519214D01*
X2825357Y-14733500D01*
X2925357Y-14519214D01*
X2925357Y-14819214D01*
X3196786Y-14819214D02*
X3196786Y-14662071D01*
X3182500Y-14633500D01*
X3153928Y-14619214D01*
X3096786Y-14619214D01*
X3068214Y-14633500D01*
X3196786Y-14804929D02*
X3168214Y-14819214D01*
X3096786Y-14819214D01*
X3068214Y-14804929D01*
X3053928Y-14776357D01*
X3053928Y-14747786D01*
X3068214Y-14719214D01*
X3096786Y-14704929D01*
X3168214Y-14704929D01*
X3196786Y-14690643D01*
X3339643Y-14619214D02*
X3339643Y-14919214D01*
X3339643Y-14633500D02*
X3368214Y-14619214D01*
X3425357Y-14619214D01*
X3453928Y-14633500D01*
X3468214Y-14647786D01*
X3482500Y-14676357D01*
X3482500Y-14762071D01*
X3468214Y-14790643D01*
X3453928Y-14804929D01*
X3425357Y-14819214D01*
X3368214Y-14819214D01*
X3339643Y-14804929D01*
X3611071Y-14790643D02*
X3625357Y-14804929D01*
X3611071Y-14819214D01*
X3596786Y-14804929D01*
X3611071Y-14790643D01*
X3611071Y-14819214D01*
X3611071Y-14633500D02*
X3625357Y-14647786D01*
X3611071Y-14662071D01*
X3596786Y-14647786D01*
X3611071Y-14633500D01*
X3611071Y-14662071D01*
X947500Y-15153500D02*
X1267500Y-15473500D01*
X1267500Y-15153500D02*
X947500Y-15473500D01*
X1525357Y-15149214D02*
X1711071Y-15149214D01*
X1611071Y-15263500D01*
X1653928Y-15263500D01*
X1682500Y-15277786D01*
X1696786Y-15292071D01*
X1711071Y-15320643D01*
X1711071Y-15392071D01*
X1696786Y-15420643D01*
X1682500Y-15434929D01*
X1653928Y-15449214D01*
X1568214Y-15449214D01*
X1539643Y-15434929D01*
X1525357Y-15420643D01*
X1839643Y-15420643D02*
X1853928Y-15434929D01*
X1839643Y-15449214D01*
X1825357Y-15434929D01*
X1839643Y-15420643D01*
X1839643Y-15449214D01*
X1968214Y-15177786D02*
X1982500Y-15163500D01*
X2011071Y-15149214D01*
X2082500Y-15149214D01*
X2111071Y-15163500D01*
X2125357Y-15177786D01*
X2139643Y-15206357D01*
X2139643Y-15234929D01*
X2125357Y-15277786D01*
X1953928Y-15449214D01*
X2139643Y-15449214D01*
X2325357Y-15149214D02*
X2353928Y-15149214D01*
X2382500Y-15163500D01*
X2396786Y-15177786D01*
X2411071Y-15206357D01*
X2425357Y-15263500D01*
X2425357Y-15334929D01*
X2411071Y-15392071D01*
X2396786Y-15420643D01*
X2382500Y-15434929D01*
X2353928Y-15449214D01*
X2325357Y-15449214D01*
X2296786Y-15434929D01*
X2282500Y-15420643D01*
X2268214Y-15392071D01*
X2253928Y-15334929D01*
X2253928Y-15263500D01*
X2268214Y-15206357D01*
X2282500Y-15177786D01*
X2296786Y-15163500D01*
X2325357Y-15149214D01*
X2553928Y-15449214D02*
X2553928Y-15249214D01*
X2553928Y-15277786D02*
X2568214Y-15263500D01*
X2596786Y-15249214D01*
X2639643Y-15249214D01*
X2668214Y-15263500D01*
X2682500Y-15292071D01*
X2682500Y-15449214D01*
X2682500Y-15292071D02*
X2696786Y-15263500D01*
X2725357Y-15249214D01*
X2768214Y-15249214D01*
X2796786Y-15263500D01*
X2811071Y-15292071D01*
X2811071Y-15449214D01*
X2953928Y-15449214D02*
X2953928Y-15249214D01*
X2953928Y-15277786D02*
X2968214Y-15263500D01*
X2996786Y-15249214D01*
X3039643Y-15249214D01*
X3068214Y-15263500D01*
X3082500Y-15292071D01*
X3082500Y-15449214D01*
X3082500Y-15292071D02*
X3096786Y-15263500D01*
X3125357Y-15249214D01*
X3168214Y-15249214D01*
X3196786Y-15263500D01*
X3211071Y-15292071D01*
X3211071Y-15449214D01*
X3796786Y-15134929D02*
X3539643Y-15520643D01*
X4182500Y-15149214D02*
X4211071Y-15149214D01*
X4239643Y-15163500D01*
X4253928Y-15177786D01*
X4268214Y-15206357D01*
X4282500Y-15263500D01*
X4282500Y-15334929D01*
X4268214Y-15392071D01*
X4253928Y-15420643D01*
X4239643Y-15434929D01*
X4211071Y-15449214D01*
X4182500Y-15449214D01*
X4153928Y-15434929D01*
X4139643Y-15420643D01*
X4125357Y-15392071D01*
X4111071Y-15334929D01*
X4111071Y-15263500D01*
X4125357Y-15206357D01*
X4139643Y-15177786D01*
X4153928Y-15163500D01*
X4182500Y-15149214D01*
X4411071Y-15420643D02*
X4425357Y-15434929D01*
X4411071Y-15449214D01*
X4396786Y-15434929D01*
X4411071Y-15420643D01*
X4411071Y-15449214D01*
X4711071Y-15449214D02*
X4539643Y-15449214D01*
X4625357Y-15449214D02*
X4625357Y-15149214D01*
X4596786Y-15192071D01*
X4568214Y-15220643D01*
X4539643Y-15234929D01*
X4825357Y-15177786D02*
X4839643Y-15163500D01*
X4868214Y-15149214D01*
X4939643Y-15149214D01*
X4968214Y-15163500D01*
X4982500Y-15177786D01*
X4996786Y-15206357D01*
X4996786Y-15234929D01*
X4982500Y-15277786D01*
X4811071Y-15449214D01*
X4996786Y-15449214D01*
X5253928Y-15149214D02*
X5196786Y-15149214D01*
X5168214Y-15163500D01*
X5153928Y-15177786D01*
X5125357Y-15220643D01*
X5111071Y-15277786D01*
X5111071Y-15392071D01*
X5125357Y-15420643D01*
X5139643Y-15434929D01*
X5168214Y-15449214D01*
X5225357Y-15449214D01*
X5253928Y-15434929D01*
X5268214Y-15420643D01*
X5282500Y-15392071D01*
X5282500Y-15320643D01*
X5268214Y-15292071D01*
X5253928Y-15277786D01*
X5225357Y-15263500D01*
X5168214Y-15263500D01*
X5139643Y-15277786D01*
X5125357Y-15292071D01*
X5111071Y-15320643D01*
X5396786Y-15149214D02*
X5396786Y-15206357D01*
X5511071Y-15149214D02*
X5511071Y-15206357D01*
X5953928Y-15563500D02*
X5939643Y-15549214D01*
X5911071Y-15506357D01*
X5896786Y-15477786D01*
X5882500Y-15434929D01*
X5868214Y-15363500D01*
X5868214Y-15306357D01*
X5882500Y-15234929D01*
X5896786Y-15192071D01*
X5911071Y-15163500D01*
X5939643Y-15120643D01*
X5953928Y-15106357D01*
X6196786Y-15249214D02*
X6196786Y-15449214D01*
X6125357Y-15134929D02*
X6053928Y-15349214D01*
X6239643Y-15349214D01*
X6582500Y-15449214D02*
X6582500Y-15149214D01*
X6711071Y-15449214D02*
X6711071Y-15292071D01*
X6696786Y-15263500D01*
X6668214Y-15249214D01*
X6625357Y-15249214D01*
X6596786Y-15263500D01*
X6582500Y-15277786D01*
X6896786Y-15449214D02*
X6868214Y-15434929D01*
X6853928Y-15420643D01*
X6839643Y-15392071D01*
X6839643Y-15306357D01*
X6853928Y-15277786D01*
X6868214Y-15263500D01*
X6896786Y-15249214D01*
X6939643Y-15249214D01*
X6968214Y-15263500D01*
X6982500Y-15277786D01*
X6996786Y-15306357D01*
X6996786Y-15392071D01*
X6982500Y-15420643D01*
X6968214Y-15434929D01*
X6939643Y-15449214D01*
X6896786Y-15449214D01*
X7168214Y-15449214D02*
X7139643Y-15434929D01*
X7125357Y-15406357D01*
X7125357Y-15149214D01*
X7396786Y-15434929D02*
X7368214Y-15449214D01*
X7311071Y-15449214D01*
X7282500Y-15434929D01*
X7268214Y-15406357D01*
X7268214Y-15292071D01*
X7282500Y-15263500D01*
X7311071Y-15249214D01*
X7368214Y-15249214D01*
X7396786Y-15263500D01*
X7411071Y-15292071D01*
X7411071Y-15320643D01*
X7268214Y-15349214D01*
X7525357Y-15434929D02*
X7553928Y-15449214D01*
X7611071Y-15449214D01*
X7639643Y-15434929D01*
X7653928Y-15406357D01*
X7653928Y-15392071D01*
X7639643Y-15363500D01*
X7611071Y-15349214D01*
X7568214Y-15349214D01*
X7539643Y-15334929D01*
X7525357Y-15306357D01*
X7525357Y-15292071D01*
X7539643Y-15263500D01*
X7568214Y-15249214D01*
X7611071Y-15249214D01*
X7639643Y-15263500D01*
X7753928Y-15563500D02*
X7768214Y-15549214D01*
X7796786Y-15506357D01*
X7811071Y-15477786D01*
X7825357Y-15434929D01*
X7839643Y-15363500D01*
X7839643Y-15306357D01*
X7825357Y-15234929D01*
X7811071Y-15192071D01*
X7796786Y-15163500D01*
X7768214Y-15120643D01*
X7753928Y-15106357D01*
X8296786Y-15563500D02*
X8282500Y-15549214D01*
X8253928Y-15506357D01*
X8239643Y-15477786D01*
X8225357Y-15434929D01*
X8211071Y-15363500D01*
X8211071Y-15306357D01*
X8225357Y-15234929D01*
X8239643Y-15192071D01*
X8253928Y-15163500D01*
X8282500Y-15120643D01*
X8296786Y-15106357D01*
X8411071Y-15249214D02*
X8411071Y-15449214D01*
X8411071Y-15277786D02*
X8425357Y-15263500D01*
X8453928Y-15249214D01*
X8496786Y-15249214D01*
X8525357Y-15263500D01*
X8539643Y-15292071D01*
X8539643Y-15449214D01*
X8725357Y-15449214D02*
X8696786Y-15434929D01*
X8682500Y-15420643D01*
X8668214Y-15392071D01*
X8668214Y-15306357D01*
X8682500Y-15277786D01*
X8696786Y-15263500D01*
X8725357Y-15249214D01*
X8768214Y-15249214D01*
X8796786Y-15263500D01*
X8811071Y-15277786D01*
X8825357Y-15306357D01*
X8825357Y-15392071D01*
X8811071Y-15420643D01*
X8796786Y-15434929D01*
X8768214Y-15449214D01*
X8725357Y-15449214D01*
X8911071Y-15249214D02*
X9025357Y-15249214D01*
X8953928Y-15149214D02*
X8953928Y-15406357D01*
X8968214Y-15434929D01*
X8996786Y-15449214D01*
X9025357Y-15449214D01*
X9353928Y-15249214D02*
X9353928Y-15549214D01*
X9353928Y-15263500D02*
X9382500Y-15249214D01*
X9439643Y-15249214D01*
X9468214Y-15263500D01*
X9482500Y-15277786D01*
X9496786Y-15306357D01*
X9496786Y-15392071D01*
X9482500Y-15420643D01*
X9468214Y-15434929D01*
X9439643Y-15449214D01*
X9382500Y-15449214D01*
X9353928Y-15434929D01*
X9668214Y-15449214D02*
X9639643Y-15434929D01*
X9625357Y-15406357D01*
X9625357Y-15149214D01*
X9911071Y-15449214D02*
X9911071Y-15292071D01*
X9896786Y-15263500D01*
X9868214Y-15249214D01*
X9811071Y-15249214D01*
X9782500Y-15263500D01*
X9911071Y-15434929D02*
X9882500Y-15449214D01*
X9811071Y-15449214D01*
X9782500Y-15434929D01*
X9768214Y-15406357D01*
X9768214Y-15377786D01*
X9782500Y-15349214D01*
X9811071Y-15334929D01*
X9882500Y-15334929D01*
X9911071Y-15320643D01*
X10011071Y-15249214D02*
X10125357Y-15249214D01*
X10053928Y-15149214D02*
X10053928Y-15406357D01*
X10068214Y-15434929D01*
X10096786Y-15449214D01*
X10125357Y-15449214D01*
X10339643Y-15434929D02*
X10311071Y-15449214D01*
X10253928Y-15449214D01*
X10225357Y-15434929D01*
X10211071Y-15406357D01*
X10211071Y-15292071D01*
X10225357Y-15263500D01*
X10253928Y-15249214D01*
X10311071Y-15249214D01*
X10339643Y-15263500D01*
X10353928Y-15292071D01*
X10353928Y-15320643D01*
X10211071Y-15349214D01*
X10611071Y-15449214D02*
X10611071Y-15149214D01*
X10611071Y-15434929D02*
X10582500Y-15449214D01*
X10525357Y-15449214D01*
X10496786Y-15434929D01*
X10482500Y-15420643D01*
X10468214Y-15392071D01*
X10468214Y-15306357D01*
X10482500Y-15277786D01*
X10496786Y-15263500D01*
X10525357Y-15249214D01*
X10582500Y-15249214D01*
X10611071Y-15263500D01*
X10725357Y-15563500D02*
X10739643Y-15549214D01*
X10768214Y-15506357D01*
X10782500Y-15477786D01*
X10796786Y-15434929D01*
X10811071Y-15363500D01*
X10811071Y-15306357D01*
X10796786Y-15234929D01*
X10782500Y-15192071D01*
X10768214Y-15163500D01*
X10739643Y-15120643D01*
X10725357Y-15106357D01*
M02*
