M48
; DRILL file {KiCad (5.1.2-1)-1} date domingo, 30 de julio de 2023, 19:20:17
; FORMAT={-:-/ absolute / metric / decimal}
; #@! TF.CreationDate,2023-07-30T19:20:17+02:00
; #@! TF.GenerationSoftware,Kicad,Pcbnew,(5.1.2-1)-1
; #@! TF.FileFunction,Plated,1,2,PTH
FMAT,2
METRIC
T1C0.400
T2C0.800
T3C1.000
%
G90
G05
T1
X26.035Y-13.97
X37.465Y-12.7
X37.465Y-26.67
T2
X48.26Y-27.94
X48.26Y-30.48
X20.32Y-12.7
X20.32Y-15.24
X20.32Y-17.78
X20.32Y-20.32
X20.32Y-22.86
X20.32Y-25.4
X20.32Y-27.94
X20.32Y-30.48
X27.94Y-12.7
X27.94Y-15.24
X27.94Y-17.78
X27.94Y-20.32
X27.94Y-22.86
X27.94Y-25.4
X27.94Y-27.94
X27.94Y-30.48
X42.545Y-30.48
X45.045Y-30.48
X31.735Y-12.7
X31.735Y-15.24
X31.735Y-17.78
X31.735Y-20.32
X31.735Y-22.86
X31.735Y-25.4
X31.735Y-27.94
X31.735Y-30.48
X39.355Y-12.7
X39.355Y-15.24
X39.355Y-17.78
X39.355Y-20.32
X39.355Y-22.86
X39.355Y-25.4
X39.355Y-27.94
X39.355Y-30.48
T3
X45.72Y-12.7
X45.72Y-15.24
X45.72Y-17.78
X45.72Y-20.32
X12.7Y-12.7
X12.7Y-15.24
X12.7Y-17.78
X12.7Y-20.32
X12.7Y-22.86
X12.7Y-25.4
X12.7Y-27.94
X12.7Y-30.48
X15.24Y-12.7
X15.24Y-15.24
X15.24Y-17.78
X15.24Y-20.32
X15.24Y-22.86
X15.24Y-25.4
X15.24Y-27.94
X15.24Y-30.48
T0
M30
