G04 #@! TF.GenerationSoftware,KiCad,Pcbnew,(5.1.2-1)-1*
G04 #@! TF.CreationDate,2023-07-30T19:19:47+02:00*
G04 #@! TF.ProjectId,nanoLink,6e616e6f-4c69-46e6-9b2e-6b696361645f,rev?*
G04 #@! TF.SameCoordinates,Original*
G04 #@! TF.FileFunction,Legend,Top*
G04 #@! TF.FilePolarity,Positive*
%FSLAX46Y46*%
G04 Gerber Fmt 4.6, Leading zero omitted, Abs format (unit mm)*
G04 Created by KiCad (PCBNEW (5.1.2-1)-1) date 2023-07-30 19:19:47*
%MOMM*%
%LPD*%
G04 APERTURE LIST*
%ADD10C,0.150000*%
%ADD11C,0.250000*%
%ADD12C,0.300000*%
%ADD13C,0.120000*%
%ADD14C,0.010000*%
%ADD15C,0.127000*%
%ADD16O,1.702000X1.702000*%
%ADD17C,1.702000*%
%ADD18R,1.702000X1.702000*%
%ADD19O,1.802000X1.802000*%
%ADD20R,1.802000X1.802000*%
G04 APERTURE END LIST*
D10*
X34202619Y-12017952D02*
X33488333Y-12017952D01*
X33345476Y-11970333D01*
X33250238Y-11875095D01*
X33202619Y-11732238D01*
X33202619Y-11637000D01*
X33202619Y-12970333D02*
X33202619Y-12494142D01*
X34202619Y-12494142D01*
X33297857Y-13875095D02*
X33250238Y-13827476D01*
X33202619Y-13684619D01*
X33202619Y-13589380D01*
X33250238Y-13446523D01*
X33345476Y-13351285D01*
X33440714Y-13303666D01*
X33631190Y-13256047D01*
X33774047Y-13256047D01*
X33964523Y-13303666D01*
X34059761Y-13351285D01*
X34155000Y-13446523D01*
X34202619Y-13589380D01*
X34202619Y-13684619D01*
X34155000Y-13827476D01*
X34107380Y-13875095D01*
X34202619Y-14589380D02*
X33488333Y-14589380D01*
X33345476Y-14541761D01*
X33250238Y-14446523D01*
X33202619Y-14303666D01*
X33202619Y-14208428D01*
X33202619Y-15541761D02*
X33202619Y-15065571D01*
X34202619Y-15065571D01*
X33297857Y-16446523D02*
X33250238Y-16398904D01*
X33202619Y-16256047D01*
X33202619Y-16160809D01*
X33250238Y-16017952D01*
X33345476Y-15922714D01*
X33440714Y-15875095D01*
X33631190Y-15827476D01*
X33774047Y-15827476D01*
X33964523Y-15875095D01*
X34059761Y-15922714D01*
X34155000Y-16017952D01*
X34202619Y-16160809D01*
X34202619Y-16256047D01*
X34155000Y-16398904D01*
X34107380Y-16446523D01*
X34202619Y-17160809D02*
X33488333Y-17160809D01*
X33345476Y-17113190D01*
X33250238Y-17017952D01*
X33202619Y-16875095D01*
X33202619Y-16779857D01*
X33202619Y-18113190D02*
X33202619Y-17637000D01*
X34202619Y-17637000D01*
X33297857Y-19017952D02*
X33250238Y-18970333D01*
X33202619Y-18827476D01*
X33202619Y-18732238D01*
X33250238Y-18589380D01*
X33345476Y-18494142D01*
X33440714Y-18446523D01*
X33631190Y-18398904D01*
X33774047Y-18398904D01*
X33964523Y-18446523D01*
X34059761Y-18494142D01*
X34155000Y-18589380D01*
X34202619Y-18732238D01*
X34202619Y-18827476D01*
X34155000Y-18970333D01*
X34107380Y-19017952D01*
X34202619Y-19732238D02*
X33488333Y-19732238D01*
X33345476Y-19684619D01*
X33250238Y-19589380D01*
X33202619Y-19446523D01*
X33202619Y-19351285D01*
X33202619Y-20684619D02*
X33202619Y-20208428D01*
X34202619Y-20208428D01*
X33297857Y-21589380D02*
X33250238Y-21541761D01*
X33202619Y-21398904D01*
X33202619Y-21303666D01*
X33250238Y-21160809D01*
X33345476Y-21065571D01*
X33440714Y-21017952D01*
X33631190Y-20970333D01*
X33774047Y-20970333D01*
X33964523Y-21017952D01*
X34059761Y-21065571D01*
X34155000Y-21160809D01*
X34202619Y-21303666D01*
X34202619Y-21398904D01*
X34155000Y-21541761D01*
X34107380Y-21589380D01*
D11*
X43845238Y-22709523D02*
X43905714Y-22661904D01*
X43966190Y-22566666D01*
X43966190Y-22471428D01*
X43905714Y-22376190D01*
X43845238Y-22328571D01*
X43724285Y-22280952D01*
X43603333Y-22280952D01*
X43482380Y-22328571D01*
X43421904Y-22376190D01*
X43361428Y-22471428D01*
X43361428Y-22566666D01*
X43421904Y-22661904D01*
X43482380Y-22709523D01*
X43966190Y-22709523D02*
X43482380Y-22709523D01*
X43421904Y-22757142D01*
X43421904Y-22804761D01*
X43482380Y-22900000D01*
X43603333Y-22947619D01*
X43905714Y-22947619D01*
X44087142Y-22852380D01*
X44208095Y-22709523D01*
X44268571Y-22519047D01*
X44208095Y-22328571D01*
X44087142Y-22185714D01*
X43905714Y-22090476D01*
X43663809Y-22042857D01*
X43421904Y-22090476D01*
X43240476Y-22185714D01*
X43119523Y-22328571D01*
X43059047Y-22519047D01*
X43119523Y-22709523D01*
X43240476Y-22852380D01*
X44087142Y-23280952D02*
X44087142Y-23804761D01*
X43240476Y-23280952D01*
X43240476Y-23804761D01*
X44087142Y-24614285D02*
X43240476Y-24614285D01*
X44087142Y-24185714D02*
X43421904Y-24185714D01*
X43300952Y-24233333D01*
X43240476Y-24328571D01*
X43240476Y-24471428D01*
X43300952Y-24566666D01*
X43361428Y-24614285D01*
X43240476Y-25090476D02*
X44087142Y-25090476D01*
X44510476Y-25090476D02*
X44450000Y-25042857D01*
X44389523Y-25090476D01*
X44450000Y-25138095D01*
X44510476Y-25090476D01*
X44389523Y-25090476D01*
X43240476Y-25566666D02*
X44510476Y-25566666D01*
X43724285Y-25661904D02*
X43240476Y-25947619D01*
X44087142Y-25947619D02*
X43603333Y-25566666D01*
X43240476Y-26519047D02*
X43300952Y-26423809D01*
X43361428Y-26376190D01*
X43482380Y-26328571D01*
X43845238Y-26328571D01*
X43966190Y-26376190D01*
X44026666Y-26423809D01*
X44087142Y-26519047D01*
X44087142Y-26661904D01*
X44026666Y-26757142D01*
X43966190Y-26804761D01*
X43845238Y-26852380D01*
X43482380Y-26852380D01*
X43361428Y-26804761D01*
X43300952Y-26757142D01*
X43240476Y-26661904D01*
X43240476Y-26519047D01*
X44389523Y-27233333D02*
X44450000Y-27280952D01*
X44510476Y-27376190D01*
X44510476Y-27614285D01*
X44450000Y-27709523D01*
X44389523Y-27757142D01*
X44268571Y-27804761D01*
X44147619Y-27804761D01*
X43966190Y-27757142D01*
X43240476Y-27185714D01*
X43240476Y-27804761D01*
X43240476Y-28757142D02*
X43240476Y-28185714D01*
X43240476Y-28471428D02*
X44510476Y-28471428D01*
X44329047Y-28376190D01*
X44208095Y-28280952D01*
X44147619Y-28185714D01*
D12*
X41485428Y-12152857D02*
X42485428Y-12938571D01*
X42485428Y-12152857D02*
X41485428Y-12938571D01*
X41485428Y-14652857D02*
X42985428Y-14652857D01*
X42985428Y-15010000D01*
X42914000Y-15224285D01*
X42771142Y-15367142D01*
X42628285Y-15438571D01*
X42342571Y-15510000D01*
X42128285Y-15510000D01*
X41842571Y-15438571D01*
X41699714Y-15367142D01*
X41556857Y-15224285D01*
X41485428Y-15010000D01*
X41485428Y-14652857D01*
X41628285Y-18152857D02*
X41556857Y-18081428D01*
X41485428Y-17867142D01*
X41485428Y-17724285D01*
X41556857Y-17510000D01*
X41699714Y-17367142D01*
X41842571Y-17295714D01*
X42128285Y-17224285D01*
X42342571Y-17224285D01*
X42628285Y-17295714D01*
X42771142Y-17367142D01*
X42914000Y-17510000D01*
X42985428Y-17724285D01*
X42985428Y-17867142D01*
X42914000Y-18081428D01*
X42842571Y-18152857D01*
X42914000Y-20724285D02*
X42985428Y-20581428D01*
X42985428Y-20367142D01*
X42914000Y-20152857D01*
X42771142Y-20010000D01*
X42628285Y-19938571D01*
X42342571Y-19867142D01*
X42128285Y-19867142D01*
X41842571Y-19938571D01*
X41699714Y-20010000D01*
X41556857Y-20152857D01*
X41485428Y-20367142D01*
X41485428Y-20510000D01*
X41556857Y-20724285D01*
X41628285Y-20795714D01*
X42128285Y-20795714D01*
X42128285Y-20510000D01*
D13*
X48260000Y-29110000D02*
X48260000Y-29040000D01*
X49630000Y-30480000D02*
G75*
G03X49630000Y-30480000I-1370000J0D01*
G01*
X40685000Y-11310000D02*
X30405000Y-11310000D01*
X40685000Y-31870000D02*
X40685000Y-11310000D01*
X30405000Y-31870000D02*
X40685000Y-31870000D01*
X30405000Y-11310000D02*
X30405000Y-31870000D01*
X38195000Y-11370000D02*
X36545000Y-11370000D01*
X38195000Y-31810000D02*
X38195000Y-11370000D01*
X32895000Y-31810000D02*
X38195000Y-31810000D01*
X32895000Y-11370000D02*
X32895000Y-31810000D01*
X34545000Y-11370000D02*
X32895000Y-11370000D01*
X36545000Y-11370000D02*
G75*
G02X34545000Y-11370000I-1000000J0D01*
G01*
X29270000Y-11310000D02*
X18990000Y-11310000D01*
X29270000Y-31870000D02*
X29270000Y-11310000D01*
X18990000Y-31870000D02*
X29270000Y-31870000D01*
X18990000Y-11310000D02*
X18990000Y-31870000D01*
X26780000Y-11370000D02*
X25130000Y-11370000D01*
X26780000Y-31810000D02*
X26780000Y-11370000D01*
X21480000Y-31810000D02*
X26780000Y-31810000D01*
X21480000Y-11370000D02*
X21480000Y-31810000D01*
X23130000Y-11370000D02*
X21480000Y-11370000D01*
X25130000Y-11370000D02*
G75*
G02X23130000Y-11370000I-1000000J0D01*
G01*
X45815000Y-31275000D02*
X45815000Y-31900000D01*
X45815000Y-29060000D02*
X45815000Y-29685000D01*
X41775000Y-31275000D02*
X41775000Y-31900000D01*
X41775000Y-29060000D02*
X41775000Y-29685000D01*
X41775000Y-31900000D02*
X45815000Y-31900000D01*
X41775000Y-29060000D02*
X45815000Y-29060000D01*
D14*
G36*
X27141652Y-16486910D02*
G01*
X27141222Y-16565454D01*
X27140058Y-16622298D01*
X27137793Y-16661105D01*
X27134060Y-16685538D01*
X27128494Y-16699262D01*
X27120727Y-16705940D01*
X27110395Y-16709236D01*
X27109057Y-16709556D01*
X27084921Y-16714562D01*
X27037299Y-16723829D01*
X26971259Y-16736392D01*
X26891872Y-16751287D01*
X26804204Y-16767551D01*
X26801125Y-16768119D01*
X26715211Y-16784410D01*
X26639304Y-16799652D01*
X26577955Y-16812861D01*
X26535718Y-16823054D01*
X26517145Y-16829248D01*
X26516816Y-16829543D01*
X26507747Y-16847788D01*
X26492633Y-16885405D01*
X26474738Y-16934271D01*
X26474642Y-16934543D01*
X26451507Y-16996093D01*
X26422035Y-17068657D01*
X26392403Y-17137057D01*
X26390938Y-17140294D01*
X26340374Y-17251702D01*
X26508840Y-17498399D01*
X26560197Y-17574077D01*
X26606111Y-17642631D01*
X26643970Y-17700088D01*
X26671163Y-17742476D01*
X26685079Y-17765825D01*
X26686111Y-17768042D01*
X26681516Y-17785010D01*
X26659345Y-17816701D01*
X26618553Y-17864352D01*
X26558095Y-17929198D01*
X26493773Y-17995397D01*
X26430388Y-18059214D01*
X26372549Y-18116329D01*
X26323825Y-18163305D01*
X26287790Y-18196703D01*
X26268016Y-18213085D01*
X26266998Y-18213694D01*
X26253428Y-18215505D01*
X26231267Y-18208683D01*
X26197522Y-18191540D01*
X26149200Y-18162393D01*
X26083308Y-18119555D01*
X25998483Y-18062448D01*
X25923823Y-18011766D01*
X25856860Y-17966461D01*
X25801484Y-17929150D01*
X25761580Y-17902452D01*
X25741038Y-17888985D01*
X25739644Y-17888137D01*
X25719962Y-17889781D01*
X25681707Y-17902245D01*
X25632111Y-17923048D01*
X25616272Y-17930462D01*
X25545710Y-17962814D01*
X25465647Y-17997328D01*
X25396371Y-18025365D01*
X25344955Y-18045568D01*
X25305881Y-18061615D01*
X25285459Y-18070888D01*
X25283886Y-18072041D01*
X25281279Y-18089096D01*
X25274137Y-18129298D01*
X25263477Y-18187302D01*
X25250315Y-18257763D01*
X25235667Y-18335335D01*
X25220551Y-18414672D01*
X25205982Y-18490431D01*
X25192978Y-18557264D01*
X25182555Y-18609828D01*
X25175730Y-18642776D01*
X25173801Y-18650857D01*
X25169038Y-18659205D01*
X25158282Y-18665506D01*
X25137902Y-18670045D01*
X25104266Y-18673104D01*
X25053745Y-18674967D01*
X24982708Y-18675918D01*
X24887524Y-18676240D01*
X24848508Y-18676257D01*
X24531201Y-18676257D01*
X24516161Y-18600057D01*
X24508005Y-18557663D01*
X24496101Y-18494400D01*
X24481884Y-18417962D01*
X24466790Y-18336043D01*
X24462645Y-18313400D01*
X24447947Y-18237806D01*
X24433495Y-18171953D01*
X24420625Y-18121366D01*
X24410678Y-18091574D01*
X24407713Y-18086612D01*
X24386717Y-18074426D01*
X24346033Y-18056953D01*
X24293678Y-18037577D01*
X24282400Y-18033734D01*
X24212477Y-18008339D01*
X24133582Y-17976817D01*
X24062734Y-17945969D01*
X24062405Y-17945817D01*
X23951267Y-17894447D01*
X23702747Y-18063399D01*
X23454228Y-18232352D01*
X23236942Y-18015429D01*
X23172274Y-17949819D01*
X23115267Y-17889979D01*
X23068967Y-17839267D01*
X23036416Y-17801046D01*
X23020657Y-17778675D01*
X23019657Y-17775466D01*
X23027531Y-17756626D01*
X23049422Y-17718180D01*
X23082733Y-17664330D01*
X23124869Y-17599276D01*
X23172057Y-17528940D01*
X23220190Y-17457555D01*
X23262072Y-17393908D01*
X23295129Y-17342041D01*
X23316782Y-17305995D01*
X23324457Y-17289867D01*
X23317963Y-17270189D01*
X23300850Y-17232875D01*
X23276674Y-17185621D01*
X23273987Y-17180612D01*
X23242073Y-17116977D01*
X23226421Y-17073341D01*
X23226255Y-17046202D01*
X23240796Y-17032057D01*
X23241000Y-17031975D01*
X23258221Y-17024905D01*
X23299101Y-17008042D01*
X23360475Y-16982695D01*
X23439181Y-16950171D01*
X23532053Y-16911778D01*
X23635928Y-16868822D01*
X23736498Y-16827222D01*
X23847484Y-16781504D01*
X23950297Y-16739526D01*
X24041785Y-16702548D01*
X24118799Y-16671827D01*
X24178185Y-16648622D01*
X24216791Y-16634190D01*
X24231200Y-16629743D01*
X24247728Y-16640896D01*
X24274070Y-16670069D01*
X24303113Y-16708971D01*
X24394961Y-16819757D01*
X24500241Y-16906351D01*
X24616734Y-16967716D01*
X24742224Y-17002815D01*
X24874493Y-17010608D01*
X24935543Y-17004943D01*
X25062205Y-16974078D01*
X25174059Y-16920920D01*
X25269999Y-16848767D01*
X25348924Y-16760917D01*
X25409730Y-16660665D01*
X25451313Y-16551310D01*
X25472572Y-16436147D01*
X25472401Y-16318475D01*
X25449699Y-16201590D01*
X25403362Y-16088789D01*
X25332287Y-15983369D01*
X25292089Y-15939368D01*
X25188871Y-15854979D01*
X25076075Y-15796222D01*
X24956990Y-15762704D01*
X24834905Y-15754035D01*
X24713107Y-15769823D01*
X24594884Y-15809678D01*
X24483525Y-15873207D01*
X24382316Y-15960021D01*
X24303113Y-16057029D01*
X24272838Y-16097437D01*
X24246781Y-16125982D01*
X24231175Y-16136257D01*
X24214157Y-16130877D01*
X24173500Y-16115575D01*
X24112358Y-16091612D01*
X24033881Y-16060244D01*
X23941220Y-16022732D01*
X23837528Y-15980333D01*
X23736474Y-15938663D01*
X23625393Y-15892690D01*
X23522459Y-15850107D01*
X23430835Y-15812221D01*
X23353684Y-15780340D01*
X23294169Y-15755771D01*
X23255456Y-15739820D01*
X23241000Y-15733910D01*
X23226315Y-15719948D01*
X23226358Y-15692940D01*
X23241901Y-15649413D01*
X23273716Y-15585890D01*
X23273987Y-15585388D01*
X23298677Y-15537560D01*
X23316662Y-15498897D01*
X23324386Y-15477095D01*
X23324457Y-15476133D01*
X23316622Y-15459721D01*
X23294835Y-15423487D01*
X23261672Y-15371474D01*
X23219709Y-15307725D01*
X23172057Y-15237060D01*
X23123809Y-15165116D01*
X23081849Y-15100274D01*
X23048773Y-15046735D01*
X23027179Y-15008697D01*
X23019657Y-14990533D01*
X23029543Y-14973808D01*
X23057174Y-14940180D01*
X23099505Y-14893010D01*
X23153495Y-14835658D01*
X23216101Y-14771484D01*
X23237017Y-14750497D01*
X23454377Y-14533499D01*
X23696780Y-14698668D01*
X23771219Y-14748864D01*
X23838028Y-14792919D01*
X23893335Y-14828362D01*
X23933271Y-14852719D01*
X23953964Y-14863522D01*
X23955437Y-14863838D01*
X23974942Y-14858143D01*
X24014178Y-14842826D01*
X24066570Y-14820537D01*
X24101645Y-14804893D01*
X24168799Y-14775641D01*
X24236642Y-14748094D01*
X24293966Y-14726737D01*
X24311428Y-14720935D01*
X24358062Y-14704452D01*
X24394095Y-14688340D01*
X24407713Y-14679490D01*
X24416048Y-14659960D01*
X24427863Y-14617334D01*
X24441819Y-14557145D01*
X24456578Y-14484922D01*
X24462645Y-14452600D01*
X24477727Y-14370522D01*
X24492331Y-14291795D01*
X24505020Y-14224109D01*
X24514358Y-14175160D01*
X24516161Y-14165943D01*
X24531201Y-14089743D01*
X24848508Y-14089743D01*
X24952846Y-14089914D01*
X25031787Y-14090616D01*
X25088962Y-14092134D01*
X25128001Y-14094749D01*
X25152535Y-14098746D01*
X25166195Y-14104409D01*
X25172611Y-14112020D01*
X25173801Y-14115143D01*
X25178020Y-14133978D01*
X25186438Y-14175588D01*
X25198039Y-14234630D01*
X25211805Y-14305757D01*
X25226720Y-14383625D01*
X25241768Y-14462887D01*
X25255931Y-14538198D01*
X25268194Y-14604213D01*
X25277539Y-14655587D01*
X25282950Y-14686975D01*
X25283886Y-14693959D01*
X25296404Y-14700285D01*
X25329754Y-14714290D01*
X25377623Y-14733355D01*
X25396371Y-14740634D01*
X25468805Y-14769996D01*
X25548830Y-14804571D01*
X25616272Y-14835537D01*
X25667841Y-14858323D01*
X25710215Y-14873482D01*
X25736166Y-14878542D01*
X25739644Y-14877736D01*
X25756064Y-14867041D01*
X25792583Y-14842620D01*
X25845313Y-14807095D01*
X25910365Y-14763087D01*
X25983849Y-14713217D01*
X25998355Y-14703356D01*
X26084296Y-14645492D01*
X26149739Y-14602956D01*
X26197696Y-14574054D01*
X26231180Y-14557090D01*
X26253205Y-14550367D01*
X26266783Y-14552190D01*
X26266869Y-14552236D01*
X26284703Y-14566586D01*
X26319183Y-14598323D01*
X26366732Y-14644010D01*
X26423778Y-14700204D01*
X26486745Y-14763468D01*
X26493773Y-14770602D01*
X26570980Y-14850330D01*
X26627670Y-14911857D01*
X26664890Y-14956421D01*
X26683685Y-14985257D01*
X26686111Y-14997958D01*
X26675529Y-15016494D01*
X26651084Y-15054961D01*
X26615388Y-15109386D01*
X26571053Y-15175798D01*
X26520689Y-15250225D01*
X26508840Y-15267601D01*
X26340374Y-15514297D01*
X26390938Y-15625706D01*
X26420405Y-15693457D01*
X26450041Y-15766183D01*
X26473670Y-15828703D01*
X26474642Y-15831457D01*
X26492543Y-15880360D01*
X26507680Y-15918057D01*
X26516790Y-15936425D01*
X26516816Y-15936456D01*
X26533283Y-15942285D01*
X26573781Y-15952192D01*
X26633758Y-15965195D01*
X26708660Y-15980309D01*
X26793936Y-15996552D01*
X26801125Y-15997881D01*
X26888986Y-16014175D01*
X26968740Y-16029133D01*
X27035319Y-16041791D01*
X27083653Y-16051186D01*
X27108675Y-16056354D01*
X27109057Y-16056444D01*
X27119701Y-16059589D01*
X27127738Y-16065704D01*
X27133533Y-16078453D01*
X27137453Y-16101500D01*
X27139865Y-16138509D01*
X27141135Y-16193144D01*
X27141629Y-16269067D01*
X27141714Y-16369944D01*
X27141714Y-16383000D01*
X27141652Y-16486910D01*
X27141652Y-16486910D01*
G37*
X27141652Y-16486910D02*
X27141222Y-16565454D01*
X27140058Y-16622298D01*
X27137793Y-16661105D01*
X27134060Y-16685538D01*
X27128494Y-16699262D01*
X27120727Y-16705940D01*
X27110395Y-16709236D01*
X27109057Y-16709556D01*
X27084921Y-16714562D01*
X27037299Y-16723829D01*
X26971259Y-16736392D01*
X26891872Y-16751287D01*
X26804204Y-16767551D01*
X26801125Y-16768119D01*
X26715211Y-16784410D01*
X26639304Y-16799652D01*
X26577955Y-16812861D01*
X26535718Y-16823054D01*
X26517145Y-16829248D01*
X26516816Y-16829543D01*
X26507747Y-16847788D01*
X26492633Y-16885405D01*
X26474738Y-16934271D01*
X26474642Y-16934543D01*
X26451507Y-16996093D01*
X26422035Y-17068657D01*
X26392403Y-17137057D01*
X26390938Y-17140294D01*
X26340374Y-17251702D01*
X26508840Y-17498399D01*
X26560197Y-17574077D01*
X26606111Y-17642631D01*
X26643970Y-17700088D01*
X26671163Y-17742476D01*
X26685079Y-17765825D01*
X26686111Y-17768042D01*
X26681516Y-17785010D01*
X26659345Y-17816701D01*
X26618553Y-17864352D01*
X26558095Y-17929198D01*
X26493773Y-17995397D01*
X26430388Y-18059214D01*
X26372549Y-18116329D01*
X26323825Y-18163305D01*
X26287790Y-18196703D01*
X26268016Y-18213085D01*
X26266998Y-18213694D01*
X26253428Y-18215505D01*
X26231267Y-18208683D01*
X26197522Y-18191540D01*
X26149200Y-18162393D01*
X26083308Y-18119555D01*
X25998483Y-18062448D01*
X25923823Y-18011766D01*
X25856860Y-17966461D01*
X25801484Y-17929150D01*
X25761580Y-17902452D01*
X25741038Y-17888985D01*
X25739644Y-17888137D01*
X25719962Y-17889781D01*
X25681707Y-17902245D01*
X25632111Y-17923048D01*
X25616272Y-17930462D01*
X25545710Y-17962814D01*
X25465647Y-17997328D01*
X25396371Y-18025365D01*
X25344955Y-18045568D01*
X25305881Y-18061615D01*
X25285459Y-18070888D01*
X25283886Y-18072041D01*
X25281279Y-18089096D01*
X25274137Y-18129298D01*
X25263477Y-18187302D01*
X25250315Y-18257763D01*
X25235667Y-18335335D01*
X25220551Y-18414672D01*
X25205982Y-18490431D01*
X25192978Y-18557264D01*
X25182555Y-18609828D01*
X25175730Y-18642776D01*
X25173801Y-18650857D01*
X25169038Y-18659205D01*
X25158282Y-18665506D01*
X25137902Y-18670045D01*
X25104266Y-18673104D01*
X25053745Y-18674967D01*
X24982708Y-18675918D01*
X24887524Y-18676240D01*
X24848508Y-18676257D01*
X24531201Y-18676257D01*
X24516161Y-18600057D01*
X24508005Y-18557663D01*
X24496101Y-18494400D01*
X24481884Y-18417962D01*
X24466790Y-18336043D01*
X24462645Y-18313400D01*
X24447947Y-18237806D01*
X24433495Y-18171953D01*
X24420625Y-18121366D01*
X24410678Y-18091574D01*
X24407713Y-18086612D01*
X24386717Y-18074426D01*
X24346033Y-18056953D01*
X24293678Y-18037577D01*
X24282400Y-18033734D01*
X24212477Y-18008339D01*
X24133582Y-17976817D01*
X24062734Y-17945969D01*
X24062405Y-17945817D01*
X23951267Y-17894447D01*
X23702747Y-18063399D01*
X23454228Y-18232352D01*
X23236942Y-18015429D01*
X23172274Y-17949819D01*
X23115267Y-17889979D01*
X23068967Y-17839267D01*
X23036416Y-17801046D01*
X23020657Y-17778675D01*
X23019657Y-17775466D01*
X23027531Y-17756626D01*
X23049422Y-17718180D01*
X23082733Y-17664330D01*
X23124869Y-17599276D01*
X23172057Y-17528940D01*
X23220190Y-17457555D01*
X23262072Y-17393908D01*
X23295129Y-17342041D01*
X23316782Y-17305995D01*
X23324457Y-17289867D01*
X23317963Y-17270189D01*
X23300850Y-17232875D01*
X23276674Y-17185621D01*
X23273987Y-17180612D01*
X23242073Y-17116977D01*
X23226421Y-17073341D01*
X23226255Y-17046202D01*
X23240796Y-17032057D01*
X23241000Y-17031975D01*
X23258221Y-17024905D01*
X23299101Y-17008042D01*
X23360475Y-16982695D01*
X23439181Y-16950171D01*
X23532053Y-16911778D01*
X23635928Y-16868822D01*
X23736498Y-16827222D01*
X23847484Y-16781504D01*
X23950297Y-16739526D01*
X24041785Y-16702548D01*
X24118799Y-16671827D01*
X24178185Y-16648622D01*
X24216791Y-16634190D01*
X24231200Y-16629743D01*
X24247728Y-16640896D01*
X24274070Y-16670069D01*
X24303113Y-16708971D01*
X24394961Y-16819757D01*
X24500241Y-16906351D01*
X24616734Y-16967716D01*
X24742224Y-17002815D01*
X24874493Y-17010608D01*
X24935543Y-17004943D01*
X25062205Y-16974078D01*
X25174059Y-16920920D01*
X25269999Y-16848767D01*
X25348924Y-16760917D01*
X25409730Y-16660665D01*
X25451313Y-16551310D01*
X25472572Y-16436147D01*
X25472401Y-16318475D01*
X25449699Y-16201590D01*
X25403362Y-16088789D01*
X25332287Y-15983369D01*
X25292089Y-15939368D01*
X25188871Y-15854979D01*
X25076075Y-15796222D01*
X24956990Y-15762704D01*
X24834905Y-15754035D01*
X24713107Y-15769823D01*
X24594884Y-15809678D01*
X24483525Y-15873207D01*
X24382316Y-15960021D01*
X24303113Y-16057029D01*
X24272838Y-16097437D01*
X24246781Y-16125982D01*
X24231175Y-16136257D01*
X24214157Y-16130877D01*
X24173500Y-16115575D01*
X24112358Y-16091612D01*
X24033881Y-16060244D01*
X23941220Y-16022732D01*
X23837528Y-15980333D01*
X23736474Y-15938663D01*
X23625393Y-15892690D01*
X23522459Y-15850107D01*
X23430835Y-15812221D01*
X23353684Y-15780340D01*
X23294169Y-15755771D01*
X23255456Y-15739820D01*
X23241000Y-15733910D01*
X23226315Y-15719948D01*
X23226358Y-15692940D01*
X23241901Y-15649413D01*
X23273716Y-15585890D01*
X23273987Y-15585388D01*
X23298677Y-15537560D01*
X23316662Y-15498897D01*
X23324386Y-15477095D01*
X23324457Y-15476133D01*
X23316622Y-15459721D01*
X23294835Y-15423487D01*
X23261672Y-15371474D01*
X23219709Y-15307725D01*
X23172057Y-15237060D01*
X23123809Y-15165116D01*
X23081849Y-15100274D01*
X23048773Y-15046735D01*
X23027179Y-15008697D01*
X23019657Y-14990533D01*
X23029543Y-14973808D01*
X23057174Y-14940180D01*
X23099505Y-14893010D01*
X23153495Y-14835658D01*
X23216101Y-14771484D01*
X23237017Y-14750497D01*
X23454377Y-14533499D01*
X23696780Y-14698668D01*
X23771219Y-14748864D01*
X23838028Y-14792919D01*
X23893335Y-14828362D01*
X23933271Y-14852719D01*
X23953964Y-14863522D01*
X23955437Y-14863838D01*
X23974942Y-14858143D01*
X24014178Y-14842826D01*
X24066570Y-14820537D01*
X24101645Y-14804893D01*
X24168799Y-14775641D01*
X24236642Y-14748094D01*
X24293966Y-14726737D01*
X24311428Y-14720935D01*
X24358062Y-14704452D01*
X24394095Y-14688340D01*
X24407713Y-14679490D01*
X24416048Y-14659960D01*
X24427863Y-14617334D01*
X24441819Y-14557145D01*
X24456578Y-14484922D01*
X24462645Y-14452600D01*
X24477727Y-14370522D01*
X24492331Y-14291795D01*
X24505020Y-14224109D01*
X24514358Y-14175160D01*
X24516161Y-14165943D01*
X24531201Y-14089743D01*
X24848508Y-14089743D01*
X24952846Y-14089914D01*
X25031787Y-14090616D01*
X25088962Y-14092134D01*
X25128001Y-14094749D01*
X25152535Y-14098746D01*
X25166195Y-14104409D01*
X25172611Y-14112020D01*
X25173801Y-14115143D01*
X25178020Y-14133978D01*
X25186438Y-14175588D01*
X25198039Y-14234630D01*
X25211805Y-14305757D01*
X25226720Y-14383625D01*
X25241768Y-14462887D01*
X25255931Y-14538198D01*
X25268194Y-14604213D01*
X25277539Y-14655587D01*
X25282950Y-14686975D01*
X25283886Y-14693959D01*
X25296404Y-14700285D01*
X25329754Y-14714290D01*
X25377623Y-14733355D01*
X25396371Y-14740634D01*
X25468805Y-14769996D01*
X25548830Y-14804571D01*
X25616272Y-14835537D01*
X25667841Y-14858323D01*
X25710215Y-14873482D01*
X25736166Y-14878542D01*
X25739644Y-14877736D01*
X25756064Y-14867041D01*
X25792583Y-14842620D01*
X25845313Y-14807095D01*
X25910365Y-14763087D01*
X25983849Y-14713217D01*
X25998355Y-14703356D01*
X26084296Y-14645492D01*
X26149739Y-14602956D01*
X26197696Y-14574054D01*
X26231180Y-14557090D01*
X26253205Y-14550367D01*
X26266783Y-14552190D01*
X26266869Y-14552236D01*
X26284703Y-14566586D01*
X26319183Y-14598323D01*
X26366732Y-14644010D01*
X26423778Y-14700204D01*
X26486745Y-14763468D01*
X26493773Y-14770602D01*
X26570980Y-14850330D01*
X26627670Y-14911857D01*
X26664890Y-14956421D01*
X26683685Y-14985257D01*
X26686111Y-14997958D01*
X26675529Y-15016494D01*
X26651084Y-15054961D01*
X26615388Y-15109386D01*
X26571053Y-15175798D01*
X26520689Y-15250225D01*
X26508840Y-15267601D01*
X26340374Y-15514297D01*
X26390938Y-15625706D01*
X26420405Y-15693457D01*
X26450041Y-15766183D01*
X26473670Y-15828703D01*
X26474642Y-15831457D01*
X26492543Y-15880360D01*
X26507680Y-15918057D01*
X26516790Y-15936425D01*
X26516816Y-15936456D01*
X26533283Y-15942285D01*
X26573781Y-15952192D01*
X26633758Y-15965195D01*
X26708660Y-15980309D01*
X26793936Y-15996552D01*
X26801125Y-15997881D01*
X26888986Y-16014175D01*
X26968740Y-16029133D01*
X27035319Y-16041791D01*
X27083653Y-16051186D01*
X27108675Y-16056354D01*
X27109057Y-16056444D01*
X27119701Y-16059589D01*
X27127738Y-16065704D01*
X27133533Y-16078453D01*
X27137453Y-16101500D01*
X27139865Y-16138509D01*
X27141135Y-16193144D01*
X27141629Y-16269067D01*
X27141714Y-16369944D01*
X27141714Y-16383000D01*
X27141652Y-16486910D01*
G36*
X22417034Y-19536595D02*
G01*
X22379503Y-19594021D01*
X22345904Y-19621719D01*
X22284936Y-19643662D01*
X22236692Y-19645405D01*
X22172184Y-19641457D01*
X22107066Y-19492686D01*
X22073798Y-19420349D01*
X22047036Y-19373084D01*
X22023856Y-19348507D01*
X22001333Y-19344237D01*
X21976545Y-19357889D01*
X21960114Y-19372943D01*
X21933765Y-19416746D01*
X21931919Y-19464389D01*
X21952454Y-19508145D01*
X21993248Y-19540289D01*
X22007653Y-19546038D01*
X22052644Y-19573576D01*
X22071818Y-19605258D01*
X22088221Y-19648714D01*
X22026034Y-19648714D01*
X21983717Y-19644872D01*
X21948031Y-19629823D01*
X21907057Y-19598280D01*
X21901733Y-19593592D01*
X21865280Y-19558506D01*
X21845717Y-19528347D01*
X21836717Y-19490615D01*
X21833770Y-19459335D01*
X21833035Y-19403385D01*
X21842340Y-19363555D01*
X21856154Y-19338708D01*
X21886533Y-19299656D01*
X21919387Y-19272625D01*
X21960706Y-19255517D01*
X22016479Y-19246238D01*
X22092695Y-19242693D01*
X22131378Y-19242410D01*
X22177753Y-19243372D01*
X22177753Y-19331007D01*
X22152874Y-19332023D01*
X22148800Y-19334556D01*
X22154335Y-19351274D01*
X22168983Y-19387249D01*
X22189810Y-19435331D01*
X22194286Y-19445386D01*
X22225186Y-19506152D01*
X22252343Y-19539632D01*
X22277780Y-19546990D01*
X22303519Y-19529391D01*
X22314891Y-19514856D01*
X22337636Y-19462410D01*
X22333878Y-19413322D01*
X22306116Y-19372227D01*
X22256848Y-19343758D01*
X22217743Y-19334631D01*
X22177753Y-19331007D01*
X22177753Y-19243372D01*
X22221751Y-19244285D01*
X22288616Y-19251196D01*
X22337305Y-19264884D01*
X22373151Y-19287096D01*
X22401487Y-19319574D01*
X22410645Y-19333733D01*
X22434493Y-19398053D01*
X22435994Y-19468473D01*
X22417034Y-19536595D01*
X22417034Y-19536595D01*
G37*
X22417034Y-19536595D02*
X22379503Y-19594021D01*
X22345904Y-19621719D01*
X22284936Y-19643662D01*
X22236692Y-19645405D01*
X22172184Y-19641457D01*
X22107066Y-19492686D01*
X22073798Y-19420349D01*
X22047036Y-19373084D01*
X22023856Y-19348507D01*
X22001333Y-19344237D01*
X21976545Y-19357889D01*
X21960114Y-19372943D01*
X21933765Y-19416746D01*
X21931919Y-19464389D01*
X21952454Y-19508145D01*
X21993248Y-19540289D01*
X22007653Y-19546038D01*
X22052644Y-19573576D01*
X22071818Y-19605258D01*
X22088221Y-19648714D01*
X22026034Y-19648714D01*
X21983717Y-19644872D01*
X21948031Y-19629823D01*
X21907057Y-19598280D01*
X21901733Y-19593592D01*
X21865280Y-19558506D01*
X21845717Y-19528347D01*
X21836717Y-19490615D01*
X21833770Y-19459335D01*
X21833035Y-19403385D01*
X21842340Y-19363555D01*
X21856154Y-19338708D01*
X21886533Y-19299656D01*
X21919387Y-19272625D01*
X21960706Y-19255517D01*
X22016479Y-19246238D01*
X22092695Y-19242693D01*
X22131378Y-19242410D01*
X22177753Y-19243372D01*
X22177753Y-19331007D01*
X22152874Y-19332023D01*
X22148800Y-19334556D01*
X22154335Y-19351274D01*
X22168983Y-19387249D01*
X22189810Y-19435331D01*
X22194286Y-19445386D01*
X22225186Y-19506152D01*
X22252343Y-19539632D01*
X22277780Y-19546990D01*
X22303519Y-19529391D01*
X22314891Y-19514856D01*
X22337636Y-19462410D01*
X22333878Y-19413322D01*
X22306116Y-19372227D01*
X22256848Y-19343758D01*
X22217743Y-19334631D01*
X22177753Y-19331007D01*
X22177753Y-19243372D01*
X22221751Y-19244285D01*
X22288616Y-19251196D01*
X22337305Y-19264884D01*
X22373151Y-19287096D01*
X22401487Y-19319574D01*
X22410645Y-19333733D01*
X22434493Y-19398053D01*
X22435994Y-19468473D01*
X22417034Y-19536595D01*
G36*
X22425248Y-19035600D02*
G01*
X22417666Y-19052948D01*
X22384872Y-19094356D01*
X22337453Y-19129765D01*
X22286849Y-19151664D01*
X22261902Y-19155229D01*
X22227073Y-19143279D01*
X22208643Y-19117067D01*
X22197484Y-19088964D01*
X22195428Y-19076095D01*
X22210351Y-19069829D01*
X22242825Y-19057456D01*
X22257498Y-19052028D01*
X22308256Y-19021590D01*
X22333573Y-18977520D01*
X22332794Y-18921010D01*
X22331797Y-18916825D01*
X22317493Y-18886655D01*
X22289607Y-18864476D01*
X22244713Y-18849327D01*
X22179385Y-18840250D01*
X22090196Y-18836286D01*
X22042739Y-18835914D01*
X21967929Y-18835730D01*
X21916931Y-18834522D01*
X21884529Y-18831309D01*
X21865505Y-18825109D01*
X21854644Y-18814940D01*
X21846728Y-18799819D01*
X21846330Y-18798946D01*
X21834019Y-18769828D01*
X21829486Y-18755403D01*
X21843191Y-18753186D01*
X21881075Y-18751289D01*
X21938285Y-18749847D01*
X22009973Y-18748998D01*
X22062435Y-18748829D01*
X22163953Y-18749692D01*
X22240968Y-18753070D01*
X22297977Y-18760142D01*
X22339474Y-18772088D01*
X22369957Y-18790090D01*
X22393920Y-18815327D01*
X22410645Y-18840247D01*
X22432903Y-18900171D01*
X22437924Y-18969911D01*
X22425248Y-19035600D01*
X22425248Y-19035600D01*
G37*
X22425248Y-19035600D02*
X22417666Y-19052948D01*
X22384872Y-19094356D01*
X22337453Y-19129765D01*
X22286849Y-19151664D01*
X22261902Y-19155229D01*
X22227073Y-19143279D01*
X22208643Y-19117067D01*
X22197484Y-19088964D01*
X22195428Y-19076095D01*
X22210351Y-19069829D01*
X22242825Y-19057456D01*
X22257498Y-19052028D01*
X22308256Y-19021590D01*
X22333573Y-18977520D01*
X22332794Y-18921010D01*
X22331797Y-18916825D01*
X22317493Y-18886655D01*
X22289607Y-18864476D01*
X22244713Y-18849327D01*
X22179385Y-18840250D01*
X22090196Y-18836286D01*
X22042739Y-18835914D01*
X21967929Y-18835730D01*
X21916931Y-18834522D01*
X21884529Y-18831309D01*
X21865505Y-18825109D01*
X21854644Y-18814940D01*
X21846728Y-18799819D01*
X21846330Y-18798946D01*
X21834019Y-18769828D01*
X21829486Y-18755403D01*
X21843191Y-18753186D01*
X21881075Y-18751289D01*
X21938285Y-18749847D01*
X22009973Y-18748998D01*
X22062435Y-18748829D01*
X22163953Y-18749692D01*
X22240968Y-18753070D01*
X22297977Y-18760142D01*
X22339474Y-18772088D01*
X22369957Y-18790090D01*
X22393920Y-18815327D01*
X22410645Y-18840247D01*
X22432903Y-18900171D01*
X22437924Y-18969911D01*
X22425248Y-19035600D01*
G36*
X22427665Y-18527876D02*
G01*
X22408656Y-18569667D01*
X22385622Y-18602469D01*
X22359867Y-18626503D01*
X22326642Y-18643097D01*
X22281200Y-18653577D01*
X22218793Y-18659271D01*
X22134673Y-18661507D01*
X22079279Y-18661743D01*
X21863174Y-18661743D01*
X21846330Y-18624774D01*
X21834019Y-18595656D01*
X21829486Y-18581231D01*
X21842975Y-18578472D01*
X21879347Y-18576282D01*
X21932458Y-18574942D01*
X21974628Y-18574657D01*
X22035553Y-18573434D01*
X22083885Y-18570136D01*
X22113482Y-18565321D01*
X22119771Y-18561496D01*
X22113348Y-18535783D01*
X22096875Y-18495418D01*
X22074542Y-18448679D01*
X22050543Y-18403845D01*
X22029070Y-18369193D01*
X22014315Y-18353002D01*
X22014155Y-18352938D01*
X21986848Y-18354330D01*
X21960781Y-18366818D01*
X21939608Y-18388743D01*
X21932526Y-18420743D01*
X21933351Y-18448092D01*
X21933958Y-18486826D01*
X21924884Y-18507158D01*
X21900908Y-18519369D01*
X21896387Y-18520909D01*
X21862194Y-18526203D01*
X21841432Y-18512047D01*
X21831538Y-18475148D01*
X21829708Y-18435289D01*
X21843273Y-18363562D01*
X21862645Y-18326432D01*
X21908155Y-18280576D01*
X21964017Y-18256256D01*
X22023043Y-18254073D01*
X22078047Y-18274629D01*
X22112514Y-18305549D01*
X22131811Y-18336420D01*
X22156241Y-18384942D01*
X22181015Y-18441485D01*
X22184801Y-18450910D01*
X22212209Y-18513019D01*
X22236366Y-18548822D01*
X22260381Y-18560337D01*
X22287365Y-18549580D01*
X22308457Y-18531114D01*
X22334428Y-18487469D01*
X22336376Y-18439446D01*
X22316363Y-18395406D01*
X22276449Y-18363709D01*
X22266152Y-18359549D01*
X22228276Y-18335327D01*
X22200158Y-18299965D01*
X22177083Y-18255343D01*
X22242515Y-18255343D01*
X22282494Y-18257969D01*
X22314003Y-18269230D01*
X22347622Y-18294199D01*
X22373516Y-18318169D01*
X22410183Y-18355441D01*
X22429879Y-18384401D01*
X22437780Y-18415505D01*
X22439086Y-18450713D01*
X22427665Y-18527876D01*
X22427665Y-18527876D01*
G37*
X22427665Y-18527876D02*
X22408656Y-18569667D01*
X22385622Y-18602469D01*
X22359867Y-18626503D01*
X22326642Y-18643097D01*
X22281200Y-18653577D01*
X22218793Y-18659271D01*
X22134673Y-18661507D01*
X22079279Y-18661743D01*
X21863174Y-18661743D01*
X21846330Y-18624774D01*
X21834019Y-18595656D01*
X21829486Y-18581231D01*
X21842975Y-18578472D01*
X21879347Y-18576282D01*
X21932458Y-18574942D01*
X21974628Y-18574657D01*
X22035553Y-18573434D01*
X22083885Y-18570136D01*
X22113482Y-18565321D01*
X22119771Y-18561496D01*
X22113348Y-18535783D01*
X22096875Y-18495418D01*
X22074542Y-18448679D01*
X22050543Y-18403845D01*
X22029070Y-18369193D01*
X22014315Y-18353002D01*
X22014155Y-18352938D01*
X21986848Y-18354330D01*
X21960781Y-18366818D01*
X21939608Y-18388743D01*
X21932526Y-18420743D01*
X21933351Y-18448092D01*
X21933958Y-18486826D01*
X21924884Y-18507158D01*
X21900908Y-18519369D01*
X21896387Y-18520909D01*
X21862194Y-18526203D01*
X21841432Y-18512047D01*
X21831538Y-18475148D01*
X21829708Y-18435289D01*
X21843273Y-18363562D01*
X21862645Y-18326432D01*
X21908155Y-18280576D01*
X21964017Y-18256256D01*
X22023043Y-18254073D01*
X22078047Y-18274629D01*
X22112514Y-18305549D01*
X22131811Y-18336420D01*
X22156241Y-18384942D01*
X22181015Y-18441485D01*
X22184801Y-18450910D01*
X22212209Y-18513019D01*
X22236366Y-18548822D01*
X22260381Y-18560337D01*
X22287365Y-18549580D01*
X22308457Y-18531114D01*
X22334428Y-18487469D01*
X22336376Y-18439446D01*
X22316363Y-18395406D01*
X22276449Y-18363709D01*
X22266152Y-18359549D01*
X22228276Y-18335327D01*
X22200158Y-18299965D01*
X22177083Y-18255343D01*
X22242515Y-18255343D01*
X22282494Y-18257969D01*
X22314003Y-18269230D01*
X22347622Y-18294199D01*
X22373516Y-18318169D01*
X22410183Y-18355441D01*
X22429879Y-18384401D01*
X22437780Y-18415505D01*
X22439086Y-18450713D01*
X22427665Y-18527876D01*
G36*
X22425337Y-18162833D02*
G01*
X22387150Y-18165048D01*
X22329114Y-18166784D01*
X22255820Y-18167899D01*
X22178945Y-18168257D01*
X21918804Y-18168257D01*
X21872873Y-18122326D01*
X21844571Y-18090675D01*
X21833107Y-18062890D01*
X21833832Y-18024915D01*
X21835679Y-18009840D01*
X21841052Y-17962726D01*
X21844131Y-17923756D01*
X21844415Y-17914257D01*
X21842555Y-17882233D01*
X21837886Y-17836432D01*
X21835679Y-17818674D01*
X21832265Y-17775057D01*
X21839680Y-17745745D01*
X21862573Y-17716680D01*
X21872873Y-17706188D01*
X21918804Y-17660257D01*
X22405398Y-17660257D01*
X22422242Y-17697226D01*
X22434718Y-17729059D01*
X22439086Y-17747683D01*
X22425282Y-17752458D01*
X22386714Y-17756921D01*
X22327644Y-17760775D01*
X22252337Y-17763722D01*
X22188714Y-17765143D01*
X21938343Y-17769114D01*
X21933444Y-17803759D01*
X21936869Y-17835268D01*
X21947959Y-17850708D01*
X21968692Y-17855023D01*
X22012855Y-17858708D01*
X22074854Y-17861469D01*
X22149091Y-17863012D01*
X22187294Y-17863235D01*
X22407217Y-17863457D01*
X22423151Y-17909166D01*
X22433985Y-17941518D01*
X22439038Y-17959115D01*
X22439086Y-17959623D01*
X22425352Y-17961388D01*
X22387270Y-17963329D01*
X22329518Y-17965282D01*
X22256773Y-17967084D01*
X22188714Y-17968343D01*
X21938343Y-17972314D01*
X21938343Y-18059400D01*
X22166760Y-18063396D01*
X22395178Y-18067392D01*
X22417132Y-18109847D01*
X22432207Y-18141192D01*
X22439049Y-18159744D01*
X22439086Y-18160279D01*
X22425337Y-18162833D01*
X22425337Y-18162833D01*
G37*
X22425337Y-18162833D02*
X22387150Y-18165048D01*
X22329114Y-18166784D01*
X22255820Y-18167899D01*
X22178945Y-18168257D01*
X21918804Y-18168257D01*
X21872873Y-18122326D01*
X21844571Y-18090675D01*
X21833107Y-18062890D01*
X21833832Y-18024915D01*
X21835679Y-18009840D01*
X21841052Y-17962726D01*
X21844131Y-17923756D01*
X21844415Y-17914257D01*
X21842555Y-17882233D01*
X21837886Y-17836432D01*
X21835679Y-17818674D01*
X21832265Y-17775057D01*
X21839680Y-17745745D01*
X21862573Y-17716680D01*
X21872873Y-17706188D01*
X21918804Y-17660257D01*
X22405398Y-17660257D01*
X22422242Y-17697226D01*
X22434718Y-17729059D01*
X22439086Y-17747683D01*
X22425282Y-17752458D01*
X22386714Y-17756921D01*
X22327644Y-17760775D01*
X22252337Y-17763722D01*
X22188714Y-17765143D01*
X21938343Y-17769114D01*
X21933444Y-17803759D01*
X21936869Y-17835268D01*
X21947959Y-17850708D01*
X21968692Y-17855023D01*
X22012855Y-17858708D01*
X22074854Y-17861469D01*
X22149091Y-17863012D01*
X22187294Y-17863235D01*
X22407217Y-17863457D01*
X22423151Y-17909166D01*
X22433985Y-17941518D01*
X22439038Y-17959115D01*
X22439086Y-17959623D01*
X22425352Y-17961388D01*
X22387270Y-17963329D01*
X22329518Y-17965282D01*
X22256773Y-17967084D01*
X22188714Y-17968343D01*
X21938343Y-17972314D01*
X21938343Y-18059400D01*
X22166760Y-18063396D01*
X22395178Y-18067392D01*
X22417132Y-18109847D01*
X22432207Y-18141192D01*
X22439049Y-18159744D01*
X22439086Y-18160279D01*
X22425337Y-18162833D01*
G36*
X22318642Y-17573117D02*
G01*
X22210163Y-17572933D01*
X22126713Y-17572219D01*
X22064296Y-17570675D01*
X22018915Y-17568001D01*
X21986571Y-17563894D01*
X21963267Y-17558055D01*
X21945005Y-17550182D01*
X21934582Y-17544221D01*
X21878055Y-17494855D01*
X21842623Y-17432264D01*
X21829910Y-17363013D01*
X21841537Y-17293668D01*
X21862432Y-17252375D01*
X21898578Y-17209025D01*
X21942724Y-17179481D01*
X22000538Y-17161655D01*
X22077687Y-17153463D01*
X22134286Y-17152302D01*
X22138353Y-17152458D01*
X22138353Y-17253857D01*
X22073450Y-17254476D01*
X22030486Y-17257314D01*
X22002378Y-17263840D01*
X21982047Y-17275523D01*
X21966712Y-17289483D01*
X21937110Y-17336365D01*
X21934581Y-17386701D01*
X21959295Y-17434276D01*
X21962644Y-17437979D01*
X21980065Y-17453783D01*
X22000791Y-17463693D01*
X22031638Y-17469058D01*
X22079423Y-17471228D01*
X22132252Y-17471571D01*
X22198619Y-17470827D01*
X22242894Y-17467748D01*
X22271991Y-17461061D01*
X22292827Y-17449496D01*
X22303893Y-17440013D01*
X22331802Y-17395960D01*
X22335157Y-17345224D01*
X22313841Y-17296796D01*
X22305927Y-17287450D01*
X22288353Y-17271540D01*
X22267413Y-17261610D01*
X22236218Y-17256278D01*
X22187878Y-17254163D01*
X22138353Y-17253857D01*
X22138353Y-17152458D01*
X22225432Y-17155810D01*
X22293914Y-17167726D01*
X22345400Y-17190135D01*
X22385557Y-17225124D01*
X22406139Y-17252375D01*
X22428375Y-17301907D01*
X22438696Y-17359316D01*
X22435933Y-17412682D01*
X22424788Y-17442543D01*
X22421617Y-17454261D01*
X22433443Y-17462037D01*
X22465134Y-17467465D01*
X22513407Y-17471571D01*
X22567171Y-17476067D01*
X22599518Y-17482313D01*
X22618015Y-17493676D01*
X22630230Y-17513528D01*
X22635638Y-17526000D01*
X22655399Y-17573171D01*
X22318642Y-17573117D01*
X22318642Y-17573117D01*
G37*
X22318642Y-17573117D02*
X22210163Y-17572933D01*
X22126713Y-17572219D01*
X22064296Y-17570675D01*
X22018915Y-17568001D01*
X21986571Y-17563894D01*
X21963267Y-17558055D01*
X21945005Y-17550182D01*
X21934582Y-17544221D01*
X21878055Y-17494855D01*
X21842623Y-17432264D01*
X21829910Y-17363013D01*
X21841537Y-17293668D01*
X21862432Y-17252375D01*
X21898578Y-17209025D01*
X21942724Y-17179481D01*
X22000538Y-17161655D01*
X22077687Y-17153463D01*
X22134286Y-17152302D01*
X22138353Y-17152458D01*
X22138353Y-17253857D01*
X22073450Y-17254476D01*
X22030486Y-17257314D01*
X22002378Y-17263840D01*
X21982047Y-17275523D01*
X21966712Y-17289483D01*
X21937110Y-17336365D01*
X21934581Y-17386701D01*
X21959295Y-17434276D01*
X21962644Y-17437979D01*
X21980065Y-17453783D01*
X22000791Y-17463693D01*
X22031638Y-17469058D01*
X22079423Y-17471228D01*
X22132252Y-17471571D01*
X22198619Y-17470827D01*
X22242894Y-17467748D01*
X22271991Y-17461061D01*
X22292827Y-17449496D01*
X22303893Y-17440013D01*
X22331802Y-17395960D01*
X22335157Y-17345224D01*
X22313841Y-17296796D01*
X22305927Y-17287450D01*
X22288353Y-17271540D01*
X22267413Y-17261610D01*
X22236218Y-17256278D01*
X22187878Y-17254163D01*
X22138353Y-17253857D01*
X22138353Y-17152458D01*
X22225432Y-17155810D01*
X22293914Y-17167726D01*
X22345400Y-17190135D01*
X22385557Y-17225124D01*
X22406139Y-17252375D01*
X22428375Y-17301907D01*
X22438696Y-17359316D01*
X22435933Y-17412682D01*
X22424788Y-17442543D01*
X22421617Y-17454261D01*
X22433443Y-17462037D01*
X22465134Y-17467465D01*
X22513407Y-17471571D01*
X22567171Y-17476067D01*
X22599518Y-17482313D01*
X22618015Y-17493676D01*
X22630230Y-17513528D01*
X22635638Y-17526000D01*
X22655399Y-17573171D01*
X22318642Y-17573117D01*
G36*
X22434245Y-16912926D02*
G01*
X22409916Y-16978858D01*
X22366883Y-17032273D01*
X22336591Y-17053164D01*
X22281006Y-17075939D01*
X22240814Y-17075466D01*
X22213783Y-17051562D01*
X22209187Y-17042717D01*
X22194856Y-17004530D01*
X22198528Y-16985028D01*
X22222593Y-16978422D01*
X22235886Y-16978086D01*
X22284790Y-16965992D01*
X22319001Y-16934471D01*
X22335524Y-16890659D01*
X22331366Y-16841695D01*
X22309773Y-16801894D01*
X22297456Y-16788450D01*
X22282513Y-16778921D01*
X22259925Y-16772485D01*
X22224672Y-16768317D01*
X22171734Y-16765597D01*
X22096093Y-16763502D01*
X22072143Y-16762960D01*
X21990210Y-16760981D01*
X21932545Y-16758731D01*
X21894392Y-16755357D01*
X21870996Y-16750006D01*
X21857602Y-16741824D01*
X21849455Y-16729959D01*
X21845856Y-16722362D01*
X21833548Y-16690102D01*
X21829486Y-16671111D01*
X21843052Y-16664836D01*
X21884066Y-16661006D01*
X21953001Y-16659600D01*
X22050331Y-16660598D01*
X22065343Y-16660908D01*
X22154141Y-16663101D01*
X22218981Y-16665693D01*
X22264933Y-16669382D01*
X22297065Y-16674864D01*
X22320447Y-16682835D01*
X22340148Y-16693993D01*
X22348590Y-16699830D01*
X22385943Y-16733296D01*
X22414997Y-16770727D01*
X22417533Y-16775309D01*
X22437557Y-16842426D01*
X22434245Y-16912926D01*
X22434245Y-16912926D01*
G37*
X22434245Y-16912926D02*
X22409916Y-16978858D01*
X22366883Y-17032273D01*
X22336591Y-17053164D01*
X22281006Y-17075939D01*
X22240814Y-17075466D01*
X22213783Y-17051562D01*
X22209187Y-17042717D01*
X22194856Y-17004530D01*
X22198528Y-16985028D01*
X22222593Y-16978422D01*
X22235886Y-16978086D01*
X22284790Y-16965992D01*
X22319001Y-16934471D01*
X22335524Y-16890659D01*
X22331366Y-16841695D01*
X22309773Y-16801894D01*
X22297456Y-16788450D01*
X22282513Y-16778921D01*
X22259925Y-16772485D01*
X22224672Y-16768317D01*
X22171734Y-16765597D01*
X22096093Y-16763502D01*
X22072143Y-16762960D01*
X21990210Y-16760981D01*
X21932545Y-16758731D01*
X21894392Y-16755357D01*
X21870996Y-16750006D01*
X21857602Y-16741824D01*
X21849455Y-16729959D01*
X21845856Y-16722362D01*
X21833548Y-16690102D01*
X21829486Y-16671111D01*
X21843052Y-16664836D01*
X21884066Y-16661006D01*
X21953001Y-16659600D01*
X22050331Y-16660598D01*
X22065343Y-16660908D01*
X22154141Y-16663101D01*
X22218981Y-16665693D01*
X22264933Y-16669382D01*
X22297065Y-16674864D01*
X22320447Y-16682835D01*
X22340148Y-16693993D01*
X22348590Y-16699830D01*
X22385943Y-16733296D01*
X22414997Y-16770727D01*
X22417533Y-16775309D01*
X22437557Y-16842426D01*
X22434245Y-16912926D01*
G36*
X22433032Y-16422744D02*
G01*
X22411913Y-16479616D01*
X22411507Y-16480267D01*
X22385620Y-16515440D01*
X22355367Y-16541407D01*
X22315942Y-16559670D01*
X22262538Y-16571732D01*
X22190349Y-16579096D01*
X22094568Y-16583264D01*
X22080922Y-16583629D01*
X21875158Y-16588876D01*
X21852322Y-16544716D01*
X21836890Y-16512763D01*
X21829577Y-16493470D01*
X21829486Y-16492578D01*
X21842978Y-16489239D01*
X21879374Y-16486587D01*
X21932548Y-16484956D01*
X21975607Y-16484600D01*
X22045359Y-16484592D01*
X22089163Y-16481403D01*
X22110056Y-16470288D01*
X22111075Y-16446501D01*
X22095259Y-16405296D01*
X22066185Y-16343086D01*
X22042037Y-16297341D01*
X22021087Y-16273813D01*
X21998253Y-16266896D01*
X21997123Y-16266886D01*
X21957788Y-16278299D01*
X21936538Y-16312092D01*
X21933461Y-16363809D01*
X21933994Y-16401061D01*
X21923265Y-16420703D01*
X21897495Y-16432952D01*
X21864663Y-16440002D01*
X21846034Y-16429842D01*
X21843368Y-16426017D01*
X21832660Y-16390001D01*
X21831144Y-16339566D01*
X21838241Y-16287626D01*
X21851212Y-16250822D01*
X21894415Y-16199938D01*
X21954554Y-16171014D01*
X22001538Y-16165286D01*
X22043918Y-16169657D01*
X22078512Y-16185475D01*
X22109237Y-16216797D01*
X22140010Y-16267678D01*
X22174748Y-16342176D01*
X22176712Y-16346714D01*
X22207713Y-16413821D01*
X22233138Y-16455232D01*
X22255986Y-16472981D01*
X22279255Y-16469107D01*
X22305944Y-16445643D01*
X22312086Y-16438627D01*
X22335900Y-16391630D01*
X22334897Y-16342933D01*
X22311549Y-16300522D01*
X22268325Y-16272384D01*
X22259840Y-16269769D01*
X22218692Y-16244308D01*
X22198872Y-16212001D01*
X22179230Y-16165286D01*
X22230050Y-16165286D01*
X22303918Y-16179496D01*
X22371673Y-16221675D01*
X22394339Y-16243624D01*
X22423431Y-16293517D01*
X22436600Y-16356967D01*
X22433032Y-16422744D01*
X22433032Y-16422744D01*
G37*
X22433032Y-16422744D02*
X22411913Y-16479616D01*
X22411507Y-16480267D01*
X22385620Y-16515440D01*
X22355367Y-16541407D01*
X22315942Y-16559670D01*
X22262538Y-16571732D01*
X22190349Y-16579096D01*
X22094568Y-16583264D01*
X22080922Y-16583629D01*
X21875158Y-16588876D01*
X21852322Y-16544716D01*
X21836890Y-16512763D01*
X21829577Y-16493470D01*
X21829486Y-16492578D01*
X21842978Y-16489239D01*
X21879374Y-16486587D01*
X21932548Y-16484956D01*
X21975607Y-16484600D01*
X22045359Y-16484592D01*
X22089163Y-16481403D01*
X22110056Y-16470288D01*
X22111075Y-16446501D01*
X22095259Y-16405296D01*
X22066185Y-16343086D01*
X22042037Y-16297341D01*
X22021087Y-16273813D01*
X21998253Y-16266896D01*
X21997123Y-16266886D01*
X21957788Y-16278299D01*
X21936538Y-16312092D01*
X21933461Y-16363809D01*
X21933994Y-16401061D01*
X21923265Y-16420703D01*
X21897495Y-16432952D01*
X21864663Y-16440002D01*
X21846034Y-16429842D01*
X21843368Y-16426017D01*
X21832660Y-16390001D01*
X21831144Y-16339566D01*
X21838241Y-16287626D01*
X21851212Y-16250822D01*
X21894415Y-16199938D01*
X21954554Y-16171014D01*
X22001538Y-16165286D01*
X22043918Y-16169657D01*
X22078512Y-16185475D01*
X22109237Y-16216797D01*
X22140010Y-16267678D01*
X22174748Y-16342176D01*
X22176712Y-16346714D01*
X22207713Y-16413821D01*
X22233138Y-16455232D01*
X22255986Y-16472981D01*
X22279255Y-16469107D01*
X22305944Y-16445643D01*
X22312086Y-16438627D01*
X22335900Y-16391630D01*
X22334897Y-16342933D01*
X22311549Y-16300522D01*
X22268325Y-16272384D01*
X22259840Y-16269769D01*
X22218692Y-16244308D01*
X22198872Y-16212001D01*
X22179230Y-16165286D01*
X22230050Y-16165286D01*
X22303918Y-16179496D01*
X22371673Y-16221675D01*
X22394339Y-16243624D01*
X22423431Y-16293517D01*
X22436600Y-16356967D01*
X22433032Y-16422744D01*
G36*
X22532711Y-15758886D02*
G01*
X22473387Y-15763139D01*
X22438428Y-15768025D01*
X22423180Y-15774795D01*
X22422985Y-15784702D01*
X22424805Y-15787914D01*
X22437985Y-15830644D01*
X22437215Y-15886227D01*
X22423667Y-15942737D01*
X22406139Y-15978082D01*
X22378139Y-16014321D01*
X22346451Y-16040813D01*
X22306187Y-16058999D01*
X22252457Y-16070322D01*
X22180374Y-16076222D01*
X22085049Y-16078143D01*
X22066763Y-16078177D01*
X21861354Y-16078200D01*
X21845420Y-16032491D01*
X21834580Y-16000027D01*
X21829532Y-15982215D01*
X21829486Y-15981691D01*
X21843172Y-15979937D01*
X21880924Y-15978444D01*
X21937776Y-15977326D01*
X22008766Y-15976697D01*
X22051927Y-15976600D01*
X22137027Y-15976398D01*
X22198019Y-15975358D01*
X22239823Y-15972831D01*
X22267358Y-15968164D01*
X22285544Y-15960707D01*
X22299302Y-15949811D01*
X22305927Y-15943007D01*
X22332625Y-15896272D01*
X22334625Y-15845272D01*
X22312045Y-15799001D01*
X22303893Y-15790444D01*
X22288564Y-15777893D01*
X22270382Y-15769188D01*
X22244091Y-15763631D01*
X22204438Y-15760526D01*
X22146168Y-15759176D01*
X22065827Y-15758886D01*
X21861354Y-15758886D01*
X21845420Y-15713177D01*
X21834580Y-15680713D01*
X21829532Y-15662901D01*
X21829486Y-15662377D01*
X21843377Y-15661037D01*
X21882561Y-15659828D01*
X21943300Y-15658801D01*
X22021859Y-15658002D01*
X22114502Y-15657481D01*
X22217491Y-15657286D01*
X22614658Y-15657286D01*
X22634556Y-15704457D01*
X22654453Y-15751629D01*
X22532711Y-15758886D01*
X22532711Y-15758886D01*
G37*
X22532711Y-15758886D02*
X22473387Y-15763139D01*
X22438428Y-15768025D01*
X22423180Y-15774795D01*
X22422985Y-15784702D01*
X22424805Y-15787914D01*
X22437985Y-15830644D01*
X22437215Y-15886227D01*
X22423667Y-15942737D01*
X22406139Y-15978082D01*
X22378139Y-16014321D01*
X22346451Y-16040813D01*
X22306187Y-16058999D01*
X22252457Y-16070322D01*
X22180374Y-16076222D01*
X22085049Y-16078143D01*
X22066763Y-16078177D01*
X21861354Y-16078200D01*
X21845420Y-16032491D01*
X21834580Y-16000027D01*
X21829532Y-15982215D01*
X21829486Y-15981691D01*
X21843172Y-15979937D01*
X21880924Y-15978444D01*
X21937776Y-15977326D01*
X22008766Y-15976697D01*
X22051927Y-15976600D01*
X22137027Y-15976398D01*
X22198019Y-15975358D01*
X22239823Y-15972831D01*
X22267358Y-15968164D01*
X22285544Y-15960707D01*
X22299302Y-15949811D01*
X22305927Y-15943007D01*
X22332625Y-15896272D01*
X22334625Y-15845272D01*
X22312045Y-15799001D01*
X22303893Y-15790444D01*
X22288564Y-15777893D01*
X22270382Y-15769188D01*
X22244091Y-15763631D01*
X22204438Y-15760526D01*
X22146168Y-15759176D01*
X22065827Y-15758886D01*
X21861354Y-15758886D01*
X21845420Y-15713177D01*
X21834580Y-15680713D01*
X21829532Y-15662901D01*
X21829486Y-15662377D01*
X21843377Y-15661037D01*
X21882561Y-15659828D01*
X21943300Y-15658801D01*
X22021859Y-15658002D01*
X22114502Y-15657481D01*
X22217491Y-15657286D01*
X22614658Y-15657286D01*
X22634556Y-15704457D01*
X22654453Y-15751629D01*
X22532711Y-15758886D01*
G36*
X22452761Y-14551303D02*
G01*
X22414265Y-14608527D01*
X22358665Y-14652749D01*
X22287914Y-14679167D01*
X22235838Y-14684510D01*
X22214107Y-14683903D01*
X22197469Y-14678822D01*
X22182563Y-14664855D01*
X22166027Y-14637589D01*
X22144502Y-14592612D01*
X22114626Y-14525511D01*
X22114476Y-14525171D01*
X22086187Y-14463407D01*
X22061067Y-14412759D01*
X22041821Y-14378404D01*
X22031152Y-14365518D01*
X22031066Y-14365514D01*
X22007834Y-14376872D01*
X21982226Y-14403431D01*
X21963779Y-14433923D01*
X21960114Y-14449370D01*
X21972788Y-14491515D01*
X22004529Y-14527808D01*
X22039428Y-14545517D01*
X22065155Y-14562552D01*
X22094454Y-14595922D01*
X22119765Y-14635149D01*
X22133529Y-14669756D01*
X22134286Y-14676993D01*
X22121840Y-14685139D01*
X22090028Y-14685630D01*
X22047134Y-14679643D01*
X22001442Y-14668357D01*
X21961239Y-14652950D01*
X21959678Y-14652171D01*
X21894938Y-14605804D01*
X21850903Y-14545711D01*
X21829289Y-14477465D01*
X21831815Y-14406638D01*
X21860196Y-14338804D01*
X21862192Y-14335788D01*
X21910552Y-14282427D01*
X21973648Y-14247340D01*
X22056613Y-14227922D01*
X22079922Y-14225316D01*
X22189945Y-14220701D01*
X22241252Y-14226233D01*
X22241252Y-14365514D01*
X22209247Y-14367324D01*
X22199907Y-14377222D01*
X22206895Y-14401898D01*
X22223413Y-14440795D01*
X22244119Y-14484275D01*
X22244667Y-14485356D01*
X22264051Y-14522209D01*
X22276987Y-14537000D01*
X22290549Y-14533353D01*
X22308368Y-14517995D01*
X22334155Y-14478923D01*
X22336050Y-14436846D01*
X22317283Y-14399103D01*
X22281085Y-14373034D01*
X22241252Y-14365514D01*
X22241252Y-14226233D01*
X22277973Y-14230194D01*
X22347788Y-14254550D01*
X22396698Y-14288456D01*
X22446122Y-14349653D01*
X22470641Y-14417063D01*
X22472203Y-14485880D01*
X22452761Y-14551303D01*
X22452761Y-14551303D01*
G37*
X22452761Y-14551303D02*
X22414265Y-14608527D01*
X22358665Y-14652749D01*
X22287914Y-14679167D01*
X22235838Y-14684510D01*
X22214107Y-14683903D01*
X22197469Y-14678822D01*
X22182563Y-14664855D01*
X22166027Y-14637589D01*
X22144502Y-14592612D01*
X22114626Y-14525511D01*
X22114476Y-14525171D01*
X22086187Y-14463407D01*
X22061067Y-14412759D01*
X22041821Y-14378404D01*
X22031152Y-14365518D01*
X22031066Y-14365514D01*
X22007834Y-14376872D01*
X21982226Y-14403431D01*
X21963779Y-14433923D01*
X21960114Y-14449370D01*
X21972788Y-14491515D01*
X22004529Y-14527808D01*
X22039428Y-14545517D01*
X22065155Y-14562552D01*
X22094454Y-14595922D01*
X22119765Y-14635149D01*
X22133529Y-14669756D01*
X22134286Y-14676993D01*
X22121840Y-14685139D01*
X22090028Y-14685630D01*
X22047134Y-14679643D01*
X22001442Y-14668357D01*
X21961239Y-14652950D01*
X21959678Y-14652171D01*
X21894938Y-14605804D01*
X21850903Y-14545711D01*
X21829289Y-14477465D01*
X21831815Y-14406638D01*
X21860196Y-14338804D01*
X21862192Y-14335788D01*
X21910552Y-14282427D01*
X21973648Y-14247340D01*
X22056613Y-14227922D01*
X22079922Y-14225316D01*
X22189945Y-14220701D01*
X22241252Y-14226233D01*
X22241252Y-14365514D01*
X22209247Y-14367324D01*
X22199907Y-14377222D01*
X22206895Y-14401898D01*
X22223413Y-14440795D01*
X22244119Y-14484275D01*
X22244667Y-14485356D01*
X22264051Y-14522209D01*
X22276987Y-14537000D01*
X22290549Y-14533353D01*
X22308368Y-14517995D01*
X22334155Y-14478923D01*
X22336050Y-14436846D01*
X22317283Y-14399103D01*
X22281085Y-14373034D01*
X22241252Y-14365514D01*
X22241252Y-14226233D01*
X22277973Y-14230194D01*
X22347788Y-14254550D01*
X22396698Y-14288456D01*
X22446122Y-14349653D01*
X22470641Y-14417063D01*
X22472203Y-14485880D01*
X22452761Y-14551303D01*
G36*
X22462038Y-13424115D02*
G01*
X22426267Y-13492145D01*
X22368699Y-13542351D01*
X22331688Y-13560185D01*
X22276118Y-13574063D01*
X22205904Y-13581167D01*
X22129273Y-13581840D01*
X22054448Y-13576427D01*
X21989658Y-13565270D01*
X21943127Y-13548714D01*
X21935113Y-13543626D01*
X21875293Y-13483355D01*
X21839465Y-13411769D01*
X21828980Y-13334092D01*
X21845190Y-13255548D01*
X21854908Y-13233689D01*
X21884857Y-13191122D01*
X21924567Y-13153763D01*
X21929603Y-13150232D01*
X21953876Y-13135881D01*
X21979822Y-13126394D01*
X22013978Y-13120790D01*
X22062881Y-13118086D01*
X22133065Y-13117299D01*
X22148800Y-13117286D01*
X22153808Y-13117322D01*
X22153808Y-13262429D01*
X22087570Y-13263273D01*
X22043614Y-13266596D01*
X22015221Y-13273583D01*
X21995675Y-13285416D01*
X21989143Y-13291457D01*
X21964320Y-13326186D01*
X21965452Y-13359903D01*
X21986984Y-13393995D01*
X22009971Y-13414329D01*
X22043522Y-13426371D01*
X22096431Y-13433134D01*
X22102601Y-13433598D01*
X22198487Y-13434752D01*
X22269701Y-13422688D01*
X22315806Y-13397570D01*
X22336365Y-13359560D01*
X22337486Y-13345992D01*
X22331848Y-13310364D01*
X22312314Y-13285994D01*
X22274958Y-13271093D01*
X22215850Y-13263875D01*
X22153808Y-13262429D01*
X22153808Y-13117322D01*
X22223587Y-13117826D01*
X22275841Y-13120096D01*
X22312051Y-13125068D01*
X22338701Y-13133713D01*
X22362278Y-13147005D01*
X22366662Y-13149943D01*
X22425751Y-13199313D01*
X22460053Y-13253109D01*
X22473669Y-13318602D01*
X22474335Y-13340842D01*
X22462038Y-13424115D01*
X22462038Y-13424115D01*
G37*
X22462038Y-13424115D02*
X22426267Y-13492145D01*
X22368699Y-13542351D01*
X22331688Y-13560185D01*
X22276118Y-13574063D01*
X22205904Y-13581167D01*
X22129273Y-13581840D01*
X22054448Y-13576427D01*
X21989658Y-13565270D01*
X21943127Y-13548714D01*
X21935113Y-13543626D01*
X21875293Y-13483355D01*
X21839465Y-13411769D01*
X21828980Y-13334092D01*
X21845190Y-13255548D01*
X21854908Y-13233689D01*
X21884857Y-13191122D01*
X21924567Y-13153763D01*
X21929603Y-13150232D01*
X21953876Y-13135881D01*
X21979822Y-13126394D01*
X22013978Y-13120790D01*
X22062881Y-13118086D01*
X22133065Y-13117299D01*
X22148800Y-13117286D01*
X22153808Y-13117322D01*
X22153808Y-13262429D01*
X22087570Y-13263273D01*
X22043614Y-13266596D01*
X22015221Y-13273583D01*
X21995675Y-13285416D01*
X21989143Y-13291457D01*
X21964320Y-13326186D01*
X21965452Y-13359903D01*
X21986984Y-13393995D01*
X22009971Y-13414329D01*
X22043522Y-13426371D01*
X22096431Y-13433134D01*
X22102601Y-13433598D01*
X22198487Y-13434752D01*
X22269701Y-13422688D01*
X22315806Y-13397570D01*
X22336365Y-13359560D01*
X22337486Y-13345992D01*
X22331848Y-13310364D01*
X22312314Y-13285994D01*
X22274958Y-13271093D01*
X22215850Y-13263875D01*
X22153808Y-13262429D01*
X22153808Y-13117322D01*
X22223587Y-13117826D01*
X22275841Y-13120096D01*
X22312051Y-13125068D01*
X22338701Y-13133713D01*
X22362278Y-13147005D01*
X22366662Y-13149943D01*
X22425751Y-13199313D01*
X22460053Y-13253109D01*
X22473669Y-13318602D01*
X22474335Y-13340842D01*
X22462038Y-13424115D01*
G36*
X22456220Y-15099093D02*
G01*
X22429277Y-15145672D01*
X22402534Y-15178057D01*
X22374516Y-15201742D01*
X22340252Y-15218059D01*
X22294773Y-15228339D01*
X22233108Y-15233914D01*
X22150289Y-15236116D01*
X22090754Y-15236371D01*
X21871609Y-15236371D01*
X21843956Y-15174686D01*
X21816303Y-15113000D01*
X22056330Y-15105743D01*
X22145972Y-15102744D01*
X22211038Y-15099598D01*
X22255974Y-15095701D01*
X22285230Y-15090447D01*
X22303252Y-15083231D01*
X22314489Y-15073450D01*
X22316921Y-15070312D01*
X22335917Y-15022761D01*
X22328400Y-14974697D01*
X22308457Y-14946086D01*
X22294325Y-14934447D01*
X22275780Y-14926391D01*
X22247666Y-14921271D01*
X22204827Y-14918441D01*
X22142105Y-14917256D01*
X22076739Y-14917057D01*
X21994732Y-14917018D01*
X21936684Y-14915614D01*
X21897535Y-14910914D01*
X21872220Y-14900987D01*
X21855677Y-14883903D01*
X21842844Y-14857732D01*
X21829509Y-14822775D01*
X21814993Y-14784596D01*
X22072611Y-14789141D01*
X22165481Y-14790971D01*
X22234111Y-14793112D01*
X22283289Y-14796181D01*
X22317802Y-14800794D01*
X22342438Y-14807568D01*
X22361984Y-14817119D01*
X22379230Y-14828634D01*
X22434320Y-14884190D01*
X22466178Y-14951980D01*
X22473809Y-15025713D01*
X22456220Y-15099093D01*
X22456220Y-15099093D01*
G37*
X22456220Y-15099093D02*
X22429277Y-15145672D01*
X22402534Y-15178057D01*
X22374516Y-15201742D01*
X22340252Y-15218059D01*
X22294773Y-15228339D01*
X22233108Y-15233914D01*
X22150289Y-15236116D01*
X22090754Y-15236371D01*
X21871609Y-15236371D01*
X21843956Y-15174686D01*
X21816303Y-15113000D01*
X22056330Y-15105743D01*
X22145972Y-15102744D01*
X22211038Y-15099598D01*
X22255974Y-15095701D01*
X22285230Y-15090447D01*
X22303252Y-15083231D01*
X22314489Y-15073450D01*
X22316921Y-15070312D01*
X22335917Y-15022761D01*
X22328400Y-14974697D01*
X22308457Y-14946086D01*
X22294325Y-14934447D01*
X22275780Y-14926391D01*
X22247666Y-14921271D01*
X22204827Y-14918441D01*
X22142105Y-14917256D01*
X22076739Y-14917057D01*
X21994732Y-14917018D01*
X21936684Y-14915614D01*
X21897535Y-14910914D01*
X21872220Y-14900987D01*
X21855677Y-14883903D01*
X21842844Y-14857732D01*
X21829509Y-14822775D01*
X21814993Y-14784596D01*
X22072611Y-14789141D01*
X22165481Y-14790971D01*
X22234111Y-14793112D01*
X22283289Y-14796181D01*
X22317802Y-14800794D01*
X22342438Y-14807568D01*
X22361984Y-14817119D01*
X22379230Y-14828634D01*
X22434320Y-14884190D01*
X22466178Y-14951980D01*
X22473809Y-15025713D01*
X22456220Y-15099093D01*
G36*
X22464082Y-13982744D02*
G01*
X22436432Y-14038201D01*
X22385520Y-14087148D01*
X22366662Y-14100629D01*
X22341985Y-14115314D01*
X22315184Y-14124842D01*
X22279413Y-14130293D01*
X22227831Y-14132747D01*
X22159733Y-14133286D01*
X22066412Y-14130852D01*
X21996343Y-14122394D01*
X21944069Y-14106174D01*
X21904131Y-14080454D01*
X21871071Y-14043497D01*
X21869114Y-14040782D01*
X21849092Y-14004360D01*
X21839185Y-13960502D01*
X21836743Y-13904724D01*
X21836743Y-13814048D01*
X21748717Y-13814010D01*
X21699692Y-13813166D01*
X21670935Y-13808024D01*
X21653689Y-13794587D01*
X21639192Y-13768858D01*
X21636231Y-13762679D01*
X21622352Y-13733764D01*
X21613586Y-13711376D01*
X21612829Y-13694729D01*
X21622977Y-13683036D01*
X21646927Y-13675510D01*
X21687574Y-13671366D01*
X21747814Y-13669815D01*
X21830545Y-13670071D01*
X21938661Y-13671349D01*
X21971000Y-13671748D01*
X22082476Y-13673185D01*
X22155397Y-13674472D01*
X22155397Y-13813971D01*
X22093501Y-13814755D01*
X22053003Y-13818240D01*
X22026292Y-13826124D01*
X22005756Y-13840105D01*
X21995740Y-13849597D01*
X21966433Y-13888404D01*
X21964048Y-13922763D01*
X21988250Y-13958216D01*
X21989143Y-13959114D01*
X22007847Y-13973539D01*
X22033268Y-13982313D01*
X22072416Y-13986739D01*
X22132303Y-13988118D01*
X22145570Y-13988143D01*
X22228099Y-13984812D01*
X22285309Y-13973969D01*
X22320234Y-13954340D01*
X22335906Y-13924650D01*
X22337486Y-13907491D01*
X22330074Y-13866766D01*
X22305670Y-13838832D01*
X22261020Y-13822017D01*
X22192870Y-13814650D01*
X22155397Y-13813971D01*
X22155397Y-13674472D01*
X22168755Y-13674708D01*
X22233667Y-13676677D01*
X22281042Y-13679450D01*
X22314710Y-13683388D01*
X22338502Y-13688849D01*
X22356247Y-13696192D01*
X22371776Y-13705777D01*
X22377619Y-13709887D01*
X22432815Y-13764405D01*
X22464110Y-13833336D01*
X22472835Y-13913072D01*
X22464082Y-13982744D01*
X22464082Y-13982744D01*
G37*
X22464082Y-13982744D02*
X22436432Y-14038201D01*
X22385520Y-14087148D01*
X22366662Y-14100629D01*
X22341985Y-14115314D01*
X22315184Y-14124842D01*
X22279413Y-14130293D01*
X22227831Y-14132747D01*
X22159733Y-14133286D01*
X22066412Y-14130852D01*
X21996343Y-14122394D01*
X21944069Y-14106174D01*
X21904131Y-14080454D01*
X21871071Y-14043497D01*
X21869114Y-14040782D01*
X21849092Y-14004360D01*
X21839185Y-13960502D01*
X21836743Y-13904724D01*
X21836743Y-13814048D01*
X21748717Y-13814010D01*
X21699692Y-13813166D01*
X21670935Y-13808024D01*
X21653689Y-13794587D01*
X21639192Y-13768858D01*
X21636231Y-13762679D01*
X21622352Y-13733764D01*
X21613586Y-13711376D01*
X21612829Y-13694729D01*
X21622977Y-13683036D01*
X21646927Y-13675510D01*
X21687574Y-13671366D01*
X21747814Y-13669815D01*
X21830545Y-13670071D01*
X21938661Y-13671349D01*
X21971000Y-13671748D01*
X22082476Y-13673185D01*
X22155397Y-13674472D01*
X22155397Y-13813971D01*
X22093501Y-13814755D01*
X22053003Y-13818240D01*
X22026292Y-13826124D01*
X22005756Y-13840105D01*
X21995740Y-13849597D01*
X21966433Y-13888404D01*
X21964048Y-13922763D01*
X21988250Y-13958216D01*
X21989143Y-13959114D01*
X22007847Y-13973539D01*
X22033268Y-13982313D01*
X22072416Y-13986739D01*
X22132303Y-13988118D01*
X22145570Y-13988143D01*
X22228099Y-13984812D01*
X22285309Y-13973969D01*
X22320234Y-13954340D01*
X22335906Y-13924650D01*
X22337486Y-13907491D01*
X22330074Y-13866766D01*
X22305670Y-13838832D01*
X22261020Y-13822017D01*
X22192870Y-13814650D01*
X22155397Y-13813971D01*
X22155397Y-13674472D01*
X22168755Y-13674708D01*
X22233667Y-13676677D01*
X22281042Y-13679450D01*
X22314710Y-13683388D01*
X22338502Y-13688849D01*
X22356247Y-13696192D01*
X22371776Y-13705777D01*
X22377619Y-13709887D01*
X22432815Y-13764405D01*
X22464110Y-13833336D01*
X22472835Y-13913072D01*
X22464082Y-13982744D01*
D13*
X44450000Y-11430000D02*
X45720000Y-11430000D01*
X44450000Y-12700000D02*
X44450000Y-11430000D01*
X46762929Y-20700000D02*
X47160000Y-20700000D01*
X46762929Y-19940000D02*
X47160000Y-19940000D01*
X55820000Y-20700000D02*
X49820000Y-20700000D01*
X55820000Y-19940000D02*
X55820000Y-20700000D01*
X49820000Y-19940000D02*
X55820000Y-19940000D01*
X47160000Y-19050000D02*
X49820000Y-19050000D01*
X46762929Y-18160000D02*
X47160000Y-18160000D01*
X46762929Y-17400000D02*
X47160000Y-17400000D01*
X55820000Y-18160000D02*
X49820000Y-18160000D01*
X55820000Y-17400000D02*
X55820000Y-18160000D01*
X49820000Y-17400000D02*
X55820000Y-17400000D01*
X47160000Y-16510000D02*
X49820000Y-16510000D01*
X46762929Y-15620000D02*
X47160000Y-15620000D01*
X46762929Y-14860000D02*
X47160000Y-14860000D01*
X55820000Y-15620000D02*
X49820000Y-15620000D01*
X55820000Y-14860000D02*
X55820000Y-15620000D01*
X49820000Y-14860000D02*
X55820000Y-14860000D01*
X47160000Y-13970000D02*
X49820000Y-13970000D01*
X46830000Y-13080000D02*
X47160000Y-13080000D01*
X46830000Y-12320000D02*
X47160000Y-12320000D01*
X49820000Y-12980000D02*
X55820000Y-12980000D01*
X49820000Y-12860000D02*
X55820000Y-12860000D01*
X49820000Y-12740000D02*
X55820000Y-12740000D01*
X49820000Y-12620000D02*
X55820000Y-12620000D01*
X49820000Y-12500000D02*
X55820000Y-12500000D01*
X49820000Y-12380000D02*
X55820000Y-12380000D01*
X55820000Y-13080000D02*
X49820000Y-13080000D01*
X55820000Y-12320000D02*
X55820000Y-13080000D01*
X49820000Y-12320000D02*
X55820000Y-12320000D01*
X49820000Y-11370000D02*
X47160000Y-11370000D01*
X49820000Y-21650000D02*
X49820000Y-11370000D01*
X47160000Y-21650000D02*
X49820000Y-21650000D01*
X47160000Y-11370000D02*
X47160000Y-21650000D01*
X15240000Y-11370000D02*
X16350000Y-11370000D01*
X16350000Y-11370000D02*
X16350000Y-12700000D01*
X2610000Y-11370000D02*
X2610000Y-31810000D01*
X2610000Y-31810000D02*
X11240000Y-31810000D01*
X11240000Y-11370000D02*
X11240000Y-31810000D01*
X2610000Y-11370000D02*
X11240000Y-11370000D01*
X2610000Y-29210000D02*
X11240000Y-29210000D01*
X2610000Y-26670000D02*
X11240000Y-26670000D01*
X2610000Y-24130000D02*
X11240000Y-24130000D01*
X2610000Y-21590000D02*
X11240000Y-21590000D01*
X2610000Y-19050000D02*
X11240000Y-19050000D01*
X2610000Y-16510000D02*
X11240000Y-16510000D01*
X2610000Y-13970000D02*
X11240000Y-13970000D01*
X13750000Y-30840000D02*
X14190000Y-30840000D01*
X11240000Y-30840000D02*
X11650000Y-30840000D01*
X13750000Y-30120000D02*
X14190000Y-30120000D01*
X11240000Y-30120000D02*
X11650000Y-30120000D01*
X13750000Y-28300000D02*
X14190000Y-28300000D01*
X11240000Y-28300000D02*
X11650000Y-28300000D01*
X13750000Y-27580000D02*
X14190000Y-27580000D01*
X11240000Y-27580000D02*
X11650000Y-27580000D01*
X13750000Y-25760000D02*
X14190000Y-25760000D01*
X11240000Y-25760000D02*
X11650000Y-25760000D01*
X13750000Y-25040000D02*
X14190000Y-25040000D01*
X11240000Y-25040000D02*
X11650000Y-25040000D01*
X13750000Y-23220000D02*
X14190000Y-23220000D01*
X11240000Y-23220000D02*
X11650000Y-23220000D01*
X13750000Y-22500000D02*
X14190000Y-22500000D01*
X11240000Y-22500000D02*
X11650000Y-22500000D01*
X13750000Y-20680000D02*
X14190000Y-20680000D01*
X11240000Y-20680000D02*
X11650000Y-20680000D01*
X13750000Y-19960000D02*
X14190000Y-19960000D01*
X11240000Y-19960000D02*
X11650000Y-19960000D01*
X13750000Y-18140000D02*
X14190000Y-18140000D01*
X11240000Y-18140000D02*
X11650000Y-18140000D01*
X13750000Y-17420000D02*
X14190000Y-17420000D01*
X11240000Y-17420000D02*
X11650000Y-17420000D01*
X13750000Y-15600000D02*
X14190000Y-15600000D01*
X11240000Y-15600000D02*
X11650000Y-15600000D01*
X13750000Y-14880000D02*
X14190000Y-14880000D01*
X11240000Y-14880000D02*
X11650000Y-14880000D01*
X13750000Y-13060000D02*
X14130000Y-13060000D01*
X11240000Y-13060000D02*
X11650000Y-13060000D01*
X13750000Y-12340000D02*
X14130000Y-12340000D01*
X11240000Y-12340000D02*
X11650000Y-12340000D01*
X2610000Y-13851900D02*
X11240000Y-13851900D01*
X2610000Y-13733805D02*
X11240000Y-13733805D01*
X2610000Y-13615710D02*
X11240000Y-13615710D01*
X2610000Y-13497615D02*
X11240000Y-13497615D01*
X2610000Y-13379520D02*
X11240000Y-13379520D01*
X2610000Y-13261425D02*
X11240000Y-13261425D01*
X2610000Y-13143330D02*
X11240000Y-13143330D01*
X2610000Y-13025235D02*
X11240000Y-13025235D01*
X2610000Y-12907140D02*
X11240000Y-12907140D01*
X2610000Y-12789045D02*
X11240000Y-12789045D01*
X2610000Y-12670950D02*
X11240000Y-12670950D01*
X2610000Y-12552855D02*
X11240000Y-12552855D01*
X2610000Y-12434760D02*
X11240000Y-12434760D01*
X2610000Y-12316665D02*
X11240000Y-12316665D01*
X2610000Y-12198570D02*
X11240000Y-12198570D01*
X2610000Y-12080475D02*
X11240000Y-12080475D01*
X2610000Y-11962380D02*
X11240000Y-11962380D01*
X2610000Y-11844285D02*
X11240000Y-11844285D01*
X2610000Y-11726190D02*
X11240000Y-11726190D01*
X2610000Y-11608095D02*
X11240000Y-11608095D01*
X2610000Y-11490000D02*
X11240000Y-11490000D01*
D10*
X48807619Y-24614285D02*
X48807619Y-24423809D01*
X48760000Y-24328571D01*
X48712380Y-24280952D01*
X48569523Y-24185714D01*
X48379047Y-24138095D01*
X47998095Y-24138095D01*
X47902857Y-24185714D01*
X47855238Y-24233333D01*
X47807619Y-24328571D01*
X47807619Y-24519047D01*
X47855238Y-24614285D01*
X47902857Y-24661904D01*
X47998095Y-24709523D01*
X48236190Y-24709523D01*
X48331428Y-24661904D01*
X48379047Y-24614285D01*
X48426666Y-24519047D01*
X48426666Y-24328571D01*
X48379047Y-24233333D01*
X48331428Y-24185714D01*
X48236190Y-24138095D01*
X47807619Y-25138095D02*
X48807619Y-25138095D01*
X47807619Y-25709523D02*
X48379047Y-25280952D01*
X48807619Y-25709523D02*
X48236190Y-25138095D01*
X48379047Y-26280952D02*
X48426666Y-26185714D01*
X48474285Y-26138095D01*
X48569523Y-26090476D01*
X48617142Y-26090476D01*
X48712380Y-26138095D01*
X48760000Y-26185714D01*
X48807619Y-26280952D01*
X48807619Y-26471428D01*
X48760000Y-26566666D01*
X48712380Y-26614285D01*
X48617142Y-26661904D01*
X48569523Y-26661904D01*
X48474285Y-26614285D01*
X48426666Y-26566666D01*
X48379047Y-26471428D01*
X48379047Y-26280952D01*
X48331428Y-26185714D01*
X48283809Y-26138095D01*
X48188571Y-26090476D01*
X47998095Y-26090476D01*
X47902857Y-26138095D01*
X47855238Y-26185714D01*
X47807619Y-26280952D01*
X47807619Y-26471428D01*
X47855238Y-26566666D01*
X47902857Y-26614285D01*
X47998095Y-26661904D01*
X48188571Y-26661904D01*
X48283809Y-26614285D01*
X48331428Y-26566666D01*
X48379047Y-26471428D01*
X36107619Y-21613095D02*
X36107619Y-22279761D01*
X35107619Y-21851190D01*
X35774285Y-23089285D02*
X35107619Y-23089285D01*
X36155238Y-22851190D02*
X35440952Y-22613095D01*
X35440952Y-23232142D01*
X35107619Y-23613095D02*
X36107619Y-23613095D01*
X35631428Y-23613095D02*
X35631428Y-24184523D01*
X35107619Y-24184523D02*
X36107619Y-24184523D01*
X35202857Y-25232142D02*
X35155238Y-25184523D01*
X35107619Y-25041666D01*
X35107619Y-24946428D01*
X35155238Y-24803571D01*
X35250476Y-24708333D01*
X35345714Y-24660714D01*
X35536190Y-24613095D01*
X35679047Y-24613095D01*
X35869523Y-24660714D01*
X35964761Y-24708333D01*
X36060000Y-24803571D01*
X36107619Y-24946428D01*
X36107619Y-25041666D01*
X36060000Y-25184523D01*
X36012380Y-25232142D01*
X35107619Y-26184523D02*
X35107619Y-25613095D01*
X35107619Y-25898809D02*
X36107619Y-25898809D01*
X35964761Y-25803571D01*
X35869523Y-25708333D01*
X35821904Y-25613095D01*
X36107619Y-26517857D02*
X36107619Y-27184523D01*
X35107619Y-26755952D01*
X35774285Y-27994047D02*
X35107619Y-27994047D01*
X36155238Y-27755952D02*
X35440952Y-27517857D01*
X35440952Y-28136904D01*
X24677619Y-21503095D02*
X24677619Y-22169761D01*
X23677619Y-21741190D01*
X24344285Y-22979285D02*
X23677619Y-22979285D01*
X24725238Y-22741190D02*
X24010952Y-22503095D01*
X24010952Y-23122142D01*
X23677619Y-23503095D02*
X24677619Y-23503095D01*
X24201428Y-23503095D02*
X24201428Y-24074523D01*
X23677619Y-24074523D02*
X24677619Y-24074523D01*
X23772857Y-25122142D02*
X23725238Y-25074523D01*
X23677619Y-24931666D01*
X23677619Y-24836428D01*
X23725238Y-24693571D01*
X23820476Y-24598333D01*
X23915714Y-24550714D01*
X24106190Y-24503095D01*
X24249047Y-24503095D01*
X24439523Y-24550714D01*
X24534761Y-24598333D01*
X24630000Y-24693571D01*
X24677619Y-24836428D01*
X24677619Y-24931666D01*
X24630000Y-25074523D01*
X24582380Y-25122142D01*
X23677619Y-26074523D02*
X23677619Y-25503095D01*
X23677619Y-25788809D02*
X24677619Y-25788809D01*
X24534761Y-25693571D01*
X24439523Y-25598333D01*
X24391904Y-25503095D01*
X24677619Y-26407857D02*
X24677619Y-27026904D01*
X24296666Y-26693571D01*
X24296666Y-26836428D01*
X24249047Y-26931666D01*
X24201428Y-26979285D01*
X24106190Y-27026904D01*
X23868095Y-27026904D01*
X23772857Y-26979285D01*
X23725238Y-26931666D01*
X23677619Y-26836428D01*
X23677619Y-26550714D01*
X23725238Y-26455476D01*
X23772857Y-26407857D01*
X24249047Y-27598333D02*
X24296666Y-27503095D01*
X24344285Y-27455476D01*
X24439523Y-27407857D01*
X24487142Y-27407857D01*
X24582380Y-27455476D01*
X24630000Y-27503095D01*
X24677619Y-27598333D01*
X24677619Y-27788809D01*
X24630000Y-27884047D01*
X24582380Y-27931666D01*
X24487142Y-27979285D01*
X24439523Y-27979285D01*
X24344285Y-27931666D01*
X24296666Y-27884047D01*
X24249047Y-27788809D01*
X24249047Y-27598333D01*
X24201428Y-27503095D01*
X24153809Y-27455476D01*
X24058571Y-27407857D01*
X23868095Y-27407857D01*
X23772857Y-27455476D01*
X23725238Y-27503095D01*
X23677619Y-27598333D01*
X23677619Y-27788809D01*
X23725238Y-27884047D01*
X23772857Y-27931666D01*
X23868095Y-27979285D01*
X24058571Y-27979285D01*
X24153809Y-27931666D01*
X24201428Y-27884047D01*
X24249047Y-27788809D01*
D15*
X44253095Y-29546666D02*
X44253095Y-29394285D01*
X44215000Y-29318095D01*
X44176904Y-29280000D01*
X44062619Y-29203809D01*
X43910238Y-29165714D01*
X43605476Y-29165714D01*
X43529285Y-29203809D01*
X43491190Y-29241904D01*
X43453095Y-29318095D01*
X43453095Y-29470476D01*
X43491190Y-29546666D01*
X43529285Y-29584761D01*
X43605476Y-29622857D01*
X43795952Y-29622857D01*
X43872142Y-29584761D01*
X43910238Y-29546666D01*
X43948333Y-29470476D01*
X43948333Y-29318095D01*
X43910238Y-29241904D01*
X43872142Y-29203809D01*
X43795952Y-29165714D01*
X43910238Y-30080000D02*
X43948333Y-30003809D01*
X43986428Y-29965714D01*
X44062619Y-29927619D01*
X44100714Y-29927619D01*
X44176904Y-29965714D01*
X44215000Y-30003809D01*
X44253095Y-30080000D01*
X44253095Y-30232380D01*
X44215000Y-30308571D01*
X44176904Y-30346666D01*
X44100714Y-30384761D01*
X44062619Y-30384761D01*
X43986428Y-30346666D01*
X43948333Y-30308571D01*
X43910238Y-30232380D01*
X43910238Y-30080000D01*
X43872142Y-30003809D01*
X43834047Y-29965714D01*
X43757857Y-29927619D01*
X43605476Y-29927619D01*
X43529285Y-29965714D01*
X43491190Y-30003809D01*
X43453095Y-30080000D01*
X43453095Y-30232380D01*
X43491190Y-30308571D01*
X43529285Y-30346666D01*
X43605476Y-30384761D01*
X43757857Y-30384761D01*
X43834047Y-30346666D01*
X43872142Y-30308571D01*
X43910238Y-30232380D01*
X43986428Y-30727619D02*
X43186428Y-30727619D01*
X43948333Y-30727619D02*
X43986428Y-30803809D01*
X43986428Y-30956190D01*
X43948333Y-31032380D01*
X43910238Y-31070476D01*
X43834047Y-31108571D01*
X43605476Y-31108571D01*
X43529285Y-31070476D01*
X43491190Y-31032380D01*
X43453095Y-30956190D01*
X43453095Y-30803809D01*
X43491190Y-30727619D01*
X43872142Y-31718095D02*
X43872142Y-31451428D01*
X43453095Y-31451428D02*
X44253095Y-31451428D01*
X44253095Y-31832380D01*
D10*
X44029285Y-13348571D02*
X43362619Y-13348571D01*
X43934047Y-13348571D02*
X43981666Y-13396190D01*
X44029285Y-13491428D01*
X44029285Y-13634285D01*
X43981666Y-13729523D01*
X43886428Y-13777142D01*
X43362619Y-13777142D01*
X43362619Y-14681904D02*
X43886428Y-14681904D01*
X43981666Y-14634285D01*
X44029285Y-14539047D01*
X44029285Y-14348571D01*
X43981666Y-14253333D01*
X43410238Y-14681904D02*
X43362619Y-14586666D01*
X43362619Y-14348571D01*
X43410238Y-14253333D01*
X43505476Y-14205714D01*
X43600714Y-14205714D01*
X43695952Y-14253333D01*
X43743571Y-14348571D01*
X43743571Y-14586666D01*
X43791190Y-14681904D01*
X44029285Y-15158095D02*
X43362619Y-15158095D01*
X43934047Y-15158095D02*
X43981666Y-15205714D01*
X44029285Y-15300952D01*
X44029285Y-15443809D01*
X43981666Y-15539047D01*
X43886428Y-15586666D01*
X43362619Y-15586666D01*
X43362619Y-16205714D02*
X43410238Y-16110476D01*
X43457857Y-16062857D01*
X43553095Y-16015238D01*
X43838809Y-16015238D01*
X43934047Y-16062857D01*
X43981666Y-16110476D01*
X44029285Y-16205714D01*
X44029285Y-16348571D01*
X43981666Y-16443809D01*
X43934047Y-16491428D01*
X43838809Y-16539047D01*
X43553095Y-16539047D01*
X43457857Y-16491428D01*
X43410238Y-16443809D01*
X43362619Y-16348571D01*
X43362619Y-16205714D01*
X43362619Y-17443809D02*
X43362619Y-16967619D01*
X44362619Y-16967619D01*
X43362619Y-17777142D02*
X44029285Y-17777142D01*
X44362619Y-17777142D02*
X44315000Y-17729523D01*
X44267380Y-17777142D01*
X44315000Y-17824761D01*
X44362619Y-17777142D01*
X44267380Y-17777142D01*
X44029285Y-18253333D02*
X43362619Y-18253333D01*
X43934047Y-18253333D02*
X43981666Y-18300952D01*
X44029285Y-18396190D01*
X44029285Y-18539047D01*
X43981666Y-18634285D01*
X43886428Y-18681904D01*
X43362619Y-18681904D01*
X43362619Y-19158095D02*
X44362619Y-19158095D01*
X43743571Y-19253333D02*
X43362619Y-19539047D01*
X44029285Y-19539047D02*
X43648333Y-19158095D01*
X17327619Y-20571428D02*
X18327619Y-20571428D01*
X18327619Y-21238095D02*
X18327619Y-21428571D01*
X18280000Y-21523809D01*
X18184761Y-21619047D01*
X17994285Y-21666666D01*
X17660952Y-21666666D01*
X17470476Y-21619047D01*
X17375238Y-21523809D01*
X17327619Y-21428571D01*
X17327619Y-21238095D01*
X17375238Y-21142857D01*
X17470476Y-21047619D01*
X17660952Y-21000000D01*
X17994285Y-21000000D01*
X18184761Y-21047619D01*
X18280000Y-21142857D01*
X18327619Y-21238095D01*
X17327619Y-22000000D02*
X17994285Y-22523809D01*
X17994285Y-22000000D02*
X17327619Y-22523809D01*
%LPC*%
D16*
X48260000Y-27940000D03*
D17*
X48260000Y-30480000D03*
D16*
X39355000Y-12700000D03*
X31735000Y-30480000D03*
X39355000Y-15240000D03*
X31735000Y-27940000D03*
X39355000Y-17780000D03*
X31735000Y-25400000D03*
X39355000Y-20320000D03*
X31735000Y-22860000D03*
X39355000Y-22860000D03*
X31735000Y-20320000D03*
X39355000Y-25400000D03*
X31735000Y-17780000D03*
X39355000Y-27940000D03*
X31735000Y-15240000D03*
X39355000Y-30480000D03*
D18*
X31735000Y-12700000D03*
D16*
X27940000Y-12700000D03*
X20320000Y-30480000D03*
X27940000Y-15240000D03*
X20320000Y-27940000D03*
X27940000Y-17780000D03*
X20320000Y-25400000D03*
X27940000Y-20320000D03*
X20320000Y-22860000D03*
X27940000Y-22860000D03*
X20320000Y-20320000D03*
X27940000Y-25400000D03*
X20320000Y-17780000D03*
X27940000Y-27940000D03*
X20320000Y-15240000D03*
X27940000Y-30480000D03*
D18*
X20320000Y-12700000D03*
D17*
X45045000Y-30480000D03*
X42545000Y-30480000D03*
D19*
X45720000Y-20320000D03*
X45720000Y-17780000D03*
X45720000Y-15240000D03*
D20*
X45720000Y-12700000D03*
D19*
X12700000Y-30480000D03*
X15240000Y-30480000D03*
X12700000Y-27940000D03*
X15240000Y-27940000D03*
X12700000Y-25400000D03*
X15240000Y-25400000D03*
X12700000Y-22860000D03*
X15240000Y-22860000D03*
X12700000Y-20320000D03*
X15240000Y-20320000D03*
X12700000Y-17780000D03*
X15240000Y-17780000D03*
X12700000Y-15240000D03*
X15240000Y-15240000D03*
X12700000Y-12700000D03*
D20*
X15240000Y-12700000D03*
M02*
