%FSLAX45Y45*%
G04 Gerber Fmt 4.5, Leading zero omitted, Abs format (unit mm)*
G04 Created by KiCad (PCBNEW (5.1.2-1)-1) date 2023-07-30 19:20:17*
%MOMM*%
%LPD*%
G04 APERTURE LIST*
%ADD10C,0.050000*%
%ADD11C,0.200000*%
%ADD12C,0.300000*%
G04 APERTURE END LIST*
D10*
X4914900Y-1066800D02*
G75*
G02X4978400Y-1130300I0J-63500D01*
G01*
X4978400Y-3187700D02*
G75*
G02X4914900Y-3251200I-63500J0D01*
G01*
X1041400Y-1130300D02*
G75*
G02X1104900Y-1066800I63500J0D01*
G01*
X1104900Y-3251200D02*
G75*
G02X1041400Y-3187700I0J63500D01*
G01*
X1041400Y-1130300D02*
X1041400Y-3187700D01*
X4914900Y-3251200D02*
X1104900Y-3251200D01*
X4978400Y-1130300D02*
X4978400Y-3187700D01*
X1104900Y-1066800D02*
X4914900Y-1066800D01*
D11*
D12*
X1325328Y-3719414D02*
X1325328Y-3419414D01*
X1396757Y-3419414D01*
X1439614Y-3433700D01*
X1468186Y-3462271D01*
X1482471Y-3490843D01*
X1496757Y-3547986D01*
X1496757Y-3590843D01*
X1482471Y-3647986D01*
X1468186Y-3676557D01*
X1439614Y-3705129D01*
X1396757Y-3719414D01*
X1325328Y-3719414D01*
X1625328Y-3719414D02*
X1625328Y-3519414D01*
X1625328Y-3576557D02*
X1639614Y-3547986D01*
X1653900Y-3533700D01*
X1682471Y-3519414D01*
X1711043Y-3519414D01*
X1811043Y-3719414D02*
X1811043Y-3519414D01*
X1811043Y-3419414D02*
X1796757Y-3433700D01*
X1811043Y-3447986D01*
X1825328Y-3433700D01*
X1811043Y-3419414D01*
X1811043Y-3447986D01*
X1996757Y-3719414D02*
X1968186Y-3705129D01*
X1953900Y-3676557D01*
X1953900Y-3419414D01*
X2153900Y-3719414D02*
X2125328Y-3705129D01*
X2111043Y-3676557D01*
X2111043Y-3419414D01*
X2496757Y-3719414D02*
X2496757Y-3419414D01*
X2596757Y-3633700D01*
X2696757Y-3419414D01*
X2696757Y-3719414D01*
X2968186Y-3719414D02*
X2968186Y-3562271D01*
X2953900Y-3533700D01*
X2925328Y-3519414D01*
X2868186Y-3519414D01*
X2839614Y-3533700D01*
X2968186Y-3705129D02*
X2939614Y-3719414D01*
X2868186Y-3719414D01*
X2839614Y-3705129D01*
X2825328Y-3676557D01*
X2825328Y-3647986D01*
X2839614Y-3619414D01*
X2868186Y-3605129D01*
X2939614Y-3605129D01*
X2968186Y-3590843D01*
X3111043Y-3519414D02*
X3111043Y-3819414D01*
X3111043Y-3533700D02*
X3139614Y-3519414D01*
X3196757Y-3519414D01*
X3225328Y-3533700D01*
X3239614Y-3547986D01*
X3253900Y-3576557D01*
X3253900Y-3662271D01*
X3239614Y-3690843D01*
X3225328Y-3705129D01*
X3196757Y-3719414D01*
X3139614Y-3719414D01*
X3111043Y-3705129D01*
X3382471Y-3690843D02*
X3396757Y-3705129D01*
X3382471Y-3719414D01*
X3368186Y-3705129D01*
X3382471Y-3690843D01*
X3382471Y-3719414D01*
X3382471Y-3533700D02*
X3396757Y-3547986D01*
X3382471Y-3562271D01*
X3368186Y-3547986D01*
X3382471Y-3533700D01*
X3382471Y-3562271D01*
M02*
