G04 #@! TF.GenerationSoftware,KiCad,Pcbnew,(5.1.2-1)-1*
G04 #@! TF.CreationDate,2023-07-30T19:19:47+02:00*
G04 #@! TF.ProjectId,nanoLink,6e616e6f-4c69-46e6-9b2e-6b696361645f,rev?*
G04 #@! TF.SameCoordinates,Original*
G04 #@! TF.FileFunction,Copper,L2,Bot*
G04 #@! TF.FilePolarity,Positive*
%FSLAX46Y46*%
G04 Gerber Fmt 4.6, Leading zero omitted, Abs format (unit mm)*
G04 Created by KiCad (PCBNEW (5.1.2-1)-1) date 2023-07-30 19:19:47*
%MOMM*%
%LPD*%
G04 APERTURE LIST*
%ADD10O,1.600000X1.600000*%
%ADD11C,1.600000*%
%ADD12R,1.600000X1.600000*%
%ADD13O,1.700000X1.700000*%
%ADD14R,1.700000X1.700000*%
%ADD15C,0.800000*%
%ADD16C,0.250000*%
%ADD17C,0.500000*%
%ADD18C,0.254000*%
G04 APERTURE END LIST*
D10*
X48260000Y-27940000D03*
D11*
X48260000Y-30480000D03*
D10*
X39355000Y-12700000D03*
X31735000Y-30480000D03*
X39355000Y-15240000D03*
X31735000Y-27940000D03*
X39355000Y-17780000D03*
X31735000Y-25400000D03*
X39355000Y-20320000D03*
X31735000Y-22860000D03*
X39355000Y-22860000D03*
X31735000Y-20320000D03*
X39355000Y-25400000D03*
X31735000Y-17780000D03*
X39355000Y-27940000D03*
X31735000Y-15240000D03*
X39355000Y-30480000D03*
D12*
X31735000Y-12700000D03*
D10*
X27940000Y-12700000D03*
X20320000Y-30480000D03*
X27940000Y-15240000D03*
X20320000Y-27940000D03*
X27940000Y-17780000D03*
X20320000Y-25400000D03*
X27940000Y-20320000D03*
X20320000Y-22860000D03*
X27940000Y-22860000D03*
X20320000Y-20320000D03*
X27940000Y-25400000D03*
X20320000Y-17780000D03*
X27940000Y-27940000D03*
X20320000Y-15240000D03*
X27940000Y-30480000D03*
D12*
X20320000Y-12700000D03*
D11*
X45045000Y-30480000D03*
X42545000Y-30480000D03*
D13*
X45720000Y-20320000D03*
X45720000Y-17780000D03*
X45720000Y-15240000D03*
D14*
X45720000Y-12700000D03*
D13*
X12700000Y-30480000D03*
X15240000Y-30480000D03*
X12700000Y-27940000D03*
X15240000Y-27940000D03*
X12700000Y-25400000D03*
X15240000Y-25400000D03*
X12700000Y-22860000D03*
X15240000Y-22860000D03*
X12700000Y-20320000D03*
X15240000Y-20320000D03*
X12700000Y-17780000D03*
X15240000Y-17780000D03*
X12700000Y-15240000D03*
X15240000Y-15240000D03*
X12700000Y-12700000D03*
D14*
X15240000Y-12700000D03*
D15*
X37465000Y-26670000D03*
X37465000Y-12700000D03*
X26035000Y-13970000D03*
D16*
X45045000Y-30480000D02*
X48260000Y-30480000D01*
X45045000Y-29348630D02*
X43636370Y-27940000D01*
X45045000Y-30480000D02*
X45045000Y-29348630D01*
X43636370Y-27940000D02*
X41910000Y-27940000D01*
X41910000Y-27940000D02*
X40640000Y-26670000D01*
X40640000Y-26670000D02*
X38100000Y-26670000D01*
X38100000Y-26670000D02*
X37465000Y-26670000D01*
X37465000Y-12700000D02*
X31735000Y-12700000D01*
X15240000Y-27940000D02*
X20320000Y-22860000D01*
X15240000Y-25400000D02*
X20320000Y-20320000D01*
X15240000Y-22860000D02*
X20320000Y-17780000D01*
X15240000Y-20320000D02*
X20320000Y-15240000D01*
X15240000Y-17780000D02*
X20320000Y-12700000D01*
X26670000Y-16510000D02*
X38085000Y-16510000D01*
X38085000Y-16510000D02*
X39355000Y-17780000D01*
X26035000Y-15875000D02*
X26670000Y-16510000D01*
X26035000Y-13970000D02*
X26035000Y-15875000D01*
D17*
X31735000Y-20337000D02*
X39355000Y-20337000D01*
X48260000Y-26704000D02*
X48260000Y-27940000D01*
X46973000Y-25417000D02*
X48260000Y-26704000D01*
X39355000Y-25417000D02*
X46973000Y-25417000D01*
X17780000Y-11510000D02*
X16590000Y-12700000D01*
X17780000Y-11430000D02*
X17780000Y-11510000D01*
X26670000Y-11430000D02*
X17780000Y-11430000D01*
X16590000Y-12700000D02*
X15240000Y-12700000D01*
X27940000Y-12700000D02*
X26670000Y-11430000D01*
X38085000Y-11430000D02*
X39355000Y-12700000D01*
X29210000Y-11430000D02*
X38085000Y-11430000D01*
X27940000Y-12700000D02*
X29210000Y-11430000D01*
X31735000Y-20320000D02*
X30480000Y-21575000D01*
X30480000Y-24145000D02*
X31735000Y-25400000D01*
X30480000Y-21575000D02*
X30480000Y-24145000D01*
X39355000Y-20320000D02*
X40625000Y-21590000D01*
X40625000Y-24130000D02*
X39355000Y-25400000D01*
X40625000Y-21590000D02*
X40625000Y-24130000D01*
D16*
X39355000Y-15240000D02*
X40640000Y-15240000D01*
X40640000Y-15240000D02*
X43180000Y-17780000D01*
X43180000Y-17780000D02*
X45720000Y-17780000D01*
X31735000Y-15240000D02*
X36830000Y-15240000D01*
X36830000Y-15240000D02*
X38100000Y-13970000D01*
X38100000Y-13970000D02*
X40640000Y-13970000D01*
X40640000Y-13970000D02*
X41910000Y-15240000D01*
X41910000Y-15240000D02*
X45720000Y-15240000D01*
X27940000Y-22860000D02*
X29210000Y-24130000D01*
X29210000Y-24130000D02*
X29210000Y-27940000D01*
X38555001Y-29680001D02*
X39355000Y-30480000D01*
X30624999Y-29354999D02*
X38229999Y-29354999D01*
X38229999Y-29354999D02*
X38555001Y-29680001D01*
X29210000Y-27940000D02*
X30624999Y-29354999D01*
D18*
G36*
X27326119Y-11402930D02*
G01*
X27084869Y-11547615D01*
X26876481Y-11736586D01*
X26708963Y-11962580D01*
X26588754Y-12216913D01*
X26548096Y-12350961D01*
X26670085Y-12573000D01*
X27813000Y-12573000D01*
X27813000Y-12553000D01*
X28067000Y-12553000D01*
X28067000Y-12573000D01*
X29209915Y-12573000D01*
X29331904Y-12350961D01*
X29291246Y-12216913D01*
X29171037Y-11962580D01*
X29003519Y-11736586D01*
X28795131Y-11547615D01*
X28553881Y-11402930D01*
X28344637Y-11328000D01*
X30658077Y-11328000D01*
X30580506Y-11369463D01*
X30483815Y-11448815D01*
X30404463Y-11545506D01*
X30345498Y-11655820D01*
X30309188Y-11775518D01*
X30296928Y-11900000D01*
X30296928Y-13500000D01*
X30309188Y-13624482D01*
X30345498Y-13744180D01*
X30404463Y-13854494D01*
X30483815Y-13951185D01*
X30580506Y-14030537D01*
X30690820Y-14089502D01*
X30810518Y-14125812D01*
X30828482Y-14127581D01*
X30715392Y-14220392D01*
X30536068Y-14438899D01*
X30402818Y-14688192D01*
X30320764Y-14958691D01*
X30293057Y-15240000D01*
X30320764Y-15521309D01*
X30390136Y-15750000D01*
X29284864Y-15750000D01*
X29354236Y-15521309D01*
X29381943Y-15240000D01*
X29354236Y-14958691D01*
X29272182Y-14688192D01*
X29138932Y-14438899D01*
X28959608Y-14220392D01*
X28741101Y-14041068D01*
X28603318Y-13967421D01*
X28795131Y-13852385D01*
X29003519Y-13663414D01*
X29171037Y-13437420D01*
X29291246Y-13183087D01*
X29331904Y-13049039D01*
X29209915Y-12827000D01*
X28067000Y-12827000D01*
X28067000Y-12847000D01*
X27813000Y-12847000D01*
X27813000Y-12827000D01*
X26670085Y-12827000D01*
X26548096Y-13049039D01*
X26555330Y-13072890D01*
X26525256Y-13052795D01*
X26336898Y-12974774D01*
X26136939Y-12935000D01*
X25933061Y-12935000D01*
X25733102Y-12974774D01*
X25544744Y-13052795D01*
X25375226Y-13166063D01*
X25231063Y-13310226D01*
X25117795Y-13479744D01*
X25039774Y-13668102D01*
X25000000Y-13868061D01*
X25000000Y-14071939D01*
X25039774Y-14271898D01*
X25117795Y-14460256D01*
X25231063Y-14629774D01*
X25275000Y-14673711D01*
X25275001Y-15837668D01*
X25271324Y-15875000D01*
X25275001Y-15912333D01*
X25282553Y-15989003D01*
X25285998Y-16023985D01*
X25329454Y-16167246D01*
X25400026Y-16299276D01*
X25454592Y-16365764D01*
X25495000Y-16415001D01*
X25523998Y-16438799D01*
X26106200Y-17021002D01*
X26129999Y-17050001D01*
X26245724Y-17144974D01*
X26377753Y-17215546D01*
X26521014Y-17259003D01*
X26596225Y-17266411D01*
X26525764Y-17498691D01*
X26498057Y-17780000D01*
X26525764Y-18061309D01*
X26607818Y-18331808D01*
X26741068Y-18581101D01*
X26920392Y-18799608D01*
X27138899Y-18978932D01*
X27271858Y-19050000D01*
X27138899Y-19121068D01*
X26920392Y-19300392D01*
X26741068Y-19518899D01*
X26607818Y-19768192D01*
X26525764Y-20038691D01*
X26498057Y-20320000D01*
X26525764Y-20601309D01*
X26607818Y-20871808D01*
X26741068Y-21121101D01*
X26920392Y-21339608D01*
X27138899Y-21518932D01*
X27271858Y-21590000D01*
X27138899Y-21661068D01*
X26920392Y-21840392D01*
X26741068Y-22058899D01*
X26607818Y-22308192D01*
X26525764Y-22578691D01*
X26498057Y-22860000D01*
X26525764Y-23141309D01*
X26607818Y-23411808D01*
X26741068Y-23661101D01*
X26920392Y-23879608D01*
X27138899Y-24058932D01*
X27271858Y-24130000D01*
X27138899Y-24201068D01*
X26920392Y-24380392D01*
X26741068Y-24598899D01*
X26607818Y-24848192D01*
X26525764Y-25118691D01*
X26498057Y-25400000D01*
X26525764Y-25681309D01*
X26607818Y-25951808D01*
X26741068Y-26201101D01*
X26920392Y-26419608D01*
X27138899Y-26598932D01*
X27271858Y-26670000D01*
X27138899Y-26741068D01*
X26920392Y-26920392D01*
X26741068Y-27138899D01*
X26607818Y-27388192D01*
X26525764Y-27658691D01*
X26498057Y-27940000D01*
X26525764Y-28221309D01*
X26607818Y-28491808D01*
X26741068Y-28741101D01*
X26920392Y-28959608D01*
X27138899Y-29138932D01*
X27271858Y-29210000D01*
X27138899Y-29281068D01*
X26920392Y-29460392D01*
X26741068Y-29678899D01*
X26607818Y-29928192D01*
X26525764Y-30198691D01*
X26498057Y-30480000D01*
X26525764Y-30761309D01*
X26607818Y-31031808D01*
X26741068Y-31281101D01*
X26920392Y-31499608D01*
X27138899Y-31678932D01*
X27388192Y-31812182D01*
X27519456Y-31852000D01*
X20740544Y-31852000D01*
X20871808Y-31812182D01*
X21121101Y-31678932D01*
X21339608Y-31499608D01*
X21518932Y-31281101D01*
X21652182Y-31031808D01*
X21734236Y-30761309D01*
X21761943Y-30480000D01*
X21734236Y-30198691D01*
X21652182Y-29928192D01*
X21518932Y-29678899D01*
X21339608Y-29460392D01*
X21121101Y-29281068D01*
X20988142Y-29210000D01*
X21121101Y-29138932D01*
X21339608Y-28959608D01*
X21518932Y-28741101D01*
X21652182Y-28491808D01*
X21734236Y-28221309D01*
X21761943Y-27940000D01*
X21734236Y-27658691D01*
X21652182Y-27388192D01*
X21518932Y-27138899D01*
X21339608Y-26920392D01*
X21121101Y-26741068D01*
X20988142Y-26670000D01*
X21121101Y-26598932D01*
X21339608Y-26419608D01*
X21518932Y-26201101D01*
X21652182Y-25951808D01*
X21734236Y-25681309D01*
X21761943Y-25400000D01*
X21734236Y-25118691D01*
X21652182Y-24848192D01*
X21518932Y-24598899D01*
X21339608Y-24380392D01*
X21121101Y-24201068D01*
X20988142Y-24130000D01*
X21121101Y-24058932D01*
X21339608Y-23879608D01*
X21518932Y-23661101D01*
X21652182Y-23411808D01*
X21734236Y-23141309D01*
X21761943Y-22860000D01*
X21734236Y-22578691D01*
X21652182Y-22308192D01*
X21518932Y-22058899D01*
X21339608Y-21840392D01*
X21121101Y-21661068D01*
X20988142Y-21590000D01*
X21121101Y-21518932D01*
X21339608Y-21339608D01*
X21518932Y-21121101D01*
X21652182Y-20871808D01*
X21734236Y-20601309D01*
X21761943Y-20320000D01*
X21734236Y-20038691D01*
X21652182Y-19768192D01*
X21518932Y-19518899D01*
X21339608Y-19300392D01*
X21121101Y-19121068D01*
X20988142Y-19050000D01*
X21121101Y-18978932D01*
X21339608Y-18799608D01*
X21518932Y-18581101D01*
X21652182Y-18331808D01*
X21734236Y-18061309D01*
X21761943Y-17780000D01*
X21734236Y-17498691D01*
X21652182Y-17228192D01*
X21518932Y-16978899D01*
X21339608Y-16760392D01*
X21121101Y-16581068D01*
X20988142Y-16510000D01*
X21121101Y-16438932D01*
X21339608Y-16259608D01*
X21518932Y-16041101D01*
X21652182Y-15791808D01*
X21734236Y-15521309D01*
X21761943Y-15240000D01*
X21734236Y-14958691D01*
X21652182Y-14688192D01*
X21518932Y-14438899D01*
X21339608Y-14220392D01*
X21226518Y-14127581D01*
X21244482Y-14125812D01*
X21364180Y-14089502D01*
X21474494Y-14030537D01*
X21571185Y-13951185D01*
X21650537Y-13854494D01*
X21709502Y-13744180D01*
X21745812Y-13624482D01*
X21758072Y-13500000D01*
X21758072Y-11900000D01*
X21745812Y-11775518D01*
X21709502Y-11655820D01*
X21650537Y-11545506D01*
X21571185Y-11448815D01*
X21474494Y-11369463D01*
X21396923Y-11328000D01*
X27535363Y-11328000D01*
X27326119Y-11402930D01*
X27326119Y-11402930D01*
G37*
X27326119Y-11402930D02*
X27084869Y-11547615D01*
X26876481Y-11736586D01*
X26708963Y-11962580D01*
X26588754Y-12216913D01*
X26548096Y-12350961D01*
X26670085Y-12573000D01*
X27813000Y-12573000D01*
X27813000Y-12553000D01*
X28067000Y-12553000D01*
X28067000Y-12573000D01*
X29209915Y-12573000D01*
X29331904Y-12350961D01*
X29291246Y-12216913D01*
X29171037Y-11962580D01*
X29003519Y-11736586D01*
X28795131Y-11547615D01*
X28553881Y-11402930D01*
X28344637Y-11328000D01*
X30658077Y-11328000D01*
X30580506Y-11369463D01*
X30483815Y-11448815D01*
X30404463Y-11545506D01*
X30345498Y-11655820D01*
X30309188Y-11775518D01*
X30296928Y-11900000D01*
X30296928Y-13500000D01*
X30309188Y-13624482D01*
X30345498Y-13744180D01*
X30404463Y-13854494D01*
X30483815Y-13951185D01*
X30580506Y-14030537D01*
X30690820Y-14089502D01*
X30810518Y-14125812D01*
X30828482Y-14127581D01*
X30715392Y-14220392D01*
X30536068Y-14438899D01*
X30402818Y-14688192D01*
X30320764Y-14958691D01*
X30293057Y-15240000D01*
X30320764Y-15521309D01*
X30390136Y-15750000D01*
X29284864Y-15750000D01*
X29354236Y-15521309D01*
X29381943Y-15240000D01*
X29354236Y-14958691D01*
X29272182Y-14688192D01*
X29138932Y-14438899D01*
X28959608Y-14220392D01*
X28741101Y-14041068D01*
X28603318Y-13967421D01*
X28795131Y-13852385D01*
X29003519Y-13663414D01*
X29171037Y-13437420D01*
X29291246Y-13183087D01*
X29331904Y-13049039D01*
X29209915Y-12827000D01*
X28067000Y-12827000D01*
X28067000Y-12847000D01*
X27813000Y-12847000D01*
X27813000Y-12827000D01*
X26670085Y-12827000D01*
X26548096Y-13049039D01*
X26555330Y-13072890D01*
X26525256Y-13052795D01*
X26336898Y-12974774D01*
X26136939Y-12935000D01*
X25933061Y-12935000D01*
X25733102Y-12974774D01*
X25544744Y-13052795D01*
X25375226Y-13166063D01*
X25231063Y-13310226D01*
X25117795Y-13479744D01*
X25039774Y-13668102D01*
X25000000Y-13868061D01*
X25000000Y-14071939D01*
X25039774Y-14271898D01*
X25117795Y-14460256D01*
X25231063Y-14629774D01*
X25275000Y-14673711D01*
X25275001Y-15837668D01*
X25271324Y-15875000D01*
X25275001Y-15912333D01*
X25282553Y-15989003D01*
X25285998Y-16023985D01*
X25329454Y-16167246D01*
X25400026Y-16299276D01*
X25454592Y-16365764D01*
X25495000Y-16415001D01*
X25523998Y-16438799D01*
X26106200Y-17021002D01*
X26129999Y-17050001D01*
X26245724Y-17144974D01*
X26377753Y-17215546D01*
X26521014Y-17259003D01*
X26596225Y-17266411D01*
X26525764Y-17498691D01*
X26498057Y-17780000D01*
X26525764Y-18061309D01*
X26607818Y-18331808D01*
X26741068Y-18581101D01*
X26920392Y-18799608D01*
X27138899Y-18978932D01*
X27271858Y-19050000D01*
X27138899Y-19121068D01*
X26920392Y-19300392D01*
X26741068Y-19518899D01*
X26607818Y-19768192D01*
X26525764Y-20038691D01*
X26498057Y-20320000D01*
X26525764Y-20601309D01*
X26607818Y-20871808D01*
X26741068Y-21121101D01*
X26920392Y-21339608D01*
X27138899Y-21518932D01*
X27271858Y-21590000D01*
X27138899Y-21661068D01*
X26920392Y-21840392D01*
X26741068Y-22058899D01*
X26607818Y-22308192D01*
X26525764Y-22578691D01*
X26498057Y-22860000D01*
X26525764Y-23141309D01*
X26607818Y-23411808D01*
X26741068Y-23661101D01*
X26920392Y-23879608D01*
X27138899Y-24058932D01*
X27271858Y-24130000D01*
X27138899Y-24201068D01*
X26920392Y-24380392D01*
X26741068Y-24598899D01*
X26607818Y-24848192D01*
X26525764Y-25118691D01*
X26498057Y-25400000D01*
X26525764Y-25681309D01*
X26607818Y-25951808D01*
X26741068Y-26201101D01*
X26920392Y-26419608D01*
X27138899Y-26598932D01*
X27271858Y-26670000D01*
X27138899Y-26741068D01*
X26920392Y-26920392D01*
X26741068Y-27138899D01*
X26607818Y-27388192D01*
X26525764Y-27658691D01*
X26498057Y-27940000D01*
X26525764Y-28221309D01*
X26607818Y-28491808D01*
X26741068Y-28741101D01*
X26920392Y-28959608D01*
X27138899Y-29138932D01*
X27271858Y-29210000D01*
X27138899Y-29281068D01*
X26920392Y-29460392D01*
X26741068Y-29678899D01*
X26607818Y-29928192D01*
X26525764Y-30198691D01*
X26498057Y-30480000D01*
X26525764Y-30761309D01*
X26607818Y-31031808D01*
X26741068Y-31281101D01*
X26920392Y-31499608D01*
X27138899Y-31678932D01*
X27388192Y-31812182D01*
X27519456Y-31852000D01*
X20740544Y-31852000D01*
X20871808Y-31812182D01*
X21121101Y-31678932D01*
X21339608Y-31499608D01*
X21518932Y-31281101D01*
X21652182Y-31031808D01*
X21734236Y-30761309D01*
X21761943Y-30480000D01*
X21734236Y-30198691D01*
X21652182Y-29928192D01*
X21518932Y-29678899D01*
X21339608Y-29460392D01*
X21121101Y-29281068D01*
X20988142Y-29210000D01*
X21121101Y-29138932D01*
X21339608Y-28959608D01*
X21518932Y-28741101D01*
X21652182Y-28491808D01*
X21734236Y-28221309D01*
X21761943Y-27940000D01*
X21734236Y-27658691D01*
X21652182Y-27388192D01*
X21518932Y-27138899D01*
X21339608Y-26920392D01*
X21121101Y-26741068D01*
X20988142Y-26670000D01*
X21121101Y-26598932D01*
X21339608Y-26419608D01*
X21518932Y-26201101D01*
X21652182Y-25951808D01*
X21734236Y-25681309D01*
X21761943Y-25400000D01*
X21734236Y-25118691D01*
X21652182Y-24848192D01*
X21518932Y-24598899D01*
X21339608Y-24380392D01*
X21121101Y-24201068D01*
X20988142Y-24130000D01*
X21121101Y-24058932D01*
X21339608Y-23879608D01*
X21518932Y-23661101D01*
X21652182Y-23411808D01*
X21734236Y-23141309D01*
X21761943Y-22860000D01*
X21734236Y-22578691D01*
X21652182Y-22308192D01*
X21518932Y-22058899D01*
X21339608Y-21840392D01*
X21121101Y-21661068D01*
X20988142Y-21590000D01*
X21121101Y-21518932D01*
X21339608Y-21339608D01*
X21518932Y-21121101D01*
X21652182Y-20871808D01*
X21734236Y-20601309D01*
X21761943Y-20320000D01*
X21734236Y-20038691D01*
X21652182Y-19768192D01*
X21518932Y-19518899D01*
X21339608Y-19300392D01*
X21121101Y-19121068D01*
X20988142Y-19050000D01*
X21121101Y-18978932D01*
X21339608Y-18799608D01*
X21518932Y-18581101D01*
X21652182Y-18331808D01*
X21734236Y-18061309D01*
X21761943Y-17780000D01*
X21734236Y-17498691D01*
X21652182Y-17228192D01*
X21518932Y-16978899D01*
X21339608Y-16760392D01*
X21121101Y-16581068D01*
X20988142Y-16510000D01*
X21121101Y-16438932D01*
X21339608Y-16259608D01*
X21518932Y-16041101D01*
X21652182Y-15791808D01*
X21734236Y-15521309D01*
X21761943Y-15240000D01*
X21734236Y-14958691D01*
X21652182Y-14688192D01*
X21518932Y-14438899D01*
X21339608Y-14220392D01*
X21226518Y-14127581D01*
X21244482Y-14125812D01*
X21364180Y-14089502D01*
X21474494Y-14030537D01*
X21571185Y-13951185D01*
X21650537Y-13854494D01*
X21709502Y-13744180D01*
X21745812Y-13624482D01*
X21758072Y-13500000D01*
X21758072Y-11900000D01*
X21745812Y-11775518D01*
X21709502Y-11655820D01*
X21650537Y-11545506D01*
X21571185Y-11448815D01*
X21474494Y-11369463D01*
X21396923Y-11328000D01*
X27535363Y-11328000D01*
X27326119Y-11402930D01*
G36*
X49123513Y-11328666D02*
G01*
X49124000Y-11333301D01*
X49124001Y-26802791D01*
X48997420Y-26708963D01*
X48743087Y-26588754D01*
X48609039Y-26548096D01*
X48387000Y-26670085D01*
X48387000Y-27813000D01*
X48407000Y-27813000D01*
X48407000Y-28067000D01*
X48387000Y-28067000D01*
X48387000Y-28087000D01*
X48133000Y-28087000D01*
X48133000Y-28067000D01*
X46989376Y-28067000D01*
X46868091Y-28289040D01*
X46962930Y-28553881D01*
X47107615Y-28795131D01*
X47296586Y-29003519D01*
X47522580Y-29171037D01*
X47591565Y-29203643D01*
X47580273Y-29208320D01*
X47345241Y-29365363D01*
X47145363Y-29565241D01*
X47041957Y-29720000D01*
X46263043Y-29720000D01*
X46159637Y-29565241D01*
X45959759Y-29365363D01*
X45799798Y-29258481D01*
X45794003Y-29199644D01*
X45750546Y-29056383D01*
X45679974Y-28924354D01*
X45585001Y-28808629D01*
X45556003Y-28784831D01*
X44362132Y-27590960D01*
X46868091Y-27590960D01*
X46989376Y-27813000D01*
X48133000Y-27813000D01*
X48133000Y-26670085D01*
X47910961Y-26548096D01*
X47776913Y-26588754D01*
X47522580Y-26708963D01*
X47296586Y-26876481D01*
X47107615Y-27084869D01*
X46962930Y-27326119D01*
X46868091Y-27590960D01*
X44362132Y-27590960D01*
X44200174Y-27429003D01*
X44176371Y-27399999D01*
X44060646Y-27305026D01*
X43928617Y-27234454D01*
X43785356Y-27190997D01*
X43673703Y-27180000D01*
X43673692Y-27180000D01*
X43636370Y-27176324D01*
X43599048Y-27180000D01*
X42224802Y-27180000D01*
X41203804Y-26159003D01*
X41180001Y-26129999D01*
X41064276Y-26035026D01*
X40932247Y-25964454D01*
X40788986Y-25920997D01*
X40692805Y-25911524D01*
X40706246Y-25883087D01*
X40746904Y-25749039D01*
X40624915Y-25527000D01*
X39482000Y-25527000D01*
X39482000Y-25547000D01*
X39228000Y-25547000D01*
X39228000Y-25527000D01*
X38085085Y-25527000D01*
X37963096Y-25749039D01*
X37966518Y-25760320D01*
X37955256Y-25752795D01*
X37766898Y-25674774D01*
X37566939Y-25635000D01*
X37363061Y-25635000D01*
X37163102Y-25674774D01*
X36974744Y-25752795D01*
X36805226Y-25866063D01*
X36661063Y-26010226D01*
X36547795Y-26179744D01*
X36469774Y-26368102D01*
X36430000Y-26568061D01*
X36430000Y-26771939D01*
X36469774Y-26971898D01*
X36547795Y-27160256D01*
X36661063Y-27329774D01*
X36805226Y-27473937D01*
X36974744Y-27587205D01*
X37163102Y-27665226D01*
X37363061Y-27705000D01*
X37566939Y-27705000D01*
X37766898Y-27665226D01*
X37955256Y-27587205D01*
X37964277Y-27581177D01*
X37940764Y-27658691D01*
X37913057Y-27940000D01*
X37940764Y-28221309D01*
X38022818Y-28491808D01*
X38077975Y-28594999D01*
X33012025Y-28594999D01*
X33067182Y-28491808D01*
X33149236Y-28221309D01*
X33176943Y-27940000D01*
X33149236Y-27658691D01*
X33067182Y-27388192D01*
X32933932Y-27138899D01*
X32754608Y-26920392D01*
X32536101Y-26741068D01*
X32398318Y-26667421D01*
X32590131Y-26552385D01*
X32798519Y-26363414D01*
X32966037Y-26137420D01*
X33086246Y-25883087D01*
X33126904Y-25749039D01*
X33004915Y-25527000D01*
X31862000Y-25527000D01*
X31862000Y-25547000D01*
X31608000Y-25547000D01*
X31608000Y-25527000D01*
X30465085Y-25527000D01*
X30343096Y-25749039D01*
X30383754Y-25883087D01*
X30503963Y-26137420D01*
X30671481Y-26363414D01*
X30879869Y-26552385D01*
X31071682Y-26667421D01*
X30933899Y-26741068D01*
X30715392Y-26920392D01*
X30536068Y-27138899D01*
X30402818Y-27388192D01*
X30320764Y-27658691D01*
X30293057Y-27940000D01*
X30293959Y-27949158D01*
X29970000Y-27625199D01*
X29970000Y-24167322D01*
X29973676Y-24129999D01*
X29970000Y-24092676D01*
X29970000Y-24092667D01*
X29959003Y-23981014D01*
X29915546Y-23837753D01*
X29844974Y-23705724D01*
X29750001Y-23589999D01*
X29721004Y-23566202D01*
X29340708Y-23185906D01*
X29354236Y-23141309D01*
X29381943Y-22860000D01*
X30293057Y-22860000D01*
X30320764Y-23141309D01*
X30402818Y-23411808D01*
X30536068Y-23661101D01*
X30715392Y-23879608D01*
X30933899Y-24058932D01*
X31071682Y-24132579D01*
X30879869Y-24247615D01*
X30671481Y-24436586D01*
X30503963Y-24662580D01*
X30383754Y-24916913D01*
X30343096Y-25050961D01*
X30465085Y-25273000D01*
X31608000Y-25273000D01*
X31608000Y-25253000D01*
X31862000Y-25253000D01*
X31862000Y-25273000D01*
X33004915Y-25273000D01*
X33126904Y-25050961D01*
X33086246Y-24916913D01*
X32966037Y-24662580D01*
X32798519Y-24436586D01*
X32590131Y-24247615D01*
X32398318Y-24132579D01*
X32536101Y-24058932D01*
X32754608Y-23879608D01*
X32933932Y-23661101D01*
X33067182Y-23411808D01*
X33149236Y-23141309D01*
X33176943Y-22860000D01*
X37913057Y-22860000D01*
X37940764Y-23141309D01*
X38022818Y-23411808D01*
X38156068Y-23661101D01*
X38335392Y-23879608D01*
X38553899Y-24058932D01*
X38691682Y-24132579D01*
X38499869Y-24247615D01*
X38291481Y-24436586D01*
X38123963Y-24662580D01*
X38003754Y-24916913D01*
X37963096Y-25050961D01*
X38085085Y-25273000D01*
X39228000Y-25273000D01*
X39228000Y-25253000D01*
X39482000Y-25253000D01*
X39482000Y-25273000D01*
X40624915Y-25273000D01*
X40746904Y-25050961D01*
X40706246Y-24916913D01*
X40586037Y-24662580D01*
X40418519Y-24436586D01*
X40210131Y-24247615D01*
X40018318Y-24132579D01*
X40156101Y-24058932D01*
X40374608Y-23879608D01*
X40553932Y-23661101D01*
X40687182Y-23411808D01*
X40769236Y-23141309D01*
X40796943Y-22860000D01*
X40769236Y-22578691D01*
X40687182Y-22308192D01*
X40553932Y-22058899D01*
X40374608Y-21840392D01*
X40156101Y-21661068D01*
X40018318Y-21587421D01*
X40210131Y-21472385D01*
X40418519Y-21283414D01*
X40586037Y-21057420D01*
X40706246Y-20803087D01*
X40746904Y-20669039D01*
X40624915Y-20447000D01*
X39482000Y-20447000D01*
X39482000Y-20467000D01*
X39228000Y-20467000D01*
X39228000Y-20447000D01*
X38085085Y-20447000D01*
X37963096Y-20669039D01*
X38003754Y-20803087D01*
X38123963Y-21057420D01*
X38291481Y-21283414D01*
X38499869Y-21472385D01*
X38691682Y-21587421D01*
X38553899Y-21661068D01*
X38335392Y-21840392D01*
X38156068Y-22058899D01*
X38022818Y-22308192D01*
X37940764Y-22578691D01*
X37913057Y-22860000D01*
X33176943Y-22860000D01*
X33149236Y-22578691D01*
X33067182Y-22308192D01*
X32933932Y-22058899D01*
X32754608Y-21840392D01*
X32536101Y-21661068D01*
X32398318Y-21587421D01*
X32590131Y-21472385D01*
X32798519Y-21283414D01*
X32966037Y-21057420D01*
X33086246Y-20803087D01*
X33126904Y-20669039D01*
X33004915Y-20447000D01*
X31862000Y-20447000D01*
X31862000Y-20467000D01*
X31608000Y-20467000D01*
X31608000Y-20447000D01*
X30465085Y-20447000D01*
X30343096Y-20669039D01*
X30383754Y-20803087D01*
X30503963Y-21057420D01*
X30671481Y-21283414D01*
X30879869Y-21472385D01*
X31071682Y-21587421D01*
X30933899Y-21661068D01*
X30715392Y-21840392D01*
X30536068Y-22058899D01*
X30402818Y-22308192D01*
X30320764Y-22578691D01*
X30293057Y-22860000D01*
X29381943Y-22860000D01*
X29354236Y-22578691D01*
X29272182Y-22308192D01*
X29138932Y-22058899D01*
X28959608Y-21840392D01*
X28741101Y-21661068D01*
X28608142Y-21590000D01*
X28741101Y-21518932D01*
X28959608Y-21339608D01*
X29138932Y-21121101D01*
X29272182Y-20871808D01*
X29354236Y-20601309D01*
X29381943Y-20320000D01*
X29354236Y-20038691D01*
X29272182Y-19768192D01*
X29138932Y-19518899D01*
X28959608Y-19300392D01*
X28741101Y-19121068D01*
X28608142Y-19050000D01*
X28741101Y-18978932D01*
X28959608Y-18799608D01*
X29138932Y-18581101D01*
X29272182Y-18331808D01*
X29354236Y-18061309D01*
X29381943Y-17780000D01*
X29354236Y-17498691D01*
X29284864Y-17270000D01*
X30390136Y-17270000D01*
X30320764Y-17498691D01*
X30293057Y-17780000D01*
X30320764Y-18061309D01*
X30402818Y-18331808D01*
X30536068Y-18581101D01*
X30715392Y-18799608D01*
X30933899Y-18978932D01*
X31071682Y-19052579D01*
X30879869Y-19167615D01*
X30671481Y-19356586D01*
X30503963Y-19582580D01*
X30383754Y-19836913D01*
X30343096Y-19970961D01*
X30465085Y-20193000D01*
X31608000Y-20193000D01*
X31608000Y-20173000D01*
X31862000Y-20173000D01*
X31862000Y-20193000D01*
X33004915Y-20193000D01*
X33126904Y-19970961D01*
X33086246Y-19836913D01*
X32966037Y-19582580D01*
X32798519Y-19356586D01*
X32590131Y-19167615D01*
X32398318Y-19052579D01*
X32536101Y-18978932D01*
X32754608Y-18799608D01*
X32933932Y-18581101D01*
X33067182Y-18331808D01*
X33149236Y-18061309D01*
X33176943Y-17780000D01*
X33149236Y-17498691D01*
X33079864Y-17270000D01*
X37770199Y-17270000D01*
X37954292Y-17454094D01*
X37940764Y-17498691D01*
X37913057Y-17780000D01*
X37940764Y-18061309D01*
X38022818Y-18331808D01*
X38156068Y-18581101D01*
X38335392Y-18799608D01*
X38553899Y-18978932D01*
X38691682Y-19052579D01*
X38499869Y-19167615D01*
X38291481Y-19356586D01*
X38123963Y-19582580D01*
X38003754Y-19836913D01*
X37963096Y-19970961D01*
X38085085Y-20193000D01*
X39228000Y-20193000D01*
X39228000Y-20173000D01*
X39482000Y-20173000D01*
X39482000Y-20193000D01*
X40624915Y-20193000D01*
X40746904Y-19970961D01*
X40706246Y-19836913D01*
X40586037Y-19582580D01*
X40418519Y-19356586D01*
X40210131Y-19167615D01*
X40018318Y-19052579D01*
X40156101Y-18978932D01*
X40374608Y-18799608D01*
X40553932Y-18581101D01*
X40687182Y-18331808D01*
X40769236Y-18061309D01*
X40796943Y-17780000D01*
X40769236Y-17498691D01*
X40687182Y-17228192D01*
X40553932Y-16978899D01*
X40374608Y-16760392D01*
X40156101Y-16581068D01*
X40023142Y-16510000D01*
X40156101Y-16438932D01*
X40374608Y-16259608D01*
X40469356Y-16144157D01*
X42616205Y-18291008D01*
X42639999Y-18320001D01*
X42668992Y-18343795D01*
X42668996Y-18343799D01*
X42739685Y-18401811D01*
X42755724Y-18414974D01*
X42887753Y-18485546D01*
X43031014Y-18529003D01*
X43142667Y-18540000D01*
X43142676Y-18540000D01*
X43179999Y-18543676D01*
X43217322Y-18540000D01*
X44442405Y-18540000D01*
X44479294Y-18609014D01*
X44664866Y-18835134D01*
X44890986Y-19020706D01*
X44945791Y-19050000D01*
X44890986Y-19079294D01*
X44664866Y-19264866D01*
X44479294Y-19490986D01*
X44341401Y-19748966D01*
X44256487Y-20028889D01*
X44227815Y-20320000D01*
X44256487Y-20611111D01*
X44341401Y-20891034D01*
X44479294Y-21149014D01*
X44664866Y-21375134D01*
X44890986Y-21560706D01*
X45148966Y-21698599D01*
X45428889Y-21783513D01*
X45647050Y-21805000D01*
X45792950Y-21805000D01*
X46011111Y-21783513D01*
X46291034Y-21698599D01*
X46549014Y-21560706D01*
X46775134Y-21375134D01*
X46960706Y-21149014D01*
X47098599Y-20891034D01*
X47183513Y-20611111D01*
X47212185Y-20320000D01*
X47183513Y-20028889D01*
X47098599Y-19748966D01*
X46960706Y-19490986D01*
X46775134Y-19264866D01*
X46549014Y-19079294D01*
X46494209Y-19050000D01*
X46549014Y-19020706D01*
X46775134Y-18835134D01*
X46960706Y-18609014D01*
X47098599Y-18351034D01*
X47183513Y-18071111D01*
X47212185Y-17780000D01*
X47183513Y-17488889D01*
X47098599Y-17208966D01*
X46960706Y-16950986D01*
X46775134Y-16724866D01*
X46549014Y-16539294D01*
X46494209Y-16510000D01*
X46549014Y-16480706D01*
X46775134Y-16295134D01*
X46960706Y-16069014D01*
X47098599Y-15811034D01*
X47183513Y-15531111D01*
X47212185Y-15240000D01*
X47183513Y-14948889D01*
X47098599Y-14668966D01*
X46960706Y-14410986D01*
X46775134Y-14184866D01*
X46745313Y-14160393D01*
X46814180Y-14139502D01*
X46924494Y-14080537D01*
X47021185Y-14001185D01*
X47100537Y-13904494D01*
X47159502Y-13794180D01*
X47195812Y-13674482D01*
X47208072Y-13550000D01*
X47208072Y-11850000D01*
X47195812Y-11725518D01*
X47159502Y-11605820D01*
X47100537Y-11495506D01*
X47021185Y-11398815D01*
X46934896Y-11328000D01*
X49116725Y-11328000D01*
X49123513Y-11328666D01*
X49123513Y-11328666D01*
G37*
X49123513Y-11328666D02*
X49124000Y-11333301D01*
X49124001Y-26802791D01*
X48997420Y-26708963D01*
X48743087Y-26588754D01*
X48609039Y-26548096D01*
X48387000Y-26670085D01*
X48387000Y-27813000D01*
X48407000Y-27813000D01*
X48407000Y-28067000D01*
X48387000Y-28067000D01*
X48387000Y-28087000D01*
X48133000Y-28087000D01*
X48133000Y-28067000D01*
X46989376Y-28067000D01*
X46868091Y-28289040D01*
X46962930Y-28553881D01*
X47107615Y-28795131D01*
X47296586Y-29003519D01*
X47522580Y-29171037D01*
X47591565Y-29203643D01*
X47580273Y-29208320D01*
X47345241Y-29365363D01*
X47145363Y-29565241D01*
X47041957Y-29720000D01*
X46263043Y-29720000D01*
X46159637Y-29565241D01*
X45959759Y-29365363D01*
X45799798Y-29258481D01*
X45794003Y-29199644D01*
X45750546Y-29056383D01*
X45679974Y-28924354D01*
X45585001Y-28808629D01*
X45556003Y-28784831D01*
X44362132Y-27590960D01*
X46868091Y-27590960D01*
X46989376Y-27813000D01*
X48133000Y-27813000D01*
X48133000Y-26670085D01*
X47910961Y-26548096D01*
X47776913Y-26588754D01*
X47522580Y-26708963D01*
X47296586Y-26876481D01*
X47107615Y-27084869D01*
X46962930Y-27326119D01*
X46868091Y-27590960D01*
X44362132Y-27590960D01*
X44200174Y-27429003D01*
X44176371Y-27399999D01*
X44060646Y-27305026D01*
X43928617Y-27234454D01*
X43785356Y-27190997D01*
X43673703Y-27180000D01*
X43673692Y-27180000D01*
X43636370Y-27176324D01*
X43599048Y-27180000D01*
X42224802Y-27180000D01*
X41203804Y-26159003D01*
X41180001Y-26129999D01*
X41064276Y-26035026D01*
X40932247Y-25964454D01*
X40788986Y-25920997D01*
X40692805Y-25911524D01*
X40706246Y-25883087D01*
X40746904Y-25749039D01*
X40624915Y-25527000D01*
X39482000Y-25527000D01*
X39482000Y-25547000D01*
X39228000Y-25547000D01*
X39228000Y-25527000D01*
X38085085Y-25527000D01*
X37963096Y-25749039D01*
X37966518Y-25760320D01*
X37955256Y-25752795D01*
X37766898Y-25674774D01*
X37566939Y-25635000D01*
X37363061Y-25635000D01*
X37163102Y-25674774D01*
X36974744Y-25752795D01*
X36805226Y-25866063D01*
X36661063Y-26010226D01*
X36547795Y-26179744D01*
X36469774Y-26368102D01*
X36430000Y-26568061D01*
X36430000Y-26771939D01*
X36469774Y-26971898D01*
X36547795Y-27160256D01*
X36661063Y-27329774D01*
X36805226Y-27473937D01*
X36974744Y-27587205D01*
X37163102Y-27665226D01*
X37363061Y-27705000D01*
X37566939Y-27705000D01*
X37766898Y-27665226D01*
X37955256Y-27587205D01*
X37964277Y-27581177D01*
X37940764Y-27658691D01*
X37913057Y-27940000D01*
X37940764Y-28221309D01*
X38022818Y-28491808D01*
X38077975Y-28594999D01*
X33012025Y-28594999D01*
X33067182Y-28491808D01*
X33149236Y-28221309D01*
X33176943Y-27940000D01*
X33149236Y-27658691D01*
X33067182Y-27388192D01*
X32933932Y-27138899D01*
X32754608Y-26920392D01*
X32536101Y-26741068D01*
X32398318Y-26667421D01*
X32590131Y-26552385D01*
X32798519Y-26363414D01*
X32966037Y-26137420D01*
X33086246Y-25883087D01*
X33126904Y-25749039D01*
X33004915Y-25527000D01*
X31862000Y-25527000D01*
X31862000Y-25547000D01*
X31608000Y-25547000D01*
X31608000Y-25527000D01*
X30465085Y-25527000D01*
X30343096Y-25749039D01*
X30383754Y-25883087D01*
X30503963Y-26137420D01*
X30671481Y-26363414D01*
X30879869Y-26552385D01*
X31071682Y-26667421D01*
X30933899Y-26741068D01*
X30715392Y-26920392D01*
X30536068Y-27138899D01*
X30402818Y-27388192D01*
X30320764Y-27658691D01*
X30293057Y-27940000D01*
X30293959Y-27949158D01*
X29970000Y-27625199D01*
X29970000Y-24167322D01*
X29973676Y-24129999D01*
X29970000Y-24092676D01*
X29970000Y-24092667D01*
X29959003Y-23981014D01*
X29915546Y-23837753D01*
X29844974Y-23705724D01*
X29750001Y-23589999D01*
X29721004Y-23566202D01*
X29340708Y-23185906D01*
X29354236Y-23141309D01*
X29381943Y-22860000D01*
X30293057Y-22860000D01*
X30320764Y-23141309D01*
X30402818Y-23411808D01*
X30536068Y-23661101D01*
X30715392Y-23879608D01*
X30933899Y-24058932D01*
X31071682Y-24132579D01*
X30879869Y-24247615D01*
X30671481Y-24436586D01*
X30503963Y-24662580D01*
X30383754Y-24916913D01*
X30343096Y-25050961D01*
X30465085Y-25273000D01*
X31608000Y-25273000D01*
X31608000Y-25253000D01*
X31862000Y-25253000D01*
X31862000Y-25273000D01*
X33004915Y-25273000D01*
X33126904Y-25050961D01*
X33086246Y-24916913D01*
X32966037Y-24662580D01*
X32798519Y-24436586D01*
X32590131Y-24247615D01*
X32398318Y-24132579D01*
X32536101Y-24058932D01*
X32754608Y-23879608D01*
X32933932Y-23661101D01*
X33067182Y-23411808D01*
X33149236Y-23141309D01*
X33176943Y-22860000D01*
X37913057Y-22860000D01*
X37940764Y-23141309D01*
X38022818Y-23411808D01*
X38156068Y-23661101D01*
X38335392Y-23879608D01*
X38553899Y-24058932D01*
X38691682Y-24132579D01*
X38499869Y-24247615D01*
X38291481Y-24436586D01*
X38123963Y-24662580D01*
X38003754Y-24916913D01*
X37963096Y-25050961D01*
X38085085Y-25273000D01*
X39228000Y-25273000D01*
X39228000Y-25253000D01*
X39482000Y-25253000D01*
X39482000Y-25273000D01*
X40624915Y-25273000D01*
X40746904Y-25050961D01*
X40706246Y-24916913D01*
X40586037Y-24662580D01*
X40418519Y-24436586D01*
X40210131Y-24247615D01*
X40018318Y-24132579D01*
X40156101Y-24058932D01*
X40374608Y-23879608D01*
X40553932Y-23661101D01*
X40687182Y-23411808D01*
X40769236Y-23141309D01*
X40796943Y-22860000D01*
X40769236Y-22578691D01*
X40687182Y-22308192D01*
X40553932Y-22058899D01*
X40374608Y-21840392D01*
X40156101Y-21661068D01*
X40018318Y-21587421D01*
X40210131Y-21472385D01*
X40418519Y-21283414D01*
X40586037Y-21057420D01*
X40706246Y-20803087D01*
X40746904Y-20669039D01*
X40624915Y-20447000D01*
X39482000Y-20447000D01*
X39482000Y-20467000D01*
X39228000Y-20467000D01*
X39228000Y-20447000D01*
X38085085Y-20447000D01*
X37963096Y-20669039D01*
X38003754Y-20803087D01*
X38123963Y-21057420D01*
X38291481Y-21283414D01*
X38499869Y-21472385D01*
X38691682Y-21587421D01*
X38553899Y-21661068D01*
X38335392Y-21840392D01*
X38156068Y-22058899D01*
X38022818Y-22308192D01*
X37940764Y-22578691D01*
X37913057Y-22860000D01*
X33176943Y-22860000D01*
X33149236Y-22578691D01*
X33067182Y-22308192D01*
X32933932Y-22058899D01*
X32754608Y-21840392D01*
X32536101Y-21661068D01*
X32398318Y-21587421D01*
X32590131Y-21472385D01*
X32798519Y-21283414D01*
X32966037Y-21057420D01*
X33086246Y-20803087D01*
X33126904Y-20669039D01*
X33004915Y-20447000D01*
X31862000Y-20447000D01*
X31862000Y-20467000D01*
X31608000Y-20467000D01*
X31608000Y-20447000D01*
X30465085Y-20447000D01*
X30343096Y-20669039D01*
X30383754Y-20803087D01*
X30503963Y-21057420D01*
X30671481Y-21283414D01*
X30879869Y-21472385D01*
X31071682Y-21587421D01*
X30933899Y-21661068D01*
X30715392Y-21840392D01*
X30536068Y-22058899D01*
X30402818Y-22308192D01*
X30320764Y-22578691D01*
X30293057Y-22860000D01*
X29381943Y-22860000D01*
X29354236Y-22578691D01*
X29272182Y-22308192D01*
X29138932Y-22058899D01*
X28959608Y-21840392D01*
X28741101Y-21661068D01*
X28608142Y-21590000D01*
X28741101Y-21518932D01*
X28959608Y-21339608D01*
X29138932Y-21121101D01*
X29272182Y-20871808D01*
X29354236Y-20601309D01*
X29381943Y-20320000D01*
X29354236Y-20038691D01*
X29272182Y-19768192D01*
X29138932Y-19518899D01*
X28959608Y-19300392D01*
X28741101Y-19121068D01*
X28608142Y-19050000D01*
X28741101Y-18978932D01*
X28959608Y-18799608D01*
X29138932Y-18581101D01*
X29272182Y-18331808D01*
X29354236Y-18061309D01*
X29381943Y-17780000D01*
X29354236Y-17498691D01*
X29284864Y-17270000D01*
X30390136Y-17270000D01*
X30320764Y-17498691D01*
X30293057Y-17780000D01*
X30320764Y-18061309D01*
X30402818Y-18331808D01*
X30536068Y-18581101D01*
X30715392Y-18799608D01*
X30933899Y-18978932D01*
X31071682Y-19052579D01*
X30879869Y-19167615D01*
X30671481Y-19356586D01*
X30503963Y-19582580D01*
X30383754Y-19836913D01*
X30343096Y-19970961D01*
X30465085Y-20193000D01*
X31608000Y-20193000D01*
X31608000Y-20173000D01*
X31862000Y-20173000D01*
X31862000Y-20193000D01*
X33004915Y-20193000D01*
X33126904Y-19970961D01*
X33086246Y-19836913D01*
X32966037Y-19582580D01*
X32798519Y-19356586D01*
X32590131Y-19167615D01*
X32398318Y-19052579D01*
X32536101Y-18978932D01*
X32754608Y-18799608D01*
X32933932Y-18581101D01*
X33067182Y-18331808D01*
X33149236Y-18061309D01*
X33176943Y-17780000D01*
X33149236Y-17498691D01*
X33079864Y-17270000D01*
X37770199Y-17270000D01*
X37954292Y-17454094D01*
X37940764Y-17498691D01*
X37913057Y-17780000D01*
X37940764Y-18061309D01*
X38022818Y-18331808D01*
X38156068Y-18581101D01*
X38335392Y-18799608D01*
X38553899Y-18978932D01*
X38691682Y-19052579D01*
X38499869Y-19167615D01*
X38291481Y-19356586D01*
X38123963Y-19582580D01*
X38003754Y-19836913D01*
X37963096Y-19970961D01*
X38085085Y-20193000D01*
X39228000Y-20193000D01*
X39228000Y-20173000D01*
X39482000Y-20173000D01*
X39482000Y-20193000D01*
X40624915Y-20193000D01*
X40746904Y-19970961D01*
X40706246Y-19836913D01*
X40586037Y-19582580D01*
X40418519Y-19356586D01*
X40210131Y-19167615D01*
X40018318Y-19052579D01*
X40156101Y-18978932D01*
X40374608Y-18799608D01*
X40553932Y-18581101D01*
X40687182Y-18331808D01*
X40769236Y-18061309D01*
X40796943Y-17780000D01*
X40769236Y-17498691D01*
X40687182Y-17228192D01*
X40553932Y-16978899D01*
X40374608Y-16760392D01*
X40156101Y-16581068D01*
X40023142Y-16510000D01*
X40156101Y-16438932D01*
X40374608Y-16259608D01*
X40469356Y-16144157D01*
X42616205Y-18291008D01*
X42639999Y-18320001D01*
X42668992Y-18343795D01*
X42668996Y-18343799D01*
X42739685Y-18401811D01*
X42755724Y-18414974D01*
X42887753Y-18485546D01*
X43031014Y-18529003D01*
X43142667Y-18540000D01*
X43142676Y-18540000D01*
X43179999Y-18543676D01*
X43217322Y-18540000D01*
X44442405Y-18540000D01*
X44479294Y-18609014D01*
X44664866Y-18835134D01*
X44890986Y-19020706D01*
X44945791Y-19050000D01*
X44890986Y-19079294D01*
X44664866Y-19264866D01*
X44479294Y-19490986D01*
X44341401Y-19748966D01*
X44256487Y-20028889D01*
X44227815Y-20320000D01*
X44256487Y-20611111D01*
X44341401Y-20891034D01*
X44479294Y-21149014D01*
X44664866Y-21375134D01*
X44890986Y-21560706D01*
X45148966Y-21698599D01*
X45428889Y-21783513D01*
X45647050Y-21805000D01*
X45792950Y-21805000D01*
X46011111Y-21783513D01*
X46291034Y-21698599D01*
X46549014Y-21560706D01*
X46775134Y-21375134D01*
X46960706Y-21149014D01*
X47098599Y-20891034D01*
X47183513Y-20611111D01*
X47212185Y-20320000D01*
X47183513Y-20028889D01*
X47098599Y-19748966D01*
X46960706Y-19490986D01*
X46775134Y-19264866D01*
X46549014Y-19079294D01*
X46494209Y-19050000D01*
X46549014Y-19020706D01*
X46775134Y-18835134D01*
X46960706Y-18609014D01*
X47098599Y-18351034D01*
X47183513Y-18071111D01*
X47212185Y-17780000D01*
X47183513Y-17488889D01*
X47098599Y-17208966D01*
X46960706Y-16950986D01*
X46775134Y-16724866D01*
X46549014Y-16539294D01*
X46494209Y-16510000D01*
X46549014Y-16480706D01*
X46775134Y-16295134D01*
X46960706Y-16069014D01*
X47098599Y-15811034D01*
X47183513Y-15531111D01*
X47212185Y-15240000D01*
X47183513Y-14948889D01*
X47098599Y-14668966D01*
X46960706Y-14410986D01*
X46775134Y-14184866D01*
X46745313Y-14160393D01*
X46814180Y-14139502D01*
X46924494Y-14080537D01*
X47021185Y-14001185D01*
X47100537Y-13904494D01*
X47159502Y-13794180D01*
X47195812Y-13674482D01*
X47208072Y-13550000D01*
X47208072Y-11850000D01*
X47195812Y-11725518D01*
X47159502Y-11605820D01*
X47100537Y-11495506D01*
X47021185Y-11398815D01*
X46934896Y-11328000D01*
X49116725Y-11328000D01*
X49123513Y-11328666D01*
G36*
X19165506Y-11369463D02*
G01*
X19068815Y-11448815D01*
X18989463Y-11545506D01*
X18930498Y-11655820D01*
X18894188Y-11775518D01*
X18881928Y-11900000D01*
X18881928Y-13063270D01*
X16729765Y-15215433D01*
X16703513Y-14948889D01*
X16618599Y-14668966D01*
X16480706Y-14410986D01*
X16295134Y-14184866D01*
X16265313Y-14160393D01*
X16334180Y-14139502D01*
X16444494Y-14080537D01*
X16541185Y-14001185D01*
X16620537Y-13904494D01*
X16679502Y-13794180D01*
X16715812Y-13674482D01*
X16728072Y-13550000D01*
X16725000Y-12985750D01*
X16566250Y-12827000D01*
X15367000Y-12827000D01*
X15367000Y-12847000D01*
X15113000Y-12847000D01*
X15113000Y-12827000D01*
X15093000Y-12827000D01*
X15093000Y-12573000D01*
X15113000Y-12573000D01*
X15113000Y-12553000D01*
X15367000Y-12553000D01*
X15367000Y-12573000D01*
X16566250Y-12573000D01*
X16725000Y-12414250D01*
X16728072Y-11850000D01*
X16715812Y-11725518D01*
X16679502Y-11605820D01*
X16620537Y-11495506D01*
X16541185Y-11398815D01*
X16454896Y-11328000D01*
X19243077Y-11328000D01*
X19165506Y-11369463D01*
X19165506Y-11369463D01*
G37*
X19165506Y-11369463D02*
X19068815Y-11448815D01*
X18989463Y-11545506D01*
X18930498Y-11655820D01*
X18894188Y-11775518D01*
X18881928Y-11900000D01*
X18881928Y-13063270D01*
X16729765Y-15215433D01*
X16703513Y-14948889D01*
X16618599Y-14668966D01*
X16480706Y-14410986D01*
X16295134Y-14184866D01*
X16265313Y-14160393D01*
X16334180Y-14139502D01*
X16444494Y-14080537D01*
X16541185Y-14001185D01*
X16620537Y-13904494D01*
X16679502Y-13794180D01*
X16715812Y-13674482D01*
X16728072Y-13550000D01*
X16725000Y-12985750D01*
X16566250Y-12827000D01*
X15367000Y-12827000D01*
X15367000Y-12847000D01*
X15113000Y-12847000D01*
X15113000Y-12827000D01*
X15093000Y-12827000D01*
X15093000Y-12573000D01*
X15113000Y-12573000D01*
X15113000Y-12553000D01*
X15367000Y-12553000D01*
X15367000Y-12573000D01*
X16566250Y-12573000D01*
X16725000Y-12414250D01*
X16728072Y-11850000D01*
X16715812Y-11725518D01*
X16679502Y-11605820D01*
X16620537Y-11495506D01*
X16541185Y-11398815D01*
X16454896Y-11328000D01*
X19243077Y-11328000D01*
X19165506Y-11369463D01*
G36*
X44418815Y-11398815D02*
G01*
X44339463Y-11495506D01*
X44280498Y-11605820D01*
X44244188Y-11725518D01*
X44231928Y-11850000D01*
X44231928Y-13550000D01*
X44244188Y-13674482D01*
X44280498Y-13794180D01*
X44339463Y-13904494D01*
X44418815Y-14001185D01*
X44515506Y-14080537D01*
X44625820Y-14139502D01*
X44694687Y-14160393D01*
X44664866Y-14184866D01*
X44479294Y-14410986D01*
X44442405Y-14480000D01*
X42224802Y-14480000D01*
X41203804Y-13459003D01*
X41180001Y-13429999D01*
X41064276Y-13335026D01*
X40932247Y-13264454D01*
X40788986Y-13220997D01*
X40692805Y-13211524D01*
X40706246Y-13183087D01*
X40746904Y-13049039D01*
X40624915Y-12827000D01*
X39482000Y-12827000D01*
X39482000Y-12847000D01*
X39228000Y-12847000D01*
X39228000Y-12827000D01*
X39208000Y-12827000D01*
X39208000Y-12573000D01*
X39228000Y-12573000D01*
X39228000Y-12553000D01*
X39482000Y-12553000D01*
X39482000Y-12573000D01*
X40624915Y-12573000D01*
X40746904Y-12350961D01*
X40706246Y-12216913D01*
X40586037Y-11962580D01*
X40418519Y-11736586D01*
X40210131Y-11547615D01*
X39968881Y-11402930D01*
X39759637Y-11328000D01*
X44505104Y-11328000D01*
X44418815Y-11398815D01*
X44418815Y-11398815D01*
G37*
X44418815Y-11398815D02*
X44339463Y-11495506D01*
X44280498Y-11605820D01*
X44244188Y-11725518D01*
X44231928Y-11850000D01*
X44231928Y-13550000D01*
X44244188Y-13674482D01*
X44280498Y-13794180D01*
X44339463Y-13904494D01*
X44418815Y-14001185D01*
X44515506Y-14080537D01*
X44625820Y-14139502D01*
X44694687Y-14160393D01*
X44664866Y-14184866D01*
X44479294Y-14410986D01*
X44442405Y-14480000D01*
X42224802Y-14480000D01*
X41203804Y-13459003D01*
X41180001Y-13429999D01*
X41064276Y-13335026D01*
X40932247Y-13264454D01*
X40788986Y-13220997D01*
X40692805Y-13211524D01*
X40706246Y-13183087D01*
X40746904Y-13049039D01*
X40624915Y-12827000D01*
X39482000Y-12827000D01*
X39482000Y-12847000D01*
X39228000Y-12847000D01*
X39228000Y-12827000D01*
X39208000Y-12827000D01*
X39208000Y-12573000D01*
X39228000Y-12573000D01*
X39228000Y-12553000D01*
X39482000Y-12553000D01*
X39482000Y-12573000D01*
X40624915Y-12573000D01*
X40746904Y-12350961D01*
X40706246Y-12216913D01*
X40586037Y-11962580D01*
X40418519Y-11736586D01*
X40210131Y-11547615D01*
X39968881Y-11402930D01*
X39759637Y-11328000D01*
X44505104Y-11328000D01*
X44418815Y-11398815D01*
G36*
X38741119Y-11402930D02*
G01*
X38499869Y-11547615D01*
X38291481Y-11736586D01*
X38152625Y-11923914D01*
X38124774Y-11896063D01*
X37955256Y-11782795D01*
X37766898Y-11704774D01*
X37566939Y-11665000D01*
X37363061Y-11665000D01*
X37163102Y-11704774D01*
X36974744Y-11782795D01*
X36805226Y-11896063D01*
X36761289Y-11940000D01*
X33173072Y-11940000D01*
X33173072Y-11900000D01*
X33160812Y-11775518D01*
X33124502Y-11655820D01*
X33065537Y-11545506D01*
X32986185Y-11448815D01*
X32889494Y-11369463D01*
X32811923Y-11328000D01*
X38950363Y-11328000D01*
X38741119Y-11402930D01*
X38741119Y-11402930D01*
G37*
X38741119Y-11402930D02*
X38499869Y-11547615D01*
X38291481Y-11736586D01*
X38152625Y-11923914D01*
X38124774Y-11896063D01*
X37955256Y-11782795D01*
X37766898Y-11704774D01*
X37566939Y-11665000D01*
X37363061Y-11665000D01*
X37163102Y-11704774D01*
X36974744Y-11782795D01*
X36805226Y-11896063D01*
X36761289Y-11940000D01*
X33173072Y-11940000D01*
X33173072Y-11900000D01*
X33160812Y-11775518D01*
X33124502Y-11655820D01*
X33065537Y-11545506D01*
X32986185Y-11448815D01*
X32889494Y-11369463D01*
X32811923Y-11328000D01*
X38950363Y-11328000D01*
X38741119Y-11402930D01*
M02*
