G04 #@! TF.GenerationSoftware,KiCad,Pcbnew,(5.1.2-1)-1*
G04 #@! TF.CreationDate,2023-07-30T19:19:47+02:00*
G04 #@! TF.ProjectId,nanoLink,6e616e6f-4c69-46e6-9b2e-6b696361645f,rev?*
G04 #@! TF.SameCoordinates,Original*
G04 #@! TF.FileFunction,Legend,Bot*
G04 #@! TF.FilePolarity,Positive*
%FSLAX46Y46*%
G04 Gerber Fmt 4.6, Leading zero omitted, Abs format (unit mm)*
G04 Created by KiCad (PCBNEW (5.1.2-1)-1) date 2023-07-30 19:19:47*
%MOMM*%
%LPD*%
G04 APERTURE LIST*
%ADD10C,0.150000*%
%ADD11C,0.250000*%
%ADD12C,0.300000*%
%ADD13C,0.010000*%
%ADD14C,0.127000*%
%ADD15O,1.702000X1.702000*%
%ADD16C,1.702000*%
%ADD17R,1.702000X1.702000*%
%ADD18O,1.802000X1.802000*%
%ADD19R,1.802000X1.802000*%
G04 APERTURE END LIST*
D10*
X36224642Y-31399904D02*
X35377976Y-31399904D01*
X36103690Y-31399904D02*
X36164166Y-31352285D01*
X36224642Y-31257047D01*
X36224642Y-31114190D01*
X36164166Y-31018952D01*
X36043214Y-30971333D01*
X35377976Y-30971333D01*
X35377976Y-30066571D02*
X36043214Y-30066571D01*
X36164166Y-30114190D01*
X36224642Y-30209428D01*
X36224642Y-30399904D01*
X36164166Y-30495142D01*
X35438452Y-30066571D02*
X35377976Y-30161809D01*
X35377976Y-30399904D01*
X35438452Y-30495142D01*
X35559404Y-30542761D01*
X35680357Y-30542761D01*
X35801309Y-30495142D01*
X35861785Y-30399904D01*
X35861785Y-30161809D01*
X35922261Y-30066571D01*
X36224642Y-29590380D02*
X35377976Y-29590380D01*
X36103690Y-29590380D02*
X36164166Y-29542761D01*
X36224642Y-29447523D01*
X36224642Y-29304666D01*
X36164166Y-29209428D01*
X36043214Y-29161809D01*
X35377976Y-29161809D01*
X35377976Y-28542761D02*
X35438452Y-28638000D01*
X35498928Y-28685619D01*
X35619880Y-28733238D01*
X35982738Y-28733238D01*
X36103690Y-28685619D01*
X36164166Y-28638000D01*
X36224642Y-28542761D01*
X36224642Y-28399904D01*
X36164166Y-28304666D01*
X36103690Y-28257047D01*
X35982738Y-28209428D01*
X35619880Y-28209428D01*
X35498928Y-28257047D01*
X35438452Y-28304666D01*
X35377976Y-28399904D01*
X35377976Y-28542761D01*
X35377976Y-27304666D02*
X35377976Y-27780857D01*
X36647976Y-27780857D01*
X35377976Y-26971333D02*
X36224642Y-26971333D01*
X36647976Y-26971333D02*
X36587500Y-27018952D01*
X36527023Y-26971333D01*
X36587500Y-26923714D01*
X36647976Y-26971333D01*
X36527023Y-26971333D01*
X36224642Y-26495142D02*
X35377976Y-26495142D01*
X36103690Y-26495142D02*
X36164166Y-26447523D01*
X36224642Y-26352285D01*
X36224642Y-26209428D01*
X36164166Y-26114190D01*
X36043214Y-26066571D01*
X35377976Y-26066571D01*
X35377976Y-25590380D02*
X36647976Y-25590380D01*
X35861785Y-25495142D02*
X35377976Y-25209428D01*
X36224642Y-25209428D02*
X35740833Y-25590380D01*
X35377976Y-24018952D02*
X36224642Y-24018952D01*
X36647976Y-24018952D02*
X36587500Y-24066571D01*
X36527023Y-24018952D01*
X36587500Y-23971333D01*
X36647976Y-24018952D01*
X36527023Y-24018952D01*
X36224642Y-23542761D02*
X35377976Y-23542761D01*
X36103690Y-23542761D02*
X36164166Y-23495142D01*
X36224642Y-23399904D01*
X36224642Y-23257047D01*
X36164166Y-23161809D01*
X36043214Y-23114190D01*
X35377976Y-23114190D01*
X36224642Y-22780857D02*
X36224642Y-22399904D01*
X36647976Y-22638000D02*
X35559404Y-22638000D01*
X35438452Y-22590380D01*
X35377976Y-22495142D01*
X35377976Y-22399904D01*
X35438452Y-21685619D02*
X35377976Y-21780857D01*
X35377976Y-21971333D01*
X35438452Y-22066571D01*
X35559404Y-22114190D01*
X36043214Y-22114190D01*
X36164166Y-22066571D01*
X36224642Y-21971333D01*
X36224642Y-21780857D01*
X36164166Y-21685619D01*
X36043214Y-21638000D01*
X35922261Y-21638000D01*
X35801309Y-22114190D01*
X35377976Y-21209428D02*
X36224642Y-21209428D01*
X35982738Y-21209428D02*
X36103690Y-21161809D01*
X36164166Y-21114190D01*
X36224642Y-21018952D01*
X36224642Y-20923714D01*
X36224642Y-20733238D02*
X36224642Y-20352285D01*
X35377976Y-20590380D02*
X36466547Y-20590380D01*
X36587500Y-20542761D01*
X36647976Y-20447523D01*
X36647976Y-20352285D01*
X35377976Y-19590380D02*
X36043214Y-19590380D01*
X36164166Y-19638000D01*
X36224642Y-19733238D01*
X36224642Y-19923714D01*
X36164166Y-20018952D01*
X35438452Y-19590380D02*
X35377976Y-19685619D01*
X35377976Y-19923714D01*
X35438452Y-20018952D01*
X35559404Y-20066571D01*
X35680357Y-20066571D01*
X35801309Y-20018952D01*
X35861785Y-19923714D01*
X35861785Y-19685619D01*
X35922261Y-19590380D01*
X35438452Y-18685619D02*
X35377976Y-18780857D01*
X35377976Y-18971333D01*
X35438452Y-19066571D01*
X35498928Y-19114190D01*
X35619880Y-19161809D01*
X35982738Y-19161809D01*
X36103690Y-19114190D01*
X36164166Y-19066571D01*
X36224642Y-18971333D01*
X36224642Y-18780857D01*
X36164166Y-18685619D01*
X35438452Y-17876095D02*
X35377976Y-17971333D01*
X35377976Y-18161809D01*
X35438452Y-18257047D01*
X35559404Y-18304666D01*
X36043214Y-18304666D01*
X36164166Y-18257047D01*
X36224642Y-18161809D01*
X36224642Y-17971333D01*
X36164166Y-17876095D01*
X36043214Y-17828476D01*
X35922261Y-17828476D01*
X35801309Y-18304666D01*
X34169642Y-28971333D02*
X33322976Y-28733238D01*
X34169642Y-28495142D01*
X33322976Y-27590380D02*
X33322976Y-28161809D01*
X33322976Y-27876095D02*
X34592976Y-27876095D01*
X34411547Y-27971333D01*
X34290595Y-28066571D01*
X34230119Y-28161809D01*
X34472023Y-26447523D02*
X34532500Y-26399904D01*
X34592976Y-26304666D01*
X34592976Y-26066571D01*
X34532500Y-25971333D01*
X34472023Y-25923714D01*
X34351071Y-25876095D01*
X34230119Y-25876095D01*
X34048690Y-25923714D01*
X33322976Y-26495142D01*
X33322976Y-25876095D01*
X34592976Y-25257047D02*
X34592976Y-25161809D01*
X34532500Y-25066571D01*
X34472023Y-25018952D01*
X34351071Y-24971333D01*
X34109166Y-24923714D01*
X33806785Y-24923714D01*
X33564880Y-24971333D01*
X33443928Y-25018952D01*
X33383452Y-25066571D01*
X33322976Y-25161809D01*
X33322976Y-25257047D01*
X33383452Y-25352285D01*
X33443928Y-25399904D01*
X33564880Y-25447523D01*
X33806785Y-25495142D01*
X34109166Y-25495142D01*
X34351071Y-25447523D01*
X34472023Y-25399904D01*
X34532500Y-25352285D01*
X34592976Y-25257047D01*
X34472023Y-24542761D02*
X34532500Y-24495142D01*
X34592976Y-24399904D01*
X34592976Y-24161809D01*
X34532500Y-24066571D01*
X34472023Y-24018952D01*
X34351071Y-23971333D01*
X34230119Y-23971333D01*
X34048690Y-24018952D01*
X33322976Y-24590380D01*
X33322976Y-23971333D01*
X34592976Y-23638000D02*
X34592976Y-23018952D01*
X34109166Y-23352285D01*
X34109166Y-23209428D01*
X34048690Y-23114190D01*
X33988214Y-23066571D01*
X33867261Y-23018952D01*
X33564880Y-23018952D01*
X33443928Y-23066571D01*
X33383452Y-23114190D01*
X33322976Y-23209428D01*
X33322976Y-23495142D01*
X33383452Y-23590380D01*
X33443928Y-23638000D01*
X33867261Y-22447523D02*
X33806785Y-22495142D01*
X33746309Y-22447523D01*
X33806785Y-22399904D01*
X33867261Y-22447523D01*
X33746309Y-22447523D01*
X34592976Y-21638000D02*
X34592976Y-21542761D01*
X34532500Y-21447523D01*
X34472023Y-21399904D01*
X34351071Y-21352285D01*
X34109166Y-21304666D01*
X33806785Y-21304666D01*
X33564880Y-21352285D01*
X33443928Y-21399904D01*
X33383452Y-21447523D01*
X33322976Y-21542761D01*
X33322976Y-21638000D01*
X33383452Y-21733238D01*
X33443928Y-21780857D01*
X33564880Y-21828476D01*
X33806785Y-21876095D01*
X34109166Y-21876095D01*
X34351071Y-21828476D01*
X34472023Y-21780857D01*
X34532500Y-21733238D01*
X34592976Y-21638000D01*
X34592976Y-20399904D02*
X34592976Y-20876095D01*
X33988214Y-20923714D01*
X34048690Y-20876095D01*
X34109166Y-20780857D01*
X34109166Y-20542761D01*
X34048690Y-20447523D01*
X33988214Y-20399904D01*
X33867261Y-20352285D01*
X33564880Y-20352285D01*
X33443928Y-20399904D01*
X33383452Y-20447523D01*
X33322976Y-20542761D01*
X33322976Y-20780857D01*
X33383452Y-20876095D01*
X33443928Y-20923714D01*
D11*
X23114000Y-26670000D02*
X21844000Y-28575000D01*
X23114000Y-26670000D02*
X21844000Y-24765000D01*
X24384000Y-26670000D02*
X23114000Y-26670000D01*
X25654000Y-26670000D02*
G75*
G03X25654000Y-26670000I-635000J0D01*
G01*
X24384000Y-24765000D02*
X24384000Y-28575000D01*
X24384000Y-24765000D02*
G75*
G02X24384000Y-28575000I0J-1905000D01*
G01*
D12*
X49264000Y-19938571D02*
X49335428Y-20081428D01*
X49335428Y-20295714D01*
X49264000Y-20510000D01*
X49121142Y-20652857D01*
X48978285Y-20724285D01*
X48692571Y-20795714D01*
X48478285Y-20795714D01*
X48192571Y-20724285D01*
X48049714Y-20652857D01*
X47906857Y-20510000D01*
X47835428Y-20295714D01*
X47835428Y-20152857D01*
X47906857Y-19938571D01*
X47978285Y-19867142D01*
X48478285Y-19867142D01*
X48478285Y-20152857D01*
X47978285Y-17224285D02*
X47906857Y-17295714D01*
X47835428Y-17510000D01*
X47835428Y-17652857D01*
X47906857Y-17867142D01*
X48049714Y-18010000D01*
X48192571Y-18081428D01*
X48478285Y-18152857D01*
X48692571Y-18152857D01*
X48978285Y-18081428D01*
X49121142Y-18010000D01*
X49264000Y-17867142D01*
X49335428Y-17652857D01*
X49335428Y-17510000D01*
X49264000Y-17295714D01*
X49192571Y-17224285D01*
X47835428Y-15438571D02*
X49335428Y-15438571D01*
X49335428Y-15081428D01*
X49264000Y-14867142D01*
X49121142Y-14724285D01*
X48978285Y-14652857D01*
X48692571Y-14581428D01*
X48478285Y-14581428D01*
X48192571Y-14652857D01*
X48049714Y-14724285D01*
X47906857Y-14867142D01*
X47835428Y-15081428D01*
X47835428Y-15438571D01*
X47835428Y-12938571D02*
X48835428Y-12152857D01*
X48835428Y-12938571D02*
X47835428Y-12152857D01*
D13*
G36*
X48848118Y-23419348D02*
G01*
X48757452Y-23226934D01*
X48619458Y-22953676D01*
X48536331Y-22794503D01*
X48175333Y-22110447D01*
X47498000Y-22064755D01*
X47203304Y-22046549D01*
X46777574Y-22022498D01*
X46258928Y-21994641D01*
X45685482Y-21965019D01*
X45095352Y-21935672D01*
X45000333Y-21931062D01*
X44386267Y-21901078D01*
X43759332Y-21869941D01*
X43164277Y-21839910D01*
X42645849Y-21813245D01*
X42248798Y-21792206D01*
X42227500Y-21791045D01*
X41275000Y-21739031D01*
X41275000Y-23026778D01*
X41276219Y-23521014D01*
X41282364Y-23874239D01*
X41297163Y-24114768D01*
X41324345Y-24270919D01*
X41367638Y-24371009D01*
X41430771Y-24443354D01*
X41465500Y-24473446D01*
X41656000Y-24632367D01*
X41474558Y-24635184D01*
X41357609Y-24655357D01*
X41277475Y-24729029D01*
X41227468Y-24882334D01*
X41200898Y-25141408D01*
X41191074Y-25532385D01*
X41190333Y-25745592D01*
X41193434Y-26131590D01*
X41206274Y-26378365D01*
X41234162Y-26515966D01*
X41282405Y-26574445D01*
X41338500Y-26584460D01*
X41523254Y-26575950D01*
X41832305Y-26554264D01*
X42221478Y-26523266D01*
X42646596Y-26486817D01*
X43063482Y-26448778D01*
X43427959Y-26413012D01*
X43695852Y-26383380D01*
X43793833Y-26369821D01*
X43830096Y-26363738D01*
X43830096Y-25992667D01*
X43705193Y-25941943D01*
X43480173Y-25804065D01*
X43183046Y-25600477D01*
X42841819Y-25352622D01*
X42484501Y-25081945D01*
X42139100Y-24809888D01*
X41833625Y-24557895D01*
X41596084Y-24347410D01*
X41454485Y-24199875D01*
X41427647Y-24153325D01*
X41419417Y-24018696D01*
X41417530Y-23756823D01*
X41421939Y-23409676D01*
X41428817Y-23135998D01*
X41455635Y-22246741D01*
X42275484Y-23043460D01*
X42621704Y-23376456D01*
X42965436Y-23701069D01*
X43267872Y-23981005D01*
X43490202Y-24179970D01*
X43497500Y-24186264D01*
X43899666Y-24532349D01*
X43899666Y-25262508D01*
X43892214Y-25590314D01*
X43872307Y-25841913D01*
X43843623Y-25978718D01*
X43830096Y-25992667D01*
X43830096Y-26363738D01*
X44069000Y-26323661D01*
X44069763Y-25374997D01*
X44070526Y-24426334D01*
X43801158Y-24204928D01*
X43531789Y-23983522D01*
X44075561Y-23932442D01*
X44313512Y-23910722D01*
X44689224Y-23877201D01*
X45171745Y-23834607D01*
X45730129Y-23785663D01*
X46333424Y-23733095D01*
X46736000Y-23698186D01*
X47315090Y-23647450D01*
X47835515Y-23600663D01*
X48274407Y-23559978D01*
X48608898Y-23527549D01*
X48816121Y-23505529D01*
X48874998Y-23496785D01*
X48848118Y-23419348D01*
X48848118Y-23419348D01*
G37*
X48848118Y-23419348D02*
X48757452Y-23226934D01*
X48619458Y-22953676D01*
X48536331Y-22794503D01*
X48175333Y-22110447D01*
X47498000Y-22064755D01*
X47203304Y-22046549D01*
X46777574Y-22022498D01*
X46258928Y-21994641D01*
X45685482Y-21965019D01*
X45095352Y-21935672D01*
X45000333Y-21931062D01*
X44386267Y-21901078D01*
X43759332Y-21869941D01*
X43164277Y-21839910D01*
X42645849Y-21813245D01*
X42248798Y-21792206D01*
X42227500Y-21791045D01*
X41275000Y-21739031D01*
X41275000Y-23026778D01*
X41276219Y-23521014D01*
X41282364Y-23874239D01*
X41297163Y-24114768D01*
X41324345Y-24270919D01*
X41367638Y-24371009D01*
X41430771Y-24443354D01*
X41465500Y-24473446D01*
X41656000Y-24632367D01*
X41474558Y-24635184D01*
X41357609Y-24655357D01*
X41277475Y-24729029D01*
X41227468Y-24882334D01*
X41200898Y-25141408D01*
X41191074Y-25532385D01*
X41190333Y-25745592D01*
X41193434Y-26131590D01*
X41206274Y-26378365D01*
X41234162Y-26515966D01*
X41282405Y-26574445D01*
X41338500Y-26584460D01*
X41523254Y-26575950D01*
X41832305Y-26554264D01*
X42221478Y-26523266D01*
X42646596Y-26486817D01*
X43063482Y-26448778D01*
X43427959Y-26413012D01*
X43695852Y-26383380D01*
X43793833Y-26369821D01*
X43830096Y-26363738D01*
X43830096Y-25992667D01*
X43705193Y-25941943D01*
X43480173Y-25804065D01*
X43183046Y-25600477D01*
X42841819Y-25352622D01*
X42484501Y-25081945D01*
X42139100Y-24809888D01*
X41833625Y-24557895D01*
X41596084Y-24347410D01*
X41454485Y-24199875D01*
X41427647Y-24153325D01*
X41419417Y-24018696D01*
X41417530Y-23756823D01*
X41421939Y-23409676D01*
X41428817Y-23135998D01*
X41455635Y-22246741D01*
X42275484Y-23043460D01*
X42621704Y-23376456D01*
X42965436Y-23701069D01*
X43267872Y-23981005D01*
X43490202Y-24179970D01*
X43497500Y-24186264D01*
X43899666Y-24532349D01*
X43899666Y-25262508D01*
X43892214Y-25590314D01*
X43872307Y-25841913D01*
X43843623Y-25978718D01*
X43830096Y-25992667D01*
X43830096Y-26363738D01*
X44069000Y-26323661D01*
X44069763Y-25374997D01*
X44070526Y-24426334D01*
X43801158Y-24204928D01*
X43531789Y-23983522D01*
X44075561Y-23932442D01*
X44313512Y-23910722D01*
X44689224Y-23877201D01*
X45171745Y-23834607D01*
X45730129Y-23785663D01*
X46333424Y-23733095D01*
X46736000Y-23698186D01*
X47315090Y-23647450D01*
X47835515Y-23600663D01*
X48274407Y-23559978D01*
X48608898Y-23527549D01*
X48816121Y-23505529D01*
X48874998Y-23496785D01*
X48848118Y-23419348D01*
D10*
X48426666Y-26487380D02*
X48760000Y-26011190D01*
X48998095Y-26487380D02*
X48998095Y-25487380D01*
X48617142Y-25487380D01*
X48521904Y-25535000D01*
X48474285Y-25582619D01*
X48426666Y-25677857D01*
X48426666Y-25820714D01*
X48474285Y-25915952D01*
X48521904Y-25963571D01*
X48617142Y-26011190D01*
X48998095Y-26011190D01*
X47474285Y-26487380D02*
X48045714Y-26487380D01*
X47760000Y-26487380D02*
X47760000Y-25487380D01*
X47855238Y-25630238D01*
X47950476Y-25725476D01*
X48045714Y-25773095D01*
X36306904Y-12262380D02*
X36306904Y-13071904D01*
X36259285Y-13167142D01*
X36211666Y-13214761D01*
X36116428Y-13262380D01*
X35925952Y-13262380D01*
X35830714Y-13214761D01*
X35783095Y-13167142D01*
X35735476Y-13071904D01*
X35735476Y-12262380D01*
X35306904Y-12357619D02*
X35259285Y-12310000D01*
X35164047Y-12262380D01*
X34925952Y-12262380D01*
X34830714Y-12310000D01*
X34783095Y-12357619D01*
X34735476Y-12452857D01*
X34735476Y-12548095D01*
X34783095Y-12690952D01*
X35354523Y-13262380D01*
X34735476Y-13262380D01*
X24891904Y-12152380D02*
X24891904Y-12961904D01*
X24844285Y-13057142D01*
X24796666Y-13104761D01*
X24701428Y-13152380D01*
X24510952Y-13152380D01*
X24415714Y-13104761D01*
X24368095Y-13057142D01*
X24320476Y-12961904D01*
X24320476Y-12152380D01*
X23320476Y-13152380D02*
X23891904Y-13152380D01*
X23606190Y-13152380D02*
X23606190Y-12152380D01*
X23701428Y-12295238D01*
X23796666Y-12390476D01*
X23891904Y-12438095D01*
D14*
X43948333Y-32035714D02*
X43986428Y-32073809D01*
X44100714Y-32111904D01*
X44176904Y-32111904D01*
X44291190Y-32073809D01*
X44367380Y-31997619D01*
X44405476Y-31921428D01*
X44443571Y-31769047D01*
X44443571Y-31654761D01*
X44405476Y-31502380D01*
X44367380Y-31426190D01*
X44291190Y-31350000D01*
X44176904Y-31311904D01*
X44100714Y-31311904D01*
X43986428Y-31350000D01*
X43948333Y-31388095D01*
X43186428Y-32111904D02*
X43643571Y-32111904D01*
X43415000Y-32111904D02*
X43415000Y-31311904D01*
X43491190Y-31426190D01*
X43567380Y-31502380D01*
X43643571Y-31540476D01*
D10*
X43513333Y-12062380D02*
X43513333Y-12776666D01*
X43560952Y-12919523D01*
X43656190Y-13014761D01*
X43799047Y-13062380D01*
X43894285Y-13062380D01*
X43084761Y-12157619D02*
X43037142Y-12110000D01*
X42941904Y-12062380D01*
X42703809Y-12062380D01*
X42608571Y-12110000D01*
X42560952Y-12157619D01*
X42513333Y-12252857D01*
X42513333Y-12348095D01*
X42560952Y-12490952D01*
X43132380Y-13062380D01*
X42513333Y-13062380D01*
X17768333Y-12062380D02*
X17768333Y-12776666D01*
X17815952Y-12919523D01*
X17911190Y-13014761D01*
X18054047Y-13062380D01*
X18149285Y-13062380D01*
X16768333Y-13062380D02*
X17339761Y-13062380D01*
X17054047Y-13062380D02*
X17054047Y-12062380D01*
X17149285Y-12205238D01*
X17244523Y-12300476D01*
X17339761Y-12348095D01*
%LPC*%
D15*
X48260000Y-27940000D03*
D16*
X48260000Y-30480000D03*
D15*
X39355000Y-12700000D03*
X31735000Y-30480000D03*
X39355000Y-15240000D03*
X31735000Y-27940000D03*
X39355000Y-17780000D03*
X31735000Y-25400000D03*
X39355000Y-20320000D03*
X31735000Y-22860000D03*
X39355000Y-22860000D03*
X31735000Y-20320000D03*
X39355000Y-25400000D03*
X31735000Y-17780000D03*
X39355000Y-27940000D03*
X31735000Y-15240000D03*
X39355000Y-30480000D03*
D17*
X31735000Y-12700000D03*
D15*
X27940000Y-12700000D03*
X20320000Y-30480000D03*
X27940000Y-15240000D03*
X20320000Y-27940000D03*
X27940000Y-17780000D03*
X20320000Y-25400000D03*
X27940000Y-20320000D03*
X20320000Y-22860000D03*
X27940000Y-22860000D03*
X20320000Y-20320000D03*
X27940000Y-25400000D03*
X20320000Y-17780000D03*
X27940000Y-27940000D03*
X20320000Y-15240000D03*
X27940000Y-30480000D03*
D17*
X20320000Y-12700000D03*
D16*
X45045000Y-30480000D03*
X42545000Y-30480000D03*
D18*
X45720000Y-20320000D03*
X45720000Y-17780000D03*
X45720000Y-15240000D03*
D19*
X45720000Y-12700000D03*
D18*
X12700000Y-30480000D03*
X15240000Y-30480000D03*
X12700000Y-27940000D03*
X15240000Y-27940000D03*
X12700000Y-25400000D03*
X15240000Y-25400000D03*
X12700000Y-22860000D03*
X15240000Y-22860000D03*
X12700000Y-20320000D03*
X15240000Y-20320000D03*
X12700000Y-17780000D03*
X15240000Y-17780000D03*
X12700000Y-15240000D03*
X15240000Y-15240000D03*
X12700000Y-12700000D03*
D19*
X15240000Y-12700000D03*
M02*
