M48
; DRILL file {KiCad (5.1.2-1)-1} date martes, 31 de mayo de 2022, 00:06:19
; FORMAT={-:-/ absolute / metric / decimal}
; #@! TF.CreationDate,2022-05-31T00:06:19+02:00
; #@! TF.GenerationSoftware,Kicad,Pcbnew,(5.1.2-1)-1
; #@! TF.FileFunction,Plated,1,2,PTH
FMAT,2
METRIC
T1C0.400
T2C0.700
T3C0.800
T4C1.000
%
G90
G05
T1
X80.01Y-71.755
T2
X79.375Y-69.85
X81.915Y-69.85
X66.675Y-69.85
X69.215Y-69.85
T3
X71.755Y-69.85
X76.755Y-69.85
X66.675Y-33.02
X66.675Y-35.56
X66.675Y-38.1
X66.675Y-40.64
X66.675Y-43.18
X66.675Y-45.72
X66.675Y-48.26
X66.675Y-50.8
X66.675Y-53.34
X66.675Y-55.88
X66.675Y-58.42
X66.675Y-60.96
X66.675Y-63.5
X66.675Y-66.04
X81.915Y-33.02
X81.915Y-35.56
X81.915Y-38.1
X81.915Y-40.64
X81.915Y-43.18
X81.915Y-45.72
X81.915Y-48.26
X81.915Y-50.8
X81.915Y-53.34
X81.915Y-55.88
X81.915Y-58.42
X81.915Y-60.96
X81.915Y-63.5
X81.915Y-66.04
T4
X66.675Y-73.66
X69.215Y-73.66
X71.755Y-73.66
X78.74Y-73.66
X81.28Y-73.66
T0
M30
