G04 #@! TF.GenerationSoftware,KiCad,Pcbnew,(5.1.2-1)-1*
G04 #@! TF.CreationDate,2022-05-31T00:06:08+02:00*
G04 #@! TF.ProjectId,cart28p,63617274-3238-4702-9e6b-696361645f70,rev?*
G04 #@! TF.SameCoordinates,Original*
G04 #@! TF.FileFunction,Copper,L1,Top*
G04 #@! TF.FilePolarity,Positive*
%FSLAX46Y46*%
G04 Gerber Fmt 4.6, Leading zero omitted, Abs format (unit mm)*
G04 Created by KiCad (PCBNEW (5.1.2-1)-1) date 2022-05-31 00:06:08*
%MOMM*%
%LPD*%
G04 APERTURE LIST*
%ADD10C,0.150000*%
%ADD11C,1.524000*%
%ADD12R,1.600000X1.600000*%
%ADD13O,1.600000X1.600000*%
%ADD14C,1.600000*%
%ADD15O,1.400000X1.400000*%
%ADD16C,1.400000*%
%ADD17O,1.700000X1.700000*%
%ADD18R,1.700000X1.700000*%
%ADD19C,0.800000*%
%ADD20C,0.400000*%
%ADD21C,0.250000*%
%ADD22C,0.254000*%
G04 APERTURE END LIST*
D10*
G36*
X63346345Y-29719835D02*
G01*
X63383329Y-29725321D01*
X63419598Y-29734406D01*
X63454802Y-29747002D01*
X63488602Y-29762988D01*
X63520672Y-29782210D01*
X63550704Y-29804483D01*
X63578408Y-29829592D01*
X63603517Y-29857296D01*
X63625790Y-29887328D01*
X63645012Y-29919398D01*
X63660998Y-29953198D01*
X63673594Y-29988402D01*
X63682679Y-30024671D01*
X63688165Y-30061655D01*
X63690000Y-30099000D01*
X63690000Y-30861000D01*
X63688165Y-30898345D01*
X63682679Y-30935329D01*
X63673594Y-30971598D01*
X63660998Y-31006802D01*
X63645012Y-31040602D01*
X63625790Y-31072672D01*
X63603517Y-31102704D01*
X63578408Y-31130408D01*
X63550704Y-31155517D01*
X63520672Y-31177790D01*
X63488602Y-31197012D01*
X63454802Y-31212998D01*
X63419598Y-31225594D01*
X63383329Y-31234679D01*
X63346345Y-31240165D01*
X63309000Y-31242000D01*
X56071000Y-31242000D01*
X56033655Y-31240165D01*
X55996671Y-31234679D01*
X55960402Y-31225594D01*
X55925198Y-31212998D01*
X55891398Y-31197012D01*
X55859328Y-31177790D01*
X55829296Y-31155517D01*
X55801592Y-31130408D01*
X55776483Y-31102704D01*
X55754210Y-31072672D01*
X55734988Y-31040602D01*
X55719002Y-31006802D01*
X55706406Y-30971598D01*
X55697321Y-30935329D01*
X55691835Y-30898345D01*
X55690000Y-30861000D01*
X55690000Y-30099000D01*
X55691835Y-30061655D01*
X55697321Y-30024671D01*
X55706406Y-29988402D01*
X55719002Y-29953198D01*
X55734988Y-29919398D01*
X55754210Y-29887328D01*
X55776483Y-29857296D01*
X55801592Y-29829592D01*
X55829296Y-29804483D01*
X55859328Y-29782210D01*
X55891398Y-29762988D01*
X55925198Y-29747002D01*
X55960402Y-29734406D01*
X55996671Y-29725321D01*
X56033655Y-29719835D01*
X56071000Y-29718000D01*
X63309000Y-29718000D01*
X63346345Y-29719835D01*
X63346345Y-29719835D01*
G37*
D11*
X59690000Y-30480000D03*
D10*
G36*
X63346345Y-32259835D02*
G01*
X63383329Y-32265321D01*
X63419598Y-32274406D01*
X63454802Y-32287002D01*
X63488602Y-32302988D01*
X63520672Y-32322210D01*
X63550704Y-32344483D01*
X63578408Y-32369592D01*
X63603517Y-32397296D01*
X63625790Y-32427328D01*
X63645012Y-32459398D01*
X63660998Y-32493198D01*
X63673594Y-32528402D01*
X63682679Y-32564671D01*
X63688165Y-32601655D01*
X63690000Y-32639000D01*
X63690000Y-33401000D01*
X63688165Y-33438345D01*
X63682679Y-33475329D01*
X63673594Y-33511598D01*
X63660998Y-33546802D01*
X63645012Y-33580602D01*
X63625790Y-33612672D01*
X63603517Y-33642704D01*
X63578408Y-33670408D01*
X63550704Y-33695517D01*
X63520672Y-33717790D01*
X63488602Y-33737012D01*
X63454802Y-33752998D01*
X63419598Y-33765594D01*
X63383329Y-33774679D01*
X63346345Y-33780165D01*
X63309000Y-33782000D01*
X56071000Y-33782000D01*
X56033655Y-33780165D01*
X55996671Y-33774679D01*
X55960402Y-33765594D01*
X55925198Y-33752998D01*
X55891398Y-33737012D01*
X55859328Y-33717790D01*
X55829296Y-33695517D01*
X55801592Y-33670408D01*
X55776483Y-33642704D01*
X55754210Y-33612672D01*
X55734988Y-33580602D01*
X55719002Y-33546802D01*
X55706406Y-33511598D01*
X55697321Y-33475329D01*
X55691835Y-33438345D01*
X55690000Y-33401000D01*
X55690000Y-32639000D01*
X55691835Y-32601655D01*
X55697321Y-32564671D01*
X55706406Y-32528402D01*
X55719002Y-32493198D01*
X55734988Y-32459398D01*
X55754210Y-32427328D01*
X55776483Y-32397296D01*
X55801592Y-32369592D01*
X55829296Y-32344483D01*
X55859328Y-32322210D01*
X55891398Y-32302988D01*
X55925198Y-32287002D01*
X55960402Y-32274406D01*
X55996671Y-32265321D01*
X56033655Y-32259835D01*
X56071000Y-32258000D01*
X63309000Y-32258000D01*
X63346345Y-32259835D01*
X63346345Y-32259835D01*
G37*
D11*
X59690000Y-33020000D03*
D10*
G36*
X63346345Y-34799835D02*
G01*
X63383329Y-34805321D01*
X63419598Y-34814406D01*
X63454802Y-34827002D01*
X63488602Y-34842988D01*
X63520672Y-34862210D01*
X63550704Y-34884483D01*
X63578408Y-34909592D01*
X63603517Y-34937296D01*
X63625790Y-34967328D01*
X63645012Y-34999398D01*
X63660998Y-35033198D01*
X63673594Y-35068402D01*
X63682679Y-35104671D01*
X63688165Y-35141655D01*
X63690000Y-35179000D01*
X63690000Y-35941000D01*
X63688165Y-35978345D01*
X63682679Y-36015329D01*
X63673594Y-36051598D01*
X63660998Y-36086802D01*
X63645012Y-36120602D01*
X63625790Y-36152672D01*
X63603517Y-36182704D01*
X63578408Y-36210408D01*
X63550704Y-36235517D01*
X63520672Y-36257790D01*
X63488602Y-36277012D01*
X63454802Y-36292998D01*
X63419598Y-36305594D01*
X63383329Y-36314679D01*
X63346345Y-36320165D01*
X63309000Y-36322000D01*
X56071000Y-36322000D01*
X56033655Y-36320165D01*
X55996671Y-36314679D01*
X55960402Y-36305594D01*
X55925198Y-36292998D01*
X55891398Y-36277012D01*
X55859328Y-36257790D01*
X55829296Y-36235517D01*
X55801592Y-36210408D01*
X55776483Y-36182704D01*
X55754210Y-36152672D01*
X55734988Y-36120602D01*
X55719002Y-36086802D01*
X55706406Y-36051598D01*
X55697321Y-36015329D01*
X55691835Y-35978345D01*
X55690000Y-35941000D01*
X55690000Y-35179000D01*
X55691835Y-35141655D01*
X55697321Y-35104671D01*
X55706406Y-35068402D01*
X55719002Y-35033198D01*
X55734988Y-34999398D01*
X55754210Y-34967328D01*
X55776483Y-34937296D01*
X55801592Y-34909592D01*
X55829296Y-34884483D01*
X55859328Y-34862210D01*
X55891398Y-34842988D01*
X55925198Y-34827002D01*
X55960402Y-34814406D01*
X55996671Y-34805321D01*
X56033655Y-34799835D01*
X56071000Y-34798000D01*
X63309000Y-34798000D01*
X63346345Y-34799835D01*
X63346345Y-34799835D01*
G37*
D11*
X59690000Y-35560000D03*
D10*
G36*
X63346345Y-37339835D02*
G01*
X63383329Y-37345321D01*
X63419598Y-37354406D01*
X63454802Y-37367002D01*
X63488602Y-37382988D01*
X63520672Y-37402210D01*
X63550704Y-37424483D01*
X63578408Y-37449592D01*
X63603517Y-37477296D01*
X63625790Y-37507328D01*
X63645012Y-37539398D01*
X63660998Y-37573198D01*
X63673594Y-37608402D01*
X63682679Y-37644671D01*
X63688165Y-37681655D01*
X63690000Y-37719000D01*
X63690000Y-38481000D01*
X63688165Y-38518345D01*
X63682679Y-38555329D01*
X63673594Y-38591598D01*
X63660998Y-38626802D01*
X63645012Y-38660602D01*
X63625790Y-38692672D01*
X63603517Y-38722704D01*
X63578408Y-38750408D01*
X63550704Y-38775517D01*
X63520672Y-38797790D01*
X63488602Y-38817012D01*
X63454802Y-38832998D01*
X63419598Y-38845594D01*
X63383329Y-38854679D01*
X63346345Y-38860165D01*
X63309000Y-38862000D01*
X56071000Y-38862000D01*
X56033655Y-38860165D01*
X55996671Y-38854679D01*
X55960402Y-38845594D01*
X55925198Y-38832998D01*
X55891398Y-38817012D01*
X55859328Y-38797790D01*
X55829296Y-38775517D01*
X55801592Y-38750408D01*
X55776483Y-38722704D01*
X55754210Y-38692672D01*
X55734988Y-38660602D01*
X55719002Y-38626802D01*
X55706406Y-38591598D01*
X55697321Y-38555329D01*
X55691835Y-38518345D01*
X55690000Y-38481000D01*
X55690000Y-37719000D01*
X55691835Y-37681655D01*
X55697321Y-37644671D01*
X55706406Y-37608402D01*
X55719002Y-37573198D01*
X55734988Y-37539398D01*
X55754210Y-37507328D01*
X55776483Y-37477296D01*
X55801592Y-37449592D01*
X55829296Y-37424483D01*
X55859328Y-37402210D01*
X55891398Y-37382988D01*
X55925198Y-37367002D01*
X55960402Y-37354406D01*
X55996671Y-37345321D01*
X56033655Y-37339835D01*
X56071000Y-37338000D01*
X63309000Y-37338000D01*
X63346345Y-37339835D01*
X63346345Y-37339835D01*
G37*
D11*
X59690000Y-38100000D03*
D10*
G36*
X63346345Y-39879835D02*
G01*
X63383329Y-39885321D01*
X63419598Y-39894406D01*
X63454802Y-39907002D01*
X63488602Y-39922988D01*
X63520672Y-39942210D01*
X63550704Y-39964483D01*
X63578408Y-39989592D01*
X63603517Y-40017296D01*
X63625790Y-40047328D01*
X63645012Y-40079398D01*
X63660998Y-40113198D01*
X63673594Y-40148402D01*
X63682679Y-40184671D01*
X63688165Y-40221655D01*
X63690000Y-40259000D01*
X63690000Y-41021000D01*
X63688165Y-41058345D01*
X63682679Y-41095329D01*
X63673594Y-41131598D01*
X63660998Y-41166802D01*
X63645012Y-41200602D01*
X63625790Y-41232672D01*
X63603517Y-41262704D01*
X63578408Y-41290408D01*
X63550704Y-41315517D01*
X63520672Y-41337790D01*
X63488602Y-41357012D01*
X63454802Y-41372998D01*
X63419598Y-41385594D01*
X63383329Y-41394679D01*
X63346345Y-41400165D01*
X63309000Y-41402000D01*
X56071000Y-41402000D01*
X56033655Y-41400165D01*
X55996671Y-41394679D01*
X55960402Y-41385594D01*
X55925198Y-41372998D01*
X55891398Y-41357012D01*
X55859328Y-41337790D01*
X55829296Y-41315517D01*
X55801592Y-41290408D01*
X55776483Y-41262704D01*
X55754210Y-41232672D01*
X55734988Y-41200602D01*
X55719002Y-41166802D01*
X55706406Y-41131598D01*
X55697321Y-41095329D01*
X55691835Y-41058345D01*
X55690000Y-41021000D01*
X55690000Y-40259000D01*
X55691835Y-40221655D01*
X55697321Y-40184671D01*
X55706406Y-40148402D01*
X55719002Y-40113198D01*
X55734988Y-40079398D01*
X55754210Y-40047328D01*
X55776483Y-40017296D01*
X55801592Y-39989592D01*
X55829296Y-39964483D01*
X55859328Y-39942210D01*
X55891398Y-39922988D01*
X55925198Y-39907002D01*
X55960402Y-39894406D01*
X55996671Y-39885321D01*
X56033655Y-39879835D01*
X56071000Y-39878000D01*
X63309000Y-39878000D01*
X63346345Y-39879835D01*
X63346345Y-39879835D01*
G37*
D11*
X59690000Y-40640000D03*
D10*
G36*
X63346345Y-42419835D02*
G01*
X63383329Y-42425321D01*
X63419598Y-42434406D01*
X63454802Y-42447002D01*
X63488602Y-42462988D01*
X63520672Y-42482210D01*
X63550704Y-42504483D01*
X63578408Y-42529592D01*
X63603517Y-42557296D01*
X63625790Y-42587328D01*
X63645012Y-42619398D01*
X63660998Y-42653198D01*
X63673594Y-42688402D01*
X63682679Y-42724671D01*
X63688165Y-42761655D01*
X63690000Y-42799000D01*
X63690000Y-43561000D01*
X63688165Y-43598345D01*
X63682679Y-43635329D01*
X63673594Y-43671598D01*
X63660998Y-43706802D01*
X63645012Y-43740602D01*
X63625790Y-43772672D01*
X63603517Y-43802704D01*
X63578408Y-43830408D01*
X63550704Y-43855517D01*
X63520672Y-43877790D01*
X63488602Y-43897012D01*
X63454802Y-43912998D01*
X63419598Y-43925594D01*
X63383329Y-43934679D01*
X63346345Y-43940165D01*
X63309000Y-43942000D01*
X56071000Y-43942000D01*
X56033655Y-43940165D01*
X55996671Y-43934679D01*
X55960402Y-43925594D01*
X55925198Y-43912998D01*
X55891398Y-43897012D01*
X55859328Y-43877790D01*
X55829296Y-43855517D01*
X55801592Y-43830408D01*
X55776483Y-43802704D01*
X55754210Y-43772672D01*
X55734988Y-43740602D01*
X55719002Y-43706802D01*
X55706406Y-43671598D01*
X55697321Y-43635329D01*
X55691835Y-43598345D01*
X55690000Y-43561000D01*
X55690000Y-42799000D01*
X55691835Y-42761655D01*
X55697321Y-42724671D01*
X55706406Y-42688402D01*
X55719002Y-42653198D01*
X55734988Y-42619398D01*
X55754210Y-42587328D01*
X55776483Y-42557296D01*
X55801592Y-42529592D01*
X55829296Y-42504483D01*
X55859328Y-42482210D01*
X55891398Y-42462988D01*
X55925198Y-42447002D01*
X55960402Y-42434406D01*
X55996671Y-42425321D01*
X56033655Y-42419835D01*
X56071000Y-42418000D01*
X63309000Y-42418000D01*
X63346345Y-42419835D01*
X63346345Y-42419835D01*
G37*
D11*
X59690000Y-43180000D03*
D10*
G36*
X63346345Y-44959835D02*
G01*
X63383329Y-44965321D01*
X63419598Y-44974406D01*
X63454802Y-44987002D01*
X63488602Y-45002988D01*
X63520672Y-45022210D01*
X63550704Y-45044483D01*
X63578408Y-45069592D01*
X63603517Y-45097296D01*
X63625790Y-45127328D01*
X63645012Y-45159398D01*
X63660998Y-45193198D01*
X63673594Y-45228402D01*
X63682679Y-45264671D01*
X63688165Y-45301655D01*
X63690000Y-45339000D01*
X63690000Y-46101000D01*
X63688165Y-46138345D01*
X63682679Y-46175329D01*
X63673594Y-46211598D01*
X63660998Y-46246802D01*
X63645012Y-46280602D01*
X63625790Y-46312672D01*
X63603517Y-46342704D01*
X63578408Y-46370408D01*
X63550704Y-46395517D01*
X63520672Y-46417790D01*
X63488602Y-46437012D01*
X63454802Y-46452998D01*
X63419598Y-46465594D01*
X63383329Y-46474679D01*
X63346345Y-46480165D01*
X63309000Y-46482000D01*
X56071000Y-46482000D01*
X56033655Y-46480165D01*
X55996671Y-46474679D01*
X55960402Y-46465594D01*
X55925198Y-46452998D01*
X55891398Y-46437012D01*
X55859328Y-46417790D01*
X55829296Y-46395517D01*
X55801592Y-46370408D01*
X55776483Y-46342704D01*
X55754210Y-46312672D01*
X55734988Y-46280602D01*
X55719002Y-46246802D01*
X55706406Y-46211598D01*
X55697321Y-46175329D01*
X55691835Y-46138345D01*
X55690000Y-46101000D01*
X55690000Y-45339000D01*
X55691835Y-45301655D01*
X55697321Y-45264671D01*
X55706406Y-45228402D01*
X55719002Y-45193198D01*
X55734988Y-45159398D01*
X55754210Y-45127328D01*
X55776483Y-45097296D01*
X55801592Y-45069592D01*
X55829296Y-45044483D01*
X55859328Y-45022210D01*
X55891398Y-45002988D01*
X55925198Y-44987002D01*
X55960402Y-44974406D01*
X55996671Y-44965321D01*
X56033655Y-44959835D01*
X56071000Y-44958000D01*
X63309000Y-44958000D01*
X63346345Y-44959835D01*
X63346345Y-44959835D01*
G37*
D11*
X59690000Y-45720000D03*
D10*
G36*
X63346345Y-47499835D02*
G01*
X63383329Y-47505321D01*
X63419598Y-47514406D01*
X63454802Y-47527002D01*
X63488602Y-47542988D01*
X63520672Y-47562210D01*
X63550704Y-47584483D01*
X63578408Y-47609592D01*
X63603517Y-47637296D01*
X63625790Y-47667328D01*
X63645012Y-47699398D01*
X63660998Y-47733198D01*
X63673594Y-47768402D01*
X63682679Y-47804671D01*
X63688165Y-47841655D01*
X63690000Y-47879000D01*
X63690000Y-48641000D01*
X63688165Y-48678345D01*
X63682679Y-48715329D01*
X63673594Y-48751598D01*
X63660998Y-48786802D01*
X63645012Y-48820602D01*
X63625790Y-48852672D01*
X63603517Y-48882704D01*
X63578408Y-48910408D01*
X63550704Y-48935517D01*
X63520672Y-48957790D01*
X63488602Y-48977012D01*
X63454802Y-48992998D01*
X63419598Y-49005594D01*
X63383329Y-49014679D01*
X63346345Y-49020165D01*
X63309000Y-49022000D01*
X56071000Y-49022000D01*
X56033655Y-49020165D01*
X55996671Y-49014679D01*
X55960402Y-49005594D01*
X55925198Y-48992998D01*
X55891398Y-48977012D01*
X55859328Y-48957790D01*
X55829296Y-48935517D01*
X55801592Y-48910408D01*
X55776483Y-48882704D01*
X55754210Y-48852672D01*
X55734988Y-48820602D01*
X55719002Y-48786802D01*
X55706406Y-48751598D01*
X55697321Y-48715329D01*
X55691835Y-48678345D01*
X55690000Y-48641000D01*
X55690000Y-47879000D01*
X55691835Y-47841655D01*
X55697321Y-47804671D01*
X55706406Y-47768402D01*
X55719002Y-47733198D01*
X55734988Y-47699398D01*
X55754210Y-47667328D01*
X55776483Y-47637296D01*
X55801592Y-47609592D01*
X55829296Y-47584483D01*
X55859328Y-47562210D01*
X55891398Y-47542988D01*
X55925198Y-47527002D01*
X55960402Y-47514406D01*
X55996671Y-47505321D01*
X56033655Y-47499835D01*
X56071000Y-47498000D01*
X63309000Y-47498000D01*
X63346345Y-47499835D01*
X63346345Y-47499835D01*
G37*
D11*
X59690000Y-48260000D03*
D10*
G36*
X63346345Y-50039835D02*
G01*
X63383329Y-50045321D01*
X63419598Y-50054406D01*
X63454802Y-50067002D01*
X63488602Y-50082988D01*
X63520672Y-50102210D01*
X63550704Y-50124483D01*
X63578408Y-50149592D01*
X63603517Y-50177296D01*
X63625790Y-50207328D01*
X63645012Y-50239398D01*
X63660998Y-50273198D01*
X63673594Y-50308402D01*
X63682679Y-50344671D01*
X63688165Y-50381655D01*
X63690000Y-50419000D01*
X63690000Y-51181000D01*
X63688165Y-51218345D01*
X63682679Y-51255329D01*
X63673594Y-51291598D01*
X63660998Y-51326802D01*
X63645012Y-51360602D01*
X63625790Y-51392672D01*
X63603517Y-51422704D01*
X63578408Y-51450408D01*
X63550704Y-51475517D01*
X63520672Y-51497790D01*
X63488602Y-51517012D01*
X63454802Y-51532998D01*
X63419598Y-51545594D01*
X63383329Y-51554679D01*
X63346345Y-51560165D01*
X63309000Y-51562000D01*
X56071000Y-51562000D01*
X56033655Y-51560165D01*
X55996671Y-51554679D01*
X55960402Y-51545594D01*
X55925198Y-51532998D01*
X55891398Y-51517012D01*
X55859328Y-51497790D01*
X55829296Y-51475517D01*
X55801592Y-51450408D01*
X55776483Y-51422704D01*
X55754210Y-51392672D01*
X55734988Y-51360602D01*
X55719002Y-51326802D01*
X55706406Y-51291598D01*
X55697321Y-51255329D01*
X55691835Y-51218345D01*
X55690000Y-51181000D01*
X55690000Y-50419000D01*
X55691835Y-50381655D01*
X55697321Y-50344671D01*
X55706406Y-50308402D01*
X55719002Y-50273198D01*
X55734988Y-50239398D01*
X55754210Y-50207328D01*
X55776483Y-50177296D01*
X55801592Y-50149592D01*
X55829296Y-50124483D01*
X55859328Y-50102210D01*
X55891398Y-50082988D01*
X55925198Y-50067002D01*
X55960402Y-50054406D01*
X55996671Y-50045321D01*
X56033655Y-50039835D01*
X56071000Y-50038000D01*
X63309000Y-50038000D01*
X63346345Y-50039835D01*
X63346345Y-50039835D01*
G37*
D11*
X59690000Y-50800000D03*
D10*
G36*
X63346345Y-52579835D02*
G01*
X63383329Y-52585321D01*
X63419598Y-52594406D01*
X63454802Y-52607002D01*
X63488602Y-52622988D01*
X63520672Y-52642210D01*
X63550704Y-52664483D01*
X63578408Y-52689592D01*
X63603517Y-52717296D01*
X63625790Y-52747328D01*
X63645012Y-52779398D01*
X63660998Y-52813198D01*
X63673594Y-52848402D01*
X63682679Y-52884671D01*
X63688165Y-52921655D01*
X63690000Y-52959000D01*
X63690000Y-53721000D01*
X63688165Y-53758345D01*
X63682679Y-53795329D01*
X63673594Y-53831598D01*
X63660998Y-53866802D01*
X63645012Y-53900602D01*
X63625790Y-53932672D01*
X63603517Y-53962704D01*
X63578408Y-53990408D01*
X63550704Y-54015517D01*
X63520672Y-54037790D01*
X63488602Y-54057012D01*
X63454802Y-54072998D01*
X63419598Y-54085594D01*
X63383329Y-54094679D01*
X63346345Y-54100165D01*
X63309000Y-54102000D01*
X56071000Y-54102000D01*
X56033655Y-54100165D01*
X55996671Y-54094679D01*
X55960402Y-54085594D01*
X55925198Y-54072998D01*
X55891398Y-54057012D01*
X55859328Y-54037790D01*
X55829296Y-54015517D01*
X55801592Y-53990408D01*
X55776483Y-53962704D01*
X55754210Y-53932672D01*
X55734988Y-53900602D01*
X55719002Y-53866802D01*
X55706406Y-53831598D01*
X55697321Y-53795329D01*
X55691835Y-53758345D01*
X55690000Y-53721000D01*
X55690000Y-52959000D01*
X55691835Y-52921655D01*
X55697321Y-52884671D01*
X55706406Y-52848402D01*
X55719002Y-52813198D01*
X55734988Y-52779398D01*
X55754210Y-52747328D01*
X55776483Y-52717296D01*
X55801592Y-52689592D01*
X55829296Y-52664483D01*
X55859328Y-52642210D01*
X55891398Y-52622988D01*
X55925198Y-52607002D01*
X55960402Y-52594406D01*
X55996671Y-52585321D01*
X56033655Y-52579835D01*
X56071000Y-52578000D01*
X63309000Y-52578000D01*
X63346345Y-52579835D01*
X63346345Y-52579835D01*
G37*
D11*
X59690000Y-53340000D03*
D10*
G36*
X63346345Y-55119835D02*
G01*
X63383329Y-55125321D01*
X63419598Y-55134406D01*
X63454802Y-55147002D01*
X63488602Y-55162988D01*
X63520672Y-55182210D01*
X63550704Y-55204483D01*
X63578408Y-55229592D01*
X63603517Y-55257296D01*
X63625790Y-55287328D01*
X63645012Y-55319398D01*
X63660998Y-55353198D01*
X63673594Y-55388402D01*
X63682679Y-55424671D01*
X63688165Y-55461655D01*
X63690000Y-55499000D01*
X63690000Y-56261000D01*
X63688165Y-56298345D01*
X63682679Y-56335329D01*
X63673594Y-56371598D01*
X63660998Y-56406802D01*
X63645012Y-56440602D01*
X63625790Y-56472672D01*
X63603517Y-56502704D01*
X63578408Y-56530408D01*
X63550704Y-56555517D01*
X63520672Y-56577790D01*
X63488602Y-56597012D01*
X63454802Y-56612998D01*
X63419598Y-56625594D01*
X63383329Y-56634679D01*
X63346345Y-56640165D01*
X63309000Y-56642000D01*
X56071000Y-56642000D01*
X56033655Y-56640165D01*
X55996671Y-56634679D01*
X55960402Y-56625594D01*
X55925198Y-56612998D01*
X55891398Y-56597012D01*
X55859328Y-56577790D01*
X55829296Y-56555517D01*
X55801592Y-56530408D01*
X55776483Y-56502704D01*
X55754210Y-56472672D01*
X55734988Y-56440602D01*
X55719002Y-56406802D01*
X55706406Y-56371598D01*
X55697321Y-56335329D01*
X55691835Y-56298345D01*
X55690000Y-56261000D01*
X55690000Y-55499000D01*
X55691835Y-55461655D01*
X55697321Y-55424671D01*
X55706406Y-55388402D01*
X55719002Y-55353198D01*
X55734988Y-55319398D01*
X55754210Y-55287328D01*
X55776483Y-55257296D01*
X55801592Y-55229592D01*
X55829296Y-55204483D01*
X55859328Y-55182210D01*
X55891398Y-55162988D01*
X55925198Y-55147002D01*
X55960402Y-55134406D01*
X55996671Y-55125321D01*
X56033655Y-55119835D01*
X56071000Y-55118000D01*
X63309000Y-55118000D01*
X63346345Y-55119835D01*
X63346345Y-55119835D01*
G37*
D11*
X59690000Y-55880000D03*
D10*
G36*
X63346345Y-57659835D02*
G01*
X63383329Y-57665321D01*
X63419598Y-57674406D01*
X63454802Y-57687002D01*
X63488602Y-57702988D01*
X63520672Y-57722210D01*
X63550704Y-57744483D01*
X63578408Y-57769592D01*
X63603517Y-57797296D01*
X63625790Y-57827328D01*
X63645012Y-57859398D01*
X63660998Y-57893198D01*
X63673594Y-57928402D01*
X63682679Y-57964671D01*
X63688165Y-58001655D01*
X63690000Y-58039000D01*
X63690000Y-58801000D01*
X63688165Y-58838345D01*
X63682679Y-58875329D01*
X63673594Y-58911598D01*
X63660998Y-58946802D01*
X63645012Y-58980602D01*
X63625790Y-59012672D01*
X63603517Y-59042704D01*
X63578408Y-59070408D01*
X63550704Y-59095517D01*
X63520672Y-59117790D01*
X63488602Y-59137012D01*
X63454802Y-59152998D01*
X63419598Y-59165594D01*
X63383329Y-59174679D01*
X63346345Y-59180165D01*
X63309000Y-59182000D01*
X56071000Y-59182000D01*
X56033655Y-59180165D01*
X55996671Y-59174679D01*
X55960402Y-59165594D01*
X55925198Y-59152998D01*
X55891398Y-59137012D01*
X55859328Y-59117790D01*
X55829296Y-59095517D01*
X55801592Y-59070408D01*
X55776483Y-59042704D01*
X55754210Y-59012672D01*
X55734988Y-58980602D01*
X55719002Y-58946802D01*
X55706406Y-58911598D01*
X55697321Y-58875329D01*
X55691835Y-58838345D01*
X55690000Y-58801000D01*
X55690000Y-58039000D01*
X55691835Y-58001655D01*
X55697321Y-57964671D01*
X55706406Y-57928402D01*
X55719002Y-57893198D01*
X55734988Y-57859398D01*
X55754210Y-57827328D01*
X55776483Y-57797296D01*
X55801592Y-57769592D01*
X55829296Y-57744483D01*
X55859328Y-57722210D01*
X55891398Y-57702988D01*
X55925198Y-57687002D01*
X55960402Y-57674406D01*
X55996671Y-57665321D01*
X56033655Y-57659835D01*
X56071000Y-57658000D01*
X63309000Y-57658000D01*
X63346345Y-57659835D01*
X63346345Y-57659835D01*
G37*
D11*
X59690000Y-58420000D03*
D10*
G36*
X63346345Y-60199835D02*
G01*
X63383329Y-60205321D01*
X63419598Y-60214406D01*
X63454802Y-60227002D01*
X63488602Y-60242988D01*
X63520672Y-60262210D01*
X63550704Y-60284483D01*
X63578408Y-60309592D01*
X63603517Y-60337296D01*
X63625790Y-60367328D01*
X63645012Y-60399398D01*
X63660998Y-60433198D01*
X63673594Y-60468402D01*
X63682679Y-60504671D01*
X63688165Y-60541655D01*
X63690000Y-60579000D01*
X63690000Y-61341000D01*
X63688165Y-61378345D01*
X63682679Y-61415329D01*
X63673594Y-61451598D01*
X63660998Y-61486802D01*
X63645012Y-61520602D01*
X63625790Y-61552672D01*
X63603517Y-61582704D01*
X63578408Y-61610408D01*
X63550704Y-61635517D01*
X63520672Y-61657790D01*
X63488602Y-61677012D01*
X63454802Y-61692998D01*
X63419598Y-61705594D01*
X63383329Y-61714679D01*
X63346345Y-61720165D01*
X63309000Y-61722000D01*
X56071000Y-61722000D01*
X56033655Y-61720165D01*
X55996671Y-61714679D01*
X55960402Y-61705594D01*
X55925198Y-61692998D01*
X55891398Y-61677012D01*
X55859328Y-61657790D01*
X55829296Y-61635517D01*
X55801592Y-61610408D01*
X55776483Y-61582704D01*
X55754210Y-61552672D01*
X55734988Y-61520602D01*
X55719002Y-61486802D01*
X55706406Y-61451598D01*
X55697321Y-61415329D01*
X55691835Y-61378345D01*
X55690000Y-61341000D01*
X55690000Y-60579000D01*
X55691835Y-60541655D01*
X55697321Y-60504671D01*
X55706406Y-60468402D01*
X55719002Y-60433198D01*
X55734988Y-60399398D01*
X55754210Y-60367328D01*
X55776483Y-60337296D01*
X55801592Y-60309592D01*
X55829296Y-60284483D01*
X55859328Y-60262210D01*
X55891398Y-60242988D01*
X55925198Y-60227002D01*
X55960402Y-60214406D01*
X55996671Y-60205321D01*
X56033655Y-60199835D01*
X56071000Y-60198000D01*
X63309000Y-60198000D01*
X63346345Y-60199835D01*
X63346345Y-60199835D01*
G37*
D11*
X59690000Y-60960000D03*
D10*
G36*
X63346345Y-62739835D02*
G01*
X63383329Y-62745321D01*
X63419598Y-62754406D01*
X63454802Y-62767002D01*
X63488602Y-62782988D01*
X63520672Y-62802210D01*
X63550704Y-62824483D01*
X63578408Y-62849592D01*
X63603517Y-62877296D01*
X63625790Y-62907328D01*
X63645012Y-62939398D01*
X63660998Y-62973198D01*
X63673594Y-63008402D01*
X63682679Y-63044671D01*
X63688165Y-63081655D01*
X63690000Y-63119000D01*
X63690000Y-63881000D01*
X63688165Y-63918345D01*
X63682679Y-63955329D01*
X63673594Y-63991598D01*
X63660998Y-64026802D01*
X63645012Y-64060602D01*
X63625790Y-64092672D01*
X63603517Y-64122704D01*
X63578408Y-64150408D01*
X63550704Y-64175517D01*
X63520672Y-64197790D01*
X63488602Y-64217012D01*
X63454802Y-64232998D01*
X63419598Y-64245594D01*
X63383329Y-64254679D01*
X63346345Y-64260165D01*
X63309000Y-64262000D01*
X56071000Y-64262000D01*
X56033655Y-64260165D01*
X55996671Y-64254679D01*
X55960402Y-64245594D01*
X55925198Y-64232998D01*
X55891398Y-64217012D01*
X55859328Y-64197790D01*
X55829296Y-64175517D01*
X55801592Y-64150408D01*
X55776483Y-64122704D01*
X55754210Y-64092672D01*
X55734988Y-64060602D01*
X55719002Y-64026802D01*
X55706406Y-63991598D01*
X55697321Y-63955329D01*
X55691835Y-63918345D01*
X55690000Y-63881000D01*
X55690000Y-63119000D01*
X55691835Y-63081655D01*
X55697321Y-63044671D01*
X55706406Y-63008402D01*
X55719002Y-62973198D01*
X55734988Y-62939398D01*
X55754210Y-62907328D01*
X55776483Y-62877296D01*
X55801592Y-62849592D01*
X55829296Y-62824483D01*
X55859328Y-62802210D01*
X55891398Y-62782988D01*
X55925198Y-62767002D01*
X55960402Y-62754406D01*
X55996671Y-62745321D01*
X56033655Y-62739835D01*
X56071000Y-62738000D01*
X63309000Y-62738000D01*
X63346345Y-62739835D01*
X63346345Y-62739835D01*
G37*
D11*
X59690000Y-63500000D03*
D10*
G36*
X63346345Y-65279835D02*
G01*
X63383329Y-65285321D01*
X63419598Y-65294406D01*
X63454802Y-65307002D01*
X63488602Y-65322988D01*
X63520672Y-65342210D01*
X63550704Y-65364483D01*
X63578408Y-65389592D01*
X63603517Y-65417296D01*
X63625790Y-65447328D01*
X63645012Y-65479398D01*
X63660998Y-65513198D01*
X63673594Y-65548402D01*
X63682679Y-65584671D01*
X63688165Y-65621655D01*
X63690000Y-65659000D01*
X63690000Y-66421000D01*
X63688165Y-66458345D01*
X63682679Y-66495329D01*
X63673594Y-66531598D01*
X63660998Y-66566802D01*
X63645012Y-66600602D01*
X63625790Y-66632672D01*
X63603517Y-66662704D01*
X63578408Y-66690408D01*
X63550704Y-66715517D01*
X63520672Y-66737790D01*
X63488602Y-66757012D01*
X63454802Y-66772998D01*
X63419598Y-66785594D01*
X63383329Y-66794679D01*
X63346345Y-66800165D01*
X63309000Y-66802000D01*
X56071000Y-66802000D01*
X56033655Y-66800165D01*
X55996671Y-66794679D01*
X55960402Y-66785594D01*
X55925198Y-66772998D01*
X55891398Y-66757012D01*
X55859328Y-66737790D01*
X55829296Y-66715517D01*
X55801592Y-66690408D01*
X55776483Y-66662704D01*
X55754210Y-66632672D01*
X55734988Y-66600602D01*
X55719002Y-66566802D01*
X55706406Y-66531598D01*
X55697321Y-66495329D01*
X55691835Y-66458345D01*
X55690000Y-66421000D01*
X55690000Y-65659000D01*
X55691835Y-65621655D01*
X55697321Y-65584671D01*
X55706406Y-65548402D01*
X55719002Y-65513198D01*
X55734988Y-65479398D01*
X55754210Y-65447328D01*
X55776483Y-65417296D01*
X55801592Y-65389592D01*
X55829296Y-65364483D01*
X55859328Y-65342210D01*
X55891398Y-65322988D01*
X55925198Y-65307002D01*
X55960402Y-65294406D01*
X55996671Y-65285321D01*
X56033655Y-65279835D01*
X56071000Y-65278000D01*
X63309000Y-65278000D01*
X63346345Y-65279835D01*
X63346345Y-65279835D01*
G37*
D11*
X59690000Y-66040000D03*
D10*
G36*
X63346345Y-70359835D02*
G01*
X63383329Y-70365321D01*
X63419598Y-70374406D01*
X63454802Y-70387002D01*
X63488602Y-70402988D01*
X63520672Y-70422210D01*
X63550704Y-70444483D01*
X63578408Y-70469592D01*
X63603517Y-70497296D01*
X63625790Y-70527328D01*
X63645012Y-70559398D01*
X63660998Y-70593198D01*
X63673594Y-70628402D01*
X63682679Y-70664671D01*
X63688165Y-70701655D01*
X63690000Y-70739000D01*
X63690000Y-71501000D01*
X63688165Y-71538345D01*
X63682679Y-71575329D01*
X63673594Y-71611598D01*
X63660998Y-71646802D01*
X63645012Y-71680602D01*
X63625790Y-71712672D01*
X63603517Y-71742704D01*
X63578408Y-71770408D01*
X63550704Y-71795517D01*
X63520672Y-71817790D01*
X63488602Y-71837012D01*
X63454802Y-71852998D01*
X63419598Y-71865594D01*
X63383329Y-71874679D01*
X63346345Y-71880165D01*
X63309000Y-71882000D01*
X56071000Y-71882000D01*
X56033655Y-71880165D01*
X55996671Y-71874679D01*
X55960402Y-71865594D01*
X55925198Y-71852998D01*
X55891398Y-71837012D01*
X55859328Y-71817790D01*
X55829296Y-71795517D01*
X55801592Y-71770408D01*
X55776483Y-71742704D01*
X55754210Y-71712672D01*
X55734988Y-71680602D01*
X55719002Y-71646802D01*
X55706406Y-71611598D01*
X55697321Y-71575329D01*
X55691835Y-71538345D01*
X55690000Y-71501000D01*
X55690000Y-70739000D01*
X55691835Y-70701655D01*
X55697321Y-70664671D01*
X55706406Y-70628402D01*
X55719002Y-70593198D01*
X55734988Y-70559398D01*
X55754210Y-70527328D01*
X55776483Y-70497296D01*
X55801592Y-70469592D01*
X55829296Y-70444483D01*
X55859328Y-70422210D01*
X55891398Y-70402988D01*
X55925198Y-70387002D01*
X55960402Y-70374406D01*
X55996671Y-70365321D01*
X56033655Y-70359835D01*
X56071000Y-70358000D01*
X63309000Y-70358000D01*
X63346345Y-70359835D01*
X63346345Y-70359835D01*
G37*
D11*
X59690000Y-71120000D03*
D10*
G36*
X63346345Y-72899835D02*
G01*
X63383329Y-72905321D01*
X63419598Y-72914406D01*
X63454802Y-72927002D01*
X63488602Y-72942988D01*
X63520672Y-72962210D01*
X63550704Y-72984483D01*
X63578408Y-73009592D01*
X63603517Y-73037296D01*
X63625790Y-73067328D01*
X63645012Y-73099398D01*
X63660998Y-73133198D01*
X63673594Y-73168402D01*
X63682679Y-73204671D01*
X63688165Y-73241655D01*
X63690000Y-73279000D01*
X63690000Y-74041000D01*
X63688165Y-74078345D01*
X63682679Y-74115329D01*
X63673594Y-74151598D01*
X63660998Y-74186802D01*
X63645012Y-74220602D01*
X63625790Y-74252672D01*
X63603517Y-74282704D01*
X63578408Y-74310408D01*
X63550704Y-74335517D01*
X63520672Y-74357790D01*
X63488602Y-74377012D01*
X63454802Y-74392998D01*
X63419598Y-74405594D01*
X63383329Y-74414679D01*
X63346345Y-74420165D01*
X63309000Y-74422000D01*
X56071000Y-74422000D01*
X56033655Y-74420165D01*
X55996671Y-74414679D01*
X55960402Y-74405594D01*
X55925198Y-74392998D01*
X55891398Y-74377012D01*
X55859328Y-74357790D01*
X55829296Y-74335517D01*
X55801592Y-74310408D01*
X55776483Y-74282704D01*
X55754210Y-74252672D01*
X55734988Y-74220602D01*
X55719002Y-74186802D01*
X55706406Y-74151598D01*
X55697321Y-74115329D01*
X55691835Y-74078345D01*
X55690000Y-74041000D01*
X55690000Y-73279000D01*
X55691835Y-73241655D01*
X55697321Y-73204671D01*
X55706406Y-73168402D01*
X55719002Y-73133198D01*
X55734988Y-73099398D01*
X55754210Y-73067328D01*
X55776483Y-73037296D01*
X55801592Y-73009592D01*
X55829296Y-72984483D01*
X55859328Y-72962210D01*
X55891398Y-72942988D01*
X55925198Y-72927002D01*
X55960402Y-72914406D01*
X55996671Y-72905321D01*
X56033655Y-72899835D01*
X56071000Y-72898000D01*
X63309000Y-72898000D01*
X63346345Y-72899835D01*
X63346345Y-72899835D01*
G37*
D11*
X59690000Y-73660000D03*
D12*
X81915000Y-66040000D03*
D13*
X66675000Y-33020000D03*
X81915000Y-63500000D03*
X66675000Y-35560000D03*
X81915000Y-60960000D03*
X66675000Y-38100000D03*
X81915000Y-58420000D03*
X66675000Y-40640000D03*
X81915000Y-55880000D03*
X66675000Y-43180000D03*
X81915000Y-53340000D03*
X66675000Y-45720000D03*
X81915000Y-50800000D03*
X66675000Y-48260000D03*
X81915000Y-48260000D03*
X66675000Y-50800000D03*
X81915000Y-45720000D03*
X66675000Y-53340000D03*
X81915000Y-43180000D03*
X66675000Y-55880000D03*
X81915000Y-40640000D03*
X66675000Y-58420000D03*
X81915000Y-38100000D03*
X66675000Y-60960000D03*
X81915000Y-35560000D03*
X66675000Y-63500000D03*
X81915000Y-33020000D03*
X66675000Y-66040000D03*
D14*
X76755000Y-69850000D03*
X71755000Y-69850000D03*
D15*
X79375000Y-69850000D03*
D16*
X81915000Y-69850000D03*
D15*
X66675000Y-69850000D03*
D16*
X69215000Y-69850000D03*
D17*
X66675000Y-73660000D03*
X69215000Y-73660000D03*
D18*
X71755000Y-73660000D03*
D17*
X78740000Y-73660000D03*
D18*
X81280000Y-73660000D03*
D19*
X80010000Y-71755000D03*
D20*
X81915000Y-33020000D02*
X73025000Y-33020000D01*
X73025000Y-33020000D02*
X71755000Y-34290000D01*
X71755000Y-34290000D02*
X71755000Y-69850000D01*
X71755000Y-69850000D02*
X71755000Y-73660000D01*
D21*
X66675000Y-33020000D02*
X59690000Y-33020000D01*
X66675000Y-35560000D02*
X59690000Y-35560000D01*
X66675000Y-38100000D02*
X59690000Y-38100000D01*
X66675000Y-40640000D02*
X59690000Y-40640000D01*
X66675000Y-43180000D02*
X59690000Y-43180000D01*
X66675000Y-45720000D02*
X59690000Y-45720000D01*
X66675000Y-48260000D02*
X59690000Y-48260000D01*
X66675000Y-50800000D02*
X59690000Y-50800000D01*
X66675000Y-53340000D02*
X59690000Y-53340000D01*
X66675000Y-55880000D02*
X59690000Y-55880000D01*
X66675000Y-58420000D02*
X59690000Y-58420000D01*
X66675000Y-60960000D02*
X59690000Y-60960000D01*
X69215000Y-64135000D02*
X68580000Y-63500000D01*
X68580000Y-63500000D02*
X66675000Y-63500000D01*
X69215000Y-69850000D02*
X69215000Y-64135000D01*
D20*
X59690000Y-66040000D02*
X66675000Y-66040000D01*
X66675000Y-66040000D02*
X66675000Y-69850000D01*
D21*
X80010000Y-71755000D02*
X80645000Y-71120000D01*
X80645000Y-71120000D02*
X81915000Y-69850000D01*
X81915000Y-67090000D02*
X81915000Y-66040000D01*
X81915000Y-69850000D02*
X81915000Y-67090000D01*
X66040000Y-64770000D02*
X67310000Y-64770000D01*
X64770000Y-63500000D02*
X66040000Y-64770000D01*
X59690000Y-63500000D02*
X64770000Y-63500000D01*
X67524999Y-72810001D02*
X66675000Y-73660000D01*
X67850001Y-65310001D02*
X67850001Y-72484999D01*
X67850001Y-72484999D02*
X67524999Y-72810001D01*
X67310000Y-64770000D02*
X67850001Y-65310001D01*
D22*
G36*
X80895392Y-34039608D02*
G01*
X81113899Y-34218932D01*
X81246858Y-34290000D01*
X81113899Y-34361068D01*
X80895392Y-34540392D01*
X80716068Y-34758899D01*
X80582818Y-35008192D01*
X80500764Y-35278691D01*
X80473057Y-35560000D01*
X80500764Y-35841309D01*
X80582818Y-36111808D01*
X80716068Y-36361101D01*
X80895392Y-36579608D01*
X81113899Y-36758932D01*
X81246858Y-36830000D01*
X81113899Y-36901068D01*
X80895392Y-37080392D01*
X80716068Y-37298899D01*
X80582818Y-37548192D01*
X80500764Y-37818691D01*
X80473057Y-38100000D01*
X80500764Y-38381309D01*
X80582818Y-38651808D01*
X80716068Y-38901101D01*
X80895392Y-39119608D01*
X81113899Y-39298932D01*
X81246858Y-39370000D01*
X81113899Y-39441068D01*
X80895392Y-39620392D01*
X80716068Y-39838899D01*
X80582818Y-40088192D01*
X80500764Y-40358691D01*
X80473057Y-40640000D01*
X80500764Y-40921309D01*
X80582818Y-41191808D01*
X80716068Y-41441101D01*
X80895392Y-41659608D01*
X81113899Y-41838932D01*
X81246858Y-41910000D01*
X81113899Y-41981068D01*
X80895392Y-42160392D01*
X80716068Y-42378899D01*
X80582818Y-42628192D01*
X80500764Y-42898691D01*
X80473057Y-43180000D01*
X80500764Y-43461309D01*
X80582818Y-43731808D01*
X80716068Y-43981101D01*
X80895392Y-44199608D01*
X81113899Y-44378932D01*
X81246858Y-44450000D01*
X81113899Y-44521068D01*
X80895392Y-44700392D01*
X80716068Y-44918899D01*
X80582818Y-45168192D01*
X80500764Y-45438691D01*
X80473057Y-45720000D01*
X80500764Y-46001309D01*
X80582818Y-46271808D01*
X80716068Y-46521101D01*
X80895392Y-46739608D01*
X81113899Y-46918932D01*
X81246858Y-46990000D01*
X81113899Y-47061068D01*
X80895392Y-47240392D01*
X80716068Y-47458899D01*
X80582818Y-47708192D01*
X80500764Y-47978691D01*
X80473057Y-48260000D01*
X80500764Y-48541309D01*
X80582818Y-48811808D01*
X80716068Y-49061101D01*
X80895392Y-49279608D01*
X81113899Y-49458932D01*
X81246858Y-49530000D01*
X81113899Y-49601068D01*
X80895392Y-49780392D01*
X80716068Y-49998899D01*
X80582818Y-50248192D01*
X80500764Y-50518691D01*
X80473057Y-50800000D01*
X80500764Y-51081309D01*
X80582818Y-51351808D01*
X80716068Y-51601101D01*
X80895392Y-51819608D01*
X81113899Y-51998932D01*
X81246858Y-52070000D01*
X81113899Y-52141068D01*
X80895392Y-52320392D01*
X80716068Y-52538899D01*
X80582818Y-52788192D01*
X80500764Y-53058691D01*
X80473057Y-53340000D01*
X80500764Y-53621309D01*
X80582818Y-53891808D01*
X80716068Y-54141101D01*
X80895392Y-54359608D01*
X81113899Y-54538932D01*
X81246858Y-54610000D01*
X81113899Y-54681068D01*
X80895392Y-54860392D01*
X80716068Y-55078899D01*
X80582818Y-55328192D01*
X80500764Y-55598691D01*
X80473057Y-55880000D01*
X80500764Y-56161309D01*
X80582818Y-56431808D01*
X80716068Y-56681101D01*
X80895392Y-56899608D01*
X81113899Y-57078932D01*
X81246858Y-57150000D01*
X81113899Y-57221068D01*
X80895392Y-57400392D01*
X80716068Y-57618899D01*
X80582818Y-57868192D01*
X80500764Y-58138691D01*
X80473057Y-58420000D01*
X80500764Y-58701309D01*
X80582818Y-58971808D01*
X80716068Y-59221101D01*
X80895392Y-59439608D01*
X81113899Y-59618932D01*
X81246858Y-59690000D01*
X81113899Y-59761068D01*
X80895392Y-59940392D01*
X80716068Y-60158899D01*
X80582818Y-60408192D01*
X80500764Y-60678691D01*
X80473057Y-60960000D01*
X80500764Y-61241309D01*
X80582818Y-61511808D01*
X80716068Y-61761101D01*
X80895392Y-61979608D01*
X81113899Y-62158932D01*
X81246858Y-62230000D01*
X81113899Y-62301068D01*
X80895392Y-62480392D01*
X80716068Y-62698899D01*
X80582818Y-62948192D01*
X80500764Y-63218691D01*
X80473057Y-63500000D01*
X80500764Y-63781309D01*
X80582818Y-64051808D01*
X80716068Y-64301101D01*
X80895392Y-64519608D01*
X81008482Y-64612419D01*
X80990518Y-64614188D01*
X80870820Y-64650498D01*
X80760506Y-64709463D01*
X80663815Y-64788815D01*
X80584463Y-64885506D01*
X80525498Y-64995820D01*
X80489188Y-65115518D01*
X80476928Y-65240000D01*
X80476928Y-66840000D01*
X80489188Y-66964482D01*
X80525498Y-67084180D01*
X80584463Y-67194494D01*
X80663815Y-67291185D01*
X80760506Y-67370537D01*
X80870820Y-67429502D01*
X80990518Y-67465812D01*
X81115000Y-67478072D01*
X81155001Y-67478072D01*
X81155000Y-68752225D01*
X81063987Y-68813038D01*
X80878038Y-68998987D01*
X80731939Y-69217641D01*
X80642506Y-69433550D01*
X80635047Y-69408956D01*
X80524792Y-69171608D01*
X80370351Y-68960330D01*
X80177660Y-68783241D01*
X79954123Y-68647147D01*
X79708330Y-68557278D01*
X79502000Y-68679799D01*
X79502000Y-69723000D01*
X79522000Y-69723000D01*
X79522000Y-69977000D01*
X79502000Y-69977000D01*
X79502000Y-69997000D01*
X79248000Y-69997000D01*
X79248000Y-69977000D01*
X79228000Y-69977000D01*
X79228000Y-69723000D01*
X79248000Y-69723000D01*
X79248000Y-68679799D01*
X79041670Y-68557278D01*
X78795877Y-68647147D01*
X78572340Y-68783241D01*
X78379649Y-68960330D01*
X78225208Y-69171608D01*
X78118525Y-69401267D01*
X78058603Y-69233708D01*
X77991671Y-69108486D01*
X77747702Y-69036903D01*
X76934605Y-69850000D01*
X77747702Y-70663097D01*
X77991671Y-70591514D01*
X78112571Y-70336004D01*
X78120726Y-70303471D01*
X78225208Y-70528392D01*
X78379649Y-70739670D01*
X78572340Y-70916759D01*
X78795877Y-71052853D01*
X79041670Y-71142722D01*
X79247998Y-71020202D01*
X79247998Y-71053291D01*
X79206063Y-71095226D01*
X79092795Y-71264744D01*
X79014774Y-71453102D01*
X78975000Y-71653061D01*
X78975000Y-71856939D01*
X79014774Y-72056898D01*
X79078556Y-72210879D01*
X79031111Y-72196487D01*
X78812950Y-72175000D01*
X78667050Y-72175000D01*
X78448889Y-72196487D01*
X78168966Y-72281401D01*
X77910986Y-72419294D01*
X77684866Y-72604866D01*
X77499294Y-72830986D01*
X77361401Y-73088966D01*
X77276487Y-73368889D01*
X77247815Y-73660000D01*
X77276487Y-73951111D01*
X77361401Y-74231034D01*
X77499294Y-74489014D01*
X77684866Y-74715134D01*
X77910986Y-74900706D01*
X78168966Y-75038599D01*
X78448889Y-75123513D01*
X78667050Y-75145000D01*
X78812950Y-75145000D01*
X79031111Y-75123513D01*
X79311034Y-75038599D01*
X79569014Y-74900706D01*
X79795134Y-74715134D01*
X79819607Y-74685313D01*
X79840498Y-74754180D01*
X79899463Y-74864494D01*
X79978815Y-74961185D01*
X80075506Y-75040537D01*
X80185820Y-75099502D01*
X80305518Y-75135812D01*
X80430000Y-75148072D01*
X82130000Y-75148072D01*
X82254482Y-75135812D01*
X82374180Y-75099502D01*
X82484494Y-75040537D01*
X82581185Y-74961185D01*
X82660537Y-74864494D01*
X82719502Y-74754180D01*
X82755812Y-74634482D01*
X82768072Y-74510000D01*
X82768072Y-72810000D01*
X82755812Y-72685518D01*
X82719502Y-72565820D01*
X82660537Y-72455506D01*
X82581185Y-72358815D01*
X82484494Y-72279463D01*
X82374180Y-72220498D01*
X82254482Y-72184188D01*
X82130000Y-72171928D01*
X80957579Y-72171928D01*
X81005226Y-72056898D01*
X81045000Y-71856939D01*
X81045000Y-71794802D01*
X81208799Y-71631003D01*
X81208803Y-71630998D01*
X81676156Y-71163645D01*
X81783514Y-71185000D01*
X82046486Y-71185000D01*
X82304405Y-71133696D01*
X82547359Y-71033061D01*
X82766013Y-70886962D01*
X82951962Y-70701013D01*
X83098061Y-70482359D01*
X83160001Y-70332823D01*
X83160001Y-75532715D01*
X83159335Y-75539513D01*
X83154699Y-75540000D01*
X64262000Y-75540000D01*
X64262000Y-74393072D01*
X64308491Y-74239811D01*
X64328072Y-74041000D01*
X64328072Y-73279000D01*
X64308491Y-73080189D01*
X64262000Y-72926928D01*
X64262000Y-71853072D01*
X64308491Y-71699811D01*
X64328072Y-71501000D01*
X64328072Y-70739000D01*
X64308491Y-70540189D01*
X64293735Y-70491546D01*
X64388793Y-70462710D01*
X64503450Y-70401425D01*
X64603948Y-70318948D01*
X64686425Y-70218450D01*
X64705197Y-70183329D01*
X65382284Y-70183329D01*
X65414953Y-70291044D01*
X65525208Y-70528392D01*
X65679649Y-70739670D01*
X65872340Y-70916759D01*
X66095877Y-71052853D01*
X66341670Y-71142722D01*
X66548000Y-71020201D01*
X66548000Y-69977000D01*
X65505626Y-69977000D01*
X65382284Y-70183329D01*
X64705197Y-70183329D01*
X64747710Y-70103793D01*
X64785450Y-69979383D01*
X64798193Y-69850000D01*
X64795000Y-69817581D01*
X64795000Y-69516671D01*
X65382284Y-69516671D01*
X65505626Y-69723000D01*
X66548000Y-69723000D01*
X66548000Y-68679799D01*
X66341670Y-68557278D01*
X66095877Y-68647147D01*
X65872340Y-68783241D01*
X65679649Y-68960330D01*
X65525208Y-69171608D01*
X65414953Y-69408956D01*
X65382284Y-69516671D01*
X64795000Y-69516671D01*
X64795000Y-67342419D01*
X64798193Y-67310000D01*
X64785450Y-67180617D01*
X64747710Y-67056207D01*
X64686425Y-66941550D01*
X64603948Y-66841052D01*
X64503450Y-66758575D01*
X64388793Y-66697290D01*
X64327276Y-66678629D01*
X64325409Y-66389039D01*
X65283096Y-66389039D01*
X65323754Y-66523087D01*
X65443963Y-66777420D01*
X65611481Y-67003414D01*
X65819869Y-67192385D01*
X66061119Y-67337070D01*
X66325960Y-67431909D01*
X66548000Y-67310624D01*
X66548000Y-66167000D01*
X65405085Y-66167000D01*
X65283096Y-66389039D01*
X64325409Y-66389039D01*
X64325000Y-66325750D01*
X64262000Y-66262750D01*
X64262000Y-65817250D01*
X64325000Y-65754250D01*
X64328072Y-65278000D01*
X64315812Y-65153518D01*
X64279502Y-65033820D01*
X64262000Y-65001077D01*
X64262000Y-64260000D01*
X64455199Y-64260000D01*
X65466872Y-65271674D01*
X65443963Y-65302580D01*
X65323754Y-65556913D01*
X65283096Y-65690961D01*
X65405085Y-65913000D01*
X66548000Y-65913000D01*
X66548000Y-65893000D01*
X66802000Y-65893000D01*
X66802000Y-65913000D01*
X66822000Y-65913000D01*
X66822000Y-66167000D01*
X66802000Y-66167000D01*
X66802000Y-67310624D01*
X67024040Y-67431909D01*
X67090001Y-67408288D01*
X67090001Y-68587139D01*
X67008330Y-68557278D01*
X66802000Y-68679799D01*
X66802000Y-69723000D01*
X66822000Y-69723000D01*
X66822000Y-69977000D01*
X66802000Y-69977000D01*
X66802000Y-71020201D01*
X67008330Y-71142722D01*
X67090002Y-71112860D01*
X67090002Y-72170197D01*
X67040996Y-72219203D01*
X66966111Y-72196487D01*
X66747950Y-72175000D01*
X66602050Y-72175000D01*
X66383889Y-72196487D01*
X66103966Y-72281401D01*
X65845986Y-72419294D01*
X65619866Y-72604866D01*
X65434294Y-72830986D01*
X65296401Y-73088966D01*
X65211487Y-73368889D01*
X65182815Y-73660000D01*
X65211487Y-73951111D01*
X65296401Y-74231034D01*
X65434294Y-74489014D01*
X65619866Y-74715134D01*
X65845986Y-74900706D01*
X66103966Y-75038599D01*
X66383889Y-75123513D01*
X66602050Y-75145000D01*
X66747950Y-75145000D01*
X66966111Y-75123513D01*
X67246034Y-75038599D01*
X67504014Y-74900706D01*
X67730134Y-74715134D01*
X67915706Y-74489014D01*
X67945000Y-74434209D01*
X67974294Y-74489014D01*
X68159866Y-74715134D01*
X68385986Y-74900706D01*
X68643966Y-75038599D01*
X68923889Y-75123513D01*
X69142050Y-75145000D01*
X69287950Y-75145000D01*
X69506111Y-75123513D01*
X69786034Y-75038599D01*
X70044014Y-74900706D01*
X70270134Y-74715134D01*
X70294607Y-74685313D01*
X70315498Y-74754180D01*
X70374463Y-74864494D01*
X70453815Y-74961185D01*
X70550506Y-75040537D01*
X70660820Y-75099502D01*
X70780518Y-75135812D01*
X70905000Y-75148072D01*
X72605000Y-75148072D01*
X72729482Y-75135812D01*
X72849180Y-75099502D01*
X72959494Y-75040537D01*
X73056185Y-74961185D01*
X73135537Y-74864494D01*
X73194502Y-74754180D01*
X73230812Y-74634482D01*
X73243072Y-74510000D01*
X73243072Y-72810000D01*
X73230812Y-72685518D01*
X73194502Y-72565820D01*
X73135537Y-72455506D01*
X73056185Y-72358815D01*
X72959494Y-72279463D01*
X72849180Y-72220498D01*
X72729482Y-72184188D01*
X72605000Y-72171928D01*
X72590000Y-72171928D01*
X72590000Y-71017930D01*
X72669759Y-70964637D01*
X72791694Y-70842702D01*
X75941903Y-70842702D01*
X76013486Y-71086671D01*
X76268996Y-71207571D01*
X76543184Y-71276300D01*
X76825512Y-71290217D01*
X77105130Y-71248787D01*
X77371292Y-71153603D01*
X77496514Y-71086671D01*
X77568097Y-70842702D01*
X76755000Y-70029605D01*
X75941903Y-70842702D01*
X72791694Y-70842702D01*
X72869637Y-70764759D01*
X73026680Y-70529727D01*
X73134853Y-70268574D01*
X73190000Y-69991335D01*
X73190000Y-69920512D01*
X75314783Y-69920512D01*
X75356213Y-70200130D01*
X75451397Y-70466292D01*
X75518329Y-70591514D01*
X75762298Y-70663097D01*
X76575395Y-69850000D01*
X75762298Y-69036903D01*
X75518329Y-69108486D01*
X75397429Y-69363996D01*
X75328700Y-69638184D01*
X75314783Y-69920512D01*
X73190000Y-69920512D01*
X73190000Y-69708665D01*
X73134853Y-69431426D01*
X73026680Y-69170273D01*
X72869637Y-68935241D01*
X72791694Y-68857298D01*
X75941903Y-68857298D01*
X76755000Y-69670395D01*
X77568097Y-68857298D01*
X77496514Y-68613329D01*
X77241004Y-68492429D01*
X76966816Y-68423700D01*
X76684488Y-68409783D01*
X76404870Y-68451213D01*
X76138708Y-68546397D01*
X76013486Y-68613329D01*
X75941903Y-68857298D01*
X72791694Y-68857298D01*
X72669759Y-68735363D01*
X72590000Y-68682070D01*
X72590000Y-34635867D01*
X73370868Y-33855000D01*
X80743888Y-33855000D01*
X80895392Y-34039608D01*
X80895392Y-34039608D01*
G37*
X80895392Y-34039608D02*
X81113899Y-34218932D01*
X81246858Y-34290000D01*
X81113899Y-34361068D01*
X80895392Y-34540392D01*
X80716068Y-34758899D01*
X80582818Y-35008192D01*
X80500764Y-35278691D01*
X80473057Y-35560000D01*
X80500764Y-35841309D01*
X80582818Y-36111808D01*
X80716068Y-36361101D01*
X80895392Y-36579608D01*
X81113899Y-36758932D01*
X81246858Y-36830000D01*
X81113899Y-36901068D01*
X80895392Y-37080392D01*
X80716068Y-37298899D01*
X80582818Y-37548192D01*
X80500764Y-37818691D01*
X80473057Y-38100000D01*
X80500764Y-38381309D01*
X80582818Y-38651808D01*
X80716068Y-38901101D01*
X80895392Y-39119608D01*
X81113899Y-39298932D01*
X81246858Y-39370000D01*
X81113899Y-39441068D01*
X80895392Y-39620392D01*
X80716068Y-39838899D01*
X80582818Y-40088192D01*
X80500764Y-40358691D01*
X80473057Y-40640000D01*
X80500764Y-40921309D01*
X80582818Y-41191808D01*
X80716068Y-41441101D01*
X80895392Y-41659608D01*
X81113899Y-41838932D01*
X81246858Y-41910000D01*
X81113899Y-41981068D01*
X80895392Y-42160392D01*
X80716068Y-42378899D01*
X80582818Y-42628192D01*
X80500764Y-42898691D01*
X80473057Y-43180000D01*
X80500764Y-43461309D01*
X80582818Y-43731808D01*
X80716068Y-43981101D01*
X80895392Y-44199608D01*
X81113899Y-44378932D01*
X81246858Y-44450000D01*
X81113899Y-44521068D01*
X80895392Y-44700392D01*
X80716068Y-44918899D01*
X80582818Y-45168192D01*
X80500764Y-45438691D01*
X80473057Y-45720000D01*
X80500764Y-46001309D01*
X80582818Y-46271808D01*
X80716068Y-46521101D01*
X80895392Y-46739608D01*
X81113899Y-46918932D01*
X81246858Y-46990000D01*
X81113899Y-47061068D01*
X80895392Y-47240392D01*
X80716068Y-47458899D01*
X80582818Y-47708192D01*
X80500764Y-47978691D01*
X80473057Y-48260000D01*
X80500764Y-48541309D01*
X80582818Y-48811808D01*
X80716068Y-49061101D01*
X80895392Y-49279608D01*
X81113899Y-49458932D01*
X81246858Y-49530000D01*
X81113899Y-49601068D01*
X80895392Y-49780392D01*
X80716068Y-49998899D01*
X80582818Y-50248192D01*
X80500764Y-50518691D01*
X80473057Y-50800000D01*
X80500764Y-51081309D01*
X80582818Y-51351808D01*
X80716068Y-51601101D01*
X80895392Y-51819608D01*
X81113899Y-51998932D01*
X81246858Y-52070000D01*
X81113899Y-52141068D01*
X80895392Y-52320392D01*
X80716068Y-52538899D01*
X80582818Y-52788192D01*
X80500764Y-53058691D01*
X80473057Y-53340000D01*
X80500764Y-53621309D01*
X80582818Y-53891808D01*
X80716068Y-54141101D01*
X80895392Y-54359608D01*
X81113899Y-54538932D01*
X81246858Y-54610000D01*
X81113899Y-54681068D01*
X80895392Y-54860392D01*
X80716068Y-55078899D01*
X80582818Y-55328192D01*
X80500764Y-55598691D01*
X80473057Y-55880000D01*
X80500764Y-56161309D01*
X80582818Y-56431808D01*
X80716068Y-56681101D01*
X80895392Y-56899608D01*
X81113899Y-57078932D01*
X81246858Y-57150000D01*
X81113899Y-57221068D01*
X80895392Y-57400392D01*
X80716068Y-57618899D01*
X80582818Y-57868192D01*
X80500764Y-58138691D01*
X80473057Y-58420000D01*
X80500764Y-58701309D01*
X80582818Y-58971808D01*
X80716068Y-59221101D01*
X80895392Y-59439608D01*
X81113899Y-59618932D01*
X81246858Y-59690000D01*
X81113899Y-59761068D01*
X80895392Y-59940392D01*
X80716068Y-60158899D01*
X80582818Y-60408192D01*
X80500764Y-60678691D01*
X80473057Y-60960000D01*
X80500764Y-61241309D01*
X80582818Y-61511808D01*
X80716068Y-61761101D01*
X80895392Y-61979608D01*
X81113899Y-62158932D01*
X81246858Y-62230000D01*
X81113899Y-62301068D01*
X80895392Y-62480392D01*
X80716068Y-62698899D01*
X80582818Y-62948192D01*
X80500764Y-63218691D01*
X80473057Y-63500000D01*
X80500764Y-63781309D01*
X80582818Y-64051808D01*
X80716068Y-64301101D01*
X80895392Y-64519608D01*
X81008482Y-64612419D01*
X80990518Y-64614188D01*
X80870820Y-64650498D01*
X80760506Y-64709463D01*
X80663815Y-64788815D01*
X80584463Y-64885506D01*
X80525498Y-64995820D01*
X80489188Y-65115518D01*
X80476928Y-65240000D01*
X80476928Y-66840000D01*
X80489188Y-66964482D01*
X80525498Y-67084180D01*
X80584463Y-67194494D01*
X80663815Y-67291185D01*
X80760506Y-67370537D01*
X80870820Y-67429502D01*
X80990518Y-67465812D01*
X81115000Y-67478072D01*
X81155001Y-67478072D01*
X81155000Y-68752225D01*
X81063987Y-68813038D01*
X80878038Y-68998987D01*
X80731939Y-69217641D01*
X80642506Y-69433550D01*
X80635047Y-69408956D01*
X80524792Y-69171608D01*
X80370351Y-68960330D01*
X80177660Y-68783241D01*
X79954123Y-68647147D01*
X79708330Y-68557278D01*
X79502000Y-68679799D01*
X79502000Y-69723000D01*
X79522000Y-69723000D01*
X79522000Y-69977000D01*
X79502000Y-69977000D01*
X79502000Y-69997000D01*
X79248000Y-69997000D01*
X79248000Y-69977000D01*
X79228000Y-69977000D01*
X79228000Y-69723000D01*
X79248000Y-69723000D01*
X79248000Y-68679799D01*
X79041670Y-68557278D01*
X78795877Y-68647147D01*
X78572340Y-68783241D01*
X78379649Y-68960330D01*
X78225208Y-69171608D01*
X78118525Y-69401267D01*
X78058603Y-69233708D01*
X77991671Y-69108486D01*
X77747702Y-69036903D01*
X76934605Y-69850000D01*
X77747702Y-70663097D01*
X77991671Y-70591514D01*
X78112571Y-70336004D01*
X78120726Y-70303471D01*
X78225208Y-70528392D01*
X78379649Y-70739670D01*
X78572340Y-70916759D01*
X78795877Y-71052853D01*
X79041670Y-71142722D01*
X79247998Y-71020202D01*
X79247998Y-71053291D01*
X79206063Y-71095226D01*
X79092795Y-71264744D01*
X79014774Y-71453102D01*
X78975000Y-71653061D01*
X78975000Y-71856939D01*
X79014774Y-72056898D01*
X79078556Y-72210879D01*
X79031111Y-72196487D01*
X78812950Y-72175000D01*
X78667050Y-72175000D01*
X78448889Y-72196487D01*
X78168966Y-72281401D01*
X77910986Y-72419294D01*
X77684866Y-72604866D01*
X77499294Y-72830986D01*
X77361401Y-73088966D01*
X77276487Y-73368889D01*
X77247815Y-73660000D01*
X77276487Y-73951111D01*
X77361401Y-74231034D01*
X77499294Y-74489014D01*
X77684866Y-74715134D01*
X77910986Y-74900706D01*
X78168966Y-75038599D01*
X78448889Y-75123513D01*
X78667050Y-75145000D01*
X78812950Y-75145000D01*
X79031111Y-75123513D01*
X79311034Y-75038599D01*
X79569014Y-74900706D01*
X79795134Y-74715134D01*
X79819607Y-74685313D01*
X79840498Y-74754180D01*
X79899463Y-74864494D01*
X79978815Y-74961185D01*
X80075506Y-75040537D01*
X80185820Y-75099502D01*
X80305518Y-75135812D01*
X80430000Y-75148072D01*
X82130000Y-75148072D01*
X82254482Y-75135812D01*
X82374180Y-75099502D01*
X82484494Y-75040537D01*
X82581185Y-74961185D01*
X82660537Y-74864494D01*
X82719502Y-74754180D01*
X82755812Y-74634482D01*
X82768072Y-74510000D01*
X82768072Y-72810000D01*
X82755812Y-72685518D01*
X82719502Y-72565820D01*
X82660537Y-72455506D01*
X82581185Y-72358815D01*
X82484494Y-72279463D01*
X82374180Y-72220498D01*
X82254482Y-72184188D01*
X82130000Y-72171928D01*
X80957579Y-72171928D01*
X81005226Y-72056898D01*
X81045000Y-71856939D01*
X81045000Y-71794802D01*
X81208799Y-71631003D01*
X81208803Y-71630998D01*
X81676156Y-71163645D01*
X81783514Y-71185000D01*
X82046486Y-71185000D01*
X82304405Y-71133696D01*
X82547359Y-71033061D01*
X82766013Y-70886962D01*
X82951962Y-70701013D01*
X83098061Y-70482359D01*
X83160001Y-70332823D01*
X83160001Y-75532715D01*
X83159335Y-75539513D01*
X83154699Y-75540000D01*
X64262000Y-75540000D01*
X64262000Y-74393072D01*
X64308491Y-74239811D01*
X64328072Y-74041000D01*
X64328072Y-73279000D01*
X64308491Y-73080189D01*
X64262000Y-72926928D01*
X64262000Y-71853072D01*
X64308491Y-71699811D01*
X64328072Y-71501000D01*
X64328072Y-70739000D01*
X64308491Y-70540189D01*
X64293735Y-70491546D01*
X64388793Y-70462710D01*
X64503450Y-70401425D01*
X64603948Y-70318948D01*
X64686425Y-70218450D01*
X64705197Y-70183329D01*
X65382284Y-70183329D01*
X65414953Y-70291044D01*
X65525208Y-70528392D01*
X65679649Y-70739670D01*
X65872340Y-70916759D01*
X66095877Y-71052853D01*
X66341670Y-71142722D01*
X66548000Y-71020201D01*
X66548000Y-69977000D01*
X65505626Y-69977000D01*
X65382284Y-70183329D01*
X64705197Y-70183329D01*
X64747710Y-70103793D01*
X64785450Y-69979383D01*
X64798193Y-69850000D01*
X64795000Y-69817581D01*
X64795000Y-69516671D01*
X65382284Y-69516671D01*
X65505626Y-69723000D01*
X66548000Y-69723000D01*
X66548000Y-68679799D01*
X66341670Y-68557278D01*
X66095877Y-68647147D01*
X65872340Y-68783241D01*
X65679649Y-68960330D01*
X65525208Y-69171608D01*
X65414953Y-69408956D01*
X65382284Y-69516671D01*
X64795000Y-69516671D01*
X64795000Y-67342419D01*
X64798193Y-67310000D01*
X64785450Y-67180617D01*
X64747710Y-67056207D01*
X64686425Y-66941550D01*
X64603948Y-66841052D01*
X64503450Y-66758575D01*
X64388793Y-66697290D01*
X64327276Y-66678629D01*
X64325409Y-66389039D01*
X65283096Y-66389039D01*
X65323754Y-66523087D01*
X65443963Y-66777420D01*
X65611481Y-67003414D01*
X65819869Y-67192385D01*
X66061119Y-67337070D01*
X66325960Y-67431909D01*
X66548000Y-67310624D01*
X66548000Y-66167000D01*
X65405085Y-66167000D01*
X65283096Y-66389039D01*
X64325409Y-66389039D01*
X64325000Y-66325750D01*
X64262000Y-66262750D01*
X64262000Y-65817250D01*
X64325000Y-65754250D01*
X64328072Y-65278000D01*
X64315812Y-65153518D01*
X64279502Y-65033820D01*
X64262000Y-65001077D01*
X64262000Y-64260000D01*
X64455199Y-64260000D01*
X65466872Y-65271674D01*
X65443963Y-65302580D01*
X65323754Y-65556913D01*
X65283096Y-65690961D01*
X65405085Y-65913000D01*
X66548000Y-65913000D01*
X66548000Y-65893000D01*
X66802000Y-65893000D01*
X66802000Y-65913000D01*
X66822000Y-65913000D01*
X66822000Y-66167000D01*
X66802000Y-66167000D01*
X66802000Y-67310624D01*
X67024040Y-67431909D01*
X67090001Y-67408288D01*
X67090001Y-68587139D01*
X67008330Y-68557278D01*
X66802000Y-68679799D01*
X66802000Y-69723000D01*
X66822000Y-69723000D01*
X66822000Y-69977000D01*
X66802000Y-69977000D01*
X66802000Y-71020201D01*
X67008330Y-71142722D01*
X67090002Y-71112860D01*
X67090002Y-72170197D01*
X67040996Y-72219203D01*
X66966111Y-72196487D01*
X66747950Y-72175000D01*
X66602050Y-72175000D01*
X66383889Y-72196487D01*
X66103966Y-72281401D01*
X65845986Y-72419294D01*
X65619866Y-72604866D01*
X65434294Y-72830986D01*
X65296401Y-73088966D01*
X65211487Y-73368889D01*
X65182815Y-73660000D01*
X65211487Y-73951111D01*
X65296401Y-74231034D01*
X65434294Y-74489014D01*
X65619866Y-74715134D01*
X65845986Y-74900706D01*
X66103966Y-75038599D01*
X66383889Y-75123513D01*
X66602050Y-75145000D01*
X66747950Y-75145000D01*
X66966111Y-75123513D01*
X67246034Y-75038599D01*
X67504014Y-74900706D01*
X67730134Y-74715134D01*
X67915706Y-74489014D01*
X67945000Y-74434209D01*
X67974294Y-74489014D01*
X68159866Y-74715134D01*
X68385986Y-74900706D01*
X68643966Y-75038599D01*
X68923889Y-75123513D01*
X69142050Y-75145000D01*
X69287950Y-75145000D01*
X69506111Y-75123513D01*
X69786034Y-75038599D01*
X70044014Y-74900706D01*
X70270134Y-74715134D01*
X70294607Y-74685313D01*
X70315498Y-74754180D01*
X70374463Y-74864494D01*
X70453815Y-74961185D01*
X70550506Y-75040537D01*
X70660820Y-75099502D01*
X70780518Y-75135812D01*
X70905000Y-75148072D01*
X72605000Y-75148072D01*
X72729482Y-75135812D01*
X72849180Y-75099502D01*
X72959494Y-75040537D01*
X73056185Y-74961185D01*
X73135537Y-74864494D01*
X73194502Y-74754180D01*
X73230812Y-74634482D01*
X73243072Y-74510000D01*
X73243072Y-72810000D01*
X73230812Y-72685518D01*
X73194502Y-72565820D01*
X73135537Y-72455506D01*
X73056185Y-72358815D01*
X72959494Y-72279463D01*
X72849180Y-72220498D01*
X72729482Y-72184188D01*
X72605000Y-72171928D01*
X72590000Y-72171928D01*
X72590000Y-71017930D01*
X72669759Y-70964637D01*
X72791694Y-70842702D01*
X75941903Y-70842702D01*
X76013486Y-71086671D01*
X76268996Y-71207571D01*
X76543184Y-71276300D01*
X76825512Y-71290217D01*
X77105130Y-71248787D01*
X77371292Y-71153603D01*
X77496514Y-71086671D01*
X77568097Y-70842702D01*
X76755000Y-70029605D01*
X75941903Y-70842702D01*
X72791694Y-70842702D01*
X72869637Y-70764759D01*
X73026680Y-70529727D01*
X73134853Y-70268574D01*
X73190000Y-69991335D01*
X73190000Y-69920512D01*
X75314783Y-69920512D01*
X75356213Y-70200130D01*
X75451397Y-70466292D01*
X75518329Y-70591514D01*
X75762298Y-70663097D01*
X76575395Y-69850000D01*
X75762298Y-69036903D01*
X75518329Y-69108486D01*
X75397429Y-69363996D01*
X75328700Y-69638184D01*
X75314783Y-69920512D01*
X73190000Y-69920512D01*
X73190000Y-69708665D01*
X73134853Y-69431426D01*
X73026680Y-69170273D01*
X72869637Y-68935241D01*
X72791694Y-68857298D01*
X75941903Y-68857298D01*
X76755000Y-69670395D01*
X77568097Y-68857298D01*
X77496514Y-68613329D01*
X77241004Y-68492429D01*
X76966816Y-68423700D01*
X76684488Y-68409783D01*
X76404870Y-68451213D01*
X76138708Y-68546397D01*
X76013486Y-68613329D01*
X75941903Y-68857298D01*
X72791694Y-68857298D01*
X72669759Y-68735363D01*
X72590000Y-68682070D01*
X72590000Y-34635867D01*
X73370868Y-33855000D01*
X80743888Y-33855000D01*
X80895392Y-34039608D01*
M02*
