%FSLAX45Y45*%
G04 Gerber Fmt 4.5, Leading zero omitted, Abs format (unit mm)*
G04 Created by KiCad (PCBNEW (5.1.2-1)-1) date 2022-05-31 00:06:21*
%MOMM*%
%LPD*%
G04 APERTURE LIST*
%ADD10C,0.050000*%
%ADD11C,0.200000*%
%ADD12C,0.300000*%
G04 APERTURE END LIST*
D10*
X8318500Y-2794000D02*
G75*
G02X8382000Y-2857500I0J-63500D01*
G01*
X8382000Y-7556500D02*
G75*
G02X8318500Y-7620000I-63500J0D01*
G01*
X5651500Y-7620000D02*
G75*
G02X5588000Y-7556500I0J63500D01*
G01*
X5588000Y-2857500D02*
G75*
G02X5651500Y-2794000I63500J0D01*
G01*
X5651500Y-2794000D02*
X8318500Y-2794000D01*
X5588000Y-6731000D02*
X5588000Y-2857500D01*
X6413500Y-6731000D02*
X5588000Y-6731000D01*
X6413500Y-6985000D02*
X6413500Y-6731000D01*
X5588000Y-6985000D02*
X6413500Y-6985000D01*
X5588000Y-7556500D02*
X5588000Y-6985000D01*
X8318500Y-7620000D02*
X5651500Y-7620000D01*
X8382000Y-2857500D02*
X8382000Y-7556500D01*
D11*
X7981000Y-7155500D02*
X8021000Y-7195500D01*
X8021000Y-7155500D02*
X7981000Y-7195500D01*
X7972500Y-6985000D02*
G75*
G03X7972500Y-6985000I-35000J0D01*
G01*
X8226500Y-6985000D02*
G75*
G03X8226500Y-6985000I-35000J0D01*
G01*
X6702500Y-6985000D02*
G75*
G03X6702500Y-6985000I-35000J0D01*
G01*
X6956500Y-6985000D02*
G75*
G03X6956500Y-6985000I-35000J0D01*
G01*
X7175500Y-6945000D02*
X7175500Y-7025000D01*
X7135500Y-6985000D02*
X7215500Y-6985000D01*
X7675500Y-6945000D02*
X7675500Y-7025000D01*
X7635500Y-6985000D02*
X7715500Y-6985000D01*
X6667500Y-3262000D02*
X6667500Y-3342000D01*
X6627500Y-3302000D02*
X6707500Y-3302000D01*
X6667500Y-3516000D02*
X6667500Y-3596000D01*
X6627500Y-3556000D02*
X6707500Y-3556000D01*
X6667500Y-3770000D02*
X6667500Y-3850000D01*
X6627500Y-3810000D02*
X6707500Y-3810000D01*
X6667500Y-4024000D02*
X6667500Y-4104000D01*
X6627500Y-4064000D02*
X6707500Y-4064000D01*
X6667500Y-4278000D02*
X6667500Y-4358000D01*
X6627500Y-4318000D02*
X6707500Y-4318000D01*
X6667500Y-4532000D02*
X6667500Y-4612000D01*
X6627500Y-4572000D02*
X6707500Y-4572000D01*
X6667500Y-4786000D02*
X6667500Y-4866000D01*
X6627500Y-4826000D02*
X6707500Y-4826000D01*
X6667500Y-5040000D02*
X6667500Y-5120000D01*
X6627500Y-5080000D02*
X6707500Y-5080000D01*
X6667500Y-5294000D02*
X6667500Y-5374000D01*
X6627500Y-5334000D02*
X6707500Y-5334000D01*
X6667500Y-5548000D02*
X6667500Y-5628000D01*
X6627500Y-5588000D02*
X6707500Y-5588000D01*
X6667500Y-5802000D02*
X6667500Y-5882000D01*
X6627500Y-5842000D02*
X6707500Y-5842000D01*
X6667500Y-6056000D02*
X6667500Y-6136000D01*
X6627500Y-6096000D02*
X6707500Y-6096000D01*
X6667500Y-6310000D02*
X6667500Y-6390000D01*
X6627500Y-6350000D02*
X6707500Y-6350000D01*
X6667500Y-6564000D02*
X6667500Y-6644000D01*
X6627500Y-6604000D02*
X6707500Y-6604000D01*
X8191500Y-3262000D02*
X8191500Y-3342000D01*
X8151500Y-3302000D02*
X8231500Y-3302000D01*
X8191500Y-3516000D02*
X8191500Y-3596000D01*
X8151500Y-3556000D02*
X8231500Y-3556000D01*
X8191500Y-3770000D02*
X8191500Y-3850000D01*
X8151500Y-3810000D02*
X8231500Y-3810000D01*
X8191500Y-4024000D02*
X8191500Y-4104000D01*
X8151500Y-4064000D02*
X8231500Y-4064000D01*
X8191500Y-4278000D02*
X8191500Y-4358000D01*
X8151500Y-4318000D02*
X8231500Y-4318000D01*
X8191500Y-4532000D02*
X8191500Y-4612000D01*
X8151500Y-4572000D02*
X8231500Y-4572000D01*
X8191500Y-4786000D02*
X8191500Y-4866000D01*
X8151500Y-4826000D02*
X8231500Y-4826000D01*
X8191500Y-5040000D02*
X8191500Y-5120000D01*
X8151500Y-5080000D02*
X8231500Y-5080000D01*
X8191500Y-5294000D02*
X8191500Y-5374000D01*
X8151500Y-5334000D02*
X8231500Y-5334000D01*
X8191500Y-5548000D02*
X8191500Y-5628000D01*
X8151500Y-5588000D02*
X8231500Y-5588000D01*
X8191500Y-5802000D02*
X8191500Y-5882000D01*
X8151500Y-5842000D02*
X8231500Y-5842000D01*
X8191500Y-6056000D02*
X8191500Y-6136000D01*
X8151500Y-6096000D02*
X8231500Y-6096000D01*
X8191500Y-6310000D02*
X8191500Y-6390000D01*
X8151500Y-6350000D02*
X8231500Y-6350000D01*
X8191500Y-6564000D02*
X8191500Y-6644000D01*
X8151500Y-6604000D02*
X8231500Y-6604000D01*
X6702856Y-7401356D02*
X6702856Y-7330644D01*
X6632144Y-7330644D01*
X6632144Y-7401356D01*
X6702856Y-7401356D01*
X6956856Y-7401356D02*
X6956856Y-7330644D01*
X6886144Y-7330644D01*
X6886144Y-7401356D01*
X6956856Y-7401356D01*
X7210856Y-7401356D02*
X7210856Y-7330644D01*
X7140144Y-7330644D01*
X7140144Y-7401356D01*
X7210856Y-7401356D01*
X7909356Y-7401356D02*
X7909356Y-7330644D01*
X7838644Y-7330644D01*
X7838644Y-7401356D01*
X7909356Y-7401356D01*
X8163356Y-7401356D02*
X8163356Y-7330644D01*
X8092644Y-7330644D01*
X8092644Y-7401356D01*
X8163356Y-7401356D01*
D12*
X5871928Y-8088214D02*
X5871928Y-7788214D01*
X5943357Y-7788214D01*
X5986214Y-7802500D01*
X6014786Y-7831071D01*
X6029071Y-7859643D01*
X6043357Y-7916786D01*
X6043357Y-7959643D01*
X6029071Y-8016786D01*
X6014786Y-8045357D01*
X5986214Y-8073929D01*
X5943357Y-8088214D01*
X5871928Y-8088214D01*
X6171928Y-8088214D02*
X6171928Y-7888214D01*
X6171928Y-7945357D02*
X6186214Y-7916786D01*
X6200500Y-7902500D01*
X6229071Y-7888214D01*
X6257643Y-7888214D01*
X6357643Y-8088214D02*
X6357643Y-7888214D01*
X6357643Y-7788214D02*
X6343357Y-7802500D01*
X6357643Y-7816786D01*
X6371928Y-7802500D01*
X6357643Y-7788214D01*
X6357643Y-7816786D01*
X6543357Y-8088214D02*
X6514786Y-8073929D01*
X6500500Y-8045357D01*
X6500500Y-7788214D01*
X6700500Y-8088214D02*
X6671928Y-8073929D01*
X6657643Y-8045357D01*
X6657643Y-7788214D01*
X7043357Y-8088214D02*
X7043357Y-7788214D01*
X7143357Y-8002500D01*
X7243357Y-7788214D01*
X7243357Y-8088214D01*
X7514786Y-8088214D02*
X7514786Y-7931071D01*
X7500500Y-7902500D01*
X7471928Y-7888214D01*
X7414786Y-7888214D01*
X7386214Y-7902500D01*
X7514786Y-8073929D02*
X7486214Y-8088214D01*
X7414786Y-8088214D01*
X7386214Y-8073929D01*
X7371928Y-8045357D01*
X7371928Y-8016786D01*
X7386214Y-7988214D01*
X7414786Y-7973929D01*
X7486214Y-7973929D01*
X7514786Y-7959643D01*
X7657643Y-7888214D02*
X7657643Y-8188214D01*
X7657643Y-7902500D02*
X7686214Y-7888214D01*
X7743357Y-7888214D01*
X7771928Y-7902500D01*
X7786214Y-7916786D01*
X7800500Y-7945357D01*
X7800500Y-8031071D01*
X7786214Y-8059643D01*
X7771928Y-8073929D01*
X7743357Y-8088214D01*
X7686214Y-8088214D01*
X7657643Y-8073929D01*
X7929071Y-8059643D02*
X7943357Y-8073929D01*
X7929071Y-8088214D01*
X7914786Y-8073929D01*
X7929071Y-8059643D01*
X7929071Y-8088214D01*
X7929071Y-7902500D02*
X7943357Y-7916786D01*
X7929071Y-7931071D01*
X7914786Y-7916786D01*
X7929071Y-7902500D01*
X7929071Y-7931071D01*
X5545500Y-8562500D02*
X5585500Y-8602500D01*
X5585500Y-8562500D02*
X5545500Y-8602500D01*
X5929071Y-8418214D02*
X5957643Y-8418214D01*
X5986214Y-8432500D01*
X6000500Y-8446786D01*
X6014786Y-8475357D01*
X6029071Y-8532500D01*
X6029071Y-8603929D01*
X6014786Y-8661072D01*
X6000500Y-8689643D01*
X5986214Y-8703929D01*
X5957643Y-8718214D01*
X5929071Y-8718214D01*
X5900500Y-8703929D01*
X5886214Y-8689643D01*
X5871928Y-8661072D01*
X5857643Y-8603929D01*
X5857643Y-8532500D01*
X5871928Y-8475357D01*
X5886214Y-8446786D01*
X5900500Y-8432500D01*
X5929071Y-8418214D01*
X6157643Y-8689643D02*
X6171928Y-8703929D01*
X6157643Y-8718214D01*
X6143357Y-8703929D01*
X6157643Y-8689643D01*
X6157643Y-8718214D01*
X6429071Y-8518214D02*
X6429071Y-8718214D01*
X6357643Y-8403929D02*
X6286214Y-8618214D01*
X6471928Y-8618214D01*
X6643357Y-8418214D02*
X6671928Y-8418214D01*
X6700500Y-8432500D01*
X6714786Y-8446786D01*
X6729071Y-8475357D01*
X6743357Y-8532500D01*
X6743357Y-8603929D01*
X6729071Y-8661072D01*
X6714786Y-8689643D01*
X6700500Y-8703929D01*
X6671928Y-8718214D01*
X6643357Y-8718214D01*
X6614786Y-8703929D01*
X6600500Y-8689643D01*
X6586214Y-8661072D01*
X6571928Y-8603929D01*
X6571928Y-8532500D01*
X6586214Y-8475357D01*
X6600500Y-8446786D01*
X6614786Y-8432500D01*
X6643357Y-8418214D01*
X6871928Y-8718214D02*
X6871928Y-8518214D01*
X6871928Y-8546786D02*
X6886214Y-8532500D01*
X6914786Y-8518214D01*
X6957643Y-8518214D01*
X6986214Y-8532500D01*
X7000500Y-8561072D01*
X7000500Y-8718214D01*
X7000500Y-8561072D02*
X7014786Y-8532500D01*
X7043357Y-8518214D01*
X7086214Y-8518214D01*
X7114786Y-8532500D01*
X7129071Y-8561072D01*
X7129071Y-8718214D01*
X7271928Y-8718214D02*
X7271928Y-8518214D01*
X7271928Y-8546786D02*
X7286214Y-8532500D01*
X7314786Y-8518214D01*
X7357643Y-8518214D01*
X7386214Y-8532500D01*
X7400500Y-8561072D01*
X7400500Y-8718214D01*
X7400500Y-8561072D02*
X7414786Y-8532500D01*
X7443357Y-8518214D01*
X7486214Y-8518214D01*
X7514786Y-8532500D01*
X7529071Y-8561072D01*
X7529071Y-8718214D01*
X8114786Y-8403929D02*
X7857643Y-8789643D01*
X8500500Y-8418214D02*
X8529071Y-8418214D01*
X8557643Y-8432500D01*
X8571928Y-8446786D01*
X8586214Y-8475357D01*
X8600500Y-8532500D01*
X8600500Y-8603929D01*
X8586214Y-8661072D01*
X8571928Y-8689643D01*
X8557643Y-8703929D01*
X8529071Y-8718214D01*
X8500500Y-8718214D01*
X8471928Y-8703929D01*
X8457643Y-8689643D01*
X8443357Y-8661072D01*
X8429071Y-8603929D01*
X8429071Y-8532500D01*
X8443357Y-8475357D01*
X8457643Y-8446786D01*
X8471928Y-8432500D01*
X8500500Y-8418214D01*
X8729071Y-8689643D02*
X8743357Y-8703929D01*
X8729071Y-8718214D01*
X8714786Y-8703929D01*
X8729071Y-8689643D01*
X8729071Y-8718214D01*
X8929071Y-8418214D02*
X8957643Y-8418214D01*
X8986214Y-8432500D01*
X9000500Y-8446786D01*
X9014786Y-8475357D01*
X9029071Y-8532500D01*
X9029071Y-8603929D01*
X9014786Y-8661072D01*
X9000500Y-8689643D01*
X8986214Y-8703929D01*
X8957643Y-8718214D01*
X8929071Y-8718214D01*
X8900500Y-8703929D01*
X8886214Y-8689643D01*
X8871928Y-8661072D01*
X8857643Y-8603929D01*
X8857643Y-8532500D01*
X8871928Y-8475357D01*
X8886214Y-8446786D01*
X8900500Y-8432500D01*
X8929071Y-8418214D01*
X9314786Y-8718214D02*
X9143357Y-8718214D01*
X9229071Y-8718214D02*
X9229071Y-8418214D01*
X9200500Y-8461072D01*
X9171928Y-8489643D01*
X9143357Y-8503929D01*
X9571928Y-8418214D02*
X9514786Y-8418214D01*
X9486214Y-8432500D01*
X9471928Y-8446786D01*
X9443357Y-8489643D01*
X9429071Y-8546786D01*
X9429071Y-8661072D01*
X9443357Y-8689643D01*
X9457643Y-8703929D01*
X9486214Y-8718214D01*
X9543357Y-8718214D01*
X9571928Y-8703929D01*
X9586214Y-8689643D01*
X9600500Y-8661072D01*
X9600500Y-8589643D01*
X9586214Y-8561072D01*
X9571928Y-8546786D01*
X9543357Y-8532500D01*
X9486214Y-8532500D01*
X9457643Y-8546786D01*
X9443357Y-8561072D01*
X9429071Y-8589643D01*
X9714786Y-8418214D02*
X9714786Y-8475357D01*
X9829071Y-8418214D02*
X9829071Y-8475357D01*
X10271928Y-8832500D02*
X10257643Y-8818214D01*
X10229071Y-8775357D01*
X10214786Y-8746786D01*
X10200500Y-8703929D01*
X10186214Y-8632500D01*
X10186214Y-8575357D01*
X10200500Y-8503929D01*
X10214786Y-8461072D01*
X10229071Y-8432500D01*
X10257643Y-8389643D01*
X10271928Y-8375357D01*
X10543357Y-8718214D02*
X10371928Y-8718214D01*
X10457643Y-8718214D02*
X10457643Y-8418214D01*
X10429071Y-8461072D01*
X10400500Y-8489643D01*
X10371928Y-8503929D01*
X10900500Y-8718214D02*
X10900500Y-8418214D01*
X11029071Y-8718214D02*
X11029071Y-8561072D01*
X11014786Y-8532500D01*
X10986214Y-8518214D01*
X10943357Y-8518214D01*
X10914786Y-8532500D01*
X10900500Y-8546786D01*
X11214786Y-8718214D02*
X11186214Y-8703929D01*
X11171928Y-8689643D01*
X11157643Y-8661072D01*
X11157643Y-8575357D01*
X11171928Y-8546786D01*
X11186214Y-8532500D01*
X11214786Y-8518214D01*
X11257643Y-8518214D01*
X11286214Y-8532500D01*
X11300500Y-8546786D01*
X11314786Y-8575357D01*
X11314786Y-8661072D01*
X11300500Y-8689643D01*
X11286214Y-8703929D01*
X11257643Y-8718214D01*
X11214786Y-8718214D01*
X11486214Y-8718214D02*
X11457643Y-8703929D01*
X11443357Y-8675357D01*
X11443357Y-8418214D01*
X11714786Y-8703929D02*
X11686214Y-8718214D01*
X11629071Y-8718214D01*
X11600500Y-8703929D01*
X11586214Y-8675357D01*
X11586214Y-8561072D01*
X11600500Y-8532500D01*
X11629071Y-8518214D01*
X11686214Y-8518214D01*
X11714786Y-8532500D01*
X11729071Y-8561072D01*
X11729071Y-8589643D01*
X11586214Y-8618214D01*
X11829071Y-8832500D02*
X11843357Y-8818214D01*
X11871928Y-8775357D01*
X11886214Y-8746786D01*
X11900500Y-8703929D01*
X11914786Y-8632500D01*
X11914786Y-8575357D01*
X11900500Y-8503929D01*
X11886214Y-8461072D01*
X11871928Y-8432500D01*
X11843357Y-8389643D01*
X11829071Y-8375357D01*
X5585500Y-8978500D02*
G75*
G03X5585500Y-8978500I-35000J0D01*
G01*
X5929071Y-8814214D02*
X5957643Y-8814214D01*
X5986214Y-8828500D01*
X6000500Y-8842786D01*
X6014786Y-8871357D01*
X6029071Y-8928500D01*
X6029071Y-8999929D01*
X6014786Y-9057072D01*
X6000500Y-9085643D01*
X5986214Y-9099929D01*
X5957643Y-9114214D01*
X5929071Y-9114214D01*
X5900500Y-9099929D01*
X5886214Y-9085643D01*
X5871928Y-9057072D01*
X5857643Y-8999929D01*
X5857643Y-8928500D01*
X5871928Y-8871357D01*
X5886214Y-8842786D01*
X5900500Y-8828500D01*
X5929071Y-8814214D01*
X6157643Y-9085643D02*
X6171928Y-9099929D01*
X6157643Y-9114214D01*
X6143357Y-9099929D01*
X6157643Y-9085643D01*
X6157643Y-9114214D01*
X6271928Y-8814214D02*
X6471928Y-8814214D01*
X6343357Y-9114214D01*
X6643357Y-8814214D02*
X6671928Y-8814214D01*
X6700500Y-8828500D01*
X6714786Y-8842786D01*
X6729071Y-8871357D01*
X6743357Y-8928500D01*
X6743357Y-8999929D01*
X6729071Y-9057072D01*
X6714786Y-9085643D01*
X6700500Y-9099929D01*
X6671928Y-9114214D01*
X6643357Y-9114214D01*
X6614786Y-9099929D01*
X6600500Y-9085643D01*
X6586214Y-9057072D01*
X6571928Y-8999929D01*
X6571928Y-8928500D01*
X6586214Y-8871357D01*
X6600500Y-8842786D01*
X6614786Y-8828500D01*
X6643357Y-8814214D01*
X6871928Y-9114214D02*
X6871928Y-8914214D01*
X6871928Y-8942786D02*
X6886214Y-8928500D01*
X6914786Y-8914214D01*
X6957643Y-8914214D01*
X6986214Y-8928500D01*
X7000500Y-8957072D01*
X7000500Y-9114214D01*
X7000500Y-8957072D02*
X7014786Y-8928500D01*
X7043357Y-8914214D01*
X7086214Y-8914214D01*
X7114786Y-8928500D01*
X7129071Y-8957072D01*
X7129071Y-9114214D01*
X7271928Y-9114214D02*
X7271928Y-8914214D01*
X7271928Y-8942786D02*
X7286214Y-8928500D01*
X7314786Y-8914214D01*
X7357643Y-8914214D01*
X7386214Y-8928500D01*
X7400500Y-8957072D01*
X7400500Y-9114214D01*
X7400500Y-8957072D02*
X7414786Y-8928500D01*
X7443357Y-8914214D01*
X7486214Y-8914214D01*
X7514786Y-8928500D01*
X7529071Y-8957072D01*
X7529071Y-9114214D01*
X8114786Y-8799929D02*
X7857643Y-9185643D01*
X8500500Y-8814214D02*
X8529071Y-8814214D01*
X8557643Y-8828500D01*
X8571928Y-8842786D01*
X8586214Y-8871357D01*
X8600500Y-8928500D01*
X8600500Y-8999929D01*
X8586214Y-9057072D01*
X8571928Y-9085643D01*
X8557643Y-9099929D01*
X8529071Y-9114214D01*
X8500500Y-9114214D01*
X8471928Y-9099929D01*
X8457643Y-9085643D01*
X8443357Y-9057072D01*
X8429071Y-8999929D01*
X8429071Y-8928500D01*
X8443357Y-8871357D01*
X8457643Y-8842786D01*
X8471928Y-8828500D01*
X8500500Y-8814214D01*
X8729071Y-9085643D02*
X8743357Y-9099929D01*
X8729071Y-9114214D01*
X8714786Y-9099929D01*
X8729071Y-9085643D01*
X8729071Y-9114214D01*
X8929071Y-8814214D02*
X8957643Y-8814214D01*
X8986214Y-8828500D01*
X9000500Y-8842786D01*
X9014786Y-8871357D01*
X9029071Y-8928500D01*
X9029071Y-8999929D01*
X9014786Y-9057072D01*
X9000500Y-9085643D01*
X8986214Y-9099929D01*
X8957643Y-9114214D01*
X8929071Y-9114214D01*
X8900500Y-9099929D01*
X8886214Y-9085643D01*
X8871928Y-9057072D01*
X8857643Y-8999929D01*
X8857643Y-8928500D01*
X8871928Y-8871357D01*
X8886214Y-8842786D01*
X8900500Y-8828500D01*
X8929071Y-8814214D01*
X9143357Y-8842786D02*
X9157643Y-8828500D01*
X9186214Y-8814214D01*
X9257643Y-8814214D01*
X9286214Y-8828500D01*
X9300500Y-8842786D01*
X9314786Y-8871357D01*
X9314786Y-8899929D01*
X9300500Y-8942786D01*
X9129071Y-9114214D01*
X9314786Y-9114214D01*
X9486214Y-8942786D02*
X9457643Y-8928500D01*
X9443357Y-8914214D01*
X9429071Y-8885643D01*
X9429071Y-8871357D01*
X9443357Y-8842786D01*
X9457643Y-8828500D01*
X9486214Y-8814214D01*
X9543357Y-8814214D01*
X9571928Y-8828500D01*
X9586214Y-8842786D01*
X9600500Y-8871357D01*
X9600500Y-8885643D01*
X9586214Y-8914214D01*
X9571928Y-8928500D01*
X9543357Y-8942786D01*
X9486214Y-8942786D01*
X9457643Y-8957072D01*
X9443357Y-8971357D01*
X9429071Y-8999929D01*
X9429071Y-9057072D01*
X9443357Y-9085643D01*
X9457643Y-9099929D01*
X9486214Y-9114214D01*
X9543357Y-9114214D01*
X9571928Y-9099929D01*
X9586214Y-9085643D01*
X9600500Y-9057072D01*
X9600500Y-8999929D01*
X9586214Y-8971357D01*
X9571928Y-8957072D01*
X9543357Y-8942786D01*
X9714786Y-8814214D02*
X9714786Y-8871357D01*
X9829071Y-8814214D02*
X9829071Y-8871357D01*
X10271928Y-9228500D02*
X10257643Y-9214214D01*
X10229071Y-9171357D01*
X10214786Y-9142786D01*
X10200500Y-9099929D01*
X10186214Y-9028500D01*
X10186214Y-8971357D01*
X10200500Y-8899929D01*
X10214786Y-8857072D01*
X10229071Y-8828500D01*
X10257643Y-8785643D01*
X10271928Y-8771357D01*
X10514786Y-8914214D02*
X10514786Y-9114214D01*
X10443357Y-8799929D02*
X10371928Y-9014214D01*
X10557643Y-9014214D01*
X10900500Y-9114214D02*
X10900500Y-8814214D01*
X11029071Y-9114214D02*
X11029071Y-8957072D01*
X11014786Y-8928500D01*
X10986214Y-8914214D01*
X10943357Y-8914214D01*
X10914786Y-8928500D01*
X10900500Y-8942786D01*
X11214786Y-9114214D02*
X11186214Y-9099929D01*
X11171928Y-9085643D01*
X11157643Y-9057072D01*
X11157643Y-8971357D01*
X11171928Y-8942786D01*
X11186214Y-8928500D01*
X11214786Y-8914214D01*
X11257643Y-8914214D01*
X11286214Y-8928500D01*
X11300500Y-8942786D01*
X11314786Y-8971357D01*
X11314786Y-9057072D01*
X11300500Y-9085643D01*
X11286214Y-9099929D01*
X11257643Y-9114214D01*
X11214786Y-9114214D01*
X11486214Y-9114214D02*
X11457643Y-9099929D01*
X11443357Y-9071357D01*
X11443357Y-8814214D01*
X11714786Y-9099929D02*
X11686214Y-9114214D01*
X11629071Y-9114214D01*
X11600500Y-9099929D01*
X11586214Y-9071357D01*
X11586214Y-8957072D01*
X11600500Y-8928500D01*
X11629071Y-8914214D01*
X11686214Y-8914214D01*
X11714786Y-8928500D01*
X11729071Y-8957072D01*
X11729071Y-8985643D01*
X11586214Y-9014214D01*
X11843357Y-9099929D02*
X11871928Y-9114214D01*
X11929071Y-9114214D01*
X11957643Y-9099929D01*
X11971928Y-9071357D01*
X11971928Y-9057072D01*
X11957643Y-9028500D01*
X11929071Y-9014214D01*
X11886214Y-9014214D01*
X11857643Y-8999929D01*
X11843357Y-8971357D01*
X11843357Y-8957072D01*
X11857643Y-8928500D01*
X11886214Y-8914214D01*
X11929071Y-8914214D01*
X11957643Y-8928500D01*
X12071928Y-9228500D02*
X12086214Y-9214214D01*
X12114786Y-9171357D01*
X12129071Y-9142786D01*
X12143357Y-9099929D01*
X12157643Y-9028500D01*
X12157643Y-8971357D01*
X12143357Y-8899929D01*
X12129071Y-8857072D01*
X12114786Y-8828500D01*
X12086214Y-8785643D01*
X12071928Y-8771357D01*
X5545500Y-9334500D02*
X5545500Y-9414500D01*
X5505500Y-9374500D02*
X5585500Y-9374500D01*
X5929071Y-9210214D02*
X5957643Y-9210214D01*
X5986214Y-9224500D01*
X6000500Y-9238786D01*
X6014786Y-9267357D01*
X6029071Y-9324500D01*
X6029071Y-9395929D01*
X6014786Y-9453072D01*
X6000500Y-9481643D01*
X5986214Y-9495929D01*
X5957643Y-9510214D01*
X5929071Y-9510214D01*
X5900500Y-9495929D01*
X5886214Y-9481643D01*
X5871928Y-9453072D01*
X5857643Y-9395929D01*
X5857643Y-9324500D01*
X5871928Y-9267357D01*
X5886214Y-9238786D01*
X5900500Y-9224500D01*
X5929071Y-9210214D01*
X6157643Y-9481643D02*
X6171928Y-9495929D01*
X6157643Y-9510214D01*
X6143357Y-9495929D01*
X6157643Y-9481643D01*
X6157643Y-9510214D01*
X6343357Y-9338786D02*
X6314786Y-9324500D01*
X6300500Y-9310214D01*
X6286214Y-9281643D01*
X6286214Y-9267357D01*
X6300500Y-9238786D01*
X6314786Y-9224500D01*
X6343357Y-9210214D01*
X6400500Y-9210214D01*
X6429071Y-9224500D01*
X6443357Y-9238786D01*
X6457643Y-9267357D01*
X6457643Y-9281643D01*
X6443357Y-9310214D01*
X6429071Y-9324500D01*
X6400500Y-9338786D01*
X6343357Y-9338786D01*
X6314786Y-9353072D01*
X6300500Y-9367357D01*
X6286214Y-9395929D01*
X6286214Y-9453072D01*
X6300500Y-9481643D01*
X6314786Y-9495929D01*
X6343357Y-9510214D01*
X6400500Y-9510214D01*
X6429071Y-9495929D01*
X6443357Y-9481643D01*
X6457643Y-9453072D01*
X6457643Y-9395929D01*
X6443357Y-9367357D01*
X6429071Y-9353072D01*
X6400500Y-9338786D01*
X6643357Y-9210214D02*
X6671928Y-9210214D01*
X6700500Y-9224500D01*
X6714786Y-9238786D01*
X6729071Y-9267357D01*
X6743357Y-9324500D01*
X6743357Y-9395929D01*
X6729071Y-9453072D01*
X6714786Y-9481643D01*
X6700500Y-9495929D01*
X6671928Y-9510214D01*
X6643357Y-9510214D01*
X6614786Y-9495929D01*
X6600500Y-9481643D01*
X6586214Y-9453072D01*
X6571928Y-9395929D01*
X6571928Y-9324500D01*
X6586214Y-9267357D01*
X6600500Y-9238786D01*
X6614786Y-9224500D01*
X6643357Y-9210214D01*
X6871928Y-9510214D02*
X6871928Y-9310214D01*
X6871928Y-9338786D02*
X6886214Y-9324500D01*
X6914786Y-9310214D01*
X6957643Y-9310214D01*
X6986214Y-9324500D01*
X7000500Y-9353072D01*
X7000500Y-9510214D01*
X7000500Y-9353072D02*
X7014786Y-9324500D01*
X7043357Y-9310214D01*
X7086214Y-9310214D01*
X7114786Y-9324500D01*
X7129071Y-9353072D01*
X7129071Y-9510214D01*
X7271928Y-9510214D02*
X7271928Y-9310214D01*
X7271928Y-9338786D02*
X7286214Y-9324500D01*
X7314786Y-9310214D01*
X7357643Y-9310214D01*
X7386214Y-9324500D01*
X7400500Y-9353072D01*
X7400500Y-9510214D01*
X7400500Y-9353072D02*
X7414786Y-9324500D01*
X7443357Y-9310214D01*
X7486214Y-9310214D01*
X7514786Y-9324500D01*
X7529071Y-9353072D01*
X7529071Y-9510214D01*
X8114786Y-9195929D02*
X7857643Y-9581643D01*
X8500500Y-9210214D02*
X8529071Y-9210214D01*
X8557643Y-9224500D01*
X8571928Y-9238786D01*
X8586214Y-9267357D01*
X8600500Y-9324500D01*
X8600500Y-9395929D01*
X8586214Y-9453072D01*
X8571928Y-9481643D01*
X8557643Y-9495929D01*
X8529071Y-9510214D01*
X8500500Y-9510214D01*
X8471928Y-9495929D01*
X8457643Y-9481643D01*
X8443357Y-9453072D01*
X8429071Y-9395929D01*
X8429071Y-9324500D01*
X8443357Y-9267357D01*
X8457643Y-9238786D01*
X8471928Y-9224500D01*
X8500500Y-9210214D01*
X8729071Y-9481643D02*
X8743357Y-9495929D01*
X8729071Y-9510214D01*
X8714786Y-9495929D01*
X8729071Y-9481643D01*
X8729071Y-9510214D01*
X8929071Y-9210214D02*
X8957643Y-9210214D01*
X8986214Y-9224500D01*
X9000500Y-9238786D01*
X9014786Y-9267357D01*
X9029071Y-9324500D01*
X9029071Y-9395929D01*
X9014786Y-9453072D01*
X9000500Y-9481643D01*
X8986214Y-9495929D01*
X8957643Y-9510214D01*
X8929071Y-9510214D01*
X8900500Y-9495929D01*
X8886214Y-9481643D01*
X8871928Y-9453072D01*
X8857643Y-9395929D01*
X8857643Y-9324500D01*
X8871928Y-9267357D01*
X8886214Y-9238786D01*
X8900500Y-9224500D01*
X8929071Y-9210214D01*
X9129071Y-9210214D02*
X9314786Y-9210214D01*
X9214786Y-9324500D01*
X9257643Y-9324500D01*
X9286214Y-9338786D01*
X9300500Y-9353072D01*
X9314786Y-9381643D01*
X9314786Y-9453072D01*
X9300500Y-9481643D01*
X9286214Y-9495929D01*
X9257643Y-9510214D01*
X9171928Y-9510214D01*
X9143357Y-9495929D01*
X9129071Y-9481643D01*
X9600500Y-9510214D02*
X9429071Y-9510214D01*
X9514786Y-9510214D02*
X9514786Y-9210214D01*
X9486214Y-9253072D01*
X9457643Y-9281643D01*
X9429071Y-9295929D01*
X9714786Y-9210214D02*
X9714786Y-9267357D01*
X9829071Y-9210214D02*
X9829071Y-9267357D01*
X10271928Y-9624500D02*
X10257643Y-9610214D01*
X10229071Y-9567357D01*
X10214786Y-9538786D01*
X10200500Y-9495929D01*
X10186214Y-9424500D01*
X10186214Y-9367357D01*
X10200500Y-9295929D01*
X10214786Y-9253072D01*
X10229071Y-9224500D01*
X10257643Y-9181643D01*
X10271928Y-9167357D01*
X10357643Y-9210214D02*
X10543357Y-9210214D01*
X10443357Y-9324500D01*
X10486214Y-9324500D01*
X10514786Y-9338786D01*
X10529071Y-9353072D01*
X10543357Y-9381643D01*
X10543357Y-9453072D01*
X10529071Y-9481643D01*
X10514786Y-9495929D01*
X10486214Y-9510214D01*
X10400500Y-9510214D01*
X10371928Y-9495929D01*
X10357643Y-9481643D01*
X10729071Y-9210214D02*
X10757643Y-9210214D01*
X10786214Y-9224500D01*
X10800500Y-9238786D01*
X10814786Y-9267357D01*
X10829071Y-9324500D01*
X10829071Y-9395929D01*
X10814786Y-9453072D01*
X10800500Y-9481643D01*
X10786214Y-9495929D01*
X10757643Y-9510214D01*
X10729071Y-9510214D01*
X10700500Y-9495929D01*
X10686214Y-9481643D01*
X10671928Y-9453072D01*
X10657643Y-9395929D01*
X10657643Y-9324500D01*
X10671928Y-9267357D01*
X10686214Y-9238786D01*
X10700500Y-9224500D01*
X10729071Y-9210214D01*
X11186214Y-9510214D02*
X11186214Y-9210214D01*
X11314786Y-9510214D02*
X11314786Y-9353072D01*
X11300500Y-9324500D01*
X11271928Y-9310214D01*
X11229071Y-9310214D01*
X11200500Y-9324500D01*
X11186214Y-9338786D01*
X11500500Y-9510214D02*
X11471928Y-9495929D01*
X11457643Y-9481643D01*
X11443357Y-9453072D01*
X11443357Y-9367357D01*
X11457643Y-9338786D01*
X11471928Y-9324500D01*
X11500500Y-9310214D01*
X11543357Y-9310214D01*
X11571928Y-9324500D01*
X11586214Y-9338786D01*
X11600500Y-9367357D01*
X11600500Y-9453072D01*
X11586214Y-9481643D01*
X11571928Y-9495929D01*
X11543357Y-9510214D01*
X11500500Y-9510214D01*
X11771928Y-9510214D02*
X11743357Y-9495929D01*
X11729071Y-9467357D01*
X11729071Y-9210214D01*
X12000500Y-9495929D02*
X11971928Y-9510214D01*
X11914786Y-9510214D01*
X11886214Y-9495929D01*
X11871928Y-9467357D01*
X11871928Y-9353072D01*
X11886214Y-9324500D01*
X11914786Y-9310214D01*
X11971928Y-9310214D01*
X12000500Y-9324500D01*
X12014786Y-9353072D01*
X12014786Y-9381643D01*
X11871928Y-9410214D01*
X12129071Y-9495929D02*
X12157643Y-9510214D01*
X12214786Y-9510214D01*
X12243357Y-9495929D01*
X12257643Y-9467357D01*
X12257643Y-9453072D01*
X12243357Y-9424500D01*
X12214786Y-9410214D01*
X12171928Y-9410214D01*
X12143357Y-9395929D01*
X12129071Y-9367357D01*
X12129071Y-9353072D01*
X12143357Y-9324500D01*
X12171928Y-9310214D01*
X12214786Y-9310214D01*
X12243357Y-9324500D01*
X12357643Y-9624500D02*
X12371928Y-9610214D01*
X12400500Y-9567357D01*
X12414786Y-9538786D01*
X12429071Y-9495929D01*
X12443357Y-9424500D01*
X12443357Y-9367357D01*
X12429071Y-9295929D01*
X12414786Y-9253072D01*
X12400500Y-9224500D01*
X12371928Y-9181643D01*
X12357643Y-9167357D01*
X5570856Y-9805856D02*
X5570856Y-9735144D01*
X5500144Y-9735144D01*
X5500144Y-9805856D01*
X5570856Y-9805856D01*
X6029071Y-9906214D02*
X5857643Y-9906214D01*
X5943357Y-9906214D02*
X5943357Y-9606214D01*
X5914786Y-9649072D01*
X5886214Y-9677643D01*
X5857643Y-9691929D01*
X6157643Y-9877643D02*
X6171928Y-9891929D01*
X6157643Y-9906214D01*
X6143357Y-9891929D01*
X6157643Y-9877643D01*
X6157643Y-9906214D01*
X6357643Y-9606214D02*
X6386214Y-9606214D01*
X6414786Y-9620500D01*
X6429071Y-9634786D01*
X6443357Y-9663357D01*
X6457643Y-9720500D01*
X6457643Y-9791929D01*
X6443357Y-9849072D01*
X6429071Y-9877643D01*
X6414786Y-9891929D01*
X6386214Y-9906214D01*
X6357643Y-9906214D01*
X6329071Y-9891929D01*
X6314786Y-9877643D01*
X6300500Y-9849072D01*
X6286214Y-9791929D01*
X6286214Y-9720500D01*
X6300500Y-9663357D01*
X6314786Y-9634786D01*
X6329071Y-9620500D01*
X6357643Y-9606214D01*
X6643357Y-9606214D02*
X6671928Y-9606214D01*
X6700500Y-9620500D01*
X6714786Y-9634786D01*
X6729071Y-9663357D01*
X6743357Y-9720500D01*
X6743357Y-9791929D01*
X6729071Y-9849072D01*
X6714786Y-9877643D01*
X6700500Y-9891929D01*
X6671928Y-9906214D01*
X6643357Y-9906214D01*
X6614786Y-9891929D01*
X6600500Y-9877643D01*
X6586214Y-9849072D01*
X6571928Y-9791929D01*
X6571928Y-9720500D01*
X6586214Y-9663357D01*
X6600500Y-9634786D01*
X6614786Y-9620500D01*
X6643357Y-9606214D01*
X6871928Y-9906214D02*
X6871928Y-9706214D01*
X6871928Y-9734786D02*
X6886214Y-9720500D01*
X6914786Y-9706214D01*
X6957643Y-9706214D01*
X6986214Y-9720500D01*
X7000500Y-9749072D01*
X7000500Y-9906214D01*
X7000500Y-9749072D02*
X7014786Y-9720500D01*
X7043357Y-9706214D01*
X7086214Y-9706214D01*
X7114786Y-9720500D01*
X7129071Y-9749072D01*
X7129071Y-9906214D01*
X7271928Y-9906214D02*
X7271928Y-9706214D01*
X7271928Y-9734786D02*
X7286214Y-9720500D01*
X7314786Y-9706214D01*
X7357643Y-9706214D01*
X7386214Y-9720500D01*
X7400500Y-9749072D01*
X7400500Y-9906214D01*
X7400500Y-9749072D02*
X7414786Y-9720500D01*
X7443357Y-9706214D01*
X7486214Y-9706214D01*
X7514786Y-9720500D01*
X7529071Y-9749072D01*
X7529071Y-9906214D01*
X8114786Y-9591929D02*
X7857643Y-9977643D01*
X8500500Y-9606214D02*
X8529071Y-9606214D01*
X8557643Y-9620500D01*
X8571928Y-9634786D01*
X8586214Y-9663357D01*
X8600500Y-9720500D01*
X8600500Y-9791929D01*
X8586214Y-9849072D01*
X8571928Y-9877643D01*
X8557643Y-9891929D01*
X8529071Y-9906214D01*
X8500500Y-9906214D01*
X8471928Y-9891929D01*
X8457643Y-9877643D01*
X8443357Y-9849072D01*
X8429071Y-9791929D01*
X8429071Y-9720500D01*
X8443357Y-9663357D01*
X8457643Y-9634786D01*
X8471928Y-9620500D01*
X8500500Y-9606214D01*
X8729071Y-9877643D02*
X8743357Y-9891929D01*
X8729071Y-9906214D01*
X8714786Y-9891929D01*
X8729071Y-9877643D01*
X8729071Y-9906214D01*
X8929071Y-9606214D02*
X8957643Y-9606214D01*
X8986214Y-9620500D01*
X9000500Y-9634786D01*
X9014786Y-9663357D01*
X9029071Y-9720500D01*
X9029071Y-9791929D01*
X9014786Y-9849072D01*
X9000500Y-9877643D01*
X8986214Y-9891929D01*
X8957643Y-9906214D01*
X8929071Y-9906214D01*
X8900500Y-9891929D01*
X8886214Y-9877643D01*
X8871928Y-9849072D01*
X8857643Y-9791929D01*
X8857643Y-9720500D01*
X8871928Y-9663357D01*
X8886214Y-9634786D01*
X8900500Y-9620500D01*
X8929071Y-9606214D01*
X9129071Y-9606214D02*
X9314786Y-9606214D01*
X9214786Y-9720500D01*
X9257643Y-9720500D01*
X9286214Y-9734786D01*
X9300500Y-9749072D01*
X9314786Y-9777643D01*
X9314786Y-9849072D01*
X9300500Y-9877643D01*
X9286214Y-9891929D01*
X9257643Y-9906214D01*
X9171928Y-9906214D01*
X9143357Y-9891929D01*
X9129071Y-9877643D01*
X9457643Y-9906214D02*
X9514786Y-9906214D01*
X9543357Y-9891929D01*
X9557643Y-9877643D01*
X9586214Y-9834786D01*
X9600500Y-9777643D01*
X9600500Y-9663357D01*
X9586214Y-9634786D01*
X9571928Y-9620500D01*
X9543357Y-9606214D01*
X9486214Y-9606214D01*
X9457643Y-9620500D01*
X9443357Y-9634786D01*
X9429071Y-9663357D01*
X9429071Y-9734786D01*
X9443357Y-9763357D01*
X9457643Y-9777643D01*
X9486214Y-9791929D01*
X9543357Y-9791929D01*
X9571928Y-9777643D01*
X9586214Y-9763357D01*
X9600500Y-9734786D01*
X9714786Y-9606214D02*
X9714786Y-9663357D01*
X9829071Y-9606214D02*
X9829071Y-9663357D01*
X10271928Y-10020500D02*
X10257643Y-10006214D01*
X10229071Y-9963357D01*
X10214786Y-9934786D01*
X10200500Y-9891929D01*
X10186214Y-9820500D01*
X10186214Y-9763357D01*
X10200500Y-9691929D01*
X10214786Y-9649072D01*
X10229071Y-9620500D01*
X10257643Y-9577643D01*
X10271928Y-9563357D01*
X10529071Y-9606214D02*
X10386214Y-9606214D01*
X10371928Y-9749072D01*
X10386214Y-9734786D01*
X10414786Y-9720500D01*
X10486214Y-9720500D01*
X10514786Y-9734786D01*
X10529071Y-9749072D01*
X10543357Y-9777643D01*
X10543357Y-9849072D01*
X10529071Y-9877643D01*
X10514786Y-9891929D01*
X10486214Y-9906214D01*
X10414786Y-9906214D01*
X10386214Y-9891929D01*
X10371928Y-9877643D01*
X10900500Y-9906214D02*
X10900500Y-9606214D01*
X11029071Y-9906214D02*
X11029071Y-9749072D01*
X11014786Y-9720500D01*
X10986214Y-9706214D01*
X10943357Y-9706214D01*
X10914786Y-9720500D01*
X10900500Y-9734786D01*
X11214786Y-9906214D02*
X11186214Y-9891929D01*
X11171928Y-9877643D01*
X11157643Y-9849072D01*
X11157643Y-9763357D01*
X11171928Y-9734786D01*
X11186214Y-9720500D01*
X11214786Y-9706214D01*
X11257643Y-9706214D01*
X11286214Y-9720500D01*
X11300500Y-9734786D01*
X11314786Y-9763357D01*
X11314786Y-9849072D01*
X11300500Y-9877643D01*
X11286214Y-9891929D01*
X11257643Y-9906214D01*
X11214786Y-9906214D01*
X11486214Y-9906214D02*
X11457643Y-9891929D01*
X11443357Y-9863357D01*
X11443357Y-9606214D01*
X11714786Y-9891929D02*
X11686214Y-9906214D01*
X11629071Y-9906214D01*
X11600500Y-9891929D01*
X11586214Y-9863357D01*
X11586214Y-9749072D01*
X11600500Y-9720500D01*
X11629071Y-9706214D01*
X11686214Y-9706214D01*
X11714786Y-9720500D01*
X11729071Y-9749072D01*
X11729071Y-9777643D01*
X11586214Y-9806214D01*
X11843357Y-9891929D02*
X11871928Y-9906214D01*
X11929071Y-9906214D01*
X11957643Y-9891929D01*
X11971928Y-9863357D01*
X11971928Y-9849072D01*
X11957643Y-9820500D01*
X11929071Y-9806214D01*
X11886214Y-9806214D01*
X11857643Y-9791929D01*
X11843357Y-9763357D01*
X11843357Y-9749072D01*
X11857643Y-9720500D01*
X11886214Y-9706214D01*
X11929071Y-9706214D01*
X11957643Y-9720500D01*
X12071928Y-10020500D02*
X12086214Y-10006214D01*
X12114786Y-9963357D01*
X12129071Y-9934786D01*
X12143357Y-9891929D01*
X12157643Y-9820500D01*
X12157643Y-9763357D01*
X12143357Y-9691929D01*
X12129071Y-9649072D01*
X12114786Y-9620500D01*
X12086214Y-9577643D01*
X12071928Y-9563357D01*
M02*
