G04 #@! TF.GenerationSoftware,KiCad,Pcbnew,(5.1.2-1)-1*
G04 #@! TF.CreationDate,2022-05-31T00:06:08+02:00*
G04 #@! TF.ProjectId,cart28p,63617274-3238-4702-9e6b-696361645f70,rev?*
G04 #@! TF.SameCoordinates,Original*
G04 #@! TF.FileFunction,Legend,Bot*
G04 #@! TF.FilePolarity,Positive*
%FSLAX46Y46*%
G04 Gerber Fmt 4.6, Leading zero omitted, Abs format (unit mm)*
G04 Created by KiCad (PCBNEW (5.1.2-1)-1) date 2022-05-31 00:06:08*
%MOMM*%
%LPD*%
G04 APERTURE LIST*
%ADD10C,0.160000*%
%ADD11C,0.100000*%
%ADD12C,0.150000*%
%ADD13C,1.626000*%
%ADD14R,1.702000X1.702000*%
%ADD15O,1.702000X1.702000*%
%ADD16C,1.702000*%
%ADD17O,1.502000X1.502000*%
%ADD18C,1.502000*%
%ADD19O,1.802000X1.802000*%
%ADD20R,1.802000X1.802000*%
G04 APERTURE END LIST*
D10*
X65108666Y-29923619D02*
X65108666Y-30649333D01*
X65157047Y-30794476D01*
X65253809Y-30891238D01*
X65398952Y-30939619D01*
X65495714Y-30939619D01*
X64092666Y-30939619D02*
X64673238Y-30939619D01*
X64382952Y-30939619D02*
X64382952Y-29923619D01*
X64479714Y-30068761D01*
X64576476Y-30165523D01*
X64673238Y-30213904D01*
X75196095Y-48973619D02*
X75196095Y-49796095D01*
X75147714Y-49892857D01*
X75099333Y-49941238D01*
X75002571Y-49989619D01*
X74809047Y-49989619D01*
X74712285Y-49941238D01*
X74663904Y-49892857D01*
X74615523Y-49796095D01*
X74615523Y-48973619D01*
X73599523Y-49989619D02*
X74180095Y-49989619D01*
X73889809Y-49989619D02*
X73889809Y-48973619D01*
X73986571Y-49118761D01*
X74083333Y-49215523D01*
X74180095Y-49263904D01*
X74421666Y-70207142D02*
X74469285Y-70254761D01*
X74612142Y-70302380D01*
X74707380Y-70302380D01*
X74850238Y-70254761D01*
X74945476Y-70159523D01*
X74993095Y-70064285D01*
X75040714Y-69873809D01*
X75040714Y-69730952D01*
X74993095Y-69540476D01*
X74945476Y-69445238D01*
X74850238Y-69350000D01*
X74707380Y-69302380D01*
X74612142Y-69302380D01*
X74469285Y-69350000D01*
X74421666Y-69397619D01*
X73469285Y-70302380D02*
X74040714Y-70302380D01*
X73755000Y-70302380D02*
X73755000Y-69302380D01*
X73850238Y-69445238D01*
X73945476Y-69540476D01*
X74040714Y-69588095D01*
X80814333Y-68785619D02*
X81153000Y-68301809D01*
X81394904Y-68785619D02*
X81394904Y-67769619D01*
X81007857Y-67769619D01*
X80911095Y-67818000D01*
X80862714Y-67866380D01*
X80814333Y-67963142D01*
X80814333Y-68108285D01*
X80862714Y-68205047D01*
X80911095Y-68253428D01*
X81007857Y-68301809D01*
X81394904Y-68301809D01*
X80427285Y-67866380D02*
X80378904Y-67818000D01*
X80282142Y-67769619D01*
X80040238Y-67769619D01*
X79943476Y-67818000D01*
X79895095Y-67866380D01*
X79846714Y-67963142D01*
X79846714Y-68059904D01*
X79895095Y-68205047D01*
X80475666Y-68785619D01*
X79846714Y-68785619D01*
X68114333Y-68785619D02*
X68453000Y-68301809D01*
X68694904Y-68785619D02*
X68694904Y-67769619D01*
X68307857Y-67769619D01*
X68211095Y-67818000D01*
X68162714Y-67866380D01*
X68114333Y-67963142D01*
X68114333Y-68108285D01*
X68162714Y-68205047D01*
X68211095Y-68253428D01*
X68307857Y-68301809D01*
X68694904Y-68301809D01*
X67146714Y-68785619D02*
X67727285Y-68785619D01*
X67437000Y-68785619D02*
X67437000Y-67769619D01*
X67533761Y-67914761D01*
X67630523Y-68011523D01*
X67727285Y-68059904D01*
X70188666Y-71325619D02*
X70188666Y-72051333D01*
X70237047Y-72196476D01*
X70333809Y-72293238D01*
X70478952Y-72341619D01*
X70575714Y-72341619D01*
X69704857Y-72341619D02*
X69704857Y-71325619D01*
X69317809Y-71325619D01*
X69221047Y-71374000D01*
X69172666Y-71422380D01*
X69124285Y-71519142D01*
X69124285Y-71664285D01*
X69172666Y-71761047D01*
X69221047Y-71809428D01*
X69317809Y-71857809D01*
X69704857Y-71857809D01*
X68737238Y-71422380D02*
X68688857Y-71374000D01*
X68592095Y-71325619D01*
X68350190Y-71325619D01*
X68253428Y-71374000D01*
X68205047Y-71422380D01*
X68156666Y-71519142D01*
X68156666Y-71615904D01*
X68205047Y-71761047D01*
X68785619Y-72341619D01*
X68156666Y-72341619D01*
X82761666Y-71325619D02*
X82761666Y-72051333D01*
X82810047Y-72196476D01*
X82906809Y-72293238D01*
X83051952Y-72341619D01*
X83148714Y-72341619D01*
X82277857Y-72341619D02*
X82277857Y-71325619D01*
X81890809Y-71325619D01*
X81794047Y-71374000D01*
X81745666Y-71422380D01*
X81697285Y-71519142D01*
X81697285Y-71664285D01*
X81745666Y-71761047D01*
X81794047Y-71809428D01*
X81890809Y-71857809D01*
X82277857Y-71857809D01*
X80729666Y-72341619D02*
X81310238Y-72341619D01*
X81019952Y-72341619D02*
X81019952Y-71325619D01*
X81116714Y-71470761D01*
X81213476Y-71567523D01*
X81310238Y-71615904D01*
%LPC*%
D11*
G36*
X55880000Y-27940000D02*
G01*
X55880000Y-76200000D01*
X63500000Y-76200000D01*
X63500000Y-27940000D01*
X55880000Y-27940000D01*
G37*
X55880000Y-27940000D02*
X55880000Y-76200000D01*
X63500000Y-76200000D01*
X63500000Y-27940000D01*
X55880000Y-27940000D01*
D12*
G36*
X63374344Y-29668957D02*
G01*
X63413804Y-29674811D01*
X63452501Y-29684504D01*
X63490061Y-29697943D01*
X63526123Y-29714999D01*
X63560339Y-29735508D01*
X63592381Y-29759271D01*
X63621939Y-29786061D01*
X63648729Y-29815619D01*
X63672492Y-29847661D01*
X63693001Y-29881877D01*
X63710057Y-29917939D01*
X63723496Y-29955499D01*
X63733189Y-29994196D01*
X63739043Y-30033656D01*
X63741000Y-30073500D01*
X63741000Y-30886500D01*
X63739043Y-30926344D01*
X63733189Y-30965804D01*
X63723496Y-31004501D01*
X63710057Y-31042061D01*
X63693001Y-31078123D01*
X63672492Y-31112339D01*
X63648729Y-31144381D01*
X63621939Y-31173939D01*
X63592381Y-31200729D01*
X63560339Y-31224492D01*
X63526123Y-31245001D01*
X63490061Y-31262057D01*
X63452501Y-31275496D01*
X63413804Y-31285189D01*
X63374344Y-31291043D01*
X63334500Y-31293000D01*
X56045500Y-31293000D01*
X56005656Y-31291043D01*
X55966196Y-31285189D01*
X55927499Y-31275496D01*
X55889939Y-31262057D01*
X55853877Y-31245001D01*
X55819661Y-31224492D01*
X55787619Y-31200729D01*
X55758061Y-31173939D01*
X55731271Y-31144381D01*
X55707508Y-31112339D01*
X55686999Y-31078123D01*
X55669943Y-31042061D01*
X55656504Y-31004501D01*
X55646811Y-30965804D01*
X55640957Y-30926344D01*
X55639000Y-30886500D01*
X55639000Y-30073500D01*
X55640957Y-30033656D01*
X55646811Y-29994196D01*
X55656504Y-29955499D01*
X55669943Y-29917939D01*
X55686999Y-29881877D01*
X55707508Y-29847661D01*
X55731271Y-29815619D01*
X55758061Y-29786061D01*
X55787619Y-29759271D01*
X55819661Y-29735508D01*
X55853877Y-29714999D01*
X55889939Y-29697943D01*
X55927499Y-29684504D01*
X55966196Y-29674811D01*
X56005656Y-29668957D01*
X56045500Y-29667000D01*
X63334500Y-29667000D01*
X63374344Y-29668957D01*
X63374344Y-29668957D01*
G37*
D13*
X59690000Y-30480000D03*
D12*
G36*
X63374344Y-32208957D02*
G01*
X63413804Y-32214811D01*
X63452501Y-32224504D01*
X63490061Y-32237943D01*
X63526123Y-32254999D01*
X63560339Y-32275508D01*
X63592381Y-32299271D01*
X63621939Y-32326061D01*
X63648729Y-32355619D01*
X63672492Y-32387661D01*
X63693001Y-32421877D01*
X63710057Y-32457939D01*
X63723496Y-32495499D01*
X63733189Y-32534196D01*
X63739043Y-32573656D01*
X63741000Y-32613500D01*
X63741000Y-33426500D01*
X63739043Y-33466344D01*
X63733189Y-33505804D01*
X63723496Y-33544501D01*
X63710057Y-33582061D01*
X63693001Y-33618123D01*
X63672492Y-33652339D01*
X63648729Y-33684381D01*
X63621939Y-33713939D01*
X63592381Y-33740729D01*
X63560339Y-33764492D01*
X63526123Y-33785001D01*
X63490061Y-33802057D01*
X63452501Y-33815496D01*
X63413804Y-33825189D01*
X63374344Y-33831043D01*
X63334500Y-33833000D01*
X56045500Y-33833000D01*
X56005656Y-33831043D01*
X55966196Y-33825189D01*
X55927499Y-33815496D01*
X55889939Y-33802057D01*
X55853877Y-33785001D01*
X55819661Y-33764492D01*
X55787619Y-33740729D01*
X55758061Y-33713939D01*
X55731271Y-33684381D01*
X55707508Y-33652339D01*
X55686999Y-33618123D01*
X55669943Y-33582061D01*
X55656504Y-33544501D01*
X55646811Y-33505804D01*
X55640957Y-33466344D01*
X55639000Y-33426500D01*
X55639000Y-32613500D01*
X55640957Y-32573656D01*
X55646811Y-32534196D01*
X55656504Y-32495499D01*
X55669943Y-32457939D01*
X55686999Y-32421877D01*
X55707508Y-32387661D01*
X55731271Y-32355619D01*
X55758061Y-32326061D01*
X55787619Y-32299271D01*
X55819661Y-32275508D01*
X55853877Y-32254999D01*
X55889939Y-32237943D01*
X55927499Y-32224504D01*
X55966196Y-32214811D01*
X56005656Y-32208957D01*
X56045500Y-32207000D01*
X63334500Y-32207000D01*
X63374344Y-32208957D01*
X63374344Y-32208957D01*
G37*
D13*
X59690000Y-33020000D03*
D12*
G36*
X63374344Y-34748957D02*
G01*
X63413804Y-34754811D01*
X63452501Y-34764504D01*
X63490061Y-34777943D01*
X63526123Y-34794999D01*
X63560339Y-34815508D01*
X63592381Y-34839271D01*
X63621939Y-34866061D01*
X63648729Y-34895619D01*
X63672492Y-34927661D01*
X63693001Y-34961877D01*
X63710057Y-34997939D01*
X63723496Y-35035499D01*
X63733189Y-35074196D01*
X63739043Y-35113656D01*
X63741000Y-35153500D01*
X63741000Y-35966500D01*
X63739043Y-36006344D01*
X63733189Y-36045804D01*
X63723496Y-36084501D01*
X63710057Y-36122061D01*
X63693001Y-36158123D01*
X63672492Y-36192339D01*
X63648729Y-36224381D01*
X63621939Y-36253939D01*
X63592381Y-36280729D01*
X63560339Y-36304492D01*
X63526123Y-36325001D01*
X63490061Y-36342057D01*
X63452501Y-36355496D01*
X63413804Y-36365189D01*
X63374344Y-36371043D01*
X63334500Y-36373000D01*
X56045500Y-36373000D01*
X56005656Y-36371043D01*
X55966196Y-36365189D01*
X55927499Y-36355496D01*
X55889939Y-36342057D01*
X55853877Y-36325001D01*
X55819661Y-36304492D01*
X55787619Y-36280729D01*
X55758061Y-36253939D01*
X55731271Y-36224381D01*
X55707508Y-36192339D01*
X55686999Y-36158123D01*
X55669943Y-36122061D01*
X55656504Y-36084501D01*
X55646811Y-36045804D01*
X55640957Y-36006344D01*
X55639000Y-35966500D01*
X55639000Y-35153500D01*
X55640957Y-35113656D01*
X55646811Y-35074196D01*
X55656504Y-35035499D01*
X55669943Y-34997939D01*
X55686999Y-34961877D01*
X55707508Y-34927661D01*
X55731271Y-34895619D01*
X55758061Y-34866061D01*
X55787619Y-34839271D01*
X55819661Y-34815508D01*
X55853877Y-34794999D01*
X55889939Y-34777943D01*
X55927499Y-34764504D01*
X55966196Y-34754811D01*
X56005656Y-34748957D01*
X56045500Y-34747000D01*
X63334500Y-34747000D01*
X63374344Y-34748957D01*
X63374344Y-34748957D01*
G37*
D13*
X59690000Y-35560000D03*
D12*
G36*
X63374344Y-37288957D02*
G01*
X63413804Y-37294811D01*
X63452501Y-37304504D01*
X63490061Y-37317943D01*
X63526123Y-37334999D01*
X63560339Y-37355508D01*
X63592381Y-37379271D01*
X63621939Y-37406061D01*
X63648729Y-37435619D01*
X63672492Y-37467661D01*
X63693001Y-37501877D01*
X63710057Y-37537939D01*
X63723496Y-37575499D01*
X63733189Y-37614196D01*
X63739043Y-37653656D01*
X63741000Y-37693500D01*
X63741000Y-38506500D01*
X63739043Y-38546344D01*
X63733189Y-38585804D01*
X63723496Y-38624501D01*
X63710057Y-38662061D01*
X63693001Y-38698123D01*
X63672492Y-38732339D01*
X63648729Y-38764381D01*
X63621939Y-38793939D01*
X63592381Y-38820729D01*
X63560339Y-38844492D01*
X63526123Y-38865001D01*
X63490061Y-38882057D01*
X63452501Y-38895496D01*
X63413804Y-38905189D01*
X63374344Y-38911043D01*
X63334500Y-38913000D01*
X56045500Y-38913000D01*
X56005656Y-38911043D01*
X55966196Y-38905189D01*
X55927499Y-38895496D01*
X55889939Y-38882057D01*
X55853877Y-38865001D01*
X55819661Y-38844492D01*
X55787619Y-38820729D01*
X55758061Y-38793939D01*
X55731271Y-38764381D01*
X55707508Y-38732339D01*
X55686999Y-38698123D01*
X55669943Y-38662061D01*
X55656504Y-38624501D01*
X55646811Y-38585804D01*
X55640957Y-38546344D01*
X55639000Y-38506500D01*
X55639000Y-37693500D01*
X55640957Y-37653656D01*
X55646811Y-37614196D01*
X55656504Y-37575499D01*
X55669943Y-37537939D01*
X55686999Y-37501877D01*
X55707508Y-37467661D01*
X55731271Y-37435619D01*
X55758061Y-37406061D01*
X55787619Y-37379271D01*
X55819661Y-37355508D01*
X55853877Y-37334999D01*
X55889939Y-37317943D01*
X55927499Y-37304504D01*
X55966196Y-37294811D01*
X56005656Y-37288957D01*
X56045500Y-37287000D01*
X63334500Y-37287000D01*
X63374344Y-37288957D01*
X63374344Y-37288957D01*
G37*
D13*
X59690000Y-38100000D03*
D12*
G36*
X63374344Y-39828957D02*
G01*
X63413804Y-39834811D01*
X63452501Y-39844504D01*
X63490061Y-39857943D01*
X63526123Y-39874999D01*
X63560339Y-39895508D01*
X63592381Y-39919271D01*
X63621939Y-39946061D01*
X63648729Y-39975619D01*
X63672492Y-40007661D01*
X63693001Y-40041877D01*
X63710057Y-40077939D01*
X63723496Y-40115499D01*
X63733189Y-40154196D01*
X63739043Y-40193656D01*
X63741000Y-40233500D01*
X63741000Y-41046500D01*
X63739043Y-41086344D01*
X63733189Y-41125804D01*
X63723496Y-41164501D01*
X63710057Y-41202061D01*
X63693001Y-41238123D01*
X63672492Y-41272339D01*
X63648729Y-41304381D01*
X63621939Y-41333939D01*
X63592381Y-41360729D01*
X63560339Y-41384492D01*
X63526123Y-41405001D01*
X63490061Y-41422057D01*
X63452501Y-41435496D01*
X63413804Y-41445189D01*
X63374344Y-41451043D01*
X63334500Y-41453000D01*
X56045500Y-41453000D01*
X56005656Y-41451043D01*
X55966196Y-41445189D01*
X55927499Y-41435496D01*
X55889939Y-41422057D01*
X55853877Y-41405001D01*
X55819661Y-41384492D01*
X55787619Y-41360729D01*
X55758061Y-41333939D01*
X55731271Y-41304381D01*
X55707508Y-41272339D01*
X55686999Y-41238123D01*
X55669943Y-41202061D01*
X55656504Y-41164501D01*
X55646811Y-41125804D01*
X55640957Y-41086344D01*
X55639000Y-41046500D01*
X55639000Y-40233500D01*
X55640957Y-40193656D01*
X55646811Y-40154196D01*
X55656504Y-40115499D01*
X55669943Y-40077939D01*
X55686999Y-40041877D01*
X55707508Y-40007661D01*
X55731271Y-39975619D01*
X55758061Y-39946061D01*
X55787619Y-39919271D01*
X55819661Y-39895508D01*
X55853877Y-39874999D01*
X55889939Y-39857943D01*
X55927499Y-39844504D01*
X55966196Y-39834811D01*
X56005656Y-39828957D01*
X56045500Y-39827000D01*
X63334500Y-39827000D01*
X63374344Y-39828957D01*
X63374344Y-39828957D01*
G37*
D13*
X59690000Y-40640000D03*
D12*
G36*
X63374344Y-42368957D02*
G01*
X63413804Y-42374811D01*
X63452501Y-42384504D01*
X63490061Y-42397943D01*
X63526123Y-42414999D01*
X63560339Y-42435508D01*
X63592381Y-42459271D01*
X63621939Y-42486061D01*
X63648729Y-42515619D01*
X63672492Y-42547661D01*
X63693001Y-42581877D01*
X63710057Y-42617939D01*
X63723496Y-42655499D01*
X63733189Y-42694196D01*
X63739043Y-42733656D01*
X63741000Y-42773500D01*
X63741000Y-43586500D01*
X63739043Y-43626344D01*
X63733189Y-43665804D01*
X63723496Y-43704501D01*
X63710057Y-43742061D01*
X63693001Y-43778123D01*
X63672492Y-43812339D01*
X63648729Y-43844381D01*
X63621939Y-43873939D01*
X63592381Y-43900729D01*
X63560339Y-43924492D01*
X63526123Y-43945001D01*
X63490061Y-43962057D01*
X63452501Y-43975496D01*
X63413804Y-43985189D01*
X63374344Y-43991043D01*
X63334500Y-43993000D01*
X56045500Y-43993000D01*
X56005656Y-43991043D01*
X55966196Y-43985189D01*
X55927499Y-43975496D01*
X55889939Y-43962057D01*
X55853877Y-43945001D01*
X55819661Y-43924492D01*
X55787619Y-43900729D01*
X55758061Y-43873939D01*
X55731271Y-43844381D01*
X55707508Y-43812339D01*
X55686999Y-43778123D01*
X55669943Y-43742061D01*
X55656504Y-43704501D01*
X55646811Y-43665804D01*
X55640957Y-43626344D01*
X55639000Y-43586500D01*
X55639000Y-42773500D01*
X55640957Y-42733656D01*
X55646811Y-42694196D01*
X55656504Y-42655499D01*
X55669943Y-42617939D01*
X55686999Y-42581877D01*
X55707508Y-42547661D01*
X55731271Y-42515619D01*
X55758061Y-42486061D01*
X55787619Y-42459271D01*
X55819661Y-42435508D01*
X55853877Y-42414999D01*
X55889939Y-42397943D01*
X55927499Y-42384504D01*
X55966196Y-42374811D01*
X56005656Y-42368957D01*
X56045500Y-42367000D01*
X63334500Y-42367000D01*
X63374344Y-42368957D01*
X63374344Y-42368957D01*
G37*
D13*
X59690000Y-43180000D03*
D12*
G36*
X63374344Y-44908957D02*
G01*
X63413804Y-44914811D01*
X63452501Y-44924504D01*
X63490061Y-44937943D01*
X63526123Y-44954999D01*
X63560339Y-44975508D01*
X63592381Y-44999271D01*
X63621939Y-45026061D01*
X63648729Y-45055619D01*
X63672492Y-45087661D01*
X63693001Y-45121877D01*
X63710057Y-45157939D01*
X63723496Y-45195499D01*
X63733189Y-45234196D01*
X63739043Y-45273656D01*
X63741000Y-45313500D01*
X63741000Y-46126500D01*
X63739043Y-46166344D01*
X63733189Y-46205804D01*
X63723496Y-46244501D01*
X63710057Y-46282061D01*
X63693001Y-46318123D01*
X63672492Y-46352339D01*
X63648729Y-46384381D01*
X63621939Y-46413939D01*
X63592381Y-46440729D01*
X63560339Y-46464492D01*
X63526123Y-46485001D01*
X63490061Y-46502057D01*
X63452501Y-46515496D01*
X63413804Y-46525189D01*
X63374344Y-46531043D01*
X63334500Y-46533000D01*
X56045500Y-46533000D01*
X56005656Y-46531043D01*
X55966196Y-46525189D01*
X55927499Y-46515496D01*
X55889939Y-46502057D01*
X55853877Y-46485001D01*
X55819661Y-46464492D01*
X55787619Y-46440729D01*
X55758061Y-46413939D01*
X55731271Y-46384381D01*
X55707508Y-46352339D01*
X55686999Y-46318123D01*
X55669943Y-46282061D01*
X55656504Y-46244501D01*
X55646811Y-46205804D01*
X55640957Y-46166344D01*
X55639000Y-46126500D01*
X55639000Y-45313500D01*
X55640957Y-45273656D01*
X55646811Y-45234196D01*
X55656504Y-45195499D01*
X55669943Y-45157939D01*
X55686999Y-45121877D01*
X55707508Y-45087661D01*
X55731271Y-45055619D01*
X55758061Y-45026061D01*
X55787619Y-44999271D01*
X55819661Y-44975508D01*
X55853877Y-44954999D01*
X55889939Y-44937943D01*
X55927499Y-44924504D01*
X55966196Y-44914811D01*
X56005656Y-44908957D01*
X56045500Y-44907000D01*
X63334500Y-44907000D01*
X63374344Y-44908957D01*
X63374344Y-44908957D01*
G37*
D13*
X59690000Y-45720000D03*
D12*
G36*
X63374344Y-47448957D02*
G01*
X63413804Y-47454811D01*
X63452501Y-47464504D01*
X63490061Y-47477943D01*
X63526123Y-47494999D01*
X63560339Y-47515508D01*
X63592381Y-47539271D01*
X63621939Y-47566061D01*
X63648729Y-47595619D01*
X63672492Y-47627661D01*
X63693001Y-47661877D01*
X63710057Y-47697939D01*
X63723496Y-47735499D01*
X63733189Y-47774196D01*
X63739043Y-47813656D01*
X63741000Y-47853500D01*
X63741000Y-48666500D01*
X63739043Y-48706344D01*
X63733189Y-48745804D01*
X63723496Y-48784501D01*
X63710057Y-48822061D01*
X63693001Y-48858123D01*
X63672492Y-48892339D01*
X63648729Y-48924381D01*
X63621939Y-48953939D01*
X63592381Y-48980729D01*
X63560339Y-49004492D01*
X63526123Y-49025001D01*
X63490061Y-49042057D01*
X63452501Y-49055496D01*
X63413804Y-49065189D01*
X63374344Y-49071043D01*
X63334500Y-49073000D01*
X56045500Y-49073000D01*
X56005656Y-49071043D01*
X55966196Y-49065189D01*
X55927499Y-49055496D01*
X55889939Y-49042057D01*
X55853877Y-49025001D01*
X55819661Y-49004492D01*
X55787619Y-48980729D01*
X55758061Y-48953939D01*
X55731271Y-48924381D01*
X55707508Y-48892339D01*
X55686999Y-48858123D01*
X55669943Y-48822061D01*
X55656504Y-48784501D01*
X55646811Y-48745804D01*
X55640957Y-48706344D01*
X55639000Y-48666500D01*
X55639000Y-47853500D01*
X55640957Y-47813656D01*
X55646811Y-47774196D01*
X55656504Y-47735499D01*
X55669943Y-47697939D01*
X55686999Y-47661877D01*
X55707508Y-47627661D01*
X55731271Y-47595619D01*
X55758061Y-47566061D01*
X55787619Y-47539271D01*
X55819661Y-47515508D01*
X55853877Y-47494999D01*
X55889939Y-47477943D01*
X55927499Y-47464504D01*
X55966196Y-47454811D01*
X56005656Y-47448957D01*
X56045500Y-47447000D01*
X63334500Y-47447000D01*
X63374344Y-47448957D01*
X63374344Y-47448957D01*
G37*
D13*
X59690000Y-48260000D03*
D12*
G36*
X63374344Y-49988957D02*
G01*
X63413804Y-49994811D01*
X63452501Y-50004504D01*
X63490061Y-50017943D01*
X63526123Y-50034999D01*
X63560339Y-50055508D01*
X63592381Y-50079271D01*
X63621939Y-50106061D01*
X63648729Y-50135619D01*
X63672492Y-50167661D01*
X63693001Y-50201877D01*
X63710057Y-50237939D01*
X63723496Y-50275499D01*
X63733189Y-50314196D01*
X63739043Y-50353656D01*
X63741000Y-50393500D01*
X63741000Y-51206500D01*
X63739043Y-51246344D01*
X63733189Y-51285804D01*
X63723496Y-51324501D01*
X63710057Y-51362061D01*
X63693001Y-51398123D01*
X63672492Y-51432339D01*
X63648729Y-51464381D01*
X63621939Y-51493939D01*
X63592381Y-51520729D01*
X63560339Y-51544492D01*
X63526123Y-51565001D01*
X63490061Y-51582057D01*
X63452501Y-51595496D01*
X63413804Y-51605189D01*
X63374344Y-51611043D01*
X63334500Y-51613000D01*
X56045500Y-51613000D01*
X56005656Y-51611043D01*
X55966196Y-51605189D01*
X55927499Y-51595496D01*
X55889939Y-51582057D01*
X55853877Y-51565001D01*
X55819661Y-51544492D01*
X55787619Y-51520729D01*
X55758061Y-51493939D01*
X55731271Y-51464381D01*
X55707508Y-51432339D01*
X55686999Y-51398123D01*
X55669943Y-51362061D01*
X55656504Y-51324501D01*
X55646811Y-51285804D01*
X55640957Y-51246344D01*
X55639000Y-51206500D01*
X55639000Y-50393500D01*
X55640957Y-50353656D01*
X55646811Y-50314196D01*
X55656504Y-50275499D01*
X55669943Y-50237939D01*
X55686999Y-50201877D01*
X55707508Y-50167661D01*
X55731271Y-50135619D01*
X55758061Y-50106061D01*
X55787619Y-50079271D01*
X55819661Y-50055508D01*
X55853877Y-50034999D01*
X55889939Y-50017943D01*
X55927499Y-50004504D01*
X55966196Y-49994811D01*
X56005656Y-49988957D01*
X56045500Y-49987000D01*
X63334500Y-49987000D01*
X63374344Y-49988957D01*
X63374344Y-49988957D01*
G37*
D13*
X59690000Y-50800000D03*
D12*
G36*
X63374344Y-52528957D02*
G01*
X63413804Y-52534811D01*
X63452501Y-52544504D01*
X63490061Y-52557943D01*
X63526123Y-52574999D01*
X63560339Y-52595508D01*
X63592381Y-52619271D01*
X63621939Y-52646061D01*
X63648729Y-52675619D01*
X63672492Y-52707661D01*
X63693001Y-52741877D01*
X63710057Y-52777939D01*
X63723496Y-52815499D01*
X63733189Y-52854196D01*
X63739043Y-52893656D01*
X63741000Y-52933500D01*
X63741000Y-53746500D01*
X63739043Y-53786344D01*
X63733189Y-53825804D01*
X63723496Y-53864501D01*
X63710057Y-53902061D01*
X63693001Y-53938123D01*
X63672492Y-53972339D01*
X63648729Y-54004381D01*
X63621939Y-54033939D01*
X63592381Y-54060729D01*
X63560339Y-54084492D01*
X63526123Y-54105001D01*
X63490061Y-54122057D01*
X63452501Y-54135496D01*
X63413804Y-54145189D01*
X63374344Y-54151043D01*
X63334500Y-54153000D01*
X56045500Y-54153000D01*
X56005656Y-54151043D01*
X55966196Y-54145189D01*
X55927499Y-54135496D01*
X55889939Y-54122057D01*
X55853877Y-54105001D01*
X55819661Y-54084492D01*
X55787619Y-54060729D01*
X55758061Y-54033939D01*
X55731271Y-54004381D01*
X55707508Y-53972339D01*
X55686999Y-53938123D01*
X55669943Y-53902061D01*
X55656504Y-53864501D01*
X55646811Y-53825804D01*
X55640957Y-53786344D01*
X55639000Y-53746500D01*
X55639000Y-52933500D01*
X55640957Y-52893656D01*
X55646811Y-52854196D01*
X55656504Y-52815499D01*
X55669943Y-52777939D01*
X55686999Y-52741877D01*
X55707508Y-52707661D01*
X55731271Y-52675619D01*
X55758061Y-52646061D01*
X55787619Y-52619271D01*
X55819661Y-52595508D01*
X55853877Y-52574999D01*
X55889939Y-52557943D01*
X55927499Y-52544504D01*
X55966196Y-52534811D01*
X56005656Y-52528957D01*
X56045500Y-52527000D01*
X63334500Y-52527000D01*
X63374344Y-52528957D01*
X63374344Y-52528957D01*
G37*
D13*
X59690000Y-53340000D03*
D12*
G36*
X63374344Y-55068957D02*
G01*
X63413804Y-55074811D01*
X63452501Y-55084504D01*
X63490061Y-55097943D01*
X63526123Y-55114999D01*
X63560339Y-55135508D01*
X63592381Y-55159271D01*
X63621939Y-55186061D01*
X63648729Y-55215619D01*
X63672492Y-55247661D01*
X63693001Y-55281877D01*
X63710057Y-55317939D01*
X63723496Y-55355499D01*
X63733189Y-55394196D01*
X63739043Y-55433656D01*
X63741000Y-55473500D01*
X63741000Y-56286500D01*
X63739043Y-56326344D01*
X63733189Y-56365804D01*
X63723496Y-56404501D01*
X63710057Y-56442061D01*
X63693001Y-56478123D01*
X63672492Y-56512339D01*
X63648729Y-56544381D01*
X63621939Y-56573939D01*
X63592381Y-56600729D01*
X63560339Y-56624492D01*
X63526123Y-56645001D01*
X63490061Y-56662057D01*
X63452501Y-56675496D01*
X63413804Y-56685189D01*
X63374344Y-56691043D01*
X63334500Y-56693000D01*
X56045500Y-56693000D01*
X56005656Y-56691043D01*
X55966196Y-56685189D01*
X55927499Y-56675496D01*
X55889939Y-56662057D01*
X55853877Y-56645001D01*
X55819661Y-56624492D01*
X55787619Y-56600729D01*
X55758061Y-56573939D01*
X55731271Y-56544381D01*
X55707508Y-56512339D01*
X55686999Y-56478123D01*
X55669943Y-56442061D01*
X55656504Y-56404501D01*
X55646811Y-56365804D01*
X55640957Y-56326344D01*
X55639000Y-56286500D01*
X55639000Y-55473500D01*
X55640957Y-55433656D01*
X55646811Y-55394196D01*
X55656504Y-55355499D01*
X55669943Y-55317939D01*
X55686999Y-55281877D01*
X55707508Y-55247661D01*
X55731271Y-55215619D01*
X55758061Y-55186061D01*
X55787619Y-55159271D01*
X55819661Y-55135508D01*
X55853877Y-55114999D01*
X55889939Y-55097943D01*
X55927499Y-55084504D01*
X55966196Y-55074811D01*
X56005656Y-55068957D01*
X56045500Y-55067000D01*
X63334500Y-55067000D01*
X63374344Y-55068957D01*
X63374344Y-55068957D01*
G37*
D13*
X59690000Y-55880000D03*
D12*
G36*
X63374344Y-57608957D02*
G01*
X63413804Y-57614811D01*
X63452501Y-57624504D01*
X63490061Y-57637943D01*
X63526123Y-57654999D01*
X63560339Y-57675508D01*
X63592381Y-57699271D01*
X63621939Y-57726061D01*
X63648729Y-57755619D01*
X63672492Y-57787661D01*
X63693001Y-57821877D01*
X63710057Y-57857939D01*
X63723496Y-57895499D01*
X63733189Y-57934196D01*
X63739043Y-57973656D01*
X63741000Y-58013500D01*
X63741000Y-58826500D01*
X63739043Y-58866344D01*
X63733189Y-58905804D01*
X63723496Y-58944501D01*
X63710057Y-58982061D01*
X63693001Y-59018123D01*
X63672492Y-59052339D01*
X63648729Y-59084381D01*
X63621939Y-59113939D01*
X63592381Y-59140729D01*
X63560339Y-59164492D01*
X63526123Y-59185001D01*
X63490061Y-59202057D01*
X63452501Y-59215496D01*
X63413804Y-59225189D01*
X63374344Y-59231043D01*
X63334500Y-59233000D01*
X56045500Y-59233000D01*
X56005656Y-59231043D01*
X55966196Y-59225189D01*
X55927499Y-59215496D01*
X55889939Y-59202057D01*
X55853877Y-59185001D01*
X55819661Y-59164492D01*
X55787619Y-59140729D01*
X55758061Y-59113939D01*
X55731271Y-59084381D01*
X55707508Y-59052339D01*
X55686999Y-59018123D01*
X55669943Y-58982061D01*
X55656504Y-58944501D01*
X55646811Y-58905804D01*
X55640957Y-58866344D01*
X55639000Y-58826500D01*
X55639000Y-58013500D01*
X55640957Y-57973656D01*
X55646811Y-57934196D01*
X55656504Y-57895499D01*
X55669943Y-57857939D01*
X55686999Y-57821877D01*
X55707508Y-57787661D01*
X55731271Y-57755619D01*
X55758061Y-57726061D01*
X55787619Y-57699271D01*
X55819661Y-57675508D01*
X55853877Y-57654999D01*
X55889939Y-57637943D01*
X55927499Y-57624504D01*
X55966196Y-57614811D01*
X56005656Y-57608957D01*
X56045500Y-57607000D01*
X63334500Y-57607000D01*
X63374344Y-57608957D01*
X63374344Y-57608957D01*
G37*
D13*
X59690000Y-58420000D03*
D12*
G36*
X63374344Y-60148957D02*
G01*
X63413804Y-60154811D01*
X63452501Y-60164504D01*
X63490061Y-60177943D01*
X63526123Y-60194999D01*
X63560339Y-60215508D01*
X63592381Y-60239271D01*
X63621939Y-60266061D01*
X63648729Y-60295619D01*
X63672492Y-60327661D01*
X63693001Y-60361877D01*
X63710057Y-60397939D01*
X63723496Y-60435499D01*
X63733189Y-60474196D01*
X63739043Y-60513656D01*
X63741000Y-60553500D01*
X63741000Y-61366500D01*
X63739043Y-61406344D01*
X63733189Y-61445804D01*
X63723496Y-61484501D01*
X63710057Y-61522061D01*
X63693001Y-61558123D01*
X63672492Y-61592339D01*
X63648729Y-61624381D01*
X63621939Y-61653939D01*
X63592381Y-61680729D01*
X63560339Y-61704492D01*
X63526123Y-61725001D01*
X63490061Y-61742057D01*
X63452501Y-61755496D01*
X63413804Y-61765189D01*
X63374344Y-61771043D01*
X63334500Y-61773000D01*
X56045500Y-61773000D01*
X56005656Y-61771043D01*
X55966196Y-61765189D01*
X55927499Y-61755496D01*
X55889939Y-61742057D01*
X55853877Y-61725001D01*
X55819661Y-61704492D01*
X55787619Y-61680729D01*
X55758061Y-61653939D01*
X55731271Y-61624381D01*
X55707508Y-61592339D01*
X55686999Y-61558123D01*
X55669943Y-61522061D01*
X55656504Y-61484501D01*
X55646811Y-61445804D01*
X55640957Y-61406344D01*
X55639000Y-61366500D01*
X55639000Y-60553500D01*
X55640957Y-60513656D01*
X55646811Y-60474196D01*
X55656504Y-60435499D01*
X55669943Y-60397939D01*
X55686999Y-60361877D01*
X55707508Y-60327661D01*
X55731271Y-60295619D01*
X55758061Y-60266061D01*
X55787619Y-60239271D01*
X55819661Y-60215508D01*
X55853877Y-60194999D01*
X55889939Y-60177943D01*
X55927499Y-60164504D01*
X55966196Y-60154811D01*
X56005656Y-60148957D01*
X56045500Y-60147000D01*
X63334500Y-60147000D01*
X63374344Y-60148957D01*
X63374344Y-60148957D01*
G37*
D13*
X59690000Y-60960000D03*
D12*
G36*
X63374344Y-62688957D02*
G01*
X63413804Y-62694811D01*
X63452501Y-62704504D01*
X63490061Y-62717943D01*
X63526123Y-62734999D01*
X63560339Y-62755508D01*
X63592381Y-62779271D01*
X63621939Y-62806061D01*
X63648729Y-62835619D01*
X63672492Y-62867661D01*
X63693001Y-62901877D01*
X63710057Y-62937939D01*
X63723496Y-62975499D01*
X63733189Y-63014196D01*
X63739043Y-63053656D01*
X63741000Y-63093500D01*
X63741000Y-63906500D01*
X63739043Y-63946344D01*
X63733189Y-63985804D01*
X63723496Y-64024501D01*
X63710057Y-64062061D01*
X63693001Y-64098123D01*
X63672492Y-64132339D01*
X63648729Y-64164381D01*
X63621939Y-64193939D01*
X63592381Y-64220729D01*
X63560339Y-64244492D01*
X63526123Y-64265001D01*
X63490061Y-64282057D01*
X63452501Y-64295496D01*
X63413804Y-64305189D01*
X63374344Y-64311043D01*
X63334500Y-64313000D01*
X56045500Y-64313000D01*
X56005656Y-64311043D01*
X55966196Y-64305189D01*
X55927499Y-64295496D01*
X55889939Y-64282057D01*
X55853877Y-64265001D01*
X55819661Y-64244492D01*
X55787619Y-64220729D01*
X55758061Y-64193939D01*
X55731271Y-64164381D01*
X55707508Y-64132339D01*
X55686999Y-64098123D01*
X55669943Y-64062061D01*
X55656504Y-64024501D01*
X55646811Y-63985804D01*
X55640957Y-63946344D01*
X55639000Y-63906500D01*
X55639000Y-63093500D01*
X55640957Y-63053656D01*
X55646811Y-63014196D01*
X55656504Y-62975499D01*
X55669943Y-62937939D01*
X55686999Y-62901877D01*
X55707508Y-62867661D01*
X55731271Y-62835619D01*
X55758061Y-62806061D01*
X55787619Y-62779271D01*
X55819661Y-62755508D01*
X55853877Y-62734999D01*
X55889939Y-62717943D01*
X55927499Y-62704504D01*
X55966196Y-62694811D01*
X56005656Y-62688957D01*
X56045500Y-62687000D01*
X63334500Y-62687000D01*
X63374344Y-62688957D01*
X63374344Y-62688957D01*
G37*
D13*
X59690000Y-63500000D03*
D12*
G36*
X63374344Y-65228957D02*
G01*
X63413804Y-65234811D01*
X63452501Y-65244504D01*
X63490061Y-65257943D01*
X63526123Y-65274999D01*
X63560339Y-65295508D01*
X63592381Y-65319271D01*
X63621939Y-65346061D01*
X63648729Y-65375619D01*
X63672492Y-65407661D01*
X63693001Y-65441877D01*
X63710057Y-65477939D01*
X63723496Y-65515499D01*
X63733189Y-65554196D01*
X63739043Y-65593656D01*
X63741000Y-65633500D01*
X63741000Y-66446500D01*
X63739043Y-66486344D01*
X63733189Y-66525804D01*
X63723496Y-66564501D01*
X63710057Y-66602061D01*
X63693001Y-66638123D01*
X63672492Y-66672339D01*
X63648729Y-66704381D01*
X63621939Y-66733939D01*
X63592381Y-66760729D01*
X63560339Y-66784492D01*
X63526123Y-66805001D01*
X63490061Y-66822057D01*
X63452501Y-66835496D01*
X63413804Y-66845189D01*
X63374344Y-66851043D01*
X63334500Y-66853000D01*
X56045500Y-66853000D01*
X56005656Y-66851043D01*
X55966196Y-66845189D01*
X55927499Y-66835496D01*
X55889939Y-66822057D01*
X55853877Y-66805001D01*
X55819661Y-66784492D01*
X55787619Y-66760729D01*
X55758061Y-66733939D01*
X55731271Y-66704381D01*
X55707508Y-66672339D01*
X55686999Y-66638123D01*
X55669943Y-66602061D01*
X55656504Y-66564501D01*
X55646811Y-66525804D01*
X55640957Y-66486344D01*
X55639000Y-66446500D01*
X55639000Y-65633500D01*
X55640957Y-65593656D01*
X55646811Y-65554196D01*
X55656504Y-65515499D01*
X55669943Y-65477939D01*
X55686999Y-65441877D01*
X55707508Y-65407661D01*
X55731271Y-65375619D01*
X55758061Y-65346061D01*
X55787619Y-65319271D01*
X55819661Y-65295508D01*
X55853877Y-65274999D01*
X55889939Y-65257943D01*
X55927499Y-65244504D01*
X55966196Y-65234811D01*
X56005656Y-65228957D01*
X56045500Y-65227000D01*
X63334500Y-65227000D01*
X63374344Y-65228957D01*
X63374344Y-65228957D01*
G37*
D13*
X59690000Y-66040000D03*
D12*
G36*
X63374344Y-70308957D02*
G01*
X63413804Y-70314811D01*
X63452501Y-70324504D01*
X63490061Y-70337943D01*
X63526123Y-70354999D01*
X63560339Y-70375508D01*
X63592381Y-70399271D01*
X63621939Y-70426061D01*
X63648729Y-70455619D01*
X63672492Y-70487661D01*
X63693001Y-70521877D01*
X63710057Y-70557939D01*
X63723496Y-70595499D01*
X63733189Y-70634196D01*
X63739043Y-70673656D01*
X63741000Y-70713500D01*
X63741000Y-71526500D01*
X63739043Y-71566344D01*
X63733189Y-71605804D01*
X63723496Y-71644501D01*
X63710057Y-71682061D01*
X63693001Y-71718123D01*
X63672492Y-71752339D01*
X63648729Y-71784381D01*
X63621939Y-71813939D01*
X63592381Y-71840729D01*
X63560339Y-71864492D01*
X63526123Y-71885001D01*
X63490061Y-71902057D01*
X63452501Y-71915496D01*
X63413804Y-71925189D01*
X63374344Y-71931043D01*
X63334500Y-71933000D01*
X56045500Y-71933000D01*
X56005656Y-71931043D01*
X55966196Y-71925189D01*
X55927499Y-71915496D01*
X55889939Y-71902057D01*
X55853877Y-71885001D01*
X55819661Y-71864492D01*
X55787619Y-71840729D01*
X55758061Y-71813939D01*
X55731271Y-71784381D01*
X55707508Y-71752339D01*
X55686999Y-71718123D01*
X55669943Y-71682061D01*
X55656504Y-71644501D01*
X55646811Y-71605804D01*
X55640957Y-71566344D01*
X55639000Y-71526500D01*
X55639000Y-70713500D01*
X55640957Y-70673656D01*
X55646811Y-70634196D01*
X55656504Y-70595499D01*
X55669943Y-70557939D01*
X55686999Y-70521877D01*
X55707508Y-70487661D01*
X55731271Y-70455619D01*
X55758061Y-70426061D01*
X55787619Y-70399271D01*
X55819661Y-70375508D01*
X55853877Y-70354999D01*
X55889939Y-70337943D01*
X55927499Y-70324504D01*
X55966196Y-70314811D01*
X56005656Y-70308957D01*
X56045500Y-70307000D01*
X63334500Y-70307000D01*
X63374344Y-70308957D01*
X63374344Y-70308957D01*
G37*
D13*
X59690000Y-71120000D03*
D12*
G36*
X63374344Y-72848957D02*
G01*
X63413804Y-72854811D01*
X63452501Y-72864504D01*
X63490061Y-72877943D01*
X63526123Y-72894999D01*
X63560339Y-72915508D01*
X63592381Y-72939271D01*
X63621939Y-72966061D01*
X63648729Y-72995619D01*
X63672492Y-73027661D01*
X63693001Y-73061877D01*
X63710057Y-73097939D01*
X63723496Y-73135499D01*
X63733189Y-73174196D01*
X63739043Y-73213656D01*
X63741000Y-73253500D01*
X63741000Y-74066500D01*
X63739043Y-74106344D01*
X63733189Y-74145804D01*
X63723496Y-74184501D01*
X63710057Y-74222061D01*
X63693001Y-74258123D01*
X63672492Y-74292339D01*
X63648729Y-74324381D01*
X63621939Y-74353939D01*
X63592381Y-74380729D01*
X63560339Y-74404492D01*
X63526123Y-74425001D01*
X63490061Y-74442057D01*
X63452501Y-74455496D01*
X63413804Y-74465189D01*
X63374344Y-74471043D01*
X63334500Y-74473000D01*
X56045500Y-74473000D01*
X56005656Y-74471043D01*
X55966196Y-74465189D01*
X55927499Y-74455496D01*
X55889939Y-74442057D01*
X55853877Y-74425001D01*
X55819661Y-74404492D01*
X55787619Y-74380729D01*
X55758061Y-74353939D01*
X55731271Y-74324381D01*
X55707508Y-74292339D01*
X55686999Y-74258123D01*
X55669943Y-74222061D01*
X55656504Y-74184501D01*
X55646811Y-74145804D01*
X55640957Y-74106344D01*
X55639000Y-74066500D01*
X55639000Y-73253500D01*
X55640957Y-73213656D01*
X55646811Y-73174196D01*
X55656504Y-73135499D01*
X55669943Y-73097939D01*
X55686999Y-73061877D01*
X55707508Y-73027661D01*
X55731271Y-72995619D01*
X55758061Y-72966061D01*
X55787619Y-72939271D01*
X55819661Y-72915508D01*
X55853877Y-72894999D01*
X55889939Y-72877943D01*
X55927499Y-72864504D01*
X55966196Y-72854811D01*
X56005656Y-72848957D01*
X56045500Y-72847000D01*
X63334500Y-72847000D01*
X63374344Y-72848957D01*
X63374344Y-72848957D01*
G37*
D13*
X59690000Y-73660000D03*
D14*
X81915000Y-66040000D03*
D15*
X66675000Y-33020000D03*
X81915000Y-63500000D03*
X66675000Y-35560000D03*
X81915000Y-60960000D03*
X66675000Y-38100000D03*
X81915000Y-58420000D03*
X66675000Y-40640000D03*
X81915000Y-55880000D03*
X66675000Y-43180000D03*
X81915000Y-53340000D03*
X66675000Y-45720000D03*
X81915000Y-50800000D03*
X66675000Y-48260000D03*
X81915000Y-48260000D03*
X66675000Y-50800000D03*
X81915000Y-45720000D03*
X66675000Y-53340000D03*
X81915000Y-43180000D03*
X66675000Y-55880000D03*
X81915000Y-40640000D03*
X66675000Y-58420000D03*
X81915000Y-38100000D03*
X66675000Y-60960000D03*
X81915000Y-35560000D03*
X66675000Y-63500000D03*
X81915000Y-33020000D03*
X66675000Y-66040000D03*
D16*
X76755000Y-69850000D03*
X71755000Y-69850000D03*
D17*
X79375000Y-69850000D03*
D18*
X81915000Y-69850000D03*
D17*
X66675000Y-69850000D03*
D18*
X69215000Y-69850000D03*
D19*
X66675000Y-73660000D03*
X69215000Y-73660000D03*
D20*
X71755000Y-73660000D03*
D19*
X78740000Y-73660000D03*
D20*
X81280000Y-73660000D03*
M02*
