G04 #@! TF.GenerationSoftware,KiCad,Pcbnew,(5.1.2-1)-1*
G04 #@! TF.CreationDate,2023-07-30T19:28:41+02:00*
G04 #@! TF.ProjectId,devcart32k,64657663-6172-4743-9332-6b2e6b696361,rev?*
G04 #@! TF.SameCoordinates,Original*
G04 #@! TF.FileFunction,Soldermask,Top*
G04 #@! TF.FilePolarity,Negative*
%FSLAX46Y46*%
G04 Gerber Fmt 4.6, Leading zero omitted, Abs format (unit mm)*
G04 Created by KiCad (PCBNEW (5.1.2-1)-1) date 2023-07-30 19:28:41*
%MOMM*%
%LPD*%
G04 APERTURE LIST*
%ADD10C,0.100000*%
%ADD11C,0.150000*%
G04 APERTURE END LIST*
D10*
G36*
X52070000Y-74930000D02*
G01*
X52070000Y-123190000D01*
X59690000Y-123190000D01*
X59690000Y-74930000D01*
X52070000Y-74930000D01*
G37*
X52070000Y-74930000D02*
X52070000Y-123190000D01*
X59690000Y-123190000D01*
X59690000Y-74930000D01*
X52070000Y-74930000D01*
D11*
G36*
X128436823Y-122351313D02*
G01*
X128597242Y-122399976D01*
X128729906Y-122470886D01*
X128745078Y-122478996D01*
X128874659Y-122585341D01*
X128981004Y-122714922D01*
X128981005Y-122714924D01*
X129060024Y-122862758D01*
X129108687Y-123023177D01*
X129125117Y-123190000D01*
X129108687Y-123356823D01*
X129060024Y-123517242D01*
X128989114Y-123649906D01*
X128981004Y-123665078D01*
X128874659Y-123794659D01*
X128745078Y-123901004D01*
X128745076Y-123901005D01*
X128597242Y-123980024D01*
X128436823Y-124028687D01*
X128311804Y-124041000D01*
X128228196Y-124041000D01*
X128103177Y-124028687D01*
X127942758Y-123980024D01*
X127794924Y-123901005D01*
X127794922Y-123901004D01*
X127665341Y-123794659D01*
X127558996Y-123665078D01*
X127550886Y-123649906D01*
X127479976Y-123517242D01*
X127431313Y-123356823D01*
X127414883Y-123190000D01*
X127431313Y-123023177D01*
X127479976Y-122862758D01*
X127558995Y-122714924D01*
X127558996Y-122714922D01*
X127665341Y-122585341D01*
X127794922Y-122478996D01*
X127810094Y-122470886D01*
X127942758Y-122399976D01*
X128103177Y-122351313D01*
X128228196Y-122339000D01*
X128311804Y-122339000D01*
X128436823Y-122351313D01*
X128436823Y-122351313D01*
G37*
G36*
X120816823Y-122351313D02*
G01*
X120977242Y-122399976D01*
X121109906Y-122470886D01*
X121125078Y-122478996D01*
X121254659Y-122585341D01*
X121361004Y-122714922D01*
X121361005Y-122714924D01*
X121440024Y-122862758D01*
X121488687Y-123023177D01*
X121505117Y-123190000D01*
X121488687Y-123356823D01*
X121440024Y-123517242D01*
X121369114Y-123649906D01*
X121361004Y-123665078D01*
X121254659Y-123794659D01*
X121125078Y-123901004D01*
X121125076Y-123901005D01*
X120977242Y-123980024D01*
X120816823Y-124028687D01*
X120691804Y-124041000D01*
X120608196Y-124041000D01*
X120483177Y-124028687D01*
X120322758Y-123980024D01*
X120174924Y-123901005D01*
X120174922Y-123901004D01*
X120045341Y-123794659D01*
X119938996Y-123665078D01*
X119930886Y-123649906D01*
X119859976Y-123517242D01*
X119811313Y-123356823D01*
X119794883Y-123190000D01*
X119811313Y-123023177D01*
X119859976Y-122862758D01*
X119938995Y-122714924D01*
X119938996Y-122714922D01*
X120045341Y-122585341D01*
X120174922Y-122478996D01*
X120190094Y-122470886D01*
X120322758Y-122399976D01*
X120483177Y-122351313D01*
X120608196Y-122339000D01*
X120691804Y-122339000D01*
X120816823Y-122351313D01*
X120816823Y-122351313D01*
G37*
G36*
X117006823Y-122351313D02*
G01*
X117167242Y-122399976D01*
X117299906Y-122470886D01*
X117315078Y-122478996D01*
X117444659Y-122585341D01*
X117551004Y-122714922D01*
X117551005Y-122714924D01*
X117630024Y-122862758D01*
X117678687Y-123023177D01*
X117695117Y-123190000D01*
X117678687Y-123356823D01*
X117630024Y-123517242D01*
X117559114Y-123649906D01*
X117551004Y-123665078D01*
X117444659Y-123794659D01*
X117315078Y-123901004D01*
X117315076Y-123901005D01*
X117167242Y-123980024D01*
X117006823Y-124028687D01*
X116881804Y-124041000D01*
X116798196Y-124041000D01*
X116673177Y-124028687D01*
X116512758Y-123980024D01*
X116364924Y-123901005D01*
X116364922Y-123901004D01*
X116235341Y-123794659D01*
X116128996Y-123665078D01*
X116120886Y-123649906D01*
X116049976Y-123517242D01*
X116001313Y-123356823D01*
X115984883Y-123190000D01*
X116001313Y-123023177D01*
X116049976Y-122862758D01*
X116128995Y-122714924D01*
X116128996Y-122714922D01*
X116235341Y-122585341D01*
X116364922Y-122478996D01*
X116380094Y-122470886D01*
X116512758Y-122399976D01*
X116673177Y-122351313D01*
X116798196Y-122339000D01*
X116881804Y-122339000D01*
X117006823Y-122351313D01*
X117006823Y-122351313D01*
G37*
G36*
X109386823Y-122351313D02*
G01*
X109547242Y-122399976D01*
X109679906Y-122470886D01*
X109695078Y-122478996D01*
X109824659Y-122585341D01*
X109931004Y-122714922D01*
X109931005Y-122714924D01*
X110010024Y-122862758D01*
X110058687Y-123023177D01*
X110075117Y-123190000D01*
X110058687Y-123356823D01*
X110010024Y-123517242D01*
X109939114Y-123649906D01*
X109931004Y-123665078D01*
X109824659Y-123794659D01*
X109695078Y-123901004D01*
X109695076Y-123901005D01*
X109547242Y-123980024D01*
X109386823Y-124028687D01*
X109261804Y-124041000D01*
X109178196Y-124041000D01*
X109053177Y-124028687D01*
X108892758Y-123980024D01*
X108744924Y-123901005D01*
X108744922Y-123901004D01*
X108615341Y-123794659D01*
X108508996Y-123665078D01*
X108500886Y-123649906D01*
X108429976Y-123517242D01*
X108381313Y-123356823D01*
X108364883Y-123190000D01*
X108381313Y-123023177D01*
X108429976Y-122862758D01*
X108508995Y-122714924D01*
X108508996Y-122714922D01*
X108615341Y-122585341D01*
X108744922Y-122478996D01*
X108760094Y-122470886D01*
X108892758Y-122399976D01*
X109053177Y-122351313D01*
X109178196Y-122339000D01*
X109261804Y-122339000D01*
X109386823Y-122351313D01*
X109386823Y-122351313D01*
G37*
G36*
X128436823Y-119811313D02*
G01*
X128597242Y-119859976D01*
X128682426Y-119905508D01*
X128745078Y-119938996D01*
X128874659Y-120045341D01*
X128981004Y-120174922D01*
X128981005Y-120174924D01*
X129060024Y-120322758D01*
X129108687Y-120483177D01*
X129125117Y-120650000D01*
X129108687Y-120816823D01*
X129060024Y-120977242D01*
X128989114Y-121109906D01*
X128981004Y-121125078D01*
X128874659Y-121254659D01*
X128745078Y-121361004D01*
X128745076Y-121361005D01*
X128597242Y-121440024D01*
X128436823Y-121488687D01*
X128311804Y-121501000D01*
X128228196Y-121501000D01*
X128103177Y-121488687D01*
X127942758Y-121440024D01*
X127794924Y-121361005D01*
X127794922Y-121361004D01*
X127665341Y-121254659D01*
X127558996Y-121125078D01*
X127550886Y-121109906D01*
X127479976Y-120977242D01*
X127431313Y-120816823D01*
X127414883Y-120650000D01*
X127431313Y-120483177D01*
X127479976Y-120322758D01*
X127558995Y-120174924D01*
X127558996Y-120174922D01*
X127665341Y-120045341D01*
X127794922Y-119938996D01*
X127857574Y-119905508D01*
X127942758Y-119859976D01*
X128103177Y-119811313D01*
X128228196Y-119799000D01*
X128311804Y-119799000D01*
X128436823Y-119811313D01*
X128436823Y-119811313D01*
G37*
G36*
X120816823Y-119811313D02*
G01*
X120977242Y-119859976D01*
X121062426Y-119905508D01*
X121125078Y-119938996D01*
X121254659Y-120045341D01*
X121361004Y-120174922D01*
X121361005Y-120174924D01*
X121440024Y-120322758D01*
X121488687Y-120483177D01*
X121505117Y-120650000D01*
X121488687Y-120816823D01*
X121440024Y-120977242D01*
X121369114Y-121109906D01*
X121361004Y-121125078D01*
X121254659Y-121254659D01*
X121125078Y-121361004D01*
X121125076Y-121361005D01*
X120977242Y-121440024D01*
X120816823Y-121488687D01*
X120691804Y-121501000D01*
X120608196Y-121501000D01*
X120483177Y-121488687D01*
X120322758Y-121440024D01*
X120174924Y-121361005D01*
X120174922Y-121361004D01*
X120045341Y-121254659D01*
X119938996Y-121125078D01*
X119930886Y-121109906D01*
X119859976Y-120977242D01*
X119811313Y-120816823D01*
X119794883Y-120650000D01*
X119811313Y-120483177D01*
X119859976Y-120322758D01*
X119938995Y-120174924D01*
X119938996Y-120174922D01*
X120045341Y-120045341D01*
X120174922Y-119938996D01*
X120237574Y-119905508D01*
X120322758Y-119859976D01*
X120483177Y-119811313D01*
X120608196Y-119799000D01*
X120691804Y-119799000D01*
X120816823Y-119811313D01*
X120816823Y-119811313D01*
G37*
G36*
X117006823Y-119811313D02*
G01*
X117167242Y-119859976D01*
X117252426Y-119905508D01*
X117315078Y-119938996D01*
X117444659Y-120045341D01*
X117551004Y-120174922D01*
X117551005Y-120174924D01*
X117630024Y-120322758D01*
X117678687Y-120483177D01*
X117695117Y-120650000D01*
X117678687Y-120816823D01*
X117630024Y-120977242D01*
X117559114Y-121109906D01*
X117551004Y-121125078D01*
X117444659Y-121254659D01*
X117315078Y-121361004D01*
X117315076Y-121361005D01*
X117167242Y-121440024D01*
X117006823Y-121488687D01*
X116881804Y-121501000D01*
X116798196Y-121501000D01*
X116673177Y-121488687D01*
X116512758Y-121440024D01*
X116364924Y-121361005D01*
X116364922Y-121361004D01*
X116235341Y-121254659D01*
X116128996Y-121125078D01*
X116120886Y-121109906D01*
X116049976Y-120977242D01*
X116001313Y-120816823D01*
X115984883Y-120650000D01*
X116001313Y-120483177D01*
X116049976Y-120322758D01*
X116128995Y-120174924D01*
X116128996Y-120174922D01*
X116235341Y-120045341D01*
X116364922Y-119938996D01*
X116427574Y-119905508D01*
X116512758Y-119859976D01*
X116673177Y-119811313D01*
X116798196Y-119799000D01*
X116881804Y-119799000D01*
X117006823Y-119811313D01*
X117006823Y-119811313D01*
G37*
G36*
X109386823Y-119811313D02*
G01*
X109547242Y-119859976D01*
X109632426Y-119905508D01*
X109695078Y-119938996D01*
X109824659Y-120045341D01*
X109931004Y-120174922D01*
X109931005Y-120174924D01*
X110010024Y-120322758D01*
X110058687Y-120483177D01*
X110075117Y-120650000D01*
X110058687Y-120816823D01*
X110010024Y-120977242D01*
X109939114Y-121109906D01*
X109931004Y-121125078D01*
X109824659Y-121254659D01*
X109695078Y-121361004D01*
X109695076Y-121361005D01*
X109547242Y-121440024D01*
X109386823Y-121488687D01*
X109261804Y-121501000D01*
X109178196Y-121501000D01*
X109053177Y-121488687D01*
X108892758Y-121440024D01*
X108744924Y-121361005D01*
X108744922Y-121361004D01*
X108615341Y-121254659D01*
X108508996Y-121125078D01*
X108500886Y-121109906D01*
X108429976Y-120977242D01*
X108381313Y-120816823D01*
X108364883Y-120650000D01*
X108381313Y-120483177D01*
X108429976Y-120322758D01*
X108508995Y-120174924D01*
X108508996Y-120174922D01*
X108615341Y-120045341D01*
X108744922Y-119938996D01*
X108807574Y-119905508D01*
X108892758Y-119859976D01*
X109053177Y-119811313D01*
X109178196Y-119799000D01*
X109261804Y-119799000D01*
X109386823Y-119811313D01*
X109386823Y-119811313D01*
G37*
G36*
X59653993Y-119844203D02*
G01*
X59718411Y-119863744D01*
X59777781Y-119895478D01*
X59829817Y-119938183D01*
X59872522Y-119990219D01*
X59904256Y-120049589D01*
X59923797Y-120114007D01*
X59931000Y-120187140D01*
X59931000Y-121112860D01*
X59923797Y-121185993D01*
X59904256Y-121250411D01*
X59872522Y-121309781D01*
X59829817Y-121361817D01*
X59777781Y-121404522D01*
X59718411Y-121436256D01*
X59653993Y-121455797D01*
X59580860Y-121463000D01*
X52179140Y-121463000D01*
X52106007Y-121455797D01*
X52041589Y-121436256D01*
X51982219Y-121404522D01*
X51930183Y-121361817D01*
X51887478Y-121309781D01*
X51855744Y-121250411D01*
X51836203Y-121185993D01*
X51829000Y-121112860D01*
X51829000Y-120187140D01*
X51836203Y-120114007D01*
X51855744Y-120049589D01*
X51887478Y-119990219D01*
X51930183Y-119938183D01*
X51982219Y-119895478D01*
X52041589Y-119863744D01*
X52106007Y-119844203D01*
X52179140Y-119837000D01*
X59580860Y-119837000D01*
X59653993Y-119844203D01*
X59653993Y-119844203D01*
G37*
G36*
X128436823Y-117271313D02*
G01*
X128597242Y-117319976D01*
X128682426Y-117365508D01*
X128745078Y-117398996D01*
X128874659Y-117505341D01*
X128981004Y-117634922D01*
X128981005Y-117634924D01*
X129060024Y-117782758D01*
X129108687Y-117943177D01*
X129125117Y-118110000D01*
X129108687Y-118276823D01*
X129060024Y-118437242D01*
X128989114Y-118569906D01*
X128981004Y-118585078D01*
X128874659Y-118714659D01*
X128745078Y-118821004D01*
X128745076Y-118821005D01*
X128597242Y-118900024D01*
X128436823Y-118948687D01*
X128311804Y-118961000D01*
X128228196Y-118961000D01*
X128103177Y-118948687D01*
X127942758Y-118900024D01*
X127794924Y-118821005D01*
X127794922Y-118821004D01*
X127665341Y-118714659D01*
X127558996Y-118585078D01*
X127550886Y-118569906D01*
X127479976Y-118437242D01*
X127431313Y-118276823D01*
X127414883Y-118110000D01*
X127431313Y-117943177D01*
X127479976Y-117782758D01*
X127558995Y-117634924D01*
X127558996Y-117634922D01*
X127665341Y-117505341D01*
X127794922Y-117398996D01*
X127857574Y-117365508D01*
X127942758Y-117319976D01*
X128103177Y-117271313D01*
X128228196Y-117259000D01*
X128311804Y-117259000D01*
X128436823Y-117271313D01*
X128436823Y-117271313D01*
G37*
G36*
X120816823Y-117271313D02*
G01*
X120977242Y-117319976D01*
X121062426Y-117365508D01*
X121125078Y-117398996D01*
X121254659Y-117505341D01*
X121361004Y-117634922D01*
X121361005Y-117634924D01*
X121440024Y-117782758D01*
X121488687Y-117943177D01*
X121505117Y-118110000D01*
X121488687Y-118276823D01*
X121440024Y-118437242D01*
X121369114Y-118569906D01*
X121361004Y-118585078D01*
X121254659Y-118714659D01*
X121125078Y-118821004D01*
X121125076Y-118821005D01*
X120977242Y-118900024D01*
X120816823Y-118948687D01*
X120691804Y-118961000D01*
X120608196Y-118961000D01*
X120483177Y-118948687D01*
X120322758Y-118900024D01*
X120174924Y-118821005D01*
X120174922Y-118821004D01*
X120045341Y-118714659D01*
X119938996Y-118585078D01*
X119930886Y-118569906D01*
X119859976Y-118437242D01*
X119811313Y-118276823D01*
X119794883Y-118110000D01*
X119811313Y-117943177D01*
X119859976Y-117782758D01*
X119938995Y-117634924D01*
X119938996Y-117634922D01*
X120045341Y-117505341D01*
X120174922Y-117398996D01*
X120237574Y-117365508D01*
X120322758Y-117319976D01*
X120483177Y-117271313D01*
X120608196Y-117259000D01*
X120691804Y-117259000D01*
X120816823Y-117271313D01*
X120816823Y-117271313D01*
G37*
G36*
X117006823Y-117271313D02*
G01*
X117167242Y-117319976D01*
X117252426Y-117365508D01*
X117315078Y-117398996D01*
X117444659Y-117505341D01*
X117551004Y-117634922D01*
X117551005Y-117634924D01*
X117630024Y-117782758D01*
X117678687Y-117943177D01*
X117695117Y-118110000D01*
X117678687Y-118276823D01*
X117630024Y-118437242D01*
X117559114Y-118569906D01*
X117551004Y-118585078D01*
X117444659Y-118714659D01*
X117315078Y-118821004D01*
X117315076Y-118821005D01*
X117167242Y-118900024D01*
X117006823Y-118948687D01*
X116881804Y-118961000D01*
X116798196Y-118961000D01*
X116673177Y-118948687D01*
X116512758Y-118900024D01*
X116364924Y-118821005D01*
X116364922Y-118821004D01*
X116235341Y-118714659D01*
X116128996Y-118585078D01*
X116120886Y-118569906D01*
X116049976Y-118437242D01*
X116001313Y-118276823D01*
X115984883Y-118110000D01*
X116001313Y-117943177D01*
X116049976Y-117782758D01*
X116128995Y-117634924D01*
X116128996Y-117634922D01*
X116235341Y-117505341D01*
X116364922Y-117398996D01*
X116427574Y-117365508D01*
X116512758Y-117319976D01*
X116673177Y-117271313D01*
X116798196Y-117259000D01*
X116881804Y-117259000D01*
X117006823Y-117271313D01*
X117006823Y-117271313D01*
G37*
G36*
X109386823Y-117271313D02*
G01*
X109547242Y-117319976D01*
X109632426Y-117365508D01*
X109695078Y-117398996D01*
X109824659Y-117505341D01*
X109931004Y-117634922D01*
X109931005Y-117634924D01*
X110010024Y-117782758D01*
X110058687Y-117943177D01*
X110075117Y-118110000D01*
X110058687Y-118276823D01*
X110010024Y-118437242D01*
X109939114Y-118569906D01*
X109931004Y-118585078D01*
X109824659Y-118714659D01*
X109695078Y-118821004D01*
X109695076Y-118821005D01*
X109547242Y-118900024D01*
X109386823Y-118948687D01*
X109261804Y-118961000D01*
X109178196Y-118961000D01*
X109053177Y-118948687D01*
X108892758Y-118900024D01*
X108744924Y-118821005D01*
X108744922Y-118821004D01*
X108615341Y-118714659D01*
X108508996Y-118585078D01*
X108500886Y-118569906D01*
X108429976Y-118437242D01*
X108381313Y-118276823D01*
X108364883Y-118110000D01*
X108381313Y-117943177D01*
X108429976Y-117782758D01*
X108508995Y-117634924D01*
X108508996Y-117634922D01*
X108615341Y-117505341D01*
X108744922Y-117398996D01*
X108807574Y-117365508D01*
X108892758Y-117319976D01*
X109053177Y-117271313D01*
X109178196Y-117259000D01*
X109261804Y-117259000D01*
X109386823Y-117271313D01*
X109386823Y-117271313D01*
G37*
G36*
X59653993Y-117304203D02*
G01*
X59718411Y-117323744D01*
X59777781Y-117355478D01*
X59829817Y-117398183D01*
X59872522Y-117450219D01*
X59904256Y-117509589D01*
X59923797Y-117574007D01*
X59931000Y-117647140D01*
X59931000Y-118572860D01*
X59923797Y-118645993D01*
X59904256Y-118710411D01*
X59872522Y-118769781D01*
X59829817Y-118821817D01*
X59777781Y-118864522D01*
X59718411Y-118896256D01*
X59653993Y-118915797D01*
X59580860Y-118923000D01*
X52179140Y-118923000D01*
X52106007Y-118915797D01*
X52041589Y-118896256D01*
X51982219Y-118864522D01*
X51930183Y-118821817D01*
X51887478Y-118769781D01*
X51855744Y-118710411D01*
X51836203Y-118645993D01*
X51829000Y-118572860D01*
X51829000Y-117647140D01*
X51836203Y-117574007D01*
X51855744Y-117509589D01*
X51887478Y-117450219D01*
X51930183Y-117398183D01*
X51982219Y-117355478D01*
X52041589Y-117323744D01*
X52106007Y-117304203D01*
X52179140Y-117297000D01*
X59580860Y-117297000D01*
X59653993Y-117304203D01*
X59653993Y-117304203D01*
G37*
G36*
X106261000Y-116421000D02*
G01*
X104559000Y-116421000D01*
X104559000Y-114719000D01*
X106261000Y-114719000D01*
X106261000Y-116421000D01*
X106261000Y-116421000D01*
G37*
G36*
X90336823Y-114731313D02*
G01*
X90497242Y-114779976D01*
X90629906Y-114850886D01*
X90645078Y-114858996D01*
X90774659Y-114965341D01*
X90881004Y-115094922D01*
X90881005Y-115094924D01*
X90960024Y-115242758D01*
X91008687Y-115403177D01*
X91025117Y-115570000D01*
X91008687Y-115736823D01*
X90960024Y-115897242D01*
X90904876Y-116000416D01*
X90881004Y-116045078D01*
X90774659Y-116174659D01*
X90645078Y-116281004D01*
X90645076Y-116281005D01*
X90497242Y-116360024D01*
X90336823Y-116408687D01*
X90211804Y-116421000D01*
X90128196Y-116421000D01*
X90003177Y-116408687D01*
X89842758Y-116360024D01*
X89694924Y-116281005D01*
X89694922Y-116281004D01*
X89565341Y-116174659D01*
X89458996Y-116045078D01*
X89435124Y-116000416D01*
X89379976Y-115897242D01*
X89331313Y-115736823D01*
X89314883Y-115570000D01*
X89331313Y-115403177D01*
X89379976Y-115242758D01*
X89458995Y-115094924D01*
X89458996Y-115094922D01*
X89565341Y-114965341D01*
X89694922Y-114858996D01*
X89710094Y-114850886D01*
X89842758Y-114779976D01*
X90003177Y-114731313D01*
X90128196Y-114719000D01*
X90211804Y-114719000D01*
X90336823Y-114731313D01*
X90336823Y-114731313D01*
G37*
G36*
X128436823Y-114731313D02*
G01*
X128597242Y-114779976D01*
X128729906Y-114850886D01*
X128745078Y-114858996D01*
X128874659Y-114965341D01*
X128981004Y-115094922D01*
X128981005Y-115094924D01*
X129060024Y-115242758D01*
X129108687Y-115403177D01*
X129125117Y-115570000D01*
X129108687Y-115736823D01*
X129060024Y-115897242D01*
X129004876Y-116000416D01*
X128981004Y-116045078D01*
X128874659Y-116174659D01*
X128745078Y-116281004D01*
X128745076Y-116281005D01*
X128597242Y-116360024D01*
X128436823Y-116408687D01*
X128311804Y-116421000D01*
X128228196Y-116421000D01*
X128103177Y-116408687D01*
X127942758Y-116360024D01*
X127794924Y-116281005D01*
X127794922Y-116281004D01*
X127665341Y-116174659D01*
X127558996Y-116045078D01*
X127535124Y-116000416D01*
X127479976Y-115897242D01*
X127431313Y-115736823D01*
X127414883Y-115570000D01*
X127431313Y-115403177D01*
X127479976Y-115242758D01*
X127558995Y-115094924D01*
X127558996Y-115094922D01*
X127665341Y-114965341D01*
X127794922Y-114858996D01*
X127810094Y-114850886D01*
X127942758Y-114779976D01*
X128103177Y-114731313D01*
X128228196Y-114719000D01*
X128311804Y-114719000D01*
X128436823Y-114731313D01*
X128436823Y-114731313D01*
G37*
G36*
X120816823Y-114731313D02*
G01*
X120977242Y-114779976D01*
X121109906Y-114850886D01*
X121125078Y-114858996D01*
X121254659Y-114965341D01*
X121361004Y-115094922D01*
X121361005Y-115094924D01*
X121440024Y-115242758D01*
X121488687Y-115403177D01*
X121505117Y-115570000D01*
X121488687Y-115736823D01*
X121440024Y-115897242D01*
X121384876Y-116000416D01*
X121361004Y-116045078D01*
X121254659Y-116174659D01*
X121125078Y-116281004D01*
X121125076Y-116281005D01*
X120977242Y-116360024D01*
X120816823Y-116408687D01*
X120691804Y-116421000D01*
X120608196Y-116421000D01*
X120483177Y-116408687D01*
X120322758Y-116360024D01*
X120174924Y-116281005D01*
X120174922Y-116281004D01*
X120045341Y-116174659D01*
X119938996Y-116045078D01*
X119915124Y-116000416D01*
X119859976Y-115897242D01*
X119811313Y-115736823D01*
X119794883Y-115570000D01*
X119811313Y-115403177D01*
X119859976Y-115242758D01*
X119938995Y-115094924D01*
X119938996Y-115094922D01*
X120045341Y-114965341D01*
X120174922Y-114858996D01*
X120190094Y-114850886D01*
X120322758Y-114779976D01*
X120483177Y-114731313D01*
X120608196Y-114719000D01*
X120691804Y-114719000D01*
X120816823Y-114731313D01*
X120816823Y-114731313D01*
G37*
G36*
X117006823Y-114731313D02*
G01*
X117167242Y-114779976D01*
X117299906Y-114850886D01*
X117315078Y-114858996D01*
X117444659Y-114965341D01*
X117551004Y-115094922D01*
X117551005Y-115094924D01*
X117630024Y-115242758D01*
X117678687Y-115403177D01*
X117695117Y-115570000D01*
X117678687Y-115736823D01*
X117630024Y-115897242D01*
X117574876Y-116000416D01*
X117551004Y-116045078D01*
X117444659Y-116174659D01*
X117315078Y-116281004D01*
X117315076Y-116281005D01*
X117167242Y-116360024D01*
X117006823Y-116408687D01*
X116881804Y-116421000D01*
X116798196Y-116421000D01*
X116673177Y-116408687D01*
X116512758Y-116360024D01*
X116364924Y-116281005D01*
X116364922Y-116281004D01*
X116235341Y-116174659D01*
X116128996Y-116045078D01*
X116105124Y-116000416D01*
X116049976Y-115897242D01*
X116001313Y-115736823D01*
X115984883Y-115570000D01*
X116001313Y-115403177D01*
X116049976Y-115242758D01*
X116128995Y-115094924D01*
X116128996Y-115094922D01*
X116235341Y-114965341D01*
X116364922Y-114858996D01*
X116380094Y-114850886D01*
X116512758Y-114779976D01*
X116673177Y-114731313D01*
X116798196Y-114719000D01*
X116881804Y-114719000D01*
X117006823Y-114731313D01*
X117006823Y-114731313D01*
G37*
G36*
X109386823Y-114731313D02*
G01*
X109547242Y-114779976D01*
X109679906Y-114850886D01*
X109695078Y-114858996D01*
X109824659Y-114965341D01*
X109931004Y-115094922D01*
X109931005Y-115094924D01*
X110010024Y-115242758D01*
X110058687Y-115403177D01*
X110075117Y-115570000D01*
X110058687Y-115736823D01*
X110010024Y-115897242D01*
X109954876Y-116000416D01*
X109931004Y-116045078D01*
X109824659Y-116174659D01*
X109695078Y-116281004D01*
X109695076Y-116281005D01*
X109547242Y-116360024D01*
X109386823Y-116408687D01*
X109261804Y-116421000D01*
X109178196Y-116421000D01*
X109053177Y-116408687D01*
X108892758Y-116360024D01*
X108744924Y-116281005D01*
X108744922Y-116281004D01*
X108615341Y-116174659D01*
X108508996Y-116045078D01*
X108485124Y-116000416D01*
X108429976Y-115897242D01*
X108381313Y-115736823D01*
X108364883Y-115570000D01*
X108381313Y-115403177D01*
X108429976Y-115242758D01*
X108508995Y-115094924D01*
X108508996Y-115094922D01*
X108615341Y-114965341D01*
X108744922Y-114858996D01*
X108760094Y-114850886D01*
X108892758Y-114779976D01*
X109053177Y-114731313D01*
X109178196Y-114719000D01*
X109261804Y-114719000D01*
X109386823Y-114731313D01*
X109386823Y-114731313D01*
G37*
G36*
X84871000Y-116341000D02*
G01*
X82769000Y-116341000D01*
X82769000Y-114799000D01*
X84871000Y-114799000D01*
X84871000Y-116341000D01*
X84871000Y-116341000D01*
G37*
G36*
X68935629Y-114802719D02*
G01*
X69011142Y-114810156D01*
X69156476Y-114854243D01*
X69156479Y-114854244D01*
X69290416Y-114925835D01*
X69407817Y-115022183D01*
X69504165Y-115139584D01*
X69575756Y-115273521D01*
X69575757Y-115273524D01*
X69619844Y-115418858D01*
X69634730Y-115570000D01*
X69619844Y-115721142D01*
X69575757Y-115866476D01*
X69575756Y-115866479D01*
X69504165Y-116000416D01*
X69407817Y-116117817D01*
X69290416Y-116214165D01*
X69156479Y-116285756D01*
X69156476Y-116285757D01*
X69011142Y-116329844D01*
X68935629Y-116337281D01*
X68897873Y-116341000D01*
X68262127Y-116341000D01*
X68224371Y-116337281D01*
X68148858Y-116329844D01*
X68003524Y-116285757D01*
X68003521Y-116285756D01*
X67869584Y-116214165D01*
X67752183Y-116117817D01*
X67655835Y-116000416D01*
X67584244Y-115866479D01*
X67584243Y-115866476D01*
X67540156Y-115721142D01*
X67525270Y-115570000D01*
X67540156Y-115418858D01*
X67584243Y-115273524D01*
X67584244Y-115273521D01*
X67655835Y-115139584D01*
X67752183Y-115022183D01*
X67869584Y-114925835D01*
X68003521Y-114854244D01*
X68003524Y-114854243D01*
X68148858Y-114810156D01*
X68224371Y-114802719D01*
X68262127Y-114799000D01*
X68897873Y-114799000D01*
X68935629Y-114802719D01*
X68935629Y-114802719D01*
G37*
G36*
X105576823Y-112191313D02*
G01*
X105737242Y-112239976D01*
X105822426Y-112285508D01*
X105885078Y-112318996D01*
X106014659Y-112425341D01*
X106121004Y-112554922D01*
X106121005Y-112554924D01*
X106200024Y-112702758D01*
X106248687Y-112863177D01*
X106265117Y-113030000D01*
X106248687Y-113196823D01*
X106200024Y-113357242D01*
X106144876Y-113460416D01*
X106121004Y-113505078D01*
X106014659Y-113634659D01*
X105885078Y-113741004D01*
X105885076Y-113741005D01*
X105737242Y-113820024D01*
X105576823Y-113868687D01*
X105451804Y-113881000D01*
X105368196Y-113881000D01*
X105243177Y-113868687D01*
X105082758Y-113820024D01*
X104934924Y-113741005D01*
X104934922Y-113741004D01*
X104805341Y-113634659D01*
X104698996Y-113505078D01*
X104675124Y-113460416D01*
X104619976Y-113357242D01*
X104571313Y-113196823D01*
X104554883Y-113030000D01*
X104571313Y-112863177D01*
X104619976Y-112702758D01*
X104698995Y-112554924D01*
X104698996Y-112554922D01*
X104805341Y-112425341D01*
X104934922Y-112318996D01*
X104997574Y-112285508D01*
X105082758Y-112239976D01*
X105243177Y-112191313D01*
X105368196Y-112179000D01*
X105451804Y-112179000D01*
X105576823Y-112191313D01*
X105576823Y-112191313D01*
G37*
G36*
X90336823Y-112191313D02*
G01*
X90497242Y-112239976D01*
X90582426Y-112285508D01*
X90645078Y-112318996D01*
X90774659Y-112425341D01*
X90881004Y-112554922D01*
X90881005Y-112554924D01*
X90960024Y-112702758D01*
X91008687Y-112863177D01*
X91025117Y-113030000D01*
X91008687Y-113196823D01*
X90960024Y-113357242D01*
X90904876Y-113460416D01*
X90881004Y-113505078D01*
X90774659Y-113634659D01*
X90645078Y-113741004D01*
X90645076Y-113741005D01*
X90497242Y-113820024D01*
X90336823Y-113868687D01*
X90211804Y-113881000D01*
X90128196Y-113881000D01*
X90003177Y-113868687D01*
X89842758Y-113820024D01*
X89694924Y-113741005D01*
X89694922Y-113741004D01*
X89565341Y-113634659D01*
X89458996Y-113505078D01*
X89435124Y-113460416D01*
X89379976Y-113357242D01*
X89331313Y-113196823D01*
X89314883Y-113030000D01*
X89331313Y-112863177D01*
X89379976Y-112702758D01*
X89458995Y-112554924D01*
X89458996Y-112554922D01*
X89565341Y-112425341D01*
X89694922Y-112318996D01*
X89757574Y-112285508D01*
X89842758Y-112239976D01*
X90003177Y-112191313D01*
X90128196Y-112179000D01*
X90211804Y-112179000D01*
X90336823Y-112191313D01*
X90336823Y-112191313D01*
G37*
G36*
X120816823Y-112191313D02*
G01*
X120977242Y-112239976D01*
X121062426Y-112285508D01*
X121125078Y-112318996D01*
X121254659Y-112425341D01*
X121361004Y-112554922D01*
X121361005Y-112554924D01*
X121440024Y-112702758D01*
X121488687Y-112863177D01*
X121505117Y-113030000D01*
X121488687Y-113196823D01*
X121440024Y-113357242D01*
X121384876Y-113460416D01*
X121361004Y-113505078D01*
X121254659Y-113634659D01*
X121125078Y-113741004D01*
X121125076Y-113741005D01*
X120977242Y-113820024D01*
X120816823Y-113868687D01*
X120691804Y-113881000D01*
X120608196Y-113881000D01*
X120483177Y-113868687D01*
X120322758Y-113820024D01*
X120174924Y-113741005D01*
X120174922Y-113741004D01*
X120045341Y-113634659D01*
X119938996Y-113505078D01*
X119915124Y-113460416D01*
X119859976Y-113357242D01*
X119811313Y-113196823D01*
X119794883Y-113030000D01*
X119811313Y-112863177D01*
X119859976Y-112702758D01*
X119938995Y-112554924D01*
X119938996Y-112554922D01*
X120045341Y-112425341D01*
X120174922Y-112318996D01*
X120237574Y-112285508D01*
X120322758Y-112239976D01*
X120483177Y-112191313D01*
X120608196Y-112179000D01*
X120691804Y-112179000D01*
X120816823Y-112191313D01*
X120816823Y-112191313D01*
G37*
G36*
X128436823Y-112191313D02*
G01*
X128597242Y-112239976D01*
X128682426Y-112285508D01*
X128745078Y-112318996D01*
X128874659Y-112425341D01*
X128981004Y-112554922D01*
X128981005Y-112554924D01*
X129060024Y-112702758D01*
X129108687Y-112863177D01*
X129125117Y-113030000D01*
X129108687Y-113196823D01*
X129060024Y-113357242D01*
X129004876Y-113460416D01*
X128981004Y-113505078D01*
X128874659Y-113634659D01*
X128745078Y-113741004D01*
X128745076Y-113741005D01*
X128597242Y-113820024D01*
X128436823Y-113868687D01*
X128311804Y-113881000D01*
X128228196Y-113881000D01*
X128103177Y-113868687D01*
X127942758Y-113820024D01*
X127794924Y-113741005D01*
X127794922Y-113741004D01*
X127665341Y-113634659D01*
X127558996Y-113505078D01*
X127535124Y-113460416D01*
X127479976Y-113357242D01*
X127431313Y-113196823D01*
X127414883Y-113030000D01*
X127431313Y-112863177D01*
X127479976Y-112702758D01*
X127558995Y-112554924D01*
X127558996Y-112554922D01*
X127665341Y-112425341D01*
X127794922Y-112318996D01*
X127857574Y-112285508D01*
X127942758Y-112239976D01*
X128103177Y-112191313D01*
X128228196Y-112179000D01*
X128311804Y-112179000D01*
X128436823Y-112191313D01*
X128436823Y-112191313D01*
G37*
G36*
X109386823Y-112191313D02*
G01*
X109547242Y-112239976D01*
X109632426Y-112285508D01*
X109695078Y-112318996D01*
X109824659Y-112425341D01*
X109931004Y-112554922D01*
X109931005Y-112554924D01*
X110010024Y-112702758D01*
X110058687Y-112863177D01*
X110075117Y-113030000D01*
X110058687Y-113196823D01*
X110010024Y-113357242D01*
X109954876Y-113460416D01*
X109931004Y-113505078D01*
X109824659Y-113634659D01*
X109695078Y-113741004D01*
X109695076Y-113741005D01*
X109547242Y-113820024D01*
X109386823Y-113868687D01*
X109261804Y-113881000D01*
X109178196Y-113881000D01*
X109053177Y-113868687D01*
X108892758Y-113820024D01*
X108744924Y-113741005D01*
X108744922Y-113741004D01*
X108615341Y-113634659D01*
X108508996Y-113505078D01*
X108485124Y-113460416D01*
X108429976Y-113357242D01*
X108381313Y-113196823D01*
X108364883Y-113030000D01*
X108381313Y-112863177D01*
X108429976Y-112702758D01*
X108508995Y-112554924D01*
X108508996Y-112554922D01*
X108615341Y-112425341D01*
X108744922Y-112318996D01*
X108807574Y-112285508D01*
X108892758Y-112239976D01*
X109053177Y-112191313D01*
X109178196Y-112179000D01*
X109261804Y-112179000D01*
X109386823Y-112191313D01*
X109386823Y-112191313D01*
G37*
G36*
X117006823Y-112191313D02*
G01*
X117167242Y-112239976D01*
X117252426Y-112285508D01*
X117315078Y-112318996D01*
X117444659Y-112425341D01*
X117551004Y-112554922D01*
X117551005Y-112554924D01*
X117630024Y-112702758D01*
X117678687Y-112863177D01*
X117695117Y-113030000D01*
X117678687Y-113196823D01*
X117630024Y-113357242D01*
X117574876Y-113460416D01*
X117551004Y-113505078D01*
X117444659Y-113634659D01*
X117315078Y-113741004D01*
X117315076Y-113741005D01*
X117167242Y-113820024D01*
X117006823Y-113868687D01*
X116881804Y-113881000D01*
X116798196Y-113881000D01*
X116673177Y-113868687D01*
X116512758Y-113820024D01*
X116364924Y-113741005D01*
X116364922Y-113741004D01*
X116235341Y-113634659D01*
X116128996Y-113505078D01*
X116105124Y-113460416D01*
X116049976Y-113357242D01*
X116001313Y-113196823D01*
X115984883Y-113030000D01*
X116001313Y-112863177D01*
X116049976Y-112702758D01*
X116128995Y-112554924D01*
X116128996Y-112554922D01*
X116235341Y-112425341D01*
X116364922Y-112318996D01*
X116427574Y-112285508D01*
X116512758Y-112239976D01*
X116673177Y-112191313D01*
X116798196Y-112179000D01*
X116881804Y-112179000D01*
X117006823Y-112191313D01*
X117006823Y-112191313D01*
G37*
G36*
X59653993Y-112224203D02*
G01*
X59718411Y-112243744D01*
X59777781Y-112275478D01*
X59829817Y-112318183D01*
X59872522Y-112370219D01*
X59904256Y-112429589D01*
X59923797Y-112494007D01*
X59931000Y-112567140D01*
X59931000Y-113492860D01*
X59923797Y-113565993D01*
X59904256Y-113630411D01*
X59872522Y-113689781D01*
X59829817Y-113741817D01*
X59777781Y-113784522D01*
X59718411Y-113816256D01*
X59653993Y-113835797D01*
X59580860Y-113843000D01*
X52179140Y-113843000D01*
X52106007Y-113835797D01*
X52041589Y-113816256D01*
X51982219Y-113784522D01*
X51930183Y-113741817D01*
X51887478Y-113689781D01*
X51855744Y-113630411D01*
X51836203Y-113565993D01*
X51829000Y-113492860D01*
X51829000Y-112567140D01*
X51836203Y-112494007D01*
X51855744Y-112429589D01*
X51887478Y-112370219D01*
X51930183Y-112318183D01*
X51982219Y-112275478D01*
X52041589Y-112243744D01*
X52106007Y-112224203D01*
X52179140Y-112217000D01*
X59580860Y-112217000D01*
X59653993Y-112224203D01*
X59653993Y-112224203D01*
G37*
G36*
X84175629Y-112262719D02*
G01*
X84251142Y-112270156D01*
X84396476Y-112314243D01*
X84396479Y-112314244D01*
X84530416Y-112385835D01*
X84647817Y-112482183D01*
X84744165Y-112599584D01*
X84815756Y-112733521D01*
X84815757Y-112733524D01*
X84859844Y-112878858D01*
X84874730Y-113030000D01*
X84859844Y-113181142D01*
X84815757Y-113326476D01*
X84815756Y-113326479D01*
X84744165Y-113460416D01*
X84647817Y-113577817D01*
X84530416Y-113674165D01*
X84396479Y-113745756D01*
X84396476Y-113745757D01*
X84251142Y-113789844D01*
X84175629Y-113797281D01*
X84137873Y-113801000D01*
X83502127Y-113801000D01*
X83464371Y-113797281D01*
X83388858Y-113789844D01*
X83243524Y-113745757D01*
X83243521Y-113745756D01*
X83109584Y-113674165D01*
X82992183Y-113577817D01*
X82895835Y-113460416D01*
X82824244Y-113326479D01*
X82824243Y-113326476D01*
X82780156Y-113181142D01*
X82765270Y-113030000D01*
X82780156Y-112878858D01*
X82824243Y-112733524D01*
X82824244Y-112733521D01*
X82895835Y-112599584D01*
X82992183Y-112482183D01*
X83109584Y-112385835D01*
X83243521Y-112314244D01*
X83243524Y-112314243D01*
X83388858Y-112270156D01*
X83464371Y-112262719D01*
X83502127Y-112259000D01*
X84137873Y-112259000D01*
X84175629Y-112262719D01*
X84175629Y-112262719D01*
G37*
G36*
X68935629Y-112262719D02*
G01*
X69011142Y-112270156D01*
X69156476Y-112314243D01*
X69156479Y-112314244D01*
X69290416Y-112385835D01*
X69407817Y-112482183D01*
X69504165Y-112599584D01*
X69575756Y-112733521D01*
X69575757Y-112733524D01*
X69619844Y-112878858D01*
X69634730Y-113030000D01*
X69619844Y-113181142D01*
X69575757Y-113326476D01*
X69575756Y-113326479D01*
X69504165Y-113460416D01*
X69407817Y-113577817D01*
X69290416Y-113674165D01*
X69156479Y-113745756D01*
X69156476Y-113745757D01*
X69011142Y-113789844D01*
X68935629Y-113797281D01*
X68897873Y-113801000D01*
X68262127Y-113801000D01*
X68224371Y-113797281D01*
X68148858Y-113789844D01*
X68003524Y-113745757D01*
X68003521Y-113745756D01*
X67869584Y-113674165D01*
X67752183Y-113577817D01*
X67655835Y-113460416D01*
X67584244Y-113326479D01*
X67584243Y-113326476D01*
X67540156Y-113181142D01*
X67525270Y-113030000D01*
X67540156Y-112878858D01*
X67584243Y-112733524D01*
X67584244Y-112733521D01*
X67655835Y-112599584D01*
X67752183Y-112482183D01*
X67869584Y-112385835D01*
X68003521Y-112314244D01*
X68003524Y-112314243D01*
X68148858Y-112270156D01*
X68224371Y-112262719D01*
X68262127Y-112259000D01*
X68897873Y-112259000D01*
X68935629Y-112262719D01*
X68935629Y-112262719D01*
G37*
G36*
X90336823Y-109651313D02*
G01*
X90497242Y-109699976D01*
X90582426Y-109745508D01*
X90645078Y-109778996D01*
X90774659Y-109885341D01*
X90881004Y-110014922D01*
X90881005Y-110014924D01*
X90960024Y-110162758D01*
X91008687Y-110323177D01*
X91025117Y-110490000D01*
X91008687Y-110656823D01*
X90960024Y-110817242D01*
X90904876Y-110920416D01*
X90881004Y-110965078D01*
X90774659Y-111094659D01*
X90645078Y-111201004D01*
X90645076Y-111201005D01*
X90497242Y-111280024D01*
X90336823Y-111328687D01*
X90211804Y-111341000D01*
X90128196Y-111341000D01*
X90003177Y-111328687D01*
X89842758Y-111280024D01*
X89694924Y-111201005D01*
X89694922Y-111201004D01*
X89565341Y-111094659D01*
X89458996Y-110965078D01*
X89435124Y-110920416D01*
X89379976Y-110817242D01*
X89331313Y-110656823D01*
X89314883Y-110490000D01*
X89331313Y-110323177D01*
X89379976Y-110162758D01*
X89458995Y-110014924D01*
X89458996Y-110014922D01*
X89565341Y-109885341D01*
X89694922Y-109778996D01*
X89757574Y-109745508D01*
X89842758Y-109699976D01*
X90003177Y-109651313D01*
X90128196Y-109639000D01*
X90211804Y-109639000D01*
X90336823Y-109651313D01*
X90336823Y-109651313D01*
G37*
G36*
X128436823Y-109651313D02*
G01*
X128597242Y-109699976D01*
X128682426Y-109745508D01*
X128745078Y-109778996D01*
X128874659Y-109885341D01*
X128981004Y-110014922D01*
X128981005Y-110014924D01*
X129060024Y-110162758D01*
X129108687Y-110323177D01*
X129125117Y-110490000D01*
X129108687Y-110656823D01*
X129060024Y-110817242D01*
X129004876Y-110920416D01*
X128981004Y-110965078D01*
X128874659Y-111094659D01*
X128745078Y-111201004D01*
X128745076Y-111201005D01*
X128597242Y-111280024D01*
X128436823Y-111328687D01*
X128311804Y-111341000D01*
X128228196Y-111341000D01*
X128103177Y-111328687D01*
X127942758Y-111280024D01*
X127794924Y-111201005D01*
X127794922Y-111201004D01*
X127665341Y-111094659D01*
X127558996Y-110965078D01*
X127535124Y-110920416D01*
X127479976Y-110817242D01*
X127431313Y-110656823D01*
X127414883Y-110490000D01*
X127431313Y-110323177D01*
X127479976Y-110162758D01*
X127558995Y-110014924D01*
X127558996Y-110014922D01*
X127665341Y-109885341D01*
X127794922Y-109778996D01*
X127857574Y-109745508D01*
X127942758Y-109699976D01*
X128103177Y-109651313D01*
X128228196Y-109639000D01*
X128311804Y-109639000D01*
X128436823Y-109651313D01*
X128436823Y-109651313D01*
G37*
G36*
X120816823Y-109651313D02*
G01*
X120977242Y-109699976D01*
X121062426Y-109745508D01*
X121125078Y-109778996D01*
X121254659Y-109885341D01*
X121361004Y-110014922D01*
X121361005Y-110014924D01*
X121440024Y-110162758D01*
X121488687Y-110323177D01*
X121505117Y-110490000D01*
X121488687Y-110656823D01*
X121440024Y-110817242D01*
X121384876Y-110920416D01*
X121361004Y-110965078D01*
X121254659Y-111094659D01*
X121125078Y-111201004D01*
X121125076Y-111201005D01*
X120977242Y-111280024D01*
X120816823Y-111328687D01*
X120691804Y-111341000D01*
X120608196Y-111341000D01*
X120483177Y-111328687D01*
X120322758Y-111280024D01*
X120174924Y-111201005D01*
X120174922Y-111201004D01*
X120045341Y-111094659D01*
X119938996Y-110965078D01*
X119915124Y-110920416D01*
X119859976Y-110817242D01*
X119811313Y-110656823D01*
X119794883Y-110490000D01*
X119811313Y-110323177D01*
X119859976Y-110162758D01*
X119938995Y-110014924D01*
X119938996Y-110014922D01*
X120045341Y-109885341D01*
X120174922Y-109778996D01*
X120237574Y-109745508D01*
X120322758Y-109699976D01*
X120483177Y-109651313D01*
X120608196Y-109639000D01*
X120691804Y-109639000D01*
X120816823Y-109651313D01*
X120816823Y-109651313D01*
G37*
G36*
X117006823Y-109651313D02*
G01*
X117167242Y-109699976D01*
X117252426Y-109745508D01*
X117315078Y-109778996D01*
X117444659Y-109885341D01*
X117551004Y-110014922D01*
X117551005Y-110014924D01*
X117630024Y-110162758D01*
X117678687Y-110323177D01*
X117695117Y-110490000D01*
X117678687Y-110656823D01*
X117630024Y-110817242D01*
X117574876Y-110920416D01*
X117551004Y-110965078D01*
X117444659Y-111094659D01*
X117315078Y-111201004D01*
X117315076Y-111201005D01*
X117167242Y-111280024D01*
X117006823Y-111328687D01*
X116881804Y-111341000D01*
X116798196Y-111341000D01*
X116673177Y-111328687D01*
X116512758Y-111280024D01*
X116364924Y-111201005D01*
X116364922Y-111201004D01*
X116235341Y-111094659D01*
X116128996Y-110965078D01*
X116105124Y-110920416D01*
X116049976Y-110817242D01*
X116001313Y-110656823D01*
X115984883Y-110490000D01*
X116001313Y-110323177D01*
X116049976Y-110162758D01*
X116128995Y-110014924D01*
X116128996Y-110014922D01*
X116235341Y-109885341D01*
X116364922Y-109778996D01*
X116427574Y-109745508D01*
X116512758Y-109699976D01*
X116673177Y-109651313D01*
X116798196Y-109639000D01*
X116881804Y-109639000D01*
X117006823Y-109651313D01*
X117006823Y-109651313D01*
G37*
G36*
X109386823Y-109651313D02*
G01*
X109547242Y-109699976D01*
X109632426Y-109745508D01*
X109695078Y-109778996D01*
X109824659Y-109885341D01*
X109931004Y-110014922D01*
X109931005Y-110014924D01*
X110010024Y-110162758D01*
X110058687Y-110323177D01*
X110075117Y-110490000D01*
X110058687Y-110656823D01*
X110010024Y-110817242D01*
X109954876Y-110920416D01*
X109931004Y-110965078D01*
X109824659Y-111094659D01*
X109695078Y-111201004D01*
X109695076Y-111201005D01*
X109547242Y-111280024D01*
X109386823Y-111328687D01*
X109261804Y-111341000D01*
X109178196Y-111341000D01*
X109053177Y-111328687D01*
X108892758Y-111280024D01*
X108744924Y-111201005D01*
X108744922Y-111201004D01*
X108615341Y-111094659D01*
X108508996Y-110965078D01*
X108485124Y-110920416D01*
X108429976Y-110817242D01*
X108381313Y-110656823D01*
X108364883Y-110490000D01*
X108381313Y-110323177D01*
X108429976Y-110162758D01*
X108508995Y-110014924D01*
X108508996Y-110014922D01*
X108615341Y-109885341D01*
X108744922Y-109778996D01*
X108807574Y-109745508D01*
X108892758Y-109699976D01*
X109053177Y-109651313D01*
X109178196Y-109639000D01*
X109261804Y-109639000D01*
X109386823Y-109651313D01*
X109386823Y-109651313D01*
G37*
G36*
X105576823Y-109651313D02*
G01*
X105737242Y-109699976D01*
X105822426Y-109745508D01*
X105885078Y-109778996D01*
X106014659Y-109885341D01*
X106121004Y-110014922D01*
X106121005Y-110014924D01*
X106200024Y-110162758D01*
X106248687Y-110323177D01*
X106265117Y-110490000D01*
X106248687Y-110656823D01*
X106200024Y-110817242D01*
X106144876Y-110920416D01*
X106121004Y-110965078D01*
X106014659Y-111094659D01*
X105885078Y-111201004D01*
X105885076Y-111201005D01*
X105737242Y-111280024D01*
X105576823Y-111328687D01*
X105451804Y-111341000D01*
X105368196Y-111341000D01*
X105243177Y-111328687D01*
X105082758Y-111280024D01*
X104934924Y-111201005D01*
X104934922Y-111201004D01*
X104805341Y-111094659D01*
X104698996Y-110965078D01*
X104675124Y-110920416D01*
X104619976Y-110817242D01*
X104571313Y-110656823D01*
X104554883Y-110490000D01*
X104571313Y-110323177D01*
X104619976Y-110162758D01*
X104698995Y-110014924D01*
X104698996Y-110014922D01*
X104805341Y-109885341D01*
X104934922Y-109778996D01*
X104997574Y-109745508D01*
X105082758Y-109699976D01*
X105243177Y-109651313D01*
X105368196Y-109639000D01*
X105451804Y-109639000D01*
X105576823Y-109651313D01*
X105576823Y-109651313D01*
G37*
G36*
X59653993Y-109684203D02*
G01*
X59718411Y-109703744D01*
X59777781Y-109735478D01*
X59829817Y-109778183D01*
X59872522Y-109830219D01*
X59904256Y-109889589D01*
X59923797Y-109954007D01*
X59931000Y-110027140D01*
X59931000Y-110952860D01*
X59923797Y-111025993D01*
X59904256Y-111090411D01*
X59872522Y-111149781D01*
X59829817Y-111201817D01*
X59777781Y-111244522D01*
X59718411Y-111276256D01*
X59653993Y-111295797D01*
X59580860Y-111303000D01*
X52179140Y-111303000D01*
X52106007Y-111295797D01*
X52041589Y-111276256D01*
X51982219Y-111244522D01*
X51930183Y-111201817D01*
X51887478Y-111149781D01*
X51855744Y-111090411D01*
X51836203Y-111025993D01*
X51829000Y-110952860D01*
X51829000Y-110027140D01*
X51836203Y-109954007D01*
X51855744Y-109889589D01*
X51887478Y-109830219D01*
X51930183Y-109778183D01*
X51982219Y-109735478D01*
X52041589Y-109703744D01*
X52106007Y-109684203D01*
X52179140Y-109677000D01*
X59580860Y-109677000D01*
X59653993Y-109684203D01*
X59653993Y-109684203D01*
G37*
G36*
X84175629Y-109722719D02*
G01*
X84251142Y-109730156D01*
X84396476Y-109774243D01*
X84396479Y-109774244D01*
X84530416Y-109845835D01*
X84647817Y-109942183D01*
X84744165Y-110059584D01*
X84815756Y-110193521D01*
X84815757Y-110193524D01*
X84859844Y-110338858D01*
X84874730Y-110490000D01*
X84859844Y-110641142D01*
X84815757Y-110786476D01*
X84815756Y-110786479D01*
X84744165Y-110920416D01*
X84647817Y-111037817D01*
X84530416Y-111134165D01*
X84396479Y-111205756D01*
X84396476Y-111205757D01*
X84251142Y-111249844D01*
X84175629Y-111257281D01*
X84137873Y-111261000D01*
X83502127Y-111261000D01*
X83464371Y-111257281D01*
X83388858Y-111249844D01*
X83243524Y-111205757D01*
X83243521Y-111205756D01*
X83109584Y-111134165D01*
X82992183Y-111037817D01*
X82895835Y-110920416D01*
X82824244Y-110786479D01*
X82824243Y-110786476D01*
X82780156Y-110641142D01*
X82765270Y-110490000D01*
X82780156Y-110338858D01*
X82824243Y-110193524D01*
X82824244Y-110193521D01*
X82895835Y-110059584D01*
X82992183Y-109942183D01*
X83109584Y-109845835D01*
X83243521Y-109774244D01*
X83243524Y-109774243D01*
X83388858Y-109730156D01*
X83464371Y-109722719D01*
X83502127Y-109719000D01*
X84137873Y-109719000D01*
X84175629Y-109722719D01*
X84175629Y-109722719D01*
G37*
G36*
X68935629Y-109722719D02*
G01*
X69011142Y-109730156D01*
X69156476Y-109774243D01*
X69156479Y-109774244D01*
X69290416Y-109845835D01*
X69407817Y-109942183D01*
X69504165Y-110059584D01*
X69575756Y-110193521D01*
X69575757Y-110193524D01*
X69619844Y-110338858D01*
X69634730Y-110490000D01*
X69619844Y-110641142D01*
X69575757Y-110786476D01*
X69575756Y-110786479D01*
X69504165Y-110920416D01*
X69407817Y-111037817D01*
X69290416Y-111134165D01*
X69156479Y-111205756D01*
X69156476Y-111205757D01*
X69011142Y-111249844D01*
X68935629Y-111257281D01*
X68897873Y-111261000D01*
X68262127Y-111261000D01*
X68224371Y-111257281D01*
X68148858Y-111249844D01*
X68003524Y-111205757D01*
X68003521Y-111205756D01*
X67869584Y-111134165D01*
X67752183Y-111037817D01*
X67655835Y-110920416D01*
X67584244Y-110786479D01*
X67584243Y-110786476D01*
X67540156Y-110641142D01*
X67525270Y-110490000D01*
X67540156Y-110338858D01*
X67584243Y-110193524D01*
X67584244Y-110193521D01*
X67655835Y-110059584D01*
X67752183Y-109942183D01*
X67869584Y-109845835D01*
X68003521Y-109774244D01*
X68003524Y-109774243D01*
X68148858Y-109730156D01*
X68224371Y-109722719D01*
X68262127Y-109719000D01*
X68897873Y-109719000D01*
X68935629Y-109722719D01*
X68935629Y-109722719D01*
G37*
G36*
X117006823Y-107111313D02*
G01*
X117167242Y-107159976D01*
X117252426Y-107205508D01*
X117315078Y-107238996D01*
X117444659Y-107345341D01*
X117551004Y-107474922D01*
X117551005Y-107474924D01*
X117630024Y-107622758D01*
X117678687Y-107783177D01*
X117695117Y-107950000D01*
X117678687Y-108116823D01*
X117630024Y-108277242D01*
X117574876Y-108380416D01*
X117551004Y-108425078D01*
X117444659Y-108554659D01*
X117315078Y-108661004D01*
X117315076Y-108661005D01*
X117167242Y-108740024D01*
X117006823Y-108788687D01*
X116881804Y-108801000D01*
X116798196Y-108801000D01*
X116673177Y-108788687D01*
X116512758Y-108740024D01*
X116364924Y-108661005D01*
X116364922Y-108661004D01*
X116235341Y-108554659D01*
X116128996Y-108425078D01*
X116105124Y-108380416D01*
X116049976Y-108277242D01*
X116001313Y-108116823D01*
X115984883Y-107950000D01*
X116001313Y-107783177D01*
X116049976Y-107622758D01*
X116128995Y-107474924D01*
X116128996Y-107474922D01*
X116235341Y-107345341D01*
X116364922Y-107238996D01*
X116427574Y-107205508D01*
X116512758Y-107159976D01*
X116673177Y-107111313D01*
X116798196Y-107099000D01*
X116881804Y-107099000D01*
X117006823Y-107111313D01*
X117006823Y-107111313D01*
G37*
G36*
X90336823Y-107111313D02*
G01*
X90497242Y-107159976D01*
X90582426Y-107205508D01*
X90645078Y-107238996D01*
X90774659Y-107345341D01*
X90881004Y-107474922D01*
X90881005Y-107474924D01*
X90960024Y-107622758D01*
X91008687Y-107783177D01*
X91025117Y-107950000D01*
X91008687Y-108116823D01*
X90960024Y-108277242D01*
X90904876Y-108380416D01*
X90881004Y-108425078D01*
X90774659Y-108554659D01*
X90645078Y-108661004D01*
X90645076Y-108661005D01*
X90497242Y-108740024D01*
X90336823Y-108788687D01*
X90211804Y-108801000D01*
X90128196Y-108801000D01*
X90003177Y-108788687D01*
X89842758Y-108740024D01*
X89694924Y-108661005D01*
X89694922Y-108661004D01*
X89565341Y-108554659D01*
X89458996Y-108425078D01*
X89435124Y-108380416D01*
X89379976Y-108277242D01*
X89331313Y-108116823D01*
X89314883Y-107950000D01*
X89331313Y-107783177D01*
X89379976Y-107622758D01*
X89458995Y-107474924D01*
X89458996Y-107474922D01*
X89565341Y-107345341D01*
X89694922Y-107238996D01*
X89757574Y-107205508D01*
X89842758Y-107159976D01*
X90003177Y-107111313D01*
X90128196Y-107099000D01*
X90211804Y-107099000D01*
X90336823Y-107111313D01*
X90336823Y-107111313D01*
G37*
G36*
X120816823Y-107111313D02*
G01*
X120977242Y-107159976D01*
X121062426Y-107205508D01*
X121125078Y-107238996D01*
X121254659Y-107345341D01*
X121361004Y-107474922D01*
X121361005Y-107474924D01*
X121440024Y-107622758D01*
X121488687Y-107783177D01*
X121505117Y-107950000D01*
X121488687Y-108116823D01*
X121440024Y-108277242D01*
X121384876Y-108380416D01*
X121361004Y-108425078D01*
X121254659Y-108554659D01*
X121125078Y-108661004D01*
X121125076Y-108661005D01*
X120977242Y-108740024D01*
X120816823Y-108788687D01*
X120691804Y-108801000D01*
X120608196Y-108801000D01*
X120483177Y-108788687D01*
X120322758Y-108740024D01*
X120174924Y-108661005D01*
X120174922Y-108661004D01*
X120045341Y-108554659D01*
X119938996Y-108425078D01*
X119915124Y-108380416D01*
X119859976Y-108277242D01*
X119811313Y-108116823D01*
X119794883Y-107950000D01*
X119811313Y-107783177D01*
X119859976Y-107622758D01*
X119938995Y-107474924D01*
X119938996Y-107474922D01*
X120045341Y-107345341D01*
X120174922Y-107238996D01*
X120237574Y-107205508D01*
X120322758Y-107159976D01*
X120483177Y-107111313D01*
X120608196Y-107099000D01*
X120691804Y-107099000D01*
X120816823Y-107111313D01*
X120816823Y-107111313D01*
G37*
G36*
X105576823Y-107111313D02*
G01*
X105737242Y-107159976D01*
X105822426Y-107205508D01*
X105885078Y-107238996D01*
X106014659Y-107345341D01*
X106121004Y-107474922D01*
X106121005Y-107474924D01*
X106200024Y-107622758D01*
X106248687Y-107783177D01*
X106265117Y-107950000D01*
X106248687Y-108116823D01*
X106200024Y-108277242D01*
X106144876Y-108380416D01*
X106121004Y-108425078D01*
X106014659Y-108554659D01*
X105885078Y-108661004D01*
X105885076Y-108661005D01*
X105737242Y-108740024D01*
X105576823Y-108788687D01*
X105451804Y-108801000D01*
X105368196Y-108801000D01*
X105243177Y-108788687D01*
X105082758Y-108740024D01*
X104934924Y-108661005D01*
X104934922Y-108661004D01*
X104805341Y-108554659D01*
X104698996Y-108425078D01*
X104675124Y-108380416D01*
X104619976Y-108277242D01*
X104571313Y-108116823D01*
X104554883Y-107950000D01*
X104571313Y-107783177D01*
X104619976Y-107622758D01*
X104698995Y-107474924D01*
X104698996Y-107474922D01*
X104805341Y-107345341D01*
X104934922Y-107238996D01*
X104997574Y-107205508D01*
X105082758Y-107159976D01*
X105243177Y-107111313D01*
X105368196Y-107099000D01*
X105451804Y-107099000D01*
X105576823Y-107111313D01*
X105576823Y-107111313D01*
G37*
G36*
X128436823Y-107111313D02*
G01*
X128597242Y-107159976D01*
X128682426Y-107205508D01*
X128745078Y-107238996D01*
X128874659Y-107345341D01*
X128981004Y-107474922D01*
X128981005Y-107474924D01*
X129060024Y-107622758D01*
X129108687Y-107783177D01*
X129125117Y-107950000D01*
X129108687Y-108116823D01*
X129060024Y-108277242D01*
X129004876Y-108380416D01*
X128981004Y-108425078D01*
X128874659Y-108554659D01*
X128745078Y-108661004D01*
X128745076Y-108661005D01*
X128597242Y-108740024D01*
X128436823Y-108788687D01*
X128311804Y-108801000D01*
X128228196Y-108801000D01*
X128103177Y-108788687D01*
X127942758Y-108740024D01*
X127794924Y-108661005D01*
X127794922Y-108661004D01*
X127665341Y-108554659D01*
X127558996Y-108425078D01*
X127535124Y-108380416D01*
X127479976Y-108277242D01*
X127431313Y-108116823D01*
X127414883Y-107950000D01*
X127431313Y-107783177D01*
X127479976Y-107622758D01*
X127558995Y-107474924D01*
X127558996Y-107474922D01*
X127665341Y-107345341D01*
X127794922Y-107238996D01*
X127857574Y-107205508D01*
X127942758Y-107159976D01*
X128103177Y-107111313D01*
X128228196Y-107099000D01*
X128311804Y-107099000D01*
X128436823Y-107111313D01*
X128436823Y-107111313D01*
G37*
G36*
X109386823Y-107111313D02*
G01*
X109547242Y-107159976D01*
X109632426Y-107205508D01*
X109695078Y-107238996D01*
X109824659Y-107345341D01*
X109931004Y-107474922D01*
X109931005Y-107474924D01*
X110010024Y-107622758D01*
X110058687Y-107783177D01*
X110075117Y-107950000D01*
X110058687Y-108116823D01*
X110010024Y-108277242D01*
X109954876Y-108380416D01*
X109931004Y-108425078D01*
X109824659Y-108554659D01*
X109695078Y-108661004D01*
X109695076Y-108661005D01*
X109547242Y-108740024D01*
X109386823Y-108788687D01*
X109261804Y-108801000D01*
X109178196Y-108801000D01*
X109053177Y-108788687D01*
X108892758Y-108740024D01*
X108744924Y-108661005D01*
X108744922Y-108661004D01*
X108615341Y-108554659D01*
X108508996Y-108425078D01*
X108485124Y-108380416D01*
X108429976Y-108277242D01*
X108381313Y-108116823D01*
X108364883Y-107950000D01*
X108381313Y-107783177D01*
X108429976Y-107622758D01*
X108508995Y-107474924D01*
X108508996Y-107474922D01*
X108615341Y-107345341D01*
X108744922Y-107238996D01*
X108807574Y-107205508D01*
X108892758Y-107159976D01*
X109053177Y-107111313D01*
X109178196Y-107099000D01*
X109261804Y-107099000D01*
X109386823Y-107111313D01*
X109386823Y-107111313D01*
G37*
G36*
X59653993Y-107144203D02*
G01*
X59718411Y-107163744D01*
X59777781Y-107195478D01*
X59829817Y-107238183D01*
X59872522Y-107290219D01*
X59904256Y-107349589D01*
X59923797Y-107414007D01*
X59931000Y-107487140D01*
X59931000Y-108412860D01*
X59923797Y-108485993D01*
X59904256Y-108550411D01*
X59872522Y-108609781D01*
X59829817Y-108661817D01*
X59777781Y-108704522D01*
X59718411Y-108736256D01*
X59653993Y-108755797D01*
X59580860Y-108763000D01*
X52179140Y-108763000D01*
X52106007Y-108755797D01*
X52041589Y-108736256D01*
X51982219Y-108704522D01*
X51930183Y-108661817D01*
X51887478Y-108609781D01*
X51855744Y-108550411D01*
X51836203Y-108485993D01*
X51829000Y-108412860D01*
X51829000Y-107487140D01*
X51836203Y-107414007D01*
X51855744Y-107349589D01*
X51887478Y-107290219D01*
X51930183Y-107238183D01*
X51982219Y-107195478D01*
X52041589Y-107163744D01*
X52106007Y-107144203D01*
X52179140Y-107137000D01*
X59580860Y-107137000D01*
X59653993Y-107144203D01*
X59653993Y-107144203D01*
G37*
G36*
X84175629Y-107182719D02*
G01*
X84251142Y-107190156D01*
X84396476Y-107234243D01*
X84396479Y-107234244D01*
X84530416Y-107305835D01*
X84647817Y-107402183D01*
X84744165Y-107519584D01*
X84815756Y-107653521D01*
X84815757Y-107653524D01*
X84859844Y-107798858D01*
X84874730Y-107950000D01*
X84859844Y-108101142D01*
X84815757Y-108246476D01*
X84815756Y-108246479D01*
X84744165Y-108380416D01*
X84647817Y-108497817D01*
X84530416Y-108594165D01*
X84396479Y-108665756D01*
X84396476Y-108665757D01*
X84251142Y-108709844D01*
X84175629Y-108717281D01*
X84137873Y-108721000D01*
X83502127Y-108721000D01*
X83464371Y-108717281D01*
X83388858Y-108709844D01*
X83243524Y-108665757D01*
X83243521Y-108665756D01*
X83109584Y-108594165D01*
X82992183Y-108497817D01*
X82895835Y-108380416D01*
X82824244Y-108246479D01*
X82824243Y-108246476D01*
X82780156Y-108101142D01*
X82765270Y-107950000D01*
X82780156Y-107798858D01*
X82824243Y-107653524D01*
X82824244Y-107653521D01*
X82895835Y-107519584D01*
X82992183Y-107402183D01*
X83109584Y-107305835D01*
X83243521Y-107234244D01*
X83243524Y-107234243D01*
X83388858Y-107190156D01*
X83464371Y-107182719D01*
X83502127Y-107179000D01*
X84137873Y-107179000D01*
X84175629Y-107182719D01*
X84175629Y-107182719D01*
G37*
G36*
X68935629Y-107182719D02*
G01*
X69011142Y-107190156D01*
X69156476Y-107234243D01*
X69156479Y-107234244D01*
X69290416Y-107305835D01*
X69407817Y-107402183D01*
X69504165Y-107519584D01*
X69575756Y-107653521D01*
X69575757Y-107653524D01*
X69619844Y-107798858D01*
X69634730Y-107950000D01*
X69619844Y-108101142D01*
X69575757Y-108246476D01*
X69575756Y-108246479D01*
X69504165Y-108380416D01*
X69407817Y-108497817D01*
X69290416Y-108594165D01*
X69156479Y-108665756D01*
X69156476Y-108665757D01*
X69011142Y-108709844D01*
X68935629Y-108717281D01*
X68897873Y-108721000D01*
X68262127Y-108721000D01*
X68224371Y-108717281D01*
X68148858Y-108709844D01*
X68003524Y-108665757D01*
X68003521Y-108665756D01*
X67869584Y-108594165D01*
X67752183Y-108497817D01*
X67655835Y-108380416D01*
X67584244Y-108246479D01*
X67584243Y-108246476D01*
X67540156Y-108101142D01*
X67525270Y-107950000D01*
X67540156Y-107798858D01*
X67584243Y-107653524D01*
X67584244Y-107653521D01*
X67655835Y-107519584D01*
X67752183Y-107402183D01*
X67869584Y-107305835D01*
X68003521Y-107234244D01*
X68003524Y-107234243D01*
X68148858Y-107190156D01*
X68224371Y-107182719D01*
X68262127Y-107179000D01*
X68897873Y-107179000D01*
X68935629Y-107182719D01*
X68935629Y-107182719D01*
G37*
G36*
X110071000Y-106261000D02*
G01*
X108369000Y-106261000D01*
X108369000Y-104559000D01*
X110071000Y-104559000D01*
X110071000Y-106261000D01*
X110071000Y-106261000D01*
G37*
G36*
X128436823Y-104571313D02*
G01*
X128597242Y-104619976D01*
X128682426Y-104665508D01*
X128745078Y-104698996D01*
X128874659Y-104805341D01*
X128981004Y-104934922D01*
X128981005Y-104934924D01*
X129060024Y-105082758D01*
X129108687Y-105243177D01*
X129125117Y-105410000D01*
X129108687Y-105576823D01*
X129060024Y-105737242D01*
X129004876Y-105840416D01*
X128981004Y-105885078D01*
X128874659Y-106014659D01*
X128745078Y-106121004D01*
X128745076Y-106121005D01*
X128597242Y-106200024D01*
X128436823Y-106248687D01*
X128311804Y-106261000D01*
X128228196Y-106261000D01*
X128103177Y-106248687D01*
X127942758Y-106200024D01*
X127794924Y-106121005D01*
X127794922Y-106121004D01*
X127665341Y-106014659D01*
X127558996Y-105885078D01*
X127535124Y-105840416D01*
X127479976Y-105737242D01*
X127431313Y-105576823D01*
X127414883Y-105410000D01*
X127431313Y-105243177D01*
X127479976Y-105082758D01*
X127558995Y-104934924D01*
X127558996Y-104934922D01*
X127665341Y-104805341D01*
X127794922Y-104698996D01*
X127857574Y-104665508D01*
X127942758Y-104619976D01*
X128103177Y-104571313D01*
X128228196Y-104559000D01*
X128311804Y-104559000D01*
X128436823Y-104571313D01*
X128436823Y-104571313D01*
G37*
G36*
X121501000Y-106261000D02*
G01*
X119799000Y-106261000D01*
X119799000Y-104559000D01*
X121501000Y-104559000D01*
X121501000Y-106261000D01*
X121501000Y-106261000D01*
G37*
G36*
X117006823Y-104571313D02*
G01*
X117167242Y-104619976D01*
X117252426Y-104665508D01*
X117315078Y-104698996D01*
X117444659Y-104805341D01*
X117551004Y-104934922D01*
X117551005Y-104934924D01*
X117630024Y-105082758D01*
X117678687Y-105243177D01*
X117695117Y-105410000D01*
X117678687Y-105576823D01*
X117630024Y-105737242D01*
X117574876Y-105840416D01*
X117551004Y-105885078D01*
X117444659Y-106014659D01*
X117315078Y-106121004D01*
X117315076Y-106121005D01*
X117167242Y-106200024D01*
X117006823Y-106248687D01*
X116881804Y-106261000D01*
X116798196Y-106261000D01*
X116673177Y-106248687D01*
X116512758Y-106200024D01*
X116364924Y-106121005D01*
X116364922Y-106121004D01*
X116235341Y-106014659D01*
X116128996Y-105885078D01*
X116105124Y-105840416D01*
X116049976Y-105737242D01*
X116001313Y-105576823D01*
X115984883Y-105410000D01*
X116001313Y-105243177D01*
X116049976Y-105082758D01*
X116128995Y-104934924D01*
X116128996Y-104934922D01*
X116235341Y-104805341D01*
X116364922Y-104698996D01*
X116427574Y-104665508D01*
X116512758Y-104619976D01*
X116673177Y-104571313D01*
X116798196Y-104559000D01*
X116881804Y-104559000D01*
X117006823Y-104571313D01*
X117006823Y-104571313D01*
G37*
G36*
X105576823Y-104571313D02*
G01*
X105737242Y-104619976D01*
X105822426Y-104665508D01*
X105885078Y-104698996D01*
X106014659Y-104805341D01*
X106121004Y-104934922D01*
X106121005Y-104934924D01*
X106200024Y-105082758D01*
X106248687Y-105243177D01*
X106265117Y-105410000D01*
X106248687Y-105576823D01*
X106200024Y-105737242D01*
X106144876Y-105840416D01*
X106121004Y-105885078D01*
X106014659Y-106014659D01*
X105885078Y-106121004D01*
X105885076Y-106121005D01*
X105737242Y-106200024D01*
X105576823Y-106248687D01*
X105451804Y-106261000D01*
X105368196Y-106261000D01*
X105243177Y-106248687D01*
X105082758Y-106200024D01*
X104934924Y-106121005D01*
X104934922Y-106121004D01*
X104805341Y-106014659D01*
X104698996Y-105885078D01*
X104675124Y-105840416D01*
X104619976Y-105737242D01*
X104571313Y-105576823D01*
X104554883Y-105410000D01*
X104571313Y-105243177D01*
X104619976Y-105082758D01*
X104698995Y-104934924D01*
X104698996Y-104934922D01*
X104805341Y-104805341D01*
X104934922Y-104698996D01*
X104997574Y-104665508D01*
X105082758Y-104619976D01*
X105243177Y-104571313D01*
X105368196Y-104559000D01*
X105451804Y-104559000D01*
X105576823Y-104571313D01*
X105576823Y-104571313D01*
G37*
G36*
X90336823Y-104571313D02*
G01*
X90497242Y-104619976D01*
X90582426Y-104665508D01*
X90645078Y-104698996D01*
X90774659Y-104805341D01*
X90881004Y-104934922D01*
X90881005Y-104934924D01*
X90960024Y-105082758D01*
X91008687Y-105243177D01*
X91025117Y-105410000D01*
X91008687Y-105576823D01*
X90960024Y-105737242D01*
X90904876Y-105840416D01*
X90881004Y-105885078D01*
X90774659Y-106014659D01*
X90645078Y-106121004D01*
X90645076Y-106121005D01*
X90497242Y-106200024D01*
X90336823Y-106248687D01*
X90211804Y-106261000D01*
X90128196Y-106261000D01*
X90003177Y-106248687D01*
X89842758Y-106200024D01*
X89694924Y-106121005D01*
X89694922Y-106121004D01*
X89565341Y-106014659D01*
X89458996Y-105885078D01*
X89435124Y-105840416D01*
X89379976Y-105737242D01*
X89331313Y-105576823D01*
X89314883Y-105410000D01*
X89331313Y-105243177D01*
X89379976Y-105082758D01*
X89458995Y-104934924D01*
X89458996Y-104934922D01*
X89565341Y-104805341D01*
X89694922Y-104698996D01*
X89757574Y-104665508D01*
X89842758Y-104619976D01*
X90003177Y-104571313D01*
X90128196Y-104559000D01*
X90211804Y-104559000D01*
X90336823Y-104571313D01*
X90336823Y-104571313D01*
G37*
G36*
X59653993Y-104604203D02*
G01*
X59718411Y-104623744D01*
X59777781Y-104655478D01*
X59829817Y-104698183D01*
X59872522Y-104750219D01*
X59904256Y-104809589D01*
X59923797Y-104874007D01*
X59931000Y-104947140D01*
X59931000Y-105872860D01*
X59923797Y-105945993D01*
X59904256Y-106010411D01*
X59872522Y-106069781D01*
X59829817Y-106121817D01*
X59777781Y-106164522D01*
X59718411Y-106196256D01*
X59653993Y-106215797D01*
X59580860Y-106223000D01*
X52179140Y-106223000D01*
X52106007Y-106215797D01*
X52041589Y-106196256D01*
X51982219Y-106164522D01*
X51930183Y-106121817D01*
X51887478Y-106069781D01*
X51855744Y-106010411D01*
X51836203Y-105945993D01*
X51829000Y-105872860D01*
X51829000Y-104947140D01*
X51836203Y-104874007D01*
X51855744Y-104809589D01*
X51887478Y-104750219D01*
X51930183Y-104698183D01*
X51982219Y-104655478D01*
X52041589Y-104623744D01*
X52106007Y-104604203D01*
X52179140Y-104597000D01*
X59580860Y-104597000D01*
X59653993Y-104604203D01*
X59653993Y-104604203D01*
G37*
G36*
X84175629Y-104642719D02*
G01*
X84251142Y-104650156D01*
X84396476Y-104694243D01*
X84396479Y-104694244D01*
X84530416Y-104765835D01*
X84647817Y-104862183D01*
X84744165Y-104979584D01*
X84815756Y-105113521D01*
X84815757Y-105113524D01*
X84859844Y-105258858D01*
X84874730Y-105410000D01*
X84859844Y-105561142D01*
X84815757Y-105706476D01*
X84815756Y-105706479D01*
X84744165Y-105840416D01*
X84647817Y-105957817D01*
X84530416Y-106054165D01*
X84396479Y-106125756D01*
X84396476Y-106125757D01*
X84251142Y-106169844D01*
X84175629Y-106177281D01*
X84137873Y-106181000D01*
X83502127Y-106181000D01*
X83464371Y-106177281D01*
X83388858Y-106169844D01*
X83243524Y-106125757D01*
X83243521Y-106125756D01*
X83109584Y-106054165D01*
X82992183Y-105957817D01*
X82895835Y-105840416D01*
X82824244Y-105706479D01*
X82824243Y-105706476D01*
X82780156Y-105561142D01*
X82765270Y-105410000D01*
X82780156Y-105258858D01*
X82824243Y-105113524D01*
X82824244Y-105113521D01*
X82895835Y-104979584D01*
X82992183Y-104862183D01*
X83109584Y-104765835D01*
X83243521Y-104694244D01*
X83243524Y-104694243D01*
X83388858Y-104650156D01*
X83464371Y-104642719D01*
X83502127Y-104639000D01*
X84137873Y-104639000D01*
X84175629Y-104642719D01*
X84175629Y-104642719D01*
G37*
G36*
X68935629Y-104642719D02*
G01*
X69011142Y-104650156D01*
X69156476Y-104694243D01*
X69156479Y-104694244D01*
X69290416Y-104765835D01*
X69407817Y-104862183D01*
X69504165Y-104979584D01*
X69575756Y-105113521D01*
X69575757Y-105113524D01*
X69619844Y-105258858D01*
X69634730Y-105410000D01*
X69619844Y-105561142D01*
X69575757Y-105706476D01*
X69575756Y-105706479D01*
X69504165Y-105840416D01*
X69407817Y-105957817D01*
X69290416Y-106054165D01*
X69156479Y-106125756D01*
X69156476Y-106125757D01*
X69011142Y-106169844D01*
X68935629Y-106177281D01*
X68897873Y-106181000D01*
X68262127Y-106181000D01*
X68224371Y-106177281D01*
X68148858Y-106169844D01*
X68003524Y-106125757D01*
X68003521Y-106125756D01*
X67869584Y-106054165D01*
X67752183Y-105957817D01*
X67655835Y-105840416D01*
X67584244Y-105706479D01*
X67584243Y-105706476D01*
X67540156Y-105561142D01*
X67525270Y-105410000D01*
X67540156Y-105258858D01*
X67584243Y-105113524D01*
X67584244Y-105113521D01*
X67655835Y-104979584D01*
X67752183Y-104862183D01*
X67869584Y-104765835D01*
X68003521Y-104694244D01*
X68003524Y-104694243D01*
X68148858Y-104650156D01*
X68224371Y-104642719D01*
X68262127Y-104639000D01*
X68897873Y-104639000D01*
X68935629Y-104642719D01*
X68935629Y-104642719D01*
G37*
G36*
X90336823Y-102031313D02*
G01*
X90497242Y-102079976D01*
X90629906Y-102150886D01*
X90645078Y-102158996D01*
X90774659Y-102265341D01*
X90881004Y-102394922D01*
X90881005Y-102394924D01*
X90960024Y-102542758D01*
X91008687Y-102703177D01*
X91025117Y-102870000D01*
X91008687Y-103036823D01*
X90960024Y-103197242D01*
X90904876Y-103300416D01*
X90881004Y-103345078D01*
X90774659Y-103474659D01*
X90645078Y-103581004D01*
X90645076Y-103581005D01*
X90497242Y-103660024D01*
X90336823Y-103708687D01*
X90211804Y-103721000D01*
X90128196Y-103721000D01*
X90003177Y-103708687D01*
X89842758Y-103660024D01*
X89694924Y-103581005D01*
X89694922Y-103581004D01*
X89565341Y-103474659D01*
X89458996Y-103345078D01*
X89435124Y-103300416D01*
X89379976Y-103197242D01*
X89331313Y-103036823D01*
X89314883Y-102870000D01*
X89331313Y-102703177D01*
X89379976Y-102542758D01*
X89458995Y-102394924D01*
X89458996Y-102394922D01*
X89565341Y-102265341D01*
X89694922Y-102158996D01*
X89710094Y-102150886D01*
X89842758Y-102079976D01*
X90003177Y-102031313D01*
X90128196Y-102019000D01*
X90211804Y-102019000D01*
X90336823Y-102031313D01*
X90336823Y-102031313D01*
G37*
G36*
X105576823Y-102031313D02*
G01*
X105737242Y-102079976D01*
X105869906Y-102150886D01*
X105885078Y-102158996D01*
X106014659Y-102265341D01*
X106121004Y-102394922D01*
X106121005Y-102394924D01*
X106200024Y-102542758D01*
X106248687Y-102703177D01*
X106265117Y-102870000D01*
X106248687Y-103036823D01*
X106200024Y-103197242D01*
X106144876Y-103300416D01*
X106121004Y-103345078D01*
X106014659Y-103474659D01*
X105885078Y-103581004D01*
X105885076Y-103581005D01*
X105737242Y-103660024D01*
X105576823Y-103708687D01*
X105451804Y-103721000D01*
X105368196Y-103721000D01*
X105243177Y-103708687D01*
X105082758Y-103660024D01*
X104934924Y-103581005D01*
X104934922Y-103581004D01*
X104805341Y-103474659D01*
X104698996Y-103345078D01*
X104675124Y-103300416D01*
X104619976Y-103197242D01*
X104571313Y-103036823D01*
X104554883Y-102870000D01*
X104571313Y-102703177D01*
X104619976Y-102542758D01*
X104698995Y-102394924D01*
X104698996Y-102394922D01*
X104805341Y-102265341D01*
X104934922Y-102158996D01*
X104950094Y-102150886D01*
X105082758Y-102079976D01*
X105243177Y-102031313D01*
X105368196Y-102019000D01*
X105451804Y-102019000D01*
X105576823Y-102031313D01*
X105576823Y-102031313D01*
G37*
G36*
X59653993Y-102064203D02*
G01*
X59718411Y-102083744D01*
X59777781Y-102115478D01*
X59829817Y-102158183D01*
X59872522Y-102210219D01*
X59904256Y-102269589D01*
X59923797Y-102334007D01*
X59931000Y-102407140D01*
X59931000Y-103332860D01*
X59923797Y-103405993D01*
X59904256Y-103470411D01*
X59872522Y-103529781D01*
X59829817Y-103581817D01*
X59777781Y-103624522D01*
X59718411Y-103656256D01*
X59653993Y-103675797D01*
X59580860Y-103683000D01*
X52179140Y-103683000D01*
X52106007Y-103675797D01*
X52041589Y-103656256D01*
X51982219Y-103624522D01*
X51930183Y-103581817D01*
X51887478Y-103529781D01*
X51855744Y-103470411D01*
X51836203Y-103405993D01*
X51829000Y-103332860D01*
X51829000Y-102407140D01*
X51836203Y-102334007D01*
X51855744Y-102269589D01*
X51887478Y-102210219D01*
X51930183Y-102158183D01*
X51982219Y-102115478D01*
X52041589Y-102083744D01*
X52106007Y-102064203D01*
X52179140Y-102057000D01*
X59580860Y-102057000D01*
X59653993Y-102064203D01*
X59653993Y-102064203D01*
G37*
G36*
X68935629Y-102102719D02*
G01*
X69011142Y-102110156D01*
X69156476Y-102154243D01*
X69156479Y-102154244D01*
X69290416Y-102225835D01*
X69407817Y-102322183D01*
X69504165Y-102439584D01*
X69575756Y-102573521D01*
X69575757Y-102573524D01*
X69619844Y-102718858D01*
X69634730Y-102870000D01*
X69619844Y-103021142D01*
X69575757Y-103166476D01*
X69575756Y-103166479D01*
X69504165Y-103300416D01*
X69407817Y-103417817D01*
X69290416Y-103514165D01*
X69156479Y-103585756D01*
X69156476Y-103585757D01*
X69011142Y-103629844D01*
X68935629Y-103637281D01*
X68897873Y-103641000D01*
X68262127Y-103641000D01*
X68224371Y-103637281D01*
X68148858Y-103629844D01*
X68003524Y-103585757D01*
X68003521Y-103585756D01*
X67869584Y-103514165D01*
X67752183Y-103417817D01*
X67655835Y-103300416D01*
X67584244Y-103166479D01*
X67584243Y-103166476D01*
X67540156Y-103021142D01*
X67525270Y-102870000D01*
X67540156Y-102718858D01*
X67584243Y-102573524D01*
X67584244Y-102573521D01*
X67655835Y-102439584D01*
X67752183Y-102322183D01*
X67869584Y-102225835D01*
X68003521Y-102154244D01*
X68003524Y-102154243D01*
X68148858Y-102110156D01*
X68224371Y-102102719D01*
X68262127Y-102099000D01*
X68897873Y-102099000D01*
X68935629Y-102102719D01*
X68935629Y-102102719D01*
G37*
G36*
X84175629Y-102102719D02*
G01*
X84251142Y-102110156D01*
X84396476Y-102154243D01*
X84396479Y-102154244D01*
X84530416Y-102225835D01*
X84647817Y-102322183D01*
X84744165Y-102439584D01*
X84815756Y-102573521D01*
X84815757Y-102573524D01*
X84859844Y-102718858D01*
X84874730Y-102870000D01*
X84859844Y-103021142D01*
X84815757Y-103166476D01*
X84815756Y-103166479D01*
X84744165Y-103300416D01*
X84647817Y-103417817D01*
X84530416Y-103514165D01*
X84396479Y-103585756D01*
X84396476Y-103585757D01*
X84251142Y-103629844D01*
X84175629Y-103637281D01*
X84137873Y-103641000D01*
X83502127Y-103641000D01*
X83464371Y-103637281D01*
X83388858Y-103629844D01*
X83243524Y-103585757D01*
X83243521Y-103585756D01*
X83109584Y-103514165D01*
X82992183Y-103417817D01*
X82895835Y-103300416D01*
X82824244Y-103166479D01*
X82824243Y-103166476D01*
X82780156Y-103021142D01*
X82765270Y-102870000D01*
X82780156Y-102718858D01*
X82824243Y-102573524D01*
X82824244Y-102573521D01*
X82895835Y-102439584D01*
X82992183Y-102322183D01*
X83109584Y-102225835D01*
X83243521Y-102154244D01*
X83243524Y-102154243D01*
X83388858Y-102110156D01*
X83464371Y-102102719D01*
X83502127Y-102099000D01*
X84137873Y-102099000D01*
X84175629Y-102102719D01*
X84175629Y-102102719D01*
G37*
G36*
X122168228Y-100781703D02*
G01*
X122323100Y-100845853D01*
X122462481Y-100938985D01*
X122581015Y-101057519D01*
X122674147Y-101196900D01*
X122738297Y-101351772D01*
X122771000Y-101516184D01*
X122771000Y-101683816D01*
X122738297Y-101848228D01*
X122674147Y-102003100D01*
X122581015Y-102142481D01*
X122462481Y-102261015D01*
X122323100Y-102354147D01*
X122168228Y-102418297D01*
X122003816Y-102451000D01*
X121836184Y-102451000D01*
X121671772Y-102418297D01*
X121516900Y-102354147D01*
X121377519Y-102261015D01*
X121258985Y-102142481D01*
X121165853Y-102003100D01*
X121101703Y-101848228D01*
X121069000Y-101683816D01*
X121069000Y-101516184D01*
X121101703Y-101351772D01*
X121165853Y-101196900D01*
X121258985Y-101057519D01*
X121377519Y-100938985D01*
X121516900Y-100845853D01*
X121671772Y-100781703D01*
X121836184Y-100749000D01*
X122003816Y-100749000D01*
X122168228Y-100781703D01*
X122168228Y-100781703D01*
G37*
G36*
X127168228Y-100781703D02*
G01*
X127323100Y-100845853D01*
X127462481Y-100938985D01*
X127581015Y-101057519D01*
X127674147Y-101196900D01*
X127738297Y-101351772D01*
X127771000Y-101516184D01*
X127771000Y-101683816D01*
X127738297Y-101848228D01*
X127674147Y-102003100D01*
X127581015Y-102142481D01*
X127462481Y-102261015D01*
X127323100Y-102354147D01*
X127168228Y-102418297D01*
X127003816Y-102451000D01*
X126836184Y-102451000D01*
X126671772Y-102418297D01*
X126516900Y-102354147D01*
X126377519Y-102261015D01*
X126258985Y-102142481D01*
X126165853Y-102003100D01*
X126101703Y-101848228D01*
X126069000Y-101683816D01*
X126069000Y-101516184D01*
X126101703Y-101351772D01*
X126165853Y-101196900D01*
X126258985Y-101057519D01*
X126377519Y-100938985D01*
X126516900Y-100845853D01*
X126671772Y-100781703D01*
X126836184Y-100749000D01*
X127003816Y-100749000D01*
X127168228Y-100781703D01*
X127168228Y-100781703D01*
G37*
G36*
X90336823Y-99491313D02*
G01*
X90497242Y-99539976D01*
X90582426Y-99585508D01*
X90645078Y-99618996D01*
X90774659Y-99725341D01*
X90881004Y-99854922D01*
X90881005Y-99854924D01*
X90960024Y-100002758D01*
X91008687Y-100163177D01*
X91025117Y-100330000D01*
X91008687Y-100496823D01*
X90960024Y-100657242D01*
X90910978Y-100749000D01*
X90881004Y-100805078D01*
X90774659Y-100934659D01*
X90645078Y-101041004D01*
X90645076Y-101041005D01*
X90497242Y-101120024D01*
X90336823Y-101168687D01*
X90211804Y-101181000D01*
X90128196Y-101181000D01*
X90003177Y-101168687D01*
X89842758Y-101120024D01*
X89694924Y-101041005D01*
X89694922Y-101041004D01*
X89565341Y-100934659D01*
X89458996Y-100805078D01*
X89429022Y-100749000D01*
X89379976Y-100657242D01*
X89331313Y-100496823D01*
X89314883Y-100330000D01*
X89331313Y-100163177D01*
X89379976Y-100002758D01*
X89458995Y-99854924D01*
X89458996Y-99854922D01*
X89565341Y-99725341D01*
X89694922Y-99618996D01*
X89757574Y-99585508D01*
X89842758Y-99539976D01*
X90003177Y-99491313D01*
X90128196Y-99479000D01*
X90211804Y-99479000D01*
X90336823Y-99491313D01*
X90336823Y-99491313D01*
G37*
G36*
X117006823Y-99491313D02*
G01*
X117167242Y-99539976D01*
X117252426Y-99585508D01*
X117315078Y-99618996D01*
X117444659Y-99725341D01*
X117551004Y-99854922D01*
X117551005Y-99854924D01*
X117630024Y-100002758D01*
X117678687Y-100163177D01*
X117695117Y-100330000D01*
X117678687Y-100496823D01*
X117630024Y-100657242D01*
X117580978Y-100749000D01*
X117551004Y-100805078D01*
X117444659Y-100934659D01*
X117315078Y-101041004D01*
X117315076Y-101041005D01*
X117167242Y-101120024D01*
X117006823Y-101168687D01*
X116881804Y-101181000D01*
X116798196Y-101181000D01*
X116673177Y-101168687D01*
X116512758Y-101120024D01*
X116364924Y-101041005D01*
X116364922Y-101041004D01*
X116235341Y-100934659D01*
X116128996Y-100805078D01*
X116099022Y-100749000D01*
X116049976Y-100657242D01*
X116001313Y-100496823D01*
X115984883Y-100330000D01*
X116001313Y-100163177D01*
X116049976Y-100002758D01*
X116128995Y-99854924D01*
X116128996Y-99854922D01*
X116235341Y-99725341D01*
X116364922Y-99618996D01*
X116427574Y-99585508D01*
X116512758Y-99539976D01*
X116673177Y-99491313D01*
X116798196Y-99479000D01*
X116881804Y-99479000D01*
X117006823Y-99491313D01*
X117006823Y-99491313D01*
G37*
G36*
X109386823Y-99491313D02*
G01*
X109547242Y-99539976D01*
X109632426Y-99585508D01*
X109695078Y-99618996D01*
X109824659Y-99725341D01*
X109931004Y-99854922D01*
X109931005Y-99854924D01*
X110010024Y-100002758D01*
X110058687Y-100163177D01*
X110075117Y-100330000D01*
X110058687Y-100496823D01*
X110010024Y-100657242D01*
X109960978Y-100749000D01*
X109931004Y-100805078D01*
X109824659Y-100934659D01*
X109695078Y-101041004D01*
X109695076Y-101041005D01*
X109547242Y-101120024D01*
X109386823Y-101168687D01*
X109261804Y-101181000D01*
X109178196Y-101181000D01*
X109053177Y-101168687D01*
X108892758Y-101120024D01*
X108744924Y-101041005D01*
X108744922Y-101041004D01*
X108615341Y-100934659D01*
X108508996Y-100805078D01*
X108479022Y-100749000D01*
X108429976Y-100657242D01*
X108381313Y-100496823D01*
X108364883Y-100330000D01*
X108381313Y-100163177D01*
X108429976Y-100002758D01*
X108508995Y-99854924D01*
X108508996Y-99854922D01*
X108615341Y-99725341D01*
X108744922Y-99618996D01*
X108807574Y-99585508D01*
X108892758Y-99539976D01*
X109053177Y-99491313D01*
X109178196Y-99479000D01*
X109261804Y-99479000D01*
X109386823Y-99491313D01*
X109386823Y-99491313D01*
G37*
G36*
X105576823Y-99491313D02*
G01*
X105737242Y-99539976D01*
X105822426Y-99585508D01*
X105885078Y-99618996D01*
X106014659Y-99725341D01*
X106121004Y-99854922D01*
X106121005Y-99854924D01*
X106200024Y-100002758D01*
X106248687Y-100163177D01*
X106265117Y-100330000D01*
X106248687Y-100496823D01*
X106200024Y-100657242D01*
X106150978Y-100749000D01*
X106121004Y-100805078D01*
X106014659Y-100934659D01*
X105885078Y-101041004D01*
X105885076Y-101041005D01*
X105737242Y-101120024D01*
X105576823Y-101168687D01*
X105451804Y-101181000D01*
X105368196Y-101181000D01*
X105243177Y-101168687D01*
X105082758Y-101120024D01*
X104934924Y-101041005D01*
X104934922Y-101041004D01*
X104805341Y-100934659D01*
X104698996Y-100805078D01*
X104669022Y-100749000D01*
X104619976Y-100657242D01*
X104571313Y-100496823D01*
X104554883Y-100330000D01*
X104571313Y-100163177D01*
X104619976Y-100002758D01*
X104698995Y-99854924D01*
X104698996Y-99854922D01*
X104805341Y-99725341D01*
X104934922Y-99618996D01*
X104997574Y-99585508D01*
X105082758Y-99539976D01*
X105243177Y-99491313D01*
X105368196Y-99479000D01*
X105451804Y-99479000D01*
X105576823Y-99491313D01*
X105576823Y-99491313D01*
G37*
G36*
X59653993Y-99524203D02*
G01*
X59718411Y-99543744D01*
X59777781Y-99575478D01*
X59829817Y-99618183D01*
X59872522Y-99670219D01*
X59904256Y-99729589D01*
X59923797Y-99794007D01*
X59931000Y-99867140D01*
X59931000Y-100792860D01*
X59923797Y-100865993D01*
X59904256Y-100930411D01*
X59872522Y-100989781D01*
X59829817Y-101041817D01*
X59777781Y-101084522D01*
X59718411Y-101116256D01*
X59653993Y-101135797D01*
X59580860Y-101143000D01*
X52179140Y-101143000D01*
X52106007Y-101135797D01*
X52041589Y-101116256D01*
X51982219Y-101084522D01*
X51930183Y-101041817D01*
X51887478Y-100989781D01*
X51855744Y-100930411D01*
X51836203Y-100865993D01*
X51829000Y-100792860D01*
X51829000Y-99867140D01*
X51836203Y-99794007D01*
X51855744Y-99729589D01*
X51887478Y-99670219D01*
X51930183Y-99618183D01*
X51982219Y-99575478D01*
X52041589Y-99543744D01*
X52106007Y-99524203D01*
X52179140Y-99517000D01*
X59580860Y-99517000D01*
X59653993Y-99524203D01*
X59653993Y-99524203D01*
G37*
G36*
X68935629Y-99562719D02*
G01*
X69011142Y-99570156D01*
X69156476Y-99614243D01*
X69156479Y-99614244D01*
X69290416Y-99685835D01*
X69407817Y-99782183D01*
X69504165Y-99899584D01*
X69575756Y-100033521D01*
X69575757Y-100033524D01*
X69619844Y-100178858D01*
X69634730Y-100330000D01*
X69619844Y-100481142D01*
X69575757Y-100626476D01*
X69575756Y-100626479D01*
X69504165Y-100760416D01*
X69407817Y-100877817D01*
X69290416Y-100974165D01*
X69156479Y-101045756D01*
X69156476Y-101045757D01*
X69011142Y-101089844D01*
X68935629Y-101097281D01*
X68897873Y-101101000D01*
X68262127Y-101101000D01*
X68224371Y-101097281D01*
X68148858Y-101089844D01*
X68003524Y-101045757D01*
X68003521Y-101045756D01*
X67869584Y-100974165D01*
X67752183Y-100877817D01*
X67655835Y-100760416D01*
X67584244Y-100626479D01*
X67584243Y-100626476D01*
X67540156Y-100481142D01*
X67525270Y-100330000D01*
X67540156Y-100178858D01*
X67584243Y-100033524D01*
X67584244Y-100033521D01*
X67655835Y-99899584D01*
X67752183Y-99782183D01*
X67869584Y-99685835D01*
X68003521Y-99614244D01*
X68003524Y-99614243D01*
X68148858Y-99570156D01*
X68224371Y-99562719D01*
X68262127Y-99559000D01*
X68897873Y-99559000D01*
X68935629Y-99562719D01*
X68935629Y-99562719D01*
G37*
G36*
X84175629Y-99562719D02*
G01*
X84251142Y-99570156D01*
X84396476Y-99614243D01*
X84396479Y-99614244D01*
X84530416Y-99685835D01*
X84647817Y-99782183D01*
X84744165Y-99899584D01*
X84815756Y-100033521D01*
X84815757Y-100033524D01*
X84859844Y-100178858D01*
X84874730Y-100330000D01*
X84859844Y-100481142D01*
X84815757Y-100626476D01*
X84815756Y-100626479D01*
X84744165Y-100760416D01*
X84647817Y-100877817D01*
X84530416Y-100974165D01*
X84396479Y-101045756D01*
X84396476Y-101045757D01*
X84251142Y-101089844D01*
X84175629Y-101097281D01*
X84137873Y-101101000D01*
X83502127Y-101101000D01*
X83464371Y-101097281D01*
X83388858Y-101089844D01*
X83243524Y-101045757D01*
X83243521Y-101045756D01*
X83109584Y-100974165D01*
X82992183Y-100877817D01*
X82895835Y-100760416D01*
X82824244Y-100626479D01*
X82824243Y-100626476D01*
X82780156Y-100481142D01*
X82765270Y-100330000D01*
X82780156Y-100178858D01*
X82824243Y-100033524D01*
X82824244Y-100033521D01*
X82895835Y-99899584D01*
X82992183Y-99782183D01*
X83109584Y-99685835D01*
X83243521Y-99614244D01*
X83243524Y-99614243D01*
X83388858Y-99570156D01*
X83464371Y-99562719D01*
X83502127Y-99559000D01*
X84137873Y-99559000D01*
X84175629Y-99562719D01*
X84175629Y-99562719D01*
G37*
G36*
X105576823Y-96951313D02*
G01*
X105737242Y-96999976D01*
X105822426Y-97045508D01*
X105885078Y-97078996D01*
X106014659Y-97185341D01*
X106121004Y-97314922D01*
X106121005Y-97314924D01*
X106200024Y-97462758D01*
X106248687Y-97623177D01*
X106265117Y-97790000D01*
X106248687Y-97956823D01*
X106200024Y-98117242D01*
X106144876Y-98220416D01*
X106121004Y-98265078D01*
X106014659Y-98394659D01*
X105885078Y-98501004D01*
X105885076Y-98501005D01*
X105737242Y-98580024D01*
X105576823Y-98628687D01*
X105451804Y-98641000D01*
X105368196Y-98641000D01*
X105243177Y-98628687D01*
X105082758Y-98580024D01*
X104934924Y-98501005D01*
X104934922Y-98501004D01*
X104805341Y-98394659D01*
X104698996Y-98265078D01*
X104675124Y-98220416D01*
X104619976Y-98117242D01*
X104571313Y-97956823D01*
X104554883Y-97790000D01*
X104571313Y-97623177D01*
X104619976Y-97462758D01*
X104698995Y-97314924D01*
X104698996Y-97314922D01*
X104805341Y-97185341D01*
X104934922Y-97078996D01*
X104997574Y-97045508D01*
X105082758Y-96999976D01*
X105243177Y-96951313D01*
X105368196Y-96939000D01*
X105451804Y-96939000D01*
X105576823Y-96951313D01*
X105576823Y-96951313D01*
G37*
G36*
X109386823Y-96951313D02*
G01*
X109547242Y-96999976D01*
X109632426Y-97045508D01*
X109695078Y-97078996D01*
X109824659Y-97185341D01*
X109931004Y-97314922D01*
X109931005Y-97314924D01*
X110010024Y-97462758D01*
X110058687Y-97623177D01*
X110075117Y-97790000D01*
X110058687Y-97956823D01*
X110010024Y-98117242D01*
X109954876Y-98220416D01*
X109931004Y-98265078D01*
X109824659Y-98394659D01*
X109695078Y-98501004D01*
X109695076Y-98501005D01*
X109547242Y-98580024D01*
X109386823Y-98628687D01*
X109261804Y-98641000D01*
X109178196Y-98641000D01*
X109053177Y-98628687D01*
X108892758Y-98580024D01*
X108744924Y-98501005D01*
X108744922Y-98501004D01*
X108615341Y-98394659D01*
X108508996Y-98265078D01*
X108485124Y-98220416D01*
X108429976Y-98117242D01*
X108381313Y-97956823D01*
X108364883Y-97790000D01*
X108381313Y-97623177D01*
X108429976Y-97462758D01*
X108508995Y-97314924D01*
X108508996Y-97314922D01*
X108615341Y-97185341D01*
X108744922Y-97078996D01*
X108807574Y-97045508D01*
X108892758Y-96999976D01*
X109053177Y-96951313D01*
X109178196Y-96939000D01*
X109261804Y-96939000D01*
X109386823Y-96951313D01*
X109386823Y-96951313D01*
G37*
G36*
X90336823Y-96951313D02*
G01*
X90497242Y-96999976D01*
X90582426Y-97045508D01*
X90645078Y-97078996D01*
X90774659Y-97185341D01*
X90881004Y-97314922D01*
X90881005Y-97314924D01*
X90960024Y-97462758D01*
X91008687Y-97623177D01*
X91025117Y-97790000D01*
X91008687Y-97956823D01*
X90960024Y-98117242D01*
X90904876Y-98220416D01*
X90881004Y-98265078D01*
X90774659Y-98394659D01*
X90645078Y-98501004D01*
X90645076Y-98501005D01*
X90497242Y-98580024D01*
X90336823Y-98628687D01*
X90211804Y-98641000D01*
X90128196Y-98641000D01*
X90003177Y-98628687D01*
X89842758Y-98580024D01*
X89694924Y-98501005D01*
X89694922Y-98501004D01*
X89565341Y-98394659D01*
X89458996Y-98265078D01*
X89435124Y-98220416D01*
X89379976Y-98117242D01*
X89331313Y-97956823D01*
X89314883Y-97790000D01*
X89331313Y-97623177D01*
X89379976Y-97462758D01*
X89458995Y-97314924D01*
X89458996Y-97314922D01*
X89565341Y-97185341D01*
X89694922Y-97078996D01*
X89757574Y-97045508D01*
X89842758Y-96999976D01*
X90003177Y-96951313D01*
X90128196Y-96939000D01*
X90211804Y-96939000D01*
X90336823Y-96951313D01*
X90336823Y-96951313D01*
G37*
G36*
X128436823Y-96951313D02*
G01*
X128597242Y-96999976D01*
X128682426Y-97045508D01*
X128745078Y-97078996D01*
X128874659Y-97185341D01*
X128981004Y-97314922D01*
X128981005Y-97314924D01*
X129060024Y-97462758D01*
X129108687Y-97623177D01*
X129125117Y-97790000D01*
X129108687Y-97956823D01*
X129060024Y-98117242D01*
X129004876Y-98220416D01*
X128981004Y-98265078D01*
X128874659Y-98394659D01*
X128745078Y-98501004D01*
X128745076Y-98501005D01*
X128597242Y-98580024D01*
X128436823Y-98628687D01*
X128311804Y-98641000D01*
X128228196Y-98641000D01*
X128103177Y-98628687D01*
X127942758Y-98580024D01*
X127794924Y-98501005D01*
X127794922Y-98501004D01*
X127665341Y-98394659D01*
X127558996Y-98265078D01*
X127535124Y-98220416D01*
X127479976Y-98117242D01*
X127431313Y-97956823D01*
X127414883Y-97790000D01*
X127431313Y-97623177D01*
X127479976Y-97462758D01*
X127558995Y-97314924D01*
X127558996Y-97314922D01*
X127665341Y-97185341D01*
X127794922Y-97078996D01*
X127857574Y-97045508D01*
X127942758Y-96999976D01*
X128103177Y-96951313D01*
X128228196Y-96939000D01*
X128311804Y-96939000D01*
X128436823Y-96951313D01*
X128436823Y-96951313D01*
G37*
G36*
X117006823Y-96951313D02*
G01*
X117167242Y-96999976D01*
X117252426Y-97045508D01*
X117315078Y-97078996D01*
X117444659Y-97185341D01*
X117551004Y-97314922D01*
X117551005Y-97314924D01*
X117630024Y-97462758D01*
X117678687Y-97623177D01*
X117695117Y-97790000D01*
X117678687Y-97956823D01*
X117630024Y-98117242D01*
X117574876Y-98220416D01*
X117551004Y-98265078D01*
X117444659Y-98394659D01*
X117315078Y-98501004D01*
X117315076Y-98501005D01*
X117167242Y-98580024D01*
X117006823Y-98628687D01*
X116881804Y-98641000D01*
X116798196Y-98641000D01*
X116673177Y-98628687D01*
X116512758Y-98580024D01*
X116364924Y-98501005D01*
X116364922Y-98501004D01*
X116235341Y-98394659D01*
X116128996Y-98265078D01*
X116105124Y-98220416D01*
X116049976Y-98117242D01*
X116001313Y-97956823D01*
X115984883Y-97790000D01*
X116001313Y-97623177D01*
X116049976Y-97462758D01*
X116128995Y-97314924D01*
X116128996Y-97314922D01*
X116235341Y-97185341D01*
X116364922Y-97078996D01*
X116427574Y-97045508D01*
X116512758Y-96999976D01*
X116673177Y-96951313D01*
X116798196Y-96939000D01*
X116881804Y-96939000D01*
X117006823Y-96951313D01*
X117006823Y-96951313D01*
G37*
G36*
X120816823Y-96951313D02*
G01*
X120977242Y-96999976D01*
X121062426Y-97045508D01*
X121125078Y-97078996D01*
X121254659Y-97185341D01*
X121361004Y-97314922D01*
X121361005Y-97314924D01*
X121440024Y-97462758D01*
X121488687Y-97623177D01*
X121505117Y-97790000D01*
X121488687Y-97956823D01*
X121440024Y-98117242D01*
X121384876Y-98220416D01*
X121361004Y-98265078D01*
X121254659Y-98394659D01*
X121125078Y-98501004D01*
X121125076Y-98501005D01*
X120977242Y-98580024D01*
X120816823Y-98628687D01*
X120691804Y-98641000D01*
X120608196Y-98641000D01*
X120483177Y-98628687D01*
X120322758Y-98580024D01*
X120174924Y-98501005D01*
X120174922Y-98501004D01*
X120045341Y-98394659D01*
X119938996Y-98265078D01*
X119915124Y-98220416D01*
X119859976Y-98117242D01*
X119811313Y-97956823D01*
X119794883Y-97790000D01*
X119811313Y-97623177D01*
X119859976Y-97462758D01*
X119938995Y-97314924D01*
X119938996Y-97314922D01*
X120045341Y-97185341D01*
X120174922Y-97078996D01*
X120237574Y-97045508D01*
X120322758Y-96999976D01*
X120483177Y-96951313D01*
X120608196Y-96939000D01*
X120691804Y-96939000D01*
X120816823Y-96951313D01*
X120816823Y-96951313D01*
G37*
G36*
X59653993Y-96984203D02*
G01*
X59718411Y-97003744D01*
X59777781Y-97035478D01*
X59829817Y-97078183D01*
X59872522Y-97130219D01*
X59904256Y-97189589D01*
X59923797Y-97254007D01*
X59931000Y-97327140D01*
X59931000Y-98252860D01*
X59923797Y-98325993D01*
X59904256Y-98390411D01*
X59872522Y-98449781D01*
X59829817Y-98501817D01*
X59777781Y-98544522D01*
X59718411Y-98576256D01*
X59653993Y-98595797D01*
X59580860Y-98603000D01*
X52179140Y-98603000D01*
X52106007Y-98595797D01*
X52041589Y-98576256D01*
X51982219Y-98544522D01*
X51930183Y-98501817D01*
X51887478Y-98449781D01*
X51855744Y-98390411D01*
X51836203Y-98325993D01*
X51829000Y-98252860D01*
X51829000Y-97327140D01*
X51836203Y-97254007D01*
X51855744Y-97189589D01*
X51887478Y-97130219D01*
X51930183Y-97078183D01*
X51982219Y-97035478D01*
X52041589Y-97003744D01*
X52106007Y-96984203D01*
X52179140Y-96977000D01*
X59580860Y-96977000D01*
X59653993Y-96984203D01*
X59653993Y-96984203D01*
G37*
G36*
X68935629Y-97022719D02*
G01*
X69011142Y-97030156D01*
X69156476Y-97074243D01*
X69156479Y-97074244D01*
X69290416Y-97145835D01*
X69407817Y-97242183D01*
X69504165Y-97359584D01*
X69575756Y-97493521D01*
X69575757Y-97493524D01*
X69619844Y-97638858D01*
X69634730Y-97790000D01*
X69619844Y-97941142D01*
X69575757Y-98086476D01*
X69575756Y-98086479D01*
X69504165Y-98220416D01*
X69407817Y-98337817D01*
X69290416Y-98434165D01*
X69156479Y-98505756D01*
X69156476Y-98505757D01*
X69011142Y-98549844D01*
X68935629Y-98557281D01*
X68897873Y-98561000D01*
X68262127Y-98561000D01*
X68224371Y-98557281D01*
X68148858Y-98549844D01*
X68003524Y-98505757D01*
X68003521Y-98505756D01*
X67869584Y-98434165D01*
X67752183Y-98337817D01*
X67655835Y-98220416D01*
X67584244Y-98086479D01*
X67584243Y-98086476D01*
X67540156Y-97941142D01*
X67525270Y-97790000D01*
X67540156Y-97638858D01*
X67584243Y-97493524D01*
X67584244Y-97493521D01*
X67655835Y-97359584D01*
X67752183Y-97242183D01*
X67869584Y-97145835D01*
X68003521Y-97074244D01*
X68003524Y-97074243D01*
X68148858Y-97030156D01*
X68224371Y-97022719D01*
X68262127Y-97019000D01*
X68897873Y-97019000D01*
X68935629Y-97022719D01*
X68935629Y-97022719D01*
G37*
G36*
X84175629Y-97022719D02*
G01*
X84251142Y-97030156D01*
X84396476Y-97074243D01*
X84396479Y-97074244D01*
X84530416Y-97145835D01*
X84647817Y-97242183D01*
X84744165Y-97359584D01*
X84815756Y-97493521D01*
X84815757Y-97493524D01*
X84859844Y-97638858D01*
X84874730Y-97790000D01*
X84859844Y-97941142D01*
X84815757Y-98086476D01*
X84815756Y-98086479D01*
X84744165Y-98220416D01*
X84647817Y-98337817D01*
X84530416Y-98434165D01*
X84396479Y-98505756D01*
X84396476Y-98505757D01*
X84251142Y-98549844D01*
X84175629Y-98557281D01*
X84137873Y-98561000D01*
X83502127Y-98561000D01*
X83464371Y-98557281D01*
X83388858Y-98549844D01*
X83243524Y-98505757D01*
X83243521Y-98505756D01*
X83109584Y-98434165D01*
X82992183Y-98337817D01*
X82895835Y-98220416D01*
X82824244Y-98086479D01*
X82824243Y-98086476D01*
X82780156Y-97941142D01*
X82765270Y-97790000D01*
X82780156Y-97638858D01*
X82824243Y-97493524D01*
X82824244Y-97493521D01*
X82895835Y-97359584D01*
X82992183Y-97242183D01*
X83109584Y-97145835D01*
X83243521Y-97074244D01*
X83243524Y-97074243D01*
X83388858Y-97030156D01*
X83464371Y-97022719D01*
X83502127Y-97019000D01*
X84137873Y-97019000D01*
X84175629Y-97022719D01*
X84175629Y-97022719D01*
G37*
G36*
X120816823Y-94411313D02*
G01*
X120977242Y-94459976D01*
X121062426Y-94505508D01*
X121125078Y-94538996D01*
X121254659Y-94645341D01*
X121361004Y-94774922D01*
X121361005Y-94774924D01*
X121440024Y-94922758D01*
X121488687Y-95083177D01*
X121505117Y-95250000D01*
X121488687Y-95416823D01*
X121440024Y-95577242D01*
X121384876Y-95680416D01*
X121361004Y-95725078D01*
X121254659Y-95854659D01*
X121125078Y-95961004D01*
X121125076Y-95961005D01*
X120977242Y-96040024D01*
X120816823Y-96088687D01*
X120691804Y-96101000D01*
X120608196Y-96101000D01*
X120483177Y-96088687D01*
X120322758Y-96040024D01*
X120174924Y-95961005D01*
X120174922Y-95961004D01*
X120045341Y-95854659D01*
X119938996Y-95725078D01*
X119915124Y-95680416D01*
X119859976Y-95577242D01*
X119811313Y-95416823D01*
X119794883Y-95250000D01*
X119811313Y-95083177D01*
X119859976Y-94922758D01*
X119938995Y-94774924D01*
X119938996Y-94774922D01*
X120045341Y-94645341D01*
X120174922Y-94538996D01*
X120237574Y-94505508D01*
X120322758Y-94459976D01*
X120483177Y-94411313D01*
X120608196Y-94399000D01*
X120691804Y-94399000D01*
X120816823Y-94411313D01*
X120816823Y-94411313D01*
G37*
G36*
X117006823Y-94411313D02*
G01*
X117167242Y-94459976D01*
X117252426Y-94505508D01*
X117315078Y-94538996D01*
X117444659Y-94645341D01*
X117551004Y-94774922D01*
X117551005Y-94774924D01*
X117630024Y-94922758D01*
X117678687Y-95083177D01*
X117695117Y-95250000D01*
X117678687Y-95416823D01*
X117630024Y-95577242D01*
X117574876Y-95680416D01*
X117551004Y-95725078D01*
X117444659Y-95854659D01*
X117315078Y-95961004D01*
X117315076Y-95961005D01*
X117167242Y-96040024D01*
X117006823Y-96088687D01*
X116881804Y-96101000D01*
X116798196Y-96101000D01*
X116673177Y-96088687D01*
X116512758Y-96040024D01*
X116364924Y-95961005D01*
X116364922Y-95961004D01*
X116235341Y-95854659D01*
X116128996Y-95725078D01*
X116105124Y-95680416D01*
X116049976Y-95577242D01*
X116001313Y-95416823D01*
X115984883Y-95250000D01*
X116001313Y-95083177D01*
X116049976Y-94922758D01*
X116128995Y-94774924D01*
X116128996Y-94774922D01*
X116235341Y-94645341D01*
X116364922Y-94538996D01*
X116427574Y-94505508D01*
X116512758Y-94459976D01*
X116673177Y-94411313D01*
X116798196Y-94399000D01*
X116881804Y-94399000D01*
X117006823Y-94411313D01*
X117006823Y-94411313D01*
G37*
G36*
X109386823Y-94411313D02*
G01*
X109547242Y-94459976D01*
X109632426Y-94505508D01*
X109695078Y-94538996D01*
X109824659Y-94645341D01*
X109931004Y-94774922D01*
X109931005Y-94774924D01*
X110010024Y-94922758D01*
X110058687Y-95083177D01*
X110075117Y-95250000D01*
X110058687Y-95416823D01*
X110010024Y-95577242D01*
X109954876Y-95680416D01*
X109931004Y-95725078D01*
X109824659Y-95854659D01*
X109695078Y-95961004D01*
X109695076Y-95961005D01*
X109547242Y-96040024D01*
X109386823Y-96088687D01*
X109261804Y-96101000D01*
X109178196Y-96101000D01*
X109053177Y-96088687D01*
X108892758Y-96040024D01*
X108744924Y-95961005D01*
X108744922Y-95961004D01*
X108615341Y-95854659D01*
X108508996Y-95725078D01*
X108485124Y-95680416D01*
X108429976Y-95577242D01*
X108381313Y-95416823D01*
X108364883Y-95250000D01*
X108381313Y-95083177D01*
X108429976Y-94922758D01*
X108508995Y-94774924D01*
X108508996Y-94774922D01*
X108615341Y-94645341D01*
X108744922Y-94538996D01*
X108807574Y-94505508D01*
X108892758Y-94459976D01*
X109053177Y-94411313D01*
X109178196Y-94399000D01*
X109261804Y-94399000D01*
X109386823Y-94411313D01*
X109386823Y-94411313D01*
G37*
G36*
X128436823Y-94411313D02*
G01*
X128597242Y-94459976D01*
X128682426Y-94505508D01*
X128745078Y-94538996D01*
X128874659Y-94645341D01*
X128981004Y-94774922D01*
X128981005Y-94774924D01*
X129060024Y-94922758D01*
X129108687Y-95083177D01*
X129125117Y-95250000D01*
X129108687Y-95416823D01*
X129060024Y-95577242D01*
X129004876Y-95680416D01*
X128981004Y-95725078D01*
X128874659Y-95854659D01*
X128745078Y-95961004D01*
X128745076Y-95961005D01*
X128597242Y-96040024D01*
X128436823Y-96088687D01*
X128311804Y-96101000D01*
X128228196Y-96101000D01*
X128103177Y-96088687D01*
X127942758Y-96040024D01*
X127794924Y-95961005D01*
X127794922Y-95961004D01*
X127665341Y-95854659D01*
X127558996Y-95725078D01*
X127535124Y-95680416D01*
X127479976Y-95577242D01*
X127431313Y-95416823D01*
X127414883Y-95250000D01*
X127431313Y-95083177D01*
X127479976Y-94922758D01*
X127558995Y-94774924D01*
X127558996Y-94774922D01*
X127665341Y-94645341D01*
X127794922Y-94538996D01*
X127857574Y-94505508D01*
X127942758Y-94459976D01*
X128103177Y-94411313D01*
X128228196Y-94399000D01*
X128311804Y-94399000D01*
X128436823Y-94411313D01*
X128436823Y-94411313D01*
G37*
G36*
X90336823Y-94411313D02*
G01*
X90497242Y-94459976D01*
X90582426Y-94505508D01*
X90645078Y-94538996D01*
X90774659Y-94645341D01*
X90881004Y-94774922D01*
X90881005Y-94774924D01*
X90960024Y-94922758D01*
X91008687Y-95083177D01*
X91025117Y-95250000D01*
X91008687Y-95416823D01*
X90960024Y-95577242D01*
X90904876Y-95680416D01*
X90881004Y-95725078D01*
X90774659Y-95854659D01*
X90645078Y-95961004D01*
X90645076Y-95961005D01*
X90497242Y-96040024D01*
X90336823Y-96088687D01*
X90211804Y-96101000D01*
X90128196Y-96101000D01*
X90003177Y-96088687D01*
X89842758Y-96040024D01*
X89694924Y-95961005D01*
X89694922Y-95961004D01*
X89565341Y-95854659D01*
X89458996Y-95725078D01*
X89435124Y-95680416D01*
X89379976Y-95577242D01*
X89331313Y-95416823D01*
X89314883Y-95250000D01*
X89331313Y-95083177D01*
X89379976Y-94922758D01*
X89458995Y-94774924D01*
X89458996Y-94774922D01*
X89565341Y-94645341D01*
X89694922Y-94538996D01*
X89757574Y-94505508D01*
X89842758Y-94459976D01*
X90003177Y-94411313D01*
X90128196Y-94399000D01*
X90211804Y-94399000D01*
X90336823Y-94411313D01*
X90336823Y-94411313D01*
G37*
G36*
X105576823Y-94411313D02*
G01*
X105737242Y-94459976D01*
X105822426Y-94505508D01*
X105885078Y-94538996D01*
X106014659Y-94645341D01*
X106121004Y-94774922D01*
X106121005Y-94774924D01*
X106200024Y-94922758D01*
X106248687Y-95083177D01*
X106265117Y-95250000D01*
X106248687Y-95416823D01*
X106200024Y-95577242D01*
X106144876Y-95680416D01*
X106121004Y-95725078D01*
X106014659Y-95854659D01*
X105885078Y-95961004D01*
X105885076Y-95961005D01*
X105737242Y-96040024D01*
X105576823Y-96088687D01*
X105451804Y-96101000D01*
X105368196Y-96101000D01*
X105243177Y-96088687D01*
X105082758Y-96040024D01*
X104934924Y-95961005D01*
X104934922Y-95961004D01*
X104805341Y-95854659D01*
X104698996Y-95725078D01*
X104675124Y-95680416D01*
X104619976Y-95577242D01*
X104571313Y-95416823D01*
X104554883Y-95250000D01*
X104571313Y-95083177D01*
X104619976Y-94922758D01*
X104698995Y-94774924D01*
X104698996Y-94774922D01*
X104805341Y-94645341D01*
X104934922Y-94538996D01*
X104997574Y-94505508D01*
X105082758Y-94459976D01*
X105243177Y-94411313D01*
X105368196Y-94399000D01*
X105451804Y-94399000D01*
X105576823Y-94411313D01*
X105576823Y-94411313D01*
G37*
G36*
X59653993Y-94444203D02*
G01*
X59718411Y-94463744D01*
X59777781Y-94495478D01*
X59829817Y-94538183D01*
X59872522Y-94590219D01*
X59904256Y-94649589D01*
X59923797Y-94714007D01*
X59931000Y-94787140D01*
X59931000Y-95712860D01*
X59923797Y-95785993D01*
X59904256Y-95850411D01*
X59872522Y-95909781D01*
X59829817Y-95961817D01*
X59777781Y-96004522D01*
X59718411Y-96036256D01*
X59653993Y-96055797D01*
X59580860Y-96063000D01*
X52179140Y-96063000D01*
X52106007Y-96055797D01*
X52041589Y-96036256D01*
X51982219Y-96004522D01*
X51930183Y-95961817D01*
X51887478Y-95909781D01*
X51855744Y-95850411D01*
X51836203Y-95785993D01*
X51829000Y-95712860D01*
X51829000Y-94787140D01*
X51836203Y-94714007D01*
X51855744Y-94649589D01*
X51887478Y-94590219D01*
X51930183Y-94538183D01*
X51982219Y-94495478D01*
X52041589Y-94463744D01*
X52106007Y-94444203D01*
X52179140Y-94437000D01*
X59580860Y-94437000D01*
X59653993Y-94444203D01*
X59653993Y-94444203D01*
G37*
G36*
X84175629Y-94482719D02*
G01*
X84251142Y-94490156D01*
X84396476Y-94534243D01*
X84396479Y-94534244D01*
X84530416Y-94605835D01*
X84647817Y-94702183D01*
X84744165Y-94819584D01*
X84815756Y-94953521D01*
X84815757Y-94953524D01*
X84859844Y-95098858D01*
X84874730Y-95250000D01*
X84859844Y-95401142D01*
X84815757Y-95546476D01*
X84815756Y-95546479D01*
X84744165Y-95680416D01*
X84647817Y-95797817D01*
X84530416Y-95894165D01*
X84396479Y-95965756D01*
X84396476Y-95965757D01*
X84251142Y-96009844D01*
X84175629Y-96017281D01*
X84137873Y-96021000D01*
X83502127Y-96021000D01*
X83464371Y-96017281D01*
X83388858Y-96009844D01*
X83243524Y-95965757D01*
X83243521Y-95965756D01*
X83109584Y-95894165D01*
X82992183Y-95797817D01*
X82895835Y-95680416D01*
X82824244Y-95546479D01*
X82824243Y-95546476D01*
X82780156Y-95401142D01*
X82765270Y-95250000D01*
X82780156Y-95098858D01*
X82824243Y-94953524D01*
X82824244Y-94953521D01*
X82895835Y-94819584D01*
X82992183Y-94702183D01*
X83109584Y-94605835D01*
X83243521Y-94534244D01*
X83243524Y-94534243D01*
X83388858Y-94490156D01*
X83464371Y-94482719D01*
X83502127Y-94479000D01*
X84137873Y-94479000D01*
X84175629Y-94482719D01*
X84175629Y-94482719D01*
G37*
G36*
X68935629Y-94482719D02*
G01*
X69011142Y-94490156D01*
X69156476Y-94534243D01*
X69156479Y-94534244D01*
X69290416Y-94605835D01*
X69407817Y-94702183D01*
X69504165Y-94819584D01*
X69575756Y-94953521D01*
X69575757Y-94953524D01*
X69619844Y-95098858D01*
X69634730Y-95250000D01*
X69619844Y-95401142D01*
X69575757Y-95546476D01*
X69575756Y-95546479D01*
X69504165Y-95680416D01*
X69407817Y-95797817D01*
X69290416Y-95894165D01*
X69156479Y-95965756D01*
X69156476Y-95965757D01*
X69011142Y-96009844D01*
X68935629Y-96017281D01*
X68897873Y-96021000D01*
X68262127Y-96021000D01*
X68224371Y-96017281D01*
X68148858Y-96009844D01*
X68003524Y-95965757D01*
X68003521Y-95965756D01*
X67869584Y-95894165D01*
X67752183Y-95797817D01*
X67655835Y-95680416D01*
X67584244Y-95546479D01*
X67584243Y-95546476D01*
X67540156Y-95401142D01*
X67525270Y-95250000D01*
X67540156Y-95098858D01*
X67584243Y-94953524D01*
X67584244Y-94953521D01*
X67655835Y-94819584D01*
X67752183Y-94702183D01*
X67869584Y-94605835D01*
X68003521Y-94534244D01*
X68003524Y-94534243D01*
X68148858Y-94490156D01*
X68224371Y-94482719D01*
X68262127Y-94479000D01*
X68897873Y-94479000D01*
X68935629Y-94482719D01*
X68935629Y-94482719D01*
G37*
G36*
X105576823Y-91871313D02*
G01*
X105737242Y-91919976D01*
X105822426Y-91965508D01*
X105885078Y-91998996D01*
X106014659Y-92105341D01*
X106121004Y-92234922D01*
X106121005Y-92234924D01*
X106200024Y-92382758D01*
X106248687Y-92543177D01*
X106265117Y-92710000D01*
X106248687Y-92876823D01*
X106200024Y-93037242D01*
X106144876Y-93140416D01*
X106121004Y-93185078D01*
X106014659Y-93314659D01*
X105885078Y-93421004D01*
X105885076Y-93421005D01*
X105737242Y-93500024D01*
X105576823Y-93548687D01*
X105451804Y-93561000D01*
X105368196Y-93561000D01*
X105243177Y-93548687D01*
X105082758Y-93500024D01*
X104934924Y-93421005D01*
X104934922Y-93421004D01*
X104805341Y-93314659D01*
X104698996Y-93185078D01*
X104675124Y-93140416D01*
X104619976Y-93037242D01*
X104571313Y-92876823D01*
X104554883Y-92710000D01*
X104571313Y-92543177D01*
X104619976Y-92382758D01*
X104698995Y-92234924D01*
X104698996Y-92234922D01*
X104805341Y-92105341D01*
X104934922Y-91998996D01*
X104997574Y-91965508D01*
X105082758Y-91919976D01*
X105243177Y-91871313D01*
X105368196Y-91859000D01*
X105451804Y-91859000D01*
X105576823Y-91871313D01*
X105576823Y-91871313D01*
G37*
G36*
X109386823Y-91871313D02*
G01*
X109547242Y-91919976D01*
X109632426Y-91965508D01*
X109695078Y-91998996D01*
X109824659Y-92105341D01*
X109931004Y-92234922D01*
X109931005Y-92234924D01*
X110010024Y-92382758D01*
X110058687Y-92543177D01*
X110075117Y-92710000D01*
X110058687Y-92876823D01*
X110010024Y-93037242D01*
X109954876Y-93140416D01*
X109931004Y-93185078D01*
X109824659Y-93314659D01*
X109695078Y-93421004D01*
X109695076Y-93421005D01*
X109547242Y-93500024D01*
X109386823Y-93548687D01*
X109261804Y-93561000D01*
X109178196Y-93561000D01*
X109053177Y-93548687D01*
X108892758Y-93500024D01*
X108744924Y-93421005D01*
X108744922Y-93421004D01*
X108615341Y-93314659D01*
X108508996Y-93185078D01*
X108485124Y-93140416D01*
X108429976Y-93037242D01*
X108381313Y-92876823D01*
X108364883Y-92710000D01*
X108381313Y-92543177D01*
X108429976Y-92382758D01*
X108508995Y-92234924D01*
X108508996Y-92234922D01*
X108615341Y-92105341D01*
X108744922Y-91998996D01*
X108807574Y-91965508D01*
X108892758Y-91919976D01*
X109053177Y-91871313D01*
X109178196Y-91859000D01*
X109261804Y-91859000D01*
X109386823Y-91871313D01*
X109386823Y-91871313D01*
G37*
G36*
X128436823Y-91871313D02*
G01*
X128597242Y-91919976D01*
X128682426Y-91965508D01*
X128745078Y-91998996D01*
X128874659Y-92105341D01*
X128981004Y-92234922D01*
X128981005Y-92234924D01*
X129060024Y-92382758D01*
X129108687Y-92543177D01*
X129125117Y-92710000D01*
X129108687Y-92876823D01*
X129060024Y-93037242D01*
X129004876Y-93140416D01*
X128981004Y-93185078D01*
X128874659Y-93314659D01*
X128745078Y-93421004D01*
X128745076Y-93421005D01*
X128597242Y-93500024D01*
X128436823Y-93548687D01*
X128311804Y-93561000D01*
X128228196Y-93561000D01*
X128103177Y-93548687D01*
X127942758Y-93500024D01*
X127794924Y-93421005D01*
X127794922Y-93421004D01*
X127665341Y-93314659D01*
X127558996Y-93185078D01*
X127535124Y-93140416D01*
X127479976Y-93037242D01*
X127431313Y-92876823D01*
X127414883Y-92710000D01*
X127431313Y-92543177D01*
X127479976Y-92382758D01*
X127558995Y-92234924D01*
X127558996Y-92234922D01*
X127665341Y-92105341D01*
X127794922Y-91998996D01*
X127857574Y-91965508D01*
X127942758Y-91919976D01*
X128103177Y-91871313D01*
X128228196Y-91859000D01*
X128311804Y-91859000D01*
X128436823Y-91871313D01*
X128436823Y-91871313D01*
G37*
G36*
X90336823Y-91871313D02*
G01*
X90497242Y-91919976D01*
X90582426Y-91965508D01*
X90645078Y-91998996D01*
X90774659Y-92105341D01*
X90881004Y-92234922D01*
X90881005Y-92234924D01*
X90960024Y-92382758D01*
X91008687Y-92543177D01*
X91025117Y-92710000D01*
X91008687Y-92876823D01*
X90960024Y-93037242D01*
X90904876Y-93140416D01*
X90881004Y-93185078D01*
X90774659Y-93314659D01*
X90645078Y-93421004D01*
X90645076Y-93421005D01*
X90497242Y-93500024D01*
X90336823Y-93548687D01*
X90211804Y-93561000D01*
X90128196Y-93561000D01*
X90003177Y-93548687D01*
X89842758Y-93500024D01*
X89694924Y-93421005D01*
X89694922Y-93421004D01*
X89565341Y-93314659D01*
X89458996Y-93185078D01*
X89435124Y-93140416D01*
X89379976Y-93037242D01*
X89331313Y-92876823D01*
X89314883Y-92710000D01*
X89331313Y-92543177D01*
X89379976Y-92382758D01*
X89458995Y-92234924D01*
X89458996Y-92234922D01*
X89565341Y-92105341D01*
X89694922Y-91998996D01*
X89757574Y-91965508D01*
X89842758Y-91919976D01*
X90003177Y-91871313D01*
X90128196Y-91859000D01*
X90211804Y-91859000D01*
X90336823Y-91871313D01*
X90336823Y-91871313D01*
G37*
G36*
X120816823Y-91871313D02*
G01*
X120977242Y-91919976D01*
X121062426Y-91965508D01*
X121125078Y-91998996D01*
X121254659Y-92105341D01*
X121361004Y-92234922D01*
X121361005Y-92234924D01*
X121440024Y-92382758D01*
X121488687Y-92543177D01*
X121505117Y-92710000D01*
X121488687Y-92876823D01*
X121440024Y-93037242D01*
X121384876Y-93140416D01*
X121361004Y-93185078D01*
X121254659Y-93314659D01*
X121125078Y-93421004D01*
X121125076Y-93421005D01*
X120977242Y-93500024D01*
X120816823Y-93548687D01*
X120691804Y-93561000D01*
X120608196Y-93561000D01*
X120483177Y-93548687D01*
X120322758Y-93500024D01*
X120174924Y-93421005D01*
X120174922Y-93421004D01*
X120045341Y-93314659D01*
X119938996Y-93185078D01*
X119915124Y-93140416D01*
X119859976Y-93037242D01*
X119811313Y-92876823D01*
X119794883Y-92710000D01*
X119811313Y-92543177D01*
X119859976Y-92382758D01*
X119938995Y-92234924D01*
X119938996Y-92234922D01*
X120045341Y-92105341D01*
X120174922Y-91998996D01*
X120237574Y-91965508D01*
X120322758Y-91919976D01*
X120483177Y-91871313D01*
X120608196Y-91859000D01*
X120691804Y-91859000D01*
X120816823Y-91871313D01*
X120816823Y-91871313D01*
G37*
G36*
X117006823Y-91871313D02*
G01*
X117167242Y-91919976D01*
X117252426Y-91965508D01*
X117315078Y-91998996D01*
X117444659Y-92105341D01*
X117551004Y-92234922D01*
X117551005Y-92234924D01*
X117630024Y-92382758D01*
X117678687Y-92543177D01*
X117695117Y-92710000D01*
X117678687Y-92876823D01*
X117630024Y-93037242D01*
X117574876Y-93140416D01*
X117551004Y-93185078D01*
X117444659Y-93314659D01*
X117315078Y-93421004D01*
X117315076Y-93421005D01*
X117167242Y-93500024D01*
X117006823Y-93548687D01*
X116881804Y-93561000D01*
X116798196Y-93561000D01*
X116673177Y-93548687D01*
X116512758Y-93500024D01*
X116364924Y-93421005D01*
X116364922Y-93421004D01*
X116235341Y-93314659D01*
X116128996Y-93185078D01*
X116105124Y-93140416D01*
X116049976Y-93037242D01*
X116001313Y-92876823D01*
X115984883Y-92710000D01*
X116001313Y-92543177D01*
X116049976Y-92382758D01*
X116128995Y-92234924D01*
X116128996Y-92234922D01*
X116235341Y-92105341D01*
X116364922Y-91998996D01*
X116427574Y-91965508D01*
X116512758Y-91919976D01*
X116673177Y-91871313D01*
X116798196Y-91859000D01*
X116881804Y-91859000D01*
X117006823Y-91871313D01*
X117006823Y-91871313D01*
G37*
G36*
X59653993Y-91904203D02*
G01*
X59718411Y-91923744D01*
X59777781Y-91955478D01*
X59829817Y-91998183D01*
X59872522Y-92050219D01*
X59904256Y-92109589D01*
X59923797Y-92174007D01*
X59931000Y-92247140D01*
X59931000Y-93172860D01*
X59923797Y-93245993D01*
X59904256Y-93310411D01*
X59872522Y-93369781D01*
X59829817Y-93421817D01*
X59777781Y-93464522D01*
X59718411Y-93496256D01*
X59653993Y-93515797D01*
X59580860Y-93523000D01*
X52179140Y-93523000D01*
X52106007Y-93515797D01*
X52041589Y-93496256D01*
X51982219Y-93464522D01*
X51930183Y-93421817D01*
X51887478Y-93369781D01*
X51855744Y-93310411D01*
X51836203Y-93245993D01*
X51829000Y-93172860D01*
X51829000Y-92247140D01*
X51836203Y-92174007D01*
X51855744Y-92109589D01*
X51887478Y-92050219D01*
X51930183Y-91998183D01*
X51982219Y-91955478D01*
X52041589Y-91923744D01*
X52106007Y-91904203D01*
X52179140Y-91897000D01*
X59580860Y-91897000D01*
X59653993Y-91904203D01*
X59653993Y-91904203D01*
G37*
G36*
X68935629Y-91942719D02*
G01*
X69011142Y-91950156D01*
X69156476Y-91994243D01*
X69156479Y-91994244D01*
X69290416Y-92065835D01*
X69407817Y-92162183D01*
X69504165Y-92279584D01*
X69575756Y-92413521D01*
X69575757Y-92413524D01*
X69619844Y-92558858D01*
X69634730Y-92710000D01*
X69619844Y-92861142D01*
X69575757Y-93006476D01*
X69575756Y-93006479D01*
X69504165Y-93140416D01*
X69407817Y-93257817D01*
X69290416Y-93354165D01*
X69156479Y-93425756D01*
X69156476Y-93425757D01*
X69011142Y-93469844D01*
X68935629Y-93477281D01*
X68897873Y-93481000D01*
X68262127Y-93481000D01*
X68224371Y-93477281D01*
X68148858Y-93469844D01*
X68003524Y-93425757D01*
X68003521Y-93425756D01*
X67869584Y-93354165D01*
X67752183Y-93257817D01*
X67655835Y-93140416D01*
X67584244Y-93006479D01*
X67584243Y-93006476D01*
X67540156Y-92861142D01*
X67525270Y-92710000D01*
X67540156Y-92558858D01*
X67584243Y-92413524D01*
X67584244Y-92413521D01*
X67655835Y-92279584D01*
X67752183Y-92162183D01*
X67869584Y-92065835D01*
X68003521Y-91994244D01*
X68003524Y-91994243D01*
X68148858Y-91950156D01*
X68224371Y-91942719D01*
X68262127Y-91939000D01*
X68897873Y-91939000D01*
X68935629Y-91942719D01*
X68935629Y-91942719D01*
G37*
G36*
X84175629Y-91942719D02*
G01*
X84251142Y-91950156D01*
X84396476Y-91994243D01*
X84396479Y-91994244D01*
X84530416Y-92065835D01*
X84647817Y-92162183D01*
X84744165Y-92279584D01*
X84815756Y-92413521D01*
X84815757Y-92413524D01*
X84859844Y-92558858D01*
X84874730Y-92710000D01*
X84859844Y-92861142D01*
X84815757Y-93006476D01*
X84815756Y-93006479D01*
X84744165Y-93140416D01*
X84647817Y-93257817D01*
X84530416Y-93354165D01*
X84396479Y-93425756D01*
X84396476Y-93425757D01*
X84251142Y-93469844D01*
X84175629Y-93477281D01*
X84137873Y-93481000D01*
X83502127Y-93481000D01*
X83464371Y-93477281D01*
X83388858Y-93469844D01*
X83243524Y-93425757D01*
X83243521Y-93425756D01*
X83109584Y-93354165D01*
X82992183Y-93257817D01*
X82895835Y-93140416D01*
X82824244Y-93006479D01*
X82824243Y-93006476D01*
X82780156Y-92861142D01*
X82765270Y-92710000D01*
X82780156Y-92558858D01*
X82824243Y-92413524D01*
X82824244Y-92413521D01*
X82895835Y-92279584D01*
X82992183Y-92162183D01*
X83109584Y-92065835D01*
X83243521Y-91994244D01*
X83243524Y-91994243D01*
X83388858Y-91950156D01*
X83464371Y-91942719D01*
X83502127Y-91939000D01*
X84137873Y-91939000D01*
X84175629Y-91942719D01*
X84175629Y-91942719D01*
G37*
G36*
X128436823Y-89331313D02*
G01*
X128597242Y-89379976D01*
X128682426Y-89425508D01*
X128745078Y-89458996D01*
X128874659Y-89565341D01*
X128981004Y-89694922D01*
X128981005Y-89694924D01*
X129060024Y-89842758D01*
X129108687Y-90003177D01*
X129125117Y-90170000D01*
X129108687Y-90336823D01*
X129060024Y-90497242D01*
X129004876Y-90600416D01*
X128981004Y-90645078D01*
X128874659Y-90774659D01*
X128745078Y-90881004D01*
X128745076Y-90881005D01*
X128597242Y-90960024D01*
X128436823Y-91008687D01*
X128311804Y-91021000D01*
X128228196Y-91021000D01*
X128103177Y-91008687D01*
X127942758Y-90960024D01*
X127794924Y-90881005D01*
X127794922Y-90881004D01*
X127665341Y-90774659D01*
X127558996Y-90645078D01*
X127535124Y-90600416D01*
X127479976Y-90497242D01*
X127431313Y-90336823D01*
X127414883Y-90170000D01*
X127431313Y-90003177D01*
X127479976Y-89842758D01*
X127558995Y-89694924D01*
X127558996Y-89694922D01*
X127665341Y-89565341D01*
X127794922Y-89458996D01*
X127857574Y-89425508D01*
X127942758Y-89379976D01*
X128103177Y-89331313D01*
X128228196Y-89319000D01*
X128311804Y-89319000D01*
X128436823Y-89331313D01*
X128436823Y-89331313D01*
G37*
G36*
X120816823Y-89331313D02*
G01*
X120977242Y-89379976D01*
X121062426Y-89425508D01*
X121125078Y-89458996D01*
X121254659Y-89565341D01*
X121361004Y-89694922D01*
X121361005Y-89694924D01*
X121440024Y-89842758D01*
X121488687Y-90003177D01*
X121505117Y-90170000D01*
X121488687Y-90336823D01*
X121440024Y-90497242D01*
X121384876Y-90600416D01*
X121361004Y-90645078D01*
X121254659Y-90774659D01*
X121125078Y-90881004D01*
X121125076Y-90881005D01*
X120977242Y-90960024D01*
X120816823Y-91008687D01*
X120691804Y-91021000D01*
X120608196Y-91021000D01*
X120483177Y-91008687D01*
X120322758Y-90960024D01*
X120174924Y-90881005D01*
X120174922Y-90881004D01*
X120045341Y-90774659D01*
X119938996Y-90645078D01*
X119915124Y-90600416D01*
X119859976Y-90497242D01*
X119811313Y-90336823D01*
X119794883Y-90170000D01*
X119811313Y-90003177D01*
X119859976Y-89842758D01*
X119938995Y-89694924D01*
X119938996Y-89694922D01*
X120045341Y-89565341D01*
X120174922Y-89458996D01*
X120237574Y-89425508D01*
X120322758Y-89379976D01*
X120483177Y-89331313D01*
X120608196Y-89319000D01*
X120691804Y-89319000D01*
X120816823Y-89331313D01*
X120816823Y-89331313D01*
G37*
G36*
X90336823Y-89331313D02*
G01*
X90497242Y-89379976D01*
X90582426Y-89425508D01*
X90645078Y-89458996D01*
X90774659Y-89565341D01*
X90881004Y-89694922D01*
X90881005Y-89694924D01*
X90960024Y-89842758D01*
X91008687Y-90003177D01*
X91025117Y-90170000D01*
X91008687Y-90336823D01*
X90960024Y-90497242D01*
X90904876Y-90600416D01*
X90881004Y-90645078D01*
X90774659Y-90774659D01*
X90645078Y-90881004D01*
X90645076Y-90881005D01*
X90497242Y-90960024D01*
X90336823Y-91008687D01*
X90211804Y-91021000D01*
X90128196Y-91021000D01*
X90003177Y-91008687D01*
X89842758Y-90960024D01*
X89694924Y-90881005D01*
X89694922Y-90881004D01*
X89565341Y-90774659D01*
X89458996Y-90645078D01*
X89435124Y-90600416D01*
X89379976Y-90497242D01*
X89331313Y-90336823D01*
X89314883Y-90170000D01*
X89331313Y-90003177D01*
X89379976Y-89842758D01*
X89458995Y-89694924D01*
X89458996Y-89694922D01*
X89565341Y-89565341D01*
X89694922Y-89458996D01*
X89757574Y-89425508D01*
X89842758Y-89379976D01*
X90003177Y-89331313D01*
X90128196Y-89319000D01*
X90211804Y-89319000D01*
X90336823Y-89331313D01*
X90336823Y-89331313D01*
G37*
G36*
X117006823Y-89331313D02*
G01*
X117167242Y-89379976D01*
X117252426Y-89425508D01*
X117315078Y-89458996D01*
X117444659Y-89565341D01*
X117551004Y-89694922D01*
X117551005Y-89694924D01*
X117630024Y-89842758D01*
X117678687Y-90003177D01*
X117695117Y-90170000D01*
X117678687Y-90336823D01*
X117630024Y-90497242D01*
X117574876Y-90600416D01*
X117551004Y-90645078D01*
X117444659Y-90774659D01*
X117315078Y-90881004D01*
X117315076Y-90881005D01*
X117167242Y-90960024D01*
X117006823Y-91008687D01*
X116881804Y-91021000D01*
X116798196Y-91021000D01*
X116673177Y-91008687D01*
X116512758Y-90960024D01*
X116364924Y-90881005D01*
X116364922Y-90881004D01*
X116235341Y-90774659D01*
X116128996Y-90645078D01*
X116105124Y-90600416D01*
X116049976Y-90497242D01*
X116001313Y-90336823D01*
X115984883Y-90170000D01*
X116001313Y-90003177D01*
X116049976Y-89842758D01*
X116128995Y-89694924D01*
X116128996Y-89694922D01*
X116235341Y-89565341D01*
X116364922Y-89458996D01*
X116427574Y-89425508D01*
X116512758Y-89379976D01*
X116673177Y-89331313D01*
X116798196Y-89319000D01*
X116881804Y-89319000D01*
X117006823Y-89331313D01*
X117006823Y-89331313D01*
G37*
G36*
X109386823Y-89331313D02*
G01*
X109547242Y-89379976D01*
X109632426Y-89425508D01*
X109695078Y-89458996D01*
X109824659Y-89565341D01*
X109931004Y-89694922D01*
X109931005Y-89694924D01*
X110010024Y-89842758D01*
X110058687Y-90003177D01*
X110075117Y-90170000D01*
X110058687Y-90336823D01*
X110010024Y-90497242D01*
X109954876Y-90600416D01*
X109931004Y-90645078D01*
X109824659Y-90774659D01*
X109695078Y-90881004D01*
X109695076Y-90881005D01*
X109547242Y-90960024D01*
X109386823Y-91008687D01*
X109261804Y-91021000D01*
X109178196Y-91021000D01*
X109053177Y-91008687D01*
X108892758Y-90960024D01*
X108744924Y-90881005D01*
X108744922Y-90881004D01*
X108615341Y-90774659D01*
X108508996Y-90645078D01*
X108485124Y-90600416D01*
X108429976Y-90497242D01*
X108381313Y-90336823D01*
X108364883Y-90170000D01*
X108381313Y-90003177D01*
X108429976Y-89842758D01*
X108508995Y-89694924D01*
X108508996Y-89694922D01*
X108615341Y-89565341D01*
X108744922Y-89458996D01*
X108807574Y-89425508D01*
X108892758Y-89379976D01*
X109053177Y-89331313D01*
X109178196Y-89319000D01*
X109261804Y-89319000D01*
X109386823Y-89331313D01*
X109386823Y-89331313D01*
G37*
G36*
X105576823Y-89331313D02*
G01*
X105737242Y-89379976D01*
X105822426Y-89425508D01*
X105885078Y-89458996D01*
X106014659Y-89565341D01*
X106121004Y-89694922D01*
X106121005Y-89694924D01*
X106200024Y-89842758D01*
X106248687Y-90003177D01*
X106265117Y-90170000D01*
X106248687Y-90336823D01*
X106200024Y-90497242D01*
X106144876Y-90600416D01*
X106121004Y-90645078D01*
X106014659Y-90774659D01*
X105885078Y-90881004D01*
X105885076Y-90881005D01*
X105737242Y-90960024D01*
X105576823Y-91008687D01*
X105451804Y-91021000D01*
X105368196Y-91021000D01*
X105243177Y-91008687D01*
X105082758Y-90960024D01*
X104934924Y-90881005D01*
X104934922Y-90881004D01*
X104805341Y-90774659D01*
X104698996Y-90645078D01*
X104675124Y-90600416D01*
X104619976Y-90497242D01*
X104571313Y-90336823D01*
X104554883Y-90170000D01*
X104571313Y-90003177D01*
X104619976Y-89842758D01*
X104698995Y-89694924D01*
X104698996Y-89694922D01*
X104805341Y-89565341D01*
X104934922Y-89458996D01*
X104997574Y-89425508D01*
X105082758Y-89379976D01*
X105243177Y-89331313D01*
X105368196Y-89319000D01*
X105451804Y-89319000D01*
X105576823Y-89331313D01*
X105576823Y-89331313D01*
G37*
G36*
X59653993Y-89364203D02*
G01*
X59718411Y-89383744D01*
X59777781Y-89415478D01*
X59829817Y-89458183D01*
X59872522Y-89510219D01*
X59904256Y-89569589D01*
X59923797Y-89634007D01*
X59931000Y-89707140D01*
X59931000Y-90632860D01*
X59923797Y-90705993D01*
X59904256Y-90770411D01*
X59872522Y-90829781D01*
X59829817Y-90881817D01*
X59777781Y-90924522D01*
X59718411Y-90956256D01*
X59653993Y-90975797D01*
X59580860Y-90983000D01*
X52179140Y-90983000D01*
X52106007Y-90975797D01*
X52041589Y-90956256D01*
X51982219Y-90924522D01*
X51930183Y-90881817D01*
X51887478Y-90829781D01*
X51855744Y-90770411D01*
X51836203Y-90705993D01*
X51829000Y-90632860D01*
X51829000Y-89707140D01*
X51836203Y-89634007D01*
X51855744Y-89569589D01*
X51887478Y-89510219D01*
X51930183Y-89458183D01*
X51982219Y-89415478D01*
X52041589Y-89383744D01*
X52106007Y-89364203D01*
X52179140Y-89357000D01*
X59580860Y-89357000D01*
X59653993Y-89364203D01*
X59653993Y-89364203D01*
G37*
G36*
X84175629Y-89402719D02*
G01*
X84251142Y-89410156D01*
X84396476Y-89454243D01*
X84396479Y-89454244D01*
X84530416Y-89525835D01*
X84647817Y-89622183D01*
X84744165Y-89739584D01*
X84815756Y-89873521D01*
X84815757Y-89873524D01*
X84859844Y-90018858D01*
X84874730Y-90170000D01*
X84859844Y-90321142D01*
X84815757Y-90466476D01*
X84815756Y-90466479D01*
X84744165Y-90600416D01*
X84647817Y-90717817D01*
X84530416Y-90814165D01*
X84396479Y-90885756D01*
X84396476Y-90885757D01*
X84251142Y-90929844D01*
X84175629Y-90937281D01*
X84137873Y-90941000D01*
X83502127Y-90941000D01*
X83464371Y-90937281D01*
X83388858Y-90929844D01*
X83243524Y-90885757D01*
X83243521Y-90885756D01*
X83109584Y-90814165D01*
X82992183Y-90717817D01*
X82895835Y-90600416D01*
X82824244Y-90466479D01*
X82824243Y-90466476D01*
X82780156Y-90321142D01*
X82765270Y-90170000D01*
X82780156Y-90018858D01*
X82824243Y-89873524D01*
X82824244Y-89873521D01*
X82895835Y-89739584D01*
X82992183Y-89622183D01*
X83109584Y-89525835D01*
X83243521Y-89454244D01*
X83243524Y-89454243D01*
X83388858Y-89410156D01*
X83464371Y-89402719D01*
X83502127Y-89399000D01*
X84137873Y-89399000D01*
X84175629Y-89402719D01*
X84175629Y-89402719D01*
G37*
G36*
X68935629Y-89402719D02*
G01*
X69011142Y-89410156D01*
X69156476Y-89454243D01*
X69156479Y-89454244D01*
X69290416Y-89525835D01*
X69407817Y-89622183D01*
X69504165Y-89739584D01*
X69575756Y-89873521D01*
X69575757Y-89873524D01*
X69619844Y-90018858D01*
X69634730Y-90170000D01*
X69619844Y-90321142D01*
X69575757Y-90466476D01*
X69575756Y-90466479D01*
X69504165Y-90600416D01*
X69407817Y-90717817D01*
X69290416Y-90814165D01*
X69156479Y-90885756D01*
X69156476Y-90885757D01*
X69011142Y-90929844D01*
X68935629Y-90937281D01*
X68897873Y-90941000D01*
X68262127Y-90941000D01*
X68224371Y-90937281D01*
X68148858Y-90929844D01*
X68003524Y-90885757D01*
X68003521Y-90885756D01*
X67869584Y-90814165D01*
X67752183Y-90717817D01*
X67655835Y-90600416D01*
X67584244Y-90466479D01*
X67584243Y-90466476D01*
X67540156Y-90321142D01*
X67525270Y-90170000D01*
X67540156Y-90018858D01*
X67584243Y-89873524D01*
X67584244Y-89873521D01*
X67655835Y-89739584D01*
X67752183Y-89622183D01*
X67869584Y-89525835D01*
X68003521Y-89454244D01*
X68003524Y-89454243D01*
X68148858Y-89410156D01*
X68224371Y-89402719D01*
X68262127Y-89399000D01*
X68897873Y-89399000D01*
X68935629Y-89402719D01*
X68935629Y-89402719D01*
G37*
G36*
X109386823Y-86791313D02*
G01*
X109547242Y-86839976D01*
X109632426Y-86885508D01*
X109695078Y-86918996D01*
X109824659Y-87025341D01*
X109931004Y-87154922D01*
X109931005Y-87154924D01*
X110010024Y-87302758D01*
X110058687Y-87463177D01*
X110075117Y-87630000D01*
X110058687Y-87796823D01*
X110010024Y-87957242D01*
X109954876Y-88060416D01*
X109931004Y-88105078D01*
X109824659Y-88234659D01*
X109695078Y-88341004D01*
X109695076Y-88341005D01*
X109547242Y-88420024D01*
X109386823Y-88468687D01*
X109261804Y-88481000D01*
X109178196Y-88481000D01*
X109053177Y-88468687D01*
X108892758Y-88420024D01*
X108744924Y-88341005D01*
X108744922Y-88341004D01*
X108615341Y-88234659D01*
X108508996Y-88105078D01*
X108485124Y-88060416D01*
X108429976Y-87957242D01*
X108381313Y-87796823D01*
X108364883Y-87630000D01*
X108381313Y-87463177D01*
X108429976Y-87302758D01*
X108508995Y-87154924D01*
X108508996Y-87154922D01*
X108615341Y-87025341D01*
X108744922Y-86918996D01*
X108807574Y-86885508D01*
X108892758Y-86839976D01*
X109053177Y-86791313D01*
X109178196Y-86779000D01*
X109261804Y-86779000D01*
X109386823Y-86791313D01*
X109386823Y-86791313D01*
G37*
G36*
X128436823Y-86791313D02*
G01*
X128597242Y-86839976D01*
X128682426Y-86885508D01*
X128745078Y-86918996D01*
X128874659Y-87025341D01*
X128981004Y-87154922D01*
X128981005Y-87154924D01*
X129060024Y-87302758D01*
X129108687Y-87463177D01*
X129125117Y-87630000D01*
X129108687Y-87796823D01*
X129060024Y-87957242D01*
X129004876Y-88060416D01*
X128981004Y-88105078D01*
X128874659Y-88234659D01*
X128745078Y-88341004D01*
X128745076Y-88341005D01*
X128597242Y-88420024D01*
X128436823Y-88468687D01*
X128311804Y-88481000D01*
X128228196Y-88481000D01*
X128103177Y-88468687D01*
X127942758Y-88420024D01*
X127794924Y-88341005D01*
X127794922Y-88341004D01*
X127665341Y-88234659D01*
X127558996Y-88105078D01*
X127535124Y-88060416D01*
X127479976Y-87957242D01*
X127431313Y-87796823D01*
X127414883Y-87630000D01*
X127431313Y-87463177D01*
X127479976Y-87302758D01*
X127558995Y-87154924D01*
X127558996Y-87154922D01*
X127665341Y-87025341D01*
X127794922Y-86918996D01*
X127857574Y-86885508D01*
X127942758Y-86839976D01*
X128103177Y-86791313D01*
X128228196Y-86779000D01*
X128311804Y-86779000D01*
X128436823Y-86791313D01*
X128436823Y-86791313D01*
G37*
G36*
X120816823Y-86791313D02*
G01*
X120977242Y-86839976D01*
X121062426Y-86885508D01*
X121125078Y-86918996D01*
X121254659Y-87025341D01*
X121361004Y-87154922D01*
X121361005Y-87154924D01*
X121440024Y-87302758D01*
X121488687Y-87463177D01*
X121505117Y-87630000D01*
X121488687Y-87796823D01*
X121440024Y-87957242D01*
X121384876Y-88060416D01*
X121361004Y-88105078D01*
X121254659Y-88234659D01*
X121125078Y-88341004D01*
X121125076Y-88341005D01*
X120977242Y-88420024D01*
X120816823Y-88468687D01*
X120691804Y-88481000D01*
X120608196Y-88481000D01*
X120483177Y-88468687D01*
X120322758Y-88420024D01*
X120174924Y-88341005D01*
X120174922Y-88341004D01*
X120045341Y-88234659D01*
X119938996Y-88105078D01*
X119915124Y-88060416D01*
X119859976Y-87957242D01*
X119811313Y-87796823D01*
X119794883Y-87630000D01*
X119811313Y-87463177D01*
X119859976Y-87302758D01*
X119938995Y-87154924D01*
X119938996Y-87154922D01*
X120045341Y-87025341D01*
X120174922Y-86918996D01*
X120237574Y-86885508D01*
X120322758Y-86839976D01*
X120483177Y-86791313D01*
X120608196Y-86779000D01*
X120691804Y-86779000D01*
X120816823Y-86791313D01*
X120816823Y-86791313D01*
G37*
G36*
X117006823Y-86791313D02*
G01*
X117167242Y-86839976D01*
X117252426Y-86885508D01*
X117315078Y-86918996D01*
X117444659Y-87025341D01*
X117551004Y-87154922D01*
X117551005Y-87154924D01*
X117630024Y-87302758D01*
X117678687Y-87463177D01*
X117695117Y-87630000D01*
X117678687Y-87796823D01*
X117630024Y-87957242D01*
X117574876Y-88060416D01*
X117551004Y-88105078D01*
X117444659Y-88234659D01*
X117315078Y-88341004D01*
X117315076Y-88341005D01*
X117167242Y-88420024D01*
X117006823Y-88468687D01*
X116881804Y-88481000D01*
X116798196Y-88481000D01*
X116673177Y-88468687D01*
X116512758Y-88420024D01*
X116364924Y-88341005D01*
X116364922Y-88341004D01*
X116235341Y-88234659D01*
X116128996Y-88105078D01*
X116105124Y-88060416D01*
X116049976Y-87957242D01*
X116001313Y-87796823D01*
X115984883Y-87630000D01*
X116001313Y-87463177D01*
X116049976Y-87302758D01*
X116128995Y-87154924D01*
X116128996Y-87154922D01*
X116235341Y-87025341D01*
X116364922Y-86918996D01*
X116427574Y-86885508D01*
X116512758Y-86839976D01*
X116673177Y-86791313D01*
X116798196Y-86779000D01*
X116881804Y-86779000D01*
X117006823Y-86791313D01*
X117006823Y-86791313D01*
G37*
G36*
X105576823Y-86791313D02*
G01*
X105737242Y-86839976D01*
X105822426Y-86885508D01*
X105885078Y-86918996D01*
X106014659Y-87025341D01*
X106121004Y-87154922D01*
X106121005Y-87154924D01*
X106200024Y-87302758D01*
X106248687Y-87463177D01*
X106265117Y-87630000D01*
X106248687Y-87796823D01*
X106200024Y-87957242D01*
X106144876Y-88060416D01*
X106121004Y-88105078D01*
X106014659Y-88234659D01*
X105885078Y-88341004D01*
X105885076Y-88341005D01*
X105737242Y-88420024D01*
X105576823Y-88468687D01*
X105451804Y-88481000D01*
X105368196Y-88481000D01*
X105243177Y-88468687D01*
X105082758Y-88420024D01*
X104934924Y-88341005D01*
X104934922Y-88341004D01*
X104805341Y-88234659D01*
X104698996Y-88105078D01*
X104675124Y-88060416D01*
X104619976Y-87957242D01*
X104571313Y-87796823D01*
X104554883Y-87630000D01*
X104571313Y-87463177D01*
X104619976Y-87302758D01*
X104698995Y-87154924D01*
X104698996Y-87154922D01*
X104805341Y-87025341D01*
X104934922Y-86918996D01*
X104997574Y-86885508D01*
X105082758Y-86839976D01*
X105243177Y-86791313D01*
X105368196Y-86779000D01*
X105451804Y-86779000D01*
X105576823Y-86791313D01*
X105576823Y-86791313D01*
G37*
G36*
X90336823Y-86791313D02*
G01*
X90497242Y-86839976D01*
X90582426Y-86885508D01*
X90645078Y-86918996D01*
X90774659Y-87025341D01*
X90881004Y-87154922D01*
X90881005Y-87154924D01*
X90960024Y-87302758D01*
X91008687Y-87463177D01*
X91025117Y-87630000D01*
X91008687Y-87796823D01*
X90960024Y-87957242D01*
X90904876Y-88060416D01*
X90881004Y-88105078D01*
X90774659Y-88234659D01*
X90645078Y-88341004D01*
X90645076Y-88341005D01*
X90497242Y-88420024D01*
X90336823Y-88468687D01*
X90211804Y-88481000D01*
X90128196Y-88481000D01*
X90003177Y-88468687D01*
X89842758Y-88420024D01*
X89694924Y-88341005D01*
X89694922Y-88341004D01*
X89565341Y-88234659D01*
X89458996Y-88105078D01*
X89435124Y-88060416D01*
X89379976Y-87957242D01*
X89331313Y-87796823D01*
X89314883Y-87630000D01*
X89331313Y-87463177D01*
X89379976Y-87302758D01*
X89458995Y-87154924D01*
X89458996Y-87154922D01*
X89565341Y-87025341D01*
X89694922Y-86918996D01*
X89757574Y-86885508D01*
X89842758Y-86839976D01*
X90003177Y-86791313D01*
X90128196Y-86779000D01*
X90211804Y-86779000D01*
X90336823Y-86791313D01*
X90336823Y-86791313D01*
G37*
G36*
X59653993Y-86824203D02*
G01*
X59718411Y-86843744D01*
X59777781Y-86875478D01*
X59829817Y-86918183D01*
X59872522Y-86970219D01*
X59904256Y-87029589D01*
X59923797Y-87094007D01*
X59931000Y-87167140D01*
X59931000Y-88092860D01*
X59923797Y-88165993D01*
X59904256Y-88230411D01*
X59872522Y-88289781D01*
X59829817Y-88341817D01*
X59777781Y-88384522D01*
X59718411Y-88416256D01*
X59653993Y-88435797D01*
X59580860Y-88443000D01*
X52179140Y-88443000D01*
X52106007Y-88435797D01*
X52041589Y-88416256D01*
X51982219Y-88384522D01*
X51930183Y-88341817D01*
X51887478Y-88289781D01*
X51855744Y-88230411D01*
X51836203Y-88165993D01*
X51829000Y-88092860D01*
X51829000Y-87167140D01*
X51836203Y-87094007D01*
X51855744Y-87029589D01*
X51887478Y-86970219D01*
X51930183Y-86918183D01*
X51982219Y-86875478D01*
X52041589Y-86843744D01*
X52106007Y-86824203D01*
X52179140Y-86817000D01*
X59580860Y-86817000D01*
X59653993Y-86824203D01*
X59653993Y-86824203D01*
G37*
G36*
X68935629Y-86862719D02*
G01*
X69011142Y-86870156D01*
X69156476Y-86914243D01*
X69156479Y-86914244D01*
X69290416Y-86985835D01*
X69407817Y-87082183D01*
X69504165Y-87199584D01*
X69575756Y-87333521D01*
X69575757Y-87333524D01*
X69619844Y-87478858D01*
X69634730Y-87630000D01*
X69619844Y-87781142D01*
X69575757Y-87926476D01*
X69575756Y-87926479D01*
X69504165Y-88060416D01*
X69407817Y-88177817D01*
X69290416Y-88274165D01*
X69156479Y-88345756D01*
X69156476Y-88345757D01*
X69011142Y-88389844D01*
X68935629Y-88397281D01*
X68897873Y-88401000D01*
X68262127Y-88401000D01*
X68224371Y-88397281D01*
X68148858Y-88389844D01*
X68003524Y-88345757D01*
X68003521Y-88345756D01*
X67869584Y-88274165D01*
X67752183Y-88177817D01*
X67655835Y-88060416D01*
X67584244Y-87926479D01*
X67584243Y-87926476D01*
X67540156Y-87781142D01*
X67525270Y-87630000D01*
X67540156Y-87478858D01*
X67584243Y-87333524D01*
X67584244Y-87333521D01*
X67655835Y-87199584D01*
X67752183Y-87082183D01*
X67869584Y-86985835D01*
X68003521Y-86914244D01*
X68003524Y-86914243D01*
X68148858Y-86870156D01*
X68224371Y-86862719D01*
X68262127Y-86859000D01*
X68897873Y-86859000D01*
X68935629Y-86862719D01*
X68935629Y-86862719D01*
G37*
G36*
X84175629Y-86862719D02*
G01*
X84251142Y-86870156D01*
X84396476Y-86914243D01*
X84396479Y-86914244D01*
X84530416Y-86985835D01*
X84647817Y-87082183D01*
X84744165Y-87199584D01*
X84815756Y-87333521D01*
X84815757Y-87333524D01*
X84859844Y-87478858D01*
X84874730Y-87630000D01*
X84859844Y-87781142D01*
X84815757Y-87926476D01*
X84815756Y-87926479D01*
X84744165Y-88060416D01*
X84647817Y-88177817D01*
X84530416Y-88274165D01*
X84396479Y-88345756D01*
X84396476Y-88345757D01*
X84251142Y-88389844D01*
X84175629Y-88397281D01*
X84137873Y-88401000D01*
X83502127Y-88401000D01*
X83464371Y-88397281D01*
X83388858Y-88389844D01*
X83243524Y-88345757D01*
X83243521Y-88345756D01*
X83109584Y-88274165D01*
X82992183Y-88177817D01*
X82895835Y-88060416D01*
X82824244Y-87926479D01*
X82824243Y-87926476D01*
X82780156Y-87781142D01*
X82765270Y-87630000D01*
X82780156Y-87478858D01*
X82824243Y-87333524D01*
X82824244Y-87333521D01*
X82895835Y-87199584D01*
X82992183Y-87082183D01*
X83109584Y-86985835D01*
X83243521Y-86914244D01*
X83243524Y-86914243D01*
X83388858Y-86870156D01*
X83464371Y-86862719D01*
X83502127Y-86859000D01*
X84137873Y-86859000D01*
X84175629Y-86862719D01*
X84175629Y-86862719D01*
G37*
G36*
X128436823Y-84251313D02*
G01*
X128597242Y-84299976D01*
X128682426Y-84345508D01*
X128745078Y-84378996D01*
X128874659Y-84485341D01*
X128981004Y-84614922D01*
X128981005Y-84614924D01*
X129060024Y-84762758D01*
X129108687Y-84923177D01*
X129125117Y-85090000D01*
X129108687Y-85256823D01*
X129060024Y-85417242D01*
X129004876Y-85520416D01*
X128981004Y-85565078D01*
X128874659Y-85694659D01*
X128745078Y-85801004D01*
X128745076Y-85801005D01*
X128597242Y-85880024D01*
X128436823Y-85928687D01*
X128311804Y-85941000D01*
X128228196Y-85941000D01*
X128103177Y-85928687D01*
X127942758Y-85880024D01*
X127794924Y-85801005D01*
X127794922Y-85801004D01*
X127665341Y-85694659D01*
X127558996Y-85565078D01*
X127535124Y-85520416D01*
X127479976Y-85417242D01*
X127431313Y-85256823D01*
X127414883Y-85090000D01*
X127431313Y-84923177D01*
X127479976Y-84762758D01*
X127558995Y-84614924D01*
X127558996Y-84614922D01*
X127665341Y-84485341D01*
X127794922Y-84378996D01*
X127857574Y-84345508D01*
X127942758Y-84299976D01*
X128103177Y-84251313D01*
X128228196Y-84239000D01*
X128311804Y-84239000D01*
X128436823Y-84251313D01*
X128436823Y-84251313D01*
G37*
G36*
X120816823Y-84251313D02*
G01*
X120977242Y-84299976D01*
X121062426Y-84345508D01*
X121125078Y-84378996D01*
X121254659Y-84485341D01*
X121361004Y-84614922D01*
X121361005Y-84614924D01*
X121440024Y-84762758D01*
X121488687Y-84923177D01*
X121505117Y-85090000D01*
X121488687Y-85256823D01*
X121440024Y-85417242D01*
X121384876Y-85520416D01*
X121361004Y-85565078D01*
X121254659Y-85694659D01*
X121125078Y-85801004D01*
X121125076Y-85801005D01*
X120977242Y-85880024D01*
X120816823Y-85928687D01*
X120691804Y-85941000D01*
X120608196Y-85941000D01*
X120483177Y-85928687D01*
X120322758Y-85880024D01*
X120174924Y-85801005D01*
X120174922Y-85801004D01*
X120045341Y-85694659D01*
X119938996Y-85565078D01*
X119915124Y-85520416D01*
X119859976Y-85417242D01*
X119811313Y-85256823D01*
X119794883Y-85090000D01*
X119811313Y-84923177D01*
X119859976Y-84762758D01*
X119938995Y-84614924D01*
X119938996Y-84614922D01*
X120045341Y-84485341D01*
X120174922Y-84378996D01*
X120237574Y-84345508D01*
X120322758Y-84299976D01*
X120483177Y-84251313D01*
X120608196Y-84239000D01*
X120691804Y-84239000D01*
X120816823Y-84251313D01*
X120816823Y-84251313D01*
G37*
G36*
X90336823Y-84251313D02*
G01*
X90497242Y-84299976D01*
X90582426Y-84345508D01*
X90645078Y-84378996D01*
X90774659Y-84485341D01*
X90881004Y-84614922D01*
X90881005Y-84614924D01*
X90960024Y-84762758D01*
X91008687Y-84923177D01*
X91025117Y-85090000D01*
X91008687Y-85256823D01*
X90960024Y-85417242D01*
X90904876Y-85520416D01*
X90881004Y-85565078D01*
X90774659Y-85694659D01*
X90645078Y-85801004D01*
X90645076Y-85801005D01*
X90497242Y-85880024D01*
X90336823Y-85928687D01*
X90211804Y-85941000D01*
X90128196Y-85941000D01*
X90003177Y-85928687D01*
X89842758Y-85880024D01*
X89694924Y-85801005D01*
X89694922Y-85801004D01*
X89565341Y-85694659D01*
X89458996Y-85565078D01*
X89435124Y-85520416D01*
X89379976Y-85417242D01*
X89331313Y-85256823D01*
X89314883Y-85090000D01*
X89331313Y-84923177D01*
X89379976Y-84762758D01*
X89458995Y-84614924D01*
X89458996Y-84614922D01*
X89565341Y-84485341D01*
X89694922Y-84378996D01*
X89757574Y-84345508D01*
X89842758Y-84299976D01*
X90003177Y-84251313D01*
X90128196Y-84239000D01*
X90211804Y-84239000D01*
X90336823Y-84251313D01*
X90336823Y-84251313D01*
G37*
G36*
X117006823Y-84251313D02*
G01*
X117167242Y-84299976D01*
X117252426Y-84345508D01*
X117315078Y-84378996D01*
X117444659Y-84485341D01*
X117551004Y-84614922D01*
X117551005Y-84614924D01*
X117630024Y-84762758D01*
X117678687Y-84923177D01*
X117695117Y-85090000D01*
X117678687Y-85256823D01*
X117630024Y-85417242D01*
X117574876Y-85520416D01*
X117551004Y-85565078D01*
X117444659Y-85694659D01*
X117315078Y-85801004D01*
X117315076Y-85801005D01*
X117167242Y-85880024D01*
X117006823Y-85928687D01*
X116881804Y-85941000D01*
X116798196Y-85941000D01*
X116673177Y-85928687D01*
X116512758Y-85880024D01*
X116364924Y-85801005D01*
X116364922Y-85801004D01*
X116235341Y-85694659D01*
X116128996Y-85565078D01*
X116105124Y-85520416D01*
X116049976Y-85417242D01*
X116001313Y-85256823D01*
X115984883Y-85090000D01*
X116001313Y-84923177D01*
X116049976Y-84762758D01*
X116128995Y-84614924D01*
X116128996Y-84614922D01*
X116235341Y-84485341D01*
X116364922Y-84378996D01*
X116427574Y-84345508D01*
X116512758Y-84299976D01*
X116673177Y-84251313D01*
X116798196Y-84239000D01*
X116881804Y-84239000D01*
X117006823Y-84251313D01*
X117006823Y-84251313D01*
G37*
G36*
X109386823Y-84251313D02*
G01*
X109547242Y-84299976D01*
X109632426Y-84345508D01*
X109695078Y-84378996D01*
X109824659Y-84485341D01*
X109931004Y-84614922D01*
X109931005Y-84614924D01*
X110010024Y-84762758D01*
X110058687Y-84923177D01*
X110075117Y-85090000D01*
X110058687Y-85256823D01*
X110010024Y-85417242D01*
X109954876Y-85520416D01*
X109931004Y-85565078D01*
X109824659Y-85694659D01*
X109695078Y-85801004D01*
X109695076Y-85801005D01*
X109547242Y-85880024D01*
X109386823Y-85928687D01*
X109261804Y-85941000D01*
X109178196Y-85941000D01*
X109053177Y-85928687D01*
X108892758Y-85880024D01*
X108744924Y-85801005D01*
X108744922Y-85801004D01*
X108615341Y-85694659D01*
X108508996Y-85565078D01*
X108485124Y-85520416D01*
X108429976Y-85417242D01*
X108381313Y-85256823D01*
X108364883Y-85090000D01*
X108381313Y-84923177D01*
X108429976Y-84762758D01*
X108508995Y-84614924D01*
X108508996Y-84614922D01*
X108615341Y-84485341D01*
X108744922Y-84378996D01*
X108807574Y-84345508D01*
X108892758Y-84299976D01*
X109053177Y-84251313D01*
X109178196Y-84239000D01*
X109261804Y-84239000D01*
X109386823Y-84251313D01*
X109386823Y-84251313D01*
G37*
G36*
X105576823Y-84251313D02*
G01*
X105737242Y-84299976D01*
X105822426Y-84345508D01*
X105885078Y-84378996D01*
X106014659Y-84485341D01*
X106121004Y-84614922D01*
X106121005Y-84614924D01*
X106200024Y-84762758D01*
X106248687Y-84923177D01*
X106265117Y-85090000D01*
X106248687Y-85256823D01*
X106200024Y-85417242D01*
X106144876Y-85520416D01*
X106121004Y-85565078D01*
X106014659Y-85694659D01*
X105885078Y-85801004D01*
X105885076Y-85801005D01*
X105737242Y-85880024D01*
X105576823Y-85928687D01*
X105451804Y-85941000D01*
X105368196Y-85941000D01*
X105243177Y-85928687D01*
X105082758Y-85880024D01*
X104934924Y-85801005D01*
X104934922Y-85801004D01*
X104805341Y-85694659D01*
X104698996Y-85565078D01*
X104675124Y-85520416D01*
X104619976Y-85417242D01*
X104571313Y-85256823D01*
X104554883Y-85090000D01*
X104571313Y-84923177D01*
X104619976Y-84762758D01*
X104698995Y-84614924D01*
X104698996Y-84614922D01*
X104805341Y-84485341D01*
X104934922Y-84378996D01*
X104997574Y-84345508D01*
X105082758Y-84299976D01*
X105243177Y-84251313D01*
X105368196Y-84239000D01*
X105451804Y-84239000D01*
X105576823Y-84251313D01*
X105576823Y-84251313D01*
G37*
G36*
X59653993Y-84284203D02*
G01*
X59718411Y-84303744D01*
X59777781Y-84335478D01*
X59829817Y-84378183D01*
X59872522Y-84430219D01*
X59904256Y-84489589D01*
X59923797Y-84554007D01*
X59931000Y-84627140D01*
X59931000Y-85552860D01*
X59923797Y-85625993D01*
X59904256Y-85690411D01*
X59872522Y-85749781D01*
X59829817Y-85801817D01*
X59777781Y-85844522D01*
X59718411Y-85876256D01*
X59653993Y-85895797D01*
X59580860Y-85903000D01*
X52179140Y-85903000D01*
X52106007Y-85895797D01*
X52041589Y-85876256D01*
X51982219Y-85844522D01*
X51930183Y-85801817D01*
X51887478Y-85749781D01*
X51855744Y-85690411D01*
X51836203Y-85625993D01*
X51829000Y-85552860D01*
X51829000Y-84627140D01*
X51836203Y-84554007D01*
X51855744Y-84489589D01*
X51887478Y-84430219D01*
X51930183Y-84378183D01*
X51982219Y-84335478D01*
X52041589Y-84303744D01*
X52106007Y-84284203D01*
X52179140Y-84277000D01*
X59580860Y-84277000D01*
X59653993Y-84284203D01*
X59653993Y-84284203D01*
G37*
G36*
X84175629Y-84322719D02*
G01*
X84251142Y-84330156D01*
X84396476Y-84374243D01*
X84396479Y-84374244D01*
X84530416Y-84445835D01*
X84647817Y-84542183D01*
X84744165Y-84659584D01*
X84815756Y-84793521D01*
X84815757Y-84793524D01*
X84859844Y-84938858D01*
X84874730Y-85090000D01*
X84859844Y-85241142D01*
X84815757Y-85386476D01*
X84815756Y-85386479D01*
X84744165Y-85520416D01*
X84647817Y-85637817D01*
X84530416Y-85734165D01*
X84396479Y-85805756D01*
X84396476Y-85805757D01*
X84251142Y-85849844D01*
X84175629Y-85857281D01*
X84137873Y-85861000D01*
X83502127Y-85861000D01*
X83464371Y-85857281D01*
X83388858Y-85849844D01*
X83243524Y-85805757D01*
X83243521Y-85805756D01*
X83109584Y-85734165D01*
X82992183Y-85637817D01*
X82895835Y-85520416D01*
X82824244Y-85386479D01*
X82824243Y-85386476D01*
X82780156Y-85241142D01*
X82765270Y-85090000D01*
X82780156Y-84938858D01*
X82824243Y-84793524D01*
X82824244Y-84793521D01*
X82895835Y-84659584D01*
X82992183Y-84542183D01*
X83109584Y-84445835D01*
X83243521Y-84374244D01*
X83243524Y-84374243D01*
X83388858Y-84330156D01*
X83464371Y-84322719D01*
X83502127Y-84319000D01*
X84137873Y-84319000D01*
X84175629Y-84322719D01*
X84175629Y-84322719D01*
G37*
G36*
X68935629Y-84322719D02*
G01*
X69011142Y-84330156D01*
X69156476Y-84374243D01*
X69156479Y-84374244D01*
X69290416Y-84445835D01*
X69407817Y-84542183D01*
X69504165Y-84659584D01*
X69575756Y-84793521D01*
X69575757Y-84793524D01*
X69619844Y-84938858D01*
X69634730Y-85090000D01*
X69619844Y-85241142D01*
X69575757Y-85386476D01*
X69575756Y-85386479D01*
X69504165Y-85520416D01*
X69407817Y-85637817D01*
X69290416Y-85734165D01*
X69156479Y-85805756D01*
X69156476Y-85805757D01*
X69011142Y-85849844D01*
X68935629Y-85857281D01*
X68897873Y-85861000D01*
X68262127Y-85861000D01*
X68224371Y-85857281D01*
X68148858Y-85849844D01*
X68003524Y-85805757D01*
X68003521Y-85805756D01*
X67869584Y-85734165D01*
X67752183Y-85637817D01*
X67655835Y-85520416D01*
X67584244Y-85386479D01*
X67584243Y-85386476D01*
X67540156Y-85241142D01*
X67525270Y-85090000D01*
X67540156Y-84938858D01*
X67584243Y-84793524D01*
X67584244Y-84793521D01*
X67655835Y-84659584D01*
X67752183Y-84542183D01*
X67869584Y-84445835D01*
X68003521Y-84374244D01*
X68003524Y-84374243D01*
X68148858Y-84330156D01*
X68224371Y-84322719D01*
X68262127Y-84319000D01*
X68897873Y-84319000D01*
X68935629Y-84322719D01*
X68935629Y-84322719D01*
G37*
G36*
X128436823Y-81711313D02*
G01*
X128597242Y-81759976D01*
X128682426Y-81805508D01*
X128745078Y-81838996D01*
X128874659Y-81945341D01*
X128981004Y-82074922D01*
X128981005Y-82074924D01*
X129060024Y-82222758D01*
X129108687Y-82383177D01*
X129125117Y-82550000D01*
X129108687Y-82716823D01*
X129060024Y-82877242D01*
X129004876Y-82980416D01*
X128981004Y-83025078D01*
X128874659Y-83154659D01*
X128745078Y-83261004D01*
X128745076Y-83261005D01*
X128597242Y-83340024D01*
X128436823Y-83388687D01*
X128311804Y-83401000D01*
X128228196Y-83401000D01*
X128103177Y-83388687D01*
X127942758Y-83340024D01*
X127794924Y-83261005D01*
X127794922Y-83261004D01*
X127665341Y-83154659D01*
X127558996Y-83025078D01*
X127535124Y-82980416D01*
X127479976Y-82877242D01*
X127431313Y-82716823D01*
X127414883Y-82550000D01*
X127431313Y-82383177D01*
X127479976Y-82222758D01*
X127558995Y-82074924D01*
X127558996Y-82074922D01*
X127665341Y-81945341D01*
X127794922Y-81838996D01*
X127857574Y-81805508D01*
X127942758Y-81759976D01*
X128103177Y-81711313D01*
X128228196Y-81699000D01*
X128311804Y-81699000D01*
X128436823Y-81711313D01*
X128436823Y-81711313D01*
G37*
G36*
X109386823Y-81711313D02*
G01*
X109547242Y-81759976D01*
X109632426Y-81805508D01*
X109695078Y-81838996D01*
X109824659Y-81945341D01*
X109931004Y-82074922D01*
X109931005Y-82074924D01*
X110010024Y-82222758D01*
X110058687Y-82383177D01*
X110075117Y-82550000D01*
X110058687Y-82716823D01*
X110010024Y-82877242D01*
X109954876Y-82980416D01*
X109931004Y-83025078D01*
X109824659Y-83154659D01*
X109695078Y-83261004D01*
X109695076Y-83261005D01*
X109547242Y-83340024D01*
X109386823Y-83388687D01*
X109261804Y-83401000D01*
X109178196Y-83401000D01*
X109053177Y-83388687D01*
X108892758Y-83340024D01*
X108744924Y-83261005D01*
X108744922Y-83261004D01*
X108615341Y-83154659D01*
X108508996Y-83025078D01*
X108485124Y-82980416D01*
X108429976Y-82877242D01*
X108381313Y-82716823D01*
X108364883Y-82550000D01*
X108381313Y-82383177D01*
X108429976Y-82222758D01*
X108508995Y-82074924D01*
X108508996Y-82074922D01*
X108615341Y-81945341D01*
X108744922Y-81838996D01*
X108807574Y-81805508D01*
X108892758Y-81759976D01*
X109053177Y-81711313D01*
X109178196Y-81699000D01*
X109261804Y-81699000D01*
X109386823Y-81711313D01*
X109386823Y-81711313D01*
G37*
G36*
X90336823Y-81711313D02*
G01*
X90497242Y-81759976D01*
X90582426Y-81805508D01*
X90645078Y-81838996D01*
X90774659Y-81945341D01*
X90881004Y-82074922D01*
X90881005Y-82074924D01*
X90960024Y-82222758D01*
X91008687Y-82383177D01*
X91025117Y-82550000D01*
X91008687Y-82716823D01*
X90960024Y-82877242D01*
X90904876Y-82980416D01*
X90881004Y-83025078D01*
X90774659Y-83154659D01*
X90645078Y-83261004D01*
X90645076Y-83261005D01*
X90497242Y-83340024D01*
X90336823Y-83388687D01*
X90211804Y-83401000D01*
X90128196Y-83401000D01*
X90003177Y-83388687D01*
X89842758Y-83340024D01*
X89694924Y-83261005D01*
X89694922Y-83261004D01*
X89565341Y-83154659D01*
X89458996Y-83025078D01*
X89435124Y-82980416D01*
X89379976Y-82877242D01*
X89331313Y-82716823D01*
X89314883Y-82550000D01*
X89331313Y-82383177D01*
X89379976Y-82222758D01*
X89458995Y-82074924D01*
X89458996Y-82074922D01*
X89565341Y-81945341D01*
X89694922Y-81838996D01*
X89757574Y-81805508D01*
X89842758Y-81759976D01*
X90003177Y-81711313D01*
X90128196Y-81699000D01*
X90211804Y-81699000D01*
X90336823Y-81711313D01*
X90336823Y-81711313D01*
G37*
G36*
X117006823Y-81711313D02*
G01*
X117167242Y-81759976D01*
X117252426Y-81805508D01*
X117315078Y-81838996D01*
X117444659Y-81945341D01*
X117551004Y-82074922D01*
X117551005Y-82074924D01*
X117630024Y-82222758D01*
X117678687Y-82383177D01*
X117695117Y-82550000D01*
X117678687Y-82716823D01*
X117630024Y-82877242D01*
X117574876Y-82980416D01*
X117551004Y-83025078D01*
X117444659Y-83154659D01*
X117315078Y-83261004D01*
X117315076Y-83261005D01*
X117167242Y-83340024D01*
X117006823Y-83388687D01*
X116881804Y-83401000D01*
X116798196Y-83401000D01*
X116673177Y-83388687D01*
X116512758Y-83340024D01*
X116364924Y-83261005D01*
X116364922Y-83261004D01*
X116235341Y-83154659D01*
X116128996Y-83025078D01*
X116105124Y-82980416D01*
X116049976Y-82877242D01*
X116001313Y-82716823D01*
X115984883Y-82550000D01*
X116001313Y-82383177D01*
X116049976Y-82222758D01*
X116128995Y-82074924D01*
X116128996Y-82074922D01*
X116235341Y-81945341D01*
X116364922Y-81838996D01*
X116427574Y-81805508D01*
X116512758Y-81759976D01*
X116673177Y-81711313D01*
X116798196Y-81699000D01*
X116881804Y-81699000D01*
X117006823Y-81711313D01*
X117006823Y-81711313D01*
G37*
G36*
X120816823Y-81711313D02*
G01*
X120977242Y-81759976D01*
X121062426Y-81805508D01*
X121125078Y-81838996D01*
X121254659Y-81945341D01*
X121361004Y-82074922D01*
X121361005Y-82074924D01*
X121440024Y-82222758D01*
X121488687Y-82383177D01*
X121505117Y-82550000D01*
X121488687Y-82716823D01*
X121440024Y-82877242D01*
X121384876Y-82980416D01*
X121361004Y-83025078D01*
X121254659Y-83154659D01*
X121125078Y-83261004D01*
X121125076Y-83261005D01*
X120977242Y-83340024D01*
X120816823Y-83388687D01*
X120691804Y-83401000D01*
X120608196Y-83401000D01*
X120483177Y-83388687D01*
X120322758Y-83340024D01*
X120174924Y-83261005D01*
X120174922Y-83261004D01*
X120045341Y-83154659D01*
X119938996Y-83025078D01*
X119915124Y-82980416D01*
X119859976Y-82877242D01*
X119811313Y-82716823D01*
X119794883Y-82550000D01*
X119811313Y-82383177D01*
X119859976Y-82222758D01*
X119938995Y-82074924D01*
X119938996Y-82074922D01*
X120045341Y-81945341D01*
X120174922Y-81838996D01*
X120237574Y-81805508D01*
X120322758Y-81759976D01*
X120483177Y-81711313D01*
X120608196Y-81699000D01*
X120691804Y-81699000D01*
X120816823Y-81711313D01*
X120816823Y-81711313D01*
G37*
G36*
X105576823Y-81711313D02*
G01*
X105737242Y-81759976D01*
X105822426Y-81805508D01*
X105885078Y-81838996D01*
X106014659Y-81945341D01*
X106121004Y-82074922D01*
X106121005Y-82074924D01*
X106200024Y-82222758D01*
X106248687Y-82383177D01*
X106265117Y-82550000D01*
X106248687Y-82716823D01*
X106200024Y-82877242D01*
X106144876Y-82980416D01*
X106121004Y-83025078D01*
X106014659Y-83154659D01*
X105885078Y-83261004D01*
X105885076Y-83261005D01*
X105737242Y-83340024D01*
X105576823Y-83388687D01*
X105451804Y-83401000D01*
X105368196Y-83401000D01*
X105243177Y-83388687D01*
X105082758Y-83340024D01*
X104934924Y-83261005D01*
X104934922Y-83261004D01*
X104805341Y-83154659D01*
X104698996Y-83025078D01*
X104675124Y-82980416D01*
X104619976Y-82877242D01*
X104571313Y-82716823D01*
X104554883Y-82550000D01*
X104571313Y-82383177D01*
X104619976Y-82222758D01*
X104698995Y-82074924D01*
X104698996Y-82074922D01*
X104805341Y-81945341D01*
X104934922Y-81838996D01*
X104997574Y-81805508D01*
X105082758Y-81759976D01*
X105243177Y-81711313D01*
X105368196Y-81699000D01*
X105451804Y-81699000D01*
X105576823Y-81711313D01*
X105576823Y-81711313D01*
G37*
G36*
X59653993Y-81744203D02*
G01*
X59718411Y-81763744D01*
X59777781Y-81795478D01*
X59829817Y-81838183D01*
X59872522Y-81890219D01*
X59904256Y-81949589D01*
X59923797Y-82014007D01*
X59931000Y-82087140D01*
X59931000Y-83012860D01*
X59923797Y-83085993D01*
X59904256Y-83150411D01*
X59872522Y-83209781D01*
X59829817Y-83261817D01*
X59777781Y-83304522D01*
X59718411Y-83336256D01*
X59653993Y-83355797D01*
X59580860Y-83363000D01*
X52179140Y-83363000D01*
X52106007Y-83355797D01*
X52041589Y-83336256D01*
X51982219Y-83304522D01*
X51930183Y-83261817D01*
X51887478Y-83209781D01*
X51855744Y-83150411D01*
X51836203Y-83085993D01*
X51829000Y-83012860D01*
X51829000Y-82087140D01*
X51836203Y-82014007D01*
X51855744Y-81949589D01*
X51887478Y-81890219D01*
X51930183Y-81838183D01*
X51982219Y-81795478D01*
X52041589Y-81763744D01*
X52106007Y-81744203D01*
X52179140Y-81737000D01*
X59580860Y-81737000D01*
X59653993Y-81744203D01*
X59653993Y-81744203D01*
G37*
G36*
X84175629Y-81782719D02*
G01*
X84251142Y-81790156D01*
X84396476Y-81834243D01*
X84396479Y-81834244D01*
X84530416Y-81905835D01*
X84647817Y-82002183D01*
X84744165Y-82119584D01*
X84815756Y-82253521D01*
X84815757Y-82253524D01*
X84859844Y-82398858D01*
X84874730Y-82550000D01*
X84859844Y-82701142D01*
X84815757Y-82846476D01*
X84815756Y-82846479D01*
X84744165Y-82980416D01*
X84647817Y-83097817D01*
X84530416Y-83194165D01*
X84396479Y-83265756D01*
X84396476Y-83265757D01*
X84251142Y-83309844D01*
X84175629Y-83317281D01*
X84137873Y-83321000D01*
X83502127Y-83321000D01*
X83464371Y-83317281D01*
X83388858Y-83309844D01*
X83243524Y-83265757D01*
X83243521Y-83265756D01*
X83109584Y-83194165D01*
X82992183Y-83097817D01*
X82895835Y-82980416D01*
X82824244Y-82846479D01*
X82824243Y-82846476D01*
X82780156Y-82701142D01*
X82765270Y-82550000D01*
X82780156Y-82398858D01*
X82824243Y-82253524D01*
X82824244Y-82253521D01*
X82895835Y-82119584D01*
X82992183Y-82002183D01*
X83109584Y-81905835D01*
X83243521Y-81834244D01*
X83243524Y-81834243D01*
X83388858Y-81790156D01*
X83464371Y-81782719D01*
X83502127Y-81779000D01*
X84137873Y-81779000D01*
X84175629Y-81782719D01*
X84175629Y-81782719D01*
G37*
G36*
X68935629Y-81782719D02*
G01*
X69011142Y-81790156D01*
X69156476Y-81834243D01*
X69156479Y-81834244D01*
X69290416Y-81905835D01*
X69407817Y-82002183D01*
X69504165Y-82119584D01*
X69575756Y-82253521D01*
X69575757Y-82253524D01*
X69619844Y-82398858D01*
X69634730Y-82550000D01*
X69619844Y-82701142D01*
X69575757Y-82846476D01*
X69575756Y-82846479D01*
X69504165Y-82980416D01*
X69407817Y-83097817D01*
X69290416Y-83194165D01*
X69156479Y-83265756D01*
X69156476Y-83265757D01*
X69011142Y-83309844D01*
X68935629Y-83317281D01*
X68897873Y-83321000D01*
X68262127Y-83321000D01*
X68224371Y-83317281D01*
X68148858Y-83309844D01*
X68003524Y-83265757D01*
X68003521Y-83265756D01*
X67869584Y-83194165D01*
X67752183Y-83097817D01*
X67655835Y-82980416D01*
X67584244Y-82846479D01*
X67584243Y-82846476D01*
X67540156Y-82701142D01*
X67525270Y-82550000D01*
X67540156Y-82398858D01*
X67584243Y-82253524D01*
X67584244Y-82253521D01*
X67655835Y-82119584D01*
X67752183Y-82002183D01*
X67869584Y-81905835D01*
X68003521Y-81834244D01*
X68003524Y-81834243D01*
X68148858Y-81790156D01*
X68224371Y-81782719D01*
X68262127Y-81779000D01*
X68897873Y-81779000D01*
X68935629Y-81782719D01*
X68935629Y-81782719D01*
G37*
G36*
X151240443Y-79115519D02*
G01*
X151306627Y-79122037D01*
X151476466Y-79173557D01*
X151632991Y-79257222D01*
X151643087Y-79265508D01*
X151770186Y-79369814D01*
X151853448Y-79471271D01*
X151882778Y-79507009D01*
X151966443Y-79663534D01*
X152017963Y-79833373D01*
X152035359Y-80010000D01*
X152017963Y-80186627D01*
X151966443Y-80356466D01*
X151882778Y-80512991D01*
X151855694Y-80545993D01*
X151770186Y-80650186D01*
X151682902Y-80721817D01*
X151632991Y-80762778D01*
X151476466Y-80846443D01*
X151306627Y-80897963D01*
X151240442Y-80904482D01*
X151174260Y-80911000D01*
X151085740Y-80911000D01*
X151019558Y-80904482D01*
X150953373Y-80897963D01*
X150783534Y-80846443D01*
X150627009Y-80762778D01*
X150577098Y-80721817D01*
X150489814Y-80650186D01*
X150404306Y-80545993D01*
X150377222Y-80512991D01*
X150293557Y-80356466D01*
X150242037Y-80186627D01*
X150224641Y-80010000D01*
X150242037Y-79833373D01*
X150293557Y-79663534D01*
X150377222Y-79507009D01*
X150406552Y-79471271D01*
X150489814Y-79369814D01*
X150616913Y-79265508D01*
X150627009Y-79257222D01*
X150783534Y-79173557D01*
X150953373Y-79122037D01*
X151019557Y-79115519D01*
X151085740Y-79109000D01*
X151174260Y-79109000D01*
X151240443Y-79115519D01*
X151240443Y-79115519D01*
G37*
G36*
X148700443Y-79115519D02*
G01*
X148766627Y-79122037D01*
X148936466Y-79173557D01*
X149092991Y-79257222D01*
X149103087Y-79265508D01*
X149230186Y-79369814D01*
X149313448Y-79471271D01*
X149342778Y-79507009D01*
X149426443Y-79663534D01*
X149477963Y-79833373D01*
X149495359Y-80010000D01*
X149477963Y-80186627D01*
X149426443Y-80356466D01*
X149342778Y-80512991D01*
X149315694Y-80545993D01*
X149230186Y-80650186D01*
X149142902Y-80721817D01*
X149092991Y-80762778D01*
X148936466Y-80846443D01*
X148766627Y-80897963D01*
X148700442Y-80904482D01*
X148634260Y-80911000D01*
X148545740Y-80911000D01*
X148479558Y-80904482D01*
X148413373Y-80897963D01*
X148243534Y-80846443D01*
X148087009Y-80762778D01*
X148037098Y-80721817D01*
X147949814Y-80650186D01*
X147864306Y-80545993D01*
X147837222Y-80512991D01*
X147753557Y-80356466D01*
X147702037Y-80186627D01*
X147684641Y-80010000D01*
X147702037Y-79833373D01*
X147753557Y-79663534D01*
X147837222Y-79507009D01*
X147866552Y-79471271D01*
X147949814Y-79369814D01*
X148076913Y-79265508D01*
X148087009Y-79257222D01*
X148243534Y-79173557D01*
X148413373Y-79122037D01*
X148479557Y-79115519D01*
X148545740Y-79109000D01*
X148634260Y-79109000D01*
X148700443Y-79115519D01*
X148700443Y-79115519D01*
G37*
G36*
X146160443Y-79115519D02*
G01*
X146226627Y-79122037D01*
X146396466Y-79173557D01*
X146552991Y-79257222D01*
X146563087Y-79265508D01*
X146690186Y-79369814D01*
X146773448Y-79471271D01*
X146802778Y-79507009D01*
X146886443Y-79663534D01*
X146937963Y-79833373D01*
X146955359Y-80010000D01*
X146937963Y-80186627D01*
X146886443Y-80356466D01*
X146802778Y-80512991D01*
X146775694Y-80545993D01*
X146690186Y-80650186D01*
X146602902Y-80721817D01*
X146552991Y-80762778D01*
X146396466Y-80846443D01*
X146226627Y-80897963D01*
X146160442Y-80904482D01*
X146094260Y-80911000D01*
X146005740Y-80911000D01*
X145939558Y-80904482D01*
X145873373Y-80897963D01*
X145703534Y-80846443D01*
X145547009Y-80762778D01*
X145497098Y-80721817D01*
X145409814Y-80650186D01*
X145324306Y-80545993D01*
X145297222Y-80512991D01*
X145213557Y-80356466D01*
X145162037Y-80186627D01*
X145144641Y-80010000D01*
X145162037Y-79833373D01*
X145213557Y-79663534D01*
X145297222Y-79507009D01*
X145326552Y-79471271D01*
X145409814Y-79369814D01*
X145536913Y-79265508D01*
X145547009Y-79257222D01*
X145703534Y-79173557D01*
X145873373Y-79122037D01*
X145939557Y-79115519D01*
X146005740Y-79109000D01*
X146094260Y-79109000D01*
X146160443Y-79115519D01*
X146160443Y-79115519D01*
G37*
G36*
X156320443Y-79115519D02*
G01*
X156386627Y-79122037D01*
X156556466Y-79173557D01*
X156712991Y-79257222D01*
X156723087Y-79265508D01*
X156850186Y-79369814D01*
X156933448Y-79471271D01*
X156962778Y-79507009D01*
X157046443Y-79663534D01*
X157097963Y-79833373D01*
X157115359Y-80010000D01*
X157097963Y-80186627D01*
X157046443Y-80356466D01*
X156962778Y-80512991D01*
X156935694Y-80545993D01*
X156850186Y-80650186D01*
X156762902Y-80721817D01*
X156712991Y-80762778D01*
X156556466Y-80846443D01*
X156386627Y-80897963D01*
X156320442Y-80904482D01*
X156254260Y-80911000D01*
X156165740Y-80911000D01*
X156099558Y-80904482D01*
X156033373Y-80897963D01*
X155863534Y-80846443D01*
X155707009Y-80762778D01*
X155657098Y-80721817D01*
X155569814Y-80650186D01*
X155484306Y-80545993D01*
X155457222Y-80512991D01*
X155373557Y-80356466D01*
X155322037Y-80186627D01*
X155304641Y-80010000D01*
X155322037Y-79833373D01*
X155373557Y-79663534D01*
X155457222Y-79507009D01*
X155486552Y-79471271D01*
X155569814Y-79369814D01*
X155696913Y-79265508D01*
X155707009Y-79257222D01*
X155863534Y-79173557D01*
X156033373Y-79122037D01*
X156099557Y-79115519D01*
X156165740Y-79109000D01*
X156254260Y-79109000D01*
X156320443Y-79115519D01*
X156320443Y-79115519D01*
G37*
G36*
X153780443Y-79115519D02*
G01*
X153846627Y-79122037D01*
X154016466Y-79173557D01*
X154172991Y-79257222D01*
X154183087Y-79265508D01*
X154310186Y-79369814D01*
X154393448Y-79471271D01*
X154422778Y-79507009D01*
X154506443Y-79663534D01*
X154557963Y-79833373D01*
X154575359Y-80010000D01*
X154557963Y-80186627D01*
X154506443Y-80356466D01*
X154422778Y-80512991D01*
X154395694Y-80545993D01*
X154310186Y-80650186D01*
X154222902Y-80721817D01*
X154172991Y-80762778D01*
X154016466Y-80846443D01*
X153846627Y-80897963D01*
X153780442Y-80904482D01*
X153714260Y-80911000D01*
X153625740Y-80911000D01*
X153559558Y-80904482D01*
X153493373Y-80897963D01*
X153323534Y-80846443D01*
X153167009Y-80762778D01*
X153117098Y-80721817D01*
X153029814Y-80650186D01*
X152944306Y-80545993D01*
X152917222Y-80512991D01*
X152833557Y-80356466D01*
X152782037Y-80186627D01*
X152764641Y-80010000D01*
X152782037Y-79833373D01*
X152833557Y-79663534D01*
X152917222Y-79507009D01*
X152946552Y-79471271D01*
X153029814Y-79369814D01*
X153156913Y-79265508D01*
X153167009Y-79257222D01*
X153323534Y-79173557D01*
X153493373Y-79122037D01*
X153559557Y-79115519D01*
X153625740Y-79109000D01*
X153714260Y-79109000D01*
X153780443Y-79115519D01*
X153780443Y-79115519D01*
G37*
G36*
X143620443Y-79115519D02*
G01*
X143686627Y-79122037D01*
X143856466Y-79173557D01*
X144012991Y-79257222D01*
X144023087Y-79265508D01*
X144150186Y-79369814D01*
X144233448Y-79471271D01*
X144262778Y-79507009D01*
X144346443Y-79663534D01*
X144397963Y-79833373D01*
X144415359Y-80010000D01*
X144397963Y-80186627D01*
X144346443Y-80356466D01*
X144262778Y-80512991D01*
X144235694Y-80545993D01*
X144150186Y-80650186D01*
X144062902Y-80721817D01*
X144012991Y-80762778D01*
X143856466Y-80846443D01*
X143686627Y-80897963D01*
X143620442Y-80904482D01*
X143554260Y-80911000D01*
X143465740Y-80911000D01*
X143399558Y-80904482D01*
X143333373Y-80897963D01*
X143163534Y-80846443D01*
X143007009Y-80762778D01*
X142957098Y-80721817D01*
X142869814Y-80650186D01*
X142784306Y-80545993D01*
X142757222Y-80512991D01*
X142673557Y-80356466D01*
X142622037Y-80186627D01*
X142604641Y-80010000D01*
X142622037Y-79833373D01*
X142673557Y-79663534D01*
X142757222Y-79507009D01*
X142786552Y-79471271D01*
X142869814Y-79369814D01*
X142996913Y-79265508D01*
X143007009Y-79257222D01*
X143163534Y-79173557D01*
X143333373Y-79122037D01*
X143399557Y-79115519D01*
X143465740Y-79109000D01*
X143554260Y-79109000D01*
X143620443Y-79115519D01*
X143620443Y-79115519D01*
G37*
G36*
X141080443Y-79115519D02*
G01*
X141146627Y-79122037D01*
X141316466Y-79173557D01*
X141472991Y-79257222D01*
X141483087Y-79265508D01*
X141610186Y-79369814D01*
X141693448Y-79471271D01*
X141722778Y-79507009D01*
X141806443Y-79663534D01*
X141857963Y-79833373D01*
X141875359Y-80010000D01*
X141857963Y-80186627D01*
X141806443Y-80356466D01*
X141722778Y-80512991D01*
X141695694Y-80545993D01*
X141610186Y-80650186D01*
X141522902Y-80721817D01*
X141472991Y-80762778D01*
X141316466Y-80846443D01*
X141146627Y-80897963D01*
X141080442Y-80904482D01*
X141014260Y-80911000D01*
X140925740Y-80911000D01*
X140859558Y-80904482D01*
X140793373Y-80897963D01*
X140623534Y-80846443D01*
X140467009Y-80762778D01*
X140417098Y-80721817D01*
X140329814Y-80650186D01*
X140244306Y-80545993D01*
X140217222Y-80512991D01*
X140133557Y-80356466D01*
X140082037Y-80186627D01*
X140064641Y-80010000D01*
X140082037Y-79833373D01*
X140133557Y-79663534D01*
X140217222Y-79507009D01*
X140246552Y-79471271D01*
X140329814Y-79369814D01*
X140456913Y-79265508D01*
X140467009Y-79257222D01*
X140623534Y-79173557D01*
X140793373Y-79122037D01*
X140859557Y-79115519D01*
X140925740Y-79109000D01*
X141014260Y-79109000D01*
X141080443Y-79115519D01*
X141080443Y-79115519D01*
G37*
G36*
X138540443Y-79115519D02*
G01*
X138606627Y-79122037D01*
X138776466Y-79173557D01*
X138932991Y-79257222D01*
X138943087Y-79265508D01*
X139070186Y-79369814D01*
X139153448Y-79471271D01*
X139182778Y-79507009D01*
X139266443Y-79663534D01*
X139317963Y-79833373D01*
X139335359Y-80010000D01*
X139317963Y-80186627D01*
X139266443Y-80356466D01*
X139182778Y-80512991D01*
X139155694Y-80545993D01*
X139070186Y-80650186D01*
X138982902Y-80721817D01*
X138932991Y-80762778D01*
X138776466Y-80846443D01*
X138606627Y-80897963D01*
X138540442Y-80904482D01*
X138474260Y-80911000D01*
X138385740Y-80911000D01*
X138319558Y-80904482D01*
X138253373Y-80897963D01*
X138083534Y-80846443D01*
X137927009Y-80762778D01*
X137877098Y-80721817D01*
X137789814Y-80650186D01*
X137704306Y-80545993D01*
X137677222Y-80512991D01*
X137593557Y-80356466D01*
X137542037Y-80186627D01*
X137524641Y-80010000D01*
X137542037Y-79833373D01*
X137593557Y-79663534D01*
X137677222Y-79507009D01*
X137706552Y-79471271D01*
X137789814Y-79369814D01*
X137916913Y-79265508D01*
X137927009Y-79257222D01*
X138083534Y-79173557D01*
X138253373Y-79122037D01*
X138319557Y-79115519D01*
X138385740Y-79109000D01*
X138474260Y-79109000D01*
X138540443Y-79115519D01*
X138540443Y-79115519D01*
G37*
G36*
X109386823Y-79171313D02*
G01*
X109547242Y-79219976D01*
X109616922Y-79257221D01*
X109695078Y-79298996D01*
X109824659Y-79405341D01*
X109931004Y-79534922D01*
X109931005Y-79534924D01*
X110010024Y-79682758D01*
X110058687Y-79843177D01*
X110075117Y-80010000D01*
X110058687Y-80176823D01*
X110010024Y-80337242D01*
X109939114Y-80469906D01*
X109931004Y-80485078D01*
X109824659Y-80614659D01*
X109695078Y-80721004D01*
X109695076Y-80721005D01*
X109547242Y-80800024D01*
X109386823Y-80848687D01*
X109261804Y-80861000D01*
X109178196Y-80861000D01*
X109053177Y-80848687D01*
X108892758Y-80800024D01*
X108744924Y-80721005D01*
X108744922Y-80721004D01*
X108615341Y-80614659D01*
X108508996Y-80485078D01*
X108500886Y-80469906D01*
X108429976Y-80337242D01*
X108381313Y-80176823D01*
X108364883Y-80010000D01*
X108381313Y-79843177D01*
X108429976Y-79682758D01*
X108508995Y-79534924D01*
X108508996Y-79534922D01*
X108615341Y-79405341D01*
X108744922Y-79298996D01*
X108823078Y-79257221D01*
X108892758Y-79219976D01*
X109053177Y-79171313D01*
X109178196Y-79159000D01*
X109261804Y-79159000D01*
X109386823Y-79171313D01*
X109386823Y-79171313D01*
G37*
G36*
X128436823Y-79171313D02*
G01*
X128597242Y-79219976D01*
X128666922Y-79257221D01*
X128745078Y-79298996D01*
X128874659Y-79405341D01*
X128981004Y-79534922D01*
X128981005Y-79534924D01*
X129060024Y-79682758D01*
X129108687Y-79843177D01*
X129125117Y-80010000D01*
X129108687Y-80176823D01*
X129060024Y-80337242D01*
X128989114Y-80469906D01*
X128981004Y-80485078D01*
X128874659Y-80614659D01*
X128745078Y-80721004D01*
X128745076Y-80721005D01*
X128597242Y-80800024D01*
X128436823Y-80848687D01*
X128311804Y-80861000D01*
X128228196Y-80861000D01*
X128103177Y-80848687D01*
X127942758Y-80800024D01*
X127794924Y-80721005D01*
X127794922Y-80721004D01*
X127665341Y-80614659D01*
X127558996Y-80485078D01*
X127550886Y-80469906D01*
X127479976Y-80337242D01*
X127431313Y-80176823D01*
X127414883Y-80010000D01*
X127431313Y-79843177D01*
X127479976Y-79682758D01*
X127558995Y-79534924D01*
X127558996Y-79534922D01*
X127665341Y-79405341D01*
X127794922Y-79298996D01*
X127873078Y-79257221D01*
X127942758Y-79219976D01*
X128103177Y-79171313D01*
X128228196Y-79159000D01*
X128311804Y-79159000D01*
X128436823Y-79171313D01*
X128436823Y-79171313D01*
G37*
G36*
X117006823Y-79171313D02*
G01*
X117167242Y-79219976D01*
X117236922Y-79257221D01*
X117315078Y-79298996D01*
X117444659Y-79405341D01*
X117551004Y-79534922D01*
X117551005Y-79534924D01*
X117630024Y-79682758D01*
X117678687Y-79843177D01*
X117695117Y-80010000D01*
X117678687Y-80176823D01*
X117630024Y-80337242D01*
X117559114Y-80469906D01*
X117551004Y-80485078D01*
X117444659Y-80614659D01*
X117315078Y-80721004D01*
X117315076Y-80721005D01*
X117167242Y-80800024D01*
X117006823Y-80848687D01*
X116881804Y-80861000D01*
X116798196Y-80861000D01*
X116673177Y-80848687D01*
X116512758Y-80800024D01*
X116364924Y-80721005D01*
X116364922Y-80721004D01*
X116235341Y-80614659D01*
X116128996Y-80485078D01*
X116120886Y-80469906D01*
X116049976Y-80337242D01*
X116001313Y-80176823D01*
X115984883Y-80010000D01*
X116001313Y-79843177D01*
X116049976Y-79682758D01*
X116128995Y-79534924D01*
X116128996Y-79534922D01*
X116235341Y-79405341D01*
X116364922Y-79298996D01*
X116443078Y-79257221D01*
X116512758Y-79219976D01*
X116673177Y-79171313D01*
X116798196Y-79159000D01*
X116881804Y-79159000D01*
X117006823Y-79171313D01*
X117006823Y-79171313D01*
G37*
G36*
X121501000Y-80861000D02*
G01*
X119799000Y-80861000D01*
X119799000Y-79159000D01*
X121501000Y-79159000D01*
X121501000Y-80861000D01*
X121501000Y-80861000D01*
G37*
G36*
X59653993Y-79204203D02*
G01*
X59718411Y-79223744D01*
X59777781Y-79255478D01*
X59829817Y-79298183D01*
X59872522Y-79350219D01*
X59904256Y-79409589D01*
X59923797Y-79474007D01*
X59931000Y-79547140D01*
X59931000Y-80472860D01*
X59923797Y-80545993D01*
X59904256Y-80610411D01*
X59872522Y-80669781D01*
X59829817Y-80721817D01*
X59777781Y-80764522D01*
X59718411Y-80796256D01*
X59653993Y-80815797D01*
X59580860Y-80823000D01*
X52179140Y-80823000D01*
X52106007Y-80815797D01*
X52041589Y-80796256D01*
X51982219Y-80764522D01*
X51930183Y-80721817D01*
X51887478Y-80669781D01*
X51855744Y-80610411D01*
X51836203Y-80545993D01*
X51829000Y-80472860D01*
X51829000Y-79547140D01*
X51836203Y-79474007D01*
X51855744Y-79409589D01*
X51887478Y-79350219D01*
X51930183Y-79298183D01*
X51982219Y-79255478D01*
X52041589Y-79223744D01*
X52106007Y-79204203D01*
X52179140Y-79197000D01*
X59580860Y-79197000D01*
X59653993Y-79204203D01*
X59653993Y-79204203D01*
G37*
G36*
X143620443Y-76575519D02*
G01*
X143686627Y-76582037D01*
X143856466Y-76633557D01*
X144012991Y-76717222D01*
X144023087Y-76725508D01*
X144150186Y-76829814D01*
X144233448Y-76931271D01*
X144262778Y-76967009D01*
X144346443Y-77123534D01*
X144397963Y-77293373D01*
X144415359Y-77470000D01*
X144397963Y-77646627D01*
X144346443Y-77816466D01*
X144262778Y-77972991D01*
X144235694Y-78005993D01*
X144150186Y-78110186D01*
X144062902Y-78181817D01*
X144012991Y-78222778D01*
X143856466Y-78306443D01*
X143686627Y-78357963D01*
X143620443Y-78364481D01*
X143554260Y-78371000D01*
X143465740Y-78371000D01*
X143399557Y-78364481D01*
X143333373Y-78357963D01*
X143163534Y-78306443D01*
X143007009Y-78222778D01*
X142957098Y-78181817D01*
X142869814Y-78110186D01*
X142784306Y-78005993D01*
X142757222Y-77972991D01*
X142673557Y-77816466D01*
X142622037Y-77646627D01*
X142604641Y-77470000D01*
X142622037Y-77293373D01*
X142673557Y-77123534D01*
X142757222Y-76967009D01*
X142786552Y-76931271D01*
X142869814Y-76829814D01*
X142996913Y-76725508D01*
X143007009Y-76717222D01*
X143163534Y-76633557D01*
X143333373Y-76582037D01*
X143399557Y-76575519D01*
X143465740Y-76569000D01*
X143554260Y-76569000D01*
X143620443Y-76575519D01*
X143620443Y-76575519D01*
G37*
G36*
X151240443Y-76575519D02*
G01*
X151306627Y-76582037D01*
X151476466Y-76633557D01*
X151632991Y-76717222D01*
X151643087Y-76725508D01*
X151770186Y-76829814D01*
X151853448Y-76931271D01*
X151882778Y-76967009D01*
X151966443Y-77123534D01*
X152017963Y-77293373D01*
X152035359Y-77470000D01*
X152017963Y-77646627D01*
X151966443Y-77816466D01*
X151882778Y-77972991D01*
X151855694Y-78005993D01*
X151770186Y-78110186D01*
X151682902Y-78181817D01*
X151632991Y-78222778D01*
X151476466Y-78306443D01*
X151306627Y-78357963D01*
X151240443Y-78364481D01*
X151174260Y-78371000D01*
X151085740Y-78371000D01*
X151019557Y-78364481D01*
X150953373Y-78357963D01*
X150783534Y-78306443D01*
X150627009Y-78222778D01*
X150577098Y-78181817D01*
X150489814Y-78110186D01*
X150404306Y-78005993D01*
X150377222Y-77972991D01*
X150293557Y-77816466D01*
X150242037Y-77646627D01*
X150224641Y-77470000D01*
X150242037Y-77293373D01*
X150293557Y-77123534D01*
X150377222Y-76967009D01*
X150406552Y-76931271D01*
X150489814Y-76829814D01*
X150616913Y-76725508D01*
X150627009Y-76717222D01*
X150783534Y-76633557D01*
X150953373Y-76582037D01*
X151019557Y-76575519D01*
X151085740Y-76569000D01*
X151174260Y-76569000D01*
X151240443Y-76575519D01*
X151240443Y-76575519D01*
G37*
G36*
X138540443Y-76575519D02*
G01*
X138606627Y-76582037D01*
X138776466Y-76633557D01*
X138932991Y-76717222D01*
X138943087Y-76725508D01*
X139070186Y-76829814D01*
X139153448Y-76931271D01*
X139182778Y-76967009D01*
X139266443Y-77123534D01*
X139317963Y-77293373D01*
X139335359Y-77470000D01*
X139317963Y-77646627D01*
X139266443Y-77816466D01*
X139182778Y-77972991D01*
X139155694Y-78005993D01*
X139070186Y-78110186D01*
X138982902Y-78181817D01*
X138932991Y-78222778D01*
X138776466Y-78306443D01*
X138606627Y-78357963D01*
X138540443Y-78364481D01*
X138474260Y-78371000D01*
X138385740Y-78371000D01*
X138319557Y-78364481D01*
X138253373Y-78357963D01*
X138083534Y-78306443D01*
X137927009Y-78222778D01*
X137877098Y-78181817D01*
X137789814Y-78110186D01*
X137704306Y-78005993D01*
X137677222Y-77972991D01*
X137593557Y-77816466D01*
X137542037Y-77646627D01*
X137524641Y-77470000D01*
X137542037Y-77293373D01*
X137593557Y-77123534D01*
X137677222Y-76967009D01*
X137706552Y-76931271D01*
X137789814Y-76829814D01*
X137916913Y-76725508D01*
X137927009Y-76717222D01*
X138083534Y-76633557D01*
X138253373Y-76582037D01*
X138319557Y-76575519D01*
X138385740Y-76569000D01*
X138474260Y-76569000D01*
X138540443Y-76575519D01*
X138540443Y-76575519D01*
G37*
G36*
X141080443Y-76575519D02*
G01*
X141146627Y-76582037D01*
X141316466Y-76633557D01*
X141472991Y-76717222D01*
X141483087Y-76725508D01*
X141610186Y-76829814D01*
X141693448Y-76931271D01*
X141722778Y-76967009D01*
X141806443Y-77123534D01*
X141857963Y-77293373D01*
X141875359Y-77470000D01*
X141857963Y-77646627D01*
X141806443Y-77816466D01*
X141722778Y-77972991D01*
X141695694Y-78005993D01*
X141610186Y-78110186D01*
X141522902Y-78181817D01*
X141472991Y-78222778D01*
X141316466Y-78306443D01*
X141146627Y-78357963D01*
X141080443Y-78364481D01*
X141014260Y-78371000D01*
X140925740Y-78371000D01*
X140859557Y-78364481D01*
X140793373Y-78357963D01*
X140623534Y-78306443D01*
X140467009Y-78222778D01*
X140417098Y-78181817D01*
X140329814Y-78110186D01*
X140244306Y-78005993D01*
X140217222Y-77972991D01*
X140133557Y-77816466D01*
X140082037Y-77646627D01*
X140064641Y-77470000D01*
X140082037Y-77293373D01*
X140133557Y-77123534D01*
X140217222Y-76967009D01*
X140246552Y-76931271D01*
X140329814Y-76829814D01*
X140456913Y-76725508D01*
X140467009Y-76717222D01*
X140623534Y-76633557D01*
X140793373Y-76582037D01*
X140859557Y-76575519D01*
X140925740Y-76569000D01*
X141014260Y-76569000D01*
X141080443Y-76575519D01*
X141080443Y-76575519D01*
G37*
G36*
X157111000Y-78371000D02*
G01*
X155309000Y-78371000D01*
X155309000Y-76569000D01*
X157111000Y-76569000D01*
X157111000Y-78371000D01*
X157111000Y-78371000D01*
G37*
G36*
X148700443Y-76575519D02*
G01*
X148766627Y-76582037D01*
X148936466Y-76633557D01*
X149092991Y-76717222D01*
X149103087Y-76725508D01*
X149230186Y-76829814D01*
X149313448Y-76931271D01*
X149342778Y-76967009D01*
X149426443Y-77123534D01*
X149477963Y-77293373D01*
X149495359Y-77470000D01*
X149477963Y-77646627D01*
X149426443Y-77816466D01*
X149342778Y-77972991D01*
X149315694Y-78005993D01*
X149230186Y-78110186D01*
X149142902Y-78181817D01*
X149092991Y-78222778D01*
X148936466Y-78306443D01*
X148766627Y-78357963D01*
X148700443Y-78364481D01*
X148634260Y-78371000D01*
X148545740Y-78371000D01*
X148479557Y-78364481D01*
X148413373Y-78357963D01*
X148243534Y-78306443D01*
X148087009Y-78222778D01*
X148037098Y-78181817D01*
X147949814Y-78110186D01*
X147864306Y-78005993D01*
X147837222Y-77972991D01*
X147753557Y-77816466D01*
X147702037Y-77646627D01*
X147684641Y-77470000D01*
X147702037Y-77293373D01*
X147753557Y-77123534D01*
X147837222Y-76967009D01*
X147866552Y-76931271D01*
X147949814Y-76829814D01*
X148076913Y-76725508D01*
X148087009Y-76717222D01*
X148243534Y-76633557D01*
X148413373Y-76582037D01*
X148479557Y-76575519D01*
X148545740Y-76569000D01*
X148634260Y-76569000D01*
X148700443Y-76575519D01*
X148700443Y-76575519D01*
G37*
G36*
X153780443Y-76575519D02*
G01*
X153846627Y-76582037D01*
X154016466Y-76633557D01*
X154172991Y-76717222D01*
X154183087Y-76725508D01*
X154310186Y-76829814D01*
X154393448Y-76931271D01*
X154422778Y-76967009D01*
X154506443Y-77123534D01*
X154557963Y-77293373D01*
X154575359Y-77470000D01*
X154557963Y-77646627D01*
X154506443Y-77816466D01*
X154422778Y-77972991D01*
X154395694Y-78005993D01*
X154310186Y-78110186D01*
X154222902Y-78181817D01*
X154172991Y-78222778D01*
X154016466Y-78306443D01*
X153846627Y-78357963D01*
X153780443Y-78364481D01*
X153714260Y-78371000D01*
X153625740Y-78371000D01*
X153559557Y-78364481D01*
X153493373Y-78357963D01*
X153323534Y-78306443D01*
X153167009Y-78222778D01*
X153117098Y-78181817D01*
X153029814Y-78110186D01*
X152944306Y-78005993D01*
X152917222Y-77972991D01*
X152833557Y-77816466D01*
X152782037Y-77646627D01*
X152764641Y-77470000D01*
X152782037Y-77293373D01*
X152833557Y-77123534D01*
X152917222Y-76967009D01*
X152946552Y-76931271D01*
X153029814Y-76829814D01*
X153156913Y-76725508D01*
X153167009Y-76717222D01*
X153323534Y-76633557D01*
X153493373Y-76582037D01*
X153559557Y-76575519D01*
X153625740Y-76569000D01*
X153714260Y-76569000D01*
X153780443Y-76575519D01*
X153780443Y-76575519D01*
G37*
G36*
X146160443Y-76575519D02*
G01*
X146226627Y-76582037D01*
X146396466Y-76633557D01*
X146552991Y-76717222D01*
X146563087Y-76725508D01*
X146690186Y-76829814D01*
X146773448Y-76931271D01*
X146802778Y-76967009D01*
X146886443Y-77123534D01*
X146937963Y-77293373D01*
X146955359Y-77470000D01*
X146937963Y-77646627D01*
X146886443Y-77816466D01*
X146802778Y-77972991D01*
X146775694Y-78005993D01*
X146690186Y-78110186D01*
X146602902Y-78181817D01*
X146552991Y-78222778D01*
X146396466Y-78306443D01*
X146226627Y-78357963D01*
X146160443Y-78364481D01*
X146094260Y-78371000D01*
X146005740Y-78371000D01*
X145939557Y-78364481D01*
X145873373Y-78357963D01*
X145703534Y-78306443D01*
X145547009Y-78222778D01*
X145497098Y-78181817D01*
X145409814Y-78110186D01*
X145324306Y-78005993D01*
X145297222Y-77972991D01*
X145213557Y-77816466D01*
X145162037Y-77646627D01*
X145144641Y-77470000D01*
X145162037Y-77293373D01*
X145213557Y-77123534D01*
X145297222Y-76967009D01*
X145326552Y-76931271D01*
X145409814Y-76829814D01*
X145536913Y-76725508D01*
X145547009Y-76717222D01*
X145703534Y-76633557D01*
X145873373Y-76582037D01*
X145939557Y-76575519D01*
X146005740Y-76569000D01*
X146094260Y-76569000D01*
X146160443Y-76575519D01*
X146160443Y-76575519D01*
G37*
G36*
X110071000Y-78321000D02*
G01*
X108369000Y-78321000D01*
X108369000Y-76619000D01*
X110071000Y-76619000D01*
X110071000Y-78321000D01*
X110071000Y-78321000D01*
G37*
G36*
X117006823Y-76631313D02*
G01*
X117167242Y-76679976D01*
X117236922Y-76717221D01*
X117315078Y-76758996D01*
X117444659Y-76865341D01*
X117551004Y-76994922D01*
X117551005Y-76994924D01*
X117630024Y-77142758D01*
X117678687Y-77303177D01*
X117695117Y-77470000D01*
X117678687Y-77636823D01*
X117630024Y-77797242D01*
X117559114Y-77929906D01*
X117551004Y-77945078D01*
X117444659Y-78074659D01*
X117315078Y-78181004D01*
X117315076Y-78181005D01*
X117167242Y-78260024D01*
X117006823Y-78308687D01*
X116881804Y-78321000D01*
X116798196Y-78321000D01*
X116673177Y-78308687D01*
X116512758Y-78260024D01*
X116364924Y-78181005D01*
X116364922Y-78181004D01*
X116235341Y-78074659D01*
X116128996Y-77945078D01*
X116120886Y-77929906D01*
X116049976Y-77797242D01*
X116001313Y-77636823D01*
X115984883Y-77470000D01*
X116001313Y-77303177D01*
X116049976Y-77142758D01*
X116128995Y-76994924D01*
X116128996Y-76994922D01*
X116235341Y-76865341D01*
X116364922Y-76758996D01*
X116443078Y-76717221D01*
X116512758Y-76679976D01*
X116673177Y-76631313D01*
X116798196Y-76619000D01*
X116881804Y-76619000D01*
X117006823Y-76631313D01*
X117006823Y-76631313D01*
G37*
G36*
X59653993Y-76664203D02*
G01*
X59718411Y-76683744D01*
X59777781Y-76715478D01*
X59829817Y-76758183D01*
X59872522Y-76810219D01*
X59904256Y-76869589D01*
X59923797Y-76934007D01*
X59931000Y-77007140D01*
X59931000Y-77932860D01*
X59923797Y-78005993D01*
X59904256Y-78070411D01*
X59872522Y-78129781D01*
X59829817Y-78181817D01*
X59777781Y-78224522D01*
X59718411Y-78256256D01*
X59653993Y-78275797D01*
X59580860Y-78283000D01*
X52179140Y-78283000D01*
X52106007Y-78275797D01*
X52041589Y-78256256D01*
X51982219Y-78224522D01*
X51930183Y-78181817D01*
X51887478Y-78129781D01*
X51855744Y-78070411D01*
X51836203Y-78005993D01*
X51829000Y-77932860D01*
X51829000Y-77007140D01*
X51836203Y-76934007D01*
X51855744Y-76869589D01*
X51887478Y-76810219D01*
X51930183Y-76758183D01*
X51982219Y-76715478D01*
X52041589Y-76683744D01*
X52106007Y-76664203D01*
X52179140Y-76657000D01*
X59580860Y-76657000D01*
X59653993Y-76664203D01*
X59653993Y-76664203D01*
G37*
M02*
