G04 #@! TF.GenerationSoftware,KiCad,Pcbnew,(5.1.2-1)-1*
G04 #@! TF.CreationDate,2023-07-30T19:28:41+02:00*
G04 #@! TF.ProjectId,devcart32k,64657663-6172-4743-9332-6b2e6b696361,rev?*
G04 #@! TF.SameCoordinates,Original*
G04 #@! TF.FileFunction,Copper,L2,Bot*
G04 #@! TF.FilePolarity,Positive*
%FSLAX46Y46*%
G04 Gerber Fmt 4.6, Leading zero omitted, Abs format (unit mm)*
G04 Created by KiCad (PCBNEW (5.1.2-1)-1) date 2023-07-30 19:28:41*
%MOMM*%
%LPD*%
G04 APERTURE LIST*
%ADD10C,0.150000*%
%ADD11C,1.524000*%
%ADD12O,1.600000X1.600000*%
%ADD13R,1.600000X1.600000*%
%ADD14O,1.700000X1.700000*%
%ADD15R,1.700000X1.700000*%
%ADD16C,1.600000*%
%ADD17O,2.000000X1.440000*%
%ADD18R,2.000000X1.440000*%
%ADD19C,0.800000*%
%ADD20C,0.400000*%
%ADD21C,0.250000*%
%ADD22C,0.254000*%
G04 APERTURE END LIST*
D10*
G36*
X59536345Y-76709835D02*
G01*
X59573329Y-76715321D01*
X59609598Y-76724406D01*
X59644802Y-76737002D01*
X59678602Y-76752988D01*
X59710672Y-76772210D01*
X59740704Y-76794483D01*
X59768408Y-76819592D01*
X59793517Y-76847296D01*
X59815790Y-76877328D01*
X59835012Y-76909398D01*
X59850998Y-76943198D01*
X59863594Y-76978402D01*
X59872679Y-77014671D01*
X59878165Y-77051655D01*
X59880000Y-77089000D01*
X59880000Y-77851000D01*
X59878165Y-77888345D01*
X59872679Y-77925329D01*
X59863594Y-77961598D01*
X59850998Y-77996802D01*
X59835012Y-78030602D01*
X59815790Y-78062672D01*
X59793517Y-78092704D01*
X59768408Y-78120408D01*
X59740704Y-78145517D01*
X59710672Y-78167790D01*
X59678602Y-78187012D01*
X59644802Y-78202998D01*
X59609598Y-78215594D01*
X59573329Y-78224679D01*
X59536345Y-78230165D01*
X59499000Y-78232000D01*
X52261000Y-78232000D01*
X52223655Y-78230165D01*
X52186671Y-78224679D01*
X52150402Y-78215594D01*
X52115198Y-78202998D01*
X52081398Y-78187012D01*
X52049328Y-78167790D01*
X52019296Y-78145517D01*
X51991592Y-78120408D01*
X51966483Y-78092704D01*
X51944210Y-78062672D01*
X51924988Y-78030602D01*
X51909002Y-77996802D01*
X51896406Y-77961598D01*
X51887321Y-77925329D01*
X51881835Y-77888345D01*
X51880000Y-77851000D01*
X51880000Y-77089000D01*
X51881835Y-77051655D01*
X51887321Y-77014671D01*
X51896406Y-76978402D01*
X51909002Y-76943198D01*
X51924988Y-76909398D01*
X51944210Y-76877328D01*
X51966483Y-76847296D01*
X51991592Y-76819592D01*
X52019296Y-76794483D01*
X52049328Y-76772210D01*
X52081398Y-76752988D01*
X52115198Y-76737002D01*
X52150402Y-76724406D01*
X52186671Y-76715321D01*
X52223655Y-76709835D01*
X52261000Y-76708000D01*
X59499000Y-76708000D01*
X59536345Y-76709835D01*
X59536345Y-76709835D01*
G37*
D11*
X55880000Y-77470000D03*
D10*
G36*
X59536345Y-79249835D02*
G01*
X59573329Y-79255321D01*
X59609598Y-79264406D01*
X59644802Y-79277002D01*
X59678602Y-79292988D01*
X59710672Y-79312210D01*
X59740704Y-79334483D01*
X59768408Y-79359592D01*
X59793517Y-79387296D01*
X59815790Y-79417328D01*
X59835012Y-79449398D01*
X59850998Y-79483198D01*
X59863594Y-79518402D01*
X59872679Y-79554671D01*
X59878165Y-79591655D01*
X59880000Y-79629000D01*
X59880000Y-80391000D01*
X59878165Y-80428345D01*
X59872679Y-80465329D01*
X59863594Y-80501598D01*
X59850998Y-80536802D01*
X59835012Y-80570602D01*
X59815790Y-80602672D01*
X59793517Y-80632704D01*
X59768408Y-80660408D01*
X59740704Y-80685517D01*
X59710672Y-80707790D01*
X59678602Y-80727012D01*
X59644802Y-80742998D01*
X59609598Y-80755594D01*
X59573329Y-80764679D01*
X59536345Y-80770165D01*
X59499000Y-80772000D01*
X52261000Y-80772000D01*
X52223655Y-80770165D01*
X52186671Y-80764679D01*
X52150402Y-80755594D01*
X52115198Y-80742998D01*
X52081398Y-80727012D01*
X52049328Y-80707790D01*
X52019296Y-80685517D01*
X51991592Y-80660408D01*
X51966483Y-80632704D01*
X51944210Y-80602672D01*
X51924988Y-80570602D01*
X51909002Y-80536802D01*
X51896406Y-80501598D01*
X51887321Y-80465329D01*
X51881835Y-80428345D01*
X51880000Y-80391000D01*
X51880000Y-79629000D01*
X51881835Y-79591655D01*
X51887321Y-79554671D01*
X51896406Y-79518402D01*
X51909002Y-79483198D01*
X51924988Y-79449398D01*
X51944210Y-79417328D01*
X51966483Y-79387296D01*
X51991592Y-79359592D01*
X52019296Y-79334483D01*
X52049328Y-79312210D01*
X52081398Y-79292988D01*
X52115198Y-79277002D01*
X52150402Y-79264406D01*
X52186671Y-79255321D01*
X52223655Y-79249835D01*
X52261000Y-79248000D01*
X59499000Y-79248000D01*
X59536345Y-79249835D01*
X59536345Y-79249835D01*
G37*
D11*
X55880000Y-80010000D03*
D10*
G36*
X59536345Y-81789835D02*
G01*
X59573329Y-81795321D01*
X59609598Y-81804406D01*
X59644802Y-81817002D01*
X59678602Y-81832988D01*
X59710672Y-81852210D01*
X59740704Y-81874483D01*
X59768408Y-81899592D01*
X59793517Y-81927296D01*
X59815790Y-81957328D01*
X59835012Y-81989398D01*
X59850998Y-82023198D01*
X59863594Y-82058402D01*
X59872679Y-82094671D01*
X59878165Y-82131655D01*
X59880000Y-82169000D01*
X59880000Y-82931000D01*
X59878165Y-82968345D01*
X59872679Y-83005329D01*
X59863594Y-83041598D01*
X59850998Y-83076802D01*
X59835012Y-83110602D01*
X59815790Y-83142672D01*
X59793517Y-83172704D01*
X59768408Y-83200408D01*
X59740704Y-83225517D01*
X59710672Y-83247790D01*
X59678602Y-83267012D01*
X59644802Y-83282998D01*
X59609598Y-83295594D01*
X59573329Y-83304679D01*
X59536345Y-83310165D01*
X59499000Y-83312000D01*
X52261000Y-83312000D01*
X52223655Y-83310165D01*
X52186671Y-83304679D01*
X52150402Y-83295594D01*
X52115198Y-83282998D01*
X52081398Y-83267012D01*
X52049328Y-83247790D01*
X52019296Y-83225517D01*
X51991592Y-83200408D01*
X51966483Y-83172704D01*
X51944210Y-83142672D01*
X51924988Y-83110602D01*
X51909002Y-83076802D01*
X51896406Y-83041598D01*
X51887321Y-83005329D01*
X51881835Y-82968345D01*
X51880000Y-82931000D01*
X51880000Y-82169000D01*
X51881835Y-82131655D01*
X51887321Y-82094671D01*
X51896406Y-82058402D01*
X51909002Y-82023198D01*
X51924988Y-81989398D01*
X51944210Y-81957328D01*
X51966483Y-81927296D01*
X51991592Y-81899592D01*
X52019296Y-81874483D01*
X52049328Y-81852210D01*
X52081398Y-81832988D01*
X52115198Y-81817002D01*
X52150402Y-81804406D01*
X52186671Y-81795321D01*
X52223655Y-81789835D01*
X52261000Y-81788000D01*
X59499000Y-81788000D01*
X59536345Y-81789835D01*
X59536345Y-81789835D01*
G37*
D11*
X55880000Y-82550000D03*
D10*
G36*
X59536345Y-84329835D02*
G01*
X59573329Y-84335321D01*
X59609598Y-84344406D01*
X59644802Y-84357002D01*
X59678602Y-84372988D01*
X59710672Y-84392210D01*
X59740704Y-84414483D01*
X59768408Y-84439592D01*
X59793517Y-84467296D01*
X59815790Y-84497328D01*
X59835012Y-84529398D01*
X59850998Y-84563198D01*
X59863594Y-84598402D01*
X59872679Y-84634671D01*
X59878165Y-84671655D01*
X59880000Y-84709000D01*
X59880000Y-85471000D01*
X59878165Y-85508345D01*
X59872679Y-85545329D01*
X59863594Y-85581598D01*
X59850998Y-85616802D01*
X59835012Y-85650602D01*
X59815790Y-85682672D01*
X59793517Y-85712704D01*
X59768408Y-85740408D01*
X59740704Y-85765517D01*
X59710672Y-85787790D01*
X59678602Y-85807012D01*
X59644802Y-85822998D01*
X59609598Y-85835594D01*
X59573329Y-85844679D01*
X59536345Y-85850165D01*
X59499000Y-85852000D01*
X52261000Y-85852000D01*
X52223655Y-85850165D01*
X52186671Y-85844679D01*
X52150402Y-85835594D01*
X52115198Y-85822998D01*
X52081398Y-85807012D01*
X52049328Y-85787790D01*
X52019296Y-85765517D01*
X51991592Y-85740408D01*
X51966483Y-85712704D01*
X51944210Y-85682672D01*
X51924988Y-85650602D01*
X51909002Y-85616802D01*
X51896406Y-85581598D01*
X51887321Y-85545329D01*
X51881835Y-85508345D01*
X51880000Y-85471000D01*
X51880000Y-84709000D01*
X51881835Y-84671655D01*
X51887321Y-84634671D01*
X51896406Y-84598402D01*
X51909002Y-84563198D01*
X51924988Y-84529398D01*
X51944210Y-84497328D01*
X51966483Y-84467296D01*
X51991592Y-84439592D01*
X52019296Y-84414483D01*
X52049328Y-84392210D01*
X52081398Y-84372988D01*
X52115198Y-84357002D01*
X52150402Y-84344406D01*
X52186671Y-84335321D01*
X52223655Y-84329835D01*
X52261000Y-84328000D01*
X59499000Y-84328000D01*
X59536345Y-84329835D01*
X59536345Y-84329835D01*
G37*
D11*
X55880000Y-85090000D03*
D10*
G36*
X59536345Y-86869835D02*
G01*
X59573329Y-86875321D01*
X59609598Y-86884406D01*
X59644802Y-86897002D01*
X59678602Y-86912988D01*
X59710672Y-86932210D01*
X59740704Y-86954483D01*
X59768408Y-86979592D01*
X59793517Y-87007296D01*
X59815790Y-87037328D01*
X59835012Y-87069398D01*
X59850998Y-87103198D01*
X59863594Y-87138402D01*
X59872679Y-87174671D01*
X59878165Y-87211655D01*
X59880000Y-87249000D01*
X59880000Y-88011000D01*
X59878165Y-88048345D01*
X59872679Y-88085329D01*
X59863594Y-88121598D01*
X59850998Y-88156802D01*
X59835012Y-88190602D01*
X59815790Y-88222672D01*
X59793517Y-88252704D01*
X59768408Y-88280408D01*
X59740704Y-88305517D01*
X59710672Y-88327790D01*
X59678602Y-88347012D01*
X59644802Y-88362998D01*
X59609598Y-88375594D01*
X59573329Y-88384679D01*
X59536345Y-88390165D01*
X59499000Y-88392000D01*
X52261000Y-88392000D01*
X52223655Y-88390165D01*
X52186671Y-88384679D01*
X52150402Y-88375594D01*
X52115198Y-88362998D01*
X52081398Y-88347012D01*
X52049328Y-88327790D01*
X52019296Y-88305517D01*
X51991592Y-88280408D01*
X51966483Y-88252704D01*
X51944210Y-88222672D01*
X51924988Y-88190602D01*
X51909002Y-88156802D01*
X51896406Y-88121598D01*
X51887321Y-88085329D01*
X51881835Y-88048345D01*
X51880000Y-88011000D01*
X51880000Y-87249000D01*
X51881835Y-87211655D01*
X51887321Y-87174671D01*
X51896406Y-87138402D01*
X51909002Y-87103198D01*
X51924988Y-87069398D01*
X51944210Y-87037328D01*
X51966483Y-87007296D01*
X51991592Y-86979592D01*
X52019296Y-86954483D01*
X52049328Y-86932210D01*
X52081398Y-86912988D01*
X52115198Y-86897002D01*
X52150402Y-86884406D01*
X52186671Y-86875321D01*
X52223655Y-86869835D01*
X52261000Y-86868000D01*
X59499000Y-86868000D01*
X59536345Y-86869835D01*
X59536345Y-86869835D01*
G37*
D11*
X55880000Y-87630000D03*
D10*
G36*
X59536345Y-89409835D02*
G01*
X59573329Y-89415321D01*
X59609598Y-89424406D01*
X59644802Y-89437002D01*
X59678602Y-89452988D01*
X59710672Y-89472210D01*
X59740704Y-89494483D01*
X59768408Y-89519592D01*
X59793517Y-89547296D01*
X59815790Y-89577328D01*
X59835012Y-89609398D01*
X59850998Y-89643198D01*
X59863594Y-89678402D01*
X59872679Y-89714671D01*
X59878165Y-89751655D01*
X59880000Y-89789000D01*
X59880000Y-90551000D01*
X59878165Y-90588345D01*
X59872679Y-90625329D01*
X59863594Y-90661598D01*
X59850998Y-90696802D01*
X59835012Y-90730602D01*
X59815790Y-90762672D01*
X59793517Y-90792704D01*
X59768408Y-90820408D01*
X59740704Y-90845517D01*
X59710672Y-90867790D01*
X59678602Y-90887012D01*
X59644802Y-90902998D01*
X59609598Y-90915594D01*
X59573329Y-90924679D01*
X59536345Y-90930165D01*
X59499000Y-90932000D01*
X52261000Y-90932000D01*
X52223655Y-90930165D01*
X52186671Y-90924679D01*
X52150402Y-90915594D01*
X52115198Y-90902998D01*
X52081398Y-90887012D01*
X52049328Y-90867790D01*
X52019296Y-90845517D01*
X51991592Y-90820408D01*
X51966483Y-90792704D01*
X51944210Y-90762672D01*
X51924988Y-90730602D01*
X51909002Y-90696802D01*
X51896406Y-90661598D01*
X51887321Y-90625329D01*
X51881835Y-90588345D01*
X51880000Y-90551000D01*
X51880000Y-89789000D01*
X51881835Y-89751655D01*
X51887321Y-89714671D01*
X51896406Y-89678402D01*
X51909002Y-89643198D01*
X51924988Y-89609398D01*
X51944210Y-89577328D01*
X51966483Y-89547296D01*
X51991592Y-89519592D01*
X52019296Y-89494483D01*
X52049328Y-89472210D01*
X52081398Y-89452988D01*
X52115198Y-89437002D01*
X52150402Y-89424406D01*
X52186671Y-89415321D01*
X52223655Y-89409835D01*
X52261000Y-89408000D01*
X59499000Y-89408000D01*
X59536345Y-89409835D01*
X59536345Y-89409835D01*
G37*
D11*
X55880000Y-90170000D03*
D10*
G36*
X59536345Y-91949835D02*
G01*
X59573329Y-91955321D01*
X59609598Y-91964406D01*
X59644802Y-91977002D01*
X59678602Y-91992988D01*
X59710672Y-92012210D01*
X59740704Y-92034483D01*
X59768408Y-92059592D01*
X59793517Y-92087296D01*
X59815790Y-92117328D01*
X59835012Y-92149398D01*
X59850998Y-92183198D01*
X59863594Y-92218402D01*
X59872679Y-92254671D01*
X59878165Y-92291655D01*
X59880000Y-92329000D01*
X59880000Y-93091000D01*
X59878165Y-93128345D01*
X59872679Y-93165329D01*
X59863594Y-93201598D01*
X59850998Y-93236802D01*
X59835012Y-93270602D01*
X59815790Y-93302672D01*
X59793517Y-93332704D01*
X59768408Y-93360408D01*
X59740704Y-93385517D01*
X59710672Y-93407790D01*
X59678602Y-93427012D01*
X59644802Y-93442998D01*
X59609598Y-93455594D01*
X59573329Y-93464679D01*
X59536345Y-93470165D01*
X59499000Y-93472000D01*
X52261000Y-93472000D01*
X52223655Y-93470165D01*
X52186671Y-93464679D01*
X52150402Y-93455594D01*
X52115198Y-93442998D01*
X52081398Y-93427012D01*
X52049328Y-93407790D01*
X52019296Y-93385517D01*
X51991592Y-93360408D01*
X51966483Y-93332704D01*
X51944210Y-93302672D01*
X51924988Y-93270602D01*
X51909002Y-93236802D01*
X51896406Y-93201598D01*
X51887321Y-93165329D01*
X51881835Y-93128345D01*
X51880000Y-93091000D01*
X51880000Y-92329000D01*
X51881835Y-92291655D01*
X51887321Y-92254671D01*
X51896406Y-92218402D01*
X51909002Y-92183198D01*
X51924988Y-92149398D01*
X51944210Y-92117328D01*
X51966483Y-92087296D01*
X51991592Y-92059592D01*
X52019296Y-92034483D01*
X52049328Y-92012210D01*
X52081398Y-91992988D01*
X52115198Y-91977002D01*
X52150402Y-91964406D01*
X52186671Y-91955321D01*
X52223655Y-91949835D01*
X52261000Y-91948000D01*
X59499000Y-91948000D01*
X59536345Y-91949835D01*
X59536345Y-91949835D01*
G37*
D11*
X55880000Y-92710000D03*
D10*
G36*
X59536345Y-94489835D02*
G01*
X59573329Y-94495321D01*
X59609598Y-94504406D01*
X59644802Y-94517002D01*
X59678602Y-94532988D01*
X59710672Y-94552210D01*
X59740704Y-94574483D01*
X59768408Y-94599592D01*
X59793517Y-94627296D01*
X59815790Y-94657328D01*
X59835012Y-94689398D01*
X59850998Y-94723198D01*
X59863594Y-94758402D01*
X59872679Y-94794671D01*
X59878165Y-94831655D01*
X59880000Y-94869000D01*
X59880000Y-95631000D01*
X59878165Y-95668345D01*
X59872679Y-95705329D01*
X59863594Y-95741598D01*
X59850998Y-95776802D01*
X59835012Y-95810602D01*
X59815790Y-95842672D01*
X59793517Y-95872704D01*
X59768408Y-95900408D01*
X59740704Y-95925517D01*
X59710672Y-95947790D01*
X59678602Y-95967012D01*
X59644802Y-95982998D01*
X59609598Y-95995594D01*
X59573329Y-96004679D01*
X59536345Y-96010165D01*
X59499000Y-96012000D01*
X52261000Y-96012000D01*
X52223655Y-96010165D01*
X52186671Y-96004679D01*
X52150402Y-95995594D01*
X52115198Y-95982998D01*
X52081398Y-95967012D01*
X52049328Y-95947790D01*
X52019296Y-95925517D01*
X51991592Y-95900408D01*
X51966483Y-95872704D01*
X51944210Y-95842672D01*
X51924988Y-95810602D01*
X51909002Y-95776802D01*
X51896406Y-95741598D01*
X51887321Y-95705329D01*
X51881835Y-95668345D01*
X51880000Y-95631000D01*
X51880000Y-94869000D01*
X51881835Y-94831655D01*
X51887321Y-94794671D01*
X51896406Y-94758402D01*
X51909002Y-94723198D01*
X51924988Y-94689398D01*
X51944210Y-94657328D01*
X51966483Y-94627296D01*
X51991592Y-94599592D01*
X52019296Y-94574483D01*
X52049328Y-94552210D01*
X52081398Y-94532988D01*
X52115198Y-94517002D01*
X52150402Y-94504406D01*
X52186671Y-94495321D01*
X52223655Y-94489835D01*
X52261000Y-94488000D01*
X59499000Y-94488000D01*
X59536345Y-94489835D01*
X59536345Y-94489835D01*
G37*
D11*
X55880000Y-95250000D03*
D10*
G36*
X59536345Y-97029835D02*
G01*
X59573329Y-97035321D01*
X59609598Y-97044406D01*
X59644802Y-97057002D01*
X59678602Y-97072988D01*
X59710672Y-97092210D01*
X59740704Y-97114483D01*
X59768408Y-97139592D01*
X59793517Y-97167296D01*
X59815790Y-97197328D01*
X59835012Y-97229398D01*
X59850998Y-97263198D01*
X59863594Y-97298402D01*
X59872679Y-97334671D01*
X59878165Y-97371655D01*
X59880000Y-97409000D01*
X59880000Y-98171000D01*
X59878165Y-98208345D01*
X59872679Y-98245329D01*
X59863594Y-98281598D01*
X59850998Y-98316802D01*
X59835012Y-98350602D01*
X59815790Y-98382672D01*
X59793517Y-98412704D01*
X59768408Y-98440408D01*
X59740704Y-98465517D01*
X59710672Y-98487790D01*
X59678602Y-98507012D01*
X59644802Y-98522998D01*
X59609598Y-98535594D01*
X59573329Y-98544679D01*
X59536345Y-98550165D01*
X59499000Y-98552000D01*
X52261000Y-98552000D01*
X52223655Y-98550165D01*
X52186671Y-98544679D01*
X52150402Y-98535594D01*
X52115198Y-98522998D01*
X52081398Y-98507012D01*
X52049328Y-98487790D01*
X52019296Y-98465517D01*
X51991592Y-98440408D01*
X51966483Y-98412704D01*
X51944210Y-98382672D01*
X51924988Y-98350602D01*
X51909002Y-98316802D01*
X51896406Y-98281598D01*
X51887321Y-98245329D01*
X51881835Y-98208345D01*
X51880000Y-98171000D01*
X51880000Y-97409000D01*
X51881835Y-97371655D01*
X51887321Y-97334671D01*
X51896406Y-97298402D01*
X51909002Y-97263198D01*
X51924988Y-97229398D01*
X51944210Y-97197328D01*
X51966483Y-97167296D01*
X51991592Y-97139592D01*
X52019296Y-97114483D01*
X52049328Y-97092210D01*
X52081398Y-97072988D01*
X52115198Y-97057002D01*
X52150402Y-97044406D01*
X52186671Y-97035321D01*
X52223655Y-97029835D01*
X52261000Y-97028000D01*
X59499000Y-97028000D01*
X59536345Y-97029835D01*
X59536345Y-97029835D01*
G37*
D11*
X55880000Y-97790000D03*
D10*
G36*
X59536345Y-99569835D02*
G01*
X59573329Y-99575321D01*
X59609598Y-99584406D01*
X59644802Y-99597002D01*
X59678602Y-99612988D01*
X59710672Y-99632210D01*
X59740704Y-99654483D01*
X59768408Y-99679592D01*
X59793517Y-99707296D01*
X59815790Y-99737328D01*
X59835012Y-99769398D01*
X59850998Y-99803198D01*
X59863594Y-99838402D01*
X59872679Y-99874671D01*
X59878165Y-99911655D01*
X59880000Y-99949000D01*
X59880000Y-100711000D01*
X59878165Y-100748345D01*
X59872679Y-100785329D01*
X59863594Y-100821598D01*
X59850998Y-100856802D01*
X59835012Y-100890602D01*
X59815790Y-100922672D01*
X59793517Y-100952704D01*
X59768408Y-100980408D01*
X59740704Y-101005517D01*
X59710672Y-101027790D01*
X59678602Y-101047012D01*
X59644802Y-101062998D01*
X59609598Y-101075594D01*
X59573329Y-101084679D01*
X59536345Y-101090165D01*
X59499000Y-101092000D01*
X52261000Y-101092000D01*
X52223655Y-101090165D01*
X52186671Y-101084679D01*
X52150402Y-101075594D01*
X52115198Y-101062998D01*
X52081398Y-101047012D01*
X52049328Y-101027790D01*
X52019296Y-101005517D01*
X51991592Y-100980408D01*
X51966483Y-100952704D01*
X51944210Y-100922672D01*
X51924988Y-100890602D01*
X51909002Y-100856802D01*
X51896406Y-100821598D01*
X51887321Y-100785329D01*
X51881835Y-100748345D01*
X51880000Y-100711000D01*
X51880000Y-99949000D01*
X51881835Y-99911655D01*
X51887321Y-99874671D01*
X51896406Y-99838402D01*
X51909002Y-99803198D01*
X51924988Y-99769398D01*
X51944210Y-99737328D01*
X51966483Y-99707296D01*
X51991592Y-99679592D01*
X52019296Y-99654483D01*
X52049328Y-99632210D01*
X52081398Y-99612988D01*
X52115198Y-99597002D01*
X52150402Y-99584406D01*
X52186671Y-99575321D01*
X52223655Y-99569835D01*
X52261000Y-99568000D01*
X59499000Y-99568000D01*
X59536345Y-99569835D01*
X59536345Y-99569835D01*
G37*
D11*
X55880000Y-100330000D03*
D10*
G36*
X59536345Y-102109835D02*
G01*
X59573329Y-102115321D01*
X59609598Y-102124406D01*
X59644802Y-102137002D01*
X59678602Y-102152988D01*
X59710672Y-102172210D01*
X59740704Y-102194483D01*
X59768408Y-102219592D01*
X59793517Y-102247296D01*
X59815790Y-102277328D01*
X59835012Y-102309398D01*
X59850998Y-102343198D01*
X59863594Y-102378402D01*
X59872679Y-102414671D01*
X59878165Y-102451655D01*
X59880000Y-102489000D01*
X59880000Y-103251000D01*
X59878165Y-103288345D01*
X59872679Y-103325329D01*
X59863594Y-103361598D01*
X59850998Y-103396802D01*
X59835012Y-103430602D01*
X59815790Y-103462672D01*
X59793517Y-103492704D01*
X59768408Y-103520408D01*
X59740704Y-103545517D01*
X59710672Y-103567790D01*
X59678602Y-103587012D01*
X59644802Y-103602998D01*
X59609598Y-103615594D01*
X59573329Y-103624679D01*
X59536345Y-103630165D01*
X59499000Y-103632000D01*
X52261000Y-103632000D01*
X52223655Y-103630165D01*
X52186671Y-103624679D01*
X52150402Y-103615594D01*
X52115198Y-103602998D01*
X52081398Y-103587012D01*
X52049328Y-103567790D01*
X52019296Y-103545517D01*
X51991592Y-103520408D01*
X51966483Y-103492704D01*
X51944210Y-103462672D01*
X51924988Y-103430602D01*
X51909002Y-103396802D01*
X51896406Y-103361598D01*
X51887321Y-103325329D01*
X51881835Y-103288345D01*
X51880000Y-103251000D01*
X51880000Y-102489000D01*
X51881835Y-102451655D01*
X51887321Y-102414671D01*
X51896406Y-102378402D01*
X51909002Y-102343198D01*
X51924988Y-102309398D01*
X51944210Y-102277328D01*
X51966483Y-102247296D01*
X51991592Y-102219592D01*
X52019296Y-102194483D01*
X52049328Y-102172210D01*
X52081398Y-102152988D01*
X52115198Y-102137002D01*
X52150402Y-102124406D01*
X52186671Y-102115321D01*
X52223655Y-102109835D01*
X52261000Y-102108000D01*
X59499000Y-102108000D01*
X59536345Y-102109835D01*
X59536345Y-102109835D01*
G37*
D11*
X55880000Y-102870000D03*
D10*
G36*
X59536345Y-104649835D02*
G01*
X59573329Y-104655321D01*
X59609598Y-104664406D01*
X59644802Y-104677002D01*
X59678602Y-104692988D01*
X59710672Y-104712210D01*
X59740704Y-104734483D01*
X59768408Y-104759592D01*
X59793517Y-104787296D01*
X59815790Y-104817328D01*
X59835012Y-104849398D01*
X59850998Y-104883198D01*
X59863594Y-104918402D01*
X59872679Y-104954671D01*
X59878165Y-104991655D01*
X59880000Y-105029000D01*
X59880000Y-105791000D01*
X59878165Y-105828345D01*
X59872679Y-105865329D01*
X59863594Y-105901598D01*
X59850998Y-105936802D01*
X59835012Y-105970602D01*
X59815790Y-106002672D01*
X59793517Y-106032704D01*
X59768408Y-106060408D01*
X59740704Y-106085517D01*
X59710672Y-106107790D01*
X59678602Y-106127012D01*
X59644802Y-106142998D01*
X59609598Y-106155594D01*
X59573329Y-106164679D01*
X59536345Y-106170165D01*
X59499000Y-106172000D01*
X52261000Y-106172000D01*
X52223655Y-106170165D01*
X52186671Y-106164679D01*
X52150402Y-106155594D01*
X52115198Y-106142998D01*
X52081398Y-106127012D01*
X52049328Y-106107790D01*
X52019296Y-106085517D01*
X51991592Y-106060408D01*
X51966483Y-106032704D01*
X51944210Y-106002672D01*
X51924988Y-105970602D01*
X51909002Y-105936802D01*
X51896406Y-105901598D01*
X51887321Y-105865329D01*
X51881835Y-105828345D01*
X51880000Y-105791000D01*
X51880000Y-105029000D01*
X51881835Y-104991655D01*
X51887321Y-104954671D01*
X51896406Y-104918402D01*
X51909002Y-104883198D01*
X51924988Y-104849398D01*
X51944210Y-104817328D01*
X51966483Y-104787296D01*
X51991592Y-104759592D01*
X52019296Y-104734483D01*
X52049328Y-104712210D01*
X52081398Y-104692988D01*
X52115198Y-104677002D01*
X52150402Y-104664406D01*
X52186671Y-104655321D01*
X52223655Y-104649835D01*
X52261000Y-104648000D01*
X59499000Y-104648000D01*
X59536345Y-104649835D01*
X59536345Y-104649835D01*
G37*
D11*
X55880000Y-105410000D03*
D10*
G36*
X59536345Y-107189835D02*
G01*
X59573329Y-107195321D01*
X59609598Y-107204406D01*
X59644802Y-107217002D01*
X59678602Y-107232988D01*
X59710672Y-107252210D01*
X59740704Y-107274483D01*
X59768408Y-107299592D01*
X59793517Y-107327296D01*
X59815790Y-107357328D01*
X59835012Y-107389398D01*
X59850998Y-107423198D01*
X59863594Y-107458402D01*
X59872679Y-107494671D01*
X59878165Y-107531655D01*
X59880000Y-107569000D01*
X59880000Y-108331000D01*
X59878165Y-108368345D01*
X59872679Y-108405329D01*
X59863594Y-108441598D01*
X59850998Y-108476802D01*
X59835012Y-108510602D01*
X59815790Y-108542672D01*
X59793517Y-108572704D01*
X59768408Y-108600408D01*
X59740704Y-108625517D01*
X59710672Y-108647790D01*
X59678602Y-108667012D01*
X59644802Y-108682998D01*
X59609598Y-108695594D01*
X59573329Y-108704679D01*
X59536345Y-108710165D01*
X59499000Y-108712000D01*
X52261000Y-108712000D01*
X52223655Y-108710165D01*
X52186671Y-108704679D01*
X52150402Y-108695594D01*
X52115198Y-108682998D01*
X52081398Y-108667012D01*
X52049328Y-108647790D01*
X52019296Y-108625517D01*
X51991592Y-108600408D01*
X51966483Y-108572704D01*
X51944210Y-108542672D01*
X51924988Y-108510602D01*
X51909002Y-108476802D01*
X51896406Y-108441598D01*
X51887321Y-108405329D01*
X51881835Y-108368345D01*
X51880000Y-108331000D01*
X51880000Y-107569000D01*
X51881835Y-107531655D01*
X51887321Y-107494671D01*
X51896406Y-107458402D01*
X51909002Y-107423198D01*
X51924988Y-107389398D01*
X51944210Y-107357328D01*
X51966483Y-107327296D01*
X51991592Y-107299592D01*
X52019296Y-107274483D01*
X52049328Y-107252210D01*
X52081398Y-107232988D01*
X52115198Y-107217002D01*
X52150402Y-107204406D01*
X52186671Y-107195321D01*
X52223655Y-107189835D01*
X52261000Y-107188000D01*
X59499000Y-107188000D01*
X59536345Y-107189835D01*
X59536345Y-107189835D01*
G37*
D11*
X55880000Y-107950000D03*
D10*
G36*
X59536345Y-109729835D02*
G01*
X59573329Y-109735321D01*
X59609598Y-109744406D01*
X59644802Y-109757002D01*
X59678602Y-109772988D01*
X59710672Y-109792210D01*
X59740704Y-109814483D01*
X59768408Y-109839592D01*
X59793517Y-109867296D01*
X59815790Y-109897328D01*
X59835012Y-109929398D01*
X59850998Y-109963198D01*
X59863594Y-109998402D01*
X59872679Y-110034671D01*
X59878165Y-110071655D01*
X59880000Y-110109000D01*
X59880000Y-110871000D01*
X59878165Y-110908345D01*
X59872679Y-110945329D01*
X59863594Y-110981598D01*
X59850998Y-111016802D01*
X59835012Y-111050602D01*
X59815790Y-111082672D01*
X59793517Y-111112704D01*
X59768408Y-111140408D01*
X59740704Y-111165517D01*
X59710672Y-111187790D01*
X59678602Y-111207012D01*
X59644802Y-111222998D01*
X59609598Y-111235594D01*
X59573329Y-111244679D01*
X59536345Y-111250165D01*
X59499000Y-111252000D01*
X52261000Y-111252000D01*
X52223655Y-111250165D01*
X52186671Y-111244679D01*
X52150402Y-111235594D01*
X52115198Y-111222998D01*
X52081398Y-111207012D01*
X52049328Y-111187790D01*
X52019296Y-111165517D01*
X51991592Y-111140408D01*
X51966483Y-111112704D01*
X51944210Y-111082672D01*
X51924988Y-111050602D01*
X51909002Y-111016802D01*
X51896406Y-110981598D01*
X51887321Y-110945329D01*
X51881835Y-110908345D01*
X51880000Y-110871000D01*
X51880000Y-110109000D01*
X51881835Y-110071655D01*
X51887321Y-110034671D01*
X51896406Y-109998402D01*
X51909002Y-109963198D01*
X51924988Y-109929398D01*
X51944210Y-109897328D01*
X51966483Y-109867296D01*
X51991592Y-109839592D01*
X52019296Y-109814483D01*
X52049328Y-109792210D01*
X52081398Y-109772988D01*
X52115198Y-109757002D01*
X52150402Y-109744406D01*
X52186671Y-109735321D01*
X52223655Y-109729835D01*
X52261000Y-109728000D01*
X59499000Y-109728000D01*
X59536345Y-109729835D01*
X59536345Y-109729835D01*
G37*
D11*
X55880000Y-110490000D03*
D10*
G36*
X59536345Y-112269835D02*
G01*
X59573329Y-112275321D01*
X59609598Y-112284406D01*
X59644802Y-112297002D01*
X59678602Y-112312988D01*
X59710672Y-112332210D01*
X59740704Y-112354483D01*
X59768408Y-112379592D01*
X59793517Y-112407296D01*
X59815790Y-112437328D01*
X59835012Y-112469398D01*
X59850998Y-112503198D01*
X59863594Y-112538402D01*
X59872679Y-112574671D01*
X59878165Y-112611655D01*
X59880000Y-112649000D01*
X59880000Y-113411000D01*
X59878165Y-113448345D01*
X59872679Y-113485329D01*
X59863594Y-113521598D01*
X59850998Y-113556802D01*
X59835012Y-113590602D01*
X59815790Y-113622672D01*
X59793517Y-113652704D01*
X59768408Y-113680408D01*
X59740704Y-113705517D01*
X59710672Y-113727790D01*
X59678602Y-113747012D01*
X59644802Y-113762998D01*
X59609598Y-113775594D01*
X59573329Y-113784679D01*
X59536345Y-113790165D01*
X59499000Y-113792000D01*
X52261000Y-113792000D01*
X52223655Y-113790165D01*
X52186671Y-113784679D01*
X52150402Y-113775594D01*
X52115198Y-113762998D01*
X52081398Y-113747012D01*
X52049328Y-113727790D01*
X52019296Y-113705517D01*
X51991592Y-113680408D01*
X51966483Y-113652704D01*
X51944210Y-113622672D01*
X51924988Y-113590602D01*
X51909002Y-113556802D01*
X51896406Y-113521598D01*
X51887321Y-113485329D01*
X51881835Y-113448345D01*
X51880000Y-113411000D01*
X51880000Y-112649000D01*
X51881835Y-112611655D01*
X51887321Y-112574671D01*
X51896406Y-112538402D01*
X51909002Y-112503198D01*
X51924988Y-112469398D01*
X51944210Y-112437328D01*
X51966483Y-112407296D01*
X51991592Y-112379592D01*
X52019296Y-112354483D01*
X52049328Y-112332210D01*
X52081398Y-112312988D01*
X52115198Y-112297002D01*
X52150402Y-112284406D01*
X52186671Y-112275321D01*
X52223655Y-112269835D01*
X52261000Y-112268000D01*
X59499000Y-112268000D01*
X59536345Y-112269835D01*
X59536345Y-112269835D01*
G37*
D11*
X55880000Y-113030000D03*
D10*
G36*
X59536345Y-117349835D02*
G01*
X59573329Y-117355321D01*
X59609598Y-117364406D01*
X59644802Y-117377002D01*
X59678602Y-117392988D01*
X59710672Y-117412210D01*
X59740704Y-117434483D01*
X59768408Y-117459592D01*
X59793517Y-117487296D01*
X59815790Y-117517328D01*
X59835012Y-117549398D01*
X59850998Y-117583198D01*
X59863594Y-117618402D01*
X59872679Y-117654671D01*
X59878165Y-117691655D01*
X59880000Y-117729000D01*
X59880000Y-118491000D01*
X59878165Y-118528345D01*
X59872679Y-118565329D01*
X59863594Y-118601598D01*
X59850998Y-118636802D01*
X59835012Y-118670602D01*
X59815790Y-118702672D01*
X59793517Y-118732704D01*
X59768408Y-118760408D01*
X59740704Y-118785517D01*
X59710672Y-118807790D01*
X59678602Y-118827012D01*
X59644802Y-118842998D01*
X59609598Y-118855594D01*
X59573329Y-118864679D01*
X59536345Y-118870165D01*
X59499000Y-118872000D01*
X52261000Y-118872000D01*
X52223655Y-118870165D01*
X52186671Y-118864679D01*
X52150402Y-118855594D01*
X52115198Y-118842998D01*
X52081398Y-118827012D01*
X52049328Y-118807790D01*
X52019296Y-118785517D01*
X51991592Y-118760408D01*
X51966483Y-118732704D01*
X51944210Y-118702672D01*
X51924988Y-118670602D01*
X51909002Y-118636802D01*
X51896406Y-118601598D01*
X51887321Y-118565329D01*
X51881835Y-118528345D01*
X51880000Y-118491000D01*
X51880000Y-117729000D01*
X51881835Y-117691655D01*
X51887321Y-117654671D01*
X51896406Y-117618402D01*
X51909002Y-117583198D01*
X51924988Y-117549398D01*
X51944210Y-117517328D01*
X51966483Y-117487296D01*
X51991592Y-117459592D01*
X52019296Y-117434483D01*
X52049328Y-117412210D01*
X52081398Y-117392988D01*
X52115198Y-117377002D01*
X52150402Y-117364406D01*
X52186671Y-117355321D01*
X52223655Y-117349835D01*
X52261000Y-117348000D01*
X59499000Y-117348000D01*
X59536345Y-117349835D01*
X59536345Y-117349835D01*
G37*
D11*
X55880000Y-118110000D03*
D10*
G36*
X59536345Y-119889835D02*
G01*
X59573329Y-119895321D01*
X59609598Y-119904406D01*
X59644802Y-119917002D01*
X59678602Y-119932988D01*
X59710672Y-119952210D01*
X59740704Y-119974483D01*
X59768408Y-119999592D01*
X59793517Y-120027296D01*
X59815790Y-120057328D01*
X59835012Y-120089398D01*
X59850998Y-120123198D01*
X59863594Y-120158402D01*
X59872679Y-120194671D01*
X59878165Y-120231655D01*
X59880000Y-120269000D01*
X59880000Y-121031000D01*
X59878165Y-121068345D01*
X59872679Y-121105329D01*
X59863594Y-121141598D01*
X59850998Y-121176802D01*
X59835012Y-121210602D01*
X59815790Y-121242672D01*
X59793517Y-121272704D01*
X59768408Y-121300408D01*
X59740704Y-121325517D01*
X59710672Y-121347790D01*
X59678602Y-121367012D01*
X59644802Y-121382998D01*
X59609598Y-121395594D01*
X59573329Y-121404679D01*
X59536345Y-121410165D01*
X59499000Y-121412000D01*
X52261000Y-121412000D01*
X52223655Y-121410165D01*
X52186671Y-121404679D01*
X52150402Y-121395594D01*
X52115198Y-121382998D01*
X52081398Y-121367012D01*
X52049328Y-121347790D01*
X52019296Y-121325517D01*
X51991592Y-121300408D01*
X51966483Y-121272704D01*
X51944210Y-121242672D01*
X51924988Y-121210602D01*
X51909002Y-121176802D01*
X51896406Y-121141598D01*
X51887321Y-121105329D01*
X51881835Y-121068345D01*
X51880000Y-121031000D01*
X51880000Y-120269000D01*
X51881835Y-120231655D01*
X51887321Y-120194671D01*
X51896406Y-120158402D01*
X51909002Y-120123198D01*
X51924988Y-120089398D01*
X51944210Y-120057328D01*
X51966483Y-120027296D01*
X51991592Y-119999592D01*
X52019296Y-119974483D01*
X52049328Y-119952210D01*
X52081398Y-119932988D01*
X52115198Y-119917002D01*
X52150402Y-119904406D01*
X52186671Y-119895321D01*
X52223655Y-119889835D01*
X52261000Y-119888000D01*
X59499000Y-119888000D01*
X59536345Y-119889835D01*
X59536345Y-119889835D01*
G37*
D11*
X55880000Y-120650000D03*
D12*
X116840000Y-105410000D03*
X109220000Y-123190000D03*
X116840000Y-107950000D03*
X109220000Y-120650000D03*
X116840000Y-110490000D03*
X109220000Y-118110000D03*
X116840000Y-113030000D03*
X109220000Y-115570000D03*
X116840000Y-115570000D03*
X109220000Y-113030000D03*
X116840000Y-118110000D03*
X109220000Y-110490000D03*
X116840000Y-120650000D03*
X109220000Y-107950000D03*
X116840000Y-123190000D03*
D13*
X109220000Y-105410000D03*
D14*
X138430000Y-80010000D03*
X138430000Y-77470000D03*
X140970000Y-80010000D03*
X140970000Y-77470000D03*
X143510000Y-80010000D03*
X143510000Y-77470000D03*
X146050000Y-80010000D03*
X146050000Y-77470000D03*
X148590000Y-80010000D03*
X148590000Y-77470000D03*
X151130000Y-80010000D03*
X151130000Y-77470000D03*
X153670000Y-80010000D03*
X153670000Y-77470000D03*
X156210000Y-80010000D03*
D15*
X156210000Y-77470000D03*
D16*
X126920000Y-101600000D03*
X121920000Y-101600000D03*
D17*
X68580000Y-82550000D03*
X83820000Y-82550000D03*
X68580000Y-85090000D03*
X83820000Y-85090000D03*
X68580000Y-87630000D03*
X83820000Y-87630000D03*
X68580000Y-90170000D03*
X83820000Y-90170000D03*
X68580000Y-92710000D03*
X83820000Y-92710000D03*
X68580000Y-95250000D03*
X83820000Y-95250000D03*
X68580000Y-97790000D03*
X83820000Y-97790000D03*
X68580000Y-100330000D03*
X83820000Y-100330000D03*
X68580000Y-102870000D03*
X83820000Y-102870000D03*
X68580000Y-105410000D03*
X83820000Y-105410000D03*
X68580000Y-107950000D03*
X83820000Y-107950000D03*
X68580000Y-110490000D03*
X83820000Y-110490000D03*
X68580000Y-113030000D03*
X83820000Y-113030000D03*
X68580000Y-115570000D03*
D18*
X83820000Y-115570000D03*
D12*
X116840000Y-77470000D03*
X109220000Y-100330000D03*
X116840000Y-80010000D03*
X109220000Y-97790000D03*
X116840000Y-82550000D03*
X109220000Y-95250000D03*
X116840000Y-85090000D03*
X109220000Y-92710000D03*
X116840000Y-87630000D03*
X109220000Y-90170000D03*
X116840000Y-90170000D03*
X109220000Y-87630000D03*
X116840000Y-92710000D03*
X109220000Y-85090000D03*
X116840000Y-95250000D03*
X109220000Y-82550000D03*
X116840000Y-97790000D03*
X109220000Y-80010000D03*
X116840000Y-100330000D03*
D13*
X109220000Y-77470000D03*
D12*
X128270000Y-105410000D03*
X120650000Y-123190000D03*
X128270000Y-107950000D03*
X120650000Y-120650000D03*
X128270000Y-110490000D03*
X120650000Y-118110000D03*
X128270000Y-113030000D03*
X120650000Y-115570000D03*
X128270000Y-115570000D03*
X120650000Y-113030000D03*
X128270000Y-118110000D03*
X120650000Y-110490000D03*
X128270000Y-120650000D03*
X120650000Y-107950000D03*
X128270000Y-123190000D03*
D13*
X120650000Y-105410000D03*
D12*
X128270000Y-80010000D03*
X120650000Y-97790000D03*
X128270000Y-82550000D03*
X120650000Y-95250000D03*
X128270000Y-85090000D03*
X120650000Y-92710000D03*
X128270000Y-87630000D03*
X120650000Y-90170000D03*
X128270000Y-90170000D03*
X120650000Y-87630000D03*
X128270000Y-92710000D03*
X120650000Y-85090000D03*
X128270000Y-95250000D03*
X120650000Y-82550000D03*
X128270000Y-97790000D03*
D13*
X120650000Y-80010000D03*
D12*
X90170000Y-115570000D03*
X105410000Y-82550000D03*
X90170000Y-113030000D03*
X105410000Y-85090000D03*
X90170000Y-110490000D03*
X105410000Y-87630000D03*
X90170000Y-107950000D03*
X105410000Y-90170000D03*
X90170000Y-105410000D03*
X105410000Y-92710000D03*
X90170000Y-102870000D03*
X105410000Y-95250000D03*
X90170000Y-100330000D03*
X105410000Y-97790000D03*
X90170000Y-97790000D03*
X105410000Y-100330000D03*
X90170000Y-95250000D03*
X105410000Y-102870000D03*
X90170000Y-92710000D03*
X105410000Y-105410000D03*
X90170000Y-90170000D03*
X105410000Y-107950000D03*
X90170000Y-87630000D03*
X105410000Y-110490000D03*
X90170000Y-85090000D03*
X105410000Y-113030000D03*
X90170000Y-82550000D03*
D13*
X105410000Y-115570000D03*
D19*
X92710000Y-104140000D03*
X91985000Y-99060000D03*
X118110000Y-102235000D03*
X114935000Y-116840000D03*
X107315000Y-93980000D03*
X125095000Y-102870000D03*
X102870000Y-111760000D03*
X111760000Y-114300000D03*
X111760000Y-106680000D03*
X107315000Y-118020000D03*
X65405000Y-77470000D03*
X96520000Y-86360000D03*
X95885000Y-88900000D03*
X95250000Y-91440000D03*
X94615000Y-93980000D03*
X130810000Y-96520000D03*
X93980000Y-96520000D03*
X66040000Y-111760000D03*
X66040000Y-125095000D03*
X122555000Y-125095000D03*
X130810000Y-100330000D03*
X146050000Y-83185000D03*
X71100000Y-118090000D03*
X91440000Y-119380000D03*
X130810000Y-99060000D03*
X130810000Y-109220000D03*
X130810000Y-111760000D03*
X125730000Y-110490000D03*
D20*
X55880000Y-80010000D02*
X79375000Y-80010000D01*
X81915000Y-82550000D02*
X83820000Y-82550000D01*
X79375000Y-80010000D02*
X81915000Y-82550000D01*
X104610001Y-81750001D02*
X105410000Y-82550000D01*
X104159999Y-81299999D02*
X104610001Y-81750001D01*
X86470001Y-81299999D02*
X104159999Y-81299999D01*
X85220000Y-82550000D02*
X86470001Y-81299999D01*
X83820000Y-82550000D02*
X85220000Y-82550000D01*
D21*
X90170000Y-95250000D02*
X86360000Y-95250000D01*
X86360000Y-95250000D02*
X85090000Y-96520000D01*
X85090000Y-96520000D02*
X71120000Y-96520000D01*
X69850000Y-95250000D02*
X68580000Y-95250000D01*
X71120000Y-96520000D02*
X69850000Y-95250000D01*
X108170000Y-105410000D02*
X106900000Y-104140000D01*
X109220000Y-105410000D02*
X108170000Y-105410000D01*
X106900000Y-104140000D02*
X92710000Y-104140000D01*
X106045000Y-99060000D02*
X92075000Y-99060000D01*
X107315000Y-100330000D02*
X106045000Y-99060000D01*
X107315000Y-101600000D02*
X107315000Y-100330000D01*
X92075000Y-99060000D02*
X91985000Y-99060000D01*
X118110000Y-102235000D02*
X107950000Y-102235000D01*
X107950000Y-102235000D02*
X107315000Y-101600000D01*
D20*
X68580000Y-115570000D02*
X83820000Y-115570000D01*
X83820000Y-115570000D02*
X90170000Y-115570000D01*
X125730000Y-77470000D02*
X128270000Y-80010000D01*
X116840000Y-77470000D02*
X125730000Y-77470000D01*
X151130000Y-77470000D02*
X151130000Y-80010000D01*
X149225000Y-75565000D02*
X151130000Y-77470000D01*
X132715000Y-75565000D02*
X149225000Y-75565000D01*
X128270000Y-80010000D02*
X132715000Y-75565000D01*
X104269998Y-116840000D02*
X114935000Y-116840000D01*
X91440000Y-116840000D02*
X104269998Y-116840000D01*
X90170000Y-115570000D02*
X91440000Y-116840000D01*
X127470001Y-104610001D02*
X128270000Y-105410000D01*
X127019999Y-104159999D02*
X127470001Y-104610001D01*
X118090001Y-104159999D02*
X127019999Y-104159999D01*
X116840000Y-105410000D02*
X118090001Y-104159999D01*
D21*
X85070000Y-85090000D02*
X83820000Y-85090000D01*
X86195001Y-83964999D02*
X85070000Y-85090000D01*
X90710001Y-83964999D02*
X86195001Y-83964999D01*
X91835002Y-85090000D02*
X90710001Y-83964999D01*
X105410000Y-85090000D02*
X91835002Y-85090000D01*
X105410000Y-85090000D02*
X109220000Y-85090000D01*
X64770000Y-82550000D02*
X55880000Y-82550000D01*
X69850000Y-83820000D02*
X66040000Y-83820000D01*
X71120000Y-85090000D02*
X69850000Y-83820000D01*
X66040000Y-83820000D02*
X64770000Y-82550000D01*
X83820000Y-85090000D02*
X71120000Y-85090000D01*
X120650000Y-92710000D02*
X119380000Y-92710000D01*
X119380000Y-92710000D02*
X118110000Y-93980000D01*
X118110000Y-93980000D02*
X107315000Y-93980000D01*
X90710001Y-86504999D02*
X86195001Y-86504999D01*
X91835002Y-87630000D02*
X90710001Y-86504999D01*
X85070000Y-87630000D02*
X83820000Y-87630000D01*
X86195001Y-86504999D02*
X85070000Y-87630000D01*
X105410000Y-87630000D02*
X91835002Y-87630000D01*
X83820000Y-87630000D02*
X71120000Y-87630000D01*
X71120000Y-87630000D02*
X69850000Y-86360000D01*
X69850000Y-86360000D02*
X66040000Y-86360000D01*
X66040000Y-86360000D02*
X64770000Y-85090000D01*
X64770000Y-85090000D02*
X55880000Y-85090000D01*
X109220000Y-82550000D02*
X111760000Y-82550000D01*
X111760000Y-82550000D02*
X115570000Y-86360000D01*
X115570000Y-86360000D02*
X119380000Y-86360000D01*
X119380000Y-86360000D02*
X120650000Y-87630000D01*
X85070000Y-90170000D02*
X83820000Y-90170000D01*
X86195001Y-89044999D02*
X85070000Y-90170000D01*
X90710001Y-89044999D02*
X86195001Y-89044999D01*
X91835002Y-90170000D02*
X90710001Y-89044999D01*
X105410000Y-90170000D02*
X91835002Y-90170000D01*
X83820000Y-90170000D02*
X71120000Y-90170000D01*
X71120000Y-90170000D02*
X69850000Y-88900000D01*
X69850000Y-88900000D02*
X66040000Y-88900000D01*
X66040000Y-88900000D02*
X64770000Y-87630000D01*
X64770000Y-87630000D02*
X55880000Y-87630000D01*
X111760000Y-80010000D02*
X109220000Y-80010000D01*
X115570000Y-83820000D02*
X111760000Y-80010000D01*
X119380000Y-83820000D02*
X115570000Y-83820000D01*
X120650000Y-85090000D02*
X119380000Y-83820000D01*
X86195001Y-91584999D02*
X85070000Y-92710000D01*
X90710001Y-91584999D02*
X86195001Y-91584999D01*
X91835002Y-92710000D02*
X90710001Y-91584999D01*
X85070000Y-92710000D02*
X83820000Y-92710000D01*
X105410000Y-92710000D02*
X91835002Y-92710000D01*
X83820000Y-92710000D02*
X71120000Y-92710000D01*
X71120000Y-92710000D02*
X69850000Y-91440000D01*
X69850000Y-91440000D02*
X66040000Y-91440000D01*
X66040000Y-91440000D02*
X64770000Y-90170000D01*
X64770000Y-90170000D02*
X55880000Y-90170000D01*
X85070000Y-95250000D02*
X83820000Y-95250000D01*
X86195001Y-94124999D02*
X85070000Y-95250000D01*
X91835002Y-95250000D02*
X90710001Y-94124999D01*
X90710001Y-94124999D02*
X86195001Y-94124999D01*
X105410000Y-95250000D02*
X91835002Y-95250000D01*
X83820000Y-95250000D02*
X71120000Y-95250000D01*
X71120000Y-95250000D02*
X69850000Y-93980000D01*
X69850000Y-93980000D02*
X66040000Y-93980000D01*
X66040000Y-93980000D02*
X64770000Y-92710000D01*
X64770000Y-92710000D02*
X55880000Y-92710000D01*
X85070000Y-97790000D02*
X83820000Y-97790000D01*
X86195001Y-96664999D02*
X85070000Y-97790000D01*
X90710001Y-96664999D02*
X86195001Y-96664999D01*
X91835002Y-97790000D02*
X90710001Y-96664999D01*
X105410000Y-97790000D02*
X91835002Y-97790000D01*
X83820000Y-97790000D02*
X71120000Y-97790000D01*
X71120000Y-97790000D02*
X69850000Y-96520000D01*
X69850000Y-96520000D02*
X66040000Y-96520000D01*
X66040000Y-96520000D02*
X64770000Y-95250000D01*
X64770000Y-95250000D02*
X55880000Y-95250000D01*
X86195001Y-99204999D02*
X85070000Y-100330000D01*
X90710001Y-99204999D02*
X86195001Y-99204999D01*
X91835002Y-100330000D02*
X90710001Y-99204999D01*
X85070000Y-100330000D02*
X83820000Y-100330000D01*
X105410000Y-100330000D02*
X91835002Y-100330000D01*
X83820000Y-100330000D02*
X71120000Y-100330000D01*
X71120000Y-100330000D02*
X69850000Y-99060000D01*
X69850000Y-99060000D02*
X66040000Y-99060000D01*
X66040000Y-99060000D02*
X64770000Y-97790000D01*
X64770000Y-97790000D02*
X55880000Y-97790000D01*
X106864991Y-101784991D02*
X105410000Y-100330000D01*
X106864991Y-101786401D02*
X106864991Y-101784991D01*
X107948590Y-102870000D02*
X106864991Y-101786401D01*
X107950000Y-102870000D02*
X107948590Y-102870000D01*
X108585000Y-103505000D02*
X107950000Y-102870000D01*
X124460000Y-103505000D02*
X108585000Y-103505000D01*
X124460000Y-103505000D02*
X125095000Y-102870000D01*
X85070000Y-102870000D02*
X83820000Y-102870000D01*
X86195001Y-101744999D02*
X85070000Y-102870000D01*
X91835002Y-102870000D02*
X90710001Y-101744999D01*
X90710001Y-101744999D02*
X86195001Y-101744999D01*
X105410000Y-102870000D02*
X91835002Y-102870000D01*
X83820000Y-102870000D02*
X71120000Y-102870000D01*
X71120000Y-102870000D02*
X69850000Y-101600000D01*
X69850000Y-101600000D02*
X66040000Y-101600000D01*
X66040000Y-101600000D02*
X64770000Y-100330000D01*
X64770000Y-100330000D02*
X55880000Y-100330000D01*
X126365000Y-111760000D02*
X102870000Y-111760000D01*
X127635000Y-110490000D02*
X126365000Y-111760000D01*
X128270000Y-110490000D02*
X127635000Y-110490000D01*
X102870000Y-111760000D02*
X102870000Y-111760000D01*
X85070000Y-105410000D02*
X83820000Y-105410000D01*
X86195001Y-104284999D02*
X85070000Y-105410000D01*
X91835002Y-105410000D02*
X90710001Y-104284999D01*
X90710001Y-104284999D02*
X86195001Y-104284999D01*
X105410000Y-105410000D02*
X91835002Y-105410000D01*
X83820000Y-105410000D02*
X71120000Y-105410000D01*
X71120000Y-105410000D02*
X69850000Y-104140000D01*
X69850000Y-104140000D02*
X66040000Y-104140000D01*
X66040000Y-104140000D02*
X64770000Y-102870000D01*
X64770000Y-102870000D02*
X55880000Y-102870000D01*
X128270000Y-113030000D02*
X127000000Y-114300000D01*
X127000000Y-114300000D02*
X116205000Y-114300000D01*
X116205000Y-114300000D02*
X111760000Y-114300000D01*
X106680000Y-106680000D02*
X105410000Y-105410000D01*
X111760000Y-106680000D02*
X106680000Y-106680000D01*
X85070000Y-107950000D02*
X83820000Y-107950000D01*
X86195001Y-106824999D02*
X85070000Y-107950000D01*
X90710001Y-106824999D02*
X86195001Y-106824999D01*
X91835002Y-107950000D02*
X90710001Y-106824999D01*
X105410000Y-107950000D02*
X91835002Y-107950000D01*
X83820000Y-107950000D02*
X71120000Y-107950000D01*
X71120000Y-107950000D02*
X69850000Y-106680000D01*
X69850000Y-106680000D02*
X66040000Y-106680000D01*
X66040000Y-106680000D02*
X64770000Y-105410000D01*
X64770000Y-105410000D02*
X55880000Y-105410000D01*
X85070000Y-110490000D02*
X83820000Y-110490000D01*
X86195001Y-109364999D02*
X85070000Y-110490000D01*
X91835002Y-110490000D02*
X90710001Y-109364999D01*
X90710001Y-109364999D02*
X86195001Y-109364999D01*
X105410000Y-110490000D02*
X91835002Y-110490000D01*
X83820000Y-110490000D02*
X71120000Y-110490000D01*
X71120000Y-110490000D02*
X69850000Y-109220000D01*
X69850000Y-109220000D02*
X66040000Y-109220000D01*
X66040000Y-109220000D02*
X64770000Y-107950000D01*
X64770000Y-107950000D02*
X55880000Y-107950000D01*
X105410000Y-113030000D02*
X92710000Y-113030000D01*
X85070000Y-113030000D02*
X83820000Y-113030000D01*
X86195001Y-111904999D02*
X85070000Y-113030000D01*
X91440000Y-111904999D02*
X86195001Y-111904999D01*
X91440000Y-111904999D02*
X91584999Y-111904999D01*
X91584999Y-111904999D02*
X92710000Y-113030000D01*
X66040000Y-110490000D02*
X55880000Y-110490000D01*
X67310000Y-111760000D02*
X66040000Y-110490000D01*
X69850000Y-111760000D02*
X67310000Y-111760000D01*
X71120000Y-113030000D02*
X69850000Y-111760000D01*
X83820000Y-113030000D02*
X71120000Y-113030000D01*
X55880000Y-113030000D02*
X64770000Y-113030000D01*
X64770000Y-113030000D02*
X66040000Y-114300000D01*
X66040000Y-114300000D02*
X66040000Y-115570000D01*
X66040000Y-115570000D02*
X67310000Y-116840000D01*
X67310000Y-116840000D02*
X87630000Y-116840000D01*
X92105010Y-117415010D02*
X92710000Y-118020000D01*
X88205010Y-117415010D02*
X92105010Y-117415010D01*
X87630000Y-116840000D02*
X88205010Y-117415010D01*
X92710000Y-118020000D02*
X107315000Y-118020000D01*
X119380000Y-106680000D02*
X115570000Y-106680000D01*
X120650000Y-107950000D02*
X119380000Y-106680000D01*
X115570000Y-106680000D02*
X114300000Y-107950000D01*
X114300000Y-107950000D02*
X109220000Y-107950000D01*
X119600000Y-80010000D02*
X118330000Y-78740000D01*
X120650000Y-80010000D02*
X119600000Y-80010000D01*
X118330000Y-78740000D02*
X66675000Y-78740000D01*
X66675000Y-78740000D02*
X65405000Y-77470000D01*
X107075002Y-87630000D02*
X105805002Y-86360000D01*
X109220000Y-87630000D02*
X107075002Y-87630000D01*
X105805002Y-86360000D02*
X96520000Y-86360000D01*
X71100000Y-83820000D02*
X85090000Y-83820000D01*
X69830000Y-82550000D02*
X71100000Y-83820000D01*
X68580000Y-82550000D02*
X69830000Y-82550000D01*
X86360000Y-82550000D02*
X90170000Y-82550000D01*
X85090000Y-83820000D02*
X86360000Y-82550000D01*
X107075002Y-90170000D02*
X105805002Y-88900000D01*
X109220000Y-90170000D02*
X107075002Y-90170000D01*
X105805002Y-88900000D02*
X95885000Y-88900000D01*
X90170000Y-85090000D02*
X86360000Y-85090000D01*
X86360000Y-85090000D02*
X85090000Y-86360000D01*
X85090000Y-86360000D02*
X71120000Y-86360000D01*
X69850000Y-85090000D02*
X68580000Y-85090000D01*
X71120000Y-86360000D02*
X69850000Y-85090000D01*
X107075002Y-92710000D02*
X105805002Y-91440000D01*
X109220000Y-92710000D02*
X107075002Y-92710000D01*
X105805002Y-91440000D02*
X95250000Y-91440000D01*
X116275999Y-91534999D02*
X127094999Y-91534999D01*
X127094999Y-91534999D02*
X127470001Y-91910001D01*
X115100998Y-92710000D02*
X116275999Y-91534999D01*
X127470001Y-91910001D02*
X128270000Y-92710000D01*
X109220000Y-92710000D02*
X115100998Y-92710000D01*
X69850000Y-87630000D02*
X68580000Y-87630000D01*
X71120000Y-88900000D02*
X69850000Y-87630000D01*
X85090000Y-88900000D02*
X71120000Y-88900000D01*
X86360000Y-87630000D02*
X85090000Y-88900000D01*
X90170000Y-87630000D02*
X86360000Y-87630000D01*
X107075002Y-95250000D02*
X105805002Y-93980000D01*
X109220000Y-95250000D02*
X107075002Y-95250000D01*
X105805002Y-93980000D02*
X94615000Y-93980000D01*
X90170000Y-90170000D02*
X86360000Y-90170000D01*
X86360000Y-90170000D02*
X85090000Y-91440000D01*
X85090000Y-91440000D02*
X71120000Y-91440000D01*
X69850000Y-90170000D02*
X68580000Y-90170000D01*
X71120000Y-91440000D02*
X69850000Y-90170000D01*
X109220000Y-95250000D02*
X114935000Y-95250000D01*
X114935000Y-95250000D02*
X116205000Y-96520000D01*
X116205000Y-96520000D02*
X130810000Y-96520000D01*
X107075002Y-97790000D02*
X105805002Y-96520000D01*
X109220000Y-97790000D02*
X107075002Y-97790000D01*
X105805002Y-96520000D02*
X93980000Y-96520000D01*
X85090000Y-93980000D02*
X71120000Y-93980000D01*
X86360000Y-92710000D02*
X85090000Y-93980000D01*
X90170000Y-92710000D02*
X86360000Y-92710000D01*
X69850000Y-92710000D02*
X68580000Y-92710000D01*
X71120000Y-93980000D02*
X69850000Y-92710000D01*
X90170000Y-97790000D02*
X86360000Y-97790000D01*
X86360000Y-97790000D02*
X85090000Y-99060000D01*
X85090000Y-99060000D02*
X71120000Y-99060000D01*
X69850000Y-97790000D02*
X68580000Y-97790000D01*
X71120000Y-99060000D02*
X69850000Y-97790000D01*
X90170000Y-102870000D02*
X86360000Y-102870000D01*
X86360000Y-102870000D02*
X85090000Y-104140000D01*
X85090000Y-104140000D02*
X71120000Y-104140000D01*
X69850000Y-102870000D02*
X68580000Y-102870000D01*
X71120000Y-104140000D02*
X69850000Y-102870000D01*
X71120000Y-106680000D02*
X69850000Y-105410000D01*
X85090000Y-106680000D02*
X71120000Y-106680000D01*
X69850000Y-105410000D02*
X68580000Y-105410000D01*
X86360000Y-105410000D02*
X85090000Y-106680000D01*
X90170000Y-105410000D02*
X86360000Y-105410000D01*
X90170000Y-107950000D02*
X86360000Y-107950000D01*
X86360000Y-107950000D02*
X85090000Y-109220000D01*
X85090000Y-109220000D02*
X71120000Y-109220000D01*
X69850000Y-107950000D02*
X68580000Y-107950000D01*
X71120000Y-109220000D02*
X69850000Y-107950000D01*
X90170000Y-110490000D02*
X86360000Y-110490000D01*
X86360000Y-110490000D02*
X85090000Y-111760000D01*
X85090000Y-111760000D02*
X71120000Y-111760000D01*
X69850000Y-110490000D02*
X68580000Y-110490000D01*
X71120000Y-111760000D02*
X69850000Y-110490000D01*
X92710000Y-115570000D02*
X91440000Y-114300000D01*
X91440000Y-114300000D02*
X67310000Y-114300000D01*
X105410000Y-115570000D02*
X92710000Y-115570000D01*
X67310000Y-114300000D02*
X66040000Y-113030000D01*
X66040000Y-113030000D02*
X66040000Y-111760000D01*
X122555000Y-125095000D02*
X66040000Y-125095000D01*
X130810000Y-100330000D02*
X116840000Y-100330000D01*
X116840000Y-82550000D02*
X120650000Y-82550000D01*
X141605000Y-81915000D02*
X143510000Y-80010000D01*
X129049999Y-81424999D02*
X129540000Y-81915000D01*
X120650000Y-82550000D02*
X126604998Y-82550000D01*
X127729999Y-81424999D02*
X129049999Y-81424999D01*
X126604998Y-82550000D02*
X127729999Y-81424999D01*
X129540000Y-81915000D02*
X141605000Y-81915000D01*
X133350000Y-84455000D02*
X144780000Y-84455000D01*
X132080000Y-85725000D02*
X133350000Y-84455000D01*
X129540000Y-91440000D02*
X132080000Y-88900000D01*
X127874998Y-91440000D02*
X129540000Y-91440000D01*
X132080000Y-88900000D02*
X132080000Y-85725000D01*
X126604998Y-90170000D02*
X127874998Y-91440000D01*
X120650000Y-90170000D02*
X126604998Y-90170000D01*
X144780000Y-84455000D02*
X146050000Y-83185000D01*
X146685000Y-81915000D02*
X148590000Y-80010000D01*
X143510000Y-81915000D02*
X146685000Y-81915000D01*
X142240000Y-83185000D02*
X143510000Y-81915000D01*
X132080000Y-83185000D02*
X142240000Y-83185000D01*
X130810000Y-84455000D02*
X132080000Y-83185000D01*
X129540000Y-88900000D02*
X130810000Y-87630000D01*
X118110000Y-88900000D02*
X129540000Y-88900000D01*
X130810000Y-87630000D02*
X130810000Y-84455000D01*
X116840000Y-87630000D02*
X118110000Y-88900000D01*
X91420000Y-118090000D02*
X71100000Y-118090000D01*
X92075000Y-118745000D02*
X91420000Y-118090000D01*
X106045000Y-118745000D02*
X92075000Y-118745000D01*
X115570000Y-119380000D02*
X116840000Y-118110000D01*
X106680000Y-119380000D02*
X115570000Y-119380000D01*
X106045000Y-118745000D02*
X106680000Y-119380000D01*
X107950000Y-121920000D02*
X115570000Y-121920000D01*
X115570000Y-121920000D02*
X116840000Y-123190000D01*
X107950000Y-121920000D02*
X105410000Y-119380000D01*
X105410000Y-119380000D02*
X104775000Y-119380000D01*
X91440000Y-119380000D02*
X104775000Y-119380000D01*
X118110000Y-99060000D02*
X130810000Y-99060000D01*
X116840000Y-97790000D02*
X118110000Y-99060000D01*
X116840000Y-95250000D02*
X118110000Y-95250000D01*
X118110000Y-95250000D02*
X119380000Y-93980000D01*
X119380000Y-93980000D02*
X127000000Y-93980000D01*
X127000000Y-93980000D02*
X128270000Y-95250000D01*
X115570000Y-109220000D02*
X130810000Y-109220000D01*
X115570000Y-109220000D02*
X114300000Y-110490000D01*
X114300000Y-110490000D02*
X109220000Y-110490000D01*
X126530998Y-113030000D02*
X127800998Y-111760000D01*
X120650000Y-113030000D02*
X126530998Y-113030000D01*
X128739002Y-111760000D02*
X130810000Y-111760000D01*
X127800998Y-111760000D02*
X128739002Y-111760000D01*
X107950000Y-114300000D02*
X109220000Y-113030000D01*
X92710000Y-114300000D02*
X107950000Y-114300000D01*
X92710000Y-114300000D02*
X91440000Y-113030000D01*
X91440000Y-113030000D02*
X90170000Y-113030000D01*
X120650000Y-110490000D02*
X125730000Y-110490000D01*
D22*
G36*
X115425764Y-112748691D02*
G01*
X115398057Y-113030000D01*
X115425764Y-113311309D01*
X115495136Y-113540000D01*
X112463711Y-113540000D01*
X112419774Y-113496063D01*
X112250256Y-113382795D01*
X112061898Y-113304774D01*
X111861939Y-113265000D01*
X111658061Y-113265000D01*
X111458102Y-113304774D01*
X111269744Y-113382795D01*
X111100226Y-113496063D01*
X110956063Y-113640226D01*
X110842795Y-113809744D01*
X110764774Y-113998102D01*
X110725000Y-114198061D01*
X110725000Y-114401939D01*
X110764774Y-114601898D01*
X110842795Y-114790256D01*
X110956063Y-114959774D01*
X111100226Y-115103937D01*
X111269744Y-115217205D01*
X111458102Y-115295226D01*
X111658061Y-115335000D01*
X111861939Y-115335000D01*
X112061898Y-115295226D01*
X112250256Y-115217205D01*
X112419774Y-115103937D01*
X112463711Y-115060000D01*
X115495136Y-115060000D01*
X115425764Y-115288691D01*
X115398057Y-115570000D01*
X115425764Y-115851309D01*
X115507818Y-116121808D01*
X115641068Y-116371101D01*
X115820392Y-116589608D01*
X116038899Y-116768932D01*
X116171858Y-116840000D01*
X116038899Y-116911068D01*
X115820392Y-117090392D01*
X115641068Y-117308899D01*
X115507818Y-117558192D01*
X115425764Y-117828691D01*
X115398057Y-118110000D01*
X115425764Y-118391309D01*
X115439292Y-118435906D01*
X115255199Y-118620000D01*
X110564864Y-118620000D01*
X110634236Y-118391309D01*
X110661943Y-118110000D01*
X110634236Y-117828691D01*
X110552182Y-117558192D01*
X110418932Y-117308899D01*
X110239608Y-117090392D01*
X110021101Y-116911068D01*
X109888142Y-116840000D01*
X110021101Y-116768932D01*
X110239608Y-116589608D01*
X110418932Y-116371101D01*
X110552182Y-116121808D01*
X110634236Y-115851309D01*
X110661943Y-115570000D01*
X110634236Y-115288691D01*
X110552182Y-115018192D01*
X110418932Y-114768899D01*
X110239608Y-114550392D01*
X110021101Y-114371068D01*
X109888142Y-114300000D01*
X110021101Y-114228932D01*
X110239608Y-114049608D01*
X110418932Y-113831101D01*
X110552182Y-113581808D01*
X110634236Y-113311309D01*
X110661943Y-113030000D01*
X110634236Y-112748691D01*
X110564864Y-112520000D01*
X115495136Y-112520000D01*
X115425764Y-112748691D01*
X115425764Y-112748691D01*
G37*
X115425764Y-112748691D02*
X115398057Y-113030000D01*
X115425764Y-113311309D01*
X115495136Y-113540000D01*
X112463711Y-113540000D01*
X112419774Y-113496063D01*
X112250256Y-113382795D01*
X112061898Y-113304774D01*
X111861939Y-113265000D01*
X111658061Y-113265000D01*
X111458102Y-113304774D01*
X111269744Y-113382795D01*
X111100226Y-113496063D01*
X110956063Y-113640226D01*
X110842795Y-113809744D01*
X110764774Y-113998102D01*
X110725000Y-114198061D01*
X110725000Y-114401939D01*
X110764774Y-114601898D01*
X110842795Y-114790256D01*
X110956063Y-114959774D01*
X111100226Y-115103937D01*
X111269744Y-115217205D01*
X111458102Y-115295226D01*
X111658061Y-115335000D01*
X111861939Y-115335000D01*
X112061898Y-115295226D01*
X112250256Y-115217205D01*
X112419774Y-115103937D01*
X112463711Y-115060000D01*
X115495136Y-115060000D01*
X115425764Y-115288691D01*
X115398057Y-115570000D01*
X115425764Y-115851309D01*
X115507818Y-116121808D01*
X115641068Y-116371101D01*
X115820392Y-116589608D01*
X116038899Y-116768932D01*
X116171858Y-116840000D01*
X116038899Y-116911068D01*
X115820392Y-117090392D01*
X115641068Y-117308899D01*
X115507818Y-117558192D01*
X115425764Y-117828691D01*
X115398057Y-118110000D01*
X115425764Y-118391309D01*
X115439292Y-118435906D01*
X115255199Y-118620000D01*
X110564864Y-118620000D01*
X110634236Y-118391309D01*
X110661943Y-118110000D01*
X110634236Y-117828691D01*
X110552182Y-117558192D01*
X110418932Y-117308899D01*
X110239608Y-117090392D01*
X110021101Y-116911068D01*
X109888142Y-116840000D01*
X110021101Y-116768932D01*
X110239608Y-116589608D01*
X110418932Y-116371101D01*
X110552182Y-116121808D01*
X110634236Y-115851309D01*
X110661943Y-115570000D01*
X110634236Y-115288691D01*
X110552182Y-115018192D01*
X110418932Y-114768899D01*
X110239608Y-114550392D01*
X110021101Y-114371068D01*
X109888142Y-114300000D01*
X110021101Y-114228932D01*
X110239608Y-114049608D01*
X110418932Y-113831101D01*
X110552182Y-113581808D01*
X110634236Y-113311309D01*
X110661943Y-113030000D01*
X110634236Y-112748691D01*
X110564864Y-112520000D01*
X115495136Y-112520000D01*
X115425764Y-112748691D01*
G36*
X82185000Y-115284250D02*
G01*
X82343750Y-115443000D01*
X83693000Y-115443000D01*
X83693000Y-115423000D01*
X83947000Y-115423000D01*
X83947000Y-115443000D01*
X85296250Y-115443000D01*
X85455000Y-115284250D01*
X85456586Y-115060000D01*
X88831474Y-115060000D01*
X88818754Y-115086913D01*
X88778096Y-115220961D01*
X88900085Y-115443000D01*
X90043000Y-115443000D01*
X90043000Y-115423000D01*
X90297000Y-115423000D01*
X90297000Y-115443000D01*
X91439915Y-115443000D01*
X91464128Y-115398929D01*
X92146200Y-116081002D01*
X92169999Y-116110001D01*
X92285724Y-116204974D01*
X92417753Y-116275546D01*
X92561014Y-116319003D01*
X92672667Y-116330000D01*
X92672676Y-116330000D01*
X92709999Y-116333676D01*
X92747322Y-116330000D01*
X103971928Y-116330000D01*
X103971928Y-116370000D01*
X103984188Y-116494482D01*
X104020498Y-116614180D01*
X104079463Y-116724494D01*
X104158815Y-116821185D01*
X104255506Y-116900537D01*
X104365820Y-116959502D01*
X104485518Y-116995812D01*
X104610000Y-117008072D01*
X106210000Y-117008072D01*
X106334482Y-116995812D01*
X106454180Y-116959502D01*
X106564494Y-116900537D01*
X106661185Y-116821185D01*
X106740537Y-116724494D01*
X106799502Y-116614180D01*
X106835812Y-116494482D01*
X106848072Y-116370000D01*
X106848072Y-115060000D01*
X107875136Y-115060000D01*
X107805764Y-115288691D01*
X107778057Y-115570000D01*
X107805764Y-115851309D01*
X107887818Y-116121808D01*
X108021068Y-116371101D01*
X108200392Y-116589608D01*
X108418899Y-116768932D01*
X108551858Y-116840000D01*
X108418899Y-116911068D01*
X108200392Y-117090392D01*
X108042047Y-117283336D01*
X107974774Y-117216063D01*
X107805256Y-117102795D01*
X107616898Y-117024774D01*
X107416939Y-116985000D01*
X107213061Y-116985000D01*
X107013102Y-117024774D01*
X106824744Y-117102795D01*
X106655226Y-117216063D01*
X106611289Y-117260000D01*
X93024802Y-117260000D01*
X92668813Y-116904012D01*
X92645011Y-116875009D01*
X92529286Y-116780036D01*
X92397257Y-116709464D01*
X92253996Y-116666007D01*
X92142343Y-116655010D01*
X92142332Y-116655010D01*
X92105010Y-116651334D01*
X92067688Y-116655010D01*
X91099429Y-116655010D01*
X91233519Y-116533414D01*
X91401037Y-116307420D01*
X91521246Y-116053087D01*
X91561904Y-115919039D01*
X91439915Y-115697000D01*
X90297000Y-115697000D01*
X90297000Y-115717000D01*
X90043000Y-115717000D01*
X90043000Y-115697000D01*
X88900085Y-115697000D01*
X88778096Y-115919039D01*
X88818754Y-116053087D01*
X88938963Y-116307420D01*
X89106481Y-116533414D01*
X89240571Y-116655010D01*
X88519812Y-116655010D01*
X88193803Y-116329002D01*
X88170001Y-116299999D01*
X88054276Y-116205026D01*
X87922247Y-116134454D01*
X87778986Y-116090997D01*
X87667333Y-116080000D01*
X87667322Y-116080000D01*
X87630000Y-116076324D01*
X87592678Y-116080000D01*
X85456586Y-116080000D01*
X85455000Y-115855750D01*
X85296250Y-115697000D01*
X83947000Y-115697000D01*
X83947000Y-115717000D01*
X83693000Y-115717000D01*
X83693000Y-115697000D01*
X82343750Y-115697000D01*
X82185000Y-115855750D01*
X82183414Y-116080000D01*
X70114790Y-116080000D01*
X70160458Y-115971203D01*
X70172559Y-115906472D01*
X70049489Y-115697000D01*
X68707000Y-115697000D01*
X68707000Y-115717000D01*
X68453000Y-115717000D01*
X68453000Y-115697000D01*
X68433000Y-115697000D01*
X68433000Y-115443000D01*
X68453000Y-115443000D01*
X68453000Y-115423000D01*
X68707000Y-115423000D01*
X68707000Y-115443000D01*
X70049489Y-115443000D01*
X70172559Y-115233528D01*
X70160458Y-115168797D01*
X70114790Y-115060000D01*
X82183414Y-115060000D01*
X82185000Y-115284250D01*
X82185000Y-115284250D01*
G37*
X82185000Y-115284250D02*
X82343750Y-115443000D01*
X83693000Y-115443000D01*
X83693000Y-115423000D01*
X83947000Y-115423000D01*
X83947000Y-115443000D01*
X85296250Y-115443000D01*
X85455000Y-115284250D01*
X85456586Y-115060000D01*
X88831474Y-115060000D01*
X88818754Y-115086913D01*
X88778096Y-115220961D01*
X88900085Y-115443000D01*
X90043000Y-115443000D01*
X90043000Y-115423000D01*
X90297000Y-115423000D01*
X90297000Y-115443000D01*
X91439915Y-115443000D01*
X91464128Y-115398929D01*
X92146200Y-116081002D01*
X92169999Y-116110001D01*
X92285724Y-116204974D01*
X92417753Y-116275546D01*
X92561014Y-116319003D01*
X92672667Y-116330000D01*
X92672676Y-116330000D01*
X92709999Y-116333676D01*
X92747322Y-116330000D01*
X103971928Y-116330000D01*
X103971928Y-116370000D01*
X103984188Y-116494482D01*
X104020498Y-116614180D01*
X104079463Y-116724494D01*
X104158815Y-116821185D01*
X104255506Y-116900537D01*
X104365820Y-116959502D01*
X104485518Y-116995812D01*
X104610000Y-117008072D01*
X106210000Y-117008072D01*
X106334482Y-116995812D01*
X106454180Y-116959502D01*
X106564494Y-116900537D01*
X106661185Y-116821185D01*
X106740537Y-116724494D01*
X106799502Y-116614180D01*
X106835812Y-116494482D01*
X106848072Y-116370000D01*
X106848072Y-115060000D01*
X107875136Y-115060000D01*
X107805764Y-115288691D01*
X107778057Y-115570000D01*
X107805764Y-115851309D01*
X107887818Y-116121808D01*
X108021068Y-116371101D01*
X108200392Y-116589608D01*
X108418899Y-116768932D01*
X108551858Y-116840000D01*
X108418899Y-116911068D01*
X108200392Y-117090392D01*
X108042047Y-117283336D01*
X107974774Y-117216063D01*
X107805256Y-117102795D01*
X107616898Y-117024774D01*
X107416939Y-116985000D01*
X107213061Y-116985000D01*
X107013102Y-117024774D01*
X106824744Y-117102795D01*
X106655226Y-117216063D01*
X106611289Y-117260000D01*
X93024802Y-117260000D01*
X92668813Y-116904012D01*
X92645011Y-116875009D01*
X92529286Y-116780036D01*
X92397257Y-116709464D01*
X92253996Y-116666007D01*
X92142343Y-116655010D01*
X92142332Y-116655010D01*
X92105010Y-116651334D01*
X92067688Y-116655010D01*
X91099429Y-116655010D01*
X91233519Y-116533414D01*
X91401037Y-116307420D01*
X91521246Y-116053087D01*
X91561904Y-115919039D01*
X91439915Y-115697000D01*
X90297000Y-115697000D01*
X90297000Y-115717000D01*
X90043000Y-115717000D01*
X90043000Y-115697000D01*
X88900085Y-115697000D01*
X88778096Y-115919039D01*
X88818754Y-116053087D01*
X88938963Y-116307420D01*
X89106481Y-116533414D01*
X89240571Y-116655010D01*
X88519812Y-116655010D01*
X88193803Y-116329002D01*
X88170001Y-116299999D01*
X88054276Y-116205026D01*
X87922247Y-116134454D01*
X87778986Y-116090997D01*
X87667333Y-116080000D01*
X87667322Y-116080000D01*
X87630000Y-116076324D01*
X87592678Y-116080000D01*
X85456586Y-116080000D01*
X85455000Y-115855750D01*
X85296250Y-115697000D01*
X83947000Y-115697000D01*
X83947000Y-115717000D01*
X83693000Y-115717000D01*
X83693000Y-115697000D01*
X82343750Y-115697000D01*
X82185000Y-115855750D01*
X82183414Y-116080000D01*
X70114790Y-116080000D01*
X70160458Y-115971203D01*
X70172559Y-115906472D01*
X70049489Y-115697000D01*
X68707000Y-115697000D01*
X68707000Y-115717000D01*
X68453000Y-115717000D01*
X68453000Y-115697000D01*
X68433000Y-115697000D01*
X68433000Y-115443000D01*
X68453000Y-115443000D01*
X68453000Y-115423000D01*
X68707000Y-115423000D01*
X68707000Y-115443000D01*
X70049489Y-115443000D01*
X70172559Y-115233528D01*
X70160458Y-115168797D01*
X70114790Y-115060000D01*
X82183414Y-115060000D01*
X82185000Y-115284250D01*
G36*
X68707000Y-112903000D02*
G01*
X68727000Y-112903000D01*
X68727000Y-113157000D01*
X68707000Y-113157000D01*
X68707000Y-113177000D01*
X68453000Y-113177000D01*
X68453000Y-113157000D01*
X68433000Y-113157000D01*
X68433000Y-112903000D01*
X68453000Y-112903000D01*
X68453000Y-112883000D01*
X68707000Y-112883000D01*
X68707000Y-112903000D01*
X68707000Y-112903000D01*
G37*
X68707000Y-112903000D02*
X68727000Y-112903000D01*
X68727000Y-113157000D01*
X68707000Y-113157000D01*
X68707000Y-113177000D01*
X68453000Y-113177000D01*
X68453000Y-113157000D01*
X68433000Y-113157000D01*
X68433000Y-112903000D01*
X68453000Y-112903000D01*
X68453000Y-112883000D01*
X68707000Y-112883000D01*
X68707000Y-112903000D01*
G36*
X119235764Y-110208691D02*
G01*
X119208057Y-110490000D01*
X119235764Y-110771309D01*
X119305136Y-111000000D01*
X118178526Y-111000000D01*
X118191246Y-110973087D01*
X118231904Y-110839039D01*
X118109915Y-110617000D01*
X116967000Y-110617000D01*
X116967000Y-110637000D01*
X116713000Y-110637000D01*
X116713000Y-110617000D01*
X115570085Y-110617000D01*
X115448096Y-110839039D01*
X115488754Y-110973087D01*
X115501474Y-111000000D01*
X114864801Y-111000000D01*
X115545872Y-110318929D01*
X115570085Y-110363000D01*
X116713000Y-110363000D01*
X116713000Y-110343000D01*
X116967000Y-110343000D01*
X116967000Y-110363000D01*
X118109915Y-110363000D01*
X118231904Y-110140961D01*
X118191246Y-110006913D01*
X118178526Y-109980000D01*
X119305136Y-109980000D01*
X119235764Y-110208691D01*
X119235764Y-110208691D01*
G37*
X119235764Y-110208691D02*
X119208057Y-110490000D01*
X119235764Y-110771309D01*
X119305136Y-111000000D01*
X118178526Y-111000000D01*
X118191246Y-110973087D01*
X118231904Y-110839039D01*
X118109915Y-110617000D01*
X116967000Y-110617000D01*
X116967000Y-110637000D01*
X116713000Y-110637000D01*
X116713000Y-110617000D01*
X115570085Y-110617000D01*
X115448096Y-110839039D01*
X115488754Y-110973087D01*
X115501474Y-111000000D01*
X114864801Y-111000000D01*
X115545872Y-110318929D01*
X115570085Y-110363000D01*
X116713000Y-110363000D01*
X116713000Y-110343000D01*
X116967000Y-110343000D01*
X116967000Y-110363000D01*
X118109915Y-110363000D01*
X118231904Y-110140961D01*
X118191246Y-110006913D01*
X118178526Y-109980000D01*
X119305136Y-109980000D01*
X119235764Y-110208691D01*
G36*
X129413000Y-104553812D02*
G01*
X129333519Y-104446586D01*
X129125131Y-104257615D01*
X128883881Y-104112930D01*
X128619040Y-104018091D01*
X128397000Y-104139376D01*
X128397000Y-105283000D01*
X128417000Y-105283000D01*
X128417000Y-105537000D01*
X128397000Y-105537000D01*
X128397000Y-105557000D01*
X128143000Y-105557000D01*
X128143000Y-105537000D01*
X127000085Y-105537000D01*
X126878096Y-105759039D01*
X126918754Y-105893087D01*
X127038963Y-106147420D01*
X127206481Y-106373414D01*
X127414869Y-106562385D01*
X127606682Y-106677421D01*
X127468899Y-106751068D01*
X127250392Y-106930392D01*
X127071068Y-107148899D01*
X126937818Y-107398192D01*
X126855764Y-107668691D01*
X126828057Y-107950000D01*
X126855764Y-108231309D01*
X126925136Y-108460000D01*
X121994864Y-108460000D01*
X122064236Y-108231309D01*
X122091943Y-107950000D01*
X122064236Y-107668691D01*
X121982182Y-107398192D01*
X121848932Y-107148899D01*
X121669608Y-106930392D01*
X121556518Y-106837581D01*
X121574482Y-106835812D01*
X121694180Y-106799502D01*
X121804494Y-106740537D01*
X121901185Y-106661185D01*
X121980537Y-106564494D01*
X122039502Y-106454180D01*
X122075812Y-106334482D01*
X122088072Y-106210000D01*
X122088072Y-105060961D01*
X126878096Y-105060961D01*
X127000085Y-105283000D01*
X128143000Y-105283000D01*
X128143000Y-104139376D01*
X127920960Y-104018091D01*
X127656119Y-104112930D01*
X127414869Y-104257615D01*
X127206481Y-104446586D01*
X127038963Y-104672580D01*
X126918754Y-104926913D01*
X126878096Y-105060961D01*
X122088072Y-105060961D01*
X122088072Y-104610000D01*
X122075812Y-104485518D01*
X122039502Y-104365820D01*
X121985612Y-104265000D01*
X124422678Y-104265000D01*
X124460000Y-104268676D01*
X124497322Y-104265000D01*
X124497333Y-104265000D01*
X124608986Y-104254003D01*
X124752247Y-104210546D01*
X124884276Y-104139974D01*
X125000001Y-104045001D01*
X125023803Y-104015998D01*
X125134801Y-103905000D01*
X125196939Y-103905000D01*
X125396898Y-103865226D01*
X125585256Y-103787205D01*
X125754774Y-103673937D01*
X125898937Y-103529774D01*
X126012205Y-103360256D01*
X126090226Y-103171898D01*
X126130000Y-102971939D01*
X126130000Y-102768061D01*
X126097075Y-102602533D01*
X126106903Y-102592704D01*
X126178486Y-102836671D01*
X126433996Y-102957571D01*
X126708184Y-103026300D01*
X126990512Y-103040217D01*
X127270130Y-102998787D01*
X127536292Y-102903603D01*
X127661514Y-102836671D01*
X127733097Y-102592702D01*
X126920000Y-101779605D01*
X126905858Y-101793748D01*
X126726253Y-101614143D01*
X126740395Y-101600000D01*
X126726253Y-101585858D01*
X126905858Y-101406253D01*
X126920000Y-101420395D01*
X126934143Y-101406253D01*
X127113748Y-101585858D01*
X127099605Y-101600000D01*
X127912702Y-102413097D01*
X128156671Y-102341514D01*
X128277571Y-102086004D01*
X128346300Y-101811816D01*
X128360217Y-101529488D01*
X128318787Y-101249870D01*
X128261615Y-101090000D01*
X129413000Y-101090000D01*
X129413000Y-104553812D01*
X129413000Y-104553812D01*
G37*
X129413000Y-104553812D02*
X129333519Y-104446586D01*
X129125131Y-104257615D01*
X128883881Y-104112930D01*
X128619040Y-104018091D01*
X128397000Y-104139376D01*
X128397000Y-105283000D01*
X128417000Y-105283000D01*
X128417000Y-105537000D01*
X128397000Y-105537000D01*
X128397000Y-105557000D01*
X128143000Y-105557000D01*
X128143000Y-105537000D01*
X127000085Y-105537000D01*
X126878096Y-105759039D01*
X126918754Y-105893087D01*
X127038963Y-106147420D01*
X127206481Y-106373414D01*
X127414869Y-106562385D01*
X127606682Y-106677421D01*
X127468899Y-106751068D01*
X127250392Y-106930392D01*
X127071068Y-107148899D01*
X126937818Y-107398192D01*
X126855764Y-107668691D01*
X126828057Y-107950000D01*
X126855764Y-108231309D01*
X126925136Y-108460000D01*
X121994864Y-108460000D01*
X122064236Y-108231309D01*
X122091943Y-107950000D01*
X122064236Y-107668691D01*
X121982182Y-107398192D01*
X121848932Y-107148899D01*
X121669608Y-106930392D01*
X121556518Y-106837581D01*
X121574482Y-106835812D01*
X121694180Y-106799502D01*
X121804494Y-106740537D01*
X121901185Y-106661185D01*
X121980537Y-106564494D01*
X122039502Y-106454180D01*
X122075812Y-106334482D01*
X122088072Y-106210000D01*
X122088072Y-105060961D01*
X126878096Y-105060961D01*
X127000085Y-105283000D01*
X128143000Y-105283000D01*
X128143000Y-104139376D01*
X127920960Y-104018091D01*
X127656119Y-104112930D01*
X127414869Y-104257615D01*
X127206481Y-104446586D01*
X127038963Y-104672580D01*
X126918754Y-104926913D01*
X126878096Y-105060961D01*
X122088072Y-105060961D01*
X122088072Y-104610000D01*
X122075812Y-104485518D01*
X122039502Y-104365820D01*
X121985612Y-104265000D01*
X124422678Y-104265000D01*
X124460000Y-104268676D01*
X124497322Y-104265000D01*
X124497333Y-104265000D01*
X124608986Y-104254003D01*
X124752247Y-104210546D01*
X124884276Y-104139974D01*
X125000001Y-104045001D01*
X125023803Y-104015998D01*
X125134801Y-103905000D01*
X125196939Y-103905000D01*
X125396898Y-103865226D01*
X125585256Y-103787205D01*
X125754774Y-103673937D01*
X125898937Y-103529774D01*
X126012205Y-103360256D01*
X126090226Y-103171898D01*
X126130000Y-102971939D01*
X126130000Y-102768061D01*
X126097075Y-102602533D01*
X126106903Y-102592704D01*
X126178486Y-102836671D01*
X126433996Y-102957571D01*
X126708184Y-103026300D01*
X126990512Y-103040217D01*
X127270130Y-102998787D01*
X127536292Y-102903603D01*
X127661514Y-102836671D01*
X127733097Y-102592702D01*
X126920000Y-101779605D01*
X126905858Y-101793748D01*
X126726253Y-101614143D01*
X126740395Y-101600000D01*
X126726253Y-101585858D01*
X126905858Y-101406253D01*
X126920000Y-101420395D01*
X126934143Y-101406253D01*
X127113748Y-101585858D01*
X127099605Y-101600000D01*
X127912702Y-102413097D01*
X128156671Y-102341514D01*
X128277571Y-102086004D01*
X128346300Y-101811816D01*
X128360217Y-101529488D01*
X128318787Y-101249870D01*
X128261615Y-101090000D01*
X129413000Y-101090000D01*
X129413000Y-104553812D01*
G36*
X115776481Y-104446586D02*
G01*
X115608963Y-104672580D01*
X115488754Y-104926913D01*
X115448096Y-105060961D01*
X115570085Y-105283000D01*
X116713000Y-105283000D01*
X116713000Y-105263000D01*
X116967000Y-105263000D01*
X116967000Y-105283000D01*
X118109915Y-105283000D01*
X118231904Y-105060961D01*
X118191246Y-104926913D01*
X118071037Y-104672580D01*
X117903519Y-104446586D01*
X117703275Y-104265000D01*
X119314388Y-104265000D01*
X119260498Y-104365820D01*
X119224188Y-104485518D01*
X119211928Y-104610000D01*
X119211928Y-105920000D01*
X118178526Y-105920000D01*
X118191246Y-105893087D01*
X118231904Y-105759039D01*
X118109915Y-105537000D01*
X116967000Y-105537000D01*
X116967000Y-105557000D01*
X116713000Y-105557000D01*
X116713000Y-105537000D01*
X115570085Y-105537000D01*
X115448096Y-105759039D01*
X115488754Y-105893087D01*
X115502862Y-105922936D01*
X115421014Y-105930997D01*
X115277753Y-105974454D01*
X115145724Y-106045026D01*
X115029999Y-106139999D01*
X115006201Y-106168997D01*
X113985199Y-107190000D01*
X112664013Y-107190000D01*
X112677205Y-107170256D01*
X112755226Y-106981898D01*
X112795000Y-106781939D01*
X112795000Y-106578061D01*
X112755226Y-106378102D01*
X112677205Y-106189744D01*
X112563937Y-106020226D01*
X112419774Y-105876063D01*
X112250256Y-105762795D01*
X112061898Y-105684774D01*
X111861939Y-105645000D01*
X111658061Y-105645000D01*
X111458102Y-105684774D01*
X111269744Y-105762795D01*
X111100226Y-105876063D01*
X111056289Y-105920000D01*
X110658072Y-105920000D01*
X110658072Y-104610000D01*
X110645812Y-104485518D01*
X110609502Y-104365820D01*
X110555612Y-104265000D01*
X115976725Y-104265000D01*
X115776481Y-104446586D01*
X115776481Y-104446586D01*
G37*
X115776481Y-104446586D02*
X115608963Y-104672580D01*
X115488754Y-104926913D01*
X115448096Y-105060961D01*
X115570085Y-105283000D01*
X116713000Y-105283000D01*
X116713000Y-105263000D01*
X116967000Y-105263000D01*
X116967000Y-105283000D01*
X118109915Y-105283000D01*
X118231904Y-105060961D01*
X118191246Y-104926913D01*
X118071037Y-104672580D01*
X117903519Y-104446586D01*
X117703275Y-104265000D01*
X119314388Y-104265000D01*
X119260498Y-104365820D01*
X119224188Y-104485518D01*
X119211928Y-104610000D01*
X119211928Y-105920000D01*
X118178526Y-105920000D01*
X118191246Y-105893087D01*
X118231904Y-105759039D01*
X118109915Y-105537000D01*
X116967000Y-105537000D01*
X116967000Y-105557000D01*
X116713000Y-105557000D01*
X116713000Y-105537000D01*
X115570085Y-105537000D01*
X115448096Y-105759039D01*
X115488754Y-105893087D01*
X115502862Y-105922936D01*
X115421014Y-105930997D01*
X115277753Y-105974454D01*
X115145724Y-106045026D01*
X115029999Y-106139999D01*
X115006201Y-106168997D01*
X113985199Y-107190000D01*
X112664013Y-107190000D01*
X112677205Y-107170256D01*
X112755226Y-106981898D01*
X112795000Y-106781939D01*
X112795000Y-106578061D01*
X112755226Y-106378102D01*
X112677205Y-106189744D01*
X112563937Y-106020226D01*
X112419774Y-105876063D01*
X112250256Y-105762795D01*
X112061898Y-105684774D01*
X111861939Y-105645000D01*
X111658061Y-105645000D01*
X111458102Y-105684774D01*
X111269744Y-105762795D01*
X111100226Y-105876063D01*
X111056289Y-105920000D01*
X110658072Y-105920000D01*
X110658072Y-104610000D01*
X110645812Y-104485518D01*
X110609502Y-104365820D01*
X110555612Y-104265000D01*
X115976725Y-104265000D01*
X115776481Y-104446586D01*
G36*
X118134128Y-92881071D02*
G01*
X118109915Y-92837000D01*
X116967000Y-92837000D01*
X116967000Y-92857000D01*
X116713000Y-92857000D01*
X116713000Y-92837000D01*
X116693000Y-92837000D01*
X116693000Y-92583000D01*
X116713000Y-92583000D01*
X116713000Y-92563000D01*
X116967000Y-92563000D01*
X116967000Y-92583000D01*
X118109915Y-92583000D01*
X118231904Y-92360961D01*
X118211897Y-92294999D01*
X118720199Y-92294999D01*
X118134128Y-92881071D01*
X118134128Y-92881071D01*
G37*
X118134128Y-92881071D02*
X118109915Y-92837000D01*
X116967000Y-92837000D01*
X116967000Y-92857000D01*
X116713000Y-92857000D01*
X116713000Y-92837000D01*
X116693000Y-92837000D01*
X116693000Y-92583000D01*
X116713000Y-92583000D01*
X116713000Y-92563000D01*
X116967000Y-92563000D01*
X116967000Y-92583000D01*
X118109915Y-92583000D01*
X118231904Y-92360961D01*
X118211897Y-92294999D01*
X118720199Y-92294999D01*
X118134128Y-92881071D01*
G36*
X115006200Y-86871002D02*
G01*
X115029999Y-86900001D01*
X115145724Y-86994974D01*
X115277753Y-87065546D01*
X115421014Y-87109003D01*
X115496225Y-87116411D01*
X115425764Y-87348691D01*
X115398057Y-87630000D01*
X115425764Y-87911309D01*
X115507818Y-88181808D01*
X115641068Y-88431101D01*
X115820392Y-88649608D01*
X116038899Y-88828932D01*
X116176682Y-88902579D01*
X115984869Y-89017615D01*
X115776481Y-89206586D01*
X115608963Y-89432580D01*
X115488754Y-89686913D01*
X115448096Y-89820961D01*
X115570085Y-90043000D01*
X116713000Y-90043000D01*
X116713000Y-90023000D01*
X116967000Y-90023000D01*
X116967000Y-90043000D01*
X118109915Y-90043000D01*
X118231904Y-89820961D01*
X118191246Y-89686913D01*
X118178526Y-89660000D01*
X119305136Y-89660000D01*
X119235764Y-89888691D01*
X119208057Y-90170000D01*
X119235764Y-90451309D01*
X119317818Y-90721808D01*
X119346249Y-90774999D01*
X118133625Y-90774999D01*
X118191246Y-90653087D01*
X118231904Y-90519039D01*
X118109915Y-90297000D01*
X116967000Y-90297000D01*
X116967000Y-90317000D01*
X116713000Y-90317000D01*
X116713000Y-90297000D01*
X115570085Y-90297000D01*
X115448096Y-90519039D01*
X115488754Y-90653087D01*
X115608963Y-90907420D01*
X115702537Y-91033659D01*
X114786197Y-91950000D01*
X110440901Y-91950000D01*
X110418932Y-91908899D01*
X110239608Y-91690392D01*
X110021101Y-91511068D01*
X109888142Y-91440000D01*
X110021101Y-91368932D01*
X110239608Y-91189608D01*
X110418932Y-90971101D01*
X110552182Y-90721808D01*
X110634236Y-90451309D01*
X110661943Y-90170000D01*
X110634236Y-89888691D01*
X110552182Y-89618192D01*
X110418932Y-89368899D01*
X110239608Y-89150392D01*
X110021101Y-88971068D01*
X109888142Y-88900000D01*
X110021101Y-88828932D01*
X110239608Y-88649608D01*
X110418932Y-88431101D01*
X110552182Y-88181808D01*
X110634236Y-87911309D01*
X110661943Y-87630000D01*
X110634236Y-87348691D01*
X110552182Y-87078192D01*
X110418932Y-86828899D01*
X110239608Y-86610392D01*
X110021101Y-86431068D01*
X109888142Y-86360000D01*
X110021101Y-86288932D01*
X110239608Y-86109608D01*
X110418932Y-85891101D01*
X110552182Y-85641808D01*
X110634236Y-85371309D01*
X110661943Y-85090000D01*
X110634236Y-84808691D01*
X110552182Y-84538192D01*
X110418932Y-84288899D01*
X110239608Y-84070392D01*
X110021101Y-83891068D01*
X109888142Y-83820000D01*
X110021101Y-83748932D01*
X110239608Y-83569608D01*
X110418932Y-83351101D01*
X110440901Y-83310000D01*
X111445199Y-83310000D01*
X115006200Y-86871002D01*
X115006200Y-86871002D01*
G37*
X115006200Y-86871002D02*
X115029999Y-86900001D01*
X115145724Y-86994974D01*
X115277753Y-87065546D01*
X115421014Y-87109003D01*
X115496225Y-87116411D01*
X115425764Y-87348691D01*
X115398057Y-87630000D01*
X115425764Y-87911309D01*
X115507818Y-88181808D01*
X115641068Y-88431101D01*
X115820392Y-88649608D01*
X116038899Y-88828932D01*
X116176682Y-88902579D01*
X115984869Y-89017615D01*
X115776481Y-89206586D01*
X115608963Y-89432580D01*
X115488754Y-89686913D01*
X115448096Y-89820961D01*
X115570085Y-90043000D01*
X116713000Y-90043000D01*
X116713000Y-90023000D01*
X116967000Y-90023000D01*
X116967000Y-90043000D01*
X118109915Y-90043000D01*
X118231904Y-89820961D01*
X118191246Y-89686913D01*
X118178526Y-89660000D01*
X119305136Y-89660000D01*
X119235764Y-89888691D01*
X119208057Y-90170000D01*
X119235764Y-90451309D01*
X119317818Y-90721808D01*
X119346249Y-90774999D01*
X118133625Y-90774999D01*
X118191246Y-90653087D01*
X118231904Y-90519039D01*
X118109915Y-90297000D01*
X116967000Y-90297000D01*
X116967000Y-90317000D01*
X116713000Y-90317000D01*
X116713000Y-90297000D01*
X115570085Y-90297000D01*
X115448096Y-90519039D01*
X115488754Y-90653087D01*
X115608963Y-90907420D01*
X115702537Y-91033659D01*
X114786197Y-91950000D01*
X110440901Y-91950000D01*
X110418932Y-91908899D01*
X110239608Y-91690392D01*
X110021101Y-91511068D01*
X109888142Y-91440000D01*
X110021101Y-91368932D01*
X110239608Y-91189608D01*
X110418932Y-90971101D01*
X110552182Y-90721808D01*
X110634236Y-90451309D01*
X110661943Y-90170000D01*
X110634236Y-89888691D01*
X110552182Y-89618192D01*
X110418932Y-89368899D01*
X110239608Y-89150392D01*
X110021101Y-88971068D01*
X109888142Y-88900000D01*
X110021101Y-88828932D01*
X110239608Y-88649608D01*
X110418932Y-88431101D01*
X110552182Y-88181808D01*
X110634236Y-87911309D01*
X110661943Y-87630000D01*
X110634236Y-87348691D01*
X110552182Y-87078192D01*
X110418932Y-86828899D01*
X110239608Y-86610392D01*
X110021101Y-86431068D01*
X109888142Y-86360000D01*
X110021101Y-86288932D01*
X110239608Y-86109608D01*
X110418932Y-85891101D01*
X110552182Y-85641808D01*
X110634236Y-85371309D01*
X110661943Y-85090000D01*
X110634236Y-84808691D01*
X110552182Y-84538192D01*
X110418932Y-84288899D01*
X110239608Y-84070392D01*
X110021101Y-83891068D01*
X109888142Y-83820000D01*
X110021101Y-83748932D01*
X110239608Y-83569608D01*
X110418932Y-83351101D01*
X110440901Y-83310000D01*
X111445199Y-83310000D01*
X115006200Y-86871002D01*
G36*
X127071068Y-83351101D02*
G01*
X127250392Y-83569608D01*
X127468899Y-83748932D01*
X127606682Y-83822579D01*
X127414869Y-83937615D01*
X127206481Y-84126586D01*
X127038963Y-84352580D01*
X126918754Y-84606913D01*
X126878096Y-84740961D01*
X127000085Y-84963000D01*
X128143000Y-84963000D01*
X128143000Y-84943000D01*
X128397000Y-84943000D01*
X128397000Y-84963000D01*
X128417000Y-84963000D01*
X128417000Y-85217000D01*
X128397000Y-85217000D01*
X128397000Y-85237000D01*
X128143000Y-85237000D01*
X128143000Y-85217000D01*
X127000085Y-85217000D01*
X126878096Y-85439039D01*
X126918754Y-85573087D01*
X127038963Y-85827420D01*
X127206481Y-86053414D01*
X127414869Y-86242385D01*
X127606682Y-86357421D01*
X127468899Y-86431068D01*
X127250392Y-86610392D01*
X127071068Y-86828899D01*
X126937818Y-87078192D01*
X126855764Y-87348691D01*
X126828057Y-87630000D01*
X126855764Y-87911309D01*
X126925136Y-88140000D01*
X121994864Y-88140000D01*
X122064236Y-87911309D01*
X122091943Y-87630000D01*
X122064236Y-87348691D01*
X121982182Y-87078192D01*
X121848932Y-86828899D01*
X121669608Y-86610392D01*
X121451101Y-86431068D01*
X121318142Y-86360000D01*
X121451101Y-86288932D01*
X121669608Y-86109608D01*
X121848932Y-85891101D01*
X121982182Y-85641808D01*
X122064236Y-85371309D01*
X122091943Y-85090000D01*
X122064236Y-84808691D01*
X121982182Y-84538192D01*
X121848932Y-84288899D01*
X121669608Y-84070392D01*
X121451101Y-83891068D01*
X121318142Y-83820000D01*
X121451101Y-83748932D01*
X121669608Y-83569608D01*
X121848932Y-83351101D01*
X121870901Y-83310000D01*
X126567676Y-83310000D01*
X126604998Y-83313676D01*
X126642320Y-83310000D01*
X126642331Y-83310000D01*
X126753984Y-83299003D01*
X126897245Y-83255546D01*
X126992716Y-83204515D01*
X127071068Y-83351101D01*
X127071068Y-83351101D01*
G37*
X127071068Y-83351101D02*
X127250392Y-83569608D01*
X127468899Y-83748932D01*
X127606682Y-83822579D01*
X127414869Y-83937615D01*
X127206481Y-84126586D01*
X127038963Y-84352580D01*
X126918754Y-84606913D01*
X126878096Y-84740961D01*
X127000085Y-84963000D01*
X128143000Y-84963000D01*
X128143000Y-84943000D01*
X128397000Y-84943000D01*
X128397000Y-84963000D01*
X128417000Y-84963000D01*
X128417000Y-85217000D01*
X128397000Y-85217000D01*
X128397000Y-85237000D01*
X128143000Y-85237000D01*
X128143000Y-85217000D01*
X127000085Y-85217000D01*
X126878096Y-85439039D01*
X126918754Y-85573087D01*
X127038963Y-85827420D01*
X127206481Y-86053414D01*
X127414869Y-86242385D01*
X127606682Y-86357421D01*
X127468899Y-86431068D01*
X127250392Y-86610392D01*
X127071068Y-86828899D01*
X126937818Y-87078192D01*
X126855764Y-87348691D01*
X126828057Y-87630000D01*
X126855764Y-87911309D01*
X126925136Y-88140000D01*
X121994864Y-88140000D01*
X122064236Y-87911309D01*
X122091943Y-87630000D01*
X122064236Y-87348691D01*
X121982182Y-87078192D01*
X121848932Y-86828899D01*
X121669608Y-86610392D01*
X121451101Y-86431068D01*
X121318142Y-86360000D01*
X121451101Y-86288932D01*
X121669608Y-86109608D01*
X121848932Y-85891101D01*
X121982182Y-85641808D01*
X122064236Y-85371309D01*
X122091943Y-85090000D01*
X122064236Y-84808691D01*
X121982182Y-84538192D01*
X121848932Y-84288899D01*
X121669608Y-84070392D01*
X121451101Y-83891068D01*
X121318142Y-83820000D01*
X121451101Y-83748932D01*
X121669608Y-83569608D01*
X121848932Y-83351101D01*
X121870901Y-83310000D01*
X126567676Y-83310000D01*
X126604998Y-83313676D01*
X126642320Y-83310000D01*
X126642331Y-83310000D01*
X126753984Y-83299003D01*
X126897245Y-83255546D01*
X126992716Y-83204515D01*
X127071068Y-83351101D01*
G36*
X165217869Y-75604722D02*
G01*
X165331246Y-75638953D01*
X165435819Y-75694555D01*
X165527596Y-75769407D01*
X165603091Y-75860664D01*
X165659419Y-75964844D01*
X165694440Y-76077976D01*
X165710001Y-76226031D01*
X165710001Y-81788000D01*
X147886801Y-81788000D01*
X148224005Y-81450797D01*
X148298889Y-81473513D01*
X148517050Y-81495000D01*
X148662950Y-81495000D01*
X148881111Y-81473513D01*
X149161034Y-81388599D01*
X149419014Y-81250706D01*
X149645134Y-81065134D01*
X149830706Y-80839014D01*
X149865201Y-80774477D01*
X149934822Y-80891355D01*
X150129731Y-81107588D01*
X150363080Y-81281641D01*
X150625901Y-81406825D01*
X150773110Y-81451476D01*
X151003000Y-81330155D01*
X151003000Y-80137000D01*
X150983000Y-80137000D01*
X150983000Y-79883000D01*
X151003000Y-79883000D01*
X151003000Y-77597000D01*
X150983000Y-77597000D01*
X150983000Y-77343000D01*
X151003000Y-77343000D01*
X151003000Y-76149845D01*
X151257000Y-76149845D01*
X151257000Y-77343000D01*
X151277000Y-77343000D01*
X151277000Y-77597000D01*
X151257000Y-77597000D01*
X151257000Y-79883000D01*
X151277000Y-79883000D01*
X151277000Y-80137000D01*
X151257000Y-80137000D01*
X151257000Y-81330155D01*
X151486890Y-81451476D01*
X151634099Y-81406825D01*
X151896920Y-81281641D01*
X152130269Y-81107588D01*
X152325178Y-80891355D01*
X152394799Y-80774477D01*
X152429294Y-80839014D01*
X152614866Y-81065134D01*
X152840986Y-81250706D01*
X153098966Y-81388599D01*
X153378889Y-81473513D01*
X153597050Y-81495000D01*
X153742950Y-81495000D01*
X153961111Y-81473513D01*
X154241034Y-81388599D01*
X154499014Y-81250706D01*
X154725134Y-81065134D01*
X154910706Y-80839014D01*
X154940000Y-80784209D01*
X154969294Y-80839014D01*
X155154866Y-81065134D01*
X155380986Y-81250706D01*
X155638966Y-81388599D01*
X155918889Y-81473513D01*
X156137050Y-81495000D01*
X156282950Y-81495000D01*
X156501111Y-81473513D01*
X156781034Y-81388599D01*
X157039014Y-81250706D01*
X157265134Y-81065134D01*
X157450706Y-80839014D01*
X157588599Y-80581034D01*
X157673513Y-80301111D01*
X157702185Y-80010000D01*
X157673513Y-79718889D01*
X157588599Y-79438966D01*
X157450706Y-79180986D01*
X157265134Y-78954866D01*
X157235313Y-78930393D01*
X157304180Y-78909502D01*
X157414494Y-78850537D01*
X157511185Y-78771185D01*
X157590537Y-78674494D01*
X157649502Y-78564180D01*
X157685812Y-78444482D01*
X157698072Y-78320000D01*
X157698072Y-76620000D01*
X157685812Y-76495518D01*
X157649502Y-76375820D01*
X157590537Y-76265506D01*
X157511185Y-76168815D01*
X157414494Y-76089463D01*
X157304180Y-76030498D01*
X157184482Y-75994188D01*
X157060000Y-75981928D01*
X155360000Y-75981928D01*
X155235518Y-75994188D01*
X155115820Y-76030498D01*
X155005506Y-76089463D01*
X154908815Y-76168815D01*
X154829463Y-76265506D01*
X154770498Y-76375820D01*
X154749607Y-76444687D01*
X154725134Y-76414866D01*
X154499014Y-76229294D01*
X154241034Y-76091401D01*
X153961111Y-76006487D01*
X153742950Y-75985000D01*
X153597050Y-75985000D01*
X153378889Y-76006487D01*
X153098966Y-76091401D01*
X152840986Y-76229294D01*
X152614866Y-76414866D01*
X152429294Y-76640986D01*
X152394799Y-76705523D01*
X152325178Y-76588645D01*
X152130269Y-76372412D01*
X151896920Y-76198359D01*
X151634099Y-76073175D01*
X151486890Y-76028524D01*
X151257000Y-76149845D01*
X151003000Y-76149845D01*
X150773110Y-76028524D01*
X150625901Y-76073175D01*
X150363080Y-76198359D01*
X150129731Y-76372412D01*
X149934822Y-76588645D01*
X149865201Y-76705523D01*
X149830706Y-76640986D01*
X149645134Y-76414866D01*
X149419014Y-76229294D01*
X149161034Y-76091401D01*
X148881111Y-76006487D01*
X148662950Y-75985000D01*
X148517050Y-75985000D01*
X148298889Y-76006487D01*
X148018966Y-76091401D01*
X147760986Y-76229294D01*
X147534866Y-76414866D01*
X147349294Y-76640986D01*
X147320000Y-76695791D01*
X147290706Y-76640986D01*
X147105134Y-76414866D01*
X146879014Y-76229294D01*
X146621034Y-76091401D01*
X146341111Y-76006487D01*
X146122950Y-75985000D01*
X145977050Y-75985000D01*
X145758889Y-76006487D01*
X145478966Y-76091401D01*
X145220986Y-76229294D01*
X144994866Y-76414866D01*
X144809294Y-76640986D01*
X144780000Y-76695791D01*
X144750706Y-76640986D01*
X144565134Y-76414866D01*
X144339014Y-76229294D01*
X144081034Y-76091401D01*
X143801111Y-76006487D01*
X143582950Y-75985000D01*
X143437050Y-75985000D01*
X143218889Y-76006487D01*
X142938966Y-76091401D01*
X142680986Y-76229294D01*
X142454866Y-76414866D01*
X142269294Y-76640986D01*
X142240000Y-76695791D01*
X142210706Y-76640986D01*
X142025134Y-76414866D01*
X141799014Y-76229294D01*
X141541034Y-76091401D01*
X141261111Y-76006487D01*
X141042950Y-75985000D01*
X140897050Y-75985000D01*
X140678889Y-76006487D01*
X140398966Y-76091401D01*
X140140986Y-76229294D01*
X139914866Y-76414866D01*
X139729294Y-76640986D01*
X139700000Y-76695791D01*
X139670706Y-76640986D01*
X139485134Y-76414866D01*
X139259014Y-76229294D01*
X139001034Y-76091401D01*
X138721111Y-76006487D01*
X138502950Y-75985000D01*
X138357050Y-75985000D01*
X138138889Y-76006487D01*
X137858966Y-76091401D01*
X137600986Y-76229294D01*
X137374866Y-76414866D01*
X137189294Y-76640986D01*
X137051401Y-76898966D01*
X136966487Y-77178889D01*
X136937815Y-77470000D01*
X136966487Y-77761111D01*
X137051401Y-78041034D01*
X137189294Y-78299014D01*
X137374866Y-78525134D01*
X137600986Y-78710706D01*
X137655791Y-78740000D01*
X137600986Y-78769294D01*
X137374866Y-78954866D01*
X137189294Y-79180986D01*
X137051401Y-79438966D01*
X136966487Y-79718889D01*
X136937815Y-80010000D01*
X136966487Y-80301111D01*
X137051401Y-80581034D01*
X137189294Y-80839014D01*
X137374866Y-81065134D01*
X137484368Y-81155000D01*
X129854801Y-81155000D01*
X129613803Y-80914002D01*
X129590000Y-80884998D01*
X129474275Y-80790025D01*
X129470824Y-80788180D01*
X129501037Y-80747420D01*
X129621246Y-80493087D01*
X129661904Y-80359039D01*
X129539915Y-80137000D01*
X128397000Y-80137000D01*
X128397000Y-80157000D01*
X128143000Y-80157000D01*
X128143000Y-80137000D01*
X127000085Y-80137000D01*
X126878096Y-80359039D01*
X126918754Y-80493087D01*
X127038963Y-80747420D01*
X127164039Y-80916157D01*
X126290197Y-81790000D01*
X121870901Y-81790000D01*
X121848932Y-81748899D01*
X121669608Y-81530392D01*
X121556518Y-81437581D01*
X121574482Y-81435812D01*
X121694180Y-81399502D01*
X121804494Y-81340537D01*
X121901185Y-81261185D01*
X121980537Y-81164494D01*
X122039502Y-81054180D01*
X122075812Y-80934482D01*
X122088072Y-80810000D01*
X122088072Y-79660961D01*
X126878096Y-79660961D01*
X127000085Y-79883000D01*
X128143000Y-79883000D01*
X128143000Y-78739376D01*
X128397000Y-78739376D01*
X128397000Y-79883000D01*
X129539915Y-79883000D01*
X129661904Y-79660961D01*
X129621246Y-79526913D01*
X129501037Y-79272580D01*
X129333519Y-79046586D01*
X129125131Y-78857615D01*
X128883881Y-78712930D01*
X128619040Y-78618091D01*
X128397000Y-78739376D01*
X128143000Y-78739376D01*
X127920960Y-78618091D01*
X127656119Y-78712930D01*
X127414869Y-78857615D01*
X127206481Y-79046586D01*
X127038963Y-79272580D01*
X126918754Y-79526913D01*
X126878096Y-79660961D01*
X122088072Y-79660961D01*
X122088072Y-79210000D01*
X122075812Y-79085518D01*
X122039502Y-78965820D01*
X121980537Y-78855506D01*
X121901185Y-78758815D01*
X121804494Y-78679463D01*
X121694180Y-78620498D01*
X121574482Y-78584188D01*
X121450000Y-78571928D01*
X119850000Y-78571928D01*
X119725518Y-78584188D01*
X119605820Y-78620498D01*
X119495506Y-78679463D01*
X119412437Y-78747636D01*
X118893804Y-78229003D01*
X118870001Y-78199999D01*
X118754276Y-78105026D01*
X118622247Y-78034454D01*
X118478986Y-77990997D01*
X118367333Y-77980000D01*
X118367322Y-77980000D01*
X118330000Y-77976324D01*
X118292678Y-77980000D01*
X118178526Y-77980000D01*
X118191246Y-77953087D01*
X118231904Y-77819039D01*
X118109915Y-77597000D01*
X116967000Y-77597000D01*
X116967000Y-77617000D01*
X116713000Y-77617000D01*
X116713000Y-77597000D01*
X115570085Y-77597000D01*
X115448096Y-77819039D01*
X115488754Y-77953087D01*
X115501474Y-77980000D01*
X110658072Y-77980000D01*
X110658072Y-77120961D01*
X115448096Y-77120961D01*
X115570085Y-77343000D01*
X116713000Y-77343000D01*
X116713000Y-76199376D01*
X116967000Y-76199376D01*
X116967000Y-77343000D01*
X118109915Y-77343000D01*
X118231904Y-77120961D01*
X118191246Y-76986913D01*
X118071037Y-76732580D01*
X117903519Y-76506586D01*
X117695131Y-76317615D01*
X117453881Y-76172930D01*
X117189040Y-76078091D01*
X116967000Y-76199376D01*
X116713000Y-76199376D01*
X116490960Y-76078091D01*
X116226119Y-76172930D01*
X115984869Y-76317615D01*
X115776481Y-76506586D01*
X115608963Y-76732580D01*
X115488754Y-76986913D01*
X115448096Y-77120961D01*
X110658072Y-77120961D01*
X110658072Y-76670000D01*
X110645812Y-76545518D01*
X110609502Y-76425820D01*
X110550537Y-76315506D01*
X110471185Y-76218815D01*
X110374494Y-76139463D01*
X110264180Y-76080498D01*
X110144482Y-76044188D01*
X110020000Y-76031928D01*
X108420000Y-76031928D01*
X108295518Y-76044188D01*
X108175820Y-76080498D01*
X108065506Y-76139463D01*
X107968815Y-76218815D01*
X107889463Y-76315506D01*
X107830498Y-76425820D01*
X107794188Y-76545518D01*
X107781928Y-76670000D01*
X107781928Y-77980000D01*
X66989802Y-77980000D01*
X66440000Y-77430199D01*
X66440000Y-77368061D01*
X66400226Y-77168102D01*
X66322205Y-76979744D01*
X66208937Y-76810226D01*
X66064774Y-76666063D01*
X65895256Y-76552795D01*
X65706898Y-76474774D01*
X65506939Y-76435000D01*
X65303061Y-76435000D01*
X65103102Y-76474774D01*
X64914744Y-76552795D01*
X64745226Y-76666063D01*
X64601063Y-76810226D01*
X64487795Y-76979744D01*
X64409774Y-77168102D01*
X64370000Y-77368061D01*
X64370000Y-77571939D01*
X64409774Y-77771898D01*
X64487795Y-77960256D01*
X64601063Y-78129774D01*
X64745226Y-78273937D01*
X64914744Y-78387205D01*
X65103102Y-78465226D01*
X65303061Y-78505000D01*
X65365199Y-78505000D01*
X66035198Y-79175000D01*
X60452000Y-79175000D01*
X60452000Y-78203072D01*
X60498491Y-78049811D01*
X60518072Y-77851000D01*
X60518072Y-77089000D01*
X60498491Y-76890189D01*
X60452000Y-76736928D01*
X60452000Y-75590000D01*
X165067721Y-75590000D01*
X165217869Y-75604722D01*
X165217869Y-75604722D01*
G37*
X165217869Y-75604722D02*
X165331246Y-75638953D01*
X165435819Y-75694555D01*
X165527596Y-75769407D01*
X165603091Y-75860664D01*
X165659419Y-75964844D01*
X165694440Y-76077976D01*
X165710001Y-76226031D01*
X165710001Y-81788000D01*
X147886801Y-81788000D01*
X148224005Y-81450797D01*
X148298889Y-81473513D01*
X148517050Y-81495000D01*
X148662950Y-81495000D01*
X148881111Y-81473513D01*
X149161034Y-81388599D01*
X149419014Y-81250706D01*
X149645134Y-81065134D01*
X149830706Y-80839014D01*
X149865201Y-80774477D01*
X149934822Y-80891355D01*
X150129731Y-81107588D01*
X150363080Y-81281641D01*
X150625901Y-81406825D01*
X150773110Y-81451476D01*
X151003000Y-81330155D01*
X151003000Y-80137000D01*
X150983000Y-80137000D01*
X150983000Y-79883000D01*
X151003000Y-79883000D01*
X151003000Y-77597000D01*
X150983000Y-77597000D01*
X150983000Y-77343000D01*
X151003000Y-77343000D01*
X151003000Y-76149845D01*
X151257000Y-76149845D01*
X151257000Y-77343000D01*
X151277000Y-77343000D01*
X151277000Y-77597000D01*
X151257000Y-77597000D01*
X151257000Y-79883000D01*
X151277000Y-79883000D01*
X151277000Y-80137000D01*
X151257000Y-80137000D01*
X151257000Y-81330155D01*
X151486890Y-81451476D01*
X151634099Y-81406825D01*
X151896920Y-81281641D01*
X152130269Y-81107588D01*
X152325178Y-80891355D01*
X152394799Y-80774477D01*
X152429294Y-80839014D01*
X152614866Y-81065134D01*
X152840986Y-81250706D01*
X153098966Y-81388599D01*
X153378889Y-81473513D01*
X153597050Y-81495000D01*
X153742950Y-81495000D01*
X153961111Y-81473513D01*
X154241034Y-81388599D01*
X154499014Y-81250706D01*
X154725134Y-81065134D01*
X154910706Y-80839014D01*
X154940000Y-80784209D01*
X154969294Y-80839014D01*
X155154866Y-81065134D01*
X155380986Y-81250706D01*
X155638966Y-81388599D01*
X155918889Y-81473513D01*
X156137050Y-81495000D01*
X156282950Y-81495000D01*
X156501111Y-81473513D01*
X156781034Y-81388599D01*
X157039014Y-81250706D01*
X157265134Y-81065134D01*
X157450706Y-80839014D01*
X157588599Y-80581034D01*
X157673513Y-80301111D01*
X157702185Y-80010000D01*
X157673513Y-79718889D01*
X157588599Y-79438966D01*
X157450706Y-79180986D01*
X157265134Y-78954866D01*
X157235313Y-78930393D01*
X157304180Y-78909502D01*
X157414494Y-78850537D01*
X157511185Y-78771185D01*
X157590537Y-78674494D01*
X157649502Y-78564180D01*
X157685812Y-78444482D01*
X157698072Y-78320000D01*
X157698072Y-76620000D01*
X157685812Y-76495518D01*
X157649502Y-76375820D01*
X157590537Y-76265506D01*
X157511185Y-76168815D01*
X157414494Y-76089463D01*
X157304180Y-76030498D01*
X157184482Y-75994188D01*
X157060000Y-75981928D01*
X155360000Y-75981928D01*
X155235518Y-75994188D01*
X155115820Y-76030498D01*
X155005506Y-76089463D01*
X154908815Y-76168815D01*
X154829463Y-76265506D01*
X154770498Y-76375820D01*
X154749607Y-76444687D01*
X154725134Y-76414866D01*
X154499014Y-76229294D01*
X154241034Y-76091401D01*
X153961111Y-76006487D01*
X153742950Y-75985000D01*
X153597050Y-75985000D01*
X153378889Y-76006487D01*
X153098966Y-76091401D01*
X152840986Y-76229294D01*
X152614866Y-76414866D01*
X152429294Y-76640986D01*
X152394799Y-76705523D01*
X152325178Y-76588645D01*
X152130269Y-76372412D01*
X151896920Y-76198359D01*
X151634099Y-76073175D01*
X151486890Y-76028524D01*
X151257000Y-76149845D01*
X151003000Y-76149845D01*
X150773110Y-76028524D01*
X150625901Y-76073175D01*
X150363080Y-76198359D01*
X150129731Y-76372412D01*
X149934822Y-76588645D01*
X149865201Y-76705523D01*
X149830706Y-76640986D01*
X149645134Y-76414866D01*
X149419014Y-76229294D01*
X149161034Y-76091401D01*
X148881111Y-76006487D01*
X148662950Y-75985000D01*
X148517050Y-75985000D01*
X148298889Y-76006487D01*
X148018966Y-76091401D01*
X147760986Y-76229294D01*
X147534866Y-76414866D01*
X147349294Y-76640986D01*
X147320000Y-76695791D01*
X147290706Y-76640986D01*
X147105134Y-76414866D01*
X146879014Y-76229294D01*
X146621034Y-76091401D01*
X146341111Y-76006487D01*
X146122950Y-75985000D01*
X145977050Y-75985000D01*
X145758889Y-76006487D01*
X145478966Y-76091401D01*
X145220986Y-76229294D01*
X144994866Y-76414866D01*
X144809294Y-76640986D01*
X144780000Y-76695791D01*
X144750706Y-76640986D01*
X144565134Y-76414866D01*
X144339014Y-76229294D01*
X144081034Y-76091401D01*
X143801111Y-76006487D01*
X143582950Y-75985000D01*
X143437050Y-75985000D01*
X143218889Y-76006487D01*
X142938966Y-76091401D01*
X142680986Y-76229294D01*
X142454866Y-76414866D01*
X142269294Y-76640986D01*
X142240000Y-76695791D01*
X142210706Y-76640986D01*
X142025134Y-76414866D01*
X141799014Y-76229294D01*
X141541034Y-76091401D01*
X141261111Y-76006487D01*
X141042950Y-75985000D01*
X140897050Y-75985000D01*
X140678889Y-76006487D01*
X140398966Y-76091401D01*
X140140986Y-76229294D01*
X139914866Y-76414866D01*
X139729294Y-76640986D01*
X139700000Y-76695791D01*
X139670706Y-76640986D01*
X139485134Y-76414866D01*
X139259014Y-76229294D01*
X139001034Y-76091401D01*
X138721111Y-76006487D01*
X138502950Y-75985000D01*
X138357050Y-75985000D01*
X138138889Y-76006487D01*
X137858966Y-76091401D01*
X137600986Y-76229294D01*
X137374866Y-76414866D01*
X137189294Y-76640986D01*
X137051401Y-76898966D01*
X136966487Y-77178889D01*
X136937815Y-77470000D01*
X136966487Y-77761111D01*
X137051401Y-78041034D01*
X137189294Y-78299014D01*
X137374866Y-78525134D01*
X137600986Y-78710706D01*
X137655791Y-78740000D01*
X137600986Y-78769294D01*
X137374866Y-78954866D01*
X137189294Y-79180986D01*
X137051401Y-79438966D01*
X136966487Y-79718889D01*
X136937815Y-80010000D01*
X136966487Y-80301111D01*
X137051401Y-80581034D01*
X137189294Y-80839014D01*
X137374866Y-81065134D01*
X137484368Y-81155000D01*
X129854801Y-81155000D01*
X129613803Y-80914002D01*
X129590000Y-80884998D01*
X129474275Y-80790025D01*
X129470824Y-80788180D01*
X129501037Y-80747420D01*
X129621246Y-80493087D01*
X129661904Y-80359039D01*
X129539915Y-80137000D01*
X128397000Y-80137000D01*
X128397000Y-80157000D01*
X128143000Y-80157000D01*
X128143000Y-80137000D01*
X127000085Y-80137000D01*
X126878096Y-80359039D01*
X126918754Y-80493087D01*
X127038963Y-80747420D01*
X127164039Y-80916157D01*
X126290197Y-81790000D01*
X121870901Y-81790000D01*
X121848932Y-81748899D01*
X121669608Y-81530392D01*
X121556518Y-81437581D01*
X121574482Y-81435812D01*
X121694180Y-81399502D01*
X121804494Y-81340537D01*
X121901185Y-81261185D01*
X121980537Y-81164494D01*
X122039502Y-81054180D01*
X122075812Y-80934482D01*
X122088072Y-80810000D01*
X122088072Y-79660961D01*
X126878096Y-79660961D01*
X127000085Y-79883000D01*
X128143000Y-79883000D01*
X128143000Y-78739376D01*
X128397000Y-78739376D01*
X128397000Y-79883000D01*
X129539915Y-79883000D01*
X129661904Y-79660961D01*
X129621246Y-79526913D01*
X129501037Y-79272580D01*
X129333519Y-79046586D01*
X129125131Y-78857615D01*
X128883881Y-78712930D01*
X128619040Y-78618091D01*
X128397000Y-78739376D01*
X128143000Y-78739376D01*
X127920960Y-78618091D01*
X127656119Y-78712930D01*
X127414869Y-78857615D01*
X127206481Y-79046586D01*
X127038963Y-79272580D01*
X126918754Y-79526913D01*
X126878096Y-79660961D01*
X122088072Y-79660961D01*
X122088072Y-79210000D01*
X122075812Y-79085518D01*
X122039502Y-78965820D01*
X121980537Y-78855506D01*
X121901185Y-78758815D01*
X121804494Y-78679463D01*
X121694180Y-78620498D01*
X121574482Y-78584188D01*
X121450000Y-78571928D01*
X119850000Y-78571928D01*
X119725518Y-78584188D01*
X119605820Y-78620498D01*
X119495506Y-78679463D01*
X119412437Y-78747636D01*
X118893804Y-78229003D01*
X118870001Y-78199999D01*
X118754276Y-78105026D01*
X118622247Y-78034454D01*
X118478986Y-77990997D01*
X118367333Y-77980000D01*
X118367322Y-77980000D01*
X118330000Y-77976324D01*
X118292678Y-77980000D01*
X118178526Y-77980000D01*
X118191246Y-77953087D01*
X118231904Y-77819039D01*
X118109915Y-77597000D01*
X116967000Y-77597000D01*
X116967000Y-77617000D01*
X116713000Y-77617000D01*
X116713000Y-77597000D01*
X115570085Y-77597000D01*
X115448096Y-77819039D01*
X115488754Y-77953087D01*
X115501474Y-77980000D01*
X110658072Y-77980000D01*
X110658072Y-77120961D01*
X115448096Y-77120961D01*
X115570085Y-77343000D01*
X116713000Y-77343000D01*
X116713000Y-76199376D01*
X116967000Y-76199376D01*
X116967000Y-77343000D01*
X118109915Y-77343000D01*
X118231904Y-77120961D01*
X118191246Y-76986913D01*
X118071037Y-76732580D01*
X117903519Y-76506586D01*
X117695131Y-76317615D01*
X117453881Y-76172930D01*
X117189040Y-76078091D01*
X116967000Y-76199376D01*
X116713000Y-76199376D01*
X116490960Y-76078091D01*
X116226119Y-76172930D01*
X115984869Y-76317615D01*
X115776481Y-76506586D01*
X115608963Y-76732580D01*
X115488754Y-76986913D01*
X115448096Y-77120961D01*
X110658072Y-77120961D01*
X110658072Y-76670000D01*
X110645812Y-76545518D01*
X110609502Y-76425820D01*
X110550537Y-76315506D01*
X110471185Y-76218815D01*
X110374494Y-76139463D01*
X110264180Y-76080498D01*
X110144482Y-76044188D01*
X110020000Y-76031928D01*
X108420000Y-76031928D01*
X108295518Y-76044188D01*
X108175820Y-76080498D01*
X108065506Y-76139463D01*
X107968815Y-76218815D01*
X107889463Y-76315506D01*
X107830498Y-76425820D01*
X107794188Y-76545518D01*
X107781928Y-76670000D01*
X107781928Y-77980000D01*
X66989802Y-77980000D01*
X66440000Y-77430199D01*
X66440000Y-77368061D01*
X66400226Y-77168102D01*
X66322205Y-76979744D01*
X66208937Y-76810226D01*
X66064774Y-76666063D01*
X65895256Y-76552795D01*
X65706898Y-76474774D01*
X65506939Y-76435000D01*
X65303061Y-76435000D01*
X65103102Y-76474774D01*
X64914744Y-76552795D01*
X64745226Y-76666063D01*
X64601063Y-76810226D01*
X64487795Y-76979744D01*
X64409774Y-77168102D01*
X64370000Y-77368061D01*
X64370000Y-77571939D01*
X64409774Y-77771898D01*
X64487795Y-77960256D01*
X64601063Y-78129774D01*
X64745226Y-78273937D01*
X64914744Y-78387205D01*
X65103102Y-78465226D01*
X65303061Y-78505000D01*
X65365199Y-78505000D01*
X66035198Y-79175000D01*
X60452000Y-79175000D01*
X60452000Y-78203072D01*
X60498491Y-78049811D01*
X60518072Y-77851000D01*
X60518072Y-77089000D01*
X60498491Y-76890189D01*
X60452000Y-76736928D01*
X60452000Y-75590000D01*
X165067721Y-75590000D01*
X165217869Y-75604722D01*
M02*
