G04 #@! TF.GenerationSoftware,KiCad,Pcbnew,(5.1.2-1)-1*
G04 #@! TF.CreationDate,2023-07-30T19:28:41+02:00*
G04 #@! TF.ProjectId,devcart32k,64657663-6172-4743-9332-6b2e6b696361,rev?*
G04 #@! TF.SameCoordinates,Original*
G04 #@! TF.FileFunction,Profile,NP*
%FSLAX46Y46*%
G04 Gerber Fmt 4.6, Leading zero omitted, Abs format (unit mm)*
G04 Created by KiCad (PCBNEW (5.1.2-1)-1) date 2023-07-30 19:28:41*
%MOMM*%
%LPD*%
G04 APERTURE LIST*
%ADD10C,0.050000*%
G04 APERTURE END LIST*
D10*
X52070000Y-117094000D02*
G75*
G02X52324000Y-116840000I254000J0D01*
G01*
X52324000Y-114300000D02*
G75*
G02X52070000Y-114046000I0J254000D01*
G01*
X60325000Y-116205000D02*
X60325000Y-114935000D01*
X60325000Y-116205000D02*
G75*
G02X59690000Y-116840000I-635000J0D01*
G01*
X59690000Y-114300000D02*
G75*
G02X60325000Y-114935000I0J-635000D01*
G01*
X52705000Y-123190000D02*
X62865000Y-123190000D01*
X52705000Y-123190000D02*
G75*
G02X52070000Y-122555000I0J635000D01*
G01*
X52070000Y-117094000D02*
X52070000Y-122555000D01*
X59690000Y-116840000D02*
X52324000Y-116840000D01*
X52324000Y-114300000D02*
X59690000Y-114300000D01*
X52070000Y-75565000D02*
X52070000Y-114046000D01*
X52070000Y-75565000D02*
G75*
G02X52705000Y-74930000I635000J0D01*
G01*
X60960000Y-74930000D02*
X52705000Y-74930000D01*
X166370000Y-127000000D02*
G75*
G02X165100000Y-128270000I-1270000J0D01*
G01*
X166370000Y-127000000D02*
X166370000Y-76200000D01*
X64770000Y-128270000D02*
X165100000Y-128270000D01*
X64770000Y-128270000D02*
G75*
G02X63500000Y-127000000I0J1270000D01*
G01*
X63500000Y-123825000D02*
X63500000Y-127000000D01*
X62865000Y-123190000D02*
G75*
G02X63500000Y-123825000I0J-635000D01*
G01*
X165100000Y-74930000D02*
G75*
G02X166370000Y-76200000I0J-1270000D01*
G01*
X60960000Y-74930000D02*
X165100000Y-74930000D01*
M02*
