G04 #@! TF.GenerationSoftware,KiCad,Pcbnew,(5.1.2-1)-1*
G04 #@! TF.CreationDate,2023-07-30T19:28:41+02:00*
G04 #@! TF.ProjectId,devcart32k,64657663-6172-4743-9332-6b2e6b696361,rev?*
G04 #@! TF.SameCoordinates,Original*
G04 #@! TF.FileFunction,Legend,Top*
G04 #@! TF.FilePolarity,Positive*
%FSLAX46Y46*%
G04 Gerber Fmt 4.6, Leading zero omitted, Abs format (unit mm)*
G04 Created by KiCad (PCBNEW (5.1.2-1)-1) date 2023-07-30 19:28:41*
%MOMM*%
%LPD*%
G04 APERTURE LIST*
%ADD10C,0.200000*%
%ADD11C,0.508000*%
%ADD12C,0.300000*%
%ADD13C,0.254000*%
%ADD14C,0.157500*%
%ADD15C,0.400000*%
%ADD16C,0.120000*%
%ADD17C,0.010000*%
%ADD18C,0.150000*%
%ADD19C,0.100000*%
%ADD20C,1.626000*%
%ADD21O,1.702000X1.702000*%
%ADD22R,1.702000X1.702000*%
%ADD23O,1.802000X1.802000*%
%ADD24R,1.802000X1.802000*%
%ADD25C,1.702000*%
%ADD26O,2.102000X1.542000*%
%ADD27R,2.102000X1.542000*%
G04 APERTURE END LIST*
D10*
X140365238Y-126408571D02*
X139941904Y-125694285D01*
X139639523Y-126408571D02*
X139639523Y-124908571D01*
X140123333Y-124908571D01*
X140244285Y-124980000D01*
X140304761Y-125051428D01*
X140365238Y-125194285D01*
X140365238Y-125408571D01*
X140304761Y-125551428D01*
X140244285Y-125622857D01*
X140123333Y-125694285D01*
X139639523Y-125694285D01*
X141393333Y-126337142D02*
X141272380Y-126408571D01*
X141030476Y-126408571D01*
X140909523Y-126337142D01*
X140849047Y-126194285D01*
X140849047Y-125622857D01*
X140909523Y-125480000D01*
X141030476Y-125408571D01*
X141272380Y-125408571D01*
X141393333Y-125480000D01*
X141453809Y-125622857D01*
X141453809Y-125765714D01*
X140849047Y-125908571D01*
X141877142Y-125408571D02*
X142179523Y-126408571D01*
X142481904Y-125408571D01*
X142965714Y-126408571D02*
X142965714Y-125408571D01*
X142965714Y-124908571D02*
X142905238Y-124980000D01*
X142965714Y-125051428D01*
X143026190Y-124980000D01*
X142965714Y-124908571D01*
X142965714Y-125051428D01*
X143510000Y-126337142D02*
X143630952Y-126408571D01*
X143872857Y-126408571D01*
X143993809Y-126337142D01*
X144054285Y-126194285D01*
X144054285Y-126122857D01*
X143993809Y-125980000D01*
X143872857Y-125908571D01*
X143691428Y-125908571D01*
X143570476Y-125837142D01*
X143510000Y-125694285D01*
X143510000Y-125622857D01*
X143570476Y-125480000D01*
X143691428Y-125408571D01*
X143872857Y-125408571D01*
X143993809Y-125480000D01*
X145082380Y-126337142D02*
X144961428Y-126408571D01*
X144719523Y-126408571D01*
X144598571Y-126337142D01*
X144538095Y-126194285D01*
X144538095Y-125622857D01*
X144598571Y-125480000D01*
X144719523Y-125408571D01*
X144961428Y-125408571D01*
X145082380Y-125480000D01*
X145142857Y-125622857D01*
X145142857Y-125765714D01*
X144538095Y-125908571D01*
X146231428Y-126408571D02*
X146231428Y-124908571D01*
X146231428Y-126337142D02*
X146110476Y-126408571D01*
X145868571Y-126408571D01*
X145747619Y-126337142D01*
X145687142Y-126265714D01*
X145626666Y-126122857D01*
X145626666Y-125694285D01*
X145687142Y-125551428D01*
X145747619Y-125480000D01*
X145868571Y-125408571D01*
X146110476Y-125408571D01*
X146231428Y-125480000D01*
X147743333Y-125051428D02*
X147803809Y-124980000D01*
X147924761Y-124908571D01*
X148227142Y-124908571D01*
X148348095Y-124980000D01*
X148408571Y-125051428D01*
X148469047Y-125194285D01*
X148469047Y-125337142D01*
X148408571Y-125551428D01*
X147682857Y-126408571D01*
X148469047Y-126408571D01*
X149255238Y-124908571D02*
X149376190Y-124908571D01*
X149497142Y-124980000D01*
X149557619Y-125051428D01*
X149618095Y-125194285D01*
X149678571Y-125480000D01*
X149678571Y-125837142D01*
X149618095Y-126122857D01*
X149557619Y-126265714D01*
X149497142Y-126337142D01*
X149376190Y-126408571D01*
X149255238Y-126408571D01*
X149134285Y-126337142D01*
X149073809Y-126265714D01*
X149013333Y-126122857D01*
X148952857Y-125837142D01*
X148952857Y-125480000D01*
X149013333Y-125194285D01*
X149073809Y-125051428D01*
X149134285Y-124980000D01*
X149255238Y-124908571D01*
X150162380Y-125051428D02*
X150222857Y-124980000D01*
X150343809Y-124908571D01*
X150646190Y-124908571D01*
X150767142Y-124980000D01*
X150827619Y-125051428D01*
X150888095Y-125194285D01*
X150888095Y-125337142D01*
X150827619Y-125551428D01*
X150101904Y-126408571D01*
X150888095Y-126408571D01*
X151311428Y-124908571D02*
X152097619Y-124908571D01*
X151674285Y-125480000D01*
X151855714Y-125480000D01*
X151976666Y-125551428D01*
X152037142Y-125622857D01*
X152097619Y-125765714D01*
X152097619Y-126122857D01*
X152037142Y-126265714D01*
X151976666Y-126337142D01*
X151855714Y-126408571D01*
X151492857Y-126408571D01*
X151371904Y-126337142D01*
X151311428Y-126265714D01*
X152823333Y-125765714D02*
X152762857Y-125837142D01*
X152823333Y-125908571D01*
X152883809Y-125837142D01*
X152823333Y-125765714D01*
X152823333Y-125908571D01*
X153851428Y-124908571D02*
X153972380Y-124908571D01*
X154093333Y-124980000D01*
X154153809Y-125051428D01*
X154214285Y-125194285D01*
X154274761Y-125480000D01*
X154274761Y-125837142D01*
X154214285Y-126122857D01*
X154153809Y-126265714D01*
X154093333Y-126337142D01*
X153972380Y-126408571D01*
X153851428Y-126408571D01*
X153730476Y-126337142D01*
X153670000Y-126265714D01*
X153609523Y-126122857D01*
X153549047Y-125837142D01*
X153549047Y-125480000D01*
X153609523Y-125194285D01*
X153670000Y-125051428D01*
X153730476Y-124980000D01*
X153851428Y-124908571D01*
X155363333Y-124908571D02*
X155121428Y-124908571D01*
X155000476Y-124980000D01*
X154940000Y-125051428D01*
X154819047Y-125265714D01*
X154758571Y-125551428D01*
X154758571Y-126122857D01*
X154819047Y-126265714D01*
X154879523Y-126337142D01*
X155000476Y-126408571D01*
X155242380Y-126408571D01*
X155363333Y-126337142D01*
X155423809Y-126265714D01*
X155484285Y-126122857D01*
X155484285Y-125765714D01*
X155423809Y-125622857D01*
X155363333Y-125551428D01*
X155242380Y-125480000D01*
X155000476Y-125480000D01*
X154879523Y-125551428D01*
X154819047Y-125622857D01*
X154758571Y-125765714D01*
X156210000Y-125765714D02*
X156149523Y-125837142D01*
X156210000Y-125908571D01*
X156270476Y-125837142D01*
X156210000Y-125765714D01*
X156210000Y-125908571D01*
X157661428Y-126408571D02*
X156935714Y-126408571D01*
X157298571Y-126408571D02*
X157298571Y-124908571D01*
X157177619Y-125122857D01*
X157056666Y-125265714D01*
X156935714Y-125337142D01*
X158810476Y-124908571D02*
X158205714Y-124908571D01*
X158145238Y-125622857D01*
X158205714Y-125551428D01*
X158326666Y-125480000D01*
X158629047Y-125480000D01*
X158750000Y-125551428D01*
X158810476Y-125622857D01*
X158870952Y-125765714D01*
X158870952Y-126122857D01*
X158810476Y-126265714D01*
X158750000Y-126337142D01*
X158629047Y-126408571D01*
X158326666Y-126408571D01*
X158205714Y-126337142D01*
X158145238Y-126265714D01*
D11*
X148329952Y-90653809D02*
X148329952Y-92226190D01*
X147362333Y-91379523D01*
X147362333Y-91742380D01*
X147241380Y-91984285D01*
X147120428Y-92105238D01*
X146878523Y-92226190D01*
X146273761Y-92226190D01*
X146031857Y-92105238D01*
X145910904Y-91984285D01*
X145789952Y-91742380D01*
X145789952Y-91016666D01*
X145910904Y-90774761D01*
X146031857Y-90653809D01*
X148088047Y-93193809D02*
X148209000Y-93314761D01*
X148329952Y-93556666D01*
X148329952Y-94161428D01*
X148209000Y-94403333D01*
X148088047Y-94524285D01*
X147846142Y-94645238D01*
X147604238Y-94645238D01*
X147241380Y-94524285D01*
X145789952Y-93072857D01*
X145789952Y-94645238D01*
X145789952Y-97669047D02*
X148329952Y-97669047D01*
X145789952Y-99120476D02*
X147241380Y-98031904D01*
X148329952Y-99120476D02*
X146878523Y-97669047D01*
X145789952Y-100209047D02*
X147483285Y-100209047D01*
X148329952Y-100209047D02*
X148209000Y-100088095D01*
X148088047Y-100209047D01*
X148209000Y-100330000D01*
X148329952Y-100209047D01*
X148088047Y-100209047D01*
X147120428Y-102265238D02*
X146999476Y-102628095D01*
X146878523Y-102749047D01*
X146636619Y-102870000D01*
X146273761Y-102870000D01*
X146031857Y-102749047D01*
X145910904Y-102628095D01*
X145789952Y-102386190D01*
X145789952Y-101418571D01*
X148329952Y-101418571D01*
X148329952Y-102265238D01*
X148209000Y-102507142D01*
X148088047Y-102628095D01*
X147846142Y-102749047D01*
X147604238Y-102749047D01*
X147362333Y-102628095D01*
X147241380Y-102507142D01*
X147120428Y-102265238D01*
X147120428Y-101418571D01*
X145789952Y-107345238D02*
X146999476Y-106498571D01*
X145789952Y-105893809D02*
X148329952Y-105893809D01*
X148329952Y-106861428D01*
X148209000Y-107103333D01*
X148088047Y-107224285D01*
X147846142Y-107345238D01*
X147483285Y-107345238D01*
X147241380Y-107224285D01*
X147120428Y-107103333D01*
X146999476Y-106861428D01*
X146999476Y-105893809D01*
X146515666Y-108312857D02*
X146515666Y-109522380D01*
X145789952Y-108070952D02*
X148329952Y-108917619D01*
X145789952Y-109764285D01*
X145789952Y-110610952D02*
X148329952Y-110610952D01*
X146515666Y-111457619D01*
X148329952Y-112304285D01*
X145789952Y-112304285D01*
X141592904Y-94463809D02*
X141471952Y-94826666D01*
X141471952Y-95431428D01*
X141592904Y-95673333D01*
X141713857Y-95794285D01*
X141955761Y-95915238D01*
X142197666Y-95915238D01*
X142439571Y-95794285D01*
X142560523Y-95673333D01*
X142681476Y-95431428D01*
X142802428Y-94947619D01*
X142923380Y-94705714D01*
X143044333Y-94584761D01*
X143286238Y-94463809D01*
X143528142Y-94463809D01*
X143770047Y-94584761D01*
X143891000Y-94705714D01*
X144011952Y-94947619D01*
X144011952Y-95552380D01*
X143891000Y-95915238D01*
X141471952Y-97003809D02*
X144011952Y-97003809D01*
X144011952Y-97608571D01*
X143891000Y-97971428D01*
X143649095Y-98213333D01*
X143407190Y-98334285D01*
X142923380Y-98455238D01*
X142560523Y-98455238D01*
X142076714Y-98334285D01*
X141834809Y-98213333D01*
X141592904Y-97971428D01*
X141471952Y-97608571D01*
X141471952Y-97003809D01*
X141592904Y-102567619D02*
X141471952Y-102325714D01*
X141471952Y-101841904D01*
X141592904Y-101600000D01*
X141713857Y-101479047D01*
X141955761Y-101358095D01*
X142681476Y-101358095D01*
X142923380Y-101479047D01*
X143044333Y-101600000D01*
X143165285Y-101841904D01*
X143165285Y-102325714D01*
X143044333Y-102567619D01*
X141471952Y-104744761D02*
X142802428Y-104744761D01*
X143044333Y-104623809D01*
X143165285Y-104381904D01*
X143165285Y-103898095D01*
X143044333Y-103656190D01*
X141592904Y-104744761D02*
X141471952Y-104502857D01*
X141471952Y-103898095D01*
X141592904Y-103656190D01*
X141834809Y-103535238D01*
X142076714Y-103535238D01*
X142318619Y-103656190D01*
X142439571Y-103898095D01*
X142439571Y-104502857D01*
X142560523Y-104744761D01*
X141471952Y-105954285D02*
X143165285Y-105954285D01*
X142681476Y-105954285D02*
X142923380Y-106075238D01*
X143044333Y-106196190D01*
X143165285Y-106438095D01*
X143165285Y-106680000D01*
X141471952Y-108615238D02*
X144011952Y-108615238D01*
X141592904Y-108615238D02*
X141471952Y-108373333D01*
X141471952Y-107889523D01*
X141592904Y-107647619D01*
X141713857Y-107526666D01*
X141955761Y-107405714D01*
X142681476Y-107405714D01*
X142923380Y-107526666D01*
X143044333Y-107647619D01*
X143165285Y-107889523D01*
X143165285Y-108373333D01*
X143044333Y-108615238D01*
D12*
X97155000Y-78105000D02*
X95250000Y-80010000D01*
X97155000Y-78105000D02*
X95250000Y-76200000D01*
X98779190Y-78105000D02*
X97155000Y-78105000D01*
X98425000Y-76200000D02*
X98425000Y-80010000D01*
X99695000Y-78105000D02*
G75*
G03X99695000Y-78105000I-457905J0D01*
G01*
X98425000Y-76200000D02*
G75*
G02X98425000Y-80010000I0J-1905000D01*
G01*
D13*
X76795690Y-83668809D02*
X76856166Y-83547857D01*
X76916642Y-83487380D01*
X77037595Y-83426904D01*
X77098071Y-83426904D01*
X77219023Y-83487380D01*
X77279500Y-83547857D01*
X77339976Y-83668809D01*
X77339976Y-83910714D01*
X77279500Y-84031666D01*
X77219023Y-84092142D01*
X77098071Y-84152619D01*
X77037595Y-84152619D01*
X76916642Y-84092142D01*
X76856166Y-84031666D01*
X76795690Y-83910714D01*
X76795690Y-83668809D01*
X76735214Y-83547857D01*
X76674738Y-83487380D01*
X76553785Y-83426904D01*
X76311880Y-83426904D01*
X76190928Y-83487380D01*
X76130452Y-83547857D01*
X76069976Y-83668809D01*
X76069976Y-83910714D01*
X76130452Y-84031666D01*
X76190928Y-84092142D01*
X76311880Y-84152619D01*
X76553785Y-84152619D01*
X76674738Y-84092142D01*
X76735214Y-84031666D01*
X76795690Y-83910714D01*
X76553785Y-84696904D02*
X76553785Y-85664523D01*
X77339976Y-86813571D02*
X77339976Y-86571666D01*
X77279500Y-86450714D01*
X77219023Y-86390238D01*
X77037595Y-86269285D01*
X76795690Y-86208809D01*
X76311880Y-86208809D01*
X76190928Y-86269285D01*
X76130452Y-86329761D01*
X76069976Y-86450714D01*
X76069976Y-86692619D01*
X76130452Y-86813571D01*
X76190928Y-86874047D01*
X76311880Y-86934523D01*
X76614261Y-86934523D01*
X76735214Y-86874047D01*
X76795690Y-86813571D01*
X76856166Y-86692619D01*
X76856166Y-86450714D01*
X76795690Y-86329761D01*
X76735214Y-86269285D01*
X76614261Y-86208809D01*
X76916642Y-88023095D02*
X76069976Y-88023095D01*
X77400452Y-87720714D02*
X76493309Y-87418333D01*
X76493309Y-88204523D01*
X76069976Y-89655952D02*
X77339976Y-89655952D01*
X76069976Y-90381666D02*
X76795690Y-89837380D01*
X77339976Y-90381666D02*
X76614261Y-89655952D01*
X76069976Y-90925952D02*
X76916642Y-90925952D01*
X77339976Y-90925952D02*
X77279500Y-90865476D01*
X77219023Y-90925952D01*
X77279500Y-90986428D01*
X77339976Y-90925952D01*
X77219023Y-90925952D01*
X76735214Y-91954047D02*
X76674738Y-92135476D01*
X76614261Y-92195952D01*
X76493309Y-92256428D01*
X76311880Y-92256428D01*
X76190928Y-92195952D01*
X76130452Y-92135476D01*
X76069976Y-92014523D01*
X76069976Y-91530714D01*
X77339976Y-91530714D01*
X77339976Y-91954047D01*
X77279500Y-92075000D01*
X77219023Y-92135476D01*
X77098071Y-92195952D01*
X76977119Y-92195952D01*
X76856166Y-92135476D01*
X76795690Y-92075000D01*
X76735214Y-91954047D01*
X76735214Y-91530714D01*
X76735214Y-93768333D02*
X76735214Y-94191666D01*
X76069976Y-94373095D02*
X76069976Y-93768333D01*
X77339976Y-93768333D01*
X77339976Y-94373095D01*
X76069976Y-94917380D02*
X77339976Y-94917380D01*
X77339976Y-95401190D01*
X77279500Y-95522142D01*
X77219023Y-95582619D01*
X77098071Y-95643095D01*
X76916642Y-95643095D01*
X76795690Y-95582619D01*
X76735214Y-95522142D01*
X76674738Y-95401190D01*
X76674738Y-94917380D01*
X76069976Y-96913095D02*
X76674738Y-96489761D01*
X76069976Y-96187380D02*
X77339976Y-96187380D01*
X77339976Y-96671190D01*
X77279500Y-96792142D01*
X77219023Y-96852619D01*
X77098071Y-96913095D01*
X76916642Y-96913095D01*
X76795690Y-96852619D01*
X76735214Y-96792142D01*
X76674738Y-96671190D01*
X76674738Y-96187380D01*
X77339976Y-97699285D02*
X77339976Y-97941190D01*
X77279500Y-98062142D01*
X77158547Y-98183095D01*
X76916642Y-98243571D01*
X76493309Y-98243571D01*
X76251404Y-98183095D01*
X76130452Y-98062142D01*
X76069976Y-97941190D01*
X76069976Y-97699285D01*
X76130452Y-97578333D01*
X76251404Y-97457380D01*
X76493309Y-97396904D01*
X76916642Y-97396904D01*
X77158547Y-97457380D01*
X77279500Y-97578333D01*
X77339976Y-97699285D01*
X76069976Y-98787857D02*
X77339976Y-98787857D01*
X76432833Y-99211190D01*
X77339976Y-99634523D01*
X76069976Y-99634523D01*
X77400452Y-101146428D02*
X75767595Y-100057857D01*
X76735214Y-101569761D02*
X76735214Y-101993095D01*
X76069976Y-102174523D02*
X76069976Y-101569761D01*
X77339976Y-101569761D01*
X77339976Y-102174523D01*
X76735214Y-102718809D02*
X76735214Y-103142142D01*
X76069976Y-103323571D02*
X76069976Y-102718809D01*
X77339976Y-102718809D01*
X77339976Y-103323571D01*
X76069976Y-103867857D02*
X77339976Y-103867857D01*
X77339976Y-104351666D01*
X77279500Y-104472619D01*
X77219023Y-104533095D01*
X77098071Y-104593571D01*
X76916642Y-104593571D01*
X76795690Y-104533095D01*
X76735214Y-104472619D01*
X76674738Y-104351666D01*
X76674738Y-103867857D01*
X76069976Y-105863571D02*
X76674738Y-105440238D01*
X76069976Y-105137857D02*
X77339976Y-105137857D01*
X77339976Y-105621666D01*
X77279500Y-105742619D01*
X77219023Y-105803095D01*
X77098071Y-105863571D01*
X76916642Y-105863571D01*
X76795690Y-105803095D01*
X76735214Y-105742619D01*
X76674738Y-105621666D01*
X76674738Y-105137857D01*
X77339976Y-106649761D02*
X77339976Y-106891666D01*
X77279500Y-107012619D01*
X77158547Y-107133571D01*
X76916642Y-107194047D01*
X76493309Y-107194047D01*
X76251404Y-107133571D01*
X76130452Y-107012619D01*
X76069976Y-106891666D01*
X76069976Y-106649761D01*
X76130452Y-106528809D01*
X76251404Y-106407857D01*
X76493309Y-106347380D01*
X76916642Y-106347380D01*
X77158547Y-106407857D01*
X77279500Y-106528809D01*
X77339976Y-106649761D01*
X76069976Y-107738333D02*
X77339976Y-107738333D01*
X76432833Y-108161666D01*
X77339976Y-108585000D01*
X76069976Y-108585000D01*
X77400452Y-110096904D02*
X75767595Y-109008333D01*
X76916642Y-110338809D02*
X76916642Y-110822619D01*
X76069976Y-110520238D02*
X77158547Y-110520238D01*
X77279500Y-110580714D01*
X77339976Y-110701666D01*
X77339976Y-110822619D01*
X76069976Y-111427380D02*
X76130452Y-111306428D01*
X76251404Y-111245952D01*
X77339976Y-111245952D01*
X76069976Y-112455476D02*
X76735214Y-112455476D01*
X76856166Y-112395000D01*
X76916642Y-112274047D01*
X76916642Y-112032142D01*
X76856166Y-111911190D01*
X76130452Y-112455476D02*
X76069976Y-112334523D01*
X76069976Y-112032142D01*
X76130452Y-111911190D01*
X76251404Y-111850714D01*
X76372357Y-111850714D01*
X76493309Y-111911190D01*
X76553785Y-112032142D01*
X76553785Y-112334523D01*
X76614261Y-112455476D01*
X76130452Y-112999761D02*
X76069976Y-113120714D01*
X76069976Y-113362619D01*
X76130452Y-113483571D01*
X76251404Y-113544047D01*
X76311880Y-113544047D01*
X76432833Y-113483571D01*
X76493309Y-113362619D01*
X76493309Y-113181190D01*
X76553785Y-113060238D01*
X76674738Y-112999761D01*
X76735214Y-112999761D01*
X76856166Y-113060238D01*
X76916642Y-113181190D01*
X76916642Y-113362619D01*
X76856166Y-113483571D01*
X76069976Y-114088333D02*
X77339976Y-114088333D01*
X76069976Y-114632619D02*
X76735214Y-114632619D01*
X76856166Y-114572142D01*
X76916642Y-114451190D01*
X76916642Y-114269761D01*
X76856166Y-114148809D01*
X76795690Y-114088333D01*
X73427166Y-92558809D02*
X73487642Y-92498333D01*
X73669071Y-92377380D01*
X73790023Y-92316904D01*
X73971452Y-92256428D01*
X74273833Y-92195952D01*
X74515738Y-92195952D01*
X74818119Y-92256428D01*
X74999547Y-92316904D01*
X75120500Y-92377380D01*
X75301928Y-92498333D01*
X75362404Y-92558809D01*
X74757642Y-93586904D02*
X73910976Y-93586904D01*
X74757642Y-93042619D02*
X74092404Y-93042619D01*
X73971452Y-93103095D01*
X73910976Y-93224047D01*
X73910976Y-93405476D01*
X73971452Y-93526428D01*
X74031928Y-93586904D01*
X74757642Y-94191666D02*
X73487642Y-94191666D01*
X74697166Y-94191666D02*
X74757642Y-94312619D01*
X74757642Y-94554523D01*
X74697166Y-94675476D01*
X74636690Y-94735952D01*
X74515738Y-94796428D01*
X74152880Y-94796428D01*
X74031928Y-94735952D01*
X73971452Y-94675476D01*
X73910976Y-94554523D01*
X73910976Y-94312619D01*
X73971452Y-94191666D01*
X74757642Y-96126904D02*
X74757642Y-96610714D01*
X75180976Y-96308333D02*
X74092404Y-96308333D01*
X73971452Y-96368809D01*
X73910976Y-96489761D01*
X73910976Y-96610714D01*
X73910976Y-97215476D02*
X73971452Y-97094523D01*
X74031928Y-97034047D01*
X74152880Y-96973571D01*
X74515738Y-96973571D01*
X74636690Y-97034047D01*
X74697166Y-97094523D01*
X74757642Y-97215476D01*
X74757642Y-97396904D01*
X74697166Y-97517857D01*
X74636690Y-97578333D01*
X74515738Y-97638809D01*
X74152880Y-97638809D01*
X74031928Y-97578333D01*
X73971452Y-97517857D01*
X73910976Y-97396904D01*
X73910976Y-97215476D01*
X73910976Y-99815952D02*
X73910976Y-99090238D01*
X73910976Y-99453095D02*
X75180976Y-99453095D01*
X74999547Y-99332142D01*
X74878595Y-99211190D01*
X74818119Y-99090238D01*
X75180976Y-100904523D02*
X75180976Y-100662619D01*
X75120500Y-100541666D01*
X75060023Y-100481190D01*
X74878595Y-100360238D01*
X74636690Y-100299761D01*
X74152880Y-100299761D01*
X74031928Y-100360238D01*
X73971452Y-100420714D01*
X73910976Y-100541666D01*
X73910976Y-100783571D01*
X73971452Y-100904523D01*
X74031928Y-100965000D01*
X74152880Y-101025476D01*
X74455261Y-101025476D01*
X74576214Y-100965000D01*
X74636690Y-100904523D01*
X74697166Y-100783571D01*
X74697166Y-100541666D01*
X74636690Y-100420714D01*
X74576214Y-100360238D01*
X74455261Y-100299761D01*
X73910976Y-102537380D02*
X75180976Y-102537380D01*
X73910976Y-103263095D02*
X74636690Y-102718809D01*
X75180976Y-103263095D02*
X74455261Y-102537380D01*
X73910976Y-103807380D02*
X74757642Y-103807380D01*
X75180976Y-103807380D02*
X75120500Y-103746904D01*
X75060023Y-103807380D01*
X75120500Y-103867857D01*
X75180976Y-103807380D01*
X75060023Y-103807380D01*
X74576214Y-104835476D02*
X74515738Y-105016904D01*
X74455261Y-105077380D01*
X74334309Y-105137857D01*
X74152880Y-105137857D01*
X74031928Y-105077380D01*
X73971452Y-105016904D01*
X73910976Y-104895952D01*
X73910976Y-104412142D01*
X75180976Y-104412142D01*
X75180976Y-104835476D01*
X75120500Y-104956428D01*
X75060023Y-105016904D01*
X74939071Y-105077380D01*
X74818119Y-105077380D01*
X74697166Y-105016904D01*
X74636690Y-104956428D01*
X74576214Y-104835476D01*
X74576214Y-104412142D01*
X73427166Y-105561190D02*
X73487642Y-105621666D01*
X73669071Y-105742619D01*
X73790023Y-105803095D01*
X73971452Y-105863571D01*
X74273833Y-105924047D01*
X74515738Y-105924047D01*
X74818119Y-105863571D01*
X74999547Y-105803095D01*
X75120500Y-105742619D01*
X75301928Y-105621666D01*
X75362404Y-105561190D01*
D14*
X71676380Y-94367047D02*
X70950666Y-94367047D01*
X70805523Y-94318666D01*
X70708761Y-94221904D01*
X70660380Y-94076761D01*
X70660380Y-93980000D01*
X70660380Y-95334666D02*
X70660380Y-94850857D01*
X71676380Y-94850857D01*
X70757142Y-96253904D02*
X70708761Y-96205523D01*
X70660380Y-96060380D01*
X70660380Y-95963619D01*
X70708761Y-95818476D01*
X70805523Y-95721714D01*
X70902285Y-95673333D01*
X71095809Y-95624952D01*
X71240952Y-95624952D01*
X71434476Y-95673333D01*
X71531238Y-95721714D01*
X71628000Y-95818476D01*
X71676380Y-95963619D01*
X71676380Y-96060380D01*
X71628000Y-96205523D01*
X71579619Y-96253904D01*
X71676380Y-96979619D02*
X70950666Y-96979619D01*
X70805523Y-96931238D01*
X70708761Y-96834476D01*
X70660380Y-96689333D01*
X70660380Y-96592571D01*
X70660380Y-97947238D02*
X70660380Y-97463428D01*
X71676380Y-97463428D01*
X70757142Y-98866476D02*
X70708761Y-98818095D01*
X70660380Y-98672952D01*
X70660380Y-98576190D01*
X70708761Y-98431047D01*
X70805523Y-98334285D01*
X70902285Y-98285904D01*
X71095809Y-98237523D01*
X71240952Y-98237523D01*
X71434476Y-98285904D01*
X71531238Y-98334285D01*
X71628000Y-98431047D01*
X71676380Y-98576190D01*
X71676380Y-98672952D01*
X71628000Y-98818095D01*
X71579619Y-98866476D01*
X71676380Y-99592190D02*
X70950666Y-99592190D01*
X70805523Y-99543809D01*
X70708761Y-99447047D01*
X70660380Y-99301904D01*
X70660380Y-99205142D01*
X70660380Y-100559809D02*
X70660380Y-100076000D01*
X71676380Y-100076000D01*
X70757142Y-101479047D02*
X70708761Y-101430666D01*
X70660380Y-101285523D01*
X70660380Y-101188761D01*
X70708761Y-101043619D01*
X70805523Y-100946857D01*
X70902285Y-100898476D01*
X71095809Y-100850095D01*
X71240952Y-100850095D01*
X71434476Y-100898476D01*
X71531238Y-100946857D01*
X71628000Y-101043619D01*
X71676380Y-101188761D01*
X71676380Y-101285523D01*
X71628000Y-101430666D01*
X71579619Y-101479047D01*
X71676380Y-102204761D02*
X70950666Y-102204761D01*
X70805523Y-102156380D01*
X70708761Y-102059619D01*
X70660380Y-101914476D01*
X70660380Y-101817714D01*
X70660380Y-103172380D02*
X70660380Y-102688571D01*
X71676380Y-102688571D01*
X70757142Y-104091619D02*
X70708761Y-104043238D01*
X70660380Y-103898095D01*
X70660380Y-103801333D01*
X70708761Y-103656190D01*
X70805523Y-103559428D01*
X70902285Y-103511047D01*
X71095809Y-103462666D01*
X71240952Y-103462666D01*
X71434476Y-103511047D01*
X71531238Y-103559428D01*
X71628000Y-103656190D01*
X71676380Y-103801333D01*
X71676380Y-103898095D01*
X71628000Y-104043238D01*
X71579619Y-104091619D01*
D15*
X132757857Y-96757142D02*
X132843571Y-96671428D01*
X132929285Y-96500000D01*
X132929285Y-96328571D01*
X132843571Y-96157142D01*
X132757857Y-96071428D01*
X132586428Y-95985714D01*
X132415000Y-95985714D01*
X132243571Y-96071428D01*
X132157857Y-96157142D01*
X132072142Y-96328571D01*
X132072142Y-96500000D01*
X132157857Y-96671428D01*
X132243571Y-96757142D01*
X132929285Y-96757142D02*
X132243571Y-96757142D01*
X132157857Y-96842857D01*
X132157857Y-96928571D01*
X132243571Y-97100000D01*
X132415000Y-97185714D01*
X132843571Y-97185714D01*
X133100714Y-97014285D01*
X133272142Y-96757142D01*
X133357857Y-96414285D01*
X133272142Y-96071428D01*
X133100714Y-95814285D01*
X132843571Y-95642857D01*
X132500714Y-95557142D01*
X132157857Y-95642857D01*
X131900714Y-95814285D01*
X131729285Y-96071428D01*
X131643571Y-96414285D01*
X131729285Y-96757142D01*
X131900714Y-97014285D01*
X133100714Y-97785714D02*
X133100714Y-98728571D01*
X131900714Y-97785714D01*
X131900714Y-98728571D01*
X133100714Y-100185714D02*
X131900714Y-100185714D01*
X133100714Y-99414285D02*
X132157857Y-99414285D01*
X131986428Y-99500000D01*
X131900714Y-99671428D01*
X131900714Y-99928571D01*
X131986428Y-100100000D01*
X132072142Y-100185714D01*
X131900714Y-101042857D02*
X133100714Y-101042857D01*
X133700714Y-101042857D02*
X133615000Y-100957142D01*
X133529285Y-101042857D01*
X133615000Y-101128571D01*
X133700714Y-101042857D01*
X133529285Y-101042857D01*
X131900714Y-101900000D02*
X133700714Y-101900000D01*
X132586428Y-102071428D02*
X131900714Y-102585714D01*
X133100714Y-102585714D02*
X132415000Y-101900000D01*
X131900714Y-103614285D02*
X131986428Y-103442857D01*
X132072142Y-103357142D01*
X132243571Y-103271428D01*
X132757857Y-103271428D01*
X132929285Y-103357142D01*
X133015000Y-103442857D01*
X133100714Y-103614285D01*
X133100714Y-103871428D01*
X133015000Y-104042857D01*
X132929285Y-104128571D01*
X132757857Y-104214285D01*
X132243571Y-104214285D01*
X132072142Y-104128571D01*
X131986428Y-104042857D01*
X131900714Y-103871428D01*
X131900714Y-103614285D01*
X133529285Y-104900000D02*
X133615000Y-104985714D01*
X133700714Y-105157142D01*
X133700714Y-105585714D01*
X133615000Y-105757142D01*
X133529285Y-105842857D01*
X133357857Y-105928571D01*
X133186428Y-105928571D01*
X132929285Y-105842857D01*
X131900714Y-104814285D01*
X131900714Y-105928571D01*
X131900714Y-107642857D02*
X131900714Y-106614285D01*
X131900714Y-107128571D02*
X133700714Y-107128571D01*
X133443571Y-106957142D01*
X133272142Y-106785714D01*
X133186428Y-106614285D01*
D10*
X62290476Y-76974285D02*
X63560476Y-76974285D01*
X63560476Y-77260000D01*
X63500000Y-77431428D01*
X63379047Y-77545714D01*
X63258095Y-77602857D01*
X63016190Y-77660000D01*
X62834761Y-77660000D01*
X62592857Y-77602857D01*
X62471904Y-77545714D01*
X62350952Y-77431428D01*
X62290476Y-77260000D01*
X62290476Y-76974285D01*
X63137142Y-78688571D02*
X62290476Y-78688571D01*
X63137142Y-78174285D02*
X62471904Y-78174285D01*
X62350952Y-78231428D01*
X62290476Y-78345714D01*
X62290476Y-78517142D01*
X62350952Y-78631428D01*
X62411428Y-78688571D01*
X62290476Y-79260000D02*
X63137142Y-79260000D01*
X62895238Y-79260000D02*
X63016190Y-79317142D01*
X63076666Y-79374285D01*
X63137142Y-79488571D01*
X63137142Y-79602857D01*
X62290476Y-80517142D02*
X62955714Y-80517142D01*
X63076666Y-80460000D01*
X63137142Y-80345714D01*
X63137142Y-80117142D01*
X63076666Y-80002857D01*
X62350952Y-80517142D02*
X62290476Y-80402857D01*
X62290476Y-80117142D01*
X62350952Y-80002857D01*
X62471904Y-79945714D01*
X62592857Y-79945714D01*
X62713809Y-80002857D01*
X62774285Y-80117142D01*
X62774285Y-80402857D01*
X62834761Y-80517142D01*
X63137142Y-81088571D02*
X62290476Y-81088571D01*
X63016190Y-81088571D02*
X63076666Y-81145714D01*
X63137142Y-81260000D01*
X63137142Y-81431428D01*
X63076666Y-81545714D01*
X62955714Y-81602857D01*
X62290476Y-81602857D01*
X63137142Y-82688571D02*
X62109047Y-82688571D01*
X61988095Y-82631428D01*
X61927619Y-82574285D01*
X61867142Y-82460000D01*
X61867142Y-82288571D01*
X61927619Y-82174285D01*
X62350952Y-82688571D02*
X62290476Y-82574285D01*
X62290476Y-82345714D01*
X62350952Y-82231428D01*
X62411428Y-82174285D01*
X62532380Y-82117142D01*
X62895238Y-82117142D01*
X63016190Y-82174285D01*
X63076666Y-82231428D01*
X63137142Y-82345714D01*
X63137142Y-82574285D01*
X63076666Y-82688571D01*
X62290476Y-83431428D02*
X62350952Y-83317142D01*
X62411428Y-83260000D01*
X62532380Y-83202857D01*
X62895238Y-83202857D01*
X63016190Y-83260000D01*
X63076666Y-83317142D01*
X63137142Y-83431428D01*
X63137142Y-83602857D01*
X63076666Y-83717142D01*
X63016190Y-83774285D01*
X62895238Y-83831428D01*
X62532380Y-83831428D01*
X62411428Y-83774285D01*
X62350952Y-83717142D01*
X62290476Y-83602857D01*
X62290476Y-83431428D01*
X63560476Y-85145714D02*
X63560476Y-85888571D01*
X63076666Y-85488571D01*
X63076666Y-85660000D01*
X63016190Y-85774285D01*
X62955714Y-85831428D01*
X62834761Y-85888571D01*
X62532380Y-85888571D01*
X62411428Y-85831428D01*
X62350952Y-85774285D01*
X62290476Y-85660000D01*
X62290476Y-85317142D01*
X62350952Y-85202857D01*
X62411428Y-85145714D01*
X63439523Y-86345714D02*
X63500000Y-86402857D01*
X63560476Y-86517142D01*
X63560476Y-86802857D01*
X63500000Y-86917142D01*
X63439523Y-86974285D01*
X63318571Y-87031428D01*
X63197619Y-87031428D01*
X63016190Y-86974285D01*
X62290476Y-86288571D01*
X62290476Y-87031428D01*
X62290476Y-88460000D02*
X63560476Y-88460000D01*
X62290476Y-89145714D02*
X63016190Y-88631428D01*
X63560476Y-89145714D02*
X62834761Y-88460000D01*
X62290476Y-89660000D02*
X63137142Y-89660000D01*
X63560476Y-89660000D02*
X63500000Y-89602857D01*
X63439523Y-89660000D01*
X63500000Y-89717142D01*
X63560476Y-89660000D01*
X63439523Y-89660000D01*
X62955714Y-90631428D02*
X62895238Y-90802857D01*
X62834761Y-90860000D01*
X62713809Y-90917142D01*
X62532380Y-90917142D01*
X62411428Y-90860000D01*
X62350952Y-90802857D01*
X62290476Y-90688571D01*
X62290476Y-90231428D01*
X63560476Y-90231428D01*
X63560476Y-90631428D01*
X63500000Y-90745714D01*
X63439523Y-90802857D01*
X63318571Y-90860000D01*
X63197619Y-90860000D01*
X63076666Y-90802857D01*
X63016190Y-90745714D01*
X62955714Y-90631428D01*
X62955714Y-90231428D01*
X62290476Y-92345714D02*
X63560476Y-92345714D01*
X63560476Y-92631428D01*
X63500000Y-92802857D01*
X63379047Y-92917142D01*
X63258095Y-92974285D01*
X63016190Y-93031428D01*
X62834761Y-93031428D01*
X62592857Y-92974285D01*
X62471904Y-92917142D01*
X62350952Y-92802857D01*
X62290476Y-92631428D01*
X62290476Y-92345714D01*
X62350952Y-94002857D02*
X62290476Y-93888571D01*
X62290476Y-93660000D01*
X62350952Y-93545714D01*
X62471904Y-93488571D01*
X62955714Y-93488571D01*
X63076666Y-93545714D01*
X63137142Y-93660000D01*
X63137142Y-93888571D01*
X63076666Y-94002857D01*
X62955714Y-94060000D01*
X62834761Y-94060000D01*
X62713809Y-93488571D01*
X63137142Y-94460000D02*
X62290476Y-94745714D01*
X63137142Y-95031428D01*
X62350952Y-95945714D02*
X62290476Y-95831428D01*
X62290476Y-95602857D01*
X62350952Y-95488571D01*
X62471904Y-95431428D01*
X62955714Y-95431428D01*
X63076666Y-95488571D01*
X63137142Y-95602857D01*
X63137142Y-95831428D01*
X63076666Y-95945714D01*
X62955714Y-96002857D01*
X62834761Y-96002857D01*
X62713809Y-95431428D01*
X62290476Y-96688571D02*
X62350952Y-96574285D01*
X62471904Y-96517142D01*
X63560476Y-96517142D01*
X62290476Y-97317142D02*
X62350952Y-97202857D01*
X62411428Y-97145714D01*
X62532380Y-97088571D01*
X62895238Y-97088571D01*
X63016190Y-97145714D01*
X63076666Y-97202857D01*
X63137142Y-97317142D01*
X63137142Y-97488571D01*
X63076666Y-97602857D01*
X63016190Y-97660000D01*
X62895238Y-97717142D01*
X62532380Y-97717142D01*
X62411428Y-97660000D01*
X62350952Y-97602857D01*
X62290476Y-97488571D01*
X62290476Y-97317142D01*
X63137142Y-98231428D02*
X61867142Y-98231428D01*
X63076666Y-98231428D02*
X63137142Y-98345714D01*
X63137142Y-98574285D01*
X63076666Y-98688571D01*
X63016190Y-98745714D01*
X62895238Y-98802857D01*
X62532380Y-98802857D01*
X62411428Y-98745714D01*
X62350952Y-98688571D01*
X62290476Y-98574285D01*
X62290476Y-98345714D01*
X62350952Y-98231428D01*
X62350952Y-99774285D02*
X62290476Y-99660000D01*
X62290476Y-99431428D01*
X62350952Y-99317142D01*
X62471904Y-99260000D01*
X62955714Y-99260000D01*
X63076666Y-99317142D01*
X63137142Y-99431428D01*
X63137142Y-99660000D01*
X63076666Y-99774285D01*
X62955714Y-99831428D01*
X62834761Y-99831428D01*
X62713809Y-99260000D01*
X62290476Y-100345714D02*
X63137142Y-100345714D01*
X62895238Y-100345714D02*
X63016190Y-100402857D01*
X63076666Y-100460000D01*
X63137142Y-100574285D01*
X63137142Y-100688571D01*
X62350952Y-101945714D02*
X62290476Y-102117142D01*
X62290476Y-102402857D01*
X62350952Y-102517142D01*
X62411428Y-102574285D01*
X62532380Y-102631428D01*
X62653333Y-102631428D01*
X62774285Y-102574285D01*
X62834761Y-102517142D01*
X62895238Y-102402857D01*
X62955714Y-102174285D01*
X63016190Y-102060000D01*
X63076666Y-102002857D01*
X63197619Y-101945714D01*
X63318571Y-101945714D01*
X63439523Y-102002857D01*
X63500000Y-102060000D01*
X63560476Y-102174285D01*
X63560476Y-102460000D01*
X63500000Y-102631428D01*
X62290476Y-103145714D02*
X63560476Y-103145714D01*
X63560476Y-103431428D01*
X63500000Y-103602857D01*
X63379047Y-103717142D01*
X63258095Y-103774285D01*
X63016190Y-103831428D01*
X62834761Y-103831428D01*
X62592857Y-103774285D01*
X62471904Y-103717142D01*
X62350952Y-103602857D01*
X62290476Y-103431428D01*
X62290476Y-103145714D01*
X62774285Y-104345714D02*
X62774285Y-105260000D01*
X62350952Y-106345714D02*
X62290476Y-106231428D01*
X62290476Y-106002857D01*
X62350952Y-105888571D01*
X62411428Y-105831428D01*
X62532380Y-105774285D01*
X62895238Y-105774285D01*
X63016190Y-105831428D01*
X63076666Y-105888571D01*
X63137142Y-106002857D01*
X63137142Y-106231428D01*
X63076666Y-106345714D01*
X62290476Y-107374285D02*
X62955714Y-107374285D01*
X63076666Y-107317142D01*
X63137142Y-107202857D01*
X63137142Y-106974285D01*
X63076666Y-106860000D01*
X62350952Y-107374285D02*
X62290476Y-107260000D01*
X62290476Y-106974285D01*
X62350952Y-106860000D01*
X62471904Y-106802857D01*
X62592857Y-106802857D01*
X62713809Y-106860000D01*
X62774285Y-106974285D01*
X62774285Y-107260000D01*
X62834761Y-107374285D01*
X62290476Y-107945714D02*
X63137142Y-107945714D01*
X62895238Y-107945714D02*
X63016190Y-108002857D01*
X63076666Y-108060000D01*
X63137142Y-108174285D01*
X63137142Y-108288571D01*
X62290476Y-109202857D02*
X63560476Y-109202857D01*
X62350952Y-109202857D02*
X62290476Y-109088571D01*
X62290476Y-108860000D01*
X62350952Y-108745714D01*
X62411428Y-108688571D01*
X62532380Y-108631428D01*
X62895238Y-108631428D01*
X63016190Y-108688571D01*
X63076666Y-108745714D01*
X63137142Y-108860000D01*
X63137142Y-109088571D01*
X63076666Y-109202857D01*
X62350952Y-111202857D02*
X62290476Y-111088571D01*
X62290476Y-110860000D01*
X62350952Y-110745714D01*
X62411428Y-110688571D01*
X62532380Y-110631428D01*
X62895238Y-110631428D01*
X63016190Y-110688571D01*
X63076666Y-110745714D01*
X63137142Y-110860000D01*
X63137142Y-111088571D01*
X63076666Y-111202857D01*
X62290476Y-112231428D02*
X62955714Y-112231428D01*
X63076666Y-112174285D01*
X63137142Y-112060000D01*
X63137142Y-111831428D01*
X63076666Y-111717142D01*
X62350952Y-112231428D02*
X62290476Y-112117142D01*
X62290476Y-111831428D01*
X62350952Y-111717142D01*
X62471904Y-111660000D01*
X62592857Y-111660000D01*
X62713809Y-111717142D01*
X62774285Y-111831428D01*
X62774285Y-112117142D01*
X62834761Y-112231428D01*
X62290476Y-112802857D02*
X63137142Y-112802857D01*
X62895238Y-112802857D02*
X63016190Y-112860000D01*
X63076666Y-112917142D01*
X63137142Y-113031428D01*
X63137142Y-113145714D01*
X63137142Y-113374285D02*
X63137142Y-113831428D01*
X63560476Y-113545714D02*
X62471904Y-113545714D01*
X62350952Y-113602857D01*
X62290476Y-113717142D01*
X62290476Y-113831428D01*
X62290476Y-114231428D02*
X63137142Y-114231428D01*
X62895238Y-114231428D02*
X63016190Y-114288571D01*
X63076666Y-114345714D01*
X63137142Y-114460000D01*
X63137142Y-114574285D01*
X62290476Y-114974285D02*
X63137142Y-114974285D01*
X63560476Y-114974285D02*
X63500000Y-114917142D01*
X63439523Y-114974285D01*
X63500000Y-115031428D01*
X63560476Y-114974285D01*
X63439523Y-114974285D01*
X62290476Y-116060000D02*
X63560476Y-116060000D01*
X62350952Y-116060000D02*
X62290476Y-115945714D01*
X62290476Y-115717142D01*
X62350952Y-115602857D01*
X62411428Y-115545714D01*
X62532380Y-115488571D01*
X62895238Y-115488571D01*
X63016190Y-115545714D01*
X63076666Y-115602857D01*
X63137142Y-115717142D01*
X63137142Y-115945714D01*
X63076666Y-116060000D01*
X63137142Y-117145714D02*
X62109047Y-117145714D01*
X61988095Y-117088571D01*
X61927619Y-117031428D01*
X61867142Y-116917142D01*
X61867142Y-116745714D01*
X61927619Y-116631428D01*
X62350952Y-117145714D02*
X62290476Y-117031428D01*
X62290476Y-116802857D01*
X62350952Y-116688571D01*
X62411428Y-116631428D01*
X62532380Y-116574285D01*
X62895238Y-116574285D01*
X63016190Y-116631428D01*
X63076666Y-116688571D01*
X63137142Y-116802857D01*
X63137142Y-117031428D01*
X63076666Y-117145714D01*
X62350952Y-118174285D02*
X62290476Y-118060000D01*
X62290476Y-117831428D01*
X62350952Y-117717142D01*
X62471904Y-117660000D01*
X62955714Y-117660000D01*
X63076666Y-117717142D01*
X63137142Y-117831428D01*
X63137142Y-118060000D01*
X63076666Y-118174285D01*
X62955714Y-118231428D01*
X62834761Y-118231428D01*
X62713809Y-117660000D01*
X63137142Y-119545714D02*
X62290476Y-119831428D01*
X63137142Y-120117142D01*
X63439523Y-120517142D02*
X63499999Y-120574285D01*
X63560476Y-120688571D01*
X63560476Y-120974285D01*
X63499999Y-121088571D01*
X63439523Y-121145714D01*
X63318571Y-121202857D01*
X63197619Y-121202857D01*
X63016190Y-121145714D01*
X62290476Y-120460000D01*
X62290476Y-121202857D01*
D16*
X118170000Y-104020000D02*
X107890000Y-104020000D01*
X118170000Y-124580000D02*
X118170000Y-104020000D01*
X107890000Y-124580000D02*
X118170000Y-124580000D01*
X107890000Y-104020000D02*
X107890000Y-124580000D01*
X115680000Y-104080000D02*
X114030000Y-104080000D01*
X115680000Y-124520000D02*
X115680000Y-104080000D01*
X110380000Y-124520000D02*
X115680000Y-124520000D01*
X110380000Y-104080000D02*
X110380000Y-124520000D01*
X112030000Y-104080000D02*
X110380000Y-104080000D01*
X114030000Y-104080000D02*
G75*
G02X112030000Y-104080000I-1000000J0D01*
G01*
D17*
G36*
X160063168Y-119380000D02*
G01*
X159102777Y-117545555D01*
X158584455Y-116551581D01*
X158287092Y-115932812D01*
X158174646Y-115561910D01*
X158211079Y-115311537D01*
X158360351Y-115054357D01*
X158386198Y-115013729D01*
X158576587Y-114759966D01*
X158752245Y-114763437D01*
X158996086Y-115102080D01*
X159391025Y-115853836D01*
X159491420Y-116052645D01*
X159864291Y-117036460D01*
X160065050Y-118044661D01*
X160076862Y-118310423D01*
X160063168Y-119380000D01*
X160063168Y-119380000D01*
G37*
X160063168Y-119380000D02*
X159102777Y-117545555D01*
X158584455Y-116551581D01*
X158287092Y-115932812D01*
X158174646Y-115561910D01*
X158211079Y-115311537D01*
X158360351Y-115054357D01*
X158386198Y-115013729D01*
X158576587Y-114759966D01*
X158752245Y-114763437D01*
X158996086Y-115102080D01*
X159391025Y-115853836D01*
X159491420Y-116052645D01*
X159864291Y-117036460D01*
X160065050Y-118044661D01*
X160076862Y-118310423D01*
X160063168Y-119380000D01*
G36*
X157531710Y-113495304D02*
G01*
X157290409Y-113594444D01*
X156997373Y-113346160D01*
X156672221Y-112719734D01*
X156381341Y-111892808D01*
X156191120Y-111043025D01*
X156153019Y-110550980D01*
X156166594Y-109502222D01*
X156996602Y-111109954D01*
X157462984Y-112184392D01*
X157644602Y-113006985D01*
X157531710Y-113495304D01*
X157531710Y-113495304D01*
G37*
X157531710Y-113495304D02*
X157290409Y-113594444D01*
X156997373Y-113346160D01*
X156672221Y-112719734D01*
X156381341Y-111892808D01*
X156191120Y-111043025D01*
X156153019Y-110550980D01*
X156166594Y-109502222D01*
X156996602Y-111109954D01*
X157462984Y-112184392D01*
X157644602Y-113006985D01*
X157531710Y-113495304D01*
G36*
X158508067Y-107315000D02*
G01*
X157954196Y-107790174D01*
X157259777Y-107898285D01*
X156612332Y-107678434D01*
X156199384Y-107169721D01*
X156139444Y-106821111D01*
X156342989Y-106223910D01*
X156547243Y-105987336D01*
X157194922Y-105717841D01*
X157444066Y-105756557D01*
X157444066Y-106322359D01*
X156949402Y-106446395D01*
X156704545Y-106799101D01*
X156703889Y-106821111D01*
X156930399Y-107169596D01*
X157146192Y-107290776D01*
X157667881Y-107302692D01*
X158006302Y-107022019D01*
X157998436Y-106617630D01*
X157908192Y-106501414D01*
X157444066Y-106322359D01*
X157444066Y-105756557D01*
X157859827Y-105821165D01*
X158393706Y-106196927D01*
X158648307Y-106744747D01*
X158508067Y-107315000D01*
X158508067Y-107315000D01*
G37*
X158508067Y-107315000D02*
X157954196Y-107790174D01*
X157259777Y-107898285D01*
X156612332Y-107678434D01*
X156199384Y-107169721D01*
X156139444Y-106821111D01*
X156342989Y-106223910D01*
X156547243Y-105987336D01*
X157194922Y-105717841D01*
X157444066Y-105756557D01*
X157444066Y-106322359D01*
X156949402Y-106446395D01*
X156704545Y-106799101D01*
X156703889Y-106821111D01*
X156930399Y-107169596D01*
X157146192Y-107290776D01*
X157667881Y-107302692D01*
X158006302Y-107022019D01*
X157998436Y-106617630D01*
X157908192Y-106501414D01*
X157444066Y-106322359D01*
X157444066Y-105756557D01*
X157859827Y-105821165D01*
X158393706Y-106196927D01*
X158648307Y-106744747D01*
X158508067Y-107315000D01*
G36*
X158521024Y-101163669D02*
G01*
X158187265Y-101785488D01*
X157585605Y-102017345D01*
X157431332Y-102023333D01*
X156777652Y-102170665D01*
X156478111Y-102362000D01*
X156244468Y-102478711D01*
X156149042Y-102145121D01*
X156139444Y-101795164D01*
X156175483Y-101198705D01*
X156347821Y-101059932D01*
X156666504Y-101218815D01*
X157314210Y-101410150D01*
X157865203Y-101244237D01*
X158114150Y-100787061D01*
X158115000Y-100753333D01*
X157889635Y-100281432D01*
X157350432Y-100097005D01*
X156702723Y-100266035D01*
X156666504Y-100287851D01*
X156306227Y-100450932D01*
X156162807Y-100244417D01*
X156139444Y-99711502D01*
X156183178Y-99130538D01*
X156343634Y-99035852D01*
X156478111Y-99144666D01*
X157111959Y-99444514D01*
X157866947Y-99412242D01*
X158323630Y-99161814D01*
X158526077Y-99098297D01*
X158619605Y-99480436D01*
X158631864Y-100079036D01*
X158521024Y-101163669D01*
X158521024Y-101163669D01*
G37*
X158521024Y-101163669D02*
X158187265Y-101785488D01*
X157585605Y-102017345D01*
X157431332Y-102023333D01*
X156777652Y-102170665D01*
X156478111Y-102362000D01*
X156244468Y-102478711D01*
X156149042Y-102145121D01*
X156139444Y-101795164D01*
X156175483Y-101198705D01*
X156347821Y-101059932D01*
X156666504Y-101218815D01*
X157314210Y-101410150D01*
X157865203Y-101244237D01*
X158114150Y-100787061D01*
X158115000Y-100753333D01*
X157889635Y-100281432D01*
X157350432Y-100097005D01*
X156702723Y-100266035D01*
X156666504Y-100287851D01*
X156306227Y-100450932D01*
X156162807Y-100244417D01*
X156139444Y-99711502D01*
X156183178Y-99130538D01*
X156343634Y-99035852D01*
X156478111Y-99144666D01*
X157111959Y-99444514D01*
X157866947Y-99412242D01*
X158323630Y-99161814D01*
X158526077Y-99098297D01*
X158619605Y-99480436D01*
X158631864Y-100079036D01*
X158521024Y-101163669D01*
G36*
X158636045Y-97931413D02*
G01*
X158090583Y-98249032D01*
X157550555Y-98213333D01*
X156913037Y-98191460D01*
X156582599Y-98337994D01*
X156337997Y-98435938D01*
X156221385Y-98133665D01*
X156190769Y-97534295D01*
X156294963Y-96635943D01*
X156595490Y-96069698D01*
X156604395Y-96062127D01*
X157081584Y-95905461D01*
X157081584Y-96506313D01*
X156765611Y-96718673D01*
X156703889Y-96943333D01*
X156907079Y-97311334D01*
X156966610Y-97354614D01*
X157301170Y-97336282D01*
X157479907Y-96996996D01*
X157406599Y-96656507D01*
X157081584Y-96506313D01*
X157081584Y-95905461D01*
X157169135Y-95876717D01*
X157698642Y-96172896D01*
X158079814Y-96873207D01*
X158141220Y-97114625D01*
X158277243Y-97636601D01*
X158410267Y-97653147D01*
X158538538Y-97399837D01*
X158571835Y-96670994D01*
X158396422Y-96270948D01*
X158163816Y-95867017D01*
X158267256Y-95880606D01*
X158492993Y-96060667D01*
X158908939Y-96673482D01*
X158932727Y-97351647D01*
X158636045Y-97931413D01*
X158636045Y-97931413D01*
G37*
X158636045Y-97931413D02*
X158090583Y-98249032D01*
X157550555Y-98213333D01*
X156913037Y-98191460D01*
X156582599Y-98337994D01*
X156337997Y-98435938D01*
X156221385Y-98133665D01*
X156190769Y-97534295D01*
X156294963Y-96635943D01*
X156595490Y-96069698D01*
X156604395Y-96062127D01*
X157081584Y-95905461D01*
X157081584Y-96506313D01*
X156765611Y-96718673D01*
X156703889Y-96943333D01*
X156907079Y-97311334D01*
X156966610Y-97354614D01*
X157301170Y-97336282D01*
X157479907Y-96996996D01*
X157406599Y-96656507D01*
X157081584Y-96506313D01*
X157081584Y-95905461D01*
X157169135Y-95876717D01*
X157698642Y-96172896D01*
X158079814Y-96873207D01*
X158141220Y-97114625D01*
X158277243Y-97636601D01*
X158410267Y-97653147D01*
X158538538Y-97399837D01*
X158571835Y-96670994D01*
X158396422Y-96270948D01*
X158163816Y-95867017D01*
X158267256Y-95880606D01*
X158492993Y-96060667D01*
X158908939Y-96673482D01*
X158932727Y-97351647D01*
X158636045Y-97931413D01*
G36*
X158550909Y-93876857D02*
G01*
X158485285Y-94800287D01*
X158410575Y-95294677D01*
X158277288Y-95493983D01*
X158035935Y-95532162D01*
X157939332Y-95532222D01*
X157640030Y-95456847D01*
X157801941Y-95146406D01*
X157829795Y-95112483D01*
X158057656Y-94548666D01*
X157868962Y-94095164D01*
X157411542Y-93854230D01*
X156833229Y-93928112D01*
X156478111Y-94177555D01*
X156248378Y-94289883D01*
X156151172Y-93957954D01*
X156139444Y-93556666D01*
X156180881Y-92947193D01*
X156332341Y-92823236D01*
X156478111Y-92935778D01*
X157107633Y-93234473D01*
X157858740Y-93207146D01*
X158316920Y-92959635D01*
X158507856Y-92908343D01*
X158571954Y-93312787D01*
X158550909Y-93876857D01*
X158550909Y-93876857D01*
G37*
X158550909Y-93876857D02*
X158485285Y-94800287D01*
X158410575Y-95294677D01*
X158277288Y-95493983D01*
X158035935Y-95532162D01*
X157939332Y-95532222D01*
X157640030Y-95456847D01*
X157801941Y-95146406D01*
X157829795Y-95112483D01*
X158057656Y-94548666D01*
X157868962Y-94095164D01*
X157411542Y-93854230D01*
X156833229Y-93928112D01*
X156478111Y-94177555D01*
X156248378Y-94289883D01*
X156151172Y-93957954D01*
X156139444Y-93556666D01*
X156180881Y-92947193D01*
X156332341Y-92823236D01*
X156478111Y-92935778D01*
X157107633Y-93234473D01*
X157858740Y-93207146D01*
X158316920Y-92959635D01*
X158507856Y-92908343D01*
X158571954Y-93312787D01*
X158550909Y-93876857D01*
G36*
X158633173Y-92114734D02*
G01*
X158384045Y-92260807D01*
X157766584Y-92162395D01*
X157713472Y-92150473D01*
X156992584Y-92070692D01*
X156517991Y-92167088D01*
X156490121Y-92189989D01*
X156311808Y-92125765D01*
X156203601Y-91580338D01*
X156189711Y-91349151D01*
X156316647Y-90306232D01*
X156636950Y-89810693D01*
X157243853Y-89487673D01*
X157919849Y-89417110D01*
X158464892Y-89584545D01*
X158679245Y-89958333D01*
X158542578Y-90397625D01*
X158166065Y-90343333D01*
X157887206Y-90111539D01*
X157469441Y-89996152D01*
X157042148Y-90253325D01*
X156777489Y-90721214D01*
X156797550Y-91135894D01*
X157193309Y-91508857D01*
X157801510Y-91538527D01*
X158340777Y-91242444D01*
X158588491Y-91109521D01*
X158675890Y-91449153D01*
X158679444Y-91636056D01*
X158633173Y-92114734D01*
X158633173Y-92114734D01*
G37*
X158633173Y-92114734D02*
X158384045Y-92260807D01*
X157766584Y-92162395D01*
X157713472Y-92150473D01*
X156992584Y-92070692D01*
X156517991Y-92167088D01*
X156490121Y-92189989D01*
X156311808Y-92125765D01*
X156203601Y-91580338D01*
X156189711Y-91349151D01*
X156316647Y-90306232D01*
X156636950Y-89810693D01*
X157243853Y-89487673D01*
X157919849Y-89417110D01*
X158464892Y-89584545D01*
X158679245Y-89958333D01*
X158542578Y-90397625D01*
X158166065Y-90343333D01*
X157887206Y-90111539D01*
X157469441Y-89996152D01*
X157042148Y-90253325D01*
X156777489Y-90721214D01*
X156797550Y-91135894D01*
X157193309Y-91508857D01*
X157801510Y-91538527D01*
X158340777Y-91242444D01*
X158588491Y-91109521D01*
X158675890Y-91449153D01*
X158679444Y-91636056D01*
X158633173Y-92114734D01*
G36*
X159908857Y-87513397D02*
G01*
X159423770Y-88390741D01*
X158725302Y-88892283D01*
X157903463Y-88961891D01*
X157048262Y-88543434D01*
X156832171Y-88348384D01*
X156362946Y-87718145D01*
X156164105Y-86927645D01*
X156139444Y-86316384D01*
X156169625Y-85527838D01*
X156277625Y-85223996D01*
X156478111Y-85315778D01*
X156999036Y-85539294D01*
X157832124Y-85639212D01*
X158115000Y-85631824D01*
X158115000Y-86218889D01*
X157268609Y-86248606D01*
X156846483Y-86374743D01*
X156709927Y-86652778D01*
X156703889Y-86783333D01*
X156895433Y-87397713D01*
X157268333Y-87912222D01*
X157773774Y-88326582D01*
X158115000Y-88476666D01*
X158601289Y-88249966D01*
X159111531Y-87714785D01*
X159464575Y-87088505D01*
X159526111Y-86783333D01*
X159451817Y-86444777D01*
X159136474Y-86275926D01*
X158441388Y-86221304D01*
X158115000Y-86218889D01*
X158115000Y-85631824D01*
X158738793Y-85615532D01*
X159480462Y-85468253D01*
X159751889Y-85315777D01*
X159958923Y-85228093D01*
X160063067Y-85551040D01*
X160090555Y-86316384D01*
X159908857Y-87513397D01*
X159908857Y-87513397D01*
G37*
X159908857Y-87513397D02*
X159423770Y-88390741D01*
X158725302Y-88892283D01*
X157903463Y-88961891D01*
X157048262Y-88543434D01*
X156832171Y-88348384D01*
X156362946Y-87718145D01*
X156164105Y-86927645D01*
X156139444Y-86316384D01*
X156169625Y-85527838D01*
X156277625Y-85223996D01*
X156478111Y-85315778D01*
X156999036Y-85539294D01*
X157832124Y-85639212D01*
X158115000Y-85631824D01*
X158115000Y-86218889D01*
X157268609Y-86248606D01*
X156846483Y-86374743D01*
X156709927Y-86652778D01*
X156703889Y-86783333D01*
X156895433Y-87397713D01*
X157268333Y-87912222D01*
X157773774Y-88326582D01*
X158115000Y-88476666D01*
X158601289Y-88249966D01*
X159111531Y-87714785D01*
X159464575Y-87088505D01*
X159526111Y-86783333D01*
X159451817Y-86444777D01*
X159136474Y-86275926D01*
X158441388Y-86221304D01*
X158115000Y-86218889D01*
X158115000Y-85631824D01*
X158738793Y-85615532D01*
X159480462Y-85468253D01*
X159751889Y-85315777D01*
X159958923Y-85228093D01*
X160063067Y-85551040D01*
X160090555Y-86316384D01*
X159908857Y-87513397D01*
G36*
X159983791Y-110687331D02*
G01*
X159731833Y-111511884D01*
X159274320Y-112617246D01*
X158580506Y-114080340D01*
X157973889Y-115287778D01*
X157203328Y-116789930D01*
X156649313Y-117837250D01*
X156276444Y-118480002D01*
X156049322Y-118768447D01*
X155932547Y-118752850D01*
X155890719Y-118483472D01*
X155886833Y-118251111D01*
X155963986Y-117630446D01*
X156215945Y-116805894D01*
X156673457Y-115700531D01*
X157367271Y-114237437D01*
X157973889Y-113030000D01*
X158744450Y-111527847D01*
X159298465Y-110480527D01*
X159671333Y-109837775D01*
X159898455Y-109549330D01*
X160015230Y-109564927D01*
X160057058Y-109834305D01*
X160060945Y-110066666D01*
X159983791Y-110687331D01*
X159983791Y-110687331D01*
G37*
X159983791Y-110687331D02*
X159731833Y-111511884D01*
X159274320Y-112617246D01*
X158580506Y-114080340D01*
X157973889Y-115287778D01*
X157203328Y-116789930D01*
X156649313Y-117837250D01*
X156276444Y-118480002D01*
X156049322Y-118768447D01*
X155932547Y-118752850D01*
X155890719Y-118483472D01*
X155886833Y-118251111D01*
X155963986Y-117630446D01*
X156215945Y-116805894D01*
X156673457Y-115700531D01*
X157367271Y-114237437D01*
X157973889Y-113030000D01*
X158744450Y-111527847D01*
X159298465Y-110480527D01*
X159671333Y-109837775D01*
X159898455Y-109549330D01*
X160015230Y-109564927D01*
X160057058Y-109834305D01*
X160060945Y-110066666D01*
X159983791Y-110687331D01*
G36*
X158499092Y-104208229D02*
G01*
X158026255Y-104796360D01*
X157226652Y-105329589D01*
X156537129Y-105315050D01*
X156195889Y-105071333D01*
X155927863Y-104541376D01*
X155871905Y-103881162D01*
X156040199Y-103375189D01*
X156120237Y-103305204D01*
X156337138Y-103421635D01*
X156473014Y-103901783D01*
X156664046Y-104506495D01*
X156937124Y-104783943D01*
X157166319Y-104791531D01*
X157041849Y-104478385D01*
X156963139Y-104349204D01*
X156764843Y-103668476D01*
X156940017Y-103074969D01*
X157370622Y-102703079D01*
X157646029Y-102695382D01*
X157646029Y-103279647D01*
X157330056Y-103492006D01*
X157268333Y-103716666D01*
X157471523Y-104084667D01*
X157531054Y-104127947D01*
X157865614Y-104109616D01*
X158044352Y-103770329D01*
X157971043Y-103429841D01*
X157646029Y-103279647D01*
X157646029Y-102695382D01*
X157938614Y-102687204D01*
X158259705Y-102872983D01*
X158645034Y-103488580D01*
X158499092Y-104208229D01*
X158499092Y-104208229D01*
G37*
X158499092Y-104208229D02*
X158026255Y-104796360D01*
X157226652Y-105329589D01*
X156537129Y-105315050D01*
X156195889Y-105071333D01*
X155927863Y-104541376D01*
X155871905Y-103881162D01*
X156040199Y-103375189D01*
X156120237Y-103305204D01*
X156337138Y-103421635D01*
X156473014Y-103901783D01*
X156664046Y-104506495D01*
X156937124Y-104783943D01*
X157166319Y-104791531D01*
X157041849Y-104478385D01*
X156963139Y-104349204D01*
X156764843Y-103668476D01*
X156940017Y-103074969D01*
X157370622Y-102703079D01*
X157646029Y-102695382D01*
X157646029Y-103279647D01*
X157330056Y-103492006D01*
X157268333Y-103716666D01*
X157471523Y-104084667D01*
X157531054Y-104127947D01*
X157865614Y-104109616D01*
X158044352Y-103770329D01*
X157971043Y-103429841D01*
X157646029Y-103279647D01*
X157646029Y-102695382D01*
X157938614Y-102687204D01*
X158259705Y-102872983D01*
X158645034Y-103488580D01*
X158499092Y-104208229D01*
D16*
X157540000Y-76140000D02*
X157540000Y-77470000D01*
X156210000Y-76140000D02*
X157540000Y-76140000D01*
X157540000Y-78740000D02*
X157540000Y-81340000D01*
X154940000Y-78740000D02*
X157540000Y-78740000D01*
X154940000Y-76140000D02*
X154940000Y-78740000D01*
X157540000Y-81340000D02*
X137100000Y-81340000D01*
X154940000Y-76140000D02*
X137100000Y-76140000D01*
X137100000Y-76140000D02*
X137100000Y-81340000D01*
D17*
G36*
X105217678Y-123675285D02*
G01*
X105406371Y-123800780D01*
X105637859Y-123988228D01*
X105212635Y-124329947D01*
X104921410Y-124555114D01*
X104755687Y-124653052D01*
X104682733Y-124637115D01*
X104669166Y-124551653D01*
X104682353Y-124461806D01*
X104792704Y-124461806D01*
X105102596Y-124241143D01*
X105290724Y-124072567D01*
X105357606Y-123939584D01*
X105352081Y-123922740D01*
X105208432Y-123824557D01*
X105046830Y-123910581D01*
X104912888Y-124143403D01*
X104792704Y-124461806D01*
X104682353Y-124461806D01*
X104705627Y-124303238D01*
X104795316Y-124016532D01*
X104908694Y-123765361D01*
X105016218Y-123623555D01*
X105044610Y-123613333D01*
X105217678Y-123675285D01*
X105217678Y-123675285D01*
G37*
X105217678Y-123675285D02*
X105406371Y-123800780D01*
X105637859Y-123988228D01*
X105212635Y-124329947D01*
X104921410Y-124555114D01*
X104755687Y-124653052D01*
X104682733Y-124637115D01*
X104669166Y-124551653D01*
X104682353Y-124461806D01*
X104792704Y-124461806D01*
X105102596Y-124241143D01*
X105290724Y-124072567D01*
X105357606Y-123939584D01*
X105352081Y-123922740D01*
X105208432Y-123824557D01*
X105046830Y-123910581D01*
X104912888Y-124143403D01*
X104792704Y-124461806D01*
X104682353Y-124461806D01*
X104705627Y-124303238D01*
X104795316Y-124016532D01*
X104908694Y-123765361D01*
X105016218Y-123623555D01*
X105044610Y-123613333D01*
X105217678Y-123675285D01*
G36*
X106142901Y-125486055D02*
G01*
X106215609Y-125914023D01*
X106283639Y-126310365D01*
X106326867Y-126558525D01*
X106355525Y-126794873D01*
X106295902Y-126882085D01*
X106104783Y-126877837D01*
X106088982Y-126876025D01*
X105830010Y-126778492D01*
X105715776Y-126576666D01*
X105642765Y-126312083D01*
X105632216Y-126603125D01*
X105587233Y-126818648D01*
X105434916Y-126890971D01*
X105357083Y-126894166D01*
X105155598Y-126850236D01*
X105098864Y-126684820D01*
X105099142Y-126656041D01*
X105118616Y-126436910D01*
X105163714Y-126082084D01*
X105225069Y-125664621D01*
X105231433Y-125624166D01*
X105295679Y-125240656D01*
X105563194Y-125240656D01*
X105597094Y-125571250D01*
X105659126Y-126100416D01*
X105775043Y-125571250D01*
X105834715Y-125247565D01*
X105829646Y-125076621D01*
X105757470Y-125008888D01*
X105748030Y-125006269D01*
X105625436Y-124990950D01*
X105567777Y-125054280D01*
X105563194Y-125240656D01*
X105295679Y-125240656D01*
X105298839Y-125221796D01*
X105359825Y-124983020D01*
X105439703Y-124862158D01*
X105563788Y-124813530D01*
X105689163Y-124798138D01*
X106021244Y-124765860D01*
X106142901Y-125486055D01*
X106142901Y-125486055D01*
G37*
X106142901Y-125486055D02*
X106215609Y-125914023D01*
X106283639Y-126310365D01*
X106326867Y-126558525D01*
X106355525Y-126794873D01*
X106295902Y-126882085D01*
X106104783Y-126877837D01*
X106088982Y-126876025D01*
X105830010Y-126778492D01*
X105715776Y-126576666D01*
X105642765Y-126312083D01*
X105632216Y-126603125D01*
X105587233Y-126818648D01*
X105434916Y-126890971D01*
X105357083Y-126894166D01*
X105155598Y-126850236D01*
X105098864Y-126684820D01*
X105099142Y-126656041D01*
X105118616Y-126436910D01*
X105163714Y-126082084D01*
X105225069Y-125664621D01*
X105231433Y-125624166D01*
X105295679Y-125240656D01*
X105563194Y-125240656D01*
X105597094Y-125571250D01*
X105659126Y-126100416D01*
X105775043Y-125571250D01*
X105834715Y-125247565D01*
X105829646Y-125076621D01*
X105757470Y-125008888D01*
X105748030Y-125006269D01*
X105625436Y-124990950D01*
X105567777Y-125054280D01*
X105563194Y-125240656D01*
X105295679Y-125240656D01*
X105298839Y-125221796D01*
X105359825Y-124983020D01*
X105439703Y-124862158D01*
X105563788Y-124813530D01*
X105689163Y-124798138D01*
X106021244Y-124765860D01*
X106142901Y-125486055D01*
G36*
X104790677Y-124837963D02*
G01*
X104869171Y-124886678D01*
X104915823Y-125015671D01*
X104941812Y-125264053D01*
X104958313Y-125670934D01*
X104964040Y-125862291D01*
X104994331Y-126894166D01*
X104344001Y-126894166D01*
X104374292Y-125862291D01*
X104390113Y-125389263D01*
X104411427Y-125088715D01*
X104449409Y-124921537D01*
X104515237Y-124848617D01*
X104620088Y-124830845D01*
X104669166Y-124830416D01*
X104790677Y-124837963D01*
X104790677Y-124837963D01*
G37*
X104790677Y-124837963D02*
X104869171Y-124886678D01*
X104915823Y-125015671D01*
X104941812Y-125264053D01*
X104958313Y-125670934D01*
X104964040Y-125862291D01*
X104994331Y-126894166D01*
X104344001Y-126894166D01*
X104374292Y-125862291D01*
X104390113Y-125389263D01*
X104411427Y-125088715D01*
X104449409Y-124921537D01*
X104515237Y-124848617D01*
X104620088Y-124830845D01*
X104669166Y-124830416D01*
X104790677Y-124837963D01*
G36*
X103766056Y-124830684D02*
G01*
X104037181Y-124984451D01*
X104210459Y-125211933D01*
X104250506Y-125467499D01*
X104130778Y-125696888D01*
X104072959Y-125824637D01*
X104130778Y-125883050D01*
X104201245Y-126024127D01*
X104241891Y-126294333D01*
X104245833Y-126416603D01*
X104245833Y-126879047D01*
X103074184Y-126879047D01*
X103104383Y-125854732D01*
X103121608Y-125270468D01*
X103441263Y-125270468D01*
X103464699Y-125386041D01*
X103552791Y-125704287D01*
X103622753Y-125815108D01*
X103686200Y-125720645D01*
X103751735Y-125438958D01*
X103778257Y-125202593D01*
X103716292Y-125108398D01*
X103606171Y-125095000D01*
X103461836Y-125128807D01*
X103441263Y-125270468D01*
X103121608Y-125270468D01*
X103134583Y-124830416D01*
X103432465Y-124796268D01*
X103766056Y-124830684D01*
X103766056Y-124830684D01*
G37*
X103766056Y-124830684D02*
X104037181Y-124984451D01*
X104210459Y-125211933D01*
X104250506Y-125467499D01*
X104130778Y-125696888D01*
X104072959Y-125824637D01*
X104130778Y-125883050D01*
X104201245Y-126024127D01*
X104241891Y-126294333D01*
X104245833Y-126416603D01*
X104245833Y-126879047D01*
X103074184Y-126879047D01*
X103104383Y-125854732D01*
X103121608Y-125270468D01*
X103441263Y-125270468D01*
X103464699Y-125386041D01*
X103552791Y-125704287D01*
X103622753Y-125815108D01*
X103686200Y-125720645D01*
X103751735Y-125438958D01*
X103778257Y-125202593D01*
X103716292Y-125108398D01*
X103606171Y-125095000D01*
X103461836Y-125128807D01*
X103441263Y-125270468D01*
X103121608Y-125270468D01*
X103134583Y-124830416D01*
X103432465Y-124796268D01*
X103766056Y-124830684D01*
G36*
X102941484Y-124837478D02*
G01*
X102975595Y-124962834D01*
X102975833Y-124983081D01*
X102911076Y-125160228D01*
X102817083Y-125200833D01*
X102687798Y-125289066D01*
X102658333Y-125412500D01*
X102724507Y-125584880D01*
X102817083Y-125624166D01*
X102957393Y-125708882D01*
X102975833Y-125782916D01*
X102891117Y-125923227D01*
X102817083Y-125941666D01*
X102689404Y-126033667D01*
X102658333Y-126206250D01*
X102713534Y-126419048D01*
X102817083Y-126470833D01*
X102946368Y-126559066D01*
X102975833Y-126682500D01*
X102944941Y-126814362D01*
X102816443Y-126876983D01*
X102536608Y-126894052D01*
X102495750Y-126894166D01*
X102015668Y-126894166D01*
X102076250Y-124830416D01*
X102526041Y-124797873D01*
X102810336Y-124790192D01*
X102941484Y-124837478D01*
X102941484Y-124837478D01*
G37*
X102941484Y-124837478D02*
X102975595Y-124962834D01*
X102975833Y-124983081D01*
X102911076Y-125160228D01*
X102817083Y-125200833D01*
X102687798Y-125289066D01*
X102658333Y-125412500D01*
X102724507Y-125584880D01*
X102817083Y-125624166D01*
X102957393Y-125708882D01*
X102975833Y-125782916D01*
X102891117Y-125923227D01*
X102817083Y-125941666D01*
X102689404Y-126033667D01*
X102658333Y-126206250D01*
X102713534Y-126419048D01*
X102817083Y-126470833D01*
X102946368Y-126559066D01*
X102975833Y-126682500D01*
X102944941Y-126814362D01*
X102816443Y-126876983D01*
X102536608Y-126894052D01*
X102495750Y-126894166D01*
X102015668Y-126894166D01*
X102076250Y-124830416D01*
X102526041Y-124797873D01*
X102810336Y-124790192D01*
X102941484Y-124837478D01*
G36*
X101917500Y-125708833D02*
G01*
X101902254Y-126224679D01*
X101858797Y-126586938D01*
X101790547Y-126767119D01*
X101790500Y-126767166D01*
X101561285Y-126873316D01*
X101263022Y-126881408D01*
X101014244Y-126791442D01*
X100986166Y-126767166D01*
X100917902Y-126587103D01*
X100874430Y-126224944D01*
X100859166Y-125709182D01*
X100859166Y-125258513D01*
X101187117Y-125258513D01*
X101215198Y-125480187D01*
X101256676Y-125836240D01*
X101280366Y-126143140D01*
X101282500Y-126221021D01*
X101313050Y-126429929D01*
X101385156Y-126456757D01*
X101469499Y-126318875D01*
X101530742Y-126073958D01*
X101594762Y-125699197D01*
X101661459Y-125342491D01*
X101663331Y-125333125D01*
X101694727Y-125099063D01*
X101630636Y-125005727D01*
X101440093Y-124989166D01*
X101264685Y-125000500D01*
X101188875Y-125071688D01*
X101187117Y-125258513D01*
X100859166Y-125258513D01*
X100859166Y-124777500D01*
X101917500Y-124777500D01*
X101917500Y-125708833D01*
X101917500Y-125708833D01*
G37*
X101917500Y-125708833D02*
X101902254Y-126224679D01*
X101858797Y-126586938D01*
X101790547Y-126767119D01*
X101790500Y-126767166D01*
X101561285Y-126873316D01*
X101263022Y-126881408D01*
X101014244Y-126791442D01*
X100986166Y-126767166D01*
X100917902Y-126587103D01*
X100874430Y-126224944D01*
X100859166Y-125709182D01*
X100859166Y-125258513D01*
X101187117Y-125258513D01*
X101215198Y-125480187D01*
X101256676Y-125836240D01*
X101280366Y-126143140D01*
X101282500Y-126221021D01*
X101313050Y-126429929D01*
X101385156Y-126456757D01*
X101469499Y-126318875D01*
X101530742Y-126073958D01*
X101594762Y-125699197D01*
X101661459Y-125342491D01*
X101663331Y-125333125D01*
X101694727Y-125099063D01*
X101630636Y-125005727D01*
X101440093Y-124989166D01*
X101264685Y-125000500D01*
X101188875Y-125071688D01*
X101187117Y-125258513D01*
X100859166Y-125258513D01*
X100859166Y-124777500D01*
X101917500Y-124777500D01*
X101917500Y-125708833D01*
G36*
X100423662Y-124885981D02*
G01*
X100491416Y-124928264D01*
X100625582Y-125027816D01*
X100705355Y-125143887D01*
X100742526Y-125327516D01*
X100748887Y-125629740D01*
X100739392Y-126001610D01*
X100711447Y-126894166D01*
X100388432Y-126890948D01*
X100091239Y-126853704D01*
X99880208Y-126779856D01*
X99784273Y-126686351D01*
X99727447Y-126513065D01*
X99707933Y-126294403D01*
X100019854Y-126294403D01*
X100069251Y-126496016D01*
X100183608Y-126573549D01*
X100224166Y-126576666D01*
X100396014Y-126525000D01*
X100435833Y-126453044D01*
X100417838Y-126291072D01*
X100370795Y-125988412D01*
X100308865Y-125632835D01*
X100181897Y-124936250D01*
X100105043Y-125412500D01*
X100032692Y-125942100D01*
X100019854Y-126294403D01*
X99707933Y-126294403D01*
X99700739Y-126213799D01*
X99695000Y-125828305D01*
X99699467Y-125404806D01*
X99721837Y-125143195D01*
X99775559Y-124993738D01*
X99874085Y-124906703D01*
X99955247Y-124866051D01*
X100192785Y-124804932D01*
X100423662Y-124885981D01*
X100423662Y-124885981D01*
G37*
X100423662Y-124885981D02*
X100491416Y-124928264D01*
X100625582Y-125027816D01*
X100705355Y-125143887D01*
X100742526Y-125327516D01*
X100748887Y-125629740D01*
X100739392Y-126001610D01*
X100711447Y-126894166D01*
X100388432Y-126890948D01*
X100091239Y-126853704D01*
X99880208Y-126779856D01*
X99784273Y-126686351D01*
X99727447Y-126513065D01*
X99707933Y-126294403D01*
X100019854Y-126294403D01*
X100069251Y-126496016D01*
X100183608Y-126573549D01*
X100224166Y-126576666D01*
X100396014Y-126525000D01*
X100435833Y-126453044D01*
X100417838Y-126291072D01*
X100370795Y-125988412D01*
X100308865Y-125632835D01*
X100181897Y-124936250D01*
X100105043Y-125412500D01*
X100032692Y-125942100D01*
X100019854Y-126294403D01*
X99707933Y-126294403D01*
X99700739Y-126213799D01*
X99695000Y-125828305D01*
X99699467Y-125404806D01*
X99721837Y-125143195D01*
X99775559Y-124993738D01*
X99874085Y-124906703D01*
X99955247Y-124866051D01*
X100192785Y-124804932D01*
X100423662Y-124885981D01*
G36*
X99177365Y-124785182D02*
G01*
X99271793Y-124803686D01*
X99271811Y-124803958D01*
X99288945Y-124912769D01*
X99334571Y-125180633D01*
X99400234Y-125558186D01*
X99430416Y-125730000D01*
X99517773Y-126235108D01*
X99565109Y-126567773D01*
X99569151Y-126764008D01*
X99526624Y-126859820D01*
X99434255Y-126891222D01*
X99324583Y-126894166D01*
X99111785Y-126838965D01*
X99060000Y-126735416D01*
X99002853Y-126594576D01*
X98954166Y-126576666D01*
X98860273Y-126662387D01*
X98848333Y-126735416D01*
X98756332Y-126863095D01*
X98583750Y-126894166D01*
X98385074Y-126848977D01*
X98319311Y-126761875D01*
X98336874Y-126602297D01*
X98383561Y-126291656D01*
X98450585Y-125887131D01*
X98477916Y-125730000D01*
X98549259Y-125322224D01*
X98553550Y-125297284D01*
X98849134Y-125297284D01*
X98880843Y-125567761D01*
X98912572Y-125668427D01*
X98979794Y-125808546D01*
X99024927Y-125785844D01*
X99060670Y-125580692D01*
X99078138Y-125412500D01*
X99080618Y-125112346D01*
X99009489Y-124993043D01*
X98983421Y-124989166D01*
X98885984Y-125078937D01*
X98849134Y-125297284D01*
X98553550Y-125297284D01*
X98603969Y-125004262D01*
X98633591Y-124825478D01*
X98636521Y-124803958D01*
X98728816Y-124785361D01*
X98950908Y-124777501D01*
X98954166Y-124777500D01*
X99177365Y-124785182D01*
X99177365Y-124785182D01*
G37*
X99177365Y-124785182D02*
X99271793Y-124803686D01*
X99271811Y-124803958D01*
X99288945Y-124912769D01*
X99334571Y-125180633D01*
X99400234Y-125558186D01*
X99430416Y-125730000D01*
X99517773Y-126235108D01*
X99565109Y-126567773D01*
X99569151Y-126764008D01*
X99526624Y-126859820D01*
X99434255Y-126891222D01*
X99324583Y-126894166D01*
X99111785Y-126838965D01*
X99060000Y-126735416D01*
X99002853Y-126594576D01*
X98954166Y-126576666D01*
X98860273Y-126662387D01*
X98848333Y-126735416D01*
X98756332Y-126863095D01*
X98583750Y-126894166D01*
X98385074Y-126848977D01*
X98319311Y-126761875D01*
X98336874Y-126602297D01*
X98383561Y-126291656D01*
X98450585Y-125887131D01*
X98477916Y-125730000D01*
X98549259Y-125322224D01*
X98553550Y-125297284D01*
X98849134Y-125297284D01*
X98880843Y-125567761D01*
X98912572Y-125668427D01*
X98979794Y-125808546D01*
X99024927Y-125785844D01*
X99060670Y-125580692D01*
X99078138Y-125412500D01*
X99080618Y-125112346D01*
X99009489Y-124993043D01*
X98983421Y-124989166D01*
X98885984Y-125078937D01*
X98849134Y-125297284D01*
X98553550Y-125297284D01*
X98603969Y-125004262D01*
X98633591Y-124825478D01*
X98636521Y-124803958D01*
X98728816Y-124785361D01*
X98950908Y-124777501D01*
X98954166Y-124777500D01*
X99177365Y-124785182D01*
G36*
X96738033Y-118104319D02*
G01*
X97682753Y-118586250D01*
X97684356Y-119115416D01*
X97689727Y-119353301D01*
X97704154Y-119771440D01*
X97726355Y-120338672D01*
X97755051Y-121023837D01*
X97788959Y-121795776D01*
X97826799Y-122623327D01*
X97840975Y-122925416D01*
X97880644Y-123765275D01*
X97918186Y-124560609D01*
X97952131Y-125280252D01*
X97981011Y-125893043D01*
X98003356Y-126367816D01*
X98017696Y-126673407D01*
X98020589Y-126735416D01*
X98045188Y-127264583D01*
X96472319Y-127293965D01*
X95861437Y-127303700D01*
X95425150Y-127303602D01*
X95126460Y-127289532D01*
X94928372Y-127257354D01*
X94793889Y-127202928D01*
X94686017Y-127122119D01*
X94651391Y-127090308D01*
X94403333Y-126857270D01*
X94403333Y-127087385D01*
X94394238Y-127184316D01*
X94343488Y-127249325D01*
X94215881Y-127288778D01*
X93976216Y-127309044D01*
X93589293Y-127316492D01*
X93131316Y-127317500D01*
X92596079Y-127316267D01*
X92238678Y-127308173D01*
X92025284Y-127286622D01*
X91922069Y-127245017D01*
X91895201Y-127176763D01*
X91909977Y-127079375D01*
X91936313Y-126891101D01*
X91973984Y-126536865D01*
X92018604Y-126061785D01*
X92065789Y-125510981D01*
X92082256Y-125306666D01*
X92126210Y-124763120D01*
X92165191Y-124301843D01*
X92183106Y-124102601D01*
X92815833Y-124102601D01*
X92876270Y-124225447D01*
X93040596Y-124480084D01*
X93283330Y-124830773D01*
X93578992Y-125241773D01*
X93902104Y-125677344D01*
X94227184Y-126101747D01*
X94372155Y-126285625D01*
X94941623Y-127000000D01*
X97297729Y-127000000D01*
X97070448Y-126761875D01*
X96906882Y-126590632D01*
X96636568Y-126307766D01*
X96299039Y-125954640D01*
X95983110Y-125624166D01*
X95612419Y-125230844D01*
X95270016Y-124857547D01*
X94998100Y-124550852D01*
X94856466Y-124380625D01*
X94717954Y-124212871D01*
X94585264Y-124111060D01*
X94403181Y-124058732D01*
X94116492Y-124039422D01*
X93702855Y-124036666D01*
X93299449Y-124043926D01*
X92992006Y-124063280D01*
X92829458Y-124091091D01*
X92815833Y-124102601D01*
X92183106Y-124102601D01*
X92195890Y-123960427D01*
X92214999Y-123776462D01*
X92218804Y-123755153D01*
X92323634Y-123742132D01*
X92596800Y-123719646D01*
X92995356Y-123690989D01*
X93418548Y-123663102D01*
X94603346Y-123587982D01*
X94865998Y-123891699D01*
X95047216Y-124075018D01*
X95146651Y-124095900D01*
X95180914Y-124036666D01*
X95203846Y-123890941D01*
X95240810Y-123564735D01*
X95288824Y-123088548D01*
X95344901Y-122492883D01*
X95406057Y-121808238D01*
X95455363Y-121232083D01*
X95519500Y-120476544D01*
X95581169Y-119765277D01*
X95637195Y-119133742D01*
X95684401Y-118617402D01*
X95719613Y-118251716D01*
X95735430Y-118104319D01*
X95793313Y-117622389D01*
X96738033Y-118104319D01*
X96738033Y-118104319D01*
G37*
X96738033Y-118104319D02*
X97682753Y-118586250D01*
X97684356Y-119115416D01*
X97689727Y-119353301D01*
X97704154Y-119771440D01*
X97726355Y-120338672D01*
X97755051Y-121023837D01*
X97788959Y-121795776D01*
X97826799Y-122623327D01*
X97840975Y-122925416D01*
X97880644Y-123765275D01*
X97918186Y-124560609D01*
X97952131Y-125280252D01*
X97981011Y-125893043D01*
X98003356Y-126367816D01*
X98017696Y-126673407D01*
X98020589Y-126735416D01*
X98045188Y-127264583D01*
X96472319Y-127293965D01*
X95861437Y-127303700D01*
X95425150Y-127303602D01*
X95126460Y-127289532D01*
X94928372Y-127257354D01*
X94793889Y-127202928D01*
X94686017Y-127122119D01*
X94651391Y-127090308D01*
X94403333Y-126857270D01*
X94403333Y-127087385D01*
X94394238Y-127184316D01*
X94343488Y-127249325D01*
X94215881Y-127288778D01*
X93976216Y-127309044D01*
X93589293Y-127316492D01*
X93131316Y-127317500D01*
X92596079Y-127316267D01*
X92238678Y-127308173D01*
X92025284Y-127286622D01*
X91922069Y-127245017D01*
X91895201Y-127176763D01*
X91909977Y-127079375D01*
X91936313Y-126891101D01*
X91973984Y-126536865D01*
X92018604Y-126061785D01*
X92065789Y-125510981D01*
X92082256Y-125306666D01*
X92126210Y-124763120D01*
X92165191Y-124301843D01*
X92183106Y-124102601D01*
X92815833Y-124102601D01*
X92876270Y-124225447D01*
X93040596Y-124480084D01*
X93283330Y-124830773D01*
X93578992Y-125241773D01*
X93902104Y-125677344D01*
X94227184Y-126101747D01*
X94372155Y-126285625D01*
X94941623Y-127000000D01*
X97297729Y-127000000D01*
X97070448Y-126761875D01*
X96906882Y-126590632D01*
X96636568Y-126307766D01*
X96299039Y-125954640D01*
X95983110Y-125624166D01*
X95612419Y-125230844D01*
X95270016Y-124857547D01*
X94998100Y-124550852D01*
X94856466Y-124380625D01*
X94717954Y-124212871D01*
X94585264Y-124111060D01*
X94403181Y-124058732D01*
X94116492Y-124039422D01*
X93702855Y-124036666D01*
X93299449Y-124043926D01*
X92992006Y-124063280D01*
X92829458Y-124091091D01*
X92815833Y-124102601D01*
X92183106Y-124102601D01*
X92195890Y-123960427D01*
X92214999Y-123776462D01*
X92218804Y-123755153D01*
X92323634Y-123742132D01*
X92596800Y-123719646D01*
X92995356Y-123690989D01*
X93418548Y-123663102D01*
X94603346Y-123587982D01*
X94865998Y-123891699D01*
X95047216Y-124075018D01*
X95146651Y-124095900D01*
X95180914Y-124036666D01*
X95203846Y-123890941D01*
X95240810Y-123564735D01*
X95288824Y-123088548D01*
X95344901Y-122492883D01*
X95406057Y-121808238D01*
X95455363Y-121232083D01*
X95519500Y-120476544D01*
X95581169Y-119765277D01*
X95637195Y-119133742D01*
X95684401Y-118617402D01*
X95719613Y-118251716D01*
X95735430Y-118104319D01*
X95793313Y-117622389D01*
X96738033Y-118104319D01*
D16*
X128040000Y-99730000D02*
X128040000Y-103470000D01*
X120800000Y-99730000D02*
X120800000Y-103470000D01*
X120800000Y-103470000D02*
X128040000Y-103470000D01*
X120800000Y-99730000D02*
X128040000Y-99730000D01*
X88770000Y-114300000D02*
X88770000Y-116840000D01*
X85470000Y-126230000D02*
X85470000Y-123970000D01*
X87750000Y-126230000D02*
X87750000Y-124370000D01*
X64650000Y-126230000D02*
X87750000Y-126230000D01*
X64650000Y-75630000D02*
X64650000Y-126230000D01*
X87750000Y-75630000D02*
X64650000Y-75630000D01*
X87750000Y-119470000D02*
X87750000Y-75630000D01*
X87920000Y-121920000D02*
G75*
G03X87920000Y-121920000I-900000J0D01*
G01*
X89570000Y-121920000D02*
G75*
G03X89570000Y-121920000I-2550000J0D01*
G01*
X118170000Y-76080000D02*
X107890000Y-76080000D01*
X118170000Y-101720000D02*
X118170000Y-76080000D01*
X107890000Y-101720000D02*
X118170000Y-101720000D01*
X107890000Y-76080000D02*
X107890000Y-101720000D01*
X115680000Y-76140000D02*
X114030000Y-76140000D01*
X115680000Y-101660000D02*
X115680000Y-76140000D01*
X110380000Y-101660000D02*
X115680000Y-101660000D01*
X110380000Y-76140000D02*
X110380000Y-101660000D01*
X112030000Y-76140000D02*
X110380000Y-76140000D01*
X114030000Y-76140000D02*
G75*
G02X112030000Y-76140000I-1000000J0D01*
G01*
X129600000Y-104020000D02*
X119320000Y-104020000D01*
X129600000Y-124580000D02*
X129600000Y-104020000D01*
X119320000Y-124580000D02*
X129600000Y-124580000D01*
X119320000Y-104020000D02*
X119320000Y-124580000D01*
X127110000Y-104080000D02*
X125460000Y-104080000D01*
X127110000Y-124520000D02*
X127110000Y-104080000D01*
X121810000Y-124520000D02*
X127110000Y-124520000D01*
X121810000Y-104080000D02*
X121810000Y-124520000D01*
X123460000Y-104080000D02*
X121810000Y-104080000D01*
X125460000Y-104080000D02*
G75*
G02X123460000Y-104080000I-1000000J0D01*
G01*
X129600000Y-78620000D02*
X119320000Y-78620000D01*
X129600000Y-99180000D02*
X129600000Y-78620000D01*
X119320000Y-99180000D02*
X129600000Y-99180000D01*
X119320000Y-78620000D02*
X119320000Y-99180000D01*
X127110000Y-78680000D02*
X125460000Y-78680000D01*
X127110000Y-99120000D02*
X127110000Y-78680000D01*
X121810000Y-99120000D02*
X127110000Y-99120000D01*
X121810000Y-78680000D02*
X121810000Y-99120000D01*
X123460000Y-78680000D02*
X121810000Y-78680000D01*
X125460000Y-78680000D02*
G75*
G02X123460000Y-78680000I-1000000J0D01*
G01*
X88840000Y-116960000D02*
X106740000Y-116960000D01*
X88840000Y-81160000D02*
X88840000Y-116960000D01*
X106740000Y-81160000D02*
X88840000Y-81160000D01*
X106740000Y-116960000D02*
X106740000Y-81160000D01*
X91330000Y-116900000D02*
X96790000Y-116900000D01*
X91330000Y-81220000D02*
X91330000Y-116900000D01*
X104250000Y-81220000D02*
X91330000Y-81220000D01*
X104250000Y-116900000D02*
X104250000Y-81220000D01*
X98790000Y-116900000D02*
X104250000Y-116900000D01*
X96790000Y-116900000D02*
G75*
G02X98790000Y-116900000I1000000J0D01*
G01*
D18*
X113577619Y-114848095D02*
X113577619Y-115514761D01*
X112577619Y-115086190D01*
X113244285Y-116324285D02*
X112577619Y-116324285D01*
X113625238Y-116086190D02*
X112910952Y-115848095D01*
X112910952Y-116467142D01*
X112577619Y-116848095D02*
X113577619Y-116848095D01*
X113101428Y-116848095D02*
X113101428Y-117419523D01*
X112577619Y-117419523D02*
X113577619Y-117419523D01*
X112672857Y-118467142D02*
X112625238Y-118419523D01*
X112577619Y-118276666D01*
X112577619Y-118181428D01*
X112625238Y-118038571D01*
X112720476Y-117943333D01*
X112815714Y-117895714D01*
X113006190Y-117848095D01*
X113149047Y-117848095D01*
X113339523Y-117895714D01*
X113434761Y-117943333D01*
X113530000Y-118038571D01*
X113577619Y-118181428D01*
X113577619Y-118276666D01*
X113530000Y-118419523D01*
X113482380Y-118467142D01*
X112577619Y-119419523D02*
X112577619Y-118848095D01*
X112577619Y-119133809D02*
X113577619Y-119133809D01*
X113434761Y-119038571D01*
X113339523Y-118943333D01*
X113291904Y-118848095D01*
X113577619Y-119752857D02*
X113577619Y-120371904D01*
X113196666Y-120038571D01*
X113196666Y-120181428D01*
X113149047Y-120276666D01*
X113101428Y-120324285D01*
X113006190Y-120371904D01*
X112768095Y-120371904D01*
X112672857Y-120324285D01*
X112625238Y-120276666D01*
X112577619Y-120181428D01*
X112577619Y-119895714D01*
X112625238Y-119800476D01*
X112672857Y-119752857D01*
X112577619Y-120848095D02*
X112577619Y-121038571D01*
X112625238Y-121133809D01*
X112672857Y-121181428D01*
X112815714Y-121276666D01*
X113006190Y-121324285D01*
X113387142Y-121324285D01*
X113482380Y-121276666D01*
X113530000Y-121229047D01*
X113577619Y-121133809D01*
X113577619Y-120943333D01*
X113530000Y-120848095D01*
X113482380Y-120800476D01*
X113387142Y-120752857D01*
X113149047Y-120752857D01*
X113053809Y-120800476D01*
X113006190Y-120848095D01*
X112958571Y-120943333D01*
X112958571Y-121133809D01*
X113006190Y-121229047D01*
X113053809Y-121276666D01*
X113149047Y-121324285D01*
X123245714Y-101147619D02*
X123293333Y-101100000D01*
X123388571Y-101052380D01*
X123626666Y-101052380D01*
X123721904Y-101100000D01*
X123769523Y-101147619D01*
X123817142Y-101242857D01*
X123817142Y-101338095D01*
X123769523Y-101480952D01*
X123198095Y-102052380D01*
X123817142Y-102052380D01*
X124198095Y-101147619D02*
X124245714Y-101100000D01*
X124340952Y-101052380D01*
X124579047Y-101052380D01*
X124674285Y-101100000D01*
X124721904Y-101147619D01*
X124769523Y-101242857D01*
X124769523Y-101338095D01*
X124721904Y-101480952D01*
X124150476Y-102052380D01*
X124769523Y-102052380D01*
X125198095Y-101385714D02*
X125198095Y-102052380D01*
X125198095Y-101480952D02*
X125245714Y-101433333D01*
X125340952Y-101385714D01*
X125483809Y-101385714D01*
X125579047Y-101433333D01*
X125626666Y-101528571D01*
X125626666Y-102052380D01*
D10*
X80584523Y-84878333D02*
X80645000Y-84938809D01*
X80705476Y-85059761D01*
X80705476Y-85362142D01*
X80645000Y-85483095D01*
X80584523Y-85543571D01*
X80463571Y-85604047D01*
X80342619Y-85604047D01*
X80161190Y-85543571D01*
X79435476Y-84817857D01*
X79435476Y-85604047D01*
X80705476Y-86027380D02*
X80705476Y-86874047D01*
X79435476Y-86329761D01*
X80765952Y-88265000D02*
X79133095Y-87176428D01*
X80584523Y-88627857D02*
X80645000Y-88688333D01*
X80705476Y-88809285D01*
X80705476Y-89111666D01*
X80645000Y-89232619D01*
X80584523Y-89293095D01*
X80463571Y-89353571D01*
X80342619Y-89353571D01*
X80161190Y-89293095D01*
X79435476Y-88567380D01*
X79435476Y-89353571D01*
X80161190Y-90079285D02*
X80221666Y-89958333D01*
X80282142Y-89897857D01*
X80403095Y-89837380D01*
X80463571Y-89837380D01*
X80584523Y-89897857D01*
X80645000Y-89958333D01*
X80705476Y-90079285D01*
X80705476Y-90321190D01*
X80645000Y-90442142D01*
X80584523Y-90502619D01*
X80463571Y-90563095D01*
X80403095Y-90563095D01*
X80282142Y-90502619D01*
X80221666Y-90442142D01*
X80161190Y-90321190D01*
X80161190Y-90079285D01*
X80100714Y-89958333D01*
X80040238Y-89897857D01*
X79919285Y-89837380D01*
X79677380Y-89837380D01*
X79556428Y-89897857D01*
X79495952Y-89958333D01*
X79435476Y-90079285D01*
X79435476Y-90321190D01*
X79495952Y-90442142D01*
X79556428Y-90502619D01*
X79677380Y-90563095D01*
X79919285Y-90563095D01*
X80040238Y-90502619D01*
X80100714Y-90442142D01*
X80161190Y-90321190D01*
X79556428Y-91833095D02*
X79495952Y-91772619D01*
X79435476Y-91591190D01*
X79435476Y-91470238D01*
X79495952Y-91288809D01*
X79616904Y-91167857D01*
X79737857Y-91107380D01*
X79979761Y-91046904D01*
X80161190Y-91046904D01*
X80403095Y-91107380D01*
X80524047Y-91167857D01*
X80645000Y-91288809D01*
X80705476Y-91470238D01*
X80705476Y-91591190D01*
X80645000Y-91772619D01*
X80584523Y-91833095D01*
X80584523Y-92316904D02*
X80645000Y-92377380D01*
X80705476Y-92498333D01*
X80705476Y-92800714D01*
X80645000Y-92921666D01*
X80584523Y-92982142D01*
X80463571Y-93042619D01*
X80342619Y-93042619D01*
X80161190Y-92982142D01*
X79435476Y-92256428D01*
X79435476Y-93042619D01*
X80705476Y-94191666D02*
X80705476Y-93586904D01*
X80100714Y-93526428D01*
X80161190Y-93586904D01*
X80221666Y-93707857D01*
X80221666Y-94010238D01*
X80161190Y-94131190D01*
X80100714Y-94191666D01*
X79979761Y-94252142D01*
X79677380Y-94252142D01*
X79556428Y-94191666D01*
X79495952Y-94131190D01*
X79435476Y-94010238D01*
X79435476Y-93707857D01*
X79495952Y-93586904D01*
X79556428Y-93526428D01*
X80705476Y-95340714D02*
X80705476Y-95098809D01*
X80645000Y-94977857D01*
X80584523Y-94917380D01*
X80403095Y-94796428D01*
X80161190Y-94735952D01*
X79677380Y-94735952D01*
X79556428Y-94796428D01*
X79495952Y-94856904D01*
X79435476Y-94977857D01*
X79435476Y-95219761D01*
X79495952Y-95340714D01*
X79556428Y-95401190D01*
X79677380Y-95461666D01*
X79979761Y-95461666D01*
X80100714Y-95401190D01*
X80161190Y-95340714D01*
X80221666Y-95219761D01*
X80221666Y-94977857D01*
X80161190Y-94856904D01*
X80100714Y-94796428D01*
X79979761Y-94735952D01*
D18*
X113577619Y-89448095D02*
X113577619Y-90114761D01*
X112577619Y-89686190D01*
X113244285Y-90924285D02*
X112577619Y-90924285D01*
X113625238Y-90686190D02*
X112910952Y-90448095D01*
X112910952Y-91067142D01*
X112577619Y-91448095D02*
X113577619Y-91448095D01*
X113101428Y-91448095D02*
X113101428Y-92019523D01*
X112577619Y-92019523D02*
X113577619Y-92019523D01*
X112672857Y-93067142D02*
X112625238Y-93019523D01*
X112577619Y-92876666D01*
X112577619Y-92781428D01*
X112625238Y-92638571D01*
X112720476Y-92543333D01*
X112815714Y-92495714D01*
X113006190Y-92448095D01*
X113149047Y-92448095D01*
X113339523Y-92495714D01*
X113434761Y-92543333D01*
X113530000Y-92638571D01*
X113577619Y-92781428D01*
X113577619Y-92876666D01*
X113530000Y-93019523D01*
X113482380Y-93067142D01*
X113482380Y-93448095D02*
X113530000Y-93495714D01*
X113577619Y-93590952D01*
X113577619Y-93829047D01*
X113530000Y-93924285D01*
X113482380Y-93971904D01*
X113387142Y-94019523D01*
X113291904Y-94019523D01*
X113149047Y-93971904D01*
X112577619Y-93400476D01*
X112577619Y-94019523D01*
X113244285Y-94876666D02*
X112577619Y-94876666D01*
X113625238Y-94638571D02*
X112910952Y-94400476D01*
X112910952Y-95019523D01*
X113577619Y-95876666D02*
X113577619Y-95400476D01*
X113101428Y-95352857D01*
X113149047Y-95400476D01*
X113196666Y-95495714D01*
X113196666Y-95733809D01*
X113149047Y-95829047D01*
X113101428Y-95876666D01*
X113006190Y-95924285D01*
X112768095Y-95924285D01*
X112672857Y-95876666D01*
X112625238Y-95829047D01*
X112577619Y-95733809D01*
X112577619Y-95495714D01*
X112625238Y-95400476D01*
X112672857Y-95352857D01*
X125007619Y-114848095D02*
X125007619Y-115514761D01*
X124007619Y-115086190D01*
X124674285Y-116324285D02*
X124007619Y-116324285D01*
X125055238Y-116086190D02*
X124340952Y-115848095D01*
X124340952Y-116467142D01*
X124007619Y-116848095D02*
X125007619Y-116848095D01*
X124531428Y-116848095D02*
X124531428Y-117419523D01*
X124007619Y-117419523D02*
X125007619Y-117419523D01*
X124102857Y-118467142D02*
X124055238Y-118419523D01*
X124007619Y-118276666D01*
X124007619Y-118181428D01*
X124055238Y-118038571D01*
X124150476Y-117943333D01*
X124245714Y-117895714D01*
X124436190Y-117848095D01*
X124579047Y-117848095D01*
X124769523Y-117895714D01*
X124864761Y-117943333D01*
X124960000Y-118038571D01*
X125007619Y-118181428D01*
X125007619Y-118276666D01*
X124960000Y-118419523D01*
X124912380Y-118467142D01*
X124007619Y-119419523D02*
X124007619Y-118848095D01*
X124007619Y-119133809D02*
X125007619Y-119133809D01*
X124864761Y-119038571D01*
X124769523Y-118943333D01*
X124721904Y-118848095D01*
X125007619Y-119752857D02*
X125007619Y-120371904D01*
X124626666Y-120038571D01*
X124626666Y-120181428D01*
X124579047Y-120276666D01*
X124531428Y-120324285D01*
X124436190Y-120371904D01*
X124198095Y-120371904D01*
X124102857Y-120324285D01*
X124055238Y-120276666D01*
X124007619Y-120181428D01*
X124007619Y-119895714D01*
X124055238Y-119800476D01*
X124102857Y-119752857D01*
X124007619Y-120848095D02*
X124007619Y-121038571D01*
X124055238Y-121133809D01*
X124102857Y-121181428D01*
X124245714Y-121276666D01*
X124436190Y-121324285D01*
X124817142Y-121324285D01*
X124912380Y-121276666D01*
X124960000Y-121229047D01*
X125007619Y-121133809D01*
X125007619Y-120943333D01*
X124960000Y-120848095D01*
X124912380Y-120800476D01*
X124817142Y-120752857D01*
X124579047Y-120752857D01*
X124483809Y-120800476D01*
X124436190Y-120848095D01*
X124388571Y-120943333D01*
X124388571Y-121133809D01*
X124436190Y-121229047D01*
X124483809Y-121276666D01*
X124579047Y-121324285D01*
X125007619Y-89448095D02*
X125007619Y-90114761D01*
X124007619Y-89686190D01*
X124674285Y-90924285D02*
X124007619Y-90924285D01*
X125055238Y-90686190D02*
X124340952Y-90448095D01*
X124340952Y-91067142D01*
X124007619Y-91448095D02*
X125007619Y-91448095D01*
X124531428Y-91448095D02*
X124531428Y-92019523D01*
X124007619Y-92019523D02*
X125007619Y-92019523D01*
X124102857Y-93067142D02*
X124055238Y-93019523D01*
X124007619Y-92876666D01*
X124007619Y-92781428D01*
X124055238Y-92638571D01*
X124150476Y-92543333D01*
X124245714Y-92495714D01*
X124436190Y-92448095D01*
X124579047Y-92448095D01*
X124769523Y-92495714D01*
X124864761Y-92543333D01*
X124960000Y-92638571D01*
X125007619Y-92781428D01*
X125007619Y-92876666D01*
X124960000Y-93019523D01*
X124912380Y-93067142D01*
X124007619Y-94019523D02*
X124007619Y-93448095D01*
X124007619Y-93733809D02*
X125007619Y-93733809D01*
X124864761Y-93638571D01*
X124769523Y-93543333D01*
X124721904Y-93448095D01*
X125007619Y-94352857D02*
X125007619Y-95019523D01*
X124007619Y-94590952D01*
X124674285Y-95829047D02*
X124007619Y-95829047D01*
X125055238Y-95590952D02*
X124340952Y-95352857D01*
X124340952Y-95971904D01*
D10*
X98485476Y-87992857D02*
X98485476Y-87750952D01*
X98425000Y-87630000D01*
X98364523Y-87569523D01*
X98183095Y-87448571D01*
X97941190Y-87388095D01*
X97457380Y-87388095D01*
X97336428Y-87448571D01*
X97275952Y-87509047D01*
X97215476Y-87630000D01*
X97215476Y-87871904D01*
X97275952Y-87992857D01*
X97336428Y-88053333D01*
X97457380Y-88113809D01*
X97759761Y-88113809D01*
X97880714Y-88053333D01*
X97941190Y-87992857D01*
X98001666Y-87871904D01*
X98001666Y-87630000D01*
X97941190Y-87509047D01*
X97880714Y-87448571D01*
X97759761Y-87388095D01*
X98364523Y-88597619D02*
X98425000Y-88658095D01*
X98485476Y-88779047D01*
X98485476Y-89081428D01*
X98425000Y-89202380D01*
X98364523Y-89262857D01*
X98243571Y-89323333D01*
X98122619Y-89323333D01*
X97941190Y-89262857D01*
X97215476Y-88537142D01*
X97215476Y-89323333D01*
X98364523Y-89807142D02*
X98425000Y-89867619D01*
X98485476Y-89988571D01*
X98485476Y-90290952D01*
X98425000Y-90411904D01*
X98364523Y-90472380D01*
X98243571Y-90532857D01*
X98122619Y-90532857D01*
X97941190Y-90472380D01*
X97215476Y-89746666D01*
X97215476Y-90532857D01*
X98485476Y-91681904D02*
X98485476Y-91077142D01*
X97880714Y-91016666D01*
X97941190Y-91077142D01*
X98001666Y-91198095D01*
X98001666Y-91500476D01*
X97941190Y-91621428D01*
X97880714Y-91681904D01*
X97759761Y-91742380D01*
X97457380Y-91742380D01*
X97336428Y-91681904D01*
X97275952Y-91621428D01*
X97215476Y-91500476D01*
X97215476Y-91198095D01*
X97275952Y-91077142D01*
X97336428Y-91016666D01*
X98485476Y-92830952D02*
X98485476Y-92589047D01*
X98425000Y-92468095D01*
X98364523Y-92407619D01*
X98183095Y-92286666D01*
X97941190Y-92226190D01*
X97457380Y-92226190D01*
X97336428Y-92286666D01*
X97275952Y-92347142D01*
X97215476Y-92468095D01*
X97215476Y-92710000D01*
X97275952Y-92830952D01*
X97336428Y-92891428D01*
X97457380Y-92951904D01*
X97759761Y-92951904D01*
X97880714Y-92891428D01*
X97941190Y-92830952D01*
X98001666Y-92710000D01*
X98001666Y-92468095D01*
X97941190Y-92347142D01*
X97880714Y-92286666D01*
X97759761Y-92226190D01*
D13*
X98485476Y-100602142D02*
X98485476Y-101388333D01*
X98001666Y-100965000D01*
X98001666Y-101146428D01*
X97941190Y-101267380D01*
X97880714Y-101327857D01*
X97759761Y-101388333D01*
X97457380Y-101388333D01*
X97336428Y-101327857D01*
X97275952Y-101267380D01*
X97215476Y-101146428D01*
X97215476Y-100783571D01*
X97275952Y-100662619D01*
X97336428Y-100602142D01*
X98364523Y-101872142D02*
X98425000Y-101932619D01*
X98485476Y-102053571D01*
X98485476Y-102355952D01*
X98425000Y-102476904D01*
X98364523Y-102537380D01*
X98243571Y-102597857D01*
X98122619Y-102597857D01*
X97941190Y-102537380D01*
X97215476Y-101811666D01*
X97215476Y-102597857D01*
X97215476Y-104109761D02*
X98485476Y-104109761D01*
X97215476Y-104835476D02*
X97941190Y-104291190D01*
X98485476Y-104835476D02*
X97759761Y-104109761D01*
X97215476Y-105379761D02*
X98062142Y-105379761D01*
X98485476Y-105379761D02*
X98425000Y-105319285D01*
X98364523Y-105379761D01*
X98425000Y-105440238D01*
X98485476Y-105379761D01*
X98364523Y-105379761D01*
X97880714Y-106407857D02*
X97820238Y-106589285D01*
X97759761Y-106649761D01*
X97638809Y-106710238D01*
X97457380Y-106710238D01*
X97336428Y-106649761D01*
X97275952Y-106589285D01*
X97215476Y-106468333D01*
X97215476Y-105984523D01*
X98485476Y-105984523D01*
X98485476Y-106407857D01*
X98425000Y-106528809D01*
X98364523Y-106589285D01*
X98243571Y-106649761D01*
X98122619Y-106649761D01*
X98001666Y-106589285D01*
X97941190Y-106528809D01*
X97880714Y-106407857D01*
X97880714Y-105984523D01*
X97275952Y-108161666D02*
X97215476Y-108343095D01*
X97215476Y-108645476D01*
X97275952Y-108766428D01*
X97336428Y-108826904D01*
X97457380Y-108887380D01*
X97578333Y-108887380D01*
X97699285Y-108826904D01*
X97759761Y-108766428D01*
X97820238Y-108645476D01*
X97880714Y-108403571D01*
X97941190Y-108282619D01*
X98001666Y-108222142D01*
X98122619Y-108161666D01*
X98243571Y-108161666D01*
X98364523Y-108222142D01*
X98425000Y-108282619D01*
X98485476Y-108403571D01*
X98485476Y-108705952D01*
X98425000Y-108887380D01*
X97215476Y-110157380D02*
X97820238Y-109734047D01*
X97215476Y-109431666D02*
X98485476Y-109431666D01*
X98485476Y-109915476D01*
X98425000Y-110036428D01*
X98364523Y-110096904D01*
X98243571Y-110157380D01*
X98062142Y-110157380D01*
X97941190Y-110096904D01*
X97880714Y-110036428D01*
X97820238Y-109915476D01*
X97820238Y-109431666D01*
X97578333Y-110641190D02*
X97578333Y-111245952D01*
X97215476Y-110520238D02*
X98485476Y-110943571D01*
X97215476Y-111366904D01*
X97215476Y-111790238D02*
X98485476Y-111790238D01*
X97578333Y-112213571D01*
X98485476Y-112636904D01*
X97215476Y-112636904D01*
%LPC*%
D19*
G36*
X52070000Y-74930000D02*
G01*
X52070000Y-123190000D01*
X59690000Y-123190000D01*
X59690000Y-74930000D01*
X52070000Y-74930000D01*
G37*
X52070000Y-74930000D02*
X52070000Y-123190000D01*
X59690000Y-123190000D01*
X59690000Y-74930000D01*
X52070000Y-74930000D01*
D18*
G36*
X59564344Y-76658957D02*
G01*
X59603804Y-76664811D01*
X59642501Y-76674504D01*
X59680061Y-76687943D01*
X59716123Y-76704999D01*
X59750339Y-76725508D01*
X59782381Y-76749271D01*
X59811939Y-76776061D01*
X59838729Y-76805619D01*
X59862492Y-76837661D01*
X59883001Y-76871877D01*
X59900057Y-76907939D01*
X59913496Y-76945499D01*
X59923189Y-76984196D01*
X59929043Y-77023656D01*
X59931000Y-77063500D01*
X59931000Y-77876500D01*
X59929043Y-77916344D01*
X59923189Y-77955804D01*
X59913496Y-77994501D01*
X59900057Y-78032061D01*
X59883001Y-78068123D01*
X59862492Y-78102339D01*
X59838729Y-78134381D01*
X59811939Y-78163939D01*
X59782381Y-78190729D01*
X59750339Y-78214492D01*
X59716123Y-78235001D01*
X59680061Y-78252057D01*
X59642501Y-78265496D01*
X59603804Y-78275189D01*
X59564344Y-78281043D01*
X59524500Y-78283000D01*
X52235500Y-78283000D01*
X52195656Y-78281043D01*
X52156196Y-78275189D01*
X52117499Y-78265496D01*
X52079939Y-78252057D01*
X52043877Y-78235001D01*
X52009661Y-78214492D01*
X51977619Y-78190729D01*
X51948061Y-78163939D01*
X51921271Y-78134381D01*
X51897508Y-78102339D01*
X51876999Y-78068123D01*
X51859943Y-78032061D01*
X51846504Y-77994501D01*
X51836811Y-77955804D01*
X51830957Y-77916344D01*
X51829000Y-77876500D01*
X51829000Y-77063500D01*
X51830957Y-77023656D01*
X51836811Y-76984196D01*
X51846504Y-76945499D01*
X51859943Y-76907939D01*
X51876999Y-76871877D01*
X51897508Y-76837661D01*
X51921271Y-76805619D01*
X51948061Y-76776061D01*
X51977619Y-76749271D01*
X52009661Y-76725508D01*
X52043877Y-76704999D01*
X52079939Y-76687943D01*
X52117499Y-76674504D01*
X52156196Y-76664811D01*
X52195656Y-76658957D01*
X52235500Y-76657000D01*
X59524500Y-76657000D01*
X59564344Y-76658957D01*
X59564344Y-76658957D01*
G37*
D20*
X55880000Y-77470000D03*
D18*
G36*
X59564344Y-79198957D02*
G01*
X59603804Y-79204811D01*
X59642501Y-79214504D01*
X59680061Y-79227943D01*
X59716123Y-79244999D01*
X59750339Y-79265508D01*
X59782381Y-79289271D01*
X59811939Y-79316061D01*
X59838729Y-79345619D01*
X59862492Y-79377661D01*
X59883001Y-79411877D01*
X59900057Y-79447939D01*
X59913496Y-79485499D01*
X59923189Y-79524196D01*
X59929043Y-79563656D01*
X59931000Y-79603500D01*
X59931000Y-80416500D01*
X59929043Y-80456344D01*
X59923189Y-80495804D01*
X59913496Y-80534501D01*
X59900057Y-80572061D01*
X59883001Y-80608123D01*
X59862492Y-80642339D01*
X59838729Y-80674381D01*
X59811939Y-80703939D01*
X59782381Y-80730729D01*
X59750339Y-80754492D01*
X59716123Y-80775001D01*
X59680061Y-80792057D01*
X59642501Y-80805496D01*
X59603804Y-80815189D01*
X59564344Y-80821043D01*
X59524500Y-80823000D01*
X52235500Y-80823000D01*
X52195656Y-80821043D01*
X52156196Y-80815189D01*
X52117499Y-80805496D01*
X52079939Y-80792057D01*
X52043877Y-80775001D01*
X52009661Y-80754492D01*
X51977619Y-80730729D01*
X51948061Y-80703939D01*
X51921271Y-80674381D01*
X51897508Y-80642339D01*
X51876999Y-80608123D01*
X51859943Y-80572061D01*
X51846504Y-80534501D01*
X51836811Y-80495804D01*
X51830957Y-80456344D01*
X51829000Y-80416500D01*
X51829000Y-79603500D01*
X51830957Y-79563656D01*
X51836811Y-79524196D01*
X51846504Y-79485499D01*
X51859943Y-79447939D01*
X51876999Y-79411877D01*
X51897508Y-79377661D01*
X51921271Y-79345619D01*
X51948061Y-79316061D01*
X51977619Y-79289271D01*
X52009661Y-79265508D01*
X52043877Y-79244999D01*
X52079939Y-79227943D01*
X52117499Y-79214504D01*
X52156196Y-79204811D01*
X52195656Y-79198957D01*
X52235500Y-79197000D01*
X59524500Y-79197000D01*
X59564344Y-79198957D01*
X59564344Y-79198957D01*
G37*
D20*
X55880000Y-80010000D03*
D18*
G36*
X59564344Y-81738957D02*
G01*
X59603804Y-81744811D01*
X59642501Y-81754504D01*
X59680061Y-81767943D01*
X59716123Y-81784999D01*
X59750339Y-81805508D01*
X59782381Y-81829271D01*
X59811939Y-81856061D01*
X59838729Y-81885619D01*
X59862492Y-81917661D01*
X59883001Y-81951877D01*
X59900057Y-81987939D01*
X59913496Y-82025499D01*
X59923189Y-82064196D01*
X59929043Y-82103656D01*
X59931000Y-82143500D01*
X59931000Y-82956500D01*
X59929043Y-82996344D01*
X59923189Y-83035804D01*
X59913496Y-83074501D01*
X59900057Y-83112061D01*
X59883001Y-83148123D01*
X59862492Y-83182339D01*
X59838729Y-83214381D01*
X59811939Y-83243939D01*
X59782381Y-83270729D01*
X59750339Y-83294492D01*
X59716123Y-83315001D01*
X59680061Y-83332057D01*
X59642501Y-83345496D01*
X59603804Y-83355189D01*
X59564344Y-83361043D01*
X59524500Y-83363000D01*
X52235500Y-83363000D01*
X52195656Y-83361043D01*
X52156196Y-83355189D01*
X52117499Y-83345496D01*
X52079939Y-83332057D01*
X52043877Y-83315001D01*
X52009661Y-83294492D01*
X51977619Y-83270729D01*
X51948061Y-83243939D01*
X51921271Y-83214381D01*
X51897508Y-83182339D01*
X51876999Y-83148123D01*
X51859943Y-83112061D01*
X51846504Y-83074501D01*
X51836811Y-83035804D01*
X51830957Y-82996344D01*
X51829000Y-82956500D01*
X51829000Y-82143500D01*
X51830957Y-82103656D01*
X51836811Y-82064196D01*
X51846504Y-82025499D01*
X51859943Y-81987939D01*
X51876999Y-81951877D01*
X51897508Y-81917661D01*
X51921271Y-81885619D01*
X51948061Y-81856061D01*
X51977619Y-81829271D01*
X52009661Y-81805508D01*
X52043877Y-81784999D01*
X52079939Y-81767943D01*
X52117499Y-81754504D01*
X52156196Y-81744811D01*
X52195656Y-81738957D01*
X52235500Y-81737000D01*
X59524500Y-81737000D01*
X59564344Y-81738957D01*
X59564344Y-81738957D01*
G37*
D20*
X55880000Y-82550000D03*
D18*
G36*
X59564344Y-84278957D02*
G01*
X59603804Y-84284811D01*
X59642501Y-84294504D01*
X59680061Y-84307943D01*
X59716123Y-84324999D01*
X59750339Y-84345508D01*
X59782381Y-84369271D01*
X59811939Y-84396061D01*
X59838729Y-84425619D01*
X59862492Y-84457661D01*
X59883001Y-84491877D01*
X59900057Y-84527939D01*
X59913496Y-84565499D01*
X59923189Y-84604196D01*
X59929043Y-84643656D01*
X59931000Y-84683500D01*
X59931000Y-85496500D01*
X59929043Y-85536344D01*
X59923189Y-85575804D01*
X59913496Y-85614501D01*
X59900057Y-85652061D01*
X59883001Y-85688123D01*
X59862492Y-85722339D01*
X59838729Y-85754381D01*
X59811939Y-85783939D01*
X59782381Y-85810729D01*
X59750339Y-85834492D01*
X59716123Y-85855001D01*
X59680061Y-85872057D01*
X59642501Y-85885496D01*
X59603804Y-85895189D01*
X59564344Y-85901043D01*
X59524500Y-85903000D01*
X52235500Y-85903000D01*
X52195656Y-85901043D01*
X52156196Y-85895189D01*
X52117499Y-85885496D01*
X52079939Y-85872057D01*
X52043877Y-85855001D01*
X52009661Y-85834492D01*
X51977619Y-85810729D01*
X51948061Y-85783939D01*
X51921271Y-85754381D01*
X51897508Y-85722339D01*
X51876999Y-85688123D01*
X51859943Y-85652061D01*
X51846504Y-85614501D01*
X51836811Y-85575804D01*
X51830957Y-85536344D01*
X51829000Y-85496500D01*
X51829000Y-84683500D01*
X51830957Y-84643656D01*
X51836811Y-84604196D01*
X51846504Y-84565499D01*
X51859943Y-84527939D01*
X51876999Y-84491877D01*
X51897508Y-84457661D01*
X51921271Y-84425619D01*
X51948061Y-84396061D01*
X51977619Y-84369271D01*
X52009661Y-84345508D01*
X52043877Y-84324999D01*
X52079939Y-84307943D01*
X52117499Y-84294504D01*
X52156196Y-84284811D01*
X52195656Y-84278957D01*
X52235500Y-84277000D01*
X59524500Y-84277000D01*
X59564344Y-84278957D01*
X59564344Y-84278957D01*
G37*
D20*
X55880000Y-85090000D03*
D18*
G36*
X59564344Y-86818957D02*
G01*
X59603804Y-86824811D01*
X59642501Y-86834504D01*
X59680061Y-86847943D01*
X59716123Y-86864999D01*
X59750339Y-86885508D01*
X59782381Y-86909271D01*
X59811939Y-86936061D01*
X59838729Y-86965619D01*
X59862492Y-86997661D01*
X59883001Y-87031877D01*
X59900057Y-87067939D01*
X59913496Y-87105499D01*
X59923189Y-87144196D01*
X59929043Y-87183656D01*
X59931000Y-87223500D01*
X59931000Y-88036500D01*
X59929043Y-88076344D01*
X59923189Y-88115804D01*
X59913496Y-88154501D01*
X59900057Y-88192061D01*
X59883001Y-88228123D01*
X59862492Y-88262339D01*
X59838729Y-88294381D01*
X59811939Y-88323939D01*
X59782381Y-88350729D01*
X59750339Y-88374492D01*
X59716123Y-88395001D01*
X59680061Y-88412057D01*
X59642501Y-88425496D01*
X59603804Y-88435189D01*
X59564344Y-88441043D01*
X59524500Y-88443000D01*
X52235500Y-88443000D01*
X52195656Y-88441043D01*
X52156196Y-88435189D01*
X52117499Y-88425496D01*
X52079939Y-88412057D01*
X52043877Y-88395001D01*
X52009661Y-88374492D01*
X51977619Y-88350729D01*
X51948061Y-88323939D01*
X51921271Y-88294381D01*
X51897508Y-88262339D01*
X51876999Y-88228123D01*
X51859943Y-88192061D01*
X51846504Y-88154501D01*
X51836811Y-88115804D01*
X51830957Y-88076344D01*
X51829000Y-88036500D01*
X51829000Y-87223500D01*
X51830957Y-87183656D01*
X51836811Y-87144196D01*
X51846504Y-87105499D01*
X51859943Y-87067939D01*
X51876999Y-87031877D01*
X51897508Y-86997661D01*
X51921271Y-86965619D01*
X51948061Y-86936061D01*
X51977619Y-86909271D01*
X52009661Y-86885508D01*
X52043877Y-86864999D01*
X52079939Y-86847943D01*
X52117499Y-86834504D01*
X52156196Y-86824811D01*
X52195656Y-86818957D01*
X52235500Y-86817000D01*
X59524500Y-86817000D01*
X59564344Y-86818957D01*
X59564344Y-86818957D01*
G37*
D20*
X55880000Y-87630000D03*
D18*
G36*
X59564344Y-89358957D02*
G01*
X59603804Y-89364811D01*
X59642501Y-89374504D01*
X59680061Y-89387943D01*
X59716123Y-89404999D01*
X59750339Y-89425508D01*
X59782381Y-89449271D01*
X59811939Y-89476061D01*
X59838729Y-89505619D01*
X59862492Y-89537661D01*
X59883001Y-89571877D01*
X59900057Y-89607939D01*
X59913496Y-89645499D01*
X59923189Y-89684196D01*
X59929043Y-89723656D01*
X59931000Y-89763500D01*
X59931000Y-90576500D01*
X59929043Y-90616344D01*
X59923189Y-90655804D01*
X59913496Y-90694501D01*
X59900057Y-90732061D01*
X59883001Y-90768123D01*
X59862492Y-90802339D01*
X59838729Y-90834381D01*
X59811939Y-90863939D01*
X59782381Y-90890729D01*
X59750339Y-90914492D01*
X59716123Y-90935001D01*
X59680061Y-90952057D01*
X59642501Y-90965496D01*
X59603804Y-90975189D01*
X59564344Y-90981043D01*
X59524500Y-90983000D01*
X52235500Y-90983000D01*
X52195656Y-90981043D01*
X52156196Y-90975189D01*
X52117499Y-90965496D01*
X52079939Y-90952057D01*
X52043877Y-90935001D01*
X52009661Y-90914492D01*
X51977619Y-90890729D01*
X51948061Y-90863939D01*
X51921271Y-90834381D01*
X51897508Y-90802339D01*
X51876999Y-90768123D01*
X51859943Y-90732061D01*
X51846504Y-90694501D01*
X51836811Y-90655804D01*
X51830957Y-90616344D01*
X51829000Y-90576500D01*
X51829000Y-89763500D01*
X51830957Y-89723656D01*
X51836811Y-89684196D01*
X51846504Y-89645499D01*
X51859943Y-89607939D01*
X51876999Y-89571877D01*
X51897508Y-89537661D01*
X51921271Y-89505619D01*
X51948061Y-89476061D01*
X51977619Y-89449271D01*
X52009661Y-89425508D01*
X52043877Y-89404999D01*
X52079939Y-89387943D01*
X52117499Y-89374504D01*
X52156196Y-89364811D01*
X52195656Y-89358957D01*
X52235500Y-89357000D01*
X59524500Y-89357000D01*
X59564344Y-89358957D01*
X59564344Y-89358957D01*
G37*
D20*
X55880000Y-90170000D03*
D18*
G36*
X59564344Y-91898957D02*
G01*
X59603804Y-91904811D01*
X59642501Y-91914504D01*
X59680061Y-91927943D01*
X59716123Y-91944999D01*
X59750339Y-91965508D01*
X59782381Y-91989271D01*
X59811939Y-92016061D01*
X59838729Y-92045619D01*
X59862492Y-92077661D01*
X59883001Y-92111877D01*
X59900057Y-92147939D01*
X59913496Y-92185499D01*
X59923189Y-92224196D01*
X59929043Y-92263656D01*
X59931000Y-92303500D01*
X59931000Y-93116500D01*
X59929043Y-93156344D01*
X59923189Y-93195804D01*
X59913496Y-93234501D01*
X59900057Y-93272061D01*
X59883001Y-93308123D01*
X59862492Y-93342339D01*
X59838729Y-93374381D01*
X59811939Y-93403939D01*
X59782381Y-93430729D01*
X59750339Y-93454492D01*
X59716123Y-93475001D01*
X59680061Y-93492057D01*
X59642501Y-93505496D01*
X59603804Y-93515189D01*
X59564344Y-93521043D01*
X59524500Y-93523000D01*
X52235500Y-93523000D01*
X52195656Y-93521043D01*
X52156196Y-93515189D01*
X52117499Y-93505496D01*
X52079939Y-93492057D01*
X52043877Y-93475001D01*
X52009661Y-93454492D01*
X51977619Y-93430729D01*
X51948061Y-93403939D01*
X51921271Y-93374381D01*
X51897508Y-93342339D01*
X51876999Y-93308123D01*
X51859943Y-93272061D01*
X51846504Y-93234501D01*
X51836811Y-93195804D01*
X51830957Y-93156344D01*
X51829000Y-93116500D01*
X51829000Y-92303500D01*
X51830957Y-92263656D01*
X51836811Y-92224196D01*
X51846504Y-92185499D01*
X51859943Y-92147939D01*
X51876999Y-92111877D01*
X51897508Y-92077661D01*
X51921271Y-92045619D01*
X51948061Y-92016061D01*
X51977619Y-91989271D01*
X52009661Y-91965508D01*
X52043877Y-91944999D01*
X52079939Y-91927943D01*
X52117499Y-91914504D01*
X52156196Y-91904811D01*
X52195656Y-91898957D01*
X52235500Y-91897000D01*
X59524500Y-91897000D01*
X59564344Y-91898957D01*
X59564344Y-91898957D01*
G37*
D20*
X55880000Y-92710000D03*
D18*
G36*
X59564344Y-94438957D02*
G01*
X59603804Y-94444811D01*
X59642501Y-94454504D01*
X59680061Y-94467943D01*
X59716123Y-94484999D01*
X59750339Y-94505508D01*
X59782381Y-94529271D01*
X59811939Y-94556061D01*
X59838729Y-94585619D01*
X59862492Y-94617661D01*
X59883001Y-94651877D01*
X59900057Y-94687939D01*
X59913496Y-94725499D01*
X59923189Y-94764196D01*
X59929043Y-94803656D01*
X59931000Y-94843500D01*
X59931000Y-95656500D01*
X59929043Y-95696344D01*
X59923189Y-95735804D01*
X59913496Y-95774501D01*
X59900057Y-95812061D01*
X59883001Y-95848123D01*
X59862492Y-95882339D01*
X59838729Y-95914381D01*
X59811939Y-95943939D01*
X59782381Y-95970729D01*
X59750339Y-95994492D01*
X59716123Y-96015001D01*
X59680061Y-96032057D01*
X59642501Y-96045496D01*
X59603804Y-96055189D01*
X59564344Y-96061043D01*
X59524500Y-96063000D01*
X52235500Y-96063000D01*
X52195656Y-96061043D01*
X52156196Y-96055189D01*
X52117499Y-96045496D01*
X52079939Y-96032057D01*
X52043877Y-96015001D01*
X52009661Y-95994492D01*
X51977619Y-95970729D01*
X51948061Y-95943939D01*
X51921271Y-95914381D01*
X51897508Y-95882339D01*
X51876999Y-95848123D01*
X51859943Y-95812061D01*
X51846504Y-95774501D01*
X51836811Y-95735804D01*
X51830957Y-95696344D01*
X51829000Y-95656500D01*
X51829000Y-94843500D01*
X51830957Y-94803656D01*
X51836811Y-94764196D01*
X51846504Y-94725499D01*
X51859943Y-94687939D01*
X51876999Y-94651877D01*
X51897508Y-94617661D01*
X51921271Y-94585619D01*
X51948061Y-94556061D01*
X51977619Y-94529271D01*
X52009661Y-94505508D01*
X52043877Y-94484999D01*
X52079939Y-94467943D01*
X52117499Y-94454504D01*
X52156196Y-94444811D01*
X52195656Y-94438957D01*
X52235500Y-94437000D01*
X59524500Y-94437000D01*
X59564344Y-94438957D01*
X59564344Y-94438957D01*
G37*
D20*
X55880000Y-95250000D03*
D18*
G36*
X59564344Y-96978957D02*
G01*
X59603804Y-96984811D01*
X59642501Y-96994504D01*
X59680061Y-97007943D01*
X59716123Y-97024999D01*
X59750339Y-97045508D01*
X59782381Y-97069271D01*
X59811939Y-97096061D01*
X59838729Y-97125619D01*
X59862492Y-97157661D01*
X59883001Y-97191877D01*
X59900057Y-97227939D01*
X59913496Y-97265499D01*
X59923189Y-97304196D01*
X59929043Y-97343656D01*
X59931000Y-97383500D01*
X59931000Y-98196500D01*
X59929043Y-98236344D01*
X59923189Y-98275804D01*
X59913496Y-98314501D01*
X59900057Y-98352061D01*
X59883001Y-98388123D01*
X59862492Y-98422339D01*
X59838729Y-98454381D01*
X59811939Y-98483939D01*
X59782381Y-98510729D01*
X59750339Y-98534492D01*
X59716123Y-98555001D01*
X59680061Y-98572057D01*
X59642501Y-98585496D01*
X59603804Y-98595189D01*
X59564344Y-98601043D01*
X59524500Y-98603000D01*
X52235500Y-98603000D01*
X52195656Y-98601043D01*
X52156196Y-98595189D01*
X52117499Y-98585496D01*
X52079939Y-98572057D01*
X52043877Y-98555001D01*
X52009661Y-98534492D01*
X51977619Y-98510729D01*
X51948061Y-98483939D01*
X51921271Y-98454381D01*
X51897508Y-98422339D01*
X51876999Y-98388123D01*
X51859943Y-98352061D01*
X51846504Y-98314501D01*
X51836811Y-98275804D01*
X51830957Y-98236344D01*
X51829000Y-98196500D01*
X51829000Y-97383500D01*
X51830957Y-97343656D01*
X51836811Y-97304196D01*
X51846504Y-97265499D01*
X51859943Y-97227939D01*
X51876999Y-97191877D01*
X51897508Y-97157661D01*
X51921271Y-97125619D01*
X51948061Y-97096061D01*
X51977619Y-97069271D01*
X52009661Y-97045508D01*
X52043877Y-97024999D01*
X52079939Y-97007943D01*
X52117499Y-96994504D01*
X52156196Y-96984811D01*
X52195656Y-96978957D01*
X52235500Y-96977000D01*
X59524500Y-96977000D01*
X59564344Y-96978957D01*
X59564344Y-96978957D01*
G37*
D20*
X55880000Y-97790000D03*
D18*
G36*
X59564344Y-99518957D02*
G01*
X59603804Y-99524811D01*
X59642501Y-99534504D01*
X59680061Y-99547943D01*
X59716123Y-99564999D01*
X59750339Y-99585508D01*
X59782381Y-99609271D01*
X59811939Y-99636061D01*
X59838729Y-99665619D01*
X59862492Y-99697661D01*
X59883001Y-99731877D01*
X59900057Y-99767939D01*
X59913496Y-99805499D01*
X59923189Y-99844196D01*
X59929043Y-99883656D01*
X59931000Y-99923500D01*
X59931000Y-100736500D01*
X59929043Y-100776344D01*
X59923189Y-100815804D01*
X59913496Y-100854501D01*
X59900057Y-100892061D01*
X59883001Y-100928123D01*
X59862492Y-100962339D01*
X59838729Y-100994381D01*
X59811939Y-101023939D01*
X59782381Y-101050729D01*
X59750339Y-101074492D01*
X59716123Y-101095001D01*
X59680061Y-101112057D01*
X59642501Y-101125496D01*
X59603804Y-101135189D01*
X59564344Y-101141043D01*
X59524500Y-101143000D01*
X52235500Y-101143000D01*
X52195656Y-101141043D01*
X52156196Y-101135189D01*
X52117499Y-101125496D01*
X52079939Y-101112057D01*
X52043877Y-101095001D01*
X52009661Y-101074492D01*
X51977619Y-101050729D01*
X51948061Y-101023939D01*
X51921271Y-100994381D01*
X51897508Y-100962339D01*
X51876999Y-100928123D01*
X51859943Y-100892061D01*
X51846504Y-100854501D01*
X51836811Y-100815804D01*
X51830957Y-100776344D01*
X51829000Y-100736500D01*
X51829000Y-99923500D01*
X51830957Y-99883656D01*
X51836811Y-99844196D01*
X51846504Y-99805499D01*
X51859943Y-99767939D01*
X51876999Y-99731877D01*
X51897508Y-99697661D01*
X51921271Y-99665619D01*
X51948061Y-99636061D01*
X51977619Y-99609271D01*
X52009661Y-99585508D01*
X52043877Y-99564999D01*
X52079939Y-99547943D01*
X52117499Y-99534504D01*
X52156196Y-99524811D01*
X52195656Y-99518957D01*
X52235500Y-99517000D01*
X59524500Y-99517000D01*
X59564344Y-99518957D01*
X59564344Y-99518957D01*
G37*
D20*
X55880000Y-100330000D03*
D18*
G36*
X59564344Y-102058957D02*
G01*
X59603804Y-102064811D01*
X59642501Y-102074504D01*
X59680061Y-102087943D01*
X59716123Y-102104999D01*
X59750339Y-102125508D01*
X59782381Y-102149271D01*
X59811939Y-102176061D01*
X59838729Y-102205619D01*
X59862492Y-102237661D01*
X59883001Y-102271877D01*
X59900057Y-102307939D01*
X59913496Y-102345499D01*
X59923189Y-102384196D01*
X59929043Y-102423656D01*
X59931000Y-102463500D01*
X59931000Y-103276500D01*
X59929043Y-103316344D01*
X59923189Y-103355804D01*
X59913496Y-103394501D01*
X59900057Y-103432061D01*
X59883001Y-103468123D01*
X59862492Y-103502339D01*
X59838729Y-103534381D01*
X59811939Y-103563939D01*
X59782381Y-103590729D01*
X59750339Y-103614492D01*
X59716123Y-103635001D01*
X59680061Y-103652057D01*
X59642501Y-103665496D01*
X59603804Y-103675189D01*
X59564344Y-103681043D01*
X59524500Y-103683000D01*
X52235500Y-103683000D01*
X52195656Y-103681043D01*
X52156196Y-103675189D01*
X52117499Y-103665496D01*
X52079939Y-103652057D01*
X52043877Y-103635001D01*
X52009661Y-103614492D01*
X51977619Y-103590729D01*
X51948061Y-103563939D01*
X51921271Y-103534381D01*
X51897508Y-103502339D01*
X51876999Y-103468123D01*
X51859943Y-103432061D01*
X51846504Y-103394501D01*
X51836811Y-103355804D01*
X51830957Y-103316344D01*
X51829000Y-103276500D01*
X51829000Y-102463500D01*
X51830957Y-102423656D01*
X51836811Y-102384196D01*
X51846504Y-102345499D01*
X51859943Y-102307939D01*
X51876999Y-102271877D01*
X51897508Y-102237661D01*
X51921271Y-102205619D01*
X51948061Y-102176061D01*
X51977619Y-102149271D01*
X52009661Y-102125508D01*
X52043877Y-102104999D01*
X52079939Y-102087943D01*
X52117499Y-102074504D01*
X52156196Y-102064811D01*
X52195656Y-102058957D01*
X52235500Y-102057000D01*
X59524500Y-102057000D01*
X59564344Y-102058957D01*
X59564344Y-102058957D01*
G37*
D20*
X55880000Y-102870000D03*
D18*
G36*
X59564344Y-104598957D02*
G01*
X59603804Y-104604811D01*
X59642501Y-104614504D01*
X59680061Y-104627943D01*
X59716123Y-104644999D01*
X59750339Y-104665508D01*
X59782381Y-104689271D01*
X59811939Y-104716061D01*
X59838729Y-104745619D01*
X59862492Y-104777661D01*
X59883001Y-104811877D01*
X59900057Y-104847939D01*
X59913496Y-104885499D01*
X59923189Y-104924196D01*
X59929043Y-104963656D01*
X59931000Y-105003500D01*
X59931000Y-105816500D01*
X59929043Y-105856344D01*
X59923189Y-105895804D01*
X59913496Y-105934501D01*
X59900057Y-105972061D01*
X59883001Y-106008123D01*
X59862492Y-106042339D01*
X59838729Y-106074381D01*
X59811939Y-106103939D01*
X59782381Y-106130729D01*
X59750339Y-106154492D01*
X59716123Y-106175001D01*
X59680061Y-106192057D01*
X59642501Y-106205496D01*
X59603804Y-106215189D01*
X59564344Y-106221043D01*
X59524500Y-106223000D01*
X52235500Y-106223000D01*
X52195656Y-106221043D01*
X52156196Y-106215189D01*
X52117499Y-106205496D01*
X52079939Y-106192057D01*
X52043877Y-106175001D01*
X52009661Y-106154492D01*
X51977619Y-106130729D01*
X51948061Y-106103939D01*
X51921271Y-106074381D01*
X51897508Y-106042339D01*
X51876999Y-106008123D01*
X51859943Y-105972061D01*
X51846504Y-105934501D01*
X51836811Y-105895804D01*
X51830957Y-105856344D01*
X51829000Y-105816500D01*
X51829000Y-105003500D01*
X51830957Y-104963656D01*
X51836811Y-104924196D01*
X51846504Y-104885499D01*
X51859943Y-104847939D01*
X51876999Y-104811877D01*
X51897508Y-104777661D01*
X51921271Y-104745619D01*
X51948061Y-104716061D01*
X51977619Y-104689271D01*
X52009661Y-104665508D01*
X52043877Y-104644999D01*
X52079939Y-104627943D01*
X52117499Y-104614504D01*
X52156196Y-104604811D01*
X52195656Y-104598957D01*
X52235500Y-104597000D01*
X59524500Y-104597000D01*
X59564344Y-104598957D01*
X59564344Y-104598957D01*
G37*
D20*
X55880000Y-105410000D03*
D18*
G36*
X59564344Y-107138957D02*
G01*
X59603804Y-107144811D01*
X59642501Y-107154504D01*
X59680061Y-107167943D01*
X59716123Y-107184999D01*
X59750339Y-107205508D01*
X59782381Y-107229271D01*
X59811939Y-107256061D01*
X59838729Y-107285619D01*
X59862492Y-107317661D01*
X59883001Y-107351877D01*
X59900057Y-107387939D01*
X59913496Y-107425499D01*
X59923189Y-107464196D01*
X59929043Y-107503656D01*
X59931000Y-107543500D01*
X59931000Y-108356500D01*
X59929043Y-108396344D01*
X59923189Y-108435804D01*
X59913496Y-108474501D01*
X59900057Y-108512061D01*
X59883001Y-108548123D01*
X59862492Y-108582339D01*
X59838729Y-108614381D01*
X59811939Y-108643939D01*
X59782381Y-108670729D01*
X59750339Y-108694492D01*
X59716123Y-108715001D01*
X59680061Y-108732057D01*
X59642501Y-108745496D01*
X59603804Y-108755189D01*
X59564344Y-108761043D01*
X59524500Y-108763000D01*
X52235500Y-108763000D01*
X52195656Y-108761043D01*
X52156196Y-108755189D01*
X52117499Y-108745496D01*
X52079939Y-108732057D01*
X52043877Y-108715001D01*
X52009661Y-108694492D01*
X51977619Y-108670729D01*
X51948061Y-108643939D01*
X51921271Y-108614381D01*
X51897508Y-108582339D01*
X51876999Y-108548123D01*
X51859943Y-108512061D01*
X51846504Y-108474501D01*
X51836811Y-108435804D01*
X51830957Y-108396344D01*
X51829000Y-108356500D01*
X51829000Y-107543500D01*
X51830957Y-107503656D01*
X51836811Y-107464196D01*
X51846504Y-107425499D01*
X51859943Y-107387939D01*
X51876999Y-107351877D01*
X51897508Y-107317661D01*
X51921271Y-107285619D01*
X51948061Y-107256061D01*
X51977619Y-107229271D01*
X52009661Y-107205508D01*
X52043877Y-107184999D01*
X52079939Y-107167943D01*
X52117499Y-107154504D01*
X52156196Y-107144811D01*
X52195656Y-107138957D01*
X52235500Y-107137000D01*
X59524500Y-107137000D01*
X59564344Y-107138957D01*
X59564344Y-107138957D01*
G37*
D20*
X55880000Y-107950000D03*
D18*
G36*
X59564344Y-109678957D02*
G01*
X59603804Y-109684811D01*
X59642501Y-109694504D01*
X59680061Y-109707943D01*
X59716123Y-109724999D01*
X59750339Y-109745508D01*
X59782381Y-109769271D01*
X59811939Y-109796061D01*
X59838729Y-109825619D01*
X59862492Y-109857661D01*
X59883001Y-109891877D01*
X59900057Y-109927939D01*
X59913496Y-109965499D01*
X59923189Y-110004196D01*
X59929043Y-110043656D01*
X59931000Y-110083500D01*
X59931000Y-110896500D01*
X59929043Y-110936344D01*
X59923189Y-110975804D01*
X59913496Y-111014501D01*
X59900057Y-111052061D01*
X59883001Y-111088123D01*
X59862492Y-111122339D01*
X59838729Y-111154381D01*
X59811939Y-111183939D01*
X59782381Y-111210729D01*
X59750339Y-111234492D01*
X59716123Y-111255001D01*
X59680061Y-111272057D01*
X59642501Y-111285496D01*
X59603804Y-111295189D01*
X59564344Y-111301043D01*
X59524500Y-111303000D01*
X52235500Y-111303000D01*
X52195656Y-111301043D01*
X52156196Y-111295189D01*
X52117499Y-111285496D01*
X52079939Y-111272057D01*
X52043877Y-111255001D01*
X52009661Y-111234492D01*
X51977619Y-111210729D01*
X51948061Y-111183939D01*
X51921271Y-111154381D01*
X51897508Y-111122339D01*
X51876999Y-111088123D01*
X51859943Y-111052061D01*
X51846504Y-111014501D01*
X51836811Y-110975804D01*
X51830957Y-110936344D01*
X51829000Y-110896500D01*
X51829000Y-110083500D01*
X51830957Y-110043656D01*
X51836811Y-110004196D01*
X51846504Y-109965499D01*
X51859943Y-109927939D01*
X51876999Y-109891877D01*
X51897508Y-109857661D01*
X51921271Y-109825619D01*
X51948061Y-109796061D01*
X51977619Y-109769271D01*
X52009661Y-109745508D01*
X52043877Y-109724999D01*
X52079939Y-109707943D01*
X52117499Y-109694504D01*
X52156196Y-109684811D01*
X52195656Y-109678957D01*
X52235500Y-109677000D01*
X59524500Y-109677000D01*
X59564344Y-109678957D01*
X59564344Y-109678957D01*
G37*
D20*
X55880000Y-110490000D03*
D18*
G36*
X59564344Y-112218957D02*
G01*
X59603804Y-112224811D01*
X59642501Y-112234504D01*
X59680061Y-112247943D01*
X59716123Y-112264999D01*
X59750339Y-112285508D01*
X59782381Y-112309271D01*
X59811939Y-112336061D01*
X59838729Y-112365619D01*
X59862492Y-112397661D01*
X59883001Y-112431877D01*
X59900057Y-112467939D01*
X59913496Y-112505499D01*
X59923189Y-112544196D01*
X59929043Y-112583656D01*
X59931000Y-112623500D01*
X59931000Y-113436500D01*
X59929043Y-113476344D01*
X59923189Y-113515804D01*
X59913496Y-113554501D01*
X59900057Y-113592061D01*
X59883001Y-113628123D01*
X59862492Y-113662339D01*
X59838729Y-113694381D01*
X59811939Y-113723939D01*
X59782381Y-113750729D01*
X59750339Y-113774492D01*
X59716123Y-113795001D01*
X59680061Y-113812057D01*
X59642501Y-113825496D01*
X59603804Y-113835189D01*
X59564344Y-113841043D01*
X59524500Y-113843000D01*
X52235500Y-113843000D01*
X52195656Y-113841043D01*
X52156196Y-113835189D01*
X52117499Y-113825496D01*
X52079939Y-113812057D01*
X52043877Y-113795001D01*
X52009661Y-113774492D01*
X51977619Y-113750729D01*
X51948061Y-113723939D01*
X51921271Y-113694381D01*
X51897508Y-113662339D01*
X51876999Y-113628123D01*
X51859943Y-113592061D01*
X51846504Y-113554501D01*
X51836811Y-113515804D01*
X51830957Y-113476344D01*
X51829000Y-113436500D01*
X51829000Y-112623500D01*
X51830957Y-112583656D01*
X51836811Y-112544196D01*
X51846504Y-112505499D01*
X51859943Y-112467939D01*
X51876999Y-112431877D01*
X51897508Y-112397661D01*
X51921271Y-112365619D01*
X51948061Y-112336061D01*
X51977619Y-112309271D01*
X52009661Y-112285508D01*
X52043877Y-112264999D01*
X52079939Y-112247943D01*
X52117499Y-112234504D01*
X52156196Y-112224811D01*
X52195656Y-112218957D01*
X52235500Y-112217000D01*
X59524500Y-112217000D01*
X59564344Y-112218957D01*
X59564344Y-112218957D01*
G37*
D20*
X55880000Y-113030000D03*
D18*
G36*
X59564344Y-117298957D02*
G01*
X59603804Y-117304811D01*
X59642501Y-117314504D01*
X59680061Y-117327943D01*
X59716123Y-117344999D01*
X59750339Y-117365508D01*
X59782381Y-117389271D01*
X59811939Y-117416061D01*
X59838729Y-117445619D01*
X59862492Y-117477661D01*
X59883001Y-117511877D01*
X59900057Y-117547939D01*
X59913496Y-117585499D01*
X59923189Y-117624196D01*
X59929043Y-117663656D01*
X59931000Y-117703500D01*
X59931000Y-118516500D01*
X59929043Y-118556344D01*
X59923189Y-118595804D01*
X59913496Y-118634501D01*
X59900057Y-118672061D01*
X59883001Y-118708123D01*
X59862492Y-118742339D01*
X59838729Y-118774381D01*
X59811939Y-118803939D01*
X59782381Y-118830729D01*
X59750339Y-118854492D01*
X59716123Y-118875001D01*
X59680061Y-118892057D01*
X59642501Y-118905496D01*
X59603804Y-118915189D01*
X59564344Y-118921043D01*
X59524500Y-118923000D01*
X52235500Y-118923000D01*
X52195656Y-118921043D01*
X52156196Y-118915189D01*
X52117499Y-118905496D01*
X52079939Y-118892057D01*
X52043877Y-118875001D01*
X52009661Y-118854492D01*
X51977619Y-118830729D01*
X51948061Y-118803939D01*
X51921271Y-118774381D01*
X51897508Y-118742339D01*
X51876999Y-118708123D01*
X51859943Y-118672061D01*
X51846504Y-118634501D01*
X51836811Y-118595804D01*
X51830957Y-118556344D01*
X51829000Y-118516500D01*
X51829000Y-117703500D01*
X51830957Y-117663656D01*
X51836811Y-117624196D01*
X51846504Y-117585499D01*
X51859943Y-117547939D01*
X51876999Y-117511877D01*
X51897508Y-117477661D01*
X51921271Y-117445619D01*
X51948061Y-117416061D01*
X51977619Y-117389271D01*
X52009661Y-117365508D01*
X52043877Y-117344999D01*
X52079939Y-117327943D01*
X52117499Y-117314504D01*
X52156196Y-117304811D01*
X52195656Y-117298957D01*
X52235500Y-117297000D01*
X59524500Y-117297000D01*
X59564344Y-117298957D01*
X59564344Y-117298957D01*
G37*
D20*
X55880000Y-118110000D03*
D18*
G36*
X59564344Y-119838957D02*
G01*
X59603804Y-119844811D01*
X59642501Y-119854504D01*
X59680061Y-119867943D01*
X59716123Y-119884999D01*
X59750339Y-119905508D01*
X59782381Y-119929271D01*
X59811939Y-119956061D01*
X59838729Y-119985619D01*
X59862492Y-120017661D01*
X59883001Y-120051877D01*
X59900057Y-120087939D01*
X59913496Y-120125499D01*
X59923189Y-120164196D01*
X59929043Y-120203656D01*
X59931000Y-120243500D01*
X59931000Y-121056500D01*
X59929043Y-121096344D01*
X59923189Y-121135804D01*
X59913496Y-121174501D01*
X59900057Y-121212061D01*
X59883001Y-121248123D01*
X59862492Y-121282339D01*
X59838729Y-121314381D01*
X59811939Y-121343939D01*
X59782381Y-121370729D01*
X59750339Y-121394492D01*
X59716123Y-121415001D01*
X59680061Y-121432057D01*
X59642501Y-121445496D01*
X59603804Y-121455189D01*
X59564344Y-121461043D01*
X59524500Y-121463000D01*
X52235500Y-121463000D01*
X52195656Y-121461043D01*
X52156196Y-121455189D01*
X52117499Y-121445496D01*
X52079939Y-121432057D01*
X52043877Y-121415001D01*
X52009661Y-121394492D01*
X51977619Y-121370729D01*
X51948061Y-121343939D01*
X51921271Y-121314381D01*
X51897508Y-121282339D01*
X51876999Y-121248123D01*
X51859943Y-121212061D01*
X51846504Y-121174501D01*
X51836811Y-121135804D01*
X51830957Y-121096344D01*
X51829000Y-121056500D01*
X51829000Y-120243500D01*
X51830957Y-120203656D01*
X51836811Y-120164196D01*
X51846504Y-120125499D01*
X51859943Y-120087939D01*
X51876999Y-120051877D01*
X51897508Y-120017661D01*
X51921271Y-119985619D01*
X51948061Y-119956061D01*
X51977619Y-119929271D01*
X52009661Y-119905508D01*
X52043877Y-119884999D01*
X52079939Y-119867943D01*
X52117499Y-119854504D01*
X52156196Y-119844811D01*
X52195656Y-119838957D01*
X52235500Y-119837000D01*
X59524500Y-119837000D01*
X59564344Y-119838957D01*
X59564344Y-119838957D01*
G37*
D20*
X55880000Y-120650000D03*
D21*
X116840000Y-105410000D03*
X109220000Y-123190000D03*
X116840000Y-107950000D03*
X109220000Y-120650000D03*
X116840000Y-110490000D03*
X109220000Y-118110000D03*
X116840000Y-113030000D03*
X109220000Y-115570000D03*
X116840000Y-115570000D03*
X109220000Y-113030000D03*
X116840000Y-118110000D03*
X109220000Y-110490000D03*
X116840000Y-120650000D03*
X109220000Y-107950000D03*
X116840000Y-123190000D03*
D22*
X109220000Y-105410000D03*
D23*
X138430000Y-80010000D03*
X138430000Y-77470000D03*
X140970000Y-80010000D03*
X140970000Y-77470000D03*
X143510000Y-80010000D03*
X143510000Y-77470000D03*
X146050000Y-80010000D03*
X146050000Y-77470000D03*
X148590000Y-80010000D03*
X148590000Y-77470000D03*
X151130000Y-80010000D03*
X151130000Y-77470000D03*
X153670000Y-80010000D03*
X153670000Y-77470000D03*
X156210000Y-80010000D03*
D24*
X156210000Y-77470000D03*
D25*
X126920000Y-101600000D03*
X121920000Y-101600000D03*
D26*
X68580000Y-82550000D03*
X83820000Y-82550000D03*
X68580000Y-85090000D03*
X83820000Y-85090000D03*
X68580000Y-87630000D03*
X83820000Y-87630000D03*
X68580000Y-90170000D03*
X83820000Y-90170000D03*
X68580000Y-92710000D03*
X83820000Y-92710000D03*
X68580000Y-95250000D03*
X83820000Y-95250000D03*
X68580000Y-97790000D03*
X83820000Y-97790000D03*
X68580000Y-100330000D03*
X83820000Y-100330000D03*
X68580000Y-102870000D03*
X83820000Y-102870000D03*
X68580000Y-105410000D03*
X83820000Y-105410000D03*
X68580000Y-107950000D03*
X83820000Y-107950000D03*
X68580000Y-110490000D03*
X83820000Y-110490000D03*
X68580000Y-113030000D03*
X83820000Y-113030000D03*
X68580000Y-115570000D03*
D27*
X83820000Y-115570000D03*
D21*
X116840000Y-77470000D03*
X109220000Y-100330000D03*
X116840000Y-80010000D03*
X109220000Y-97790000D03*
X116840000Y-82550000D03*
X109220000Y-95250000D03*
X116840000Y-85090000D03*
X109220000Y-92710000D03*
X116840000Y-87630000D03*
X109220000Y-90170000D03*
X116840000Y-90170000D03*
X109220000Y-87630000D03*
X116840000Y-92710000D03*
X109220000Y-85090000D03*
X116840000Y-95250000D03*
X109220000Y-82550000D03*
X116840000Y-97790000D03*
X109220000Y-80010000D03*
X116840000Y-100330000D03*
D22*
X109220000Y-77470000D03*
D21*
X128270000Y-105410000D03*
X120650000Y-123190000D03*
X128270000Y-107950000D03*
X120650000Y-120650000D03*
X128270000Y-110490000D03*
X120650000Y-118110000D03*
X128270000Y-113030000D03*
X120650000Y-115570000D03*
X128270000Y-115570000D03*
X120650000Y-113030000D03*
X128270000Y-118110000D03*
X120650000Y-110490000D03*
X128270000Y-120650000D03*
X120650000Y-107950000D03*
X128270000Y-123190000D03*
D22*
X120650000Y-105410000D03*
D21*
X128270000Y-80010000D03*
X120650000Y-97790000D03*
X128270000Y-82550000D03*
X120650000Y-95250000D03*
X128270000Y-85090000D03*
X120650000Y-92710000D03*
X128270000Y-87630000D03*
X120650000Y-90170000D03*
X128270000Y-90170000D03*
X120650000Y-87630000D03*
X128270000Y-92710000D03*
X120650000Y-85090000D03*
X128270000Y-95250000D03*
X120650000Y-82550000D03*
X128270000Y-97790000D03*
D22*
X120650000Y-80010000D03*
D21*
X90170000Y-115570000D03*
X105410000Y-82550000D03*
X90170000Y-113030000D03*
X105410000Y-85090000D03*
X90170000Y-110490000D03*
X105410000Y-87630000D03*
X90170000Y-107950000D03*
X105410000Y-90170000D03*
X90170000Y-105410000D03*
X105410000Y-92710000D03*
X90170000Y-102870000D03*
X105410000Y-95250000D03*
X90170000Y-100330000D03*
X105410000Y-97790000D03*
X90170000Y-97790000D03*
X105410000Y-100330000D03*
X90170000Y-95250000D03*
X105410000Y-102870000D03*
X90170000Y-92710000D03*
X105410000Y-105410000D03*
X90170000Y-90170000D03*
X105410000Y-107950000D03*
X90170000Y-87630000D03*
X105410000Y-110490000D03*
X90170000Y-85090000D03*
X105410000Y-113030000D03*
X90170000Y-82550000D03*
D22*
X105410000Y-115570000D03*
M02*
