M48
; DRILL file {KiCad (5.1.2-1)-1} date domingo, 30 de julio de 2023, 19:28:51
; FORMAT={-:-/ absolute / metric / decimal}
; #@! TF.CreationDate,2023-07-30T19:28:51+02:00
; #@! TF.GenerationSoftware,Kicad,Pcbnew,(5.1.2-1)-1
; #@! TF.FileFunction,Plated,1,2,PTH
FMAT,2
METRIC
T1C0.400
T2C0.800
T3C1.000
%
G90
G05
T1
X65.405Y-77.47
X66.04Y-111.76
X66.04Y-125.095
X71.1Y-118.09
X91.44Y-119.38
X91.985Y-99.06
X92.71Y-104.14
X93.98Y-96.52
X94.615Y-93.98
X95.25Y-91.44
X95.885Y-88.9
X96.52Y-86.36
X102.87Y-111.76
X107.315Y-93.98
X107.315Y-118.02
X111.76Y-106.68
X111.76Y-114.3
X114.935Y-116.84
X118.11Y-102.235
X122.555Y-125.095
X125.095Y-102.87
X125.73Y-110.49
X130.81Y-96.52
X130.81Y-99.06
X130.81Y-100.33
X130.81Y-109.22
X130.81Y-111.76
X146.05Y-83.185
T2
X120.65Y-105.41
X120.65Y-107.95
X120.65Y-110.49
X120.65Y-113.03
X120.65Y-115.57
X120.65Y-118.11
X120.65Y-120.65
X120.65Y-123.19
X128.27Y-105.41
X128.27Y-107.95
X128.27Y-110.49
X128.27Y-113.03
X128.27Y-115.57
X128.27Y-118.11
X128.27Y-120.65
X128.27Y-123.19
X109.22Y-105.41
X109.22Y-107.95
X109.22Y-110.49
X109.22Y-113.03
X109.22Y-115.57
X109.22Y-118.11
X109.22Y-120.65
X109.22Y-123.19
X116.84Y-105.41
X116.84Y-107.95
X116.84Y-110.49
X116.84Y-113.03
X116.84Y-115.57
X116.84Y-118.11
X116.84Y-120.65
X116.84Y-123.19
X121.92Y-101.6
X126.92Y-101.6
X90.17Y-82.55
X90.17Y-85.09
X90.17Y-87.63
X90.17Y-90.17
X90.17Y-92.71
X90.17Y-95.25
X90.17Y-97.79
X90.17Y-100.33
X90.17Y-102.87
X90.17Y-105.41
X90.17Y-107.95
X90.17Y-110.49
X90.17Y-113.03
X90.17Y-115.57
X105.41Y-82.55
X105.41Y-85.09
X105.41Y-87.63
X105.41Y-90.17
X105.41Y-92.71
X105.41Y-95.25
X105.41Y-97.79
X105.41Y-100.33
X105.41Y-102.87
X105.41Y-105.41
X105.41Y-107.95
X105.41Y-110.49
X105.41Y-113.03
X105.41Y-115.57
X120.65Y-80.01
X120.65Y-82.55
X120.65Y-85.09
X120.65Y-87.63
X120.65Y-90.17
X120.65Y-92.71
X120.65Y-95.25
X120.65Y-97.79
X128.27Y-80.01
X128.27Y-82.55
X128.27Y-85.09
X128.27Y-87.63
X128.27Y-90.17
X128.27Y-92.71
X128.27Y-95.25
X128.27Y-97.79
X109.22Y-77.47
X109.22Y-80.01
X109.22Y-82.55
X109.22Y-85.09
X109.22Y-87.63
X109.22Y-90.17
X109.22Y-92.71
X109.22Y-95.25
X109.22Y-97.79
X109.22Y-100.33
X116.84Y-77.47
X116.84Y-80.01
X116.84Y-82.55
X116.84Y-85.09
X116.84Y-87.63
X116.84Y-90.17
X116.84Y-92.71
X116.84Y-95.25
X116.84Y-97.79
X116.84Y-100.33
T3
X138.43Y-77.47
X138.43Y-80.01
X140.97Y-77.47
X140.97Y-80.01
X143.51Y-77.47
X143.51Y-80.01
X146.05Y-77.47
X146.05Y-80.01
X148.59Y-77.47
X148.59Y-80.01
X151.13Y-77.47
X151.13Y-80.01
X153.67Y-77.47
X153.67Y-80.01
X156.21Y-77.47
X156.21Y-80.01
X68.58Y-82.55
X68.58Y-85.09
X68.58Y-87.63
X68.58Y-90.17
X68.58Y-92.71
X68.58Y-95.25
X68.58Y-97.79
X68.58Y-100.33
X68.58Y-102.87
X68.58Y-105.41
X68.58Y-107.95
X68.58Y-110.49
X68.58Y-113.03
X68.58Y-115.57
X83.82Y-82.55
X83.82Y-85.09
X83.82Y-87.63
X83.82Y-90.17
X83.82Y-92.71
X83.82Y-95.25
X83.82Y-97.79
X83.82Y-100.33
X83.82Y-102.87
X83.82Y-105.41
X83.82Y-107.95
X83.82Y-110.49
X83.82Y-113.03
X83.82Y-115.57
T0
M30
