M48
; DRILL file {KiCad (5.1.2-1)-1} date domingo, 30 de julio de 2023, 19:24:18
; FORMAT={-:-/ absolute / metric / decimal}
; #@! TF.CreationDate,2023-07-30T19:24:18+02:00
; #@! TF.GenerationSoftware,Kicad,Pcbnew,(5.1.2-1)-1
; #@! TF.FileFunction,Plated,1,2,PTH
FMAT,2
METRIC
T1C0.400
T2C0.600
T3C0.800
T4C1.000
%
G90
G05
T1
X34.925Y-26.125
X34.925Y-29.12
X34.925Y-31.115
X34.925Y-33.745
X34.925Y-36.195
X34.925Y-38.825
X34.925Y-41.365
X34.925Y-43.815
X34.925Y-46.445
X34.925Y-48.895
X34.925Y-51.525
X34.925Y-54.065
X34.925Y-56.515
X34.925Y-59.145
X34.925Y-61.595
X34.925Y-66.765
X34.925Y-69.215
X35.98Y-26.863
X36.195Y-52.25
X36.83Y-27.94
X36.83Y-39.55
X39.37Y-40.55
X39.37Y-46.45
X40.55Y-38.825
X40.64Y-34.835
X41.91Y-47.535
X43.18Y-33.02
X44.45Y-29.39
X44.45Y-39.55
X44.45Y-66.765
X45.72Y-46.9
X45.72Y-52.25
X46.99Y-60.11
X47.08Y-28.79
X48.26Y-26.49
X48.26Y-52.25
X49.53Y-29.935
X51.875Y-34.73
X52.07Y-33.745
X52.07Y-39.55
X54.065Y-34.47
X55.245Y-50.8
X55.88Y-26.035
X55.88Y-52.25
X57.06Y-35.56
X57.15Y-26.49
X57.695Y-38.1
X57.785Y-39.55
X58.42Y-40.55
X58.42Y-46.9
X58.42Y-57.15
X58.42Y-64.77
X59.69Y-27.94
X59.69Y-41.185
X60.96Y-34.835
X60.96Y-44.45
X60.96Y-66.04
X62.955Y-43.905
X63.5Y-63.5
X63.805Y-38.1
X64.135Y-41.91
T2
X59.46Y-36.83
X60.96Y-36.83
T3
X58.42Y-49.53
X60.96Y-49.53
X36.83Y-62.23
X36.83Y-69.85
X39.37Y-62.23
X39.37Y-69.85
X41.91Y-62.23
X41.91Y-69.85
X44.45Y-62.23
X44.45Y-69.85
X46.99Y-62.23
X46.99Y-69.85
X49.53Y-62.23
X49.53Y-69.85
X52.07Y-62.23
X52.07Y-69.85
X54.61Y-62.23
X54.61Y-69.85
X38.1Y-49.53
X38.1Y-57.15
X40.64Y-49.53
X40.64Y-57.15
X43.18Y-49.53
X43.18Y-57.15
X45.72Y-49.53
X45.72Y-57.15
X48.26Y-49.53
X48.26Y-57.15
X50.8Y-49.53
X50.8Y-57.15
X53.34Y-49.53
X53.34Y-57.15
X36.83Y-36.83
X36.83Y-44.45
X39.37Y-36.83
X39.37Y-44.45
X41.91Y-36.83
X41.91Y-44.45
X44.45Y-36.83
X44.45Y-44.45
X46.99Y-36.83
X46.99Y-44.45
X49.53Y-36.83
X49.53Y-44.45
X52.07Y-36.83
X52.07Y-44.45
X54.61Y-36.83
X54.61Y-44.45
X36.83Y-24.13
X36.83Y-31.75
X39.37Y-24.13
X39.37Y-31.75
X41.91Y-24.13
X41.91Y-31.75
X44.45Y-24.13
X44.45Y-31.75
X46.99Y-24.13
X46.99Y-31.75
X49.53Y-24.13
X49.53Y-31.75
X52.07Y-24.13
X52.07Y-31.75
X54.61Y-24.13
X54.61Y-31.75
X57.15Y-24.13
X57.15Y-31.75
X59.69Y-24.13
X59.69Y-31.75
X58.42Y-69.85
X60.96Y-69.85
X58.42Y-62.23
X60.96Y-62.23
T4
X66.04Y-25.4
X66.04Y-27.94
X66.04Y-30.48
X66.04Y-33.02
X66.04Y-35.56
X66.04Y-38.1
X66.04Y-40.64
X66.04Y-43.18
X66.04Y-45.72
X66.04Y-48.26
X66.04Y-50.8
X66.04Y-53.34
X66.04Y-55.88
X66.04Y-58.42
X66.04Y-60.96
X66.04Y-63.5
X66.04Y-66.04
X66.04Y-68.58
X71.12Y-25.4
X71.12Y-27.94
X71.12Y-30.48
X71.12Y-33.02
X71.12Y-35.56
X71.12Y-38.1
X71.12Y-40.64
X71.12Y-43.18
X71.12Y-45.72
X71.12Y-48.26
X71.12Y-50.8
X71.12Y-53.34
X71.12Y-55.88
X71.12Y-58.42
X71.12Y-60.96
X71.12Y-63.5
X71.12Y-66.04
X71.12Y-68.58
T0
M30
