%FSLAX45Y45*%
G04 Gerber Fmt 4.5, Leading zero omitted, Abs format (unit mm)*
G04 Created by KiCad (PCBNEW (5.1.2-1)-1) date 2023-07-30 19:24:19*
%MOMM*%
%LPD*%
G04 APERTURE LIST*
%ADD10C,0.050000*%
%ADD11C,0.200000*%
%ADD12C,0.300000*%
G04 APERTURE END LIST*
D10*
X2540000Y-6540500D02*
G75*
G02X2603500Y-6477000I63500J0D01*
G01*
X3302000Y-6413500D02*
G75*
G02X3238500Y-6477000I-63500J0D01*
G01*
X3238500Y-6223000D02*
G75*
G02X3302000Y-6286500I0J-63500D01*
G01*
X2603500Y-6223000D02*
G75*
G02X2540000Y-6159500I0J63500D01*
G01*
X3556000Y-2159000D02*
G75*
G02X3429000Y-2286000I-127000J0D01*
G01*
X3556000Y-2159000D02*
G75*
G02X3683000Y-2032000I127000J0D01*
G01*
X7239000Y-2032000D02*
G75*
G02X7366000Y-2159000I0J-127000D01*
G01*
X7366000Y-7239000D02*
G75*
G02X7239000Y-7366000I-127000J0D01*
G01*
X3683000Y-7366000D02*
G75*
G02X3556000Y-7239000I0J127000D01*
G01*
X3429000Y-7112000D02*
G75*
G02X3556000Y-7239000I0J-127000D01*
G01*
X2667000Y-7112000D02*
G75*
G02X2540000Y-6985000I0J127000D01*
G01*
X2540000Y-2413000D02*
G75*
G02X2667000Y-2286000I127000J0D01*
G01*
X2540000Y-6159500D02*
X2540000Y-2413000D01*
X3238500Y-6223000D02*
X2603500Y-6223000D01*
X3302000Y-6413500D02*
X3302000Y-6286500D01*
X2603500Y-6477000D02*
X3238500Y-6477000D01*
X2540000Y-6985000D02*
X2540000Y-6540500D01*
X3429000Y-7112000D02*
X2667000Y-7112000D01*
X7239000Y-7366000D02*
X3683000Y-7366000D01*
X7366000Y-2159000D02*
X7366000Y-7239000D01*
X3683000Y-2032000D02*
X7239000Y-2032000D01*
X2667000Y-2286000D02*
X3429000Y-2286000D01*
D11*
D12*
X2823928Y-7834214D02*
X2823928Y-7534214D01*
X2895357Y-7534214D01*
X2938214Y-7548500D01*
X2966786Y-7577071D01*
X2981071Y-7605643D01*
X2995357Y-7662786D01*
X2995357Y-7705643D01*
X2981071Y-7762786D01*
X2966786Y-7791357D01*
X2938214Y-7819929D01*
X2895357Y-7834214D01*
X2823928Y-7834214D01*
X3123928Y-7834214D02*
X3123928Y-7634214D01*
X3123928Y-7691357D02*
X3138214Y-7662786D01*
X3152500Y-7648500D01*
X3181071Y-7634214D01*
X3209643Y-7634214D01*
X3309643Y-7834214D02*
X3309643Y-7634214D01*
X3309643Y-7534214D02*
X3295357Y-7548500D01*
X3309643Y-7562786D01*
X3323928Y-7548500D01*
X3309643Y-7534214D01*
X3309643Y-7562786D01*
X3495357Y-7834214D02*
X3466786Y-7819929D01*
X3452500Y-7791357D01*
X3452500Y-7534214D01*
X3652500Y-7834214D02*
X3623928Y-7819929D01*
X3609643Y-7791357D01*
X3609643Y-7534214D01*
X3995357Y-7834214D02*
X3995357Y-7534214D01*
X4095357Y-7748500D01*
X4195357Y-7534214D01*
X4195357Y-7834214D01*
X4466786Y-7834214D02*
X4466786Y-7677071D01*
X4452500Y-7648500D01*
X4423928Y-7634214D01*
X4366786Y-7634214D01*
X4338214Y-7648500D01*
X4466786Y-7819929D02*
X4438214Y-7834214D01*
X4366786Y-7834214D01*
X4338214Y-7819929D01*
X4323928Y-7791357D01*
X4323928Y-7762786D01*
X4338214Y-7734214D01*
X4366786Y-7719929D01*
X4438214Y-7719929D01*
X4466786Y-7705643D01*
X4609643Y-7634214D02*
X4609643Y-7934214D01*
X4609643Y-7648500D02*
X4638214Y-7634214D01*
X4695357Y-7634214D01*
X4723928Y-7648500D01*
X4738214Y-7662786D01*
X4752500Y-7691357D01*
X4752500Y-7777071D01*
X4738214Y-7805643D01*
X4723928Y-7819929D01*
X4695357Y-7834214D01*
X4638214Y-7834214D01*
X4609643Y-7819929D01*
X4881071Y-7805643D02*
X4895357Y-7819929D01*
X4881071Y-7834214D01*
X4866786Y-7819929D01*
X4881071Y-7805643D01*
X4881071Y-7834214D01*
X4881071Y-7648500D02*
X4895357Y-7662786D01*
X4881071Y-7677071D01*
X4866786Y-7662786D01*
X4881071Y-7648500D01*
X4881071Y-7677071D01*
M02*
