G04 #@! TF.GenerationSoftware,KiCad,Pcbnew,(5.1.2-1)-1*
G04 #@! TF.CreationDate,2023-07-30T19:37:46+02:00*
G04 #@! TF.ProjectId,816to02,38313674-6f30-4322-9e6b-696361645f70,rev?*
G04 #@! TF.SameCoordinates,Original*
G04 #@! TF.FileFunction,Soldermask,Bot*
G04 #@! TF.FilePolarity,Negative*
%FSLAX46Y46*%
G04 Gerber Fmt 4.6, Leading zero omitted, Abs format (unit mm)*
G04 Created by KiCad (PCBNEW (5.1.2-1)-1) date 2023-07-30 19:37:46*
%MOMM*%
%LPD*%
G04 APERTURE LIST*
%ADD10C,0.100000*%
G04 APERTURE END LIST*
D10*
G36*
X36361823Y-71551313D02*
G01*
X36522242Y-71599976D01*
X36654906Y-71670886D01*
X36670078Y-71678996D01*
X36799659Y-71785341D01*
X36906004Y-71914922D01*
X36906005Y-71914924D01*
X36985024Y-72062758D01*
X37033687Y-72223177D01*
X37050117Y-72390000D01*
X37033687Y-72556823D01*
X36985024Y-72717242D01*
X36914114Y-72849906D01*
X36906004Y-72865078D01*
X36799659Y-72994659D01*
X36670078Y-73101004D01*
X36670076Y-73101005D01*
X36522242Y-73180024D01*
X36361823Y-73228687D01*
X36236804Y-73241000D01*
X36153196Y-73241000D01*
X36028177Y-73228687D01*
X35867758Y-73180024D01*
X35719924Y-73101005D01*
X35719922Y-73101004D01*
X35590341Y-72994659D01*
X35483996Y-72865078D01*
X35475886Y-72849906D01*
X35404976Y-72717242D01*
X35356313Y-72556823D01*
X35339883Y-72390000D01*
X35356313Y-72223177D01*
X35404976Y-72062758D01*
X35483995Y-71914924D01*
X35483996Y-71914922D01*
X35590341Y-71785341D01*
X35719922Y-71678996D01*
X35735094Y-71670886D01*
X35867758Y-71599976D01*
X36028177Y-71551313D01*
X36153196Y-71539000D01*
X36236804Y-71539000D01*
X36361823Y-71551313D01*
X36361823Y-71551313D01*
G37*
G36*
X33821823Y-71551313D02*
G01*
X33982242Y-71599976D01*
X34114906Y-71670886D01*
X34130078Y-71678996D01*
X34259659Y-71785341D01*
X34366004Y-71914922D01*
X34366005Y-71914924D01*
X34445024Y-72062758D01*
X34493687Y-72223177D01*
X34510117Y-72390000D01*
X34493687Y-72556823D01*
X34445024Y-72717242D01*
X34374114Y-72849906D01*
X34366004Y-72865078D01*
X34259659Y-72994659D01*
X34130078Y-73101004D01*
X34130076Y-73101005D01*
X33982242Y-73180024D01*
X33821823Y-73228687D01*
X33696804Y-73241000D01*
X33613196Y-73241000D01*
X33488177Y-73228687D01*
X33327758Y-73180024D01*
X33179924Y-73101005D01*
X33179922Y-73101004D01*
X33050341Y-72994659D01*
X32943996Y-72865078D01*
X32935886Y-72849906D01*
X32864976Y-72717242D01*
X32816313Y-72556823D01*
X32799883Y-72390000D01*
X32816313Y-72223177D01*
X32864976Y-72062758D01*
X32943995Y-71914924D01*
X32943996Y-71914922D01*
X33050341Y-71785341D01*
X33179922Y-71678996D01*
X33195094Y-71670886D01*
X33327758Y-71599976D01*
X33488177Y-71551313D01*
X33613196Y-71539000D01*
X33696804Y-71539000D01*
X33821823Y-71551313D01*
X33821823Y-71551313D01*
G37*
G36*
X21121823Y-71551313D02*
G01*
X21282242Y-71599976D01*
X21414906Y-71670886D01*
X21430078Y-71678996D01*
X21559659Y-71785341D01*
X21666004Y-71914922D01*
X21666005Y-71914924D01*
X21745024Y-72062758D01*
X21793687Y-72223177D01*
X21810117Y-72390000D01*
X21793687Y-72556823D01*
X21745024Y-72717242D01*
X21674114Y-72849906D01*
X21666004Y-72865078D01*
X21559659Y-72994659D01*
X21430078Y-73101004D01*
X21430076Y-73101005D01*
X21282242Y-73180024D01*
X21121823Y-73228687D01*
X20996804Y-73241000D01*
X20913196Y-73241000D01*
X20788177Y-73228687D01*
X20627758Y-73180024D01*
X20479924Y-73101005D01*
X20479922Y-73101004D01*
X20350341Y-72994659D01*
X20243996Y-72865078D01*
X20235886Y-72849906D01*
X20164976Y-72717242D01*
X20116313Y-72556823D01*
X20099883Y-72390000D01*
X20116313Y-72223177D01*
X20164976Y-72062758D01*
X20243995Y-71914924D01*
X20243996Y-71914922D01*
X20350341Y-71785341D01*
X20479922Y-71678996D01*
X20495094Y-71670886D01*
X20627758Y-71599976D01*
X20788177Y-71551313D01*
X20913196Y-71539000D01*
X20996804Y-71539000D01*
X21121823Y-71551313D01*
X21121823Y-71551313D01*
G37*
G36*
X18581823Y-71551313D02*
G01*
X18742242Y-71599976D01*
X18874906Y-71670886D01*
X18890078Y-71678996D01*
X19019659Y-71785341D01*
X19126004Y-71914922D01*
X19126005Y-71914924D01*
X19205024Y-72062758D01*
X19253687Y-72223177D01*
X19270117Y-72390000D01*
X19253687Y-72556823D01*
X19205024Y-72717242D01*
X19134114Y-72849906D01*
X19126004Y-72865078D01*
X19019659Y-72994659D01*
X18890078Y-73101004D01*
X18890076Y-73101005D01*
X18742242Y-73180024D01*
X18581823Y-73228687D01*
X18456804Y-73241000D01*
X18373196Y-73241000D01*
X18248177Y-73228687D01*
X18087758Y-73180024D01*
X17939924Y-73101005D01*
X17939922Y-73101004D01*
X17810341Y-72994659D01*
X17703996Y-72865078D01*
X17695886Y-72849906D01*
X17624976Y-72717242D01*
X17576313Y-72556823D01*
X17559883Y-72390000D01*
X17576313Y-72223177D01*
X17624976Y-72062758D01*
X17703995Y-71914924D01*
X17703996Y-71914922D01*
X17810341Y-71785341D01*
X17939922Y-71678996D01*
X17955094Y-71670886D01*
X18087758Y-71599976D01*
X18248177Y-71551313D01*
X18373196Y-71539000D01*
X18456804Y-71539000D01*
X18581823Y-71551313D01*
X18581823Y-71551313D01*
G37*
G36*
X21121823Y-69011313D02*
G01*
X21282242Y-69059976D01*
X21414906Y-69130886D01*
X21430078Y-69138996D01*
X21559659Y-69245341D01*
X21666004Y-69374922D01*
X21666005Y-69374924D01*
X21745024Y-69522758D01*
X21793687Y-69683177D01*
X21810117Y-69850000D01*
X21793687Y-70016823D01*
X21745024Y-70177242D01*
X21674114Y-70309906D01*
X21666004Y-70325078D01*
X21559659Y-70454659D01*
X21430078Y-70561004D01*
X21430076Y-70561005D01*
X21282242Y-70640024D01*
X21121823Y-70688687D01*
X20996804Y-70701000D01*
X20913196Y-70701000D01*
X20788177Y-70688687D01*
X20627758Y-70640024D01*
X20479924Y-70561005D01*
X20479922Y-70561004D01*
X20350341Y-70454659D01*
X20243996Y-70325078D01*
X20235886Y-70309906D01*
X20164976Y-70177242D01*
X20116313Y-70016823D01*
X20099883Y-69850000D01*
X20116313Y-69683177D01*
X20164976Y-69522758D01*
X20243995Y-69374924D01*
X20243996Y-69374922D01*
X20350341Y-69245341D01*
X20479922Y-69138996D01*
X20495094Y-69130886D01*
X20627758Y-69059976D01*
X20788177Y-69011313D01*
X20913196Y-68999000D01*
X20996804Y-68999000D01*
X21121823Y-69011313D01*
X21121823Y-69011313D01*
G37*
G36*
X36361823Y-69011313D02*
G01*
X36522242Y-69059976D01*
X36654906Y-69130886D01*
X36670078Y-69138996D01*
X36799659Y-69245341D01*
X36906004Y-69374922D01*
X36906005Y-69374924D01*
X36985024Y-69522758D01*
X37033687Y-69683177D01*
X37050117Y-69850000D01*
X37033687Y-70016823D01*
X36985024Y-70177242D01*
X36914114Y-70309906D01*
X36906004Y-70325078D01*
X36799659Y-70454659D01*
X36670078Y-70561004D01*
X36670076Y-70561005D01*
X36522242Y-70640024D01*
X36361823Y-70688687D01*
X36236804Y-70701000D01*
X36153196Y-70701000D01*
X36028177Y-70688687D01*
X35867758Y-70640024D01*
X35719924Y-70561005D01*
X35719922Y-70561004D01*
X35590341Y-70454659D01*
X35483996Y-70325078D01*
X35475886Y-70309906D01*
X35404976Y-70177242D01*
X35356313Y-70016823D01*
X35339883Y-69850000D01*
X35356313Y-69683177D01*
X35404976Y-69522758D01*
X35483995Y-69374924D01*
X35483996Y-69374922D01*
X35590341Y-69245341D01*
X35719922Y-69138996D01*
X35735094Y-69130886D01*
X35867758Y-69059976D01*
X36028177Y-69011313D01*
X36153196Y-68999000D01*
X36236804Y-68999000D01*
X36361823Y-69011313D01*
X36361823Y-69011313D01*
G37*
G36*
X33821823Y-69011313D02*
G01*
X33982242Y-69059976D01*
X34114906Y-69130886D01*
X34130078Y-69138996D01*
X34259659Y-69245341D01*
X34366004Y-69374922D01*
X34366005Y-69374924D01*
X34445024Y-69522758D01*
X34493687Y-69683177D01*
X34510117Y-69850000D01*
X34493687Y-70016823D01*
X34445024Y-70177242D01*
X34374114Y-70309906D01*
X34366004Y-70325078D01*
X34259659Y-70454659D01*
X34130078Y-70561004D01*
X34130076Y-70561005D01*
X33982242Y-70640024D01*
X33821823Y-70688687D01*
X33696804Y-70701000D01*
X33613196Y-70701000D01*
X33488177Y-70688687D01*
X33327758Y-70640024D01*
X33179924Y-70561005D01*
X33179922Y-70561004D01*
X33050341Y-70454659D01*
X32943996Y-70325078D01*
X32935886Y-70309906D01*
X32864976Y-70177242D01*
X32816313Y-70016823D01*
X32799883Y-69850000D01*
X32816313Y-69683177D01*
X32864976Y-69522758D01*
X32943995Y-69374924D01*
X32943996Y-69374922D01*
X33050341Y-69245341D01*
X33179922Y-69138996D01*
X33195094Y-69130886D01*
X33327758Y-69059976D01*
X33488177Y-69011313D01*
X33613196Y-68999000D01*
X33696804Y-68999000D01*
X33821823Y-69011313D01*
X33821823Y-69011313D01*
G37*
G36*
X18581823Y-69011313D02*
G01*
X18742242Y-69059976D01*
X18874906Y-69130886D01*
X18890078Y-69138996D01*
X19019659Y-69245341D01*
X19126004Y-69374922D01*
X19126005Y-69374924D01*
X19205024Y-69522758D01*
X19253687Y-69683177D01*
X19270117Y-69850000D01*
X19253687Y-70016823D01*
X19205024Y-70177242D01*
X19134114Y-70309906D01*
X19126004Y-70325078D01*
X19019659Y-70454659D01*
X18890078Y-70561004D01*
X18890076Y-70561005D01*
X18742242Y-70640024D01*
X18581823Y-70688687D01*
X18456804Y-70701000D01*
X18373196Y-70701000D01*
X18248177Y-70688687D01*
X18087758Y-70640024D01*
X17939924Y-70561005D01*
X17939922Y-70561004D01*
X17810341Y-70454659D01*
X17703996Y-70325078D01*
X17695886Y-70309906D01*
X17624976Y-70177242D01*
X17576313Y-70016823D01*
X17559883Y-69850000D01*
X17576313Y-69683177D01*
X17624976Y-69522758D01*
X17703995Y-69374924D01*
X17703996Y-69374922D01*
X17810341Y-69245341D01*
X17939922Y-69138996D01*
X17955094Y-69130886D01*
X18087758Y-69059976D01*
X18248177Y-69011313D01*
X18373196Y-68999000D01*
X18456804Y-68999000D01*
X18581823Y-69011313D01*
X18581823Y-69011313D01*
G37*
G36*
X36361823Y-66471313D02*
G01*
X36522242Y-66519976D01*
X36654906Y-66590886D01*
X36670078Y-66598996D01*
X36799659Y-66705341D01*
X36906004Y-66834922D01*
X36906005Y-66834924D01*
X36985024Y-66982758D01*
X37033687Y-67143177D01*
X37050117Y-67310000D01*
X37033687Y-67476823D01*
X36985024Y-67637242D01*
X36914114Y-67769906D01*
X36906004Y-67785078D01*
X36799659Y-67914659D01*
X36670078Y-68021004D01*
X36670076Y-68021005D01*
X36522242Y-68100024D01*
X36361823Y-68148687D01*
X36236804Y-68161000D01*
X36153196Y-68161000D01*
X36028177Y-68148687D01*
X35867758Y-68100024D01*
X35719924Y-68021005D01*
X35719922Y-68021004D01*
X35590341Y-67914659D01*
X35483996Y-67785078D01*
X35475886Y-67769906D01*
X35404976Y-67637242D01*
X35356313Y-67476823D01*
X35339883Y-67310000D01*
X35356313Y-67143177D01*
X35404976Y-66982758D01*
X35483995Y-66834924D01*
X35483996Y-66834922D01*
X35590341Y-66705341D01*
X35719922Y-66598996D01*
X35735094Y-66590886D01*
X35867758Y-66519976D01*
X36028177Y-66471313D01*
X36153196Y-66459000D01*
X36236804Y-66459000D01*
X36361823Y-66471313D01*
X36361823Y-66471313D01*
G37*
G36*
X21121823Y-66471313D02*
G01*
X21282242Y-66519976D01*
X21414906Y-66590886D01*
X21430078Y-66598996D01*
X21559659Y-66705341D01*
X21666004Y-66834922D01*
X21666005Y-66834924D01*
X21745024Y-66982758D01*
X21793687Y-67143177D01*
X21810117Y-67310000D01*
X21793687Y-67476823D01*
X21745024Y-67637242D01*
X21674114Y-67769906D01*
X21666004Y-67785078D01*
X21559659Y-67914659D01*
X21430078Y-68021004D01*
X21430076Y-68021005D01*
X21282242Y-68100024D01*
X21121823Y-68148687D01*
X20996804Y-68161000D01*
X20913196Y-68161000D01*
X20788177Y-68148687D01*
X20627758Y-68100024D01*
X20479924Y-68021005D01*
X20479922Y-68021004D01*
X20350341Y-67914659D01*
X20243996Y-67785078D01*
X20235886Y-67769906D01*
X20164976Y-67637242D01*
X20116313Y-67476823D01*
X20099883Y-67310000D01*
X20116313Y-67143177D01*
X20164976Y-66982758D01*
X20243995Y-66834924D01*
X20243996Y-66834922D01*
X20350341Y-66705341D01*
X20479922Y-66598996D01*
X20495094Y-66590886D01*
X20627758Y-66519976D01*
X20788177Y-66471313D01*
X20913196Y-66459000D01*
X20996804Y-66459000D01*
X21121823Y-66471313D01*
X21121823Y-66471313D01*
G37*
G36*
X33821823Y-66471313D02*
G01*
X33982242Y-66519976D01*
X34114906Y-66590886D01*
X34130078Y-66598996D01*
X34259659Y-66705341D01*
X34366004Y-66834922D01*
X34366005Y-66834924D01*
X34445024Y-66982758D01*
X34493687Y-67143177D01*
X34510117Y-67310000D01*
X34493687Y-67476823D01*
X34445024Y-67637242D01*
X34374114Y-67769906D01*
X34366004Y-67785078D01*
X34259659Y-67914659D01*
X34130078Y-68021004D01*
X34130076Y-68021005D01*
X33982242Y-68100024D01*
X33821823Y-68148687D01*
X33696804Y-68161000D01*
X33613196Y-68161000D01*
X33488177Y-68148687D01*
X33327758Y-68100024D01*
X33179924Y-68021005D01*
X33179922Y-68021004D01*
X33050341Y-67914659D01*
X32943996Y-67785078D01*
X32935886Y-67769906D01*
X32864976Y-67637242D01*
X32816313Y-67476823D01*
X32799883Y-67310000D01*
X32816313Y-67143177D01*
X32864976Y-66982758D01*
X32943995Y-66834924D01*
X32943996Y-66834922D01*
X33050341Y-66705341D01*
X33179922Y-66598996D01*
X33195094Y-66590886D01*
X33327758Y-66519976D01*
X33488177Y-66471313D01*
X33613196Y-66459000D01*
X33696804Y-66459000D01*
X33821823Y-66471313D01*
X33821823Y-66471313D01*
G37*
G36*
X18581823Y-66471313D02*
G01*
X18742242Y-66519976D01*
X18874906Y-66590886D01*
X18890078Y-66598996D01*
X19019659Y-66705341D01*
X19126004Y-66834922D01*
X19126005Y-66834924D01*
X19205024Y-66982758D01*
X19253687Y-67143177D01*
X19270117Y-67310000D01*
X19253687Y-67476823D01*
X19205024Y-67637242D01*
X19134114Y-67769906D01*
X19126004Y-67785078D01*
X19019659Y-67914659D01*
X18890078Y-68021004D01*
X18890076Y-68021005D01*
X18742242Y-68100024D01*
X18581823Y-68148687D01*
X18456804Y-68161000D01*
X18373196Y-68161000D01*
X18248177Y-68148687D01*
X18087758Y-68100024D01*
X17939924Y-68021005D01*
X17939922Y-68021004D01*
X17810341Y-67914659D01*
X17703996Y-67785078D01*
X17695886Y-67769906D01*
X17624976Y-67637242D01*
X17576313Y-67476823D01*
X17559883Y-67310000D01*
X17576313Y-67143177D01*
X17624976Y-66982758D01*
X17703995Y-66834924D01*
X17703996Y-66834922D01*
X17810341Y-66705341D01*
X17939922Y-66598996D01*
X17955094Y-66590886D01*
X18087758Y-66519976D01*
X18248177Y-66471313D01*
X18373196Y-66459000D01*
X18456804Y-66459000D01*
X18581823Y-66471313D01*
X18581823Y-66471313D01*
G37*
G36*
X31281823Y-65201313D02*
G01*
X31442242Y-65249976D01*
X31574906Y-65320886D01*
X31590078Y-65328996D01*
X31719659Y-65435341D01*
X31826004Y-65564922D01*
X31826005Y-65564924D01*
X31905024Y-65712758D01*
X31953687Y-65873177D01*
X31970117Y-66040000D01*
X31953687Y-66206823D01*
X31905024Y-66367242D01*
X31855978Y-66459000D01*
X31826004Y-66515078D01*
X31719659Y-66644659D01*
X31590078Y-66751004D01*
X31590076Y-66751005D01*
X31442242Y-66830024D01*
X31281823Y-66878687D01*
X31156804Y-66891000D01*
X31073196Y-66891000D01*
X30948177Y-66878687D01*
X30787758Y-66830024D01*
X30639924Y-66751005D01*
X30639922Y-66751004D01*
X30510341Y-66644659D01*
X30403996Y-66515078D01*
X30374022Y-66459000D01*
X30324976Y-66367242D01*
X30276313Y-66206823D01*
X30259883Y-66040000D01*
X30276313Y-65873177D01*
X30324976Y-65712758D01*
X30403995Y-65564924D01*
X30403996Y-65564922D01*
X30510341Y-65435341D01*
X30639922Y-65328996D01*
X30655094Y-65320886D01*
X30787758Y-65249976D01*
X30948177Y-65201313D01*
X31073196Y-65189000D01*
X31156804Y-65189000D01*
X31281823Y-65201313D01*
X31281823Y-65201313D01*
G37*
G36*
X23661823Y-65201313D02*
G01*
X23822242Y-65249976D01*
X23954906Y-65320886D01*
X23970078Y-65328996D01*
X24099659Y-65435341D01*
X24206004Y-65564922D01*
X24206005Y-65564924D01*
X24285024Y-65712758D01*
X24333687Y-65873177D01*
X24350117Y-66040000D01*
X24333687Y-66206823D01*
X24285024Y-66367242D01*
X24235978Y-66459000D01*
X24206004Y-66515078D01*
X24099659Y-66644659D01*
X23970078Y-66751004D01*
X23970076Y-66751005D01*
X23822242Y-66830024D01*
X23661823Y-66878687D01*
X23536804Y-66891000D01*
X23453196Y-66891000D01*
X23328177Y-66878687D01*
X23167758Y-66830024D01*
X23019924Y-66751005D01*
X23019922Y-66751004D01*
X22890341Y-66644659D01*
X22783996Y-66515078D01*
X22754022Y-66459000D01*
X22704976Y-66367242D01*
X22656313Y-66206823D01*
X22639883Y-66040000D01*
X22656313Y-65873177D01*
X22704976Y-65712758D01*
X22783995Y-65564924D01*
X22783996Y-65564922D01*
X22890341Y-65435341D01*
X23019922Y-65328996D01*
X23035094Y-65320886D01*
X23167758Y-65249976D01*
X23328177Y-65201313D01*
X23453196Y-65189000D01*
X23536804Y-65189000D01*
X23661823Y-65201313D01*
X23661823Y-65201313D01*
G37*
G36*
X18581823Y-63931313D02*
G01*
X18742242Y-63979976D01*
X18874906Y-64050886D01*
X18890078Y-64058996D01*
X19019659Y-64165341D01*
X19126004Y-64294922D01*
X19126005Y-64294924D01*
X19205024Y-64442758D01*
X19253687Y-64603177D01*
X19270117Y-64770000D01*
X19253687Y-64936823D01*
X19205024Y-65097242D01*
X19155978Y-65189000D01*
X19126004Y-65245078D01*
X19019659Y-65374659D01*
X18890078Y-65481004D01*
X18890076Y-65481005D01*
X18742242Y-65560024D01*
X18581823Y-65608687D01*
X18456804Y-65621000D01*
X18373196Y-65621000D01*
X18248177Y-65608687D01*
X18087758Y-65560024D01*
X17939924Y-65481005D01*
X17939922Y-65481004D01*
X17810341Y-65374659D01*
X17703996Y-65245078D01*
X17674022Y-65189000D01*
X17624976Y-65097242D01*
X17576313Y-64936823D01*
X17559883Y-64770000D01*
X17576313Y-64603177D01*
X17624976Y-64442758D01*
X17703995Y-64294924D01*
X17703996Y-64294922D01*
X17810341Y-64165341D01*
X17939922Y-64058996D01*
X17955094Y-64050886D01*
X18087758Y-63979976D01*
X18248177Y-63931313D01*
X18373196Y-63919000D01*
X18456804Y-63919000D01*
X18581823Y-63931313D01*
X18581823Y-63931313D01*
G37*
G36*
X33821823Y-63931313D02*
G01*
X33982242Y-63979976D01*
X34114906Y-64050886D01*
X34130078Y-64058996D01*
X34259659Y-64165341D01*
X34366004Y-64294922D01*
X34366005Y-64294924D01*
X34445024Y-64442758D01*
X34493687Y-64603177D01*
X34510117Y-64770000D01*
X34493687Y-64936823D01*
X34445024Y-65097242D01*
X34395978Y-65189000D01*
X34366004Y-65245078D01*
X34259659Y-65374659D01*
X34130078Y-65481004D01*
X34130076Y-65481005D01*
X33982242Y-65560024D01*
X33821823Y-65608687D01*
X33696804Y-65621000D01*
X33613196Y-65621000D01*
X33488177Y-65608687D01*
X33327758Y-65560024D01*
X33179924Y-65481005D01*
X33179922Y-65481004D01*
X33050341Y-65374659D01*
X32943996Y-65245078D01*
X32914022Y-65189000D01*
X32864976Y-65097242D01*
X32816313Y-64936823D01*
X32799883Y-64770000D01*
X32816313Y-64603177D01*
X32864976Y-64442758D01*
X32943995Y-64294924D01*
X32943996Y-64294922D01*
X33050341Y-64165341D01*
X33179922Y-64058996D01*
X33195094Y-64050886D01*
X33327758Y-63979976D01*
X33488177Y-63931313D01*
X33613196Y-63919000D01*
X33696804Y-63919000D01*
X33821823Y-63931313D01*
X33821823Y-63931313D01*
G37*
G36*
X36361823Y-63931313D02*
G01*
X36522242Y-63979976D01*
X36654906Y-64050886D01*
X36670078Y-64058996D01*
X36799659Y-64165341D01*
X36906004Y-64294922D01*
X36906005Y-64294924D01*
X36985024Y-64442758D01*
X37033687Y-64603177D01*
X37050117Y-64770000D01*
X37033687Y-64936823D01*
X36985024Y-65097242D01*
X36935978Y-65189000D01*
X36906004Y-65245078D01*
X36799659Y-65374659D01*
X36670078Y-65481004D01*
X36670076Y-65481005D01*
X36522242Y-65560024D01*
X36361823Y-65608687D01*
X36236804Y-65621000D01*
X36153196Y-65621000D01*
X36028177Y-65608687D01*
X35867758Y-65560024D01*
X35719924Y-65481005D01*
X35719922Y-65481004D01*
X35590341Y-65374659D01*
X35483996Y-65245078D01*
X35454022Y-65189000D01*
X35404976Y-65097242D01*
X35356313Y-64936823D01*
X35339883Y-64770000D01*
X35356313Y-64603177D01*
X35404976Y-64442758D01*
X35483995Y-64294924D01*
X35483996Y-64294922D01*
X35590341Y-64165341D01*
X35719922Y-64058996D01*
X35735094Y-64050886D01*
X35867758Y-63979976D01*
X36028177Y-63931313D01*
X36153196Y-63919000D01*
X36236804Y-63919000D01*
X36361823Y-63931313D01*
X36361823Y-63931313D01*
G37*
G36*
X21121823Y-63931313D02*
G01*
X21282242Y-63979976D01*
X21414906Y-64050886D01*
X21430078Y-64058996D01*
X21559659Y-64165341D01*
X21666004Y-64294922D01*
X21666005Y-64294924D01*
X21745024Y-64442758D01*
X21793687Y-64603177D01*
X21810117Y-64770000D01*
X21793687Y-64936823D01*
X21745024Y-65097242D01*
X21695978Y-65189000D01*
X21666004Y-65245078D01*
X21559659Y-65374659D01*
X21430078Y-65481004D01*
X21430076Y-65481005D01*
X21282242Y-65560024D01*
X21121823Y-65608687D01*
X20996804Y-65621000D01*
X20913196Y-65621000D01*
X20788177Y-65608687D01*
X20627758Y-65560024D01*
X20479924Y-65481005D01*
X20479922Y-65481004D01*
X20350341Y-65374659D01*
X20243996Y-65245078D01*
X20214022Y-65189000D01*
X20164976Y-65097242D01*
X20116313Y-64936823D01*
X20099883Y-64770000D01*
X20116313Y-64603177D01*
X20164976Y-64442758D01*
X20243995Y-64294924D01*
X20243996Y-64294922D01*
X20350341Y-64165341D01*
X20479922Y-64058996D01*
X20495094Y-64050886D01*
X20627758Y-63979976D01*
X20788177Y-63931313D01*
X20913196Y-63919000D01*
X20996804Y-63919000D01*
X21121823Y-63931313D01*
X21121823Y-63931313D01*
G37*
G36*
X23661823Y-62661313D02*
G01*
X23822242Y-62709976D01*
X23954906Y-62780886D01*
X23970078Y-62788996D01*
X24099659Y-62895341D01*
X24206004Y-63024922D01*
X24206005Y-63024924D01*
X24285024Y-63172758D01*
X24333687Y-63333177D01*
X24350117Y-63500000D01*
X24333687Y-63666823D01*
X24285024Y-63827242D01*
X24235978Y-63919000D01*
X24206004Y-63975078D01*
X24099659Y-64104659D01*
X23970078Y-64211004D01*
X23970076Y-64211005D01*
X23822242Y-64290024D01*
X23661823Y-64338687D01*
X23536804Y-64351000D01*
X23453196Y-64351000D01*
X23328177Y-64338687D01*
X23167758Y-64290024D01*
X23019924Y-64211005D01*
X23019922Y-64211004D01*
X22890341Y-64104659D01*
X22783996Y-63975078D01*
X22754022Y-63919000D01*
X22704976Y-63827242D01*
X22656313Y-63666823D01*
X22639883Y-63500000D01*
X22656313Y-63333177D01*
X22704976Y-63172758D01*
X22783995Y-63024924D01*
X22783996Y-63024922D01*
X22890341Y-62895341D01*
X23019922Y-62788996D01*
X23035094Y-62780886D01*
X23167758Y-62709976D01*
X23328177Y-62661313D01*
X23453196Y-62649000D01*
X23536804Y-62649000D01*
X23661823Y-62661313D01*
X23661823Y-62661313D01*
G37*
G36*
X31281823Y-62661313D02*
G01*
X31442242Y-62709976D01*
X31574906Y-62780886D01*
X31590078Y-62788996D01*
X31719659Y-62895341D01*
X31826004Y-63024922D01*
X31826005Y-63024924D01*
X31905024Y-63172758D01*
X31953687Y-63333177D01*
X31970117Y-63500000D01*
X31953687Y-63666823D01*
X31905024Y-63827242D01*
X31855978Y-63919000D01*
X31826004Y-63975078D01*
X31719659Y-64104659D01*
X31590078Y-64211004D01*
X31590076Y-64211005D01*
X31442242Y-64290024D01*
X31281823Y-64338687D01*
X31156804Y-64351000D01*
X31073196Y-64351000D01*
X30948177Y-64338687D01*
X30787758Y-64290024D01*
X30639924Y-64211005D01*
X30639922Y-64211004D01*
X30510341Y-64104659D01*
X30403996Y-63975078D01*
X30374022Y-63919000D01*
X30324976Y-63827242D01*
X30276313Y-63666823D01*
X30259883Y-63500000D01*
X30276313Y-63333177D01*
X30324976Y-63172758D01*
X30403995Y-63024924D01*
X30403996Y-63024922D01*
X30510341Y-62895341D01*
X30639922Y-62788996D01*
X30655094Y-62780886D01*
X30787758Y-62709976D01*
X30948177Y-62661313D01*
X31073196Y-62649000D01*
X31156804Y-62649000D01*
X31281823Y-62661313D01*
X31281823Y-62661313D01*
G37*
G36*
X33821823Y-61391313D02*
G01*
X33982242Y-61439976D01*
X34114906Y-61510886D01*
X34130078Y-61518996D01*
X34259659Y-61625341D01*
X34366004Y-61754922D01*
X34366005Y-61754924D01*
X34445024Y-61902758D01*
X34493687Y-62063177D01*
X34510117Y-62230000D01*
X34493687Y-62396823D01*
X34445024Y-62557242D01*
X34395978Y-62649000D01*
X34366004Y-62705078D01*
X34259659Y-62834659D01*
X34130078Y-62941004D01*
X34130076Y-62941005D01*
X33982242Y-63020024D01*
X33821823Y-63068687D01*
X33696804Y-63081000D01*
X33613196Y-63081000D01*
X33488177Y-63068687D01*
X33327758Y-63020024D01*
X33179924Y-62941005D01*
X33179922Y-62941004D01*
X33050341Y-62834659D01*
X32943996Y-62705078D01*
X32914022Y-62649000D01*
X32864976Y-62557242D01*
X32816313Y-62396823D01*
X32799883Y-62230000D01*
X32816313Y-62063177D01*
X32864976Y-61902758D01*
X32943995Y-61754924D01*
X32943996Y-61754922D01*
X33050341Y-61625341D01*
X33179922Y-61518996D01*
X33195094Y-61510886D01*
X33327758Y-61439976D01*
X33488177Y-61391313D01*
X33613196Y-61379000D01*
X33696804Y-61379000D01*
X33821823Y-61391313D01*
X33821823Y-61391313D01*
G37*
G36*
X18581823Y-61391313D02*
G01*
X18742242Y-61439976D01*
X18874906Y-61510886D01*
X18890078Y-61518996D01*
X19019659Y-61625341D01*
X19126004Y-61754922D01*
X19126005Y-61754924D01*
X19205024Y-61902758D01*
X19253687Y-62063177D01*
X19270117Y-62230000D01*
X19253687Y-62396823D01*
X19205024Y-62557242D01*
X19155978Y-62649000D01*
X19126004Y-62705078D01*
X19019659Y-62834659D01*
X18890078Y-62941004D01*
X18890076Y-62941005D01*
X18742242Y-63020024D01*
X18581823Y-63068687D01*
X18456804Y-63081000D01*
X18373196Y-63081000D01*
X18248177Y-63068687D01*
X18087758Y-63020024D01*
X17939924Y-62941005D01*
X17939922Y-62941004D01*
X17810341Y-62834659D01*
X17703996Y-62705078D01*
X17674022Y-62649000D01*
X17624976Y-62557242D01*
X17576313Y-62396823D01*
X17559883Y-62230000D01*
X17576313Y-62063177D01*
X17624976Y-61902758D01*
X17703995Y-61754924D01*
X17703996Y-61754922D01*
X17810341Y-61625341D01*
X17939922Y-61518996D01*
X17955094Y-61510886D01*
X18087758Y-61439976D01*
X18248177Y-61391313D01*
X18373196Y-61379000D01*
X18456804Y-61379000D01*
X18581823Y-61391313D01*
X18581823Y-61391313D01*
G37*
G36*
X36361823Y-61391313D02*
G01*
X36522242Y-61439976D01*
X36654906Y-61510886D01*
X36670078Y-61518996D01*
X36799659Y-61625341D01*
X36906004Y-61754922D01*
X36906005Y-61754924D01*
X36985024Y-61902758D01*
X37033687Y-62063177D01*
X37050117Y-62230000D01*
X37033687Y-62396823D01*
X36985024Y-62557242D01*
X36935978Y-62649000D01*
X36906004Y-62705078D01*
X36799659Y-62834659D01*
X36670078Y-62941004D01*
X36670076Y-62941005D01*
X36522242Y-63020024D01*
X36361823Y-63068687D01*
X36236804Y-63081000D01*
X36153196Y-63081000D01*
X36028177Y-63068687D01*
X35867758Y-63020024D01*
X35719924Y-62941005D01*
X35719922Y-62941004D01*
X35590341Y-62834659D01*
X35483996Y-62705078D01*
X35454022Y-62649000D01*
X35404976Y-62557242D01*
X35356313Y-62396823D01*
X35339883Y-62230000D01*
X35356313Y-62063177D01*
X35404976Y-61902758D01*
X35483995Y-61754924D01*
X35483996Y-61754922D01*
X35590341Y-61625341D01*
X35719922Y-61518996D01*
X35735094Y-61510886D01*
X35867758Y-61439976D01*
X36028177Y-61391313D01*
X36153196Y-61379000D01*
X36236804Y-61379000D01*
X36361823Y-61391313D01*
X36361823Y-61391313D01*
G37*
G36*
X21121823Y-61391313D02*
G01*
X21282242Y-61439976D01*
X21414906Y-61510886D01*
X21430078Y-61518996D01*
X21559659Y-61625341D01*
X21666004Y-61754922D01*
X21666005Y-61754924D01*
X21745024Y-61902758D01*
X21793687Y-62063177D01*
X21810117Y-62230000D01*
X21793687Y-62396823D01*
X21745024Y-62557242D01*
X21695978Y-62649000D01*
X21666004Y-62705078D01*
X21559659Y-62834659D01*
X21430078Y-62941004D01*
X21430076Y-62941005D01*
X21282242Y-63020024D01*
X21121823Y-63068687D01*
X20996804Y-63081000D01*
X20913196Y-63081000D01*
X20788177Y-63068687D01*
X20627758Y-63020024D01*
X20479924Y-62941005D01*
X20479922Y-62941004D01*
X20350341Y-62834659D01*
X20243996Y-62705078D01*
X20214022Y-62649000D01*
X20164976Y-62557242D01*
X20116313Y-62396823D01*
X20099883Y-62230000D01*
X20116313Y-62063177D01*
X20164976Y-61902758D01*
X20243995Y-61754924D01*
X20243996Y-61754922D01*
X20350341Y-61625341D01*
X20479922Y-61518996D01*
X20495094Y-61510886D01*
X20627758Y-61439976D01*
X20788177Y-61391313D01*
X20913196Y-61379000D01*
X20996804Y-61379000D01*
X21121823Y-61391313D01*
X21121823Y-61391313D01*
G37*
G36*
X23661823Y-60121313D02*
G01*
X23822242Y-60169976D01*
X23954906Y-60240886D01*
X23970078Y-60248996D01*
X24099659Y-60355341D01*
X24206004Y-60484922D01*
X24206005Y-60484924D01*
X24285024Y-60632758D01*
X24333687Y-60793177D01*
X24350117Y-60960000D01*
X24333687Y-61126823D01*
X24285024Y-61287242D01*
X24235978Y-61379000D01*
X24206004Y-61435078D01*
X24099659Y-61564659D01*
X23970078Y-61671004D01*
X23970076Y-61671005D01*
X23822242Y-61750024D01*
X23661823Y-61798687D01*
X23536804Y-61811000D01*
X23453196Y-61811000D01*
X23328177Y-61798687D01*
X23167758Y-61750024D01*
X23019924Y-61671005D01*
X23019922Y-61671004D01*
X22890341Y-61564659D01*
X22783996Y-61435078D01*
X22754022Y-61379000D01*
X22704976Y-61287242D01*
X22656313Y-61126823D01*
X22639883Y-60960000D01*
X22656313Y-60793177D01*
X22704976Y-60632758D01*
X22783995Y-60484924D01*
X22783996Y-60484922D01*
X22890341Y-60355341D01*
X23019922Y-60248996D01*
X23035094Y-60240886D01*
X23167758Y-60169976D01*
X23328177Y-60121313D01*
X23453196Y-60109000D01*
X23536804Y-60109000D01*
X23661823Y-60121313D01*
X23661823Y-60121313D01*
G37*
G36*
X31281823Y-60121313D02*
G01*
X31442242Y-60169976D01*
X31574906Y-60240886D01*
X31590078Y-60248996D01*
X31719659Y-60355341D01*
X31826004Y-60484922D01*
X31826005Y-60484924D01*
X31905024Y-60632758D01*
X31953687Y-60793177D01*
X31970117Y-60960000D01*
X31953687Y-61126823D01*
X31905024Y-61287242D01*
X31855978Y-61379000D01*
X31826004Y-61435078D01*
X31719659Y-61564659D01*
X31590078Y-61671004D01*
X31590076Y-61671005D01*
X31442242Y-61750024D01*
X31281823Y-61798687D01*
X31156804Y-61811000D01*
X31073196Y-61811000D01*
X30948177Y-61798687D01*
X30787758Y-61750024D01*
X30639924Y-61671005D01*
X30639922Y-61671004D01*
X30510341Y-61564659D01*
X30403996Y-61435078D01*
X30374022Y-61379000D01*
X30324976Y-61287242D01*
X30276313Y-61126823D01*
X30259883Y-60960000D01*
X30276313Y-60793177D01*
X30324976Y-60632758D01*
X30403995Y-60484924D01*
X30403996Y-60484922D01*
X30510341Y-60355341D01*
X30639922Y-60248996D01*
X30655094Y-60240886D01*
X30787758Y-60169976D01*
X30948177Y-60121313D01*
X31073196Y-60109000D01*
X31156804Y-60109000D01*
X31281823Y-60121313D01*
X31281823Y-60121313D01*
G37*
G36*
X33821823Y-58851313D02*
G01*
X33982242Y-58899976D01*
X34114906Y-58970886D01*
X34130078Y-58978996D01*
X34259659Y-59085341D01*
X34366004Y-59214922D01*
X34366005Y-59214924D01*
X34445024Y-59362758D01*
X34493687Y-59523177D01*
X34510117Y-59690000D01*
X34493687Y-59856823D01*
X34445024Y-60017242D01*
X34395978Y-60109000D01*
X34366004Y-60165078D01*
X34259659Y-60294659D01*
X34130078Y-60401004D01*
X34130076Y-60401005D01*
X33982242Y-60480024D01*
X33821823Y-60528687D01*
X33696804Y-60541000D01*
X33613196Y-60541000D01*
X33488177Y-60528687D01*
X33327758Y-60480024D01*
X33179924Y-60401005D01*
X33179922Y-60401004D01*
X33050341Y-60294659D01*
X32943996Y-60165078D01*
X32914022Y-60109000D01*
X32864976Y-60017242D01*
X32816313Y-59856823D01*
X32799883Y-59690000D01*
X32816313Y-59523177D01*
X32864976Y-59362758D01*
X32943995Y-59214924D01*
X32943996Y-59214922D01*
X33050341Y-59085341D01*
X33179922Y-58978996D01*
X33195094Y-58970886D01*
X33327758Y-58899976D01*
X33488177Y-58851313D01*
X33613196Y-58839000D01*
X33696804Y-58839000D01*
X33821823Y-58851313D01*
X33821823Y-58851313D01*
G37*
G36*
X21121823Y-58851313D02*
G01*
X21282242Y-58899976D01*
X21414906Y-58970886D01*
X21430078Y-58978996D01*
X21559659Y-59085341D01*
X21666004Y-59214922D01*
X21666005Y-59214924D01*
X21745024Y-59362758D01*
X21793687Y-59523177D01*
X21810117Y-59690000D01*
X21793687Y-59856823D01*
X21745024Y-60017242D01*
X21695978Y-60109000D01*
X21666004Y-60165078D01*
X21559659Y-60294659D01*
X21430078Y-60401004D01*
X21430076Y-60401005D01*
X21282242Y-60480024D01*
X21121823Y-60528687D01*
X20996804Y-60541000D01*
X20913196Y-60541000D01*
X20788177Y-60528687D01*
X20627758Y-60480024D01*
X20479924Y-60401005D01*
X20479922Y-60401004D01*
X20350341Y-60294659D01*
X20243996Y-60165078D01*
X20214022Y-60109000D01*
X20164976Y-60017242D01*
X20116313Y-59856823D01*
X20099883Y-59690000D01*
X20116313Y-59523177D01*
X20164976Y-59362758D01*
X20243995Y-59214924D01*
X20243996Y-59214922D01*
X20350341Y-59085341D01*
X20479922Y-58978996D01*
X20495094Y-58970886D01*
X20627758Y-58899976D01*
X20788177Y-58851313D01*
X20913196Y-58839000D01*
X20996804Y-58839000D01*
X21121823Y-58851313D01*
X21121823Y-58851313D01*
G37*
G36*
X36361823Y-58851313D02*
G01*
X36522242Y-58899976D01*
X36654906Y-58970886D01*
X36670078Y-58978996D01*
X36799659Y-59085341D01*
X36906004Y-59214922D01*
X36906005Y-59214924D01*
X36985024Y-59362758D01*
X37033687Y-59523177D01*
X37050117Y-59690000D01*
X37033687Y-59856823D01*
X36985024Y-60017242D01*
X36935978Y-60109000D01*
X36906004Y-60165078D01*
X36799659Y-60294659D01*
X36670078Y-60401004D01*
X36670076Y-60401005D01*
X36522242Y-60480024D01*
X36361823Y-60528687D01*
X36236804Y-60541000D01*
X36153196Y-60541000D01*
X36028177Y-60528687D01*
X35867758Y-60480024D01*
X35719924Y-60401005D01*
X35719922Y-60401004D01*
X35590341Y-60294659D01*
X35483996Y-60165078D01*
X35454022Y-60109000D01*
X35404976Y-60017242D01*
X35356313Y-59856823D01*
X35339883Y-59690000D01*
X35356313Y-59523177D01*
X35404976Y-59362758D01*
X35483995Y-59214924D01*
X35483996Y-59214922D01*
X35590341Y-59085341D01*
X35719922Y-58978996D01*
X35735094Y-58970886D01*
X35867758Y-58899976D01*
X36028177Y-58851313D01*
X36153196Y-58839000D01*
X36236804Y-58839000D01*
X36361823Y-58851313D01*
X36361823Y-58851313D01*
G37*
G36*
X18581823Y-58851313D02*
G01*
X18742242Y-58899976D01*
X18874906Y-58970886D01*
X18890078Y-58978996D01*
X19019659Y-59085341D01*
X19126004Y-59214922D01*
X19126005Y-59214924D01*
X19205024Y-59362758D01*
X19253687Y-59523177D01*
X19270117Y-59690000D01*
X19253687Y-59856823D01*
X19205024Y-60017242D01*
X19155978Y-60109000D01*
X19126004Y-60165078D01*
X19019659Y-60294659D01*
X18890078Y-60401004D01*
X18890076Y-60401005D01*
X18742242Y-60480024D01*
X18581823Y-60528687D01*
X18456804Y-60541000D01*
X18373196Y-60541000D01*
X18248177Y-60528687D01*
X18087758Y-60480024D01*
X17939924Y-60401005D01*
X17939922Y-60401004D01*
X17810341Y-60294659D01*
X17703996Y-60165078D01*
X17674022Y-60109000D01*
X17624976Y-60017242D01*
X17576313Y-59856823D01*
X17559883Y-59690000D01*
X17576313Y-59523177D01*
X17624976Y-59362758D01*
X17703995Y-59214924D01*
X17703996Y-59214922D01*
X17810341Y-59085341D01*
X17939922Y-58978996D01*
X17955094Y-58970886D01*
X18087758Y-58899976D01*
X18248177Y-58851313D01*
X18373196Y-58839000D01*
X18456804Y-58839000D01*
X18581823Y-58851313D01*
X18581823Y-58851313D01*
G37*
G36*
X23661823Y-57581313D02*
G01*
X23822242Y-57629976D01*
X23954906Y-57700886D01*
X23970078Y-57708996D01*
X24099659Y-57815341D01*
X24206004Y-57944922D01*
X24206005Y-57944924D01*
X24285024Y-58092758D01*
X24333687Y-58253177D01*
X24350117Y-58420000D01*
X24333687Y-58586823D01*
X24285024Y-58747242D01*
X24235978Y-58839000D01*
X24206004Y-58895078D01*
X24099659Y-59024659D01*
X23970078Y-59131004D01*
X23970076Y-59131005D01*
X23822242Y-59210024D01*
X23661823Y-59258687D01*
X23536804Y-59271000D01*
X23453196Y-59271000D01*
X23328177Y-59258687D01*
X23167758Y-59210024D01*
X23019924Y-59131005D01*
X23019922Y-59131004D01*
X22890341Y-59024659D01*
X22783996Y-58895078D01*
X22754022Y-58839000D01*
X22704976Y-58747242D01*
X22656313Y-58586823D01*
X22639883Y-58420000D01*
X22656313Y-58253177D01*
X22704976Y-58092758D01*
X22783995Y-57944924D01*
X22783996Y-57944922D01*
X22890341Y-57815341D01*
X23019922Y-57708996D01*
X23035094Y-57700886D01*
X23167758Y-57629976D01*
X23328177Y-57581313D01*
X23453196Y-57569000D01*
X23536804Y-57569000D01*
X23661823Y-57581313D01*
X23661823Y-57581313D01*
G37*
G36*
X31281823Y-57581313D02*
G01*
X31442242Y-57629976D01*
X31574906Y-57700886D01*
X31590078Y-57708996D01*
X31719659Y-57815341D01*
X31826004Y-57944922D01*
X31826005Y-57944924D01*
X31905024Y-58092758D01*
X31953687Y-58253177D01*
X31970117Y-58420000D01*
X31953687Y-58586823D01*
X31905024Y-58747242D01*
X31855978Y-58839000D01*
X31826004Y-58895078D01*
X31719659Y-59024659D01*
X31590078Y-59131004D01*
X31590076Y-59131005D01*
X31442242Y-59210024D01*
X31281823Y-59258687D01*
X31156804Y-59271000D01*
X31073196Y-59271000D01*
X30948177Y-59258687D01*
X30787758Y-59210024D01*
X30639924Y-59131005D01*
X30639922Y-59131004D01*
X30510341Y-59024659D01*
X30403996Y-58895078D01*
X30374022Y-58839000D01*
X30324976Y-58747242D01*
X30276313Y-58586823D01*
X30259883Y-58420000D01*
X30276313Y-58253177D01*
X30324976Y-58092758D01*
X30403995Y-57944924D01*
X30403996Y-57944922D01*
X30510341Y-57815341D01*
X30639922Y-57708996D01*
X30655094Y-57700886D01*
X30787758Y-57629976D01*
X30948177Y-57581313D01*
X31073196Y-57569000D01*
X31156804Y-57569000D01*
X31281823Y-57581313D01*
X31281823Y-57581313D01*
G37*
G36*
X36361823Y-56311313D02*
G01*
X36522242Y-56359976D01*
X36654906Y-56430886D01*
X36670078Y-56438996D01*
X36799659Y-56545341D01*
X36906004Y-56674922D01*
X36906005Y-56674924D01*
X36985024Y-56822758D01*
X37033687Y-56983177D01*
X37050117Y-57150000D01*
X37033687Y-57316823D01*
X36985024Y-57477242D01*
X36935978Y-57569000D01*
X36906004Y-57625078D01*
X36799659Y-57754659D01*
X36670078Y-57861004D01*
X36670076Y-57861005D01*
X36522242Y-57940024D01*
X36361823Y-57988687D01*
X36236804Y-58001000D01*
X36153196Y-58001000D01*
X36028177Y-57988687D01*
X35867758Y-57940024D01*
X35719924Y-57861005D01*
X35719922Y-57861004D01*
X35590341Y-57754659D01*
X35483996Y-57625078D01*
X35454022Y-57569000D01*
X35404976Y-57477242D01*
X35356313Y-57316823D01*
X35339883Y-57150000D01*
X35356313Y-56983177D01*
X35404976Y-56822758D01*
X35483995Y-56674924D01*
X35483996Y-56674922D01*
X35590341Y-56545341D01*
X35719922Y-56438996D01*
X35735094Y-56430886D01*
X35867758Y-56359976D01*
X36028177Y-56311313D01*
X36153196Y-56299000D01*
X36236804Y-56299000D01*
X36361823Y-56311313D01*
X36361823Y-56311313D01*
G37*
G36*
X33821823Y-56311313D02*
G01*
X33982242Y-56359976D01*
X34114906Y-56430886D01*
X34130078Y-56438996D01*
X34259659Y-56545341D01*
X34366004Y-56674922D01*
X34366005Y-56674924D01*
X34445024Y-56822758D01*
X34493687Y-56983177D01*
X34510117Y-57150000D01*
X34493687Y-57316823D01*
X34445024Y-57477242D01*
X34395978Y-57569000D01*
X34366004Y-57625078D01*
X34259659Y-57754659D01*
X34130078Y-57861004D01*
X34130076Y-57861005D01*
X33982242Y-57940024D01*
X33821823Y-57988687D01*
X33696804Y-58001000D01*
X33613196Y-58001000D01*
X33488177Y-57988687D01*
X33327758Y-57940024D01*
X33179924Y-57861005D01*
X33179922Y-57861004D01*
X33050341Y-57754659D01*
X32943996Y-57625078D01*
X32914022Y-57569000D01*
X32864976Y-57477242D01*
X32816313Y-57316823D01*
X32799883Y-57150000D01*
X32816313Y-56983177D01*
X32864976Y-56822758D01*
X32943995Y-56674924D01*
X32943996Y-56674922D01*
X33050341Y-56545341D01*
X33179922Y-56438996D01*
X33195094Y-56430886D01*
X33327758Y-56359976D01*
X33488177Y-56311313D01*
X33613196Y-56299000D01*
X33696804Y-56299000D01*
X33821823Y-56311313D01*
X33821823Y-56311313D01*
G37*
G36*
X21121823Y-56311313D02*
G01*
X21282242Y-56359976D01*
X21414906Y-56430886D01*
X21430078Y-56438996D01*
X21559659Y-56545341D01*
X21666004Y-56674922D01*
X21666005Y-56674924D01*
X21745024Y-56822758D01*
X21793687Y-56983177D01*
X21810117Y-57150000D01*
X21793687Y-57316823D01*
X21745024Y-57477242D01*
X21695978Y-57569000D01*
X21666004Y-57625078D01*
X21559659Y-57754659D01*
X21430078Y-57861004D01*
X21430076Y-57861005D01*
X21282242Y-57940024D01*
X21121823Y-57988687D01*
X20996804Y-58001000D01*
X20913196Y-58001000D01*
X20788177Y-57988687D01*
X20627758Y-57940024D01*
X20479924Y-57861005D01*
X20479922Y-57861004D01*
X20350341Y-57754659D01*
X20243996Y-57625078D01*
X20214022Y-57569000D01*
X20164976Y-57477242D01*
X20116313Y-57316823D01*
X20099883Y-57150000D01*
X20116313Y-56983177D01*
X20164976Y-56822758D01*
X20243995Y-56674924D01*
X20243996Y-56674922D01*
X20350341Y-56545341D01*
X20479922Y-56438996D01*
X20495094Y-56430886D01*
X20627758Y-56359976D01*
X20788177Y-56311313D01*
X20913196Y-56299000D01*
X20996804Y-56299000D01*
X21121823Y-56311313D01*
X21121823Y-56311313D01*
G37*
G36*
X18581823Y-56311313D02*
G01*
X18742242Y-56359976D01*
X18874906Y-56430886D01*
X18890078Y-56438996D01*
X19019659Y-56545341D01*
X19126004Y-56674922D01*
X19126005Y-56674924D01*
X19205024Y-56822758D01*
X19253687Y-56983177D01*
X19270117Y-57150000D01*
X19253687Y-57316823D01*
X19205024Y-57477242D01*
X19155978Y-57569000D01*
X19126004Y-57625078D01*
X19019659Y-57754659D01*
X18890078Y-57861004D01*
X18890076Y-57861005D01*
X18742242Y-57940024D01*
X18581823Y-57988687D01*
X18456804Y-58001000D01*
X18373196Y-58001000D01*
X18248177Y-57988687D01*
X18087758Y-57940024D01*
X17939924Y-57861005D01*
X17939922Y-57861004D01*
X17810341Y-57754659D01*
X17703996Y-57625078D01*
X17674022Y-57569000D01*
X17624976Y-57477242D01*
X17576313Y-57316823D01*
X17559883Y-57150000D01*
X17576313Y-56983177D01*
X17624976Y-56822758D01*
X17703995Y-56674924D01*
X17703996Y-56674922D01*
X17810341Y-56545341D01*
X17939922Y-56438996D01*
X17955094Y-56430886D01*
X18087758Y-56359976D01*
X18248177Y-56311313D01*
X18373196Y-56299000D01*
X18456804Y-56299000D01*
X18581823Y-56311313D01*
X18581823Y-56311313D01*
G37*
G36*
X31281823Y-55041313D02*
G01*
X31442242Y-55089976D01*
X31574906Y-55160886D01*
X31590078Y-55168996D01*
X31719659Y-55275341D01*
X31826004Y-55404922D01*
X31826005Y-55404924D01*
X31905024Y-55552758D01*
X31953687Y-55713177D01*
X31970117Y-55880000D01*
X31953687Y-56046823D01*
X31905024Y-56207242D01*
X31855978Y-56299000D01*
X31826004Y-56355078D01*
X31719659Y-56484659D01*
X31590078Y-56591004D01*
X31590076Y-56591005D01*
X31442242Y-56670024D01*
X31281823Y-56718687D01*
X31156804Y-56731000D01*
X31073196Y-56731000D01*
X30948177Y-56718687D01*
X30787758Y-56670024D01*
X30639924Y-56591005D01*
X30639922Y-56591004D01*
X30510341Y-56484659D01*
X30403996Y-56355078D01*
X30374022Y-56299000D01*
X30324976Y-56207242D01*
X30276313Y-56046823D01*
X30259883Y-55880000D01*
X30276313Y-55713177D01*
X30324976Y-55552758D01*
X30403995Y-55404924D01*
X30403996Y-55404922D01*
X30510341Y-55275341D01*
X30639922Y-55168996D01*
X30655094Y-55160886D01*
X30787758Y-55089976D01*
X30948177Y-55041313D01*
X31073196Y-55029000D01*
X31156804Y-55029000D01*
X31281823Y-55041313D01*
X31281823Y-55041313D01*
G37*
G36*
X23661823Y-55041313D02*
G01*
X23822242Y-55089976D01*
X23954906Y-55160886D01*
X23970078Y-55168996D01*
X24099659Y-55275341D01*
X24206004Y-55404922D01*
X24206005Y-55404924D01*
X24285024Y-55552758D01*
X24333687Y-55713177D01*
X24350117Y-55880000D01*
X24333687Y-56046823D01*
X24285024Y-56207242D01*
X24235978Y-56299000D01*
X24206004Y-56355078D01*
X24099659Y-56484659D01*
X23970078Y-56591004D01*
X23970076Y-56591005D01*
X23822242Y-56670024D01*
X23661823Y-56718687D01*
X23536804Y-56731000D01*
X23453196Y-56731000D01*
X23328177Y-56718687D01*
X23167758Y-56670024D01*
X23019924Y-56591005D01*
X23019922Y-56591004D01*
X22890341Y-56484659D01*
X22783996Y-56355078D01*
X22754022Y-56299000D01*
X22704976Y-56207242D01*
X22656313Y-56046823D01*
X22639883Y-55880000D01*
X22656313Y-55713177D01*
X22704976Y-55552758D01*
X22783995Y-55404924D01*
X22783996Y-55404922D01*
X22890341Y-55275341D01*
X23019922Y-55168996D01*
X23035094Y-55160886D01*
X23167758Y-55089976D01*
X23328177Y-55041313D01*
X23453196Y-55029000D01*
X23536804Y-55029000D01*
X23661823Y-55041313D01*
X23661823Y-55041313D01*
G37*
G36*
X18581823Y-53771313D02*
G01*
X18742242Y-53819976D01*
X18874906Y-53890886D01*
X18890078Y-53898996D01*
X19019659Y-54005341D01*
X19126004Y-54134922D01*
X19126005Y-54134924D01*
X19205024Y-54282758D01*
X19253687Y-54443177D01*
X19270117Y-54610000D01*
X19253687Y-54776823D01*
X19205024Y-54937242D01*
X19155978Y-55029000D01*
X19126004Y-55085078D01*
X19019659Y-55214659D01*
X18890078Y-55321004D01*
X18890076Y-55321005D01*
X18742242Y-55400024D01*
X18581823Y-55448687D01*
X18456804Y-55461000D01*
X18373196Y-55461000D01*
X18248177Y-55448687D01*
X18087758Y-55400024D01*
X17939924Y-55321005D01*
X17939922Y-55321004D01*
X17810341Y-55214659D01*
X17703996Y-55085078D01*
X17674022Y-55029000D01*
X17624976Y-54937242D01*
X17576313Y-54776823D01*
X17559883Y-54610000D01*
X17576313Y-54443177D01*
X17624976Y-54282758D01*
X17703995Y-54134924D01*
X17703996Y-54134922D01*
X17810341Y-54005341D01*
X17939922Y-53898996D01*
X17955094Y-53890886D01*
X18087758Y-53819976D01*
X18248177Y-53771313D01*
X18373196Y-53759000D01*
X18456804Y-53759000D01*
X18581823Y-53771313D01*
X18581823Y-53771313D01*
G37*
G36*
X33821823Y-53771313D02*
G01*
X33982242Y-53819976D01*
X34114906Y-53890886D01*
X34130078Y-53898996D01*
X34259659Y-54005341D01*
X34366004Y-54134922D01*
X34366005Y-54134924D01*
X34445024Y-54282758D01*
X34493687Y-54443177D01*
X34510117Y-54610000D01*
X34493687Y-54776823D01*
X34445024Y-54937242D01*
X34395978Y-55029000D01*
X34366004Y-55085078D01*
X34259659Y-55214659D01*
X34130078Y-55321004D01*
X34130076Y-55321005D01*
X33982242Y-55400024D01*
X33821823Y-55448687D01*
X33696804Y-55461000D01*
X33613196Y-55461000D01*
X33488177Y-55448687D01*
X33327758Y-55400024D01*
X33179924Y-55321005D01*
X33179922Y-55321004D01*
X33050341Y-55214659D01*
X32943996Y-55085078D01*
X32914022Y-55029000D01*
X32864976Y-54937242D01*
X32816313Y-54776823D01*
X32799883Y-54610000D01*
X32816313Y-54443177D01*
X32864976Y-54282758D01*
X32943995Y-54134924D01*
X32943996Y-54134922D01*
X33050341Y-54005341D01*
X33179922Y-53898996D01*
X33195094Y-53890886D01*
X33327758Y-53819976D01*
X33488177Y-53771313D01*
X33613196Y-53759000D01*
X33696804Y-53759000D01*
X33821823Y-53771313D01*
X33821823Y-53771313D01*
G37*
G36*
X36361823Y-53771313D02*
G01*
X36522242Y-53819976D01*
X36654906Y-53890886D01*
X36670078Y-53898996D01*
X36799659Y-54005341D01*
X36906004Y-54134922D01*
X36906005Y-54134924D01*
X36985024Y-54282758D01*
X37033687Y-54443177D01*
X37050117Y-54610000D01*
X37033687Y-54776823D01*
X36985024Y-54937242D01*
X36935978Y-55029000D01*
X36906004Y-55085078D01*
X36799659Y-55214659D01*
X36670078Y-55321004D01*
X36670076Y-55321005D01*
X36522242Y-55400024D01*
X36361823Y-55448687D01*
X36236804Y-55461000D01*
X36153196Y-55461000D01*
X36028177Y-55448687D01*
X35867758Y-55400024D01*
X35719924Y-55321005D01*
X35719922Y-55321004D01*
X35590341Y-55214659D01*
X35483996Y-55085078D01*
X35454022Y-55029000D01*
X35404976Y-54937242D01*
X35356313Y-54776823D01*
X35339883Y-54610000D01*
X35356313Y-54443177D01*
X35404976Y-54282758D01*
X35483995Y-54134924D01*
X35483996Y-54134922D01*
X35590341Y-54005341D01*
X35719922Y-53898996D01*
X35735094Y-53890886D01*
X35867758Y-53819976D01*
X36028177Y-53771313D01*
X36153196Y-53759000D01*
X36236804Y-53759000D01*
X36361823Y-53771313D01*
X36361823Y-53771313D01*
G37*
G36*
X21121823Y-53771313D02*
G01*
X21282242Y-53819976D01*
X21414906Y-53890886D01*
X21430078Y-53898996D01*
X21559659Y-54005341D01*
X21666004Y-54134922D01*
X21666005Y-54134924D01*
X21745024Y-54282758D01*
X21793687Y-54443177D01*
X21810117Y-54610000D01*
X21793687Y-54776823D01*
X21745024Y-54937242D01*
X21695978Y-55029000D01*
X21666004Y-55085078D01*
X21559659Y-55214659D01*
X21430078Y-55321004D01*
X21430076Y-55321005D01*
X21282242Y-55400024D01*
X21121823Y-55448687D01*
X20996804Y-55461000D01*
X20913196Y-55461000D01*
X20788177Y-55448687D01*
X20627758Y-55400024D01*
X20479924Y-55321005D01*
X20479922Y-55321004D01*
X20350341Y-55214659D01*
X20243996Y-55085078D01*
X20214022Y-55029000D01*
X20164976Y-54937242D01*
X20116313Y-54776823D01*
X20099883Y-54610000D01*
X20116313Y-54443177D01*
X20164976Y-54282758D01*
X20243995Y-54134924D01*
X20243996Y-54134922D01*
X20350341Y-54005341D01*
X20479922Y-53898996D01*
X20495094Y-53890886D01*
X20627758Y-53819976D01*
X20788177Y-53771313D01*
X20913196Y-53759000D01*
X20996804Y-53759000D01*
X21121823Y-53771313D01*
X21121823Y-53771313D01*
G37*
G36*
X23661823Y-52501313D02*
G01*
X23822242Y-52549976D01*
X23954906Y-52620886D01*
X23970078Y-52628996D01*
X24099659Y-52735341D01*
X24206004Y-52864922D01*
X24206005Y-52864924D01*
X24285024Y-53012758D01*
X24333687Y-53173177D01*
X24350117Y-53340000D01*
X24333687Y-53506823D01*
X24285024Y-53667242D01*
X24235978Y-53759000D01*
X24206004Y-53815078D01*
X24099659Y-53944659D01*
X23970078Y-54051004D01*
X23970076Y-54051005D01*
X23822242Y-54130024D01*
X23661823Y-54178687D01*
X23536804Y-54191000D01*
X23453196Y-54191000D01*
X23328177Y-54178687D01*
X23167758Y-54130024D01*
X23019924Y-54051005D01*
X23019922Y-54051004D01*
X22890341Y-53944659D01*
X22783996Y-53815078D01*
X22754022Y-53759000D01*
X22704976Y-53667242D01*
X22656313Y-53506823D01*
X22639883Y-53340000D01*
X22656313Y-53173177D01*
X22704976Y-53012758D01*
X22783995Y-52864924D01*
X22783996Y-52864922D01*
X22890341Y-52735341D01*
X23019922Y-52628996D01*
X23035094Y-52620886D01*
X23167758Y-52549976D01*
X23328177Y-52501313D01*
X23453196Y-52489000D01*
X23536804Y-52489000D01*
X23661823Y-52501313D01*
X23661823Y-52501313D01*
G37*
G36*
X31281823Y-52501313D02*
G01*
X31442242Y-52549976D01*
X31574906Y-52620886D01*
X31590078Y-52628996D01*
X31719659Y-52735341D01*
X31826004Y-52864922D01*
X31826005Y-52864924D01*
X31905024Y-53012758D01*
X31953687Y-53173177D01*
X31970117Y-53340000D01*
X31953687Y-53506823D01*
X31905024Y-53667242D01*
X31855978Y-53759000D01*
X31826004Y-53815078D01*
X31719659Y-53944659D01*
X31590078Y-54051004D01*
X31590076Y-54051005D01*
X31442242Y-54130024D01*
X31281823Y-54178687D01*
X31156804Y-54191000D01*
X31073196Y-54191000D01*
X30948177Y-54178687D01*
X30787758Y-54130024D01*
X30639924Y-54051005D01*
X30639922Y-54051004D01*
X30510341Y-53944659D01*
X30403996Y-53815078D01*
X30374022Y-53759000D01*
X30324976Y-53667242D01*
X30276313Y-53506823D01*
X30259883Y-53340000D01*
X30276313Y-53173177D01*
X30324976Y-53012758D01*
X30403995Y-52864924D01*
X30403996Y-52864922D01*
X30510341Y-52735341D01*
X30639922Y-52628996D01*
X30655094Y-52620886D01*
X30787758Y-52549976D01*
X30948177Y-52501313D01*
X31073196Y-52489000D01*
X31156804Y-52489000D01*
X31281823Y-52501313D01*
X31281823Y-52501313D01*
G37*
G36*
X36361823Y-51231313D02*
G01*
X36522242Y-51279976D01*
X36654906Y-51350886D01*
X36670078Y-51358996D01*
X36799659Y-51465341D01*
X36906004Y-51594922D01*
X36906005Y-51594924D01*
X36985024Y-51742758D01*
X37033687Y-51903177D01*
X37050117Y-52070000D01*
X37033687Y-52236823D01*
X36985024Y-52397242D01*
X36935978Y-52489000D01*
X36906004Y-52545078D01*
X36799659Y-52674659D01*
X36670078Y-52781004D01*
X36670076Y-52781005D01*
X36522242Y-52860024D01*
X36361823Y-52908687D01*
X36236804Y-52921000D01*
X36153196Y-52921000D01*
X36028177Y-52908687D01*
X35867758Y-52860024D01*
X35719924Y-52781005D01*
X35719922Y-52781004D01*
X35590341Y-52674659D01*
X35483996Y-52545078D01*
X35454022Y-52489000D01*
X35404976Y-52397242D01*
X35356313Y-52236823D01*
X35339883Y-52070000D01*
X35356313Y-51903177D01*
X35404976Y-51742758D01*
X35483995Y-51594924D01*
X35483996Y-51594922D01*
X35590341Y-51465341D01*
X35719922Y-51358996D01*
X35735094Y-51350886D01*
X35867758Y-51279976D01*
X36028177Y-51231313D01*
X36153196Y-51219000D01*
X36236804Y-51219000D01*
X36361823Y-51231313D01*
X36361823Y-51231313D01*
G37*
G36*
X18581823Y-51231313D02*
G01*
X18742242Y-51279976D01*
X18874906Y-51350886D01*
X18890078Y-51358996D01*
X19019659Y-51465341D01*
X19126004Y-51594922D01*
X19126005Y-51594924D01*
X19205024Y-51742758D01*
X19253687Y-51903177D01*
X19270117Y-52070000D01*
X19253687Y-52236823D01*
X19205024Y-52397242D01*
X19155978Y-52489000D01*
X19126004Y-52545078D01*
X19019659Y-52674659D01*
X18890078Y-52781004D01*
X18890076Y-52781005D01*
X18742242Y-52860024D01*
X18581823Y-52908687D01*
X18456804Y-52921000D01*
X18373196Y-52921000D01*
X18248177Y-52908687D01*
X18087758Y-52860024D01*
X17939924Y-52781005D01*
X17939922Y-52781004D01*
X17810341Y-52674659D01*
X17703996Y-52545078D01*
X17674022Y-52489000D01*
X17624976Y-52397242D01*
X17576313Y-52236823D01*
X17559883Y-52070000D01*
X17576313Y-51903177D01*
X17624976Y-51742758D01*
X17703995Y-51594924D01*
X17703996Y-51594922D01*
X17810341Y-51465341D01*
X17939922Y-51358996D01*
X17955094Y-51350886D01*
X18087758Y-51279976D01*
X18248177Y-51231313D01*
X18373196Y-51219000D01*
X18456804Y-51219000D01*
X18581823Y-51231313D01*
X18581823Y-51231313D01*
G37*
G36*
X21121823Y-51231313D02*
G01*
X21282242Y-51279976D01*
X21414906Y-51350886D01*
X21430078Y-51358996D01*
X21559659Y-51465341D01*
X21666004Y-51594922D01*
X21666005Y-51594924D01*
X21745024Y-51742758D01*
X21793687Y-51903177D01*
X21810117Y-52070000D01*
X21793687Y-52236823D01*
X21745024Y-52397242D01*
X21695978Y-52489000D01*
X21666004Y-52545078D01*
X21559659Y-52674659D01*
X21430078Y-52781004D01*
X21430076Y-52781005D01*
X21282242Y-52860024D01*
X21121823Y-52908687D01*
X20996804Y-52921000D01*
X20913196Y-52921000D01*
X20788177Y-52908687D01*
X20627758Y-52860024D01*
X20479924Y-52781005D01*
X20479922Y-52781004D01*
X20350341Y-52674659D01*
X20243996Y-52545078D01*
X20214022Y-52489000D01*
X20164976Y-52397242D01*
X20116313Y-52236823D01*
X20099883Y-52070000D01*
X20116313Y-51903177D01*
X20164976Y-51742758D01*
X20243995Y-51594924D01*
X20243996Y-51594922D01*
X20350341Y-51465341D01*
X20479922Y-51358996D01*
X20495094Y-51350886D01*
X20627758Y-51279976D01*
X20788177Y-51231313D01*
X20913196Y-51219000D01*
X20996804Y-51219000D01*
X21121823Y-51231313D01*
X21121823Y-51231313D01*
G37*
G36*
X33821823Y-51231313D02*
G01*
X33982242Y-51279976D01*
X34114906Y-51350886D01*
X34130078Y-51358996D01*
X34259659Y-51465341D01*
X34366004Y-51594922D01*
X34366005Y-51594924D01*
X34445024Y-51742758D01*
X34493687Y-51903177D01*
X34510117Y-52070000D01*
X34493687Y-52236823D01*
X34445024Y-52397242D01*
X34395978Y-52489000D01*
X34366004Y-52545078D01*
X34259659Y-52674659D01*
X34130078Y-52781004D01*
X34130076Y-52781005D01*
X33982242Y-52860024D01*
X33821823Y-52908687D01*
X33696804Y-52921000D01*
X33613196Y-52921000D01*
X33488177Y-52908687D01*
X33327758Y-52860024D01*
X33179924Y-52781005D01*
X33179922Y-52781004D01*
X33050341Y-52674659D01*
X32943996Y-52545078D01*
X32914022Y-52489000D01*
X32864976Y-52397242D01*
X32816313Y-52236823D01*
X32799883Y-52070000D01*
X32816313Y-51903177D01*
X32864976Y-51742758D01*
X32943995Y-51594924D01*
X32943996Y-51594922D01*
X33050341Y-51465341D01*
X33179922Y-51358996D01*
X33195094Y-51350886D01*
X33327758Y-51279976D01*
X33488177Y-51231313D01*
X33613196Y-51219000D01*
X33696804Y-51219000D01*
X33821823Y-51231313D01*
X33821823Y-51231313D01*
G37*
G36*
X23661823Y-49961313D02*
G01*
X23822242Y-50009976D01*
X23954906Y-50080886D01*
X23970078Y-50088996D01*
X24099659Y-50195341D01*
X24206004Y-50324922D01*
X24206005Y-50324924D01*
X24285024Y-50472758D01*
X24333687Y-50633177D01*
X24350117Y-50800000D01*
X24333687Y-50966823D01*
X24285024Y-51127242D01*
X24235978Y-51219000D01*
X24206004Y-51275078D01*
X24099659Y-51404659D01*
X23970078Y-51511004D01*
X23970076Y-51511005D01*
X23822242Y-51590024D01*
X23661823Y-51638687D01*
X23536804Y-51651000D01*
X23453196Y-51651000D01*
X23328177Y-51638687D01*
X23167758Y-51590024D01*
X23019924Y-51511005D01*
X23019922Y-51511004D01*
X22890341Y-51404659D01*
X22783996Y-51275078D01*
X22754022Y-51219000D01*
X22704976Y-51127242D01*
X22656313Y-50966823D01*
X22639883Y-50800000D01*
X22656313Y-50633177D01*
X22704976Y-50472758D01*
X22783995Y-50324924D01*
X22783996Y-50324922D01*
X22890341Y-50195341D01*
X23019922Y-50088996D01*
X23035094Y-50080886D01*
X23167758Y-50009976D01*
X23328177Y-49961313D01*
X23453196Y-49949000D01*
X23536804Y-49949000D01*
X23661823Y-49961313D01*
X23661823Y-49961313D01*
G37*
G36*
X31281823Y-49961313D02*
G01*
X31442242Y-50009976D01*
X31574906Y-50080886D01*
X31590078Y-50088996D01*
X31719659Y-50195341D01*
X31826004Y-50324922D01*
X31826005Y-50324924D01*
X31905024Y-50472758D01*
X31953687Y-50633177D01*
X31970117Y-50800000D01*
X31953687Y-50966823D01*
X31905024Y-51127242D01*
X31855978Y-51219000D01*
X31826004Y-51275078D01*
X31719659Y-51404659D01*
X31590078Y-51511004D01*
X31590076Y-51511005D01*
X31442242Y-51590024D01*
X31281823Y-51638687D01*
X31156804Y-51651000D01*
X31073196Y-51651000D01*
X30948177Y-51638687D01*
X30787758Y-51590024D01*
X30639924Y-51511005D01*
X30639922Y-51511004D01*
X30510341Y-51404659D01*
X30403996Y-51275078D01*
X30374022Y-51219000D01*
X30324976Y-51127242D01*
X30276313Y-50966823D01*
X30259883Y-50800000D01*
X30276313Y-50633177D01*
X30324976Y-50472758D01*
X30403995Y-50324924D01*
X30403996Y-50324922D01*
X30510341Y-50195341D01*
X30639922Y-50088996D01*
X30655094Y-50080886D01*
X30787758Y-50009976D01*
X30948177Y-49961313D01*
X31073196Y-49949000D01*
X31156804Y-49949000D01*
X31281823Y-49961313D01*
X31281823Y-49961313D01*
G37*
G36*
X18581823Y-48691313D02*
G01*
X18742242Y-48739976D01*
X18874906Y-48810886D01*
X18890078Y-48818996D01*
X19019659Y-48925341D01*
X19126004Y-49054922D01*
X19126005Y-49054924D01*
X19205024Y-49202758D01*
X19253687Y-49363177D01*
X19270117Y-49530000D01*
X19253687Y-49696823D01*
X19205024Y-49857242D01*
X19155978Y-49949000D01*
X19126004Y-50005078D01*
X19019659Y-50134659D01*
X18890078Y-50241004D01*
X18890076Y-50241005D01*
X18742242Y-50320024D01*
X18581823Y-50368687D01*
X18456804Y-50381000D01*
X18373196Y-50381000D01*
X18248177Y-50368687D01*
X18087758Y-50320024D01*
X17939924Y-50241005D01*
X17939922Y-50241004D01*
X17810341Y-50134659D01*
X17703996Y-50005078D01*
X17674022Y-49949000D01*
X17624976Y-49857242D01*
X17576313Y-49696823D01*
X17559883Y-49530000D01*
X17576313Y-49363177D01*
X17624976Y-49202758D01*
X17703995Y-49054924D01*
X17703996Y-49054922D01*
X17810341Y-48925341D01*
X17939922Y-48818996D01*
X17955094Y-48810886D01*
X18087758Y-48739976D01*
X18248177Y-48691313D01*
X18373196Y-48679000D01*
X18456804Y-48679000D01*
X18581823Y-48691313D01*
X18581823Y-48691313D01*
G37*
G36*
X36361823Y-48691313D02*
G01*
X36522242Y-48739976D01*
X36654906Y-48810886D01*
X36670078Y-48818996D01*
X36799659Y-48925341D01*
X36906004Y-49054922D01*
X36906005Y-49054924D01*
X36985024Y-49202758D01*
X37033687Y-49363177D01*
X37050117Y-49530000D01*
X37033687Y-49696823D01*
X36985024Y-49857242D01*
X36935978Y-49949000D01*
X36906004Y-50005078D01*
X36799659Y-50134659D01*
X36670078Y-50241004D01*
X36670076Y-50241005D01*
X36522242Y-50320024D01*
X36361823Y-50368687D01*
X36236804Y-50381000D01*
X36153196Y-50381000D01*
X36028177Y-50368687D01*
X35867758Y-50320024D01*
X35719924Y-50241005D01*
X35719922Y-50241004D01*
X35590341Y-50134659D01*
X35483996Y-50005078D01*
X35454022Y-49949000D01*
X35404976Y-49857242D01*
X35356313Y-49696823D01*
X35339883Y-49530000D01*
X35356313Y-49363177D01*
X35404976Y-49202758D01*
X35483995Y-49054924D01*
X35483996Y-49054922D01*
X35590341Y-48925341D01*
X35719922Y-48818996D01*
X35735094Y-48810886D01*
X35867758Y-48739976D01*
X36028177Y-48691313D01*
X36153196Y-48679000D01*
X36236804Y-48679000D01*
X36361823Y-48691313D01*
X36361823Y-48691313D01*
G37*
G36*
X33821823Y-48691313D02*
G01*
X33982242Y-48739976D01*
X34114906Y-48810886D01*
X34130078Y-48818996D01*
X34259659Y-48925341D01*
X34366004Y-49054922D01*
X34366005Y-49054924D01*
X34445024Y-49202758D01*
X34493687Y-49363177D01*
X34510117Y-49530000D01*
X34493687Y-49696823D01*
X34445024Y-49857242D01*
X34395978Y-49949000D01*
X34366004Y-50005078D01*
X34259659Y-50134659D01*
X34130078Y-50241004D01*
X34130076Y-50241005D01*
X33982242Y-50320024D01*
X33821823Y-50368687D01*
X33696804Y-50381000D01*
X33613196Y-50381000D01*
X33488177Y-50368687D01*
X33327758Y-50320024D01*
X33179924Y-50241005D01*
X33179922Y-50241004D01*
X33050341Y-50134659D01*
X32943996Y-50005078D01*
X32914022Y-49949000D01*
X32864976Y-49857242D01*
X32816313Y-49696823D01*
X32799883Y-49530000D01*
X32816313Y-49363177D01*
X32864976Y-49202758D01*
X32943995Y-49054924D01*
X32943996Y-49054922D01*
X33050341Y-48925341D01*
X33179922Y-48818996D01*
X33195094Y-48810886D01*
X33327758Y-48739976D01*
X33488177Y-48691313D01*
X33613196Y-48679000D01*
X33696804Y-48679000D01*
X33821823Y-48691313D01*
X33821823Y-48691313D01*
G37*
G36*
X21121823Y-48691313D02*
G01*
X21282242Y-48739976D01*
X21414906Y-48810886D01*
X21430078Y-48818996D01*
X21559659Y-48925341D01*
X21666004Y-49054922D01*
X21666005Y-49054924D01*
X21745024Y-49202758D01*
X21793687Y-49363177D01*
X21810117Y-49530000D01*
X21793687Y-49696823D01*
X21745024Y-49857242D01*
X21695978Y-49949000D01*
X21666004Y-50005078D01*
X21559659Y-50134659D01*
X21430078Y-50241004D01*
X21430076Y-50241005D01*
X21282242Y-50320024D01*
X21121823Y-50368687D01*
X20996804Y-50381000D01*
X20913196Y-50381000D01*
X20788177Y-50368687D01*
X20627758Y-50320024D01*
X20479924Y-50241005D01*
X20479922Y-50241004D01*
X20350341Y-50134659D01*
X20243996Y-50005078D01*
X20214022Y-49949000D01*
X20164976Y-49857242D01*
X20116313Y-49696823D01*
X20099883Y-49530000D01*
X20116313Y-49363177D01*
X20164976Y-49202758D01*
X20243995Y-49054924D01*
X20243996Y-49054922D01*
X20350341Y-48925341D01*
X20479922Y-48818996D01*
X20495094Y-48810886D01*
X20627758Y-48739976D01*
X20788177Y-48691313D01*
X20913196Y-48679000D01*
X20996804Y-48679000D01*
X21121823Y-48691313D01*
X21121823Y-48691313D01*
G37*
G36*
X23661823Y-47421313D02*
G01*
X23822242Y-47469976D01*
X23954906Y-47540886D01*
X23970078Y-47548996D01*
X24099659Y-47655341D01*
X24206004Y-47784922D01*
X24206005Y-47784924D01*
X24285024Y-47932758D01*
X24333687Y-48093177D01*
X24350117Y-48260000D01*
X24333687Y-48426823D01*
X24285024Y-48587242D01*
X24235978Y-48679000D01*
X24206004Y-48735078D01*
X24099659Y-48864659D01*
X23970078Y-48971004D01*
X23970076Y-48971005D01*
X23822242Y-49050024D01*
X23661823Y-49098687D01*
X23536804Y-49111000D01*
X23453196Y-49111000D01*
X23328177Y-49098687D01*
X23167758Y-49050024D01*
X23019924Y-48971005D01*
X23019922Y-48971004D01*
X22890341Y-48864659D01*
X22783996Y-48735078D01*
X22754022Y-48679000D01*
X22704976Y-48587242D01*
X22656313Y-48426823D01*
X22639883Y-48260000D01*
X22656313Y-48093177D01*
X22704976Y-47932758D01*
X22783995Y-47784924D01*
X22783996Y-47784922D01*
X22890341Y-47655341D01*
X23019922Y-47548996D01*
X23035094Y-47540886D01*
X23167758Y-47469976D01*
X23328177Y-47421313D01*
X23453196Y-47409000D01*
X23536804Y-47409000D01*
X23661823Y-47421313D01*
X23661823Y-47421313D01*
G37*
G36*
X31281823Y-47421313D02*
G01*
X31442242Y-47469976D01*
X31574906Y-47540886D01*
X31590078Y-47548996D01*
X31719659Y-47655341D01*
X31826004Y-47784922D01*
X31826005Y-47784924D01*
X31905024Y-47932758D01*
X31953687Y-48093177D01*
X31970117Y-48260000D01*
X31953687Y-48426823D01*
X31905024Y-48587242D01*
X31855978Y-48679000D01*
X31826004Y-48735078D01*
X31719659Y-48864659D01*
X31590078Y-48971004D01*
X31590076Y-48971005D01*
X31442242Y-49050024D01*
X31281823Y-49098687D01*
X31156804Y-49111000D01*
X31073196Y-49111000D01*
X30948177Y-49098687D01*
X30787758Y-49050024D01*
X30639924Y-48971005D01*
X30639922Y-48971004D01*
X30510341Y-48864659D01*
X30403996Y-48735078D01*
X30374022Y-48679000D01*
X30324976Y-48587242D01*
X30276313Y-48426823D01*
X30259883Y-48260000D01*
X30276313Y-48093177D01*
X30324976Y-47932758D01*
X30403995Y-47784924D01*
X30403996Y-47784922D01*
X30510341Y-47655341D01*
X30639922Y-47548996D01*
X30655094Y-47540886D01*
X30787758Y-47469976D01*
X30948177Y-47421313D01*
X31073196Y-47409000D01*
X31156804Y-47409000D01*
X31281823Y-47421313D01*
X31281823Y-47421313D01*
G37*
G36*
X36361823Y-46151313D02*
G01*
X36522242Y-46199976D01*
X36654906Y-46270886D01*
X36670078Y-46278996D01*
X36799659Y-46385341D01*
X36906004Y-46514922D01*
X36906005Y-46514924D01*
X36985024Y-46662758D01*
X37033687Y-46823177D01*
X37050117Y-46990000D01*
X37033687Y-47156823D01*
X36985024Y-47317242D01*
X36935978Y-47409000D01*
X36906004Y-47465078D01*
X36799659Y-47594659D01*
X36670078Y-47701004D01*
X36670076Y-47701005D01*
X36522242Y-47780024D01*
X36361823Y-47828687D01*
X36236804Y-47841000D01*
X36153196Y-47841000D01*
X36028177Y-47828687D01*
X35867758Y-47780024D01*
X35719924Y-47701005D01*
X35719922Y-47701004D01*
X35590341Y-47594659D01*
X35483996Y-47465078D01*
X35454022Y-47409000D01*
X35404976Y-47317242D01*
X35356313Y-47156823D01*
X35339883Y-46990000D01*
X35356313Y-46823177D01*
X35404976Y-46662758D01*
X35483995Y-46514924D01*
X35483996Y-46514922D01*
X35590341Y-46385341D01*
X35719922Y-46278996D01*
X35735094Y-46270886D01*
X35867758Y-46199976D01*
X36028177Y-46151313D01*
X36153196Y-46139000D01*
X36236804Y-46139000D01*
X36361823Y-46151313D01*
X36361823Y-46151313D01*
G37*
G36*
X21121823Y-46151313D02*
G01*
X21282242Y-46199976D01*
X21414906Y-46270886D01*
X21430078Y-46278996D01*
X21559659Y-46385341D01*
X21666004Y-46514922D01*
X21666005Y-46514924D01*
X21745024Y-46662758D01*
X21793687Y-46823177D01*
X21810117Y-46990000D01*
X21793687Y-47156823D01*
X21745024Y-47317242D01*
X21695978Y-47409000D01*
X21666004Y-47465078D01*
X21559659Y-47594659D01*
X21430078Y-47701004D01*
X21430076Y-47701005D01*
X21282242Y-47780024D01*
X21121823Y-47828687D01*
X20996804Y-47841000D01*
X20913196Y-47841000D01*
X20788177Y-47828687D01*
X20627758Y-47780024D01*
X20479924Y-47701005D01*
X20479922Y-47701004D01*
X20350341Y-47594659D01*
X20243996Y-47465078D01*
X20214022Y-47409000D01*
X20164976Y-47317242D01*
X20116313Y-47156823D01*
X20099883Y-46990000D01*
X20116313Y-46823177D01*
X20164976Y-46662758D01*
X20243995Y-46514924D01*
X20243996Y-46514922D01*
X20350341Y-46385341D01*
X20479922Y-46278996D01*
X20495094Y-46270886D01*
X20627758Y-46199976D01*
X20788177Y-46151313D01*
X20913196Y-46139000D01*
X20996804Y-46139000D01*
X21121823Y-46151313D01*
X21121823Y-46151313D01*
G37*
G36*
X18581823Y-46151313D02*
G01*
X18742242Y-46199976D01*
X18874906Y-46270886D01*
X18890078Y-46278996D01*
X19019659Y-46385341D01*
X19126004Y-46514922D01*
X19126005Y-46514924D01*
X19205024Y-46662758D01*
X19253687Y-46823177D01*
X19270117Y-46990000D01*
X19253687Y-47156823D01*
X19205024Y-47317242D01*
X19155978Y-47409000D01*
X19126004Y-47465078D01*
X19019659Y-47594659D01*
X18890078Y-47701004D01*
X18890076Y-47701005D01*
X18742242Y-47780024D01*
X18581823Y-47828687D01*
X18456804Y-47841000D01*
X18373196Y-47841000D01*
X18248177Y-47828687D01*
X18087758Y-47780024D01*
X17939924Y-47701005D01*
X17939922Y-47701004D01*
X17810341Y-47594659D01*
X17703996Y-47465078D01*
X17674022Y-47409000D01*
X17624976Y-47317242D01*
X17576313Y-47156823D01*
X17559883Y-46990000D01*
X17576313Y-46823177D01*
X17624976Y-46662758D01*
X17703995Y-46514924D01*
X17703996Y-46514922D01*
X17810341Y-46385341D01*
X17939922Y-46278996D01*
X17955094Y-46270886D01*
X18087758Y-46199976D01*
X18248177Y-46151313D01*
X18373196Y-46139000D01*
X18456804Y-46139000D01*
X18581823Y-46151313D01*
X18581823Y-46151313D01*
G37*
G36*
X33821823Y-46151313D02*
G01*
X33982242Y-46199976D01*
X34114906Y-46270886D01*
X34130078Y-46278996D01*
X34259659Y-46385341D01*
X34366004Y-46514922D01*
X34366005Y-46514924D01*
X34445024Y-46662758D01*
X34493687Y-46823177D01*
X34510117Y-46990000D01*
X34493687Y-47156823D01*
X34445024Y-47317242D01*
X34395978Y-47409000D01*
X34366004Y-47465078D01*
X34259659Y-47594659D01*
X34130078Y-47701004D01*
X34130076Y-47701005D01*
X33982242Y-47780024D01*
X33821823Y-47828687D01*
X33696804Y-47841000D01*
X33613196Y-47841000D01*
X33488177Y-47828687D01*
X33327758Y-47780024D01*
X33179924Y-47701005D01*
X33179922Y-47701004D01*
X33050341Y-47594659D01*
X32943996Y-47465078D01*
X32914022Y-47409000D01*
X32864976Y-47317242D01*
X32816313Y-47156823D01*
X32799883Y-46990000D01*
X32816313Y-46823177D01*
X32864976Y-46662758D01*
X32943995Y-46514924D01*
X32943996Y-46514922D01*
X33050341Y-46385341D01*
X33179922Y-46278996D01*
X33195094Y-46270886D01*
X33327758Y-46199976D01*
X33488177Y-46151313D01*
X33613196Y-46139000D01*
X33696804Y-46139000D01*
X33821823Y-46151313D01*
X33821823Y-46151313D01*
G37*
G36*
X31281823Y-44881313D02*
G01*
X31442242Y-44929976D01*
X31574906Y-45000886D01*
X31590078Y-45008996D01*
X31719659Y-45115341D01*
X31826004Y-45244922D01*
X31826005Y-45244924D01*
X31905024Y-45392758D01*
X31953687Y-45553177D01*
X31970117Y-45720000D01*
X31953687Y-45886823D01*
X31905024Y-46047242D01*
X31855978Y-46139000D01*
X31826004Y-46195078D01*
X31719659Y-46324659D01*
X31590078Y-46431004D01*
X31590076Y-46431005D01*
X31442242Y-46510024D01*
X31281823Y-46558687D01*
X31156804Y-46571000D01*
X31073196Y-46571000D01*
X30948177Y-46558687D01*
X30787758Y-46510024D01*
X30639924Y-46431005D01*
X30639922Y-46431004D01*
X30510341Y-46324659D01*
X30403996Y-46195078D01*
X30374022Y-46139000D01*
X30324976Y-46047242D01*
X30276313Y-45886823D01*
X30259883Y-45720000D01*
X30276313Y-45553177D01*
X30324976Y-45392758D01*
X30403995Y-45244924D01*
X30403996Y-45244922D01*
X30510341Y-45115341D01*
X30639922Y-45008996D01*
X30655094Y-45000886D01*
X30787758Y-44929976D01*
X30948177Y-44881313D01*
X31073196Y-44869000D01*
X31156804Y-44869000D01*
X31281823Y-44881313D01*
X31281823Y-44881313D01*
G37*
G36*
X23661823Y-44881313D02*
G01*
X23822242Y-44929976D01*
X23954906Y-45000886D01*
X23970078Y-45008996D01*
X24099659Y-45115341D01*
X24206004Y-45244922D01*
X24206005Y-45244924D01*
X24285024Y-45392758D01*
X24333687Y-45553177D01*
X24350117Y-45720000D01*
X24333687Y-45886823D01*
X24285024Y-46047242D01*
X24235978Y-46139000D01*
X24206004Y-46195078D01*
X24099659Y-46324659D01*
X23970078Y-46431004D01*
X23970076Y-46431005D01*
X23822242Y-46510024D01*
X23661823Y-46558687D01*
X23536804Y-46571000D01*
X23453196Y-46571000D01*
X23328177Y-46558687D01*
X23167758Y-46510024D01*
X23019924Y-46431005D01*
X23019922Y-46431004D01*
X22890341Y-46324659D01*
X22783996Y-46195078D01*
X22754022Y-46139000D01*
X22704976Y-46047242D01*
X22656313Y-45886823D01*
X22639883Y-45720000D01*
X22656313Y-45553177D01*
X22704976Y-45392758D01*
X22783995Y-45244924D01*
X22783996Y-45244922D01*
X22890341Y-45115341D01*
X23019922Y-45008996D01*
X23035094Y-45000886D01*
X23167758Y-44929976D01*
X23328177Y-44881313D01*
X23453196Y-44869000D01*
X23536804Y-44869000D01*
X23661823Y-44881313D01*
X23661823Y-44881313D01*
G37*
G36*
X18581823Y-43611313D02*
G01*
X18742242Y-43659976D01*
X18874906Y-43730886D01*
X18890078Y-43738996D01*
X19019659Y-43845341D01*
X19126004Y-43974922D01*
X19126005Y-43974924D01*
X19205024Y-44122758D01*
X19253687Y-44283177D01*
X19270117Y-44450000D01*
X19253687Y-44616823D01*
X19205024Y-44777242D01*
X19155978Y-44869000D01*
X19126004Y-44925078D01*
X19019659Y-45054659D01*
X18890078Y-45161004D01*
X18890076Y-45161005D01*
X18742242Y-45240024D01*
X18581823Y-45288687D01*
X18456804Y-45301000D01*
X18373196Y-45301000D01*
X18248177Y-45288687D01*
X18087758Y-45240024D01*
X17939924Y-45161005D01*
X17939922Y-45161004D01*
X17810341Y-45054659D01*
X17703996Y-44925078D01*
X17674022Y-44869000D01*
X17624976Y-44777242D01*
X17576313Y-44616823D01*
X17559883Y-44450000D01*
X17576313Y-44283177D01*
X17624976Y-44122758D01*
X17703995Y-43974924D01*
X17703996Y-43974922D01*
X17810341Y-43845341D01*
X17939922Y-43738996D01*
X17955094Y-43730886D01*
X18087758Y-43659976D01*
X18248177Y-43611313D01*
X18373196Y-43599000D01*
X18456804Y-43599000D01*
X18581823Y-43611313D01*
X18581823Y-43611313D01*
G37*
G36*
X21121823Y-43611313D02*
G01*
X21282242Y-43659976D01*
X21414906Y-43730886D01*
X21430078Y-43738996D01*
X21559659Y-43845341D01*
X21666004Y-43974922D01*
X21666005Y-43974924D01*
X21745024Y-44122758D01*
X21793687Y-44283177D01*
X21810117Y-44450000D01*
X21793687Y-44616823D01*
X21745024Y-44777242D01*
X21695978Y-44869000D01*
X21666004Y-44925078D01*
X21559659Y-45054659D01*
X21430078Y-45161004D01*
X21430076Y-45161005D01*
X21282242Y-45240024D01*
X21121823Y-45288687D01*
X20996804Y-45301000D01*
X20913196Y-45301000D01*
X20788177Y-45288687D01*
X20627758Y-45240024D01*
X20479924Y-45161005D01*
X20479922Y-45161004D01*
X20350341Y-45054659D01*
X20243996Y-44925078D01*
X20214022Y-44869000D01*
X20164976Y-44777242D01*
X20116313Y-44616823D01*
X20099883Y-44450000D01*
X20116313Y-44283177D01*
X20164976Y-44122758D01*
X20243995Y-43974924D01*
X20243996Y-43974922D01*
X20350341Y-43845341D01*
X20479922Y-43738996D01*
X20495094Y-43730886D01*
X20627758Y-43659976D01*
X20788177Y-43611313D01*
X20913196Y-43599000D01*
X20996804Y-43599000D01*
X21121823Y-43611313D01*
X21121823Y-43611313D01*
G37*
G36*
X33821823Y-43611313D02*
G01*
X33982242Y-43659976D01*
X34114906Y-43730886D01*
X34130078Y-43738996D01*
X34259659Y-43845341D01*
X34366004Y-43974922D01*
X34366005Y-43974924D01*
X34445024Y-44122758D01*
X34493687Y-44283177D01*
X34510117Y-44450000D01*
X34493687Y-44616823D01*
X34445024Y-44777242D01*
X34395978Y-44869000D01*
X34366004Y-44925078D01*
X34259659Y-45054659D01*
X34130078Y-45161004D01*
X34130076Y-45161005D01*
X33982242Y-45240024D01*
X33821823Y-45288687D01*
X33696804Y-45301000D01*
X33613196Y-45301000D01*
X33488177Y-45288687D01*
X33327758Y-45240024D01*
X33179924Y-45161005D01*
X33179922Y-45161004D01*
X33050341Y-45054659D01*
X32943996Y-44925078D01*
X32914022Y-44869000D01*
X32864976Y-44777242D01*
X32816313Y-44616823D01*
X32799883Y-44450000D01*
X32816313Y-44283177D01*
X32864976Y-44122758D01*
X32943995Y-43974924D01*
X32943996Y-43974922D01*
X33050341Y-43845341D01*
X33179922Y-43738996D01*
X33195094Y-43730886D01*
X33327758Y-43659976D01*
X33488177Y-43611313D01*
X33613196Y-43599000D01*
X33696804Y-43599000D01*
X33821823Y-43611313D01*
X33821823Y-43611313D01*
G37*
G36*
X36361823Y-43611313D02*
G01*
X36522242Y-43659976D01*
X36654906Y-43730886D01*
X36670078Y-43738996D01*
X36799659Y-43845341D01*
X36906004Y-43974922D01*
X36906005Y-43974924D01*
X36985024Y-44122758D01*
X37033687Y-44283177D01*
X37050117Y-44450000D01*
X37033687Y-44616823D01*
X36985024Y-44777242D01*
X36935978Y-44869000D01*
X36906004Y-44925078D01*
X36799659Y-45054659D01*
X36670078Y-45161004D01*
X36670076Y-45161005D01*
X36522242Y-45240024D01*
X36361823Y-45288687D01*
X36236804Y-45301000D01*
X36153196Y-45301000D01*
X36028177Y-45288687D01*
X35867758Y-45240024D01*
X35719924Y-45161005D01*
X35719922Y-45161004D01*
X35590341Y-45054659D01*
X35483996Y-44925078D01*
X35454022Y-44869000D01*
X35404976Y-44777242D01*
X35356313Y-44616823D01*
X35339883Y-44450000D01*
X35356313Y-44283177D01*
X35404976Y-44122758D01*
X35483995Y-43974924D01*
X35483996Y-43974922D01*
X35590341Y-43845341D01*
X35719922Y-43738996D01*
X35735094Y-43730886D01*
X35867758Y-43659976D01*
X36028177Y-43611313D01*
X36153196Y-43599000D01*
X36236804Y-43599000D01*
X36361823Y-43611313D01*
X36361823Y-43611313D01*
G37*
G36*
X24346000Y-44031000D02*
G01*
X22644000Y-44031000D01*
X22644000Y-42329000D01*
X24346000Y-42329000D01*
X24346000Y-44031000D01*
X24346000Y-44031000D01*
G37*
G36*
X31281823Y-42341313D02*
G01*
X31442242Y-42389976D01*
X31574906Y-42460886D01*
X31590078Y-42468996D01*
X31719659Y-42575341D01*
X31826004Y-42704922D01*
X31826005Y-42704924D01*
X31905024Y-42852758D01*
X31953687Y-43013177D01*
X31970117Y-43180000D01*
X31953687Y-43346823D01*
X31905024Y-43507242D01*
X31855978Y-43599000D01*
X31826004Y-43655078D01*
X31719659Y-43784659D01*
X31590078Y-43891004D01*
X31590076Y-43891005D01*
X31442242Y-43970024D01*
X31281823Y-44018687D01*
X31156804Y-44031000D01*
X31073196Y-44031000D01*
X30948177Y-44018687D01*
X30787758Y-43970024D01*
X30639924Y-43891005D01*
X30639922Y-43891004D01*
X30510341Y-43784659D01*
X30403996Y-43655078D01*
X30374022Y-43599000D01*
X30324976Y-43507242D01*
X30276313Y-43346823D01*
X30259883Y-43180000D01*
X30276313Y-43013177D01*
X30324976Y-42852758D01*
X30403995Y-42704924D01*
X30403996Y-42704922D01*
X30510341Y-42575341D01*
X30639922Y-42468996D01*
X30655094Y-42460886D01*
X30787758Y-42389976D01*
X30948177Y-42341313D01*
X31073196Y-42329000D01*
X31156804Y-42329000D01*
X31281823Y-42341313D01*
X31281823Y-42341313D01*
G37*
G36*
X36361823Y-41071313D02*
G01*
X36522242Y-41119976D01*
X36654906Y-41190886D01*
X36670078Y-41198996D01*
X36799659Y-41305341D01*
X36906004Y-41434922D01*
X36906005Y-41434924D01*
X36985024Y-41582758D01*
X37033687Y-41743177D01*
X37050117Y-41910000D01*
X37033687Y-42076823D01*
X36985024Y-42237242D01*
X36935978Y-42329000D01*
X36906004Y-42385078D01*
X36799659Y-42514659D01*
X36670078Y-42621004D01*
X36670076Y-42621005D01*
X36522242Y-42700024D01*
X36361823Y-42748687D01*
X36236804Y-42761000D01*
X36153196Y-42761000D01*
X36028177Y-42748687D01*
X35867758Y-42700024D01*
X35719924Y-42621005D01*
X35719922Y-42621004D01*
X35590341Y-42514659D01*
X35483996Y-42385078D01*
X35454022Y-42329000D01*
X35404976Y-42237242D01*
X35356313Y-42076823D01*
X35339883Y-41910000D01*
X35356313Y-41743177D01*
X35404976Y-41582758D01*
X35483995Y-41434924D01*
X35483996Y-41434922D01*
X35590341Y-41305341D01*
X35719922Y-41198996D01*
X35735094Y-41190886D01*
X35867758Y-41119976D01*
X36028177Y-41071313D01*
X36153196Y-41059000D01*
X36236804Y-41059000D01*
X36361823Y-41071313D01*
X36361823Y-41071313D01*
G37*
G36*
X33821823Y-41071313D02*
G01*
X33982242Y-41119976D01*
X34114906Y-41190886D01*
X34130078Y-41198996D01*
X34259659Y-41305341D01*
X34366004Y-41434922D01*
X34366005Y-41434924D01*
X34445024Y-41582758D01*
X34493687Y-41743177D01*
X34510117Y-41910000D01*
X34493687Y-42076823D01*
X34445024Y-42237242D01*
X34395978Y-42329000D01*
X34366004Y-42385078D01*
X34259659Y-42514659D01*
X34130078Y-42621004D01*
X34130076Y-42621005D01*
X33982242Y-42700024D01*
X33821823Y-42748687D01*
X33696804Y-42761000D01*
X33613196Y-42761000D01*
X33488177Y-42748687D01*
X33327758Y-42700024D01*
X33179924Y-42621005D01*
X33179922Y-42621004D01*
X33050341Y-42514659D01*
X32943996Y-42385078D01*
X32914022Y-42329000D01*
X32864976Y-42237242D01*
X32816313Y-42076823D01*
X32799883Y-41910000D01*
X32816313Y-41743177D01*
X32864976Y-41582758D01*
X32943995Y-41434924D01*
X32943996Y-41434922D01*
X33050341Y-41305341D01*
X33179922Y-41198996D01*
X33195094Y-41190886D01*
X33327758Y-41119976D01*
X33488177Y-41071313D01*
X33613196Y-41059000D01*
X33696804Y-41059000D01*
X33821823Y-41071313D01*
X33821823Y-41071313D01*
G37*
G36*
X21121823Y-41071313D02*
G01*
X21282242Y-41119976D01*
X21414906Y-41190886D01*
X21430078Y-41198996D01*
X21559659Y-41305341D01*
X21666004Y-41434922D01*
X21666005Y-41434924D01*
X21745024Y-41582758D01*
X21793687Y-41743177D01*
X21810117Y-41910000D01*
X21793687Y-42076823D01*
X21745024Y-42237242D01*
X21695978Y-42329000D01*
X21666004Y-42385078D01*
X21559659Y-42514659D01*
X21430078Y-42621004D01*
X21430076Y-42621005D01*
X21282242Y-42700024D01*
X21121823Y-42748687D01*
X20996804Y-42761000D01*
X20913196Y-42761000D01*
X20788177Y-42748687D01*
X20627758Y-42700024D01*
X20479924Y-42621005D01*
X20479922Y-42621004D01*
X20350341Y-42514659D01*
X20243996Y-42385078D01*
X20214022Y-42329000D01*
X20164976Y-42237242D01*
X20116313Y-42076823D01*
X20099883Y-41910000D01*
X20116313Y-41743177D01*
X20164976Y-41582758D01*
X20243995Y-41434924D01*
X20243996Y-41434922D01*
X20350341Y-41305341D01*
X20479922Y-41198996D01*
X20495094Y-41190886D01*
X20627758Y-41119976D01*
X20788177Y-41071313D01*
X20913196Y-41059000D01*
X20996804Y-41059000D01*
X21121823Y-41071313D01*
X21121823Y-41071313D01*
G37*
G36*
X18581823Y-41071313D02*
G01*
X18742242Y-41119976D01*
X18874906Y-41190886D01*
X18890078Y-41198996D01*
X19019659Y-41305341D01*
X19126004Y-41434922D01*
X19126005Y-41434924D01*
X19205024Y-41582758D01*
X19253687Y-41743177D01*
X19270117Y-41910000D01*
X19253687Y-42076823D01*
X19205024Y-42237242D01*
X19155978Y-42329000D01*
X19126004Y-42385078D01*
X19019659Y-42514659D01*
X18890078Y-42621004D01*
X18890076Y-42621005D01*
X18742242Y-42700024D01*
X18581823Y-42748687D01*
X18456804Y-42761000D01*
X18373196Y-42761000D01*
X18248177Y-42748687D01*
X18087758Y-42700024D01*
X17939924Y-42621005D01*
X17939922Y-42621004D01*
X17810341Y-42514659D01*
X17703996Y-42385078D01*
X17674022Y-42329000D01*
X17624976Y-42237242D01*
X17576313Y-42076823D01*
X17559883Y-41910000D01*
X17576313Y-41743177D01*
X17624976Y-41582758D01*
X17703995Y-41434924D01*
X17703996Y-41434922D01*
X17810341Y-41305341D01*
X17939922Y-41198996D01*
X17955094Y-41190886D01*
X18087758Y-41119976D01*
X18248177Y-41071313D01*
X18373196Y-41059000D01*
X18456804Y-41059000D01*
X18581823Y-41071313D01*
X18581823Y-41071313D01*
G37*
G36*
X18581823Y-38531313D02*
G01*
X18742242Y-38579976D01*
X18874906Y-38650886D01*
X18890078Y-38658996D01*
X19019659Y-38765341D01*
X19126004Y-38894922D01*
X19126005Y-38894924D01*
X19205024Y-39042758D01*
X19253687Y-39203177D01*
X19270117Y-39370000D01*
X19253687Y-39536823D01*
X19205024Y-39697242D01*
X19134114Y-39829906D01*
X19126004Y-39845078D01*
X19019659Y-39974659D01*
X18890078Y-40081004D01*
X18890076Y-40081005D01*
X18742242Y-40160024D01*
X18581823Y-40208687D01*
X18456804Y-40221000D01*
X18373196Y-40221000D01*
X18248177Y-40208687D01*
X18087758Y-40160024D01*
X17939924Y-40081005D01*
X17939922Y-40081004D01*
X17810341Y-39974659D01*
X17703996Y-39845078D01*
X17695886Y-39829906D01*
X17624976Y-39697242D01*
X17576313Y-39536823D01*
X17559883Y-39370000D01*
X17576313Y-39203177D01*
X17624976Y-39042758D01*
X17703995Y-38894924D01*
X17703996Y-38894922D01*
X17810341Y-38765341D01*
X17939922Y-38658996D01*
X17955094Y-38650886D01*
X18087758Y-38579976D01*
X18248177Y-38531313D01*
X18373196Y-38519000D01*
X18456804Y-38519000D01*
X18581823Y-38531313D01*
X18581823Y-38531313D01*
G37*
G36*
X33821823Y-38531313D02*
G01*
X33982242Y-38579976D01*
X34114906Y-38650886D01*
X34130078Y-38658996D01*
X34259659Y-38765341D01*
X34366004Y-38894922D01*
X34366005Y-38894924D01*
X34445024Y-39042758D01*
X34493687Y-39203177D01*
X34510117Y-39370000D01*
X34493687Y-39536823D01*
X34445024Y-39697242D01*
X34374114Y-39829906D01*
X34366004Y-39845078D01*
X34259659Y-39974659D01*
X34130078Y-40081004D01*
X34130076Y-40081005D01*
X33982242Y-40160024D01*
X33821823Y-40208687D01*
X33696804Y-40221000D01*
X33613196Y-40221000D01*
X33488177Y-40208687D01*
X33327758Y-40160024D01*
X33179924Y-40081005D01*
X33179922Y-40081004D01*
X33050341Y-39974659D01*
X32943996Y-39845078D01*
X32935886Y-39829906D01*
X32864976Y-39697242D01*
X32816313Y-39536823D01*
X32799883Y-39370000D01*
X32816313Y-39203177D01*
X32864976Y-39042758D01*
X32943995Y-38894924D01*
X32943996Y-38894922D01*
X33050341Y-38765341D01*
X33179922Y-38658996D01*
X33195094Y-38650886D01*
X33327758Y-38579976D01*
X33488177Y-38531313D01*
X33613196Y-38519000D01*
X33696804Y-38519000D01*
X33821823Y-38531313D01*
X33821823Y-38531313D01*
G37*
G36*
X36361823Y-38531313D02*
G01*
X36522242Y-38579976D01*
X36654906Y-38650886D01*
X36670078Y-38658996D01*
X36799659Y-38765341D01*
X36906004Y-38894922D01*
X36906005Y-38894924D01*
X36985024Y-39042758D01*
X37033687Y-39203177D01*
X37050117Y-39370000D01*
X37033687Y-39536823D01*
X36985024Y-39697242D01*
X36914114Y-39829906D01*
X36906004Y-39845078D01*
X36799659Y-39974659D01*
X36670078Y-40081004D01*
X36670076Y-40081005D01*
X36522242Y-40160024D01*
X36361823Y-40208687D01*
X36236804Y-40221000D01*
X36153196Y-40221000D01*
X36028177Y-40208687D01*
X35867758Y-40160024D01*
X35719924Y-40081005D01*
X35719922Y-40081004D01*
X35590341Y-39974659D01*
X35483996Y-39845078D01*
X35475886Y-39829906D01*
X35404976Y-39697242D01*
X35356313Y-39536823D01*
X35339883Y-39370000D01*
X35356313Y-39203177D01*
X35404976Y-39042758D01*
X35483995Y-38894924D01*
X35483996Y-38894922D01*
X35590341Y-38765341D01*
X35719922Y-38658996D01*
X35735094Y-38650886D01*
X35867758Y-38579976D01*
X36028177Y-38531313D01*
X36153196Y-38519000D01*
X36236804Y-38519000D01*
X36361823Y-38531313D01*
X36361823Y-38531313D01*
G37*
G36*
X31281823Y-38531313D02*
G01*
X31442242Y-38579976D01*
X31574906Y-38650886D01*
X31590078Y-38658996D01*
X31719659Y-38765341D01*
X31826004Y-38894922D01*
X31826005Y-38894924D01*
X31905024Y-39042758D01*
X31953687Y-39203177D01*
X31970117Y-39370000D01*
X31953687Y-39536823D01*
X31905024Y-39697242D01*
X31834114Y-39829906D01*
X31826004Y-39845078D01*
X31719659Y-39974659D01*
X31590078Y-40081004D01*
X31590076Y-40081005D01*
X31442242Y-40160024D01*
X31281823Y-40208687D01*
X31156804Y-40221000D01*
X31073196Y-40221000D01*
X30948177Y-40208687D01*
X30787758Y-40160024D01*
X30639924Y-40081005D01*
X30639922Y-40081004D01*
X30510341Y-39974659D01*
X30403996Y-39845078D01*
X30395886Y-39829906D01*
X30324976Y-39697242D01*
X30276313Y-39536823D01*
X30259883Y-39370000D01*
X30276313Y-39203177D01*
X30324976Y-39042758D01*
X30403995Y-38894924D01*
X30403996Y-38894922D01*
X30510341Y-38765341D01*
X30639922Y-38658996D01*
X30655094Y-38650886D01*
X30787758Y-38579976D01*
X30948177Y-38531313D01*
X31073196Y-38519000D01*
X31156804Y-38519000D01*
X31281823Y-38531313D01*
X31281823Y-38531313D01*
G37*
G36*
X21121823Y-38531313D02*
G01*
X21282242Y-38579976D01*
X21414906Y-38650886D01*
X21430078Y-38658996D01*
X21559659Y-38765341D01*
X21666004Y-38894922D01*
X21666005Y-38894924D01*
X21745024Y-39042758D01*
X21793687Y-39203177D01*
X21810117Y-39370000D01*
X21793687Y-39536823D01*
X21745024Y-39697242D01*
X21674114Y-39829906D01*
X21666004Y-39845078D01*
X21559659Y-39974659D01*
X21430078Y-40081004D01*
X21430076Y-40081005D01*
X21282242Y-40160024D01*
X21121823Y-40208687D01*
X20996804Y-40221000D01*
X20913196Y-40221000D01*
X20788177Y-40208687D01*
X20627758Y-40160024D01*
X20479924Y-40081005D01*
X20479922Y-40081004D01*
X20350341Y-39974659D01*
X20243996Y-39845078D01*
X20235886Y-39829906D01*
X20164976Y-39697242D01*
X20116313Y-39536823D01*
X20099883Y-39370000D01*
X20116313Y-39203177D01*
X20164976Y-39042758D01*
X20243995Y-38894924D01*
X20243996Y-38894922D01*
X20350341Y-38765341D01*
X20479922Y-38658996D01*
X20495094Y-38650886D01*
X20627758Y-38579976D01*
X20788177Y-38531313D01*
X20913196Y-38519000D01*
X20996804Y-38519000D01*
X21121823Y-38531313D01*
X21121823Y-38531313D01*
G37*
G36*
X23661823Y-38531313D02*
G01*
X23822242Y-38579976D01*
X23954906Y-38650886D01*
X23970078Y-38658996D01*
X24099659Y-38765341D01*
X24206004Y-38894922D01*
X24206005Y-38894924D01*
X24285024Y-39042758D01*
X24333687Y-39203177D01*
X24350117Y-39370000D01*
X24333687Y-39536823D01*
X24285024Y-39697242D01*
X24214114Y-39829906D01*
X24206004Y-39845078D01*
X24099659Y-39974659D01*
X23970078Y-40081004D01*
X23970076Y-40081005D01*
X23822242Y-40160024D01*
X23661823Y-40208687D01*
X23536804Y-40221000D01*
X23453196Y-40221000D01*
X23328177Y-40208687D01*
X23167758Y-40160024D01*
X23019924Y-40081005D01*
X23019922Y-40081004D01*
X22890341Y-39974659D01*
X22783996Y-39845078D01*
X22775886Y-39829906D01*
X22704976Y-39697242D01*
X22656313Y-39536823D01*
X22639883Y-39370000D01*
X22656313Y-39203177D01*
X22704976Y-39042758D01*
X22783995Y-38894924D01*
X22783996Y-38894922D01*
X22890341Y-38765341D01*
X23019922Y-38658996D01*
X23035094Y-38650886D01*
X23167758Y-38579976D01*
X23328177Y-38531313D01*
X23453196Y-38519000D01*
X23536804Y-38519000D01*
X23661823Y-38531313D01*
X23661823Y-38531313D01*
G37*
G36*
X18581823Y-35991313D02*
G01*
X18742242Y-36039976D01*
X18874906Y-36110886D01*
X18890078Y-36118996D01*
X19019659Y-36225341D01*
X19126004Y-36354922D01*
X19126005Y-36354924D01*
X19205024Y-36502758D01*
X19253687Y-36663177D01*
X19270117Y-36830000D01*
X19253687Y-36996823D01*
X19205024Y-37157242D01*
X19134114Y-37289906D01*
X19126004Y-37305078D01*
X19019659Y-37434659D01*
X18890078Y-37541004D01*
X18890076Y-37541005D01*
X18742242Y-37620024D01*
X18581823Y-37668687D01*
X18456804Y-37681000D01*
X18373196Y-37681000D01*
X18248177Y-37668687D01*
X18087758Y-37620024D01*
X17939924Y-37541005D01*
X17939922Y-37541004D01*
X17810341Y-37434659D01*
X17703996Y-37305078D01*
X17695886Y-37289906D01*
X17624976Y-37157242D01*
X17576313Y-36996823D01*
X17559883Y-36830000D01*
X17576313Y-36663177D01*
X17624976Y-36502758D01*
X17703995Y-36354924D01*
X17703996Y-36354922D01*
X17810341Y-36225341D01*
X17939922Y-36118996D01*
X17955094Y-36110886D01*
X18087758Y-36039976D01*
X18248177Y-35991313D01*
X18373196Y-35979000D01*
X18456804Y-35979000D01*
X18581823Y-35991313D01*
X18581823Y-35991313D01*
G37*
G36*
X36361823Y-35991313D02*
G01*
X36522242Y-36039976D01*
X36654906Y-36110886D01*
X36670078Y-36118996D01*
X36799659Y-36225341D01*
X36906004Y-36354922D01*
X36906005Y-36354924D01*
X36985024Y-36502758D01*
X37033687Y-36663177D01*
X37050117Y-36830000D01*
X37033687Y-36996823D01*
X36985024Y-37157242D01*
X36914114Y-37289906D01*
X36906004Y-37305078D01*
X36799659Y-37434659D01*
X36670078Y-37541004D01*
X36670076Y-37541005D01*
X36522242Y-37620024D01*
X36361823Y-37668687D01*
X36236804Y-37681000D01*
X36153196Y-37681000D01*
X36028177Y-37668687D01*
X35867758Y-37620024D01*
X35719924Y-37541005D01*
X35719922Y-37541004D01*
X35590341Y-37434659D01*
X35483996Y-37305078D01*
X35475886Y-37289906D01*
X35404976Y-37157242D01*
X35356313Y-36996823D01*
X35339883Y-36830000D01*
X35356313Y-36663177D01*
X35404976Y-36502758D01*
X35483995Y-36354924D01*
X35483996Y-36354922D01*
X35590341Y-36225341D01*
X35719922Y-36118996D01*
X35735094Y-36110886D01*
X35867758Y-36039976D01*
X36028177Y-35991313D01*
X36153196Y-35979000D01*
X36236804Y-35979000D01*
X36361823Y-35991313D01*
X36361823Y-35991313D01*
G37*
G36*
X21121823Y-35991313D02*
G01*
X21282242Y-36039976D01*
X21414906Y-36110886D01*
X21430078Y-36118996D01*
X21559659Y-36225341D01*
X21666004Y-36354922D01*
X21666005Y-36354924D01*
X21745024Y-36502758D01*
X21793687Y-36663177D01*
X21810117Y-36830000D01*
X21793687Y-36996823D01*
X21745024Y-37157242D01*
X21674114Y-37289906D01*
X21666004Y-37305078D01*
X21559659Y-37434659D01*
X21430078Y-37541004D01*
X21430076Y-37541005D01*
X21282242Y-37620024D01*
X21121823Y-37668687D01*
X20996804Y-37681000D01*
X20913196Y-37681000D01*
X20788177Y-37668687D01*
X20627758Y-37620024D01*
X20479924Y-37541005D01*
X20479922Y-37541004D01*
X20350341Y-37434659D01*
X20243996Y-37305078D01*
X20235886Y-37289906D01*
X20164976Y-37157242D01*
X20116313Y-36996823D01*
X20099883Y-36830000D01*
X20116313Y-36663177D01*
X20164976Y-36502758D01*
X20243995Y-36354924D01*
X20243996Y-36354922D01*
X20350341Y-36225341D01*
X20479922Y-36118996D01*
X20495094Y-36110886D01*
X20627758Y-36039976D01*
X20788177Y-35991313D01*
X20913196Y-35979000D01*
X20996804Y-35979000D01*
X21121823Y-35991313D01*
X21121823Y-35991313D01*
G37*
G36*
X23661823Y-35991313D02*
G01*
X23822242Y-36039976D01*
X23954906Y-36110886D01*
X23970078Y-36118996D01*
X24099659Y-36225341D01*
X24206004Y-36354922D01*
X24206005Y-36354924D01*
X24285024Y-36502758D01*
X24333687Y-36663177D01*
X24350117Y-36830000D01*
X24333687Y-36996823D01*
X24285024Y-37157242D01*
X24214114Y-37289906D01*
X24206004Y-37305078D01*
X24099659Y-37434659D01*
X23970078Y-37541004D01*
X23970076Y-37541005D01*
X23822242Y-37620024D01*
X23661823Y-37668687D01*
X23536804Y-37681000D01*
X23453196Y-37681000D01*
X23328177Y-37668687D01*
X23167758Y-37620024D01*
X23019924Y-37541005D01*
X23019922Y-37541004D01*
X22890341Y-37434659D01*
X22783996Y-37305078D01*
X22775886Y-37289906D01*
X22704976Y-37157242D01*
X22656313Y-36996823D01*
X22639883Y-36830000D01*
X22656313Y-36663177D01*
X22704976Y-36502758D01*
X22783995Y-36354924D01*
X22783996Y-36354922D01*
X22890341Y-36225341D01*
X23019922Y-36118996D01*
X23035094Y-36110886D01*
X23167758Y-36039976D01*
X23328177Y-35991313D01*
X23453196Y-35979000D01*
X23536804Y-35979000D01*
X23661823Y-35991313D01*
X23661823Y-35991313D01*
G37*
G36*
X31281823Y-35991313D02*
G01*
X31442242Y-36039976D01*
X31574906Y-36110886D01*
X31590078Y-36118996D01*
X31719659Y-36225341D01*
X31826004Y-36354922D01*
X31826005Y-36354924D01*
X31905024Y-36502758D01*
X31953687Y-36663177D01*
X31970117Y-36830000D01*
X31953687Y-36996823D01*
X31905024Y-37157242D01*
X31834114Y-37289906D01*
X31826004Y-37305078D01*
X31719659Y-37434659D01*
X31590078Y-37541004D01*
X31590076Y-37541005D01*
X31442242Y-37620024D01*
X31281823Y-37668687D01*
X31156804Y-37681000D01*
X31073196Y-37681000D01*
X30948177Y-37668687D01*
X30787758Y-37620024D01*
X30639924Y-37541005D01*
X30639922Y-37541004D01*
X30510341Y-37434659D01*
X30403996Y-37305078D01*
X30395886Y-37289906D01*
X30324976Y-37157242D01*
X30276313Y-36996823D01*
X30259883Y-36830000D01*
X30276313Y-36663177D01*
X30324976Y-36502758D01*
X30403995Y-36354924D01*
X30403996Y-36354922D01*
X30510341Y-36225341D01*
X30639922Y-36118996D01*
X30655094Y-36110886D01*
X30787758Y-36039976D01*
X30948177Y-35991313D01*
X31073196Y-35979000D01*
X31156804Y-35979000D01*
X31281823Y-35991313D01*
X31281823Y-35991313D01*
G37*
G36*
X33821823Y-35991313D02*
G01*
X33982242Y-36039976D01*
X34114906Y-36110886D01*
X34130078Y-36118996D01*
X34259659Y-36225341D01*
X34366004Y-36354922D01*
X34366005Y-36354924D01*
X34445024Y-36502758D01*
X34493687Y-36663177D01*
X34510117Y-36830000D01*
X34493687Y-36996823D01*
X34445024Y-37157242D01*
X34374114Y-37289906D01*
X34366004Y-37305078D01*
X34259659Y-37434659D01*
X34130078Y-37541004D01*
X34130076Y-37541005D01*
X33982242Y-37620024D01*
X33821823Y-37668687D01*
X33696804Y-37681000D01*
X33613196Y-37681000D01*
X33488177Y-37668687D01*
X33327758Y-37620024D01*
X33179924Y-37541005D01*
X33179922Y-37541004D01*
X33050341Y-37434659D01*
X32943996Y-37305078D01*
X32935886Y-37289906D01*
X32864976Y-37157242D01*
X32816313Y-36996823D01*
X32799883Y-36830000D01*
X32816313Y-36663177D01*
X32864976Y-36502758D01*
X32943995Y-36354924D01*
X32943996Y-36354922D01*
X33050341Y-36225341D01*
X33179922Y-36118996D01*
X33195094Y-36110886D01*
X33327758Y-36039976D01*
X33488177Y-35991313D01*
X33613196Y-35979000D01*
X33696804Y-35979000D01*
X33821823Y-35991313D01*
X33821823Y-35991313D01*
G37*
G36*
X31281823Y-33451313D02*
G01*
X31442242Y-33499976D01*
X31574906Y-33570886D01*
X31590078Y-33578996D01*
X31719659Y-33685341D01*
X31826004Y-33814922D01*
X31826005Y-33814924D01*
X31905024Y-33962758D01*
X31953687Y-34123177D01*
X31970117Y-34290000D01*
X31953687Y-34456823D01*
X31905024Y-34617242D01*
X31834114Y-34749906D01*
X31826004Y-34765078D01*
X31719659Y-34894659D01*
X31590078Y-35001004D01*
X31590076Y-35001005D01*
X31442242Y-35080024D01*
X31281823Y-35128687D01*
X31156804Y-35141000D01*
X31073196Y-35141000D01*
X30948177Y-35128687D01*
X30787758Y-35080024D01*
X30639924Y-35001005D01*
X30639922Y-35001004D01*
X30510341Y-34894659D01*
X30403996Y-34765078D01*
X30395886Y-34749906D01*
X30324976Y-34617242D01*
X30276313Y-34456823D01*
X30259883Y-34290000D01*
X30276313Y-34123177D01*
X30324976Y-33962758D01*
X30403995Y-33814924D01*
X30403996Y-33814922D01*
X30510341Y-33685341D01*
X30639922Y-33578996D01*
X30655094Y-33570886D01*
X30787758Y-33499976D01*
X30948177Y-33451313D01*
X31073196Y-33439000D01*
X31156804Y-33439000D01*
X31281823Y-33451313D01*
X31281823Y-33451313D01*
G37*
G36*
X21121823Y-33451313D02*
G01*
X21282242Y-33499976D01*
X21414906Y-33570886D01*
X21430078Y-33578996D01*
X21559659Y-33685341D01*
X21666004Y-33814922D01*
X21666005Y-33814924D01*
X21745024Y-33962758D01*
X21793687Y-34123177D01*
X21810117Y-34290000D01*
X21793687Y-34456823D01*
X21745024Y-34617242D01*
X21674114Y-34749906D01*
X21666004Y-34765078D01*
X21559659Y-34894659D01*
X21430078Y-35001004D01*
X21430076Y-35001005D01*
X21282242Y-35080024D01*
X21121823Y-35128687D01*
X20996804Y-35141000D01*
X20913196Y-35141000D01*
X20788177Y-35128687D01*
X20627758Y-35080024D01*
X20479924Y-35001005D01*
X20479922Y-35001004D01*
X20350341Y-34894659D01*
X20243996Y-34765078D01*
X20235886Y-34749906D01*
X20164976Y-34617242D01*
X20116313Y-34456823D01*
X20099883Y-34290000D01*
X20116313Y-34123177D01*
X20164976Y-33962758D01*
X20243995Y-33814924D01*
X20243996Y-33814922D01*
X20350341Y-33685341D01*
X20479922Y-33578996D01*
X20495094Y-33570886D01*
X20627758Y-33499976D01*
X20788177Y-33451313D01*
X20913196Y-33439000D01*
X20996804Y-33439000D01*
X21121823Y-33451313D01*
X21121823Y-33451313D01*
G37*
G36*
X23661823Y-33451313D02*
G01*
X23822242Y-33499976D01*
X23954906Y-33570886D01*
X23970078Y-33578996D01*
X24099659Y-33685341D01*
X24206004Y-33814922D01*
X24206005Y-33814924D01*
X24285024Y-33962758D01*
X24333687Y-34123177D01*
X24350117Y-34290000D01*
X24333687Y-34456823D01*
X24285024Y-34617242D01*
X24214114Y-34749906D01*
X24206004Y-34765078D01*
X24099659Y-34894659D01*
X23970078Y-35001004D01*
X23970076Y-35001005D01*
X23822242Y-35080024D01*
X23661823Y-35128687D01*
X23536804Y-35141000D01*
X23453196Y-35141000D01*
X23328177Y-35128687D01*
X23167758Y-35080024D01*
X23019924Y-35001005D01*
X23019922Y-35001004D01*
X22890341Y-34894659D01*
X22783996Y-34765078D01*
X22775886Y-34749906D01*
X22704976Y-34617242D01*
X22656313Y-34456823D01*
X22639883Y-34290000D01*
X22656313Y-34123177D01*
X22704976Y-33962758D01*
X22783995Y-33814924D01*
X22783996Y-33814922D01*
X22890341Y-33685341D01*
X23019922Y-33578996D01*
X23035094Y-33570886D01*
X23167758Y-33499976D01*
X23328177Y-33451313D01*
X23453196Y-33439000D01*
X23536804Y-33439000D01*
X23661823Y-33451313D01*
X23661823Y-33451313D01*
G37*
G36*
X33821823Y-33451313D02*
G01*
X33982242Y-33499976D01*
X34114906Y-33570886D01*
X34130078Y-33578996D01*
X34259659Y-33685341D01*
X34366004Y-33814922D01*
X34366005Y-33814924D01*
X34445024Y-33962758D01*
X34493687Y-34123177D01*
X34510117Y-34290000D01*
X34493687Y-34456823D01*
X34445024Y-34617242D01*
X34374114Y-34749906D01*
X34366004Y-34765078D01*
X34259659Y-34894659D01*
X34130078Y-35001004D01*
X34130076Y-35001005D01*
X33982242Y-35080024D01*
X33821823Y-35128687D01*
X33696804Y-35141000D01*
X33613196Y-35141000D01*
X33488177Y-35128687D01*
X33327758Y-35080024D01*
X33179924Y-35001005D01*
X33179922Y-35001004D01*
X33050341Y-34894659D01*
X32943996Y-34765078D01*
X32935886Y-34749906D01*
X32864976Y-34617242D01*
X32816313Y-34456823D01*
X32799883Y-34290000D01*
X32816313Y-34123177D01*
X32864976Y-33962758D01*
X32943995Y-33814924D01*
X32943996Y-33814922D01*
X33050341Y-33685341D01*
X33179922Y-33578996D01*
X33195094Y-33570886D01*
X33327758Y-33499976D01*
X33488177Y-33451313D01*
X33613196Y-33439000D01*
X33696804Y-33439000D01*
X33821823Y-33451313D01*
X33821823Y-33451313D01*
G37*
G36*
X36361823Y-33451313D02*
G01*
X36522242Y-33499976D01*
X36654906Y-33570886D01*
X36670078Y-33578996D01*
X36799659Y-33685341D01*
X36906004Y-33814922D01*
X36906005Y-33814924D01*
X36985024Y-33962758D01*
X37033687Y-34123177D01*
X37050117Y-34290000D01*
X37033687Y-34456823D01*
X36985024Y-34617242D01*
X36914114Y-34749906D01*
X36906004Y-34765078D01*
X36799659Y-34894659D01*
X36670078Y-35001004D01*
X36670076Y-35001005D01*
X36522242Y-35080024D01*
X36361823Y-35128687D01*
X36236804Y-35141000D01*
X36153196Y-35141000D01*
X36028177Y-35128687D01*
X35867758Y-35080024D01*
X35719924Y-35001005D01*
X35719922Y-35001004D01*
X35590341Y-34894659D01*
X35483996Y-34765078D01*
X35475886Y-34749906D01*
X35404976Y-34617242D01*
X35356313Y-34456823D01*
X35339883Y-34290000D01*
X35356313Y-34123177D01*
X35404976Y-33962758D01*
X35483995Y-33814924D01*
X35483996Y-33814922D01*
X35590341Y-33685341D01*
X35719922Y-33578996D01*
X35735094Y-33570886D01*
X35867758Y-33499976D01*
X36028177Y-33451313D01*
X36153196Y-33439000D01*
X36236804Y-33439000D01*
X36361823Y-33451313D01*
X36361823Y-33451313D01*
G37*
G36*
X18581823Y-33451313D02*
G01*
X18742242Y-33499976D01*
X18874906Y-33570886D01*
X18890078Y-33578996D01*
X19019659Y-33685341D01*
X19126004Y-33814922D01*
X19126005Y-33814924D01*
X19205024Y-33962758D01*
X19253687Y-34123177D01*
X19270117Y-34290000D01*
X19253687Y-34456823D01*
X19205024Y-34617242D01*
X19134114Y-34749906D01*
X19126004Y-34765078D01*
X19019659Y-34894659D01*
X18890078Y-35001004D01*
X18890076Y-35001005D01*
X18742242Y-35080024D01*
X18581823Y-35128687D01*
X18456804Y-35141000D01*
X18373196Y-35141000D01*
X18248177Y-35128687D01*
X18087758Y-35080024D01*
X17939924Y-35001005D01*
X17939922Y-35001004D01*
X17810341Y-34894659D01*
X17703996Y-34765078D01*
X17695886Y-34749906D01*
X17624976Y-34617242D01*
X17576313Y-34456823D01*
X17559883Y-34290000D01*
X17576313Y-34123177D01*
X17624976Y-33962758D01*
X17703995Y-33814924D01*
X17703996Y-33814922D01*
X17810341Y-33685341D01*
X17939922Y-33578996D01*
X17955094Y-33570886D01*
X18087758Y-33499976D01*
X18248177Y-33451313D01*
X18373196Y-33439000D01*
X18456804Y-33439000D01*
X18581823Y-33451313D01*
X18581823Y-33451313D01*
G37*
G36*
X18581823Y-30911313D02*
G01*
X18742242Y-30959976D01*
X18874906Y-31030886D01*
X18890078Y-31038996D01*
X19019659Y-31145341D01*
X19126004Y-31274922D01*
X19126005Y-31274924D01*
X19205024Y-31422758D01*
X19253687Y-31583177D01*
X19270117Y-31750000D01*
X19253687Y-31916823D01*
X19205024Y-32077242D01*
X19134114Y-32209906D01*
X19126004Y-32225078D01*
X19019659Y-32354659D01*
X18890078Y-32461004D01*
X18890076Y-32461005D01*
X18742242Y-32540024D01*
X18581823Y-32588687D01*
X18456804Y-32601000D01*
X18373196Y-32601000D01*
X18248177Y-32588687D01*
X18087758Y-32540024D01*
X17939924Y-32461005D01*
X17939922Y-32461004D01*
X17810341Y-32354659D01*
X17703996Y-32225078D01*
X17695886Y-32209906D01*
X17624976Y-32077242D01*
X17576313Y-31916823D01*
X17559883Y-31750000D01*
X17576313Y-31583177D01*
X17624976Y-31422758D01*
X17703995Y-31274924D01*
X17703996Y-31274922D01*
X17810341Y-31145341D01*
X17939922Y-31038996D01*
X17955094Y-31030886D01*
X18087758Y-30959976D01*
X18248177Y-30911313D01*
X18373196Y-30899000D01*
X18456804Y-30899000D01*
X18581823Y-30911313D01*
X18581823Y-30911313D01*
G37*
G36*
X23661823Y-30911313D02*
G01*
X23822242Y-30959976D01*
X23954906Y-31030886D01*
X23970078Y-31038996D01*
X24099659Y-31145341D01*
X24206004Y-31274922D01*
X24206005Y-31274924D01*
X24285024Y-31422758D01*
X24333687Y-31583177D01*
X24350117Y-31750000D01*
X24333687Y-31916823D01*
X24285024Y-32077242D01*
X24214114Y-32209906D01*
X24206004Y-32225078D01*
X24099659Y-32354659D01*
X23970078Y-32461004D01*
X23970076Y-32461005D01*
X23822242Y-32540024D01*
X23661823Y-32588687D01*
X23536804Y-32601000D01*
X23453196Y-32601000D01*
X23328177Y-32588687D01*
X23167758Y-32540024D01*
X23019924Y-32461005D01*
X23019922Y-32461004D01*
X22890341Y-32354659D01*
X22783996Y-32225078D01*
X22775886Y-32209906D01*
X22704976Y-32077242D01*
X22656313Y-31916823D01*
X22639883Y-31750000D01*
X22656313Y-31583177D01*
X22704976Y-31422758D01*
X22783995Y-31274924D01*
X22783996Y-31274922D01*
X22890341Y-31145341D01*
X23019922Y-31038996D01*
X23035094Y-31030886D01*
X23167758Y-30959976D01*
X23328177Y-30911313D01*
X23453196Y-30899000D01*
X23536804Y-30899000D01*
X23661823Y-30911313D01*
X23661823Y-30911313D01*
G37*
G36*
X21121823Y-30911313D02*
G01*
X21282242Y-30959976D01*
X21414906Y-31030886D01*
X21430078Y-31038996D01*
X21559659Y-31145341D01*
X21666004Y-31274922D01*
X21666005Y-31274924D01*
X21745024Y-31422758D01*
X21793687Y-31583177D01*
X21810117Y-31750000D01*
X21793687Y-31916823D01*
X21745024Y-32077242D01*
X21674114Y-32209906D01*
X21666004Y-32225078D01*
X21559659Y-32354659D01*
X21430078Y-32461004D01*
X21430076Y-32461005D01*
X21282242Y-32540024D01*
X21121823Y-32588687D01*
X20996804Y-32601000D01*
X20913196Y-32601000D01*
X20788177Y-32588687D01*
X20627758Y-32540024D01*
X20479924Y-32461005D01*
X20479922Y-32461004D01*
X20350341Y-32354659D01*
X20243996Y-32225078D01*
X20235886Y-32209906D01*
X20164976Y-32077242D01*
X20116313Y-31916823D01*
X20099883Y-31750000D01*
X20116313Y-31583177D01*
X20164976Y-31422758D01*
X20243995Y-31274924D01*
X20243996Y-31274922D01*
X20350341Y-31145341D01*
X20479922Y-31038996D01*
X20495094Y-31030886D01*
X20627758Y-30959976D01*
X20788177Y-30911313D01*
X20913196Y-30899000D01*
X20996804Y-30899000D01*
X21121823Y-30911313D01*
X21121823Y-30911313D01*
G37*
G36*
X33821823Y-30911313D02*
G01*
X33982242Y-30959976D01*
X34114906Y-31030886D01*
X34130078Y-31038996D01*
X34259659Y-31145341D01*
X34366004Y-31274922D01*
X34366005Y-31274924D01*
X34445024Y-31422758D01*
X34493687Y-31583177D01*
X34510117Y-31750000D01*
X34493687Y-31916823D01*
X34445024Y-32077242D01*
X34374114Y-32209906D01*
X34366004Y-32225078D01*
X34259659Y-32354659D01*
X34130078Y-32461004D01*
X34130076Y-32461005D01*
X33982242Y-32540024D01*
X33821823Y-32588687D01*
X33696804Y-32601000D01*
X33613196Y-32601000D01*
X33488177Y-32588687D01*
X33327758Y-32540024D01*
X33179924Y-32461005D01*
X33179922Y-32461004D01*
X33050341Y-32354659D01*
X32943996Y-32225078D01*
X32935886Y-32209906D01*
X32864976Y-32077242D01*
X32816313Y-31916823D01*
X32799883Y-31750000D01*
X32816313Y-31583177D01*
X32864976Y-31422758D01*
X32943995Y-31274924D01*
X32943996Y-31274922D01*
X33050341Y-31145341D01*
X33179922Y-31038996D01*
X33195094Y-31030886D01*
X33327758Y-30959976D01*
X33488177Y-30911313D01*
X33613196Y-30899000D01*
X33696804Y-30899000D01*
X33821823Y-30911313D01*
X33821823Y-30911313D01*
G37*
G36*
X31281823Y-30911313D02*
G01*
X31442242Y-30959976D01*
X31574906Y-31030886D01*
X31590078Y-31038996D01*
X31719659Y-31145341D01*
X31826004Y-31274922D01*
X31826005Y-31274924D01*
X31905024Y-31422758D01*
X31953687Y-31583177D01*
X31970117Y-31750000D01*
X31953687Y-31916823D01*
X31905024Y-32077242D01*
X31834114Y-32209906D01*
X31826004Y-32225078D01*
X31719659Y-32354659D01*
X31590078Y-32461004D01*
X31590076Y-32461005D01*
X31442242Y-32540024D01*
X31281823Y-32588687D01*
X31156804Y-32601000D01*
X31073196Y-32601000D01*
X30948177Y-32588687D01*
X30787758Y-32540024D01*
X30639924Y-32461005D01*
X30639922Y-32461004D01*
X30510341Y-32354659D01*
X30403996Y-32225078D01*
X30395886Y-32209906D01*
X30324976Y-32077242D01*
X30276313Y-31916823D01*
X30259883Y-31750000D01*
X30276313Y-31583177D01*
X30324976Y-31422758D01*
X30403995Y-31274924D01*
X30403996Y-31274922D01*
X30510341Y-31145341D01*
X30639922Y-31038996D01*
X30655094Y-31030886D01*
X30787758Y-30959976D01*
X30948177Y-30911313D01*
X31073196Y-30899000D01*
X31156804Y-30899000D01*
X31281823Y-30911313D01*
X31281823Y-30911313D01*
G37*
G36*
X36361823Y-30911313D02*
G01*
X36522242Y-30959976D01*
X36654906Y-31030886D01*
X36670078Y-31038996D01*
X36799659Y-31145341D01*
X36906004Y-31274922D01*
X36906005Y-31274924D01*
X36985024Y-31422758D01*
X37033687Y-31583177D01*
X37050117Y-31750000D01*
X37033687Y-31916823D01*
X36985024Y-32077242D01*
X36914114Y-32209906D01*
X36906004Y-32225078D01*
X36799659Y-32354659D01*
X36670078Y-32461004D01*
X36670076Y-32461005D01*
X36522242Y-32540024D01*
X36361823Y-32588687D01*
X36236804Y-32601000D01*
X36153196Y-32601000D01*
X36028177Y-32588687D01*
X35867758Y-32540024D01*
X35719924Y-32461005D01*
X35719922Y-32461004D01*
X35590341Y-32354659D01*
X35483996Y-32225078D01*
X35475886Y-32209906D01*
X35404976Y-32077242D01*
X35356313Y-31916823D01*
X35339883Y-31750000D01*
X35356313Y-31583177D01*
X35404976Y-31422758D01*
X35483995Y-31274924D01*
X35483996Y-31274922D01*
X35590341Y-31145341D01*
X35719922Y-31038996D01*
X35735094Y-31030886D01*
X35867758Y-30959976D01*
X36028177Y-30911313D01*
X36153196Y-30899000D01*
X36236804Y-30899000D01*
X36361823Y-30911313D01*
X36361823Y-30911313D01*
G37*
G36*
X36361823Y-28371313D02*
G01*
X36522242Y-28419976D01*
X36654906Y-28490886D01*
X36670078Y-28498996D01*
X36799659Y-28605341D01*
X36906004Y-28734922D01*
X36906005Y-28734924D01*
X36985024Y-28882758D01*
X37033687Y-29043177D01*
X37050117Y-29210000D01*
X37033687Y-29376823D01*
X36985024Y-29537242D01*
X36914114Y-29669906D01*
X36906004Y-29685078D01*
X36799659Y-29814659D01*
X36670078Y-29921004D01*
X36670076Y-29921005D01*
X36522242Y-30000024D01*
X36361823Y-30048687D01*
X36236804Y-30061000D01*
X36153196Y-30061000D01*
X36028177Y-30048687D01*
X35867758Y-30000024D01*
X35719924Y-29921005D01*
X35719922Y-29921004D01*
X35590341Y-29814659D01*
X35483996Y-29685078D01*
X35475886Y-29669906D01*
X35404976Y-29537242D01*
X35356313Y-29376823D01*
X35339883Y-29210000D01*
X35356313Y-29043177D01*
X35404976Y-28882758D01*
X35483995Y-28734924D01*
X35483996Y-28734922D01*
X35590341Y-28605341D01*
X35719922Y-28498996D01*
X35735094Y-28490886D01*
X35867758Y-28419976D01*
X36028177Y-28371313D01*
X36153196Y-28359000D01*
X36236804Y-28359000D01*
X36361823Y-28371313D01*
X36361823Y-28371313D01*
G37*
G36*
X33821823Y-28371313D02*
G01*
X33982242Y-28419976D01*
X34114906Y-28490886D01*
X34130078Y-28498996D01*
X34259659Y-28605341D01*
X34366004Y-28734922D01*
X34366005Y-28734924D01*
X34445024Y-28882758D01*
X34493687Y-29043177D01*
X34510117Y-29210000D01*
X34493687Y-29376823D01*
X34445024Y-29537242D01*
X34374114Y-29669906D01*
X34366004Y-29685078D01*
X34259659Y-29814659D01*
X34130078Y-29921004D01*
X34130076Y-29921005D01*
X33982242Y-30000024D01*
X33821823Y-30048687D01*
X33696804Y-30061000D01*
X33613196Y-30061000D01*
X33488177Y-30048687D01*
X33327758Y-30000024D01*
X33179924Y-29921005D01*
X33179922Y-29921004D01*
X33050341Y-29814659D01*
X32943996Y-29685078D01*
X32935886Y-29669906D01*
X32864976Y-29537242D01*
X32816313Y-29376823D01*
X32799883Y-29210000D01*
X32816313Y-29043177D01*
X32864976Y-28882758D01*
X32943995Y-28734924D01*
X32943996Y-28734922D01*
X33050341Y-28605341D01*
X33179922Y-28498996D01*
X33195094Y-28490886D01*
X33327758Y-28419976D01*
X33488177Y-28371313D01*
X33613196Y-28359000D01*
X33696804Y-28359000D01*
X33821823Y-28371313D01*
X33821823Y-28371313D01*
G37*
G36*
X31281823Y-28371313D02*
G01*
X31442242Y-28419976D01*
X31574906Y-28490886D01*
X31590078Y-28498996D01*
X31719659Y-28605341D01*
X31826004Y-28734922D01*
X31826005Y-28734924D01*
X31905024Y-28882758D01*
X31953687Y-29043177D01*
X31970117Y-29210000D01*
X31953687Y-29376823D01*
X31905024Y-29537242D01*
X31834114Y-29669906D01*
X31826004Y-29685078D01*
X31719659Y-29814659D01*
X31590078Y-29921004D01*
X31590076Y-29921005D01*
X31442242Y-30000024D01*
X31281823Y-30048687D01*
X31156804Y-30061000D01*
X31073196Y-30061000D01*
X30948177Y-30048687D01*
X30787758Y-30000024D01*
X30639924Y-29921005D01*
X30639922Y-29921004D01*
X30510341Y-29814659D01*
X30403996Y-29685078D01*
X30395886Y-29669906D01*
X30324976Y-29537242D01*
X30276313Y-29376823D01*
X30259883Y-29210000D01*
X30276313Y-29043177D01*
X30324976Y-28882758D01*
X30403995Y-28734924D01*
X30403996Y-28734922D01*
X30510341Y-28605341D01*
X30639922Y-28498996D01*
X30655094Y-28490886D01*
X30787758Y-28419976D01*
X30948177Y-28371313D01*
X31073196Y-28359000D01*
X31156804Y-28359000D01*
X31281823Y-28371313D01*
X31281823Y-28371313D01*
G37*
G36*
X23661823Y-28371313D02*
G01*
X23822242Y-28419976D01*
X23954906Y-28490886D01*
X23970078Y-28498996D01*
X24099659Y-28605341D01*
X24206004Y-28734922D01*
X24206005Y-28734924D01*
X24285024Y-28882758D01*
X24333687Y-29043177D01*
X24350117Y-29210000D01*
X24333687Y-29376823D01*
X24285024Y-29537242D01*
X24214114Y-29669906D01*
X24206004Y-29685078D01*
X24099659Y-29814659D01*
X23970078Y-29921004D01*
X23970076Y-29921005D01*
X23822242Y-30000024D01*
X23661823Y-30048687D01*
X23536804Y-30061000D01*
X23453196Y-30061000D01*
X23328177Y-30048687D01*
X23167758Y-30000024D01*
X23019924Y-29921005D01*
X23019922Y-29921004D01*
X22890341Y-29814659D01*
X22783996Y-29685078D01*
X22775886Y-29669906D01*
X22704976Y-29537242D01*
X22656313Y-29376823D01*
X22639883Y-29210000D01*
X22656313Y-29043177D01*
X22704976Y-28882758D01*
X22783995Y-28734924D01*
X22783996Y-28734922D01*
X22890341Y-28605341D01*
X23019922Y-28498996D01*
X23035094Y-28490886D01*
X23167758Y-28419976D01*
X23328177Y-28371313D01*
X23453196Y-28359000D01*
X23536804Y-28359000D01*
X23661823Y-28371313D01*
X23661823Y-28371313D01*
G37*
G36*
X21121823Y-28371313D02*
G01*
X21282242Y-28419976D01*
X21414906Y-28490886D01*
X21430078Y-28498996D01*
X21559659Y-28605341D01*
X21666004Y-28734922D01*
X21666005Y-28734924D01*
X21745024Y-28882758D01*
X21793687Y-29043177D01*
X21810117Y-29210000D01*
X21793687Y-29376823D01*
X21745024Y-29537242D01*
X21674114Y-29669906D01*
X21666004Y-29685078D01*
X21559659Y-29814659D01*
X21430078Y-29921004D01*
X21430076Y-29921005D01*
X21282242Y-30000024D01*
X21121823Y-30048687D01*
X20996804Y-30061000D01*
X20913196Y-30061000D01*
X20788177Y-30048687D01*
X20627758Y-30000024D01*
X20479924Y-29921005D01*
X20479922Y-29921004D01*
X20350341Y-29814659D01*
X20243996Y-29685078D01*
X20235886Y-29669906D01*
X20164976Y-29537242D01*
X20116313Y-29376823D01*
X20099883Y-29210000D01*
X20116313Y-29043177D01*
X20164976Y-28882758D01*
X20243995Y-28734924D01*
X20243996Y-28734922D01*
X20350341Y-28605341D01*
X20479922Y-28498996D01*
X20495094Y-28490886D01*
X20627758Y-28419976D01*
X20788177Y-28371313D01*
X20913196Y-28359000D01*
X20996804Y-28359000D01*
X21121823Y-28371313D01*
X21121823Y-28371313D01*
G37*
G36*
X18581823Y-28371313D02*
G01*
X18742242Y-28419976D01*
X18874906Y-28490886D01*
X18890078Y-28498996D01*
X19019659Y-28605341D01*
X19126004Y-28734922D01*
X19126005Y-28734924D01*
X19205024Y-28882758D01*
X19253687Y-29043177D01*
X19270117Y-29210000D01*
X19253687Y-29376823D01*
X19205024Y-29537242D01*
X19134114Y-29669906D01*
X19126004Y-29685078D01*
X19019659Y-29814659D01*
X18890078Y-29921004D01*
X18890076Y-29921005D01*
X18742242Y-30000024D01*
X18581823Y-30048687D01*
X18456804Y-30061000D01*
X18373196Y-30061000D01*
X18248177Y-30048687D01*
X18087758Y-30000024D01*
X17939924Y-29921005D01*
X17939922Y-29921004D01*
X17810341Y-29814659D01*
X17703996Y-29685078D01*
X17695886Y-29669906D01*
X17624976Y-29537242D01*
X17576313Y-29376823D01*
X17559883Y-29210000D01*
X17576313Y-29043177D01*
X17624976Y-28882758D01*
X17703995Y-28734924D01*
X17703996Y-28734922D01*
X17810341Y-28605341D01*
X17939922Y-28498996D01*
X17955094Y-28490886D01*
X18087758Y-28419976D01*
X18248177Y-28371313D01*
X18373196Y-28359000D01*
X18456804Y-28359000D01*
X18581823Y-28371313D01*
X18581823Y-28371313D01*
G37*
G36*
X36361823Y-25831313D02*
G01*
X36522242Y-25879976D01*
X36654906Y-25950886D01*
X36670078Y-25958996D01*
X36799659Y-26065341D01*
X36906004Y-26194922D01*
X36906005Y-26194924D01*
X36985024Y-26342758D01*
X37033687Y-26503177D01*
X37050117Y-26670000D01*
X37033687Y-26836823D01*
X36985024Y-26997242D01*
X36914114Y-27129906D01*
X36906004Y-27145078D01*
X36799659Y-27274659D01*
X36670078Y-27381004D01*
X36670076Y-27381005D01*
X36522242Y-27460024D01*
X36361823Y-27508687D01*
X36236804Y-27521000D01*
X36153196Y-27521000D01*
X36028177Y-27508687D01*
X35867758Y-27460024D01*
X35719924Y-27381005D01*
X35719922Y-27381004D01*
X35590341Y-27274659D01*
X35483996Y-27145078D01*
X35475886Y-27129906D01*
X35404976Y-26997242D01*
X35356313Y-26836823D01*
X35339883Y-26670000D01*
X35356313Y-26503177D01*
X35404976Y-26342758D01*
X35483995Y-26194924D01*
X35483996Y-26194922D01*
X35590341Y-26065341D01*
X35719922Y-25958996D01*
X35735094Y-25950886D01*
X35867758Y-25879976D01*
X36028177Y-25831313D01*
X36153196Y-25819000D01*
X36236804Y-25819000D01*
X36361823Y-25831313D01*
X36361823Y-25831313D01*
G37*
G36*
X33821823Y-25831313D02*
G01*
X33982242Y-25879976D01*
X34114906Y-25950886D01*
X34130078Y-25958996D01*
X34259659Y-26065341D01*
X34366004Y-26194922D01*
X34366005Y-26194924D01*
X34445024Y-26342758D01*
X34493687Y-26503177D01*
X34510117Y-26670000D01*
X34493687Y-26836823D01*
X34445024Y-26997242D01*
X34374114Y-27129906D01*
X34366004Y-27145078D01*
X34259659Y-27274659D01*
X34130078Y-27381004D01*
X34130076Y-27381005D01*
X33982242Y-27460024D01*
X33821823Y-27508687D01*
X33696804Y-27521000D01*
X33613196Y-27521000D01*
X33488177Y-27508687D01*
X33327758Y-27460024D01*
X33179924Y-27381005D01*
X33179922Y-27381004D01*
X33050341Y-27274659D01*
X32943996Y-27145078D01*
X32935886Y-27129906D01*
X32864976Y-26997242D01*
X32816313Y-26836823D01*
X32799883Y-26670000D01*
X32816313Y-26503177D01*
X32864976Y-26342758D01*
X32943995Y-26194924D01*
X32943996Y-26194922D01*
X33050341Y-26065341D01*
X33179922Y-25958996D01*
X33195094Y-25950886D01*
X33327758Y-25879976D01*
X33488177Y-25831313D01*
X33613196Y-25819000D01*
X33696804Y-25819000D01*
X33821823Y-25831313D01*
X33821823Y-25831313D01*
G37*
G36*
X31281823Y-25831313D02*
G01*
X31442242Y-25879976D01*
X31574906Y-25950886D01*
X31590078Y-25958996D01*
X31719659Y-26065341D01*
X31826004Y-26194922D01*
X31826005Y-26194924D01*
X31905024Y-26342758D01*
X31953687Y-26503177D01*
X31970117Y-26670000D01*
X31953687Y-26836823D01*
X31905024Y-26997242D01*
X31834114Y-27129906D01*
X31826004Y-27145078D01*
X31719659Y-27274659D01*
X31590078Y-27381004D01*
X31590076Y-27381005D01*
X31442242Y-27460024D01*
X31281823Y-27508687D01*
X31156804Y-27521000D01*
X31073196Y-27521000D01*
X30948177Y-27508687D01*
X30787758Y-27460024D01*
X30639924Y-27381005D01*
X30639922Y-27381004D01*
X30510341Y-27274659D01*
X30403996Y-27145078D01*
X30395886Y-27129906D01*
X30324976Y-26997242D01*
X30276313Y-26836823D01*
X30259883Y-26670000D01*
X30276313Y-26503177D01*
X30324976Y-26342758D01*
X30403995Y-26194924D01*
X30403996Y-26194922D01*
X30510341Y-26065341D01*
X30639922Y-25958996D01*
X30655094Y-25950886D01*
X30787758Y-25879976D01*
X30948177Y-25831313D01*
X31073196Y-25819000D01*
X31156804Y-25819000D01*
X31281823Y-25831313D01*
X31281823Y-25831313D01*
G37*
G36*
X23661823Y-25831313D02*
G01*
X23822242Y-25879976D01*
X23954906Y-25950886D01*
X23970078Y-25958996D01*
X24099659Y-26065341D01*
X24206004Y-26194922D01*
X24206005Y-26194924D01*
X24285024Y-26342758D01*
X24333687Y-26503177D01*
X24350117Y-26670000D01*
X24333687Y-26836823D01*
X24285024Y-26997242D01*
X24214114Y-27129906D01*
X24206004Y-27145078D01*
X24099659Y-27274659D01*
X23970078Y-27381004D01*
X23970076Y-27381005D01*
X23822242Y-27460024D01*
X23661823Y-27508687D01*
X23536804Y-27521000D01*
X23453196Y-27521000D01*
X23328177Y-27508687D01*
X23167758Y-27460024D01*
X23019924Y-27381005D01*
X23019922Y-27381004D01*
X22890341Y-27274659D01*
X22783996Y-27145078D01*
X22775886Y-27129906D01*
X22704976Y-26997242D01*
X22656313Y-26836823D01*
X22639883Y-26670000D01*
X22656313Y-26503177D01*
X22704976Y-26342758D01*
X22783995Y-26194924D01*
X22783996Y-26194922D01*
X22890341Y-26065341D01*
X23019922Y-25958996D01*
X23035094Y-25950886D01*
X23167758Y-25879976D01*
X23328177Y-25831313D01*
X23453196Y-25819000D01*
X23536804Y-25819000D01*
X23661823Y-25831313D01*
X23661823Y-25831313D01*
G37*
G36*
X21121823Y-25831313D02*
G01*
X21282242Y-25879976D01*
X21414906Y-25950886D01*
X21430078Y-25958996D01*
X21559659Y-26065341D01*
X21666004Y-26194922D01*
X21666005Y-26194924D01*
X21745024Y-26342758D01*
X21793687Y-26503177D01*
X21810117Y-26670000D01*
X21793687Y-26836823D01*
X21745024Y-26997242D01*
X21674114Y-27129906D01*
X21666004Y-27145078D01*
X21559659Y-27274659D01*
X21430078Y-27381004D01*
X21430076Y-27381005D01*
X21282242Y-27460024D01*
X21121823Y-27508687D01*
X20996804Y-27521000D01*
X20913196Y-27521000D01*
X20788177Y-27508687D01*
X20627758Y-27460024D01*
X20479924Y-27381005D01*
X20479922Y-27381004D01*
X20350341Y-27274659D01*
X20243996Y-27145078D01*
X20235886Y-27129906D01*
X20164976Y-26997242D01*
X20116313Y-26836823D01*
X20099883Y-26670000D01*
X20116313Y-26503177D01*
X20164976Y-26342758D01*
X20243995Y-26194924D01*
X20243996Y-26194922D01*
X20350341Y-26065341D01*
X20479922Y-25958996D01*
X20495094Y-25950886D01*
X20627758Y-25879976D01*
X20788177Y-25831313D01*
X20913196Y-25819000D01*
X20996804Y-25819000D01*
X21121823Y-25831313D01*
X21121823Y-25831313D01*
G37*
G36*
X18581823Y-25831313D02*
G01*
X18742242Y-25879976D01*
X18874906Y-25950886D01*
X18890078Y-25958996D01*
X19019659Y-26065341D01*
X19126004Y-26194922D01*
X19126005Y-26194924D01*
X19205024Y-26342758D01*
X19253687Y-26503177D01*
X19270117Y-26670000D01*
X19253687Y-26836823D01*
X19205024Y-26997242D01*
X19134114Y-27129906D01*
X19126004Y-27145078D01*
X19019659Y-27274659D01*
X18890078Y-27381004D01*
X18890076Y-27381005D01*
X18742242Y-27460024D01*
X18581823Y-27508687D01*
X18456804Y-27521000D01*
X18373196Y-27521000D01*
X18248177Y-27508687D01*
X18087758Y-27460024D01*
X17939924Y-27381005D01*
X17939922Y-27381004D01*
X17810341Y-27274659D01*
X17703996Y-27145078D01*
X17695886Y-27129906D01*
X17624976Y-26997242D01*
X17576313Y-26836823D01*
X17559883Y-26670000D01*
X17576313Y-26503177D01*
X17624976Y-26342758D01*
X17703995Y-26194924D01*
X17703996Y-26194922D01*
X17810341Y-26065341D01*
X17939922Y-25958996D01*
X17955094Y-25950886D01*
X18087758Y-25879976D01*
X18248177Y-25831313D01*
X18373196Y-25819000D01*
X18456804Y-25819000D01*
X18581823Y-25831313D01*
X18581823Y-25831313D01*
G37*
G36*
X29526000Y-26351000D02*
G01*
X27624000Y-26351000D01*
X27624000Y-24449000D01*
X29526000Y-24449000D01*
X29526000Y-26351000D01*
X29526000Y-26351000D01*
G37*
G36*
X26312395Y-24485546D02*
G01*
X26485466Y-24557234D01*
X26557069Y-24605078D01*
X26641227Y-24661310D01*
X26773690Y-24793773D01*
X26805249Y-24841005D01*
X26877766Y-24949534D01*
X26949454Y-25122605D01*
X26986000Y-25306333D01*
X26986000Y-25493667D01*
X26949454Y-25677395D01*
X26877766Y-25850466D01*
X26858048Y-25879976D01*
X26773690Y-26006227D01*
X26641227Y-26138690D01*
X26562818Y-26191081D01*
X26485466Y-26242766D01*
X26312395Y-26314454D01*
X26128667Y-26351000D01*
X25941333Y-26351000D01*
X25757605Y-26314454D01*
X25584534Y-26242766D01*
X25507182Y-26191081D01*
X25428773Y-26138690D01*
X25296310Y-26006227D01*
X25211952Y-25879976D01*
X25192234Y-25850466D01*
X25120546Y-25677395D01*
X25084000Y-25493667D01*
X25084000Y-25306333D01*
X25120546Y-25122605D01*
X25192234Y-24949534D01*
X25264751Y-24841005D01*
X25296310Y-24793773D01*
X25428773Y-24661310D01*
X25512931Y-24605078D01*
X25584534Y-24557234D01*
X25757605Y-24485546D01*
X25941333Y-24449000D01*
X26128667Y-24449000D01*
X26312395Y-24485546D01*
X26312395Y-24485546D01*
G37*
G36*
X36361823Y-23291313D02*
G01*
X36522242Y-23339976D01*
X36654906Y-23410886D01*
X36670078Y-23418996D01*
X36799659Y-23525341D01*
X36906004Y-23654922D01*
X36906005Y-23654924D01*
X36985024Y-23802758D01*
X37033687Y-23963177D01*
X37050117Y-24130000D01*
X37033687Y-24296823D01*
X36985024Y-24457242D01*
X36914114Y-24589906D01*
X36906004Y-24605078D01*
X36799659Y-24734659D01*
X36670078Y-24841004D01*
X36670076Y-24841005D01*
X36522242Y-24920024D01*
X36361823Y-24968687D01*
X36236804Y-24981000D01*
X36153196Y-24981000D01*
X36028177Y-24968687D01*
X35867758Y-24920024D01*
X35719924Y-24841005D01*
X35719922Y-24841004D01*
X35590341Y-24734659D01*
X35483996Y-24605078D01*
X35475886Y-24589906D01*
X35404976Y-24457242D01*
X35356313Y-24296823D01*
X35339883Y-24130000D01*
X35356313Y-23963177D01*
X35404976Y-23802758D01*
X35483995Y-23654924D01*
X35483996Y-23654922D01*
X35590341Y-23525341D01*
X35719922Y-23418996D01*
X35735094Y-23410886D01*
X35867758Y-23339976D01*
X36028177Y-23291313D01*
X36153196Y-23279000D01*
X36236804Y-23279000D01*
X36361823Y-23291313D01*
X36361823Y-23291313D01*
G37*
G36*
X24346000Y-24981000D02*
G01*
X22644000Y-24981000D01*
X22644000Y-23279000D01*
X24346000Y-23279000D01*
X24346000Y-24981000D01*
X24346000Y-24981000D01*
G37*
G36*
X31281823Y-23291313D02*
G01*
X31442242Y-23339976D01*
X31574906Y-23410886D01*
X31590078Y-23418996D01*
X31719659Y-23525341D01*
X31826004Y-23654922D01*
X31826005Y-23654924D01*
X31905024Y-23802758D01*
X31953687Y-23963177D01*
X31970117Y-24130000D01*
X31953687Y-24296823D01*
X31905024Y-24457242D01*
X31834114Y-24589906D01*
X31826004Y-24605078D01*
X31719659Y-24734659D01*
X31590078Y-24841004D01*
X31590076Y-24841005D01*
X31442242Y-24920024D01*
X31281823Y-24968687D01*
X31156804Y-24981000D01*
X31073196Y-24981000D01*
X30948177Y-24968687D01*
X30787758Y-24920024D01*
X30639924Y-24841005D01*
X30639922Y-24841004D01*
X30510341Y-24734659D01*
X30403996Y-24605078D01*
X30395886Y-24589906D01*
X30324976Y-24457242D01*
X30276313Y-24296823D01*
X30259883Y-24130000D01*
X30276313Y-23963177D01*
X30324976Y-23802758D01*
X30403995Y-23654924D01*
X30403996Y-23654922D01*
X30510341Y-23525341D01*
X30639922Y-23418996D01*
X30655094Y-23410886D01*
X30787758Y-23339976D01*
X30948177Y-23291313D01*
X31073196Y-23279000D01*
X31156804Y-23279000D01*
X31281823Y-23291313D01*
X31281823Y-23291313D01*
G37*
G36*
X19266000Y-24981000D02*
G01*
X17564000Y-24981000D01*
X17564000Y-23279000D01*
X19266000Y-23279000D01*
X19266000Y-24981000D01*
X19266000Y-24981000D01*
G37*
G36*
X33821823Y-23291313D02*
G01*
X33982242Y-23339976D01*
X34114906Y-23410886D01*
X34130078Y-23418996D01*
X34259659Y-23525341D01*
X34366004Y-23654922D01*
X34366005Y-23654924D01*
X34445024Y-23802758D01*
X34493687Y-23963177D01*
X34510117Y-24130000D01*
X34493687Y-24296823D01*
X34445024Y-24457242D01*
X34374114Y-24589906D01*
X34366004Y-24605078D01*
X34259659Y-24734659D01*
X34130078Y-24841004D01*
X34130076Y-24841005D01*
X33982242Y-24920024D01*
X33821823Y-24968687D01*
X33696804Y-24981000D01*
X33613196Y-24981000D01*
X33488177Y-24968687D01*
X33327758Y-24920024D01*
X33179924Y-24841005D01*
X33179922Y-24841004D01*
X33050341Y-24734659D01*
X32943996Y-24605078D01*
X32935886Y-24589906D01*
X32864976Y-24457242D01*
X32816313Y-24296823D01*
X32799883Y-24130000D01*
X32816313Y-23963177D01*
X32864976Y-23802758D01*
X32943995Y-23654924D01*
X32943996Y-23654922D01*
X33050341Y-23525341D01*
X33179922Y-23418996D01*
X33195094Y-23410886D01*
X33327758Y-23339976D01*
X33488177Y-23291313D01*
X33613196Y-23279000D01*
X33696804Y-23279000D01*
X33821823Y-23291313D01*
X33821823Y-23291313D01*
G37*
G36*
X21806000Y-24981000D02*
G01*
X20104000Y-24981000D01*
X20104000Y-23279000D01*
X21806000Y-23279000D01*
X21806000Y-24981000D01*
X21806000Y-24981000D01*
G37*
M02*
