G04 #@! TF.GenerationSoftware,KiCad,Pcbnew,(5.1.2-1)-1*
G04 #@! TF.CreationDate,2023-07-30T19:37:46+02:00*
G04 #@! TF.ProjectId,816to02,38313674-6f30-4322-9e6b-696361645f70,rev?*
G04 #@! TF.SameCoordinates,Original*
G04 #@! TF.FileFunction,Copper,L2,Bot*
G04 #@! TF.FilePolarity,Positive*
%FSLAX46Y46*%
G04 Gerber Fmt 4.6, Leading zero omitted, Abs format (unit mm)*
G04 Created by KiCad (PCBNEW (5.1.2-1)-1) date 2023-07-30 19:37:46*
%MOMM*%
%LPD*%
G04 APERTURE LIST*
%ADD10O,1.600000X1.600000*%
%ADD11R,1.600000X1.600000*%
%ADD12C,1.800000*%
%ADD13R,1.800000X1.800000*%
%ADD14C,0.800000*%
%ADD15C,0.250000*%
%ADD16C,0.500000*%
%ADD17C,0.254000*%
G04 APERTURE END LIST*
D10*
X33655000Y-24130000D03*
X18415000Y-72390000D03*
X33655000Y-26670000D03*
X18415000Y-69850000D03*
X33655000Y-29210000D03*
X18415000Y-67310000D03*
X33655000Y-31750000D03*
X18415000Y-64770000D03*
X33655000Y-34290000D03*
X18415000Y-62230000D03*
X33655000Y-36830000D03*
X18415000Y-59690000D03*
X33655000Y-39370000D03*
X18415000Y-57150000D03*
X33655000Y-41910000D03*
X18415000Y-54610000D03*
X33655000Y-44450000D03*
X18415000Y-52070000D03*
X33655000Y-46990000D03*
X18415000Y-49530000D03*
X33655000Y-49530000D03*
X18415000Y-46990000D03*
X33655000Y-52070000D03*
X18415000Y-44450000D03*
X33655000Y-54610000D03*
X18415000Y-41910000D03*
X33655000Y-57150000D03*
X18415000Y-39370000D03*
X33655000Y-59690000D03*
X18415000Y-36830000D03*
X33655000Y-62230000D03*
X18415000Y-34290000D03*
X33655000Y-64770000D03*
X18415000Y-31750000D03*
X33655000Y-67310000D03*
X18415000Y-29210000D03*
X33655000Y-69850000D03*
X18415000Y-26670000D03*
X33655000Y-72390000D03*
D11*
X18415000Y-24130000D03*
D12*
X26035000Y-25400000D03*
D13*
X28575000Y-25400000D03*
D10*
X31115000Y-24130000D03*
X23495000Y-39370000D03*
X31115000Y-26670000D03*
X23495000Y-36830000D03*
X31115000Y-29210000D03*
X23495000Y-34290000D03*
X31115000Y-31750000D03*
X23495000Y-31750000D03*
X31115000Y-34290000D03*
X23495000Y-29210000D03*
X31115000Y-36830000D03*
X23495000Y-26670000D03*
X31115000Y-39370000D03*
D11*
X23495000Y-24130000D03*
D10*
X31115000Y-43180000D03*
X23495000Y-66040000D03*
X31115000Y-45720000D03*
X23495000Y-63500000D03*
X31115000Y-48260000D03*
X23495000Y-60960000D03*
X31115000Y-50800000D03*
X23495000Y-58420000D03*
X31115000Y-53340000D03*
X23495000Y-55880000D03*
X31115000Y-55880000D03*
X23495000Y-53340000D03*
X31115000Y-58420000D03*
X23495000Y-50800000D03*
X31115000Y-60960000D03*
X23495000Y-48260000D03*
X31115000Y-63500000D03*
X23495000Y-45720000D03*
X31115000Y-66040000D03*
D11*
X23495000Y-43180000D03*
D10*
X36195000Y-24130000D03*
X20955000Y-72390000D03*
X36195000Y-26670000D03*
X20955000Y-69850000D03*
X36195000Y-29210000D03*
X20955000Y-67310000D03*
X36195000Y-31750000D03*
X20955000Y-64770000D03*
X36195000Y-34290000D03*
X20955000Y-62230000D03*
X36195000Y-36830000D03*
X20955000Y-59690000D03*
X36195000Y-39370000D03*
X20955000Y-57150000D03*
X36195000Y-41910000D03*
X20955000Y-54610000D03*
X36195000Y-44450000D03*
X20955000Y-52070000D03*
X36195000Y-46990000D03*
X20955000Y-49530000D03*
X36195000Y-49530000D03*
X20955000Y-46990000D03*
X36195000Y-52070000D03*
X20955000Y-44450000D03*
X36195000Y-54610000D03*
X20955000Y-41910000D03*
X36195000Y-57150000D03*
X20955000Y-39370000D03*
X36195000Y-59690000D03*
X20955000Y-36830000D03*
X36195000Y-62230000D03*
X20955000Y-34290000D03*
X36195000Y-64770000D03*
X20955000Y-31750000D03*
X36195000Y-67310000D03*
X20955000Y-29210000D03*
X36195000Y-69850000D03*
X20955000Y-26670000D03*
X36195000Y-72390000D03*
D11*
X20955000Y-24130000D03*
D14*
X26035000Y-40640000D03*
X27940000Y-31750000D03*
X29210000Y-38100000D03*
X26035000Y-33020000D03*
D15*
X33655000Y-24130000D02*
X36195000Y-24130000D01*
X18415000Y-72390000D02*
X20955000Y-72390000D01*
X18415000Y-69850000D02*
X20955000Y-69850000D01*
X18415000Y-67310000D02*
X20955000Y-67310000D01*
X33655000Y-31750000D02*
X36195000Y-31750000D01*
X29845000Y-30480000D02*
X26035000Y-26670000D01*
X32385000Y-30480000D02*
X29845000Y-30480000D01*
X26035000Y-26670000D02*
X23495000Y-26670000D01*
X33655000Y-31750000D02*
X32385000Y-30480000D01*
X18415000Y-64770000D02*
X20955000Y-64770000D01*
X33655000Y-34290000D02*
X36195000Y-34290000D01*
X18415000Y-62230000D02*
X20955000Y-62230000D01*
X18415000Y-59690000D02*
X20955000Y-59690000D01*
X33655000Y-39370000D02*
X36195000Y-39370000D01*
X33655000Y-39370000D02*
X32385000Y-40640000D01*
X23495000Y-42545000D02*
X23495000Y-43180000D01*
X32385000Y-40640000D02*
X27940000Y-40640000D01*
X25400000Y-43180000D02*
X23495000Y-43180000D01*
X27940000Y-40640000D02*
X25400000Y-43180000D01*
X18415000Y-57150000D02*
X20955000Y-57150000D01*
X23495000Y-45720000D02*
X25400000Y-45720000D01*
X25400000Y-45720000D02*
X29210000Y-41910000D01*
X29210000Y-41910000D02*
X33655000Y-41910000D01*
X18415000Y-54610000D02*
X20955000Y-54610000D01*
X23495000Y-48260000D02*
X25400000Y-48260000D01*
X25400000Y-48260000D02*
X29210000Y-44450000D01*
X29210000Y-44450000D02*
X33655000Y-44450000D01*
X18415000Y-52070000D02*
X20955000Y-52070000D01*
X23495000Y-50800000D02*
X25400000Y-50800000D01*
X25400000Y-50800000D02*
X29210000Y-46990000D01*
X29210000Y-46990000D02*
X33655000Y-46990000D01*
X18415000Y-49530000D02*
X20955000Y-49530000D01*
X23495000Y-53340000D02*
X25400000Y-53340000D01*
X25400000Y-53340000D02*
X29210000Y-49530000D01*
X29210000Y-49530000D02*
X33655000Y-49530000D01*
X18415000Y-46990000D02*
X20955000Y-46990000D01*
X23495000Y-55880000D02*
X25400000Y-55880000D01*
X25400000Y-55880000D02*
X29210000Y-52070000D01*
X29210000Y-52070000D02*
X33655000Y-52070000D01*
X18415000Y-44450000D02*
X20955000Y-44450000D01*
X23495000Y-58420000D02*
X25400000Y-58420000D01*
X25400000Y-58420000D02*
X29210000Y-54610000D01*
X29210000Y-54610000D02*
X33655000Y-54610000D01*
D16*
X18415000Y-41910000D02*
X20955000Y-41910000D01*
X23495000Y-34290000D02*
X26035000Y-34290000D01*
X26035000Y-34290000D02*
X28575000Y-36830000D01*
X28575000Y-36830000D02*
X31115000Y-36830000D01*
X24765000Y-41910000D02*
X26035000Y-40640000D01*
X20955000Y-41910000D02*
X24765000Y-41910000D01*
D15*
X23495000Y-34290000D02*
X22225000Y-33020000D01*
X22225000Y-30480000D02*
X20955000Y-29210000D01*
X22225000Y-33020000D02*
X22225000Y-30480000D01*
D16*
X23495000Y-24130000D02*
X24765000Y-25400000D01*
X24765000Y-25400000D02*
X26035000Y-25400000D01*
X26035000Y-25400000D02*
X26035000Y-24130000D01*
X26035000Y-24130000D02*
X26670000Y-23495000D01*
X26670000Y-23495000D02*
X30480000Y-23495000D01*
X30480000Y-23495000D02*
X31115000Y-24130000D01*
D15*
X23495000Y-60960000D02*
X25400000Y-60960000D01*
X25400000Y-60960000D02*
X29210000Y-57150000D01*
X29210000Y-57150000D02*
X33655000Y-57150000D01*
X18415000Y-39370000D02*
X19685000Y-40640000D01*
X19685000Y-40640000D02*
X24130000Y-40640000D01*
X24130000Y-40640000D02*
X25400000Y-39370000D01*
X25400000Y-39370000D02*
X31115000Y-39370000D01*
X23495000Y-63500000D02*
X25400000Y-63500000D01*
X25400000Y-63500000D02*
X29210000Y-59690000D01*
X29210000Y-59690000D02*
X33655000Y-59690000D01*
X18415000Y-36830000D02*
X20955000Y-36830000D01*
X33655000Y-62230000D02*
X36195000Y-62230000D01*
X18415000Y-34290000D02*
X20955000Y-34290000D01*
X33655000Y-64770000D02*
X36195000Y-64770000D01*
X18415000Y-31750000D02*
X20955000Y-31750000D01*
X33655000Y-67310000D02*
X36195000Y-67310000D01*
X18415000Y-29210000D02*
X19685000Y-27940000D01*
X22225000Y-27940000D02*
X23495000Y-29210000D01*
X19685000Y-27940000D02*
X22225000Y-27940000D01*
X27940000Y-31750000D02*
X23495000Y-31750000D01*
X33655000Y-69850000D02*
X36195000Y-69850000D01*
X18415000Y-26670000D02*
X20955000Y-26670000D01*
X18415000Y-24130000D02*
X20955000Y-24130000D01*
X31115000Y-26670000D02*
X32385000Y-25400000D01*
X34925000Y-25400000D02*
X36195000Y-26670000D01*
X32385000Y-25400000D02*
X34925000Y-25400000D01*
X29210000Y-38100000D02*
X22225000Y-38100000D01*
X22225000Y-38100000D02*
X20955000Y-39370000D01*
X26035000Y-33020000D02*
X26670000Y-33020000D01*
X26670000Y-33020000D02*
X29210000Y-35560000D01*
X34925000Y-35560000D02*
X36195000Y-36830000D01*
X29210000Y-35560000D02*
X34925000Y-35560000D01*
D17*
G36*
X29763754Y-42696913D02*
G01*
X29723096Y-42830961D01*
X29845085Y-43053000D01*
X30988000Y-43053000D01*
X30988000Y-43033000D01*
X31242000Y-43033000D01*
X31242000Y-43053000D01*
X32384915Y-43053000D01*
X32506904Y-42830961D01*
X32479039Y-42739091D01*
X32635392Y-42929608D01*
X32853899Y-43108932D01*
X32986858Y-43180000D01*
X32853899Y-43251068D01*
X32635392Y-43430392D01*
X32479039Y-43620909D01*
X32506904Y-43529039D01*
X32384915Y-43307000D01*
X31242000Y-43307000D01*
X31242000Y-43327000D01*
X30988000Y-43327000D01*
X30988000Y-43307000D01*
X29845085Y-43307000D01*
X29723096Y-43529039D01*
X29763754Y-43663087D01*
X29776474Y-43690000D01*
X29247325Y-43690000D01*
X29210000Y-43686324D01*
X29172675Y-43690000D01*
X29172667Y-43690000D01*
X29061014Y-43700997D01*
X28917753Y-43744454D01*
X28785724Y-43815026D01*
X28669999Y-43909999D01*
X28646201Y-43938997D01*
X25085199Y-47500000D01*
X24715901Y-47500000D01*
X24693932Y-47458899D01*
X24514608Y-47240392D01*
X24296101Y-47061068D01*
X24163142Y-46990000D01*
X24296101Y-46918932D01*
X24514608Y-46739608D01*
X24693932Y-46521101D01*
X24715901Y-46480000D01*
X25362678Y-46480000D01*
X25400000Y-46483676D01*
X25437322Y-46480000D01*
X25437333Y-46480000D01*
X25548986Y-46469003D01*
X25692247Y-46425546D01*
X25824276Y-46354974D01*
X25940001Y-46260001D01*
X25963804Y-46230997D01*
X29524802Y-42670000D01*
X29776474Y-42670000D01*
X29763754Y-42696913D01*
X29763754Y-42696913D01*
G37*
X29763754Y-42696913D02*
X29723096Y-42830961D01*
X29845085Y-43053000D01*
X30988000Y-43053000D01*
X30988000Y-43033000D01*
X31242000Y-43033000D01*
X31242000Y-43053000D01*
X32384915Y-43053000D01*
X32506904Y-42830961D01*
X32479039Y-42739091D01*
X32635392Y-42929608D01*
X32853899Y-43108932D01*
X32986858Y-43180000D01*
X32853899Y-43251068D01*
X32635392Y-43430392D01*
X32479039Y-43620909D01*
X32506904Y-43529039D01*
X32384915Y-43307000D01*
X31242000Y-43307000D01*
X31242000Y-43327000D01*
X30988000Y-43327000D01*
X30988000Y-43307000D01*
X29845085Y-43307000D01*
X29723096Y-43529039D01*
X29763754Y-43663087D01*
X29776474Y-43690000D01*
X29247325Y-43690000D01*
X29210000Y-43686324D01*
X29172675Y-43690000D01*
X29172667Y-43690000D01*
X29061014Y-43700997D01*
X28917753Y-43744454D01*
X28785724Y-43815026D01*
X28669999Y-43909999D01*
X28646201Y-43938997D01*
X25085199Y-47500000D01*
X24715901Y-47500000D01*
X24693932Y-47458899D01*
X24514608Y-47240392D01*
X24296101Y-47061068D01*
X24163142Y-46990000D01*
X24296101Y-46918932D01*
X24514608Y-46739608D01*
X24693932Y-46521101D01*
X24715901Y-46480000D01*
X25362678Y-46480000D01*
X25400000Y-46483676D01*
X25437322Y-46480000D01*
X25437333Y-46480000D01*
X25548986Y-46469003D01*
X25692247Y-46425546D01*
X25824276Y-46354974D01*
X25940001Y-46260001D01*
X25963804Y-46230997D01*
X29524802Y-42670000D01*
X29776474Y-42670000D01*
X29763754Y-42696913D01*
G36*
X25085199Y-42420000D02*
G01*
X24933072Y-42420000D01*
X24933072Y-42380000D01*
X24920812Y-42255518D01*
X24884502Y-42135820D01*
X24825537Y-42025506D01*
X24746185Y-41928815D01*
X24649494Y-41849463D01*
X24539180Y-41790498D01*
X24419482Y-41754188D01*
X24295000Y-41741928D01*
X22695000Y-41741928D01*
X22570518Y-41754188D01*
X22450820Y-41790498D01*
X22390000Y-41823007D01*
X22390000Y-41782998D01*
X22224916Y-41782998D01*
X22346904Y-41560961D01*
X22306246Y-41426913D01*
X22293526Y-41400000D01*
X24092678Y-41400000D01*
X24130000Y-41403676D01*
X24167322Y-41400000D01*
X24167333Y-41400000D01*
X24278986Y-41389003D01*
X24422247Y-41345546D01*
X24554276Y-41274974D01*
X24670001Y-41180001D01*
X24693804Y-41150997D01*
X25714802Y-40130000D01*
X27375197Y-40130000D01*
X25085199Y-42420000D01*
X25085199Y-42420000D01*
G37*
X25085199Y-42420000D02*
X24933072Y-42420000D01*
X24933072Y-42380000D01*
X24920812Y-42255518D01*
X24884502Y-42135820D01*
X24825537Y-42025506D01*
X24746185Y-41928815D01*
X24649494Y-41849463D01*
X24539180Y-41790498D01*
X24419482Y-41754188D01*
X24295000Y-41741928D01*
X22695000Y-41741928D01*
X22570518Y-41754188D01*
X22450820Y-41790498D01*
X22390000Y-41823007D01*
X22390000Y-41782998D01*
X22224916Y-41782998D01*
X22346904Y-41560961D01*
X22306246Y-41426913D01*
X22293526Y-41400000D01*
X24092678Y-41400000D01*
X24130000Y-41403676D01*
X24167322Y-41400000D01*
X24167333Y-41400000D01*
X24278986Y-41389003D01*
X24422247Y-41345546D01*
X24554276Y-41274974D01*
X24670001Y-41180001D01*
X24693804Y-41150997D01*
X25714802Y-40130000D01*
X27375197Y-40130000D01*
X25085199Y-42420000D01*
G36*
X18542000Y-41783000D02*
G01*
X19684915Y-41783000D01*
X19685000Y-41782845D01*
X19685085Y-41783000D01*
X20828000Y-41783000D01*
X20828000Y-41763000D01*
X21082000Y-41763000D01*
X21082000Y-41783000D01*
X21102000Y-41783000D01*
X21102000Y-42037000D01*
X21082000Y-42037000D01*
X21082000Y-42057000D01*
X20828000Y-42057000D01*
X20828000Y-42037000D01*
X19685085Y-42037000D01*
X19685000Y-42037155D01*
X19684915Y-42037000D01*
X18542000Y-42037000D01*
X18542000Y-42057000D01*
X18288000Y-42057000D01*
X18288000Y-42037000D01*
X18268000Y-42037000D01*
X18268000Y-41783000D01*
X18288000Y-41783000D01*
X18288000Y-41763000D01*
X18542000Y-41763000D01*
X18542000Y-41783000D01*
X18542000Y-41783000D01*
G37*
X18542000Y-41783000D02*
X19684915Y-41783000D01*
X19685000Y-41782845D01*
X19685085Y-41783000D01*
X20828000Y-41783000D01*
X20828000Y-41763000D01*
X21082000Y-41763000D01*
X21082000Y-41783000D01*
X21102000Y-41783000D01*
X21102000Y-42037000D01*
X21082000Y-42037000D01*
X21082000Y-42057000D01*
X20828000Y-42057000D01*
X20828000Y-42037000D01*
X19685085Y-42037000D01*
X19685000Y-42037155D01*
X19684915Y-42037000D01*
X18542000Y-42037000D01*
X18542000Y-42057000D01*
X18288000Y-42057000D01*
X18288000Y-42037000D01*
X18268000Y-42037000D01*
X18268000Y-41783000D01*
X18288000Y-41783000D01*
X18288000Y-41763000D01*
X18542000Y-41763000D01*
X18542000Y-41783000D01*
G36*
X25117795Y-32529744D02*
G01*
X25039774Y-32718102D01*
X25000000Y-32918061D01*
X25000000Y-33121939D01*
X25039774Y-33321898D01*
X25117795Y-33510256D01*
X25231063Y-33679774D01*
X25375226Y-33823937D01*
X25544744Y-33937205D01*
X25733102Y-34015226D01*
X25933061Y-34055000D01*
X26136939Y-34055000D01*
X26336898Y-34015226D01*
X26516168Y-33940969D01*
X28646205Y-36071008D01*
X28669999Y-36100001D01*
X28698992Y-36123795D01*
X28698996Y-36123799D01*
X28769685Y-36181811D01*
X28785724Y-36194974D01*
X28917753Y-36265546D01*
X29061014Y-36309003D01*
X29172667Y-36320000D01*
X29172676Y-36320000D01*
X29209999Y-36323676D01*
X29247322Y-36320000D01*
X29776474Y-36320000D01*
X29763754Y-36346913D01*
X29723096Y-36480961D01*
X29845085Y-36703000D01*
X30988000Y-36703000D01*
X30988000Y-36683000D01*
X31242000Y-36683000D01*
X31242000Y-36703000D01*
X31262000Y-36703000D01*
X31262000Y-36957000D01*
X31242000Y-36957000D01*
X31242000Y-36977000D01*
X30988000Y-36977000D01*
X30988000Y-36957000D01*
X29845085Y-36957000D01*
X29723096Y-37179039D01*
X29730330Y-37202890D01*
X29700256Y-37182795D01*
X29511898Y-37104774D01*
X29311939Y-37065000D01*
X29108061Y-37065000D01*
X28908102Y-37104774D01*
X28719744Y-37182795D01*
X28550226Y-37296063D01*
X28506289Y-37340000D01*
X24839864Y-37340000D01*
X24909236Y-37111309D01*
X24936943Y-36830000D01*
X24909236Y-36548691D01*
X24827182Y-36278192D01*
X24693932Y-36028899D01*
X24514608Y-35810392D01*
X24296101Y-35631068D01*
X24158318Y-35557421D01*
X24350131Y-35442385D01*
X24558519Y-35253414D01*
X24726037Y-35027420D01*
X24846246Y-34773087D01*
X24886904Y-34639039D01*
X24764915Y-34417000D01*
X23622000Y-34417000D01*
X23622000Y-34437000D01*
X23368000Y-34437000D01*
X23368000Y-34417000D01*
X23348000Y-34417000D01*
X23348000Y-34163000D01*
X23368000Y-34163000D01*
X23368000Y-34143000D01*
X23622000Y-34143000D01*
X23622000Y-34163000D01*
X24764915Y-34163000D01*
X24886904Y-33940961D01*
X24846246Y-33806913D01*
X24726037Y-33552580D01*
X24558519Y-33326586D01*
X24350131Y-33137615D01*
X24158318Y-33022579D01*
X24296101Y-32948932D01*
X24514608Y-32769608D01*
X24693932Y-32551101D01*
X24715901Y-32510000D01*
X25130987Y-32510000D01*
X25117795Y-32529744D01*
X25117795Y-32529744D01*
G37*
X25117795Y-32529744D02*
X25039774Y-32718102D01*
X25000000Y-32918061D01*
X25000000Y-33121939D01*
X25039774Y-33321898D01*
X25117795Y-33510256D01*
X25231063Y-33679774D01*
X25375226Y-33823937D01*
X25544744Y-33937205D01*
X25733102Y-34015226D01*
X25933061Y-34055000D01*
X26136939Y-34055000D01*
X26336898Y-34015226D01*
X26516168Y-33940969D01*
X28646205Y-36071008D01*
X28669999Y-36100001D01*
X28698992Y-36123795D01*
X28698996Y-36123799D01*
X28769685Y-36181811D01*
X28785724Y-36194974D01*
X28917753Y-36265546D01*
X29061014Y-36309003D01*
X29172667Y-36320000D01*
X29172676Y-36320000D01*
X29209999Y-36323676D01*
X29247322Y-36320000D01*
X29776474Y-36320000D01*
X29763754Y-36346913D01*
X29723096Y-36480961D01*
X29845085Y-36703000D01*
X30988000Y-36703000D01*
X30988000Y-36683000D01*
X31242000Y-36683000D01*
X31242000Y-36703000D01*
X31262000Y-36703000D01*
X31262000Y-36957000D01*
X31242000Y-36957000D01*
X31242000Y-36977000D01*
X30988000Y-36977000D01*
X30988000Y-36957000D01*
X29845085Y-36957000D01*
X29723096Y-37179039D01*
X29730330Y-37202890D01*
X29700256Y-37182795D01*
X29511898Y-37104774D01*
X29311939Y-37065000D01*
X29108061Y-37065000D01*
X28908102Y-37104774D01*
X28719744Y-37182795D01*
X28550226Y-37296063D01*
X28506289Y-37340000D01*
X24839864Y-37340000D01*
X24909236Y-37111309D01*
X24936943Y-36830000D01*
X24909236Y-36548691D01*
X24827182Y-36278192D01*
X24693932Y-36028899D01*
X24514608Y-35810392D01*
X24296101Y-35631068D01*
X24158318Y-35557421D01*
X24350131Y-35442385D01*
X24558519Y-35253414D01*
X24726037Y-35027420D01*
X24846246Y-34773087D01*
X24886904Y-34639039D01*
X24764915Y-34417000D01*
X23622000Y-34417000D01*
X23622000Y-34437000D01*
X23368000Y-34437000D01*
X23368000Y-34417000D01*
X23348000Y-34417000D01*
X23348000Y-34163000D01*
X23368000Y-34163000D01*
X23368000Y-34143000D01*
X23622000Y-34143000D01*
X23622000Y-34163000D01*
X24764915Y-34163000D01*
X24886904Y-33940961D01*
X24846246Y-33806913D01*
X24726037Y-33552580D01*
X24558519Y-33326586D01*
X24350131Y-33137615D01*
X24158318Y-33022579D01*
X24296101Y-32948932D01*
X24514608Y-32769608D01*
X24693932Y-32551101D01*
X24715901Y-32510000D01*
X25130987Y-32510000D01*
X25117795Y-32529744D01*
G36*
X22296068Y-32551101D02*
G01*
X22475392Y-32769608D01*
X22693899Y-32948932D01*
X22831682Y-33022579D01*
X22639869Y-33137615D01*
X22431481Y-33326586D01*
X22263963Y-33552580D01*
X22228301Y-33628033D01*
X22153932Y-33488899D01*
X21974608Y-33270392D01*
X21756101Y-33091068D01*
X21623142Y-33020000D01*
X21756101Y-32948932D01*
X21974608Y-32769608D01*
X22153932Y-32551101D01*
X22225000Y-32418142D01*
X22296068Y-32551101D01*
X22296068Y-32551101D01*
G37*
X22296068Y-32551101D02*
X22475392Y-32769608D01*
X22693899Y-32948932D01*
X22831682Y-33022579D01*
X22639869Y-33137615D01*
X22431481Y-33326586D01*
X22263963Y-33552580D01*
X22228301Y-33628033D01*
X22153932Y-33488899D01*
X21974608Y-33270392D01*
X21756101Y-33091068D01*
X21623142Y-33020000D01*
X21756101Y-32948932D01*
X21974608Y-32769608D01*
X22153932Y-32551101D01*
X22225000Y-32418142D01*
X22296068Y-32551101D01*
G36*
X22296068Y-30011101D02*
G01*
X22475392Y-30229608D01*
X22693899Y-30408932D01*
X22826858Y-30480000D01*
X22693899Y-30551068D01*
X22475392Y-30730392D01*
X22296068Y-30948899D01*
X22225000Y-31081858D01*
X22153932Y-30948899D01*
X21974608Y-30730392D01*
X21756101Y-30551068D01*
X21618318Y-30477421D01*
X21810131Y-30362385D01*
X22018519Y-30173414D01*
X22186037Y-29947420D01*
X22221699Y-29871967D01*
X22296068Y-30011101D01*
X22296068Y-30011101D01*
G37*
X22296068Y-30011101D02*
X22475392Y-30229608D01*
X22693899Y-30408932D01*
X22826858Y-30480000D01*
X22693899Y-30551068D01*
X22475392Y-30730392D01*
X22296068Y-30948899D01*
X22225000Y-31081858D01*
X22153932Y-30948899D01*
X21974608Y-30730392D01*
X21756101Y-30551068D01*
X21618318Y-30477421D01*
X21810131Y-30362385D01*
X22018519Y-30173414D01*
X22186037Y-29947420D01*
X22221699Y-29871967D01*
X22296068Y-30011101D01*
G36*
X21082000Y-29083000D02*
G01*
X21102000Y-29083000D01*
X21102000Y-29337000D01*
X21082000Y-29337000D01*
X21082000Y-29357000D01*
X20828000Y-29357000D01*
X20828000Y-29337000D01*
X20808000Y-29337000D01*
X20808000Y-29083000D01*
X20828000Y-29083000D01*
X20828000Y-29063000D01*
X21082000Y-29063000D01*
X21082000Y-29083000D01*
X21082000Y-29083000D01*
G37*
X21082000Y-29083000D02*
X21102000Y-29083000D01*
X21102000Y-29337000D01*
X21082000Y-29337000D01*
X21082000Y-29357000D01*
X20828000Y-29357000D01*
X20828000Y-29337000D01*
X20808000Y-29337000D01*
X20808000Y-29083000D01*
X20828000Y-29083000D01*
X20828000Y-29063000D01*
X21082000Y-29063000D01*
X21082000Y-29083000D01*
G36*
X30259869Y-22977615D02*
G01*
X30051481Y-23166586D01*
X29883963Y-23392580D01*
X29763754Y-23646913D01*
X29723096Y-23780961D01*
X29825481Y-23967318D01*
X29719180Y-23910498D01*
X29599482Y-23874188D01*
X29475000Y-23861928D01*
X27675000Y-23861928D01*
X27550518Y-23874188D01*
X27430820Y-23910498D01*
X27320506Y-23969463D01*
X27223815Y-24048815D01*
X27144463Y-24145506D01*
X27085498Y-24255820D01*
X27082187Y-24266735D01*
X27035422Y-24219970D01*
X26919474Y-24335918D01*
X26835792Y-24081739D01*
X26563225Y-23950842D01*
X26270358Y-23875635D01*
X25968447Y-23859009D01*
X25669093Y-23901603D01*
X25383801Y-24001778D01*
X25234208Y-24081739D01*
X25150525Y-24335920D01*
X26035000Y-25220395D01*
X26049143Y-25206253D01*
X26228748Y-25385858D01*
X26214605Y-25400000D01*
X26228748Y-25414143D01*
X26049143Y-25593748D01*
X26035000Y-25579605D01*
X26020858Y-25593748D01*
X25841253Y-25414143D01*
X25855395Y-25400000D01*
X24970920Y-24515525D01*
X24930675Y-24528775D01*
X24930000Y-24415750D01*
X24771250Y-24257000D01*
X23622000Y-24257000D01*
X23622000Y-24277000D01*
X23368000Y-24277000D01*
X23368000Y-24257000D01*
X23348000Y-24257000D01*
X23348000Y-24003000D01*
X23368000Y-24003000D01*
X23368000Y-23983000D01*
X23622000Y-23983000D01*
X23622000Y-24003000D01*
X24771250Y-24003000D01*
X24930000Y-23844250D01*
X24933072Y-23330000D01*
X24920812Y-23205518D01*
X24884502Y-23085820D01*
X24825537Y-22975506D01*
X24751261Y-22885000D01*
X30414297Y-22885000D01*
X30259869Y-22977615D01*
X30259869Y-22977615D01*
G37*
X30259869Y-22977615D02*
X30051481Y-23166586D01*
X29883963Y-23392580D01*
X29763754Y-23646913D01*
X29723096Y-23780961D01*
X29825481Y-23967318D01*
X29719180Y-23910498D01*
X29599482Y-23874188D01*
X29475000Y-23861928D01*
X27675000Y-23861928D01*
X27550518Y-23874188D01*
X27430820Y-23910498D01*
X27320506Y-23969463D01*
X27223815Y-24048815D01*
X27144463Y-24145506D01*
X27085498Y-24255820D01*
X27082187Y-24266735D01*
X27035422Y-24219970D01*
X26919474Y-24335918D01*
X26835792Y-24081739D01*
X26563225Y-23950842D01*
X26270358Y-23875635D01*
X25968447Y-23859009D01*
X25669093Y-23901603D01*
X25383801Y-24001778D01*
X25234208Y-24081739D01*
X25150525Y-24335920D01*
X26035000Y-25220395D01*
X26049143Y-25206253D01*
X26228748Y-25385858D01*
X26214605Y-25400000D01*
X26228748Y-25414143D01*
X26049143Y-25593748D01*
X26035000Y-25579605D01*
X26020858Y-25593748D01*
X25841253Y-25414143D01*
X25855395Y-25400000D01*
X24970920Y-24515525D01*
X24930675Y-24528775D01*
X24930000Y-24415750D01*
X24771250Y-24257000D01*
X23622000Y-24257000D01*
X23622000Y-24277000D01*
X23368000Y-24277000D01*
X23368000Y-24257000D01*
X23348000Y-24257000D01*
X23348000Y-24003000D01*
X23368000Y-24003000D01*
X23368000Y-23983000D01*
X23622000Y-23983000D01*
X23622000Y-24003000D01*
X24771250Y-24003000D01*
X24930000Y-23844250D01*
X24933072Y-23330000D01*
X24920812Y-23205518D01*
X24884502Y-23085820D01*
X24825537Y-22975506D01*
X24751261Y-22885000D01*
X30414297Y-22885000D01*
X30259869Y-22977615D01*
G36*
X31242000Y-24003000D02*
G01*
X31262000Y-24003000D01*
X31262000Y-24257000D01*
X31242000Y-24257000D01*
X31242000Y-24277000D01*
X30988000Y-24277000D01*
X30988000Y-24257000D01*
X30968000Y-24257000D01*
X30968000Y-24003000D01*
X30988000Y-24003000D01*
X30988000Y-23983000D01*
X31242000Y-23983000D01*
X31242000Y-24003000D01*
X31242000Y-24003000D01*
G37*
X31242000Y-24003000D02*
X31262000Y-24003000D01*
X31262000Y-24257000D01*
X31242000Y-24257000D01*
X31242000Y-24277000D01*
X30988000Y-24277000D01*
X30988000Y-24257000D01*
X30968000Y-24257000D01*
X30968000Y-24003000D01*
X30988000Y-24003000D01*
X30988000Y-23983000D01*
X31242000Y-23983000D01*
X31242000Y-24003000D01*
M02*
