%FSLAX45Y45*%
G04 Gerber Fmt 4.5, Leading zero omitted, Abs format (unit mm)*
G04 Created by KiCad (PCBNEW (5.1.2-1)-1) date 2023-07-30 19:37:54*
%MOMM*%
%LPD*%
G04 APERTURE LIST*
%ADD10C,0.050000*%
%ADD11C,0.200000*%
%ADD12C,0.300000*%
G04 APERTURE END LIST*
D10*
X3746500Y-2222500D02*
G75*
G02X3810000Y-2286000I0J-63500D01*
G01*
X1651000Y-2286000D02*
G75*
G02X1714500Y-2222500I63500J0D01*
G01*
X3810000Y-7366000D02*
G75*
G02X3746500Y-7429500I-63500J0D01*
G01*
X1714500Y-7429500D02*
G75*
G02X1651000Y-7366000I0J63500D01*
G01*
X1651000Y-2286000D02*
X1651000Y-7366000D01*
X3746500Y-2222500D02*
X1714500Y-2222500D01*
X3810000Y-7366000D02*
X3810000Y-2286000D01*
X1714500Y-7429500D02*
X3746500Y-7429500D01*
D11*
D12*
X1934928Y-7897714D02*
X1934928Y-7597714D01*
X2006357Y-7597714D01*
X2049214Y-7612000D01*
X2077786Y-7640571D01*
X2092071Y-7669143D01*
X2106357Y-7726286D01*
X2106357Y-7769143D01*
X2092071Y-7826286D01*
X2077786Y-7854857D01*
X2049214Y-7883429D01*
X2006357Y-7897714D01*
X1934928Y-7897714D01*
X2234928Y-7897714D02*
X2234928Y-7697714D01*
X2234928Y-7754857D02*
X2249214Y-7726286D01*
X2263500Y-7712000D01*
X2292071Y-7697714D01*
X2320643Y-7697714D01*
X2420643Y-7897714D02*
X2420643Y-7697714D01*
X2420643Y-7597714D02*
X2406357Y-7612000D01*
X2420643Y-7626286D01*
X2434928Y-7612000D01*
X2420643Y-7597714D01*
X2420643Y-7626286D01*
X2606357Y-7897714D02*
X2577786Y-7883429D01*
X2563500Y-7854857D01*
X2563500Y-7597714D01*
X2763500Y-7897714D02*
X2734928Y-7883429D01*
X2720643Y-7854857D01*
X2720643Y-7597714D01*
X3106357Y-7897714D02*
X3106357Y-7597714D01*
X3206357Y-7812000D01*
X3306357Y-7597714D01*
X3306357Y-7897714D01*
X3577786Y-7897714D02*
X3577786Y-7740571D01*
X3563500Y-7712000D01*
X3534928Y-7697714D01*
X3477786Y-7697714D01*
X3449214Y-7712000D01*
X3577786Y-7883429D02*
X3549214Y-7897714D01*
X3477786Y-7897714D01*
X3449214Y-7883429D01*
X3434928Y-7854857D01*
X3434928Y-7826286D01*
X3449214Y-7797714D01*
X3477786Y-7783429D01*
X3549214Y-7783429D01*
X3577786Y-7769143D01*
X3720643Y-7697714D02*
X3720643Y-7997714D01*
X3720643Y-7712000D02*
X3749214Y-7697714D01*
X3806357Y-7697714D01*
X3834928Y-7712000D01*
X3849214Y-7726286D01*
X3863500Y-7754857D01*
X3863500Y-7840571D01*
X3849214Y-7869143D01*
X3834928Y-7883429D01*
X3806357Y-7897714D01*
X3749214Y-7897714D01*
X3720643Y-7883429D01*
X3992071Y-7869143D02*
X4006357Y-7883429D01*
X3992071Y-7897714D01*
X3977786Y-7883429D01*
X3992071Y-7869143D01*
X3992071Y-7897714D01*
X3992071Y-7712000D02*
X4006357Y-7726286D01*
X3992071Y-7740571D01*
X3977786Y-7726286D01*
X3992071Y-7712000D01*
X3992071Y-7740571D01*
M02*
