M48
; DRILL file {KiCad (5.1.2-1)-1} date domingo, 30 de julio de 2023, 19:37:53
; FORMAT={-:-/ absolute / metric / decimal}
; #@! TF.CreationDate,2023-07-30T19:37:53+02:00
; #@! TF.GenerationSoftware,Kicad,Pcbnew,(5.1.2-1)-1
; #@! TF.FileFunction,Plated,1,2,PTH
FMAT,2
METRIC
T1C0.400
T2C0.800
T3C0.900
%
G90
G05
T1
X26.035Y-33.02
X26.035Y-40.64
X27.94Y-31.75
X29.21Y-38.1
T2
X23.495Y-24.13
X23.495Y-26.67
X23.495Y-29.21
X23.495Y-31.75
X23.495Y-34.29
X23.495Y-36.83
X23.495Y-39.37
X31.115Y-24.13
X31.115Y-26.67
X31.115Y-29.21
X31.115Y-31.75
X31.115Y-34.29
X31.115Y-36.83
X31.115Y-39.37
X20.955Y-24.13
X20.955Y-26.67
X20.955Y-29.21
X20.955Y-31.75
X20.955Y-34.29
X20.955Y-36.83
X20.955Y-39.37
X20.955Y-41.91
X20.955Y-44.45
X20.955Y-46.99
X20.955Y-49.53
X20.955Y-52.07
X20.955Y-54.61
X20.955Y-57.15
X20.955Y-59.69
X20.955Y-62.23
X20.955Y-64.77
X20.955Y-67.31
X20.955Y-69.85
X20.955Y-72.39
X36.195Y-24.13
X36.195Y-26.67
X36.195Y-29.21
X36.195Y-31.75
X36.195Y-34.29
X36.195Y-36.83
X36.195Y-39.37
X36.195Y-41.91
X36.195Y-44.45
X36.195Y-46.99
X36.195Y-49.53
X36.195Y-52.07
X36.195Y-54.61
X36.195Y-57.15
X36.195Y-59.69
X36.195Y-62.23
X36.195Y-64.77
X36.195Y-67.31
X36.195Y-69.85
X36.195Y-72.39
X23.495Y-43.18
X23.495Y-45.72
X23.495Y-48.26
X23.495Y-50.8
X23.495Y-53.34
X23.495Y-55.88
X23.495Y-58.42
X23.495Y-60.96
X23.495Y-63.5
X23.495Y-66.04
X31.115Y-43.18
X31.115Y-45.72
X31.115Y-48.26
X31.115Y-50.8
X31.115Y-53.34
X31.115Y-55.88
X31.115Y-58.42
X31.115Y-60.96
X31.115Y-63.5
X31.115Y-66.04
X18.415Y-24.13
X18.415Y-26.67
X18.415Y-29.21
X18.415Y-31.75
X18.415Y-34.29
X18.415Y-36.83
X18.415Y-39.37
X18.415Y-41.91
X18.415Y-44.45
X18.415Y-46.99
X18.415Y-49.53
X18.415Y-52.07
X18.415Y-54.61
X18.415Y-57.15
X18.415Y-59.69
X18.415Y-62.23
X18.415Y-64.77
X18.415Y-67.31
X18.415Y-69.85
X18.415Y-72.39
X33.655Y-24.13
X33.655Y-26.67
X33.655Y-29.21
X33.655Y-31.75
X33.655Y-34.29
X33.655Y-36.83
X33.655Y-39.37
X33.655Y-41.91
X33.655Y-44.45
X33.655Y-46.99
X33.655Y-49.53
X33.655Y-52.07
X33.655Y-54.61
X33.655Y-57.15
X33.655Y-59.69
X33.655Y-62.23
X33.655Y-64.77
X33.655Y-67.31
X33.655Y-69.85
X33.655Y-72.39
T3
X26.035Y-25.4
X28.575Y-25.4
T0
M30
