G04 #@! TF.GenerationSoftware,KiCad,Pcbnew,(5.1.2-1)-1*
G04 #@! TF.CreationDate,2023-07-30T19:37:46+02:00*
G04 #@! TF.ProjectId,816to02,38313674-6f30-4322-9e6b-696361645f70,rev?*
G04 #@! TF.SameCoordinates,Original*
G04 #@! TF.FileFunction,Paste,Top*
G04 #@! TF.FilePolarity,Positive*
%FSLAX46Y46*%
G04 Gerber Fmt 4.6, Leading zero omitted, Abs format (unit mm)*
G04 Created by KiCad (PCBNEW (5.1.2-1)-1) date 2023-07-30 19:37:46*
%MOMM*%
%LPD*%
G04 APERTURE LIST*
%ADD10C,0.100000*%
%ADD11C,1.150000*%
G04 APERTURE END LIST*
D10*
G36*
X26509505Y-27611204D02*
G01*
X26533773Y-27614804D01*
X26557572Y-27620765D01*
X26580671Y-27629030D01*
X26602850Y-27639520D01*
X26623893Y-27652132D01*
X26643599Y-27666747D01*
X26661777Y-27683223D01*
X26678253Y-27701401D01*
X26692868Y-27721107D01*
X26705480Y-27742150D01*
X26715970Y-27764329D01*
X26724235Y-27787428D01*
X26730196Y-27811227D01*
X26733796Y-27835495D01*
X26735000Y-27859999D01*
X26735000Y-28510001D01*
X26733796Y-28534505D01*
X26730196Y-28558773D01*
X26724235Y-28582572D01*
X26715970Y-28605671D01*
X26705480Y-28627850D01*
X26692868Y-28648893D01*
X26678253Y-28668599D01*
X26661777Y-28686777D01*
X26643599Y-28703253D01*
X26623893Y-28717868D01*
X26602850Y-28730480D01*
X26580671Y-28740970D01*
X26557572Y-28749235D01*
X26533773Y-28755196D01*
X26509505Y-28758796D01*
X26485001Y-28760000D01*
X25584999Y-28760000D01*
X25560495Y-28758796D01*
X25536227Y-28755196D01*
X25512428Y-28749235D01*
X25489329Y-28740970D01*
X25467150Y-28730480D01*
X25446107Y-28717868D01*
X25426401Y-28703253D01*
X25408223Y-28686777D01*
X25391747Y-28668599D01*
X25377132Y-28648893D01*
X25364520Y-28627850D01*
X25354030Y-28605671D01*
X25345765Y-28582572D01*
X25339804Y-28558773D01*
X25336204Y-28534505D01*
X25335000Y-28510001D01*
X25335000Y-27859999D01*
X25336204Y-27835495D01*
X25339804Y-27811227D01*
X25345765Y-27787428D01*
X25354030Y-27764329D01*
X25364520Y-27742150D01*
X25377132Y-27721107D01*
X25391747Y-27701401D01*
X25408223Y-27683223D01*
X25426401Y-27666747D01*
X25446107Y-27652132D01*
X25467150Y-27639520D01*
X25489329Y-27629030D01*
X25512428Y-27620765D01*
X25536227Y-27614804D01*
X25560495Y-27611204D01*
X25584999Y-27610000D01*
X26485001Y-27610000D01*
X26509505Y-27611204D01*
X26509505Y-27611204D01*
G37*
D11*
X26035000Y-28185000D03*
D10*
G36*
X26509505Y-29661204D02*
G01*
X26533773Y-29664804D01*
X26557572Y-29670765D01*
X26580671Y-29679030D01*
X26602850Y-29689520D01*
X26623893Y-29702132D01*
X26643599Y-29716747D01*
X26661777Y-29733223D01*
X26678253Y-29751401D01*
X26692868Y-29771107D01*
X26705480Y-29792150D01*
X26715970Y-29814329D01*
X26724235Y-29837428D01*
X26730196Y-29861227D01*
X26733796Y-29885495D01*
X26735000Y-29909999D01*
X26735000Y-30560001D01*
X26733796Y-30584505D01*
X26730196Y-30608773D01*
X26724235Y-30632572D01*
X26715970Y-30655671D01*
X26705480Y-30677850D01*
X26692868Y-30698893D01*
X26678253Y-30718599D01*
X26661777Y-30736777D01*
X26643599Y-30753253D01*
X26623893Y-30767868D01*
X26602850Y-30780480D01*
X26580671Y-30790970D01*
X26557572Y-30799235D01*
X26533773Y-30805196D01*
X26509505Y-30808796D01*
X26485001Y-30810000D01*
X25584999Y-30810000D01*
X25560495Y-30808796D01*
X25536227Y-30805196D01*
X25512428Y-30799235D01*
X25489329Y-30790970D01*
X25467150Y-30780480D01*
X25446107Y-30767868D01*
X25426401Y-30753253D01*
X25408223Y-30736777D01*
X25391747Y-30718599D01*
X25377132Y-30698893D01*
X25364520Y-30677850D01*
X25354030Y-30655671D01*
X25345765Y-30632572D01*
X25339804Y-30608773D01*
X25336204Y-30584505D01*
X25335000Y-30560001D01*
X25335000Y-29909999D01*
X25336204Y-29885495D01*
X25339804Y-29861227D01*
X25345765Y-29837428D01*
X25354030Y-29814329D01*
X25364520Y-29792150D01*
X25377132Y-29771107D01*
X25391747Y-29751401D01*
X25408223Y-29733223D01*
X25426401Y-29716747D01*
X25446107Y-29702132D01*
X25467150Y-29689520D01*
X25489329Y-29679030D01*
X25512428Y-29670765D01*
X25536227Y-29664804D01*
X25560495Y-29661204D01*
X25584999Y-29660000D01*
X26485001Y-29660000D01*
X26509505Y-29661204D01*
X26509505Y-29661204D01*
G37*
D11*
X26035000Y-30235000D03*
M02*
