G04 #@! TF.GenerationSoftware,KiCad,Pcbnew,(5.1.2-1)-1*
G04 #@! TF.CreationDate,2023-07-30T19:37:46+02:00*
G04 #@! TF.ProjectId,816to02,38313674-6f30-4322-9e6b-696361645f70,rev?*
G04 #@! TF.SameCoordinates,Original*
G04 #@! TF.FileFunction,Legend,Bot*
G04 #@! TF.FilePolarity,Positive*
%FSLAX46Y46*%
G04 Gerber Fmt 4.6, Leading zero omitted, Abs format (unit mm)*
G04 Created by KiCad (PCBNEW (5.1.2-1)-1) date 2023-07-30 19:37:46*
%MOMM*%
%LPD*%
G04 APERTURE LIST*
%ADD10C,0.120000*%
%ADD11C,0.200000*%
%ADD12C,0.300000*%
%ADD13C,0.250000*%
%ADD14C,0.150000*%
%ADD15O,1.702000X1.702000*%
%ADD16R,1.702000X1.702000*%
%ADD17C,1.902000*%
%ADD18R,1.902000X1.902000*%
G04 APERTURE END LIST*
D10*
X28575000Y-29464000D02*
X29464000Y-30353000D01*
X28575000Y-29464000D02*
X27686000Y-30353000D01*
X28575000Y-28553210D02*
X28575000Y-29464000D01*
X27432000Y-28702000D02*
X29718000Y-28702000D01*
X27432000Y-28702000D02*
G75*
G02X29718000Y-28702000I1143000J0D01*
G01*
X28934210Y-28194000D02*
G75*
G03X28934210Y-28194000I-359210J0D01*
G01*
X26035000Y-22860000D02*
G75*
G02X24765000Y-22860000I-635000J0D01*
G01*
X18415000Y-22860000D02*
X18415000Y-73660000D01*
X24765000Y-22860000D02*
X18415000Y-22860000D01*
X33655000Y-22860000D02*
X26035000Y-22860000D01*
X33655000Y-73660000D02*
X33655000Y-22860000D01*
X18415000Y-73660000D02*
X33655000Y-73660000D01*
D11*
X27605000Y-41163333D02*
X26671666Y-40925238D01*
X27605000Y-40687142D01*
X26671666Y-39782380D02*
X26671666Y-40353809D01*
X26671666Y-40068095D02*
X28071666Y-40068095D01*
X27871666Y-40163333D01*
X27738333Y-40258571D01*
X27671666Y-40353809D01*
X27938333Y-38639523D02*
X28005000Y-38591904D01*
X28071666Y-38496666D01*
X28071666Y-38258571D01*
X28005000Y-38163333D01*
X27938333Y-38115714D01*
X27805000Y-38068095D01*
X27671666Y-38068095D01*
X27471666Y-38115714D01*
X26671666Y-38687142D01*
X26671666Y-38068095D01*
X28071666Y-37449047D02*
X28071666Y-37353809D01*
X28005000Y-37258571D01*
X27938333Y-37210952D01*
X27805000Y-37163333D01*
X27538333Y-37115714D01*
X27205000Y-37115714D01*
X26938333Y-37163333D01*
X26805000Y-37210952D01*
X26738333Y-37258571D01*
X26671666Y-37353809D01*
X26671666Y-37449047D01*
X26738333Y-37544285D01*
X26805000Y-37591904D01*
X26938333Y-37639523D01*
X27205000Y-37687142D01*
X27538333Y-37687142D01*
X27805000Y-37639523D01*
X27938333Y-37591904D01*
X28005000Y-37544285D01*
X28071666Y-37449047D01*
X27938333Y-36734761D02*
X28005000Y-36687142D01*
X28071666Y-36591904D01*
X28071666Y-36353809D01*
X28005000Y-36258571D01*
X27938333Y-36210952D01*
X27805000Y-36163333D01*
X27671666Y-36163333D01*
X27471666Y-36210952D01*
X26671666Y-36782380D01*
X26671666Y-36163333D01*
X28071666Y-35830000D02*
X28071666Y-35210952D01*
X27538333Y-35544285D01*
X27538333Y-35401428D01*
X27471666Y-35306190D01*
X27405000Y-35258571D01*
X27271666Y-35210952D01*
X26938333Y-35210952D01*
X26805000Y-35258571D01*
X26738333Y-35306190D01*
X26671666Y-35401428D01*
X26671666Y-35687142D01*
X26738333Y-35782380D01*
X26805000Y-35830000D01*
X27271666Y-34639523D02*
X27205000Y-34687142D01*
X27138333Y-34639523D01*
X27205000Y-34591904D01*
X27271666Y-34639523D01*
X27138333Y-34639523D01*
X28071666Y-33830000D02*
X28071666Y-33734761D01*
X28005000Y-33639523D01*
X27938333Y-33591904D01*
X27805000Y-33544285D01*
X27538333Y-33496666D01*
X27205000Y-33496666D01*
X26938333Y-33544285D01*
X26805000Y-33591904D01*
X26738333Y-33639523D01*
X26671666Y-33734761D01*
X26671666Y-33830000D01*
X26738333Y-33925238D01*
X26805000Y-33972857D01*
X26938333Y-34020476D01*
X27205000Y-34068095D01*
X27538333Y-34068095D01*
X27805000Y-34020476D01*
X27938333Y-33972857D01*
X28005000Y-33925238D01*
X28071666Y-33830000D01*
X28071666Y-33163333D02*
X28071666Y-32496666D01*
X26671666Y-32925238D01*
D12*
X28181190Y-68464285D02*
X28181190Y-68692857D01*
X28104999Y-68807142D01*
X28028809Y-68864285D01*
X27800238Y-68978571D01*
X27495476Y-69035714D01*
X26885952Y-69035714D01*
X26733571Y-68978571D01*
X26657380Y-68921428D01*
X26581190Y-68807142D01*
X26581190Y-68578571D01*
X26657380Y-68464285D01*
X26733571Y-68407142D01*
X26885952Y-68350000D01*
X27266904Y-68350000D01*
X27419285Y-68407142D01*
X27495476Y-68464285D01*
X27571666Y-68578571D01*
X27571666Y-68807142D01*
X27495476Y-68921428D01*
X27419285Y-68978571D01*
X27266904Y-69035714D01*
X28181190Y-67264285D02*
X28181190Y-67835714D01*
X27419285Y-67892857D01*
X27495476Y-67835714D01*
X27571666Y-67721428D01*
X27571666Y-67435714D01*
X27495476Y-67321428D01*
X27419285Y-67264285D01*
X27266904Y-67207142D01*
X26885952Y-67207142D01*
X26733571Y-67264285D01*
X26657380Y-67321428D01*
X26581190Y-67435714D01*
X26581190Y-67721428D01*
X26657380Y-67835714D01*
X26733571Y-67892857D01*
X26733571Y-66007142D02*
X26657380Y-66064285D01*
X26581190Y-66235714D01*
X26581190Y-66350000D01*
X26657380Y-66521428D01*
X26809761Y-66635714D01*
X26962142Y-66692857D01*
X27266904Y-66750000D01*
X27495476Y-66750000D01*
X27800238Y-66692857D01*
X27952619Y-66635714D01*
X28105000Y-66521428D01*
X28181190Y-66350000D01*
X28181190Y-66235714D01*
X28105000Y-66064285D01*
X28028809Y-66007142D01*
X27495476Y-65321428D02*
X27571666Y-65435714D01*
X27647857Y-65492857D01*
X27800238Y-65550000D01*
X27876428Y-65550000D01*
X28028809Y-65492857D01*
X28105000Y-65435714D01*
X28181190Y-65321428D01*
X28181190Y-65092857D01*
X28105000Y-64978571D01*
X28028809Y-64921428D01*
X27876428Y-64864285D01*
X27800238Y-64864285D01*
X27647857Y-64921428D01*
X27571666Y-64978571D01*
X27495476Y-65092857D01*
X27495476Y-65321428D01*
X27419285Y-65435714D01*
X27343095Y-65492857D01*
X27190714Y-65550000D01*
X26885952Y-65550000D01*
X26733571Y-65492857D01*
X26657380Y-65435714D01*
X26581190Y-65321428D01*
X26581190Y-65092857D01*
X26657380Y-64978571D01*
X26733571Y-64921428D01*
X26885952Y-64864285D01*
X27190714Y-64864285D01*
X27343095Y-64921428D01*
X27419285Y-64978571D01*
X27495476Y-65092857D01*
X26581190Y-63721428D02*
X26581190Y-64407142D01*
X26581190Y-64064285D02*
X28181190Y-64064285D01*
X27952619Y-64178571D01*
X27800238Y-64292857D01*
X27724047Y-64407142D01*
X28181190Y-62692857D02*
X28181190Y-62921428D01*
X28105000Y-63035714D01*
X28028809Y-63092857D01*
X27800238Y-63207142D01*
X27495476Y-63264285D01*
X26885952Y-63264285D01*
X26733571Y-63207142D01*
X26657380Y-63150000D01*
X26581190Y-63035714D01*
X26581190Y-62807142D01*
X26657380Y-62692857D01*
X26733571Y-62635714D01*
X26885952Y-62578571D01*
X27266904Y-62578571D01*
X27419285Y-62635714D01*
X27495476Y-62692857D01*
X27571666Y-62807142D01*
X27571666Y-63035714D01*
X27495476Y-63150000D01*
X27419285Y-63207142D01*
X27266904Y-63264285D01*
X27190714Y-62064285D02*
X27190714Y-61150000D01*
X27647857Y-60578571D02*
X27190714Y-59664285D01*
X26733571Y-60578571D01*
X28181190Y-58578571D02*
X28181190Y-58807142D01*
X28105000Y-58921428D01*
X28028809Y-58978571D01*
X27800238Y-59092857D01*
X27495476Y-59150000D01*
X26885952Y-59150000D01*
X26733571Y-59092857D01*
X26657380Y-59035714D01*
X26581190Y-58921428D01*
X26581190Y-58692857D01*
X26657380Y-58578571D01*
X26733571Y-58521428D01*
X26885952Y-58464285D01*
X27266904Y-58464285D01*
X27419285Y-58521428D01*
X27495476Y-58578571D01*
X27571666Y-58692857D01*
X27571666Y-58921428D01*
X27495476Y-59035714D01*
X27419285Y-59092857D01*
X27266904Y-59150000D01*
X28181190Y-57378571D02*
X28181190Y-57950000D01*
X27419285Y-58007142D01*
X27495476Y-57950000D01*
X27571666Y-57835714D01*
X27571666Y-57550000D01*
X27495476Y-57435714D01*
X27419285Y-57378571D01*
X27266904Y-57321428D01*
X26885952Y-57321428D01*
X26733571Y-57378571D01*
X26657380Y-57435714D01*
X26581190Y-57550000D01*
X26581190Y-57835714D01*
X26657380Y-57950000D01*
X26733571Y-58007142D01*
X26733571Y-56121428D02*
X26657380Y-56178571D01*
X26581190Y-56350000D01*
X26581190Y-56464285D01*
X26657380Y-56635714D01*
X26809761Y-56750000D01*
X26962142Y-56807142D01*
X27266904Y-56864285D01*
X27495476Y-56864285D01*
X27800238Y-56807142D01*
X27952619Y-56750000D01*
X28105000Y-56635714D01*
X28181190Y-56464285D01*
X28181190Y-56350000D01*
X28105000Y-56178571D01*
X28028809Y-56121428D01*
X28181190Y-55378571D02*
X28181190Y-55264285D01*
X28105000Y-55150000D01*
X28028809Y-55092857D01*
X27876428Y-55035714D01*
X27571666Y-54978571D01*
X27190714Y-54978571D01*
X26885952Y-55035714D01*
X26733571Y-55092857D01*
X26657380Y-55150000D01*
X26581190Y-55264285D01*
X26581190Y-55378571D01*
X26657380Y-55492857D01*
X26733571Y-55550000D01*
X26885952Y-55607142D01*
X27190714Y-55664285D01*
X27571666Y-55664285D01*
X27876428Y-55607142D01*
X28028809Y-55550000D01*
X28105000Y-55492857D01*
X28181190Y-55378571D01*
X28028809Y-54521428D02*
X28105000Y-54464285D01*
X28181190Y-54350000D01*
X28181190Y-54064285D01*
X28105000Y-53950000D01*
X28028809Y-53892857D01*
X27876428Y-53835714D01*
X27724047Y-53835714D01*
X27495476Y-53892857D01*
X26581190Y-54578571D01*
X26581190Y-53835714D01*
X27038333Y-52464285D02*
X27038333Y-51892857D01*
X26581190Y-52578571D02*
X28181190Y-52178571D01*
X26581190Y-51778571D01*
X26581190Y-51378571D02*
X28181190Y-51378571D01*
X28181190Y-51092857D01*
X28105000Y-50921428D01*
X27952619Y-50807142D01*
X27800238Y-50750000D01*
X27495476Y-50692857D01*
X27266904Y-50692857D01*
X26962142Y-50750000D01*
X26809761Y-50807142D01*
X26657380Y-50921428D01*
X26581190Y-51092857D01*
X26581190Y-51378571D01*
X27038333Y-50235714D02*
X27038333Y-49664285D01*
X26581190Y-50350000D02*
X28181190Y-49950000D01*
X26581190Y-49550000D01*
X26581190Y-49150000D02*
X28181190Y-49150000D01*
X28181190Y-48692857D01*
X28105000Y-48578571D01*
X28028809Y-48521428D01*
X27876428Y-48464285D01*
X27647857Y-48464285D01*
X27495476Y-48521428D01*
X27419285Y-48578571D01*
X27343095Y-48692857D01*
X27343095Y-49150000D01*
X28181190Y-48121428D02*
X28181190Y-47435714D01*
X26581190Y-47778571D02*
X28181190Y-47778571D01*
X27419285Y-47035714D02*
X27419285Y-46635714D01*
X26581190Y-46464285D02*
X26581190Y-47035714D01*
X28181190Y-47035714D01*
X28181190Y-46464285D01*
X26581190Y-45264285D02*
X27343095Y-45664285D01*
X26581190Y-45950000D02*
X28181190Y-45950000D01*
X28181190Y-45492857D01*
X28105000Y-45378571D01*
X28028809Y-45321428D01*
X27876428Y-45264285D01*
X27647857Y-45264285D01*
X27495476Y-45321428D01*
X27419285Y-45378571D01*
X27343095Y-45492857D01*
X27343095Y-45950000D01*
D13*
X30721904Y-72613761D02*
X30782380Y-72553285D01*
X30903333Y-72492809D01*
X31024285Y-72492809D01*
X31145238Y-72553285D01*
X31205714Y-72613761D01*
X31266190Y-72734714D01*
X31266190Y-72855666D01*
X31205714Y-72976619D01*
X31145238Y-73037095D01*
X31024285Y-73097571D01*
X30903333Y-73097571D01*
X30782380Y-73037095D01*
X30721904Y-72976619D01*
X30721904Y-72492809D02*
X30721904Y-72976619D01*
X30661428Y-73037095D01*
X30600952Y-73037095D01*
X30480000Y-72976619D01*
X30419523Y-72855666D01*
X30419523Y-72553285D01*
X30540476Y-72371857D01*
X30721904Y-72250904D01*
X30963809Y-72190428D01*
X31205714Y-72250904D01*
X31387142Y-72371857D01*
X31508095Y-72553285D01*
X31568571Y-72795190D01*
X31508095Y-73037095D01*
X31387142Y-73218523D01*
X31205714Y-73339476D01*
X30963809Y-73399952D01*
X30721904Y-73339476D01*
X30540476Y-73218523D01*
X29996190Y-72371857D02*
X29330952Y-72371857D01*
X29996190Y-73218523D01*
X29330952Y-73218523D01*
X28302857Y-72371857D02*
X28302857Y-73218523D01*
X28847142Y-72371857D02*
X28847142Y-73037095D01*
X28786666Y-73158047D01*
X28665714Y-73218523D01*
X28484285Y-73218523D01*
X28363333Y-73158047D01*
X28302857Y-73097571D01*
X27698095Y-73218523D02*
X27698095Y-72371857D01*
X27698095Y-71948523D02*
X27758571Y-72009000D01*
X27698095Y-72069476D01*
X27637619Y-72009000D01*
X27698095Y-71948523D01*
X27698095Y-72069476D01*
X27093333Y-73218523D02*
X27093333Y-71948523D01*
X26972380Y-72734714D02*
X26609523Y-73218523D01*
X26609523Y-72371857D02*
X27093333Y-72855666D01*
X25883809Y-73218523D02*
X26004761Y-73158047D01*
X26065238Y-73097571D01*
X26125714Y-72976619D01*
X26125714Y-72613761D01*
X26065238Y-72492809D01*
X26004761Y-72432333D01*
X25883809Y-72371857D01*
X25702380Y-72371857D01*
X25581428Y-72432333D01*
X25520952Y-72492809D01*
X25460476Y-72613761D01*
X25460476Y-72976619D01*
X25520952Y-73097571D01*
X25581428Y-73158047D01*
X25702380Y-73218523D01*
X25883809Y-73218523D01*
X24976666Y-72069476D02*
X24916190Y-72009000D01*
X24795238Y-71948523D01*
X24492857Y-71948523D01*
X24371904Y-72009000D01*
X24311428Y-72069476D01*
X24250952Y-72190428D01*
X24250952Y-72311380D01*
X24311428Y-72492809D01*
X25037142Y-73218523D01*
X24250952Y-73218523D01*
X23041428Y-73218523D02*
X23767142Y-73218523D01*
X23404285Y-73218523D02*
X23404285Y-71948523D01*
X23525238Y-72129952D01*
X23646190Y-72250904D01*
X23767142Y-72311380D01*
D11*
X32385000Y-70485000D02*
X33020000Y-71120000D01*
X32385000Y-71755000D02*
X33020000Y-71120000D01*
X33020000Y-71120000D02*
X30480000Y-71120000D01*
X19050000Y-71120000D02*
X19685000Y-71755000D01*
X19050000Y-71120000D02*
X19685000Y-70485000D01*
X21590000Y-71120000D02*
X19050000Y-71120000D01*
D14*
X18224428Y-22449285D02*
X18224428Y-23056428D01*
X18188714Y-23127857D01*
X18153000Y-23163571D01*
X18081571Y-23199285D01*
X17938714Y-23199285D01*
X17867285Y-23163571D01*
X17831571Y-23127857D01*
X17795857Y-23056428D01*
X17795857Y-22449285D01*
X17045857Y-23199285D02*
X17474428Y-23199285D01*
X17260142Y-23199285D02*
X17260142Y-22449285D01*
X17331571Y-22556428D01*
X17403000Y-22627857D01*
X17474428Y-22663571D01*
X29897857Y-70572380D02*
X30046428Y-70572380D01*
X30120714Y-70620000D01*
X30157857Y-70667619D01*
X30232142Y-70810476D01*
X30269285Y-71000952D01*
X30269285Y-71381904D01*
X30232142Y-71477142D01*
X30195000Y-71524761D01*
X30120714Y-71572380D01*
X29972142Y-71572380D01*
X29897857Y-71524761D01*
X29860714Y-71477142D01*
X29823571Y-71381904D01*
X29823571Y-71143809D01*
X29860714Y-71048571D01*
X29897857Y-71000952D01*
X29972142Y-70953333D01*
X30120714Y-70953333D01*
X30195000Y-71000952D01*
X30232142Y-71048571D01*
X30269285Y-71143809D01*
X29117857Y-70572380D02*
X29489285Y-70572380D01*
X29526428Y-71048571D01*
X29489285Y-71000952D01*
X29415000Y-70953333D01*
X29229285Y-70953333D01*
X29155000Y-71000952D01*
X29117857Y-71048571D01*
X29080714Y-71143809D01*
X29080714Y-71381904D01*
X29117857Y-71477142D01*
X29155000Y-71524761D01*
X29229285Y-71572380D01*
X29415000Y-71572380D01*
X29489285Y-71524761D01*
X29526428Y-71477142D01*
X28300714Y-71477142D02*
X28337857Y-71524761D01*
X28449285Y-71572380D01*
X28523571Y-71572380D01*
X28635000Y-71524761D01*
X28709285Y-71429523D01*
X28746428Y-71334285D01*
X28783571Y-71143809D01*
X28783571Y-71000952D01*
X28746428Y-70810476D01*
X28709285Y-70715238D01*
X28635000Y-70620000D01*
X28523571Y-70572380D01*
X28449285Y-70572380D01*
X28337857Y-70620000D01*
X28300714Y-70667619D01*
X27817857Y-70572380D02*
X27743571Y-70572380D01*
X27669285Y-70620000D01*
X27632142Y-70667619D01*
X27595000Y-70762857D01*
X27557857Y-70953333D01*
X27557857Y-71191428D01*
X27595000Y-71381904D01*
X27632142Y-71477142D01*
X27669285Y-71524761D01*
X27743571Y-71572380D01*
X27817857Y-71572380D01*
X27892142Y-71524761D01*
X27929285Y-71477142D01*
X27966428Y-71381904D01*
X28003571Y-71191428D01*
X28003571Y-70953333D01*
X27966428Y-70762857D01*
X27929285Y-70667619D01*
X27892142Y-70620000D01*
X27817857Y-70572380D01*
X27260714Y-70667619D02*
X27223571Y-70620000D01*
X27149285Y-70572380D01*
X26963571Y-70572380D01*
X26889285Y-70620000D01*
X26852142Y-70667619D01*
X26815000Y-70762857D01*
X26815000Y-70858095D01*
X26852142Y-71000952D01*
X27297857Y-71572380D01*
X26815000Y-71572380D01*
X25923571Y-71524761D02*
X25812142Y-71572380D01*
X25626428Y-71572380D01*
X25552142Y-71524761D01*
X25515000Y-71477142D01*
X25477857Y-71381904D01*
X25477857Y-71286666D01*
X25515000Y-71191428D01*
X25552142Y-71143809D01*
X25626428Y-71096190D01*
X25775000Y-71048571D01*
X25849285Y-71000952D01*
X25886428Y-70953333D01*
X25923571Y-70858095D01*
X25923571Y-70762857D01*
X25886428Y-70667619D01*
X25849285Y-70620000D01*
X25775000Y-70572380D01*
X25589285Y-70572380D01*
X25477857Y-70620000D01*
X24995000Y-70572380D02*
X24846428Y-70572380D01*
X24772142Y-70620000D01*
X24697857Y-70715238D01*
X24660714Y-70905714D01*
X24660714Y-71239047D01*
X24697857Y-71429523D01*
X24772142Y-71524761D01*
X24846428Y-71572380D01*
X24995000Y-71572380D01*
X25069285Y-71524761D01*
X25143571Y-71429523D01*
X25180714Y-71239047D01*
X25180714Y-70905714D01*
X25143571Y-70715238D01*
X25069285Y-70620000D01*
X24995000Y-70572380D01*
X23880714Y-71477142D02*
X23917857Y-71524761D01*
X24029285Y-71572380D01*
X24103571Y-71572380D01*
X24215000Y-71524761D01*
X24289285Y-71429523D01*
X24326428Y-71334285D01*
X24363571Y-71143809D01*
X24363571Y-71000952D01*
X24326428Y-70810476D01*
X24289285Y-70715238D01*
X24215000Y-70620000D01*
X24103571Y-70572380D01*
X24029285Y-70572380D01*
X23917857Y-70620000D01*
X23880714Y-70667619D01*
X23546428Y-71572380D02*
X23546428Y-70572380D01*
X23100714Y-71572380D02*
X23435000Y-71000952D01*
X23100714Y-70572380D02*
X23546428Y-71143809D01*
X22766428Y-71048571D02*
X22506428Y-71048571D01*
X22395000Y-71572380D02*
X22766428Y-71572380D01*
X22766428Y-70572380D01*
X22395000Y-70572380D01*
X22172142Y-70572380D02*
X21726428Y-70572380D01*
X21949285Y-71572380D02*
X21949285Y-70572380D01*
X25533333Y-29571904D02*
X25800000Y-29190952D01*
X25990476Y-29571904D02*
X25990476Y-28771904D01*
X25685714Y-28771904D01*
X25609523Y-28810000D01*
X25571428Y-28848095D01*
X25533333Y-28924285D01*
X25533333Y-29038571D01*
X25571428Y-29114761D01*
X25609523Y-29152857D01*
X25685714Y-29190952D01*
X25990476Y-29190952D01*
X24771428Y-29571904D02*
X25228571Y-29571904D01*
X25000000Y-29571904D02*
X25000000Y-28771904D01*
X25076190Y-28886190D01*
X25152380Y-28962380D01*
X25228571Y-29000476D01*
X27895476Y-23856904D02*
X27895476Y-23056904D01*
X27705000Y-23056904D01*
X27590714Y-23095000D01*
X27514523Y-23171190D01*
X27476428Y-23247380D01*
X27438333Y-23399761D01*
X27438333Y-23514047D01*
X27476428Y-23666428D01*
X27514523Y-23742619D01*
X27590714Y-23818809D01*
X27705000Y-23856904D01*
X27895476Y-23856904D01*
X26676428Y-23856904D02*
X27133571Y-23856904D01*
X26905000Y-23856904D02*
X26905000Y-23056904D01*
X26981190Y-23171190D01*
X27057380Y-23247380D01*
X27133571Y-23285476D01*
D10*
X24701428Y-24989285D02*
X24701428Y-25596428D01*
X24665714Y-25667857D01*
X24630000Y-25703571D01*
X24558571Y-25739285D01*
X24415714Y-25739285D01*
X24344285Y-25703571D01*
X24308571Y-25667857D01*
X24272857Y-25596428D01*
X24272857Y-24989285D01*
X23594285Y-25239285D02*
X23594285Y-25739285D01*
X23772857Y-24953571D02*
X23951428Y-25489285D01*
X23487142Y-25489285D01*
D14*
X27914523Y-42741904D02*
X27914523Y-43389523D01*
X27876428Y-43465714D01*
X27838333Y-43503809D01*
X27762142Y-43541904D01*
X27609761Y-43541904D01*
X27533571Y-43503809D01*
X27495476Y-43465714D01*
X27457380Y-43389523D01*
X27457380Y-42741904D01*
X27152619Y-42741904D02*
X26657380Y-42741904D01*
X26924047Y-43046666D01*
X26809761Y-43046666D01*
X26733571Y-43084761D01*
X26695476Y-43122857D01*
X26657380Y-43199047D01*
X26657380Y-43389523D01*
X26695476Y-43465714D01*
X26733571Y-43503809D01*
X26809761Y-43541904D01*
X27038333Y-43541904D01*
X27114523Y-43503809D01*
X27152619Y-43465714D01*
X22161428Y-24989285D02*
X22161428Y-25596428D01*
X22125714Y-25667857D01*
X22090000Y-25703571D01*
X22018571Y-25739285D01*
X21875714Y-25739285D01*
X21804285Y-25703571D01*
X21768571Y-25667857D01*
X21732857Y-25596428D01*
X21732857Y-24989285D01*
X21411428Y-25060714D02*
X21375714Y-25025000D01*
X21304285Y-24989285D01*
X21125714Y-24989285D01*
X21054285Y-25025000D01*
X21018571Y-25060714D01*
X20982857Y-25132142D01*
X20982857Y-25203571D01*
X21018571Y-25310714D01*
X21447142Y-25739285D01*
X20982857Y-25739285D01*
%LPC*%
D15*
X33655000Y-24130000D03*
X18415000Y-72390000D03*
X33655000Y-26670000D03*
X18415000Y-69850000D03*
X33655000Y-29210000D03*
X18415000Y-67310000D03*
X33655000Y-31750000D03*
X18415000Y-64770000D03*
X33655000Y-34290000D03*
X18415000Y-62230000D03*
X33655000Y-36830000D03*
X18415000Y-59690000D03*
X33655000Y-39370000D03*
X18415000Y-57150000D03*
X33655000Y-41910000D03*
X18415000Y-54610000D03*
X33655000Y-44450000D03*
X18415000Y-52070000D03*
X33655000Y-46990000D03*
X18415000Y-49530000D03*
X33655000Y-49530000D03*
X18415000Y-46990000D03*
X33655000Y-52070000D03*
X18415000Y-44450000D03*
X33655000Y-54610000D03*
X18415000Y-41910000D03*
X33655000Y-57150000D03*
X18415000Y-39370000D03*
X33655000Y-59690000D03*
X18415000Y-36830000D03*
X33655000Y-62230000D03*
X18415000Y-34290000D03*
X33655000Y-64770000D03*
X18415000Y-31750000D03*
X33655000Y-67310000D03*
X18415000Y-29210000D03*
X33655000Y-69850000D03*
X18415000Y-26670000D03*
X33655000Y-72390000D03*
D16*
X18415000Y-24130000D03*
D17*
X26035000Y-25400000D03*
D18*
X28575000Y-25400000D03*
D15*
X31115000Y-24130000D03*
X23495000Y-39370000D03*
X31115000Y-26670000D03*
X23495000Y-36830000D03*
X31115000Y-29210000D03*
X23495000Y-34290000D03*
X31115000Y-31750000D03*
X23495000Y-31750000D03*
X31115000Y-34290000D03*
X23495000Y-29210000D03*
X31115000Y-36830000D03*
X23495000Y-26670000D03*
X31115000Y-39370000D03*
D16*
X23495000Y-24130000D03*
D15*
X31115000Y-43180000D03*
X23495000Y-66040000D03*
X31115000Y-45720000D03*
X23495000Y-63500000D03*
X31115000Y-48260000D03*
X23495000Y-60960000D03*
X31115000Y-50800000D03*
X23495000Y-58420000D03*
X31115000Y-53340000D03*
X23495000Y-55880000D03*
X31115000Y-55880000D03*
X23495000Y-53340000D03*
X31115000Y-58420000D03*
X23495000Y-50800000D03*
X31115000Y-60960000D03*
X23495000Y-48260000D03*
X31115000Y-63500000D03*
X23495000Y-45720000D03*
X31115000Y-66040000D03*
D16*
X23495000Y-43180000D03*
D15*
X36195000Y-24130000D03*
X20955000Y-72390000D03*
X36195000Y-26670000D03*
X20955000Y-69850000D03*
X36195000Y-29210000D03*
X20955000Y-67310000D03*
X36195000Y-31750000D03*
X20955000Y-64770000D03*
X36195000Y-34290000D03*
X20955000Y-62230000D03*
X36195000Y-36830000D03*
X20955000Y-59690000D03*
X36195000Y-39370000D03*
X20955000Y-57150000D03*
X36195000Y-41910000D03*
X20955000Y-54610000D03*
X36195000Y-44450000D03*
X20955000Y-52070000D03*
X36195000Y-46990000D03*
X20955000Y-49530000D03*
X36195000Y-49530000D03*
X20955000Y-46990000D03*
X36195000Y-52070000D03*
X20955000Y-44450000D03*
X36195000Y-54610000D03*
X20955000Y-41910000D03*
X36195000Y-57150000D03*
X20955000Y-39370000D03*
X36195000Y-59690000D03*
X20955000Y-36830000D03*
X36195000Y-62230000D03*
X20955000Y-34290000D03*
X36195000Y-64770000D03*
X20955000Y-31750000D03*
X36195000Y-67310000D03*
X20955000Y-29210000D03*
X36195000Y-69850000D03*
X20955000Y-26670000D03*
X36195000Y-72390000D03*
D16*
X20955000Y-24130000D03*
M02*
