%FSLAX45Y45*%
G04 Gerber Fmt 4.5, Leading zero omitted, Abs format (unit mm)*
G04 Created by KiCad (PCBNEW (5.1.2-1)-1) date 2023-07-30 19:37:54*
%MOMM*%
%LPD*%
G04 APERTURE LIST*
%ADD10C,0.050000*%
%ADD11C,0.200000*%
%ADD12C,0.300000*%
G04 APERTURE END LIST*
D10*
X3746500Y-2222500D02*
G75*
G02X3810000Y-2286000I0J-63500D01*
G01*
X1651000Y-2286000D02*
G75*
G02X1714500Y-2222500I63500J0D01*
G01*
X3810000Y-7366000D02*
G75*
G02X3746500Y-7429500I-63500J0D01*
G01*
X1714500Y-7429500D02*
G75*
G02X1651000Y-7366000I0J63500D01*
G01*
X1651000Y-2286000D02*
X1651000Y-7366000D01*
X3746500Y-2222500D02*
X1714500Y-2222500D01*
X3810000Y-7366000D02*
X3810000Y-2286000D01*
X1714500Y-7429500D02*
X3746500Y-7429500D01*
D11*
X2583500Y-3282000D02*
X2623500Y-3322000D01*
X2623500Y-3282000D02*
X2583500Y-3322000D01*
X2583500Y-4044000D02*
X2623500Y-4084000D01*
X2623500Y-4044000D02*
X2583500Y-4084000D01*
X2774000Y-3155000D02*
X2814000Y-3195000D01*
X2814000Y-3155000D02*
X2774000Y-3195000D01*
X2901000Y-3790000D02*
X2941000Y-3830000D01*
X2941000Y-3790000D02*
X2901000Y-3830000D01*
X2389500Y-2413000D02*
G75*
G03X2389500Y-2413000I-40000J0D01*
G01*
X2389500Y-2667000D02*
G75*
G03X2389500Y-2667000I-40000J0D01*
G01*
X2389500Y-2921000D02*
G75*
G03X2389500Y-2921000I-40000J0D01*
G01*
X2389500Y-3175000D02*
G75*
G03X2389500Y-3175000I-40000J0D01*
G01*
X2389500Y-3429000D02*
G75*
G03X2389500Y-3429000I-40000J0D01*
G01*
X2389500Y-3683000D02*
G75*
G03X2389500Y-3683000I-40000J0D01*
G01*
X2389500Y-3937000D02*
G75*
G03X2389500Y-3937000I-40000J0D01*
G01*
X3151500Y-2413000D02*
G75*
G03X3151500Y-2413000I-40000J0D01*
G01*
X3151500Y-2667000D02*
G75*
G03X3151500Y-2667000I-40000J0D01*
G01*
X3151500Y-2921000D02*
G75*
G03X3151500Y-2921000I-40000J0D01*
G01*
X3151500Y-3175000D02*
G75*
G03X3151500Y-3175000I-40000J0D01*
G01*
X3151500Y-3429000D02*
G75*
G03X3151500Y-3429000I-40000J0D01*
G01*
X3151500Y-3683000D02*
G75*
G03X3151500Y-3683000I-40000J0D01*
G01*
X3151500Y-3937000D02*
G75*
G03X3151500Y-3937000I-40000J0D01*
G01*
X2135500Y-2413000D02*
G75*
G03X2135500Y-2413000I-40000J0D01*
G01*
X2135500Y-2667000D02*
G75*
G03X2135500Y-2667000I-40000J0D01*
G01*
X2135500Y-2921000D02*
G75*
G03X2135500Y-2921000I-40000J0D01*
G01*
X2135500Y-3175000D02*
G75*
G03X2135500Y-3175000I-40000J0D01*
G01*
X2135500Y-3429000D02*
G75*
G03X2135500Y-3429000I-40000J0D01*
G01*
X2135500Y-3683000D02*
G75*
G03X2135500Y-3683000I-40000J0D01*
G01*
X2135500Y-3937000D02*
G75*
G03X2135500Y-3937000I-40000J0D01*
G01*
X2135500Y-4191000D02*
G75*
G03X2135500Y-4191000I-40000J0D01*
G01*
X2135500Y-4445000D02*
G75*
G03X2135500Y-4445000I-40000J0D01*
G01*
X2135500Y-4699000D02*
G75*
G03X2135500Y-4699000I-40000J0D01*
G01*
X2135500Y-4953000D02*
G75*
G03X2135500Y-4953000I-40000J0D01*
G01*
X2135500Y-5207000D02*
G75*
G03X2135500Y-5207000I-40000J0D01*
G01*
X2135500Y-5461000D02*
G75*
G03X2135500Y-5461000I-40000J0D01*
G01*
X2135500Y-5715000D02*
G75*
G03X2135500Y-5715000I-40000J0D01*
G01*
X2135500Y-5969000D02*
G75*
G03X2135500Y-5969000I-40000J0D01*
G01*
X2135500Y-6223000D02*
G75*
G03X2135500Y-6223000I-40000J0D01*
G01*
X2135500Y-6477000D02*
G75*
G03X2135500Y-6477000I-40000J0D01*
G01*
X2135500Y-6731000D02*
G75*
G03X2135500Y-6731000I-40000J0D01*
G01*
X2135500Y-6985000D02*
G75*
G03X2135500Y-6985000I-40000J0D01*
G01*
X2135500Y-7239000D02*
G75*
G03X2135500Y-7239000I-40000J0D01*
G01*
X3659500Y-2413000D02*
G75*
G03X3659500Y-2413000I-40000J0D01*
G01*
X3659500Y-2667000D02*
G75*
G03X3659500Y-2667000I-40000J0D01*
G01*
X3659500Y-2921000D02*
G75*
G03X3659500Y-2921000I-40000J0D01*
G01*
X3659500Y-3175000D02*
G75*
G03X3659500Y-3175000I-40000J0D01*
G01*
X3659500Y-3429000D02*
G75*
G03X3659500Y-3429000I-40000J0D01*
G01*
X3659500Y-3683000D02*
G75*
G03X3659500Y-3683000I-40000J0D01*
G01*
X3659500Y-3937000D02*
G75*
G03X3659500Y-3937000I-40000J0D01*
G01*
X3659500Y-4191000D02*
G75*
G03X3659500Y-4191000I-40000J0D01*
G01*
X3659500Y-4445000D02*
G75*
G03X3659500Y-4445000I-40000J0D01*
G01*
X3659500Y-4699000D02*
G75*
G03X3659500Y-4699000I-40000J0D01*
G01*
X3659500Y-4953000D02*
G75*
G03X3659500Y-4953000I-40000J0D01*
G01*
X3659500Y-5207000D02*
G75*
G03X3659500Y-5207000I-40000J0D01*
G01*
X3659500Y-5461000D02*
G75*
G03X3659500Y-5461000I-40000J0D01*
G01*
X3659500Y-5715000D02*
G75*
G03X3659500Y-5715000I-40000J0D01*
G01*
X3659500Y-5969000D02*
G75*
G03X3659500Y-5969000I-40000J0D01*
G01*
X3659500Y-6223000D02*
G75*
G03X3659500Y-6223000I-40000J0D01*
G01*
X3659500Y-6477000D02*
G75*
G03X3659500Y-6477000I-40000J0D01*
G01*
X3659500Y-6731000D02*
G75*
G03X3659500Y-6731000I-40000J0D01*
G01*
X3659500Y-6985000D02*
G75*
G03X3659500Y-6985000I-40000J0D01*
G01*
X3659500Y-7239000D02*
G75*
G03X3659500Y-7239000I-40000J0D01*
G01*
X2389500Y-4318000D02*
G75*
G03X2389500Y-4318000I-40000J0D01*
G01*
X2389500Y-4572000D02*
G75*
G03X2389500Y-4572000I-40000J0D01*
G01*
X2389500Y-4826000D02*
G75*
G03X2389500Y-4826000I-40000J0D01*
G01*
X2389500Y-5080000D02*
G75*
G03X2389500Y-5080000I-40000J0D01*
G01*
X2389500Y-5334000D02*
G75*
G03X2389500Y-5334000I-40000J0D01*
G01*
X2389500Y-5588000D02*
G75*
G03X2389500Y-5588000I-40000J0D01*
G01*
X2389500Y-5842000D02*
G75*
G03X2389500Y-5842000I-40000J0D01*
G01*
X2389500Y-6096000D02*
G75*
G03X2389500Y-6096000I-40000J0D01*
G01*
X2389500Y-6350000D02*
G75*
G03X2389500Y-6350000I-40000J0D01*
G01*
X2389500Y-6604000D02*
G75*
G03X2389500Y-6604000I-40000J0D01*
G01*
X3151500Y-4318000D02*
G75*
G03X3151500Y-4318000I-40000J0D01*
G01*
X3151500Y-4572000D02*
G75*
G03X3151500Y-4572000I-40000J0D01*
G01*
X3151500Y-4826000D02*
G75*
G03X3151500Y-4826000I-40000J0D01*
G01*
X3151500Y-5080000D02*
G75*
G03X3151500Y-5080000I-40000J0D01*
G01*
X3151500Y-5334000D02*
G75*
G03X3151500Y-5334000I-40000J0D01*
G01*
X3151500Y-5588000D02*
G75*
G03X3151500Y-5588000I-40000J0D01*
G01*
X3151500Y-5842000D02*
G75*
G03X3151500Y-5842000I-40000J0D01*
G01*
X3151500Y-6096000D02*
G75*
G03X3151500Y-6096000I-40000J0D01*
G01*
X3151500Y-6350000D02*
G75*
G03X3151500Y-6350000I-40000J0D01*
G01*
X3151500Y-6604000D02*
G75*
G03X3151500Y-6604000I-40000J0D01*
G01*
X1881500Y-2413000D02*
G75*
G03X1881500Y-2413000I-40000J0D01*
G01*
X1881500Y-2667000D02*
G75*
G03X1881500Y-2667000I-40000J0D01*
G01*
X1881500Y-2921000D02*
G75*
G03X1881500Y-2921000I-40000J0D01*
G01*
X1881500Y-3175000D02*
G75*
G03X1881500Y-3175000I-40000J0D01*
G01*
X1881500Y-3429000D02*
G75*
G03X1881500Y-3429000I-40000J0D01*
G01*
X1881500Y-3683000D02*
G75*
G03X1881500Y-3683000I-40000J0D01*
G01*
X1881500Y-3937000D02*
G75*
G03X1881500Y-3937000I-40000J0D01*
G01*
X1881500Y-4191000D02*
G75*
G03X1881500Y-4191000I-40000J0D01*
G01*
X1881500Y-4445000D02*
G75*
G03X1881500Y-4445000I-40000J0D01*
G01*
X1881500Y-4699000D02*
G75*
G03X1881500Y-4699000I-40000J0D01*
G01*
X1881500Y-4953000D02*
G75*
G03X1881500Y-4953000I-40000J0D01*
G01*
X1881500Y-5207000D02*
G75*
G03X1881500Y-5207000I-40000J0D01*
G01*
X1881500Y-5461000D02*
G75*
G03X1881500Y-5461000I-40000J0D01*
G01*
X1881500Y-5715000D02*
G75*
G03X1881500Y-5715000I-40000J0D01*
G01*
X1881500Y-5969000D02*
G75*
G03X1881500Y-5969000I-40000J0D01*
G01*
X1881500Y-6223000D02*
G75*
G03X1881500Y-6223000I-40000J0D01*
G01*
X1881500Y-6477000D02*
G75*
G03X1881500Y-6477000I-40000J0D01*
G01*
X1881500Y-6731000D02*
G75*
G03X1881500Y-6731000I-40000J0D01*
G01*
X1881500Y-6985000D02*
G75*
G03X1881500Y-6985000I-40000J0D01*
G01*
X1881500Y-7239000D02*
G75*
G03X1881500Y-7239000I-40000J0D01*
G01*
X3405500Y-2413000D02*
G75*
G03X3405500Y-2413000I-40000J0D01*
G01*
X3405500Y-2667000D02*
G75*
G03X3405500Y-2667000I-40000J0D01*
G01*
X3405500Y-2921000D02*
G75*
G03X3405500Y-2921000I-40000J0D01*
G01*
X3405500Y-3175000D02*
G75*
G03X3405500Y-3175000I-40000J0D01*
G01*
X3405500Y-3429000D02*
G75*
G03X3405500Y-3429000I-40000J0D01*
G01*
X3405500Y-3683000D02*
G75*
G03X3405500Y-3683000I-40000J0D01*
G01*
X3405500Y-3937000D02*
G75*
G03X3405500Y-3937000I-40000J0D01*
G01*
X3405500Y-4191000D02*
G75*
G03X3405500Y-4191000I-40000J0D01*
G01*
X3405500Y-4445000D02*
G75*
G03X3405500Y-4445000I-40000J0D01*
G01*
X3405500Y-4699000D02*
G75*
G03X3405500Y-4699000I-40000J0D01*
G01*
X3405500Y-4953000D02*
G75*
G03X3405500Y-4953000I-40000J0D01*
G01*
X3405500Y-5207000D02*
G75*
G03X3405500Y-5207000I-40000J0D01*
G01*
X3405500Y-5461000D02*
G75*
G03X3405500Y-5461000I-40000J0D01*
G01*
X3405500Y-5715000D02*
G75*
G03X3405500Y-5715000I-40000J0D01*
G01*
X3405500Y-5969000D02*
G75*
G03X3405500Y-5969000I-40000J0D01*
G01*
X3405500Y-6223000D02*
G75*
G03X3405500Y-6223000I-40000J0D01*
G01*
X3405500Y-6477000D02*
G75*
G03X3405500Y-6477000I-40000J0D01*
G01*
X3405500Y-6731000D02*
G75*
G03X3405500Y-6731000I-40000J0D01*
G01*
X3405500Y-6985000D02*
G75*
G03X3405500Y-6985000I-40000J0D01*
G01*
X3405500Y-7239000D02*
G75*
G03X3405500Y-7239000I-40000J0D01*
G01*
X2603500Y-2495000D02*
X2603500Y-2585000D01*
X2558500Y-2540000D02*
X2648500Y-2540000D01*
X2857500Y-2495000D02*
X2857500Y-2585000D01*
X2812500Y-2540000D02*
X2902500Y-2540000D01*
D12*
X1934928Y-7897714D02*
X1934928Y-7597714D01*
X2006357Y-7597714D01*
X2049214Y-7612000D01*
X2077786Y-7640571D01*
X2092071Y-7669143D01*
X2106357Y-7726286D01*
X2106357Y-7769143D01*
X2092071Y-7826286D01*
X2077786Y-7854857D01*
X2049214Y-7883429D01*
X2006357Y-7897714D01*
X1934928Y-7897714D01*
X2234928Y-7897714D02*
X2234928Y-7697714D01*
X2234928Y-7754857D02*
X2249214Y-7726286D01*
X2263500Y-7712000D01*
X2292071Y-7697714D01*
X2320643Y-7697714D01*
X2420643Y-7897714D02*
X2420643Y-7697714D01*
X2420643Y-7597714D02*
X2406357Y-7612000D01*
X2420643Y-7626286D01*
X2434928Y-7612000D01*
X2420643Y-7597714D01*
X2420643Y-7626286D01*
X2606357Y-7897714D02*
X2577786Y-7883429D01*
X2563500Y-7854857D01*
X2563500Y-7597714D01*
X2763500Y-7897714D02*
X2734928Y-7883429D01*
X2720643Y-7854857D01*
X2720643Y-7597714D01*
X3106357Y-7897714D02*
X3106357Y-7597714D01*
X3206357Y-7812000D01*
X3306357Y-7597714D01*
X3306357Y-7897714D01*
X3577786Y-7897714D02*
X3577786Y-7740571D01*
X3563500Y-7712000D01*
X3534928Y-7697714D01*
X3477786Y-7697714D01*
X3449214Y-7712000D01*
X3577786Y-7883429D02*
X3549214Y-7897714D01*
X3477786Y-7897714D01*
X3449214Y-7883429D01*
X3434928Y-7854857D01*
X3434928Y-7826286D01*
X3449214Y-7797714D01*
X3477786Y-7783429D01*
X3549214Y-7783429D01*
X3577786Y-7769143D01*
X3720643Y-7697714D02*
X3720643Y-7997714D01*
X3720643Y-7712000D02*
X3749214Y-7697714D01*
X3806357Y-7697714D01*
X3834928Y-7712000D01*
X3849214Y-7726286D01*
X3863500Y-7754857D01*
X3863500Y-7840571D01*
X3849214Y-7869143D01*
X3834928Y-7883429D01*
X3806357Y-7897714D01*
X3749214Y-7897714D01*
X3720643Y-7883429D01*
X3992071Y-7869143D02*
X4006357Y-7883429D01*
X3992071Y-7897714D01*
X3977786Y-7883429D01*
X3992071Y-7869143D01*
X3992071Y-7897714D01*
X3992071Y-7712000D02*
X4006357Y-7726286D01*
X3992071Y-7740571D01*
X3977786Y-7726286D01*
X3992071Y-7712000D01*
X3992071Y-7740571D01*
X1608500Y-8372000D02*
X1648500Y-8412000D01*
X1648500Y-8372000D02*
X1608500Y-8412000D01*
X1992071Y-8227714D02*
X2020643Y-8227714D01*
X2049214Y-8242000D01*
X2063500Y-8256286D01*
X2077786Y-8284857D01*
X2092071Y-8342000D01*
X2092071Y-8413429D01*
X2077786Y-8470572D01*
X2063500Y-8499143D01*
X2049214Y-8513429D01*
X2020643Y-8527714D01*
X1992071Y-8527714D01*
X1963500Y-8513429D01*
X1949214Y-8499143D01*
X1934928Y-8470572D01*
X1920643Y-8413429D01*
X1920643Y-8342000D01*
X1934928Y-8284857D01*
X1949214Y-8256286D01*
X1963500Y-8242000D01*
X1992071Y-8227714D01*
X2220643Y-8499143D02*
X2234928Y-8513429D01*
X2220643Y-8527714D01*
X2206357Y-8513429D01*
X2220643Y-8499143D01*
X2220643Y-8527714D01*
X2492071Y-8327714D02*
X2492071Y-8527714D01*
X2420643Y-8213429D02*
X2349214Y-8427714D01*
X2534928Y-8427714D01*
X2706357Y-8227714D02*
X2734928Y-8227714D01*
X2763500Y-8242000D01*
X2777786Y-8256286D01*
X2792071Y-8284857D01*
X2806357Y-8342000D01*
X2806357Y-8413429D01*
X2792071Y-8470572D01*
X2777786Y-8499143D01*
X2763500Y-8513429D01*
X2734928Y-8527714D01*
X2706357Y-8527714D01*
X2677786Y-8513429D01*
X2663500Y-8499143D01*
X2649214Y-8470572D01*
X2634928Y-8413429D01*
X2634928Y-8342000D01*
X2649214Y-8284857D01*
X2663500Y-8256286D01*
X2677786Y-8242000D01*
X2706357Y-8227714D01*
X2934928Y-8527714D02*
X2934928Y-8327714D01*
X2934928Y-8356286D02*
X2949214Y-8342000D01*
X2977786Y-8327714D01*
X3020643Y-8327714D01*
X3049214Y-8342000D01*
X3063500Y-8370571D01*
X3063500Y-8527714D01*
X3063500Y-8370571D02*
X3077786Y-8342000D01*
X3106357Y-8327714D01*
X3149214Y-8327714D01*
X3177786Y-8342000D01*
X3192071Y-8370571D01*
X3192071Y-8527714D01*
X3334928Y-8527714D02*
X3334928Y-8327714D01*
X3334928Y-8356286D02*
X3349214Y-8342000D01*
X3377786Y-8327714D01*
X3420643Y-8327714D01*
X3449214Y-8342000D01*
X3463500Y-8370571D01*
X3463500Y-8527714D01*
X3463500Y-8370571D02*
X3477786Y-8342000D01*
X3506357Y-8327714D01*
X3549214Y-8327714D01*
X3577786Y-8342000D01*
X3592071Y-8370571D01*
X3592071Y-8527714D01*
X4177786Y-8213429D02*
X3920643Y-8599143D01*
X4563500Y-8227714D02*
X4592071Y-8227714D01*
X4620643Y-8242000D01*
X4634928Y-8256286D01*
X4649214Y-8284857D01*
X4663500Y-8342000D01*
X4663500Y-8413429D01*
X4649214Y-8470572D01*
X4634928Y-8499143D01*
X4620643Y-8513429D01*
X4592071Y-8527714D01*
X4563500Y-8527714D01*
X4534928Y-8513429D01*
X4520643Y-8499143D01*
X4506357Y-8470572D01*
X4492071Y-8413429D01*
X4492071Y-8342000D01*
X4506357Y-8284857D01*
X4520643Y-8256286D01*
X4534928Y-8242000D01*
X4563500Y-8227714D01*
X4792071Y-8499143D02*
X4806357Y-8513429D01*
X4792071Y-8527714D01*
X4777786Y-8513429D01*
X4792071Y-8499143D01*
X4792071Y-8527714D01*
X4992071Y-8227714D02*
X5020643Y-8227714D01*
X5049214Y-8242000D01*
X5063500Y-8256286D01*
X5077786Y-8284857D01*
X5092071Y-8342000D01*
X5092071Y-8413429D01*
X5077786Y-8470572D01*
X5063500Y-8499143D01*
X5049214Y-8513429D01*
X5020643Y-8527714D01*
X4992071Y-8527714D01*
X4963500Y-8513429D01*
X4949214Y-8499143D01*
X4934928Y-8470572D01*
X4920643Y-8413429D01*
X4920643Y-8342000D01*
X4934928Y-8284857D01*
X4949214Y-8256286D01*
X4963500Y-8242000D01*
X4992071Y-8227714D01*
X5377786Y-8527714D02*
X5206357Y-8527714D01*
X5292071Y-8527714D02*
X5292071Y-8227714D01*
X5263500Y-8270571D01*
X5234928Y-8299143D01*
X5206357Y-8313429D01*
X5634928Y-8227714D02*
X5577786Y-8227714D01*
X5549214Y-8242000D01*
X5534928Y-8256286D01*
X5506357Y-8299143D01*
X5492071Y-8356286D01*
X5492071Y-8470572D01*
X5506357Y-8499143D01*
X5520643Y-8513429D01*
X5549214Y-8527714D01*
X5606357Y-8527714D01*
X5634928Y-8513429D01*
X5649214Y-8499143D01*
X5663500Y-8470572D01*
X5663500Y-8399143D01*
X5649214Y-8370571D01*
X5634928Y-8356286D01*
X5606357Y-8342000D01*
X5549214Y-8342000D01*
X5520643Y-8356286D01*
X5506357Y-8370571D01*
X5492071Y-8399143D01*
X5777786Y-8227714D02*
X5777786Y-8284857D01*
X5892071Y-8227714D02*
X5892071Y-8284857D01*
X6334928Y-8642000D02*
X6320643Y-8627714D01*
X6292071Y-8584857D01*
X6277786Y-8556286D01*
X6263500Y-8513429D01*
X6249214Y-8442000D01*
X6249214Y-8384857D01*
X6263500Y-8313429D01*
X6277786Y-8270571D01*
X6292071Y-8242000D01*
X6320643Y-8199143D01*
X6334928Y-8184857D01*
X6577786Y-8327714D02*
X6577786Y-8527714D01*
X6506357Y-8213429D02*
X6434928Y-8427714D01*
X6620643Y-8427714D01*
X6963500Y-8527714D02*
X6963500Y-8227714D01*
X7092071Y-8527714D02*
X7092071Y-8370571D01*
X7077786Y-8342000D01*
X7049214Y-8327714D01*
X7006357Y-8327714D01*
X6977786Y-8342000D01*
X6963500Y-8356286D01*
X7277786Y-8527714D02*
X7249214Y-8513429D01*
X7234928Y-8499143D01*
X7220643Y-8470572D01*
X7220643Y-8384857D01*
X7234928Y-8356286D01*
X7249214Y-8342000D01*
X7277786Y-8327714D01*
X7320643Y-8327714D01*
X7349214Y-8342000D01*
X7363500Y-8356286D01*
X7377786Y-8384857D01*
X7377786Y-8470572D01*
X7363500Y-8499143D01*
X7349214Y-8513429D01*
X7320643Y-8527714D01*
X7277786Y-8527714D01*
X7549214Y-8527714D02*
X7520643Y-8513429D01*
X7506357Y-8484857D01*
X7506357Y-8227714D01*
X7777786Y-8513429D02*
X7749214Y-8527714D01*
X7692071Y-8527714D01*
X7663500Y-8513429D01*
X7649214Y-8484857D01*
X7649214Y-8370571D01*
X7663500Y-8342000D01*
X7692071Y-8327714D01*
X7749214Y-8327714D01*
X7777786Y-8342000D01*
X7792071Y-8370571D01*
X7792071Y-8399143D01*
X7649214Y-8427714D01*
X7906357Y-8513429D02*
X7934928Y-8527714D01*
X7992071Y-8527714D01*
X8020643Y-8513429D01*
X8034928Y-8484857D01*
X8034928Y-8470572D01*
X8020643Y-8442000D01*
X7992071Y-8427714D01*
X7949214Y-8427714D01*
X7920643Y-8413429D01*
X7906357Y-8384857D01*
X7906357Y-8370571D01*
X7920643Y-8342000D01*
X7949214Y-8327714D01*
X7992071Y-8327714D01*
X8020643Y-8342000D01*
X8134928Y-8642000D02*
X8149214Y-8627714D01*
X8177786Y-8584857D01*
X8192071Y-8556286D01*
X8206357Y-8513429D01*
X8220643Y-8442000D01*
X8220643Y-8384857D01*
X8206357Y-8313429D01*
X8192071Y-8270571D01*
X8177786Y-8242000D01*
X8149214Y-8199143D01*
X8134928Y-8184857D01*
X1648500Y-8788000D02*
G75*
G03X1648500Y-8788000I-40000J0D01*
G01*
X1992071Y-8623714D02*
X2020643Y-8623714D01*
X2049214Y-8638000D01*
X2063500Y-8652286D01*
X2077786Y-8680857D01*
X2092071Y-8738000D01*
X2092071Y-8809429D01*
X2077786Y-8866572D01*
X2063500Y-8895143D01*
X2049214Y-8909429D01*
X2020643Y-8923714D01*
X1992071Y-8923714D01*
X1963500Y-8909429D01*
X1949214Y-8895143D01*
X1934928Y-8866572D01*
X1920643Y-8809429D01*
X1920643Y-8738000D01*
X1934928Y-8680857D01*
X1949214Y-8652286D01*
X1963500Y-8638000D01*
X1992071Y-8623714D01*
X2220643Y-8895143D02*
X2234928Y-8909429D01*
X2220643Y-8923714D01*
X2206357Y-8909429D01*
X2220643Y-8895143D01*
X2220643Y-8923714D01*
X2406357Y-8752286D02*
X2377786Y-8738000D01*
X2363500Y-8723714D01*
X2349214Y-8695143D01*
X2349214Y-8680857D01*
X2363500Y-8652286D01*
X2377786Y-8638000D01*
X2406357Y-8623714D01*
X2463500Y-8623714D01*
X2492071Y-8638000D01*
X2506357Y-8652286D01*
X2520643Y-8680857D01*
X2520643Y-8695143D01*
X2506357Y-8723714D01*
X2492071Y-8738000D01*
X2463500Y-8752286D01*
X2406357Y-8752286D01*
X2377786Y-8766572D01*
X2363500Y-8780857D01*
X2349214Y-8809429D01*
X2349214Y-8866572D01*
X2363500Y-8895143D01*
X2377786Y-8909429D01*
X2406357Y-8923714D01*
X2463500Y-8923714D01*
X2492071Y-8909429D01*
X2506357Y-8895143D01*
X2520643Y-8866572D01*
X2520643Y-8809429D01*
X2506357Y-8780857D01*
X2492071Y-8766572D01*
X2463500Y-8752286D01*
X2706357Y-8623714D02*
X2734928Y-8623714D01*
X2763500Y-8638000D01*
X2777786Y-8652286D01*
X2792071Y-8680857D01*
X2806357Y-8738000D01*
X2806357Y-8809429D01*
X2792071Y-8866572D01*
X2777786Y-8895143D01*
X2763500Y-8909429D01*
X2734928Y-8923714D01*
X2706357Y-8923714D01*
X2677786Y-8909429D01*
X2663500Y-8895143D01*
X2649214Y-8866572D01*
X2634928Y-8809429D01*
X2634928Y-8738000D01*
X2649214Y-8680857D01*
X2663500Y-8652286D01*
X2677786Y-8638000D01*
X2706357Y-8623714D01*
X2934928Y-8923714D02*
X2934928Y-8723714D01*
X2934928Y-8752286D02*
X2949214Y-8738000D01*
X2977786Y-8723714D01*
X3020643Y-8723714D01*
X3049214Y-8738000D01*
X3063500Y-8766572D01*
X3063500Y-8923714D01*
X3063500Y-8766572D02*
X3077786Y-8738000D01*
X3106357Y-8723714D01*
X3149214Y-8723714D01*
X3177786Y-8738000D01*
X3192071Y-8766572D01*
X3192071Y-8923714D01*
X3334928Y-8923714D02*
X3334928Y-8723714D01*
X3334928Y-8752286D02*
X3349214Y-8738000D01*
X3377786Y-8723714D01*
X3420643Y-8723714D01*
X3449214Y-8738000D01*
X3463500Y-8766572D01*
X3463500Y-8923714D01*
X3463500Y-8766572D02*
X3477786Y-8738000D01*
X3506357Y-8723714D01*
X3549214Y-8723714D01*
X3577786Y-8738000D01*
X3592071Y-8766572D01*
X3592071Y-8923714D01*
X4177786Y-8609429D02*
X3920643Y-8995143D01*
X4563500Y-8623714D02*
X4592071Y-8623714D01*
X4620643Y-8638000D01*
X4634928Y-8652286D01*
X4649214Y-8680857D01*
X4663500Y-8738000D01*
X4663500Y-8809429D01*
X4649214Y-8866572D01*
X4634928Y-8895143D01*
X4620643Y-8909429D01*
X4592071Y-8923714D01*
X4563500Y-8923714D01*
X4534928Y-8909429D01*
X4520643Y-8895143D01*
X4506357Y-8866572D01*
X4492071Y-8809429D01*
X4492071Y-8738000D01*
X4506357Y-8680857D01*
X4520643Y-8652286D01*
X4534928Y-8638000D01*
X4563500Y-8623714D01*
X4792071Y-8895143D02*
X4806357Y-8909429D01*
X4792071Y-8923714D01*
X4777786Y-8909429D01*
X4792071Y-8895143D01*
X4792071Y-8923714D01*
X4992071Y-8623714D02*
X5020643Y-8623714D01*
X5049214Y-8638000D01*
X5063500Y-8652286D01*
X5077786Y-8680857D01*
X5092071Y-8738000D01*
X5092071Y-8809429D01*
X5077786Y-8866572D01*
X5063500Y-8895143D01*
X5049214Y-8909429D01*
X5020643Y-8923714D01*
X4992071Y-8923714D01*
X4963500Y-8909429D01*
X4949214Y-8895143D01*
X4934928Y-8866572D01*
X4920643Y-8809429D01*
X4920643Y-8738000D01*
X4934928Y-8680857D01*
X4949214Y-8652286D01*
X4963500Y-8638000D01*
X4992071Y-8623714D01*
X5192071Y-8623714D02*
X5377786Y-8623714D01*
X5277786Y-8738000D01*
X5320643Y-8738000D01*
X5349214Y-8752286D01*
X5363500Y-8766572D01*
X5377786Y-8795143D01*
X5377786Y-8866572D01*
X5363500Y-8895143D01*
X5349214Y-8909429D01*
X5320643Y-8923714D01*
X5234928Y-8923714D01*
X5206357Y-8909429D01*
X5192071Y-8895143D01*
X5663500Y-8923714D02*
X5492071Y-8923714D01*
X5577786Y-8923714D02*
X5577786Y-8623714D01*
X5549214Y-8666572D01*
X5520643Y-8695143D01*
X5492071Y-8709429D01*
X5777786Y-8623714D02*
X5777786Y-8680857D01*
X5892071Y-8623714D02*
X5892071Y-8680857D01*
X6334928Y-9038000D02*
X6320643Y-9023714D01*
X6292071Y-8980857D01*
X6277786Y-8952286D01*
X6263500Y-8909429D01*
X6249214Y-8838000D01*
X6249214Y-8780857D01*
X6263500Y-8709429D01*
X6277786Y-8666572D01*
X6292071Y-8638000D01*
X6320643Y-8595143D01*
X6334928Y-8580857D01*
X6606357Y-8923714D02*
X6434928Y-8923714D01*
X6520643Y-8923714D02*
X6520643Y-8623714D01*
X6492071Y-8666572D01*
X6463500Y-8695143D01*
X6434928Y-8709429D01*
X6892071Y-8923714D02*
X6720643Y-8923714D01*
X6806357Y-8923714D02*
X6806357Y-8623714D01*
X6777786Y-8666572D01*
X6749214Y-8695143D01*
X6720643Y-8709429D01*
X7149214Y-8723714D02*
X7149214Y-8923714D01*
X7077786Y-8609429D02*
X7006357Y-8823714D01*
X7192071Y-8823714D01*
X7534928Y-8923714D02*
X7534928Y-8623714D01*
X7663500Y-8923714D02*
X7663500Y-8766572D01*
X7649214Y-8738000D01*
X7620643Y-8723714D01*
X7577786Y-8723714D01*
X7549214Y-8738000D01*
X7534928Y-8752286D01*
X7849214Y-8923714D02*
X7820643Y-8909429D01*
X7806357Y-8895143D01*
X7792071Y-8866572D01*
X7792071Y-8780857D01*
X7806357Y-8752286D01*
X7820643Y-8738000D01*
X7849214Y-8723714D01*
X7892071Y-8723714D01*
X7920643Y-8738000D01*
X7934928Y-8752286D01*
X7949214Y-8780857D01*
X7949214Y-8866572D01*
X7934928Y-8895143D01*
X7920643Y-8909429D01*
X7892071Y-8923714D01*
X7849214Y-8923714D01*
X8120643Y-8923714D02*
X8092071Y-8909429D01*
X8077786Y-8880857D01*
X8077786Y-8623714D01*
X8349214Y-8909429D02*
X8320643Y-8923714D01*
X8263500Y-8923714D01*
X8234928Y-8909429D01*
X8220643Y-8880857D01*
X8220643Y-8766572D01*
X8234928Y-8738000D01*
X8263500Y-8723714D01*
X8320643Y-8723714D01*
X8349214Y-8738000D01*
X8363500Y-8766572D01*
X8363500Y-8795143D01*
X8220643Y-8823714D01*
X8477786Y-8909429D02*
X8506357Y-8923714D01*
X8563500Y-8923714D01*
X8592071Y-8909429D01*
X8606357Y-8880857D01*
X8606357Y-8866572D01*
X8592071Y-8838000D01*
X8563500Y-8823714D01*
X8520643Y-8823714D01*
X8492071Y-8809429D01*
X8477786Y-8780857D01*
X8477786Y-8766572D01*
X8492071Y-8738000D01*
X8520643Y-8723714D01*
X8563500Y-8723714D01*
X8592071Y-8738000D01*
X8706357Y-9038000D02*
X8720643Y-9023714D01*
X8749214Y-8980857D01*
X8763500Y-8952286D01*
X8777786Y-8909429D01*
X8792071Y-8838000D01*
X8792071Y-8780857D01*
X8777786Y-8709429D01*
X8763500Y-8666572D01*
X8749214Y-8638000D01*
X8720643Y-8595143D01*
X8706357Y-8580857D01*
X1603500Y-9139000D02*
X1603500Y-9229000D01*
X1558500Y-9184000D02*
X1648500Y-9184000D01*
X1992071Y-9019714D02*
X2020643Y-9019714D01*
X2049214Y-9034000D01*
X2063500Y-9048286D01*
X2077786Y-9076857D01*
X2092071Y-9134000D01*
X2092071Y-9205429D01*
X2077786Y-9262572D01*
X2063500Y-9291143D01*
X2049214Y-9305429D01*
X2020643Y-9319714D01*
X1992071Y-9319714D01*
X1963500Y-9305429D01*
X1949214Y-9291143D01*
X1934928Y-9262572D01*
X1920643Y-9205429D01*
X1920643Y-9134000D01*
X1934928Y-9076857D01*
X1949214Y-9048286D01*
X1963500Y-9034000D01*
X1992071Y-9019714D01*
X2220643Y-9291143D02*
X2234928Y-9305429D01*
X2220643Y-9319714D01*
X2206357Y-9305429D01*
X2220643Y-9291143D01*
X2220643Y-9319714D01*
X2377786Y-9319714D02*
X2434928Y-9319714D01*
X2463500Y-9305429D01*
X2477786Y-9291143D01*
X2506357Y-9248286D01*
X2520643Y-9191143D01*
X2520643Y-9076857D01*
X2506357Y-9048286D01*
X2492071Y-9034000D01*
X2463500Y-9019714D01*
X2406357Y-9019714D01*
X2377786Y-9034000D01*
X2363500Y-9048286D01*
X2349214Y-9076857D01*
X2349214Y-9148286D01*
X2363500Y-9176857D01*
X2377786Y-9191143D01*
X2406357Y-9205429D01*
X2463500Y-9205429D01*
X2492071Y-9191143D01*
X2506357Y-9176857D01*
X2520643Y-9148286D01*
X2706357Y-9019714D02*
X2734928Y-9019714D01*
X2763500Y-9034000D01*
X2777786Y-9048286D01*
X2792071Y-9076857D01*
X2806357Y-9134000D01*
X2806357Y-9205429D01*
X2792071Y-9262572D01*
X2777786Y-9291143D01*
X2763500Y-9305429D01*
X2734928Y-9319714D01*
X2706357Y-9319714D01*
X2677786Y-9305429D01*
X2663500Y-9291143D01*
X2649214Y-9262572D01*
X2634928Y-9205429D01*
X2634928Y-9134000D01*
X2649214Y-9076857D01*
X2663500Y-9048286D01*
X2677786Y-9034000D01*
X2706357Y-9019714D01*
X2934928Y-9319714D02*
X2934928Y-9119714D01*
X2934928Y-9148286D02*
X2949214Y-9134000D01*
X2977786Y-9119714D01*
X3020643Y-9119714D01*
X3049214Y-9134000D01*
X3063500Y-9162572D01*
X3063500Y-9319714D01*
X3063500Y-9162572D02*
X3077786Y-9134000D01*
X3106357Y-9119714D01*
X3149214Y-9119714D01*
X3177786Y-9134000D01*
X3192071Y-9162572D01*
X3192071Y-9319714D01*
X3334928Y-9319714D02*
X3334928Y-9119714D01*
X3334928Y-9148286D02*
X3349214Y-9134000D01*
X3377786Y-9119714D01*
X3420643Y-9119714D01*
X3449214Y-9134000D01*
X3463500Y-9162572D01*
X3463500Y-9319714D01*
X3463500Y-9162572D02*
X3477786Y-9134000D01*
X3506357Y-9119714D01*
X3549214Y-9119714D01*
X3577786Y-9134000D01*
X3592071Y-9162572D01*
X3592071Y-9319714D01*
X4177786Y-9005429D02*
X3920643Y-9391143D01*
X4563500Y-9019714D02*
X4592071Y-9019714D01*
X4620643Y-9034000D01*
X4634928Y-9048286D01*
X4649214Y-9076857D01*
X4663500Y-9134000D01*
X4663500Y-9205429D01*
X4649214Y-9262572D01*
X4634928Y-9291143D01*
X4620643Y-9305429D01*
X4592071Y-9319714D01*
X4563500Y-9319714D01*
X4534928Y-9305429D01*
X4520643Y-9291143D01*
X4506357Y-9262572D01*
X4492071Y-9205429D01*
X4492071Y-9134000D01*
X4506357Y-9076857D01*
X4520643Y-9048286D01*
X4534928Y-9034000D01*
X4563500Y-9019714D01*
X4792071Y-9291143D02*
X4806357Y-9305429D01*
X4792071Y-9319714D01*
X4777786Y-9305429D01*
X4792071Y-9291143D01*
X4792071Y-9319714D01*
X4992071Y-9019714D02*
X5020643Y-9019714D01*
X5049214Y-9034000D01*
X5063500Y-9048286D01*
X5077786Y-9076857D01*
X5092071Y-9134000D01*
X5092071Y-9205429D01*
X5077786Y-9262572D01*
X5063500Y-9291143D01*
X5049214Y-9305429D01*
X5020643Y-9319714D01*
X4992071Y-9319714D01*
X4963500Y-9305429D01*
X4949214Y-9291143D01*
X4934928Y-9262572D01*
X4920643Y-9205429D01*
X4920643Y-9134000D01*
X4934928Y-9076857D01*
X4949214Y-9048286D01*
X4963500Y-9034000D01*
X4992071Y-9019714D01*
X5192071Y-9019714D02*
X5377786Y-9019714D01*
X5277786Y-9134000D01*
X5320643Y-9134000D01*
X5349214Y-9148286D01*
X5363500Y-9162572D01*
X5377786Y-9191143D01*
X5377786Y-9262572D01*
X5363500Y-9291143D01*
X5349214Y-9305429D01*
X5320643Y-9319714D01*
X5234928Y-9319714D01*
X5206357Y-9305429D01*
X5192071Y-9291143D01*
X5649214Y-9019714D02*
X5506357Y-9019714D01*
X5492071Y-9162572D01*
X5506357Y-9148286D01*
X5534928Y-9134000D01*
X5606357Y-9134000D01*
X5634928Y-9148286D01*
X5649214Y-9162572D01*
X5663500Y-9191143D01*
X5663500Y-9262572D01*
X5649214Y-9291143D01*
X5634928Y-9305429D01*
X5606357Y-9319714D01*
X5534928Y-9319714D01*
X5506357Y-9305429D01*
X5492071Y-9291143D01*
X5777786Y-9019714D02*
X5777786Y-9076857D01*
X5892071Y-9019714D02*
X5892071Y-9076857D01*
X6334928Y-9434000D02*
X6320643Y-9419714D01*
X6292071Y-9376857D01*
X6277786Y-9348286D01*
X6263500Y-9305429D01*
X6249214Y-9234000D01*
X6249214Y-9176857D01*
X6263500Y-9105429D01*
X6277786Y-9062572D01*
X6292071Y-9034000D01*
X6320643Y-8991143D01*
X6334928Y-8976857D01*
X6434928Y-9048286D02*
X6449214Y-9034000D01*
X6477786Y-9019714D01*
X6549214Y-9019714D01*
X6577786Y-9034000D01*
X6592071Y-9048286D01*
X6606357Y-9076857D01*
X6606357Y-9105429D01*
X6592071Y-9148286D01*
X6420643Y-9319714D01*
X6606357Y-9319714D01*
X6963500Y-9319714D02*
X6963500Y-9019714D01*
X7092071Y-9319714D02*
X7092071Y-9162572D01*
X7077786Y-9134000D01*
X7049214Y-9119714D01*
X7006357Y-9119714D01*
X6977786Y-9134000D01*
X6963500Y-9148286D01*
X7277786Y-9319714D02*
X7249214Y-9305429D01*
X7234928Y-9291143D01*
X7220643Y-9262572D01*
X7220643Y-9176857D01*
X7234928Y-9148286D01*
X7249214Y-9134000D01*
X7277786Y-9119714D01*
X7320643Y-9119714D01*
X7349214Y-9134000D01*
X7363500Y-9148286D01*
X7377786Y-9176857D01*
X7377786Y-9262572D01*
X7363500Y-9291143D01*
X7349214Y-9305429D01*
X7320643Y-9319714D01*
X7277786Y-9319714D01*
X7549214Y-9319714D02*
X7520643Y-9305429D01*
X7506357Y-9276857D01*
X7506357Y-9019714D01*
X7777786Y-9305429D02*
X7749214Y-9319714D01*
X7692071Y-9319714D01*
X7663500Y-9305429D01*
X7649214Y-9276857D01*
X7649214Y-9162572D01*
X7663500Y-9134000D01*
X7692071Y-9119714D01*
X7749214Y-9119714D01*
X7777786Y-9134000D01*
X7792071Y-9162572D01*
X7792071Y-9191143D01*
X7649214Y-9219714D01*
X7906357Y-9305429D02*
X7934928Y-9319714D01*
X7992071Y-9319714D01*
X8020643Y-9305429D01*
X8034928Y-9276857D01*
X8034928Y-9262572D01*
X8020643Y-9234000D01*
X7992071Y-9219714D01*
X7949214Y-9219714D01*
X7920643Y-9205429D01*
X7906357Y-9176857D01*
X7906357Y-9162572D01*
X7920643Y-9134000D01*
X7949214Y-9119714D01*
X7992071Y-9119714D01*
X8020643Y-9134000D01*
X8134928Y-9434000D02*
X8149214Y-9419714D01*
X8177786Y-9376857D01*
X8192071Y-9348286D01*
X8206357Y-9305429D01*
X8220643Y-9234000D01*
X8220643Y-9176857D01*
X8206357Y-9105429D01*
X8192071Y-9062572D01*
X8177786Y-9034000D01*
X8149214Y-8991143D01*
X8134928Y-8976857D01*
M02*
