G04 #@! TF.GenerationSoftware,KiCad,Pcbnew,(5.1.2-1)-1*
G04 #@! TF.CreationDate,2023-07-30T19:13:35+02:00*
G04 #@! TF.ProjectId,component,636f6d70-6f6e-4656-9e74-2e6b69636164,rev?*
G04 #@! TF.SameCoordinates,Original*
G04 #@! TF.FileFunction,Soldermask,Top*
G04 #@! TF.FilePolarity,Negative*
%FSLAX46Y46*%
G04 Gerber Fmt 4.6, Leading zero omitted, Abs format (unit mm)*
G04 Created by KiCad (PCBNEW (5.1.2-1)-1) date 2023-07-30 19:13:35*
%MOMM*%
%LPD*%
G04 APERTURE LIST*
%ADD10C,0.100000*%
G04 APERTURE END LIST*
D10*
G36*
X115286228Y-100413483D02*
G01*
X115474922Y-100470723D01*
X115648815Y-100563671D01*
X115801239Y-100688761D01*
X115926329Y-100841185D01*
X116019277Y-101015078D01*
X116076517Y-101203772D01*
X116095843Y-101400000D01*
X116076517Y-101596228D01*
X116019277Y-101784922D01*
X115926329Y-101958815D01*
X115801239Y-102111239D01*
X115648815Y-102236329D01*
X115474922Y-102329277D01*
X115286228Y-102386517D01*
X115139175Y-102401000D01*
X113740825Y-102401000D01*
X113593772Y-102386517D01*
X113405078Y-102329277D01*
X113231185Y-102236329D01*
X113078761Y-102111239D01*
X112953671Y-101958815D01*
X112860723Y-101784922D01*
X112803483Y-101596228D01*
X112784157Y-101400000D01*
X112803483Y-101203772D01*
X112860723Y-101015078D01*
X112953671Y-100841185D01*
X113078761Y-100688761D01*
X113231185Y-100563671D01*
X113405078Y-100470723D01*
X113593772Y-100413483D01*
X113740825Y-100399000D01*
X115139175Y-100399000D01*
X115286228Y-100413483D01*
X115286228Y-100413483D01*
G37*
G36*
X84195256Y-98721298D02*
G01*
X84301579Y-98742447D01*
X84602042Y-98866903D01*
X84872451Y-99047585D01*
X85102415Y-99277549D01*
X85283097Y-99547958D01*
X85380700Y-99783591D01*
X85407553Y-99848422D01*
X85458942Y-100106768D01*
X85471000Y-100167391D01*
X85471000Y-100492609D01*
X85407553Y-100811579D01*
X85283097Y-101112042D01*
X85102415Y-101382451D01*
X84872451Y-101612415D01*
X84602042Y-101793097D01*
X84301579Y-101917553D01*
X84195256Y-101938702D01*
X83982611Y-101981000D01*
X83657389Y-101981000D01*
X83444744Y-101938702D01*
X83338421Y-101917553D01*
X83037958Y-101793097D01*
X82767549Y-101612415D01*
X82537585Y-101382451D01*
X82356903Y-101112042D01*
X82232447Y-100811579D01*
X82169000Y-100492609D01*
X82169000Y-100167391D01*
X82181059Y-100106768D01*
X82232447Y-99848422D01*
X82259301Y-99783591D01*
X82356903Y-99547958D01*
X82537585Y-99277549D01*
X82767549Y-99047585D01*
X83037958Y-98866903D01*
X83338421Y-98742447D01*
X83444744Y-98721298D01*
X83657389Y-98679000D01*
X83982611Y-98679000D01*
X84195256Y-98721298D01*
X84195256Y-98721298D01*
G37*
G36*
X51814509Y-97311985D02*
G01*
X51894534Y-97336260D01*
X52116300Y-97403532D01*
X52244230Y-97471912D01*
X52394430Y-97552196D01*
X52638216Y-97752264D01*
X52832818Y-97989390D01*
X52838283Y-97996049D01*
X52986948Y-98274180D01*
X53041737Y-98454797D01*
X53078495Y-98575971D01*
X53109406Y-98889820D01*
X53078495Y-99203669D01*
X53078494Y-99203671D01*
X52986948Y-99505460D01*
X52986946Y-99505463D01*
X52838284Y-99783590D01*
X52638216Y-100027376D01*
X52394430Y-100227444D01*
X52244230Y-100307728D01*
X52116300Y-100376108D01*
X51894534Y-100443380D01*
X51814509Y-100467655D01*
X51579309Y-100490820D01*
X50422011Y-100490820D01*
X50186811Y-100467655D01*
X50106786Y-100443380D01*
X49885020Y-100376108D01*
X49757090Y-100307728D01*
X49606890Y-100227444D01*
X49363104Y-100027376D01*
X49163036Y-99783590D01*
X49014374Y-99505463D01*
X49014372Y-99505460D01*
X48922826Y-99203671D01*
X48922825Y-99203669D01*
X48891914Y-98889820D01*
X48922825Y-98575971D01*
X48959583Y-98454797D01*
X49014372Y-98274180D01*
X49163037Y-97996049D01*
X49168502Y-97989390D01*
X49363104Y-97752264D01*
X49606890Y-97552196D01*
X49757090Y-97471912D01*
X49885020Y-97403532D01*
X50106786Y-97336260D01*
X50186811Y-97311985D01*
X50422011Y-97288820D01*
X51579309Y-97288820D01*
X51814509Y-97311985D01*
X51814509Y-97311985D01*
G37*
G36*
X118164549Y-97871116D02*
G01*
X118275734Y-97893232D01*
X118485203Y-97979997D01*
X118673720Y-98105960D01*
X118834040Y-98266280D01*
X118876634Y-98330027D01*
X118960004Y-98454799D01*
X119046768Y-98664267D01*
X119091000Y-98886635D01*
X119091000Y-99113365D01*
X119046768Y-99335733D01*
X118979624Y-99497835D01*
X118960003Y-99545203D01*
X118834040Y-99733720D01*
X118673720Y-99894040D01*
X118485203Y-100020003D01*
X118485202Y-100020004D01*
X118485201Y-100020004D01*
X118467403Y-100027376D01*
X118275734Y-100106768D01*
X118164549Y-100128884D01*
X118053365Y-100151000D01*
X117826635Y-100151000D01*
X117715451Y-100128884D01*
X117604266Y-100106768D01*
X117412597Y-100027376D01*
X117394799Y-100020004D01*
X117394798Y-100020004D01*
X117394797Y-100020003D01*
X117206280Y-99894040D01*
X117045960Y-99733720D01*
X116919997Y-99545203D01*
X116900377Y-99497835D01*
X116833232Y-99335733D01*
X116789000Y-99113365D01*
X116789000Y-98886635D01*
X116833232Y-98664267D01*
X116919996Y-98454799D01*
X117003366Y-98330027D01*
X117045960Y-98266280D01*
X117206280Y-98105960D01*
X117394797Y-97979997D01*
X117604266Y-97893232D01*
X117715451Y-97871116D01*
X117826635Y-97849000D01*
X118053365Y-97849000D01*
X118164549Y-97871116D01*
X118164549Y-97871116D01*
G37*
G36*
X110996564Y-97989389D02*
G01*
X111187833Y-98068615D01*
X111187835Y-98068616D01*
X111359973Y-98183635D01*
X111506365Y-98330027D01*
X111589734Y-98454797D01*
X111621385Y-98502167D01*
X111700611Y-98693436D01*
X111741000Y-98896484D01*
X111741000Y-99103516D01*
X111700611Y-99306564D01*
X111688528Y-99335734D01*
X111621384Y-99497835D01*
X111506365Y-99669973D01*
X111359973Y-99816365D01*
X111187835Y-99931384D01*
X111187834Y-99931385D01*
X111187833Y-99931385D01*
X110996564Y-100010611D01*
X110793516Y-100051000D01*
X110586484Y-100051000D01*
X110383436Y-100010611D01*
X110192167Y-99931385D01*
X110192166Y-99931385D01*
X110192165Y-99931384D01*
X110020027Y-99816365D01*
X109873635Y-99669973D01*
X109758616Y-99497835D01*
X109691472Y-99335734D01*
X109679389Y-99306564D01*
X109639000Y-99103516D01*
X109639000Y-98896484D01*
X109679389Y-98693436D01*
X109758615Y-98502167D01*
X109790267Y-98454797D01*
X109873635Y-98330027D01*
X110020027Y-98183635D01*
X110192165Y-98068616D01*
X110192167Y-98068615D01*
X110383436Y-97989389D01*
X110586484Y-97949000D01*
X110793516Y-97949000D01*
X110996564Y-97989389D01*
X110996564Y-97989389D01*
G37*
G36*
X79591000Y-97371000D02*
G01*
X77889000Y-97371000D01*
X77889000Y-95669000D01*
X79591000Y-95669000D01*
X79591000Y-97371000D01*
X79591000Y-97371000D01*
G37*
G36*
X76488228Y-95701703D02*
G01*
X76643100Y-95765853D01*
X76782481Y-95858985D01*
X76901015Y-95977519D01*
X76994147Y-96116900D01*
X77058297Y-96271772D01*
X77091000Y-96436184D01*
X77091000Y-96603816D01*
X77058297Y-96768228D01*
X76994147Y-96923100D01*
X76901015Y-97062481D01*
X76782481Y-97181015D01*
X76643100Y-97274147D01*
X76488228Y-97338297D01*
X76323816Y-97371000D01*
X76156184Y-97371000D01*
X75991772Y-97338297D01*
X75836900Y-97274147D01*
X75697519Y-97181015D01*
X75578985Y-97062481D01*
X75485853Y-96923100D01*
X75421703Y-96768228D01*
X75389000Y-96603816D01*
X75389000Y-96436184D01*
X75421703Y-96271772D01*
X75485853Y-96116900D01*
X75578985Y-95977519D01*
X75697519Y-95858985D01*
X75836900Y-95765853D01*
X75991772Y-95701703D01*
X76156184Y-95669000D01*
X76323816Y-95669000D01*
X76488228Y-95701703D01*
X76488228Y-95701703D01*
G37*
G36*
X72556823Y-95681313D02*
G01*
X72717242Y-95729976D01*
X72784361Y-95765852D01*
X72865078Y-95808996D01*
X72994659Y-95915341D01*
X73101004Y-96044922D01*
X73101005Y-96044924D01*
X73180024Y-96192758D01*
X73228687Y-96353177D01*
X73245117Y-96520000D01*
X73228687Y-96686823D01*
X73180024Y-96847242D01*
X73139477Y-96923100D01*
X73101004Y-96995078D01*
X72994659Y-97124659D01*
X72865078Y-97231004D01*
X72865076Y-97231005D01*
X72717242Y-97310024D01*
X72556823Y-97358687D01*
X72431804Y-97371000D01*
X72348196Y-97371000D01*
X72223177Y-97358687D01*
X72062758Y-97310024D01*
X71914924Y-97231005D01*
X71914922Y-97231004D01*
X71785341Y-97124659D01*
X71678996Y-96995078D01*
X71640523Y-96923100D01*
X71599976Y-96847242D01*
X71551313Y-96686823D01*
X71534883Y-96520000D01*
X71551313Y-96353177D01*
X71599976Y-96192758D01*
X71678995Y-96044924D01*
X71678996Y-96044922D01*
X71785341Y-95915341D01*
X71914922Y-95808996D01*
X71995639Y-95765852D01*
X72062758Y-95729976D01*
X72223177Y-95681313D01*
X72348196Y-95669000D01*
X72431804Y-95669000D01*
X72556823Y-95681313D01*
X72556823Y-95681313D01*
G37*
G36*
X62478228Y-95701703D02*
G01*
X62633100Y-95765853D01*
X62772481Y-95858985D01*
X62891015Y-95977519D01*
X62984147Y-96116900D01*
X63048297Y-96271772D01*
X63081000Y-96436184D01*
X63081000Y-96603816D01*
X63048297Y-96768228D01*
X62984147Y-96923100D01*
X62891015Y-97062481D01*
X62772481Y-97181015D01*
X62633100Y-97274147D01*
X62478228Y-97338297D01*
X62313816Y-97371000D01*
X62146184Y-97371000D01*
X61981772Y-97338297D01*
X61826900Y-97274147D01*
X61687519Y-97181015D01*
X61568985Y-97062481D01*
X61475853Y-96923100D01*
X61411703Y-96768228D01*
X61379000Y-96603816D01*
X61379000Y-96436184D01*
X61411703Y-96271772D01*
X61475853Y-96116900D01*
X61568985Y-95977519D01*
X61687519Y-95858985D01*
X61826900Y-95765853D01*
X61981772Y-95701703D01*
X62146184Y-95669000D01*
X62313816Y-95669000D01*
X62478228Y-95701703D01*
X62478228Y-95701703D01*
G37*
G36*
X87878228Y-93161703D02*
G01*
X88033100Y-93225853D01*
X88172481Y-93318985D01*
X88291015Y-93437519D01*
X88384147Y-93576900D01*
X88448297Y-93731772D01*
X88481000Y-93896184D01*
X88481000Y-94063816D01*
X88448297Y-94228228D01*
X88384147Y-94383100D01*
X88291015Y-94522481D01*
X88172481Y-94641015D01*
X88033100Y-94734147D01*
X87878228Y-94798297D01*
X87713816Y-94831000D01*
X87546184Y-94831000D01*
X87381772Y-94798297D01*
X87226900Y-94734147D01*
X87087519Y-94641015D01*
X86968985Y-94522481D01*
X86875853Y-94383100D01*
X86811703Y-94228228D01*
X86779000Y-94063816D01*
X86779000Y-93896184D01*
X86811703Y-93731772D01*
X86875853Y-93576900D01*
X86968985Y-93437519D01*
X87087519Y-93318985D01*
X87226900Y-93225853D01*
X87381772Y-93161703D01*
X87546184Y-93129000D01*
X87713816Y-93129000D01*
X87878228Y-93161703D01*
X87878228Y-93161703D01*
G37*
G36*
X92878228Y-93161703D02*
G01*
X93033100Y-93225853D01*
X93172481Y-93318985D01*
X93291015Y-93437519D01*
X93384147Y-93576900D01*
X93448297Y-93731772D01*
X93481000Y-93896184D01*
X93481000Y-94063816D01*
X93448297Y-94228228D01*
X93384147Y-94383100D01*
X93291015Y-94522481D01*
X93172481Y-94641015D01*
X93033100Y-94734147D01*
X92878228Y-94798297D01*
X92713816Y-94831000D01*
X92546184Y-94831000D01*
X92381772Y-94798297D01*
X92226900Y-94734147D01*
X92087519Y-94641015D01*
X91968985Y-94522481D01*
X91875853Y-94383100D01*
X91811703Y-94228228D01*
X91779000Y-94063816D01*
X91779000Y-93896184D01*
X91811703Y-93731772D01*
X91875853Y-93576900D01*
X91968985Y-93437519D01*
X92087519Y-93318985D01*
X92226900Y-93225853D01*
X92381772Y-93161703D01*
X92546184Y-93129000D01*
X92713816Y-93129000D01*
X92878228Y-93161703D01*
X92878228Y-93161703D01*
G37*
G36*
X110996564Y-90489389D02*
G01*
X111131113Y-90545121D01*
X111187835Y-90568616D01*
X111359973Y-90683635D01*
X111506365Y-90830027D01*
X111581456Y-90942408D01*
X111621385Y-91002167D01*
X111700611Y-91193436D01*
X111741000Y-91396484D01*
X111741000Y-91603516D01*
X111700611Y-91806564D01*
X111627744Y-91982480D01*
X111621384Y-91997835D01*
X111506365Y-92169973D01*
X111359973Y-92316365D01*
X111187835Y-92431384D01*
X111187834Y-92431385D01*
X111187833Y-92431385D01*
X110996564Y-92510611D01*
X110793516Y-92551000D01*
X110586484Y-92551000D01*
X110383436Y-92510611D01*
X110192167Y-92431385D01*
X110192166Y-92431385D01*
X110192165Y-92431384D01*
X110020027Y-92316365D01*
X109873635Y-92169973D01*
X109758616Y-91997835D01*
X109752256Y-91982480D01*
X109679389Y-91806564D01*
X109639000Y-91603516D01*
X109639000Y-91396484D01*
X109679389Y-91193436D01*
X109758615Y-91002167D01*
X109798545Y-90942408D01*
X109873635Y-90830027D01*
X110020027Y-90683635D01*
X110192165Y-90568616D01*
X110248887Y-90545121D01*
X110383436Y-90489389D01*
X110586484Y-90449000D01*
X110793516Y-90449000D01*
X110996564Y-90489389D01*
X110996564Y-90489389D01*
G37*
G36*
X58386056Y-90429879D02*
G01*
X58577232Y-90509067D01*
X58577234Y-90509068D01*
X58691607Y-90585490D01*
X58749288Y-90624031D01*
X58895609Y-90770352D01*
X59010573Y-90942408D01*
X59089761Y-91133584D01*
X59130130Y-91336534D01*
X59130130Y-91543466D01*
X59089761Y-91746416D01*
X59010573Y-91937592D01*
X59010572Y-91937594D01*
X58895609Y-92109648D01*
X58749288Y-92255969D01*
X58577234Y-92370932D01*
X58577233Y-92370933D01*
X58577232Y-92370933D01*
X58386056Y-92450121D01*
X58183106Y-92490490D01*
X57976174Y-92490490D01*
X57773224Y-92450121D01*
X57582048Y-92370933D01*
X57582047Y-92370933D01*
X57582046Y-92370932D01*
X57409992Y-92255969D01*
X57263671Y-92109648D01*
X57148708Y-91937594D01*
X57148707Y-91937592D01*
X57069519Y-91746416D01*
X57029150Y-91543466D01*
X57029150Y-91336534D01*
X57069519Y-91133584D01*
X57148707Y-90942408D01*
X57263671Y-90770352D01*
X57409992Y-90624031D01*
X57467673Y-90585490D01*
X57582046Y-90509068D01*
X57582048Y-90509067D01*
X57773224Y-90429879D01*
X57976174Y-90389510D01*
X58183106Y-90389510D01*
X58386056Y-90429879D01*
X58386056Y-90429879D01*
G37*
G36*
X72556823Y-90601313D02*
G01*
X72717242Y-90649976D01*
X72780213Y-90683635D01*
X72865078Y-90728996D01*
X72994659Y-90835341D01*
X73101004Y-90964922D01*
X73101005Y-90964924D01*
X73180024Y-91112758D01*
X73228687Y-91273177D01*
X73245117Y-91440000D01*
X73228687Y-91606823D01*
X73180024Y-91767242D01*
X73139477Y-91843100D01*
X73101004Y-91915078D01*
X72994659Y-92044659D01*
X72865078Y-92151004D01*
X72865076Y-92151005D01*
X72717242Y-92230024D01*
X72556823Y-92278687D01*
X72431804Y-92291000D01*
X72348196Y-92291000D01*
X72223177Y-92278687D01*
X72062758Y-92230024D01*
X71914924Y-92151005D01*
X71914922Y-92151004D01*
X71785341Y-92044659D01*
X71678996Y-91915078D01*
X71640523Y-91843100D01*
X71599976Y-91767242D01*
X71551313Y-91606823D01*
X71534883Y-91440000D01*
X71551313Y-91273177D01*
X71599976Y-91112758D01*
X71678995Y-90964924D01*
X71678996Y-90964922D01*
X71785341Y-90835341D01*
X71914922Y-90728996D01*
X71999787Y-90683635D01*
X72062758Y-90649976D01*
X72223177Y-90601313D01*
X72348196Y-90589000D01*
X72431804Y-90589000D01*
X72556823Y-90601313D01*
X72556823Y-90601313D01*
G37*
G36*
X62478228Y-90621703D02*
G01*
X62633100Y-90685853D01*
X62772481Y-90778985D01*
X62891015Y-90897519D01*
X62984147Y-91036900D01*
X63048297Y-91191772D01*
X63081000Y-91356184D01*
X63081000Y-91523816D01*
X63048297Y-91688228D01*
X62984147Y-91843100D01*
X62891015Y-91982481D01*
X62772481Y-92101015D01*
X62633100Y-92194147D01*
X62478228Y-92258297D01*
X62313816Y-92291000D01*
X62146184Y-92291000D01*
X61981772Y-92258297D01*
X61826900Y-92194147D01*
X61687519Y-92101015D01*
X61568985Y-91982481D01*
X61475853Y-91843100D01*
X61411703Y-91688228D01*
X61379000Y-91523816D01*
X61379000Y-91356184D01*
X61411703Y-91191772D01*
X61475853Y-91036900D01*
X61568985Y-90897519D01*
X61687519Y-90778985D01*
X61826900Y-90685853D01*
X61981772Y-90621703D01*
X62146184Y-90589000D01*
X62313816Y-90589000D01*
X62478228Y-90621703D01*
X62478228Y-90621703D01*
G37*
G36*
X53306056Y-88524879D02*
G01*
X53497232Y-88604067D01*
X53497234Y-88604068D01*
X53669288Y-88719031D01*
X53815609Y-88865352D01*
X53894764Y-88983815D01*
X53930573Y-89037408D01*
X54009761Y-89228584D01*
X54050130Y-89431534D01*
X54050130Y-89638466D01*
X54009761Y-89841416D01*
X53931946Y-90029277D01*
X53930572Y-90032594D01*
X53815609Y-90204648D01*
X53669288Y-90350969D01*
X53497234Y-90465932D01*
X53497233Y-90465933D01*
X53497232Y-90465933D01*
X53306056Y-90545121D01*
X53103106Y-90585490D01*
X52896174Y-90585490D01*
X52693224Y-90545121D01*
X52502048Y-90465933D01*
X52502047Y-90465933D01*
X52502046Y-90465932D01*
X52329992Y-90350969D01*
X52183671Y-90204648D01*
X52068708Y-90032594D01*
X52067334Y-90029277D01*
X51989519Y-89841416D01*
X51949150Y-89638466D01*
X51949150Y-89431534D01*
X51989519Y-89228584D01*
X52068707Y-89037408D01*
X52104517Y-88983815D01*
X52183671Y-88865352D01*
X52329992Y-88719031D01*
X52502046Y-88604068D01*
X52502048Y-88604067D01*
X52693224Y-88524879D01*
X52896174Y-88484510D01*
X53103106Y-88484510D01*
X53306056Y-88524879D01*
X53306056Y-88524879D01*
G37*
G36*
X115286228Y-88113483D02*
G01*
X115474922Y-88170723D01*
X115648815Y-88263671D01*
X115801239Y-88388761D01*
X115926329Y-88541185D01*
X116019277Y-88715078D01*
X116076517Y-88903772D01*
X116095843Y-89100000D01*
X116076517Y-89296228D01*
X116019277Y-89484922D01*
X115926329Y-89658815D01*
X115801239Y-89811239D01*
X115648815Y-89936329D01*
X115474922Y-90029277D01*
X115474919Y-90029278D01*
X115439796Y-90039932D01*
X115286228Y-90086517D01*
X115139175Y-90101000D01*
X113740825Y-90101000D01*
X113593772Y-90086517D01*
X113440204Y-90039932D01*
X113405081Y-90029278D01*
X113405078Y-90029277D01*
X113231185Y-89936329D01*
X113078761Y-89811239D01*
X112953671Y-89658815D01*
X112860723Y-89484922D01*
X112803483Y-89296228D01*
X112784157Y-89100000D01*
X112803483Y-88903772D01*
X112860723Y-88715078D01*
X112953671Y-88541185D01*
X113078761Y-88388761D01*
X113231185Y-88263671D01*
X113405078Y-88170723D01*
X113593772Y-88113483D01*
X113740825Y-88099000D01*
X115139175Y-88099000D01*
X115286228Y-88113483D01*
X115286228Y-88113483D01*
G37*
G36*
X76366823Y-88061313D02*
G01*
X76527242Y-88109976D01*
X76659906Y-88180886D01*
X76675078Y-88188996D01*
X76804659Y-88295341D01*
X76911004Y-88424922D01*
X76911005Y-88424924D01*
X76990024Y-88572758D01*
X77038687Y-88733177D01*
X77055117Y-88900000D01*
X77038687Y-89066823D01*
X76990024Y-89227242D01*
X76949477Y-89303100D01*
X76911004Y-89375078D01*
X76804659Y-89504659D01*
X76675078Y-89611004D01*
X76675076Y-89611005D01*
X76527242Y-89690024D01*
X76366823Y-89738687D01*
X76241804Y-89751000D01*
X76158196Y-89751000D01*
X76033177Y-89738687D01*
X75872758Y-89690024D01*
X75724924Y-89611005D01*
X75724922Y-89611004D01*
X75595341Y-89504659D01*
X75488996Y-89375078D01*
X75450523Y-89303100D01*
X75409976Y-89227242D01*
X75361313Y-89066823D01*
X75344883Y-88900000D01*
X75361313Y-88733177D01*
X75409976Y-88572758D01*
X75488995Y-88424924D01*
X75488996Y-88424922D01*
X75595341Y-88295341D01*
X75724922Y-88188996D01*
X75740094Y-88180886D01*
X75872758Y-88109976D01*
X76033177Y-88061313D01*
X76158196Y-88049000D01*
X76241804Y-88049000D01*
X76366823Y-88061313D01*
X76366823Y-88061313D01*
G37*
G36*
X86608228Y-88081703D02*
G01*
X86763100Y-88145853D01*
X86902481Y-88238985D01*
X87021015Y-88357519D01*
X87114147Y-88496900D01*
X87178297Y-88651772D01*
X87211000Y-88816184D01*
X87211000Y-88983816D01*
X87178297Y-89148228D01*
X87114147Y-89303100D01*
X87021015Y-89442481D01*
X86902481Y-89561015D01*
X86763100Y-89654147D01*
X86608228Y-89718297D01*
X86443816Y-89751000D01*
X86276184Y-89751000D01*
X86111772Y-89718297D01*
X85956900Y-89654147D01*
X85817519Y-89561015D01*
X85698985Y-89442481D01*
X85605853Y-89303100D01*
X85541703Y-89148228D01*
X85509000Y-88983816D01*
X85509000Y-88816184D01*
X85541703Y-88651772D01*
X85605853Y-88496900D01*
X85698985Y-88357519D01*
X85817519Y-88238985D01*
X85956900Y-88145853D01*
X86111772Y-88081703D01*
X86276184Y-88049000D01*
X86443816Y-88049000D01*
X86608228Y-88081703D01*
X86608228Y-88081703D01*
G37*
G36*
X58386056Y-86619879D02*
G01*
X58577232Y-86699067D01*
X58577234Y-86699068D01*
X58749288Y-86814031D01*
X58895609Y-86960352D01*
X58998372Y-87114147D01*
X59010573Y-87132408D01*
X59089761Y-87323584D01*
X59130130Y-87526534D01*
X59130130Y-87733466D01*
X59089761Y-87936416D01*
X59017870Y-88109975D01*
X59010572Y-88127594D01*
X58895609Y-88299648D01*
X58749288Y-88445969D01*
X58577234Y-88560932D01*
X58577233Y-88560933D01*
X58577232Y-88560933D01*
X58386056Y-88640121D01*
X58183106Y-88680490D01*
X57976174Y-88680490D01*
X57773224Y-88640121D01*
X57582048Y-88560933D01*
X57582047Y-88560933D01*
X57582046Y-88560932D01*
X57409992Y-88445969D01*
X57263671Y-88299648D01*
X57148708Y-88127594D01*
X57141410Y-88109975D01*
X57069519Y-87936416D01*
X57029150Y-87733466D01*
X57029150Y-87526534D01*
X57069519Y-87323584D01*
X57148707Y-87132408D01*
X57160909Y-87114147D01*
X57263671Y-86960352D01*
X57409992Y-86814031D01*
X57582046Y-86699068D01*
X57582048Y-86699067D01*
X57773224Y-86619879D01*
X57976174Y-86579510D01*
X58183106Y-86579510D01*
X58386056Y-86619879D01*
X58386056Y-86619879D01*
G37*
G36*
X96686823Y-86791313D02*
G01*
X96847242Y-86839976D01*
X96979906Y-86910886D01*
X96995078Y-86918996D01*
X97124659Y-87025341D01*
X97231004Y-87154922D01*
X97231005Y-87154924D01*
X97310024Y-87302758D01*
X97358687Y-87463177D01*
X97375117Y-87630000D01*
X97358687Y-87796823D01*
X97310024Y-87957242D01*
X97269477Y-88033100D01*
X97231004Y-88105078D01*
X97124659Y-88234659D01*
X96995078Y-88341004D01*
X96995076Y-88341005D01*
X96847242Y-88420024D01*
X96686823Y-88468687D01*
X96561804Y-88481000D01*
X96478196Y-88481000D01*
X96353177Y-88468687D01*
X96192758Y-88420024D01*
X96044924Y-88341005D01*
X96044922Y-88341004D01*
X95915341Y-88234659D01*
X95808996Y-88105078D01*
X95770523Y-88033100D01*
X95729976Y-87957242D01*
X95681313Y-87796823D01*
X95664883Y-87630000D01*
X95681313Y-87463177D01*
X95729976Y-87302758D01*
X95808995Y-87154924D01*
X95808996Y-87154922D01*
X95915341Y-87025341D01*
X96044922Y-86918996D01*
X96060094Y-86910886D01*
X96192758Y-86839976D01*
X96353177Y-86791313D01*
X96478196Y-86779000D01*
X96561804Y-86779000D01*
X96686823Y-86791313D01*
X96686823Y-86791313D01*
G37*
G36*
X92876823Y-86791313D02*
G01*
X93037242Y-86839976D01*
X93169906Y-86910886D01*
X93185078Y-86918996D01*
X93314659Y-87025341D01*
X93421004Y-87154922D01*
X93421005Y-87154924D01*
X93500024Y-87302758D01*
X93548687Y-87463177D01*
X93565117Y-87630000D01*
X93548687Y-87796823D01*
X93500024Y-87957242D01*
X93459477Y-88033100D01*
X93421004Y-88105078D01*
X93314659Y-88234659D01*
X93185078Y-88341004D01*
X93185076Y-88341005D01*
X93037242Y-88420024D01*
X92876823Y-88468687D01*
X92751804Y-88481000D01*
X92668196Y-88481000D01*
X92543177Y-88468687D01*
X92382758Y-88420024D01*
X92234924Y-88341005D01*
X92234922Y-88341004D01*
X92105341Y-88234659D01*
X91998996Y-88105078D01*
X91960523Y-88033100D01*
X91919976Y-87957242D01*
X91871313Y-87796823D01*
X91854883Y-87630000D01*
X91871313Y-87463177D01*
X91919976Y-87302758D01*
X91998995Y-87154924D01*
X91998996Y-87154922D01*
X92105341Y-87025341D01*
X92234922Y-86918996D01*
X92250094Y-86910886D01*
X92382758Y-86839976D01*
X92543177Y-86791313D01*
X92668196Y-86779000D01*
X92751804Y-86779000D01*
X92876823Y-86791313D01*
X92876823Y-86791313D01*
G37*
G36*
X105658228Y-86811703D02*
G01*
X105813100Y-86875853D01*
X105952481Y-86968985D01*
X106071015Y-87087519D01*
X106164147Y-87226900D01*
X106228297Y-87381772D01*
X106261000Y-87546184D01*
X106261000Y-87713816D01*
X106228297Y-87878228D01*
X106164147Y-88033100D01*
X106071015Y-88172481D01*
X105952481Y-88291015D01*
X105813100Y-88384147D01*
X105658228Y-88448297D01*
X105493816Y-88481000D01*
X105326184Y-88481000D01*
X105161772Y-88448297D01*
X105006900Y-88384147D01*
X104867519Y-88291015D01*
X104748985Y-88172481D01*
X104655853Y-88033100D01*
X104591703Y-87878228D01*
X104559000Y-87713816D01*
X104559000Y-87546184D01*
X104591703Y-87381772D01*
X104655853Y-87226900D01*
X104748985Y-87087519D01*
X104867519Y-86968985D01*
X105006900Y-86875853D01*
X105161772Y-86811703D01*
X105326184Y-86779000D01*
X105493816Y-86779000D01*
X105658228Y-86811703D01*
X105658228Y-86811703D01*
G37*
G36*
X62478228Y-85541703D02*
G01*
X62633100Y-85605853D01*
X62772481Y-85698985D01*
X62891015Y-85817519D01*
X62984147Y-85956900D01*
X63048297Y-86111772D01*
X63081000Y-86276184D01*
X63081000Y-86443816D01*
X63048297Y-86608228D01*
X62984147Y-86763100D01*
X62891015Y-86902481D01*
X62772481Y-87021015D01*
X62633100Y-87114147D01*
X62478228Y-87178297D01*
X62313816Y-87211000D01*
X62146184Y-87211000D01*
X61981772Y-87178297D01*
X61826900Y-87114147D01*
X61687519Y-87021015D01*
X61568985Y-86902481D01*
X61475853Y-86763100D01*
X61411703Y-86608228D01*
X61379000Y-86443816D01*
X61379000Y-86276184D01*
X61411703Y-86111772D01*
X61475853Y-85956900D01*
X61568985Y-85817519D01*
X61687519Y-85698985D01*
X61826900Y-85605853D01*
X61981772Y-85541703D01*
X62146184Y-85509000D01*
X62313816Y-85509000D01*
X62478228Y-85541703D01*
X62478228Y-85541703D01*
G37*
G36*
X72556823Y-85521313D02*
G01*
X72717242Y-85569976D01*
X72784361Y-85605852D01*
X72865078Y-85648996D01*
X72994659Y-85755341D01*
X73101004Y-85884922D01*
X73101005Y-85884924D01*
X73180024Y-86032758D01*
X73228687Y-86193177D01*
X73245117Y-86360000D01*
X73228687Y-86526823D01*
X73180024Y-86687242D01*
X73139477Y-86763100D01*
X73101004Y-86835078D01*
X72994659Y-86964659D01*
X72865078Y-87071004D01*
X72865076Y-87071005D01*
X72717242Y-87150024D01*
X72556823Y-87198687D01*
X72431804Y-87211000D01*
X72348196Y-87211000D01*
X72223177Y-87198687D01*
X72062758Y-87150024D01*
X71914924Y-87071005D01*
X71914922Y-87071004D01*
X71785341Y-86964659D01*
X71678996Y-86835078D01*
X71640523Y-86763100D01*
X71599976Y-86687242D01*
X71551313Y-86526823D01*
X71534883Y-86360000D01*
X71551313Y-86193177D01*
X71599976Y-86032758D01*
X71678995Y-85884924D01*
X71678996Y-85884922D01*
X71785341Y-85755341D01*
X71914922Y-85648996D01*
X71995639Y-85605852D01*
X72062758Y-85569976D01*
X72223177Y-85521313D01*
X72348196Y-85509000D01*
X72431804Y-85509000D01*
X72556823Y-85521313D01*
X72556823Y-85521313D01*
G37*
G36*
X53306056Y-84714879D02*
G01*
X53497232Y-84794067D01*
X53497234Y-84794068D01*
X53551191Y-84830121D01*
X53669288Y-84909031D01*
X53815609Y-85055352D01*
X53930573Y-85227408D01*
X54009761Y-85418584D01*
X54050130Y-85621534D01*
X54050130Y-85828466D01*
X54009761Y-86031416D01*
X53976476Y-86111772D01*
X53930572Y-86222594D01*
X53815609Y-86394648D01*
X53669288Y-86540969D01*
X53497234Y-86655932D01*
X53497233Y-86655933D01*
X53497232Y-86655933D01*
X53306056Y-86735121D01*
X53103106Y-86775490D01*
X52896174Y-86775490D01*
X52693224Y-86735121D01*
X52502048Y-86655933D01*
X52502047Y-86655933D01*
X52502046Y-86655932D01*
X52329992Y-86540969D01*
X52183671Y-86394648D01*
X52068708Y-86222594D01*
X52022804Y-86111772D01*
X51989519Y-86031416D01*
X51949150Y-85828466D01*
X51949150Y-85621534D01*
X51989519Y-85418584D01*
X52068707Y-85227408D01*
X52183671Y-85055352D01*
X52329992Y-84909031D01*
X52448089Y-84830121D01*
X52502046Y-84794068D01*
X52502048Y-84794067D01*
X52693224Y-84714879D01*
X52896174Y-84674510D01*
X53103106Y-84674510D01*
X53306056Y-84714879D01*
X53306056Y-84714879D01*
G37*
G36*
X115827832Y-82734930D02*
G01*
X116035376Y-82797888D01*
X116226641Y-82900122D01*
X116394292Y-83037708D01*
X116531878Y-83205359D01*
X116634112Y-83396624D01*
X116697070Y-83604168D01*
X116718327Y-83820000D01*
X116697070Y-84035832D01*
X116634112Y-84243376D01*
X116531878Y-84434641D01*
X116394292Y-84602292D01*
X116226641Y-84739878D01*
X116035376Y-84842112D01*
X115827832Y-84905070D01*
X115666089Y-84921000D01*
X114457911Y-84921000D01*
X114296168Y-84905070D01*
X114088624Y-84842112D01*
X113897359Y-84739878D01*
X113729708Y-84602292D01*
X113592122Y-84434641D01*
X113489888Y-84243376D01*
X113426930Y-84035832D01*
X113405673Y-83820000D01*
X113426930Y-83604168D01*
X113489888Y-83396624D01*
X113592122Y-83205359D01*
X113729708Y-83037708D01*
X113897359Y-82900122D01*
X114088624Y-82797888D01*
X114296168Y-82734930D01*
X114457911Y-82719000D01*
X115666089Y-82719000D01*
X115827832Y-82734930D01*
X115827832Y-82734930D01*
G37*
G36*
X58386056Y-82809879D02*
G01*
X58577232Y-82889067D01*
X58577234Y-82889068D01*
X58749288Y-83004031D01*
X58895609Y-83150352D01*
X58932364Y-83205359D01*
X59010573Y-83322408D01*
X59089761Y-83513584D01*
X59130130Y-83716534D01*
X59130130Y-83923466D01*
X59089761Y-84126416D01*
X59010573Y-84317592D01*
X59010572Y-84317594D01*
X58895609Y-84489648D01*
X58749288Y-84635969D01*
X58577234Y-84750932D01*
X58577233Y-84750933D01*
X58577232Y-84750933D01*
X58386056Y-84830121D01*
X58183106Y-84870490D01*
X57976174Y-84870490D01*
X57773224Y-84830121D01*
X57582048Y-84750933D01*
X57582047Y-84750933D01*
X57582046Y-84750932D01*
X57409992Y-84635969D01*
X57263671Y-84489648D01*
X57148708Y-84317594D01*
X57148707Y-84317592D01*
X57069519Y-84126416D01*
X57029150Y-83923466D01*
X57029150Y-83716534D01*
X57069519Y-83513584D01*
X57148707Y-83322408D01*
X57226917Y-83205359D01*
X57263671Y-83150352D01*
X57409992Y-83004031D01*
X57582046Y-82889068D01*
X57582048Y-82889067D01*
X57773224Y-82809879D01*
X57976174Y-82769510D01*
X58183106Y-82769510D01*
X58386056Y-82809879D01*
X58386056Y-82809879D01*
G37*
G36*
X76448228Y-83001703D02*
G01*
X76603100Y-83065853D01*
X76742481Y-83158985D01*
X76861015Y-83277519D01*
X76954147Y-83416900D01*
X77018297Y-83571772D01*
X77051000Y-83736184D01*
X77051000Y-83903816D01*
X77018297Y-84068228D01*
X76954147Y-84223100D01*
X76861015Y-84362481D01*
X76742481Y-84481015D01*
X76603100Y-84574147D01*
X76448228Y-84638297D01*
X76283816Y-84671000D01*
X76116184Y-84671000D01*
X75951772Y-84638297D01*
X75796900Y-84574147D01*
X75657519Y-84481015D01*
X75538985Y-84362481D01*
X75445853Y-84223100D01*
X75381703Y-84068228D01*
X75349000Y-83903816D01*
X75349000Y-83736184D01*
X75381703Y-83571772D01*
X75445853Y-83416900D01*
X75538985Y-83277519D01*
X75657519Y-83158985D01*
X75796900Y-83065853D01*
X75951772Y-83001703D01*
X76116184Y-82969000D01*
X76283816Y-82969000D01*
X76448228Y-83001703D01*
X76448228Y-83001703D01*
G37*
G36*
X86526823Y-82981313D02*
G01*
X86687242Y-83029976D01*
X86754361Y-83065852D01*
X86835078Y-83108996D01*
X86964659Y-83215341D01*
X87071004Y-83344922D01*
X87071005Y-83344924D01*
X87150024Y-83492758D01*
X87198687Y-83653177D01*
X87215117Y-83820000D01*
X87198687Y-83986823D01*
X87150024Y-84147242D01*
X87109477Y-84223100D01*
X87071004Y-84295078D01*
X86964659Y-84424659D01*
X86835078Y-84531004D01*
X86835076Y-84531005D01*
X86687242Y-84610024D01*
X86526823Y-84658687D01*
X86401804Y-84671000D01*
X86318196Y-84671000D01*
X86193177Y-84658687D01*
X86032758Y-84610024D01*
X85884924Y-84531005D01*
X85884922Y-84531004D01*
X85755341Y-84424659D01*
X85648996Y-84295078D01*
X85610523Y-84223100D01*
X85569976Y-84147242D01*
X85521313Y-83986823D01*
X85504883Y-83820000D01*
X85521313Y-83653177D01*
X85569976Y-83492758D01*
X85648995Y-83344924D01*
X85648996Y-83344922D01*
X85755341Y-83215341D01*
X85884922Y-83108996D01*
X85965639Y-83065852D01*
X86032758Y-83029976D01*
X86193177Y-82981313D01*
X86318196Y-82969000D01*
X86401804Y-82969000D01*
X86526823Y-82981313D01*
X86526823Y-82981313D01*
G37*
G36*
X100981000Y-82270109D02*
G01*
X100983402Y-82294495D01*
X100990515Y-82317944D01*
X101002066Y-82339555D01*
X101017611Y-82358497D01*
X101036553Y-82374042D01*
X101058164Y-82385593D01*
X101081613Y-82392706D01*
X101105999Y-82395108D01*
X101130385Y-82392706D01*
X101153834Y-82385593D01*
X101175445Y-82374042D01*
X101194387Y-82358497D01*
X101209932Y-82339555D01*
X101221483Y-82317944D01*
X101253090Y-82241638D01*
X101324335Y-82135012D01*
X101415012Y-82044335D01*
X101453731Y-82018464D01*
X101521636Y-81973091D01*
X101640110Y-81924017D01*
X101765881Y-81899000D01*
X101894119Y-81899000D01*
X102019890Y-81924017D01*
X102138364Y-81973091D01*
X102206269Y-82018464D01*
X102244988Y-82044335D01*
X102335665Y-82135012D01*
X102406910Y-82241638D01*
X102455983Y-82360110D01*
X102466423Y-82412594D01*
X102481000Y-82485882D01*
X102481000Y-82614118D01*
X102455983Y-82739890D01*
X102406909Y-82858364D01*
X102335665Y-82964988D01*
X102244988Y-83055665D01*
X102138364Y-83126909D01*
X102138363Y-83126910D01*
X102138362Y-83126910D01*
X102019890Y-83175983D01*
X101894119Y-83201000D01*
X101765881Y-83201000D01*
X101640110Y-83175983D01*
X101521638Y-83126910D01*
X101521637Y-83126910D01*
X101521636Y-83126909D01*
X101415012Y-83055665D01*
X101324335Y-82964988D01*
X101253091Y-82858364D01*
X101221483Y-82782055D01*
X101209932Y-82760445D01*
X101194387Y-82741503D01*
X101175445Y-82725958D01*
X101153834Y-82714407D01*
X101130385Y-82707294D01*
X101105999Y-82704892D01*
X101081613Y-82707294D01*
X101058164Y-82714407D01*
X101036553Y-82725958D01*
X101017611Y-82741503D01*
X101002066Y-82760445D01*
X100990515Y-82782056D01*
X100983402Y-82805505D01*
X100981000Y-82829891D01*
X100981000Y-83201000D01*
X99679000Y-83201000D01*
X99679000Y-81899000D01*
X100981000Y-81899000D01*
X100981000Y-82270109D01*
X100981000Y-82270109D01*
G37*
G36*
X53306056Y-80904879D02*
G01*
X53483560Y-80978404D01*
X53497234Y-80984068D01*
X53551191Y-81020121D01*
X53669288Y-81099031D01*
X53815609Y-81245352D01*
X53930573Y-81417408D01*
X54009761Y-81608584D01*
X54050130Y-81811534D01*
X54050130Y-82018466D01*
X54009761Y-82221416D01*
X53964581Y-82330490D01*
X53930572Y-82412594D01*
X53815609Y-82584648D01*
X53669288Y-82730969D01*
X53497234Y-82845932D01*
X53497233Y-82845933D01*
X53497232Y-82845933D01*
X53306056Y-82925121D01*
X53103106Y-82965490D01*
X52896174Y-82965490D01*
X52693224Y-82925121D01*
X52502048Y-82845933D01*
X52502047Y-82845933D01*
X52502046Y-82845932D01*
X52329992Y-82730969D01*
X52183671Y-82584648D01*
X52068708Y-82412594D01*
X52034699Y-82330490D01*
X51989519Y-82221416D01*
X51949150Y-82018466D01*
X51949150Y-81811534D01*
X51989519Y-81608584D01*
X52068707Y-81417408D01*
X52183671Y-81245352D01*
X52329992Y-81099031D01*
X52448089Y-81020121D01*
X52502046Y-80984068D01*
X52515720Y-80978404D01*
X52693224Y-80904879D01*
X52896174Y-80864510D01*
X53103106Y-80864510D01*
X53306056Y-80904879D01*
X53306056Y-80904879D01*
G37*
G36*
X110695927Y-79994710D02*
G01*
X110695930Y-79994711D01*
X110695931Y-79994711D01*
X110893949Y-80054779D01*
X111076444Y-80152324D01*
X111117427Y-80185958D01*
X111236403Y-80283597D01*
X111367677Y-80443557D01*
X111465219Y-80626046D01*
X111465221Y-80626050D01*
X111525289Y-80824068D01*
X111525290Y-80824072D01*
X111540490Y-80978399D01*
X111540490Y-81581600D01*
X111525290Y-81735927D01*
X111525289Y-81735930D01*
X111525289Y-81735931D01*
X111465221Y-81933949D01*
X111367677Y-82116443D01*
X111367674Y-82116447D01*
X111236403Y-82276403D01*
X111076443Y-82407677D01*
X110930133Y-82485881D01*
X110893950Y-82505221D01*
X110695932Y-82565289D01*
X110695931Y-82565289D01*
X110695928Y-82565290D01*
X110490000Y-82585572D01*
X110284073Y-82565290D01*
X110284070Y-82565289D01*
X110284069Y-82565289D01*
X110086051Y-82505221D01*
X110049868Y-82485881D01*
X109903558Y-82407677D01*
X109743598Y-82276403D01*
X109612324Y-82116443D01*
X109559646Y-82017890D01*
X109514779Y-81933950D01*
X109454711Y-81735932D01*
X109454711Y-81735931D01*
X109454710Y-81735928D01*
X109439510Y-81581601D01*
X109439510Y-80978400D01*
X109454710Y-80824073D01*
X109454711Y-80824069D01*
X109514779Y-80626051D01*
X109612324Y-80443556D01*
X109646520Y-80401888D01*
X109743597Y-80283597D01*
X109903557Y-80152323D01*
X110086046Y-80054781D01*
X110086047Y-80054781D01*
X110086050Y-80054779D01*
X110284068Y-79994711D01*
X110284069Y-79994711D01*
X110284072Y-79994710D01*
X110490000Y-79974428D01*
X110695927Y-79994710D01*
X110695927Y-79994710D01*
G37*
G36*
X119156288Y-80244710D02*
G01*
X119156291Y-80244711D01*
X119156292Y-80244711D01*
X119354310Y-80304779D01*
X119354313Y-80304781D01*
X119354314Y-80304781D01*
X119536803Y-80402323D01*
X119696763Y-80533597D01*
X119828037Y-80693557D01*
X119900057Y-80828297D01*
X119925581Y-80876050D01*
X119969284Y-81020120D01*
X119985650Y-81074072D01*
X120005932Y-81280000D01*
X119985650Y-81485928D01*
X119985649Y-81485931D01*
X119985649Y-81485932D01*
X119925581Y-81683950D01*
X119925579Y-81683953D01*
X119925579Y-81683954D01*
X119828037Y-81866443D01*
X119696763Y-82026403D01*
X119536803Y-82157677D01*
X119417555Y-82221416D01*
X119354310Y-82255221D01*
X119156292Y-82315289D01*
X119156291Y-82315289D01*
X119156288Y-82315290D01*
X119001961Y-82330490D01*
X117898759Y-82330490D01*
X117744432Y-82315290D01*
X117744429Y-82315289D01*
X117744428Y-82315289D01*
X117546410Y-82255221D01*
X117483165Y-82221416D01*
X117363917Y-82157677D01*
X117203957Y-82026403D01*
X117072683Y-81866443D01*
X116975141Y-81683954D01*
X116975141Y-81683953D01*
X116975139Y-81683950D01*
X116915071Y-81485932D01*
X116915071Y-81485931D01*
X116915070Y-81485928D01*
X116894788Y-81280000D01*
X116915070Y-81074072D01*
X116931436Y-81020120D01*
X116975139Y-80876050D01*
X117000663Y-80828297D01*
X117072683Y-80693557D01*
X117203957Y-80533597D01*
X117363917Y-80402323D01*
X117546406Y-80304781D01*
X117546407Y-80304781D01*
X117546410Y-80304779D01*
X117744428Y-80244711D01*
X117744429Y-80244711D01*
X117744432Y-80244710D01*
X117898759Y-80229510D01*
X119001961Y-80229510D01*
X119156288Y-80244710D01*
X119156288Y-80244710D01*
G37*
G36*
X58386056Y-78999879D02*
G01*
X58577232Y-79079067D01*
X58577234Y-79079068D01*
X58749288Y-79194031D01*
X58895609Y-79340352D01*
X58957575Y-79433090D01*
X59010573Y-79512408D01*
X59089761Y-79703584D01*
X59130130Y-79906534D01*
X59130130Y-80113466D01*
X59089761Y-80316416D01*
X59010573Y-80507592D01*
X59010572Y-80507594D01*
X58895609Y-80679648D01*
X58749288Y-80825969D01*
X58577234Y-80940932D01*
X58577233Y-80940933D01*
X58577232Y-80940933D01*
X58386056Y-81020121D01*
X58183106Y-81060490D01*
X57976174Y-81060490D01*
X57773224Y-81020121D01*
X57582048Y-80940933D01*
X57582047Y-80940933D01*
X57582046Y-80940932D01*
X57409992Y-80825969D01*
X57263671Y-80679648D01*
X57148708Y-80507594D01*
X57148707Y-80507592D01*
X57069519Y-80316416D01*
X57029150Y-80113466D01*
X57029150Y-79906534D01*
X57069519Y-79703584D01*
X57148707Y-79512408D01*
X57201706Y-79433090D01*
X57263671Y-79340352D01*
X57409992Y-79194031D01*
X57582046Y-79079068D01*
X57582048Y-79079067D01*
X57773224Y-78999879D01*
X57976174Y-78959510D01*
X58183106Y-78959510D01*
X58386056Y-78999879D01*
X58386056Y-78999879D01*
G37*
G36*
X82798228Y-79191703D02*
G01*
X82953100Y-79255853D01*
X83092481Y-79348985D01*
X83211015Y-79467519D01*
X83304147Y-79606900D01*
X83368297Y-79761772D01*
X83401000Y-79926184D01*
X83401000Y-80093816D01*
X83368297Y-80258228D01*
X83304147Y-80413100D01*
X83211015Y-80552481D01*
X83092481Y-80671015D01*
X82953100Y-80764147D01*
X82798228Y-80828297D01*
X82633816Y-80861000D01*
X82466184Y-80861000D01*
X82301772Y-80828297D01*
X82146900Y-80764147D01*
X82007519Y-80671015D01*
X81888985Y-80552481D01*
X81795853Y-80413100D01*
X81731703Y-80258228D01*
X81699000Y-80093816D01*
X81699000Y-79926184D01*
X81731703Y-79761772D01*
X81795853Y-79606900D01*
X81888985Y-79467519D01*
X82007519Y-79348985D01*
X82146900Y-79255853D01*
X82301772Y-79191703D01*
X82466184Y-79159000D01*
X82633816Y-79159000D01*
X82798228Y-79191703D01*
X82798228Y-79191703D01*
G37*
G36*
X72556823Y-79171313D02*
G01*
X72717242Y-79219976D01*
X72784361Y-79255852D01*
X72865078Y-79298996D01*
X72994659Y-79405341D01*
X73101004Y-79534922D01*
X73101005Y-79534924D01*
X73180024Y-79682758D01*
X73228687Y-79843177D01*
X73245117Y-80010000D01*
X73228687Y-80176823D01*
X73180024Y-80337242D01*
X73139477Y-80413100D01*
X73101004Y-80485078D01*
X72994659Y-80614659D01*
X72865078Y-80721004D01*
X72865076Y-80721005D01*
X72717242Y-80800024D01*
X72556823Y-80848687D01*
X72431804Y-80861000D01*
X72348196Y-80861000D01*
X72223177Y-80848687D01*
X72062758Y-80800024D01*
X71914924Y-80721005D01*
X71914922Y-80721004D01*
X71785341Y-80614659D01*
X71678996Y-80485078D01*
X71640523Y-80413100D01*
X71599976Y-80337242D01*
X71551313Y-80176823D01*
X71534883Y-80010000D01*
X71551313Y-79843177D01*
X71599976Y-79682758D01*
X71678995Y-79534924D01*
X71678996Y-79534922D01*
X71785341Y-79405341D01*
X71914922Y-79298996D01*
X71995639Y-79255852D01*
X72062758Y-79219976D01*
X72223177Y-79171313D01*
X72348196Y-79159000D01*
X72431804Y-79159000D01*
X72556823Y-79171313D01*
X72556823Y-79171313D01*
G37*
G36*
X65999890Y-79384017D02*
G01*
X66118364Y-79433091D01*
X66224988Y-79504335D01*
X66315665Y-79595012D01*
X66386910Y-79701638D01*
X66418517Y-79777944D01*
X66430068Y-79799555D01*
X66445613Y-79818497D01*
X66464555Y-79834042D01*
X66486166Y-79845593D01*
X66509615Y-79852706D01*
X66534001Y-79855108D01*
X66558387Y-79852706D01*
X66581836Y-79845593D01*
X66603447Y-79834042D01*
X66622389Y-79818497D01*
X66637934Y-79799555D01*
X66649485Y-79777944D01*
X66656598Y-79754495D01*
X66659000Y-79730109D01*
X66659000Y-79359000D01*
X67961000Y-79359000D01*
X67961000Y-80661000D01*
X66659000Y-80661000D01*
X66659000Y-80289891D01*
X66656598Y-80265505D01*
X66649485Y-80242056D01*
X66637934Y-80220445D01*
X66622389Y-80201503D01*
X66603447Y-80185958D01*
X66581836Y-80174407D01*
X66558387Y-80167294D01*
X66534001Y-80164892D01*
X66509615Y-80167294D01*
X66486166Y-80174407D01*
X66464555Y-80185958D01*
X66445613Y-80201503D01*
X66430068Y-80220445D01*
X66418517Y-80242056D01*
X66387716Y-80316417D01*
X66386909Y-80318364D01*
X66315665Y-80424988D01*
X66224988Y-80515665D01*
X66118364Y-80586909D01*
X66118363Y-80586910D01*
X66118362Y-80586910D01*
X65999890Y-80635983D01*
X65874119Y-80661000D01*
X65745881Y-80661000D01*
X65620110Y-80635983D01*
X65501638Y-80586910D01*
X65501637Y-80586910D01*
X65501636Y-80586909D01*
X65395012Y-80515665D01*
X65304335Y-80424988D01*
X65233091Y-80318364D01*
X65232285Y-80316417D01*
X65184017Y-80199890D01*
X65159000Y-80074119D01*
X65159000Y-79945881D01*
X65184017Y-79820110D01*
X65233090Y-79701638D01*
X65304335Y-79595012D01*
X65395012Y-79504335D01*
X65501636Y-79433091D01*
X65620110Y-79384017D01*
X65745881Y-79359000D01*
X65874119Y-79359000D01*
X65999890Y-79384017D01*
X65999890Y-79384017D01*
G37*
G36*
X53306056Y-77094879D02*
G01*
X53497232Y-77174067D01*
X53497234Y-77174068D01*
X53669288Y-77289031D01*
X53815609Y-77435352D01*
X53894764Y-77553815D01*
X53930573Y-77607408D01*
X54009761Y-77798584D01*
X54050130Y-78001534D01*
X54050130Y-78208466D01*
X54009761Y-78411416D01*
X53930573Y-78602592D01*
X53930572Y-78602594D01*
X53815609Y-78774648D01*
X53669288Y-78920969D01*
X53497234Y-79035932D01*
X53497233Y-79035933D01*
X53497232Y-79035933D01*
X53306056Y-79115121D01*
X53103106Y-79155490D01*
X52896174Y-79155490D01*
X52693224Y-79115121D01*
X52502048Y-79035933D01*
X52502047Y-79035933D01*
X52502046Y-79035932D01*
X52329992Y-78920969D01*
X52183671Y-78774648D01*
X52068708Y-78602594D01*
X52068707Y-78602592D01*
X51989519Y-78411416D01*
X51949150Y-78208466D01*
X51949150Y-78001534D01*
X51989519Y-77798584D01*
X52068707Y-77607408D01*
X52104517Y-77553815D01*
X52183671Y-77435352D01*
X52329992Y-77289031D01*
X52502046Y-77174068D01*
X52502048Y-77174067D01*
X52693224Y-77094879D01*
X52896174Y-77054510D01*
X53103106Y-77054510D01*
X53306056Y-77094879D01*
X53306056Y-77094879D01*
G37*
G36*
X105576823Y-76631313D02*
G01*
X105737242Y-76679976D01*
X105869906Y-76750886D01*
X105885078Y-76758996D01*
X106014659Y-76865341D01*
X106121004Y-76994922D01*
X106121005Y-76994924D01*
X106200024Y-77142758D01*
X106248687Y-77303177D01*
X106265117Y-77470000D01*
X106248687Y-77636823D01*
X106200024Y-77797242D01*
X106136283Y-77916492D01*
X106121004Y-77945078D01*
X106014659Y-78074659D01*
X105885078Y-78181004D01*
X105885076Y-78181005D01*
X105737242Y-78260024D01*
X105576823Y-78308687D01*
X105451804Y-78321000D01*
X105368196Y-78321000D01*
X105243177Y-78308687D01*
X105082758Y-78260024D01*
X104934924Y-78181005D01*
X104934922Y-78181004D01*
X104805341Y-78074659D01*
X104698996Y-77945078D01*
X104683717Y-77916492D01*
X104619976Y-77797242D01*
X104571313Y-77636823D01*
X104554883Y-77470000D01*
X104571313Y-77303177D01*
X104619976Y-77142758D01*
X104698995Y-76994924D01*
X104698996Y-76994922D01*
X104805341Y-76865341D01*
X104934922Y-76758996D01*
X104950094Y-76750886D01*
X105082758Y-76679976D01*
X105243177Y-76631313D01*
X105368196Y-76619000D01*
X105451804Y-76619000D01*
X105576823Y-76631313D01*
X105576823Y-76631313D01*
G37*
G36*
X96768228Y-76651703D02*
G01*
X96923100Y-76715853D01*
X97062481Y-76808985D01*
X97181015Y-76927519D01*
X97274147Y-77066900D01*
X97338297Y-77221772D01*
X97371000Y-77386184D01*
X97371000Y-77553816D01*
X97338297Y-77718228D01*
X97274147Y-77873100D01*
X97181015Y-78012481D01*
X97062481Y-78131015D01*
X96923100Y-78224147D01*
X96768228Y-78288297D01*
X96603816Y-78321000D01*
X96436184Y-78321000D01*
X96271772Y-78288297D01*
X96116900Y-78224147D01*
X95977519Y-78131015D01*
X95858985Y-78012481D01*
X95765853Y-77873100D01*
X95701703Y-77718228D01*
X95669000Y-77553816D01*
X95669000Y-77386184D01*
X95701703Y-77221772D01*
X95765853Y-77066900D01*
X95858985Y-76927519D01*
X95977519Y-76808985D01*
X96116900Y-76715853D01*
X96271772Y-76651703D01*
X96436184Y-76619000D01*
X96603816Y-76619000D01*
X96768228Y-76651703D01*
X96768228Y-76651703D01*
G37*
G36*
X92958228Y-76651703D02*
G01*
X93113100Y-76715853D01*
X93252481Y-76808985D01*
X93371015Y-76927519D01*
X93464147Y-77066900D01*
X93528297Y-77221772D01*
X93561000Y-77386184D01*
X93561000Y-77553816D01*
X93528297Y-77718228D01*
X93464147Y-77873100D01*
X93371015Y-78012481D01*
X93252481Y-78131015D01*
X93113100Y-78224147D01*
X92958228Y-78288297D01*
X92793816Y-78321000D01*
X92626184Y-78321000D01*
X92461772Y-78288297D01*
X92306900Y-78224147D01*
X92167519Y-78131015D01*
X92048985Y-78012481D01*
X91955853Y-77873100D01*
X91891703Y-77718228D01*
X91859000Y-77553816D01*
X91859000Y-77386184D01*
X91891703Y-77221772D01*
X91955853Y-77066900D01*
X92048985Y-76927519D01*
X92167519Y-76808985D01*
X92306900Y-76715853D01*
X92461772Y-76651703D01*
X92626184Y-76619000D01*
X92793816Y-76619000D01*
X92958228Y-76651703D01*
X92958228Y-76651703D01*
G37*
G36*
X89012915Y-76677334D02*
G01*
X89121491Y-76710271D01*
X89121494Y-76710272D01*
X89157600Y-76729571D01*
X89221556Y-76763756D01*
X89309264Y-76835736D01*
X89381244Y-76923443D01*
X89415429Y-76987399D01*
X89434728Y-77023505D01*
X89434729Y-77023508D01*
X89467666Y-77132084D01*
X89476000Y-77216702D01*
X89476000Y-77723297D01*
X89467666Y-77807916D01*
X89435252Y-77914767D01*
X89434728Y-77916495D01*
X89424761Y-77935141D01*
X89381244Y-78016557D01*
X89309264Y-78104264D01*
X89221557Y-78176244D01*
X89161277Y-78208464D01*
X89121495Y-78229728D01*
X89121492Y-78229729D01*
X89012916Y-78262666D01*
X88900000Y-78273787D01*
X88787085Y-78262666D01*
X88678509Y-78229729D01*
X88678506Y-78229728D01*
X88638724Y-78208464D01*
X88578444Y-78176244D01*
X88490737Y-78104264D01*
X88418757Y-78016557D01*
X88400426Y-77982263D01*
X88375239Y-77935141D01*
X88361625Y-77914766D01*
X88344298Y-77897439D01*
X88323924Y-77883826D01*
X88301285Y-77874448D01*
X88277252Y-77869668D01*
X88252748Y-77869668D01*
X88228715Y-77874448D01*
X88206076Y-77883826D01*
X88185701Y-77897440D01*
X88168374Y-77914767D01*
X88154761Y-77935141D01*
X88111244Y-78016557D01*
X88039264Y-78104264D01*
X87951557Y-78176244D01*
X87891277Y-78208464D01*
X87851495Y-78229728D01*
X87851492Y-78229729D01*
X87742916Y-78262666D01*
X87630000Y-78273787D01*
X87517085Y-78262666D01*
X87408509Y-78229729D01*
X87408506Y-78229728D01*
X87368724Y-78208464D01*
X87308444Y-78176244D01*
X87220737Y-78104264D01*
X87157622Y-78027359D01*
X87140297Y-78010034D01*
X87119923Y-77996420D01*
X87097284Y-77987043D01*
X87073250Y-77982263D01*
X87048746Y-77982263D01*
X87024713Y-77987044D01*
X87002074Y-77996421D01*
X86981700Y-78010035D01*
X86964373Y-78027362D01*
X86950759Y-78047736D01*
X86941382Y-78070375D01*
X86936000Y-78106660D01*
X86936000Y-78271000D01*
X85784000Y-78271000D01*
X85784000Y-76669000D01*
X86936000Y-76669000D01*
X86936000Y-76833341D01*
X86938402Y-76857727D01*
X86945515Y-76881176D01*
X86957066Y-76902787D01*
X86972611Y-76921729D01*
X86991553Y-76937274D01*
X87013164Y-76948825D01*
X87036613Y-76955938D01*
X87060999Y-76958340D01*
X87085385Y-76955938D01*
X87108834Y-76948825D01*
X87130445Y-76937274D01*
X87149387Y-76921729D01*
X87157608Y-76912657D01*
X87220736Y-76835736D01*
X87308443Y-76763756D01*
X87372399Y-76729571D01*
X87408505Y-76710272D01*
X87408508Y-76710271D01*
X87517084Y-76677334D01*
X87630000Y-76666213D01*
X87742915Y-76677334D01*
X87851491Y-76710271D01*
X87851494Y-76710272D01*
X87887600Y-76729571D01*
X87951556Y-76763756D01*
X88039264Y-76835736D01*
X88111244Y-76923443D01*
X88146832Y-76990025D01*
X88154761Y-77004859D01*
X88168375Y-77025234D01*
X88185702Y-77042561D01*
X88206076Y-77056174D01*
X88228715Y-77065552D01*
X88252748Y-77070332D01*
X88277252Y-77070332D01*
X88301285Y-77065552D01*
X88323924Y-77056174D01*
X88344299Y-77042560D01*
X88361626Y-77025233D01*
X88375239Y-77004860D01*
X88418756Y-76923444D01*
X88490736Y-76835736D01*
X88578443Y-76763756D01*
X88642399Y-76729571D01*
X88678505Y-76710272D01*
X88678508Y-76710271D01*
X88787084Y-76677334D01*
X88900000Y-76666213D01*
X89012915Y-76677334D01*
X89012915Y-76677334D01*
G37*
G36*
X58386056Y-75189879D02*
G01*
X58577232Y-75269067D01*
X58577234Y-75269068D01*
X58749288Y-75384031D01*
X58895609Y-75530352D01*
X58957575Y-75623090D01*
X59010573Y-75702408D01*
X59089761Y-75893584D01*
X59130130Y-76096534D01*
X59130130Y-76303466D01*
X59089761Y-76506416D01*
X59018964Y-76677334D01*
X59010572Y-76697594D01*
X58895609Y-76869648D01*
X58749288Y-77015969D01*
X58577234Y-77130932D01*
X58577233Y-77130933D01*
X58577232Y-77130933D01*
X58386056Y-77210121D01*
X58183106Y-77250490D01*
X57976174Y-77250490D01*
X57773224Y-77210121D01*
X57582048Y-77130933D01*
X57582047Y-77130933D01*
X57582046Y-77130932D01*
X57409992Y-77015969D01*
X57263671Y-76869648D01*
X57148708Y-76697594D01*
X57140316Y-76677334D01*
X57069519Y-76506416D01*
X57029150Y-76303466D01*
X57029150Y-76096534D01*
X57069519Y-75893584D01*
X57148707Y-75702408D01*
X57201706Y-75623090D01*
X57263671Y-75530352D01*
X57409992Y-75384031D01*
X57582046Y-75269068D01*
X57582048Y-75269067D01*
X57773224Y-75189879D01*
X57976174Y-75149510D01*
X58183106Y-75149510D01*
X58386056Y-75189879D01*
X58386056Y-75189879D01*
G37*
G36*
X80258228Y-75381703D02*
G01*
X80413100Y-75445853D01*
X80552481Y-75538985D01*
X80671015Y-75657519D01*
X80764147Y-75796900D01*
X80828297Y-75951772D01*
X80861000Y-76116184D01*
X80861000Y-76283816D01*
X80828297Y-76448228D01*
X80764147Y-76603100D01*
X80671015Y-76742481D01*
X80552481Y-76861015D01*
X80413100Y-76954147D01*
X80258228Y-77018297D01*
X80093816Y-77051000D01*
X79926184Y-77051000D01*
X79761772Y-77018297D01*
X79606900Y-76954147D01*
X79467519Y-76861015D01*
X79348985Y-76742481D01*
X79255853Y-76603100D01*
X79191703Y-76448228D01*
X79159000Y-76283816D01*
X79159000Y-76116184D01*
X79191703Y-75951772D01*
X79255853Y-75796900D01*
X79348985Y-75657519D01*
X79467519Y-75538985D01*
X79606900Y-75445853D01*
X79761772Y-75381703D01*
X79926184Y-75349000D01*
X80093816Y-75349000D01*
X80258228Y-75381703D01*
X80258228Y-75381703D01*
G37*
G36*
X70016823Y-75361313D02*
G01*
X70177242Y-75409976D01*
X70244361Y-75445852D01*
X70325078Y-75488996D01*
X70454659Y-75595341D01*
X70561004Y-75724922D01*
X70561005Y-75724924D01*
X70640024Y-75872758D01*
X70688687Y-76033177D01*
X70705117Y-76200000D01*
X70688687Y-76366823D01*
X70640024Y-76527242D01*
X70599477Y-76603100D01*
X70561004Y-76675078D01*
X70454659Y-76804659D01*
X70325078Y-76911004D01*
X70325076Y-76911005D01*
X70177242Y-76990024D01*
X70016823Y-77038687D01*
X69891804Y-77051000D01*
X69808196Y-77051000D01*
X69683177Y-77038687D01*
X69522758Y-76990024D01*
X69374924Y-76911005D01*
X69374922Y-76911004D01*
X69245341Y-76804659D01*
X69138996Y-76675078D01*
X69100523Y-76603100D01*
X69059976Y-76527242D01*
X69011313Y-76366823D01*
X68994883Y-76200000D01*
X69011313Y-76033177D01*
X69059976Y-75872758D01*
X69138995Y-75724924D01*
X69138996Y-75724922D01*
X69245341Y-75595341D01*
X69374922Y-75488996D01*
X69455639Y-75445852D01*
X69522758Y-75409976D01*
X69683177Y-75361313D01*
X69808196Y-75349000D01*
X69891804Y-75349000D01*
X70016823Y-75361313D01*
X70016823Y-75361313D01*
G37*
G36*
X62189890Y-75574017D02*
G01*
X62308364Y-75623091D01*
X62414988Y-75694335D01*
X62505665Y-75785012D01*
X62576910Y-75891638D01*
X62608517Y-75967944D01*
X62620068Y-75989555D01*
X62635613Y-76008497D01*
X62654555Y-76024042D01*
X62676166Y-76035593D01*
X62699615Y-76042706D01*
X62724001Y-76045108D01*
X62748387Y-76042706D01*
X62771836Y-76035593D01*
X62793447Y-76024042D01*
X62812389Y-76008497D01*
X62827934Y-75989555D01*
X62839485Y-75967944D01*
X62846598Y-75944495D01*
X62849000Y-75920109D01*
X62849000Y-75549000D01*
X64151000Y-75549000D01*
X64151000Y-76851000D01*
X62849000Y-76851000D01*
X62849000Y-76479891D01*
X62846598Y-76455505D01*
X62839485Y-76432056D01*
X62827934Y-76410445D01*
X62812389Y-76391503D01*
X62793447Y-76375958D01*
X62771836Y-76364407D01*
X62748387Y-76357294D01*
X62724001Y-76354892D01*
X62699615Y-76357294D01*
X62676166Y-76364407D01*
X62654555Y-76375958D01*
X62635613Y-76391503D01*
X62620068Y-76410445D01*
X62608517Y-76432056D01*
X62577716Y-76506417D01*
X62576909Y-76508364D01*
X62505665Y-76614988D01*
X62414988Y-76705665D01*
X62308364Y-76776909D01*
X62308363Y-76776910D01*
X62308362Y-76776910D01*
X62189890Y-76825983D01*
X62064119Y-76851000D01*
X61935881Y-76851000D01*
X61810110Y-76825983D01*
X61691638Y-76776910D01*
X61691637Y-76776910D01*
X61691636Y-76776909D01*
X61585012Y-76705665D01*
X61494335Y-76614988D01*
X61423091Y-76508364D01*
X61422285Y-76506417D01*
X61374017Y-76389890D01*
X61349000Y-76264119D01*
X61349000Y-76135881D01*
X61374017Y-76010110D01*
X61423090Y-75891638D01*
X61494335Y-75785012D01*
X61585012Y-75694335D01*
X61691636Y-75623091D01*
X61810110Y-75574017D01*
X61935881Y-75549000D01*
X62064119Y-75549000D01*
X62189890Y-75574017D01*
X62189890Y-75574017D01*
G37*
G36*
X53306056Y-73284879D02*
G01*
X53497232Y-73364067D01*
X53497234Y-73364068D01*
X53551191Y-73400121D01*
X53669288Y-73479031D01*
X53815609Y-73625352D01*
X53930573Y-73797408D01*
X54009761Y-73988584D01*
X54050130Y-74191534D01*
X54050130Y-74398466D01*
X54009761Y-74601416D01*
X53930573Y-74792592D01*
X53930572Y-74792594D01*
X53815609Y-74964648D01*
X53669288Y-75110969D01*
X53497234Y-75225932D01*
X53497233Y-75225933D01*
X53497232Y-75225933D01*
X53306056Y-75305121D01*
X53103106Y-75345490D01*
X52896174Y-75345490D01*
X52693224Y-75305121D01*
X52502048Y-75225933D01*
X52502047Y-75225933D01*
X52502046Y-75225932D01*
X52329992Y-75110969D01*
X52183671Y-74964648D01*
X52068708Y-74792594D01*
X52068707Y-74792592D01*
X51989519Y-74601416D01*
X51949150Y-74398466D01*
X51949150Y-74191534D01*
X51989519Y-73988584D01*
X52068707Y-73797408D01*
X52183671Y-73625352D01*
X52329992Y-73479031D01*
X52448089Y-73400121D01*
X52502046Y-73364068D01*
X52502048Y-73364067D01*
X52693224Y-73284879D01*
X52896174Y-73244510D01*
X53103106Y-73244510D01*
X53306056Y-73284879D01*
X53306056Y-73284879D01*
G37*
G36*
X58386056Y-71379879D02*
G01*
X58577232Y-71459067D01*
X58577234Y-71459068D01*
X58749288Y-71574031D01*
X58895609Y-71720352D01*
X58994816Y-71868825D01*
X59010573Y-71892408D01*
X59089761Y-72083584D01*
X59130130Y-72286534D01*
X59130130Y-72493466D01*
X59089761Y-72696416D01*
X59010573Y-72887592D01*
X59010572Y-72887594D01*
X58895609Y-73059648D01*
X58749288Y-73205969D01*
X58577234Y-73320932D01*
X58577233Y-73320933D01*
X58577232Y-73320933D01*
X58386056Y-73400121D01*
X58183106Y-73440490D01*
X57976174Y-73440490D01*
X57773224Y-73400121D01*
X57582048Y-73320933D01*
X57582047Y-73320933D01*
X57582046Y-73320932D01*
X57409992Y-73205969D01*
X57263671Y-73059648D01*
X57148708Y-72887594D01*
X57148707Y-72887592D01*
X57069519Y-72696416D01*
X57029150Y-72493466D01*
X57029150Y-72286534D01*
X57069519Y-72083584D01*
X57148707Y-71892408D01*
X57164465Y-71868825D01*
X57263671Y-71720352D01*
X57409992Y-71574031D01*
X57582046Y-71459068D01*
X57582048Y-71459067D01*
X57773224Y-71379879D01*
X57976174Y-71339510D01*
X58183106Y-71339510D01*
X58386056Y-71379879D01*
X58386056Y-71379879D01*
G37*
G36*
X103036823Y-71551313D02*
G01*
X103197242Y-71599976D01*
X103264361Y-71635852D01*
X103345078Y-71678996D01*
X103474659Y-71785341D01*
X103581004Y-71914922D01*
X103581005Y-71914924D01*
X103660024Y-72062758D01*
X103708687Y-72223177D01*
X103725117Y-72390000D01*
X103708687Y-72556823D01*
X103660024Y-72717242D01*
X103596283Y-72836492D01*
X103581004Y-72865078D01*
X103474659Y-72994659D01*
X103345078Y-73101004D01*
X103345076Y-73101005D01*
X103197242Y-73180024D01*
X103036823Y-73228687D01*
X102911804Y-73241000D01*
X102828196Y-73241000D01*
X102703177Y-73228687D01*
X102542758Y-73180024D01*
X102394924Y-73101005D01*
X102394922Y-73101004D01*
X102265341Y-72994659D01*
X102158996Y-72865078D01*
X102143717Y-72836492D01*
X102079976Y-72717242D01*
X102031313Y-72556823D01*
X102014883Y-72390000D01*
X102031313Y-72223177D01*
X102079976Y-72062758D01*
X102158995Y-71914924D01*
X102158996Y-71914922D01*
X102265341Y-71785341D01*
X102394922Y-71678996D01*
X102475639Y-71635852D01*
X102542758Y-71599976D01*
X102703177Y-71551313D01*
X102828196Y-71539000D01*
X102911804Y-71539000D01*
X103036823Y-71551313D01*
X103036823Y-71551313D01*
G37*
G36*
X92958228Y-71571703D02*
G01*
X93113100Y-71635853D01*
X93252481Y-71728985D01*
X93371015Y-71847519D01*
X93464147Y-71986900D01*
X93528297Y-72141772D01*
X93561000Y-72306184D01*
X93561000Y-72473816D01*
X93528297Y-72638228D01*
X93464147Y-72793100D01*
X93371015Y-72932481D01*
X93252481Y-73051015D01*
X93113100Y-73144147D01*
X92958228Y-73208297D01*
X92793816Y-73241000D01*
X92626184Y-73241000D01*
X92461772Y-73208297D01*
X92306900Y-73144147D01*
X92167519Y-73051015D01*
X92048985Y-72932481D01*
X91955853Y-72793100D01*
X91891703Y-72638228D01*
X91859000Y-72473816D01*
X91859000Y-72306184D01*
X91891703Y-72141772D01*
X91955853Y-71986900D01*
X92048985Y-71847519D01*
X92167519Y-71728985D01*
X92306900Y-71635853D01*
X92461772Y-71571703D01*
X92626184Y-71539000D01*
X92793816Y-71539000D01*
X92958228Y-71571703D01*
X92958228Y-71571703D01*
G37*
G36*
X82798228Y-71571703D02*
G01*
X82953100Y-71635853D01*
X83092481Y-71728985D01*
X83211015Y-71847519D01*
X83304147Y-71986900D01*
X83368297Y-72141772D01*
X83401000Y-72306184D01*
X83401000Y-72473816D01*
X83368297Y-72638228D01*
X83304147Y-72793100D01*
X83211015Y-72932481D01*
X83092481Y-73051015D01*
X82953100Y-73144147D01*
X82798228Y-73208297D01*
X82633816Y-73241000D01*
X82466184Y-73241000D01*
X82301772Y-73208297D01*
X82146900Y-73144147D01*
X82007519Y-73051015D01*
X81888985Y-72932481D01*
X81795853Y-72793100D01*
X81731703Y-72638228D01*
X81699000Y-72473816D01*
X81699000Y-72306184D01*
X81731703Y-72141772D01*
X81795853Y-71986900D01*
X81888985Y-71847519D01*
X82007519Y-71728985D01*
X82146900Y-71635853D01*
X82301772Y-71571703D01*
X82466184Y-71539000D01*
X82633816Y-71539000D01*
X82798228Y-71571703D01*
X82798228Y-71571703D01*
G37*
G36*
X72556823Y-71551313D02*
G01*
X72717242Y-71599976D01*
X72784361Y-71635852D01*
X72865078Y-71678996D01*
X72994659Y-71785341D01*
X73101004Y-71914922D01*
X73101005Y-71914924D01*
X73180024Y-72062758D01*
X73228687Y-72223177D01*
X73245117Y-72390000D01*
X73228687Y-72556823D01*
X73180024Y-72717242D01*
X73116283Y-72836492D01*
X73101004Y-72865078D01*
X72994659Y-72994659D01*
X72865078Y-73101004D01*
X72865076Y-73101005D01*
X72717242Y-73180024D01*
X72556823Y-73228687D01*
X72431804Y-73241000D01*
X72348196Y-73241000D01*
X72223177Y-73228687D01*
X72062758Y-73180024D01*
X71914924Y-73101005D01*
X71914922Y-73101004D01*
X71785341Y-72994659D01*
X71678996Y-72865078D01*
X71663717Y-72836492D01*
X71599976Y-72717242D01*
X71551313Y-72556823D01*
X71534883Y-72390000D01*
X71551313Y-72223177D01*
X71599976Y-72062758D01*
X71678995Y-71914924D01*
X71678996Y-71914922D01*
X71785341Y-71785341D01*
X71914922Y-71678996D01*
X71995639Y-71635852D01*
X72062758Y-71599976D01*
X72223177Y-71551313D01*
X72348196Y-71539000D01*
X72431804Y-71539000D01*
X72556823Y-71551313D01*
X72556823Y-71551313D01*
G37*
G36*
X89012915Y-71597334D02*
G01*
X89121491Y-71630271D01*
X89121494Y-71630272D01*
X89157600Y-71649571D01*
X89221556Y-71683756D01*
X89309264Y-71755736D01*
X89381244Y-71843443D01*
X89407415Y-71892406D01*
X89434728Y-71943505D01*
X89434729Y-71943508D01*
X89467666Y-72052084D01*
X89476000Y-72136702D01*
X89476000Y-72643297D01*
X89467666Y-72727916D01*
X89435252Y-72834767D01*
X89434728Y-72836495D01*
X89424761Y-72855141D01*
X89381244Y-72936557D01*
X89309264Y-73024264D01*
X89221557Y-73096244D01*
X89157601Y-73130429D01*
X89121495Y-73149728D01*
X89121492Y-73149729D01*
X89012916Y-73182666D01*
X88900000Y-73193787D01*
X88787085Y-73182666D01*
X88678509Y-73149729D01*
X88678506Y-73149728D01*
X88642400Y-73130429D01*
X88578444Y-73096244D01*
X88490737Y-73024264D01*
X88418757Y-72936557D01*
X88392585Y-72887592D01*
X88375239Y-72855141D01*
X88361625Y-72834766D01*
X88344298Y-72817439D01*
X88323924Y-72803826D01*
X88301285Y-72794448D01*
X88277252Y-72789668D01*
X88252748Y-72789668D01*
X88228715Y-72794448D01*
X88206076Y-72803826D01*
X88185701Y-72817440D01*
X88168374Y-72834767D01*
X88154761Y-72855141D01*
X88111244Y-72936557D01*
X88039264Y-73024264D01*
X87951557Y-73096244D01*
X87887601Y-73130429D01*
X87851495Y-73149728D01*
X87851492Y-73149729D01*
X87742916Y-73182666D01*
X87630000Y-73193787D01*
X87517085Y-73182666D01*
X87408509Y-73149729D01*
X87408506Y-73149728D01*
X87372400Y-73130429D01*
X87308444Y-73096244D01*
X87220737Y-73024264D01*
X87157622Y-72947359D01*
X87140297Y-72930034D01*
X87119923Y-72916420D01*
X87097284Y-72907043D01*
X87073250Y-72902263D01*
X87048746Y-72902263D01*
X87024713Y-72907044D01*
X87002074Y-72916421D01*
X86981700Y-72930035D01*
X86964373Y-72947362D01*
X86950759Y-72967736D01*
X86941382Y-72990375D01*
X86936000Y-73026660D01*
X86936000Y-73191000D01*
X85784000Y-73191000D01*
X85784000Y-71589000D01*
X86936000Y-71589000D01*
X86936000Y-71753341D01*
X86938402Y-71777727D01*
X86945515Y-71801176D01*
X86957066Y-71822787D01*
X86972611Y-71841729D01*
X86991553Y-71857274D01*
X87013164Y-71868825D01*
X87036613Y-71875938D01*
X87060999Y-71878340D01*
X87085385Y-71875938D01*
X87108834Y-71868825D01*
X87130445Y-71857274D01*
X87149387Y-71841729D01*
X87157608Y-71832657D01*
X87220736Y-71755736D01*
X87308443Y-71683756D01*
X87372399Y-71649571D01*
X87408505Y-71630272D01*
X87408508Y-71630271D01*
X87517084Y-71597334D01*
X87630000Y-71586213D01*
X87742915Y-71597334D01*
X87851491Y-71630271D01*
X87851494Y-71630272D01*
X87887600Y-71649571D01*
X87951556Y-71683756D01*
X88039264Y-71755736D01*
X88111244Y-71843443D01*
X88149450Y-71914922D01*
X88154761Y-71924859D01*
X88168375Y-71945234D01*
X88185702Y-71962561D01*
X88206076Y-71976174D01*
X88228715Y-71985552D01*
X88252748Y-71990332D01*
X88277252Y-71990332D01*
X88301285Y-71985552D01*
X88323924Y-71976174D01*
X88344299Y-71962560D01*
X88361626Y-71945233D01*
X88375239Y-71924860D01*
X88418756Y-71843444D01*
X88490736Y-71755736D01*
X88578443Y-71683756D01*
X88642399Y-71649571D01*
X88678505Y-71630272D01*
X88678508Y-71630271D01*
X88787084Y-71597334D01*
X88900000Y-71586213D01*
X89012915Y-71597334D01*
X89012915Y-71597334D01*
G37*
G36*
X65946217Y-71753341D02*
G01*
X65999890Y-71764017D01*
X66118364Y-71813091D01*
X66224988Y-71884335D01*
X66315665Y-71975012D01*
X66367164Y-72052085D01*
X66386910Y-72081638D01*
X66418517Y-72157944D01*
X66430068Y-72179555D01*
X66445613Y-72198497D01*
X66464555Y-72214042D01*
X66486166Y-72225593D01*
X66509615Y-72232706D01*
X66534001Y-72235108D01*
X66558387Y-72232706D01*
X66581836Y-72225593D01*
X66603447Y-72214042D01*
X66622389Y-72198497D01*
X66637934Y-72179555D01*
X66649485Y-72157944D01*
X66656598Y-72134495D01*
X66659000Y-72110109D01*
X66659000Y-71739000D01*
X67961000Y-71739000D01*
X67961000Y-73041000D01*
X66659000Y-73041000D01*
X66659000Y-72669891D01*
X66656598Y-72645505D01*
X66649485Y-72622056D01*
X66637934Y-72600445D01*
X66622389Y-72581503D01*
X66603447Y-72565958D01*
X66581836Y-72554407D01*
X66558387Y-72547294D01*
X66534001Y-72544892D01*
X66509615Y-72547294D01*
X66486166Y-72554407D01*
X66464555Y-72565958D01*
X66445613Y-72581503D01*
X66430068Y-72600445D01*
X66418517Y-72622056D01*
X66387716Y-72696417D01*
X66386909Y-72698364D01*
X66315665Y-72804988D01*
X66224988Y-72895665D01*
X66118364Y-72966909D01*
X66118363Y-72966910D01*
X66118362Y-72966910D01*
X65999890Y-73015983D01*
X65874119Y-73041000D01*
X65745881Y-73041000D01*
X65620110Y-73015983D01*
X65501638Y-72966910D01*
X65501637Y-72966910D01*
X65501636Y-72966909D01*
X65395012Y-72895665D01*
X65304335Y-72804988D01*
X65233091Y-72698364D01*
X65232285Y-72696417D01*
X65184017Y-72579890D01*
X65159000Y-72454119D01*
X65159000Y-72325881D01*
X65184017Y-72200110D01*
X65233090Y-72081638D01*
X65252837Y-72052085D01*
X65304335Y-71975012D01*
X65395012Y-71884335D01*
X65501636Y-71813091D01*
X65620110Y-71764017D01*
X65673783Y-71753341D01*
X65745881Y-71739000D01*
X65874119Y-71739000D01*
X65946217Y-71753341D01*
X65946217Y-71753341D01*
G37*
G36*
X53306056Y-69474879D02*
G01*
X53497232Y-69554067D01*
X53497234Y-69554068D01*
X53551191Y-69590121D01*
X53669288Y-69669031D01*
X53815609Y-69815352D01*
X53930573Y-69987408D01*
X54009761Y-70178584D01*
X54050130Y-70381534D01*
X54050130Y-70588466D01*
X54009761Y-70791416D01*
X53930573Y-70982592D01*
X53930572Y-70982594D01*
X53815609Y-71154648D01*
X53669288Y-71300969D01*
X53497234Y-71415932D01*
X53497233Y-71415933D01*
X53497232Y-71415933D01*
X53306056Y-71495121D01*
X53103106Y-71535490D01*
X52896174Y-71535490D01*
X52693224Y-71495121D01*
X52502048Y-71415933D01*
X52502047Y-71415933D01*
X52502046Y-71415932D01*
X52329992Y-71300969D01*
X52183671Y-71154648D01*
X52068708Y-70982594D01*
X52068707Y-70982592D01*
X51989519Y-70791416D01*
X51949150Y-70588466D01*
X51949150Y-70381534D01*
X51989519Y-70178584D01*
X52068707Y-69987408D01*
X52183671Y-69815352D01*
X52329992Y-69669031D01*
X52448089Y-69590121D01*
X52502046Y-69554068D01*
X52502048Y-69554067D01*
X52693224Y-69474879D01*
X52896174Y-69434510D01*
X53103106Y-69434510D01*
X53306056Y-69474879D01*
X53306056Y-69474879D01*
G37*
G36*
X58386056Y-67569879D02*
G01*
X58574448Y-67647914D01*
X58577234Y-67649068D01*
X58749288Y-67764031D01*
X58895609Y-67910352D01*
X58998372Y-68064147D01*
X59010573Y-68082408D01*
X59089761Y-68273584D01*
X59130130Y-68476534D01*
X59130130Y-68683466D01*
X59089761Y-68886416D01*
X59010573Y-69077592D01*
X59010572Y-69077594D01*
X58895609Y-69249648D01*
X58749288Y-69395969D01*
X58577234Y-69510932D01*
X58577233Y-69510933D01*
X58577232Y-69510933D01*
X58386056Y-69590121D01*
X58183106Y-69630490D01*
X57976174Y-69630490D01*
X57773224Y-69590121D01*
X57582048Y-69510933D01*
X57582047Y-69510933D01*
X57582046Y-69510932D01*
X57409992Y-69395969D01*
X57263671Y-69249648D01*
X57148708Y-69077594D01*
X57148707Y-69077592D01*
X57069519Y-68886416D01*
X57029150Y-68683466D01*
X57029150Y-68476534D01*
X57069519Y-68273584D01*
X57148707Y-68082408D01*
X57160909Y-68064147D01*
X57263671Y-67910352D01*
X57409992Y-67764031D01*
X57582046Y-67649068D01*
X57584832Y-67647914D01*
X57773224Y-67569879D01*
X57976174Y-67529510D01*
X58183106Y-67529510D01*
X58386056Y-67569879D01*
X58386056Y-67569879D01*
G37*
G36*
X80258228Y-67761703D02*
G01*
X80413100Y-67825853D01*
X80552481Y-67918985D01*
X80671015Y-68037519D01*
X80764147Y-68176900D01*
X80828297Y-68331772D01*
X80861000Y-68496184D01*
X80861000Y-68663816D01*
X80828297Y-68828228D01*
X80764147Y-68983100D01*
X80671015Y-69122481D01*
X80552481Y-69241015D01*
X80413100Y-69334147D01*
X80258228Y-69398297D01*
X80093816Y-69431000D01*
X79926184Y-69431000D01*
X79761772Y-69398297D01*
X79606900Y-69334147D01*
X79467519Y-69241015D01*
X79348985Y-69122481D01*
X79255853Y-68983100D01*
X79191703Y-68828228D01*
X79159000Y-68663816D01*
X79159000Y-68496184D01*
X79191703Y-68331772D01*
X79255853Y-68176900D01*
X79348985Y-68037519D01*
X79467519Y-67918985D01*
X79606900Y-67825853D01*
X79761772Y-67761703D01*
X79926184Y-67729000D01*
X80093816Y-67729000D01*
X80258228Y-67761703D01*
X80258228Y-67761703D01*
G37*
G36*
X70016823Y-67741313D02*
G01*
X70177242Y-67789976D01*
X70301802Y-67856555D01*
X70325078Y-67868996D01*
X70454659Y-67975341D01*
X70561004Y-68104922D01*
X70561005Y-68104924D01*
X70640024Y-68252758D01*
X70688687Y-68413177D01*
X70705117Y-68580000D01*
X70688687Y-68746823D01*
X70640024Y-68907242D01*
X70599477Y-68983100D01*
X70561004Y-69055078D01*
X70454659Y-69184659D01*
X70325078Y-69291004D01*
X70325076Y-69291005D01*
X70177242Y-69370024D01*
X70016823Y-69418687D01*
X69891804Y-69431000D01*
X69808196Y-69431000D01*
X69683177Y-69418687D01*
X69522758Y-69370024D01*
X69374924Y-69291005D01*
X69374922Y-69291004D01*
X69245341Y-69184659D01*
X69138996Y-69055078D01*
X69100523Y-68983100D01*
X69059976Y-68907242D01*
X69011313Y-68746823D01*
X68994883Y-68580000D01*
X69011313Y-68413177D01*
X69059976Y-68252758D01*
X69138995Y-68104924D01*
X69138996Y-68104922D01*
X69245341Y-67975341D01*
X69374922Y-67868996D01*
X69398198Y-67856555D01*
X69522758Y-67789976D01*
X69683177Y-67741313D01*
X69808196Y-67729000D01*
X69891804Y-67729000D01*
X70016823Y-67741313D01*
X70016823Y-67741313D01*
G37*
G36*
X62189890Y-67954017D02*
G01*
X62230927Y-67971015D01*
X62308364Y-68003091D01*
X62388149Y-68056402D01*
X62414988Y-68074335D01*
X62505665Y-68165012D01*
X62576910Y-68271638D01*
X62608517Y-68347944D01*
X62620068Y-68369555D01*
X62635613Y-68388497D01*
X62654555Y-68404042D01*
X62676166Y-68415593D01*
X62699615Y-68422706D01*
X62724001Y-68425108D01*
X62748387Y-68422706D01*
X62771836Y-68415593D01*
X62793447Y-68404042D01*
X62812389Y-68388497D01*
X62827934Y-68369555D01*
X62839485Y-68347944D01*
X62846598Y-68324495D01*
X62849000Y-68300109D01*
X62849000Y-67929000D01*
X64151000Y-67929000D01*
X64151000Y-69231000D01*
X62849000Y-69231000D01*
X62849000Y-68859891D01*
X62846598Y-68835505D01*
X62839485Y-68812056D01*
X62827934Y-68790445D01*
X62812389Y-68771503D01*
X62793447Y-68755958D01*
X62771836Y-68744407D01*
X62748387Y-68737294D01*
X62724001Y-68734892D01*
X62699615Y-68737294D01*
X62676166Y-68744407D01*
X62654555Y-68755958D01*
X62635613Y-68771503D01*
X62620068Y-68790445D01*
X62608517Y-68812056D01*
X62577716Y-68886417D01*
X62576909Y-68888364D01*
X62505665Y-68994988D01*
X62414988Y-69085665D01*
X62308364Y-69156909D01*
X62308363Y-69156910D01*
X62308362Y-69156910D01*
X62189890Y-69205983D01*
X62064119Y-69231000D01*
X61935881Y-69231000D01*
X61810110Y-69205983D01*
X61691638Y-69156910D01*
X61691637Y-69156910D01*
X61691636Y-69156909D01*
X61585012Y-69085665D01*
X61494335Y-68994988D01*
X61423091Y-68888364D01*
X61422285Y-68886417D01*
X61374017Y-68769890D01*
X61349000Y-68644119D01*
X61349000Y-68515881D01*
X61374017Y-68390110D01*
X61423090Y-68271638D01*
X61494335Y-68165012D01*
X61585012Y-68074335D01*
X61611851Y-68056402D01*
X61691636Y-68003091D01*
X61769074Y-67971015D01*
X61810110Y-67954017D01*
X61935881Y-67929000D01*
X62064119Y-67929000D01*
X62189890Y-67954017D01*
X62189890Y-67954017D01*
G37*
G36*
X110695927Y-66024710D02*
G01*
X110695930Y-66024711D01*
X110695931Y-66024711D01*
X110893949Y-66084779D01*
X111076444Y-66182324D01*
X111118112Y-66216520D01*
X111236403Y-66313597D01*
X111367677Y-66473557D01*
X111461445Y-66648985D01*
X111465221Y-66656050D01*
X111522495Y-66844859D01*
X111525290Y-66854072D01*
X111540490Y-67008399D01*
X111540490Y-67611600D01*
X111525290Y-67765927D01*
X111525289Y-67765930D01*
X111525289Y-67765931D01*
X111465221Y-67963949D01*
X111367677Y-68146443D01*
X111367674Y-68146447D01*
X111236403Y-68306403D01*
X111076443Y-68437677D01*
X110930133Y-68515881D01*
X110893950Y-68535221D01*
X110695932Y-68595289D01*
X110695931Y-68595289D01*
X110695928Y-68595290D01*
X110490000Y-68615572D01*
X110284073Y-68595290D01*
X110284070Y-68595289D01*
X110284069Y-68595289D01*
X110086051Y-68535221D01*
X110049868Y-68515881D01*
X109903558Y-68437677D01*
X109743598Y-68306403D01*
X109612324Y-68146443D01*
X109542731Y-68016244D01*
X109514779Y-67963950D01*
X109454711Y-67765932D01*
X109454711Y-67765931D01*
X109454710Y-67765928D01*
X109439510Y-67611601D01*
X109439510Y-67008400D01*
X109454710Y-66854073D01*
X109454711Y-66854069D01*
X109514779Y-66656051D01*
X109612324Y-66473556D01*
X109646520Y-66431888D01*
X109743597Y-66313597D01*
X109903557Y-66182323D01*
X110086046Y-66084781D01*
X110086047Y-66084781D01*
X110086050Y-66084779D01*
X110284068Y-66024711D01*
X110284069Y-66024711D01*
X110284072Y-66024710D01*
X110490000Y-66004428D01*
X110695927Y-66024710D01*
X110695927Y-66024710D01*
G37*
G36*
X119156288Y-66274710D02*
G01*
X119156291Y-66274711D01*
X119156292Y-66274711D01*
X119354310Y-66334779D01*
X119354313Y-66334781D01*
X119354314Y-66334781D01*
X119536803Y-66432323D01*
X119696763Y-66563597D01*
X119828037Y-66723557D01*
X119913026Y-66882561D01*
X119925581Y-66906050D01*
X119985649Y-67104068D01*
X119985650Y-67104072D01*
X120005932Y-67310000D01*
X119985650Y-67515928D01*
X119985649Y-67515931D01*
X119985649Y-67515932D01*
X119925581Y-67713950D01*
X119925579Y-67713953D01*
X119925579Y-67713954D01*
X119828037Y-67896443D01*
X119696763Y-68056403D01*
X119536803Y-68187677D01*
X119354314Y-68285219D01*
X119354310Y-68285221D01*
X119156292Y-68345289D01*
X119156291Y-68345289D01*
X119156288Y-68345290D01*
X119001961Y-68360490D01*
X117898759Y-68360490D01*
X117744432Y-68345290D01*
X117744429Y-68345289D01*
X117744428Y-68345289D01*
X117546410Y-68285221D01*
X117546406Y-68285219D01*
X117363917Y-68187677D01*
X117203957Y-68056403D01*
X117072683Y-67896443D01*
X116975141Y-67713954D01*
X116975141Y-67713953D01*
X116975139Y-67713950D01*
X116915071Y-67515932D01*
X116915071Y-67515931D01*
X116915070Y-67515928D01*
X116894788Y-67310000D01*
X116915070Y-67104072D01*
X116915071Y-67104068D01*
X116975139Y-66906050D01*
X116987694Y-66882561D01*
X117072683Y-66723557D01*
X117203957Y-66563597D01*
X117363917Y-66432323D01*
X117546406Y-66334781D01*
X117546407Y-66334781D01*
X117546410Y-66334779D01*
X117744428Y-66274711D01*
X117744429Y-66274711D01*
X117744432Y-66274710D01*
X117898759Y-66259510D01*
X119001961Y-66259510D01*
X119156288Y-66274710D01*
X119156288Y-66274710D01*
G37*
G36*
X92958228Y-66491703D02*
G01*
X93113100Y-66555853D01*
X93252481Y-66648985D01*
X93371015Y-66767519D01*
X93464147Y-66906900D01*
X93528297Y-67061772D01*
X93561000Y-67226184D01*
X93561000Y-67393816D01*
X93528297Y-67558228D01*
X93464147Y-67713100D01*
X93371015Y-67852481D01*
X93252481Y-67971015D01*
X93113100Y-68064147D01*
X92958228Y-68128297D01*
X92793816Y-68161000D01*
X92626184Y-68161000D01*
X92461772Y-68128297D01*
X92306900Y-68064147D01*
X92167519Y-67971015D01*
X92048985Y-67852481D01*
X91955853Y-67713100D01*
X91891703Y-67558228D01*
X91859000Y-67393816D01*
X91859000Y-67226184D01*
X91891703Y-67061772D01*
X91955853Y-66906900D01*
X92048985Y-66767519D01*
X92167519Y-66648985D01*
X92306900Y-66555853D01*
X92461772Y-66491703D01*
X92626184Y-66459000D01*
X92793816Y-66459000D01*
X92958228Y-66491703D01*
X92958228Y-66491703D01*
G37*
G36*
X103036823Y-66471313D02*
G01*
X103197242Y-66519976D01*
X103264361Y-66555852D01*
X103345078Y-66598996D01*
X103474659Y-66705341D01*
X103581004Y-66834922D01*
X103581005Y-66834924D01*
X103660024Y-66982758D01*
X103708687Y-67143177D01*
X103725117Y-67310000D01*
X103708687Y-67476823D01*
X103660024Y-67637242D01*
X103596283Y-67756492D01*
X103581004Y-67785078D01*
X103474659Y-67914659D01*
X103345078Y-68021004D01*
X103345076Y-68021005D01*
X103197242Y-68100024D01*
X103036823Y-68148687D01*
X102911804Y-68161000D01*
X102828196Y-68161000D01*
X102703177Y-68148687D01*
X102542758Y-68100024D01*
X102394924Y-68021005D01*
X102394922Y-68021004D01*
X102265341Y-67914659D01*
X102158996Y-67785078D01*
X102143717Y-67756492D01*
X102079976Y-67637242D01*
X102031313Y-67476823D01*
X102014883Y-67310000D01*
X102031313Y-67143177D01*
X102079976Y-66982758D01*
X102158995Y-66834924D01*
X102158996Y-66834922D01*
X102265341Y-66705341D01*
X102394922Y-66598996D01*
X102475639Y-66555852D01*
X102542758Y-66519976D01*
X102703177Y-66471313D01*
X102828196Y-66459000D01*
X102911804Y-66459000D01*
X103036823Y-66471313D01*
X103036823Y-66471313D01*
G37*
G36*
X89012915Y-66517334D02*
G01*
X89121491Y-66550271D01*
X89121494Y-66550272D01*
X89157600Y-66569571D01*
X89221556Y-66603756D01*
X89309264Y-66675736D01*
X89381244Y-66763443D01*
X89415429Y-66827399D01*
X89434728Y-66863505D01*
X89434729Y-66863508D01*
X89467666Y-66972084D01*
X89476000Y-67056702D01*
X89476000Y-67563297D01*
X89467666Y-67647916D01*
X89435252Y-67754767D01*
X89434728Y-67756495D01*
X89424761Y-67775141D01*
X89381244Y-67856557D01*
X89309264Y-67944264D01*
X89221557Y-68016244D01*
X89157601Y-68050429D01*
X89121495Y-68069728D01*
X89121492Y-68069729D01*
X89012916Y-68102666D01*
X88900000Y-68113787D01*
X88787085Y-68102666D01*
X88678509Y-68069729D01*
X88678506Y-68069728D01*
X88642400Y-68050429D01*
X88578444Y-68016244D01*
X88490737Y-67944264D01*
X88418757Y-67856557D01*
X88383168Y-67789975D01*
X88375239Y-67775141D01*
X88361625Y-67754766D01*
X88344298Y-67737439D01*
X88323924Y-67723826D01*
X88301285Y-67714448D01*
X88277252Y-67709668D01*
X88252748Y-67709668D01*
X88228715Y-67714448D01*
X88206076Y-67723826D01*
X88185701Y-67737440D01*
X88168374Y-67754767D01*
X88154761Y-67775141D01*
X88111244Y-67856557D01*
X88039264Y-67944264D01*
X87951557Y-68016244D01*
X87887601Y-68050429D01*
X87851495Y-68069728D01*
X87851492Y-68069729D01*
X87742916Y-68102666D01*
X87630000Y-68113787D01*
X87517085Y-68102666D01*
X87408509Y-68069729D01*
X87408506Y-68069728D01*
X87372400Y-68050429D01*
X87308444Y-68016244D01*
X87220737Y-67944264D01*
X87157622Y-67867359D01*
X87140297Y-67850034D01*
X87119923Y-67836420D01*
X87097284Y-67827043D01*
X87073250Y-67822263D01*
X87048746Y-67822263D01*
X87024713Y-67827044D01*
X87002074Y-67836421D01*
X86981700Y-67850035D01*
X86964373Y-67867362D01*
X86950759Y-67887736D01*
X86941382Y-67910375D01*
X86936000Y-67946660D01*
X86936000Y-68111000D01*
X85784000Y-68111000D01*
X85784000Y-66509000D01*
X86936000Y-66509000D01*
X86936000Y-66673341D01*
X86938402Y-66697727D01*
X86945515Y-66721176D01*
X86957066Y-66742787D01*
X86972611Y-66761729D01*
X86991553Y-66777274D01*
X87013164Y-66788825D01*
X87036613Y-66795938D01*
X87060999Y-66798340D01*
X87085385Y-66795938D01*
X87108834Y-66788825D01*
X87130445Y-66777274D01*
X87149387Y-66761729D01*
X87157608Y-66752657D01*
X87220736Y-66675736D01*
X87308443Y-66603756D01*
X87372399Y-66569571D01*
X87408505Y-66550272D01*
X87408508Y-66550271D01*
X87517084Y-66517334D01*
X87630000Y-66506213D01*
X87742915Y-66517334D01*
X87851491Y-66550271D01*
X87851494Y-66550272D01*
X87887600Y-66569571D01*
X87951556Y-66603756D01*
X88039264Y-66675736D01*
X88111244Y-66763443D01*
X88149450Y-66834922D01*
X88154761Y-66844859D01*
X88168375Y-66865234D01*
X88185702Y-66882561D01*
X88206076Y-66896174D01*
X88228715Y-66905552D01*
X88252748Y-66910332D01*
X88277252Y-66910332D01*
X88301285Y-66905552D01*
X88323924Y-66896174D01*
X88344299Y-66882560D01*
X88361626Y-66865233D01*
X88375239Y-66844860D01*
X88418756Y-66763444D01*
X88490736Y-66675736D01*
X88578443Y-66603756D01*
X88642399Y-66569571D01*
X88678505Y-66550272D01*
X88678508Y-66550271D01*
X88787084Y-66517334D01*
X88900000Y-66506213D01*
X89012915Y-66517334D01*
X89012915Y-66517334D01*
G37*
G36*
X53306056Y-65664879D02*
G01*
X53497232Y-65744067D01*
X53497234Y-65744068D01*
X53669288Y-65859031D01*
X53815609Y-66005352D01*
X53868681Y-66084779D01*
X53930573Y-66177408D01*
X54009761Y-66368584D01*
X54050130Y-66571534D01*
X54050130Y-66778466D01*
X54009761Y-66981416D01*
X53958955Y-67104072D01*
X53930572Y-67172594D01*
X53815609Y-67344648D01*
X53669288Y-67490969D01*
X53497234Y-67605932D01*
X53497233Y-67605933D01*
X53497232Y-67605933D01*
X53306056Y-67685121D01*
X53103106Y-67725490D01*
X52896174Y-67725490D01*
X52693224Y-67685121D01*
X52502048Y-67605933D01*
X52502047Y-67605933D01*
X52502046Y-67605932D01*
X52329992Y-67490969D01*
X52183671Y-67344648D01*
X52068708Y-67172594D01*
X52040325Y-67104072D01*
X51989519Y-66981416D01*
X51949150Y-66778466D01*
X51949150Y-66571534D01*
X51989519Y-66368584D01*
X52068707Y-66177408D01*
X52130600Y-66084779D01*
X52183671Y-66005352D01*
X52329992Y-65859031D01*
X52502046Y-65744068D01*
X52502048Y-65744067D01*
X52693224Y-65664879D01*
X52896174Y-65624510D01*
X53103106Y-65624510D01*
X53306056Y-65664879D01*
X53306056Y-65664879D01*
G37*
G36*
X58386056Y-63759879D02*
G01*
X58577232Y-63839067D01*
X58577234Y-63839068D01*
X58749288Y-63954031D01*
X58895609Y-64100352D01*
X58957575Y-64193090D01*
X59010573Y-64272408D01*
X59089761Y-64463584D01*
X59130130Y-64666534D01*
X59130130Y-64873466D01*
X59089761Y-65076416D01*
X59010573Y-65267592D01*
X59010572Y-65267594D01*
X58895609Y-65439648D01*
X58749288Y-65585969D01*
X58577234Y-65700932D01*
X58577233Y-65700933D01*
X58577232Y-65700933D01*
X58386056Y-65780121D01*
X58183106Y-65820490D01*
X57976174Y-65820490D01*
X57773224Y-65780121D01*
X57582048Y-65700933D01*
X57582047Y-65700933D01*
X57582046Y-65700932D01*
X57409992Y-65585969D01*
X57263671Y-65439648D01*
X57148708Y-65267594D01*
X57148707Y-65267592D01*
X57069519Y-65076416D01*
X57029150Y-64873466D01*
X57029150Y-64666534D01*
X57069519Y-64463584D01*
X57148707Y-64272408D01*
X57201706Y-64193090D01*
X57263671Y-64100352D01*
X57409992Y-63954031D01*
X57582046Y-63839068D01*
X57582048Y-63839067D01*
X57773224Y-63759879D01*
X57976174Y-63719510D01*
X58183106Y-63719510D01*
X58386056Y-63759879D01*
X58386056Y-63759879D01*
G37*
G36*
X82798228Y-63951703D02*
G01*
X82953100Y-64015853D01*
X83092481Y-64108985D01*
X83211015Y-64227519D01*
X83304147Y-64366900D01*
X83368297Y-64521772D01*
X83401000Y-64686184D01*
X83401000Y-64853816D01*
X83368297Y-65018228D01*
X83304147Y-65173100D01*
X83211015Y-65312481D01*
X83092481Y-65431015D01*
X82953100Y-65524147D01*
X82798228Y-65588297D01*
X82633816Y-65621000D01*
X82466184Y-65621000D01*
X82301772Y-65588297D01*
X82146900Y-65524147D01*
X82007519Y-65431015D01*
X81888985Y-65312481D01*
X81795853Y-65173100D01*
X81731703Y-65018228D01*
X81699000Y-64853816D01*
X81699000Y-64686184D01*
X81731703Y-64521772D01*
X81795853Y-64366900D01*
X81888985Y-64227519D01*
X82007519Y-64108985D01*
X82146900Y-64015853D01*
X82301772Y-63951703D01*
X82466184Y-63919000D01*
X82633816Y-63919000D01*
X82798228Y-63951703D01*
X82798228Y-63951703D01*
G37*
G36*
X72556823Y-63931313D02*
G01*
X72717242Y-63979976D01*
X72784361Y-64015852D01*
X72865078Y-64058996D01*
X72994659Y-64165341D01*
X73101004Y-64294922D01*
X73101005Y-64294924D01*
X73180024Y-64442758D01*
X73228687Y-64603177D01*
X73245117Y-64770000D01*
X73228687Y-64936823D01*
X73180024Y-65097242D01*
X73139477Y-65173100D01*
X73101004Y-65245078D01*
X72994659Y-65374659D01*
X72865078Y-65481004D01*
X72865076Y-65481005D01*
X72717242Y-65560024D01*
X72556823Y-65608687D01*
X72431804Y-65621000D01*
X72348196Y-65621000D01*
X72223177Y-65608687D01*
X72062758Y-65560024D01*
X71914924Y-65481005D01*
X71914922Y-65481004D01*
X71785341Y-65374659D01*
X71678996Y-65245078D01*
X71640523Y-65173100D01*
X71599976Y-65097242D01*
X71551313Y-64936823D01*
X71534883Y-64770000D01*
X71551313Y-64603177D01*
X71599976Y-64442758D01*
X71678995Y-64294924D01*
X71678996Y-64294922D01*
X71785341Y-64165341D01*
X71914922Y-64058996D01*
X71995639Y-64015852D01*
X72062758Y-63979976D01*
X72223177Y-63931313D01*
X72348196Y-63919000D01*
X72431804Y-63919000D01*
X72556823Y-63931313D01*
X72556823Y-63931313D01*
G37*
G36*
X65999890Y-64144017D02*
G01*
X66118364Y-64193091D01*
X66224988Y-64264335D01*
X66315665Y-64355012D01*
X66386910Y-64461638D01*
X66418517Y-64537944D01*
X66430068Y-64559555D01*
X66445613Y-64578497D01*
X66464555Y-64594042D01*
X66486166Y-64605593D01*
X66509615Y-64612706D01*
X66534001Y-64615108D01*
X66558387Y-64612706D01*
X66581836Y-64605593D01*
X66603447Y-64594042D01*
X66622389Y-64578497D01*
X66637934Y-64559555D01*
X66649485Y-64537944D01*
X66656598Y-64514495D01*
X66659000Y-64490109D01*
X66659000Y-64119000D01*
X67961000Y-64119000D01*
X67961000Y-65421000D01*
X66659000Y-65421000D01*
X66659000Y-65049891D01*
X66656598Y-65025505D01*
X66649485Y-65002056D01*
X66637934Y-64980445D01*
X66622389Y-64961503D01*
X66603447Y-64945958D01*
X66581836Y-64934407D01*
X66558387Y-64927294D01*
X66534001Y-64924892D01*
X66509615Y-64927294D01*
X66486166Y-64934407D01*
X66464555Y-64945958D01*
X66445613Y-64961503D01*
X66430068Y-64980445D01*
X66418517Y-65002056D01*
X66387716Y-65076417D01*
X66386909Y-65078364D01*
X66315665Y-65184988D01*
X66224988Y-65275665D01*
X66118364Y-65346909D01*
X66118363Y-65346910D01*
X66118362Y-65346910D01*
X65999890Y-65395983D01*
X65874119Y-65421000D01*
X65745881Y-65421000D01*
X65620110Y-65395983D01*
X65501638Y-65346910D01*
X65501637Y-65346910D01*
X65501636Y-65346909D01*
X65395012Y-65275665D01*
X65304335Y-65184988D01*
X65233091Y-65078364D01*
X65232285Y-65076417D01*
X65184017Y-64959890D01*
X65159000Y-64834119D01*
X65159000Y-64705881D01*
X65184017Y-64580110D01*
X65233090Y-64461638D01*
X65304335Y-64355012D01*
X65395012Y-64264335D01*
X65501636Y-64193091D01*
X65620110Y-64144017D01*
X65745881Y-64119000D01*
X65874119Y-64119000D01*
X65999890Y-64144017D01*
X65999890Y-64144017D01*
G37*
G36*
X53306056Y-61854879D02*
G01*
X53497232Y-61934067D01*
X53497234Y-61934068D01*
X53669288Y-62049031D01*
X53815609Y-62195352D01*
X53894764Y-62313815D01*
X53930573Y-62367408D01*
X54009761Y-62558584D01*
X54050130Y-62761534D01*
X54050130Y-62968466D01*
X54009761Y-63171416D01*
X53930573Y-63362592D01*
X53930572Y-63362594D01*
X53815609Y-63534648D01*
X53669288Y-63680969D01*
X53497234Y-63795932D01*
X53497233Y-63795933D01*
X53497232Y-63795933D01*
X53306056Y-63875121D01*
X53103106Y-63915490D01*
X52896174Y-63915490D01*
X52693224Y-63875121D01*
X52502048Y-63795933D01*
X52502047Y-63795933D01*
X52502046Y-63795932D01*
X52329992Y-63680969D01*
X52183671Y-63534648D01*
X52068708Y-63362594D01*
X52068707Y-63362592D01*
X51989519Y-63171416D01*
X51949150Y-62968466D01*
X51949150Y-62761534D01*
X51989519Y-62558584D01*
X52068707Y-62367408D01*
X52104517Y-62313815D01*
X52183671Y-62195352D01*
X52329992Y-62049031D01*
X52502046Y-61934068D01*
X52502048Y-61934067D01*
X52693224Y-61854879D01*
X52896174Y-61814510D01*
X53103106Y-61814510D01*
X53306056Y-61854879D01*
X53306056Y-61854879D01*
G37*
G36*
X105658228Y-61411703D02*
G01*
X105813100Y-61475853D01*
X105952481Y-61568985D01*
X106071015Y-61687519D01*
X106164147Y-61826900D01*
X106228297Y-61981772D01*
X106261000Y-62146184D01*
X106261000Y-62313816D01*
X106228297Y-62478228D01*
X106164147Y-62633100D01*
X106071015Y-62772481D01*
X105952481Y-62891015D01*
X105813100Y-62984147D01*
X105658228Y-63048297D01*
X105493816Y-63081000D01*
X105326184Y-63081000D01*
X105161772Y-63048297D01*
X105006900Y-62984147D01*
X104867519Y-62891015D01*
X104748985Y-62772481D01*
X104655853Y-62633100D01*
X104591703Y-62478228D01*
X104559000Y-62313816D01*
X104559000Y-62146184D01*
X104591703Y-61981772D01*
X104655853Y-61826900D01*
X104748985Y-61687519D01*
X104867519Y-61568985D01*
X105006900Y-61475853D01*
X105161772Y-61411703D01*
X105326184Y-61379000D01*
X105493816Y-61379000D01*
X105658228Y-61411703D01*
X105658228Y-61411703D01*
G37*
G36*
X96768228Y-61411703D02*
G01*
X96923100Y-61475853D01*
X97062481Y-61568985D01*
X97181015Y-61687519D01*
X97274147Y-61826900D01*
X97338297Y-61981772D01*
X97371000Y-62146184D01*
X97371000Y-62313816D01*
X97338297Y-62478228D01*
X97274147Y-62633100D01*
X97181015Y-62772481D01*
X97062481Y-62891015D01*
X96923100Y-62984147D01*
X96768228Y-63048297D01*
X96603816Y-63081000D01*
X96436184Y-63081000D01*
X96271772Y-63048297D01*
X96116900Y-62984147D01*
X95977519Y-62891015D01*
X95858985Y-62772481D01*
X95765853Y-62633100D01*
X95701703Y-62478228D01*
X95669000Y-62313816D01*
X95669000Y-62146184D01*
X95701703Y-61981772D01*
X95765853Y-61826900D01*
X95858985Y-61687519D01*
X95977519Y-61568985D01*
X96116900Y-61475853D01*
X96271772Y-61411703D01*
X96436184Y-61379000D01*
X96603816Y-61379000D01*
X96768228Y-61411703D01*
X96768228Y-61411703D01*
G37*
G36*
X92958228Y-61411703D02*
G01*
X93113100Y-61475853D01*
X93252481Y-61568985D01*
X93371015Y-61687519D01*
X93464147Y-61826900D01*
X93528297Y-61981772D01*
X93561000Y-62146184D01*
X93561000Y-62313816D01*
X93528297Y-62478228D01*
X93464147Y-62633100D01*
X93371015Y-62772481D01*
X93252481Y-62891015D01*
X93113100Y-62984147D01*
X92958228Y-63048297D01*
X92793816Y-63081000D01*
X92626184Y-63081000D01*
X92461772Y-63048297D01*
X92306900Y-62984147D01*
X92167519Y-62891015D01*
X92048985Y-62772481D01*
X91955853Y-62633100D01*
X91891703Y-62478228D01*
X91859000Y-62313816D01*
X91859000Y-62146184D01*
X91891703Y-61981772D01*
X91955853Y-61826900D01*
X92048985Y-61687519D01*
X92167519Y-61568985D01*
X92306900Y-61475853D01*
X92461772Y-61411703D01*
X92626184Y-61379000D01*
X92793816Y-61379000D01*
X92958228Y-61411703D01*
X92958228Y-61411703D01*
G37*
G36*
X89012915Y-61437334D02*
G01*
X89121491Y-61470271D01*
X89121494Y-61470272D01*
X89157600Y-61489571D01*
X89221556Y-61523756D01*
X89309264Y-61595736D01*
X89381244Y-61683443D01*
X89415429Y-61747399D01*
X89434728Y-61783505D01*
X89434729Y-61783508D01*
X89467666Y-61892084D01*
X89476000Y-61976702D01*
X89476000Y-62483297D01*
X89467666Y-62567916D01*
X89435252Y-62674767D01*
X89434728Y-62676495D01*
X89424761Y-62695141D01*
X89381244Y-62776557D01*
X89309264Y-62864264D01*
X89221557Y-62936244D01*
X89161277Y-62968464D01*
X89121495Y-62989728D01*
X89121492Y-62989729D01*
X89012916Y-63022666D01*
X88900000Y-63033787D01*
X88787085Y-63022666D01*
X88678509Y-62989729D01*
X88678506Y-62989728D01*
X88638724Y-62968464D01*
X88578444Y-62936244D01*
X88490737Y-62864264D01*
X88418757Y-62776557D01*
X88375239Y-62695141D01*
X88361625Y-62674766D01*
X88344298Y-62657439D01*
X88323924Y-62643826D01*
X88301285Y-62634448D01*
X88277252Y-62629668D01*
X88252748Y-62629668D01*
X88228715Y-62634448D01*
X88206076Y-62643826D01*
X88185701Y-62657440D01*
X88168374Y-62674767D01*
X88154761Y-62695141D01*
X88111244Y-62776557D01*
X88039264Y-62864264D01*
X87951557Y-62936244D01*
X87891277Y-62968464D01*
X87851495Y-62989728D01*
X87851492Y-62989729D01*
X87742916Y-63022666D01*
X87630000Y-63033787D01*
X87517085Y-63022666D01*
X87408509Y-62989729D01*
X87408506Y-62989728D01*
X87368724Y-62968464D01*
X87308444Y-62936244D01*
X87220737Y-62864264D01*
X87157622Y-62787359D01*
X87140297Y-62770034D01*
X87119923Y-62756420D01*
X87097284Y-62747043D01*
X87073250Y-62742263D01*
X87048746Y-62742263D01*
X87024713Y-62747044D01*
X87002074Y-62756421D01*
X86981700Y-62770035D01*
X86964373Y-62787362D01*
X86950759Y-62807736D01*
X86941382Y-62830375D01*
X86936000Y-62866660D01*
X86936000Y-63031000D01*
X85784000Y-63031000D01*
X85784000Y-61429000D01*
X86936000Y-61429000D01*
X86936000Y-61593341D01*
X86938402Y-61617727D01*
X86945515Y-61641176D01*
X86957066Y-61662787D01*
X86972611Y-61681729D01*
X86991553Y-61697274D01*
X87013164Y-61708825D01*
X87036613Y-61715938D01*
X87060999Y-61718340D01*
X87085385Y-61715938D01*
X87108834Y-61708825D01*
X87130445Y-61697274D01*
X87149387Y-61681729D01*
X87157608Y-61672657D01*
X87220736Y-61595736D01*
X87308443Y-61523756D01*
X87372399Y-61489571D01*
X87408505Y-61470272D01*
X87408508Y-61470271D01*
X87517084Y-61437334D01*
X87630000Y-61426213D01*
X87742915Y-61437334D01*
X87851491Y-61470271D01*
X87851494Y-61470272D01*
X87887600Y-61489571D01*
X87951556Y-61523756D01*
X88039264Y-61595736D01*
X88111244Y-61683443D01*
X88146832Y-61750025D01*
X88154761Y-61764859D01*
X88168375Y-61785234D01*
X88185702Y-61802561D01*
X88206076Y-61816174D01*
X88228715Y-61825552D01*
X88252748Y-61830332D01*
X88277252Y-61830332D01*
X88301285Y-61825552D01*
X88323924Y-61816174D01*
X88344299Y-61802560D01*
X88361626Y-61785233D01*
X88375239Y-61764860D01*
X88418756Y-61683444D01*
X88490736Y-61595736D01*
X88578443Y-61523756D01*
X88642399Y-61489571D01*
X88678505Y-61470272D01*
X88678508Y-61470271D01*
X88787084Y-61437334D01*
X88900000Y-61426213D01*
X89012915Y-61437334D01*
X89012915Y-61437334D01*
G37*
G36*
X58386056Y-59949879D02*
G01*
X58577232Y-60029067D01*
X58577234Y-60029068D01*
X58749288Y-60144031D01*
X58895609Y-60290352D01*
X58957575Y-60383090D01*
X59010573Y-60462408D01*
X59089761Y-60653584D01*
X59130130Y-60856534D01*
X59130130Y-61063466D01*
X59089761Y-61266416D01*
X59018964Y-61437334D01*
X59010572Y-61457594D01*
X58895609Y-61629648D01*
X58749288Y-61775969D01*
X58577234Y-61890932D01*
X58577233Y-61890933D01*
X58577232Y-61890933D01*
X58386056Y-61970121D01*
X58183106Y-62010490D01*
X57976174Y-62010490D01*
X57773224Y-61970121D01*
X57582048Y-61890933D01*
X57582047Y-61890933D01*
X57582046Y-61890932D01*
X57409992Y-61775969D01*
X57263671Y-61629648D01*
X57148708Y-61457594D01*
X57140316Y-61437334D01*
X57069519Y-61266416D01*
X57029150Y-61063466D01*
X57029150Y-60856534D01*
X57069519Y-60653584D01*
X57148707Y-60462408D01*
X57201706Y-60383090D01*
X57263671Y-60290352D01*
X57409992Y-60144031D01*
X57582046Y-60029068D01*
X57582048Y-60029067D01*
X57773224Y-59949879D01*
X57976174Y-59909510D01*
X58183106Y-59909510D01*
X58386056Y-59949879D01*
X58386056Y-59949879D01*
G37*
G36*
X80258228Y-60141703D02*
G01*
X80413100Y-60205853D01*
X80552481Y-60298985D01*
X80671015Y-60417519D01*
X80764147Y-60556900D01*
X80828297Y-60711772D01*
X80861000Y-60876184D01*
X80861000Y-61043816D01*
X80828297Y-61208228D01*
X80764147Y-61363100D01*
X80671015Y-61502481D01*
X80552481Y-61621015D01*
X80413100Y-61714147D01*
X80258228Y-61778297D01*
X80093816Y-61811000D01*
X79926184Y-61811000D01*
X79761772Y-61778297D01*
X79606900Y-61714147D01*
X79467519Y-61621015D01*
X79348985Y-61502481D01*
X79255853Y-61363100D01*
X79191703Y-61208228D01*
X79159000Y-61043816D01*
X79159000Y-60876184D01*
X79191703Y-60711772D01*
X79255853Y-60556900D01*
X79348985Y-60417519D01*
X79467519Y-60298985D01*
X79606900Y-60205853D01*
X79761772Y-60141703D01*
X79926184Y-60109000D01*
X80093816Y-60109000D01*
X80258228Y-60141703D01*
X80258228Y-60141703D01*
G37*
G36*
X70016823Y-60121313D02*
G01*
X70177242Y-60169976D01*
X70244361Y-60205852D01*
X70325078Y-60248996D01*
X70454659Y-60355341D01*
X70561004Y-60484922D01*
X70561005Y-60484924D01*
X70640024Y-60632758D01*
X70688687Y-60793177D01*
X70705117Y-60960000D01*
X70688687Y-61126823D01*
X70640024Y-61287242D01*
X70599477Y-61363100D01*
X70561004Y-61435078D01*
X70454659Y-61564659D01*
X70325078Y-61671004D01*
X70325076Y-61671005D01*
X70177242Y-61750024D01*
X70016823Y-61798687D01*
X69891804Y-61811000D01*
X69808196Y-61811000D01*
X69683177Y-61798687D01*
X69522758Y-61750024D01*
X69374924Y-61671005D01*
X69374922Y-61671004D01*
X69245341Y-61564659D01*
X69138996Y-61435078D01*
X69100523Y-61363100D01*
X69059976Y-61287242D01*
X69011313Y-61126823D01*
X68994883Y-60960000D01*
X69011313Y-60793177D01*
X69059976Y-60632758D01*
X69138995Y-60484924D01*
X69138996Y-60484922D01*
X69245341Y-60355341D01*
X69374922Y-60248996D01*
X69455639Y-60205852D01*
X69522758Y-60169976D01*
X69683177Y-60121313D01*
X69808196Y-60109000D01*
X69891804Y-60109000D01*
X70016823Y-60121313D01*
X70016823Y-60121313D01*
G37*
G36*
X62189890Y-60334017D02*
G01*
X62308364Y-60383091D01*
X62414988Y-60454335D01*
X62505665Y-60545012D01*
X62576910Y-60651638D01*
X62608517Y-60727944D01*
X62620068Y-60749555D01*
X62635613Y-60768497D01*
X62654555Y-60784042D01*
X62676166Y-60795593D01*
X62699615Y-60802706D01*
X62724001Y-60805108D01*
X62748387Y-60802706D01*
X62771836Y-60795593D01*
X62793447Y-60784042D01*
X62812389Y-60768497D01*
X62827934Y-60749555D01*
X62839485Y-60727944D01*
X62846598Y-60704495D01*
X62849000Y-60680109D01*
X62849000Y-60309000D01*
X64151000Y-60309000D01*
X64151000Y-61611000D01*
X62849000Y-61611000D01*
X62849000Y-61239891D01*
X62846598Y-61215505D01*
X62839485Y-61192056D01*
X62827934Y-61170445D01*
X62812389Y-61151503D01*
X62793447Y-61135958D01*
X62771836Y-61124407D01*
X62748387Y-61117294D01*
X62724001Y-61114892D01*
X62699615Y-61117294D01*
X62676166Y-61124407D01*
X62654555Y-61135958D01*
X62635613Y-61151503D01*
X62620068Y-61170445D01*
X62608517Y-61192056D01*
X62577716Y-61266417D01*
X62576909Y-61268364D01*
X62505665Y-61374988D01*
X62414988Y-61465665D01*
X62308364Y-61536909D01*
X62308363Y-61536910D01*
X62308362Y-61536910D01*
X62189890Y-61585983D01*
X62064119Y-61611000D01*
X61935881Y-61611000D01*
X61810110Y-61585983D01*
X61691638Y-61536910D01*
X61691637Y-61536910D01*
X61691636Y-61536909D01*
X61585012Y-61465665D01*
X61494335Y-61374988D01*
X61423091Y-61268364D01*
X61422285Y-61266417D01*
X61374017Y-61149890D01*
X61349000Y-61024119D01*
X61349000Y-60895881D01*
X61374017Y-60770110D01*
X61423090Y-60651638D01*
X61494335Y-60545012D01*
X61585012Y-60454335D01*
X61691636Y-60383091D01*
X61810110Y-60334017D01*
X61935881Y-60309000D01*
X62064119Y-60309000D01*
X62189890Y-60334017D01*
X62189890Y-60334017D01*
G37*
G36*
X53306056Y-58044879D02*
G01*
X53497232Y-58124067D01*
X53497234Y-58124068D01*
X53551191Y-58160121D01*
X53669288Y-58239031D01*
X53815609Y-58385352D01*
X53930573Y-58557408D01*
X54009761Y-58748584D01*
X54050130Y-58951534D01*
X54050130Y-59158466D01*
X54009761Y-59361416D01*
X53930573Y-59552592D01*
X53930572Y-59552594D01*
X53815609Y-59724648D01*
X53669288Y-59870969D01*
X53497234Y-59985932D01*
X53497233Y-59985933D01*
X53497232Y-59985933D01*
X53306056Y-60065121D01*
X53103106Y-60105490D01*
X52896174Y-60105490D01*
X52693224Y-60065121D01*
X52502048Y-59985933D01*
X52502047Y-59985933D01*
X52502046Y-59985932D01*
X52329992Y-59870969D01*
X52183671Y-59724648D01*
X52068708Y-59552594D01*
X52068707Y-59552592D01*
X51989519Y-59361416D01*
X51949150Y-59158466D01*
X51949150Y-58951534D01*
X51989519Y-58748584D01*
X52068707Y-58557408D01*
X52183671Y-58385352D01*
X52329992Y-58239031D01*
X52448089Y-58160121D01*
X52502046Y-58124068D01*
X52502048Y-58124067D01*
X52693224Y-58044879D01*
X52896174Y-58004510D01*
X53103106Y-58004510D01*
X53306056Y-58044879D01*
X53306056Y-58044879D01*
G37*
G36*
X58386056Y-56139879D02*
G01*
X58577232Y-56219067D01*
X58577234Y-56219068D01*
X58749288Y-56334031D01*
X58895609Y-56480352D01*
X58957575Y-56573090D01*
X59010573Y-56652408D01*
X59089761Y-56843584D01*
X59130130Y-57046534D01*
X59130130Y-57253466D01*
X59089761Y-57456416D01*
X59010573Y-57647592D01*
X59010572Y-57647594D01*
X58895609Y-57819648D01*
X58749288Y-57965969D01*
X58577234Y-58080932D01*
X58577233Y-58080933D01*
X58577232Y-58080933D01*
X58386056Y-58160121D01*
X58183106Y-58200490D01*
X57976174Y-58200490D01*
X57773224Y-58160121D01*
X57582048Y-58080933D01*
X57582047Y-58080933D01*
X57582046Y-58080932D01*
X57409992Y-57965969D01*
X57263671Y-57819648D01*
X57148708Y-57647594D01*
X57148707Y-57647592D01*
X57069519Y-57456416D01*
X57029150Y-57253466D01*
X57029150Y-57046534D01*
X57069519Y-56843584D01*
X57148707Y-56652408D01*
X57201706Y-56573090D01*
X57263671Y-56480352D01*
X57409992Y-56334031D01*
X57582046Y-56219068D01*
X57582048Y-56219067D01*
X57773224Y-56139879D01*
X57976174Y-56099510D01*
X58183106Y-56099510D01*
X58386056Y-56139879D01*
X58386056Y-56139879D01*
G37*
G36*
X76448228Y-56331703D02*
G01*
X76603100Y-56395853D01*
X76742481Y-56488985D01*
X76861015Y-56607519D01*
X76954147Y-56746900D01*
X77018297Y-56901772D01*
X77051000Y-57066184D01*
X77051000Y-57233816D01*
X77018297Y-57398228D01*
X76954147Y-57553100D01*
X76861015Y-57692481D01*
X76742481Y-57811015D01*
X76603100Y-57904147D01*
X76448228Y-57968297D01*
X76283816Y-58001000D01*
X76116184Y-58001000D01*
X75951772Y-57968297D01*
X75796900Y-57904147D01*
X75657519Y-57811015D01*
X75538985Y-57692481D01*
X75445853Y-57553100D01*
X75381703Y-57398228D01*
X75349000Y-57233816D01*
X75349000Y-57066184D01*
X75381703Y-56901772D01*
X75445853Y-56746900D01*
X75538985Y-56607519D01*
X75657519Y-56488985D01*
X75796900Y-56395853D01*
X75951772Y-56331703D01*
X76116184Y-56299000D01*
X76283816Y-56299000D01*
X76448228Y-56331703D01*
X76448228Y-56331703D01*
G37*
G36*
X86526823Y-56311313D02*
G01*
X86687242Y-56359976D01*
X86754361Y-56395852D01*
X86835078Y-56438996D01*
X86964659Y-56545341D01*
X87071004Y-56674922D01*
X87071005Y-56674924D01*
X87150024Y-56822758D01*
X87198687Y-56983177D01*
X87215117Y-57150000D01*
X87198687Y-57316823D01*
X87150024Y-57477242D01*
X87109477Y-57553100D01*
X87071004Y-57625078D01*
X86964659Y-57754659D01*
X86835078Y-57861004D01*
X86835076Y-57861005D01*
X86687242Y-57940024D01*
X86526823Y-57988687D01*
X86401804Y-58001000D01*
X86318196Y-58001000D01*
X86193177Y-57988687D01*
X86032758Y-57940024D01*
X85884924Y-57861005D01*
X85884922Y-57861004D01*
X85755341Y-57754659D01*
X85648996Y-57625078D01*
X85610523Y-57553100D01*
X85569976Y-57477242D01*
X85521313Y-57316823D01*
X85504883Y-57150000D01*
X85521313Y-56983177D01*
X85569976Y-56822758D01*
X85648995Y-56674924D01*
X85648996Y-56674922D01*
X85755341Y-56545341D01*
X85884922Y-56438996D01*
X85965639Y-56395852D01*
X86032758Y-56359976D01*
X86193177Y-56311313D01*
X86318196Y-56299000D01*
X86401804Y-56299000D01*
X86526823Y-56311313D01*
X86526823Y-56311313D01*
G37*
G36*
X100981000Y-56870109D02*
G01*
X100983402Y-56894495D01*
X100990515Y-56917944D01*
X101002066Y-56939555D01*
X101017611Y-56958497D01*
X101036553Y-56974042D01*
X101058164Y-56985593D01*
X101081613Y-56992706D01*
X101105999Y-56995108D01*
X101130385Y-56992706D01*
X101153834Y-56985593D01*
X101175445Y-56974042D01*
X101194387Y-56958497D01*
X101209932Y-56939555D01*
X101221483Y-56917944D01*
X101253090Y-56841638D01*
X101324335Y-56735012D01*
X101415012Y-56644335D01*
X101521636Y-56573091D01*
X101640110Y-56524017D01*
X101765881Y-56499000D01*
X101894119Y-56499000D01*
X102019890Y-56524017D01*
X102138364Y-56573091D01*
X102244988Y-56644335D01*
X102335665Y-56735012D01*
X102406910Y-56841638D01*
X102455983Y-56960110D01*
X102481000Y-57085881D01*
X102481000Y-57214119D01*
X102455983Y-57339890D01*
X102407716Y-57456417D01*
X102406909Y-57458364D01*
X102335665Y-57564988D01*
X102244988Y-57655665D01*
X102138364Y-57726909D01*
X102138363Y-57726910D01*
X102138362Y-57726910D01*
X102019890Y-57775983D01*
X101894119Y-57801000D01*
X101765881Y-57801000D01*
X101640110Y-57775983D01*
X101521638Y-57726910D01*
X101521637Y-57726910D01*
X101521636Y-57726909D01*
X101415012Y-57655665D01*
X101324335Y-57564988D01*
X101253091Y-57458364D01*
X101252285Y-57456417D01*
X101221483Y-57382056D01*
X101209932Y-57360445D01*
X101194387Y-57341503D01*
X101175445Y-57325958D01*
X101153834Y-57314407D01*
X101130385Y-57307294D01*
X101105999Y-57304892D01*
X101081613Y-57307294D01*
X101058164Y-57314407D01*
X101036553Y-57325958D01*
X101017611Y-57341503D01*
X101002066Y-57360445D01*
X100990515Y-57382056D01*
X100983402Y-57405505D01*
X100981000Y-57429891D01*
X100981000Y-57801000D01*
X99679000Y-57801000D01*
X99679000Y-56499000D01*
X100981000Y-56499000D01*
X100981000Y-56870109D01*
X100981000Y-56870109D01*
G37*
G36*
X53306056Y-54234879D02*
G01*
X53497232Y-54314067D01*
X53497234Y-54314068D01*
X53669288Y-54429031D01*
X53815609Y-54575352D01*
X53894764Y-54693815D01*
X53930573Y-54747408D01*
X54009761Y-54938584D01*
X54050130Y-55141534D01*
X54050130Y-55348466D01*
X54009761Y-55551416D01*
X53930573Y-55742592D01*
X53930572Y-55742594D01*
X53815609Y-55914648D01*
X53669288Y-56060969D01*
X53497234Y-56175932D01*
X53497233Y-56175933D01*
X53497232Y-56175933D01*
X53306056Y-56255121D01*
X53103106Y-56295490D01*
X52896174Y-56295490D01*
X52693224Y-56255121D01*
X52502048Y-56175933D01*
X52502047Y-56175933D01*
X52502046Y-56175932D01*
X52329992Y-56060969D01*
X52183671Y-55914648D01*
X52068708Y-55742594D01*
X52068707Y-55742592D01*
X51989519Y-55551416D01*
X51949150Y-55348466D01*
X51949150Y-55141534D01*
X51989519Y-54938584D01*
X52068707Y-54747408D01*
X52104517Y-54693815D01*
X52183671Y-54575352D01*
X52329992Y-54429031D01*
X52502046Y-54314068D01*
X52502048Y-54314067D01*
X52693224Y-54234879D01*
X52896174Y-54194510D01*
X53103106Y-54194510D01*
X53306056Y-54234879D01*
X53306056Y-54234879D01*
G37*
G36*
X62478228Y-53791703D02*
G01*
X62633100Y-53855853D01*
X62772481Y-53948985D01*
X62891015Y-54067519D01*
X62984147Y-54206900D01*
X63048297Y-54361772D01*
X63081000Y-54526184D01*
X63081000Y-54693816D01*
X63048297Y-54858228D01*
X62984147Y-55013100D01*
X62891015Y-55152481D01*
X62772481Y-55271015D01*
X62633100Y-55364147D01*
X62478228Y-55428297D01*
X62313816Y-55461000D01*
X62146184Y-55461000D01*
X61981772Y-55428297D01*
X61826900Y-55364147D01*
X61687519Y-55271015D01*
X61568985Y-55152481D01*
X61475853Y-55013100D01*
X61411703Y-54858228D01*
X61379000Y-54693816D01*
X61379000Y-54526184D01*
X61411703Y-54361772D01*
X61475853Y-54206900D01*
X61568985Y-54067519D01*
X61687519Y-53948985D01*
X61826900Y-53855853D01*
X61981772Y-53791703D01*
X62146184Y-53759000D01*
X62313816Y-53759000D01*
X62478228Y-53791703D01*
X62478228Y-53791703D01*
G37*
G36*
X72556823Y-53771313D02*
G01*
X72717242Y-53819976D01*
X72784361Y-53855852D01*
X72865078Y-53898996D01*
X72994659Y-54005341D01*
X73101004Y-54134922D01*
X73101005Y-54134924D01*
X73180024Y-54282758D01*
X73228687Y-54443177D01*
X73245117Y-54610000D01*
X73228687Y-54776823D01*
X73180024Y-54937242D01*
X73139477Y-55013100D01*
X73101004Y-55085078D01*
X72994659Y-55214659D01*
X72865078Y-55321004D01*
X72865076Y-55321005D01*
X72717242Y-55400024D01*
X72556823Y-55448687D01*
X72431804Y-55461000D01*
X72348196Y-55461000D01*
X72223177Y-55448687D01*
X72062758Y-55400024D01*
X71914924Y-55321005D01*
X71914922Y-55321004D01*
X71785341Y-55214659D01*
X71678996Y-55085078D01*
X71640523Y-55013100D01*
X71599976Y-54937242D01*
X71551313Y-54776823D01*
X71534883Y-54610000D01*
X71551313Y-54443177D01*
X71599976Y-54282758D01*
X71678995Y-54134924D01*
X71678996Y-54134922D01*
X71785341Y-54005341D01*
X71914922Y-53898996D01*
X71995639Y-53855852D01*
X72062758Y-53819976D01*
X72223177Y-53771313D01*
X72348196Y-53759000D01*
X72431804Y-53759000D01*
X72556823Y-53771313D01*
X72556823Y-53771313D01*
G37*
G36*
X110695927Y-52054710D02*
G01*
X110695930Y-52054711D01*
X110695931Y-52054711D01*
X110893949Y-52114779D01*
X111076444Y-52212324D01*
X111118112Y-52246520D01*
X111236403Y-52343597D01*
X111367677Y-52503557D01*
X111465219Y-52686046D01*
X111465221Y-52686050D01*
X111525289Y-52884068D01*
X111525290Y-52884072D01*
X111540490Y-53038399D01*
X111540490Y-53641600D01*
X111525290Y-53795927D01*
X111525289Y-53795930D01*
X111525289Y-53795931D01*
X111465221Y-53993949D01*
X111367677Y-54176443D01*
X111367674Y-54176447D01*
X111236403Y-54336403D01*
X111076443Y-54467677D01*
X110893954Y-54565219D01*
X110893950Y-54565221D01*
X110695932Y-54625289D01*
X110695931Y-54625289D01*
X110695928Y-54625290D01*
X110490000Y-54645572D01*
X110284073Y-54625290D01*
X110284070Y-54625289D01*
X110284069Y-54625289D01*
X110086051Y-54565221D01*
X110086047Y-54565219D01*
X109903558Y-54467677D01*
X109743598Y-54336403D01*
X109612324Y-54176443D01*
X109514781Y-53993953D01*
X109514779Y-53993950D01*
X109454711Y-53795932D01*
X109454711Y-53795931D01*
X109454710Y-53795928D01*
X109439510Y-53641601D01*
X109439510Y-53038400D01*
X109454710Y-52884073D01*
X109454711Y-52884069D01*
X109514779Y-52686051D01*
X109612324Y-52503556D01*
X109646520Y-52461888D01*
X109743597Y-52343597D01*
X109903557Y-52212323D01*
X110086046Y-52114781D01*
X110086047Y-52114781D01*
X110086050Y-52114779D01*
X110284068Y-52054711D01*
X110284069Y-52054711D01*
X110284072Y-52054710D01*
X110490000Y-52034428D01*
X110695927Y-52054710D01*
X110695927Y-52054710D01*
G37*
G36*
X119156288Y-52304710D02*
G01*
X119156291Y-52304711D01*
X119156292Y-52304711D01*
X119354310Y-52364779D01*
X119354313Y-52364781D01*
X119354314Y-52364781D01*
X119536803Y-52462323D01*
X119696763Y-52593597D01*
X119828037Y-52753557D01*
X119900057Y-52888297D01*
X119925581Y-52936050D01*
X119985649Y-53134068D01*
X119985650Y-53134072D01*
X120005932Y-53340000D01*
X119985650Y-53545928D01*
X119985649Y-53545931D01*
X119985649Y-53545932D01*
X119925581Y-53743950D01*
X119925579Y-53743953D01*
X119925579Y-53743954D01*
X119828037Y-53926443D01*
X119696763Y-54086403D01*
X119536803Y-54217677D01*
X119356469Y-54314067D01*
X119354310Y-54315221D01*
X119156292Y-54375289D01*
X119156291Y-54375289D01*
X119156288Y-54375290D01*
X119001961Y-54390490D01*
X117898759Y-54390490D01*
X117744432Y-54375290D01*
X117744429Y-54375289D01*
X117744428Y-54375289D01*
X117546410Y-54315221D01*
X117544251Y-54314067D01*
X117363917Y-54217677D01*
X117203957Y-54086403D01*
X117072683Y-53926443D01*
X116975141Y-53743954D01*
X116975141Y-53743953D01*
X116975139Y-53743950D01*
X116915071Y-53545932D01*
X116915071Y-53545931D01*
X116915070Y-53545928D01*
X116894788Y-53340000D01*
X116915070Y-53134072D01*
X116915071Y-53134068D01*
X116975139Y-52936050D01*
X117000663Y-52888297D01*
X117072683Y-52753557D01*
X117203957Y-52593597D01*
X117363917Y-52462323D01*
X117546406Y-52364781D01*
X117546407Y-52364781D01*
X117546410Y-52364779D01*
X117744428Y-52304711D01*
X117744429Y-52304711D01*
X117744432Y-52304710D01*
X117898759Y-52289510D01*
X119001961Y-52289510D01*
X119156288Y-52304710D01*
X119156288Y-52304710D01*
G37*
G36*
X58386056Y-52329879D02*
G01*
X58577232Y-52409067D01*
X58577234Y-52409068D01*
X58749288Y-52524031D01*
X58895609Y-52670352D01*
X58998372Y-52824147D01*
X59010573Y-52842408D01*
X59089761Y-53033584D01*
X59130130Y-53236534D01*
X59130130Y-53443466D01*
X59089761Y-53646416D01*
X59027829Y-53795932D01*
X59010572Y-53837594D01*
X58895609Y-54009648D01*
X58749288Y-54155969D01*
X58577234Y-54270932D01*
X58577233Y-54270933D01*
X58577232Y-54270933D01*
X58386056Y-54350121D01*
X58183106Y-54390490D01*
X57976174Y-54390490D01*
X57773224Y-54350121D01*
X57582048Y-54270933D01*
X57582047Y-54270933D01*
X57582046Y-54270932D01*
X57409992Y-54155969D01*
X57263671Y-54009648D01*
X57148708Y-53837594D01*
X57131451Y-53795932D01*
X57069519Y-53646416D01*
X57029150Y-53443466D01*
X57029150Y-53236534D01*
X57069519Y-53033584D01*
X57148707Y-52842408D01*
X57160909Y-52824147D01*
X57263671Y-52670352D01*
X57409992Y-52524031D01*
X57582046Y-52409068D01*
X57582048Y-52409067D01*
X57773224Y-52329879D01*
X57976174Y-52289510D01*
X58183106Y-52289510D01*
X58386056Y-52329879D01*
X58386056Y-52329879D01*
G37*
G36*
X86608228Y-51251703D02*
G01*
X86763100Y-51315853D01*
X86902481Y-51408985D01*
X87021015Y-51527519D01*
X87114147Y-51666900D01*
X87178297Y-51821772D01*
X87211000Y-51986184D01*
X87211000Y-52153816D01*
X87178297Y-52318228D01*
X87114147Y-52473100D01*
X87021015Y-52612481D01*
X86902481Y-52731015D01*
X86763100Y-52824147D01*
X86608228Y-52888297D01*
X86443816Y-52921000D01*
X86276184Y-52921000D01*
X86111772Y-52888297D01*
X85956900Y-52824147D01*
X85817519Y-52731015D01*
X85698985Y-52612481D01*
X85605853Y-52473100D01*
X85541703Y-52318228D01*
X85509000Y-52153816D01*
X85509000Y-51986184D01*
X85541703Y-51821772D01*
X85605853Y-51666900D01*
X85698985Y-51527519D01*
X85817519Y-51408985D01*
X85956900Y-51315853D01*
X86111772Y-51251703D01*
X86276184Y-51219000D01*
X86443816Y-51219000D01*
X86608228Y-51251703D01*
X86608228Y-51251703D01*
G37*
G36*
X105576823Y-51231313D02*
G01*
X105737242Y-51279976D01*
X105804361Y-51315852D01*
X105885078Y-51358996D01*
X106014659Y-51465341D01*
X106121004Y-51594922D01*
X106121005Y-51594924D01*
X106200024Y-51742758D01*
X106248687Y-51903177D01*
X106265117Y-52070000D01*
X106248687Y-52236823D01*
X106200024Y-52397242D01*
X106159477Y-52473100D01*
X106121004Y-52545078D01*
X106014659Y-52674659D01*
X105885078Y-52781004D01*
X105885076Y-52781005D01*
X105737242Y-52860024D01*
X105576823Y-52908687D01*
X105451804Y-52921000D01*
X105368196Y-52921000D01*
X105243177Y-52908687D01*
X105082758Y-52860024D01*
X104934924Y-52781005D01*
X104934922Y-52781004D01*
X104805341Y-52674659D01*
X104698996Y-52545078D01*
X104660523Y-52473100D01*
X104619976Y-52397242D01*
X104571313Y-52236823D01*
X104554883Y-52070000D01*
X104571313Y-51903177D01*
X104619976Y-51742758D01*
X104698995Y-51594924D01*
X104698996Y-51594922D01*
X104805341Y-51465341D01*
X104934922Y-51358996D01*
X105015639Y-51315852D01*
X105082758Y-51279976D01*
X105243177Y-51231313D01*
X105368196Y-51219000D01*
X105451804Y-51219000D01*
X105576823Y-51231313D01*
X105576823Y-51231313D01*
G37*
G36*
X96686823Y-51231313D02*
G01*
X96847242Y-51279976D01*
X96914361Y-51315852D01*
X96995078Y-51358996D01*
X97124659Y-51465341D01*
X97231004Y-51594922D01*
X97231005Y-51594924D01*
X97310024Y-51742758D01*
X97358687Y-51903177D01*
X97375117Y-52070000D01*
X97358687Y-52236823D01*
X97310024Y-52397242D01*
X97269477Y-52473100D01*
X97231004Y-52545078D01*
X97124659Y-52674659D01*
X96995078Y-52781004D01*
X96995076Y-52781005D01*
X96847242Y-52860024D01*
X96686823Y-52908687D01*
X96561804Y-52921000D01*
X96478196Y-52921000D01*
X96353177Y-52908687D01*
X96192758Y-52860024D01*
X96044924Y-52781005D01*
X96044922Y-52781004D01*
X95915341Y-52674659D01*
X95808996Y-52545078D01*
X95770523Y-52473100D01*
X95729976Y-52397242D01*
X95681313Y-52236823D01*
X95664883Y-52070000D01*
X95681313Y-51903177D01*
X95729976Y-51742758D01*
X95808995Y-51594924D01*
X95808996Y-51594922D01*
X95915341Y-51465341D01*
X96044922Y-51358996D01*
X96125639Y-51315852D01*
X96192758Y-51279976D01*
X96353177Y-51231313D01*
X96478196Y-51219000D01*
X96561804Y-51219000D01*
X96686823Y-51231313D01*
X96686823Y-51231313D01*
G37*
G36*
X92876823Y-51231313D02*
G01*
X93037242Y-51279976D01*
X93104361Y-51315852D01*
X93185078Y-51358996D01*
X93314659Y-51465341D01*
X93421004Y-51594922D01*
X93421005Y-51594924D01*
X93500024Y-51742758D01*
X93548687Y-51903177D01*
X93565117Y-52070000D01*
X93548687Y-52236823D01*
X93500024Y-52397242D01*
X93459477Y-52473100D01*
X93421004Y-52545078D01*
X93314659Y-52674659D01*
X93185078Y-52781004D01*
X93185076Y-52781005D01*
X93037242Y-52860024D01*
X92876823Y-52908687D01*
X92751804Y-52921000D01*
X92668196Y-52921000D01*
X92543177Y-52908687D01*
X92382758Y-52860024D01*
X92234924Y-52781005D01*
X92234922Y-52781004D01*
X92105341Y-52674659D01*
X91998996Y-52545078D01*
X91960523Y-52473100D01*
X91919976Y-52397242D01*
X91871313Y-52236823D01*
X91854883Y-52070000D01*
X91871313Y-51903177D01*
X91919976Y-51742758D01*
X91998995Y-51594924D01*
X91998996Y-51594922D01*
X92105341Y-51465341D01*
X92234922Y-51358996D01*
X92315639Y-51315852D01*
X92382758Y-51279976D01*
X92543177Y-51231313D01*
X92668196Y-51219000D01*
X92751804Y-51219000D01*
X92876823Y-51231313D01*
X92876823Y-51231313D01*
G37*
G36*
X76366823Y-51231313D02*
G01*
X76527242Y-51279976D01*
X76594361Y-51315852D01*
X76675078Y-51358996D01*
X76804659Y-51465341D01*
X76911004Y-51594922D01*
X76911005Y-51594924D01*
X76990024Y-51742758D01*
X77038687Y-51903177D01*
X77055117Y-52070000D01*
X77038687Y-52236823D01*
X76990024Y-52397242D01*
X76949477Y-52473100D01*
X76911004Y-52545078D01*
X76804659Y-52674659D01*
X76675078Y-52781004D01*
X76675076Y-52781005D01*
X76527242Y-52860024D01*
X76366823Y-52908687D01*
X76241804Y-52921000D01*
X76158196Y-52921000D01*
X76033177Y-52908687D01*
X75872758Y-52860024D01*
X75724924Y-52781005D01*
X75724922Y-52781004D01*
X75595341Y-52674659D01*
X75488996Y-52545078D01*
X75450523Y-52473100D01*
X75409976Y-52397242D01*
X75361313Y-52236823D01*
X75344883Y-52070000D01*
X75361313Y-51903177D01*
X75409976Y-51742758D01*
X75488995Y-51594924D01*
X75488996Y-51594922D01*
X75595341Y-51465341D01*
X75724922Y-51358996D01*
X75805639Y-51315852D01*
X75872758Y-51279976D01*
X76033177Y-51231313D01*
X76158196Y-51219000D01*
X76241804Y-51219000D01*
X76366823Y-51231313D01*
X76366823Y-51231313D01*
G37*
G36*
X70801000Y-49211000D02*
G01*
X68899000Y-49211000D01*
X68899000Y-47309000D01*
X70801000Y-47309000D01*
X70801000Y-49211000D01*
X70801000Y-49211000D01*
G37*
G36*
X72667395Y-47345546D02*
G01*
X72840466Y-47417234D01*
X72840467Y-47417235D01*
X72996227Y-47521310D01*
X73128690Y-47653773D01*
X73128691Y-47653775D01*
X73232766Y-47809534D01*
X73304454Y-47982605D01*
X73341000Y-48166333D01*
X73341000Y-48353667D01*
X73304454Y-48537395D01*
X73232766Y-48710466D01*
X73232765Y-48710467D01*
X73128690Y-48866227D01*
X72996227Y-48998690D01*
X72917818Y-49051081D01*
X72840466Y-49102766D01*
X72667395Y-49174454D01*
X72483667Y-49211000D01*
X72296333Y-49211000D01*
X72112605Y-49174454D01*
X71939534Y-49102766D01*
X71862182Y-49051081D01*
X71783773Y-48998690D01*
X71651310Y-48866227D01*
X71547235Y-48710467D01*
X71547234Y-48710466D01*
X71475546Y-48537395D01*
X71439000Y-48353667D01*
X71439000Y-48166333D01*
X71475546Y-47982605D01*
X71547234Y-47809534D01*
X71651309Y-47653775D01*
X71651310Y-47653773D01*
X71783773Y-47521310D01*
X71939533Y-47417235D01*
X71939534Y-47417234D01*
X72112605Y-47345546D01*
X72296333Y-47309000D01*
X72483667Y-47309000D01*
X72667395Y-47345546D01*
X72667395Y-47345546D01*
G37*
G36*
X51814509Y-44312345D02*
G01*
X51894534Y-44336620D01*
X52116300Y-44403892D01*
X52244230Y-44472272D01*
X52394430Y-44552556D01*
X52638216Y-44752624D01*
X52838283Y-44996409D01*
X52986948Y-45274540D01*
X53054220Y-45496306D01*
X53078495Y-45576331D01*
X53109406Y-45890180D01*
X53078495Y-46204029D01*
X53078494Y-46204031D01*
X52986948Y-46505820D01*
X52986946Y-46505823D01*
X52838284Y-46783950D01*
X52638216Y-47027736D01*
X52394430Y-47227804D01*
X52244230Y-47308088D01*
X52116300Y-47376468D01*
X51894534Y-47443740D01*
X51814509Y-47468015D01*
X51579309Y-47491180D01*
X50422011Y-47491180D01*
X50186811Y-47468015D01*
X50106786Y-47443740D01*
X49885020Y-47376468D01*
X49757090Y-47308088D01*
X49606890Y-47227804D01*
X49363104Y-47027736D01*
X49163036Y-46783950D01*
X49014374Y-46505823D01*
X49014372Y-46505820D01*
X48922826Y-46204031D01*
X48922825Y-46204029D01*
X48891914Y-45890180D01*
X48922825Y-45576331D01*
X48947100Y-45496306D01*
X49014372Y-45274540D01*
X49163037Y-44996409D01*
X49363104Y-44752624D01*
X49606890Y-44552556D01*
X49757090Y-44472272D01*
X49885020Y-44403892D01*
X50106786Y-44336620D01*
X50186811Y-44312345D01*
X50422011Y-44289180D01*
X51579309Y-44289180D01*
X51814509Y-44312345D01*
X51814509Y-44312345D01*
G37*
G36*
X105785256Y-42841298D02*
G01*
X105891579Y-42862447D01*
X106192042Y-42986903D01*
X106462451Y-43167585D01*
X106692415Y-43397549D01*
X106873097Y-43667958D01*
X106997553Y-43968421D01*
X107061000Y-44287391D01*
X107061000Y-44612609D01*
X106997553Y-44931579D01*
X106873097Y-45232042D01*
X106692415Y-45502451D01*
X106462451Y-45732415D01*
X106192042Y-45913097D01*
X105891579Y-46037553D01*
X105785256Y-46058702D01*
X105572611Y-46101000D01*
X105247389Y-46101000D01*
X105034744Y-46058702D01*
X104928421Y-46037553D01*
X104627958Y-45913097D01*
X104357549Y-45732415D01*
X104127585Y-45502451D01*
X103946903Y-45232042D01*
X103822447Y-44931579D01*
X103759000Y-44612609D01*
X103759000Y-44287391D01*
X103822447Y-43968421D01*
X103946903Y-43667958D01*
X104127585Y-43397549D01*
X104357549Y-43167585D01*
X104627958Y-42986903D01*
X104928421Y-42862447D01*
X105034744Y-42841298D01*
X105247389Y-42799000D01*
X105572611Y-42799000D01*
X105785256Y-42841298D01*
X105785256Y-42841298D01*
G37*
G36*
X60065256Y-42841298D02*
G01*
X60171579Y-42862447D01*
X60472042Y-42986903D01*
X60742451Y-43167585D01*
X60972415Y-43397549D01*
X61153097Y-43667958D01*
X61277553Y-43968421D01*
X61341000Y-44287391D01*
X61341000Y-44612609D01*
X61277553Y-44931579D01*
X61153097Y-45232042D01*
X60972415Y-45502451D01*
X60742451Y-45732415D01*
X60472042Y-45913097D01*
X60171579Y-46037553D01*
X60065256Y-46058702D01*
X59852611Y-46101000D01*
X59527389Y-46101000D01*
X59314744Y-46058702D01*
X59208421Y-46037553D01*
X58907958Y-45913097D01*
X58637549Y-45732415D01*
X58407585Y-45502451D01*
X58226903Y-45232042D01*
X58102447Y-44931579D01*
X58039000Y-44612609D01*
X58039000Y-44287391D01*
X58102447Y-43968421D01*
X58226903Y-43667958D01*
X58407585Y-43397549D01*
X58637549Y-43167585D01*
X58907958Y-42986903D01*
X59208421Y-42862447D01*
X59314744Y-42841298D01*
X59527389Y-42799000D01*
X59852611Y-42799000D01*
X60065256Y-42841298D01*
X60065256Y-42841298D01*
G37*
G36*
X115827832Y-42094930D02*
G01*
X116035376Y-42157888D01*
X116226641Y-42260122D01*
X116394292Y-42397708D01*
X116531878Y-42565359D01*
X116634112Y-42756624D01*
X116697070Y-42964168D01*
X116718327Y-43180000D01*
X116697070Y-43395832D01*
X116634112Y-43603376D01*
X116531878Y-43794641D01*
X116394292Y-43962292D01*
X116226641Y-44099878D01*
X116035376Y-44202112D01*
X115827832Y-44265070D01*
X115666089Y-44281000D01*
X114457911Y-44281000D01*
X114296168Y-44265070D01*
X114088624Y-44202112D01*
X113897359Y-44099878D01*
X113729708Y-43962292D01*
X113592122Y-43794641D01*
X113489888Y-43603376D01*
X113426930Y-43395832D01*
X113405673Y-43180000D01*
X113426930Y-42964168D01*
X113489888Y-42756624D01*
X113592122Y-42565359D01*
X113729708Y-42397708D01*
X113897359Y-42260122D01*
X114088624Y-42157888D01*
X114296168Y-42094930D01*
X114457911Y-42079000D01*
X115666089Y-42079000D01*
X115827832Y-42094930D01*
X115827832Y-42094930D01*
G37*
M02*
