%FSLAX45Y45*%
G04 Gerber Fmt 4.5, Leading zero omitted, Abs format (unit mm)*
G04 Created by KiCad (PCBNEW (5.1.2-1)-1) date 2023-07-30 19:13:54*
%MOMM*%
%LPD*%
G04 APERTURE LIST*
%ADD10C,0.050000*%
%ADD11C,0.200000*%
%ADD12C,0.300000*%
G04 APERTURE END LIST*
D10*
X12065000Y-4064000D02*
G75*
G02X12319000Y-4318000I0J-254000D01*
G01*
X12319000Y-10160000D02*
G75*
G02X12065000Y-10414000I-254000J0D01*
G01*
X4572000Y-10414000D02*
G75*
G02X4318000Y-10160000I0J254000D01*
G01*
X4318000Y-4318000D02*
G75*
G02X4572000Y-4064000I254000J0D01*
G01*
X4318000Y-10160000D02*
X4318000Y-4318000D01*
X12065000Y-10414000D02*
X4572000Y-10414000D01*
X12319000Y-4318000D02*
X12319000Y-10160000D01*
X4572000Y-4064000D02*
X12065000Y-4064000D01*
D11*
X11354000Y-8820000D02*
X11534000Y-9000000D01*
X11534000Y-8820000D02*
X11354000Y-9000000D01*
X11379000Y-8990000D02*
X11509000Y-8990000D01*
X11379000Y-8830000D02*
X11509000Y-8830000D01*
X11509000Y-8990000D02*
G75*
G03X11509000Y-8830000I0J80000D01*
G01*
X11379000Y-8830000D02*
G75*
G03X11379000Y-8990000I0J-80000D01*
G01*
X11354000Y-10050000D02*
X11534000Y-10230000D01*
X11534000Y-10050000D02*
X11354000Y-10230000D01*
X11379000Y-10220000D02*
X11509000Y-10220000D01*
X11379000Y-10060000D02*
X11509000Y-10060000D01*
X11509000Y-10220000D02*
G75*
G03X11509000Y-10060000I0J80000D01*
G01*
X11379000Y-10060000D02*
G75*
G03X11379000Y-10220000I0J-80000D01*
G01*
X11606200Y-4318000D02*
G75*
G03X11606200Y-4318000I-100000J0D01*
G01*
X11451200Y-4408000D02*
X11561200Y-4408000D01*
X11451200Y-4228000D02*
X11561200Y-4228000D01*
X11561200Y-4408000D02*
G75*
G03X11561200Y-4228000I0J90000D01*
G01*
X11451200Y-4228000D02*
G75*
G03X11451200Y-4408000I0J-90000D01*
G01*
X11606200Y-8382000D02*
G75*
G03X11606200Y-8382000I-100000J0D01*
G01*
X11451200Y-8472000D02*
X11561200Y-8472000D01*
X11451200Y-8292000D02*
X11561200Y-8292000D01*
X11561200Y-8472000D02*
G75*
G03X11561200Y-8292000I0J90000D01*
G01*
X11451200Y-8292000D02*
G75*
G03X11451200Y-8472000I0J-90000D01*
G01*
X5100066Y-4439018D02*
X5100066Y-4739018D01*
X4950066Y-4589018D02*
X5250066Y-4589018D01*
X5150066Y-4449018D02*
X5050066Y-4449018D01*
X5150066Y-4729018D02*
X5050066Y-4729018D01*
X5050066Y-4449018D02*
G75*
G03X5050066Y-4729018I0J-140000D01*
G01*
X5150066Y-4729018D02*
G75*
G03X5150066Y-4449018I0J140000D01*
G01*
X5100066Y-9738982D02*
X5100066Y-10038982D01*
X4950066Y-9888982D02*
X5250066Y-9888982D01*
X5150066Y-9748982D02*
X5050066Y-9748982D01*
X5150066Y-10028982D02*
X5050066Y-10028982D01*
X5050066Y-9748982D02*
G75*
G03X5050066Y-10028982I0J-140000D01*
G01*
X5150066Y-10028982D02*
G75*
G03X5150066Y-9748982I0J140000D01*
G01*
X8495138Y-10146138D02*
X8495138Y-9919862D01*
X8268862Y-9919862D01*
X8268862Y-10146138D01*
X8495138Y-10146138D01*
X6082138Y-4558138D02*
X6082138Y-4331862D01*
X5855862Y-4331862D01*
X5855862Y-4558138D01*
X6082138Y-4558138D01*
X10654138Y-4558138D02*
X10654138Y-4331862D01*
X10427862Y-4331862D01*
X10427862Y-4558138D01*
X10654138Y-4558138D01*
D12*
X4601928Y-10882214D02*
X4601928Y-10582214D01*
X4673357Y-10582214D01*
X4716214Y-10596500D01*
X4744786Y-10625072D01*
X4759071Y-10653643D01*
X4773357Y-10710786D01*
X4773357Y-10753643D01*
X4759071Y-10810786D01*
X4744786Y-10839357D01*
X4716214Y-10867929D01*
X4673357Y-10882214D01*
X4601928Y-10882214D01*
X4901928Y-10882214D02*
X4901928Y-10682214D01*
X4901928Y-10739357D02*
X4916214Y-10710786D01*
X4930500Y-10696500D01*
X4959071Y-10682214D01*
X4987643Y-10682214D01*
X5087643Y-10882214D02*
X5087643Y-10682214D01*
X5087643Y-10582214D02*
X5073357Y-10596500D01*
X5087643Y-10610786D01*
X5101928Y-10596500D01*
X5087643Y-10582214D01*
X5087643Y-10610786D01*
X5273357Y-10882214D02*
X5244786Y-10867929D01*
X5230500Y-10839357D01*
X5230500Y-10582214D01*
X5430500Y-10882214D02*
X5401928Y-10867929D01*
X5387643Y-10839357D01*
X5387643Y-10582214D01*
X5773357Y-10882214D02*
X5773357Y-10582214D01*
X5873357Y-10796500D01*
X5973357Y-10582214D01*
X5973357Y-10882214D01*
X6244786Y-10882214D02*
X6244786Y-10725072D01*
X6230500Y-10696500D01*
X6201928Y-10682214D01*
X6144786Y-10682214D01*
X6116214Y-10696500D01*
X6244786Y-10867929D02*
X6216214Y-10882214D01*
X6144786Y-10882214D01*
X6116214Y-10867929D01*
X6101928Y-10839357D01*
X6101928Y-10810786D01*
X6116214Y-10782214D01*
X6144786Y-10767929D01*
X6216214Y-10767929D01*
X6244786Y-10753643D01*
X6387643Y-10682214D02*
X6387643Y-10982214D01*
X6387643Y-10696500D02*
X6416214Y-10682214D01*
X6473357Y-10682214D01*
X6501928Y-10696500D01*
X6516214Y-10710786D01*
X6530500Y-10739357D01*
X6530500Y-10825072D01*
X6516214Y-10853643D01*
X6501928Y-10867929D01*
X6473357Y-10882214D01*
X6416214Y-10882214D01*
X6387643Y-10867929D01*
X6659071Y-10853643D02*
X6673357Y-10867929D01*
X6659071Y-10882214D01*
X6644786Y-10867929D01*
X6659071Y-10853643D01*
X6659071Y-10882214D01*
X6659071Y-10696500D02*
X6673357Y-10710786D01*
X6659071Y-10725072D01*
X6644786Y-10710786D01*
X6659071Y-10696500D01*
X6659071Y-10725072D01*
X4135500Y-11286500D02*
X4315500Y-11466500D01*
X4315500Y-11286500D02*
X4135500Y-11466500D01*
X4759071Y-11512214D02*
X4587643Y-11512214D01*
X4673357Y-11512214D02*
X4673357Y-11212214D01*
X4644786Y-11255071D01*
X4616214Y-11283643D01*
X4587643Y-11297929D01*
X4887643Y-11483643D02*
X4901928Y-11497929D01*
X4887643Y-11512214D01*
X4873357Y-11497929D01*
X4887643Y-11483643D01*
X4887643Y-11512214D01*
X5073357Y-11340786D02*
X5044786Y-11326500D01*
X5030500Y-11312214D01*
X5016214Y-11283643D01*
X5016214Y-11269357D01*
X5030500Y-11240786D01*
X5044786Y-11226500D01*
X5073357Y-11212214D01*
X5130500Y-11212214D01*
X5159071Y-11226500D01*
X5173357Y-11240786D01*
X5187643Y-11269357D01*
X5187643Y-11283643D01*
X5173357Y-11312214D01*
X5159071Y-11326500D01*
X5130500Y-11340786D01*
X5073357Y-11340786D01*
X5044786Y-11355071D01*
X5030500Y-11369357D01*
X5016214Y-11397929D01*
X5016214Y-11455071D01*
X5030500Y-11483643D01*
X5044786Y-11497929D01*
X5073357Y-11512214D01*
X5130500Y-11512214D01*
X5159071Y-11497929D01*
X5173357Y-11483643D01*
X5187643Y-11455071D01*
X5187643Y-11397929D01*
X5173357Y-11369357D01*
X5159071Y-11355071D01*
X5130500Y-11340786D01*
X5373357Y-11212214D02*
X5401928Y-11212214D01*
X5430500Y-11226500D01*
X5444786Y-11240786D01*
X5459071Y-11269357D01*
X5473357Y-11326500D01*
X5473357Y-11397929D01*
X5459071Y-11455071D01*
X5444786Y-11483643D01*
X5430500Y-11497929D01*
X5401928Y-11512214D01*
X5373357Y-11512214D01*
X5344786Y-11497929D01*
X5330500Y-11483643D01*
X5316214Y-11455071D01*
X5301928Y-11397929D01*
X5301928Y-11326500D01*
X5316214Y-11269357D01*
X5330500Y-11240786D01*
X5344786Y-11226500D01*
X5373357Y-11212214D01*
X5601928Y-11512214D02*
X5601928Y-11312214D01*
X5601928Y-11340786D02*
X5616214Y-11326500D01*
X5644786Y-11312214D01*
X5687643Y-11312214D01*
X5716214Y-11326500D01*
X5730500Y-11355071D01*
X5730500Y-11512214D01*
X5730500Y-11355071D02*
X5744786Y-11326500D01*
X5773357Y-11312214D01*
X5816214Y-11312214D01*
X5844786Y-11326500D01*
X5859071Y-11355071D01*
X5859071Y-11512214D01*
X6001928Y-11512214D02*
X6001928Y-11312214D01*
X6001928Y-11340786D02*
X6016214Y-11326500D01*
X6044786Y-11312214D01*
X6087643Y-11312214D01*
X6116214Y-11326500D01*
X6130500Y-11355071D01*
X6130500Y-11512214D01*
X6130500Y-11355071D02*
X6144786Y-11326500D01*
X6173357Y-11312214D01*
X6216214Y-11312214D01*
X6244786Y-11326500D01*
X6259071Y-11355071D01*
X6259071Y-11512214D01*
X6844786Y-11197929D02*
X6587643Y-11583643D01*
X7230500Y-11212214D02*
X7259071Y-11212214D01*
X7287643Y-11226500D01*
X7301928Y-11240786D01*
X7316214Y-11269357D01*
X7330500Y-11326500D01*
X7330500Y-11397929D01*
X7316214Y-11455071D01*
X7301928Y-11483643D01*
X7287643Y-11497929D01*
X7259071Y-11512214D01*
X7230500Y-11512214D01*
X7201928Y-11497929D01*
X7187643Y-11483643D01*
X7173357Y-11455071D01*
X7159071Y-11397929D01*
X7159071Y-11326500D01*
X7173357Y-11269357D01*
X7187643Y-11240786D01*
X7201928Y-11226500D01*
X7230500Y-11212214D01*
X7459071Y-11483643D02*
X7473357Y-11497929D01*
X7459071Y-11512214D01*
X7444786Y-11497929D01*
X7459071Y-11483643D01*
X7459071Y-11512214D01*
X7659071Y-11212214D02*
X7687643Y-11212214D01*
X7716214Y-11226500D01*
X7730500Y-11240786D01*
X7744786Y-11269357D01*
X7759071Y-11326500D01*
X7759071Y-11397929D01*
X7744786Y-11455071D01*
X7730500Y-11483643D01*
X7716214Y-11497929D01*
X7687643Y-11512214D01*
X7659071Y-11512214D01*
X7630500Y-11497929D01*
X7616214Y-11483643D01*
X7601928Y-11455071D01*
X7587643Y-11397929D01*
X7587643Y-11326500D01*
X7601928Y-11269357D01*
X7616214Y-11240786D01*
X7630500Y-11226500D01*
X7659071Y-11212214D01*
X7859071Y-11212214D02*
X8059071Y-11212214D01*
X7930500Y-11512214D01*
X8330500Y-11512214D02*
X8159071Y-11512214D01*
X8244786Y-11512214D02*
X8244786Y-11212214D01*
X8216214Y-11255071D01*
X8187643Y-11283643D01*
X8159071Y-11297929D01*
X8444786Y-11212214D02*
X8444786Y-11269357D01*
X8559071Y-11212214D02*
X8559071Y-11269357D01*
X9001928Y-11626500D02*
X8987643Y-11612214D01*
X8959071Y-11569357D01*
X8944786Y-11540786D01*
X8930500Y-11497929D01*
X8916214Y-11426500D01*
X8916214Y-11369357D01*
X8930500Y-11297929D01*
X8944786Y-11255071D01*
X8959071Y-11226500D01*
X8987643Y-11183643D01*
X9001928Y-11169357D01*
X9173357Y-11212214D02*
X9201928Y-11212214D01*
X9230500Y-11226500D01*
X9244786Y-11240786D01*
X9259071Y-11269357D01*
X9273357Y-11326500D01*
X9273357Y-11397929D01*
X9259071Y-11455071D01*
X9244786Y-11483643D01*
X9230500Y-11497929D01*
X9201928Y-11512214D01*
X9173357Y-11512214D01*
X9144786Y-11497929D01*
X9130500Y-11483643D01*
X9116214Y-11455071D01*
X9101928Y-11397929D01*
X9101928Y-11326500D01*
X9116214Y-11269357D01*
X9130500Y-11240786D01*
X9144786Y-11226500D01*
X9173357Y-11212214D01*
X9630500Y-11512214D02*
X9630500Y-11212214D01*
X9759071Y-11512214D02*
X9759071Y-11355071D01*
X9744786Y-11326500D01*
X9716214Y-11312214D01*
X9673357Y-11312214D01*
X9644786Y-11326500D01*
X9630500Y-11340786D01*
X9944786Y-11512214D02*
X9916214Y-11497929D01*
X9901928Y-11483643D01*
X9887643Y-11455071D01*
X9887643Y-11369357D01*
X9901928Y-11340786D01*
X9916214Y-11326500D01*
X9944786Y-11312214D01*
X9987643Y-11312214D01*
X10016214Y-11326500D01*
X10030500Y-11340786D01*
X10044786Y-11369357D01*
X10044786Y-11455071D01*
X10030500Y-11483643D01*
X10016214Y-11497929D01*
X9987643Y-11512214D01*
X9944786Y-11512214D01*
X10216214Y-11512214D02*
X10187643Y-11497929D01*
X10173357Y-11469357D01*
X10173357Y-11212214D01*
X10444786Y-11497929D02*
X10416214Y-11512214D01*
X10359071Y-11512214D01*
X10330500Y-11497929D01*
X10316214Y-11469357D01*
X10316214Y-11355071D01*
X10330500Y-11326500D01*
X10359071Y-11312214D01*
X10416214Y-11312214D01*
X10444786Y-11326500D01*
X10459071Y-11355071D01*
X10459071Y-11383643D01*
X10316214Y-11412214D01*
X10573357Y-11497929D02*
X10601928Y-11512214D01*
X10659071Y-11512214D01*
X10687643Y-11497929D01*
X10701928Y-11469357D01*
X10701928Y-11455071D01*
X10687643Y-11426500D01*
X10659071Y-11412214D01*
X10616214Y-11412214D01*
X10587643Y-11397929D01*
X10573357Y-11369357D01*
X10573357Y-11355071D01*
X10587643Y-11326500D01*
X10616214Y-11312214D01*
X10659071Y-11312214D01*
X10687643Y-11326500D01*
X11059071Y-11397929D02*
X11287643Y-11397929D01*
X11173357Y-11512214D02*
X11173357Y-11283643D01*
X11644786Y-11240786D02*
X11659071Y-11226500D01*
X11687643Y-11212214D01*
X11759071Y-11212214D01*
X11787643Y-11226500D01*
X11801928Y-11240786D01*
X11816214Y-11269357D01*
X11816214Y-11297929D01*
X11801928Y-11340786D01*
X11630500Y-11512214D01*
X11816214Y-11512214D01*
X12159071Y-11497929D02*
X12187643Y-11512214D01*
X12244786Y-11512214D01*
X12273357Y-11497929D01*
X12287643Y-11469357D01*
X12287643Y-11455071D01*
X12273357Y-11426500D01*
X12244786Y-11412214D01*
X12201928Y-11412214D01*
X12173357Y-11397929D01*
X12159071Y-11369357D01*
X12159071Y-11355071D01*
X12173357Y-11326500D01*
X12201928Y-11312214D01*
X12244786Y-11312214D01*
X12273357Y-11326500D01*
X12459071Y-11512214D02*
X12430500Y-11497929D01*
X12416214Y-11469357D01*
X12416214Y-11212214D01*
X12616214Y-11512214D02*
X12587643Y-11497929D01*
X12573357Y-11483643D01*
X12559071Y-11455071D01*
X12559071Y-11369357D01*
X12573357Y-11340786D01*
X12587643Y-11326500D01*
X12616214Y-11312214D01*
X12659071Y-11312214D01*
X12687643Y-11326500D01*
X12701928Y-11340786D01*
X12716214Y-11369357D01*
X12716214Y-11455071D01*
X12701928Y-11483643D01*
X12687643Y-11497929D01*
X12659071Y-11512214D01*
X12616214Y-11512214D01*
X12801928Y-11312214D02*
X12916214Y-11312214D01*
X12844786Y-11212214D02*
X12844786Y-11469357D01*
X12859071Y-11497929D01*
X12887643Y-11512214D01*
X12916214Y-11512214D01*
X13001928Y-11497929D02*
X13030500Y-11512214D01*
X13087643Y-11512214D01*
X13116214Y-11497929D01*
X13130500Y-11469357D01*
X13130500Y-11455071D01*
X13116214Y-11426500D01*
X13087643Y-11412214D01*
X13044786Y-11412214D01*
X13016214Y-11397929D01*
X13001928Y-11369357D01*
X13001928Y-11355071D01*
X13016214Y-11326500D01*
X13044786Y-11312214D01*
X13087643Y-11312214D01*
X13116214Y-11326500D01*
X13230500Y-11626500D02*
X13244786Y-11612214D01*
X13273357Y-11569357D01*
X13287643Y-11540786D01*
X13301928Y-11497929D01*
X13316214Y-11426500D01*
X13316214Y-11369357D01*
X13301928Y-11297929D01*
X13287643Y-11255071D01*
X13273357Y-11226500D01*
X13244786Y-11183643D01*
X13230500Y-11169357D01*
X13773357Y-11626500D02*
X13759071Y-11612214D01*
X13730500Y-11569357D01*
X13716214Y-11540786D01*
X13701928Y-11497929D01*
X13687643Y-11426500D01*
X13687643Y-11369357D01*
X13701928Y-11297929D01*
X13716214Y-11255071D01*
X13730500Y-11226500D01*
X13759071Y-11183643D01*
X13773357Y-11169357D01*
X13887643Y-11312214D02*
X13887643Y-11512214D01*
X13887643Y-11340786D02*
X13901928Y-11326500D01*
X13930500Y-11312214D01*
X13973357Y-11312214D01*
X14001928Y-11326500D01*
X14016214Y-11355071D01*
X14016214Y-11512214D01*
X14201928Y-11512214D02*
X14173357Y-11497929D01*
X14159071Y-11483643D01*
X14144786Y-11455071D01*
X14144786Y-11369357D01*
X14159071Y-11340786D01*
X14173357Y-11326500D01*
X14201928Y-11312214D01*
X14244786Y-11312214D01*
X14273357Y-11326500D01*
X14287643Y-11340786D01*
X14301928Y-11369357D01*
X14301928Y-11455071D01*
X14287643Y-11483643D01*
X14273357Y-11497929D01*
X14244786Y-11512214D01*
X14201928Y-11512214D01*
X14387643Y-11312214D02*
X14501928Y-11312214D01*
X14430500Y-11212214D02*
X14430500Y-11469357D01*
X14444786Y-11497929D01*
X14473357Y-11512214D01*
X14501928Y-11512214D01*
X14830500Y-11312214D02*
X14830500Y-11612214D01*
X14830500Y-11326500D02*
X14859071Y-11312214D01*
X14916214Y-11312214D01*
X14944786Y-11326500D01*
X14959071Y-11340786D01*
X14973357Y-11369357D01*
X14973357Y-11455071D01*
X14959071Y-11483643D01*
X14944786Y-11497929D01*
X14916214Y-11512214D01*
X14859071Y-11512214D01*
X14830500Y-11497929D01*
X15144786Y-11512214D02*
X15116214Y-11497929D01*
X15101928Y-11469357D01*
X15101928Y-11212214D01*
X15387643Y-11512214D02*
X15387643Y-11355071D01*
X15373357Y-11326500D01*
X15344786Y-11312214D01*
X15287643Y-11312214D01*
X15259071Y-11326500D01*
X15387643Y-11497929D02*
X15359071Y-11512214D01*
X15287643Y-11512214D01*
X15259071Y-11497929D01*
X15244786Y-11469357D01*
X15244786Y-11440786D01*
X15259071Y-11412214D01*
X15287643Y-11397929D01*
X15359071Y-11397929D01*
X15387643Y-11383643D01*
X15487643Y-11312214D02*
X15601928Y-11312214D01*
X15530500Y-11212214D02*
X15530500Y-11469357D01*
X15544786Y-11497929D01*
X15573357Y-11512214D01*
X15601928Y-11512214D01*
X15816214Y-11497929D02*
X15787643Y-11512214D01*
X15730500Y-11512214D01*
X15701928Y-11497929D01*
X15687643Y-11469357D01*
X15687643Y-11355071D01*
X15701928Y-11326500D01*
X15730500Y-11312214D01*
X15787643Y-11312214D01*
X15816214Y-11326500D01*
X15830500Y-11355071D01*
X15830500Y-11383643D01*
X15687643Y-11412214D01*
X16087643Y-11512214D02*
X16087643Y-11212214D01*
X16087643Y-11497929D02*
X16059071Y-11512214D01*
X16001928Y-11512214D01*
X15973357Y-11497929D01*
X15959071Y-11483643D01*
X15944786Y-11455071D01*
X15944786Y-11369357D01*
X15959071Y-11340786D01*
X15973357Y-11326500D01*
X16001928Y-11312214D01*
X16059071Y-11312214D01*
X16087643Y-11326500D01*
X16201928Y-11626500D02*
X16216214Y-11612214D01*
X16244786Y-11569357D01*
X16259071Y-11540786D01*
X16273357Y-11497929D01*
X16287643Y-11426500D01*
X16287643Y-11369357D01*
X16273357Y-11297929D01*
X16259071Y-11255071D01*
X16244786Y-11226500D01*
X16216214Y-11183643D01*
X16201928Y-11169357D01*
X4315500Y-11772500D02*
G75*
G03X4315500Y-11772500I-100000J0D01*
G01*
X4587643Y-11636786D02*
X4601928Y-11622500D01*
X4630500Y-11608214D01*
X4701928Y-11608214D01*
X4730500Y-11622500D01*
X4744786Y-11636786D01*
X4759071Y-11665357D01*
X4759071Y-11693929D01*
X4744786Y-11736786D01*
X4573357Y-11908214D01*
X4759071Y-11908214D01*
X4887643Y-11879643D02*
X4901928Y-11893929D01*
X4887643Y-11908214D01*
X4873357Y-11893929D01*
X4887643Y-11879643D01*
X4887643Y-11908214D01*
X5087643Y-11608214D02*
X5116214Y-11608214D01*
X5144786Y-11622500D01*
X5159071Y-11636786D01*
X5173357Y-11665357D01*
X5187643Y-11722500D01*
X5187643Y-11793929D01*
X5173357Y-11851071D01*
X5159071Y-11879643D01*
X5144786Y-11893929D01*
X5116214Y-11908214D01*
X5087643Y-11908214D01*
X5059071Y-11893929D01*
X5044786Y-11879643D01*
X5030500Y-11851071D01*
X5016214Y-11793929D01*
X5016214Y-11722500D01*
X5030500Y-11665357D01*
X5044786Y-11636786D01*
X5059071Y-11622500D01*
X5087643Y-11608214D01*
X5373357Y-11608214D02*
X5401928Y-11608214D01*
X5430500Y-11622500D01*
X5444786Y-11636786D01*
X5459071Y-11665357D01*
X5473357Y-11722500D01*
X5473357Y-11793929D01*
X5459071Y-11851071D01*
X5444786Y-11879643D01*
X5430500Y-11893929D01*
X5401928Y-11908214D01*
X5373357Y-11908214D01*
X5344786Y-11893929D01*
X5330500Y-11879643D01*
X5316214Y-11851071D01*
X5301928Y-11793929D01*
X5301928Y-11722500D01*
X5316214Y-11665357D01*
X5330500Y-11636786D01*
X5344786Y-11622500D01*
X5373357Y-11608214D01*
X5601928Y-11908214D02*
X5601928Y-11708214D01*
X5601928Y-11736786D02*
X5616214Y-11722500D01*
X5644786Y-11708214D01*
X5687643Y-11708214D01*
X5716214Y-11722500D01*
X5730500Y-11751071D01*
X5730500Y-11908214D01*
X5730500Y-11751071D02*
X5744786Y-11722500D01*
X5773357Y-11708214D01*
X5816214Y-11708214D01*
X5844786Y-11722500D01*
X5859071Y-11751071D01*
X5859071Y-11908214D01*
X6001928Y-11908214D02*
X6001928Y-11708214D01*
X6001928Y-11736786D02*
X6016214Y-11722500D01*
X6044786Y-11708214D01*
X6087643Y-11708214D01*
X6116214Y-11722500D01*
X6130500Y-11751071D01*
X6130500Y-11908214D01*
X6130500Y-11751071D02*
X6144786Y-11722500D01*
X6173357Y-11708214D01*
X6216214Y-11708214D01*
X6244786Y-11722500D01*
X6259071Y-11751071D01*
X6259071Y-11908214D01*
X6844786Y-11593929D02*
X6587643Y-11979643D01*
X7230500Y-11608214D02*
X7259071Y-11608214D01*
X7287643Y-11622500D01*
X7301928Y-11636786D01*
X7316214Y-11665357D01*
X7330500Y-11722500D01*
X7330500Y-11793929D01*
X7316214Y-11851071D01*
X7301928Y-11879643D01*
X7287643Y-11893929D01*
X7259071Y-11908214D01*
X7230500Y-11908214D01*
X7201928Y-11893929D01*
X7187643Y-11879643D01*
X7173357Y-11851071D01*
X7159071Y-11793929D01*
X7159071Y-11722500D01*
X7173357Y-11665357D01*
X7187643Y-11636786D01*
X7201928Y-11622500D01*
X7230500Y-11608214D01*
X7459071Y-11879643D02*
X7473357Y-11893929D01*
X7459071Y-11908214D01*
X7444786Y-11893929D01*
X7459071Y-11879643D01*
X7459071Y-11908214D01*
X7659071Y-11608214D02*
X7687643Y-11608214D01*
X7716214Y-11622500D01*
X7730500Y-11636786D01*
X7744786Y-11665357D01*
X7759071Y-11722500D01*
X7759071Y-11793929D01*
X7744786Y-11851071D01*
X7730500Y-11879643D01*
X7716214Y-11893929D01*
X7687643Y-11908214D01*
X7659071Y-11908214D01*
X7630500Y-11893929D01*
X7616214Y-11879643D01*
X7601928Y-11851071D01*
X7587643Y-11793929D01*
X7587643Y-11722500D01*
X7601928Y-11665357D01*
X7616214Y-11636786D01*
X7630500Y-11622500D01*
X7659071Y-11608214D01*
X7859071Y-11608214D02*
X8059071Y-11608214D01*
X7930500Y-11908214D01*
X8187643Y-11908214D02*
X8244786Y-11908214D01*
X8273357Y-11893929D01*
X8287643Y-11879643D01*
X8316214Y-11836786D01*
X8330500Y-11779643D01*
X8330500Y-11665357D01*
X8316214Y-11636786D01*
X8301928Y-11622500D01*
X8273357Y-11608214D01*
X8216214Y-11608214D01*
X8187643Y-11622500D01*
X8173357Y-11636786D01*
X8159071Y-11665357D01*
X8159071Y-11736786D01*
X8173357Y-11765357D01*
X8187643Y-11779643D01*
X8216214Y-11793929D01*
X8273357Y-11793929D01*
X8301928Y-11779643D01*
X8316214Y-11765357D01*
X8330500Y-11736786D01*
X8444786Y-11608214D02*
X8444786Y-11665357D01*
X8559071Y-11608214D02*
X8559071Y-11665357D01*
X9001928Y-12022500D02*
X8987643Y-12008214D01*
X8959071Y-11965357D01*
X8944786Y-11936786D01*
X8930500Y-11893929D01*
X8916214Y-11822500D01*
X8916214Y-11765357D01*
X8930500Y-11693929D01*
X8944786Y-11651071D01*
X8959071Y-11622500D01*
X8987643Y-11579643D01*
X9001928Y-11565357D01*
X9173357Y-11608214D02*
X9201928Y-11608214D01*
X9230500Y-11622500D01*
X9244786Y-11636786D01*
X9259071Y-11665357D01*
X9273357Y-11722500D01*
X9273357Y-11793929D01*
X9259071Y-11851071D01*
X9244786Y-11879643D01*
X9230500Y-11893929D01*
X9201928Y-11908214D01*
X9173357Y-11908214D01*
X9144786Y-11893929D01*
X9130500Y-11879643D01*
X9116214Y-11851071D01*
X9101928Y-11793929D01*
X9101928Y-11722500D01*
X9116214Y-11665357D01*
X9130500Y-11636786D01*
X9144786Y-11622500D01*
X9173357Y-11608214D01*
X9630500Y-11908214D02*
X9630500Y-11608214D01*
X9759071Y-11908214D02*
X9759071Y-11751071D01*
X9744786Y-11722500D01*
X9716214Y-11708214D01*
X9673357Y-11708214D01*
X9644786Y-11722500D01*
X9630500Y-11736786D01*
X9944786Y-11908214D02*
X9916214Y-11893929D01*
X9901928Y-11879643D01*
X9887643Y-11851071D01*
X9887643Y-11765357D01*
X9901928Y-11736786D01*
X9916214Y-11722500D01*
X9944786Y-11708214D01*
X9987643Y-11708214D01*
X10016214Y-11722500D01*
X10030500Y-11736786D01*
X10044786Y-11765357D01*
X10044786Y-11851071D01*
X10030500Y-11879643D01*
X10016214Y-11893929D01*
X9987643Y-11908214D01*
X9944786Y-11908214D01*
X10216214Y-11908214D02*
X10187643Y-11893929D01*
X10173357Y-11865357D01*
X10173357Y-11608214D01*
X10444786Y-11893929D02*
X10416214Y-11908214D01*
X10359071Y-11908214D01*
X10330500Y-11893929D01*
X10316214Y-11865357D01*
X10316214Y-11751071D01*
X10330500Y-11722500D01*
X10359071Y-11708214D01*
X10416214Y-11708214D01*
X10444786Y-11722500D01*
X10459071Y-11751071D01*
X10459071Y-11779643D01*
X10316214Y-11808214D01*
X10573357Y-11893929D02*
X10601928Y-11908214D01*
X10659071Y-11908214D01*
X10687643Y-11893929D01*
X10701928Y-11865357D01*
X10701928Y-11851071D01*
X10687643Y-11822500D01*
X10659071Y-11808214D01*
X10616214Y-11808214D01*
X10587643Y-11793929D01*
X10573357Y-11765357D01*
X10573357Y-11751071D01*
X10587643Y-11722500D01*
X10616214Y-11708214D01*
X10659071Y-11708214D01*
X10687643Y-11722500D01*
X11059071Y-11793929D02*
X11287643Y-11793929D01*
X11173357Y-11908214D02*
X11173357Y-11679643D01*
X11644786Y-11636786D02*
X11659071Y-11622500D01*
X11687643Y-11608214D01*
X11759071Y-11608214D01*
X11787643Y-11622500D01*
X11801928Y-11636786D01*
X11816214Y-11665357D01*
X11816214Y-11693929D01*
X11801928Y-11736786D01*
X11630500Y-11908214D01*
X11816214Y-11908214D01*
X12159071Y-11893929D02*
X12187643Y-11908214D01*
X12244786Y-11908214D01*
X12273357Y-11893929D01*
X12287643Y-11865357D01*
X12287643Y-11851071D01*
X12273357Y-11822500D01*
X12244786Y-11808214D01*
X12201928Y-11808214D01*
X12173357Y-11793929D01*
X12159071Y-11765357D01*
X12159071Y-11751071D01*
X12173357Y-11722500D01*
X12201928Y-11708214D01*
X12244786Y-11708214D01*
X12273357Y-11722500D01*
X12459071Y-11908214D02*
X12430500Y-11893929D01*
X12416214Y-11865357D01*
X12416214Y-11608214D01*
X12616214Y-11908214D02*
X12587643Y-11893929D01*
X12573357Y-11879643D01*
X12559071Y-11851071D01*
X12559071Y-11765357D01*
X12573357Y-11736786D01*
X12587643Y-11722500D01*
X12616214Y-11708214D01*
X12659071Y-11708214D01*
X12687643Y-11722500D01*
X12701928Y-11736786D01*
X12716214Y-11765357D01*
X12716214Y-11851071D01*
X12701928Y-11879643D01*
X12687643Y-11893929D01*
X12659071Y-11908214D01*
X12616214Y-11908214D01*
X12801928Y-11708214D02*
X12916214Y-11708214D01*
X12844786Y-11608214D02*
X12844786Y-11865357D01*
X12859071Y-11893929D01*
X12887643Y-11908214D01*
X12916214Y-11908214D01*
X13001928Y-11893929D02*
X13030500Y-11908214D01*
X13087643Y-11908214D01*
X13116214Y-11893929D01*
X13130500Y-11865357D01*
X13130500Y-11851071D01*
X13116214Y-11822500D01*
X13087643Y-11808214D01*
X13044786Y-11808214D01*
X13016214Y-11793929D01*
X13001928Y-11765357D01*
X13001928Y-11751071D01*
X13016214Y-11722500D01*
X13044786Y-11708214D01*
X13087643Y-11708214D01*
X13116214Y-11722500D01*
X13230500Y-12022500D02*
X13244786Y-12008214D01*
X13273357Y-11965357D01*
X13287643Y-11936786D01*
X13301928Y-11893929D01*
X13316214Y-11822500D01*
X13316214Y-11765357D01*
X13301928Y-11693929D01*
X13287643Y-11651071D01*
X13273357Y-11622500D01*
X13244786Y-11579643D01*
X13230500Y-11565357D01*
X13773357Y-12022500D02*
X13759071Y-12008214D01*
X13730500Y-11965357D01*
X13716214Y-11936786D01*
X13701928Y-11893929D01*
X13687643Y-11822500D01*
X13687643Y-11765357D01*
X13701928Y-11693929D01*
X13716214Y-11651071D01*
X13730500Y-11622500D01*
X13759071Y-11579643D01*
X13773357Y-11565357D01*
X13887643Y-11708214D02*
X13887643Y-11908214D01*
X13887643Y-11736786D02*
X13901928Y-11722500D01*
X13930500Y-11708214D01*
X13973357Y-11708214D01*
X14001928Y-11722500D01*
X14016214Y-11751071D01*
X14016214Y-11908214D01*
X14201928Y-11908214D02*
X14173357Y-11893929D01*
X14159071Y-11879643D01*
X14144786Y-11851071D01*
X14144786Y-11765357D01*
X14159071Y-11736786D01*
X14173357Y-11722500D01*
X14201928Y-11708214D01*
X14244786Y-11708214D01*
X14273357Y-11722500D01*
X14287643Y-11736786D01*
X14301928Y-11765357D01*
X14301928Y-11851071D01*
X14287643Y-11879643D01*
X14273357Y-11893929D01*
X14244786Y-11908214D01*
X14201928Y-11908214D01*
X14387643Y-11708214D02*
X14501928Y-11708214D01*
X14430500Y-11608214D02*
X14430500Y-11865357D01*
X14444786Y-11893929D01*
X14473357Y-11908214D01*
X14501928Y-11908214D01*
X14830500Y-11708214D02*
X14830500Y-12008214D01*
X14830500Y-11722500D02*
X14859071Y-11708214D01*
X14916214Y-11708214D01*
X14944786Y-11722500D01*
X14959071Y-11736786D01*
X14973357Y-11765357D01*
X14973357Y-11851071D01*
X14959071Y-11879643D01*
X14944786Y-11893929D01*
X14916214Y-11908214D01*
X14859071Y-11908214D01*
X14830500Y-11893929D01*
X15144786Y-11908214D02*
X15116214Y-11893929D01*
X15101928Y-11865357D01*
X15101928Y-11608214D01*
X15387643Y-11908214D02*
X15387643Y-11751071D01*
X15373357Y-11722500D01*
X15344786Y-11708214D01*
X15287643Y-11708214D01*
X15259071Y-11722500D01*
X15387643Y-11893929D02*
X15359071Y-11908214D01*
X15287643Y-11908214D01*
X15259071Y-11893929D01*
X15244786Y-11865357D01*
X15244786Y-11836786D01*
X15259071Y-11808214D01*
X15287643Y-11793929D01*
X15359071Y-11793929D01*
X15387643Y-11779643D01*
X15487643Y-11708214D02*
X15601928Y-11708214D01*
X15530500Y-11608214D02*
X15530500Y-11865357D01*
X15544786Y-11893929D01*
X15573357Y-11908214D01*
X15601928Y-11908214D01*
X15816214Y-11893929D02*
X15787643Y-11908214D01*
X15730500Y-11908214D01*
X15701928Y-11893929D01*
X15687643Y-11865357D01*
X15687643Y-11751071D01*
X15701928Y-11722500D01*
X15730500Y-11708214D01*
X15787643Y-11708214D01*
X15816214Y-11722500D01*
X15830500Y-11751071D01*
X15830500Y-11779643D01*
X15687643Y-11808214D01*
X16087643Y-11908214D02*
X16087643Y-11608214D01*
X16087643Y-11893929D02*
X16059071Y-11908214D01*
X16001928Y-11908214D01*
X15973357Y-11893929D01*
X15959071Y-11879643D01*
X15944786Y-11851071D01*
X15944786Y-11765357D01*
X15959071Y-11736786D01*
X15973357Y-11722500D01*
X16001928Y-11708214D01*
X16059071Y-11708214D01*
X16087643Y-11722500D01*
X16201928Y-12022500D02*
X16216214Y-12008214D01*
X16244786Y-11965357D01*
X16259071Y-11936786D01*
X16273357Y-11893929D01*
X16287643Y-11822500D01*
X16287643Y-11765357D01*
X16273357Y-11693929D01*
X16259071Y-11651071D01*
X16244786Y-11622500D01*
X16216214Y-11579643D01*
X16201928Y-11565357D01*
X4165500Y-12018500D02*
X4165500Y-12318500D01*
X4015500Y-12168500D02*
X4315500Y-12168500D01*
X4573357Y-12004214D02*
X4759071Y-12004214D01*
X4659071Y-12118500D01*
X4701928Y-12118500D01*
X4730500Y-12132786D01*
X4744786Y-12147071D01*
X4759071Y-12175643D01*
X4759071Y-12247071D01*
X4744786Y-12275643D01*
X4730500Y-12289929D01*
X4701928Y-12304214D01*
X4616214Y-12304214D01*
X4587643Y-12289929D01*
X4573357Y-12275643D01*
X4887643Y-12275643D02*
X4901928Y-12289929D01*
X4887643Y-12304214D01*
X4873357Y-12289929D01*
X4887643Y-12275643D01*
X4887643Y-12304214D01*
X5087643Y-12004214D02*
X5116214Y-12004214D01*
X5144786Y-12018500D01*
X5159071Y-12032786D01*
X5173357Y-12061357D01*
X5187643Y-12118500D01*
X5187643Y-12189929D01*
X5173357Y-12247071D01*
X5159071Y-12275643D01*
X5144786Y-12289929D01*
X5116214Y-12304214D01*
X5087643Y-12304214D01*
X5059071Y-12289929D01*
X5044786Y-12275643D01*
X5030500Y-12247071D01*
X5016214Y-12189929D01*
X5016214Y-12118500D01*
X5030500Y-12061357D01*
X5044786Y-12032786D01*
X5059071Y-12018500D01*
X5087643Y-12004214D01*
X5373357Y-12004214D02*
X5401928Y-12004214D01*
X5430500Y-12018500D01*
X5444786Y-12032786D01*
X5459071Y-12061357D01*
X5473357Y-12118500D01*
X5473357Y-12189929D01*
X5459071Y-12247071D01*
X5444786Y-12275643D01*
X5430500Y-12289929D01*
X5401928Y-12304214D01*
X5373357Y-12304214D01*
X5344786Y-12289929D01*
X5330500Y-12275643D01*
X5316214Y-12247071D01*
X5301928Y-12189929D01*
X5301928Y-12118500D01*
X5316214Y-12061357D01*
X5330500Y-12032786D01*
X5344786Y-12018500D01*
X5373357Y-12004214D01*
X5601928Y-12304214D02*
X5601928Y-12104214D01*
X5601928Y-12132786D02*
X5616214Y-12118500D01*
X5644786Y-12104214D01*
X5687643Y-12104214D01*
X5716214Y-12118500D01*
X5730500Y-12147071D01*
X5730500Y-12304214D01*
X5730500Y-12147071D02*
X5744786Y-12118500D01*
X5773357Y-12104214D01*
X5816214Y-12104214D01*
X5844786Y-12118500D01*
X5859071Y-12147071D01*
X5859071Y-12304214D01*
X6001928Y-12304214D02*
X6001928Y-12104214D01*
X6001928Y-12132786D02*
X6016214Y-12118500D01*
X6044786Y-12104214D01*
X6087643Y-12104214D01*
X6116214Y-12118500D01*
X6130500Y-12147071D01*
X6130500Y-12304214D01*
X6130500Y-12147071D02*
X6144786Y-12118500D01*
X6173357Y-12104214D01*
X6216214Y-12104214D01*
X6244786Y-12118500D01*
X6259071Y-12147071D01*
X6259071Y-12304214D01*
X6844786Y-11989929D02*
X6587643Y-12375643D01*
X7230500Y-12004214D02*
X7259071Y-12004214D01*
X7287643Y-12018500D01*
X7301928Y-12032786D01*
X7316214Y-12061357D01*
X7330500Y-12118500D01*
X7330500Y-12189929D01*
X7316214Y-12247071D01*
X7301928Y-12275643D01*
X7287643Y-12289929D01*
X7259071Y-12304214D01*
X7230500Y-12304214D01*
X7201928Y-12289929D01*
X7187643Y-12275643D01*
X7173357Y-12247071D01*
X7159071Y-12189929D01*
X7159071Y-12118500D01*
X7173357Y-12061357D01*
X7187643Y-12032786D01*
X7201928Y-12018500D01*
X7230500Y-12004214D01*
X7459071Y-12275643D02*
X7473357Y-12289929D01*
X7459071Y-12304214D01*
X7444786Y-12289929D01*
X7459071Y-12275643D01*
X7459071Y-12304214D01*
X7759071Y-12304214D02*
X7587643Y-12304214D01*
X7673357Y-12304214D02*
X7673357Y-12004214D01*
X7644786Y-12047071D01*
X7616214Y-12075643D01*
X7587643Y-12089929D01*
X8044786Y-12304214D02*
X7873357Y-12304214D01*
X7959071Y-12304214D02*
X7959071Y-12004214D01*
X7930500Y-12047071D01*
X7901928Y-12075643D01*
X7873357Y-12089929D01*
X8216214Y-12132786D02*
X8187643Y-12118500D01*
X8173357Y-12104214D01*
X8159071Y-12075643D01*
X8159071Y-12061357D01*
X8173357Y-12032786D01*
X8187643Y-12018500D01*
X8216214Y-12004214D01*
X8273357Y-12004214D01*
X8301928Y-12018500D01*
X8316214Y-12032786D01*
X8330500Y-12061357D01*
X8330500Y-12075643D01*
X8316214Y-12104214D01*
X8301928Y-12118500D01*
X8273357Y-12132786D01*
X8216214Y-12132786D01*
X8187643Y-12147071D01*
X8173357Y-12161357D01*
X8159071Y-12189929D01*
X8159071Y-12247071D01*
X8173357Y-12275643D01*
X8187643Y-12289929D01*
X8216214Y-12304214D01*
X8273357Y-12304214D01*
X8301928Y-12289929D01*
X8316214Y-12275643D01*
X8330500Y-12247071D01*
X8330500Y-12189929D01*
X8316214Y-12161357D01*
X8301928Y-12147071D01*
X8273357Y-12132786D01*
X8444786Y-12004214D02*
X8444786Y-12061357D01*
X8559071Y-12004214D02*
X8559071Y-12061357D01*
X9001928Y-12418500D02*
X8987643Y-12404214D01*
X8959071Y-12361357D01*
X8944786Y-12332786D01*
X8930500Y-12289929D01*
X8916214Y-12218500D01*
X8916214Y-12161357D01*
X8930500Y-12089929D01*
X8944786Y-12047071D01*
X8959071Y-12018500D01*
X8987643Y-11975643D01*
X9001928Y-11961357D01*
X9173357Y-12004214D02*
X9201928Y-12004214D01*
X9230500Y-12018500D01*
X9244786Y-12032786D01*
X9259071Y-12061357D01*
X9273357Y-12118500D01*
X9273357Y-12189929D01*
X9259071Y-12247071D01*
X9244786Y-12275643D01*
X9230500Y-12289929D01*
X9201928Y-12304214D01*
X9173357Y-12304214D01*
X9144786Y-12289929D01*
X9130500Y-12275643D01*
X9116214Y-12247071D01*
X9101928Y-12189929D01*
X9101928Y-12118500D01*
X9116214Y-12061357D01*
X9130500Y-12032786D01*
X9144786Y-12018500D01*
X9173357Y-12004214D01*
X9630500Y-12304214D02*
X9630500Y-12004214D01*
X9759071Y-12304214D02*
X9759071Y-12147071D01*
X9744786Y-12118500D01*
X9716214Y-12104214D01*
X9673357Y-12104214D01*
X9644786Y-12118500D01*
X9630500Y-12132786D01*
X9944786Y-12304214D02*
X9916214Y-12289929D01*
X9901928Y-12275643D01*
X9887643Y-12247071D01*
X9887643Y-12161357D01*
X9901928Y-12132786D01*
X9916214Y-12118500D01*
X9944786Y-12104214D01*
X9987643Y-12104214D01*
X10016214Y-12118500D01*
X10030500Y-12132786D01*
X10044786Y-12161357D01*
X10044786Y-12247071D01*
X10030500Y-12275643D01*
X10016214Y-12289929D01*
X9987643Y-12304214D01*
X9944786Y-12304214D01*
X10216214Y-12304214D02*
X10187643Y-12289929D01*
X10173357Y-12261357D01*
X10173357Y-12004214D01*
X10444786Y-12289929D02*
X10416214Y-12304214D01*
X10359071Y-12304214D01*
X10330500Y-12289929D01*
X10316214Y-12261357D01*
X10316214Y-12147071D01*
X10330500Y-12118500D01*
X10359071Y-12104214D01*
X10416214Y-12104214D01*
X10444786Y-12118500D01*
X10459071Y-12147071D01*
X10459071Y-12175643D01*
X10316214Y-12204214D01*
X10573357Y-12289929D02*
X10601928Y-12304214D01*
X10659071Y-12304214D01*
X10687643Y-12289929D01*
X10701928Y-12261357D01*
X10701928Y-12247071D01*
X10687643Y-12218500D01*
X10659071Y-12204214D01*
X10616214Y-12204214D01*
X10587643Y-12189929D01*
X10573357Y-12161357D01*
X10573357Y-12147071D01*
X10587643Y-12118500D01*
X10616214Y-12104214D01*
X10659071Y-12104214D01*
X10687643Y-12118500D01*
X11059071Y-12189929D02*
X11287643Y-12189929D01*
X11173357Y-12304214D02*
X11173357Y-12075643D01*
X11644786Y-12032786D02*
X11659071Y-12018500D01*
X11687643Y-12004214D01*
X11759071Y-12004214D01*
X11787643Y-12018500D01*
X11801928Y-12032786D01*
X11816214Y-12061357D01*
X11816214Y-12089929D01*
X11801928Y-12132786D01*
X11630500Y-12304214D01*
X11816214Y-12304214D01*
X12159071Y-12289929D02*
X12187643Y-12304214D01*
X12244786Y-12304214D01*
X12273357Y-12289929D01*
X12287643Y-12261357D01*
X12287643Y-12247071D01*
X12273357Y-12218500D01*
X12244786Y-12204214D01*
X12201928Y-12204214D01*
X12173357Y-12189929D01*
X12159071Y-12161357D01*
X12159071Y-12147071D01*
X12173357Y-12118500D01*
X12201928Y-12104214D01*
X12244786Y-12104214D01*
X12273357Y-12118500D01*
X12459071Y-12304214D02*
X12430500Y-12289929D01*
X12416214Y-12261357D01*
X12416214Y-12004214D01*
X12616214Y-12304214D02*
X12587643Y-12289929D01*
X12573357Y-12275643D01*
X12559071Y-12247071D01*
X12559071Y-12161357D01*
X12573357Y-12132786D01*
X12587643Y-12118500D01*
X12616214Y-12104214D01*
X12659071Y-12104214D01*
X12687643Y-12118500D01*
X12701928Y-12132786D01*
X12716214Y-12161357D01*
X12716214Y-12247071D01*
X12701928Y-12275643D01*
X12687643Y-12289929D01*
X12659071Y-12304214D01*
X12616214Y-12304214D01*
X12801928Y-12104214D02*
X12916214Y-12104214D01*
X12844786Y-12004214D02*
X12844786Y-12261357D01*
X12859071Y-12289929D01*
X12887643Y-12304214D01*
X12916214Y-12304214D01*
X13001928Y-12289929D02*
X13030500Y-12304214D01*
X13087643Y-12304214D01*
X13116214Y-12289929D01*
X13130500Y-12261357D01*
X13130500Y-12247071D01*
X13116214Y-12218500D01*
X13087643Y-12204214D01*
X13044786Y-12204214D01*
X13016214Y-12189929D01*
X13001928Y-12161357D01*
X13001928Y-12147071D01*
X13016214Y-12118500D01*
X13044786Y-12104214D01*
X13087643Y-12104214D01*
X13116214Y-12118500D01*
X13230500Y-12418500D02*
X13244786Y-12404214D01*
X13273357Y-12361357D01*
X13287643Y-12332786D01*
X13301928Y-12289929D01*
X13316214Y-12218500D01*
X13316214Y-12161357D01*
X13301928Y-12089929D01*
X13287643Y-12047071D01*
X13273357Y-12018500D01*
X13244786Y-11975643D01*
X13230500Y-11961357D01*
X13773357Y-12418500D02*
X13759071Y-12404214D01*
X13730500Y-12361357D01*
X13716214Y-12332786D01*
X13701928Y-12289929D01*
X13687643Y-12218500D01*
X13687643Y-12161357D01*
X13701928Y-12089929D01*
X13716214Y-12047071D01*
X13730500Y-12018500D01*
X13759071Y-11975643D01*
X13773357Y-11961357D01*
X13887643Y-12104214D02*
X13887643Y-12304214D01*
X13887643Y-12132786D02*
X13901928Y-12118500D01*
X13930500Y-12104214D01*
X13973357Y-12104214D01*
X14001928Y-12118500D01*
X14016214Y-12147071D01*
X14016214Y-12304214D01*
X14201928Y-12304214D02*
X14173357Y-12289929D01*
X14159071Y-12275643D01*
X14144786Y-12247071D01*
X14144786Y-12161357D01*
X14159071Y-12132786D01*
X14173357Y-12118500D01*
X14201928Y-12104214D01*
X14244786Y-12104214D01*
X14273357Y-12118500D01*
X14287643Y-12132786D01*
X14301928Y-12161357D01*
X14301928Y-12247071D01*
X14287643Y-12275643D01*
X14273357Y-12289929D01*
X14244786Y-12304214D01*
X14201928Y-12304214D01*
X14387643Y-12104214D02*
X14501928Y-12104214D01*
X14430500Y-12004214D02*
X14430500Y-12261357D01*
X14444786Y-12289929D01*
X14473357Y-12304214D01*
X14501928Y-12304214D01*
X14830500Y-12104214D02*
X14830500Y-12404214D01*
X14830500Y-12118500D02*
X14859071Y-12104214D01*
X14916214Y-12104214D01*
X14944786Y-12118500D01*
X14959071Y-12132786D01*
X14973357Y-12161357D01*
X14973357Y-12247071D01*
X14959071Y-12275643D01*
X14944786Y-12289929D01*
X14916214Y-12304214D01*
X14859071Y-12304214D01*
X14830500Y-12289929D01*
X15144786Y-12304214D02*
X15116214Y-12289929D01*
X15101928Y-12261357D01*
X15101928Y-12004214D01*
X15387643Y-12304214D02*
X15387643Y-12147071D01*
X15373357Y-12118500D01*
X15344786Y-12104214D01*
X15287643Y-12104214D01*
X15259071Y-12118500D01*
X15387643Y-12289929D02*
X15359071Y-12304214D01*
X15287643Y-12304214D01*
X15259071Y-12289929D01*
X15244786Y-12261357D01*
X15244786Y-12232786D01*
X15259071Y-12204214D01*
X15287643Y-12189929D01*
X15359071Y-12189929D01*
X15387643Y-12175643D01*
X15487643Y-12104214D02*
X15601928Y-12104214D01*
X15530500Y-12004214D02*
X15530500Y-12261357D01*
X15544786Y-12289929D01*
X15573357Y-12304214D01*
X15601928Y-12304214D01*
X15816214Y-12289929D02*
X15787643Y-12304214D01*
X15730500Y-12304214D01*
X15701928Y-12289929D01*
X15687643Y-12261357D01*
X15687643Y-12147071D01*
X15701928Y-12118500D01*
X15730500Y-12104214D01*
X15787643Y-12104214D01*
X15816214Y-12118500D01*
X15830500Y-12147071D01*
X15830500Y-12175643D01*
X15687643Y-12204214D01*
X16087643Y-12304214D02*
X16087643Y-12004214D01*
X16087643Y-12289929D02*
X16059071Y-12304214D01*
X16001928Y-12304214D01*
X15973357Y-12289929D01*
X15959071Y-12275643D01*
X15944786Y-12247071D01*
X15944786Y-12161357D01*
X15959071Y-12132786D01*
X15973357Y-12118500D01*
X16001928Y-12104214D01*
X16059071Y-12104214D01*
X16087643Y-12118500D01*
X16201928Y-12418500D02*
X16216214Y-12404214D01*
X16244786Y-12361357D01*
X16259071Y-12332786D01*
X16273357Y-12289929D01*
X16287643Y-12218500D01*
X16287643Y-12161357D01*
X16273357Y-12089929D01*
X16259071Y-12047071D01*
X16244786Y-12018500D01*
X16216214Y-11975643D01*
X16201928Y-11961357D01*
X4268638Y-12711638D02*
X4268638Y-12485362D01*
X4042362Y-12485362D01*
X4042362Y-12711638D01*
X4268638Y-12711638D01*
X4573357Y-12434214D02*
X4759071Y-12434214D01*
X4659071Y-12548500D01*
X4701928Y-12548500D01*
X4730500Y-12562786D01*
X4744786Y-12577071D01*
X4759071Y-12605643D01*
X4759071Y-12677071D01*
X4744786Y-12705643D01*
X4730500Y-12719929D01*
X4701928Y-12734214D01*
X4616214Y-12734214D01*
X4587643Y-12719929D01*
X4573357Y-12705643D01*
X4887643Y-12705643D02*
X4901928Y-12719929D01*
X4887643Y-12734214D01*
X4873357Y-12719929D01*
X4887643Y-12705643D01*
X4887643Y-12734214D01*
X5016214Y-12462786D02*
X5030500Y-12448500D01*
X5059071Y-12434214D01*
X5130500Y-12434214D01*
X5159071Y-12448500D01*
X5173357Y-12462786D01*
X5187643Y-12491357D01*
X5187643Y-12519929D01*
X5173357Y-12562786D01*
X5001928Y-12734214D01*
X5187643Y-12734214D01*
X5373357Y-12434214D02*
X5401928Y-12434214D01*
X5430500Y-12448500D01*
X5444786Y-12462786D01*
X5459071Y-12491357D01*
X5473357Y-12548500D01*
X5473357Y-12619929D01*
X5459071Y-12677071D01*
X5444786Y-12705643D01*
X5430500Y-12719929D01*
X5401928Y-12734214D01*
X5373357Y-12734214D01*
X5344786Y-12719929D01*
X5330500Y-12705643D01*
X5316214Y-12677071D01*
X5301928Y-12619929D01*
X5301928Y-12548500D01*
X5316214Y-12491357D01*
X5330500Y-12462786D01*
X5344786Y-12448500D01*
X5373357Y-12434214D01*
X5601928Y-12734214D02*
X5601928Y-12534214D01*
X5601928Y-12562786D02*
X5616214Y-12548500D01*
X5644786Y-12534214D01*
X5687643Y-12534214D01*
X5716214Y-12548500D01*
X5730500Y-12577071D01*
X5730500Y-12734214D01*
X5730500Y-12577071D02*
X5744786Y-12548500D01*
X5773357Y-12534214D01*
X5816214Y-12534214D01*
X5844786Y-12548500D01*
X5859071Y-12577071D01*
X5859071Y-12734214D01*
X6001928Y-12734214D02*
X6001928Y-12534214D01*
X6001928Y-12562786D02*
X6016214Y-12548500D01*
X6044786Y-12534214D01*
X6087643Y-12534214D01*
X6116214Y-12548500D01*
X6130500Y-12577071D01*
X6130500Y-12734214D01*
X6130500Y-12577071D02*
X6144786Y-12548500D01*
X6173357Y-12534214D01*
X6216214Y-12534214D01*
X6244786Y-12548500D01*
X6259071Y-12577071D01*
X6259071Y-12734214D01*
X6844786Y-12419929D02*
X6587643Y-12805643D01*
X7230500Y-12434214D02*
X7259071Y-12434214D01*
X7287643Y-12448500D01*
X7301928Y-12462786D01*
X7316214Y-12491357D01*
X7330500Y-12548500D01*
X7330500Y-12619929D01*
X7316214Y-12677071D01*
X7301928Y-12705643D01*
X7287643Y-12719929D01*
X7259071Y-12734214D01*
X7230500Y-12734214D01*
X7201928Y-12719929D01*
X7187643Y-12705643D01*
X7173357Y-12677071D01*
X7159071Y-12619929D01*
X7159071Y-12548500D01*
X7173357Y-12491357D01*
X7187643Y-12462786D01*
X7201928Y-12448500D01*
X7230500Y-12434214D01*
X7459071Y-12705643D02*
X7473357Y-12719929D01*
X7459071Y-12734214D01*
X7444786Y-12719929D01*
X7459071Y-12705643D01*
X7459071Y-12734214D01*
X7759071Y-12734214D02*
X7587643Y-12734214D01*
X7673357Y-12734214D02*
X7673357Y-12434214D01*
X7644786Y-12477071D01*
X7616214Y-12505643D01*
X7587643Y-12519929D01*
X7873357Y-12462786D02*
X7887643Y-12448500D01*
X7916214Y-12434214D01*
X7987643Y-12434214D01*
X8016214Y-12448500D01*
X8030500Y-12462786D01*
X8044786Y-12491357D01*
X8044786Y-12519929D01*
X8030500Y-12562786D01*
X7859071Y-12734214D01*
X8044786Y-12734214D01*
X8301928Y-12434214D02*
X8244786Y-12434214D01*
X8216214Y-12448500D01*
X8201928Y-12462786D01*
X8173357Y-12505643D01*
X8159071Y-12562786D01*
X8159071Y-12677071D01*
X8173357Y-12705643D01*
X8187643Y-12719929D01*
X8216214Y-12734214D01*
X8273357Y-12734214D01*
X8301928Y-12719929D01*
X8316214Y-12705643D01*
X8330500Y-12677071D01*
X8330500Y-12605643D01*
X8316214Y-12577071D01*
X8301928Y-12562786D01*
X8273357Y-12548500D01*
X8216214Y-12548500D01*
X8187643Y-12562786D01*
X8173357Y-12577071D01*
X8159071Y-12605643D01*
X8444786Y-12434214D02*
X8444786Y-12491357D01*
X8559071Y-12434214D02*
X8559071Y-12491357D01*
X9001928Y-12848500D02*
X8987643Y-12834214D01*
X8959071Y-12791357D01*
X8944786Y-12762786D01*
X8930500Y-12719929D01*
X8916214Y-12648500D01*
X8916214Y-12591357D01*
X8930500Y-12519929D01*
X8944786Y-12477071D01*
X8959071Y-12448500D01*
X8987643Y-12405643D01*
X9001928Y-12391357D01*
X9087643Y-12434214D02*
X9273357Y-12434214D01*
X9173357Y-12548500D01*
X9216214Y-12548500D01*
X9244786Y-12562786D01*
X9259071Y-12577071D01*
X9273357Y-12605643D01*
X9273357Y-12677071D01*
X9259071Y-12705643D01*
X9244786Y-12719929D01*
X9216214Y-12734214D01*
X9130500Y-12734214D01*
X9101928Y-12719929D01*
X9087643Y-12705643D01*
X9630500Y-12734214D02*
X9630500Y-12434214D01*
X9759071Y-12734214D02*
X9759071Y-12577071D01*
X9744786Y-12548500D01*
X9716214Y-12534214D01*
X9673357Y-12534214D01*
X9644786Y-12548500D01*
X9630500Y-12562786D01*
X9944786Y-12734214D02*
X9916214Y-12719929D01*
X9901928Y-12705643D01*
X9887643Y-12677071D01*
X9887643Y-12591357D01*
X9901928Y-12562786D01*
X9916214Y-12548500D01*
X9944786Y-12534214D01*
X9987643Y-12534214D01*
X10016214Y-12548500D01*
X10030500Y-12562786D01*
X10044786Y-12591357D01*
X10044786Y-12677071D01*
X10030500Y-12705643D01*
X10016214Y-12719929D01*
X9987643Y-12734214D01*
X9944786Y-12734214D01*
X10216214Y-12734214D02*
X10187643Y-12719929D01*
X10173357Y-12691357D01*
X10173357Y-12434214D01*
X10444786Y-12719929D02*
X10416214Y-12734214D01*
X10359071Y-12734214D01*
X10330500Y-12719929D01*
X10316214Y-12691357D01*
X10316214Y-12577071D01*
X10330500Y-12548500D01*
X10359071Y-12534214D01*
X10416214Y-12534214D01*
X10444786Y-12548500D01*
X10459071Y-12577071D01*
X10459071Y-12605643D01*
X10316214Y-12634214D01*
X10573357Y-12719929D02*
X10601928Y-12734214D01*
X10659071Y-12734214D01*
X10687643Y-12719929D01*
X10701928Y-12691357D01*
X10701928Y-12677071D01*
X10687643Y-12648500D01*
X10659071Y-12634214D01*
X10616214Y-12634214D01*
X10587643Y-12619929D01*
X10573357Y-12591357D01*
X10573357Y-12577071D01*
X10587643Y-12548500D01*
X10616214Y-12534214D01*
X10659071Y-12534214D01*
X10687643Y-12548500D01*
X10801928Y-12848500D02*
X10816214Y-12834214D01*
X10844786Y-12791357D01*
X10859071Y-12762786D01*
X10873357Y-12719929D01*
X10887643Y-12648500D01*
X10887643Y-12591357D01*
X10873357Y-12519929D01*
X10859071Y-12477071D01*
X10844786Y-12448500D01*
X10816214Y-12405643D01*
X10801928Y-12391357D01*
X11344786Y-12848500D02*
X11330500Y-12834214D01*
X11301928Y-12791357D01*
X11287643Y-12762786D01*
X11273357Y-12719929D01*
X11259071Y-12648500D01*
X11259071Y-12591357D01*
X11273357Y-12519929D01*
X11287643Y-12477071D01*
X11301928Y-12448500D01*
X11330500Y-12405643D01*
X11344786Y-12391357D01*
X11459071Y-12534214D02*
X11459071Y-12734214D01*
X11459071Y-12562786D02*
X11473357Y-12548500D01*
X11501928Y-12534214D01*
X11544786Y-12534214D01*
X11573357Y-12548500D01*
X11587643Y-12577071D01*
X11587643Y-12734214D01*
X11773357Y-12734214D02*
X11744786Y-12719929D01*
X11730500Y-12705643D01*
X11716214Y-12677071D01*
X11716214Y-12591357D01*
X11730500Y-12562786D01*
X11744786Y-12548500D01*
X11773357Y-12534214D01*
X11816214Y-12534214D01*
X11844786Y-12548500D01*
X11859071Y-12562786D01*
X11873357Y-12591357D01*
X11873357Y-12677071D01*
X11859071Y-12705643D01*
X11844786Y-12719929D01*
X11816214Y-12734214D01*
X11773357Y-12734214D01*
X11959071Y-12534214D02*
X12073357Y-12534214D01*
X12001928Y-12434214D02*
X12001928Y-12691357D01*
X12016214Y-12719929D01*
X12044786Y-12734214D01*
X12073357Y-12734214D01*
X12401928Y-12534214D02*
X12401928Y-12834214D01*
X12401928Y-12548500D02*
X12430500Y-12534214D01*
X12487643Y-12534214D01*
X12516214Y-12548500D01*
X12530500Y-12562786D01*
X12544786Y-12591357D01*
X12544786Y-12677071D01*
X12530500Y-12705643D01*
X12516214Y-12719929D01*
X12487643Y-12734214D01*
X12430500Y-12734214D01*
X12401928Y-12719929D01*
X12716214Y-12734214D02*
X12687643Y-12719929D01*
X12673357Y-12691357D01*
X12673357Y-12434214D01*
X12959071Y-12734214D02*
X12959071Y-12577071D01*
X12944786Y-12548500D01*
X12916214Y-12534214D01*
X12859071Y-12534214D01*
X12830500Y-12548500D01*
X12959071Y-12719929D02*
X12930500Y-12734214D01*
X12859071Y-12734214D01*
X12830500Y-12719929D01*
X12816214Y-12691357D01*
X12816214Y-12662786D01*
X12830500Y-12634214D01*
X12859071Y-12619929D01*
X12930500Y-12619929D01*
X12959071Y-12605643D01*
X13059071Y-12534214D02*
X13173357Y-12534214D01*
X13101928Y-12434214D02*
X13101928Y-12691357D01*
X13116214Y-12719929D01*
X13144786Y-12734214D01*
X13173357Y-12734214D01*
X13387643Y-12719929D02*
X13359071Y-12734214D01*
X13301928Y-12734214D01*
X13273357Y-12719929D01*
X13259071Y-12691357D01*
X13259071Y-12577071D01*
X13273357Y-12548500D01*
X13301928Y-12534214D01*
X13359071Y-12534214D01*
X13387643Y-12548500D01*
X13401928Y-12577071D01*
X13401928Y-12605643D01*
X13259071Y-12634214D01*
X13659071Y-12734214D02*
X13659071Y-12434214D01*
X13659071Y-12719929D02*
X13630500Y-12734214D01*
X13573357Y-12734214D01*
X13544786Y-12719929D01*
X13530500Y-12705643D01*
X13516214Y-12677071D01*
X13516214Y-12591357D01*
X13530500Y-12562786D01*
X13544786Y-12548500D01*
X13573357Y-12534214D01*
X13630500Y-12534214D01*
X13659071Y-12548500D01*
X13773357Y-12848500D02*
X13787643Y-12834214D01*
X13816214Y-12791357D01*
X13830500Y-12762786D01*
X13844786Y-12719929D01*
X13859071Y-12648500D01*
X13859071Y-12591357D01*
X13844786Y-12519929D01*
X13830500Y-12477071D01*
X13816214Y-12448500D01*
X13787643Y-12405643D01*
X13773357Y-12391357D01*
M02*
