G04 #@! TF.GenerationSoftware,KiCad,Pcbnew,(5.1.2-1)-1*
G04 #@! TF.CreationDate,2023-07-30T19:13:35+02:00*
G04 #@! TF.ProjectId,component,636f6d70-6f6e-4656-9e74-2e6b69636164,rev?*
G04 #@! TF.SameCoordinates,Original*
G04 #@! TF.FileFunction,Copper,L2,Bot*
G04 #@! TF.FilePolarity,Positive*
%FSLAX46Y46*%
G04 Gerber Fmt 4.6, Leading zero omitted, Abs format (unit mm)*
G04 Created by KiCad (PCBNEW (5.1.2-1)-1) date 2023-07-30 19:13:35*
%MOMM*%
%LPD*%
G04 APERTURE LIST*
%ADD10O,3.200000X1.900000*%
%ADD11C,2.000000*%
%ADD12C,2.200000*%
%ADD13O,1.600000X1.600000*%
%ADD14C,1.600000*%
%ADD15R,1.050000X1.500000*%
%ADD16O,1.050000X1.500000*%
%ADD17O,3.200000X2.100000*%
%ADD18O,2.998980X1.998980*%
%ADD19O,1.998980X2.498980*%
%ADD20O,4.100000X3.100000*%
%ADD21C,1.998980*%
%ADD22C,1.800000*%
%ADD23R,1.800000X1.800000*%
%ADD24R,1.600000X1.600000*%
%ADD25C,1.200000*%
%ADD26R,1.200000X1.200000*%
%ADD27C,0.800000*%
%ADD28C,0.500000*%
%ADD29C,0.250000*%
%ADD30C,0.254000*%
G04 APERTURE END LIST*
D10*
X114440000Y-101400000D03*
X114440000Y-89100000D03*
D11*
X110690000Y-99000000D03*
X110690000Y-91500000D03*
D12*
X117940000Y-99000000D03*
D13*
X72390000Y-54610000D03*
D14*
X62230000Y-54610000D03*
D13*
X72390000Y-96520000D03*
D14*
X62230000Y-96520000D03*
D13*
X72390000Y-91440000D03*
D14*
X62230000Y-91440000D03*
D13*
X72390000Y-86360000D03*
D14*
X62230000Y-86360000D03*
D13*
X105410000Y-77470000D03*
D14*
X105410000Y-87630000D03*
D13*
X72390000Y-64770000D03*
D14*
X82550000Y-64770000D03*
D13*
X72390000Y-72390000D03*
D14*
X82550000Y-72390000D03*
D13*
X72390000Y-80010000D03*
D14*
X82550000Y-80010000D03*
D13*
X102870000Y-72390000D03*
D14*
X92710000Y-72390000D03*
D13*
X96520000Y-87630000D03*
D14*
X96520000Y-77470000D03*
D13*
X92710000Y-87630000D03*
D14*
X92710000Y-77470000D03*
D13*
X76200000Y-88900000D03*
D14*
X86360000Y-88900000D03*
D13*
X86360000Y-83820000D03*
D14*
X76200000Y-83820000D03*
D13*
X105410000Y-52070000D03*
D14*
X105410000Y-62230000D03*
D13*
X69850000Y-76200000D03*
D14*
X80010000Y-76200000D03*
D13*
X69850000Y-68580000D03*
D14*
X80010000Y-68580000D03*
D13*
X69850000Y-60960000D03*
D14*
X80010000Y-60960000D03*
D13*
X102870000Y-67310000D03*
D14*
X92710000Y-67310000D03*
D13*
X96520000Y-52070000D03*
D14*
X96520000Y-62230000D03*
D13*
X92710000Y-52070000D03*
D14*
X92710000Y-62230000D03*
D13*
X76200000Y-52070000D03*
D14*
X86360000Y-52070000D03*
D13*
X86360000Y-57150000D03*
D14*
X76200000Y-57150000D03*
D15*
X86360000Y-72390000D03*
D16*
X88900000Y-72390000D03*
X87630000Y-72390000D03*
D15*
X86360000Y-77470000D03*
D16*
X88900000Y-77470000D03*
X87630000Y-77470000D03*
D15*
X86360000Y-67310000D03*
D16*
X88900000Y-67310000D03*
X87630000Y-67310000D03*
D15*
X86360000Y-62230000D03*
D16*
X88900000Y-62230000D03*
X87630000Y-62230000D03*
D17*
X115062000Y-83820000D03*
X115062000Y-43180000D03*
D18*
X118450360Y-81280000D03*
D19*
X110490000Y-81280000D03*
D18*
X118450360Y-67310000D03*
D19*
X110490000Y-67310000D03*
D18*
X118450360Y-53340000D03*
D19*
X110490000Y-53340000D03*
D20*
X51000660Y-45890180D03*
X51000660Y-98889820D03*
D21*
X58079640Y-53340000D03*
X52999640Y-55245000D03*
X58079640Y-57150000D03*
X52999640Y-59055000D03*
X58079640Y-60960000D03*
X52999640Y-62865000D03*
X58079640Y-64770000D03*
X52999640Y-66675000D03*
X58079640Y-68580000D03*
X52999640Y-70485000D03*
X58079640Y-72390000D03*
X52999640Y-74295000D03*
X58079640Y-76200000D03*
X52999640Y-78105000D03*
X58079640Y-80010000D03*
X52999640Y-81915000D03*
X58079640Y-83820000D03*
X52999640Y-85725000D03*
X58079640Y-87630000D03*
X52999640Y-89535000D03*
X58079640Y-91440000D03*
D22*
X72390000Y-48260000D03*
D23*
X69850000Y-48260000D03*
D14*
X92630000Y-93980000D03*
X87630000Y-93980000D03*
X76240000Y-96520000D03*
D24*
X78740000Y-96520000D03*
D25*
X101830000Y-82550000D03*
D26*
X100330000Y-82550000D03*
D25*
X65810000Y-64770000D03*
D26*
X67310000Y-64770000D03*
D25*
X65810000Y-72390000D03*
D26*
X67310000Y-72390000D03*
D25*
X65810000Y-80010000D03*
D26*
X67310000Y-80010000D03*
D25*
X101830000Y-57150000D03*
D26*
X100330000Y-57150000D03*
D25*
X62000000Y-76200000D03*
D26*
X63500000Y-76200000D03*
D25*
X62000000Y-68580000D03*
D26*
X63500000Y-68580000D03*
D25*
X62000000Y-60960000D03*
D26*
X63500000Y-60960000D03*
D27*
X96520000Y-66040000D03*
X82550000Y-74930000D03*
D28*
X61889640Y-60960000D02*
X62000000Y-60960000D01*
X58079640Y-64770000D02*
X61889640Y-60960000D01*
X64961472Y-64770000D02*
X65810000Y-64770000D01*
X62000000Y-61808528D02*
X64961472Y-64770000D01*
X62000000Y-60960000D02*
X62000000Y-61808528D01*
X63500000Y-60960000D02*
X69850000Y-60960000D01*
X61889640Y-68580000D02*
X62000000Y-68580000D01*
X58079640Y-72390000D02*
X61889640Y-68580000D01*
X64961472Y-72390000D02*
X65810000Y-72390000D01*
X62000000Y-69428528D02*
X64961472Y-72390000D01*
X62000000Y-68580000D02*
X62000000Y-69428528D01*
X63500000Y-68580000D02*
X69850000Y-68580000D01*
X61889640Y-76200000D02*
X62000000Y-76200000D01*
X58079640Y-80010000D02*
X61889640Y-76200000D01*
X64961472Y-80010000D02*
X65810000Y-80010000D01*
X62000000Y-77048528D02*
X64961472Y-80010000D01*
X62000000Y-76200000D02*
X62000000Y-77048528D01*
X63500000Y-76200000D02*
X69850000Y-76200000D01*
X88900000Y-67310000D02*
X92710000Y-67310000D01*
X67310000Y-80010000D02*
X72390000Y-80010000D01*
X67310000Y-72390000D02*
X72390000Y-72390000D01*
X67310000Y-64770000D02*
X72390000Y-64770000D01*
X88900000Y-72390000D02*
X92710000Y-72390000D01*
X54904640Y-68580000D02*
X58079640Y-68580000D01*
X52999640Y-66675000D02*
X54904640Y-68580000D01*
X56174640Y-85725000D02*
X52999640Y-85725000D01*
X58079640Y-83820000D02*
X56174640Y-85725000D01*
X75068630Y-52070000D02*
X76200000Y-52070000D01*
X72260000Y-52070000D02*
X75068630Y-52070000D01*
X69850000Y-49660000D02*
X72260000Y-52070000D01*
X69850000Y-48260000D02*
X69850000Y-49660000D01*
X76200000Y-52070000D02*
X78740000Y-54610000D01*
X78740000Y-54610000D02*
X90170000Y-54610000D01*
X90170000Y-54610000D02*
X92710000Y-52070000D01*
X97790000Y-67310000D02*
X96520000Y-66040000D01*
X102870000Y-67310000D02*
X97790000Y-67310000D01*
X60619640Y-86360000D02*
X62230000Y-86360000D01*
X58079640Y-83820000D02*
X60619640Y-86360000D01*
X58079640Y-53340000D02*
X63159640Y-48260000D01*
X63159640Y-48260000D02*
X69850000Y-48260000D01*
X54904640Y-60960000D02*
X58079640Y-60960000D01*
X52999640Y-59055000D02*
X54904640Y-60960000D01*
X116450870Y-67310000D02*
X118450360Y-67310000D01*
X114751370Y-65610500D02*
X116450870Y-67310000D01*
X104569500Y-65610500D02*
X114751370Y-65610500D01*
X102870000Y-67310000D02*
X104569500Y-65610500D01*
X96520000Y-62230000D02*
X93980000Y-64770000D01*
X86360000Y-66060000D02*
X86360000Y-67310000D01*
X87650000Y-64770000D02*
X86360000Y-66060000D01*
X93980000Y-64770000D02*
X87650000Y-64770000D01*
X56809640Y-81915000D02*
X52999640Y-78105000D01*
X60960000Y-83820000D02*
X59055000Y-81915000D01*
X59055000Y-81915000D02*
X56809640Y-81915000D01*
X76200000Y-83820000D02*
X60960000Y-83820000D01*
X82550000Y-74930000D02*
X85090000Y-72390000D01*
X85090000Y-72390000D02*
X86360000Y-72390000D01*
D29*
X61595000Y-55245000D02*
X62230000Y-54610000D01*
X58024392Y-55245000D02*
X61595000Y-55245000D01*
X56119392Y-53340000D02*
X58024392Y-55245000D01*
X52705000Y-53340000D02*
X56119392Y-53340000D01*
X51435000Y-54610000D02*
X52705000Y-53340000D01*
X51435000Y-61300360D02*
X51435000Y-54610000D01*
X52999640Y-62865000D02*
X51435000Y-61300360D01*
D28*
X52999640Y-89535000D02*
X73660000Y-89535000D01*
X75625000Y-91500000D02*
X110690000Y-91500000D01*
X73660000Y-89535000D02*
X75625000Y-91500000D01*
X110690000Y-91500000D02*
X110690000Y-99000000D01*
X81280000Y-62230000D02*
X80010000Y-60960000D01*
X86360000Y-62230000D02*
X81280000Y-62230000D01*
X86360000Y-60980000D02*
X92730000Y-54610000D01*
X86360000Y-62230000D02*
X86360000Y-60980000D01*
X93980000Y-54610000D02*
X96520000Y-52070000D01*
X92730000Y-54610000D02*
X93980000Y-54610000D01*
X88900000Y-62230000D02*
X92710000Y-62230000D01*
D29*
X87630000Y-63230000D02*
X87630000Y-62230000D01*
X82280000Y-68580000D02*
X87630000Y-63230000D01*
X80010000Y-68580000D02*
X82280000Y-68580000D01*
D28*
X82550000Y-80010000D02*
X82550000Y-78740000D01*
X83820000Y-77470000D02*
X86360000Y-77470000D01*
X82550000Y-78740000D02*
X83820000Y-77470000D01*
X95388630Y-87630000D02*
X96520000Y-87630000D01*
X95270000Y-87630000D02*
X95388630Y-87630000D01*
X86360000Y-78720000D02*
X95270000Y-87630000D01*
X86360000Y-77470000D02*
X86360000Y-78720000D01*
D29*
X86360000Y-76470000D02*
X87630000Y-75200000D01*
X86360000Y-77470000D02*
X86360000Y-76470000D01*
X87630000Y-75200000D02*
X87630000Y-72390000D01*
D28*
X88900000Y-77470000D02*
X92710000Y-77470000D01*
D30*
G36*
X121014545Y-41338909D02*
G01*
X121365208Y-41444780D01*
X121688625Y-41616744D01*
X121972484Y-41848254D01*
X122205965Y-42130486D01*
X122380183Y-42452695D01*
X122488502Y-42802614D01*
X122530000Y-43197443D01*
X122530001Y-101567711D01*
X122491091Y-101964545D01*
X122385220Y-102315206D01*
X122213257Y-102638623D01*
X121981748Y-102922482D01*
X121699514Y-103155965D01*
X121377304Y-103330184D01*
X121027385Y-103438502D01*
X120632557Y-103480000D01*
X45752279Y-103480000D01*
X45355455Y-103441091D01*
X45004794Y-103335220D01*
X44681377Y-103163257D01*
X44397518Y-102931748D01*
X44164035Y-102649514D01*
X43989816Y-102327304D01*
X43881498Y-101977385D01*
X43840000Y-101582557D01*
X43840000Y-98889820D01*
X48305088Y-98889820D01*
X48347275Y-99318155D01*
X48472216Y-99730029D01*
X48675109Y-100109614D01*
X48948156Y-100442324D01*
X49280866Y-100715371D01*
X49660451Y-100918264D01*
X50072325Y-101043205D01*
X50393320Y-101074820D01*
X51608000Y-101074820D01*
X51928995Y-101043205D01*
X52340869Y-100918264D01*
X52720454Y-100715371D01*
X53053164Y-100442324D01*
X53325999Y-100109872D01*
X81585000Y-100109872D01*
X81585000Y-100550128D01*
X81670890Y-100981925D01*
X81839369Y-101388669D01*
X82083962Y-101754729D01*
X82395271Y-102066038D01*
X82761331Y-102310631D01*
X83168075Y-102479110D01*
X83599872Y-102565000D01*
X84040128Y-102565000D01*
X84471925Y-102479110D01*
X84878669Y-102310631D01*
X85244729Y-102066038D01*
X85556038Y-101754729D01*
X85793059Y-101400000D01*
X112197331Y-101400000D01*
X112227934Y-101710714D01*
X112318566Y-102009488D01*
X112465744Y-102284839D01*
X112663813Y-102526187D01*
X112905161Y-102724256D01*
X113180512Y-102871434D01*
X113479286Y-102962066D01*
X113712136Y-102985000D01*
X115167864Y-102985000D01*
X115400714Y-102962066D01*
X115699488Y-102871434D01*
X115974839Y-102724256D01*
X116216187Y-102526187D01*
X116414256Y-102284839D01*
X116561434Y-102009488D01*
X116652066Y-101710714D01*
X116682669Y-101400000D01*
X116652066Y-101089286D01*
X116561434Y-100790512D01*
X116414256Y-100515161D01*
X116216187Y-100273813D01*
X115974839Y-100075744D01*
X115699488Y-99928566D01*
X115400714Y-99837934D01*
X115167864Y-99815000D01*
X113712136Y-99815000D01*
X113479286Y-99837934D01*
X113180512Y-99928566D01*
X112905161Y-100075744D01*
X112663813Y-100273813D01*
X112465744Y-100515161D01*
X112318566Y-100790512D01*
X112227934Y-101089286D01*
X112197331Y-101400000D01*
X85793059Y-101400000D01*
X85800631Y-101388669D01*
X85969110Y-100981925D01*
X86055000Y-100550128D01*
X86055000Y-100109872D01*
X85969110Y-99678075D01*
X85800631Y-99271331D01*
X85556038Y-98905271D01*
X85244729Y-98593962D01*
X84878669Y-98349369D01*
X84471925Y-98180890D01*
X84040128Y-98095000D01*
X83599872Y-98095000D01*
X83168075Y-98180890D01*
X82761331Y-98349369D01*
X82395271Y-98593962D01*
X82083962Y-98905271D01*
X81839369Y-99271331D01*
X81670890Y-99678075D01*
X81585000Y-100109872D01*
X53325999Y-100109872D01*
X53326211Y-100109614D01*
X53529104Y-99730029D01*
X53654045Y-99318155D01*
X53696232Y-98889820D01*
X53654045Y-98461485D01*
X53529104Y-98049611D01*
X53326211Y-97670026D01*
X53053164Y-97337316D01*
X52720454Y-97064269D01*
X52340869Y-96861376D01*
X51928995Y-96736435D01*
X51608000Y-96704820D01*
X50393320Y-96704820D01*
X50072325Y-96736435D01*
X49660451Y-96861376D01*
X49280866Y-97064269D01*
X48948156Y-97337316D01*
X48675109Y-97670026D01*
X48472216Y-98049611D01*
X48347275Y-98461485D01*
X48305088Y-98889820D01*
X43840000Y-98889820D01*
X43840000Y-96378665D01*
X60795000Y-96378665D01*
X60795000Y-96661335D01*
X60850147Y-96938574D01*
X60958320Y-97199727D01*
X61115363Y-97434759D01*
X61315241Y-97634637D01*
X61550273Y-97791680D01*
X61811426Y-97899853D01*
X62088665Y-97955000D01*
X62371335Y-97955000D01*
X62648574Y-97899853D01*
X62909727Y-97791680D01*
X63144759Y-97634637D01*
X63344637Y-97434759D01*
X63501680Y-97199727D01*
X63609853Y-96938574D01*
X63665000Y-96661335D01*
X63665000Y-96520000D01*
X70948057Y-96520000D01*
X70975764Y-96801309D01*
X71057818Y-97071808D01*
X71191068Y-97321101D01*
X71370392Y-97539608D01*
X71588899Y-97718932D01*
X71838192Y-97852182D01*
X72108691Y-97934236D01*
X72319508Y-97955000D01*
X72460492Y-97955000D01*
X72671309Y-97934236D01*
X72941808Y-97852182D01*
X73191101Y-97718932D01*
X73409608Y-97539608D01*
X73588932Y-97321101D01*
X73722182Y-97071808D01*
X73804236Y-96801309D01*
X73831943Y-96520000D01*
X73818023Y-96378665D01*
X74805000Y-96378665D01*
X74805000Y-96661335D01*
X74860147Y-96938574D01*
X74968320Y-97199727D01*
X75125363Y-97434759D01*
X75325241Y-97634637D01*
X75560273Y-97791680D01*
X75821426Y-97899853D01*
X76098665Y-97955000D01*
X76381335Y-97955000D01*
X76658574Y-97899853D01*
X76919727Y-97791680D01*
X77154759Y-97634637D01*
X77321339Y-97468057D01*
X77350498Y-97564180D01*
X77409463Y-97674494D01*
X77488815Y-97771185D01*
X77585506Y-97850537D01*
X77695820Y-97909502D01*
X77815518Y-97945812D01*
X77940000Y-97958072D01*
X78454250Y-97955000D01*
X78613000Y-97796250D01*
X78613000Y-96647000D01*
X78867000Y-96647000D01*
X78867000Y-97796250D01*
X79025750Y-97955000D01*
X79540000Y-97958072D01*
X79664482Y-97945812D01*
X79784180Y-97909502D01*
X79894494Y-97850537D01*
X79991185Y-97771185D01*
X80070537Y-97674494D01*
X80129502Y-97564180D01*
X80165812Y-97444482D01*
X80178072Y-97320000D01*
X80175000Y-96805750D01*
X80016250Y-96647000D01*
X78867000Y-96647000D01*
X78613000Y-96647000D01*
X78593000Y-96647000D01*
X78593000Y-96393000D01*
X78613000Y-96393000D01*
X78613000Y-95243750D01*
X78867000Y-95243750D01*
X78867000Y-96393000D01*
X80016250Y-96393000D01*
X80175000Y-96234250D01*
X80178072Y-95720000D01*
X80165812Y-95595518D01*
X80129502Y-95475820D01*
X80070537Y-95365506D01*
X79991185Y-95268815D01*
X79894494Y-95189463D01*
X79784180Y-95130498D01*
X79664482Y-95094188D01*
X79540000Y-95081928D01*
X79025750Y-95085000D01*
X78867000Y-95243750D01*
X78613000Y-95243750D01*
X78454250Y-95085000D01*
X77940000Y-95081928D01*
X77815518Y-95094188D01*
X77695820Y-95130498D01*
X77585506Y-95189463D01*
X77488815Y-95268815D01*
X77409463Y-95365506D01*
X77350498Y-95475820D01*
X77321339Y-95571943D01*
X77154759Y-95405363D01*
X76919727Y-95248320D01*
X76658574Y-95140147D01*
X76381335Y-95085000D01*
X76098665Y-95085000D01*
X75821426Y-95140147D01*
X75560273Y-95248320D01*
X75325241Y-95405363D01*
X75125363Y-95605241D01*
X74968320Y-95840273D01*
X74860147Y-96101426D01*
X74805000Y-96378665D01*
X73818023Y-96378665D01*
X73804236Y-96238691D01*
X73722182Y-95968192D01*
X73588932Y-95718899D01*
X73409608Y-95500392D01*
X73191101Y-95321068D01*
X72941808Y-95187818D01*
X72671309Y-95105764D01*
X72460492Y-95085000D01*
X72319508Y-95085000D01*
X72108691Y-95105764D01*
X71838192Y-95187818D01*
X71588899Y-95321068D01*
X71370392Y-95500392D01*
X71191068Y-95718899D01*
X71057818Y-95968192D01*
X70975764Y-96238691D01*
X70948057Y-96520000D01*
X63665000Y-96520000D01*
X63665000Y-96378665D01*
X63609853Y-96101426D01*
X63501680Y-95840273D01*
X63344637Y-95605241D01*
X63144759Y-95405363D01*
X62909727Y-95248320D01*
X62648574Y-95140147D01*
X62371335Y-95085000D01*
X62088665Y-95085000D01*
X61811426Y-95140147D01*
X61550273Y-95248320D01*
X61315241Y-95405363D01*
X61115363Y-95605241D01*
X60958320Y-95840273D01*
X60850147Y-96101426D01*
X60795000Y-96378665D01*
X43840000Y-96378665D01*
X43840000Y-94972702D01*
X86816903Y-94972702D01*
X86888486Y-95216671D01*
X87143996Y-95337571D01*
X87418184Y-95406300D01*
X87700512Y-95420217D01*
X87980130Y-95378787D01*
X88246292Y-95283603D01*
X88371514Y-95216671D01*
X88443097Y-94972702D01*
X87630000Y-94159605D01*
X86816903Y-94972702D01*
X43840000Y-94972702D01*
X43840000Y-94050512D01*
X86189783Y-94050512D01*
X86231213Y-94330130D01*
X86326397Y-94596292D01*
X86393329Y-94721514D01*
X86637298Y-94793097D01*
X87450395Y-93980000D01*
X87809605Y-93980000D01*
X88622702Y-94793097D01*
X88866671Y-94721514D01*
X88987571Y-94466004D01*
X89056300Y-94191816D01*
X89070217Y-93909488D01*
X89059724Y-93838665D01*
X91195000Y-93838665D01*
X91195000Y-94121335D01*
X91250147Y-94398574D01*
X91358320Y-94659727D01*
X91515363Y-94894759D01*
X91715241Y-95094637D01*
X91950273Y-95251680D01*
X92211426Y-95359853D01*
X92488665Y-95415000D01*
X92771335Y-95415000D01*
X93048574Y-95359853D01*
X93309727Y-95251680D01*
X93544759Y-95094637D01*
X93744637Y-94894759D01*
X93901680Y-94659727D01*
X94009853Y-94398574D01*
X94065000Y-94121335D01*
X94065000Y-93838665D01*
X94009853Y-93561426D01*
X93901680Y-93300273D01*
X93744637Y-93065241D01*
X93544759Y-92865363D01*
X93309727Y-92708320D01*
X93048574Y-92600147D01*
X92771335Y-92545000D01*
X92488665Y-92545000D01*
X92211426Y-92600147D01*
X91950273Y-92708320D01*
X91715241Y-92865363D01*
X91515363Y-93065241D01*
X91358320Y-93300273D01*
X91250147Y-93561426D01*
X91195000Y-93838665D01*
X89059724Y-93838665D01*
X89028787Y-93629870D01*
X88933603Y-93363708D01*
X88866671Y-93238486D01*
X88622702Y-93166903D01*
X87809605Y-93980000D01*
X87450395Y-93980000D01*
X86637298Y-93166903D01*
X86393329Y-93238486D01*
X86272429Y-93493996D01*
X86203700Y-93768184D01*
X86189783Y-94050512D01*
X43840000Y-94050512D01*
X43840000Y-89374017D01*
X51365150Y-89374017D01*
X51365150Y-89695983D01*
X51427962Y-90011763D01*
X51551173Y-90309222D01*
X51730048Y-90576927D01*
X51957713Y-90804592D01*
X52225418Y-90983467D01*
X52522877Y-91106678D01*
X52838657Y-91169490D01*
X53160623Y-91169490D01*
X53476403Y-91106678D01*
X53773862Y-90983467D01*
X54041567Y-90804592D01*
X54269232Y-90576927D01*
X54374087Y-90420000D01*
X56795397Y-90420000D01*
X56631173Y-90665778D01*
X56507962Y-90963237D01*
X56445150Y-91279017D01*
X56445150Y-91600983D01*
X56507962Y-91916763D01*
X56631173Y-92214222D01*
X56810048Y-92481927D01*
X57037713Y-92709592D01*
X57305418Y-92888467D01*
X57602877Y-93011678D01*
X57918657Y-93074490D01*
X58240623Y-93074490D01*
X58556403Y-93011678D01*
X58615261Y-92987298D01*
X86816903Y-92987298D01*
X87630000Y-93800395D01*
X88443097Y-92987298D01*
X88371514Y-92743329D01*
X88116004Y-92622429D01*
X87841816Y-92553700D01*
X87559488Y-92539783D01*
X87279870Y-92581213D01*
X87013708Y-92676397D01*
X86888486Y-92743329D01*
X86816903Y-92987298D01*
X58615261Y-92987298D01*
X58853862Y-92888467D01*
X59121567Y-92709592D01*
X59349232Y-92481927D01*
X59528107Y-92214222D01*
X59651318Y-91916763D01*
X59714130Y-91600983D01*
X59714130Y-91279017D01*
X59651318Y-90963237D01*
X59528107Y-90665778D01*
X59363883Y-90420000D01*
X61220604Y-90420000D01*
X61115363Y-90525241D01*
X60958320Y-90760273D01*
X60850147Y-91021426D01*
X60795000Y-91298665D01*
X60795000Y-91581335D01*
X60850147Y-91858574D01*
X60958320Y-92119727D01*
X61115363Y-92354759D01*
X61315241Y-92554637D01*
X61550273Y-92711680D01*
X61811426Y-92819853D01*
X62088665Y-92875000D01*
X62371335Y-92875000D01*
X62648574Y-92819853D01*
X62909727Y-92711680D01*
X63144759Y-92554637D01*
X63344637Y-92354759D01*
X63501680Y-92119727D01*
X63609853Y-91858574D01*
X63665000Y-91581335D01*
X63665000Y-91298665D01*
X63609853Y-91021426D01*
X63501680Y-90760273D01*
X63344637Y-90525241D01*
X63239396Y-90420000D01*
X71370870Y-90420000D01*
X71370392Y-90420392D01*
X71191068Y-90638899D01*
X71057818Y-90888192D01*
X70975764Y-91158691D01*
X70948057Y-91440000D01*
X70975764Y-91721309D01*
X71057818Y-91991808D01*
X71191068Y-92241101D01*
X71370392Y-92459608D01*
X71588899Y-92638932D01*
X71838192Y-92772182D01*
X72108691Y-92854236D01*
X72319508Y-92875000D01*
X72460492Y-92875000D01*
X72671309Y-92854236D01*
X72941808Y-92772182D01*
X73191101Y-92638932D01*
X73409608Y-92459608D01*
X73588932Y-92241101D01*
X73722182Y-91991808D01*
X73804236Y-91721309D01*
X73831943Y-91440000D01*
X73804236Y-91158691D01*
X73722182Y-90888192D01*
X73676903Y-90803482D01*
X74968470Y-92095049D01*
X74996183Y-92128817D01*
X75029951Y-92156530D01*
X75029953Y-92156532D01*
X75130941Y-92239411D01*
X75284686Y-92321589D01*
X75394032Y-92354759D01*
X75451510Y-92372195D01*
X75581523Y-92385000D01*
X75581531Y-92385000D01*
X75625000Y-92389281D01*
X75668469Y-92385000D01*
X109314941Y-92385000D01*
X109420013Y-92542252D01*
X109647748Y-92769987D01*
X109805000Y-92875060D01*
X109805001Y-97624940D01*
X109647748Y-97730013D01*
X109420013Y-97957748D01*
X109241082Y-98225537D01*
X109117832Y-98523088D01*
X109055000Y-98838967D01*
X109055000Y-99161033D01*
X109117832Y-99476912D01*
X109241082Y-99774463D01*
X109420013Y-100042252D01*
X109647748Y-100269987D01*
X109915537Y-100448918D01*
X110213088Y-100572168D01*
X110528967Y-100635000D01*
X110851033Y-100635000D01*
X111166912Y-100572168D01*
X111464463Y-100448918D01*
X111732252Y-100269987D01*
X111959987Y-100042252D01*
X112138918Y-99774463D01*
X112262168Y-99476912D01*
X112325000Y-99161033D01*
X112325000Y-98838967D01*
X112323041Y-98829117D01*
X116205000Y-98829117D01*
X116205000Y-99170883D01*
X116271675Y-99506081D01*
X116402463Y-99821831D01*
X116592337Y-100105998D01*
X116834002Y-100347663D01*
X117118169Y-100537537D01*
X117433919Y-100668325D01*
X117769117Y-100735000D01*
X118110883Y-100735000D01*
X118446081Y-100668325D01*
X118761831Y-100537537D01*
X119045998Y-100347663D01*
X119287663Y-100105998D01*
X119477537Y-99821831D01*
X119608325Y-99506081D01*
X119675000Y-99170883D01*
X119675000Y-98829117D01*
X119608325Y-98493919D01*
X119477537Y-98178169D01*
X119287663Y-97894002D01*
X119045998Y-97652337D01*
X118761831Y-97462463D01*
X118446081Y-97331675D01*
X118110883Y-97265000D01*
X117769117Y-97265000D01*
X117433919Y-97331675D01*
X117118169Y-97462463D01*
X116834002Y-97652337D01*
X116592337Y-97894002D01*
X116402463Y-98178169D01*
X116271675Y-98493919D01*
X116205000Y-98829117D01*
X112323041Y-98829117D01*
X112262168Y-98523088D01*
X112138918Y-98225537D01*
X111959987Y-97957748D01*
X111732252Y-97730013D01*
X111575000Y-97624941D01*
X111575000Y-92875059D01*
X111732252Y-92769987D01*
X111959987Y-92542252D01*
X112138918Y-92274463D01*
X112262168Y-91976912D01*
X112325000Y-91661033D01*
X112325000Y-91338967D01*
X112262168Y-91023088D01*
X112138918Y-90725537D01*
X111959987Y-90457748D01*
X111732252Y-90230013D01*
X111464463Y-90051082D01*
X111166912Y-89927832D01*
X110851033Y-89865000D01*
X110528967Y-89865000D01*
X110213088Y-89927832D01*
X109915537Y-90051082D01*
X109647748Y-90230013D01*
X109420013Y-90457748D01*
X109314941Y-90615000D01*
X75991579Y-90615000D01*
X75563482Y-90186904D01*
X75648192Y-90232182D01*
X75918691Y-90314236D01*
X76129508Y-90335000D01*
X76270492Y-90335000D01*
X76481309Y-90314236D01*
X76751808Y-90232182D01*
X77001101Y-90098932D01*
X77219608Y-89919608D01*
X77398932Y-89701101D01*
X77532182Y-89451808D01*
X77614236Y-89181309D01*
X77641943Y-88900000D01*
X77628023Y-88758665D01*
X84925000Y-88758665D01*
X84925000Y-89041335D01*
X84980147Y-89318574D01*
X85088320Y-89579727D01*
X85245363Y-89814759D01*
X85445241Y-90014637D01*
X85680273Y-90171680D01*
X85941426Y-90279853D01*
X86218665Y-90335000D01*
X86501335Y-90335000D01*
X86778574Y-90279853D01*
X87039727Y-90171680D01*
X87274759Y-90014637D01*
X87474637Y-89814759D01*
X87631680Y-89579727D01*
X87739853Y-89318574D01*
X87783330Y-89100000D01*
X112197331Y-89100000D01*
X112227934Y-89410714D01*
X112318566Y-89709488D01*
X112465744Y-89984839D01*
X112663813Y-90226187D01*
X112905161Y-90424256D01*
X113180512Y-90571434D01*
X113479286Y-90662066D01*
X113712136Y-90685000D01*
X115167864Y-90685000D01*
X115400714Y-90662066D01*
X115699488Y-90571434D01*
X115974839Y-90424256D01*
X116216187Y-90226187D01*
X116414256Y-89984839D01*
X116561434Y-89709488D01*
X116652066Y-89410714D01*
X116682669Y-89100000D01*
X116652066Y-88789286D01*
X116561434Y-88490512D01*
X116414256Y-88215161D01*
X116216187Y-87973813D01*
X115974839Y-87775744D01*
X115699488Y-87628566D01*
X115400714Y-87537934D01*
X115167864Y-87515000D01*
X113712136Y-87515000D01*
X113479286Y-87537934D01*
X113180512Y-87628566D01*
X112905161Y-87775744D01*
X112663813Y-87973813D01*
X112465744Y-88215161D01*
X112318566Y-88490512D01*
X112227934Y-88789286D01*
X112197331Y-89100000D01*
X87783330Y-89100000D01*
X87795000Y-89041335D01*
X87795000Y-88758665D01*
X87739853Y-88481426D01*
X87631680Y-88220273D01*
X87474637Y-87985241D01*
X87274759Y-87785363D01*
X87039727Y-87628320D01*
X86778574Y-87520147D01*
X86501335Y-87465000D01*
X86218665Y-87465000D01*
X85941426Y-87520147D01*
X85680273Y-87628320D01*
X85445241Y-87785363D01*
X85245363Y-87985241D01*
X85088320Y-88220273D01*
X84980147Y-88481426D01*
X84925000Y-88758665D01*
X77628023Y-88758665D01*
X77614236Y-88618691D01*
X77532182Y-88348192D01*
X77398932Y-88098899D01*
X77219608Y-87880392D01*
X77001101Y-87701068D01*
X76751808Y-87567818D01*
X76481309Y-87485764D01*
X76270492Y-87465000D01*
X76129508Y-87465000D01*
X75918691Y-87485764D01*
X75648192Y-87567818D01*
X75398899Y-87701068D01*
X75180392Y-87880392D01*
X75001068Y-88098899D01*
X74867818Y-88348192D01*
X74785764Y-88618691D01*
X74758057Y-88900000D01*
X74785764Y-89181309D01*
X74867818Y-89451808D01*
X74913097Y-89536518D01*
X74316534Y-88939956D01*
X74288817Y-88906183D01*
X74154059Y-88795589D01*
X74000313Y-88713411D01*
X73833490Y-88662805D01*
X73703477Y-88650000D01*
X73703469Y-88650000D01*
X73660000Y-88645719D01*
X73616531Y-88650000D01*
X59363883Y-88650000D01*
X59528107Y-88404222D01*
X59651318Y-88106763D01*
X59714130Y-87790983D01*
X59714130Y-87469017D01*
X59651318Y-87153237D01*
X59528107Y-86855778D01*
X59349232Y-86588073D01*
X59121567Y-86360408D01*
X58853862Y-86181533D01*
X58556403Y-86058322D01*
X58240623Y-85995510D01*
X57918657Y-85995510D01*
X57602877Y-86058322D01*
X57305418Y-86181533D01*
X57037713Y-86360408D01*
X56810048Y-86588073D01*
X56631173Y-86855778D01*
X56507962Y-87153237D01*
X56445150Y-87469017D01*
X56445150Y-87790983D01*
X56507962Y-88106763D01*
X56631173Y-88404222D01*
X56795397Y-88650000D01*
X54374087Y-88650000D01*
X54269232Y-88493073D01*
X54041567Y-88265408D01*
X53773862Y-88086533D01*
X53476403Y-87963322D01*
X53160623Y-87900510D01*
X52838657Y-87900510D01*
X52522877Y-87963322D01*
X52225418Y-88086533D01*
X51957713Y-88265408D01*
X51730048Y-88493073D01*
X51551173Y-88760778D01*
X51427962Y-89058237D01*
X51365150Y-89374017D01*
X43840000Y-89374017D01*
X43840000Y-85564017D01*
X51365150Y-85564017D01*
X51365150Y-85885983D01*
X51427962Y-86201763D01*
X51551173Y-86499222D01*
X51730048Y-86766927D01*
X51957713Y-86994592D01*
X52225418Y-87173467D01*
X52522877Y-87296678D01*
X52838657Y-87359490D01*
X53160623Y-87359490D01*
X53476403Y-87296678D01*
X53773862Y-87173467D01*
X54041567Y-86994592D01*
X54269232Y-86766927D01*
X54374087Y-86610000D01*
X56131171Y-86610000D01*
X56174640Y-86614281D01*
X56218109Y-86610000D01*
X56218117Y-86610000D01*
X56348130Y-86597195D01*
X56514953Y-86546589D01*
X56668699Y-86464411D01*
X56803457Y-86353817D01*
X56831174Y-86320044D01*
X57733549Y-85417670D01*
X57918657Y-85454490D01*
X58240623Y-85454490D01*
X58425732Y-85417670D01*
X59963110Y-86955049D01*
X59990823Y-86988817D01*
X60024591Y-87016530D01*
X60024593Y-87016532D01*
X60047039Y-87034953D01*
X60125581Y-87099411D01*
X60279327Y-87181589D01*
X60446150Y-87232195D01*
X60576163Y-87245000D01*
X60576173Y-87245000D01*
X60619639Y-87249281D01*
X60663105Y-87245000D01*
X61095479Y-87245000D01*
X61115363Y-87274759D01*
X61315241Y-87474637D01*
X61550273Y-87631680D01*
X61811426Y-87739853D01*
X62088665Y-87795000D01*
X62371335Y-87795000D01*
X62648574Y-87739853D01*
X62909727Y-87631680D01*
X63144759Y-87474637D01*
X63344637Y-87274759D01*
X63501680Y-87039727D01*
X63609853Y-86778574D01*
X63665000Y-86501335D01*
X63665000Y-86360000D01*
X70948057Y-86360000D01*
X70975764Y-86641309D01*
X71057818Y-86911808D01*
X71191068Y-87161101D01*
X71370392Y-87379608D01*
X71588899Y-87558932D01*
X71838192Y-87692182D01*
X72108691Y-87774236D01*
X72319508Y-87795000D01*
X72460492Y-87795000D01*
X72671309Y-87774236D01*
X72941808Y-87692182D01*
X73191101Y-87558932D01*
X73409608Y-87379608D01*
X73588932Y-87161101D01*
X73722182Y-86911808D01*
X73804236Y-86641309D01*
X73831943Y-86360000D01*
X73804236Y-86078691D01*
X73722182Y-85808192D01*
X73588932Y-85558899D01*
X73409608Y-85340392D01*
X73191101Y-85161068D01*
X72941808Y-85027818D01*
X72671309Y-84945764D01*
X72460492Y-84925000D01*
X72319508Y-84925000D01*
X72108691Y-84945764D01*
X71838192Y-85027818D01*
X71588899Y-85161068D01*
X71370392Y-85340392D01*
X71191068Y-85558899D01*
X71057818Y-85808192D01*
X70975764Y-86078691D01*
X70948057Y-86360000D01*
X63665000Y-86360000D01*
X63665000Y-86218665D01*
X63609853Y-85941426D01*
X63501680Y-85680273D01*
X63344637Y-85445241D01*
X63144759Y-85245363D01*
X62909727Y-85088320D01*
X62648574Y-84980147D01*
X62371335Y-84925000D01*
X62088665Y-84925000D01*
X61811426Y-84980147D01*
X61550273Y-85088320D01*
X61315241Y-85245363D01*
X61115363Y-85445241D01*
X61095479Y-85475000D01*
X60986219Y-85475000D01*
X60323921Y-84812702D01*
X75386903Y-84812702D01*
X75458486Y-85056671D01*
X75713996Y-85177571D01*
X75988184Y-85246300D01*
X76270512Y-85260217D01*
X76550130Y-85218787D01*
X76816292Y-85123603D01*
X76941514Y-85056671D01*
X77013097Y-84812702D01*
X76200000Y-83999605D01*
X75386903Y-84812702D01*
X60323921Y-84812702D01*
X59677310Y-84166092D01*
X59714130Y-83980983D01*
X59714130Y-83890512D01*
X74759783Y-83890512D01*
X74801213Y-84170130D01*
X74896397Y-84436292D01*
X74963329Y-84561514D01*
X75207298Y-84633097D01*
X76020395Y-83820000D01*
X76379605Y-83820000D01*
X77192702Y-84633097D01*
X77436671Y-84561514D01*
X77557571Y-84306004D01*
X77626300Y-84031816D01*
X77636741Y-83820000D01*
X84918057Y-83820000D01*
X84945764Y-84101309D01*
X85027818Y-84371808D01*
X85161068Y-84621101D01*
X85340392Y-84839608D01*
X85558899Y-85018932D01*
X85808192Y-85152182D01*
X86078691Y-85234236D01*
X86289508Y-85255000D01*
X86430492Y-85255000D01*
X86641309Y-85234236D01*
X86911808Y-85152182D01*
X87161101Y-85018932D01*
X87379608Y-84839608D01*
X87558932Y-84621101D01*
X87692182Y-84371808D01*
X87774236Y-84101309D01*
X87801943Y-83820000D01*
X87774236Y-83538691D01*
X87692182Y-83268192D01*
X87558932Y-83018899D01*
X87379608Y-82800392D01*
X87161101Y-82621068D01*
X86911808Y-82487818D01*
X86641309Y-82405764D01*
X86430492Y-82385000D01*
X86289508Y-82385000D01*
X86078691Y-82405764D01*
X85808192Y-82487818D01*
X85558899Y-82621068D01*
X85340392Y-82800392D01*
X85161068Y-83018899D01*
X85027818Y-83268192D01*
X84945764Y-83538691D01*
X84918057Y-83820000D01*
X77636741Y-83820000D01*
X77640217Y-83749488D01*
X77598787Y-83469870D01*
X77503603Y-83203708D01*
X77436671Y-83078486D01*
X77192702Y-83006903D01*
X76379605Y-83820000D01*
X76020395Y-83820000D01*
X75207298Y-83006903D01*
X74963329Y-83078486D01*
X74842429Y-83333996D01*
X74773700Y-83608184D01*
X74759783Y-83890512D01*
X59714130Y-83890512D01*
X59714130Y-83659017D01*
X59651318Y-83343237D01*
X59528107Y-83045778D01*
X59382124Y-82827298D01*
X75386903Y-82827298D01*
X76200000Y-83640395D01*
X77013097Y-82827298D01*
X76941514Y-82583329D01*
X76686004Y-82462429D01*
X76411816Y-82393700D01*
X76129488Y-82379783D01*
X75849870Y-82421213D01*
X75583708Y-82516397D01*
X75458486Y-82583329D01*
X75386903Y-82827298D01*
X59382124Y-82827298D01*
X59349232Y-82778073D01*
X59121567Y-82550408D01*
X58853862Y-82371533D01*
X58556403Y-82248322D01*
X58240623Y-82185510D01*
X57918657Y-82185510D01*
X57602877Y-82248322D01*
X57305418Y-82371533D01*
X57037713Y-82550408D01*
X56810048Y-82778073D01*
X56631173Y-83045778D01*
X56507962Y-83343237D01*
X56445150Y-83659017D01*
X56445150Y-83980983D01*
X56481970Y-84166091D01*
X55808062Y-84840000D01*
X54374087Y-84840000D01*
X54269232Y-84683073D01*
X54041567Y-84455408D01*
X53773862Y-84276533D01*
X53476403Y-84153322D01*
X53160623Y-84090510D01*
X52838657Y-84090510D01*
X52522877Y-84153322D01*
X52225418Y-84276533D01*
X51957713Y-84455408D01*
X51730048Y-84683073D01*
X51551173Y-84950778D01*
X51427962Y-85248237D01*
X51365150Y-85564017D01*
X43840000Y-85564017D01*
X43840000Y-81754017D01*
X51365150Y-81754017D01*
X51365150Y-82075983D01*
X51427962Y-82391763D01*
X51551173Y-82689222D01*
X51730048Y-82956927D01*
X51957713Y-83184592D01*
X52225418Y-83363467D01*
X52522877Y-83486678D01*
X52838657Y-83549490D01*
X53160623Y-83549490D01*
X53476403Y-83486678D01*
X53773862Y-83363467D01*
X54041567Y-83184592D01*
X54269232Y-82956927D01*
X54448107Y-82689222D01*
X54571318Y-82391763D01*
X54634130Y-82075983D01*
X54634130Y-81754017D01*
X54571318Y-81438237D01*
X54448107Y-81140778D01*
X54269232Y-80873073D01*
X54041567Y-80645408D01*
X53773862Y-80466533D01*
X53476403Y-80343322D01*
X53160623Y-80280510D01*
X52838657Y-80280510D01*
X52522877Y-80343322D01*
X52225418Y-80466533D01*
X51957713Y-80645408D01*
X51730048Y-80873073D01*
X51551173Y-81140778D01*
X51427962Y-81438237D01*
X51365150Y-81754017D01*
X43840000Y-81754017D01*
X43840000Y-79849017D01*
X56445150Y-79849017D01*
X56445150Y-80170983D01*
X56507962Y-80486763D01*
X56631173Y-80784222D01*
X56810048Y-81051927D01*
X57037713Y-81279592D01*
X57305418Y-81458467D01*
X57602877Y-81581678D01*
X57918657Y-81644490D01*
X58240623Y-81644490D01*
X58556403Y-81581678D01*
X58853862Y-81458467D01*
X59121567Y-81279592D01*
X59349232Y-81051927D01*
X59528107Y-80784222D01*
X59651318Y-80486763D01*
X59714130Y-80170983D01*
X59714130Y-79849017D01*
X59677310Y-79663908D01*
X61520556Y-77820662D01*
X64304942Y-80605049D01*
X64332655Y-80638817D01*
X64366423Y-80666530D01*
X64366425Y-80666532D01*
X64394688Y-80689727D01*
X64467413Y-80749411D01*
X64621159Y-80831589D01*
X64787982Y-80882195D01*
X64917995Y-80895000D01*
X64918003Y-80895000D01*
X64951772Y-80898326D01*
X65022733Y-80969287D01*
X65225008Y-81104443D01*
X65449764Y-81197540D01*
X65688363Y-81245000D01*
X65931637Y-81245000D01*
X66170236Y-81197540D01*
X66339522Y-81127419D01*
X66355506Y-81140537D01*
X66465820Y-81199502D01*
X66585518Y-81235812D01*
X66710000Y-81248072D01*
X67910000Y-81248072D01*
X68034482Y-81235812D01*
X68154180Y-81199502D01*
X68264494Y-81140537D01*
X68361185Y-81061185D01*
X68440537Y-80964494D01*
X68477683Y-80895000D01*
X71259922Y-80895000D01*
X71370392Y-81029608D01*
X71588899Y-81208932D01*
X71838192Y-81342182D01*
X72108691Y-81424236D01*
X72319508Y-81445000D01*
X72460492Y-81445000D01*
X72671309Y-81424236D01*
X72941808Y-81342182D01*
X73191101Y-81208932D01*
X73409608Y-81029608D01*
X73588932Y-80811101D01*
X73722182Y-80561808D01*
X73804236Y-80291309D01*
X73831943Y-80010000D01*
X73818023Y-79868665D01*
X81115000Y-79868665D01*
X81115000Y-80151335D01*
X81170147Y-80428574D01*
X81278320Y-80689727D01*
X81435363Y-80924759D01*
X81635241Y-81124637D01*
X81870273Y-81281680D01*
X82131426Y-81389853D01*
X82408665Y-81445000D01*
X82691335Y-81445000D01*
X82968574Y-81389853D01*
X83229727Y-81281680D01*
X83464759Y-81124637D01*
X83664637Y-80924759D01*
X83821680Y-80689727D01*
X83929853Y-80428574D01*
X83985000Y-80151335D01*
X83985000Y-79868665D01*
X83929853Y-79591426D01*
X83821680Y-79330273D01*
X83664637Y-79095241D01*
X83555487Y-78986091D01*
X84186579Y-78355000D01*
X85212379Y-78355000D01*
X85245498Y-78464180D01*
X85304463Y-78574494D01*
X85383815Y-78671185D01*
X85473130Y-78744484D01*
X85487805Y-78893490D01*
X85538412Y-79060313D01*
X85620590Y-79214059D01*
X85703468Y-79315046D01*
X85703471Y-79315049D01*
X85731184Y-79348817D01*
X85764952Y-79376530D01*
X92588450Y-86200029D01*
X92428691Y-86215764D01*
X92158192Y-86297818D01*
X91908899Y-86431068D01*
X91690392Y-86610392D01*
X91511068Y-86828899D01*
X91377818Y-87078192D01*
X91295764Y-87348691D01*
X91268057Y-87630000D01*
X91295764Y-87911309D01*
X91377818Y-88181808D01*
X91511068Y-88431101D01*
X91690392Y-88649608D01*
X91908899Y-88828932D01*
X92158192Y-88962182D01*
X92428691Y-89044236D01*
X92639508Y-89065000D01*
X92780492Y-89065000D01*
X92991309Y-89044236D01*
X93261808Y-88962182D01*
X93511101Y-88828932D01*
X93729608Y-88649608D01*
X93908932Y-88431101D01*
X94042182Y-88181808D01*
X94124236Y-87911309D01*
X94139971Y-87751550D01*
X94613470Y-88225049D01*
X94641183Y-88258817D01*
X94674951Y-88286530D01*
X94674953Y-88286532D01*
X94703216Y-88309727D01*
X94775941Y-88369411D01*
X94929687Y-88451589D01*
X95096510Y-88502195D01*
X95226523Y-88515000D01*
X95226531Y-88515000D01*
X95270000Y-88519281D01*
X95313469Y-88515000D01*
X95389922Y-88515000D01*
X95500392Y-88649608D01*
X95718899Y-88828932D01*
X95968192Y-88962182D01*
X96238691Y-89044236D01*
X96449508Y-89065000D01*
X96590492Y-89065000D01*
X96801309Y-89044236D01*
X97071808Y-88962182D01*
X97321101Y-88828932D01*
X97539608Y-88649608D01*
X97718932Y-88431101D01*
X97852182Y-88181808D01*
X97934236Y-87911309D01*
X97961943Y-87630000D01*
X97948023Y-87488665D01*
X103975000Y-87488665D01*
X103975000Y-87771335D01*
X104030147Y-88048574D01*
X104138320Y-88309727D01*
X104295363Y-88544759D01*
X104495241Y-88744637D01*
X104730273Y-88901680D01*
X104991426Y-89009853D01*
X105268665Y-89065000D01*
X105551335Y-89065000D01*
X105828574Y-89009853D01*
X106089727Y-88901680D01*
X106324759Y-88744637D01*
X106524637Y-88544759D01*
X106681680Y-88309727D01*
X106789853Y-88048574D01*
X106845000Y-87771335D01*
X106845000Y-87488665D01*
X106789853Y-87211426D01*
X106681680Y-86950273D01*
X106524637Y-86715241D01*
X106324759Y-86515363D01*
X106089727Y-86358320D01*
X105828574Y-86250147D01*
X105551335Y-86195000D01*
X105268665Y-86195000D01*
X104991426Y-86250147D01*
X104730273Y-86358320D01*
X104495241Y-86515363D01*
X104295363Y-86715241D01*
X104138320Y-86950273D01*
X104030147Y-87211426D01*
X103975000Y-87488665D01*
X97948023Y-87488665D01*
X97934236Y-87348691D01*
X97852182Y-87078192D01*
X97718932Y-86828899D01*
X97539608Y-86610392D01*
X97321101Y-86431068D01*
X97071808Y-86297818D01*
X96801309Y-86215764D01*
X96590492Y-86195000D01*
X96449508Y-86195000D01*
X96238691Y-86215764D01*
X95968192Y-86297818D01*
X95718899Y-86431068D01*
X95501259Y-86609680D01*
X92711579Y-83820000D01*
X112818848Y-83820000D01*
X112851381Y-84150318D01*
X112947732Y-84467941D01*
X113104196Y-84760665D01*
X113314761Y-85017239D01*
X113571335Y-85227804D01*
X113864059Y-85384268D01*
X114181682Y-85480619D01*
X114429230Y-85505000D01*
X115694770Y-85505000D01*
X115942318Y-85480619D01*
X116259941Y-85384268D01*
X116552665Y-85227804D01*
X116809239Y-85017239D01*
X117019804Y-84760665D01*
X117176268Y-84467941D01*
X117272619Y-84150318D01*
X117305152Y-83820000D01*
X117272619Y-83489682D01*
X117176268Y-83172059D01*
X117019804Y-82879335D01*
X116809239Y-82622761D01*
X116552665Y-82412196D01*
X116259941Y-82255732D01*
X115942318Y-82159381D01*
X115694770Y-82135000D01*
X114429230Y-82135000D01*
X114181682Y-82159381D01*
X113864059Y-82255732D01*
X113571335Y-82412196D01*
X113314761Y-82622761D01*
X113104196Y-82879335D01*
X112947732Y-83172059D01*
X112851381Y-83489682D01*
X112818848Y-83820000D01*
X92711579Y-83820000D01*
X90841579Y-81950000D01*
X99091928Y-81950000D01*
X99091928Y-83150000D01*
X99104188Y-83274482D01*
X99140498Y-83394180D01*
X99199463Y-83504494D01*
X99278815Y-83601185D01*
X99375506Y-83680537D01*
X99485820Y-83739502D01*
X99605518Y-83775812D01*
X99730000Y-83788072D01*
X100930000Y-83788072D01*
X101054482Y-83775812D01*
X101174180Y-83739502D01*
X101284494Y-83680537D01*
X101300478Y-83667419D01*
X101469764Y-83737540D01*
X101708363Y-83785000D01*
X101951637Y-83785000D01*
X102190236Y-83737540D01*
X102414992Y-83644443D01*
X102617267Y-83509287D01*
X102789287Y-83337267D01*
X102924443Y-83134992D01*
X103017540Y-82910236D01*
X103065000Y-82671637D01*
X103065000Y-82428363D01*
X103017540Y-82189764D01*
X102924443Y-81965008D01*
X102789287Y-81762733D01*
X102617267Y-81590713D01*
X102414992Y-81455557D01*
X102190236Y-81362460D01*
X101951637Y-81315000D01*
X101708363Y-81315000D01*
X101469764Y-81362460D01*
X101300478Y-81432581D01*
X101284494Y-81419463D01*
X101174180Y-81360498D01*
X101054482Y-81324188D01*
X100930000Y-81311928D01*
X99730000Y-81311928D01*
X99605518Y-81324188D01*
X99485820Y-81360498D01*
X99375506Y-81419463D01*
X99278815Y-81498815D01*
X99199463Y-81595506D01*
X99140498Y-81705820D01*
X99104188Y-81825518D01*
X99091928Y-81950000D01*
X90841579Y-81950000D01*
X89841288Y-80949709D01*
X108855510Y-80949709D01*
X108855510Y-81610292D01*
X108879160Y-81850416D01*
X108972622Y-82158519D01*
X109124396Y-82442467D01*
X109328649Y-82691351D01*
X109577534Y-82895604D01*
X109861482Y-83047378D01*
X110169585Y-83140840D01*
X110490000Y-83172398D01*
X110810416Y-83140840D01*
X111118519Y-83047378D01*
X111402467Y-82895604D01*
X111651351Y-82691351D01*
X111855604Y-82442467D01*
X112007378Y-82158519D01*
X112100840Y-81850415D01*
X112124490Y-81610291D01*
X112124490Y-81280000D01*
X116307962Y-81280000D01*
X116339520Y-81600416D01*
X116432982Y-81908519D01*
X116584756Y-82192467D01*
X116789009Y-82441351D01*
X117037893Y-82645604D01*
X117321841Y-82797378D01*
X117629944Y-82890840D01*
X117870068Y-82914490D01*
X119030652Y-82914490D01*
X119270776Y-82890840D01*
X119578879Y-82797378D01*
X119862827Y-82645604D01*
X120111711Y-82441351D01*
X120315964Y-82192467D01*
X120467738Y-81908519D01*
X120561200Y-81600416D01*
X120592758Y-81280000D01*
X120561200Y-80959584D01*
X120467738Y-80651481D01*
X120315964Y-80367533D01*
X120111711Y-80118649D01*
X119862827Y-79914396D01*
X119578879Y-79762622D01*
X119270776Y-79669160D01*
X119030652Y-79645510D01*
X117870068Y-79645510D01*
X117629944Y-79669160D01*
X117321841Y-79762622D01*
X117037893Y-79914396D01*
X116789009Y-80118649D01*
X116584756Y-80367533D01*
X116432982Y-80651481D01*
X116339520Y-80959584D01*
X116307962Y-81280000D01*
X112124490Y-81280000D01*
X112124490Y-80949708D01*
X112100840Y-80709584D01*
X112007378Y-80401481D01*
X111855604Y-80117533D01*
X111651351Y-79868649D01*
X111402466Y-79664396D01*
X111118518Y-79512622D01*
X110810415Y-79419160D01*
X110490000Y-79387602D01*
X110169584Y-79419160D01*
X109861481Y-79512622D01*
X109577533Y-79664396D01*
X109328649Y-79868649D01*
X109124396Y-80117534D01*
X108972622Y-80401482D01*
X108879160Y-80709585D01*
X108855510Y-80949709D01*
X89841288Y-80949709D01*
X87741234Y-78849656D01*
X87857400Y-78838215D01*
X88076060Y-78771885D01*
X88265001Y-78670894D01*
X88453941Y-78771885D01*
X88672601Y-78838215D01*
X88900000Y-78860612D01*
X89127400Y-78838215D01*
X89346060Y-78771885D01*
X89547579Y-78664171D01*
X89724212Y-78519212D01*
X89858977Y-78355000D01*
X91575479Y-78355000D01*
X91595363Y-78384759D01*
X91795241Y-78584637D01*
X92030273Y-78741680D01*
X92291426Y-78849853D01*
X92568665Y-78905000D01*
X92851335Y-78905000D01*
X93128574Y-78849853D01*
X93389727Y-78741680D01*
X93624759Y-78584637D01*
X93746694Y-78462702D01*
X95706903Y-78462702D01*
X95778486Y-78706671D01*
X96033996Y-78827571D01*
X96308184Y-78896300D01*
X96590512Y-78910217D01*
X96870130Y-78868787D01*
X97136292Y-78773603D01*
X97261514Y-78706671D01*
X97333097Y-78462702D01*
X96520000Y-77649605D01*
X95706903Y-78462702D01*
X93746694Y-78462702D01*
X93824637Y-78384759D01*
X93981680Y-78149727D01*
X94089853Y-77888574D01*
X94145000Y-77611335D01*
X94145000Y-77540512D01*
X95079783Y-77540512D01*
X95121213Y-77820130D01*
X95216397Y-78086292D01*
X95283329Y-78211514D01*
X95527298Y-78283097D01*
X96340395Y-77470000D01*
X96699605Y-77470000D01*
X97512702Y-78283097D01*
X97756671Y-78211514D01*
X97877571Y-77956004D01*
X97946300Y-77681816D01*
X97956741Y-77470000D01*
X103968057Y-77470000D01*
X103995764Y-77751309D01*
X104077818Y-78021808D01*
X104211068Y-78271101D01*
X104390392Y-78489608D01*
X104608899Y-78668932D01*
X104858192Y-78802182D01*
X105128691Y-78884236D01*
X105339508Y-78905000D01*
X105480492Y-78905000D01*
X105691309Y-78884236D01*
X105961808Y-78802182D01*
X106211101Y-78668932D01*
X106429608Y-78489608D01*
X106608932Y-78271101D01*
X106742182Y-78021808D01*
X106824236Y-77751309D01*
X106851943Y-77470000D01*
X106824236Y-77188691D01*
X106742182Y-76918192D01*
X106608932Y-76668899D01*
X106429608Y-76450392D01*
X106211101Y-76271068D01*
X105961808Y-76137818D01*
X105691309Y-76055764D01*
X105480492Y-76035000D01*
X105339508Y-76035000D01*
X105128691Y-76055764D01*
X104858192Y-76137818D01*
X104608899Y-76271068D01*
X104390392Y-76450392D01*
X104211068Y-76668899D01*
X104077818Y-76918192D01*
X103995764Y-77188691D01*
X103968057Y-77470000D01*
X97956741Y-77470000D01*
X97960217Y-77399488D01*
X97918787Y-77119870D01*
X97823603Y-76853708D01*
X97756671Y-76728486D01*
X97512702Y-76656903D01*
X96699605Y-77470000D01*
X96340395Y-77470000D01*
X95527298Y-76656903D01*
X95283329Y-76728486D01*
X95162429Y-76983996D01*
X95093700Y-77258184D01*
X95079783Y-77540512D01*
X94145000Y-77540512D01*
X94145000Y-77328665D01*
X94089853Y-77051426D01*
X93981680Y-76790273D01*
X93824637Y-76555241D01*
X93746694Y-76477298D01*
X95706903Y-76477298D01*
X96520000Y-77290395D01*
X97333097Y-76477298D01*
X97261514Y-76233329D01*
X97006004Y-76112429D01*
X96731816Y-76043700D01*
X96449488Y-76029783D01*
X96169870Y-76071213D01*
X95903708Y-76166397D01*
X95778486Y-76233329D01*
X95706903Y-76477298D01*
X93746694Y-76477298D01*
X93624759Y-76355363D01*
X93389727Y-76198320D01*
X93128574Y-76090147D01*
X92851335Y-76035000D01*
X92568665Y-76035000D01*
X92291426Y-76090147D01*
X92030273Y-76198320D01*
X91795241Y-76355363D01*
X91595363Y-76555241D01*
X91575479Y-76585000D01*
X89858977Y-76585000D01*
X89724212Y-76420788D01*
X89547578Y-76275829D01*
X89346059Y-76168115D01*
X89127399Y-76101785D01*
X88900000Y-76079388D01*
X88672600Y-76101785D01*
X88453940Y-76168115D01*
X88265000Y-76269106D01*
X88076059Y-76168115D01*
X87857399Y-76101785D01*
X87807893Y-76096909D01*
X88141004Y-75763798D01*
X88170001Y-75740001D01*
X88264974Y-75624276D01*
X88335546Y-75492247D01*
X88379003Y-75348986D01*
X88390000Y-75237333D01*
X88390000Y-75237324D01*
X88393676Y-75200001D01*
X88390000Y-75162678D01*
X88390000Y-73657708D01*
X88453941Y-73691885D01*
X88672601Y-73758215D01*
X88900000Y-73780612D01*
X89127400Y-73758215D01*
X89346060Y-73691885D01*
X89547579Y-73584171D01*
X89724212Y-73439212D01*
X89858977Y-73275000D01*
X91575479Y-73275000D01*
X91595363Y-73304759D01*
X91795241Y-73504637D01*
X92030273Y-73661680D01*
X92291426Y-73769853D01*
X92568665Y-73825000D01*
X92851335Y-73825000D01*
X93128574Y-73769853D01*
X93389727Y-73661680D01*
X93624759Y-73504637D01*
X93824637Y-73304759D01*
X93981680Y-73069727D01*
X94089853Y-72808574D01*
X94145000Y-72531335D01*
X94145000Y-72390000D01*
X101428057Y-72390000D01*
X101455764Y-72671309D01*
X101537818Y-72941808D01*
X101671068Y-73191101D01*
X101850392Y-73409608D01*
X102068899Y-73588932D01*
X102318192Y-73722182D01*
X102588691Y-73804236D01*
X102799508Y-73825000D01*
X102940492Y-73825000D01*
X103151309Y-73804236D01*
X103421808Y-73722182D01*
X103671101Y-73588932D01*
X103889608Y-73409608D01*
X104068932Y-73191101D01*
X104202182Y-72941808D01*
X104284236Y-72671309D01*
X104311943Y-72390000D01*
X104284236Y-72108691D01*
X104202182Y-71838192D01*
X104068932Y-71588899D01*
X103889608Y-71370392D01*
X103671101Y-71191068D01*
X103421808Y-71057818D01*
X103151309Y-70975764D01*
X102940492Y-70955000D01*
X102799508Y-70955000D01*
X102588691Y-70975764D01*
X102318192Y-71057818D01*
X102068899Y-71191068D01*
X101850392Y-71370392D01*
X101671068Y-71588899D01*
X101537818Y-71838192D01*
X101455764Y-72108691D01*
X101428057Y-72390000D01*
X94145000Y-72390000D01*
X94145000Y-72248665D01*
X94089853Y-71971426D01*
X93981680Y-71710273D01*
X93824637Y-71475241D01*
X93624759Y-71275363D01*
X93389727Y-71118320D01*
X93128574Y-71010147D01*
X92851335Y-70955000D01*
X92568665Y-70955000D01*
X92291426Y-71010147D01*
X92030273Y-71118320D01*
X91795241Y-71275363D01*
X91595363Y-71475241D01*
X91575479Y-71505000D01*
X89858977Y-71505000D01*
X89724212Y-71340788D01*
X89547578Y-71195829D01*
X89346059Y-71088115D01*
X89127399Y-71021785D01*
X88900000Y-70999388D01*
X88672600Y-71021785D01*
X88453940Y-71088115D01*
X88265000Y-71189106D01*
X88076059Y-71088115D01*
X87857399Y-71021785D01*
X87630000Y-70999388D01*
X87402600Y-71021785D01*
X87193902Y-71085093D01*
X87129180Y-71050498D01*
X87009482Y-71014188D01*
X86885000Y-71001928D01*
X86645750Y-71005000D01*
X86487000Y-71163750D01*
X86487000Y-71936892D01*
X86486785Y-71937601D01*
X86470000Y-72108022D01*
X86470000Y-72671979D01*
X86486785Y-72842400D01*
X86487000Y-72843109D01*
X86487000Y-73616250D01*
X86645750Y-73775000D01*
X86870001Y-73777879D01*
X86870000Y-74885198D01*
X85848998Y-75906201D01*
X85820000Y-75929999D01*
X85796202Y-75958997D01*
X85796201Y-75958998D01*
X85725026Y-76045724D01*
X85696916Y-76098314D01*
X85590820Y-76130498D01*
X85480506Y-76189463D01*
X85383815Y-76268815D01*
X85304463Y-76365506D01*
X85245498Y-76475820D01*
X85212379Y-76585000D01*
X83863465Y-76585000D01*
X83819999Y-76580719D01*
X83776533Y-76585000D01*
X83776523Y-76585000D01*
X83646510Y-76597805D01*
X83479687Y-76648411D01*
X83325941Y-76730589D01*
X83325939Y-76730590D01*
X83325940Y-76730590D01*
X83224953Y-76813468D01*
X83224951Y-76813470D01*
X83191183Y-76841183D01*
X83163470Y-76874951D01*
X81954951Y-78083471D01*
X81921184Y-78111183D01*
X81893471Y-78144951D01*
X81893468Y-78144954D01*
X81810590Y-78245941D01*
X81728412Y-78399687D01*
X81677805Y-78566510D01*
X81660719Y-78740000D01*
X81665001Y-78783478D01*
X81665001Y-78875478D01*
X81635241Y-78895363D01*
X81435363Y-79095241D01*
X81278320Y-79330273D01*
X81170147Y-79591426D01*
X81115000Y-79868665D01*
X73818023Y-79868665D01*
X73804236Y-79728691D01*
X73722182Y-79458192D01*
X73588932Y-79208899D01*
X73409608Y-78990392D01*
X73191101Y-78811068D01*
X72941808Y-78677818D01*
X72671309Y-78595764D01*
X72460492Y-78575000D01*
X72319508Y-78575000D01*
X72108691Y-78595764D01*
X71838192Y-78677818D01*
X71588899Y-78811068D01*
X71370392Y-78990392D01*
X71259922Y-79125000D01*
X68477683Y-79125000D01*
X68440537Y-79055506D01*
X68361185Y-78958815D01*
X68264494Y-78879463D01*
X68154180Y-78820498D01*
X68034482Y-78784188D01*
X67910000Y-78771928D01*
X66710000Y-78771928D01*
X66585518Y-78784188D01*
X66465820Y-78820498D01*
X66355506Y-78879463D01*
X66339522Y-78892581D01*
X66170236Y-78822460D01*
X65931637Y-78775000D01*
X65688363Y-78775000D01*
X65449764Y-78822460D01*
X65225008Y-78915557D01*
X65161226Y-78958175D01*
X63641122Y-77438072D01*
X64100000Y-77438072D01*
X64224482Y-77425812D01*
X64344180Y-77389502D01*
X64454494Y-77330537D01*
X64551185Y-77251185D01*
X64630537Y-77154494D01*
X64667683Y-77085000D01*
X68719922Y-77085000D01*
X68830392Y-77219608D01*
X69048899Y-77398932D01*
X69298192Y-77532182D01*
X69568691Y-77614236D01*
X69779508Y-77635000D01*
X69920492Y-77635000D01*
X70131309Y-77614236D01*
X70401808Y-77532182D01*
X70651101Y-77398932D01*
X70869608Y-77219608D01*
X71048932Y-77001101D01*
X71182182Y-76751808D01*
X71264236Y-76481309D01*
X71291943Y-76200000D01*
X71278023Y-76058665D01*
X78575000Y-76058665D01*
X78575000Y-76341335D01*
X78630147Y-76618574D01*
X78738320Y-76879727D01*
X78895363Y-77114759D01*
X79095241Y-77314637D01*
X79330273Y-77471680D01*
X79591426Y-77579853D01*
X79868665Y-77635000D01*
X80151335Y-77635000D01*
X80428574Y-77579853D01*
X80689727Y-77471680D01*
X80924759Y-77314637D01*
X81124637Y-77114759D01*
X81281680Y-76879727D01*
X81389853Y-76618574D01*
X81445000Y-76341335D01*
X81445000Y-76058665D01*
X81389853Y-75781426D01*
X81281680Y-75520273D01*
X81124637Y-75285241D01*
X80924759Y-75085363D01*
X80689727Y-74928320D01*
X80428574Y-74820147D01*
X80151335Y-74765000D01*
X79868665Y-74765000D01*
X79591426Y-74820147D01*
X79330273Y-74928320D01*
X79095241Y-75085363D01*
X78895363Y-75285241D01*
X78738320Y-75520273D01*
X78630147Y-75781426D01*
X78575000Y-76058665D01*
X71278023Y-76058665D01*
X71264236Y-75918691D01*
X71182182Y-75648192D01*
X71048932Y-75398899D01*
X70869608Y-75180392D01*
X70651101Y-75001068D01*
X70401808Y-74867818D01*
X70131309Y-74785764D01*
X69920492Y-74765000D01*
X69779508Y-74765000D01*
X69568691Y-74785764D01*
X69298192Y-74867818D01*
X69048899Y-75001068D01*
X68830392Y-75180392D01*
X68719922Y-75315000D01*
X64667683Y-75315000D01*
X64630537Y-75245506D01*
X64551185Y-75148815D01*
X64454494Y-75069463D01*
X64344180Y-75010498D01*
X64224482Y-74974188D01*
X64100000Y-74961928D01*
X62900000Y-74961928D01*
X62775518Y-74974188D01*
X62655820Y-75010498D01*
X62545506Y-75069463D01*
X62529522Y-75082581D01*
X62360236Y-75012460D01*
X62121637Y-74965000D01*
X61878363Y-74965000D01*
X61639764Y-75012460D01*
X61415008Y-75105557D01*
X61212733Y-75240713D01*
X61040713Y-75412733D01*
X60905557Y-75615008D01*
X60812460Y-75839764D01*
X60766316Y-76071745D01*
X58425732Y-78412330D01*
X58240623Y-78375510D01*
X57918657Y-78375510D01*
X57602877Y-78438322D01*
X57305418Y-78561533D01*
X57037713Y-78740408D01*
X56810048Y-78968073D01*
X56631173Y-79235778D01*
X56507962Y-79533237D01*
X56445150Y-79849017D01*
X43840000Y-79849017D01*
X43840000Y-79240050D01*
X52044195Y-79240050D01*
X52139898Y-79504399D01*
X52429427Y-79645238D01*
X52740869Y-79726885D01*
X53062255Y-79746205D01*
X53381235Y-79702454D01*
X53685551Y-79597314D01*
X53859382Y-79504399D01*
X53955085Y-79240050D01*
X52999640Y-78284605D01*
X52044195Y-79240050D01*
X43840000Y-79240050D01*
X43840000Y-78167615D01*
X51358435Y-78167615D01*
X51402186Y-78486595D01*
X51507326Y-78790911D01*
X51600241Y-78964742D01*
X51864590Y-79060445D01*
X52820035Y-78105000D01*
X53179245Y-78105000D01*
X54134690Y-79060445D01*
X54399039Y-78964742D01*
X54539878Y-78675213D01*
X54621525Y-78363771D01*
X54640845Y-78042385D01*
X54597094Y-77723405D01*
X54491954Y-77419089D01*
X54399039Y-77245258D01*
X54134690Y-77149555D01*
X53179245Y-78105000D01*
X52820035Y-78105000D01*
X51864590Y-77149555D01*
X51600241Y-77245258D01*
X51459402Y-77534787D01*
X51377755Y-77846229D01*
X51358435Y-78167615D01*
X43840000Y-78167615D01*
X43840000Y-76969950D01*
X52044195Y-76969950D01*
X52999640Y-77925395D01*
X53955085Y-76969950D01*
X53859382Y-76705601D01*
X53569853Y-76564762D01*
X53258411Y-76483115D01*
X52937025Y-76463795D01*
X52618045Y-76507546D01*
X52313729Y-76612686D01*
X52139898Y-76705601D01*
X52044195Y-76969950D01*
X43840000Y-76969950D01*
X43840000Y-76039017D01*
X56445150Y-76039017D01*
X56445150Y-76360983D01*
X56507962Y-76676763D01*
X56631173Y-76974222D01*
X56810048Y-77241927D01*
X57037713Y-77469592D01*
X57305418Y-77648467D01*
X57602877Y-77771678D01*
X57918657Y-77834490D01*
X58240623Y-77834490D01*
X58556403Y-77771678D01*
X58853862Y-77648467D01*
X59121567Y-77469592D01*
X59349232Y-77241927D01*
X59528107Y-76974222D01*
X59651318Y-76676763D01*
X59714130Y-76360983D01*
X59714130Y-76039017D01*
X59651318Y-75723237D01*
X59528107Y-75425778D01*
X59349232Y-75158073D01*
X59121567Y-74930408D01*
X58853862Y-74751533D01*
X58556403Y-74628322D01*
X58240623Y-74565510D01*
X57918657Y-74565510D01*
X57602877Y-74628322D01*
X57305418Y-74751533D01*
X57037713Y-74930408D01*
X56810048Y-75158073D01*
X56631173Y-75425778D01*
X56507962Y-75723237D01*
X56445150Y-76039017D01*
X43840000Y-76039017D01*
X43840000Y-74134017D01*
X51365150Y-74134017D01*
X51365150Y-74455983D01*
X51427962Y-74771763D01*
X51551173Y-75069222D01*
X51730048Y-75336927D01*
X51957713Y-75564592D01*
X52225418Y-75743467D01*
X52522877Y-75866678D01*
X52838657Y-75929490D01*
X53160623Y-75929490D01*
X53476403Y-75866678D01*
X53773862Y-75743467D01*
X54041567Y-75564592D01*
X54269232Y-75336927D01*
X54448107Y-75069222D01*
X54571318Y-74771763D01*
X54634130Y-74455983D01*
X54634130Y-74134017D01*
X54571318Y-73818237D01*
X54448107Y-73520778D01*
X54269232Y-73253073D01*
X54041567Y-73025408D01*
X53773862Y-72846533D01*
X53476403Y-72723322D01*
X53160623Y-72660510D01*
X52838657Y-72660510D01*
X52522877Y-72723322D01*
X52225418Y-72846533D01*
X51957713Y-73025408D01*
X51730048Y-73253073D01*
X51551173Y-73520778D01*
X51427962Y-73818237D01*
X51365150Y-74134017D01*
X43840000Y-74134017D01*
X43840000Y-72229017D01*
X56445150Y-72229017D01*
X56445150Y-72550983D01*
X56507962Y-72866763D01*
X56631173Y-73164222D01*
X56810048Y-73431927D01*
X57037713Y-73659592D01*
X57305418Y-73838467D01*
X57602877Y-73961678D01*
X57918657Y-74024490D01*
X58240623Y-74024490D01*
X58556403Y-73961678D01*
X58853862Y-73838467D01*
X59121567Y-73659592D01*
X59349232Y-73431927D01*
X59528107Y-73164222D01*
X59651318Y-72866763D01*
X59714130Y-72550983D01*
X59714130Y-72229017D01*
X59677310Y-72043908D01*
X61520556Y-70200662D01*
X64304942Y-72985049D01*
X64332655Y-73018817D01*
X64366423Y-73046530D01*
X64366425Y-73046532D01*
X64394688Y-73069727D01*
X64467413Y-73129411D01*
X64621159Y-73211589D01*
X64787982Y-73262195D01*
X64917995Y-73275000D01*
X64918003Y-73275000D01*
X64951772Y-73278326D01*
X65022733Y-73349287D01*
X65225008Y-73484443D01*
X65449764Y-73577540D01*
X65688363Y-73625000D01*
X65931637Y-73625000D01*
X66170236Y-73577540D01*
X66339522Y-73507419D01*
X66355506Y-73520537D01*
X66465820Y-73579502D01*
X66585518Y-73615812D01*
X66710000Y-73628072D01*
X67910000Y-73628072D01*
X68034482Y-73615812D01*
X68154180Y-73579502D01*
X68264494Y-73520537D01*
X68361185Y-73441185D01*
X68440537Y-73344494D01*
X68477683Y-73275000D01*
X71259922Y-73275000D01*
X71370392Y-73409608D01*
X71588899Y-73588932D01*
X71838192Y-73722182D01*
X72108691Y-73804236D01*
X72319508Y-73825000D01*
X72460492Y-73825000D01*
X72671309Y-73804236D01*
X72941808Y-73722182D01*
X73191101Y-73588932D01*
X73409608Y-73409608D01*
X73588932Y-73191101D01*
X73722182Y-72941808D01*
X73804236Y-72671309D01*
X73831943Y-72390000D01*
X73818023Y-72248665D01*
X81115000Y-72248665D01*
X81115000Y-72531335D01*
X81170147Y-72808574D01*
X81278320Y-73069727D01*
X81435363Y-73304759D01*
X81635241Y-73504637D01*
X81870273Y-73661680D01*
X82131426Y-73769853D01*
X82408665Y-73825000D01*
X82691335Y-73825000D01*
X82968574Y-73769853D01*
X83229727Y-73661680D01*
X83464759Y-73504637D01*
X83664637Y-73304759D01*
X83774725Y-73140000D01*
X85196928Y-73140000D01*
X85209188Y-73264482D01*
X85245498Y-73384180D01*
X85304463Y-73494494D01*
X85383815Y-73591185D01*
X85480506Y-73670537D01*
X85590820Y-73729502D01*
X85710518Y-73765812D01*
X85835000Y-73778072D01*
X86074250Y-73775000D01*
X86233000Y-73616250D01*
X86233000Y-72517000D01*
X85358750Y-72517000D01*
X85200000Y-72675750D01*
X85196928Y-73140000D01*
X83774725Y-73140000D01*
X83821680Y-73069727D01*
X83929853Y-72808574D01*
X83985000Y-72531335D01*
X83985000Y-72248665D01*
X83929853Y-71971426D01*
X83821680Y-71710273D01*
X83774726Y-71640000D01*
X85196928Y-71640000D01*
X85200000Y-72104250D01*
X85358750Y-72263000D01*
X86233000Y-72263000D01*
X86233000Y-71163750D01*
X86074250Y-71005000D01*
X85835000Y-71001928D01*
X85710518Y-71014188D01*
X85590820Y-71050498D01*
X85480506Y-71109463D01*
X85383815Y-71188815D01*
X85304463Y-71285506D01*
X85245498Y-71395820D01*
X85209188Y-71515518D01*
X85196928Y-71640000D01*
X83774726Y-71640000D01*
X83664637Y-71475241D01*
X83464759Y-71275363D01*
X83229727Y-71118320D01*
X82968574Y-71010147D01*
X82691335Y-70955000D01*
X82408665Y-70955000D01*
X82131426Y-71010147D01*
X81870273Y-71118320D01*
X81635241Y-71275363D01*
X81435363Y-71475241D01*
X81278320Y-71710273D01*
X81170147Y-71971426D01*
X81115000Y-72248665D01*
X73818023Y-72248665D01*
X73804236Y-72108691D01*
X73722182Y-71838192D01*
X73588932Y-71588899D01*
X73409608Y-71370392D01*
X73191101Y-71191068D01*
X72941808Y-71057818D01*
X72671309Y-70975764D01*
X72460492Y-70955000D01*
X72319508Y-70955000D01*
X72108691Y-70975764D01*
X71838192Y-71057818D01*
X71588899Y-71191068D01*
X71370392Y-71370392D01*
X71259922Y-71505000D01*
X68477683Y-71505000D01*
X68440537Y-71435506D01*
X68361185Y-71338815D01*
X68264494Y-71259463D01*
X68154180Y-71200498D01*
X68034482Y-71164188D01*
X67910000Y-71151928D01*
X66710000Y-71151928D01*
X66585518Y-71164188D01*
X66465820Y-71200498D01*
X66355506Y-71259463D01*
X66339522Y-71272581D01*
X66170236Y-71202460D01*
X65931637Y-71155000D01*
X65688363Y-71155000D01*
X65449764Y-71202460D01*
X65225008Y-71295557D01*
X65161226Y-71338175D01*
X63641122Y-69818072D01*
X64100000Y-69818072D01*
X64224482Y-69805812D01*
X64344180Y-69769502D01*
X64454494Y-69710537D01*
X64551185Y-69631185D01*
X64630537Y-69534494D01*
X64667683Y-69465000D01*
X68719922Y-69465000D01*
X68830392Y-69599608D01*
X69048899Y-69778932D01*
X69298192Y-69912182D01*
X69568691Y-69994236D01*
X69779508Y-70015000D01*
X69920492Y-70015000D01*
X70131309Y-69994236D01*
X70401808Y-69912182D01*
X70651101Y-69778932D01*
X70869608Y-69599608D01*
X71048932Y-69381101D01*
X71182182Y-69131808D01*
X71264236Y-68861309D01*
X71291943Y-68580000D01*
X71264236Y-68298691D01*
X71182182Y-68028192D01*
X71048932Y-67778899D01*
X70869608Y-67560392D01*
X70651101Y-67381068D01*
X70401808Y-67247818D01*
X70131309Y-67165764D01*
X69920492Y-67145000D01*
X69779508Y-67145000D01*
X69568691Y-67165764D01*
X69298192Y-67247818D01*
X69048899Y-67381068D01*
X68830392Y-67560392D01*
X68719922Y-67695000D01*
X64667683Y-67695000D01*
X64630537Y-67625506D01*
X64551185Y-67528815D01*
X64454494Y-67449463D01*
X64344180Y-67390498D01*
X64224482Y-67354188D01*
X64100000Y-67341928D01*
X62900000Y-67341928D01*
X62775518Y-67354188D01*
X62655820Y-67390498D01*
X62545506Y-67449463D01*
X62529522Y-67462581D01*
X62360236Y-67392460D01*
X62121637Y-67345000D01*
X61878363Y-67345000D01*
X61639764Y-67392460D01*
X61415008Y-67485557D01*
X61212733Y-67620713D01*
X61040713Y-67792733D01*
X60905557Y-67995008D01*
X60812460Y-68219764D01*
X60766316Y-68451745D01*
X58425732Y-70792330D01*
X58240623Y-70755510D01*
X57918657Y-70755510D01*
X57602877Y-70818322D01*
X57305418Y-70941533D01*
X57037713Y-71120408D01*
X56810048Y-71348073D01*
X56631173Y-71615778D01*
X56507962Y-71913237D01*
X56445150Y-72229017D01*
X43840000Y-72229017D01*
X43840000Y-70324017D01*
X51365150Y-70324017D01*
X51365150Y-70645983D01*
X51427962Y-70961763D01*
X51551173Y-71259222D01*
X51730048Y-71526927D01*
X51957713Y-71754592D01*
X52225418Y-71933467D01*
X52522877Y-72056678D01*
X52838657Y-72119490D01*
X53160623Y-72119490D01*
X53476403Y-72056678D01*
X53773862Y-71933467D01*
X54041567Y-71754592D01*
X54269232Y-71526927D01*
X54448107Y-71259222D01*
X54571318Y-70961763D01*
X54634130Y-70645983D01*
X54634130Y-70324017D01*
X54571318Y-70008237D01*
X54448107Y-69710778D01*
X54269232Y-69443073D01*
X54041567Y-69215408D01*
X53773862Y-69036533D01*
X53476403Y-68913322D01*
X53160623Y-68850510D01*
X52838657Y-68850510D01*
X52522877Y-68913322D01*
X52225418Y-69036533D01*
X51957713Y-69215408D01*
X51730048Y-69443073D01*
X51551173Y-69710778D01*
X51427962Y-70008237D01*
X51365150Y-70324017D01*
X43840000Y-70324017D01*
X43840000Y-66514017D01*
X51365150Y-66514017D01*
X51365150Y-66835983D01*
X51427962Y-67151763D01*
X51551173Y-67449222D01*
X51730048Y-67716927D01*
X51957713Y-67944592D01*
X52225418Y-68123467D01*
X52522877Y-68246678D01*
X52838657Y-68309490D01*
X53160623Y-68309490D01*
X53345731Y-68272670D01*
X54248108Y-69175047D01*
X54275823Y-69208817D01*
X54309591Y-69236530D01*
X54309593Y-69236532D01*
X54332143Y-69255038D01*
X54410581Y-69319411D01*
X54564327Y-69401589D01*
X54731150Y-69452195D01*
X54861163Y-69465000D01*
X54861171Y-69465000D01*
X54904640Y-69469281D01*
X54948109Y-69465000D01*
X56705193Y-69465000D01*
X56810048Y-69621927D01*
X57037713Y-69849592D01*
X57305418Y-70028467D01*
X57602877Y-70151678D01*
X57918657Y-70214490D01*
X58240623Y-70214490D01*
X58556403Y-70151678D01*
X58853862Y-70028467D01*
X59121567Y-69849592D01*
X59349232Y-69621927D01*
X59528107Y-69354222D01*
X59651318Y-69056763D01*
X59714130Y-68740983D01*
X59714130Y-68419017D01*
X59651318Y-68103237D01*
X59528107Y-67805778D01*
X59349232Y-67538073D01*
X59121567Y-67310408D01*
X58853862Y-67131533D01*
X58556403Y-67008322D01*
X58240623Y-66945510D01*
X57918657Y-66945510D01*
X57602877Y-67008322D01*
X57305418Y-67131533D01*
X57037713Y-67310408D01*
X56810048Y-67538073D01*
X56705193Y-67695000D01*
X55271219Y-67695000D01*
X54597310Y-67021091D01*
X54634130Y-66835983D01*
X54634130Y-66514017D01*
X54571318Y-66198237D01*
X54448107Y-65900778D01*
X54269232Y-65633073D01*
X54041567Y-65405408D01*
X53773862Y-65226533D01*
X53476403Y-65103322D01*
X53160623Y-65040510D01*
X52838657Y-65040510D01*
X52522877Y-65103322D01*
X52225418Y-65226533D01*
X51957713Y-65405408D01*
X51730048Y-65633073D01*
X51551173Y-65900778D01*
X51427962Y-66198237D01*
X51365150Y-66514017D01*
X43840000Y-66514017D01*
X43840000Y-64609017D01*
X56445150Y-64609017D01*
X56445150Y-64930983D01*
X56507962Y-65246763D01*
X56631173Y-65544222D01*
X56810048Y-65811927D01*
X57037713Y-66039592D01*
X57305418Y-66218467D01*
X57602877Y-66341678D01*
X57918657Y-66404490D01*
X58240623Y-66404490D01*
X58556403Y-66341678D01*
X58853862Y-66218467D01*
X59121567Y-66039592D01*
X59349232Y-65811927D01*
X59528107Y-65544222D01*
X59651318Y-65246763D01*
X59714130Y-64930983D01*
X59714130Y-64609017D01*
X59677310Y-64423908D01*
X61520556Y-62580662D01*
X64304942Y-65365049D01*
X64332655Y-65398817D01*
X64366423Y-65426530D01*
X64366425Y-65426532D01*
X64394688Y-65449727D01*
X64467413Y-65509411D01*
X64621159Y-65591589D01*
X64787982Y-65642195D01*
X64917995Y-65655000D01*
X64918003Y-65655000D01*
X64951772Y-65658326D01*
X65022733Y-65729287D01*
X65225008Y-65864443D01*
X65449764Y-65957540D01*
X65688363Y-66005000D01*
X65931637Y-66005000D01*
X66170236Y-65957540D01*
X66339522Y-65887419D01*
X66355506Y-65900537D01*
X66465820Y-65959502D01*
X66585518Y-65995812D01*
X66710000Y-66008072D01*
X67910000Y-66008072D01*
X68034482Y-65995812D01*
X68154180Y-65959502D01*
X68264494Y-65900537D01*
X68361185Y-65821185D01*
X68440537Y-65724494D01*
X68477683Y-65655000D01*
X71259922Y-65655000D01*
X71370392Y-65789608D01*
X71588899Y-65968932D01*
X71838192Y-66102182D01*
X72108691Y-66184236D01*
X72319508Y-66205000D01*
X72460492Y-66205000D01*
X72671309Y-66184236D01*
X72941808Y-66102182D01*
X73191101Y-65968932D01*
X73409608Y-65789608D01*
X73588932Y-65571101D01*
X73722182Y-65321808D01*
X73804236Y-65051309D01*
X73831943Y-64770000D01*
X73818023Y-64628665D01*
X81115000Y-64628665D01*
X81115000Y-64911335D01*
X81170147Y-65188574D01*
X81278320Y-65449727D01*
X81435363Y-65684759D01*
X81635241Y-65884637D01*
X81870273Y-66041680D01*
X82131426Y-66149853D01*
X82408665Y-66205000D01*
X82691335Y-66205000D01*
X82968574Y-66149853D01*
X83229727Y-66041680D01*
X83464759Y-65884637D01*
X83664637Y-65684759D01*
X83821680Y-65449727D01*
X83929853Y-65188574D01*
X83985000Y-64911335D01*
X83985000Y-64628665D01*
X83929853Y-64351426D01*
X83821680Y-64090273D01*
X83664637Y-63855241D01*
X83464759Y-63655363D01*
X83229727Y-63498320D01*
X82968574Y-63390147D01*
X82691335Y-63335000D01*
X82408665Y-63335000D01*
X82131426Y-63390147D01*
X81870273Y-63498320D01*
X81635241Y-63655363D01*
X81435363Y-63855241D01*
X81278320Y-64090273D01*
X81170147Y-64351426D01*
X81115000Y-64628665D01*
X73818023Y-64628665D01*
X73804236Y-64488691D01*
X73722182Y-64218192D01*
X73588932Y-63968899D01*
X73409608Y-63750392D01*
X73191101Y-63571068D01*
X72941808Y-63437818D01*
X72671309Y-63355764D01*
X72460492Y-63335000D01*
X72319508Y-63335000D01*
X72108691Y-63355764D01*
X71838192Y-63437818D01*
X71588899Y-63571068D01*
X71370392Y-63750392D01*
X71259922Y-63885000D01*
X68477683Y-63885000D01*
X68440537Y-63815506D01*
X68361185Y-63718815D01*
X68264494Y-63639463D01*
X68154180Y-63580498D01*
X68034482Y-63544188D01*
X67910000Y-63531928D01*
X66710000Y-63531928D01*
X66585518Y-63544188D01*
X66465820Y-63580498D01*
X66355506Y-63639463D01*
X66339522Y-63652581D01*
X66170236Y-63582460D01*
X65931637Y-63535000D01*
X65688363Y-63535000D01*
X65449764Y-63582460D01*
X65225008Y-63675557D01*
X65161226Y-63718175D01*
X63641122Y-62198072D01*
X64100000Y-62198072D01*
X64224482Y-62185812D01*
X64344180Y-62149502D01*
X64454494Y-62090537D01*
X64551185Y-62011185D01*
X64630537Y-61914494D01*
X64667683Y-61845000D01*
X68719922Y-61845000D01*
X68830392Y-61979608D01*
X69048899Y-62158932D01*
X69298192Y-62292182D01*
X69568691Y-62374236D01*
X69779508Y-62395000D01*
X69920492Y-62395000D01*
X70131309Y-62374236D01*
X70401808Y-62292182D01*
X70651101Y-62158932D01*
X70869608Y-61979608D01*
X71048932Y-61761101D01*
X71182182Y-61511808D01*
X71264236Y-61241309D01*
X71291943Y-60960000D01*
X71278023Y-60818665D01*
X78575000Y-60818665D01*
X78575000Y-61101335D01*
X78630147Y-61378574D01*
X78738320Y-61639727D01*
X78895363Y-61874759D01*
X79095241Y-62074637D01*
X79330273Y-62231680D01*
X79591426Y-62339853D01*
X79868665Y-62395000D01*
X80151335Y-62395000D01*
X80186439Y-62388017D01*
X80623470Y-62825049D01*
X80651183Y-62858817D01*
X80684951Y-62886530D01*
X80684953Y-62886532D01*
X80713216Y-62909727D01*
X80785941Y-62969411D01*
X80939687Y-63051589D01*
X81106510Y-63102195D01*
X81236523Y-63115000D01*
X81236533Y-63115000D01*
X81279999Y-63119281D01*
X81323465Y-63115000D01*
X85212379Y-63115000D01*
X85245498Y-63224180D01*
X85304463Y-63334494D01*
X85383815Y-63431185D01*
X85480506Y-63510537D01*
X85590820Y-63569502D01*
X85710518Y-63605812D01*
X85835000Y-63618072D01*
X86167126Y-63618072D01*
X81965199Y-67820000D01*
X81228043Y-67820000D01*
X81124637Y-67665241D01*
X80924759Y-67465363D01*
X80689727Y-67308320D01*
X80428574Y-67200147D01*
X80151335Y-67145000D01*
X79868665Y-67145000D01*
X79591426Y-67200147D01*
X79330273Y-67308320D01*
X79095241Y-67465363D01*
X78895363Y-67665241D01*
X78738320Y-67900273D01*
X78630147Y-68161426D01*
X78575000Y-68438665D01*
X78575000Y-68721335D01*
X78630147Y-68998574D01*
X78738320Y-69259727D01*
X78895363Y-69494759D01*
X79095241Y-69694637D01*
X79330273Y-69851680D01*
X79591426Y-69959853D01*
X79868665Y-70015000D01*
X80151335Y-70015000D01*
X80428574Y-69959853D01*
X80689727Y-69851680D01*
X80924759Y-69694637D01*
X81124637Y-69494759D01*
X81228043Y-69340000D01*
X82242678Y-69340000D01*
X82280000Y-69343676D01*
X82317322Y-69340000D01*
X82317333Y-69340000D01*
X82428986Y-69329003D01*
X82572247Y-69285546D01*
X82704276Y-69214974D01*
X82820001Y-69120001D01*
X82843804Y-69090997D01*
X83874801Y-68060000D01*
X85196928Y-68060000D01*
X85209188Y-68184482D01*
X85245498Y-68304180D01*
X85304463Y-68414494D01*
X85383815Y-68511185D01*
X85480506Y-68590537D01*
X85590820Y-68649502D01*
X85710518Y-68685812D01*
X85835000Y-68698072D01*
X86074250Y-68695000D01*
X86233000Y-68536250D01*
X86233000Y-67437000D01*
X85358750Y-67437000D01*
X85200000Y-67595750D01*
X85196928Y-68060000D01*
X83874801Y-68060000D01*
X85198097Y-66736704D01*
X85200000Y-67024250D01*
X85358750Y-67183000D01*
X86233000Y-67183000D01*
X86233000Y-67028022D01*
X86470000Y-67028022D01*
X86470000Y-67591979D01*
X86486785Y-67762400D01*
X86487000Y-67763109D01*
X86487000Y-68536250D01*
X86645750Y-68695000D01*
X86885000Y-68698072D01*
X87009482Y-68685812D01*
X87129180Y-68649502D01*
X87193902Y-68614907D01*
X87402601Y-68678215D01*
X87630000Y-68700612D01*
X87857400Y-68678215D01*
X88076060Y-68611885D01*
X88265001Y-68510894D01*
X88453941Y-68611885D01*
X88672601Y-68678215D01*
X88900000Y-68700612D01*
X89127400Y-68678215D01*
X89346060Y-68611885D01*
X89547579Y-68504171D01*
X89724212Y-68359212D01*
X89858977Y-68195000D01*
X91575479Y-68195000D01*
X91595363Y-68224759D01*
X91795241Y-68424637D01*
X92030273Y-68581680D01*
X92291426Y-68689853D01*
X92568665Y-68745000D01*
X92851335Y-68745000D01*
X93128574Y-68689853D01*
X93389727Y-68581680D01*
X93624759Y-68424637D01*
X93824637Y-68224759D01*
X93981680Y-67989727D01*
X94089853Y-67728574D01*
X94145000Y-67451335D01*
X94145000Y-67168665D01*
X94089853Y-66891426D01*
X93981680Y-66630273D01*
X93824637Y-66395241D01*
X93624759Y-66195363D01*
X93389727Y-66038320D01*
X93147681Y-65938061D01*
X95485000Y-65938061D01*
X95485000Y-66141939D01*
X95524774Y-66341898D01*
X95602795Y-66530256D01*
X95716063Y-66699774D01*
X95860226Y-66843937D01*
X96029744Y-66957205D01*
X96218102Y-67035226D01*
X96274957Y-67046535D01*
X97133470Y-67905049D01*
X97161183Y-67938817D01*
X97194951Y-67966530D01*
X97194953Y-67966532D01*
X97217399Y-67984953D01*
X97295941Y-68049411D01*
X97449687Y-68131589D01*
X97616510Y-68182195D01*
X97746523Y-68195000D01*
X97746533Y-68195000D01*
X97789999Y-68199281D01*
X97833465Y-68195000D01*
X101739922Y-68195000D01*
X101850392Y-68329608D01*
X102068899Y-68508932D01*
X102318192Y-68642182D01*
X102588691Y-68724236D01*
X102799508Y-68745000D01*
X102940492Y-68745000D01*
X103151309Y-68724236D01*
X103421808Y-68642182D01*
X103671101Y-68508932D01*
X103889608Y-68329608D01*
X104068932Y-68111101D01*
X104202182Y-67861808D01*
X104284236Y-67591309D01*
X104311943Y-67310000D01*
X104294875Y-67136704D01*
X104936079Y-66495500D01*
X108953202Y-66495500D01*
X108879160Y-66739585D01*
X108855510Y-66979709D01*
X108855510Y-67640292D01*
X108879160Y-67880416D01*
X108972622Y-68188519D01*
X109124396Y-68472467D01*
X109328649Y-68721351D01*
X109577534Y-68925604D01*
X109861482Y-69077378D01*
X110169585Y-69170840D01*
X110490000Y-69202398D01*
X110810416Y-69170840D01*
X111118519Y-69077378D01*
X111402467Y-68925604D01*
X111651351Y-68721351D01*
X111855604Y-68472467D01*
X112007378Y-68188519D01*
X112100840Y-67880415D01*
X112124490Y-67640291D01*
X112124490Y-66979708D01*
X112100840Y-66739584D01*
X112026798Y-66495500D01*
X114384792Y-66495500D01*
X115794340Y-67905049D01*
X115822053Y-67938817D01*
X115855821Y-67966530D01*
X115855823Y-67966532D01*
X115878269Y-67984953D01*
X115956811Y-68049411D01*
X116110557Y-68131589D01*
X116208915Y-68161426D01*
X116277379Y-68182195D01*
X116292176Y-68183652D01*
X116407393Y-68195000D01*
X116407401Y-68195000D01*
X116450870Y-68199281D01*
X116494339Y-68195000D01*
X116570075Y-68195000D01*
X116584756Y-68222467D01*
X116789009Y-68471351D01*
X117037893Y-68675604D01*
X117321841Y-68827378D01*
X117629944Y-68920840D01*
X117870068Y-68944490D01*
X119030652Y-68944490D01*
X119270776Y-68920840D01*
X119578879Y-68827378D01*
X119862827Y-68675604D01*
X120111711Y-68471351D01*
X120315964Y-68222467D01*
X120467738Y-67938519D01*
X120561200Y-67630416D01*
X120592758Y-67310000D01*
X120561200Y-66989584D01*
X120467738Y-66681481D01*
X120315964Y-66397533D01*
X120111711Y-66148649D01*
X119862827Y-65944396D01*
X119578879Y-65792622D01*
X119270776Y-65699160D01*
X119030652Y-65675510D01*
X117870068Y-65675510D01*
X117629944Y-65699160D01*
X117321841Y-65792622D01*
X117037893Y-65944396D01*
X116789009Y-66148649D01*
X116677262Y-66284813D01*
X115407904Y-65015456D01*
X115380187Y-64981683D01*
X115245429Y-64871089D01*
X115091683Y-64788911D01*
X114924860Y-64738305D01*
X114794847Y-64725500D01*
X114794839Y-64725500D01*
X114751370Y-64721219D01*
X114707901Y-64725500D01*
X104612969Y-64725500D01*
X104569500Y-64721219D01*
X104526031Y-64725500D01*
X104526023Y-64725500D01*
X104410806Y-64736848D01*
X104396009Y-64738305D01*
X104345403Y-64753657D01*
X104229187Y-64788911D01*
X104075441Y-64871089D01*
X104075439Y-64871090D01*
X104075440Y-64871090D01*
X103974453Y-64953968D01*
X103974451Y-64953970D01*
X103940683Y-64981683D01*
X103912970Y-65015451D01*
X103043296Y-65885125D01*
X102940492Y-65875000D01*
X102799508Y-65875000D01*
X102588691Y-65895764D01*
X102318192Y-65977818D01*
X102068899Y-66111068D01*
X101850392Y-66290392D01*
X101739922Y-66425000D01*
X98156579Y-66425000D01*
X97526535Y-65794957D01*
X97515226Y-65738102D01*
X97437205Y-65549744D01*
X97323937Y-65380226D01*
X97179774Y-65236063D01*
X97010256Y-65122795D01*
X96821898Y-65044774D01*
X96621939Y-65005000D01*
X96418061Y-65005000D01*
X96218102Y-65044774D01*
X96029744Y-65122795D01*
X95860226Y-65236063D01*
X95716063Y-65380226D01*
X95602795Y-65549744D01*
X95524774Y-65738102D01*
X95485000Y-65938061D01*
X93147681Y-65938061D01*
X93128574Y-65930147D01*
X92851335Y-65875000D01*
X92568665Y-65875000D01*
X92291426Y-65930147D01*
X92030273Y-66038320D01*
X91795241Y-66195363D01*
X91595363Y-66395241D01*
X91575479Y-66425000D01*
X89858977Y-66425000D01*
X89724212Y-66260788D01*
X89547578Y-66115829D01*
X89346059Y-66008115D01*
X89127399Y-65941785D01*
X88900000Y-65919388D01*
X88672600Y-65941785D01*
X88453940Y-66008115D01*
X88265000Y-66109106D01*
X88076059Y-66008115D01*
X87857399Y-65941785D01*
X87630000Y-65919388D01*
X87402600Y-65941785D01*
X87193902Y-66005093D01*
X87129180Y-65970498D01*
X87009482Y-65934188D01*
X86885000Y-65921928D01*
X86645750Y-65925000D01*
X86487000Y-66083750D01*
X86487000Y-66856892D01*
X86486785Y-66857601D01*
X86470000Y-67028022D01*
X86233000Y-67028022D01*
X86233000Y-66083750D01*
X86074250Y-65925000D01*
X86010619Y-65924183D01*
X88141004Y-63793798D01*
X88170001Y-63770001D01*
X88264974Y-63654276D01*
X88335546Y-63522247D01*
X88349549Y-63476086D01*
X88453941Y-63531885D01*
X88672601Y-63598215D01*
X88900000Y-63620612D01*
X89127400Y-63598215D01*
X89346060Y-63531885D01*
X89547579Y-63424171D01*
X89724212Y-63279212D01*
X89858977Y-63115000D01*
X91575479Y-63115000D01*
X91595363Y-63144759D01*
X91795241Y-63344637D01*
X92030273Y-63501680D01*
X92291426Y-63609853D01*
X92568665Y-63665000D01*
X92851335Y-63665000D01*
X93128574Y-63609853D01*
X93389727Y-63501680D01*
X93624759Y-63344637D01*
X93746694Y-63222702D01*
X95706903Y-63222702D01*
X95778486Y-63466671D01*
X96033996Y-63587571D01*
X96308184Y-63656300D01*
X96590512Y-63670217D01*
X96870130Y-63628787D01*
X97136292Y-63533603D01*
X97261514Y-63466671D01*
X97333097Y-63222702D01*
X96520000Y-62409605D01*
X95706903Y-63222702D01*
X93746694Y-63222702D01*
X93824637Y-63144759D01*
X93981680Y-62909727D01*
X94089853Y-62648574D01*
X94145000Y-62371335D01*
X94145000Y-62300512D01*
X95079783Y-62300512D01*
X95121213Y-62580130D01*
X95216397Y-62846292D01*
X95283329Y-62971514D01*
X95527298Y-63043097D01*
X96340395Y-62230000D01*
X96699605Y-62230000D01*
X97512702Y-63043097D01*
X97756671Y-62971514D01*
X97877571Y-62716004D01*
X97946300Y-62441816D01*
X97960217Y-62159488D01*
X97949724Y-62088665D01*
X103975000Y-62088665D01*
X103975000Y-62371335D01*
X104030147Y-62648574D01*
X104138320Y-62909727D01*
X104295363Y-63144759D01*
X104495241Y-63344637D01*
X104730273Y-63501680D01*
X104991426Y-63609853D01*
X105268665Y-63665000D01*
X105551335Y-63665000D01*
X105828574Y-63609853D01*
X106089727Y-63501680D01*
X106324759Y-63344637D01*
X106524637Y-63144759D01*
X106681680Y-62909727D01*
X106789853Y-62648574D01*
X106845000Y-62371335D01*
X106845000Y-62088665D01*
X106789853Y-61811426D01*
X106681680Y-61550273D01*
X106524637Y-61315241D01*
X106324759Y-61115363D01*
X106089727Y-60958320D01*
X105828574Y-60850147D01*
X105551335Y-60795000D01*
X105268665Y-60795000D01*
X104991426Y-60850147D01*
X104730273Y-60958320D01*
X104495241Y-61115363D01*
X104295363Y-61315241D01*
X104138320Y-61550273D01*
X104030147Y-61811426D01*
X103975000Y-62088665D01*
X97949724Y-62088665D01*
X97918787Y-61879870D01*
X97823603Y-61613708D01*
X97756671Y-61488486D01*
X97512702Y-61416903D01*
X96699605Y-62230000D01*
X96340395Y-62230000D01*
X95527298Y-61416903D01*
X95283329Y-61488486D01*
X95162429Y-61743996D01*
X95093700Y-62018184D01*
X95079783Y-62300512D01*
X94145000Y-62300512D01*
X94145000Y-62088665D01*
X94089853Y-61811426D01*
X93981680Y-61550273D01*
X93824637Y-61315241D01*
X93746694Y-61237298D01*
X95706903Y-61237298D01*
X96520000Y-62050395D01*
X97333097Y-61237298D01*
X97261514Y-60993329D01*
X97006004Y-60872429D01*
X96731816Y-60803700D01*
X96449488Y-60789783D01*
X96169870Y-60831213D01*
X95903708Y-60926397D01*
X95778486Y-60993329D01*
X95706903Y-61237298D01*
X93746694Y-61237298D01*
X93624759Y-61115363D01*
X93389727Y-60958320D01*
X93128574Y-60850147D01*
X92851335Y-60795000D01*
X92568665Y-60795000D01*
X92291426Y-60850147D01*
X92030273Y-60958320D01*
X91795241Y-61115363D01*
X91595363Y-61315241D01*
X91575479Y-61345000D01*
X89858977Y-61345000D01*
X89724212Y-61180788D01*
X89547578Y-61035829D01*
X89346059Y-60928115D01*
X89127399Y-60861785D01*
X88900000Y-60839388D01*
X88672600Y-60861785D01*
X88453940Y-60928115D01*
X88264999Y-61029106D01*
X88076059Y-60928115D01*
X87857399Y-60861785D01*
X87741234Y-60850344D01*
X92041578Y-56550000D01*
X99091928Y-56550000D01*
X99091928Y-57750000D01*
X99104188Y-57874482D01*
X99140498Y-57994180D01*
X99199463Y-58104494D01*
X99278815Y-58201185D01*
X99375506Y-58280537D01*
X99485820Y-58339502D01*
X99605518Y-58375812D01*
X99730000Y-58388072D01*
X100930000Y-58388072D01*
X101054482Y-58375812D01*
X101174180Y-58339502D01*
X101284494Y-58280537D01*
X101300478Y-58267419D01*
X101469764Y-58337540D01*
X101708363Y-58385000D01*
X101951637Y-58385000D01*
X102190236Y-58337540D01*
X102414992Y-58244443D01*
X102617267Y-58109287D01*
X102789287Y-57937267D01*
X102924443Y-57734992D01*
X103017540Y-57510236D01*
X103065000Y-57271637D01*
X103065000Y-57028363D01*
X103017540Y-56789764D01*
X102924443Y-56565008D01*
X102789287Y-56362733D01*
X102617267Y-56190713D01*
X102414992Y-56055557D01*
X102190236Y-55962460D01*
X101951637Y-55915000D01*
X101708363Y-55915000D01*
X101469764Y-55962460D01*
X101300478Y-56032581D01*
X101284494Y-56019463D01*
X101174180Y-55960498D01*
X101054482Y-55924188D01*
X100930000Y-55911928D01*
X99730000Y-55911928D01*
X99605518Y-55924188D01*
X99485820Y-55960498D01*
X99375506Y-56019463D01*
X99278815Y-56098815D01*
X99199463Y-56195506D01*
X99140498Y-56305820D01*
X99104188Y-56425518D01*
X99091928Y-56550000D01*
X92041578Y-56550000D01*
X93096579Y-55495000D01*
X93936531Y-55495000D01*
X93980000Y-55499281D01*
X94023469Y-55495000D01*
X94023477Y-55495000D01*
X94153490Y-55482195D01*
X94320313Y-55431589D01*
X94474059Y-55349411D01*
X94608817Y-55238817D01*
X94636534Y-55205044D01*
X96346704Y-53494875D01*
X96449508Y-53505000D01*
X96590492Y-53505000D01*
X96801309Y-53484236D01*
X97071808Y-53402182D01*
X97321101Y-53268932D01*
X97539608Y-53089608D01*
X97718932Y-52871101D01*
X97852182Y-52621808D01*
X97934236Y-52351309D01*
X97961943Y-52070000D01*
X103968057Y-52070000D01*
X103995764Y-52351309D01*
X104077818Y-52621808D01*
X104211068Y-52871101D01*
X104390392Y-53089608D01*
X104608899Y-53268932D01*
X104858192Y-53402182D01*
X105128691Y-53484236D01*
X105339508Y-53505000D01*
X105480492Y-53505000D01*
X105691309Y-53484236D01*
X105961808Y-53402182D01*
X106211101Y-53268932D01*
X106429608Y-53089608D01*
X106495179Y-53009709D01*
X108855510Y-53009709D01*
X108855510Y-53670292D01*
X108879160Y-53910416D01*
X108972622Y-54218519D01*
X109124396Y-54502467D01*
X109328649Y-54751351D01*
X109577534Y-54955604D01*
X109861482Y-55107378D01*
X110169585Y-55200840D01*
X110490000Y-55232398D01*
X110810416Y-55200840D01*
X111118519Y-55107378D01*
X111402467Y-54955604D01*
X111651351Y-54751351D01*
X111855604Y-54502467D01*
X112007378Y-54218519D01*
X112100840Y-53910415D01*
X112124490Y-53670291D01*
X112124490Y-53340000D01*
X116307962Y-53340000D01*
X116339520Y-53660416D01*
X116432982Y-53968519D01*
X116584756Y-54252467D01*
X116789009Y-54501351D01*
X117037893Y-54705604D01*
X117321841Y-54857378D01*
X117629944Y-54950840D01*
X117870068Y-54974490D01*
X119030652Y-54974490D01*
X119270776Y-54950840D01*
X119578879Y-54857378D01*
X119862827Y-54705604D01*
X120111711Y-54501351D01*
X120315964Y-54252467D01*
X120467738Y-53968519D01*
X120561200Y-53660416D01*
X120592758Y-53340000D01*
X120561200Y-53019584D01*
X120467738Y-52711481D01*
X120315964Y-52427533D01*
X120111711Y-52178649D01*
X119862827Y-51974396D01*
X119578879Y-51822622D01*
X119270776Y-51729160D01*
X119030652Y-51705510D01*
X117870068Y-51705510D01*
X117629944Y-51729160D01*
X117321841Y-51822622D01*
X117037893Y-51974396D01*
X116789009Y-52178649D01*
X116584756Y-52427533D01*
X116432982Y-52711481D01*
X116339520Y-53019584D01*
X116307962Y-53340000D01*
X112124490Y-53340000D01*
X112124490Y-53009708D01*
X112100840Y-52769584D01*
X112007378Y-52461481D01*
X111855604Y-52177533D01*
X111651351Y-51928649D01*
X111402466Y-51724396D01*
X111118518Y-51572622D01*
X110810415Y-51479160D01*
X110490000Y-51447602D01*
X110169584Y-51479160D01*
X109861481Y-51572622D01*
X109577533Y-51724396D01*
X109328649Y-51928649D01*
X109124396Y-52177534D01*
X108972622Y-52461482D01*
X108879160Y-52769585D01*
X108855510Y-53009709D01*
X106495179Y-53009709D01*
X106608932Y-52871101D01*
X106742182Y-52621808D01*
X106824236Y-52351309D01*
X106851943Y-52070000D01*
X106824236Y-51788691D01*
X106742182Y-51518192D01*
X106608932Y-51268899D01*
X106429608Y-51050392D01*
X106211101Y-50871068D01*
X105961808Y-50737818D01*
X105691309Y-50655764D01*
X105480492Y-50635000D01*
X105339508Y-50635000D01*
X105128691Y-50655764D01*
X104858192Y-50737818D01*
X104608899Y-50871068D01*
X104390392Y-51050392D01*
X104211068Y-51268899D01*
X104077818Y-51518192D01*
X103995764Y-51788691D01*
X103968057Y-52070000D01*
X97961943Y-52070000D01*
X97934236Y-51788691D01*
X97852182Y-51518192D01*
X97718932Y-51268899D01*
X97539608Y-51050392D01*
X97321101Y-50871068D01*
X97071808Y-50737818D01*
X96801309Y-50655764D01*
X96590492Y-50635000D01*
X96449508Y-50635000D01*
X96238691Y-50655764D01*
X95968192Y-50737818D01*
X95718899Y-50871068D01*
X95500392Y-51050392D01*
X95321068Y-51268899D01*
X95187818Y-51518192D01*
X95105764Y-51788691D01*
X95078057Y-52070000D01*
X95095125Y-52243296D01*
X93613422Y-53725000D01*
X92773465Y-53725000D01*
X92729999Y-53720719D01*
X92686533Y-53725000D01*
X92686523Y-53725000D01*
X92556510Y-53737805D01*
X92389687Y-53788411D01*
X92235941Y-53870589D01*
X92235939Y-53870590D01*
X92235940Y-53870590D01*
X92134953Y-53953468D01*
X92134951Y-53953470D01*
X92101183Y-53981183D01*
X92073470Y-54014951D01*
X85764952Y-60323470D01*
X85731184Y-60351183D01*
X85703471Y-60384951D01*
X85703468Y-60384954D01*
X85620590Y-60485941D01*
X85538412Y-60639687D01*
X85487805Y-60806510D01*
X85473130Y-60955516D01*
X85383815Y-61028815D01*
X85304463Y-61125506D01*
X85245498Y-61235820D01*
X85212379Y-61345000D01*
X81646579Y-61345000D01*
X81438017Y-61136439D01*
X81445000Y-61101335D01*
X81445000Y-60818665D01*
X81389853Y-60541426D01*
X81281680Y-60280273D01*
X81124637Y-60045241D01*
X80924759Y-59845363D01*
X80689727Y-59688320D01*
X80428574Y-59580147D01*
X80151335Y-59525000D01*
X79868665Y-59525000D01*
X79591426Y-59580147D01*
X79330273Y-59688320D01*
X79095241Y-59845363D01*
X78895363Y-60045241D01*
X78738320Y-60280273D01*
X78630147Y-60541426D01*
X78575000Y-60818665D01*
X71278023Y-60818665D01*
X71264236Y-60678691D01*
X71182182Y-60408192D01*
X71048932Y-60158899D01*
X70869608Y-59940392D01*
X70651101Y-59761068D01*
X70401808Y-59627818D01*
X70131309Y-59545764D01*
X69920492Y-59525000D01*
X69779508Y-59525000D01*
X69568691Y-59545764D01*
X69298192Y-59627818D01*
X69048899Y-59761068D01*
X68830392Y-59940392D01*
X68719922Y-60075000D01*
X64667683Y-60075000D01*
X64630537Y-60005506D01*
X64551185Y-59908815D01*
X64454494Y-59829463D01*
X64344180Y-59770498D01*
X64224482Y-59734188D01*
X64100000Y-59721928D01*
X62900000Y-59721928D01*
X62775518Y-59734188D01*
X62655820Y-59770498D01*
X62545506Y-59829463D01*
X62529522Y-59842581D01*
X62360236Y-59772460D01*
X62121637Y-59725000D01*
X61878363Y-59725000D01*
X61639764Y-59772460D01*
X61415008Y-59865557D01*
X61212733Y-60000713D01*
X61040713Y-60172733D01*
X60905557Y-60375008D01*
X60812460Y-60599764D01*
X60766316Y-60831745D01*
X58425732Y-63172330D01*
X58240623Y-63135510D01*
X57918657Y-63135510D01*
X57602877Y-63198322D01*
X57305418Y-63321533D01*
X57037713Y-63500408D01*
X56810048Y-63728073D01*
X56631173Y-63995778D01*
X56507962Y-64293237D01*
X56445150Y-64609017D01*
X43840000Y-64609017D01*
X43840000Y-54610000D01*
X50671324Y-54610000D01*
X50675001Y-54647332D01*
X50675000Y-61263037D01*
X50671324Y-61300360D01*
X50675000Y-61337682D01*
X50675000Y-61337692D01*
X50685997Y-61449345D01*
X50718061Y-61555047D01*
X50729454Y-61592606D01*
X50800026Y-61724636D01*
X50839871Y-61773186D01*
X50894999Y-61840361D01*
X50924003Y-61864164D01*
X51433853Y-62374014D01*
X51427962Y-62388237D01*
X51365150Y-62704017D01*
X51365150Y-63025983D01*
X51427962Y-63341763D01*
X51551173Y-63639222D01*
X51730048Y-63906927D01*
X51957713Y-64134592D01*
X52225418Y-64313467D01*
X52522877Y-64436678D01*
X52838657Y-64499490D01*
X53160623Y-64499490D01*
X53476403Y-64436678D01*
X53773862Y-64313467D01*
X54041567Y-64134592D01*
X54269232Y-63906927D01*
X54448107Y-63639222D01*
X54571318Y-63341763D01*
X54634130Y-63025983D01*
X54634130Y-62704017D01*
X54571318Y-62388237D01*
X54448107Y-62090778D01*
X54269232Y-61823073D01*
X54041567Y-61595408D01*
X53773862Y-61416533D01*
X53476403Y-61293322D01*
X53160623Y-61230510D01*
X52838657Y-61230510D01*
X52522877Y-61293322D01*
X52508654Y-61299213D01*
X52195000Y-60985559D01*
X52195000Y-60483142D01*
X52225418Y-60503467D01*
X52522877Y-60626678D01*
X52838657Y-60689490D01*
X53160623Y-60689490D01*
X53345731Y-60652670D01*
X54248108Y-61555047D01*
X54275823Y-61588817D01*
X54309591Y-61616530D01*
X54309593Y-61616532D01*
X54410581Y-61699411D01*
X54564327Y-61781589D01*
X54731150Y-61832195D01*
X54861163Y-61845000D01*
X54861171Y-61845000D01*
X54904640Y-61849281D01*
X54948109Y-61845000D01*
X56705193Y-61845000D01*
X56810048Y-62001927D01*
X57037713Y-62229592D01*
X57305418Y-62408467D01*
X57602877Y-62531678D01*
X57918657Y-62594490D01*
X58240623Y-62594490D01*
X58556403Y-62531678D01*
X58853862Y-62408467D01*
X59121567Y-62229592D01*
X59349232Y-62001927D01*
X59528107Y-61734222D01*
X59651318Y-61436763D01*
X59714130Y-61120983D01*
X59714130Y-60799017D01*
X59651318Y-60483237D01*
X59528107Y-60185778D01*
X59349232Y-59918073D01*
X59121567Y-59690408D01*
X58853862Y-59511533D01*
X58556403Y-59388322D01*
X58240623Y-59325510D01*
X57918657Y-59325510D01*
X57602877Y-59388322D01*
X57305418Y-59511533D01*
X57037713Y-59690408D01*
X56810048Y-59918073D01*
X56705193Y-60075000D01*
X55271219Y-60075000D01*
X54597310Y-59401091D01*
X54634130Y-59215983D01*
X54634130Y-58894017D01*
X54571318Y-58578237D01*
X54448107Y-58280778D01*
X54269232Y-58013073D01*
X54041567Y-57785408D01*
X53773862Y-57606533D01*
X53476403Y-57483322D01*
X53160623Y-57420510D01*
X52838657Y-57420510D01*
X52522877Y-57483322D01*
X52225418Y-57606533D01*
X52195000Y-57626858D01*
X52195000Y-56673142D01*
X52225418Y-56693467D01*
X52522877Y-56816678D01*
X52838657Y-56879490D01*
X53160623Y-56879490D01*
X53476403Y-56816678D01*
X53773862Y-56693467D01*
X54041567Y-56514592D01*
X54269232Y-56286927D01*
X54448107Y-56019222D01*
X54571318Y-55721763D01*
X54634130Y-55405983D01*
X54634130Y-55084017D01*
X54571318Y-54768237D01*
X54448107Y-54470778D01*
X54269232Y-54203073D01*
X54166159Y-54100000D01*
X55804591Y-54100000D01*
X57376627Y-55672037D01*
X57305418Y-55701533D01*
X57037713Y-55880408D01*
X56810048Y-56108073D01*
X56631173Y-56375778D01*
X56507962Y-56673237D01*
X56445150Y-56989017D01*
X56445150Y-57310983D01*
X56507962Y-57626763D01*
X56631173Y-57924222D01*
X56810048Y-58191927D01*
X57037713Y-58419592D01*
X57305418Y-58598467D01*
X57602877Y-58721678D01*
X57918657Y-58784490D01*
X58240623Y-58784490D01*
X58556403Y-58721678D01*
X58853862Y-58598467D01*
X59121567Y-58419592D01*
X59349232Y-58191927D01*
X59382123Y-58142702D01*
X75386903Y-58142702D01*
X75458486Y-58386671D01*
X75713996Y-58507571D01*
X75988184Y-58576300D01*
X76270512Y-58590217D01*
X76550130Y-58548787D01*
X76816292Y-58453603D01*
X76941514Y-58386671D01*
X77013097Y-58142702D01*
X76200000Y-57329605D01*
X75386903Y-58142702D01*
X59382123Y-58142702D01*
X59528107Y-57924222D01*
X59651318Y-57626763D01*
X59714130Y-57310983D01*
X59714130Y-57220512D01*
X74759783Y-57220512D01*
X74801213Y-57500130D01*
X74896397Y-57766292D01*
X74963329Y-57891514D01*
X75207298Y-57963097D01*
X76020395Y-57150000D01*
X76379605Y-57150000D01*
X77192702Y-57963097D01*
X77436671Y-57891514D01*
X77557571Y-57636004D01*
X77626300Y-57361816D01*
X77636741Y-57150000D01*
X84918057Y-57150000D01*
X84945764Y-57431309D01*
X85027818Y-57701808D01*
X85161068Y-57951101D01*
X85340392Y-58169608D01*
X85558899Y-58348932D01*
X85808192Y-58482182D01*
X86078691Y-58564236D01*
X86289508Y-58585000D01*
X86430492Y-58585000D01*
X86641309Y-58564236D01*
X86911808Y-58482182D01*
X87161101Y-58348932D01*
X87379608Y-58169608D01*
X87558932Y-57951101D01*
X87692182Y-57701808D01*
X87774236Y-57431309D01*
X87801943Y-57150000D01*
X87774236Y-56868691D01*
X87692182Y-56598192D01*
X87558932Y-56348899D01*
X87379608Y-56130392D01*
X87161101Y-55951068D01*
X86911808Y-55817818D01*
X86641309Y-55735764D01*
X86430492Y-55715000D01*
X86289508Y-55715000D01*
X86078691Y-55735764D01*
X85808192Y-55817818D01*
X85558899Y-55951068D01*
X85340392Y-56130392D01*
X85161068Y-56348899D01*
X85027818Y-56598192D01*
X84945764Y-56868691D01*
X84918057Y-57150000D01*
X77636741Y-57150000D01*
X77640217Y-57079488D01*
X77598787Y-56799870D01*
X77503603Y-56533708D01*
X77436671Y-56408486D01*
X77192702Y-56336903D01*
X76379605Y-57150000D01*
X76020395Y-57150000D01*
X75207298Y-56336903D01*
X74963329Y-56408486D01*
X74842429Y-56663996D01*
X74773700Y-56938184D01*
X74759783Y-57220512D01*
X59714130Y-57220512D01*
X59714130Y-56989017D01*
X59651318Y-56673237D01*
X59528107Y-56375778D01*
X59382124Y-56157298D01*
X75386903Y-56157298D01*
X76200000Y-56970395D01*
X77013097Y-56157298D01*
X76941514Y-55913329D01*
X76686004Y-55792429D01*
X76411816Y-55723700D01*
X76129488Y-55709783D01*
X75849870Y-55751213D01*
X75583708Y-55846397D01*
X75458486Y-55913329D01*
X75386903Y-56157298D01*
X59382124Y-56157298D01*
X59349232Y-56108073D01*
X59246159Y-56005000D01*
X61557678Y-56005000D01*
X61595000Y-56008676D01*
X61632322Y-56005000D01*
X61632333Y-56005000D01*
X61743986Y-55994003D01*
X61788700Y-55980439D01*
X61811426Y-55989853D01*
X62088665Y-56045000D01*
X62371335Y-56045000D01*
X62648574Y-55989853D01*
X62909727Y-55881680D01*
X63144759Y-55724637D01*
X63344637Y-55524759D01*
X63501680Y-55289727D01*
X63609853Y-55028574D01*
X63665000Y-54751335D01*
X63665000Y-54610000D01*
X70948057Y-54610000D01*
X70975764Y-54891309D01*
X71057818Y-55161808D01*
X71191068Y-55411101D01*
X71370392Y-55629608D01*
X71588899Y-55808932D01*
X71838192Y-55942182D01*
X72108691Y-56024236D01*
X72319508Y-56045000D01*
X72460492Y-56045000D01*
X72671309Y-56024236D01*
X72941808Y-55942182D01*
X73191101Y-55808932D01*
X73409608Y-55629608D01*
X73588932Y-55411101D01*
X73722182Y-55161808D01*
X73804236Y-54891309D01*
X73831943Y-54610000D01*
X73804236Y-54328691D01*
X73722182Y-54058192D01*
X73588932Y-53808899D01*
X73409608Y-53590392D01*
X73191101Y-53411068D01*
X72941808Y-53277818D01*
X72671309Y-53195764D01*
X72460492Y-53175000D01*
X72319508Y-53175000D01*
X72108691Y-53195764D01*
X71838192Y-53277818D01*
X71588899Y-53411068D01*
X71370392Y-53590392D01*
X71191068Y-53808899D01*
X71057818Y-54058192D01*
X70975764Y-54328691D01*
X70948057Y-54610000D01*
X63665000Y-54610000D01*
X63665000Y-54468665D01*
X63609853Y-54191426D01*
X63501680Y-53930273D01*
X63344637Y-53695241D01*
X63144759Y-53495363D01*
X62909727Y-53338320D01*
X62648574Y-53230147D01*
X62371335Y-53175000D01*
X62088665Y-53175000D01*
X61811426Y-53230147D01*
X61550273Y-53338320D01*
X61315241Y-53495363D01*
X61115363Y-53695241D01*
X60958320Y-53930273D01*
X60850147Y-54191426D01*
X60795000Y-54468665D01*
X60795000Y-54485000D01*
X59246159Y-54485000D01*
X59349232Y-54381927D01*
X59528107Y-54114222D01*
X59651318Y-53816763D01*
X59714130Y-53500983D01*
X59714130Y-53179017D01*
X59677310Y-52993908D01*
X63526219Y-49145000D01*
X68311928Y-49145000D01*
X68311928Y-49160000D01*
X68324188Y-49284482D01*
X68360498Y-49404180D01*
X68419463Y-49514494D01*
X68498815Y-49611185D01*
X68595506Y-49690537D01*
X68705820Y-49749502D01*
X68825518Y-49785812D01*
X68950000Y-49798072D01*
X68974317Y-49798072D01*
X68977805Y-49833490D01*
X69028412Y-50000313D01*
X69110590Y-50154059D01*
X69193468Y-50255046D01*
X69193471Y-50255049D01*
X69221184Y-50288817D01*
X69254951Y-50316529D01*
X71603468Y-52665047D01*
X71631183Y-52698817D01*
X71664951Y-52726530D01*
X71664953Y-52726532D01*
X71765941Y-52809411D01*
X71919686Y-52891589D01*
X71999248Y-52915724D01*
X72086510Y-52942195D01*
X72216523Y-52955000D01*
X72216531Y-52955000D01*
X72260000Y-52959281D01*
X72303469Y-52955000D01*
X75069922Y-52955000D01*
X75180392Y-53089608D01*
X75398899Y-53268932D01*
X75648192Y-53402182D01*
X75918691Y-53484236D01*
X76129508Y-53505000D01*
X76270492Y-53505000D01*
X76373296Y-53494875D01*
X78083468Y-55205047D01*
X78111183Y-55238817D01*
X78144951Y-55266530D01*
X78144953Y-55266532D01*
X78173216Y-55289727D01*
X78245941Y-55349411D01*
X78399687Y-55431589D01*
X78566510Y-55482195D01*
X78696523Y-55495000D01*
X78696533Y-55495000D01*
X78739999Y-55499281D01*
X78783465Y-55495000D01*
X90126531Y-55495000D01*
X90170000Y-55499281D01*
X90213469Y-55495000D01*
X90213477Y-55495000D01*
X90343490Y-55482195D01*
X90510313Y-55431589D01*
X90664059Y-55349411D01*
X90798817Y-55238817D01*
X90826534Y-55205044D01*
X92536704Y-53494875D01*
X92639508Y-53505000D01*
X92780492Y-53505000D01*
X92991309Y-53484236D01*
X93261808Y-53402182D01*
X93511101Y-53268932D01*
X93729608Y-53089608D01*
X93908932Y-52871101D01*
X94042182Y-52621808D01*
X94124236Y-52351309D01*
X94151943Y-52070000D01*
X94124236Y-51788691D01*
X94042182Y-51518192D01*
X93908932Y-51268899D01*
X93729608Y-51050392D01*
X93511101Y-50871068D01*
X93261808Y-50737818D01*
X92991309Y-50655764D01*
X92780492Y-50635000D01*
X92639508Y-50635000D01*
X92428691Y-50655764D01*
X92158192Y-50737818D01*
X91908899Y-50871068D01*
X91690392Y-51050392D01*
X91511068Y-51268899D01*
X91377818Y-51518192D01*
X91295764Y-51788691D01*
X91268057Y-52070000D01*
X91285125Y-52243296D01*
X89803422Y-53725000D01*
X79106579Y-53725000D01*
X77624875Y-52243296D01*
X77641943Y-52070000D01*
X77628023Y-51928665D01*
X84925000Y-51928665D01*
X84925000Y-52211335D01*
X84980147Y-52488574D01*
X85088320Y-52749727D01*
X85245363Y-52984759D01*
X85445241Y-53184637D01*
X85680273Y-53341680D01*
X85941426Y-53449853D01*
X86218665Y-53505000D01*
X86501335Y-53505000D01*
X86778574Y-53449853D01*
X87039727Y-53341680D01*
X87274759Y-53184637D01*
X87474637Y-52984759D01*
X87631680Y-52749727D01*
X87739853Y-52488574D01*
X87795000Y-52211335D01*
X87795000Y-51928665D01*
X87739853Y-51651426D01*
X87631680Y-51390273D01*
X87474637Y-51155241D01*
X87274759Y-50955363D01*
X87039727Y-50798320D01*
X86778574Y-50690147D01*
X86501335Y-50635000D01*
X86218665Y-50635000D01*
X85941426Y-50690147D01*
X85680273Y-50798320D01*
X85445241Y-50955363D01*
X85245363Y-51155241D01*
X85088320Y-51390273D01*
X84980147Y-51651426D01*
X84925000Y-51928665D01*
X77628023Y-51928665D01*
X77614236Y-51788691D01*
X77532182Y-51518192D01*
X77398932Y-51268899D01*
X77219608Y-51050392D01*
X77001101Y-50871068D01*
X76751808Y-50737818D01*
X76481309Y-50655764D01*
X76270492Y-50635000D01*
X76129508Y-50635000D01*
X75918691Y-50655764D01*
X75648192Y-50737818D01*
X75398899Y-50871068D01*
X75180392Y-51050392D01*
X75069922Y-51185000D01*
X72626579Y-51185000D01*
X71119665Y-49678087D01*
X71201185Y-49611185D01*
X71280537Y-49514494D01*
X71339502Y-49404180D01*
X71345056Y-49385873D01*
X71411495Y-49452312D01*
X71662905Y-49620299D01*
X71942257Y-49736011D01*
X72238816Y-49795000D01*
X72541184Y-49795000D01*
X72837743Y-49736011D01*
X73117095Y-49620299D01*
X73368505Y-49452312D01*
X73582312Y-49238505D01*
X73750299Y-48987095D01*
X73866011Y-48707743D01*
X73925000Y-48411184D01*
X73925000Y-48108816D01*
X73866011Y-47812257D01*
X73750299Y-47532905D01*
X73582312Y-47281495D01*
X73368505Y-47067688D01*
X73117095Y-46899701D01*
X72837743Y-46783989D01*
X72541184Y-46725000D01*
X72238816Y-46725000D01*
X71942257Y-46783989D01*
X71662905Y-46899701D01*
X71411495Y-47067688D01*
X71345056Y-47134127D01*
X71339502Y-47115820D01*
X71280537Y-47005506D01*
X71201185Y-46908815D01*
X71104494Y-46829463D01*
X70994180Y-46770498D01*
X70874482Y-46734188D01*
X70750000Y-46721928D01*
X68950000Y-46721928D01*
X68825518Y-46734188D01*
X68705820Y-46770498D01*
X68595506Y-46829463D01*
X68498815Y-46908815D01*
X68419463Y-47005506D01*
X68360498Y-47115820D01*
X68324188Y-47235518D01*
X68311928Y-47360000D01*
X68311928Y-47375000D01*
X63203109Y-47375000D01*
X63159640Y-47370719D01*
X63116171Y-47375000D01*
X63116163Y-47375000D01*
X62986150Y-47387805D01*
X62819327Y-47438411D01*
X62665581Y-47520589D01*
X62564593Y-47603468D01*
X62564591Y-47603470D01*
X62530823Y-47631183D01*
X62503110Y-47664951D01*
X58425732Y-51742330D01*
X58240623Y-51705510D01*
X57918657Y-51705510D01*
X57602877Y-51768322D01*
X57305418Y-51891533D01*
X57037713Y-52070408D01*
X56810048Y-52298073D01*
X56631173Y-52565778D01*
X56565928Y-52723294D01*
X56543668Y-52705026D01*
X56411639Y-52634454D01*
X56268378Y-52590997D01*
X56156725Y-52580000D01*
X56156714Y-52580000D01*
X56119392Y-52576324D01*
X56082070Y-52580000D01*
X52742322Y-52580000D01*
X52704999Y-52576324D01*
X52667676Y-52580000D01*
X52667667Y-52580000D01*
X52556014Y-52590997D01*
X52412753Y-52634454D01*
X52280724Y-52705026D01*
X52164999Y-52799999D01*
X52141201Y-52828997D01*
X50923998Y-54046201D01*
X50895000Y-54069999D01*
X50871202Y-54098997D01*
X50871201Y-54098998D01*
X50800026Y-54185724D01*
X50729454Y-54317754D01*
X50709988Y-54381927D01*
X50685998Y-54461014D01*
X50682025Y-54501351D01*
X50671324Y-54610000D01*
X43840000Y-54610000D01*
X43840000Y-45890180D01*
X48305088Y-45890180D01*
X48347275Y-46318515D01*
X48472216Y-46730389D01*
X48675109Y-47109974D01*
X48948156Y-47442684D01*
X49280866Y-47715731D01*
X49660451Y-47918624D01*
X50072325Y-48043565D01*
X50393320Y-48075180D01*
X51608000Y-48075180D01*
X51928995Y-48043565D01*
X52340869Y-47918624D01*
X52720454Y-47715731D01*
X53053164Y-47442684D01*
X53326211Y-47109974D01*
X53529104Y-46730389D01*
X53654045Y-46318515D01*
X53696232Y-45890180D01*
X53654045Y-45461845D01*
X53529104Y-45049971D01*
X53326211Y-44670386D01*
X53053164Y-44337676D01*
X52921804Y-44229872D01*
X57455000Y-44229872D01*
X57455000Y-44670128D01*
X57540890Y-45101925D01*
X57709369Y-45508669D01*
X57953962Y-45874729D01*
X58265271Y-46186038D01*
X58631331Y-46430631D01*
X59038075Y-46599110D01*
X59469872Y-46685000D01*
X59910128Y-46685000D01*
X60341925Y-46599110D01*
X60748669Y-46430631D01*
X61114729Y-46186038D01*
X61426038Y-45874729D01*
X61670631Y-45508669D01*
X61839110Y-45101925D01*
X61925000Y-44670128D01*
X61925000Y-44229872D01*
X103175000Y-44229872D01*
X103175000Y-44670128D01*
X103260890Y-45101925D01*
X103429369Y-45508669D01*
X103673962Y-45874729D01*
X103985271Y-46186038D01*
X104351331Y-46430631D01*
X104758075Y-46599110D01*
X105189872Y-46685000D01*
X105630128Y-46685000D01*
X106061925Y-46599110D01*
X106468669Y-46430631D01*
X106834729Y-46186038D01*
X107146038Y-45874729D01*
X107390631Y-45508669D01*
X107559110Y-45101925D01*
X107645000Y-44670128D01*
X107645000Y-44229872D01*
X107559110Y-43798075D01*
X107390631Y-43391331D01*
X107249425Y-43180000D01*
X112818848Y-43180000D01*
X112851381Y-43510318D01*
X112947732Y-43827941D01*
X113104196Y-44120665D01*
X113314761Y-44377239D01*
X113571335Y-44587804D01*
X113864059Y-44744268D01*
X114181682Y-44840619D01*
X114429230Y-44865000D01*
X115694770Y-44865000D01*
X115942318Y-44840619D01*
X116259941Y-44744268D01*
X116552665Y-44587804D01*
X116809239Y-44377239D01*
X117019804Y-44120665D01*
X117176268Y-43827941D01*
X117272619Y-43510318D01*
X117305152Y-43180000D01*
X117272619Y-42849682D01*
X117176268Y-42532059D01*
X117019804Y-42239335D01*
X116809239Y-41982761D01*
X116552665Y-41772196D01*
X116259941Y-41615732D01*
X115942318Y-41519381D01*
X115694770Y-41495000D01*
X114429230Y-41495000D01*
X114181682Y-41519381D01*
X113864059Y-41615732D01*
X113571335Y-41772196D01*
X113314761Y-41982761D01*
X113104196Y-42239335D01*
X112947732Y-42532059D01*
X112851381Y-42849682D01*
X112818848Y-43180000D01*
X107249425Y-43180000D01*
X107146038Y-43025271D01*
X106834729Y-42713962D01*
X106468669Y-42469369D01*
X106061925Y-42300890D01*
X105630128Y-42215000D01*
X105189872Y-42215000D01*
X104758075Y-42300890D01*
X104351331Y-42469369D01*
X103985271Y-42713962D01*
X103673962Y-43025271D01*
X103429369Y-43391331D01*
X103260890Y-43798075D01*
X103175000Y-44229872D01*
X61925000Y-44229872D01*
X61839110Y-43798075D01*
X61670631Y-43391331D01*
X61426038Y-43025271D01*
X61114729Y-42713962D01*
X60748669Y-42469369D01*
X60341925Y-42300890D01*
X59910128Y-42215000D01*
X59469872Y-42215000D01*
X59038075Y-42300890D01*
X58631331Y-42469369D01*
X58265271Y-42713962D01*
X57953962Y-43025271D01*
X57709369Y-43391331D01*
X57540890Y-43798075D01*
X57455000Y-44229872D01*
X52921804Y-44229872D01*
X52720454Y-44064629D01*
X52340869Y-43861736D01*
X51928995Y-43736795D01*
X51608000Y-43705180D01*
X50393320Y-43705180D01*
X50072325Y-43736795D01*
X49660451Y-43861736D01*
X49280866Y-44064629D01*
X48948156Y-44337676D01*
X48675109Y-44670386D01*
X48472216Y-45049971D01*
X48347275Y-45461845D01*
X48305088Y-45890180D01*
X43840000Y-45890180D01*
X43840000Y-43212279D01*
X43878909Y-42815455D01*
X43984780Y-42464792D01*
X44156744Y-42141375D01*
X44388254Y-41857516D01*
X44670486Y-41624035D01*
X44992695Y-41449817D01*
X45342614Y-41341498D01*
X45737443Y-41300000D01*
X120617721Y-41300000D01*
X121014545Y-41338909D01*
X121014545Y-41338909D01*
G37*
X121014545Y-41338909D02*
X121365208Y-41444780D01*
X121688625Y-41616744D01*
X121972484Y-41848254D01*
X122205965Y-42130486D01*
X122380183Y-42452695D01*
X122488502Y-42802614D01*
X122530000Y-43197443D01*
X122530001Y-101567711D01*
X122491091Y-101964545D01*
X122385220Y-102315206D01*
X122213257Y-102638623D01*
X121981748Y-102922482D01*
X121699514Y-103155965D01*
X121377304Y-103330184D01*
X121027385Y-103438502D01*
X120632557Y-103480000D01*
X45752279Y-103480000D01*
X45355455Y-103441091D01*
X45004794Y-103335220D01*
X44681377Y-103163257D01*
X44397518Y-102931748D01*
X44164035Y-102649514D01*
X43989816Y-102327304D01*
X43881498Y-101977385D01*
X43840000Y-101582557D01*
X43840000Y-98889820D01*
X48305088Y-98889820D01*
X48347275Y-99318155D01*
X48472216Y-99730029D01*
X48675109Y-100109614D01*
X48948156Y-100442324D01*
X49280866Y-100715371D01*
X49660451Y-100918264D01*
X50072325Y-101043205D01*
X50393320Y-101074820D01*
X51608000Y-101074820D01*
X51928995Y-101043205D01*
X52340869Y-100918264D01*
X52720454Y-100715371D01*
X53053164Y-100442324D01*
X53325999Y-100109872D01*
X81585000Y-100109872D01*
X81585000Y-100550128D01*
X81670890Y-100981925D01*
X81839369Y-101388669D01*
X82083962Y-101754729D01*
X82395271Y-102066038D01*
X82761331Y-102310631D01*
X83168075Y-102479110D01*
X83599872Y-102565000D01*
X84040128Y-102565000D01*
X84471925Y-102479110D01*
X84878669Y-102310631D01*
X85244729Y-102066038D01*
X85556038Y-101754729D01*
X85793059Y-101400000D01*
X112197331Y-101400000D01*
X112227934Y-101710714D01*
X112318566Y-102009488D01*
X112465744Y-102284839D01*
X112663813Y-102526187D01*
X112905161Y-102724256D01*
X113180512Y-102871434D01*
X113479286Y-102962066D01*
X113712136Y-102985000D01*
X115167864Y-102985000D01*
X115400714Y-102962066D01*
X115699488Y-102871434D01*
X115974839Y-102724256D01*
X116216187Y-102526187D01*
X116414256Y-102284839D01*
X116561434Y-102009488D01*
X116652066Y-101710714D01*
X116682669Y-101400000D01*
X116652066Y-101089286D01*
X116561434Y-100790512D01*
X116414256Y-100515161D01*
X116216187Y-100273813D01*
X115974839Y-100075744D01*
X115699488Y-99928566D01*
X115400714Y-99837934D01*
X115167864Y-99815000D01*
X113712136Y-99815000D01*
X113479286Y-99837934D01*
X113180512Y-99928566D01*
X112905161Y-100075744D01*
X112663813Y-100273813D01*
X112465744Y-100515161D01*
X112318566Y-100790512D01*
X112227934Y-101089286D01*
X112197331Y-101400000D01*
X85793059Y-101400000D01*
X85800631Y-101388669D01*
X85969110Y-100981925D01*
X86055000Y-100550128D01*
X86055000Y-100109872D01*
X85969110Y-99678075D01*
X85800631Y-99271331D01*
X85556038Y-98905271D01*
X85244729Y-98593962D01*
X84878669Y-98349369D01*
X84471925Y-98180890D01*
X84040128Y-98095000D01*
X83599872Y-98095000D01*
X83168075Y-98180890D01*
X82761331Y-98349369D01*
X82395271Y-98593962D01*
X82083962Y-98905271D01*
X81839369Y-99271331D01*
X81670890Y-99678075D01*
X81585000Y-100109872D01*
X53325999Y-100109872D01*
X53326211Y-100109614D01*
X53529104Y-99730029D01*
X53654045Y-99318155D01*
X53696232Y-98889820D01*
X53654045Y-98461485D01*
X53529104Y-98049611D01*
X53326211Y-97670026D01*
X53053164Y-97337316D01*
X52720454Y-97064269D01*
X52340869Y-96861376D01*
X51928995Y-96736435D01*
X51608000Y-96704820D01*
X50393320Y-96704820D01*
X50072325Y-96736435D01*
X49660451Y-96861376D01*
X49280866Y-97064269D01*
X48948156Y-97337316D01*
X48675109Y-97670026D01*
X48472216Y-98049611D01*
X48347275Y-98461485D01*
X48305088Y-98889820D01*
X43840000Y-98889820D01*
X43840000Y-96378665D01*
X60795000Y-96378665D01*
X60795000Y-96661335D01*
X60850147Y-96938574D01*
X60958320Y-97199727D01*
X61115363Y-97434759D01*
X61315241Y-97634637D01*
X61550273Y-97791680D01*
X61811426Y-97899853D01*
X62088665Y-97955000D01*
X62371335Y-97955000D01*
X62648574Y-97899853D01*
X62909727Y-97791680D01*
X63144759Y-97634637D01*
X63344637Y-97434759D01*
X63501680Y-97199727D01*
X63609853Y-96938574D01*
X63665000Y-96661335D01*
X63665000Y-96520000D01*
X70948057Y-96520000D01*
X70975764Y-96801309D01*
X71057818Y-97071808D01*
X71191068Y-97321101D01*
X71370392Y-97539608D01*
X71588899Y-97718932D01*
X71838192Y-97852182D01*
X72108691Y-97934236D01*
X72319508Y-97955000D01*
X72460492Y-97955000D01*
X72671309Y-97934236D01*
X72941808Y-97852182D01*
X73191101Y-97718932D01*
X73409608Y-97539608D01*
X73588932Y-97321101D01*
X73722182Y-97071808D01*
X73804236Y-96801309D01*
X73831943Y-96520000D01*
X73818023Y-96378665D01*
X74805000Y-96378665D01*
X74805000Y-96661335D01*
X74860147Y-96938574D01*
X74968320Y-97199727D01*
X75125363Y-97434759D01*
X75325241Y-97634637D01*
X75560273Y-97791680D01*
X75821426Y-97899853D01*
X76098665Y-97955000D01*
X76381335Y-97955000D01*
X76658574Y-97899853D01*
X76919727Y-97791680D01*
X77154759Y-97634637D01*
X77321339Y-97468057D01*
X77350498Y-97564180D01*
X77409463Y-97674494D01*
X77488815Y-97771185D01*
X77585506Y-97850537D01*
X77695820Y-97909502D01*
X77815518Y-97945812D01*
X77940000Y-97958072D01*
X78454250Y-97955000D01*
X78613000Y-97796250D01*
X78613000Y-96647000D01*
X78867000Y-96647000D01*
X78867000Y-97796250D01*
X79025750Y-97955000D01*
X79540000Y-97958072D01*
X79664482Y-97945812D01*
X79784180Y-97909502D01*
X79894494Y-97850537D01*
X79991185Y-97771185D01*
X80070537Y-97674494D01*
X80129502Y-97564180D01*
X80165812Y-97444482D01*
X80178072Y-97320000D01*
X80175000Y-96805750D01*
X80016250Y-96647000D01*
X78867000Y-96647000D01*
X78613000Y-96647000D01*
X78593000Y-96647000D01*
X78593000Y-96393000D01*
X78613000Y-96393000D01*
X78613000Y-95243750D01*
X78867000Y-95243750D01*
X78867000Y-96393000D01*
X80016250Y-96393000D01*
X80175000Y-96234250D01*
X80178072Y-95720000D01*
X80165812Y-95595518D01*
X80129502Y-95475820D01*
X80070537Y-95365506D01*
X79991185Y-95268815D01*
X79894494Y-95189463D01*
X79784180Y-95130498D01*
X79664482Y-95094188D01*
X79540000Y-95081928D01*
X79025750Y-95085000D01*
X78867000Y-95243750D01*
X78613000Y-95243750D01*
X78454250Y-95085000D01*
X77940000Y-95081928D01*
X77815518Y-95094188D01*
X77695820Y-95130498D01*
X77585506Y-95189463D01*
X77488815Y-95268815D01*
X77409463Y-95365506D01*
X77350498Y-95475820D01*
X77321339Y-95571943D01*
X77154759Y-95405363D01*
X76919727Y-95248320D01*
X76658574Y-95140147D01*
X76381335Y-95085000D01*
X76098665Y-95085000D01*
X75821426Y-95140147D01*
X75560273Y-95248320D01*
X75325241Y-95405363D01*
X75125363Y-95605241D01*
X74968320Y-95840273D01*
X74860147Y-96101426D01*
X74805000Y-96378665D01*
X73818023Y-96378665D01*
X73804236Y-96238691D01*
X73722182Y-95968192D01*
X73588932Y-95718899D01*
X73409608Y-95500392D01*
X73191101Y-95321068D01*
X72941808Y-95187818D01*
X72671309Y-95105764D01*
X72460492Y-95085000D01*
X72319508Y-95085000D01*
X72108691Y-95105764D01*
X71838192Y-95187818D01*
X71588899Y-95321068D01*
X71370392Y-95500392D01*
X71191068Y-95718899D01*
X71057818Y-95968192D01*
X70975764Y-96238691D01*
X70948057Y-96520000D01*
X63665000Y-96520000D01*
X63665000Y-96378665D01*
X63609853Y-96101426D01*
X63501680Y-95840273D01*
X63344637Y-95605241D01*
X63144759Y-95405363D01*
X62909727Y-95248320D01*
X62648574Y-95140147D01*
X62371335Y-95085000D01*
X62088665Y-95085000D01*
X61811426Y-95140147D01*
X61550273Y-95248320D01*
X61315241Y-95405363D01*
X61115363Y-95605241D01*
X60958320Y-95840273D01*
X60850147Y-96101426D01*
X60795000Y-96378665D01*
X43840000Y-96378665D01*
X43840000Y-94972702D01*
X86816903Y-94972702D01*
X86888486Y-95216671D01*
X87143996Y-95337571D01*
X87418184Y-95406300D01*
X87700512Y-95420217D01*
X87980130Y-95378787D01*
X88246292Y-95283603D01*
X88371514Y-95216671D01*
X88443097Y-94972702D01*
X87630000Y-94159605D01*
X86816903Y-94972702D01*
X43840000Y-94972702D01*
X43840000Y-94050512D01*
X86189783Y-94050512D01*
X86231213Y-94330130D01*
X86326397Y-94596292D01*
X86393329Y-94721514D01*
X86637298Y-94793097D01*
X87450395Y-93980000D01*
X87809605Y-93980000D01*
X88622702Y-94793097D01*
X88866671Y-94721514D01*
X88987571Y-94466004D01*
X89056300Y-94191816D01*
X89070217Y-93909488D01*
X89059724Y-93838665D01*
X91195000Y-93838665D01*
X91195000Y-94121335D01*
X91250147Y-94398574D01*
X91358320Y-94659727D01*
X91515363Y-94894759D01*
X91715241Y-95094637D01*
X91950273Y-95251680D01*
X92211426Y-95359853D01*
X92488665Y-95415000D01*
X92771335Y-95415000D01*
X93048574Y-95359853D01*
X93309727Y-95251680D01*
X93544759Y-95094637D01*
X93744637Y-94894759D01*
X93901680Y-94659727D01*
X94009853Y-94398574D01*
X94065000Y-94121335D01*
X94065000Y-93838665D01*
X94009853Y-93561426D01*
X93901680Y-93300273D01*
X93744637Y-93065241D01*
X93544759Y-92865363D01*
X93309727Y-92708320D01*
X93048574Y-92600147D01*
X92771335Y-92545000D01*
X92488665Y-92545000D01*
X92211426Y-92600147D01*
X91950273Y-92708320D01*
X91715241Y-92865363D01*
X91515363Y-93065241D01*
X91358320Y-93300273D01*
X91250147Y-93561426D01*
X91195000Y-93838665D01*
X89059724Y-93838665D01*
X89028787Y-93629870D01*
X88933603Y-93363708D01*
X88866671Y-93238486D01*
X88622702Y-93166903D01*
X87809605Y-93980000D01*
X87450395Y-93980000D01*
X86637298Y-93166903D01*
X86393329Y-93238486D01*
X86272429Y-93493996D01*
X86203700Y-93768184D01*
X86189783Y-94050512D01*
X43840000Y-94050512D01*
X43840000Y-89374017D01*
X51365150Y-89374017D01*
X51365150Y-89695983D01*
X51427962Y-90011763D01*
X51551173Y-90309222D01*
X51730048Y-90576927D01*
X51957713Y-90804592D01*
X52225418Y-90983467D01*
X52522877Y-91106678D01*
X52838657Y-91169490D01*
X53160623Y-91169490D01*
X53476403Y-91106678D01*
X53773862Y-90983467D01*
X54041567Y-90804592D01*
X54269232Y-90576927D01*
X54374087Y-90420000D01*
X56795397Y-90420000D01*
X56631173Y-90665778D01*
X56507962Y-90963237D01*
X56445150Y-91279017D01*
X56445150Y-91600983D01*
X56507962Y-91916763D01*
X56631173Y-92214222D01*
X56810048Y-92481927D01*
X57037713Y-92709592D01*
X57305418Y-92888467D01*
X57602877Y-93011678D01*
X57918657Y-93074490D01*
X58240623Y-93074490D01*
X58556403Y-93011678D01*
X58615261Y-92987298D01*
X86816903Y-92987298D01*
X87630000Y-93800395D01*
X88443097Y-92987298D01*
X88371514Y-92743329D01*
X88116004Y-92622429D01*
X87841816Y-92553700D01*
X87559488Y-92539783D01*
X87279870Y-92581213D01*
X87013708Y-92676397D01*
X86888486Y-92743329D01*
X86816903Y-92987298D01*
X58615261Y-92987298D01*
X58853862Y-92888467D01*
X59121567Y-92709592D01*
X59349232Y-92481927D01*
X59528107Y-92214222D01*
X59651318Y-91916763D01*
X59714130Y-91600983D01*
X59714130Y-91279017D01*
X59651318Y-90963237D01*
X59528107Y-90665778D01*
X59363883Y-90420000D01*
X61220604Y-90420000D01*
X61115363Y-90525241D01*
X60958320Y-90760273D01*
X60850147Y-91021426D01*
X60795000Y-91298665D01*
X60795000Y-91581335D01*
X60850147Y-91858574D01*
X60958320Y-92119727D01*
X61115363Y-92354759D01*
X61315241Y-92554637D01*
X61550273Y-92711680D01*
X61811426Y-92819853D01*
X62088665Y-92875000D01*
X62371335Y-92875000D01*
X62648574Y-92819853D01*
X62909727Y-92711680D01*
X63144759Y-92554637D01*
X63344637Y-92354759D01*
X63501680Y-92119727D01*
X63609853Y-91858574D01*
X63665000Y-91581335D01*
X63665000Y-91298665D01*
X63609853Y-91021426D01*
X63501680Y-90760273D01*
X63344637Y-90525241D01*
X63239396Y-90420000D01*
X71370870Y-90420000D01*
X71370392Y-90420392D01*
X71191068Y-90638899D01*
X71057818Y-90888192D01*
X70975764Y-91158691D01*
X70948057Y-91440000D01*
X70975764Y-91721309D01*
X71057818Y-91991808D01*
X71191068Y-92241101D01*
X71370392Y-92459608D01*
X71588899Y-92638932D01*
X71838192Y-92772182D01*
X72108691Y-92854236D01*
X72319508Y-92875000D01*
X72460492Y-92875000D01*
X72671309Y-92854236D01*
X72941808Y-92772182D01*
X73191101Y-92638932D01*
X73409608Y-92459608D01*
X73588932Y-92241101D01*
X73722182Y-91991808D01*
X73804236Y-91721309D01*
X73831943Y-91440000D01*
X73804236Y-91158691D01*
X73722182Y-90888192D01*
X73676903Y-90803482D01*
X74968470Y-92095049D01*
X74996183Y-92128817D01*
X75029951Y-92156530D01*
X75029953Y-92156532D01*
X75130941Y-92239411D01*
X75284686Y-92321589D01*
X75394032Y-92354759D01*
X75451510Y-92372195D01*
X75581523Y-92385000D01*
X75581531Y-92385000D01*
X75625000Y-92389281D01*
X75668469Y-92385000D01*
X109314941Y-92385000D01*
X109420013Y-92542252D01*
X109647748Y-92769987D01*
X109805000Y-92875060D01*
X109805001Y-97624940D01*
X109647748Y-97730013D01*
X109420013Y-97957748D01*
X109241082Y-98225537D01*
X109117832Y-98523088D01*
X109055000Y-98838967D01*
X109055000Y-99161033D01*
X109117832Y-99476912D01*
X109241082Y-99774463D01*
X109420013Y-100042252D01*
X109647748Y-100269987D01*
X109915537Y-100448918D01*
X110213088Y-100572168D01*
X110528967Y-100635000D01*
X110851033Y-100635000D01*
X111166912Y-100572168D01*
X111464463Y-100448918D01*
X111732252Y-100269987D01*
X111959987Y-100042252D01*
X112138918Y-99774463D01*
X112262168Y-99476912D01*
X112325000Y-99161033D01*
X112325000Y-98838967D01*
X112323041Y-98829117D01*
X116205000Y-98829117D01*
X116205000Y-99170883D01*
X116271675Y-99506081D01*
X116402463Y-99821831D01*
X116592337Y-100105998D01*
X116834002Y-100347663D01*
X117118169Y-100537537D01*
X117433919Y-100668325D01*
X117769117Y-100735000D01*
X118110883Y-100735000D01*
X118446081Y-100668325D01*
X118761831Y-100537537D01*
X119045998Y-100347663D01*
X119287663Y-100105998D01*
X119477537Y-99821831D01*
X119608325Y-99506081D01*
X119675000Y-99170883D01*
X119675000Y-98829117D01*
X119608325Y-98493919D01*
X119477537Y-98178169D01*
X119287663Y-97894002D01*
X119045998Y-97652337D01*
X118761831Y-97462463D01*
X118446081Y-97331675D01*
X118110883Y-97265000D01*
X117769117Y-97265000D01*
X117433919Y-97331675D01*
X117118169Y-97462463D01*
X116834002Y-97652337D01*
X116592337Y-97894002D01*
X116402463Y-98178169D01*
X116271675Y-98493919D01*
X116205000Y-98829117D01*
X112323041Y-98829117D01*
X112262168Y-98523088D01*
X112138918Y-98225537D01*
X111959987Y-97957748D01*
X111732252Y-97730013D01*
X111575000Y-97624941D01*
X111575000Y-92875059D01*
X111732252Y-92769987D01*
X111959987Y-92542252D01*
X112138918Y-92274463D01*
X112262168Y-91976912D01*
X112325000Y-91661033D01*
X112325000Y-91338967D01*
X112262168Y-91023088D01*
X112138918Y-90725537D01*
X111959987Y-90457748D01*
X111732252Y-90230013D01*
X111464463Y-90051082D01*
X111166912Y-89927832D01*
X110851033Y-89865000D01*
X110528967Y-89865000D01*
X110213088Y-89927832D01*
X109915537Y-90051082D01*
X109647748Y-90230013D01*
X109420013Y-90457748D01*
X109314941Y-90615000D01*
X75991579Y-90615000D01*
X75563482Y-90186904D01*
X75648192Y-90232182D01*
X75918691Y-90314236D01*
X76129508Y-90335000D01*
X76270492Y-90335000D01*
X76481309Y-90314236D01*
X76751808Y-90232182D01*
X77001101Y-90098932D01*
X77219608Y-89919608D01*
X77398932Y-89701101D01*
X77532182Y-89451808D01*
X77614236Y-89181309D01*
X77641943Y-88900000D01*
X77628023Y-88758665D01*
X84925000Y-88758665D01*
X84925000Y-89041335D01*
X84980147Y-89318574D01*
X85088320Y-89579727D01*
X85245363Y-89814759D01*
X85445241Y-90014637D01*
X85680273Y-90171680D01*
X85941426Y-90279853D01*
X86218665Y-90335000D01*
X86501335Y-90335000D01*
X86778574Y-90279853D01*
X87039727Y-90171680D01*
X87274759Y-90014637D01*
X87474637Y-89814759D01*
X87631680Y-89579727D01*
X87739853Y-89318574D01*
X87783330Y-89100000D01*
X112197331Y-89100000D01*
X112227934Y-89410714D01*
X112318566Y-89709488D01*
X112465744Y-89984839D01*
X112663813Y-90226187D01*
X112905161Y-90424256D01*
X113180512Y-90571434D01*
X113479286Y-90662066D01*
X113712136Y-90685000D01*
X115167864Y-90685000D01*
X115400714Y-90662066D01*
X115699488Y-90571434D01*
X115974839Y-90424256D01*
X116216187Y-90226187D01*
X116414256Y-89984839D01*
X116561434Y-89709488D01*
X116652066Y-89410714D01*
X116682669Y-89100000D01*
X116652066Y-88789286D01*
X116561434Y-88490512D01*
X116414256Y-88215161D01*
X116216187Y-87973813D01*
X115974839Y-87775744D01*
X115699488Y-87628566D01*
X115400714Y-87537934D01*
X115167864Y-87515000D01*
X113712136Y-87515000D01*
X113479286Y-87537934D01*
X113180512Y-87628566D01*
X112905161Y-87775744D01*
X112663813Y-87973813D01*
X112465744Y-88215161D01*
X112318566Y-88490512D01*
X112227934Y-88789286D01*
X112197331Y-89100000D01*
X87783330Y-89100000D01*
X87795000Y-89041335D01*
X87795000Y-88758665D01*
X87739853Y-88481426D01*
X87631680Y-88220273D01*
X87474637Y-87985241D01*
X87274759Y-87785363D01*
X87039727Y-87628320D01*
X86778574Y-87520147D01*
X86501335Y-87465000D01*
X86218665Y-87465000D01*
X85941426Y-87520147D01*
X85680273Y-87628320D01*
X85445241Y-87785363D01*
X85245363Y-87985241D01*
X85088320Y-88220273D01*
X84980147Y-88481426D01*
X84925000Y-88758665D01*
X77628023Y-88758665D01*
X77614236Y-88618691D01*
X77532182Y-88348192D01*
X77398932Y-88098899D01*
X77219608Y-87880392D01*
X77001101Y-87701068D01*
X76751808Y-87567818D01*
X76481309Y-87485764D01*
X76270492Y-87465000D01*
X76129508Y-87465000D01*
X75918691Y-87485764D01*
X75648192Y-87567818D01*
X75398899Y-87701068D01*
X75180392Y-87880392D01*
X75001068Y-88098899D01*
X74867818Y-88348192D01*
X74785764Y-88618691D01*
X74758057Y-88900000D01*
X74785764Y-89181309D01*
X74867818Y-89451808D01*
X74913097Y-89536518D01*
X74316534Y-88939956D01*
X74288817Y-88906183D01*
X74154059Y-88795589D01*
X74000313Y-88713411D01*
X73833490Y-88662805D01*
X73703477Y-88650000D01*
X73703469Y-88650000D01*
X73660000Y-88645719D01*
X73616531Y-88650000D01*
X59363883Y-88650000D01*
X59528107Y-88404222D01*
X59651318Y-88106763D01*
X59714130Y-87790983D01*
X59714130Y-87469017D01*
X59651318Y-87153237D01*
X59528107Y-86855778D01*
X59349232Y-86588073D01*
X59121567Y-86360408D01*
X58853862Y-86181533D01*
X58556403Y-86058322D01*
X58240623Y-85995510D01*
X57918657Y-85995510D01*
X57602877Y-86058322D01*
X57305418Y-86181533D01*
X57037713Y-86360408D01*
X56810048Y-86588073D01*
X56631173Y-86855778D01*
X56507962Y-87153237D01*
X56445150Y-87469017D01*
X56445150Y-87790983D01*
X56507962Y-88106763D01*
X56631173Y-88404222D01*
X56795397Y-88650000D01*
X54374087Y-88650000D01*
X54269232Y-88493073D01*
X54041567Y-88265408D01*
X53773862Y-88086533D01*
X53476403Y-87963322D01*
X53160623Y-87900510D01*
X52838657Y-87900510D01*
X52522877Y-87963322D01*
X52225418Y-88086533D01*
X51957713Y-88265408D01*
X51730048Y-88493073D01*
X51551173Y-88760778D01*
X51427962Y-89058237D01*
X51365150Y-89374017D01*
X43840000Y-89374017D01*
X43840000Y-85564017D01*
X51365150Y-85564017D01*
X51365150Y-85885983D01*
X51427962Y-86201763D01*
X51551173Y-86499222D01*
X51730048Y-86766927D01*
X51957713Y-86994592D01*
X52225418Y-87173467D01*
X52522877Y-87296678D01*
X52838657Y-87359490D01*
X53160623Y-87359490D01*
X53476403Y-87296678D01*
X53773862Y-87173467D01*
X54041567Y-86994592D01*
X54269232Y-86766927D01*
X54374087Y-86610000D01*
X56131171Y-86610000D01*
X56174640Y-86614281D01*
X56218109Y-86610000D01*
X56218117Y-86610000D01*
X56348130Y-86597195D01*
X56514953Y-86546589D01*
X56668699Y-86464411D01*
X56803457Y-86353817D01*
X56831174Y-86320044D01*
X57733549Y-85417670D01*
X57918657Y-85454490D01*
X58240623Y-85454490D01*
X58425732Y-85417670D01*
X59963110Y-86955049D01*
X59990823Y-86988817D01*
X60024591Y-87016530D01*
X60024593Y-87016532D01*
X60047039Y-87034953D01*
X60125581Y-87099411D01*
X60279327Y-87181589D01*
X60446150Y-87232195D01*
X60576163Y-87245000D01*
X60576173Y-87245000D01*
X60619639Y-87249281D01*
X60663105Y-87245000D01*
X61095479Y-87245000D01*
X61115363Y-87274759D01*
X61315241Y-87474637D01*
X61550273Y-87631680D01*
X61811426Y-87739853D01*
X62088665Y-87795000D01*
X62371335Y-87795000D01*
X62648574Y-87739853D01*
X62909727Y-87631680D01*
X63144759Y-87474637D01*
X63344637Y-87274759D01*
X63501680Y-87039727D01*
X63609853Y-86778574D01*
X63665000Y-86501335D01*
X63665000Y-86360000D01*
X70948057Y-86360000D01*
X70975764Y-86641309D01*
X71057818Y-86911808D01*
X71191068Y-87161101D01*
X71370392Y-87379608D01*
X71588899Y-87558932D01*
X71838192Y-87692182D01*
X72108691Y-87774236D01*
X72319508Y-87795000D01*
X72460492Y-87795000D01*
X72671309Y-87774236D01*
X72941808Y-87692182D01*
X73191101Y-87558932D01*
X73409608Y-87379608D01*
X73588932Y-87161101D01*
X73722182Y-86911808D01*
X73804236Y-86641309D01*
X73831943Y-86360000D01*
X73804236Y-86078691D01*
X73722182Y-85808192D01*
X73588932Y-85558899D01*
X73409608Y-85340392D01*
X73191101Y-85161068D01*
X72941808Y-85027818D01*
X72671309Y-84945764D01*
X72460492Y-84925000D01*
X72319508Y-84925000D01*
X72108691Y-84945764D01*
X71838192Y-85027818D01*
X71588899Y-85161068D01*
X71370392Y-85340392D01*
X71191068Y-85558899D01*
X71057818Y-85808192D01*
X70975764Y-86078691D01*
X70948057Y-86360000D01*
X63665000Y-86360000D01*
X63665000Y-86218665D01*
X63609853Y-85941426D01*
X63501680Y-85680273D01*
X63344637Y-85445241D01*
X63144759Y-85245363D01*
X62909727Y-85088320D01*
X62648574Y-84980147D01*
X62371335Y-84925000D01*
X62088665Y-84925000D01*
X61811426Y-84980147D01*
X61550273Y-85088320D01*
X61315241Y-85245363D01*
X61115363Y-85445241D01*
X61095479Y-85475000D01*
X60986219Y-85475000D01*
X60323921Y-84812702D01*
X75386903Y-84812702D01*
X75458486Y-85056671D01*
X75713996Y-85177571D01*
X75988184Y-85246300D01*
X76270512Y-85260217D01*
X76550130Y-85218787D01*
X76816292Y-85123603D01*
X76941514Y-85056671D01*
X77013097Y-84812702D01*
X76200000Y-83999605D01*
X75386903Y-84812702D01*
X60323921Y-84812702D01*
X59677310Y-84166092D01*
X59714130Y-83980983D01*
X59714130Y-83890512D01*
X74759783Y-83890512D01*
X74801213Y-84170130D01*
X74896397Y-84436292D01*
X74963329Y-84561514D01*
X75207298Y-84633097D01*
X76020395Y-83820000D01*
X76379605Y-83820000D01*
X77192702Y-84633097D01*
X77436671Y-84561514D01*
X77557571Y-84306004D01*
X77626300Y-84031816D01*
X77636741Y-83820000D01*
X84918057Y-83820000D01*
X84945764Y-84101309D01*
X85027818Y-84371808D01*
X85161068Y-84621101D01*
X85340392Y-84839608D01*
X85558899Y-85018932D01*
X85808192Y-85152182D01*
X86078691Y-85234236D01*
X86289508Y-85255000D01*
X86430492Y-85255000D01*
X86641309Y-85234236D01*
X86911808Y-85152182D01*
X87161101Y-85018932D01*
X87379608Y-84839608D01*
X87558932Y-84621101D01*
X87692182Y-84371808D01*
X87774236Y-84101309D01*
X87801943Y-83820000D01*
X87774236Y-83538691D01*
X87692182Y-83268192D01*
X87558932Y-83018899D01*
X87379608Y-82800392D01*
X87161101Y-82621068D01*
X86911808Y-82487818D01*
X86641309Y-82405764D01*
X86430492Y-82385000D01*
X86289508Y-82385000D01*
X86078691Y-82405764D01*
X85808192Y-82487818D01*
X85558899Y-82621068D01*
X85340392Y-82800392D01*
X85161068Y-83018899D01*
X85027818Y-83268192D01*
X84945764Y-83538691D01*
X84918057Y-83820000D01*
X77636741Y-83820000D01*
X77640217Y-83749488D01*
X77598787Y-83469870D01*
X77503603Y-83203708D01*
X77436671Y-83078486D01*
X77192702Y-83006903D01*
X76379605Y-83820000D01*
X76020395Y-83820000D01*
X75207298Y-83006903D01*
X74963329Y-83078486D01*
X74842429Y-83333996D01*
X74773700Y-83608184D01*
X74759783Y-83890512D01*
X59714130Y-83890512D01*
X59714130Y-83659017D01*
X59651318Y-83343237D01*
X59528107Y-83045778D01*
X59382124Y-82827298D01*
X75386903Y-82827298D01*
X76200000Y-83640395D01*
X77013097Y-82827298D01*
X76941514Y-82583329D01*
X76686004Y-82462429D01*
X76411816Y-82393700D01*
X76129488Y-82379783D01*
X75849870Y-82421213D01*
X75583708Y-82516397D01*
X75458486Y-82583329D01*
X75386903Y-82827298D01*
X59382124Y-82827298D01*
X59349232Y-82778073D01*
X59121567Y-82550408D01*
X58853862Y-82371533D01*
X58556403Y-82248322D01*
X58240623Y-82185510D01*
X57918657Y-82185510D01*
X57602877Y-82248322D01*
X57305418Y-82371533D01*
X57037713Y-82550408D01*
X56810048Y-82778073D01*
X56631173Y-83045778D01*
X56507962Y-83343237D01*
X56445150Y-83659017D01*
X56445150Y-83980983D01*
X56481970Y-84166091D01*
X55808062Y-84840000D01*
X54374087Y-84840000D01*
X54269232Y-84683073D01*
X54041567Y-84455408D01*
X53773862Y-84276533D01*
X53476403Y-84153322D01*
X53160623Y-84090510D01*
X52838657Y-84090510D01*
X52522877Y-84153322D01*
X52225418Y-84276533D01*
X51957713Y-84455408D01*
X51730048Y-84683073D01*
X51551173Y-84950778D01*
X51427962Y-85248237D01*
X51365150Y-85564017D01*
X43840000Y-85564017D01*
X43840000Y-81754017D01*
X51365150Y-81754017D01*
X51365150Y-82075983D01*
X51427962Y-82391763D01*
X51551173Y-82689222D01*
X51730048Y-82956927D01*
X51957713Y-83184592D01*
X52225418Y-83363467D01*
X52522877Y-83486678D01*
X52838657Y-83549490D01*
X53160623Y-83549490D01*
X53476403Y-83486678D01*
X53773862Y-83363467D01*
X54041567Y-83184592D01*
X54269232Y-82956927D01*
X54448107Y-82689222D01*
X54571318Y-82391763D01*
X54634130Y-82075983D01*
X54634130Y-81754017D01*
X54571318Y-81438237D01*
X54448107Y-81140778D01*
X54269232Y-80873073D01*
X54041567Y-80645408D01*
X53773862Y-80466533D01*
X53476403Y-80343322D01*
X53160623Y-80280510D01*
X52838657Y-80280510D01*
X52522877Y-80343322D01*
X52225418Y-80466533D01*
X51957713Y-80645408D01*
X51730048Y-80873073D01*
X51551173Y-81140778D01*
X51427962Y-81438237D01*
X51365150Y-81754017D01*
X43840000Y-81754017D01*
X43840000Y-79849017D01*
X56445150Y-79849017D01*
X56445150Y-80170983D01*
X56507962Y-80486763D01*
X56631173Y-80784222D01*
X56810048Y-81051927D01*
X57037713Y-81279592D01*
X57305418Y-81458467D01*
X57602877Y-81581678D01*
X57918657Y-81644490D01*
X58240623Y-81644490D01*
X58556403Y-81581678D01*
X58853862Y-81458467D01*
X59121567Y-81279592D01*
X59349232Y-81051927D01*
X59528107Y-80784222D01*
X59651318Y-80486763D01*
X59714130Y-80170983D01*
X59714130Y-79849017D01*
X59677310Y-79663908D01*
X61520556Y-77820662D01*
X64304942Y-80605049D01*
X64332655Y-80638817D01*
X64366423Y-80666530D01*
X64366425Y-80666532D01*
X64394688Y-80689727D01*
X64467413Y-80749411D01*
X64621159Y-80831589D01*
X64787982Y-80882195D01*
X64917995Y-80895000D01*
X64918003Y-80895000D01*
X64951772Y-80898326D01*
X65022733Y-80969287D01*
X65225008Y-81104443D01*
X65449764Y-81197540D01*
X65688363Y-81245000D01*
X65931637Y-81245000D01*
X66170236Y-81197540D01*
X66339522Y-81127419D01*
X66355506Y-81140537D01*
X66465820Y-81199502D01*
X66585518Y-81235812D01*
X66710000Y-81248072D01*
X67910000Y-81248072D01*
X68034482Y-81235812D01*
X68154180Y-81199502D01*
X68264494Y-81140537D01*
X68361185Y-81061185D01*
X68440537Y-80964494D01*
X68477683Y-80895000D01*
X71259922Y-80895000D01*
X71370392Y-81029608D01*
X71588899Y-81208932D01*
X71838192Y-81342182D01*
X72108691Y-81424236D01*
X72319508Y-81445000D01*
X72460492Y-81445000D01*
X72671309Y-81424236D01*
X72941808Y-81342182D01*
X73191101Y-81208932D01*
X73409608Y-81029608D01*
X73588932Y-80811101D01*
X73722182Y-80561808D01*
X73804236Y-80291309D01*
X73831943Y-80010000D01*
X73818023Y-79868665D01*
X81115000Y-79868665D01*
X81115000Y-80151335D01*
X81170147Y-80428574D01*
X81278320Y-80689727D01*
X81435363Y-80924759D01*
X81635241Y-81124637D01*
X81870273Y-81281680D01*
X82131426Y-81389853D01*
X82408665Y-81445000D01*
X82691335Y-81445000D01*
X82968574Y-81389853D01*
X83229727Y-81281680D01*
X83464759Y-81124637D01*
X83664637Y-80924759D01*
X83821680Y-80689727D01*
X83929853Y-80428574D01*
X83985000Y-80151335D01*
X83985000Y-79868665D01*
X83929853Y-79591426D01*
X83821680Y-79330273D01*
X83664637Y-79095241D01*
X83555487Y-78986091D01*
X84186579Y-78355000D01*
X85212379Y-78355000D01*
X85245498Y-78464180D01*
X85304463Y-78574494D01*
X85383815Y-78671185D01*
X85473130Y-78744484D01*
X85487805Y-78893490D01*
X85538412Y-79060313D01*
X85620590Y-79214059D01*
X85703468Y-79315046D01*
X85703471Y-79315049D01*
X85731184Y-79348817D01*
X85764952Y-79376530D01*
X92588450Y-86200029D01*
X92428691Y-86215764D01*
X92158192Y-86297818D01*
X91908899Y-86431068D01*
X91690392Y-86610392D01*
X91511068Y-86828899D01*
X91377818Y-87078192D01*
X91295764Y-87348691D01*
X91268057Y-87630000D01*
X91295764Y-87911309D01*
X91377818Y-88181808D01*
X91511068Y-88431101D01*
X91690392Y-88649608D01*
X91908899Y-88828932D01*
X92158192Y-88962182D01*
X92428691Y-89044236D01*
X92639508Y-89065000D01*
X92780492Y-89065000D01*
X92991309Y-89044236D01*
X93261808Y-88962182D01*
X93511101Y-88828932D01*
X93729608Y-88649608D01*
X93908932Y-88431101D01*
X94042182Y-88181808D01*
X94124236Y-87911309D01*
X94139971Y-87751550D01*
X94613470Y-88225049D01*
X94641183Y-88258817D01*
X94674951Y-88286530D01*
X94674953Y-88286532D01*
X94703216Y-88309727D01*
X94775941Y-88369411D01*
X94929687Y-88451589D01*
X95096510Y-88502195D01*
X95226523Y-88515000D01*
X95226531Y-88515000D01*
X95270000Y-88519281D01*
X95313469Y-88515000D01*
X95389922Y-88515000D01*
X95500392Y-88649608D01*
X95718899Y-88828932D01*
X95968192Y-88962182D01*
X96238691Y-89044236D01*
X96449508Y-89065000D01*
X96590492Y-89065000D01*
X96801309Y-89044236D01*
X97071808Y-88962182D01*
X97321101Y-88828932D01*
X97539608Y-88649608D01*
X97718932Y-88431101D01*
X97852182Y-88181808D01*
X97934236Y-87911309D01*
X97961943Y-87630000D01*
X97948023Y-87488665D01*
X103975000Y-87488665D01*
X103975000Y-87771335D01*
X104030147Y-88048574D01*
X104138320Y-88309727D01*
X104295363Y-88544759D01*
X104495241Y-88744637D01*
X104730273Y-88901680D01*
X104991426Y-89009853D01*
X105268665Y-89065000D01*
X105551335Y-89065000D01*
X105828574Y-89009853D01*
X106089727Y-88901680D01*
X106324759Y-88744637D01*
X106524637Y-88544759D01*
X106681680Y-88309727D01*
X106789853Y-88048574D01*
X106845000Y-87771335D01*
X106845000Y-87488665D01*
X106789853Y-87211426D01*
X106681680Y-86950273D01*
X106524637Y-86715241D01*
X106324759Y-86515363D01*
X106089727Y-86358320D01*
X105828574Y-86250147D01*
X105551335Y-86195000D01*
X105268665Y-86195000D01*
X104991426Y-86250147D01*
X104730273Y-86358320D01*
X104495241Y-86515363D01*
X104295363Y-86715241D01*
X104138320Y-86950273D01*
X104030147Y-87211426D01*
X103975000Y-87488665D01*
X97948023Y-87488665D01*
X97934236Y-87348691D01*
X97852182Y-87078192D01*
X97718932Y-86828899D01*
X97539608Y-86610392D01*
X97321101Y-86431068D01*
X97071808Y-86297818D01*
X96801309Y-86215764D01*
X96590492Y-86195000D01*
X96449508Y-86195000D01*
X96238691Y-86215764D01*
X95968192Y-86297818D01*
X95718899Y-86431068D01*
X95501259Y-86609680D01*
X92711579Y-83820000D01*
X112818848Y-83820000D01*
X112851381Y-84150318D01*
X112947732Y-84467941D01*
X113104196Y-84760665D01*
X113314761Y-85017239D01*
X113571335Y-85227804D01*
X113864059Y-85384268D01*
X114181682Y-85480619D01*
X114429230Y-85505000D01*
X115694770Y-85505000D01*
X115942318Y-85480619D01*
X116259941Y-85384268D01*
X116552665Y-85227804D01*
X116809239Y-85017239D01*
X117019804Y-84760665D01*
X117176268Y-84467941D01*
X117272619Y-84150318D01*
X117305152Y-83820000D01*
X117272619Y-83489682D01*
X117176268Y-83172059D01*
X117019804Y-82879335D01*
X116809239Y-82622761D01*
X116552665Y-82412196D01*
X116259941Y-82255732D01*
X115942318Y-82159381D01*
X115694770Y-82135000D01*
X114429230Y-82135000D01*
X114181682Y-82159381D01*
X113864059Y-82255732D01*
X113571335Y-82412196D01*
X113314761Y-82622761D01*
X113104196Y-82879335D01*
X112947732Y-83172059D01*
X112851381Y-83489682D01*
X112818848Y-83820000D01*
X92711579Y-83820000D01*
X90841579Y-81950000D01*
X99091928Y-81950000D01*
X99091928Y-83150000D01*
X99104188Y-83274482D01*
X99140498Y-83394180D01*
X99199463Y-83504494D01*
X99278815Y-83601185D01*
X99375506Y-83680537D01*
X99485820Y-83739502D01*
X99605518Y-83775812D01*
X99730000Y-83788072D01*
X100930000Y-83788072D01*
X101054482Y-83775812D01*
X101174180Y-83739502D01*
X101284494Y-83680537D01*
X101300478Y-83667419D01*
X101469764Y-83737540D01*
X101708363Y-83785000D01*
X101951637Y-83785000D01*
X102190236Y-83737540D01*
X102414992Y-83644443D01*
X102617267Y-83509287D01*
X102789287Y-83337267D01*
X102924443Y-83134992D01*
X103017540Y-82910236D01*
X103065000Y-82671637D01*
X103065000Y-82428363D01*
X103017540Y-82189764D01*
X102924443Y-81965008D01*
X102789287Y-81762733D01*
X102617267Y-81590713D01*
X102414992Y-81455557D01*
X102190236Y-81362460D01*
X101951637Y-81315000D01*
X101708363Y-81315000D01*
X101469764Y-81362460D01*
X101300478Y-81432581D01*
X101284494Y-81419463D01*
X101174180Y-81360498D01*
X101054482Y-81324188D01*
X100930000Y-81311928D01*
X99730000Y-81311928D01*
X99605518Y-81324188D01*
X99485820Y-81360498D01*
X99375506Y-81419463D01*
X99278815Y-81498815D01*
X99199463Y-81595506D01*
X99140498Y-81705820D01*
X99104188Y-81825518D01*
X99091928Y-81950000D01*
X90841579Y-81950000D01*
X89841288Y-80949709D01*
X108855510Y-80949709D01*
X108855510Y-81610292D01*
X108879160Y-81850416D01*
X108972622Y-82158519D01*
X109124396Y-82442467D01*
X109328649Y-82691351D01*
X109577534Y-82895604D01*
X109861482Y-83047378D01*
X110169585Y-83140840D01*
X110490000Y-83172398D01*
X110810416Y-83140840D01*
X111118519Y-83047378D01*
X111402467Y-82895604D01*
X111651351Y-82691351D01*
X111855604Y-82442467D01*
X112007378Y-82158519D01*
X112100840Y-81850415D01*
X112124490Y-81610291D01*
X112124490Y-81280000D01*
X116307962Y-81280000D01*
X116339520Y-81600416D01*
X116432982Y-81908519D01*
X116584756Y-82192467D01*
X116789009Y-82441351D01*
X117037893Y-82645604D01*
X117321841Y-82797378D01*
X117629944Y-82890840D01*
X117870068Y-82914490D01*
X119030652Y-82914490D01*
X119270776Y-82890840D01*
X119578879Y-82797378D01*
X119862827Y-82645604D01*
X120111711Y-82441351D01*
X120315964Y-82192467D01*
X120467738Y-81908519D01*
X120561200Y-81600416D01*
X120592758Y-81280000D01*
X120561200Y-80959584D01*
X120467738Y-80651481D01*
X120315964Y-80367533D01*
X120111711Y-80118649D01*
X119862827Y-79914396D01*
X119578879Y-79762622D01*
X119270776Y-79669160D01*
X119030652Y-79645510D01*
X117870068Y-79645510D01*
X117629944Y-79669160D01*
X117321841Y-79762622D01*
X117037893Y-79914396D01*
X116789009Y-80118649D01*
X116584756Y-80367533D01*
X116432982Y-80651481D01*
X116339520Y-80959584D01*
X116307962Y-81280000D01*
X112124490Y-81280000D01*
X112124490Y-80949708D01*
X112100840Y-80709584D01*
X112007378Y-80401481D01*
X111855604Y-80117533D01*
X111651351Y-79868649D01*
X111402466Y-79664396D01*
X111118518Y-79512622D01*
X110810415Y-79419160D01*
X110490000Y-79387602D01*
X110169584Y-79419160D01*
X109861481Y-79512622D01*
X109577533Y-79664396D01*
X109328649Y-79868649D01*
X109124396Y-80117534D01*
X108972622Y-80401482D01*
X108879160Y-80709585D01*
X108855510Y-80949709D01*
X89841288Y-80949709D01*
X87741234Y-78849656D01*
X87857400Y-78838215D01*
X88076060Y-78771885D01*
X88265001Y-78670894D01*
X88453941Y-78771885D01*
X88672601Y-78838215D01*
X88900000Y-78860612D01*
X89127400Y-78838215D01*
X89346060Y-78771885D01*
X89547579Y-78664171D01*
X89724212Y-78519212D01*
X89858977Y-78355000D01*
X91575479Y-78355000D01*
X91595363Y-78384759D01*
X91795241Y-78584637D01*
X92030273Y-78741680D01*
X92291426Y-78849853D01*
X92568665Y-78905000D01*
X92851335Y-78905000D01*
X93128574Y-78849853D01*
X93389727Y-78741680D01*
X93624759Y-78584637D01*
X93746694Y-78462702D01*
X95706903Y-78462702D01*
X95778486Y-78706671D01*
X96033996Y-78827571D01*
X96308184Y-78896300D01*
X96590512Y-78910217D01*
X96870130Y-78868787D01*
X97136292Y-78773603D01*
X97261514Y-78706671D01*
X97333097Y-78462702D01*
X96520000Y-77649605D01*
X95706903Y-78462702D01*
X93746694Y-78462702D01*
X93824637Y-78384759D01*
X93981680Y-78149727D01*
X94089853Y-77888574D01*
X94145000Y-77611335D01*
X94145000Y-77540512D01*
X95079783Y-77540512D01*
X95121213Y-77820130D01*
X95216397Y-78086292D01*
X95283329Y-78211514D01*
X95527298Y-78283097D01*
X96340395Y-77470000D01*
X96699605Y-77470000D01*
X97512702Y-78283097D01*
X97756671Y-78211514D01*
X97877571Y-77956004D01*
X97946300Y-77681816D01*
X97956741Y-77470000D01*
X103968057Y-77470000D01*
X103995764Y-77751309D01*
X104077818Y-78021808D01*
X104211068Y-78271101D01*
X104390392Y-78489608D01*
X104608899Y-78668932D01*
X104858192Y-78802182D01*
X105128691Y-78884236D01*
X105339508Y-78905000D01*
X105480492Y-78905000D01*
X105691309Y-78884236D01*
X105961808Y-78802182D01*
X106211101Y-78668932D01*
X106429608Y-78489608D01*
X106608932Y-78271101D01*
X106742182Y-78021808D01*
X106824236Y-77751309D01*
X106851943Y-77470000D01*
X106824236Y-77188691D01*
X106742182Y-76918192D01*
X106608932Y-76668899D01*
X106429608Y-76450392D01*
X106211101Y-76271068D01*
X105961808Y-76137818D01*
X105691309Y-76055764D01*
X105480492Y-76035000D01*
X105339508Y-76035000D01*
X105128691Y-76055764D01*
X104858192Y-76137818D01*
X104608899Y-76271068D01*
X104390392Y-76450392D01*
X104211068Y-76668899D01*
X104077818Y-76918192D01*
X103995764Y-77188691D01*
X103968057Y-77470000D01*
X97956741Y-77470000D01*
X97960217Y-77399488D01*
X97918787Y-77119870D01*
X97823603Y-76853708D01*
X97756671Y-76728486D01*
X97512702Y-76656903D01*
X96699605Y-77470000D01*
X96340395Y-77470000D01*
X95527298Y-76656903D01*
X95283329Y-76728486D01*
X95162429Y-76983996D01*
X95093700Y-77258184D01*
X95079783Y-77540512D01*
X94145000Y-77540512D01*
X94145000Y-77328665D01*
X94089853Y-77051426D01*
X93981680Y-76790273D01*
X93824637Y-76555241D01*
X93746694Y-76477298D01*
X95706903Y-76477298D01*
X96520000Y-77290395D01*
X97333097Y-76477298D01*
X97261514Y-76233329D01*
X97006004Y-76112429D01*
X96731816Y-76043700D01*
X96449488Y-76029783D01*
X96169870Y-76071213D01*
X95903708Y-76166397D01*
X95778486Y-76233329D01*
X95706903Y-76477298D01*
X93746694Y-76477298D01*
X93624759Y-76355363D01*
X93389727Y-76198320D01*
X93128574Y-76090147D01*
X92851335Y-76035000D01*
X92568665Y-76035000D01*
X92291426Y-76090147D01*
X92030273Y-76198320D01*
X91795241Y-76355363D01*
X91595363Y-76555241D01*
X91575479Y-76585000D01*
X89858977Y-76585000D01*
X89724212Y-76420788D01*
X89547578Y-76275829D01*
X89346059Y-76168115D01*
X89127399Y-76101785D01*
X88900000Y-76079388D01*
X88672600Y-76101785D01*
X88453940Y-76168115D01*
X88265000Y-76269106D01*
X88076059Y-76168115D01*
X87857399Y-76101785D01*
X87807893Y-76096909D01*
X88141004Y-75763798D01*
X88170001Y-75740001D01*
X88264974Y-75624276D01*
X88335546Y-75492247D01*
X88379003Y-75348986D01*
X88390000Y-75237333D01*
X88390000Y-75237324D01*
X88393676Y-75200001D01*
X88390000Y-75162678D01*
X88390000Y-73657708D01*
X88453941Y-73691885D01*
X88672601Y-73758215D01*
X88900000Y-73780612D01*
X89127400Y-73758215D01*
X89346060Y-73691885D01*
X89547579Y-73584171D01*
X89724212Y-73439212D01*
X89858977Y-73275000D01*
X91575479Y-73275000D01*
X91595363Y-73304759D01*
X91795241Y-73504637D01*
X92030273Y-73661680D01*
X92291426Y-73769853D01*
X92568665Y-73825000D01*
X92851335Y-73825000D01*
X93128574Y-73769853D01*
X93389727Y-73661680D01*
X93624759Y-73504637D01*
X93824637Y-73304759D01*
X93981680Y-73069727D01*
X94089853Y-72808574D01*
X94145000Y-72531335D01*
X94145000Y-72390000D01*
X101428057Y-72390000D01*
X101455764Y-72671309D01*
X101537818Y-72941808D01*
X101671068Y-73191101D01*
X101850392Y-73409608D01*
X102068899Y-73588932D01*
X102318192Y-73722182D01*
X102588691Y-73804236D01*
X102799508Y-73825000D01*
X102940492Y-73825000D01*
X103151309Y-73804236D01*
X103421808Y-73722182D01*
X103671101Y-73588932D01*
X103889608Y-73409608D01*
X104068932Y-73191101D01*
X104202182Y-72941808D01*
X104284236Y-72671309D01*
X104311943Y-72390000D01*
X104284236Y-72108691D01*
X104202182Y-71838192D01*
X104068932Y-71588899D01*
X103889608Y-71370392D01*
X103671101Y-71191068D01*
X103421808Y-71057818D01*
X103151309Y-70975764D01*
X102940492Y-70955000D01*
X102799508Y-70955000D01*
X102588691Y-70975764D01*
X102318192Y-71057818D01*
X102068899Y-71191068D01*
X101850392Y-71370392D01*
X101671068Y-71588899D01*
X101537818Y-71838192D01*
X101455764Y-72108691D01*
X101428057Y-72390000D01*
X94145000Y-72390000D01*
X94145000Y-72248665D01*
X94089853Y-71971426D01*
X93981680Y-71710273D01*
X93824637Y-71475241D01*
X93624759Y-71275363D01*
X93389727Y-71118320D01*
X93128574Y-71010147D01*
X92851335Y-70955000D01*
X92568665Y-70955000D01*
X92291426Y-71010147D01*
X92030273Y-71118320D01*
X91795241Y-71275363D01*
X91595363Y-71475241D01*
X91575479Y-71505000D01*
X89858977Y-71505000D01*
X89724212Y-71340788D01*
X89547578Y-71195829D01*
X89346059Y-71088115D01*
X89127399Y-71021785D01*
X88900000Y-70999388D01*
X88672600Y-71021785D01*
X88453940Y-71088115D01*
X88265000Y-71189106D01*
X88076059Y-71088115D01*
X87857399Y-71021785D01*
X87630000Y-70999388D01*
X87402600Y-71021785D01*
X87193902Y-71085093D01*
X87129180Y-71050498D01*
X87009482Y-71014188D01*
X86885000Y-71001928D01*
X86645750Y-71005000D01*
X86487000Y-71163750D01*
X86487000Y-71936892D01*
X86486785Y-71937601D01*
X86470000Y-72108022D01*
X86470000Y-72671979D01*
X86486785Y-72842400D01*
X86487000Y-72843109D01*
X86487000Y-73616250D01*
X86645750Y-73775000D01*
X86870001Y-73777879D01*
X86870000Y-74885198D01*
X85848998Y-75906201D01*
X85820000Y-75929999D01*
X85796202Y-75958997D01*
X85796201Y-75958998D01*
X85725026Y-76045724D01*
X85696916Y-76098314D01*
X85590820Y-76130498D01*
X85480506Y-76189463D01*
X85383815Y-76268815D01*
X85304463Y-76365506D01*
X85245498Y-76475820D01*
X85212379Y-76585000D01*
X83863465Y-76585000D01*
X83819999Y-76580719D01*
X83776533Y-76585000D01*
X83776523Y-76585000D01*
X83646510Y-76597805D01*
X83479687Y-76648411D01*
X83325941Y-76730589D01*
X83325939Y-76730590D01*
X83325940Y-76730590D01*
X83224953Y-76813468D01*
X83224951Y-76813470D01*
X83191183Y-76841183D01*
X83163470Y-76874951D01*
X81954951Y-78083471D01*
X81921184Y-78111183D01*
X81893471Y-78144951D01*
X81893468Y-78144954D01*
X81810590Y-78245941D01*
X81728412Y-78399687D01*
X81677805Y-78566510D01*
X81660719Y-78740000D01*
X81665001Y-78783478D01*
X81665001Y-78875478D01*
X81635241Y-78895363D01*
X81435363Y-79095241D01*
X81278320Y-79330273D01*
X81170147Y-79591426D01*
X81115000Y-79868665D01*
X73818023Y-79868665D01*
X73804236Y-79728691D01*
X73722182Y-79458192D01*
X73588932Y-79208899D01*
X73409608Y-78990392D01*
X73191101Y-78811068D01*
X72941808Y-78677818D01*
X72671309Y-78595764D01*
X72460492Y-78575000D01*
X72319508Y-78575000D01*
X72108691Y-78595764D01*
X71838192Y-78677818D01*
X71588899Y-78811068D01*
X71370392Y-78990392D01*
X71259922Y-79125000D01*
X68477683Y-79125000D01*
X68440537Y-79055506D01*
X68361185Y-78958815D01*
X68264494Y-78879463D01*
X68154180Y-78820498D01*
X68034482Y-78784188D01*
X67910000Y-78771928D01*
X66710000Y-78771928D01*
X66585518Y-78784188D01*
X66465820Y-78820498D01*
X66355506Y-78879463D01*
X66339522Y-78892581D01*
X66170236Y-78822460D01*
X65931637Y-78775000D01*
X65688363Y-78775000D01*
X65449764Y-78822460D01*
X65225008Y-78915557D01*
X65161226Y-78958175D01*
X63641122Y-77438072D01*
X64100000Y-77438072D01*
X64224482Y-77425812D01*
X64344180Y-77389502D01*
X64454494Y-77330537D01*
X64551185Y-77251185D01*
X64630537Y-77154494D01*
X64667683Y-77085000D01*
X68719922Y-77085000D01*
X68830392Y-77219608D01*
X69048899Y-77398932D01*
X69298192Y-77532182D01*
X69568691Y-77614236D01*
X69779508Y-77635000D01*
X69920492Y-77635000D01*
X70131309Y-77614236D01*
X70401808Y-77532182D01*
X70651101Y-77398932D01*
X70869608Y-77219608D01*
X71048932Y-77001101D01*
X71182182Y-76751808D01*
X71264236Y-76481309D01*
X71291943Y-76200000D01*
X71278023Y-76058665D01*
X78575000Y-76058665D01*
X78575000Y-76341335D01*
X78630147Y-76618574D01*
X78738320Y-76879727D01*
X78895363Y-77114759D01*
X79095241Y-77314637D01*
X79330273Y-77471680D01*
X79591426Y-77579853D01*
X79868665Y-77635000D01*
X80151335Y-77635000D01*
X80428574Y-77579853D01*
X80689727Y-77471680D01*
X80924759Y-77314637D01*
X81124637Y-77114759D01*
X81281680Y-76879727D01*
X81389853Y-76618574D01*
X81445000Y-76341335D01*
X81445000Y-76058665D01*
X81389853Y-75781426D01*
X81281680Y-75520273D01*
X81124637Y-75285241D01*
X80924759Y-75085363D01*
X80689727Y-74928320D01*
X80428574Y-74820147D01*
X80151335Y-74765000D01*
X79868665Y-74765000D01*
X79591426Y-74820147D01*
X79330273Y-74928320D01*
X79095241Y-75085363D01*
X78895363Y-75285241D01*
X78738320Y-75520273D01*
X78630147Y-75781426D01*
X78575000Y-76058665D01*
X71278023Y-76058665D01*
X71264236Y-75918691D01*
X71182182Y-75648192D01*
X71048932Y-75398899D01*
X70869608Y-75180392D01*
X70651101Y-75001068D01*
X70401808Y-74867818D01*
X70131309Y-74785764D01*
X69920492Y-74765000D01*
X69779508Y-74765000D01*
X69568691Y-74785764D01*
X69298192Y-74867818D01*
X69048899Y-75001068D01*
X68830392Y-75180392D01*
X68719922Y-75315000D01*
X64667683Y-75315000D01*
X64630537Y-75245506D01*
X64551185Y-75148815D01*
X64454494Y-75069463D01*
X64344180Y-75010498D01*
X64224482Y-74974188D01*
X64100000Y-74961928D01*
X62900000Y-74961928D01*
X62775518Y-74974188D01*
X62655820Y-75010498D01*
X62545506Y-75069463D01*
X62529522Y-75082581D01*
X62360236Y-75012460D01*
X62121637Y-74965000D01*
X61878363Y-74965000D01*
X61639764Y-75012460D01*
X61415008Y-75105557D01*
X61212733Y-75240713D01*
X61040713Y-75412733D01*
X60905557Y-75615008D01*
X60812460Y-75839764D01*
X60766316Y-76071745D01*
X58425732Y-78412330D01*
X58240623Y-78375510D01*
X57918657Y-78375510D01*
X57602877Y-78438322D01*
X57305418Y-78561533D01*
X57037713Y-78740408D01*
X56810048Y-78968073D01*
X56631173Y-79235778D01*
X56507962Y-79533237D01*
X56445150Y-79849017D01*
X43840000Y-79849017D01*
X43840000Y-79240050D01*
X52044195Y-79240050D01*
X52139898Y-79504399D01*
X52429427Y-79645238D01*
X52740869Y-79726885D01*
X53062255Y-79746205D01*
X53381235Y-79702454D01*
X53685551Y-79597314D01*
X53859382Y-79504399D01*
X53955085Y-79240050D01*
X52999640Y-78284605D01*
X52044195Y-79240050D01*
X43840000Y-79240050D01*
X43840000Y-78167615D01*
X51358435Y-78167615D01*
X51402186Y-78486595D01*
X51507326Y-78790911D01*
X51600241Y-78964742D01*
X51864590Y-79060445D01*
X52820035Y-78105000D01*
X53179245Y-78105000D01*
X54134690Y-79060445D01*
X54399039Y-78964742D01*
X54539878Y-78675213D01*
X54621525Y-78363771D01*
X54640845Y-78042385D01*
X54597094Y-77723405D01*
X54491954Y-77419089D01*
X54399039Y-77245258D01*
X54134690Y-77149555D01*
X53179245Y-78105000D01*
X52820035Y-78105000D01*
X51864590Y-77149555D01*
X51600241Y-77245258D01*
X51459402Y-77534787D01*
X51377755Y-77846229D01*
X51358435Y-78167615D01*
X43840000Y-78167615D01*
X43840000Y-76969950D01*
X52044195Y-76969950D01*
X52999640Y-77925395D01*
X53955085Y-76969950D01*
X53859382Y-76705601D01*
X53569853Y-76564762D01*
X53258411Y-76483115D01*
X52937025Y-76463795D01*
X52618045Y-76507546D01*
X52313729Y-76612686D01*
X52139898Y-76705601D01*
X52044195Y-76969950D01*
X43840000Y-76969950D01*
X43840000Y-76039017D01*
X56445150Y-76039017D01*
X56445150Y-76360983D01*
X56507962Y-76676763D01*
X56631173Y-76974222D01*
X56810048Y-77241927D01*
X57037713Y-77469592D01*
X57305418Y-77648467D01*
X57602877Y-77771678D01*
X57918657Y-77834490D01*
X58240623Y-77834490D01*
X58556403Y-77771678D01*
X58853862Y-77648467D01*
X59121567Y-77469592D01*
X59349232Y-77241927D01*
X59528107Y-76974222D01*
X59651318Y-76676763D01*
X59714130Y-76360983D01*
X59714130Y-76039017D01*
X59651318Y-75723237D01*
X59528107Y-75425778D01*
X59349232Y-75158073D01*
X59121567Y-74930408D01*
X58853862Y-74751533D01*
X58556403Y-74628322D01*
X58240623Y-74565510D01*
X57918657Y-74565510D01*
X57602877Y-74628322D01*
X57305418Y-74751533D01*
X57037713Y-74930408D01*
X56810048Y-75158073D01*
X56631173Y-75425778D01*
X56507962Y-75723237D01*
X56445150Y-76039017D01*
X43840000Y-76039017D01*
X43840000Y-74134017D01*
X51365150Y-74134017D01*
X51365150Y-74455983D01*
X51427962Y-74771763D01*
X51551173Y-75069222D01*
X51730048Y-75336927D01*
X51957713Y-75564592D01*
X52225418Y-75743467D01*
X52522877Y-75866678D01*
X52838657Y-75929490D01*
X53160623Y-75929490D01*
X53476403Y-75866678D01*
X53773862Y-75743467D01*
X54041567Y-75564592D01*
X54269232Y-75336927D01*
X54448107Y-75069222D01*
X54571318Y-74771763D01*
X54634130Y-74455983D01*
X54634130Y-74134017D01*
X54571318Y-73818237D01*
X54448107Y-73520778D01*
X54269232Y-73253073D01*
X54041567Y-73025408D01*
X53773862Y-72846533D01*
X53476403Y-72723322D01*
X53160623Y-72660510D01*
X52838657Y-72660510D01*
X52522877Y-72723322D01*
X52225418Y-72846533D01*
X51957713Y-73025408D01*
X51730048Y-73253073D01*
X51551173Y-73520778D01*
X51427962Y-73818237D01*
X51365150Y-74134017D01*
X43840000Y-74134017D01*
X43840000Y-72229017D01*
X56445150Y-72229017D01*
X56445150Y-72550983D01*
X56507962Y-72866763D01*
X56631173Y-73164222D01*
X56810048Y-73431927D01*
X57037713Y-73659592D01*
X57305418Y-73838467D01*
X57602877Y-73961678D01*
X57918657Y-74024490D01*
X58240623Y-74024490D01*
X58556403Y-73961678D01*
X58853862Y-73838467D01*
X59121567Y-73659592D01*
X59349232Y-73431927D01*
X59528107Y-73164222D01*
X59651318Y-72866763D01*
X59714130Y-72550983D01*
X59714130Y-72229017D01*
X59677310Y-72043908D01*
X61520556Y-70200662D01*
X64304942Y-72985049D01*
X64332655Y-73018817D01*
X64366423Y-73046530D01*
X64366425Y-73046532D01*
X64394688Y-73069727D01*
X64467413Y-73129411D01*
X64621159Y-73211589D01*
X64787982Y-73262195D01*
X64917995Y-73275000D01*
X64918003Y-73275000D01*
X64951772Y-73278326D01*
X65022733Y-73349287D01*
X65225008Y-73484443D01*
X65449764Y-73577540D01*
X65688363Y-73625000D01*
X65931637Y-73625000D01*
X66170236Y-73577540D01*
X66339522Y-73507419D01*
X66355506Y-73520537D01*
X66465820Y-73579502D01*
X66585518Y-73615812D01*
X66710000Y-73628072D01*
X67910000Y-73628072D01*
X68034482Y-73615812D01*
X68154180Y-73579502D01*
X68264494Y-73520537D01*
X68361185Y-73441185D01*
X68440537Y-73344494D01*
X68477683Y-73275000D01*
X71259922Y-73275000D01*
X71370392Y-73409608D01*
X71588899Y-73588932D01*
X71838192Y-73722182D01*
X72108691Y-73804236D01*
X72319508Y-73825000D01*
X72460492Y-73825000D01*
X72671309Y-73804236D01*
X72941808Y-73722182D01*
X73191101Y-73588932D01*
X73409608Y-73409608D01*
X73588932Y-73191101D01*
X73722182Y-72941808D01*
X73804236Y-72671309D01*
X73831943Y-72390000D01*
X73818023Y-72248665D01*
X81115000Y-72248665D01*
X81115000Y-72531335D01*
X81170147Y-72808574D01*
X81278320Y-73069727D01*
X81435363Y-73304759D01*
X81635241Y-73504637D01*
X81870273Y-73661680D01*
X82131426Y-73769853D01*
X82408665Y-73825000D01*
X82691335Y-73825000D01*
X82968574Y-73769853D01*
X83229727Y-73661680D01*
X83464759Y-73504637D01*
X83664637Y-73304759D01*
X83774725Y-73140000D01*
X85196928Y-73140000D01*
X85209188Y-73264482D01*
X85245498Y-73384180D01*
X85304463Y-73494494D01*
X85383815Y-73591185D01*
X85480506Y-73670537D01*
X85590820Y-73729502D01*
X85710518Y-73765812D01*
X85835000Y-73778072D01*
X86074250Y-73775000D01*
X86233000Y-73616250D01*
X86233000Y-72517000D01*
X85358750Y-72517000D01*
X85200000Y-72675750D01*
X85196928Y-73140000D01*
X83774725Y-73140000D01*
X83821680Y-73069727D01*
X83929853Y-72808574D01*
X83985000Y-72531335D01*
X83985000Y-72248665D01*
X83929853Y-71971426D01*
X83821680Y-71710273D01*
X83774726Y-71640000D01*
X85196928Y-71640000D01*
X85200000Y-72104250D01*
X85358750Y-72263000D01*
X86233000Y-72263000D01*
X86233000Y-71163750D01*
X86074250Y-71005000D01*
X85835000Y-71001928D01*
X85710518Y-71014188D01*
X85590820Y-71050498D01*
X85480506Y-71109463D01*
X85383815Y-71188815D01*
X85304463Y-71285506D01*
X85245498Y-71395820D01*
X85209188Y-71515518D01*
X85196928Y-71640000D01*
X83774726Y-71640000D01*
X83664637Y-71475241D01*
X83464759Y-71275363D01*
X83229727Y-71118320D01*
X82968574Y-71010147D01*
X82691335Y-70955000D01*
X82408665Y-70955000D01*
X82131426Y-71010147D01*
X81870273Y-71118320D01*
X81635241Y-71275363D01*
X81435363Y-71475241D01*
X81278320Y-71710273D01*
X81170147Y-71971426D01*
X81115000Y-72248665D01*
X73818023Y-72248665D01*
X73804236Y-72108691D01*
X73722182Y-71838192D01*
X73588932Y-71588899D01*
X73409608Y-71370392D01*
X73191101Y-71191068D01*
X72941808Y-71057818D01*
X72671309Y-70975764D01*
X72460492Y-70955000D01*
X72319508Y-70955000D01*
X72108691Y-70975764D01*
X71838192Y-71057818D01*
X71588899Y-71191068D01*
X71370392Y-71370392D01*
X71259922Y-71505000D01*
X68477683Y-71505000D01*
X68440537Y-71435506D01*
X68361185Y-71338815D01*
X68264494Y-71259463D01*
X68154180Y-71200498D01*
X68034482Y-71164188D01*
X67910000Y-71151928D01*
X66710000Y-71151928D01*
X66585518Y-71164188D01*
X66465820Y-71200498D01*
X66355506Y-71259463D01*
X66339522Y-71272581D01*
X66170236Y-71202460D01*
X65931637Y-71155000D01*
X65688363Y-71155000D01*
X65449764Y-71202460D01*
X65225008Y-71295557D01*
X65161226Y-71338175D01*
X63641122Y-69818072D01*
X64100000Y-69818072D01*
X64224482Y-69805812D01*
X64344180Y-69769502D01*
X64454494Y-69710537D01*
X64551185Y-69631185D01*
X64630537Y-69534494D01*
X64667683Y-69465000D01*
X68719922Y-69465000D01*
X68830392Y-69599608D01*
X69048899Y-69778932D01*
X69298192Y-69912182D01*
X69568691Y-69994236D01*
X69779508Y-70015000D01*
X69920492Y-70015000D01*
X70131309Y-69994236D01*
X70401808Y-69912182D01*
X70651101Y-69778932D01*
X70869608Y-69599608D01*
X71048932Y-69381101D01*
X71182182Y-69131808D01*
X71264236Y-68861309D01*
X71291943Y-68580000D01*
X71264236Y-68298691D01*
X71182182Y-68028192D01*
X71048932Y-67778899D01*
X70869608Y-67560392D01*
X70651101Y-67381068D01*
X70401808Y-67247818D01*
X70131309Y-67165764D01*
X69920492Y-67145000D01*
X69779508Y-67145000D01*
X69568691Y-67165764D01*
X69298192Y-67247818D01*
X69048899Y-67381068D01*
X68830392Y-67560392D01*
X68719922Y-67695000D01*
X64667683Y-67695000D01*
X64630537Y-67625506D01*
X64551185Y-67528815D01*
X64454494Y-67449463D01*
X64344180Y-67390498D01*
X64224482Y-67354188D01*
X64100000Y-67341928D01*
X62900000Y-67341928D01*
X62775518Y-67354188D01*
X62655820Y-67390498D01*
X62545506Y-67449463D01*
X62529522Y-67462581D01*
X62360236Y-67392460D01*
X62121637Y-67345000D01*
X61878363Y-67345000D01*
X61639764Y-67392460D01*
X61415008Y-67485557D01*
X61212733Y-67620713D01*
X61040713Y-67792733D01*
X60905557Y-67995008D01*
X60812460Y-68219764D01*
X60766316Y-68451745D01*
X58425732Y-70792330D01*
X58240623Y-70755510D01*
X57918657Y-70755510D01*
X57602877Y-70818322D01*
X57305418Y-70941533D01*
X57037713Y-71120408D01*
X56810048Y-71348073D01*
X56631173Y-71615778D01*
X56507962Y-71913237D01*
X56445150Y-72229017D01*
X43840000Y-72229017D01*
X43840000Y-70324017D01*
X51365150Y-70324017D01*
X51365150Y-70645983D01*
X51427962Y-70961763D01*
X51551173Y-71259222D01*
X51730048Y-71526927D01*
X51957713Y-71754592D01*
X52225418Y-71933467D01*
X52522877Y-72056678D01*
X52838657Y-72119490D01*
X53160623Y-72119490D01*
X53476403Y-72056678D01*
X53773862Y-71933467D01*
X54041567Y-71754592D01*
X54269232Y-71526927D01*
X54448107Y-71259222D01*
X54571318Y-70961763D01*
X54634130Y-70645983D01*
X54634130Y-70324017D01*
X54571318Y-70008237D01*
X54448107Y-69710778D01*
X54269232Y-69443073D01*
X54041567Y-69215408D01*
X53773862Y-69036533D01*
X53476403Y-68913322D01*
X53160623Y-68850510D01*
X52838657Y-68850510D01*
X52522877Y-68913322D01*
X52225418Y-69036533D01*
X51957713Y-69215408D01*
X51730048Y-69443073D01*
X51551173Y-69710778D01*
X51427962Y-70008237D01*
X51365150Y-70324017D01*
X43840000Y-70324017D01*
X43840000Y-66514017D01*
X51365150Y-66514017D01*
X51365150Y-66835983D01*
X51427962Y-67151763D01*
X51551173Y-67449222D01*
X51730048Y-67716927D01*
X51957713Y-67944592D01*
X52225418Y-68123467D01*
X52522877Y-68246678D01*
X52838657Y-68309490D01*
X53160623Y-68309490D01*
X53345731Y-68272670D01*
X54248108Y-69175047D01*
X54275823Y-69208817D01*
X54309591Y-69236530D01*
X54309593Y-69236532D01*
X54332143Y-69255038D01*
X54410581Y-69319411D01*
X54564327Y-69401589D01*
X54731150Y-69452195D01*
X54861163Y-69465000D01*
X54861171Y-69465000D01*
X54904640Y-69469281D01*
X54948109Y-69465000D01*
X56705193Y-69465000D01*
X56810048Y-69621927D01*
X57037713Y-69849592D01*
X57305418Y-70028467D01*
X57602877Y-70151678D01*
X57918657Y-70214490D01*
X58240623Y-70214490D01*
X58556403Y-70151678D01*
X58853862Y-70028467D01*
X59121567Y-69849592D01*
X59349232Y-69621927D01*
X59528107Y-69354222D01*
X59651318Y-69056763D01*
X59714130Y-68740983D01*
X59714130Y-68419017D01*
X59651318Y-68103237D01*
X59528107Y-67805778D01*
X59349232Y-67538073D01*
X59121567Y-67310408D01*
X58853862Y-67131533D01*
X58556403Y-67008322D01*
X58240623Y-66945510D01*
X57918657Y-66945510D01*
X57602877Y-67008322D01*
X57305418Y-67131533D01*
X57037713Y-67310408D01*
X56810048Y-67538073D01*
X56705193Y-67695000D01*
X55271219Y-67695000D01*
X54597310Y-67021091D01*
X54634130Y-66835983D01*
X54634130Y-66514017D01*
X54571318Y-66198237D01*
X54448107Y-65900778D01*
X54269232Y-65633073D01*
X54041567Y-65405408D01*
X53773862Y-65226533D01*
X53476403Y-65103322D01*
X53160623Y-65040510D01*
X52838657Y-65040510D01*
X52522877Y-65103322D01*
X52225418Y-65226533D01*
X51957713Y-65405408D01*
X51730048Y-65633073D01*
X51551173Y-65900778D01*
X51427962Y-66198237D01*
X51365150Y-66514017D01*
X43840000Y-66514017D01*
X43840000Y-64609017D01*
X56445150Y-64609017D01*
X56445150Y-64930983D01*
X56507962Y-65246763D01*
X56631173Y-65544222D01*
X56810048Y-65811927D01*
X57037713Y-66039592D01*
X57305418Y-66218467D01*
X57602877Y-66341678D01*
X57918657Y-66404490D01*
X58240623Y-66404490D01*
X58556403Y-66341678D01*
X58853862Y-66218467D01*
X59121567Y-66039592D01*
X59349232Y-65811927D01*
X59528107Y-65544222D01*
X59651318Y-65246763D01*
X59714130Y-64930983D01*
X59714130Y-64609017D01*
X59677310Y-64423908D01*
X61520556Y-62580662D01*
X64304942Y-65365049D01*
X64332655Y-65398817D01*
X64366423Y-65426530D01*
X64366425Y-65426532D01*
X64394688Y-65449727D01*
X64467413Y-65509411D01*
X64621159Y-65591589D01*
X64787982Y-65642195D01*
X64917995Y-65655000D01*
X64918003Y-65655000D01*
X64951772Y-65658326D01*
X65022733Y-65729287D01*
X65225008Y-65864443D01*
X65449764Y-65957540D01*
X65688363Y-66005000D01*
X65931637Y-66005000D01*
X66170236Y-65957540D01*
X66339522Y-65887419D01*
X66355506Y-65900537D01*
X66465820Y-65959502D01*
X66585518Y-65995812D01*
X66710000Y-66008072D01*
X67910000Y-66008072D01*
X68034482Y-65995812D01*
X68154180Y-65959502D01*
X68264494Y-65900537D01*
X68361185Y-65821185D01*
X68440537Y-65724494D01*
X68477683Y-65655000D01*
X71259922Y-65655000D01*
X71370392Y-65789608D01*
X71588899Y-65968932D01*
X71838192Y-66102182D01*
X72108691Y-66184236D01*
X72319508Y-66205000D01*
X72460492Y-66205000D01*
X72671309Y-66184236D01*
X72941808Y-66102182D01*
X73191101Y-65968932D01*
X73409608Y-65789608D01*
X73588932Y-65571101D01*
X73722182Y-65321808D01*
X73804236Y-65051309D01*
X73831943Y-64770000D01*
X73818023Y-64628665D01*
X81115000Y-64628665D01*
X81115000Y-64911335D01*
X81170147Y-65188574D01*
X81278320Y-65449727D01*
X81435363Y-65684759D01*
X81635241Y-65884637D01*
X81870273Y-66041680D01*
X82131426Y-66149853D01*
X82408665Y-66205000D01*
X82691335Y-66205000D01*
X82968574Y-66149853D01*
X83229727Y-66041680D01*
X83464759Y-65884637D01*
X83664637Y-65684759D01*
X83821680Y-65449727D01*
X83929853Y-65188574D01*
X83985000Y-64911335D01*
X83985000Y-64628665D01*
X83929853Y-64351426D01*
X83821680Y-64090273D01*
X83664637Y-63855241D01*
X83464759Y-63655363D01*
X83229727Y-63498320D01*
X82968574Y-63390147D01*
X82691335Y-63335000D01*
X82408665Y-63335000D01*
X82131426Y-63390147D01*
X81870273Y-63498320D01*
X81635241Y-63655363D01*
X81435363Y-63855241D01*
X81278320Y-64090273D01*
X81170147Y-64351426D01*
X81115000Y-64628665D01*
X73818023Y-64628665D01*
X73804236Y-64488691D01*
X73722182Y-64218192D01*
X73588932Y-63968899D01*
X73409608Y-63750392D01*
X73191101Y-63571068D01*
X72941808Y-63437818D01*
X72671309Y-63355764D01*
X72460492Y-63335000D01*
X72319508Y-63335000D01*
X72108691Y-63355764D01*
X71838192Y-63437818D01*
X71588899Y-63571068D01*
X71370392Y-63750392D01*
X71259922Y-63885000D01*
X68477683Y-63885000D01*
X68440537Y-63815506D01*
X68361185Y-63718815D01*
X68264494Y-63639463D01*
X68154180Y-63580498D01*
X68034482Y-63544188D01*
X67910000Y-63531928D01*
X66710000Y-63531928D01*
X66585518Y-63544188D01*
X66465820Y-63580498D01*
X66355506Y-63639463D01*
X66339522Y-63652581D01*
X66170236Y-63582460D01*
X65931637Y-63535000D01*
X65688363Y-63535000D01*
X65449764Y-63582460D01*
X65225008Y-63675557D01*
X65161226Y-63718175D01*
X63641122Y-62198072D01*
X64100000Y-62198072D01*
X64224482Y-62185812D01*
X64344180Y-62149502D01*
X64454494Y-62090537D01*
X64551185Y-62011185D01*
X64630537Y-61914494D01*
X64667683Y-61845000D01*
X68719922Y-61845000D01*
X68830392Y-61979608D01*
X69048899Y-62158932D01*
X69298192Y-62292182D01*
X69568691Y-62374236D01*
X69779508Y-62395000D01*
X69920492Y-62395000D01*
X70131309Y-62374236D01*
X70401808Y-62292182D01*
X70651101Y-62158932D01*
X70869608Y-61979608D01*
X71048932Y-61761101D01*
X71182182Y-61511808D01*
X71264236Y-61241309D01*
X71291943Y-60960000D01*
X71278023Y-60818665D01*
X78575000Y-60818665D01*
X78575000Y-61101335D01*
X78630147Y-61378574D01*
X78738320Y-61639727D01*
X78895363Y-61874759D01*
X79095241Y-62074637D01*
X79330273Y-62231680D01*
X79591426Y-62339853D01*
X79868665Y-62395000D01*
X80151335Y-62395000D01*
X80186439Y-62388017D01*
X80623470Y-62825049D01*
X80651183Y-62858817D01*
X80684951Y-62886530D01*
X80684953Y-62886532D01*
X80713216Y-62909727D01*
X80785941Y-62969411D01*
X80939687Y-63051589D01*
X81106510Y-63102195D01*
X81236523Y-63115000D01*
X81236533Y-63115000D01*
X81279999Y-63119281D01*
X81323465Y-63115000D01*
X85212379Y-63115000D01*
X85245498Y-63224180D01*
X85304463Y-63334494D01*
X85383815Y-63431185D01*
X85480506Y-63510537D01*
X85590820Y-63569502D01*
X85710518Y-63605812D01*
X85835000Y-63618072D01*
X86167126Y-63618072D01*
X81965199Y-67820000D01*
X81228043Y-67820000D01*
X81124637Y-67665241D01*
X80924759Y-67465363D01*
X80689727Y-67308320D01*
X80428574Y-67200147D01*
X80151335Y-67145000D01*
X79868665Y-67145000D01*
X79591426Y-67200147D01*
X79330273Y-67308320D01*
X79095241Y-67465363D01*
X78895363Y-67665241D01*
X78738320Y-67900273D01*
X78630147Y-68161426D01*
X78575000Y-68438665D01*
X78575000Y-68721335D01*
X78630147Y-68998574D01*
X78738320Y-69259727D01*
X78895363Y-69494759D01*
X79095241Y-69694637D01*
X79330273Y-69851680D01*
X79591426Y-69959853D01*
X79868665Y-70015000D01*
X80151335Y-70015000D01*
X80428574Y-69959853D01*
X80689727Y-69851680D01*
X80924759Y-69694637D01*
X81124637Y-69494759D01*
X81228043Y-69340000D01*
X82242678Y-69340000D01*
X82280000Y-69343676D01*
X82317322Y-69340000D01*
X82317333Y-69340000D01*
X82428986Y-69329003D01*
X82572247Y-69285546D01*
X82704276Y-69214974D01*
X82820001Y-69120001D01*
X82843804Y-69090997D01*
X83874801Y-68060000D01*
X85196928Y-68060000D01*
X85209188Y-68184482D01*
X85245498Y-68304180D01*
X85304463Y-68414494D01*
X85383815Y-68511185D01*
X85480506Y-68590537D01*
X85590820Y-68649502D01*
X85710518Y-68685812D01*
X85835000Y-68698072D01*
X86074250Y-68695000D01*
X86233000Y-68536250D01*
X86233000Y-67437000D01*
X85358750Y-67437000D01*
X85200000Y-67595750D01*
X85196928Y-68060000D01*
X83874801Y-68060000D01*
X85198097Y-66736704D01*
X85200000Y-67024250D01*
X85358750Y-67183000D01*
X86233000Y-67183000D01*
X86233000Y-67028022D01*
X86470000Y-67028022D01*
X86470000Y-67591979D01*
X86486785Y-67762400D01*
X86487000Y-67763109D01*
X86487000Y-68536250D01*
X86645750Y-68695000D01*
X86885000Y-68698072D01*
X87009482Y-68685812D01*
X87129180Y-68649502D01*
X87193902Y-68614907D01*
X87402601Y-68678215D01*
X87630000Y-68700612D01*
X87857400Y-68678215D01*
X88076060Y-68611885D01*
X88265001Y-68510894D01*
X88453941Y-68611885D01*
X88672601Y-68678215D01*
X88900000Y-68700612D01*
X89127400Y-68678215D01*
X89346060Y-68611885D01*
X89547579Y-68504171D01*
X89724212Y-68359212D01*
X89858977Y-68195000D01*
X91575479Y-68195000D01*
X91595363Y-68224759D01*
X91795241Y-68424637D01*
X92030273Y-68581680D01*
X92291426Y-68689853D01*
X92568665Y-68745000D01*
X92851335Y-68745000D01*
X93128574Y-68689853D01*
X93389727Y-68581680D01*
X93624759Y-68424637D01*
X93824637Y-68224759D01*
X93981680Y-67989727D01*
X94089853Y-67728574D01*
X94145000Y-67451335D01*
X94145000Y-67168665D01*
X94089853Y-66891426D01*
X93981680Y-66630273D01*
X93824637Y-66395241D01*
X93624759Y-66195363D01*
X93389727Y-66038320D01*
X93147681Y-65938061D01*
X95485000Y-65938061D01*
X95485000Y-66141939D01*
X95524774Y-66341898D01*
X95602795Y-66530256D01*
X95716063Y-66699774D01*
X95860226Y-66843937D01*
X96029744Y-66957205D01*
X96218102Y-67035226D01*
X96274957Y-67046535D01*
X97133470Y-67905049D01*
X97161183Y-67938817D01*
X97194951Y-67966530D01*
X97194953Y-67966532D01*
X97217399Y-67984953D01*
X97295941Y-68049411D01*
X97449687Y-68131589D01*
X97616510Y-68182195D01*
X97746523Y-68195000D01*
X97746533Y-68195000D01*
X97789999Y-68199281D01*
X97833465Y-68195000D01*
X101739922Y-68195000D01*
X101850392Y-68329608D01*
X102068899Y-68508932D01*
X102318192Y-68642182D01*
X102588691Y-68724236D01*
X102799508Y-68745000D01*
X102940492Y-68745000D01*
X103151309Y-68724236D01*
X103421808Y-68642182D01*
X103671101Y-68508932D01*
X103889608Y-68329608D01*
X104068932Y-68111101D01*
X104202182Y-67861808D01*
X104284236Y-67591309D01*
X104311943Y-67310000D01*
X104294875Y-67136704D01*
X104936079Y-66495500D01*
X108953202Y-66495500D01*
X108879160Y-66739585D01*
X108855510Y-66979709D01*
X108855510Y-67640292D01*
X108879160Y-67880416D01*
X108972622Y-68188519D01*
X109124396Y-68472467D01*
X109328649Y-68721351D01*
X109577534Y-68925604D01*
X109861482Y-69077378D01*
X110169585Y-69170840D01*
X110490000Y-69202398D01*
X110810416Y-69170840D01*
X111118519Y-69077378D01*
X111402467Y-68925604D01*
X111651351Y-68721351D01*
X111855604Y-68472467D01*
X112007378Y-68188519D01*
X112100840Y-67880415D01*
X112124490Y-67640291D01*
X112124490Y-66979708D01*
X112100840Y-66739584D01*
X112026798Y-66495500D01*
X114384792Y-66495500D01*
X115794340Y-67905049D01*
X115822053Y-67938817D01*
X115855821Y-67966530D01*
X115855823Y-67966532D01*
X115878269Y-67984953D01*
X115956811Y-68049411D01*
X116110557Y-68131589D01*
X116208915Y-68161426D01*
X116277379Y-68182195D01*
X116292176Y-68183652D01*
X116407393Y-68195000D01*
X116407401Y-68195000D01*
X116450870Y-68199281D01*
X116494339Y-68195000D01*
X116570075Y-68195000D01*
X116584756Y-68222467D01*
X116789009Y-68471351D01*
X117037893Y-68675604D01*
X117321841Y-68827378D01*
X117629944Y-68920840D01*
X117870068Y-68944490D01*
X119030652Y-68944490D01*
X119270776Y-68920840D01*
X119578879Y-68827378D01*
X119862827Y-68675604D01*
X120111711Y-68471351D01*
X120315964Y-68222467D01*
X120467738Y-67938519D01*
X120561200Y-67630416D01*
X120592758Y-67310000D01*
X120561200Y-66989584D01*
X120467738Y-66681481D01*
X120315964Y-66397533D01*
X120111711Y-66148649D01*
X119862827Y-65944396D01*
X119578879Y-65792622D01*
X119270776Y-65699160D01*
X119030652Y-65675510D01*
X117870068Y-65675510D01*
X117629944Y-65699160D01*
X117321841Y-65792622D01*
X117037893Y-65944396D01*
X116789009Y-66148649D01*
X116677262Y-66284813D01*
X115407904Y-65015456D01*
X115380187Y-64981683D01*
X115245429Y-64871089D01*
X115091683Y-64788911D01*
X114924860Y-64738305D01*
X114794847Y-64725500D01*
X114794839Y-64725500D01*
X114751370Y-64721219D01*
X114707901Y-64725500D01*
X104612969Y-64725500D01*
X104569500Y-64721219D01*
X104526031Y-64725500D01*
X104526023Y-64725500D01*
X104410806Y-64736848D01*
X104396009Y-64738305D01*
X104345403Y-64753657D01*
X104229187Y-64788911D01*
X104075441Y-64871089D01*
X104075439Y-64871090D01*
X104075440Y-64871090D01*
X103974453Y-64953968D01*
X103974451Y-64953970D01*
X103940683Y-64981683D01*
X103912970Y-65015451D01*
X103043296Y-65885125D01*
X102940492Y-65875000D01*
X102799508Y-65875000D01*
X102588691Y-65895764D01*
X102318192Y-65977818D01*
X102068899Y-66111068D01*
X101850392Y-66290392D01*
X101739922Y-66425000D01*
X98156579Y-66425000D01*
X97526535Y-65794957D01*
X97515226Y-65738102D01*
X97437205Y-65549744D01*
X97323937Y-65380226D01*
X97179774Y-65236063D01*
X97010256Y-65122795D01*
X96821898Y-65044774D01*
X96621939Y-65005000D01*
X96418061Y-65005000D01*
X96218102Y-65044774D01*
X96029744Y-65122795D01*
X95860226Y-65236063D01*
X95716063Y-65380226D01*
X95602795Y-65549744D01*
X95524774Y-65738102D01*
X95485000Y-65938061D01*
X93147681Y-65938061D01*
X93128574Y-65930147D01*
X92851335Y-65875000D01*
X92568665Y-65875000D01*
X92291426Y-65930147D01*
X92030273Y-66038320D01*
X91795241Y-66195363D01*
X91595363Y-66395241D01*
X91575479Y-66425000D01*
X89858977Y-66425000D01*
X89724212Y-66260788D01*
X89547578Y-66115829D01*
X89346059Y-66008115D01*
X89127399Y-65941785D01*
X88900000Y-65919388D01*
X88672600Y-65941785D01*
X88453940Y-66008115D01*
X88265000Y-66109106D01*
X88076059Y-66008115D01*
X87857399Y-65941785D01*
X87630000Y-65919388D01*
X87402600Y-65941785D01*
X87193902Y-66005093D01*
X87129180Y-65970498D01*
X87009482Y-65934188D01*
X86885000Y-65921928D01*
X86645750Y-65925000D01*
X86487000Y-66083750D01*
X86487000Y-66856892D01*
X86486785Y-66857601D01*
X86470000Y-67028022D01*
X86233000Y-67028022D01*
X86233000Y-66083750D01*
X86074250Y-65925000D01*
X86010619Y-65924183D01*
X88141004Y-63793798D01*
X88170001Y-63770001D01*
X88264974Y-63654276D01*
X88335546Y-63522247D01*
X88349549Y-63476086D01*
X88453941Y-63531885D01*
X88672601Y-63598215D01*
X88900000Y-63620612D01*
X89127400Y-63598215D01*
X89346060Y-63531885D01*
X89547579Y-63424171D01*
X89724212Y-63279212D01*
X89858977Y-63115000D01*
X91575479Y-63115000D01*
X91595363Y-63144759D01*
X91795241Y-63344637D01*
X92030273Y-63501680D01*
X92291426Y-63609853D01*
X92568665Y-63665000D01*
X92851335Y-63665000D01*
X93128574Y-63609853D01*
X93389727Y-63501680D01*
X93624759Y-63344637D01*
X93746694Y-63222702D01*
X95706903Y-63222702D01*
X95778486Y-63466671D01*
X96033996Y-63587571D01*
X96308184Y-63656300D01*
X96590512Y-63670217D01*
X96870130Y-63628787D01*
X97136292Y-63533603D01*
X97261514Y-63466671D01*
X97333097Y-63222702D01*
X96520000Y-62409605D01*
X95706903Y-63222702D01*
X93746694Y-63222702D01*
X93824637Y-63144759D01*
X93981680Y-62909727D01*
X94089853Y-62648574D01*
X94145000Y-62371335D01*
X94145000Y-62300512D01*
X95079783Y-62300512D01*
X95121213Y-62580130D01*
X95216397Y-62846292D01*
X95283329Y-62971514D01*
X95527298Y-63043097D01*
X96340395Y-62230000D01*
X96699605Y-62230000D01*
X97512702Y-63043097D01*
X97756671Y-62971514D01*
X97877571Y-62716004D01*
X97946300Y-62441816D01*
X97960217Y-62159488D01*
X97949724Y-62088665D01*
X103975000Y-62088665D01*
X103975000Y-62371335D01*
X104030147Y-62648574D01*
X104138320Y-62909727D01*
X104295363Y-63144759D01*
X104495241Y-63344637D01*
X104730273Y-63501680D01*
X104991426Y-63609853D01*
X105268665Y-63665000D01*
X105551335Y-63665000D01*
X105828574Y-63609853D01*
X106089727Y-63501680D01*
X106324759Y-63344637D01*
X106524637Y-63144759D01*
X106681680Y-62909727D01*
X106789853Y-62648574D01*
X106845000Y-62371335D01*
X106845000Y-62088665D01*
X106789853Y-61811426D01*
X106681680Y-61550273D01*
X106524637Y-61315241D01*
X106324759Y-61115363D01*
X106089727Y-60958320D01*
X105828574Y-60850147D01*
X105551335Y-60795000D01*
X105268665Y-60795000D01*
X104991426Y-60850147D01*
X104730273Y-60958320D01*
X104495241Y-61115363D01*
X104295363Y-61315241D01*
X104138320Y-61550273D01*
X104030147Y-61811426D01*
X103975000Y-62088665D01*
X97949724Y-62088665D01*
X97918787Y-61879870D01*
X97823603Y-61613708D01*
X97756671Y-61488486D01*
X97512702Y-61416903D01*
X96699605Y-62230000D01*
X96340395Y-62230000D01*
X95527298Y-61416903D01*
X95283329Y-61488486D01*
X95162429Y-61743996D01*
X95093700Y-62018184D01*
X95079783Y-62300512D01*
X94145000Y-62300512D01*
X94145000Y-62088665D01*
X94089853Y-61811426D01*
X93981680Y-61550273D01*
X93824637Y-61315241D01*
X93746694Y-61237298D01*
X95706903Y-61237298D01*
X96520000Y-62050395D01*
X97333097Y-61237298D01*
X97261514Y-60993329D01*
X97006004Y-60872429D01*
X96731816Y-60803700D01*
X96449488Y-60789783D01*
X96169870Y-60831213D01*
X95903708Y-60926397D01*
X95778486Y-60993329D01*
X95706903Y-61237298D01*
X93746694Y-61237298D01*
X93624759Y-61115363D01*
X93389727Y-60958320D01*
X93128574Y-60850147D01*
X92851335Y-60795000D01*
X92568665Y-60795000D01*
X92291426Y-60850147D01*
X92030273Y-60958320D01*
X91795241Y-61115363D01*
X91595363Y-61315241D01*
X91575479Y-61345000D01*
X89858977Y-61345000D01*
X89724212Y-61180788D01*
X89547578Y-61035829D01*
X89346059Y-60928115D01*
X89127399Y-60861785D01*
X88900000Y-60839388D01*
X88672600Y-60861785D01*
X88453940Y-60928115D01*
X88264999Y-61029106D01*
X88076059Y-60928115D01*
X87857399Y-60861785D01*
X87741234Y-60850344D01*
X92041578Y-56550000D01*
X99091928Y-56550000D01*
X99091928Y-57750000D01*
X99104188Y-57874482D01*
X99140498Y-57994180D01*
X99199463Y-58104494D01*
X99278815Y-58201185D01*
X99375506Y-58280537D01*
X99485820Y-58339502D01*
X99605518Y-58375812D01*
X99730000Y-58388072D01*
X100930000Y-58388072D01*
X101054482Y-58375812D01*
X101174180Y-58339502D01*
X101284494Y-58280537D01*
X101300478Y-58267419D01*
X101469764Y-58337540D01*
X101708363Y-58385000D01*
X101951637Y-58385000D01*
X102190236Y-58337540D01*
X102414992Y-58244443D01*
X102617267Y-58109287D01*
X102789287Y-57937267D01*
X102924443Y-57734992D01*
X103017540Y-57510236D01*
X103065000Y-57271637D01*
X103065000Y-57028363D01*
X103017540Y-56789764D01*
X102924443Y-56565008D01*
X102789287Y-56362733D01*
X102617267Y-56190713D01*
X102414992Y-56055557D01*
X102190236Y-55962460D01*
X101951637Y-55915000D01*
X101708363Y-55915000D01*
X101469764Y-55962460D01*
X101300478Y-56032581D01*
X101284494Y-56019463D01*
X101174180Y-55960498D01*
X101054482Y-55924188D01*
X100930000Y-55911928D01*
X99730000Y-55911928D01*
X99605518Y-55924188D01*
X99485820Y-55960498D01*
X99375506Y-56019463D01*
X99278815Y-56098815D01*
X99199463Y-56195506D01*
X99140498Y-56305820D01*
X99104188Y-56425518D01*
X99091928Y-56550000D01*
X92041578Y-56550000D01*
X93096579Y-55495000D01*
X93936531Y-55495000D01*
X93980000Y-55499281D01*
X94023469Y-55495000D01*
X94023477Y-55495000D01*
X94153490Y-55482195D01*
X94320313Y-55431589D01*
X94474059Y-55349411D01*
X94608817Y-55238817D01*
X94636534Y-55205044D01*
X96346704Y-53494875D01*
X96449508Y-53505000D01*
X96590492Y-53505000D01*
X96801309Y-53484236D01*
X97071808Y-53402182D01*
X97321101Y-53268932D01*
X97539608Y-53089608D01*
X97718932Y-52871101D01*
X97852182Y-52621808D01*
X97934236Y-52351309D01*
X97961943Y-52070000D01*
X103968057Y-52070000D01*
X103995764Y-52351309D01*
X104077818Y-52621808D01*
X104211068Y-52871101D01*
X104390392Y-53089608D01*
X104608899Y-53268932D01*
X104858192Y-53402182D01*
X105128691Y-53484236D01*
X105339508Y-53505000D01*
X105480492Y-53505000D01*
X105691309Y-53484236D01*
X105961808Y-53402182D01*
X106211101Y-53268932D01*
X106429608Y-53089608D01*
X106495179Y-53009709D01*
X108855510Y-53009709D01*
X108855510Y-53670292D01*
X108879160Y-53910416D01*
X108972622Y-54218519D01*
X109124396Y-54502467D01*
X109328649Y-54751351D01*
X109577534Y-54955604D01*
X109861482Y-55107378D01*
X110169585Y-55200840D01*
X110490000Y-55232398D01*
X110810416Y-55200840D01*
X111118519Y-55107378D01*
X111402467Y-54955604D01*
X111651351Y-54751351D01*
X111855604Y-54502467D01*
X112007378Y-54218519D01*
X112100840Y-53910415D01*
X112124490Y-53670291D01*
X112124490Y-53340000D01*
X116307962Y-53340000D01*
X116339520Y-53660416D01*
X116432982Y-53968519D01*
X116584756Y-54252467D01*
X116789009Y-54501351D01*
X117037893Y-54705604D01*
X117321841Y-54857378D01*
X117629944Y-54950840D01*
X117870068Y-54974490D01*
X119030652Y-54974490D01*
X119270776Y-54950840D01*
X119578879Y-54857378D01*
X119862827Y-54705604D01*
X120111711Y-54501351D01*
X120315964Y-54252467D01*
X120467738Y-53968519D01*
X120561200Y-53660416D01*
X120592758Y-53340000D01*
X120561200Y-53019584D01*
X120467738Y-52711481D01*
X120315964Y-52427533D01*
X120111711Y-52178649D01*
X119862827Y-51974396D01*
X119578879Y-51822622D01*
X119270776Y-51729160D01*
X119030652Y-51705510D01*
X117870068Y-51705510D01*
X117629944Y-51729160D01*
X117321841Y-51822622D01*
X117037893Y-51974396D01*
X116789009Y-52178649D01*
X116584756Y-52427533D01*
X116432982Y-52711481D01*
X116339520Y-53019584D01*
X116307962Y-53340000D01*
X112124490Y-53340000D01*
X112124490Y-53009708D01*
X112100840Y-52769584D01*
X112007378Y-52461481D01*
X111855604Y-52177533D01*
X111651351Y-51928649D01*
X111402466Y-51724396D01*
X111118518Y-51572622D01*
X110810415Y-51479160D01*
X110490000Y-51447602D01*
X110169584Y-51479160D01*
X109861481Y-51572622D01*
X109577533Y-51724396D01*
X109328649Y-51928649D01*
X109124396Y-52177534D01*
X108972622Y-52461482D01*
X108879160Y-52769585D01*
X108855510Y-53009709D01*
X106495179Y-53009709D01*
X106608932Y-52871101D01*
X106742182Y-52621808D01*
X106824236Y-52351309D01*
X106851943Y-52070000D01*
X106824236Y-51788691D01*
X106742182Y-51518192D01*
X106608932Y-51268899D01*
X106429608Y-51050392D01*
X106211101Y-50871068D01*
X105961808Y-50737818D01*
X105691309Y-50655764D01*
X105480492Y-50635000D01*
X105339508Y-50635000D01*
X105128691Y-50655764D01*
X104858192Y-50737818D01*
X104608899Y-50871068D01*
X104390392Y-51050392D01*
X104211068Y-51268899D01*
X104077818Y-51518192D01*
X103995764Y-51788691D01*
X103968057Y-52070000D01*
X97961943Y-52070000D01*
X97934236Y-51788691D01*
X97852182Y-51518192D01*
X97718932Y-51268899D01*
X97539608Y-51050392D01*
X97321101Y-50871068D01*
X97071808Y-50737818D01*
X96801309Y-50655764D01*
X96590492Y-50635000D01*
X96449508Y-50635000D01*
X96238691Y-50655764D01*
X95968192Y-50737818D01*
X95718899Y-50871068D01*
X95500392Y-51050392D01*
X95321068Y-51268899D01*
X95187818Y-51518192D01*
X95105764Y-51788691D01*
X95078057Y-52070000D01*
X95095125Y-52243296D01*
X93613422Y-53725000D01*
X92773465Y-53725000D01*
X92729999Y-53720719D01*
X92686533Y-53725000D01*
X92686523Y-53725000D01*
X92556510Y-53737805D01*
X92389687Y-53788411D01*
X92235941Y-53870589D01*
X92235939Y-53870590D01*
X92235940Y-53870590D01*
X92134953Y-53953468D01*
X92134951Y-53953470D01*
X92101183Y-53981183D01*
X92073470Y-54014951D01*
X85764952Y-60323470D01*
X85731184Y-60351183D01*
X85703471Y-60384951D01*
X85703468Y-60384954D01*
X85620590Y-60485941D01*
X85538412Y-60639687D01*
X85487805Y-60806510D01*
X85473130Y-60955516D01*
X85383815Y-61028815D01*
X85304463Y-61125506D01*
X85245498Y-61235820D01*
X85212379Y-61345000D01*
X81646579Y-61345000D01*
X81438017Y-61136439D01*
X81445000Y-61101335D01*
X81445000Y-60818665D01*
X81389853Y-60541426D01*
X81281680Y-60280273D01*
X81124637Y-60045241D01*
X80924759Y-59845363D01*
X80689727Y-59688320D01*
X80428574Y-59580147D01*
X80151335Y-59525000D01*
X79868665Y-59525000D01*
X79591426Y-59580147D01*
X79330273Y-59688320D01*
X79095241Y-59845363D01*
X78895363Y-60045241D01*
X78738320Y-60280273D01*
X78630147Y-60541426D01*
X78575000Y-60818665D01*
X71278023Y-60818665D01*
X71264236Y-60678691D01*
X71182182Y-60408192D01*
X71048932Y-60158899D01*
X70869608Y-59940392D01*
X70651101Y-59761068D01*
X70401808Y-59627818D01*
X70131309Y-59545764D01*
X69920492Y-59525000D01*
X69779508Y-59525000D01*
X69568691Y-59545764D01*
X69298192Y-59627818D01*
X69048899Y-59761068D01*
X68830392Y-59940392D01*
X68719922Y-60075000D01*
X64667683Y-60075000D01*
X64630537Y-60005506D01*
X64551185Y-59908815D01*
X64454494Y-59829463D01*
X64344180Y-59770498D01*
X64224482Y-59734188D01*
X64100000Y-59721928D01*
X62900000Y-59721928D01*
X62775518Y-59734188D01*
X62655820Y-59770498D01*
X62545506Y-59829463D01*
X62529522Y-59842581D01*
X62360236Y-59772460D01*
X62121637Y-59725000D01*
X61878363Y-59725000D01*
X61639764Y-59772460D01*
X61415008Y-59865557D01*
X61212733Y-60000713D01*
X61040713Y-60172733D01*
X60905557Y-60375008D01*
X60812460Y-60599764D01*
X60766316Y-60831745D01*
X58425732Y-63172330D01*
X58240623Y-63135510D01*
X57918657Y-63135510D01*
X57602877Y-63198322D01*
X57305418Y-63321533D01*
X57037713Y-63500408D01*
X56810048Y-63728073D01*
X56631173Y-63995778D01*
X56507962Y-64293237D01*
X56445150Y-64609017D01*
X43840000Y-64609017D01*
X43840000Y-54610000D01*
X50671324Y-54610000D01*
X50675001Y-54647332D01*
X50675000Y-61263037D01*
X50671324Y-61300360D01*
X50675000Y-61337682D01*
X50675000Y-61337692D01*
X50685997Y-61449345D01*
X50718061Y-61555047D01*
X50729454Y-61592606D01*
X50800026Y-61724636D01*
X50839871Y-61773186D01*
X50894999Y-61840361D01*
X50924003Y-61864164D01*
X51433853Y-62374014D01*
X51427962Y-62388237D01*
X51365150Y-62704017D01*
X51365150Y-63025983D01*
X51427962Y-63341763D01*
X51551173Y-63639222D01*
X51730048Y-63906927D01*
X51957713Y-64134592D01*
X52225418Y-64313467D01*
X52522877Y-64436678D01*
X52838657Y-64499490D01*
X53160623Y-64499490D01*
X53476403Y-64436678D01*
X53773862Y-64313467D01*
X54041567Y-64134592D01*
X54269232Y-63906927D01*
X54448107Y-63639222D01*
X54571318Y-63341763D01*
X54634130Y-63025983D01*
X54634130Y-62704017D01*
X54571318Y-62388237D01*
X54448107Y-62090778D01*
X54269232Y-61823073D01*
X54041567Y-61595408D01*
X53773862Y-61416533D01*
X53476403Y-61293322D01*
X53160623Y-61230510D01*
X52838657Y-61230510D01*
X52522877Y-61293322D01*
X52508654Y-61299213D01*
X52195000Y-60985559D01*
X52195000Y-60483142D01*
X52225418Y-60503467D01*
X52522877Y-60626678D01*
X52838657Y-60689490D01*
X53160623Y-60689490D01*
X53345731Y-60652670D01*
X54248108Y-61555047D01*
X54275823Y-61588817D01*
X54309591Y-61616530D01*
X54309593Y-61616532D01*
X54410581Y-61699411D01*
X54564327Y-61781589D01*
X54731150Y-61832195D01*
X54861163Y-61845000D01*
X54861171Y-61845000D01*
X54904640Y-61849281D01*
X54948109Y-61845000D01*
X56705193Y-61845000D01*
X56810048Y-62001927D01*
X57037713Y-62229592D01*
X57305418Y-62408467D01*
X57602877Y-62531678D01*
X57918657Y-62594490D01*
X58240623Y-62594490D01*
X58556403Y-62531678D01*
X58853862Y-62408467D01*
X59121567Y-62229592D01*
X59349232Y-62001927D01*
X59528107Y-61734222D01*
X59651318Y-61436763D01*
X59714130Y-61120983D01*
X59714130Y-60799017D01*
X59651318Y-60483237D01*
X59528107Y-60185778D01*
X59349232Y-59918073D01*
X59121567Y-59690408D01*
X58853862Y-59511533D01*
X58556403Y-59388322D01*
X58240623Y-59325510D01*
X57918657Y-59325510D01*
X57602877Y-59388322D01*
X57305418Y-59511533D01*
X57037713Y-59690408D01*
X56810048Y-59918073D01*
X56705193Y-60075000D01*
X55271219Y-60075000D01*
X54597310Y-59401091D01*
X54634130Y-59215983D01*
X54634130Y-58894017D01*
X54571318Y-58578237D01*
X54448107Y-58280778D01*
X54269232Y-58013073D01*
X54041567Y-57785408D01*
X53773862Y-57606533D01*
X53476403Y-57483322D01*
X53160623Y-57420510D01*
X52838657Y-57420510D01*
X52522877Y-57483322D01*
X52225418Y-57606533D01*
X52195000Y-57626858D01*
X52195000Y-56673142D01*
X52225418Y-56693467D01*
X52522877Y-56816678D01*
X52838657Y-56879490D01*
X53160623Y-56879490D01*
X53476403Y-56816678D01*
X53773862Y-56693467D01*
X54041567Y-56514592D01*
X54269232Y-56286927D01*
X54448107Y-56019222D01*
X54571318Y-55721763D01*
X54634130Y-55405983D01*
X54634130Y-55084017D01*
X54571318Y-54768237D01*
X54448107Y-54470778D01*
X54269232Y-54203073D01*
X54166159Y-54100000D01*
X55804591Y-54100000D01*
X57376627Y-55672037D01*
X57305418Y-55701533D01*
X57037713Y-55880408D01*
X56810048Y-56108073D01*
X56631173Y-56375778D01*
X56507962Y-56673237D01*
X56445150Y-56989017D01*
X56445150Y-57310983D01*
X56507962Y-57626763D01*
X56631173Y-57924222D01*
X56810048Y-58191927D01*
X57037713Y-58419592D01*
X57305418Y-58598467D01*
X57602877Y-58721678D01*
X57918657Y-58784490D01*
X58240623Y-58784490D01*
X58556403Y-58721678D01*
X58853862Y-58598467D01*
X59121567Y-58419592D01*
X59349232Y-58191927D01*
X59382123Y-58142702D01*
X75386903Y-58142702D01*
X75458486Y-58386671D01*
X75713996Y-58507571D01*
X75988184Y-58576300D01*
X76270512Y-58590217D01*
X76550130Y-58548787D01*
X76816292Y-58453603D01*
X76941514Y-58386671D01*
X77013097Y-58142702D01*
X76200000Y-57329605D01*
X75386903Y-58142702D01*
X59382123Y-58142702D01*
X59528107Y-57924222D01*
X59651318Y-57626763D01*
X59714130Y-57310983D01*
X59714130Y-57220512D01*
X74759783Y-57220512D01*
X74801213Y-57500130D01*
X74896397Y-57766292D01*
X74963329Y-57891514D01*
X75207298Y-57963097D01*
X76020395Y-57150000D01*
X76379605Y-57150000D01*
X77192702Y-57963097D01*
X77436671Y-57891514D01*
X77557571Y-57636004D01*
X77626300Y-57361816D01*
X77636741Y-57150000D01*
X84918057Y-57150000D01*
X84945764Y-57431309D01*
X85027818Y-57701808D01*
X85161068Y-57951101D01*
X85340392Y-58169608D01*
X85558899Y-58348932D01*
X85808192Y-58482182D01*
X86078691Y-58564236D01*
X86289508Y-58585000D01*
X86430492Y-58585000D01*
X86641309Y-58564236D01*
X86911808Y-58482182D01*
X87161101Y-58348932D01*
X87379608Y-58169608D01*
X87558932Y-57951101D01*
X87692182Y-57701808D01*
X87774236Y-57431309D01*
X87801943Y-57150000D01*
X87774236Y-56868691D01*
X87692182Y-56598192D01*
X87558932Y-56348899D01*
X87379608Y-56130392D01*
X87161101Y-55951068D01*
X86911808Y-55817818D01*
X86641309Y-55735764D01*
X86430492Y-55715000D01*
X86289508Y-55715000D01*
X86078691Y-55735764D01*
X85808192Y-55817818D01*
X85558899Y-55951068D01*
X85340392Y-56130392D01*
X85161068Y-56348899D01*
X85027818Y-56598192D01*
X84945764Y-56868691D01*
X84918057Y-57150000D01*
X77636741Y-57150000D01*
X77640217Y-57079488D01*
X77598787Y-56799870D01*
X77503603Y-56533708D01*
X77436671Y-56408486D01*
X77192702Y-56336903D01*
X76379605Y-57150000D01*
X76020395Y-57150000D01*
X75207298Y-56336903D01*
X74963329Y-56408486D01*
X74842429Y-56663996D01*
X74773700Y-56938184D01*
X74759783Y-57220512D01*
X59714130Y-57220512D01*
X59714130Y-56989017D01*
X59651318Y-56673237D01*
X59528107Y-56375778D01*
X59382124Y-56157298D01*
X75386903Y-56157298D01*
X76200000Y-56970395D01*
X77013097Y-56157298D01*
X76941514Y-55913329D01*
X76686004Y-55792429D01*
X76411816Y-55723700D01*
X76129488Y-55709783D01*
X75849870Y-55751213D01*
X75583708Y-55846397D01*
X75458486Y-55913329D01*
X75386903Y-56157298D01*
X59382124Y-56157298D01*
X59349232Y-56108073D01*
X59246159Y-56005000D01*
X61557678Y-56005000D01*
X61595000Y-56008676D01*
X61632322Y-56005000D01*
X61632333Y-56005000D01*
X61743986Y-55994003D01*
X61788700Y-55980439D01*
X61811426Y-55989853D01*
X62088665Y-56045000D01*
X62371335Y-56045000D01*
X62648574Y-55989853D01*
X62909727Y-55881680D01*
X63144759Y-55724637D01*
X63344637Y-55524759D01*
X63501680Y-55289727D01*
X63609853Y-55028574D01*
X63665000Y-54751335D01*
X63665000Y-54610000D01*
X70948057Y-54610000D01*
X70975764Y-54891309D01*
X71057818Y-55161808D01*
X71191068Y-55411101D01*
X71370392Y-55629608D01*
X71588899Y-55808932D01*
X71838192Y-55942182D01*
X72108691Y-56024236D01*
X72319508Y-56045000D01*
X72460492Y-56045000D01*
X72671309Y-56024236D01*
X72941808Y-55942182D01*
X73191101Y-55808932D01*
X73409608Y-55629608D01*
X73588932Y-55411101D01*
X73722182Y-55161808D01*
X73804236Y-54891309D01*
X73831943Y-54610000D01*
X73804236Y-54328691D01*
X73722182Y-54058192D01*
X73588932Y-53808899D01*
X73409608Y-53590392D01*
X73191101Y-53411068D01*
X72941808Y-53277818D01*
X72671309Y-53195764D01*
X72460492Y-53175000D01*
X72319508Y-53175000D01*
X72108691Y-53195764D01*
X71838192Y-53277818D01*
X71588899Y-53411068D01*
X71370392Y-53590392D01*
X71191068Y-53808899D01*
X71057818Y-54058192D01*
X70975764Y-54328691D01*
X70948057Y-54610000D01*
X63665000Y-54610000D01*
X63665000Y-54468665D01*
X63609853Y-54191426D01*
X63501680Y-53930273D01*
X63344637Y-53695241D01*
X63144759Y-53495363D01*
X62909727Y-53338320D01*
X62648574Y-53230147D01*
X62371335Y-53175000D01*
X62088665Y-53175000D01*
X61811426Y-53230147D01*
X61550273Y-53338320D01*
X61315241Y-53495363D01*
X61115363Y-53695241D01*
X60958320Y-53930273D01*
X60850147Y-54191426D01*
X60795000Y-54468665D01*
X60795000Y-54485000D01*
X59246159Y-54485000D01*
X59349232Y-54381927D01*
X59528107Y-54114222D01*
X59651318Y-53816763D01*
X59714130Y-53500983D01*
X59714130Y-53179017D01*
X59677310Y-52993908D01*
X63526219Y-49145000D01*
X68311928Y-49145000D01*
X68311928Y-49160000D01*
X68324188Y-49284482D01*
X68360498Y-49404180D01*
X68419463Y-49514494D01*
X68498815Y-49611185D01*
X68595506Y-49690537D01*
X68705820Y-49749502D01*
X68825518Y-49785812D01*
X68950000Y-49798072D01*
X68974317Y-49798072D01*
X68977805Y-49833490D01*
X69028412Y-50000313D01*
X69110590Y-50154059D01*
X69193468Y-50255046D01*
X69193471Y-50255049D01*
X69221184Y-50288817D01*
X69254951Y-50316529D01*
X71603468Y-52665047D01*
X71631183Y-52698817D01*
X71664951Y-52726530D01*
X71664953Y-52726532D01*
X71765941Y-52809411D01*
X71919686Y-52891589D01*
X71999248Y-52915724D01*
X72086510Y-52942195D01*
X72216523Y-52955000D01*
X72216531Y-52955000D01*
X72260000Y-52959281D01*
X72303469Y-52955000D01*
X75069922Y-52955000D01*
X75180392Y-53089608D01*
X75398899Y-53268932D01*
X75648192Y-53402182D01*
X75918691Y-53484236D01*
X76129508Y-53505000D01*
X76270492Y-53505000D01*
X76373296Y-53494875D01*
X78083468Y-55205047D01*
X78111183Y-55238817D01*
X78144951Y-55266530D01*
X78144953Y-55266532D01*
X78173216Y-55289727D01*
X78245941Y-55349411D01*
X78399687Y-55431589D01*
X78566510Y-55482195D01*
X78696523Y-55495000D01*
X78696533Y-55495000D01*
X78739999Y-55499281D01*
X78783465Y-55495000D01*
X90126531Y-55495000D01*
X90170000Y-55499281D01*
X90213469Y-55495000D01*
X90213477Y-55495000D01*
X90343490Y-55482195D01*
X90510313Y-55431589D01*
X90664059Y-55349411D01*
X90798817Y-55238817D01*
X90826534Y-55205044D01*
X92536704Y-53494875D01*
X92639508Y-53505000D01*
X92780492Y-53505000D01*
X92991309Y-53484236D01*
X93261808Y-53402182D01*
X93511101Y-53268932D01*
X93729608Y-53089608D01*
X93908932Y-52871101D01*
X94042182Y-52621808D01*
X94124236Y-52351309D01*
X94151943Y-52070000D01*
X94124236Y-51788691D01*
X94042182Y-51518192D01*
X93908932Y-51268899D01*
X93729608Y-51050392D01*
X93511101Y-50871068D01*
X93261808Y-50737818D01*
X92991309Y-50655764D01*
X92780492Y-50635000D01*
X92639508Y-50635000D01*
X92428691Y-50655764D01*
X92158192Y-50737818D01*
X91908899Y-50871068D01*
X91690392Y-51050392D01*
X91511068Y-51268899D01*
X91377818Y-51518192D01*
X91295764Y-51788691D01*
X91268057Y-52070000D01*
X91285125Y-52243296D01*
X89803422Y-53725000D01*
X79106579Y-53725000D01*
X77624875Y-52243296D01*
X77641943Y-52070000D01*
X77628023Y-51928665D01*
X84925000Y-51928665D01*
X84925000Y-52211335D01*
X84980147Y-52488574D01*
X85088320Y-52749727D01*
X85245363Y-52984759D01*
X85445241Y-53184637D01*
X85680273Y-53341680D01*
X85941426Y-53449853D01*
X86218665Y-53505000D01*
X86501335Y-53505000D01*
X86778574Y-53449853D01*
X87039727Y-53341680D01*
X87274759Y-53184637D01*
X87474637Y-52984759D01*
X87631680Y-52749727D01*
X87739853Y-52488574D01*
X87795000Y-52211335D01*
X87795000Y-51928665D01*
X87739853Y-51651426D01*
X87631680Y-51390273D01*
X87474637Y-51155241D01*
X87274759Y-50955363D01*
X87039727Y-50798320D01*
X86778574Y-50690147D01*
X86501335Y-50635000D01*
X86218665Y-50635000D01*
X85941426Y-50690147D01*
X85680273Y-50798320D01*
X85445241Y-50955363D01*
X85245363Y-51155241D01*
X85088320Y-51390273D01*
X84980147Y-51651426D01*
X84925000Y-51928665D01*
X77628023Y-51928665D01*
X77614236Y-51788691D01*
X77532182Y-51518192D01*
X77398932Y-51268899D01*
X77219608Y-51050392D01*
X77001101Y-50871068D01*
X76751808Y-50737818D01*
X76481309Y-50655764D01*
X76270492Y-50635000D01*
X76129508Y-50635000D01*
X75918691Y-50655764D01*
X75648192Y-50737818D01*
X75398899Y-50871068D01*
X75180392Y-51050392D01*
X75069922Y-51185000D01*
X72626579Y-51185000D01*
X71119665Y-49678087D01*
X71201185Y-49611185D01*
X71280537Y-49514494D01*
X71339502Y-49404180D01*
X71345056Y-49385873D01*
X71411495Y-49452312D01*
X71662905Y-49620299D01*
X71942257Y-49736011D01*
X72238816Y-49795000D01*
X72541184Y-49795000D01*
X72837743Y-49736011D01*
X73117095Y-49620299D01*
X73368505Y-49452312D01*
X73582312Y-49238505D01*
X73750299Y-48987095D01*
X73866011Y-48707743D01*
X73925000Y-48411184D01*
X73925000Y-48108816D01*
X73866011Y-47812257D01*
X73750299Y-47532905D01*
X73582312Y-47281495D01*
X73368505Y-47067688D01*
X73117095Y-46899701D01*
X72837743Y-46783989D01*
X72541184Y-46725000D01*
X72238816Y-46725000D01*
X71942257Y-46783989D01*
X71662905Y-46899701D01*
X71411495Y-47067688D01*
X71345056Y-47134127D01*
X71339502Y-47115820D01*
X71280537Y-47005506D01*
X71201185Y-46908815D01*
X71104494Y-46829463D01*
X70994180Y-46770498D01*
X70874482Y-46734188D01*
X70750000Y-46721928D01*
X68950000Y-46721928D01*
X68825518Y-46734188D01*
X68705820Y-46770498D01*
X68595506Y-46829463D01*
X68498815Y-46908815D01*
X68419463Y-47005506D01*
X68360498Y-47115820D01*
X68324188Y-47235518D01*
X68311928Y-47360000D01*
X68311928Y-47375000D01*
X63203109Y-47375000D01*
X63159640Y-47370719D01*
X63116171Y-47375000D01*
X63116163Y-47375000D01*
X62986150Y-47387805D01*
X62819327Y-47438411D01*
X62665581Y-47520589D01*
X62564593Y-47603468D01*
X62564591Y-47603470D01*
X62530823Y-47631183D01*
X62503110Y-47664951D01*
X58425732Y-51742330D01*
X58240623Y-51705510D01*
X57918657Y-51705510D01*
X57602877Y-51768322D01*
X57305418Y-51891533D01*
X57037713Y-52070408D01*
X56810048Y-52298073D01*
X56631173Y-52565778D01*
X56565928Y-52723294D01*
X56543668Y-52705026D01*
X56411639Y-52634454D01*
X56268378Y-52590997D01*
X56156725Y-52580000D01*
X56156714Y-52580000D01*
X56119392Y-52576324D01*
X56082070Y-52580000D01*
X52742322Y-52580000D01*
X52704999Y-52576324D01*
X52667676Y-52580000D01*
X52667667Y-52580000D01*
X52556014Y-52590997D01*
X52412753Y-52634454D01*
X52280724Y-52705026D01*
X52164999Y-52799999D01*
X52141201Y-52828997D01*
X50923998Y-54046201D01*
X50895000Y-54069999D01*
X50871202Y-54098997D01*
X50871201Y-54098998D01*
X50800026Y-54185724D01*
X50729454Y-54317754D01*
X50709988Y-54381927D01*
X50685998Y-54461014D01*
X50682025Y-54501351D01*
X50671324Y-54610000D01*
X43840000Y-54610000D01*
X43840000Y-45890180D01*
X48305088Y-45890180D01*
X48347275Y-46318515D01*
X48472216Y-46730389D01*
X48675109Y-47109974D01*
X48948156Y-47442684D01*
X49280866Y-47715731D01*
X49660451Y-47918624D01*
X50072325Y-48043565D01*
X50393320Y-48075180D01*
X51608000Y-48075180D01*
X51928995Y-48043565D01*
X52340869Y-47918624D01*
X52720454Y-47715731D01*
X53053164Y-47442684D01*
X53326211Y-47109974D01*
X53529104Y-46730389D01*
X53654045Y-46318515D01*
X53696232Y-45890180D01*
X53654045Y-45461845D01*
X53529104Y-45049971D01*
X53326211Y-44670386D01*
X53053164Y-44337676D01*
X52921804Y-44229872D01*
X57455000Y-44229872D01*
X57455000Y-44670128D01*
X57540890Y-45101925D01*
X57709369Y-45508669D01*
X57953962Y-45874729D01*
X58265271Y-46186038D01*
X58631331Y-46430631D01*
X59038075Y-46599110D01*
X59469872Y-46685000D01*
X59910128Y-46685000D01*
X60341925Y-46599110D01*
X60748669Y-46430631D01*
X61114729Y-46186038D01*
X61426038Y-45874729D01*
X61670631Y-45508669D01*
X61839110Y-45101925D01*
X61925000Y-44670128D01*
X61925000Y-44229872D01*
X103175000Y-44229872D01*
X103175000Y-44670128D01*
X103260890Y-45101925D01*
X103429369Y-45508669D01*
X103673962Y-45874729D01*
X103985271Y-46186038D01*
X104351331Y-46430631D01*
X104758075Y-46599110D01*
X105189872Y-46685000D01*
X105630128Y-46685000D01*
X106061925Y-46599110D01*
X106468669Y-46430631D01*
X106834729Y-46186038D01*
X107146038Y-45874729D01*
X107390631Y-45508669D01*
X107559110Y-45101925D01*
X107645000Y-44670128D01*
X107645000Y-44229872D01*
X107559110Y-43798075D01*
X107390631Y-43391331D01*
X107249425Y-43180000D01*
X112818848Y-43180000D01*
X112851381Y-43510318D01*
X112947732Y-43827941D01*
X113104196Y-44120665D01*
X113314761Y-44377239D01*
X113571335Y-44587804D01*
X113864059Y-44744268D01*
X114181682Y-44840619D01*
X114429230Y-44865000D01*
X115694770Y-44865000D01*
X115942318Y-44840619D01*
X116259941Y-44744268D01*
X116552665Y-44587804D01*
X116809239Y-44377239D01*
X117019804Y-44120665D01*
X117176268Y-43827941D01*
X117272619Y-43510318D01*
X117305152Y-43180000D01*
X117272619Y-42849682D01*
X117176268Y-42532059D01*
X117019804Y-42239335D01*
X116809239Y-41982761D01*
X116552665Y-41772196D01*
X116259941Y-41615732D01*
X115942318Y-41519381D01*
X115694770Y-41495000D01*
X114429230Y-41495000D01*
X114181682Y-41519381D01*
X113864059Y-41615732D01*
X113571335Y-41772196D01*
X113314761Y-41982761D01*
X113104196Y-42239335D01*
X112947732Y-42532059D01*
X112851381Y-42849682D01*
X112818848Y-43180000D01*
X107249425Y-43180000D01*
X107146038Y-43025271D01*
X106834729Y-42713962D01*
X106468669Y-42469369D01*
X106061925Y-42300890D01*
X105630128Y-42215000D01*
X105189872Y-42215000D01*
X104758075Y-42300890D01*
X104351331Y-42469369D01*
X103985271Y-42713962D01*
X103673962Y-43025271D01*
X103429369Y-43391331D01*
X103260890Y-43798075D01*
X103175000Y-44229872D01*
X61925000Y-44229872D01*
X61839110Y-43798075D01*
X61670631Y-43391331D01*
X61426038Y-43025271D01*
X61114729Y-42713962D01*
X60748669Y-42469369D01*
X60341925Y-42300890D01*
X59910128Y-42215000D01*
X59469872Y-42215000D01*
X59038075Y-42300890D01*
X58631331Y-42469369D01*
X58265271Y-42713962D01*
X57953962Y-43025271D01*
X57709369Y-43391331D01*
X57540890Y-43798075D01*
X57455000Y-44229872D01*
X52921804Y-44229872D01*
X52720454Y-44064629D01*
X52340869Y-43861736D01*
X51928995Y-43736795D01*
X51608000Y-43705180D01*
X50393320Y-43705180D01*
X50072325Y-43736795D01*
X49660451Y-43861736D01*
X49280866Y-44064629D01*
X48948156Y-44337676D01*
X48675109Y-44670386D01*
X48472216Y-45049971D01*
X48347275Y-45461845D01*
X48305088Y-45890180D01*
X43840000Y-45890180D01*
X43840000Y-43212279D01*
X43878909Y-42815455D01*
X43984780Y-42464792D01*
X44156744Y-42141375D01*
X44388254Y-41857516D01*
X44670486Y-41624035D01*
X44992695Y-41449817D01*
X45342614Y-41341498D01*
X45737443Y-41300000D01*
X120617721Y-41300000D01*
X121014545Y-41338909D01*
M02*
