%FSLAX45Y45*%
G04 Gerber Fmt 4.5, Leading zero omitted, Abs format (unit mm)*
G04 Created by KiCad (PCBNEW (5.1.2-1)-1) date 2023-07-30 19:13:54*
%MOMM*%
%LPD*%
G04 APERTURE LIST*
%ADD10C,0.050000*%
%ADD11C,0.200000*%
%ADD12C,0.300000*%
G04 APERTURE END LIST*
D10*
X12065000Y-4064000D02*
G75*
G02X12319000Y-4318000I0J-254000D01*
G01*
X12319000Y-10160000D02*
G75*
G02X12065000Y-10414000I-254000J0D01*
G01*
X4572000Y-10414000D02*
G75*
G02X4318000Y-10160000I0J254000D01*
G01*
X4318000Y-4318000D02*
G75*
G02X4572000Y-4064000I254000J0D01*
G01*
X4318000Y-10160000D02*
X4318000Y-4318000D01*
X12065000Y-10414000D02*
X4572000Y-10414000D01*
X12319000Y-4318000D02*
X12319000Y-10160000D01*
X4572000Y-4064000D02*
X12065000Y-4064000D01*
D11*
X8235000Y-7473000D02*
X8275000Y-7513000D01*
X8275000Y-7473000D02*
X8235000Y-7513000D01*
X9632000Y-6584000D02*
X9672000Y-6624000D01*
X9672000Y-6584000D02*
X9632000Y-6624000D01*
X6611000Y-8001000D02*
G75*
G03X6611000Y-8001000I-30000J0D01*
G01*
X6761000Y-8001000D02*
G75*
G03X6761000Y-8001000I-30000J0D01*
G01*
X6230000Y-7620000D02*
G75*
G03X6230000Y-7620000I-30000J0D01*
G01*
X6380000Y-7620000D02*
G75*
G03X6380000Y-7620000I-30000J0D01*
G01*
X6230000Y-6858000D02*
G75*
G03X6230000Y-6858000I-30000J0D01*
G01*
X6380000Y-6858000D02*
G75*
G03X6380000Y-6858000I-30000J0D01*
G01*
X6611000Y-7239000D02*
G75*
G03X6611000Y-7239000I-30000J0D01*
G01*
X6761000Y-7239000D02*
G75*
G03X6761000Y-7239000I-30000J0D01*
G01*
X6230000Y-6096000D02*
G75*
G03X6230000Y-6096000I-30000J0D01*
G01*
X6380000Y-6096000D02*
G75*
G03X6380000Y-6096000I-30000J0D01*
G01*
X10063000Y-5715000D02*
G75*
G03X10063000Y-5715000I-30000J0D01*
G01*
X10213000Y-5715000D02*
G75*
G03X10213000Y-5715000I-30000J0D01*
G01*
X10063000Y-8255000D02*
G75*
G03X10063000Y-8255000I-30000J0D01*
G01*
X10213000Y-8255000D02*
G75*
G03X10213000Y-8255000I-30000J0D01*
G01*
X6611000Y-6477000D02*
G75*
G03X6611000Y-6477000I-30000J0D01*
G01*
X6761000Y-6477000D02*
G75*
G03X6761000Y-6477000I-30000J0D01*
G01*
X8636000Y-7201500D02*
X8636000Y-7276500D01*
X8598500Y-7239000D02*
X8673500Y-7239000D01*
X8763000Y-7201500D02*
X8763000Y-7276500D01*
X8725500Y-7239000D02*
X8800500Y-7239000D01*
X8890000Y-7201500D02*
X8890000Y-7276500D01*
X8852500Y-7239000D02*
X8927500Y-7239000D01*
X8636000Y-6185500D02*
X8636000Y-6260500D01*
X8598500Y-6223000D02*
X8673500Y-6223000D01*
X8763000Y-6185500D02*
X8763000Y-6260500D01*
X8725500Y-6223000D02*
X8800500Y-6223000D01*
X8890000Y-6185500D02*
X8890000Y-6260500D01*
X8852500Y-6223000D02*
X8927500Y-6223000D01*
X8636000Y-6693500D02*
X8636000Y-6768500D01*
X8598500Y-6731000D02*
X8673500Y-6731000D01*
X8763000Y-6693500D02*
X8763000Y-6768500D01*
X8725500Y-6731000D02*
X8800500Y-6731000D01*
X8890000Y-6693500D02*
X8890000Y-6768500D01*
X8852500Y-6731000D02*
X8927500Y-6731000D01*
X8636000Y-7709500D02*
X8636000Y-7784500D01*
X8598500Y-7747000D02*
X8673500Y-7747000D01*
X8763000Y-7709500D02*
X8763000Y-7784500D01*
X8725500Y-7747000D02*
X8800500Y-7747000D01*
X8890000Y-7709500D02*
X8890000Y-7784500D01*
X8852500Y-7747000D02*
X8927500Y-7747000D01*
X9680285Y-7775284D02*
X9680285Y-7718715D01*
X9623716Y-7718715D01*
X9623716Y-7775284D01*
X9680285Y-7775284D01*
X9680285Y-8791285D02*
X9680285Y-8734716D01*
X9623716Y-8734716D01*
X9623716Y-8791285D01*
X9680285Y-8791285D01*
X9299285Y-6759284D02*
X9299285Y-6702715D01*
X9242716Y-6702715D01*
X9242716Y-6759284D01*
X9299285Y-6759284D01*
X10315285Y-6759284D02*
X10315285Y-6702715D01*
X10258716Y-6702715D01*
X10258716Y-6759284D01*
X10315285Y-6759284D01*
X10569285Y-7775284D02*
X10569285Y-7718715D01*
X10512716Y-7718715D01*
X10512716Y-7775284D01*
X10569285Y-7775284D01*
X10569285Y-8791285D02*
X10569285Y-8734716D01*
X10512716Y-8734716D01*
X10512716Y-8791285D01*
X10569285Y-8791285D01*
X8791285Y-9426285D02*
X8791285Y-9369716D01*
X8734716Y-9369716D01*
X8734716Y-9426285D01*
X8791285Y-9426285D01*
X9291285Y-9426285D02*
X9291285Y-9369716D01*
X9234716Y-9369716D01*
X9234716Y-9426285D01*
X9291285Y-9426285D01*
X6251284Y-9680285D02*
X6251284Y-9623716D01*
X6194715Y-9623716D01*
X6194715Y-9680285D01*
X6251284Y-9680285D01*
X7267284Y-9680285D02*
X7267284Y-9623716D01*
X7210715Y-9623716D01*
X7210715Y-9680285D01*
X7267284Y-9680285D01*
X7013284Y-7648284D02*
X7013284Y-7591715D01*
X6956715Y-7591715D01*
X6956715Y-7648284D01*
X7013284Y-7648284D01*
X8029284Y-7648284D02*
X8029284Y-7591715D01*
X7972715Y-7591715D01*
X7972715Y-7648284D01*
X8029284Y-7648284D01*
X7267284Y-8029284D02*
X7267284Y-7972715D01*
X7210715Y-7972715D01*
X7210715Y-8029284D01*
X7267284Y-8029284D01*
X8283284Y-8029284D02*
X8283284Y-7972715D01*
X8226715Y-7972715D01*
X8226715Y-8029284D01*
X8283284Y-8029284D01*
X7648284Y-8918285D02*
X7648284Y-8861716D01*
X7591715Y-8861716D01*
X7591715Y-8918285D01*
X7648284Y-8918285D01*
X8664285Y-8918285D02*
X8664285Y-8861716D01*
X8607716Y-8861716D01*
X8607716Y-8918285D01*
X8664285Y-8918285D01*
X6251284Y-5489285D02*
X6251284Y-5432716D01*
X6194715Y-5432716D01*
X6194715Y-5489285D01*
X6251284Y-5489285D01*
X7267284Y-5489285D02*
X7267284Y-5432716D01*
X7210715Y-5432716D01*
X7210715Y-5489285D01*
X7267284Y-5489285D01*
X9299285Y-5235285D02*
X9299285Y-5178716D01*
X9242716Y-5178716D01*
X9242716Y-5235285D01*
X9299285Y-5235285D01*
X9299285Y-6251284D02*
X9299285Y-6194715D01*
X9242716Y-6194715D01*
X9242716Y-6251284D01*
X9299285Y-6251284D01*
X7013284Y-6124284D02*
X7013284Y-6067715D01*
X6956715Y-6067715D01*
X6956715Y-6124284D01*
X7013284Y-6124284D01*
X8029284Y-6124284D02*
X8029284Y-6067715D01*
X7972715Y-6067715D01*
X7972715Y-6124284D01*
X8029284Y-6124284D01*
X7267284Y-6505284D02*
X7267284Y-6448715D01*
X7210715Y-6448715D01*
X7210715Y-6505284D01*
X7267284Y-6505284D01*
X8283284Y-6505284D02*
X8283284Y-6448715D01*
X8226715Y-6448715D01*
X8226715Y-6505284D01*
X8283284Y-6505284D01*
X9299285Y-7267284D02*
X9299285Y-7210715D01*
X9242716Y-7210715D01*
X9242716Y-7267284D01*
X9299285Y-7267284D01*
X10315285Y-7267284D02*
X10315285Y-7210715D01*
X10258716Y-7210715D01*
X10258716Y-7267284D01*
X10315285Y-7267284D01*
X7267284Y-7267284D02*
X7267284Y-7210715D01*
X7210715Y-7210715D01*
X7210715Y-7267284D01*
X7267284Y-7267284D01*
X8283284Y-7267284D02*
X8283284Y-7210715D01*
X8226715Y-7210715D01*
X8226715Y-7267284D01*
X8283284Y-7267284D01*
X6251284Y-8664285D02*
X6251284Y-8607716D01*
X6194715Y-8607716D01*
X6194715Y-8664285D01*
X6251284Y-8664285D01*
X7267284Y-8664285D02*
X7267284Y-8607716D01*
X7210715Y-8607716D01*
X7210715Y-8664285D01*
X7267284Y-8664285D01*
X10569285Y-5235285D02*
X10569285Y-5178716D01*
X10512716Y-5178716D01*
X10512716Y-5235285D01*
X10569285Y-5235285D01*
X10569285Y-6251284D02*
X10569285Y-6194715D01*
X10512716Y-6194715D01*
X10512716Y-6251284D01*
X10569285Y-6251284D01*
X9680285Y-5235285D02*
X9680285Y-5178716D01*
X9623716Y-5178716D01*
X9623716Y-5235285D01*
X9680285Y-5235285D01*
X9680285Y-6251284D02*
X9680285Y-6194715D01*
X9623716Y-6194715D01*
X9623716Y-6251284D01*
X9680285Y-6251284D01*
X9299285Y-7775284D02*
X9299285Y-7718715D01*
X9242716Y-7718715D01*
X9242716Y-7775284D01*
X9299285Y-7775284D01*
X9299285Y-8791285D02*
X9299285Y-8734716D01*
X9242716Y-8734716D01*
X9242716Y-8791285D01*
X9299285Y-8791285D01*
X7648284Y-5235285D02*
X7648284Y-5178716D01*
X7591715Y-5178716D01*
X7591715Y-5235285D01*
X7648284Y-5235285D01*
X8664285Y-5235285D02*
X8664285Y-5178716D01*
X8607716Y-5178716D01*
X8607716Y-5235285D01*
X8664285Y-5235285D01*
X7013284Y-6886284D02*
X7013284Y-6829715D01*
X6956715Y-6829715D01*
X6956715Y-6886284D01*
X7013284Y-6886284D01*
X8029284Y-6886284D02*
X8029284Y-6829715D01*
X7972715Y-6829715D01*
X7972715Y-6886284D01*
X8029284Y-6886284D01*
X7648284Y-5743284D02*
X7648284Y-5686715D01*
X7591715Y-5686715D01*
X7591715Y-5743284D01*
X7648284Y-5743284D01*
X8664285Y-5743284D02*
X8664285Y-5686715D01*
X8607716Y-5686715D01*
X8607716Y-5743284D01*
X8664285Y-5743284D01*
X6251284Y-9172285D02*
X6251284Y-9115716D01*
X6194715Y-9115716D01*
X6194715Y-9172285D01*
X6251284Y-9172285D01*
X7267284Y-9172285D02*
X7267284Y-9115716D01*
X7210715Y-9115716D01*
X7210715Y-9172285D01*
X7267284Y-9172285D01*
X7648284Y-8410285D02*
X7648284Y-8353715D01*
X7591715Y-8353715D01*
X7591715Y-8410285D01*
X7648284Y-8410285D01*
X8664285Y-8410285D02*
X8664285Y-8353715D01*
X8607716Y-8353715D01*
X8607716Y-8410285D01*
X8664285Y-8410285D01*
X7652284Y-9680285D02*
X7652284Y-9623716D01*
X7595715Y-9623716D01*
X7595715Y-9680285D01*
X7652284Y-9680285D01*
X7902284Y-9680285D02*
X7902284Y-9623716D01*
X7845715Y-9623716D01*
X7845715Y-9680285D01*
X7902284Y-9680285D01*
X6985000Y-4871000D02*
X7030000Y-4826000D01*
X6985000Y-4781000D01*
X6940000Y-4826000D01*
X6985000Y-4871000D01*
X7239000Y-4871000D02*
X7284000Y-4826000D01*
X7239000Y-4781000D01*
X7194000Y-4826000D01*
X7239000Y-4871000D01*
X10989056Y-5274056D02*
X11108944Y-5393944D01*
X11108944Y-5274056D02*
X10989056Y-5393944D01*
X11108944Y-5334000D02*
G75*
G03X11108944Y-5334000I-59944J0D01*
G01*
X11098944Y-5359000D02*
X11098944Y-5309000D01*
X10999056Y-5359000D02*
X10999056Y-5309000D01*
X11098944Y-5309000D02*
G75*
G03X10999056Y-5309000I-49944J0D01*
G01*
X10999056Y-5359000D02*
G75*
G03X11098944Y-5359000I49944J0D01*
G01*
X10989056Y-6671056D02*
X11108944Y-6790944D01*
X11108944Y-6671056D02*
X10989056Y-6790944D01*
X11108944Y-6731000D02*
G75*
G03X11108944Y-6731000I-59944J0D01*
G01*
X11098944Y-6756000D02*
X11098944Y-6706000D01*
X10999056Y-6756000D02*
X10999056Y-6706000D01*
X11098944Y-6706000D02*
G75*
G03X10999056Y-6706000I-49944J0D01*
G01*
X10999056Y-6756000D02*
G75*
G03X11098944Y-6756000I49944J0D01*
G01*
X10989056Y-8068056D02*
X11108944Y-8187944D01*
X11108944Y-8068056D02*
X10989056Y-8187944D01*
X11108944Y-8128000D02*
G75*
G03X11108944Y-8128000I-59944J0D01*
G01*
X11098944Y-8153000D02*
X11098944Y-8103000D01*
X10999056Y-8153000D02*
X10999056Y-8103000D01*
X11098944Y-8103000D02*
G75*
G03X10999056Y-8103000I-49944J0D01*
G01*
X10999056Y-8153000D02*
G75*
G03X11098944Y-8153000I49944J0D01*
G01*
X11785092Y-5274056D02*
X11904980Y-5393944D01*
X11904980Y-5274056D02*
X11785092Y-5393944D01*
X11904980Y-5334000D02*
G75*
G03X11904980Y-5334000I-59944J0D01*
G01*
X11795036Y-5383944D02*
X11895036Y-5383944D01*
X11795036Y-5284056D02*
X11895036Y-5284056D01*
X11895036Y-5383944D02*
G75*
G03X11895036Y-5284056I0J49944D01*
G01*
X11795036Y-5284056D02*
G75*
G03X11795036Y-5383944I0J-49944D01*
G01*
X11785092Y-6671056D02*
X11904980Y-6790944D01*
X11904980Y-6671056D02*
X11785092Y-6790944D01*
X11904980Y-6731000D02*
G75*
G03X11904980Y-6731000I-59944J0D01*
G01*
X11795036Y-6780944D02*
X11895036Y-6780944D01*
X11795036Y-6681056D02*
X11895036Y-6681056D01*
X11895036Y-6780944D02*
G75*
G03X11895036Y-6681056I0J49944D01*
G01*
X11795036Y-6681056D02*
G75*
G03X11795036Y-6780944I0J-49944D01*
G01*
X11785092Y-8068056D02*
X11904980Y-8187944D01*
X11904980Y-8068056D02*
X11785092Y-8187944D01*
X11904980Y-8128000D02*
G75*
G03X11904980Y-8128000I-59944J0D01*
G01*
X11795036Y-8177944D02*
X11895036Y-8177944D01*
X11795036Y-8078056D02*
X11895036Y-8078056D01*
X11895036Y-8177944D02*
G75*
G03X11895036Y-8078056I0J49944D01*
G01*
X11795036Y-8078056D02*
G75*
G03X11795036Y-8177944I0J-49944D01*
G01*
X5240020Y-5464556D02*
X5359908Y-5584444D01*
X5359908Y-5464556D02*
X5240020Y-5584444D01*
X5359908Y-5524500D02*
G75*
G03X5359908Y-5524500I-59944J0D01*
G01*
X5240020Y-5845556D02*
X5359908Y-5965444D01*
X5359908Y-5845556D02*
X5240020Y-5965444D01*
X5359908Y-5905500D02*
G75*
G03X5359908Y-5905500I-59944J0D01*
G01*
X5240020Y-6226556D02*
X5359908Y-6346444D01*
X5359908Y-6226556D02*
X5240020Y-6346444D01*
X5359908Y-6286500D02*
G75*
G03X5359908Y-6286500I-59944J0D01*
G01*
X5240020Y-6607556D02*
X5359908Y-6727444D01*
X5359908Y-6607556D02*
X5240020Y-6727444D01*
X5359908Y-6667500D02*
G75*
G03X5359908Y-6667500I-59944J0D01*
G01*
X5240020Y-6988556D02*
X5359908Y-7108444D01*
X5359908Y-6988556D02*
X5240020Y-7108444D01*
X5359908Y-7048500D02*
G75*
G03X5359908Y-7048500I-59944J0D01*
G01*
X5240020Y-7369556D02*
X5359908Y-7489444D01*
X5359908Y-7369556D02*
X5240020Y-7489444D01*
X5359908Y-7429500D02*
G75*
G03X5359908Y-7429500I-59944J0D01*
G01*
X5240020Y-7750556D02*
X5359908Y-7870444D01*
X5359908Y-7750556D02*
X5240020Y-7870444D01*
X5359908Y-7810500D02*
G75*
G03X5359908Y-7810500I-59944J0D01*
G01*
X5240020Y-8131556D02*
X5359908Y-8251444D01*
X5359908Y-8131556D02*
X5240020Y-8251444D01*
X5359908Y-8191500D02*
G75*
G03X5359908Y-8191500I-59944J0D01*
G01*
X5240020Y-8512556D02*
X5359908Y-8632444D01*
X5359908Y-8512556D02*
X5240020Y-8632444D01*
X5359908Y-8572500D02*
G75*
G03X5359908Y-8572500I-59944J0D01*
G01*
X5240020Y-8893556D02*
X5359908Y-9013444D01*
X5359908Y-8893556D02*
X5240020Y-9013444D01*
X5359908Y-8953500D02*
G75*
G03X5359908Y-8953500I-59944J0D01*
G01*
X5748020Y-5274056D02*
X5867908Y-5393944D01*
X5867908Y-5274056D02*
X5748020Y-5393944D01*
X5867908Y-5334000D02*
G75*
G03X5867908Y-5334000I-59944J0D01*
G01*
X5748020Y-5655056D02*
X5867908Y-5774944D01*
X5867908Y-5655056D02*
X5748020Y-5774944D01*
X5867908Y-5715000D02*
G75*
G03X5867908Y-5715000I-59944J0D01*
G01*
X5748020Y-6036056D02*
X5867908Y-6155944D01*
X5867908Y-6036056D02*
X5748020Y-6155944D01*
X5867908Y-6096000D02*
G75*
G03X5867908Y-6096000I-59944J0D01*
G01*
X5748020Y-6417056D02*
X5867908Y-6536944D01*
X5867908Y-6417056D02*
X5748020Y-6536944D01*
X5867908Y-6477000D02*
G75*
G03X5867908Y-6477000I-59944J0D01*
G01*
X5748020Y-6798056D02*
X5867908Y-6917944D01*
X5867908Y-6798056D02*
X5748020Y-6917944D01*
X5867908Y-6858000D02*
G75*
G03X5867908Y-6858000I-59944J0D01*
G01*
X5748020Y-7179056D02*
X5867908Y-7298944D01*
X5867908Y-7179056D02*
X5748020Y-7298944D01*
X5867908Y-7239000D02*
G75*
G03X5867908Y-7239000I-59944J0D01*
G01*
X5748020Y-7560056D02*
X5867908Y-7679944D01*
X5867908Y-7560056D02*
X5748020Y-7679944D01*
X5867908Y-7620000D02*
G75*
G03X5867908Y-7620000I-59944J0D01*
G01*
X5748020Y-7941056D02*
X5867908Y-8060944D01*
X5867908Y-7941056D02*
X5748020Y-8060944D01*
X5867908Y-8001000D02*
G75*
G03X5867908Y-8001000I-59944J0D01*
G01*
X5748020Y-8322056D02*
X5867908Y-8441944D01*
X5867908Y-8322056D02*
X5748020Y-8441944D01*
X5867908Y-8382000D02*
G75*
G03X5867908Y-8382000I-59944J0D01*
G01*
X5748020Y-8703056D02*
X5867908Y-8822944D01*
X5867908Y-8703056D02*
X5748020Y-8822944D01*
X5867908Y-8763000D02*
G75*
G03X5867908Y-8763000I-59944J0D01*
G01*
X5748020Y-9084056D02*
X5867908Y-9203944D01*
X5867908Y-9084056D02*
X5748020Y-9203944D01*
X5867908Y-9144000D02*
G75*
G03X5867908Y-9144000I-59944J0D01*
G01*
X11004000Y-9085000D02*
X11134000Y-9215000D01*
X11134000Y-9085000D02*
X11004000Y-9215000D01*
X11069000Y-9085000D02*
X11069000Y-9215000D01*
X11004000Y-9150000D02*
X11134000Y-9150000D01*
X11004000Y-9835000D02*
X11134000Y-9965000D01*
X11134000Y-9835000D02*
X11004000Y-9965000D01*
X11069000Y-9835000D02*
X11069000Y-9965000D01*
X11004000Y-9900000D02*
X11134000Y-9900000D01*
X11719000Y-9825000D02*
X11869000Y-9975000D01*
X11869000Y-9825000D02*
X11719000Y-9975000D01*
X11847033Y-9953034D02*
X11847033Y-9846967D01*
X11740966Y-9846967D01*
X11740966Y-9953034D01*
X11847033Y-9953034D01*
D12*
X4601928Y-10882214D02*
X4601928Y-10582214D01*
X4673357Y-10582214D01*
X4716214Y-10596500D01*
X4744786Y-10625072D01*
X4759071Y-10653643D01*
X4773357Y-10710786D01*
X4773357Y-10753643D01*
X4759071Y-10810786D01*
X4744786Y-10839357D01*
X4716214Y-10867929D01*
X4673357Y-10882214D01*
X4601928Y-10882214D01*
X4901928Y-10882214D02*
X4901928Y-10682214D01*
X4901928Y-10739357D02*
X4916214Y-10710786D01*
X4930500Y-10696500D01*
X4959071Y-10682214D01*
X4987643Y-10682214D01*
X5087643Y-10882214D02*
X5087643Y-10682214D01*
X5087643Y-10582214D02*
X5073357Y-10596500D01*
X5087643Y-10610786D01*
X5101928Y-10596500D01*
X5087643Y-10582214D01*
X5087643Y-10610786D01*
X5273357Y-10882214D02*
X5244786Y-10867929D01*
X5230500Y-10839357D01*
X5230500Y-10582214D01*
X5430500Y-10882214D02*
X5401928Y-10867929D01*
X5387643Y-10839357D01*
X5387643Y-10582214D01*
X5773357Y-10882214D02*
X5773357Y-10582214D01*
X5873357Y-10796500D01*
X5973357Y-10582214D01*
X5973357Y-10882214D01*
X6244786Y-10882214D02*
X6244786Y-10725072D01*
X6230500Y-10696500D01*
X6201928Y-10682214D01*
X6144786Y-10682214D01*
X6116214Y-10696500D01*
X6244786Y-10867929D02*
X6216214Y-10882214D01*
X6144786Y-10882214D01*
X6116214Y-10867929D01*
X6101928Y-10839357D01*
X6101928Y-10810786D01*
X6116214Y-10782214D01*
X6144786Y-10767929D01*
X6216214Y-10767929D01*
X6244786Y-10753643D01*
X6387643Y-10682214D02*
X6387643Y-10982214D01*
X6387643Y-10696500D02*
X6416214Y-10682214D01*
X6473357Y-10682214D01*
X6501928Y-10696500D01*
X6516214Y-10710786D01*
X6530500Y-10739357D01*
X6530500Y-10825072D01*
X6516214Y-10853643D01*
X6501928Y-10867929D01*
X6473357Y-10882214D01*
X6416214Y-10882214D01*
X6387643Y-10867929D01*
X6659071Y-10853643D02*
X6673357Y-10867929D01*
X6659071Y-10882214D01*
X6644786Y-10867929D01*
X6659071Y-10853643D01*
X6659071Y-10882214D01*
X6659071Y-10696500D02*
X6673357Y-10710786D01*
X6659071Y-10725072D01*
X6644786Y-10710786D01*
X6659071Y-10696500D01*
X6659071Y-10725072D01*
X4275500Y-11356500D02*
X4315500Y-11396500D01*
X4315500Y-11356500D02*
X4275500Y-11396500D01*
X4659071Y-11212214D02*
X4687643Y-11212214D01*
X4716214Y-11226500D01*
X4730500Y-11240786D01*
X4744786Y-11269357D01*
X4759071Y-11326500D01*
X4759071Y-11397929D01*
X4744786Y-11455071D01*
X4730500Y-11483643D01*
X4716214Y-11497929D01*
X4687643Y-11512214D01*
X4659071Y-11512214D01*
X4630500Y-11497929D01*
X4616214Y-11483643D01*
X4601928Y-11455071D01*
X4587643Y-11397929D01*
X4587643Y-11326500D01*
X4601928Y-11269357D01*
X4616214Y-11240786D01*
X4630500Y-11226500D01*
X4659071Y-11212214D01*
X4887643Y-11483643D02*
X4901928Y-11497929D01*
X4887643Y-11512214D01*
X4873357Y-11497929D01*
X4887643Y-11483643D01*
X4887643Y-11512214D01*
X5159071Y-11312214D02*
X5159071Y-11512214D01*
X5087643Y-11197929D02*
X5016214Y-11412214D01*
X5201928Y-11412214D01*
X5373357Y-11212214D02*
X5401928Y-11212214D01*
X5430500Y-11226500D01*
X5444786Y-11240786D01*
X5459071Y-11269357D01*
X5473357Y-11326500D01*
X5473357Y-11397929D01*
X5459071Y-11455071D01*
X5444786Y-11483643D01*
X5430500Y-11497929D01*
X5401928Y-11512214D01*
X5373357Y-11512214D01*
X5344786Y-11497929D01*
X5330500Y-11483643D01*
X5316214Y-11455071D01*
X5301928Y-11397929D01*
X5301928Y-11326500D01*
X5316214Y-11269357D01*
X5330500Y-11240786D01*
X5344786Y-11226500D01*
X5373357Y-11212214D01*
X5601928Y-11512214D02*
X5601928Y-11312214D01*
X5601928Y-11340786D02*
X5616214Y-11326500D01*
X5644786Y-11312214D01*
X5687643Y-11312214D01*
X5716214Y-11326500D01*
X5730500Y-11355071D01*
X5730500Y-11512214D01*
X5730500Y-11355071D02*
X5744786Y-11326500D01*
X5773357Y-11312214D01*
X5816214Y-11312214D01*
X5844786Y-11326500D01*
X5859071Y-11355071D01*
X5859071Y-11512214D01*
X6001928Y-11512214D02*
X6001928Y-11312214D01*
X6001928Y-11340786D02*
X6016214Y-11326500D01*
X6044786Y-11312214D01*
X6087643Y-11312214D01*
X6116214Y-11326500D01*
X6130500Y-11355071D01*
X6130500Y-11512214D01*
X6130500Y-11355071D02*
X6144786Y-11326500D01*
X6173357Y-11312214D01*
X6216214Y-11312214D01*
X6244786Y-11326500D01*
X6259071Y-11355071D01*
X6259071Y-11512214D01*
X6844786Y-11197929D02*
X6587643Y-11583643D01*
X7230500Y-11212214D02*
X7259071Y-11212214D01*
X7287643Y-11226500D01*
X7301928Y-11240786D01*
X7316214Y-11269357D01*
X7330500Y-11326500D01*
X7330500Y-11397929D01*
X7316214Y-11455071D01*
X7301928Y-11483643D01*
X7287643Y-11497929D01*
X7259071Y-11512214D01*
X7230500Y-11512214D01*
X7201928Y-11497929D01*
X7187643Y-11483643D01*
X7173357Y-11455071D01*
X7159071Y-11397929D01*
X7159071Y-11326500D01*
X7173357Y-11269357D01*
X7187643Y-11240786D01*
X7201928Y-11226500D01*
X7230500Y-11212214D01*
X7459071Y-11483643D02*
X7473357Y-11497929D01*
X7459071Y-11512214D01*
X7444786Y-11497929D01*
X7459071Y-11483643D01*
X7459071Y-11512214D01*
X7659071Y-11212214D02*
X7687643Y-11212214D01*
X7716214Y-11226500D01*
X7730500Y-11240786D01*
X7744786Y-11269357D01*
X7759071Y-11326500D01*
X7759071Y-11397929D01*
X7744786Y-11455071D01*
X7730500Y-11483643D01*
X7716214Y-11497929D01*
X7687643Y-11512214D01*
X7659071Y-11512214D01*
X7630500Y-11497929D01*
X7616214Y-11483643D01*
X7601928Y-11455071D01*
X7587643Y-11397929D01*
X7587643Y-11326500D01*
X7601928Y-11269357D01*
X7616214Y-11240786D01*
X7630500Y-11226500D01*
X7659071Y-11212214D01*
X8044786Y-11512214D02*
X7873357Y-11512214D01*
X7959071Y-11512214D02*
X7959071Y-11212214D01*
X7930500Y-11255071D01*
X7901928Y-11283643D01*
X7873357Y-11297929D01*
X8301928Y-11212214D02*
X8244786Y-11212214D01*
X8216214Y-11226500D01*
X8201928Y-11240786D01*
X8173357Y-11283643D01*
X8159071Y-11340786D01*
X8159071Y-11455071D01*
X8173357Y-11483643D01*
X8187643Y-11497929D01*
X8216214Y-11512214D01*
X8273357Y-11512214D01*
X8301928Y-11497929D01*
X8316214Y-11483643D01*
X8330500Y-11455071D01*
X8330500Y-11383643D01*
X8316214Y-11355071D01*
X8301928Y-11340786D01*
X8273357Y-11326500D01*
X8216214Y-11326500D01*
X8187643Y-11340786D01*
X8173357Y-11355071D01*
X8159071Y-11383643D01*
X8444786Y-11212214D02*
X8444786Y-11269357D01*
X8559071Y-11212214D02*
X8559071Y-11269357D01*
X9001928Y-11626500D02*
X8987643Y-11612214D01*
X8959071Y-11569357D01*
X8944786Y-11540786D01*
X8930500Y-11497929D01*
X8916214Y-11426500D01*
X8916214Y-11369357D01*
X8930500Y-11297929D01*
X8944786Y-11255071D01*
X8959071Y-11226500D01*
X8987643Y-11183643D01*
X9001928Y-11169357D01*
X9101928Y-11240786D02*
X9116214Y-11226500D01*
X9144786Y-11212214D01*
X9216214Y-11212214D01*
X9244786Y-11226500D01*
X9259071Y-11240786D01*
X9273357Y-11269357D01*
X9273357Y-11297929D01*
X9259071Y-11340786D01*
X9087643Y-11512214D01*
X9273357Y-11512214D01*
X9630500Y-11512214D02*
X9630500Y-11212214D01*
X9759071Y-11512214D02*
X9759071Y-11355071D01*
X9744786Y-11326500D01*
X9716214Y-11312214D01*
X9673357Y-11312214D01*
X9644786Y-11326500D01*
X9630500Y-11340786D01*
X9944786Y-11512214D02*
X9916214Y-11497929D01*
X9901928Y-11483643D01*
X9887643Y-11455071D01*
X9887643Y-11369357D01*
X9901928Y-11340786D01*
X9916214Y-11326500D01*
X9944786Y-11312214D01*
X9987643Y-11312214D01*
X10016214Y-11326500D01*
X10030500Y-11340786D01*
X10044786Y-11369357D01*
X10044786Y-11455071D01*
X10030500Y-11483643D01*
X10016214Y-11497929D01*
X9987643Y-11512214D01*
X9944786Y-11512214D01*
X10216214Y-11512214D02*
X10187643Y-11497929D01*
X10173357Y-11469357D01*
X10173357Y-11212214D01*
X10444786Y-11497929D02*
X10416214Y-11512214D01*
X10359071Y-11512214D01*
X10330500Y-11497929D01*
X10316214Y-11469357D01*
X10316214Y-11355071D01*
X10330500Y-11326500D01*
X10359071Y-11312214D01*
X10416214Y-11312214D01*
X10444786Y-11326500D01*
X10459071Y-11355071D01*
X10459071Y-11383643D01*
X10316214Y-11412214D01*
X10573357Y-11497929D02*
X10601928Y-11512214D01*
X10659071Y-11512214D01*
X10687643Y-11497929D01*
X10701928Y-11469357D01*
X10701928Y-11455071D01*
X10687643Y-11426500D01*
X10659071Y-11412214D01*
X10616214Y-11412214D01*
X10587643Y-11397929D01*
X10573357Y-11369357D01*
X10573357Y-11355071D01*
X10587643Y-11326500D01*
X10616214Y-11312214D01*
X10659071Y-11312214D01*
X10687643Y-11326500D01*
X10801928Y-11626500D02*
X10816214Y-11612214D01*
X10844786Y-11569357D01*
X10859071Y-11540786D01*
X10873357Y-11497929D01*
X10887643Y-11426500D01*
X10887643Y-11369357D01*
X10873357Y-11297929D01*
X10859071Y-11255071D01*
X10844786Y-11226500D01*
X10816214Y-11183643D01*
X10801928Y-11169357D01*
X4315500Y-11772500D02*
G75*
G03X4315500Y-11772500I-30000J0D01*
G01*
X4659071Y-11608214D02*
X4687643Y-11608214D01*
X4716214Y-11622500D01*
X4730500Y-11636786D01*
X4744786Y-11665357D01*
X4759071Y-11722500D01*
X4759071Y-11793929D01*
X4744786Y-11851071D01*
X4730500Y-11879643D01*
X4716214Y-11893929D01*
X4687643Y-11908214D01*
X4659071Y-11908214D01*
X4630500Y-11893929D01*
X4616214Y-11879643D01*
X4601928Y-11851071D01*
X4587643Y-11793929D01*
X4587643Y-11722500D01*
X4601928Y-11665357D01*
X4616214Y-11636786D01*
X4630500Y-11622500D01*
X4659071Y-11608214D01*
X4887643Y-11879643D02*
X4901928Y-11893929D01*
X4887643Y-11908214D01*
X4873357Y-11893929D01*
X4887643Y-11879643D01*
X4887643Y-11908214D01*
X5159071Y-11608214D02*
X5101928Y-11608214D01*
X5073357Y-11622500D01*
X5059071Y-11636786D01*
X5030500Y-11679643D01*
X5016214Y-11736786D01*
X5016214Y-11851071D01*
X5030500Y-11879643D01*
X5044786Y-11893929D01*
X5073357Y-11908214D01*
X5130500Y-11908214D01*
X5159071Y-11893929D01*
X5173357Y-11879643D01*
X5187643Y-11851071D01*
X5187643Y-11779643D01*
X5173357Y-11751071D01*
X5159071Y-11736786D01*
X5130500Y-11722500D01*
X5073357Y-11722500D01*
X5044786Y-11736786D01*
X5030500Y-11751071D01*
X5016214Y-11779643D01*
X5373357Y-11608214D02*
X5401928Y-11608214D01*
X5430500Y-11622500D01*
X5444786Y-11636786D01*
X5459071Y-11665357D01*
X5473357Y-11722500D01*
X5473357Y-11793929D01*
X5459071Y-11851071D01*
X5444786Y-11879643D01*
X5430500Y-11893929D01*
X5401928Y-11908214D01*
X5373357Y-11908214D01*
X5344786Y-11893929D01*
X5330500Y-11879643D01*
X5316214Y-11851071D01*
X5301928Y-11793929D01*
X5301928Y-11722500D01*
X5316214Y-11665357D01*
X5330500Y-11636786D01*
X5344786Y-11622500D01*
X5373357Y-11608214D01*
X5601928Y-11908214D02*
X5601928Y-11708214D01*
X5601928Y-11736786D02*
X5616214Y-11722500D01*
X5644786Y-11708214D01*
X5687643Y-11708214D01*
X5716214Y-11722500D01*
X5730500Y-11751071D01*
X5730500Y-11908214D01*
X5730500Y-11751071D02*
X5744786Y-11722500D01*
X5773357Y-11708214D01*
X5816214Y-11708214D01*
X5844786Y-11722500D01*
X5859071Y-11751071D01*
X5859071Y-11908214D01*
X6001928Y-11908214D02*
X6001928Y-11708214D01*
X6001928Y-11736786D02*
X6016214Y-11722500D01*
X6044786Y-11708214D01*
X6087643Y-11708214D01*
X6116214Y-11722500D01*
X6130500Y-11751071D01*
X6130500Y-11908214D01*
X6130500Y-11751071D02*
X6144786Y-11722500D01*
X6173357Y-11708214D01*
X6216214Y-11708214D01*
X6244786Y-11722500D01*
X6259071Y-11751071D01*
X6259071Y-11908214D01*
X6844786Y-11593929D02*
X6587643Y-11979643D01*
X7230500Y-11608214D02*
X7259071Y-11608214D01*
X7287643Y-11622500D01*
X7301928Y-11636786D01*
X7316214Y-11665357D01*
X7330500Y-11722500D01*
X7330500Y-11793929D01*
X7316214Y-11851071D01*
X7301928Y-11879643D01*
X7287643Y-11893929D01*
X7259071Y-11908214D01*
X7230500Y-11908214D01*
X7201928Y-11893929D01*
X7187643Y-11879643D01*
X7173357Y-11851071D01*
X7159071Y-11793929D01*
X7159071Y-11722500D01*
X7173357Y-11665357D01*
X7187643Y-11636786D01*
X7201928Y-11622500D01*
X7230500Y-11608214D01*
X7459071Y-11879643D02*
X7473357Y-11893929D01*
X7459071Y-11908214D01*
X7444786Y-11893929D01*
X7459071Y-11879643D01*
X7459071Y-11908214D01*
X7659071Y-11608214D02*
X7687643Y-11608214D01*
X7716214Y-11622500D01*
X7730500Y-11636786D01*
X7744786Y-11665357D01*
X7759071Y-11722500D01*
X7759071Y-11793929D01*
X7744786Y-11851071D01*
X7730500Y-11879643D01*
X7716214Y-11893929D01*
X7687643Y-11908214D01*
X7659071Y-11908214D01*
X7630500Y-11893929D01*
X7616214Y-11879643D01*
X7601928Y-11851071D01*
X7587643Y-11793929D01*
X7587643Y-11722500D01*
X7601928Y-11665357D01*
X7616214Y-11636786D01*
X7630500Y-11622500D01*
X7659071Y-11608214D01*
X7873357Y-11636786D02*
X7887643Y-11622500D01*
X7916214Y-11608214D01*
X7987643Y-11608214D01*
X8016214Y-11622500D01*
X8030500Y-11636786D01*
X8044786Y-11665357D01*
X8044786Y-11693929D01*
X8030500Y-11736786D01*
X7859071Y-11908214D01*
X8044786Y-11908214D01*
X8301928Y-11708214D02*
X8301928Y-11908214D01*
X8230500Y-11593929D02*
X8159071Y-11808214D01*
X8344786Y-11808214D01*
X8444786Y-11608214D02*
X8444786Y-11665357D01*
X8559071Y-11608214D02*
X8559071Y-11665357D01*
X9001928Y-12022500D02*
X8987643Y-12008214D01*
X8959071Y-11965357D01*
X8944786Y-11936786D01*
X8930500Y-11893929D01*
X8916214Y-11822500D01*
X8916214Y-11765357D01*
X8930500Y-11693929D01*
X8944786Y-11651071D01*
X8959071Y-11622500D01*
X8987643Y-11579643D01*
X9001928Y-11565357D01*
X9273357Y-11908214D02*
X9101928Y-11908214D01*
X9187643Y-11908214D02*
X9187643Y-11608214D01*
X9159071Y-11651071D01*
X9130500Y-11679643D01*
X9101928Y-11693929D01*
X9530500Y-11608214D02*
X9473357Y-11608214D01*
X9444786Y-11622500D01*
X9430500Y-11636786D01*
X9401928Y-11679643D01*
X9387643Y-11736786D01*
X9387643Y-11851071D01*
X9401928Y-11879643D01*
X9416214Y-11893929D01*
X9444786Y-11908214D01*
X9501928Y-11908214D01*
X9530500Y-11893929D01*
X9544786Y-11879643D01*
X9559071Y-11851071D01*
X9559071Y-11779643D01*
X9544786Y-11751071D01*
X9530500Y-11736786D01*
X9501928Y-11722500D01*
X9444786Y-11722500D01*
X9416214Y-11736786D01*
X9401928Y-11751071D01*
X9387643Y-11779643D01*
X9916214Y-11908214D02*
X9916214Y-11608214D01*
X10044786Y-11908214D02*
X10044786Y-11751071D01*
X10030500Y-11722500D01*
X10001928Y-11708214D01*
X9959071Y-11708214D01*
X9930500Y-11722500D01*
X9916214Y-11736786D01*
X10230500Y-11908214D02*
X10201928Y-11893929D01*
X10187643Y-11879643D01*
X10173357Y-11851071D01*
X10173357Y-11765357D01*
X10187643Y-11736786D01*
X10201928Y-11722500D01*
X10230500Y-11708214D01*
X10273357Y-11708214D01*
X10301928Y-11722500D01*
X10316214Y-11736786D01*
X10330500Y-11765357D01*
X10330500Y-11851071D01*
X10316214Y-11879643D01*
X10301928Y-11893929D01*
X10273357Y-11908214D01*
X10230500Y-11908214D01*
X10501928Y-11908214D02*
X10473357Y-11893929D01*
X10459071Y-11865357D01*
X10459071Y-11608214D01*
X10730500Y-11893929D02*
X10701928Y-11908214D01*
X10644786Y-11908214D01*
X10616214Y-11893929D01*
X10601928Y-11865357D01*
X10601928Y-11751071D01*
X10616214Y-11722500D01*
X10644786Y-11708214D01*
X10701928Y-11708214D01*
X10730500Y-11722500D01*
X10744786Y-11751071D01*
X10744786Y-11779643D01*
X10601928Y-11808214D01*
X10859071Y-11893929D02*
X10887643Y-11908214D01*
X10944786Y-11908214D01*
X10973357Y-11893929D01*
X10987643Y-11865357D01*
X10987643Y-11851071D01*
X10973357Y-11822500D01*
X10944786Y-11808214D01*
X10901928Y-11808214D01*
X10873357Y-11793929D01*
X10859071Y-11765357D01*
X10859071Y-11751071D01*
X10873357Y-11722500D01*
X10901928Y-11708214D01*
X10944786Y-11708214D01*
X10973357Y-11722500D01*
X11087643Y-12022500D02*
X11101928Y-12008214D01*
X11130500Y-11965357D01*
X11144786Y-11936786D01*
X11159071Y-11893929D01*
X11173357Y-11822500D01*
X11173357Y-11765357D01*
X11159071Y-11693929D01*
X11144786Y-11651071D01*
X11130500Y-11622500D01*
X11101928Y-11579643D01*
X11087643Y-11565357D01*
X4278000Y-12131000D02*
X4278000Y-12206000D01*
X4240500Y-12168500D02*
X4315500Y-12168500D01*
X4659071Y-12004214D02*
X4687643Y-12004214D01*
X4716214Y-12018500D01*
X4730500Y-12032786D01*
X4744786Y-12061357D01*
X4759071Y-12118500D01*
X4759071Y-12189929D01*
X4744786Y-12247071D01*
X4730500Y-12275643D01*
X4716214Y-12289929D01*
X4687643Y-12304214D01*
X4659071Y-12304214D01*
X4630500Y-12289929D01*
X4616214Y-12275643D01*
X4601928Y-12247071D01*
X4587643Y-12189929D01*
X4587643Y-12118500D01*
X4601928Y-12061357D01*
X4616214Y-12032786D01*
X4630500Y-12018500D01*
X4659071Y-12004214D01*
X4887643Y-12275643D02*
X4901928Y-12289929D01*
X4887643Y-12304214D01*
X4873357Y-12289929D01*
X4887643Y-12275643D01*
X4887643Y-12304214D01*
X5001928Y-12004214D02*
X5201928Y-12004214D01*
X5073357Y-12304214D01*
X5459071Y-12004214D02*
X5316214Y-12004214D01*
X5301928Y-12147071D01*
X5316214Y-12132786D01*
X5344786Y-12118500D01*
X5416214Y-12118500D01*
X5444786Y-12132786D01*
X5459071Y-12147071D01*
X5473357Y-12175643D01*
X5473357Y-12247071D01*
X5459071Y-12275643D01*
X5444786Y-12289929D01*
X5416214Y-12304214D01*
X5344786Y-12304214D01*
X5316214Y-12289929D01*
X5301928Y-12275643D01*
X5601928Y-12304214D02*
X5601928Y-12104214D01*
X5601928Y-12132786D02*
X5616214Y-12118500D01*
X5644786Y-12104214D01*
X5687643Y-12104214D01*
X5716214Y-12118500D01*
X5730500Y-12147071D01*
X5730500Y-12304214D01*
X5730500Y-12147071D02*
X5744786Y-12118500D01*
X5773357Y-12104214D01*
X5816214Y-12104214D01*
X5844786Y-12118500D01*
X5859071Y-12147071D01*
X5859071Y-12304214D01*
X6001928Y-12304214D02*
X6001928Y-12104214D01*
X6001928Y-12132786D02*
X6016214Y-12118500D01*
X6044786Y-12104214D01*
X6087643Y-12104214D01*
X6116214Y-12118500D01*
X6130500Y-12147071D01*
X6130500Y-12304214D01*
X6130500Y-12147071D02*
X6144786Y-12118500D01*
X6173357Y-12104214D01*
X6216214Y-12104214D01*
X6244786Y-12118500D01*
X6259071Y-12147071D01*
X6259071Y-12304214D01*
X6844786Y-11989929D02*
X6587643Y-12375643D01*
X7230500Y-12004214D02*
X7259071Y-12004214D01*
X7287643Y-12018500D01*
X7301928Y-12032786D01*
X7316214Y-12061357D01*
X7330500Y-12118500D01*
X7330500Y-12189929D01*
X7316214Y-12247071D01*
X7301928Y-12275643D01*
X7287643Y-12289929D01*
X7259071Y-12304214D01*
X7230500Y-12304214D01*
X7201928Y-12289929D01*
X7187643Y-12275643D01*
X7173357Y-12247071D01*
X7159071Y-12189929D01*
X7159071Y-12118500D01*
X7173357Y-12061357D01*
X7187643Y-12032786D01*
X7201928Y-12018500D01*
X7230500Y-12004214D01*
X7459071Y-12275643D02*
X7473357Y-12289929D01*
X7459071Y-12304214D01*
X7444786Y-12289929D01*
X7459071Y-12275643D01*
X7459071Y-12304214D01*
X7659071Y-12004214D02*
X7687643Y-12004214D01*
X7716214Y-12018500D01*
X7730500Y-12032786D01*
X7744786Y-12061357D01*
X7759071Y-12118500D01*
X7759071Y-12189929D01*
X7744786Y-12247071D01*
X7730500Y-12275643D01*
X7716214Y-12289929D01*
X7687643Y-12304214D01*
X7659071Y-12304214D01*
X7630500Y-12289929D01*
X7616214Y-12275643D01*
X7601928Y-12247071D01*
X7587643Y-12189929D01*
X7587643Y-12118500D01*
X7601928Y-12061357D01*
X7616214Y-12032786D01*
X7630500Y-12018500D01*
X7659071Y-12004214D01*
X7859071Y-12004214D02*
X8044786Y-12004214D01*
X7944786Y-12118500D01*
X7987643Y-12118500D01*
X8016214Y-12132786D01*
X8030500Y-12147071D01*
X8044786Y-12175643D01*
X8044786Y-12247071D01*
X8030500Y-12275643D01*
X8016214Y-12289929D01*
X7987643Y-12304214D01*
X7901928Y-12304214D01*
X7873357Y-12289929D01*
X7859071Y-12275643D01*
X8230500Y-12004214D02*
X8259071Y-12004214D01*
X8287643Y-12018500D01*
X8301928Y-12032786D01*
X8316214Y-12061357D01*
X8330500Y-12118500D01*
X8330500Y-12189929D01*
X8316214Y-12247071D01*
X8301928Y-12275643D01*
X8287643Y-12289929D01*
X8259071Y-12304214D01*
X8230500Y-12304214D01*
X8201928Y-12289929D01*
X8187643Y-12275643D01*
X8173357Y-12247071D01*
X8159071Y-12189929D01*
X8159071Y-12118500D01*
X8173357Y-12061357D01*
X8187643Y-12032786D01*
X8201928Y-12018500D01*
X8230500Y-12004214D01*
X8444786Y-12004214D02*
X8444786Y-12061357D01*
X8559071Y-12004214D02*
X8559071Y-12061357D01*
X9001928Y-12418500D02*
X8987643Y-12404214D01*
X8959071Y-12361357D01*
X8944786Y-12332786D01*
X8930500Y-12289929D01*
X8916214Y-12218500D01*
X8916214Y-12161357D01*
X8930500Y-12089929D01*
X8944786Y-12047071D01*
X8959071Y-12018500D01*
X8987643Y-11975643D01*
X9001928Y-11961357D01*
X9273357Y-12304214D02*
X9101928Y-12304214D01*
X9187643Y-12304214D02*
X9187643Y-12004214D01*
X9159071Y-12047071D01*
X9130500Y-12075643D01*
X9101928Y-12089929D01*
X9387643Y-12032786D02*
X9401928Y-12018500D01*
X9430500Y-12004214D01*
X9501928Y-12004214D01*
X9530500Y-12018500D01*
X9544786Y-12032786D01*
X9559071Y-12061357D01*
X9559071Y-12089929D01*
X9544786Y-12132786D01*
X9373357Y-12304214D01*
X9559071Y-12304214D01*
X9916214Y-12304214D02*
X9916214Y-12004214D01*
X10044786Y-12304214D02*
X10044786Y-12147071D01*
X10030500Y-12118500D01*
X10001928Y-12104214D01*
X9959071Y-12104214D01*
X9930500Y-12118500D01*
X9916214Y-12132786D01*
X10230500Y-12304214D02*
X10201928Y-12289929D01*
X10187643Y-12275643D01*
X10173357Y-12247071D01*
X10173357Y-12161357D01*
X10187643Y-12132786D01*
X10201928Y-12118500D01*
X10230500Y-12104214D01*
X10273357Y-12104214D01*
X10301928Y-12118500D01*
X10316214Y-12132786D01*
X10330500Y-12161357D01*
X10330500Y-12247071D01*
X10316214Y-12275643D01*
X10301928Y-12289929D01*
X10273357Y-12304214D01*
X10230500Y-12304214D01*
X10501928Y-12304214D02*
X10473357Y-12289929D01*
X10459071Y-12261357D01*
X10459071Y-12004214D01*
X10730500Y-12289929D02*
X10701928Y-12304214D01*
X10644786Y-12304214D01*
X10616214Y-12289929D01*
X10601928Y-12261357D01*
X10601928Y-12147071D01*
X10616214Y-12118500D01*
X10644786Y-12104214D01*
X10701928Y-12104214D01*
X10730500Y-12118500D01*
X10744786Y-12147071D01*
X10744786Y-12175643D01*
X10601928Y-12204214D01*
X10859071Y-12289929D02*
X10887643Y-12304214D01*
X10944786Y-12304214D01*
X10973357Y-12289929D01*
X10987643Y-12261357D01*
X10987643Y-12247071D01*
X10973357Y-12218500D01*
X10944786Y-12204214D01*
X10901928Y-12204214D01*
X10873357Y-12189929D01*
X10859071Y-12161357D01*
X10859071Y-12147071D01*
X10873357Y-12118500D01*
X10901928Y-12104214D01*
X10944786Y-12104214D01*
X10973357Y-12118500D01*
X11087643Y-12418500D02*
X11101928Y-12404214D01*
X11130500Y-12361357D01*
X11144786Y-12332786D01*
X11159071Y-12289929D01*
X11173357Y-12218500D01*
X11173357Y-12161357D01*
X11159071Y-12089929D01*
X11144786Y-12047071D01*
X11130500Y-12018500D01*
X11101928Y-11975643D01*
X11087643Y-11961357D01*
X4303784Y-12592785D02*
X4303784Y-12536216D01*
X4247215Y-12536216D01*
X4247215Y-12592785D01*
X4303784Y-12592785D01*
X4659071Y-12400214D02*
X4687643Y-12400214D01*
X4716214Y-12414500D01*
X4730500Y-12428786D01*
X4744786Y-12457357D01*
X4759071Y-12514500D01*
X4759071Y-12585929D01*
X4744786Y-12643071D01*
X4730500Y-12671643D01*
X4716214Y-12685929D01*
X4687643Y-12700214D01*
X4659071Y-12700214D01*
X4630500Y-12685929D01*
X4616214Y-12671643D01*
X4601928Y-12643071D01*
X4587643Y-12585929D01*
X4587643Y-12514500D01*
X4601928Y-12457357D01*
X4616214Y-12428786D01*
X4630500Y-12414500D01*
X4659071Y-12400214D01*
X4887643Y-12671643D02*
X4901928Y-12685929D01*
X4887643Y-12700214D01*
X4873357Y-12685929D01*
X4887643Y-12671643D01*
X4887643Y-12700214D01*
X5073357Y-12528786D02*
X5044786Y-12514500D01*
X5030500Y-12500214D01*
X5016214Y-12471643D01*
X5016214Y-12457357D01*
X5030500Y-12428786D01*
X5044786Y-12414500D01*
X5073357Y-12400214D01*
X5130500Y-12400214D01*
X5159071Y-12414500D01*
X5173357Y-12428786D01*
X5187643Y-12457357D01*
X5187643Y-12471643D01*
X5173357Y-12500214D01*
X5159071Y-12514500D01*
X5130500Y-12528786D01*
X5073357Y-12528786D01*
X5044786Y-12543071D01*
X5030500Y-12557357D01*
X5016214Y-12585929D01*
X5016214Y-12643071D01*
X5030500Y-12671643D01*
X5044786Y-12685929D01*
X5073357Y-12700214D01*
X5130500Y-12700214D01*
X5159071Y-12685929D01*
X5173357Y-12671643D01*
X5187643Y-12643071D01*
X5187643Y-12585929D01*
X5173357Y-12557357D01*
X5159071Y-12543071D01*
X5130500Y-12528786D01*
X5373357Y-12400214D02*
X5401928Y-12400214D01*
X5430500Y-12414500D01*
X5444786Y-12428786D01*
X5459071Y-12457357D01*
X5473357Y-12514500D01*
X5473357Y-12585929D01*
X5459071Y-12643071D01*
X5444786Y-12671643D01*
X5430500Y-12685929D01*
X5401928Y-12700214D01*
X5373357Y-12700214D01*
X5344786Y-12685929D01*
X5330500Y-12671643D01*
X5316214Y-12643071D01*
X5301928Y-12585929D01*
X5301928Y-12514500D01*
X5316214Y-12457357D01*
X5330500Y-12428786D01*
X5344786Y-12414500D01*
X5373357Y-12400214D01*
X5601928Y-12700214D02*
X5601928Y-12500214D01*
X5601928Y-12528786D02*
X5616214Y-12514500D01*
X5644786Y-12500214D01*
X5687643Y-12500214D01*
X5716214Y-12514500D01*
X5730500Y-12543071D01*
X5730500Y-12700214D01*
X5730500Y-12543071D02*
X5744786Y-12514500D01*
X5773357Y-12500214D01*
X5816214Y-12500214D01*
X5844786Y-12514500D01*
X5859071Y-12543071D01*
X5859071Y-12700214D01*
X6001928Y-12700214D02*
X6001928Y-12500214D01*
X6001928Y-12528786D02*
X6016214Y-12514500D01*
X6044786Y-12500214D01*
X6087643Y-12500214D01*
X6116214Y-12514500D01*
X6130500Y-12543071D01*
X6130500Y-12700214D01*
X6130500Y-12543071D02*
X6144786Y-12514500D01*
X6173357Y-12500214D01*
X6216214Y-12500214D01*
X6244786Y-12514500D01*
X6259071Y-12543071D01*
X6259071Y-12700214D01*
X6844786Y-12385929D02*
X6587643Y-12771643D01*
X7230500Y-12400214D02*
X7259071Y-12400214D01*
X7287643Y-12414500D01*
X7301928Y-12428786D01*
X7316214Y-12457357D01*
X7330500Y-12514500D01*
X7330500Y-12585929D01*
X7316214Y-12643071D01*
X7301928Y-12671643D01*
X7287643Y-12685929D01*
X7259071Y-12700214D01*
X7230500Y-12700214D01*
X7201928Y-12685929D01*
X7187643Y-12671643D01*
X7173357Y-12643071D01*
X7159071Y-12585929D01*
X7159071Y-12514500D01*
X7173357Y-12457357D01*
X7187643Y-12428786D01*
X7201928Y-12414500D01*
X7230500Y-12400214D01*
X7459071Y-12671643D02*
X7473357Y-12685929D01*
X7459071Y-12700214D01*
X7444786Y-12685929D01*
X7459071Y-12671643D01*
X7459071Y-12700214D01*
X7659071Y-12400214D02*
X7687643Y-12400214D01*
X7716214Y-12414500D01*
X7730500Y-12428786D01*
X7744786Y-12457357D01*
X7759071Y-12514500D01*
X7759071Y-12585929D01*
X7744786Y-12643071D01*
X7730500Y-12671643D01*
X7716214Y-12685929D01*
X7687643Y-12700214D01*
X7659071Y-12700214D01*
X7630500Y-12685929D01*
X7616214Y-12671643D01*
X7601928Y-12643071D01*
X7587643Y-12585929D01*
X7587643Y-12514500D01*
X7601928Y-12457357D01*
X7616214Y-12428786D01*
X7630500Y-12414500D01*
X7659071Y-12400214D01*
X7859071Y-12400214D02*
X8044786Y-12400214D01*
X7944786Y-12514500D01*
X7987643Y-12514500D01*
X8016214Y-12528786D01*
X8030500Y-12543071D01*
X8044786Y-12571643D01*
X8044786Y-12643071D01*
X8030500Y-12671643D01*
X8016214Y-12685929D01*
X7987643Y-12700214D01*
X7901928Y-12700214D01*
X7873357Y-12685929D01*
X7859071Y-12671643D01*
X8330500Y-12700214D02*
X8159071Y-12700214D01*
X8244786Y-12700214D02*
X8244786Y-12400214D01*
X8216214Y-12443071D01*
X8187643Y-12471643D01*
X8159071Y-12485929D01*
X8444786Y-12400214D02*
X8444786Y-12457357D01*
X8559071Y-12400214D02*
X8559071Y-12457357D01*
X9001928Y-12814500D02*
X8987643Y-12800214D01*
X8959071Y-12757357D01*
X8944786Y-12728786D01*
X8930500Y-12685929D01*
X8916214Y-12614500D01*
X8916214Y-12557357D01*
X8930500Y-12485929D01*
X8944786Y-12443071D01*
X8959071Y-12414500D01*
X8987643Y-12371643D01*
X9001928Y-12357357D01*
X9244786Y-12500214D02*
X9244786Y-12700214D01*
X9173357Y-12385929D02*
X9101928Y-12600214D01*
X9287643Y-12600214D01*
X9444786Y-12528786D02*
X9416214Y-12514500D01*
X9401928Y-12500214D01*
X9387643Y-12471643D01*
X9387643Y-12457357D01*
X9401928Y-12428786D01*
X9416214Y-12414500D01*
X9444786Y-12400214D01*
X9501928Y-12400214D01*
X9530500Y-12414500D01*
X9544786Y-12428786D01*
X9559071Y-12457357D01*
X9559071Y-12471643D01*
X9544786Y-12500214D01*
X9530500Y-12514500D01*
X9501928Y-12528786D01*
X9444786Y-12528786D01*
X9416214Y-12543071D01*
X9401928Y-12557357D01*
X9387643Y-12585929D01*
X9387643Y-12643071D01*
X9401928Y-12671643D01*
X9416214Y-12685929D01*
X9444786Y-12700214D01*
X9501928Y-12700214D01*
X9530500Y-12685929D01*
X9544786Y-12671643D01*
X9559071Y-12643071D01*
X9559071Y-12585929D01*
X9544786Y-12557357D01*
X9530500Y-12543071D01*
X9501928Y-12528786D01*
X9916214Y-12700214D02*
X9916214Y-12400214D01*
X10044786Y-12700214D02*
X10044786Y-12543071D01*
X10030500Y-12514500D01*
X10001928Y-12500214D01*
X9959071Y-12500214D01*
X9930500Y-12514500D01*
X9916214Y-12528786D01*
X10230500Y-12700214D02*
X10201928Y-12685929D01*
X10187643Y-12671643D01*
X10173357Y-12643071D01*
X10173357Y-12557357D01*
X10187643Y-12528786D01*
X10201928Y-12514500D01*
X10230500Y-12500214D01*
X10273357Y-12500214D01*
X10301928Y-12514500D01*
X10316214Y-12528786D01*
X10330500Y-12557357D01*
X10330500Y-12643071D01*
X10316214Y-12671643D01*
X10301928Y-12685929D01*
X10273357Y-12700214D01*
X10230500Y-12700214D01*
X10501928Y-12700214D02*
X10473357Y-12685929D01*
X10459071Y-12657357D01*
X10459071Y-12400214D01*
X10730500Y-12685929D02*
X10701928Y-12700214D01*
X10644786Y-12700214D01*
X10616214Y-12685929D01*
X10601928Y-12657357D01*
X10601928Y-12543071D01*
X10616214Y-12514500D01*
X10644786Y-12500214D01*
X10701928Y-12500214D01*
X10730500Y-12514500D01*
X10744786Y-12543071D01*
X10744786Y-12571643D01*
X10601928Y-12600214D01*
X10859071Y-12685929D02*
X10887643Y-12700214D01*
X10944786Y-12700214D01*
X10973357Y-12685929D01*
X10987643Y-12657357D01*
X10987643Y-12643071D01*
X10973357Y-12614500D01*
X10944786Y-12600214D01*
X10901928Y-12600214D01*
X10873357Y-12585929D01*
X10859071Y-12557357D01*
X10859071Y-12543071D01*
X10873357Y-12514500D01*
X10901928Y-12500214D01*
X10944786Y-12500214D01*
X10973357Y-12514500D01*
X11087643Y-12814500D02*
X11101928Y-12800214D01*
X11130500Y-12757357D01*
X11144786Y-12728786D01*
X11159071Y-12685929D01*
X11173357Y-12614500D01*
X11173357Y-12557357D01*
X11159071Y-12485929D01*
X11144786Y-12443071D01*
X11130500Y-12414500D01*
X11101928Y-12371643D01*
X11087643Y-12357357D01*
X4270500Y-13005500D02*
X4315500Y-12960500D01*
X4270500Y-12915500D01*
X4225500Y-12960500D01*
X4270500Y-13005500D01*
X4659071Y-12796214D02*
X4687643Y-12796214D01*
X4716214Y-12810500D01*
X4730500Y-12824786D01*
X4744786Y-12853357D01*
X4759071Y-12910500D01*
X4759071Y-12981929D01*
X4744786Y-13039071D01*
X4730500Y-13067643D01*
X4716214Y-13081929D01*
X4687643Y-13096214D01*
X4659071Y-13096214D01*
X4630500Y-13081929D01*
X4616214Y-13067643D01*
X4601928Y-13039071D01*
X4587643Y-12981929D01*
X4587643Y-12910500D01*
X4601928Y-12853357D01*
X4616214Y-12824786D01*
X4630500Y-12810500D01*
X4659071Y-12796214D01*
X4887643Y-13067643D02*
X4901928Y-13081929D01*
X4887643Y-13096214D01*
X4873357Y-13081929D01*
X4887643Y-13067643D01*
X4887643Y-13096214D01*
X5044786Y-13096214D02*
X5101928Y-13096214D01*
X5130500Y-13081929D01*
X5144786Y-13067643D01*
X5173357Y-13024786D01*
X5187643Y-12967643D01*
X5187643Y-12853357D01*
X5173357Y-12824786D01*
X5159071Y-12810500D01*
X5130500Y-12796214D01*
X5073357Y-12796214D01*
X5044786Y-12810500D01*
X5030500Y-12824786D01*
X5016214Y-12853357D01*
X5016214Y-12924786D01*
X5030500Y-12953357D01*
X5044786Y-12967643D01*
X5073357Y-12981929D01*
X5130500Y-12981929D01*
X5159071Y-12967643D01*
X5173357Y-12953357D01*
X5187643Y-12924786D01*
X5373357Y-12796214D02*
X5401928Y-12796214D01*
X5430500Y-12810500D01*
X5444786Y-12824786D01*
X5459071Y-12853357D01*
X5473357Y-12910500D01*
X5473357Y-12981929D01*
X5459071Y-13039071D01*
X5444786Y-13067643D01*
X5430500Y-13081929D01*
X5401928Y-13096214D01*
X5373357Y-13096214D01*
X5344786Y-13081929D01*
X5330500Y-13067643D01*
X5316214Y-13039071D01*
X5301928Y-12981929D01*
X5301928Y-12910500D01*
X5316214Y-12853357D01*
X5330500Y-12824786D01*
X5344786Y-12810500D01*
X5373357Y-12796214D01*
X5601928Y-13096214D02*
X5601928Y-12896214D01*
X5601928Y-12924786D02*
X5616214Y-12910500D01*
X5644786Y-12896214D01*
X5687643Y-12896214D01*
X5716214Y-12910500D01*
X5730500Y-12939071D01*
X5730500Y-13096214D01*
X5730500Y-12939071D02*
X5744786Y-12910500D01*
X5773357Y-12896214D01*
X5816214Y-12896214D01*
X5844786Y-12910500D01*
X5859071Y-12939071D01*
X5859071Y-13096214D01*
X6001928Y-13096214D02*
X6001928Y-12896214D01*
X6001928Y-12924786D02*
X6016214Y-12910500D01*
X6044786Y-12896214D01*
X6087643Y-12896214D01*
X6116214Y-12910500D01*
X6130500Y-12939071D01*
X6130500Y-13096214D01*
X6130500Y-12939071D02*
X6144786Y-12910500D01*
X6173357Y-12896214D01*
X6216214Y-12896214D01*
X6244786Y-12910500D01*
X6259071Y-12939071D01*
X6259071Y-13096214D01*
X6844786Y-12781929D02*
X6587643Y-13167643D01*
X7230500Y-12796214D02*
X7259071Y-12796214D01*
X7287643Y-12810500D01*
X7301928Y-12824786D01*
X7316214Y-12853357D01*
X7330500Y-12910500D01*
X7330500Y-12981929D01*
X7316214Y-13039071D01*
X7301928Y-13067643D01*
X7287643Y-13081929D01*
X7259071Y-13096214D01*
X7230500Y-13096214D01*
X7201928Y-13081929D01*
X7187643Y-13067643D01*
X7173357Y-13039071D01*
X7159071Y-12981929D01*
X7159071Y-12910500D01*
X7173357Y-12853357D01*
X7187643Y-12824786D01*
X7201928Y-12810500D01*
X7230500Y-12796214D01*
X7459071Y-13067643D02*
X7473357Y-13081929D01*
X7459071Y-13096214D01*
X7444786Y-13081929D01*
X7459071Y-13067643D01*
X7459071Y-13096214D01*
X7659071Y-12796214D02*
X7687643Y-12796214D01*
X7716214Y-12810500D01*
X7730500Y-12824786D01*
X7744786Y-12853357D01*
X7759071Y-12910500D01*
X7759071Y-12981929D01*
X7744786Y-13039071D01*
X7730500Y-13067643D01*
X7716214Y-13081929D01*
X7687643Y-13096214D01*
X7659071Y-13096214D01*
X7630500Y-13081929D01*
X7616214Y-13067643D01*
X7601928Y-13039071D01*
X7587643Y-12981929D01*
X7587643Y-12910500D01*
X7601928Y-12853357D01*
X7616214Y-12824786D01*
X7630500Y-12810500D01*
X7659071Y-12796214D01*
X7859071Y-12796214D02*
X8044786Y-12796214D01*
X7944786Y-12910500D01*
X7987643Y-12910500D01*
X8016214Y-12924786D01*
X8030500Y-12939071D01*
X8044786Y-12967643D01*
X8044786Y-13039071D01*
X8030500Y-13067643D01*
X8016214Y-13081929D01*
X7987643Y-13096214D01*
X7901928Y-13096214D01*
X7873357Y-13081929D01*
X7859071Y-13067643D01*
X8316214Y-12796214D02*
X8173357Y-12796214D01*
X8159071Y-12939071D01*
X8173357Y-12924786D01*
X8201928Y-12910500D01*
X8273357Y-12910500D01*
X8301928Y-12924786D01*
X8316214Y-12939071D01*
X8330500Y-12967643D01*
X8330500Y-13039071D01*
X8316214Y-13067643D01*
X8301928Y-13081929D01*
X8273357Y-13096214D01*
X8201928Y-13096214D01*
X8173357Y-13081929D01*
X8159071Y-13067643D01*
X8444786Y-12796214D02*
X8444786Y-12853357D01*
X8559071Y-12796214D02*
X8559071Y-12853357D01*
X9001928Y-13210500D02*
X8987643Y-13196214D01*
X8959071Y-13153357D01*
X8944786Y-13124786D01*
X8930500Y-13081929D01*
X8916214Y-13010500D01*
X8916214Y-12953357D01*
X8930500Y-12881929D01*
X8944786Y-12839071D01*
X8959071Y-12810500D01*
X8987643Y-12767643D01*
X9001928Y-12753357D01*
X9101928Y-12824786D02*
X9116214Y-12810500D01*
X9144786Y-12796214D01*
X9216214Y-12796214D01*
X9244786Y-12810500D01*
X9259071Y-12824786D01*
X9273357Y-12853357D01*
X9273357Y-12881929D01*
X9259071Y-12924786D01*
X9087643Y-13096214D01*
X9273357Y-13096214D01*
X9630500Y-13096214D02*
X9630500Y-12796214D01*
X9759071Y-13096214D02*
X9759071Y-12939071D01*
X9744786Y-12910500D01*
X9716214Y-12896214D01*
X9673357Y-12896214D01*
X9644786Y-12910500D01*
X9630500Y-12924786D01*
X9944786Y-13096214D02*
X9916214Y-13081929D01*
X9901928Y-13067643D01*
X9887643Y-13039071D01*
X9887643Y-12953357D01*
X9901928Y-12924786D01*
X9916214Y-12910500D01*
X9944786Y-12896214D01*
X9987643Y-12896214D01*
X10016214Y-12910500D01*
X10030500Y-12924786D01*
X10044786Y-12953357D01*
X10044786Y-13039071D01*
X10030500Y-13067643D01*
X10016214Y-13081929D01*
X9987643Y-13096214D01*
X9944786Y-13096214D01*
X10216214Y-13096214D02*
X10187643Y-13081929D01*
X10173357Y-13053357D01*
X10173357Y-12796214D01*
X10444786Y-13081929D02*
X10416214Y-13096214D01*
X10359071Y-13096214D01*
X10330500Y-13081929D01*
X10316214Y-13053357D01*
X10316214Y-12939071D01*
X10330500Y-12910500D01*
X10359071Y-12896214D01*
X10416214Y-12896214D01*
X10444786Y-12910500D01*
X10459071Y-12939071D01*
X10459071Y-12967643D01*
X10316214Y-12996214D01*
X10573357Y-13081929D02*
X10601928Y-13096214D01*
X10659071Y-13096214D01*
X10687643Y-13081929D01*
X10701928Y-13053357D01*
X10701928Y-13039071D01*
X10687643Y-13010500D01*
X10659071Y-12996214D01*
X10616214Y-12996214D01*
X10587643Y-12981929D01*
X10573357Y-12953357D01*
X10573357Y-12939071D01*
X10587643Y-12910500D01*
X10616214Y-12896214D01*
X10659071Y-12896214D01*
X10687643Y-12910500D01*
X10801928Y-13210500D02*
X10816214Y-13196214D01*
X10844786Y-13153357D01*
X10859071Y-13124786D01*
X10873357Y-13081929D01*
X10887643Y-13010500D01*
X10887643Y-12953357D01*
X10873357Y-12881929D01*
X10859071Y-12839071D01*
X10844786Y-12810500D01*
X10816214Y-12767643D01*
X10801928Y-12753357D01*
X4195612Y-13296556D02*
X4315500Y-13416444D01*
X4315500Y-13296556D02*
X4195612Y-13416444D01*
X4315500Y-13356500D02*
G75*
G03X4315500Y-13356500I-59944J0D01*
G01*
X4759071Y-13492214D02*
X4587643Y-13492214D01*
X4673357Y-13492214D02*
X4673357Y-13192214D01*
X4644786Y-13235071D01*
X4616214Y-13263643D01*
X4587643Y-13277929D01*
X4887643Y-13463643D02*
X4901928Y-13477929D01*
X4887643Y-13492214D01*
X4873357Y-13477929D01*
X4887643Y-13463643D01*
X4887643Y-13492214D01*
X5016214Y-13220786D02*
X5030500Y-13206500D01*
X5059071Y-13192214D01*
X5130500Y-13192214D01*
X5159071Y-13206500D01*
X5173357Y-13220786D01*
X5187643Y-13249357D01*
X5187643Y-13277929D01*
X5173357Y-13320786D01*
X5001928Y-13492214D01*
X5187643Y-13492214D01*
X5373357Y-13192214D02*
X5401928Y-13192214D01*
X5430500Y-13206500D01*
X5444786Y-13220786D01*
X5459071Y-13249357D01*
X5473357Y-13306500D01*
X5473357Y-13377929D01*
X5459071Y-13435071D01*
X5444786Y-13463643D01*
X5430500Y-13477929D01*
X5401928Y-13492214D01*
X5373357Y-13492214D01*
X5344786Y-13477929D01*
X5330500Y-13463643D01*
X5316214Y-13435071D01*
X5301928Y-13377929D01*
X5301928Y-13306500D01*
X5316214Y-13249357D01*
X5330500Y-13220786D01*
X5344786Y-13206500D01*
X5373357Y-13192214D01*
X5601928Y-13492214D02*
X5601928Y-13292214D01*
X5601928Y-13320786D02*
X5616214Y-13306500D01*
X5644786Y-13292214D01*
X5687643Y-13292214D01*
X5716214Y-13306500D01*
X5730500Y-13335071D01*
X5730500Y-13492214D01*
X5730500Y-13335071D02*
X5744786Y-13306500D01*
X5773357Y-13292214D01*
X5816214Y-13292214D01*
X5844786Y-13306500D01*
X5859071Y-13335071D01*
X5859071Y-13492214D01*
X6001928Y-13492214D02*
X6001928Y-13292214D01*
X6001928Y-13320786D02*
X6016214Y-13306500D01*
X6044786Y-13292214D01*
X6087643Y-13292214D01*
X6116214Y-13306500D01*
X6130500Y-13335071D01*
X6130500Y-13492214D01*
X6130500Y-13335071D02*
X6144786Y-13306500D01*
X6173357Y-13292214D01*
X6216214Y-13292214D01*
X6244786Y-13306500D01*
X6259071Y-13335071D01*
X6259071Y-13492214D01*
X6844786Y-13177929D02*
X6587643Y-13563643D01*
X7230500Y-13192214D02*
X7259071Y-13192214D01*
X7287643Y-13206500D01*
X7301928Y-13220786D01*
X7316214Y-13249357D01*
X7330500Y-13306500D01*
X7330500Y-13377929D01*
X7316214Y-13435071D01*
X7301928Y-13463643D01*
X7287643Y-13477929D01*
X7259071Y-13492214D01*
X7230500Y-13492214D01*
X7201928Y-13477929D01*
X7187643Y-13463643D01*
X7173357Y-13435071D01*
X7159071Y-13377929D01*
X7159071Y-13306500D01*
X7173357Y-13249357D01*
X7187643Y-13220786D01*
X7201928Y-13206500D01*
X7230500Y-13192214D01*
X7459071Y-13463643D02*
X7473357Y-13477929D01*
X7459071Y-13492214D01*
X7444786Y-13477929D01*
X7459071Y-13463643D01*
X7459071Y-13492214D01*
X7659071Y-13192214D02*
X7687643Y-13192214D01*
X7716214Y-13206500D01*
X7730500Y-13220786D01*
X7744786Y-13249357D01*
X7759071Y-13306500D01*
X7759071Y-13377929D01*
X7744786Y-13435071D01*
X7730500Y-13463643D01*
X7716214Y-13477929D01*
X7687643Y-13492214D01*
X7659071Y-13492214D01*
X7630500Y-13477929D01*
X7616214Y-13463643D01*
X7601928Y-13435071D01*
X7587643Y-13377929D01*
X7587643Y-13306500D01*
X7601928Y-13249357D01*
X7616214Y-13220786D01*
X7630500Y-13206500D01*
X7659071Y-13192214D01*
X8016214Y-13292214D02*
X8016214Y-13492214D01*
X7944786Y-13177929D02*
X7873357Y-13392214D01*
X8059071Y-13392214D01*
X8144786Y-13192214D02*
X8344786Y-13192214D01*
X8216214Y-13492214D01*
X8444786Y-13192214D02*
X8444786Y-13249357D01*
X8559071Y-13192214D02*
X8559071Y-13249357D01*
X9001928Y-13606500D02*
X8987643Y-13592214D01*
X8959071Y-13549357D01*
X8944786Y-13520786D01*
X8930500Y-13477929D01*
X8916214Y-13406500D01*
X8916214Y-13349357D01*
X8930500Y-13277929D01*
X8944786Y-13235071D01*
X8959071Y-13206500D01*
X8987643Y-13163643D01*
X9001928Y-13149357D01*
X9101928Y-13220786D02*
X9116214Y-13206500D01*
X9144786Y-13192214D01*
X9216214Y-13192214D01*
X9244786Y-13206500D01*
X9259071Y-13220786D01*
X9273357Y-13249357D01*
X9273357Y-13277929D01*
X9259071Y-13320786D01*
X9087643Y-13492214D01*
X9273357Y-13492214D01*
X9559071Y-13492214D02*
X9387643Y-13492214D01*
X9473357Y-13492214D02*
X9473357Y-13192214D01*
X9444786Y-13235071D01*
X9416214Y-13263643D01*
X9387643Y-13277929D01*
X9916214Y-13492214D02*
X9916214Y-13192214D01*
X10044786Y-13492214D02*
X10044786Y-13335071D01*
X10030500Y-13306500D01*
X10001928Y-13292214D01*
X9959071Y-13292214D01*
X9930500Y-13306500D01*
X9916214Y-13320786D01*
X10230500Y-13492214D02*
X10201928Y-13477929D01*
X10187643Y-13463643D01*
X10173357Y-13435071D01*
X10173357Y-13349357D01*
X10187643Y-13320786D01*
X10201928Y-13306500D01*
X10230500Y-13292214D01*
X10273357Y-13292214D01*
X10301928Y-13306500D01*
X10316214Y-13320786D01*
X10330500Y-13349357D01*
X10330500Y-13435071D01*
X10316214Y-13463643D01*
X10301928Y-13477929D01*
X10273357Y-13492214D01*
X10230500Y-13492214D01*
X10501928Y-13492214D02*
X10473357Y-13477929D01*
X10459071Y-13449357D01*
X10459071Y-13192214D01*
X10730500Y-13477929D02*
X10701928Y-13492214D01*
X10644786Y-13492214D01*
X10616214Y-13477929D01*
X10601928Y-13449357D01*
X10601928Y-13335071D01*
X10616214Y-13306500D01*
X10644786Y-13292214D01*
X10701928Y-13292214D01*
X10730500Y-13306500D01*
X10744786Y-13335071D01*
X10744786Y-13363643D01*
X10601928Y-13392214D01*
X10859071Y-13477929D02*
X10887643Y-13492214D01*
X10944786Y-13492214D01*
X10973357Y-13477929D01*
X10987643Y-13449357D01*
X10987643Y-13435071D01*
X10973357Y-13406500D01*
X10944786Y-13392214D01*
X10901928Y-13392214D01*
X10873357Y-13377929D01*
X10859071Y-13349357D01*
X10859071Y-13335071D01*
X10873357Y-13306500D01*
X10901928Y-13292214D01*
X10944786Y-13292214D01*
X10973357Y-13306500D01*
X11344786Y-13377929D02*
X11573357Y-13377929D01*
X11459071Y-13492214D02*
X11459071Y-13263643D01*
X12073357Y-13192214D02*
X12016214Y-13192214D01*
X11987643Y-13206500D01*
X11973357Y-13220786D01*
X11944786Y-13263643D01*
X11930500Y-13320786D01*
X11930500Y-13435071D01*
X11944786Y-13463643D01*
X11959071Y-13477929D01*
X11987643Y-13492214D01*
X12044786Y-13492214D01*
X12073357Y-13477929D01*
X12087643Y-13463643D01*
X12101928Y-13435071D01*
X12101928Y-13363643D01*
X12087643Y-13335071D01*
X12073357Y-13320786D01*
X12044786Y-13306500D01*
X11987643Y-13306500D01*
X11959071Y-13320786D01*
X11944786Y-13335071D01*
X11930500Y-13363643D01*
X12444786Y-13477929D02*
X12473357Y-13492214D01*
X12530500Y-13492214D01*
X12559071Y-13477929D01*
X12573357Y-13449357D01*
X12573357Y-13435071D01*
X12559071Y-13406500D01*
X12530500Y-13392214D01*
X12487643Y-13392214D01*
X12459071Y-13377929D01*
X12444786Y-13349357D01*
X12444786Y-13335071D01*
X12459071Y-13306500D01*
X12487643Y-13292214D01*
X12530500Y-13292214D01*
X12559071Y-13306500D01*
X12744786Y-13492214D02*
X12716214Y-13477929D01*
X12701928Y-13449357D01*
X12701928Y-13192214D01*
X12901928Y-13492214D02*
X12873357Y-13477929D01*
X12859071Y-13463643D01*
X12844786Y-13435071D01*
X12844786Y-13349357D01*
X12859071Y-13320786D01*
X12873357Y-13306500D01*
X12901928Y-13292214D01*
X12944786Y-13292214D01*
X12973357Y-13306500D01*
X12987643Y-13320786D01*
X13001928Y-13349357D01*
X13001928Y-13435071D01*
X12987643Y-13463643D01*
X12973357Y-13477929D01*
X12944786Y-13492214D01*
X12901928Y-13492214D01*
X13087643Y-13292214D02*
X13201928Y-13292214D01*
X13130500Y-13192214D02*
X13130500Y-13449357D01*
X13144786Y-13477929D01*
X13173357Y-13492214D01*
X13201928Y-13492214D01*
X13287643Y-13477929D02*
X13316214Y-13492214D01*
X13373357Y-13492214D01*
X13401928Y-13477929D01*
X13416214Y-13449357D01*
X13416214Y-13435071D01*
X13401928Y-13406500D01*
X13373357Y-13392214D01*
X13330500Y-13392214D01*
X13301928Y-13377929D01*
X13287643Y-13349357D01*
X13287643Y-13335071D01*
X13301928Y-13306500D01*
X13330500Y-13292214D01*
X13373357Y-13292214D01*
X13401928Y-13306500D01*
X13516214Y-13606500D02*
X13530500Y-13592214D01*
X13559071Y-13549357D01*
X13573357Y-13520786D01*
X13587643Y-13477929D01*
X13601928Y-13406500D01*
X13601928Y-13349357D01*
X13587643Y-13277929D01*
X13573357Y-13235071D01*
X13559071Y-13206500D01*
X13530500Y-13163643D01*
X13516214Y-13149357D01*
X4185500Y-13687500D02*
X4315500Y-13817500D01*
X4315500Y-13687500D02*
X4185500Y-13817500D01*
X4250500Y-13687500D02*
X4250500Y-13817500D01*
X4185500Y-13752500D02*
X4315500Y-13752500D01*
X4759071Y-13888214D02*
X4587643Y-13888214D01*
X4673357Y-13888214D02*
X4673357Y-13588214D01*
X4644786Y-13631071D01*
X4616214Y-13659643D01*
X4587643Y-13673929D01*
X4887643Y-13859643D02*
X4901928Y-13873929D01*
X4887643Y-13888214D01*
X4873357Y-13873929D01*
X4887643Y-13859643D01*
X4887643Y-13888214D01*
X5001928Y-13588214D02*
X5187643Y-13588214D01*
X5087643Y-13702500D01*
X5130500Y-13702500D01*
X5159071Y-13716786D01*
X5173357Y-13731071D01*
X5187643Y-13759643D01*
X5187643Y-13831071D01*
X5173357Y-13859643D01*
X5159071Y-13873929D01*
X5130500Y-13888214D01*
X5044786Y-13888214D01*
X5016214Y-13873929D01*
X5001928Y-13859643D01*
X5373357Y-13588214D02*
X5401928Y-13588214D01*
X5430500Y-13602500D01*
X5444786Y-13616786D01*
X5459071Y-13645357D01*
X5473357Y-13702500D01*
X5473357Y-13773929D01*
X5459071Y-13831071D01*
X5444786Y-13859643D01*
X5430500Y-13873929D01*
X5401928Y-13888214D01*
X5373357Y-13888214D01*
X5344786Y-13873929D01*
X5330500Y-13859643D01*
X5316214Y-13831071D01*
X5301928Y-13773929D01*
X5301928Y-13702500D01*
X5316214Y-13645357D01*
X5330500Y-13616786D01*
X5344786Y-13602500D01*
X5373357Y-13588214D01*
X5601928Y-13888214D02*
X5601928Y-13688214D01*
X5601928Y-13716786D02*
X5616214Y-13702500D01*
X5644786Y-13688214D01*
X5687643Y-13688214D01*
X5716214Y-13702500D01*
X5730500Y-13731071D01*
X5730500Y-13888214D01*
X5730500Y-13731071D02*
X5744786Y-13702500D01*
X5773357Y-13688214D01*
X5816214Y-13688214D01*
X5844786Y-13702500D01*
X5859071Y-13731071D01*
X5859071Y-13888214D01*
X6001928Y-13888214D02*
X6001928Y-13688214D01*
X6001928Y-13716786D02*
X6016214Y-13702500D01*
X6044786Y-13688214D01*
X6087643Y-13688214D01*
X6116214Y-13702500D01*
X6130500Y-13731071D01*
X6130500Y-13888214D01*
X6130500Y-13731071D02*
X6144786Y-13702500D01*
X6173357Y-13688214D01*
X6216214Y-13688214D01*
X6244786Y-13702500D01*
X6259071Y-13731071D01*
X6259071Y-13888214D01*
X6844786Y-13573929D02*
X6587643Y-13959643D01*
X7230500Y-13588214D02*
X7259071Y-13588214D01*
X7287643Y-13602500D01*
X7301928Y-13616786D01*
X7316214Y-13645357D01*
X7330500Y-13702500D01*
X7330500Y-13773929D01*
X7316214Y-13831071D01*
X7301928Y-13859643D01*
X7287643Y-13873929D01*
X7259071Y-13888214D01*
X7230500Y-13888214D01*
X7201928Y-13873929D01*
X7187643Y-13859643D01*
X7173357Y-13831071D01*
X7159071Y-13773929D01*
X7159071Y-13702500D01*
X7173357Y-13645357D01*
X7187643Y-13616786D01*
X7201928Y-13602500D01*
X7230500Y-13588214D01*
X7459071Y-13859643D02*
X7473357Y-13873929D01*
X7459071Y-13888214D01*
X7444786Y-13873929D01*
X7459071Y-13859643D01*
X7459071Y-13888214D01*
X7659071Y-13588214D02*
X7687643Y-13588214D01*
X7716214Y-13602500D01*
X7730500Y-13616786D01*
X7744786Y-13645357D01*
X7759071Y-13702500D01*
X7759071Y-13773929D01*
X7744786Y-13831071D01*
X7730500Y-13859643D01*
X7716214Y-13873929D01*
X7687643Y-13888214D01*
X7659071Y-13888214D01*
X7630500Y-13873929D01*
X7616214Y-13859643D01*
X7601928Y-13831071D01*
X7587643Y-13773929D01*
X7587643Y-13702500D01*
X7601928Y-13645357D01*
X7616214Y-13616786D01*
X7630500Y-13602500D01*
X7659071Y-13588214D01*
X8030500Y-13588214D02*
X7887643Y-13588214D01*
X7873357Y-13731071D01*
X7887643Y-13716786D01*
X7916214Y-13702500D01*
X7987643Y-13702500D01*
X8016214Y-13716786D01*
X8030500Y-13731071D01*
X8044786Y-13759643D01*
X8044786Y-13831071D01*
X8030500Y-13859643D01*
X8016214Y-13873929D01*
X7987643Y-13888214D01*
X7916214Y-13888214D01*
X7887643Y-13873929D01*
X7873357Y-13859643D01*
X8330500Y-13888214D02*
X8159071Y-13888214D01*
X8244786Y-13888214D02*
X8244786Y-13588214D01*
X8216214Y-13631071D01*
X8187643Y-13659643D01*
X8159071Y-13673929D01*
X8444786Y-13588214D02*
X8444786Y-13645357D01*
X8559071Y-13588214D02*
X8559071Y-13645357D01*
X9001928Y-14002500D02*
X8987643Y-13988214D01*
X8959071Y-13945357D01*
X8944786Y-13916786D01*
X8930500Y-13873929D01*
X8916214Y-13802500D01*
X8916214Y-13745357D01*
X8930500Y-13673929D01*
X8944786Y-13631071D01*
X8959071Y-13602500D01*
X8987643Y-13559643D01*
X9001928Y-13545357D01*
X9101928Y-13616786D02*
X9116214Y-13602500D01*
X9144786Y-13588214D01*
X9216214Y-13588214D01*
X9244786Y-13602500D01*
X9259071Y-13616786D01*
X9273357Y-13645357D01*
X9273357Y-13673929D01*
X9259071Y-13716786D01*
X9087643Y-13888214D01*
X9273357Y-13888214D01*
X9630500Y-13888214D02*
X9630500Y-13588214D01*
X9759071Y-13888214D02*
X9759071Y-13731071D01*
X9744786Y-13702500D01*
X9716214Y-13688214D01*
X9673357Y-13688214D01*
X9644786Y-13702500D01*
X9630500Y-13716786D01*
X9944786Y-13888214D02*
X9916214Y-13873929D01*
X9901928Y-13859643D01*
X9887643Y-13831071D01*
X9887643Y-13745357D01*
X9901928Y-13716786D01*
X9916214Y-13702500D01*
X9944786Y-13688214D01*
X9987643Y-13688214D01*
X10016214Y-13702500D01*
X10030500Y-13716786D01*
X10044786Y-13745357D01*
X10044786Y-13831071D01*
X10030500Y-13859643D01*
X10016214Y-13873929D01*
X9987643Y-13888214D01*
X9944786Y-13888214D01*
X10216214Y-13888214D02*
X10187643Y-13873929D01*
X10173357Y-13845357D01*
X10173357Y-13588214D01*
X10444786Y-13873929D02*
X10416214Y-13888214D01*
X10359071Y-13888214D01*
X10330500Y-13873929D01*
X10316214Y-13845357D01*
X10316214Y-13731071D01*
X10330500Y-13702500D01*
X10359071Y-13688214D01*
X10416214Y-13688214D01*
X10444786Y-13702500D01*
X10459071Y-13731071D01*
X10459071Y-13759643D01*
X10316214Y-13788214D01*
X10573357Y-13873929D02*
X10601928Y-13888214D01*
X10659071Y-13888214D01*
X10687643Y-13873929D01*
X10701928Y-13845357D01*
X10701928Y-13831071D01*
X10687643Y-13802500D01*
X10659071Y-13788214D01*
X10616214Y-13788214D01*
X10587643Y-13773929D01*
X10573357Y-13745357D01*
X10573357Y-13731071D01*
X10587643Y-13702500D01*
X10616214Y-13688214D01*
X10659071Y-13688214D01*
X10687643Y-13702500D01*
X10801928Y-14002500D02*
X10816214Y-13988214D01*
X10844786Y-13945357D01*
X10859071Y-13916786D01*
X10873357Y-13873929D01*
X10887643Y-13802500D01*
X10887643Y-13745357D01*
X10873357Y-13673929D01*
X10859071Y-13631071D01*
X10844786Y-13602500D01*
X10816214Y-13559643D01*
X10801928Y-13545357D01*
X4165500Y-14073500D02*
X4315500Y-14223500D01*
X4315500Y-14073500D02*
X4165500Y-14223500D01*
X4293533Y-14201534D02*
X4293533Y-14095467D01*
X4187466Y-14095467D01*
X4187466Y-14201534D01*
X4293533Y-14201534D01*
X4759071Y-14284214D02*
X4587643Y-14284214D01*
X4673357Y-14284214D02*
X4673357Y-13984214D01*
X4644786Y-14027071D01*
X4616214Y-14055643D01*
X4587643Y-14069929D01*
X4887643Y-14255643D02*
X4901928Y-14269929D01*
X4887643Y-14284214D01*
X4873357Y-14269929D01*
X4887643Y-14255643D01*
X4887643Y-14284214D01*
X5173357Y-13984214D02*
X5030500Y-13984214D01*
X5016214Y-14127071D01*
X5030500Y-14112786D01*
X5059071Y-14098500D01*
X5130500Y-14098500D01*
X5159071Y-14112786D01*
X5173357Y-14127071D01*
X5187643Y-14155643D01*
X5187643Y-14227071D01*
X5173357Y-14255643D01*
X5159071Y-14269929D01*
X5130500Y-14284214D01*
X5059071Y-14284214D01*
X5030500Y-14269929D01*
X5016214Y-14255643D01*
X5373357Y-13984214D02*
X5401928Y-13984214D01*
X5430500Y-13998500D01*
X5444786Y-14012786D01*
X5459071Y-14041357D01*
X5473357Y-14098500D01*
X5473357Y-14169929D01*
X5459071Y-14227071D01*
X5444786Y-14255643D01*
X5430500Y-14269929D01*
X5401928Y-14284214D01*
X5373357Y-14284214D01*
X5344786Y-14269929D01*
X5330500Y-14255643D01*
X5316214Y-14227071D01*
X5301928Y-14169929D01*
X5301928Y-14098500D01*
X5316214Y-14041357D01*
X5330500Y-14012786D01*
X5344786Y-13998500D01*
X5373357Y-13984214D01*
X5601928Y-14284214D02*
X5601928Y-14084214D01*
X5601928Y-14112786D02*
X5616214Y-14098500D01*
X5644786Y-14084214D01*
X5687643Y-14084214D01*
X5716214Y-14098500D01*
X5730500Y-14127071D01*
X5730500Y-14284214D01*
X5730500Y-14127071D02*
X5744786Y-14098500D01*
X5773357Y-14084214D01*
X5816214Y-14084214D01*
X5844786Y-14098500D01*
X5859071Y-14127071D01*
X5859071Y-14284214D01*
X6001928Y-14284214D02*
X6001928Y-14084214D01*
X6001928Y-14112786D02*
X6016214Y-14098500D01*
X6044786Y-14084214D01*
X6087643Y-14084214D01*
X6116214Y-14098500D01*
X6130500Y-14127071D01*
X6130500Y-14284214D01*
X6130500Y-14127071D02*
X6144786Y-14098500D01*
X6173357Y-14084214D01*
X6216214Y-14084214D01*
X6244786Y-14098500D01*
X6259071Y-14127071D01*
X6259071Y-14284214D01*
X6844786Y-13969929D02*
X6587643Y-14355643D01*
X7230500Y-13984214D02*
X7259071Y-13984214D01*
X7287643Y-13998500D01*
X7301928Y-14012786D01*
X7316214Y-14041357D01*
X7330500Y-14098500D01*
X7330500Y-14169929D01*
X7316214Y-14227071D01*
X7301928Y-14255643D01*
X7287643Y-14269929D01*
X7259071Y-14284214D01*
X7230500Y-14284214D01*
X7201928Y-14269929D01*
X7187643Y-14255643D01*
X7173357Y-14227071D01*
X7159071Y-14169929D01*
X7159071Y-14098500D01*
X7173357Y-14041357D01*
X7187643Y-14012786D01*
X7201928Y-13998500D01*
X7230500Y-13984214D01*
X7459071Y-14255643D02*
X7473357Y-14269929D01*
X7459071Y-14284214D01*
X7444786Y-14269929D01*
X7459071Y-14255643D01*
X7459071Y-14284214D01*
X7659071Y-13984214D02*
X7687643Y-13984214D01*
X7716214Y-13998500D01*
X7730500Y-14012786D01*
X7744786Y-14041357D01*
X7759071Y-14098500D01*
X7759071Y-14169929D01*
X7744786Y-14227071D01*
X7730500Y-14255643D01*
X7716214Y-14269929D01*
X7687643Y-14284214D01*
X7659071Y-14284214D01*
X7630500Y-14269929D01*
X7616214Y-14255643D01*
X7601928Y-14227071D01*
X7587643Y-14169929D01*
X7587643Y-14098500D01*
X7601928Y-14041357D01*
X7616214Y-14012786D01*
X7630500Y-13998500D01*
X7659071Y-13984214D01*
X8030500Y-13984214D02*
X7887643Y-13984214D01*
X7873357Y-14127071D01*
X7887643Y-14112786D01*
X7916214Y-14098500D01*
X7987643Y-14098500D01*
X8016214Y-14112786D01*
X8030500Y-14127071D01*
X8044786Y-14155643D01*
X8044786Y-14227071D01*
X8030500Y-14255643D01*
X8016214Y-14269929D01*
X7987643Y-14284214D01*
X7916214Y-14284214D01*
X7887643Y-14269929D01*
X7873357Y-14255643D01*
X8187643Y-14284214D02*
X8244786Y-14284214D01*
X8273357Y-14269929D01*
X8287643Y-14255643D01*
X8316214Y-14212786D01*
X8330500Y-14155643D01*
X8330500Y-14041357D01*
X8316214Y-14012786D01*
X8301928Y-13998500D01*
X8273357Y-13984214D01*
X8216214Y-13984214D01*
X8187643Y-13998500D01*
X8173357Y-14012786D01*
X8159071Y-14041357D01*
X8159071Y-14112786D01*
X8173357Y-14141357D01*
X8187643Y-14155643D01*
X8216214Y-14169929D01*
X8273357Y-14169929D01*
X8301928Y-14155643D01*
X8316214Y-14141357D01*
X8330500Y-14112786D01*
X8444786Y-13984214D02*
X8444786Y-14041357D01*
X8559071Y-13984214D02*
X8559071Y-14041357D01*
X9001928Y-14398500D02*
X8987643Y-14384214D01*
X8959071Y-14341357D01*
X8944786Y-14312786D01*
X8930500Y-14269929D01*
X8916214Y-14198500D01*
X8916214Y-14141357D01*
X8930500Y-14069929D01*
X8944786Y-14027071D01*
X8959071Y-13998500D01*
X8987643Y-13955643D01*
X9001928Y-13941357D01*
X9273357Y-14284214D02*
X9101928Y-14284214D01*
X9187643Y-14284214D02*
X9187643Y-13984214D01*
X9159071Y-14027071D01*
X9130500Y-14055643D01*
X9101928Y-14069929D01*
X9630500Y-14284214D02*
X9630500Y-13984214D01*
X9759071Y-14284214D02*
X9759071Y-14127071D01*
X9744786Y-14098500D01*
X9716214Y-14084214D01*
X9673357Y-14084214D01*
X9644786Y-14098500D01*
X9630500Y-14112786D01*
X9944786Y-14284214D02*
X9916214Y-14269929D01*
X9901928Y-14255643D01*
X9887643Y-14227071D01*
X9887643Y-14141357D01*
X9901928Y-14112786D01*
X9916214Y-14098500D01*
X9944786Y-14084214D01*
X9987643Y-14084214D01*
X10016214Y-14098500D01*
X10030500Y-14112786D01*
X10044786Y-14141357D01*
X10044786Y-14227071D01*
X10030500Y-14255643D01*
X10016214Y-14269929D01*
X9987643Y-14284214D01*
X9944786Y-14284214D01*
X10216214Y-14284214D02*
X10187643Y-14269929D01*
X10173357Y-14241357D01*
X10173357Y-13984214D01*
X10444786Y-14269929D02*
X10416214Y-14284214D01*
X10359071Y-14284214D01*
X10330500Y-14269929D01*
X10316214Y-14241357D01*
X10316214Y-14127071D01*
X10330500Y-14098500D01*
X10359071Y-14084214D01*
X10416214Y-14084214D01*
X10444786Y-14098500D01*
X10459071Y-14127071D01*
X10459071Y-14155643D01*
X10316214Y-14184214D01*
X10559071Y-14398500D02*
X10573357Y-14384214D01*
X10601928Y-14341357D01*
X10616214Y-14312786D01*
X10630500Y-14269929D01*
X10644786Y-14198500D01*
X10644786Y-14141357D01*
X10630500Y-14069929D01*
X10616214Y-14027071D01*
X10601928Y-13998500D01*
X10573357Y-13955643D01*
X10559071Y-13941357D01*
M02*
