M48
; DRILL file {KiCad (5.1.2-1)-1} date domingo, 30 de julio de 2023, 19:13:53
; FORMAT={-:-/ absolute / metric / decimal}
; #@! TF.CreationDate,2023-07-30T19:13:53+02:00
; #@! TF.GenerationSoftware,Kicad,Pcbnew,(5.1.2-1)-1
; #@! TF.FileFunction,Plated,1,2,PTH
FMAT,2
METRIC
T1C0.400
T2C0.600
T3C0.750
T4C0.800
T5C0.900
T6C1.199
T7C1.300
T8C1.500
%
G90
G05
T1
X82.55Y-74.93
X96.52Y-66.04
T2
X65.81Y-80.01
X67.31Y-80.01
X62.0Y-76.2
X63.5Y-76.2
X62.0Y-68.58
X63.5Y-68.58
X65.81Y-72.39
X67.31Y-72.39
X62.0Y-60.96
X63.5Y-60.96
X100.33Y-57.15
X101.83Y-57.15
X100.33Y-82.55
X101.83Y-82.55
X65.81Y-64.77
X67.31Y-64.77
T3
X86.36Y-72.39
X87.63Y-72.39
X88.9Y-72.39
X86.36Y-62.23
X87.63Y-62.23
X88.9Y-62.23
X86.36Y-67.31
X87.63Y-67.31
X88.9Y-67.31
X86.36Y-77.47
X87.63Y-77.47
X88.9Y-77.47
T4
X96.52Y-77.47
X96.52Y-87.63
X92.71Y-67.31
X102.87Y-67.31
X105.41Y-77.47
X105.41Y-87.63
X87.63Y-93.98
X92.63Y-93.98
X62.23Y-96.52
X72.39Y-96.52
X69.85Y-76.2
X80.01Y-76.2
X72.39Y-80.01
X82.55Y-80.01
X76.2Y-88.9
X86.36Y-88.9
X62.23Y-54.61
X72.39Y-54.61
X92.71Y-52.07
X92.71Y-62.23
X69.85Y-60.96
X80.01Y-60.96
X72.39Y-64.77
X82.55Y-64.77
X92.71Y-72.39
X102.87Y-72.39
X72.39Y-72.39
X82.55Y-72.39
X62.23Y-86.36
X72.39Y-86.36
X105.41Y-52.07
X105.41Y-62.23
X96.52Y-52.07
X96.52Y-62.23
X92.71Y-77.47
X92.71Y-87.63
X76.2Y-52.07
X86.36Y-52.07
X69.85Y-68.58
X80.01Y-68.58
X76.2Y-57.15
X86.36Y-57.15
X62.23Y-91.44
X72.39Y-91.44
X76.2Y-83.82
X86.36Y-83.82
X76.24Y-96.52
X78.74Y-96.52
T5
X69.85Y-48.26
X72.39Y-48.26
T6
X53.0Y-55.245
X53.0Y-59.055
X53.0Y-62.865
X53.0Y-66.675
X53.0Y-70.485
X53.0Y-74.295
X53.0Y-78.105
X53.0Y-81.915
X53.0Y-85.725
X53.0Y-89.535
X58.08Y-53.34
X58.08Y-57.15
X58.08Y-60.96
X58.08Y-64.77
X58.08Y-68.58
X58.08Y-72.39
X58.08Y-76.2
X58.08Y-80.01
X58.08Y-83.82
X58.08Y-87.63
X58.08Y-91.44
T7
X110.69Y-91.5
X110.69Y-99.0
T8
X117.94Y-99.0
T6
X110.49Y-53.59G85X110.49Y-53.09
G05
X110.49Y-67.56G85X110.49Y-67.06
G05
X110.49Y-81.53G85X110.49Y-81.03
G05
X117.95Y-53.34G85X118.95Y-53.34
G05
X117.95Y-67.31G85X118.95Y-67.31
G05
X117.95Y-81.28G85X118.95Y-81.28
G05
T0
M30
