G04 #@! TF.GenerationSoftware,KiCad,Pcbnew,(5.1.2-1)-1*
G04 #@! TF.CreationDate,2023-07-30T19:34:21+02:00*
G04 #@! TF.ProjectId,overlay5x8,6f766572-6c61-4793-9578-382e6b696361,rev?*
G04 #@! TF.SameCoordinates,Original*
G04 #@! TF.FileFunction,Soldermask,Bot*
G04 #@! TF.FilePolarity,Negative*
%FSLAX46Y46*%
G04 Gerber Fmt 4.6, Leading zero omitted, Abs format (unit mm)*
G04 Created by KiCad (PCBNEW (5.1.2-1)-1) date 2023-07-30 19:34:21*
%MOMM*%
%LPD*%
G04 APERTURE LIST*
%ADD10C,0.150000*%
G04 APERTURE END LIST*
D10*
G36*
X169285256Y-124121298D02*
G01*
X169391579Y-124142447D01*
X169692042Y-124266903D01*
X169962451Y-124447585D01*
X170192415Y-124677549D01*
X170373097Y-124947958D01*
X170497553Y-125248421D01*
X170561000Y-125567391D01*
X170561000Y-125892609D01*
X170497553Y-126211579D01*
X170373097Y-126512042D01*
X170192415Y-126782451D01*
X169962451Y-127012415D01*
X169692042Y-127193097D01*
X169391579Y-127317553D01*
X169285256Y-127338702D01*
X169072611Y-127381000D01*
X168747389Y-127381000D01*
X168534744Y-127338702D01*
X168428421Y-127317553D01*
X168127958Y-127193097D01*
X167857549Y-127012415D01*
X167627585Y-126782451D01*
X167446903Y-126512042D01*
X167322447Y-126211579D01*
X167259000Y-125892609D01*
X167259000Y-125567391D01*
X167322447Y-125248421D01*
X167446903Y-124947958D01*
X167627585Y-124677549D01*
X167857549Y-124447585D01*
X168127958Y-124266903D01*
X168428421Y-124142447D01*
X168534744Y-124121298D01*
X168747389Y-124079000D01*
X169072611Y-124079000D01*
X169285256Y-124121298D01*
X169285256Y-124121298D01*
G37*
G36*
X42285256Y-124121298D02*
G01*
X42391579Y-124142447D01*
X42692042Y-124266903D01*
X42962451Y-124447585D01*
X43192415Y-124677549D01*
X43373097Y-124947958D01*
X43497553Y-125248421D01*
X43561000Y-125567391D01*
X43561000Y-125892609D01*
X43497553Y-126211579D01*
X43373097Y-126512042D01*
X43192415Y-126782451D01*
X42962451Y-127012415D01*
X42692042Y-127193097D01*
X42391579Y-127317553D01*
X42285256Y-127338702D01*
X42072611Y-127381000D01*
X41747389Y-127381000D01*
X41534744Y-127338702D01*
X41428421Y-127317553D01*
X41127958Y-127193097D01*
X40857549Y-127012415D01*
X40627585Y-126782451D01*
X40446903Y-126512042D01*
X40322447Y-126211579D01*
X40259000Y-125892609D01*
X40259000Y-125567391D01*
X40322447Y-125248421D01*
X40446903Y-124947958D01*
X40627585Y-124677549D01*
X40857549Y-124447585D01*
X41127958Y-124266903D01*
X41428421Y-124142447D01*
X41534744Y-124121298D01*
X41747389Y-124079000D01*
X42072611Y-124079000D01*
X42285256Y-124121298D01*
X42285256Y-124121298D01*
G37*
G36*
X169285256Y-86021298D02*
G01*
X169391579Y-86042447D01*
X169692042Y-86166903D01*
X169962451Y-86347585D01*
X170192415Y-86577549D01*
X170373097Y-86847958D01*
X170497553Y-87148421D01*
X170561000Y-87467391D01*
X170561000Y-87792609D01*
X170497553Y-88111579D01*
X170373097Y-88412042D01*
X170192415Y-88682451D01*
X169962451Y-88912415D01*
X169692042Y-89093097D01*
X169391579Y-89217553D01*
X169285256Y-89238702D01*
X169072611Y-89281000D01*
X168747389Y-89281000D01*
X168534744Y-89238702D01*
X168428421Y-89217553D01*
X168127958Y-89093097D01*
X167857549Y-88912415D01*
X167627585Y-88682451D01*
X167446903Y-88412042D01*
X167322447Y-88111579D01*
X167259000Y-87792609D01*
X167259000Y-87467391D01*
X167322447Y-87148421D01*
X167446903Y-86847958D01*
X167627585Y-86577549D01*
X167857549Y-86347585D01*
X168127958Y-86166903D01*
X168428421Y-86042447D01*
X168534744Y-86021298D01*
X168747389Y-85979000D01*
X169072611Y-85979000D01*
X169285256Y-86021298D01*
X169285256Y-86021298D01*
G37*
G36*
X42285256Y-86021298D02*
G01*
X42391579Y-86042447D01*
X42692042Y-86166903D01*
X42962451Y-86347585D01*
X43192415Y-86577549D01*
X43373097Y-86847958D01*
X43497553Y-87148421D01*
X43561000Y-87467391D01*
X43561000Y-87792609D01*
X43497553Y-88111579D01*
X43373097Y-88412042D01*
X43192415Y-88682451D01*
X42962451Y-88912415D01*
X42692042Y-89093097D01*
X42391579Y-89217553D01*
X42285256Y-89238702D01*
X42072611Y-89281000D01*
X41747389Y-89281000D01*
X41534744Y-89238702D01*
X41428421Y-89217553D01*
X41127958Y-89093097D01*
X40857549Y-88912415D01*
X40627585Y-88682451D01*
X40446903Y-88412042D01*
X40322447Y-88111579D01*
X40259000Y-87792609D01*
X40259000Y-87467391D01*
X40322447Y-87148421D01*
X40446903Y-86847958D01*
X40627585Y-86577549D01*
X40857549Y-86347585D01*
X41127958Y-86166903D01*
X41428421Y-86042447D01*
X41534744Y-86021298D01*
X41747389Y-85979000D01*
X42072611Y-85979000D01*
X42285256Y-86021298D01*
X42285256Y-86021298D01*
G37*
M02*
