G04 #@! TF.GenerationSoftware,KiCad,Pcbnew,(5.1.2-1)-1*
G04 #@! TF.CreationDate,2023-07-30T19:34:21+02:00*
G04 #@! TF.ProjectId,overlay5x8,6f766572-6c61-4793-9578-382e6b696361,rev?*
G04 #@! TF.SameCoordinates,Original*
G04 #@! TF.FileFunction,Legend,Top*
G04 #@! TF.FilePolarity,Positive*
%FSLAX46Y46*%
G04 Gerber Fmt 4.6, Leading zero omitted, Abs format (unit mm)*
G04 Created by KiCad (PCBNEW (5.1.2-1)-1) date 2023-07-30 19:34:21*
%MOMM*%
%LPD*%
G04 APERTURE LIST*
%ADD10C,0.500000*%
%ADD11C,0.250000*%
%ADD12C,0.200000*%
%ADD13C,0.350000*%
%ADD14C,0.750000*%
%ADD15C,0.700000*%
%ADD16C,3.302000*%
G04 APERTURE END LIST*
D10*
X120856857Y-128357142D02*
X120856857Y-125357142D01*
X122571142Y-128357142D01*
X122571142Y-125357142D01*
X128714000Y-128214285D02*
X128714000Y-128357142D01*
X128571142Y-128642857D01*
X128428285Y-128785714D01*
D11*
X121158000Y-129794000D02*
G75*
G02X119888000Y-128524000I0J1270000D01*
G01*
X128778000Y-119634000D02*
G75*
G02X130048000Y-120904000I0J-1270000D01*
G01*
X130048000Y-128524000D02*
X130048000Y-120904000D01*
X130048000Y-128524000D02*
G75*
G02X128778000Y-129794000I-1270000J0D01*
G01*
X121158000Y-119634000D02*
X128778000Y-119634000D01*
X119888000Y-120904000D02*
G75*
G02X121158000Y-119634000I1270000J0D01*
G01*
X119888000Y-128524000D02*
X119888000Y-120904000D01*
X121158000Y-129794000D02*
X128778000Y-129794000D01*
D10*
X110069714Y-126785714D02*
X110498285Y-126928571D01*
X110641142Y-127071428D01*
X110784000Y-127357142D01*
X110784000Y-127785714D01*
X110641142Y-128071428D01*
X110498285Y-128214285D01*
X110212571Y-128357142D01*
X109069714Y-128357142D01*
X109069714Y-125357142D01*
X110069714Y-125357142D01*
X110355428Y-125500000D01*
X110498285Y-125642857D01*
X110641142Y-125928571D01*
X110641142Y-126214285D01*
X110498285Y-126500000D01*
X110355428Y-126642857D01*
X110069714Y-126785714D01*
X109069714Y-126785714D01*
X117069714Y-125357142D02*
X117069714Y-126071428D01*
X116355428Y-125785714D02*
X117069714Y-126071428D01*
X117784000Y-125785714D01*
X116641142Y-126642857D02*
X117069714Y-126071428D01*
X117498285Y-126642857D01*
D11*
X109728000Y-129794000D02*
G75*
G02X108458000Y-128524000I0J1270000D01*
G01*
X117348000Y-119634000D02*
G75*
G02X118618000Y-120904000I0J-1270000D01*
G01*
X118618000Y-128524000D02*
X118618000Y-120904000D01*
X118618000Y-128524000D02*
G75*
G02X117348000Y-129794000I-1270000J0D01*
G01*
X109728000Y-119634000D02*
X117348000Y-119634000D01*
X108458000Y-120904000D02*
G75*
G02X109728000Y-119634000I1270000J0D01*
G01*
X108458000Y-128524000D02*
X108458000Y-120904000D01*
X109728000Y-129794000D02*
X117348000Y-129794000D01*
D10*
X97574666Y-125357142D02*
X98508000Y-128357142D01*
X99441333Y-125357142D01*
X106641333Y-125214285D02*
X104241333Y-129071428D01*
D11*
X98298000Y-129794000D02*
G75*
G02X97028000Y-128524000I0J1270000D01*
G01*
X105918000Y-119634000D02*
G75*
G02X107188000Y-120904000I0J-1270000D01*
G01*
X107188000Y-128524000D02*
X107188000Y-120904000D01*
X107188000Y-128524000D02*
G75*
G02X105918000Y-129794000I-1270000J0D01*
G01*
X98298000Y-119634000D02*
X105918000Y-119634000D01*
X97028000Y-120904000D02*
G75*
G02X98298000Y-119634000I1270000J0D01*
G01*
X97028000Y-128524000D02*
X97028000Y-120904000D01*
X98298000Y-129794000D02*
X105918000Y-129794000D01*
D10*
X102148000Y-114070000D02*
X101862285Y-113927142D01*
X101433714Y-113927142D01*
X101005142Y-114070000D01*
X100719428Y-114355714D01*
X100576571Y-114641428D01*
X100433714Y-115212857D01*
X100433714Y-115641428D01*
X100576571Y-116212857D01*
X100719428Y-116498571D01*
X101005142Y-116784285D01*
X101433714Y-116927142D01*
X101719428Y-116927142D01*
X102148000Y-116784285D01*
X102290857Y-116641428D01*
X102290857Y-115641428D01*
X101719428Y-115641428D01*
X107862285Y-117927142D02*
X108576571Y-117927142D01*
X108576571Y-113641428D01*
X107862285Y-113641428D01*
D12*
X107918285Y-111232000D02*
X107989714Y-111232000D01*
X108132571Y-111160571D01*
X108204000Y-111017714D01*
X108204000Y-110303428D01*
X108275428Y-110160571D01*
X108418285Y-110089142D01*
X108275428Y-110017714D01*
X108204000Y-109874857D01*
X108204000Y-109160571D01*
X108132571Y-109017714D01*
X107989714Y-108946285D01*
X107918285Y-108946285D01*
D11*
X100838000Y-118364000D02*
G75*
G02X99568000Y-117094000I0J1270000D01*
G01*
X108458000Y-108204000D02*
G75*
G02X109728000Y-109474000I0J-1270000D01*
G01*
X109728000Y-117094000D02*
X109728000Y-109474000D01*
X109728000Y-117094000D02*
G75*
G02X108458000Y-118364000I-1270000J0D01*
G01*
X100838000Y-108204000D02*
X108458000Y-108204000D01*
X99568000Y-109474000D02*
G75*
G02X100838000Y-108204000I1270000J0D01*
G01*
X99568000Y-117094000D02*
X99568000Y-109474000D01*
X100838000Y-118364000D02*
X108458000Y-118364000D01*
D10*
X111824000Y-116927142D02*
X111824000Y-113927142D01*
X111824000Y-115355714D02*
X113538285Y-115355714D01*
X113538285Y-116927142D02*
X113538285Y-113927142D01*
X119109714Y-114212857D02*
X119681142Y-113784285D01*
X120252571Y-114212857D01*
D11*
X112268000Y-118364000D02*
G75*
G02X110998000Y-117094000I0J1270000D01*
G01*
X119888000Y-108204000D02*
G75*
G02X121158000Y-109474000I0J-1270000D01*
G01*
X121158000Y-117094000D02*
X121158000Y-109474000D01*
X121158000Y-117094000D02*
G75*
G02X119888000Y-118364000I-1270000J0D01*
G01*
X112268000Y-108204000D02*
X119888000Y-108204000D01*
X110998000Y-109474000D02*
G75*
G02X112268000Y-108204000I1270000J0D01*
G01*
X110998000Y-117094000D02*
X110998000Y-109474000D01*
X112268000Y-118364000D02*
X119888000Y-118364000D01*
D10*
X124041333Y-113927142D02*
X124041333Y-116070000D01*
X123908000Y-116498571D01*
X123641333Y-116784285D01*
X123241333Y-116927142D01*
X122974666Y-116927142D01*
X129641333Y-115784285D02*
X131774666Y-115784285D01*
D11*
X123698000Y-118364000D02*
G75*
G02X122428000Y-117094000I0J1270000D01*
G01*
X131318000Y-108204000D02*
G75*
G02X132588000Y-109474000I0J-1270000D01*
G01*
X132588000Y-117094000D02*
X132588000Y-109474000D01*
X132588000Y-117094000D02*
G75*
G02X131318000Y-118364000I-1270000J0D01*
G01*
X123698000Y-108204000D02*
X131318000Y-108204000D01*
X122428000Y-109474000D02*
G75*
G02X123698000Y-108204000I1270000J0D01*
G01*
X122428000Y-117094000D02*
X122428000Y-109474000D01*
X123698000Y-118364000D02*
X131318000Y-118364000D01*
D10*
X134765142Y-116927142D02*
X134765142Y-113927142D01*
X136216571Y-116927142D02*
X135128000Y-115212857D01*
X136216571Y-113927142D02*
X134765142Y-115641428D01*
X141175619Y-115784285D02*
X143110857Y-115784285D01*
X142143238Y-116927142D02*
X142143238Y-114641428D01*
D11*
X135128000Y-118364000D02*
G75*
G02X133858000Y-117094000I0J1270000D01*
G01*
X142748000Y-108204000D02*
G75*
G02X144018000Y-109474000I0J-1270000D01*
G01*
X144018000Y-117094000D02*
X144018000Y-109474000D01*
X144018000Y-117094000D02*
G75*
G02X142748000Y-118364000I-1270000J0D01*
G01*
X135128000Y-108204000D02*
X142748000Y-108204000D01*
X133858000Y-109474000D02*
G75*
G02X135128000Y-108204000I1270000J0D01*
G01*
X133858000Y-117094000D02*
X133858000Y-109474000D01*
X135128000Y-118364000D02*
X142748000Y-118364000D01*
D10*
X147368000Y-116927142D02*
X146034666Y-116927142D01*
X146034666Y-113927142D01*
X152568000Y-115355714D02*
X154701333Y-115355714D01*
X154701333Y-116212857D02*
X152568000Y-116212857D01*
D11*
X146558000Y-118364000D02*
G75*
G02X145288000Y-117094000I0J1270000D01*
G01*
X154178000Y-108204000D02*
G75*
G02X155448000Y-109474000I0J-1270000D01*
G01*
X155448000Y-117094000D02*
X155448000Y-109474000D01*
X155448000Y-117094000D02*
G75*
G02X154178000Y-118364000I-1270000J0D01*
G01*
X146558000Y-108204000D02*
X154178000Y-108204000D01*
X145288000Y-109474000D02*
G75*
G02X146558000Y-108204000I1270000J0D01*
G01*
X145288000Y-117094000D02*
X145288000Y-109474000D01*
X146558000Y-118364000D02*
X154178000Y-118364000D01*
D13*
X157655142Y-116697142D02*
X158321809Y-116697142D01*
X158607523Y-117744761D02*
X157655142Y-117744761D01*
X157655142Y-115744761D01*
X158607523Y-115744761D01*
X159464666Y-117744761D02*
X159464666Y-115744761D01*
X160607523Y-117744761D01*
X160607523Y-115744761D01*
X161274190Y-115744761D02*
X162417047Y-115744761D01*
X161845619Y-117744761D02*
X161845619Y-115744761D01*
X163083714Y-116697142D02*
X163750380Y-116697142D01*
X164036095Y-117744761D02*
X163083714Y-117744761D01*
X163083714Y-115744761D01*
X164036095Y-115744761D01*
X166036095Y-117744761D02*
X165369428Y-116792380D01*
X164893238Y-117744761D02*
X164893238Y-115744761D01*
X165655142Y-115744761D01*
X165845619Y-115840000D01*
X165940857Y-115935238D01*
X166036095Y-116125714D01*
X166036095Y-116411428D01*
X165940857Y-116601904D01*
X165845619Y-116697142D01*
X165655142Y-116792380D01*
X164893238Y-116792380D01*
D12*
X164671428Y-111168571D02*
X164671428Y-109668571D01*
X165528571Y-111168571D01*
X165528571Y-109668571D01*
X164742857Y-109311428D02*
X164814285Y-109240000D01*
X164957142Y-109168571D01*
X165242857Y-109311428D01*
X165385714Y-109240000D01*
X165457142Y-109168571D01*
D11*
X157988000Y-118364000D02*
G75*
G02X156718000Y-117094000I0J1270000D01*
G01*
X165608000Y-108204000D02*
G75*
G02X166878000Y-109474000I0J-1270000D01*
G01*
X166878000Y-117094000D02*
X166878000Y-109474000D01*
X166878000Y-117094000D02*
G75*
G02X165608000Y-118364000I-1270000J0D01*
G01*
X157988000Y-108204000D02*
X165608000Y-108204000D01*
X156718000Y-109474000D02*
G75*
G02X157988000Y-108204000I1270000J0D01*
G01*
X156718000Y-117094000D02*
X156718000Y-109474000D01*
X157988000Y-118364000D02*
X165608000Y-118364000D01*
D13*
X154924666Y-129079523D02*
X155210380Y-129174761D01*
X155686571Y-129174761D01*
X155877047Y-129079523D01*
X155972285Y-128984285D01*
X156067523Y-128793809D01*
X156067523Y-128603333D01*
X155972285Y-128412857D01*
X155877047Y-128317619D01*
X155686571Y-128222380D01*
X155305619Y-128127142D01*
X155115142Y-128031904D01*
X155019904Y-127936666D01*
X154924666Y-127746190D01*
X154924666Y-127555714D01*
X155019904Y-127365238D01*
X155115142Y-127270000D01*
X155305619Y-127174761D01*
X155781809Y-127174761D01*
X156067523Y-127270000D01*
X156924666Y-129174761D02*
X156924666Y-127174761D01*
X157686571Y-127174761D01*
X157877047Y-127270000D01*
X157972285Y-127365238D01*
X158067523Y-127555714D01*
X158067523Y-127841428D01*
X157972285Y-128031904D01*
X157877047Y-128127142D01*
X157686571Y-128222380D01*
X156924666Y-128222380D01*
X158829428Y-128603333D02*
X159781809Y-128603333D01*
X158638952Y-129174761D02*
X159305619Y-127174761D01*
X159972285Y-129174761D01*
X161781809Y-128984285D02*
X161686571Y-129079523D01*
X161400857Y-129174761D01*
X161210380Y-129174761D01*
X160924666Y-129079523D01*
X160734190Y-128889047D01*
X160638952Y-128698571D01*
X160543714Y-128317619D01*
X160543714Y-128031904D01*
X160638952Y-127650952D01*
X160734190Y-127460476D01*
X160924666Y-127270000D01*
X161210380Y-127174761D01*
X161400857Y-127174761D01*
X161686571Y-127270000D01*
X161781809Y-127365238D01*
X162638952Y-128127142D02*
X163305619Y-128127142D01*
X163591333Y-129174761D02*
X162638952Y-129174761D01*
X162638952Y-127174761D01*
X163591333Y-127174761D01*
D12*
X156543714Y-121269142D02*
X156758000Y-121364380D01*
X156829428Y-121459619D01*
X156900857Y-121650095D01*
X156900857Y-121935809D01*
X156829428Y-122126285D01*
X156758000Y-122221523D01*
X156615142Y-122316761D01*
X156043714Y-122316761D01*
X156043714Y-120316761D01*
X156543714Y-120316761D01*
X156686571Y-120412000D01*
X156758000Y-120507238D01*
X156829428Y-120697714D01*
X156829428Y-120888190D01*
X156758000Y-121078666D01*
X156686571Y-121173904D01*
X156543714Y-121269142D01*
X156043714Y-121269142D01*
X158400857Y-122316761D02*
X157900857Y-121364380D01*
X157543714Y-122316761D02*
X157543714Y-120316761D01*
X158115142Y-120316761D01*
X158258000Y-120412000D01*
X158329428Y-120507238D01*
X158400857Y-120697714D01*
X158400857Y-120983428D01*
X158329428Y-121173904D01*
X158258000Y-121269142D01*
X158115142Y-121364380D01*
X157543714Y-121364380D01*
X159043714Y-121269142D02*
X159543714Y-121269142D01*
X159758000Y-122316761D02*
X159043714Y-122316761D01*
X159043714Y-120316761D01*
X159758000Y-120316761D01*
X160329428Y-121745333D02*
X161043714Y-121745333D01*
X160186571Y-122316761D02*
X160686571Y-120316761D01*
X161186571Y-122316761D01*
X161686571Y-122316761D02*
X161686571Y-120316761D01*
X162543714Y-122316761D02*
X161900857Y-121173904D01*
X162543714Y-120316761D02*
X161686571Y-121459619D01*
D11*
X155448000Y-129794000D02*
G75*
G02X154178000Y-128524000I0J1270000D01*
G01*
X163068000Y-119634000D02*
G75*
G02X164338000Y-120904000I0J-1270000D01*
G01*
X164338000Y-128524000D02*
X164338000Y-120904000D01*
X164338000Y-128524000D02*
G75*
G02X163068000Y-129794000I-1270000J0D01*
G01*
X155448000Y-119634000D02*
X163068000Y-119634000D01*
X154178000Y-120904000D02*
G75*
G02X155448000Y-119634000I1270000J0D01*
G01*
X154178000Y-128524000D02*
X154178000Y-120904000D01*
X155448000Y-129794000D02*
X163068000Y-129794000D01*
D13*
X145526380Y-128603333D02*
X146478761Y-128603333D01*
X145335904Y-129174761D02*
X146002571Y-127174761D01*
X146669238Y-129174761D01*
X148288285Y-129174761D02*
X147335904Y-129174761D01*
X147335904Y-127174761D01*
X148669238Y-127174761D02*
X149812095Y-127174761D01*
X149240666Y-129174761D02*
X149240666Y-127174761D01*
D11*
X144018000Y-129794000D02*
G75*
G02X142748000Y-128524000I0J1270000D01*
G01*
X151638000Y-119634000D02*
G75*
G02X152908000Y-120904000I0J-1270000D01*
G01*
X152908000Y-128524000D02*
X152908000Y-120904000D01*
X152908000Y-128524000D02*
G75*
G02X151638000Y-129794000I-1270000J0D01*
G01*
X144018000Y-119634000D02*
X151638000Y-119634000D01*
X142748000Y-120904000D02*
G75*
G02X144018000Y-119634000I1270000J0D01*
G01*
X142748000Y-128524000D02*
X142748000Y-120904000D01*
X144018000Y-129794000D02*
X151638000Y-129794000D01*
D10*
X154789714Y-105497142D02*
X154789714Y-102497142D01*
X155932571Y-102497142D01*
X156218285Y-102640000D01*
X156361142Y-102782857D01*
X156504000Y-103068571D01*
X156504000Y-103497142D01*
X156361142Y-103782857D01*
X156218285Y-103925714D01*
X155932571Y-104068571D01*
X154789714Y-104068571D01*
X162218285Y-102497142D02*
X162218285Y-103068571D01*
X163361142Y-102497142D02*
X163361142Y-103068571D01*
D11*
X155448000Y-106934000D02*
G75*
G02X154178000Y-105664000I0J1270000D01*
G01*
X163068000Y-96774000D02*
G75*
G02X164338000Y-98044000I0J-1270000D01*
G01*
X164338000Y-105664000D02*
X164338000Y-98044000D01*
X164338000Y-105664000D02*
G75*
G02X163068000Y-106934000I-1270000J0D01*
G01*
X155448000Y-96774000D02*
X163068000Y-96774000D01*
X154178000Y-98044000D02*
G75*
G02X155448000Y-96774000I1270000J0D01*
G01*
X154178000Y-105664000D02*
X154178000Y-98044000D01*
X155448000Y-106934000D02*
X163068000Y-106934000D01*
D10*
X132531333Y-105497142D02*
X132531333Y-102497142D01*
X140264666Y-105497142D02*
X140264666Y-103497142D01*
X140531333Y-102354285D02*
X140131333Y-102782857D01*
D11*
X132588000Y-106934000D02*
G75*
G02X131318000Y-105664000I0J1270000D01*
G01*
X140208000Y-96774000D02*
G75*
G02X141478000Y-98044000I0J-1270000D01*
G01*
X141478000Y-105664000D02*
X141478000Y-98044000D01*
X141478000Y-105664000D02*
G75*
G02X140208000Y-106934000I-1270000J0D01*
G01*
X132588000Y-96774000D02*
X140208000Y-96774000D01*
X131318000Y-98044000D02*
G75*
G02X132588000Y-96774000I1270000J0D01*
G01*
X131318000Y-105664000D02*
X131318000Y-98044000D01*
X132588000Y-106934000D02*
X140208000Y-106934000D01*
D10*
X120768000Y-102497142D02*
X120768000Y-104925714D01*
X120901333Y-105211428D01*
X121034666Y-105354285D01*
X121301333Y-105497142D01*
X121834666Y-105497142D01*
X122101333Y-105354285D01*
X122234666Y-105211428D01*
X122368000Y-104925714D01*
X122368000Y-102497142D01*
X129168000Y-103497142D02*
X129168000Y-105497142D01*
X127968000Y-103497142D02*
X127968000Y-105068571D01*
X128101333Y-105354285D01*
X128368000Y-105497142D01*
X128768000Y-105497142D01*
X129034666Y-105354285D01*
X129168000Y-105211428D01*
X128901333Y-102354285D02*
X128501333Y-102782857D01*
D11*
X121158000Y-106934000D02*
G75*
G02X119888000Y-105664000I0J1270000D01*
G01*
X128778000Y-96774000D02*
G75*
G02X130048000Y-98044000I0J-1270000D01*
G01*
X130048000Y-105664000D02*
X130048000Y-98044000D01*
X130048000Y-105664000D02*
G75*
G02X128778000Y-106934000I-1270000J0D01*
G01*
X121158000Y-96774000D02*
X128778000Y-96774000D01*
X119888000Y-98044000D02*
G75*
G02X121158000Y-96774000I1270000J0D01*
G01*
X119888000Y-105664000D02*
X119888000Y-98044000D01*
X121158000Y-106934000D02*
X128778000Y-106934000D01*
D10*
X144161333Y-102497142D02*
X144694666Y-102497142D01*
X144961333Y-102640000D01*
X145228000Y-102925714D01*
X145361333Y-103497142D01*
X145361333Y-104497142D01*
X145228000Y-105068571D01*
X144961333Y-105354285D01*
X144694666Y-105497142D01*
X144161333Y-105497142D01*
X143894666Y-105354285D01*
X143628000Y-105068571D01*
X143494666Y-104497142D01*
X143494666Y-103497142D01*
X143628000Y-102925714D01*
X143894666Y-102640000D01*
X144161333Y-102497142D01*
X151228000Y-105497142D02*
X150961333Y-105354285D01*
X150828000Y-105211428D01*
X150694666Y-104925714D01*
X150694666Y-104068571D01*
X150828000Y-103782857D01*
X150961333Y-103640000D01*
X151228000Y-103497142D01*
X151628000Y-103497142D01*
X151894666Y-103640000D01*
X152028000Y-103782857D01*
X152161333Y-104068571D01*
X152161333Y-104925714D01*
X152028000Y-105211428D01*
X151894666Y-105354285D01*
X151628000Y-105497142D01*
X151228000Y-105497142D01*
X151761333Y-102354285D02*
X151361333Y-102782857D01*
D11*
X144018000Y-106934000D02*
G75*
G02X142748000Y-105664000I0J1270000D01*
G01*
X151638000Y-96774000D02*
G75*
G02X152908000Y-98044000I0J-1270000D01*
G01*
X152908000Y-105664000D02*
X152908000Y-98044000D01*
X152908000Y-105664000D02*
G75*
G02X151638000Y-106934000I-1270000J0D01*
G01*
X144018000Y-96774000D02*
X151638000Y-96774000D01*
X142748000Y-98044000D02*
G75*
G02X144018000Y-96774000I1270000J0D01*
G01*
X142748000Y-105664000D02*
X142748000Y-98044000D01*
X144018000Y-106934000D02*
X151638000Y-106934000D01*
D10*
X110138000Y-104068571D02*
X110138000Y-105497142D01*
X109204666Y-102497142D02*
X110138000Y-104068571D01*
X111071333Y-102497142D01*
X117471333Y-103497142D02*
X117471333Y-105497142D01*
X116271333Y-103497142D02*
X116271333Y-105068571D01*
X116404666Y-105354285D01*
X116671333Y-105497142D01*
X117071333Y-105497142D01*
X117338000Y-105354285D01*
X117471333Y-105211428D01*
X116404666Y-102497142D02*
X116538000Y-102640000D01*
X116404666Y-102782857D01*
X116271333Y-102640000D01*
X116404666Y-102497142D01*
X116404666Y-102782857D01*
X117471333Y-102497142D02*
X117604666Y-102640000D01*
X117471333Y-102782857D01*
X117338000Y-102640000D01*
X117471333Y-102497142D01*
X117471333Y-102782857D01*
D11*
X109728000Y-106934000D02*
G75*
G02X108458000Y-105664000I0J1270000D01*
G01*
X117348000Y-96774000D02*
G75*
G02X118618000Y-98044000I0J-1270000D01*
G01*
X118618000Y-105664000D02*
X118618000Y-98044000D01*
X118618000Y-105664000D02*
G75*
G02X117348000Y-106934000I-1270000J0D01*
G01*
X109728000Y-96774000D02*
X117348000Y-96774000D01*
X108458000Y-98044000D02*
G75*
G02X109728000Y-96774000I1270000J0D01*
G01*
X108458000Y-105664000D02*
X108458000Y-98044000D01*
X109728000Y-106934000D02*
X117348000Y-106934000D01*
X140208000Y-119634000D02*
G75*
G02X141478000Y-120904000I0J-1270000D01*
G01*
X141478000Y-128524000D02*
X141478000Y-120904000D01*
X131318000Y-128524000D02*
X131318000Y-120904000D01*
X132588000Y-119634000D02*
X140208000Y-119634000D01*
X131318000Y-120904000D02*
G75*
G02X132588000Y-119634000I1270000J0D01*
G01*
X132588000Y-129794000D02*
G75*
G02X131318000Y-128524000I0J1270000D01*
G01*
X132588000Y-129794000D02*
X140208000Y-129794000D01*
X141478000Y-128524000D02*
G75*
G02X140208000Y-129794000I-1270000J0D01*
G01*
D10*
X132144000Y-128357142D02*
X132144000Y-125357142D01*
X133144000Y-127500000D01*
X134144000Y-125357142D01*
X134144000Y-128357142D01*
X140144000Y-128071428D02*
X140286857Y-128214285D01*
X140144000Y-128357142D01*
X140001142Y-128214285D01*
X140144000Y-128071428D01*
X140144000Y-128357142D01*
D11*
X152908000Y-95504000D02*
X160528000Y-95504000D01*
X161798000Y-94234000D02*
X161798000Y-86614000D01*
D10*
X153130666Y-91067142D02*
X153397333Y-91067142D01*
X153664000Y-91210000D01*
X153797333Y-91352857D01*
X153930666Y-91638571D01*
X154064000Y-92210000D01*
X154064000Y-92924285D01*
X153930666Y-93495714D01*
X153797333Y-93781428D01*
X153664000Y-93924285D01*
X153397333Y-94067142D01*
X153130666Y-94067142D01*
X152864000Y-93924285D01*
X152730666Y-93781428D01*
X152597333Y-93495714D01*
X152464000Y-92924285D01*
X152464000Y-92210000D01*
X152597333Y-91638571D01*
X152730666Y-91352857D01*
X152864000Y-91210000D01*
X153130666Y-91067142D01*
X158864000Y-94352857D02*
X160997333Y-94352857D01*
D11*
X151638000Y-86614000D02*
G75*
G02X152908000Y-85344000I1270000J0D01*
G01*
X151638000Y-94234000D02*
X151638000Y-86614000D01*
X152908000Y-85344000D02*
X160528000Y-85344000D01*
X160528000Y-85344000D02*
G75*
G02X161798000Y-86614000I0J-1270000D01*
G01*
X152908000Y-95504000D02*
G75*
G02X151638000Y-94234000I0J1270000D01*
G01*
X161798000Y-94234000D02*
G75*
G02X160528000Y-95504000I-1270000J0D01*
G01*
D12*
X153218000Y-86979142D02*
X153432285Y-87074380D01*
X153503714Y-87169619D01*
X153575142Y-87360095D01*
X153575142Y-87645809D01*
X153503714Y-87836285D01*
X153432285Y-87931523D01*
X153289428Y-88026761D01*
X152718000Y-88026761D01*
X152718000Y-86026761D01*
X153218000Y-86026761D01*
X153360857Y-86122000D01*
X153432285Y-86217238D01*
X153503714Y-86407714D01*
X153503714Y-86598190D01*
X153432285Y-86788666D01*
X153360857Y-86883904D01*
X153218000Y-86979142D01*
X152718000Y-86979142D01*
X154146571Y-87455333D02*
X154860857Y-87455333D01*
X154003714Y-88026761D02*
X154503714Y-86026761D01*
X155003714Y-88026761D01*
X156360857Y-87836285D02*
X156289428Y-87931523D01*
X156075142Y-88026761D01*
X155932285Y-88026761D01*
X155718000Y-87931523D01*
X155575142Y-87741047D01*
X155503714Y-87550571D01*
X155432285Y-87169619D01*
X155432285Y-86883904D01*
X155503714Y-86502952D01*
X155575142Y-86312476D01*
X155718000Y-86122000D01*
X155932285Y-86026761D01*
X156075142Y-86026761D01*
X156289428Y-86122000D01*
X156360857Y-86217238D01*
X157003714Y-88026761D02*
X157003714Y-86026761D01*
X157860857Y-88026761D02*
X157218000Y-86883904D01*
X157860857Y-86026761D02*
X157003714Y-87169619D01*
X158432285Y-87931523D02*
X158646571Y-88026761D01*
X159003714Y-88026761D01*
X159146571Y-87931523D01*
X159218000Y-87836285D01*
X159289428Y-87645809D01*
X159289428Y-87455333D01*
X159218000Y-87264857D01*
X159146571Y-87169619D01*
X159003714Y-87074380D01*
X158718000Y-86979142D01*
X158575142Y-86883904D01*
X158503714Y-86788666D01*
X158432285Y-86598190D01*
X158432285Y-86407714D01*
X158503714Y-86217238D01*
X158575142Y-86122000D01*
X158718000Y-86026761D01*
X159075142Y-86026761D01*
X159289428Y-86122000D01*
X159932285Y-88026761D02*
X159932285Y-86026761D01*
X160503714Y-86026761D01*
X160646571Y-86122000D01*
X160718000Y-86217238D01*
X160789428Y-86407714D01*
X160789428Y-86693428D01*
X160718000Y-86883904D01*
X160646571Y-86979142D01*
X160503714Y-87074380D01*
X159932285Y-87074380D01*
D11*
X141478000Y-95504000D02*
X149098000Y-95504000D01*
X150368000Y-94234000D02*
X150368000Y-86614000D01*
D10*
X141815000Y-94067142D02*
X142348333Y-94067142D01*
X142615000Y-93924285D01*
X142748333Y-93781428D01*
X143015000Y-93352857D01*
X143148333Y-92781428D01*
X143148333Y-91638571D01*
X143015000Y-91352857D01*
X142881666Y-91210000D01*
X142615000Y-91067142D01*
X142081666Y-91067142D01*
X141815000Y-91210000D01*
X141681666Y-91352857D01*
X141548333Y-91638571D01*
X141548333Y-92352857D01*
X141681666Y-92638571D01*
X141815000Y-92781428D01*
X142081666Y-92924285D01*
X142615000Y-92924285D01*
X142881666Y-92781428D01*
X143015000Y-92638571D01*
X143148333Y-92352857D01*
X148348333Y-95210000D02*
X148481666Y-95067142D01*
X148748333Y-94638571D01*
X148881666Y-94352857D01*
X149015000Y-93924285D01*
X149148333Y-93210000D01*
X149148333Y-92638571D01*
X149015000Y-91924285D01*
X148881666Y-91495714D01*
X148748333Y-91210000D01*
X148481666Y-90781428D01*
X148348333Y-90638571D01*
D11*
X140208000Y-86614000D02*
G75*
G02X141478000Y-85344000I1270000J0D01*
G01*
X140208000Y-94234000D02*
X140208000Y-86614000D01*
X141478000Y-85344000D02*
X149098000Y-85344000D01*
X149098000Y-85344000D02*
G75*
G02X150368000Y-86614000I0J-1270000D01*
G01*
X141478000Y-95504000D02*
G75*
G02X140208000Y-94234000I0J1270000D01*
G01*
X150368000Y-94234000D02*
G75*
G02X149098000Y-95504000I-1270000J0D01*
G01*
D13*
X141541110Y-87836285D02*
X141462538Y-87931523D01*
X141250633Y-88026761D01*
X141117300Y-88026761D01*
X140929205Y-87931523D01*
X140819681Y-87741047D01*
X140776824Y-87550571D01*
X140757776Y-87169619D01*
X140793491Y-86883904D01*
X140907776Y-86502952D01*
X140998252Y-86312476D01*
X141155395Y-86122000D01*
X141367300Y-86026761D01*
X141500633Y-86026761D01*
X141688729Y-86122000D01*
X141743491Y-86217238D01*
X142633967Y-86026761D02*
X142900633Y-86026761D01*
X143022062Y-86122000D01*
X143131586Y-86312476D01*
X143150633Y-86693428D01*
X143067300Y-87360095D01*
X142953014Y-87741047D01*
X142795872Y-87931523D01*
X142650633Y-88026761D01*
X142383967Y-88026761D01*
X142262538Y-87931523D01*
X142153014Y-87741047D01*
X142133967Y-87360095D01*
X142217300Y-86693428D01*
X142331586Y-86312476D01*
X142488729Y-86122000D01*
X142633967Y-86026761D01*
X143583967Y-88026761D02*
X143833967Y-86026761D01*
X144383967Y-88026761D01*
X144633967Y-86026761D01*
X145100633Y-86026761D02*
X145900633Y-86026761D01*
X145250633Y-88026761D02*
X145500633Y-86026761D01*
X146917300Y-88026761D02*
X146569681Y-87074380D01*
X146117300Y-88026761D02*
X146367300Y-86026761D01*
X146900633Y-86026761D01*
X147022062Y-86122000D01*
X147076824Y-86217238D01*
X147119681Y-86407714D01*
X147083967Y-86693428D01*
X146993491Y-86883904D01*
X146914919Y-86979142D01*
X146769681Y-87074380D01*
X146236348Y-87074380D01*
X148033967Y-86026761D02*
X148300633Y-86026761D01*
X148422062Y-86122000D01*
X148531586Y-86312476D01*
X148550633Y-86693428D01*
X148467300Y-87360095D01*
X148353014Y-87741047D01*
X148195872Y-87931523D01*
X148050633Y-88026761D01*
X147783967Y-88026761D01*
X147662538Y-87931523D01*
X147553014Y-87741047D01*
X147533967Y-87360095D01*
X147617300Y-86693428D01*
X147731586Y-86312476D01*
X147888729Y-86122000D01*
X148033967Y-86026761D01*
X149650633Y-88026761D02*
X148983967Y-88026761D01*
X149233967Y-86026761D01*
D11*
X130048000Y-95504000D02*
X137668000Y-95504000D01*
X138938000Y-94234000D02*
X138938000Y-86614000D01*
D10*
X130270666Y-92352857D02*
X130004000Y-92210000D01*
X129870666Y-92067142D01*
X129737333Y-91781428D01*
X129737333Y-91638571D01*
X129870666Y-91352857D01*
X130004000Y-91210000D01*
X130270666Y-91067142D01*
X130804000Y-91067142D01*
X131070666Y-91210000D01*
X131204000Y-91352857D01*
X131337333Y-91638571D01*
X131337333Y-91781428D01*
X131204000Y-92067142D01*
X131070666Y-92210000D01*
X130804000Y-92352857D01*
X130270666Y-92352857D01*
X130004000Y-92495714D01*
X129870666Y-92638571D01*
X129737333Y-92924285D01*
X129737333Y-93495714D01*
X129870666Y-93781428D01*
X130004000Y-93924285D01*
X130270666Y-94067142D01*
X130804000Y-94067142D01*
X131070666Y-93924285D01*
X131204000Y-93781428D01*
X131337333Y-93495714D01*
X131337333Y-92924285D01*
X131204000Y-92638571D01*
X131070666Y-92495714D01*
X130804000Y-92352857D01*
X137604000Y-95210000D02*
X137470666Y-95067142D01*
X137204000Y-94638571D01*
X137070666Y-94352857D01*
X136937333Y-93924285D01*
X136804000Y-93210000D01*
X136804000Y-92638571D01*
X136937333Y-91924285D01*
X137070666Y-91495714D01*
X137204000Y-91210000D01*
X137470666Y-90781428D01*
X137604000Y-90638571D01*
D11*
X128778000Y-86614000D02*
G75*
G02X130048000Y-85344000I1270000J0D01*
G01*
X128778000Y-94234000D02*
X128778000Y-86614000D01*
X130048000Y-85344000D02*
X137668000Y-85344000D01*
X137668000Y-85344000D02*
G75*
G02X138938000Y-86614000I0J-1270000D01*
G01*
X130048000Y-95504000D02*
G75*
G02X128778000Y-94234000I0J1270000D01*
G01*
X138938000Y-94234000D02*
G75*
G02X137668000Y-95504000I-1270000J0D01*
G01*
D14*
X132207238Y-87225142D02*
X136016761Y-87225142D01*
X135064380Y-88177523D02*
X136016761Y-87225142D01*
X135064380Y-86272761D01*
D11*
X118618000Y-95504000D02*
X126238000Y-95504000D01*
X127508000Y-94234000D02*
X127508000Y-86614000D01*
D10*
X117920000Y-91067142D02*
X119920000Y-91067142D01*
X118634285Y-94067142D01*
X125777142Y-91067142D02*
X125491428Y-91638571D01*
D11*
X117348000Y-86614000D02*
G75*
G02X118618000Y-85344000I1270000J0D01*
G01*
X117348000Y-94234000D02*
X117348000Y-86614000D01*
X118618000Y-85344000D02*
X126238000Y-85344000D01*
X126238000Y-85344000D02*
G75*
G02X127508000Y-86614000I0J-1270000D01*
G01*
X118618000Y-95504000D02*
G75*
G02X117348000Y-94234000I0J1270000D01*
G01*
X127508000Y-94234000D02*
G75*
G02X126238000Y-95504000I-1270000J0D01*
G01*
D14*
X122428000Y-88225142D02*
X122428000Y-85939428D01*
X121475619Y-86510857D02*
X122428000Y-85939428D01*
X123380380Y-86510857D01*
D11*
X107188000Y-95504000D02*
X114808000Y-95504000D01*
X116078000Y-94234000D02*
X116078000Y-86614000D01*
D10*
X107791666Y-91067142D02*
X107258333Y-91067142D01*
X106991666Y-91210000D01*
X106858333Y-91352857D01*
X106591666Y-91781428D01*
X106458333Y-92352857D01*
X106458333Y-93495714D01*
X106591666Y-93781428D01*
X106725000Y-93924285D01*
X106991666Y-94067142D01*
X107525000Y-94067142D01*
X107791666Y-93924285D01*
X107925000Y-93781428D01*
X108058333Y-93495714D01*
X108058333Y-92781428D01*
X107925000Y-92495714D01*
X107791666Y-92352857D01*
X107525000Y-92210000D01*
X106991666Y-92210000D01*
X106725000Y-92352857D01*
X106591666Y-92495714D01*
X106458333Y-92781428D01*
X115791666Y-94067142D02*
X115658333Y-94067142D01*
X115391666Y-93924285D01*
X114991666Y-93495714D01*
X114325000Y-92638571D01*
X114058333Y-92210000D01*
X113925000Y-91781428D01*
X113925000Y-91495714D01*
X114058333Y-91210000D01*
X114325000Y-91067142D01*
X114458333Y-91067142D01*
X114725000Y-91210000D01*
X114858333Y-91495714D01*
X114858333Y-91638571D01*
X114725000Y-91924285D01*
X114591666Y-92067142D01*
X113791666Y-92638571D01*
X113658333Y-92781428D01*
X113525000Y-93067142D01*
X113525000Y-93495714D01*
X113658333Y-93781428D01*
X113791666Y-93924285D01*
X114058333Y-94067142D01*
X114458333Y-94067142D01*
X114725000Y-93924285D01*
X114858333Y-93781428D01*
X115258333Y-93210000D01*
X115391666Y-92781428D01*
X115391666Y-92495714D01*
D11*
X105918000Y-86614000D02*
G75*
G02X107188000Y-85344000I1270000J0D01*
G01*
X105918000Y-94234000D02*
X105918000Y-86614000D01*
X107188000Y-85344000D02*
X114808000Y-85344000D01*
X114808000Y-85344000D02*
G75*
G02X116078000Y-86614000I0J-1270000D01*
G01*
X107188000Y-95504000D02*
G75*
G02X105918000Y-94234000I0J1270000D01*
G01*
X116078000Y-94234000D02*
G75*
G02X114808000Y-95504000I-1270000J0D01*
G01*
D14*
X110998000Y-85685428D02*
X110998000Y-87971142D01*
X111950380Y-87399714D02*
X110998000Y-87971142D01*
X110045619Y-87399714D01*
D11*
X95758000Y-95504000D02*
X103378000Y-95504000D01*
X104648000Y-94234000D02*
X104648000Y-86614000D01*
D10*
X96628333Y-91067142D02*
X95295000Y-91067142D01*
X95161666Y-92495714D01*
X95295000Y-92352857D01*
X95561666Y-92210000D01*
X96228333Y-92210000D01*
X96495000Y-92352857D01*
X96628333Y-92495714D01*
X96761666Y-92781428D01*
X96761666Y-93495714D01*
X96628333Y-93781428D01*
X96495000Y-93924285D01*
X96228333Y-94067142D01*
X95561666Y-94067142D01*
X95295000Y-93924285D01*
X95161666Y-93781428D01*
X102095000Y-94067142D02*
X104228333Y-91067142D01*
X102495000Y-91067142D02*
X102761666Y-91210000D01*
X102895000Y-91495714D01*
X102761666Y-91781428D01*
X102495000Y-91924285D01*
X102228333Y-91781428D01*
X102095000Y-91495714D01*
X102228333Y-91210000D01*
X102495000Y-91067142D01*
X104095000Y-93924285D02*
X104228333Y-93638571D01*
X104095000Y-93352857D01*
X103828333Y-93210000D01*
X103561666Y-93352857D01*
X103428333Y-93638571D01*
X103561666Y-93924285D01*
X103828333Y-94067142D01*
X104095000Y-93924285D01*
D11*
X94488000Y-86614000D02*
G75*
G02X95758000Y-85344000I1270000J0D01*
G01*
X94488000Y-94234000D02*
X94488000Y-86614000D01*
X95758000Y-85344000D02*
X103378000Y-85344000D01*
X103378000Y-85344000D02*
G75*
G02X104648000Y-86614000I0J-1270000D01*
G01*
X95758000Y-95504000D02*
G75*
G02X94488000Y-94234000I0J1270000D01*
G01*
X104648000Y-94234000D02*
G75*
G02X103378000Y-95504000I-1270000J0D01*
G01*
D14*
X101218761Y-87225142D02*
X97409238Y-87225142D01*
X98361619Y-88177523D02*
X97409238Y-87225142D01*
X98361619Y-86272761D01*
D15*
X43180000Y-110490000D02*
X46990000Y-114300000D01*
X43180000Y-110490000D02*
X39370000Y-114300000D01*
X43180000Y-105664000D02*
X43180000Y-110490000D01*
X38100000Y-106680000D02*
X48260000Y-106680000D01*
X38100000Y-106680000D02*
G75*
G02X48260000Y-106680000I5080000J0D01*
G01*
X44680000Y-104140000D02*
G75*
G03X44680000Y-104140000I-1500000J0D01*
G01*
D11*
X86868000Y-129794000D02*
X94488000Y-129794000D01*
X95758000Y-128524000D02*
X95758000Y-120904000D01*
D10*
X88162142Y-128071428D02*
X88019285Y-128214285D01*
X87590714Y-128357142D01*
X87305000Y-128357142D01*
X86876428Y-128214285D01*
X86590714Y-127928571D01*
X86447857Y-127642857D01*
X86305000Y-127071428D01*
X86305000Y-126642857D01*
X86447857Y-126071428D01*
X86590714Y-125785714D01*
X86876428Y-125500000D01*
X87305000Y-125357142D01*
X87590714Y-125357142D01*
X88019285Y-125500000D01*
X88162142Y-125642857D01*
X94447857Y-128071428D02*
X94590714Y-128214285D01*
X94447857Y-128357142D01*
X94305000Y-128214285D01*
X94447857Y-128071428D01*
X94447857Y-128357142D01*
X93876428Y-125500000D02*
X94162142Y-125357142D01*
X94876428Y-125357142D01*
X95162142Y-125500000D01*
X95305000Y-125785714D01*
X95305000Y-126071428D01*
X95162142Y-126357142D01*
X95019285Y-126500000D01*
X94733571Y-126642857D01*
X94590714Y-126785714D01*
X94447857Y-127071428D01*
X94447857Y-127214285D01*
D11*
X85598000Y-120904000D02*
G75*
G02X86868000Y-119634000I1270000J0D01*
G01*
X85598000Y-128524000D02*
X85598000Y-120904000D01*
X86868000Y-119634000D02*
X94488000Y-119634000D01*
X94488000Y-119634000D02*
G75*
G02X95758000Y-120904000I0J-1270000D01*
G01*
X86868000Y-129794000D02*
G75*
G02X85598000Y-128524000I0J1270000D01*
G01*
X95758000Y-128524000D02*
G75*
G02X94488000Y-129794000I-1270000J0D01*
G01*
X86868000Y-106934000D02*
X94488000Y-106934000D01*
X95758000Y-105664000D02*
X95758000Y-98044000D01*
D10*
X87805000Y-105497142D02*
X86871666Y-104068571D01*
X86205000Y-105497142D02*
X86205000Y-102497142D01*
X87271666Y-102497142D01*
X87538333Y-102640000D01*
X87671666Y-102782857D01*
X87805000Y-103068571D01*
X87805000Y-103497142D01*
X87671666Y-103782857D01*
X87538333Y-103925714D01*
X87271666Y-104068571D01*
X86205000Y-104068571D01*
X95405000Y-103497142D02*
X93271666Y-104354285D01*
X95405000Y-105211428D01*
D11*
X85598000Y-98044000D02*
G75*
G02X86868000Y-96774000I1270000J0D01*
G01*
X85598000Y-105664000D02*
X85598000Y-98044000D01*
X86868000Y-96774000D02*
X94488000Y-96774000D01*
X94488000Y-96774000D02*
G75*
G02X95758000Y-98044000I0J-1270000D01*
G01*
X86868000Y-106934000D02*
G75*
G02X85598000Y-105664000I0J1270000D01*
G01*
X95758000Y-105664000D02*
G75*
G02X94488000Y-106934000I-1270000J0D01*
G01*
D12*
X94805428Y-99159142D02*
X93662571Y-99159142D01*
X94805428Y-98873428D02*
X93662571Y-98444857D01*
X94805428Y-98016285D01*
D11*
X84328000Y-95504000D02*
X91948000Y-95504000D01*
X93218000Y-94234000D02*
X93218000Y-86614000D01*
D10*
X85122142Y-92067142D02*
X85122142Y-94067142D01*
X84407857Y-90924285D02*
X83693571Y-93067142D01*
X85550714Y-93067142D01*
X91122142Y-93924285D02*
X91550714Y-94067142D01*
X92265000Y-94067142D01*
X92550714Y-93924285D01*
X92693571Y-93781428D01*
X92836428Y-93495714D01*
X92836428Y-93210000D01*
X92693571Y-92924285D01*
X92550714Y-92781428D01*
X92265000Y-92638571D01*
X91693571Y-92495714D01*
X91407857Y-92352857D01*
X91265000Y-92210000D01*
X91122142Y-91924285D01*
X91122142Y-91638571D01*
X91265000Y-91352857D01*
X91407857Y-91210000D01*
X91693571Y-91067142D01*
X92407857Y-91067142D01*
X92836428Y-91210000D01*
X91979285Y-90638571D02*
X91979285Y-94495714D01*
D11*
X83058000Y-86614000D02*
G75*
G02X84328000Y-85344000I1270000J0D01*
G01*
X83058000Y-94234000D02*
X83058000Y-86614000D01*
X84328000Y-85344000D02*
X91948000Y-85344000D01*
X91948000Y-85344000D02*
G75*
G02X93218000Y-86614000I0J-1270000D01*
G01*
X84328000Y-95504000D02*
G75*
G02X83058000Y-94234000I0J1270000D01*
G01*
X93218000Y-94234000D02*
G75*
G02X91948000Y-95504000I-1270000J0D01*
G01*
D12*
X86709428Y-88026761D02*
X86709428Y-86026761D01*
X87423714Y-88026761D02*
X87423714Y-86026761D01*
X88280857Y-88026761D01*
X88280857Y-86026761D01*
X88780857Y-86026761D02*
X89280857Y-88026761D01*
X89780857Y-86026761D01*
D11*
X72898000Y-95504000D02*
X80518000Y-95504000D01*
X81788000Y-94234000D02*
X81788000Y-86614000D01*
D10*
X72368333Y-91067142D02*
X74101666Y-91067142D01*
X73168333Y-92210000D01*
X73568333Y-92210000D01*
X73835000Y-92352857D01*
X73968333Y-92495714D01*
X74101666Y-92781428D01*
X74101666Y-93495714D01*
X73968333Y-93781428D01*
X73835000Y-93924285D01*
X73568333Y-94067142D01*
X72768333Y-94067142D01*
X72501666Y-93924285D01*
X72368333Y-93781428D01*
X79435000Y-92067142D02*
X81435000Y-92067142D01*
X80235000Y-90781428D02*
X79435000Y-94638571D01*
X81168333Y-93352857D02*
X79168333Y-93352857D01*
X80368333Y-94638571D02*
X81168333Y-90781428D01*
D11*
X71628000Y-86614000D02*
G75*
G02X72898000Y-85344000I1270000J0D01*
G01*
X71628000Y-94234000D02*
X71628000Y-86614000D01*
X72898000Y-85344000D02*
X80518000Y-85344000D01*
X80518000Y-85344000D02*
G75*
G02X81788000Y-86614000I0J-1270000D01*
G01*
X72898000Y-95504000D02*
G75*
G02X71628000Y-94234000I0J1270000D01*
G01*
X81788000Y-94234000D02*
G75*
G02X80518000Y-95504000I-1270000J0D01*
G01*
D12*
X73886571Y-88026761D02*
X73886571Y-86026761D01*
X74743714Y-88026761D01*
X74743714Y-86026761D01*
X75743714Y-86026761D02*
X76029428Y-86026761D01*
X76172285Y-86122000D01*
X76315142Y-86312476D01*
X76386571Y-86693428D01*
X76386571Y-87360095D01*
X76315142Y-87741047D01*
X76172285Y-87931523D01*
X76029428Y-88026761D01*
X75743714Y-88026761D01*
X75600857Y-87931523D01*
X75458000Y-87741047D01*
X75386571Y-87360095D01*
X75386571Y-86693428D01*
X75458000Y-86312476D01*
X75600857Y-86122000D01*
X75743714Y-86026761D01*
X77886571Y-88026761D02*
X77386571Y-87074380D01*
X77029428Y-88026761D02*
X77029428Y-86026761D01*
X77600857Y-86026761D01*
X77743714Y-86122000D01*
X77815142Y-86217238D01*
X77886571Y-86407714D01*
X77886571Y-86693428D01*
X77815142Y-86883904D01*
X77743714Y-86979142D01*
X77600857Y-87074380D01*
X77029428Y-87074380D01*
X78529428Y-88026761D02*
X78529428Y-86026761D01*
X79029428Y-87455333D01*
X79529428Y-86026761D01*
X79529428Y-88026761D01*
D11*
X75438000Y-106934000D02*
X83058000Y-106934000D01*
X84328000Y-105664000D02*
X84328000Y-98044000D01*
D10*
X75160714Y-103925714D02*
X76160714Y-103925714D01*
X76589285Y-105497142D02*
X75160714Y-105497142D01*
X75160714Y-102497142D01*
X76589285Y-102497142D01*
X83589285Y-105354285D02*
X83303571Y-105497142D01*
X82732142Y-105497142D01*
X82446428Y-105354285D01*
X82303571Y-105068571D01*
X82303571Y-103925714D01*
X82446428Y-103640000D01*
X82732142Y-103497142D01*
X83303571Y-103497142D01*
X83589285Y-103640000D01*
X83732142Y-103925714D01*
X83732142Y-104211428D01*
X82303571Y-104497142D01*
X83303571Y-102354285D02*
X82875000Y-102782857D01*
D11*
X74168000Y-98044000D02*
G75*
G02X75438000Y-96774000I1270000J0D01*
G01*
X74168000Y-105664000D02*
X74168000Y-98044000D01*
X75438000Y-96774000D02*
X83058000Y-96774000D01*
X83058000Y-96774000D02*
G75*
G02X84328000Y-98044000I0J-1270000D01*
G01*
X75438000Y-106934000D02*
G75*
G02X74168000Y-105664000I0J1270000D01*
G01*
X84328000Y-105664000D02*
G75*
G02X83058000Y-106934000I-1270000J0D01*
G01*
X64008000Y-106934000D02*
X71628000Y-106934000D01*
X72898000Y-105664000D02*
X72898000Y-98044000D01*
D10*
X63230666Y-102497142D02*
X63897333Y-105497142D01*
X64430666Y-103354285D01*
X64964000Y-105497142D01*
X65630666Y-102497142D01*
X70564000Y-104354285D02*
X70697333Y-104211428D01*
X70964000Y-104068571D01*
X71497333Y-104354285D01*
X71764000Y-104211428D01*
X71897333Y-104068571D01*
D11*
X62738000Y-98044000D02*
G75*
G02X64008000Y-96774000I1270000J0D01*
G01*
X62738000Y-105664000D02*
X62738000Y-98044000D01*
X64008000Y-96774000D02*
X71628000Y-96774000D01*
X71628000Y-96774000D02*
G75*
G02X72898000Y-98044000I0J-1270000D01*
G01*
X64008000Y-106934000D02*
G75*
G02X62738000Y-105664000I0J1270000D01*
G01*
X72898000Y-105664000D02*
G75*
G02X71628000Y-106934000I-1270000J0D01*
G01*
X61468000Y-95504000D02*
X69088000Y-95504000D01*
X70358000Y-94234000D02*
X70358000Y-86614000D01*
D10*
X61111190Y-91352857D02*
X61232142Y-91210000D01*
X61474047Y-91067142D01*
X62078809Y-91067142D01*
X62320714Y-91210000D01*
X62441666Y-91352857D01*
X62562619Y-91638571D01*
X62562619Y-91924285D01*
X62441666Y-92352857D01*
X60990238Y-94067142D01*
X62562619Y-94067142D01*
X69094047Y-92638571D02*
X68973095Y-92495714D01*
X68731190Y-92352857D01*
X68489285Y-92352857D01*
X68247380Y-92495714D01*
X68126428Y-92638571D01*
X68005476Y-92924285D01*
X68005476Y-93210000D01*
X68126428Y-93495714D01*
X68247380Y-93638571D01*
X68489285Y-93781428D01*
X68731190Y-93781428D01*
X68973095Y-93638571D01*
X69094047Y-93495714D01*
X69094047Y-92352857D02*
X69094047Y-93495714D01*
X69215000Y-93638571D01*
X69335952Y-93638571D01*
X69577857Y-93495714D01*
X69698809Y-93210000D01*
X69698809Y-92495714D01*
X69456904Y-92067142D01*
X69094047Y-91781428D01*
X68610238Y-91638571D01*
X68126428Y-91781428D01*
X67763571Y-92067142D01*
X67521666Y-92495714D01*
X67400714Y-93067142D01*
X67521666Y-93638571D01*
X67763571Y-94067142D01*
X68126428Y-94352857D01*
X68610238Y-94495714D01*
X69094047Y-94352857D01*
X69456904Y-94067142D01*
D11*
X60198000Y-86614000D02*
G75*
G02X61468000Y-85344000I1270000J0D01*
G01*
X60198000Y-94234000D02*
X60198000Y-86614000D01*
X61468000Y-85344000D02*
X69088000Y-85344000D01*
X69088000Y-85344000D02*
G75*
G02X70358000Y-86614000I0J-1270000D01*
G01*
X61468000Y-95504000D02*
G75*
G02X60198000Y-94234000I0J1270000D01*
G01*
X70358000Y-94234000D02*
G75*
G02X69088000Y-95504000I-1270000J0D01*
G01*
D12*
X63456571Y-86026761D02*
X64313714Y-86026761D01*
X63885142Y-88026761D02*
X63885142Y-86026761D01*
X64742285Y-87455333D02*
X65456571Y-87455333D01*
X64599428Y-88026761D02*
X65099428Y-86026761D01*
X65599428Y-88026761D01*
X66599428Y-86979142D02*
X66813714Y-87074380D01*
X66885142Y-87169619D01*
X66956571Y-87360095D01*
X66956571Y-87645809D01*
X66885142Y-87836285D01*
X66813714Y-87931523D01*
X66670857Y-88026761D01*
X66099428Y-88026761D01*
X66099428Y-86026761D01*
X66599428Y-86026761D01*
X66742285Y-86122000D01*
X66813714Y-86217238D01*
X66885142Y-86407714D01*
X66885142Y-86598190D01*
X66813714Y-86788666D01*
X66742285Y-86883904D01*
X66599428Y-86979142D01*
X66099428Y-86979142D01*
D11*
X52578000Y-106934000D02*
X60198000Y-106934000D01*
X61468000Y-105664000D02*
X61468000Y-98044000D01*
D10*
X54276857Y-105782857D02*
X53991142Y-105640000D01*
X53705428Y-105354285D01*
X53276857Y-104925714D01*
X52991142Y-104782857D01*
X52705428Y-104782857D01*
X52848285Y-105497142D02*
X52562571Y-105354285D01*
X52276857Y-105068571D01*
X52134000Y-104497142D01*
X52134000Y-103497142D01*
X52276857Y-102925714D01*
X52562571Y-102640000D01*
X52848285Y-102497142D01*
X53419714Y-102497142D01*
X53705428Y-102640000D01*
X53991142Y-102925714D01*
X54134000Y-103497142D01*
X54134000Y-104497142D01*
X53991142Y-105068571D01*
X53705428Y-105354285D01*
X53419714Y-105497142D01*
X52848285Y-105497142D01*
X59991142Y-103782857D02*
X59848285Y-103640000D01*
X59991142Y-103497142D01*
X60134000Y-103640000D01*
X59991142Y-103782857D01*
X59991142Y-103497142D01*
X59991142Y-104640000D02*
X60134000Y-106354285D01*
X59991142Y-106497142D01*
X59848285Y-106354285D01*
X59991142Y-104640000D01*
X59991142Y-106497142D01*
D11*
X51308000Y-98044000D02*
G75*
G02X52578000Y-96774000I1270000J0D01*
G01*
X51308000Y-105664000D02*
X51308000Y-98044000D01*
X52578000Y-96774000D02*
X60198000Y-96774000D01*
X60198000Y-96774000D02*
G75*
G02X61468000Y-98044000I0J-1270000D01*
G01*
X52578000Y-106934000D02*
G75*
G02X51308000Y-105664000I0J1270000D01*
G01*
X61468000Y-105664000D02*
G75*
G02X60198000Y-106934000I-1270000J0D01*
G01*
D12*
X59872571Y-98302000D02*
X59729714Y-98230571D01*
X59658285Y-98087714D01*
X59658285Y-97802000D01*
X59729714Y-97659142D01*
X59872571Y-97587714D01*
X60015428Y-97587714D01*
X60158285Y-97659142D01*
X60229714Y-97802000D01*
X60229714Y-98087714D01*
X60158285Y-98230571D01*
X60015428Y-98302000D01*
X59872571Y-98302000D01*
D11*
X50038000Y-95504000D02*
X57658000Y-95504000D01*
X58928000Y-94234000D02*
X58928000Y-86614000D01*
D10*
X51832142Y-94067142D02*
X50117857Y-94067142D01*
X50974999Y-94067142D02*
X50974999Y-91067142D01*
X50689285Y-91495714D01*
X50403571Y-91781428D01*
X50117857Y-91924285D01*
X57689285Y-93781428D02*
X57832142Y-93924285D01*
X57689285Y-94067142D01*
X57546428Y-93924285D01*
X57689285Y-93781428D01*
X57689285Y-94067142D01*
X57689285Y-92924285D02*
X57546428Y-91210000D01*
X57689285Y-91067142D01*
X57832142Y-91210000D01*
X57689285Y-92924285D01*
X57689285Y-91067142D01*
D11*
X48768000Y-86614000D02*
G75*
G02X50038000Y-85344000I1270000J0D01*
G01*
X48768000Y-94234000D02*
X48768000Y-86614000D01*
X50038000Y-85344000D02*
X57658000Y-85344000D01*
X57658000Y-85344000D02*
G75*
G02X58928000Y-86614000I0J-1270000D01*
G01*
X50038000Y-95504000D02*
G75*
G02X48768000Y-94234000I0J1270000D01*
G01*
X58928000Y-94234000D02*
G75*
G02X57658000Y-95504000I-1270000J0D01*
G01*
D12*
X52062285Y-86979142D02*
X52562285Y-86979142D01*
X52776571Y-88026761D02*
X52062285Y-88026761D01*
X52062285Y-86026761D01*
X52776571Y-86026761D01*
X53348000Y-87931523D02*
X53562285Y-88026761D01*
X53919428Y-88026761D01*
X54062285Y-87931523D01*
X54133714Y-87836285D01*
X54205142Y-87645809D01*
X54205142Y-87455333D01*
X54133714Y-87264857D01*
X54062285Y-87169619D01*
X53919428Y-87074380D01*
X53633714Y-86979142D01*
X53490857Y-86883904D01*
X53419428Y-86788666D01*
X53348000Y-86598190D01*
X53348000Y-86407714D01*
X53419428Y-86217238D01*
X53490857Y-86122000D01*
X53633714Y-86026761D01*
X53990857Y-86026761D01*
X54205142Y-86122000D01*
X55705142Y-87836285D02*
X55633714Y-87931523D01*
X55419428Y-88026761D01*
X55276571Y-88026761D01*
X55062285Y-87931523D01*
X54919428Y-87741047D01*
X54848000Y-87550571D01*
X54776571Y-87169619D01*
X54776571Y-86883904D01*
X54848000Y-86502952D01*
X54919428Y-86312476D01*
X55062285Y-86122000D01*
X55276571Y-86026761D01*
X55419428Y-86026761D01*
X55633714Y-86122000D01*
X55705142Y-86217238D01*
D11*
X75438000Y-129794000D02*
X83058000Y-129794000D01*
X84328000Y-128524000D02*
X84328000Y-120904000D01*
D10*
X75108333Y-125357142D02*
X76975000Y-128357142D01*
X76975000Y-125357142D02*
X75108333Y-128357142D01*
X82975000Y-126642857D02*
X82841666Y-126500000D01*
X82975000Y-126357142D01*
X83108333Y-126500000D01*
X82975000Y-126642857D01*
X82975000Y-126357142D01*
X83508333Y-129214285D02*
X83241666Y-129357142D01*
X82575000Y-129357142D01*
X82308333Y-129214285D01*
X82175000Y-128928571D01*
X82175000Y-128642857D01*
X82308333Y-128357142D01*
X82441666Y-128214285D01*
X82708333Y-128071428D01*
X82841666Y-127928571D01*
X82975000Y-127642857D01*
X82975000Y-127500000D01*
D11*
X74168000Y-120904000D02*
G75*
G02X75438000Y-119634000I1270000J0D01*
G01*
X74168000Y-128524000D02*
X74168000Y-120904000D01*
X75438000Y-119634000D02*
X83058000Y-119634000D01*
X83058000Y-119634000D02*
G75*
G02X84328000Y-120904000I0J-1270000D01*
G01*
X75438000Y-129794000D02*
G75*
G02X74168000Y-128524000I0J1270000D01*
G01*
X84328000Y-128524000D02*
G75*
G02X83058000Y-129794000I-1270000J0D01*
G01*
D12*
X82196857Y-121519142D02*
X82839714Y-121519142D01*
X82196857Y-121162000D02*
X83054000Y-121162000D01*
X83268285Y-121947714D02*
X83196857Y-122019142D01*
X82982571Y-122090571D01*
X82839714Y-122090571D01*
X82625428Y-122019142D01*
X82482571Y-121876285D01*
X82411142Y-121733428D01*
X82339714Y-121447714D01*
X82339714Y-121233428D01*
X82411142Y-120947714D01*
X82482571Y-120804857D01*
X82625428Y-120662000D01*
X82839714Y-120590571D01*
X82982571Y-120590571D01*
X83196857Y-120662000D01*
X83268285Y-120733428D01*
D11*
X89408000Y-118364000D02*
X97028000Y-118364000D01*
X98298000Y-117094000D02*
X98298000Y-109474000D01*
D10*
X90487857Y-115355714D02*
X89487857Y-115355714D01*
X89487857Y-116927142D02*
X89487857Y-113927142D01*
X90916428Y-113927142D01*
X97487857Y-117927142D02*
X96773571Y-117927142D01*
X96773571Y-113641428D01*
X97487857Y-113641428D01*
D11*
X88138000Y-109474000D02*
G75*
G02X89408000Y-108204000I1270000J0D01*
G01*
X88138000Y-117094000D02*
X88138000Y-109474000D01*
X89408000Y-108204000D02*
X97028000Y-108204000D01*
X97028000Y-108204000D02*
G75*
G02X98298000Y-109474000I0J-1270000D01*
G01*
X89408000Y-118364000D02*
G75*
G02X88138000Y-117094000I0J1270000D01*
G01*
X98298000Y-117094000D02*
G75*
G02X97028000Y-118364000I-1270000J0D01*
G01*
D12*
X97059714Y-111232000D02*
X96988285Y-111232000D01*
X96845428Y-111160571D01*
X96774000Y-111017714D01*
X96774000Y-110303428D01*
X96702571Y-110160571D01*
X96559714Y-110089142D01*
X96702571Y-110017714D01*
X96774000Y-109874857D01*
X96774000Y-109160571D01*
X96845428Y-109017714D01*
X96988285Y-108946285D01*
X97059714Y-108946285D01*
X105092571Y-99159142D02*
X106235428Y-99159142D01*
X105092571Y-98873428D02*
X106235428Y-98444857D01*
X105092571Y-98016285D01*
X84701142Y-109017714D02*
X85986857Y-110946285D01*
D11*
X77978000Y-118364000D02*
X85598000Y-118364000D01*
X86868000Y-117094000D02*
X86868000Y-109474000D01*
D10*
X77415000Y-116927142D02*
X77415000Y-113927142D01*
X78129285Y-113927142D01*
X78557857Y-114070000D01*
X78843571Y-114355714D01*
X78986428Y-114641428D01*
X79129285Y-115212857D01*
X79129285Y-115641428D01*
X78986428Y-116212857D01*
X78843571Y-116498571D01*
X78557857Y-116784285D01*
X78129285Y-116927142D01*
X77415000Y-116927142D01*
X85700714Y-117927142D02*
X85700714Y-113641428D01*
D11*
X76708000Y-109474000D02*
G75*
G02X77978000Y-108204000I1270000J0D01*
G01*
X76708000Y-117094000D02*
X76708000Y-109474000D01*
X77978000Y-108204000D02*
X85598000Y-108204000D01*
X85598000Y-108204000D02*
G75*
G02X86868000Y-109474000I0J-1270000D01*
G01*
X77978000Y-118364000D02*
G75*
G02X76708000Y-117094000I0J1270000D01*
G01*
X86868000Y-117094000D02*
G75*
G02X85598000Y-118364000I-1270000J0D01*
G01*
X66548000Y-118364000D02*
X74168000Y-118364000D01*
X75438000Y-117094000D02*
X75438000Y-109474000D01*
D10*
X66246857Y-116784285D02*
X66675428Y-116927142D01*
X67389714Y-116927142D01*
X67675428Y-116784285D01*
X67818285Y-116641428D01*
X67961142Y-116355714D01*
X67961142Y-116070000D01*
X67818285Y-115784285D01*
X67675428Y-115641428D01*
X67389714Y-115498571D01*
X66818285Y-115355714D01*
X66532571Y-115212857D01*
X66389714Y-115070000D01*
X66246857Y-114784285D01*
X66246857Y-114498571D01*
X66389714Y-114212857D01*
X66532571Y-114070000D01*
X66818285Y-113927142D01*
X67532571Y-113927142D01*
X67961142Y-114070000D01*
X73961142Y-116784285D02*
X73961142Y-116927142D01*
X73818285Y-117212857D01*
X73675428Y-117355714D01*
X73818285Y-115070000D02*
X73961142Y-115212857D01*
X73818285Y-115355714D01*
X73675428Y-115212857D01*
X73818285Y-115070000D01*
X73818285Y-115355714D01*
D11*
X65278000Y-109474000D02*
G75*
G02X66548000Y-108204000I1270000J0D01*
G01*
X65278000Y-117094000D02*
X65278000Y-109474000D01*
X66548000Y-108204000D02*
X74168000Y-108204000D01*
X74168000Y-108204000D02*
G75*
G02X75438000Y-109474000I0J-1270000D01*
G01*
X66548000Y-118364000D02*
G75*
G02X65278000Y-117094000I0J1270000D01*
G01*
X75438000Y-117094000D02*
G75*
G02X74168000Y-118364000I-1270000J0D01*
G01*
X105918000Y-96774000D02*
G75*
G02X107188000Y-98044000I0J-1270000D01*
G01*
X97028000Y-105664000D02*
X97028000Y-98044000D01*
X98298000Y-96774000D02*
X105918000Y-96774000D01*
X98298000Y-106934000D02*
G75*
G02X97028000Y-105664000I0J1270000D01*
G01*
X98298000Y-106934000D02*
X105918000Y-106934000D01*
X107188000Y-105664000D02*
X107188000Y-98044000D01*
X107188000Y-105664000D02*
G75*
G02X105918000Y-106934000I-1270000J0D01*
G01*
X97028000Y-98044000D02*
G75*
G02X98298000Y-96774000I1270000J0D01*
G01*
D10*
X97568333Y-102497142D02*
X99168333Y-102497142D01*
X98368333Y-105497142D02*
X98368333Y-102497142D01*
X104368333Y-103497142D02*
X106501666Y-104354285D01*
X104368333Y-105211428D01*
X63336714Y-125357142D02*
X65030047Y-125357142D01*
X63336714Y-128357142D01*
X65030047Y-128357142D01*
X71803380Y-128071428D02*
X71924333Y-128214285D01*
X71803380Y-128357142D01*
X71682428Y-128214285D01*
X71803380Y-128071428D01*
X71803380Y-128357142D01*
X71803380Y-126500000D02*
X71924333Y-126642857D01*
X71803380Y-126785714D01*
X71682428Y-126642857D01*
X71803380Y-126500000D01*
X71803380Y-126785714D01*
X54697857Y-116070000D02*
X56126428Y-116070000D01*
X54412142Y-116927142D02*
X55412142Y-113927142D01*
X56412142Y-116927142D01*
X63269285Y-116927142D02*
X63269285Y-115355714D01*
X63126428Y-115070000D01*
X62840714Y-114927142D01*
X62269285Y-114927142D01*
X61983571Y-115070000D01*
X63269285Y-116784285D02*
X62983571Y-116927142D01*
X62269285Y-116927142D01*
X61983571Y-116784285D01*
X61840714Y-116498571D01*
X61840714Y-116212857D01*
X61983571Y-115927142D01*
X62269285Y-115784285D01*
X62983571Y-115784285D01*
X63269285Y-115641428D01*
X62840714Y-113784285D02*
X62412142Y-114212857D01*
D13*
X52546714Y-129079523D02*
X52832428Y-129174761D01*
X53308619Y-129174761D01*
X53499095Y-129079523D01*
X53594333Y-128984285D01*
X53689571Y-128793809D01*
X53689571Y-128603333D01*
X53594333Y-128412857D01*
X53499095Y-128317619D01*
X53308619Y-128222380D01*
X52927666Y-128127142D01*
X52737190Y-128031904D01*
X52641952Y-127936666D01*
X52546714Y-127746190D01*
X52546714Y-127555714D01*
X52641952Y-127365238D01*
X52737190Y-127270000D01*
X52927666Y-127174761D01*
X53403857Y-127174761D01*
X53689571Y-127270000D01*
X54546714Y-129174761D02*
X54546714Y-127174761D01*
X54546714Y-128127142D02*
X55689571Y-128127142D01*
X55689571Y-129174761D02*
X55689571Y-127174761D01*
X56641952Y-129174761D02*
X56641952Y-127174761D01*
X58261000Y-128127142D02*
X57594333Y-128127142D01*
X57594333Y-129174761D02*
X57594333Y-127174761D01*
X58546714Y-127174761D01*
X59022904Y-127174761D02*
X60165761Y-127174761D01*
X59594333Y-129174761D02*
X59594333Y-127174761D01*
D11*
X53848000Y-109474000D02*
G75*
G02X55118000Y-108204000I1270000J0D01*
G01*
X64008000Y-117094000D02*
G75*
G02X62738000Y-118364000I-1270000J0D01*
G01*
X64008000Y-117094000D02*
X64008000Y-109474000D01*
X55118000Y-118364000D02*
X62738000Y-118364000D01*
X55118000Y-118364000D02*
G75*
G02X53848000Y-117094000I0J1270000D01*
G01*
X55118000Y-108204000D02*
X62738000Y-108204000D01*
X53848000Y-117094000D02*
X53848000Y-109474000D01*
X62738000Y-108204000D02*
G75*
G02X64008000Y-109474000I0J-1270000D01*
G01*
X62738000Y-120904000D02*
G75*
G02X64008000Y-119634000I1270000J0D01*
G01*
X72898000Y-128524000D02*
G75*
G02X71628000Y-129794000I-1270000J0D01*
G01*
X72898000Y-128524000D02*
X72898000Y-120904000D01*
X64008000Y-129794000D02*
X71628000Y-129794000D01*
X64008000Y-129794000D02*
G75*
G02X62738000Y-128524000I0J1270000D01*
G01*
X64008000Y-119634000D02*
X71628000Y-119634000D01*
X62738000Y-128524000D02*
X62738000Y-120904000D01*
X71628000Y-119634000D02*
G75*
G02X72898000Y-120904000I0J-1270000D01*
G01*
X52578000Y-129794000D02*
X60198000Y-129794000D01*
X52578000Y-129794000D02*
G75*
G02X51308000Y-128524000I0J1270000D01*
G01*
X61468000Y-128524000D02*
G75*
G02X60198000Y-129794000I-1270000J0D01*
G01*
X52578000Y-119634000D02*
X60198000Y-119634000D01*
X60198000Y-119634000D02*
G75*
G02X61468000Y-120904000I0J-1270000D01*
G01*
X51308000Y-120904000D02*
G75*
G02X52578000Y-119634000I1270000J0D01*
G01*
X51308000Y-128524000D02*
X51308000Y-120904000D01*
X61468000Y-128524000D02*
X61468000Y-120904000D01*
D12*
X88374285Y-132377571D02*
X88374285Y-130877571D01*
X89231428Y-132377571D02*
X88588571Y-131520428D01*
X89231428Y-130877571D02*
X88374285Y-131734714D01*
X90445714Y-132306142D02*
X90302857Y-132377571D01*
X90017142Y-132377571D01*
X89874285Y-132306142D01*
X89802857Y-132163285D01*
X89802857Y-131591857D01*
X89874285Y-131449000D01*
X90017142Y-131377571D01*
X90302857Y-131377571D01*
X90445714Y-131449000D01*
X90517142Y-131591857D01*
X90517142Y-131734714D01*
X89802857Y-131877571D01*
X91017142Y-131377571D02*
X91374285Y-132377571D01*
X91731428Y-131377571D02*
X91374285Y-132377571D01*
X91231428Y-132734714D01*
X91160000Y-132806142D01*
X91017142Y-132877571D01*
X92302857Y-132377571D02*
X92302857Y-130877571D01*
X92302857Y-131449000D02*
X92445714Y-131377571D01*
X92731428Y-131377571D01*
X92874285Y-131449000D01*
X92945714Y-131520428D01*
X93017142Y-131663285D01*
X93017142Y-132091857D01*
X92945714Y-132234714D01*
X92874285Y-132306142D01*
X92731428Y-132377571D01*
X92445714Y-132377571D01*
X92302857Y-132306142D01*
X93874285Y-132377571D02*
X93731428Y-132306142D01*
X93660000Y-132234714D01*
X93588571Y-132091857D01*
X93588571Y-131663285D01*
X93660000Y-131520428D01*
X93731428Y-131449000D01*
X93874285Y-131377571D01*
X94088571Y-131377571D01*
X94231428Y-131449000D01*
X94302857Y-131520428D01*
X94374285Y-131663285D01*
X94374285Y-132091857D01*
X94302857Y-132234714D01*
X94231428Y-132306142D01*
X94088571Y-132377571D01*
X93874285Y-132377571D01*
X95660000Y-132377571D02*
X95660000Y-131591857D01*
X95588571Y-131449000D01*
X95445714Y-131377571D01*
X95160000Y-131377571D01*
X95017142Y-131449000D01*
X95660000Y-132306142D02*
X95517142Y-132377571D01*
X95160000Y-132377571D01*
X95017142Y-132306142D01*
X94945714Y-132163285D01*
X94945714Y-132020428D01*
X95017142Y-131877571D01*
X95160000Y-131806142D01*
X95517142Y-131806142D01*
X95660000Y-131734714D01*
X96374285Y-132377571D02*
X96374285Y-131377571D01*
X96374285Y-131663285D02*
X96445714Y-131520428D01*
X96517142Y-131449000D01*
X96660000Y-131377571D01*
X96802857Y-131377571D01*
X97945714Y-132377571D02*
X97945714Y-130877571D01*
X97945714Y-132306142D02*
X97802857Y-132377571D01*
X97517142Y-132377571D01*
X97374285Y-132306142D01*
X97302857Y-132234714D01*
X97231428Y-132091857D01*
X97231428Y-131663285D01*
X97302857Y-131520428D01*
X97374285Y-131449000D01*
X97517142Y-131377571D01*
X97802857Y-131377571D01*
X97945714Y-131449000D01*
X100088571Y-130877571D02*
X100374285Y-130877571D01*
X100517142Y-130949000D01*
X100660000Y-131091857D01*
X100731428Y-131377571D01*
X100731428Y-131877571D01*
X100660000Y-132163285D01*
X100517142Y-132306142D01*
X100374285Y-132377571D01*
X100088571Y-132377571D01*
X99945714Y-132306142D01*
X99802857Y-132163285D01*
X99731428Y-131877571D01*
X99731428Y-131377571D01*
X99802857Y-131091857D01*
X99945714Y-130949000D01*
X100088571Y-130877571D01*
X101231428Y-131377571D02*
X101588571Y-132377571D01*
X101945714Y-131377571D01*
X103088571Y-132306142D02*
X102945714Y-132377571D01*
X102660000Y-132377571D01*
X102517142Y-132306142D01*
X102445714Y-132163285D01*
X102445714Y-131591857D01*
X102517142Y-131449000D01*
X102660000Y-131377571D01*
X102945714Y-131377571D01*
X103088571Y-131449000D01*
X103160000Y-131591857D01*
X103160000Y-131734714D01*
X102445714Y-131877571D01*
X103802857Y-132377571D02*
X103802857Y-131377571D01*
X103802857Y-131663285D02*
X103874285Y-131520428D01*
X103945714Y-131449000D01*
X104088571Y-131377571D01*
X104231428Y-131377571D01*
X104945714Y-132377571D02*
X104802857Y-132306142D01*
X104731428Y-132163285D01*
X104731428Y-130877571D01*
X106160000Y-132377571D02*
X106160000Y-131591857D01*
X106088571Y-131449000D01*
X105945714Y-131377571D01*
X105660000Y-131377571D01*
X105517142Y-131449000D01*
X106160000Y-132306142D02*
X106017142Y-132377571D01*
X105660000Y-132377571D01*
X105517142Y-132306142D01*
X105445714Y-132163285D01*
X105445714Y-132020428D01*
X105517142Y-131877571D01*
X105660000Y-131806142D01*
X106017142Y-131806142D01*
X106160000Y-131734714D01*
X106731428Y-131377571D02*
X107088571Y-132377571D01*
X107445714Y-131377571D02*
X107088571Y-132377571D01*
X106945714Y-132734714D01*
X106874285Y-132806142D01*
X106731428Y-132877571D01*
X109017142Y-131377571D02*
X109374285Y-132377571D01*
X109731428Y-131377571D01*
X111088571Y-132377571D02*
X110231428Y-132377571D01*
X110659999Y-132377571D02*
X110659999Y-130877571D01*
X110517142Y-131091857D01*
X110374285Y-131234714D01*
X110231428Y-131306142D01*
X113302857Y-132949000D02*
X113231428Y-132877571D01*
X113088571Y-132663285D01*
X113017142Y-132520428D01*
X112945714Y-132306142D01*
X112874285Y-131949000D01*
X112874285Y-131663285D01*
X112945714Y-131306142D01*
X113017142Y-131091857D01*
X113088571Y-130949000D01*
X113231428Y-130734714D01*
X113302857Y-130663285D01*
X113802857Y-131020428D02*
X113874285Y-130949000D01*
X114017142Y-130877571D01*
X114374285Y-130877571D01*
X114517142Y-130949000D01*
X114588571Y-131020428D01*
X114659999Y-131163285D01*
X114659999Y-131306142D01*
X114588571Y-131520428D01*
X113731428Y-132377571D01*
X114659999Y-132377571D01*
X115588571Y-130877571D02*
X115731428Y-130877571D01*
X115874285Y-130949000D01*
X115945714Y-131020428D01*
X116017142Y-131163285D01*
X116088571Y-131449000D01*
X116088571Y-131806142D01*
X116017142Y-132091857D01*
X115945714Y-132234714D01*
X115874285Y-132306142D01*
X115731428Y-132377571D01*
X115588571Y-132377571D01*
X115445714Y-132306142D01*
X115374285Y-132234714D01*
X115302857Y-132091857D01*
X115231428Y-131806142D01*
X115231428Y-131449000D01*
X115302857Y-131163285D01*
X115374285Y-131020428D01*
X115445714Y-130949000D01*
X115588571Y-130877571D01*
X116660000Y-131020428D02*
X116731428Y-130949000D01*
X116874285Y-130877571D01*
X117231428Y-130877571D01*
X117374285Y-130949000D01*
X117445714Y-131020428D01*
X117517142Y-131163285D01*
X117517142Y-131306142D01*
X117445714Y-131520428D01*
X116588571Y-132377571D01*
X117517142Y-132377571D01*
X118017142Y-130877571D02*
X118945714Y-130877571D01*
X118445714Y-131449000D01*
X118660000Y-131449000D01*
X118802857Y-131520428D01*
X118874285Y-131591857D01*
X118945714Y-131734714D01*
X118945714Y-132091857D01*
X118874285Y-132234714D01*
X118802857Y-132306142D01*
X118660000Y-132377571D01*
X118231428Y-132377571D01*
X118088571Y-132306142D01*
X118017142Y-132234714D01*
X119802857Y-131734714D02*
X119731428Y-131806142D01*
X119802857Y-131877571D01*
X119874285Y-131806142D01*
X119802857Y-131734714D01*
X119802857Y-131877571D01*
X121374285Y-130877571D02*
X121088571Y-130877571D01*
X120945714Y-130949000D01*
X120874285Y-131020428D01*
X120731428Y-131234714D01*
X120660000Y-131520428D01*
X120660000Y-132091857D01*
X120731428Y-132234714D01*
X120802857Y-132306142D01*
X120945714Y-132377571D01*
X121231428Y-132377571D01*
X121374285Y-132306142D01*
X121445714Y-132234714D01*
X121517142Y-132091857D01*
X121517142Y-131734714D01*
X121445714Y-131591857D01*
X121374285Y-131520428D01*
X121231428Y-131449000D01*
X120945714Y-131449000D01*
X120802857Y-131520428D01*
X120731428Y-131591857D01*
X120660000Y-131734714D01*
X122017142Y-132949000D02*
X122088571Y-132877571D01*
X122231428Y-132663285D01*
X122302857Y-132520428D01*
X122374285Y-132306142D01*
X122445714Y-131949000D01*
X122445714Y-131663285D01*
X122374285Y-131306142D01*
X122302857Y-131091857D01*
X122231428Y-130949000D01*
X122088571Y-130734714D01*
X122017142Y-130663285D01*
%LPC*%
D16*
X41910000Y-125730000D03*
X168910000Y-125730000D03*
X41910000Y-87630000D03*
X168910000Y-87630000D03*
M02*
