%FSLAX45Y45*%
G04 Gerber Fmt 4.5, Leading zero omitted, Abs format (unit mm)*
G04 Created by KiCad (PCBNEW (5.1.2-1)-1) date 2023-07-30 19:34:41*
%MOMM*%
%LPD*%
G04 APERTURE LIST*
%ADD10C,0.050000*%
%ADD11C,0.200000*%
%ADD12C,0.300000*%
G04 APERTURE END LIST*
D10*
X13830300Y-10185400D02*
G75*
G03X13830300Y-10185400I-190500J0D01*
G01*
X12687300Y-10185400D02*
G75*
G03X12687300Y-10185400I-190500J0D01*
G01*
X5829300Y-12471400D02*
G75*
G03X5829300Y-12471400I-190500J0D01*
G01*
X6972300Y-12471400D02*
G75*
G03X6972300Y-12471400I-190500J0D01*
G01*
X8115300Y-12471400D02*
G75*
G03X8115300Y-12471400I-190500J0D01*
G01*
X9258300Y-12471400D02*
G75*
G03X9258300Y-12471400I-190500J0D01*
G01*
X10401300Y-12471400D02*
G75*
G03X10401300Y-12471400I-190500J0D01*
G01*
X11544300Y-12471400D02*
G75*
G03X11544300Y-12471400I-190500J0D01*
G01*
X12687300Y-12471400D02*
G75*
G03X12687300Y-12471400I-190500J0D01*
G01*
X13830300Y-12471400D02*
G75*
G03X13830300Y-12471400I-190500J0D01*
G01*
X14973300Y-12471400D02*
G75*
G03X14973300Y-12471400I-190500J0D01*
G01*
X16116300Y-12471400D02*
G75*
G03X16116300Y-12471400I-190500J0D01*
G01*
X16370300Y-11328400D02*
G75*
G03X16370300Y-11328400I-190500J0D01*
G01*
X15227300Y-11328400D02*
G75*
G03X15227300Y-11328400I-190500J0D01*
G01*
X14084300Y-11328400D02*
G75*
G03X14084300Y-11328400I-190500J0D01*
G01*
X12941300Y-11328400D02*
G75*
G03X12941300Y-11328400I-190500J0D01*
G01*
X11798300Y-11328400D02*
G75*
G03X11798300Y-11328400I-190500J0D01*
G01*
X10655300Y-11328400D02*
G75*
G03X10655300Y-11328400I-190500J0D01*
G01*
X9512300Y-11328400D02*
G75*
G03X9512300Y-11328400I-190500J0D01*
G01*
X8369300Y-11328400D02*
G75*
G03X8369300Y-11328400I-190500J0D01*
G01*
X7226300Y-11328400D02*
G75*
G03X7226300Y-11328400I-190500J0D01*
G01*
X6083300Y-11328400D02*
G75*
G03X6083300Y-11328400I-190500J0D01*
G01*
X6972300Y-10185400D02*
G75*
G03X6972300Y-10185400I-190500J0D01*
G01*
X8115300Y-10185400D02*
G75*
G03X8115300Y-10185400I-190500J0D01*
G01*
X9258300Y-10185400D02*
G75*
G03X9258300Y-10185400I-190500J0D01*
G01*
X10401300Y-10185400D02*
G75*
G03X10401300Y-10185400I-190500J0D01*
G01*
X11544300Y-10185400D02*
G75*
G03X11544300Y-10185400I-190500J0D01*
G01*
X14973300Y-10185400D02*
G75*
G03X14973300Y-10185400I-190500J0D01*
G01*
X16116300Y-10185400D02*
G75*
G03X16116300Y-10185400I-190500J0D01*
G01*
X15862300Y-9042400D02*
G75*
G03X15862300Y-9042400I-190500J0D01*
G01*
X14719300Y-9042400D02*
G75*
G03X14719300Y-9042400I-190500J0D01*
G01*
X13576300Y-9042400D02*
G75*
G03X13576300Y-9042400I-190500J0D01*
G01*
X12433300Y-9042400D02*
G75*
G03X12433300Y-9042400I-190500J0D01*
G01*
X11290300Y-9042400D02*
G75*
G03X11290300Y-9042400I-190500J0D01*
G01*
X10147300Y-9042400D02*
G75*
G03X10147300Y-9042400I-190500J0D01*
G01*
X9004300Y-9042400D02*
G75*
G03X9004300Y-9042400I-190500J0D01*
G01*
X7861300Y-9042400D02*
G75*
G03X7861300Y-9042400I-190500J0D01*
G01*
X6718300Y-9042400D02*
G75*
G03X6718300Y-9042400I-190500J0D01*
G01*
X5575300Y-9042400D02*
G75*
G03X5575300Y-9042400I-190500J0D01*
G01*
X16891000Y-13335000D02*
X4191000Y-13335000D01*
X17653000Y-8763000D02*
X17653000Y-12573000D01*
X4191000Y-8001000D02*
X16891000Y-8001000D01*
X16891000Y-8001000D02*
G75*
G02X17653000Y-8763000I0J-762000D01*
G01*
X17653000Y-12573000D02*
G75*
G02X16891000Y-13335000I-762000J0D01*
G01*
X4191000Y-13335000D02*
G75*
G02X3429000Y-12573000I0J762000D01*
G01*
X3429000Y-8763000D02*
G75*
G02X4191000Y-8001000I762000J0D01*
G01*
X5829300Y-10185400D02*
G75*
G03X5829300Y-10185400I-190500J0D01*
G01*
X3429000Y-12573000D02*
X3429000Y-8763000D01*
D11*
X4031000Y-12413000D02*
X4351000Y-12733000D01*
X4351000Y-12413000D02*
X4031000Y-12733000D01*
X16731000Y-12413000D02*
X17051000Y-12733000D01*
X17051000Y-12413000D02*
X16731000Y-12733000D01*
X16731000Y-8603000D02*
X17051000Y-8923000D01*
X17051000Y-8603000D02*
X16731000Y-8923000D01*
X4031000Y-8603000D02*
X4351000Y-8923000D01*
X4351000Y-8603000D02*
X4031000Y-8923000D01*
D12*
X3712928Y-13803214D02*
X3712928Y-13503214D01*
X3784357Y-13503214D01*
X3827214Y-13517500D01*
X3855786Y-13546071D01*
X3870071Y-13574643D01*
X3884357Y-13631786D01*
X3884357Y-13674643D01*
X3870071Y-13731786D01*
X3855786Y-13760357D01*
X3827214Y-13788929D01*
X3784357Y-13803214D01*
X3712928Y-13803214D01*
X4012928Y-13803214D02*
X4012928Y-13603214D01*
X4012928Y-13660357D02*
X4027214Y-13631786D01*
X4041500Y-13617500D01*
X4070071Y-13603214D01*
X4098643Y-13603214D01*
X4198643Y-13803214D02*
X4198643Y-13603214D01*
X4198643Y-13503214D02*
X4184357Y-13517500D01*
X4198643Y-13531786D01*
X4212928Y-13517500D01*
X4198643Y-13503214D01*
X4198643Y-13531786D01*
X4384357Y-13803214D02*
X4355786Y-13788929D01*
X4341500Y-13760357D01*
X4341500Y-13503214D01*
X4541500Y-13803214D02*
X4512928Y-13788929D01*
X4498643Y-13760357D01*
X4498643Y-13503214D01*
X4884357Y-13803214D02*
X4884357Y-13503214D01*
X4984357Y-13717500D01*
X5084357Y-13503214D01*
X5084357Y-13803214D01*
X5355786Y-13803214D02*
X5355786Y-13646071D01*
X5341500Y-13617500D01*
X5312928Y-13603214D01*
X5255786Y-13603214D01*
X5227214Y-13617500D01*
X5355786Y-13788929D02*
X5327214Y-13803214D01*
X5255786Y-13803214D01*
X5227214Y-13788929D01*
X5212928Y-13760357D01*
X5212928Y-13731786D01*
X5227214Y-13703214D01*
X5255786Y-13688929D01*
X5327214Y-13688929D01*
X5355786Y-13674643D01*
X5498643Y-13603214D02*
X5498643Y-13903214D01*
X5498643Y-13617500D02*
X5527214Y-13603214D01*
X5584357Y-13603214D01*
X5612928Y-13617500D01*
X5627214Y-13631786D01*
X5641500Y-13660357D01*
X5641500Y-13746071D01*
X5627214Y-13774643D01*
X5612928Y-13788929D01*
X5584357Y-13803214D01*
X5527214Y-13803214D01*
X5498643Y-13788929D01*
X5770071Y-13774643D02*
X5784357Y-13788929D01*
X5770071Y-13803214D01*
X5755786Y-13788929D01*
X5770071Y-13774643D01*
X5770071Y-13803214D01*
X5770071Y-13617500D02*
X5784357Y-13631786D01*
X5770071Y-13646071D01*
X5755786Y-13631786D01*
X5770071Y-13617500D01*
X5770071Y-13646071D01*
X3106500Y-14137500D02*
X3426500Y-14457500D01*
X3426500Y-14137500D02*
X3106500Y-14457500D01*
X3684357Y-14133214D02*
X3870071Y-14133214D01*
X3770071Y-14247500D01*
X3812928Y-14247500D01*
X3841500Y-14261786D01*
X3855786Y-14276071D01*
X3870071Y-14304643D01*
X3870071Y-14376071D01*
X3855786Y-14404643D01*
X3841500Y-14418929D01*
X3812928Y-14433214D01*
X3727214Y-14433214D01*
X3698643Y-14418929D01*
X3684357Y-14404643D01*
X3998643Y-14404643D02*
X4012928Y-14418929D01*
X3998643Y-14433214D01*
X3984357Y-14418929D01*
X3998643Y-14404643D01*
X3998643Y-14433214D01*
X4127214Y-14161786D02*
X4141500Y-14147500D01*
X4170071Y-14133214D01*
X4241500Y-14133214D01*
X4270071Y-14147500D01*
X4284357Y-14161786D01*
X4298643Y-14190357D01*
X4298643Y-14218929D01*
X4284357Y-14261786D01*
X4112928Y-14433214D01*
X4298643Y-14433214D01*
X4484357Y-14133214D02*
X4512928Y-14133214D01*
X4541500Y-14147500D01*
X4555786Y-14161786D01*
X4570071Y-14190357D01*
X4584357Y-14247500D01*
X4584357Y-14318929D01*
X4570071Y-14376071D01*
X4555786Y-14404643D01*
X4541500Y-14418929D01*
X4512928Y-14433214D01*
X4484357Y-14433214D01*
X4455786Y-14418929D01*
X4441500Y-14404643D01*
X4427214Y-14376071D01*
X4412928Y-14318929D01*
X4412928Y-14247500D01*
X4427214Y-14190357D01*
X4441500Y-14161786D01*
X4455786Y-14147500D01*
X4484357Y-14133214D01*
X4712928Y-14433214D02*
X4712928Y-14233214D01*
X4712928Y-14261786D02*
X4727214Y-14247500D01*
X4755786Y-14233214D01*
X4798643Y-14233214D01*
X4827214Y-14247500D01*
X4841500Y-14276071D01*
X4841500Y-14433214D01*
X4841500Y-14276071D02*
X4855786Y-14247500D01*
X4884357Y-14233214D01*
X4927214Y-14233214D01*
X4955786Y-14247500D01*
X4970071Y-14276071D01*
X4970071Y-14433214D01*
X5112928Y-14433214D02*
X5112928Y-14233214D01*
X5112928Y-14261786D02*
X5127214Y-14247500D01*
X5155786Y-14233214D01*
X5198643Y-14233214D01*
X5227214Y-14247500D01*
X5241500Y-14276071D01*
X5241500Y-14433214D01*
X5241500Y-14276071D02*
X5255786Y-14247500D01*
X5284357Y-14233214D01*
X5327214Y-14233214D01*
X5355786Y-14247500D01*
X5370071Y-14276071D01*
X5370071Y-14433214D01*
X5955786Y-14118929D02*
X5698643Y-14504643D01*
X6341500Y-14133214D02*
X6370071Y-14133214D01*
X6398643Y-14147500D01*
X6412928Y-14161786D01*
X6427214Y-14190357D01*
X6441500Y-14247500D01*
X6441500Y-14318929D01*
X6427214Y-14376071D01*
X6412928Y-14404643D01*
X6398643Y-14418929D01*
X6370071Y-14433214D01*
X6341500Y-14433214D01*
X6312928Y-14418929D01*
X6298643Y-14404643D01*
X6284357Y-14376071D01*
X6270071Y-14318929D01*
X6270071Y-14247500D01*
X6284357Y-14190357D01*
X6298643Y-14161786D01*
X6312928Y-14147500D01*
X6341500Y-14133214D01*
X6570071Y-14404643D02*
X6584357Y-14418929D01*
X6570071Y-14433214D01*
X6555786Y-14418929D01*
X6570071Y-14404643D01*
X6570071Y-14433214D01*
X6870071Y-14433214D02*
X6698643Y-14433214D01*
X6784357Y-14433214D02*
X6784357Y-14133214D01*
X6755786Y-14176071D01*
X6727214Y-14204643D01*
X6698643Y-14218929D01*
X6984357Y-14161786D02*
X6998643Y-14147500D01*
X7027214Y-14133214D01*
X7098643Y-14133214D01*
X7127214Y-14147500D01*
X7141500Y-14161786D01*
X7155786Y-14190357D01*
X7155786Y-14218929D01*
X7141500Y-14261786D01*
X6970071Y-14433214D01*
X7155786Y-14433214D01*
X7412928Y-14133214D02*
X7355786Y-14133214D01*
X7327214Y-14147500D01*
X7312928Y-14161786D01*
X7284357Y-14204643D01*
X7270071Y-14261786D01*
X7270071Y-14376071D01*
X7284357Y-14404643D01*
X7298643Y-14418929D01*
X7327214Y-14433214D01*
X7384357Y-14433214D01*
X7412928Y-14418929D01*
X7427214Y-14404643D01*
X7441500Y-14376071D01*
X7441500Y-14304643D01*
X7427214Y-14276071D01*
X7412928Y-14261786D01*
X7384357Y-14247500D01*
X7327214Y-14247500D01*
X7298643Y-14261786D01*
X7284357Y-14276071D01*
X7270071Y-14304643D01*
X7555786Y-14133214D02*
X7555786Y-14190357D01*
X7670071Y-14133214D02*
X7670071Y-14190357D01*
X8112928Y-14547500D02*
X8098643Y-14533214D01*
X8070071Y-14490357D01*
X8055786Y-14461786D01*
X8041500Y-14418929D01*
X8027214Y-14347500D01*
X8027214Y-14290357D01*
X8041500Y-14218929D01*
X8055786Y-14176071D01*
X8070071Y-14147500D01*
X8098643Y-14104643D01*
X8112928Y-14090357D01*
X8355786Y-14233214D02*
X8355786Y-14433214D01*
X8284357Y-14118929D02*
X8212928Y-14333214D01*
X8398643Y-14333214D01*
X8741500Y-14433214D02*
X8741500Y-14133214D01*
X8870071Y-14433214D02*
X8870071Y-14276071D01*
X8855786Y-14247500D01*
X8827214Y-14233214D01*
X8784357Y-14233214D01*
X8755786Y-14247500D01*
X8741500Y-14261786D01*
X9055786Y-14433214D02*
X9027214Y-14418929D01*
X9012928Y-14404643D01*
X8998643Y-14376071D01*
X8998643Y-14290357D01*
X9012928Y-14261786D01*
X9027214Y-14247500D01*
X9055786Y-14233214D01*
X9098643Y-14233214D01*
X9127214Y-14247500D01*
X9141500Y-14261786D01*
X9155786Y-14290357D01*
X9155786Y-14376071D01*
X9141500Y-14404643D01*
X9127214Y-14418929D01*
X9098643Y-14433214D01*
X9055786Y-14433214D01*
X9327214Y-14433214D02*
X9298643Y-14418929D01*
X9284357Y-14390357D01*
X9284357Y-14133214D01*
X9555786Y-14418929D02*
X9527214Y-14433214D01*
X9470071Y-14433214D01*
X9441500Y-14418929D01*
X9427214Y-14390357D01*
X9427214Y-14276071D01*
X9441500Y-14247500D01*
X9470071Y-14233214D01*
X9527214Y-14233214D01*
X9555786Y-14247500D01*
X9570071Y-14276071D01*
X9570071Y-14304643D01*
X9427214Y-14333214D01*
X9684357Y-14418929D02*
X9712928Y-14433214D01*
X9770071Y-14433214D01*
X9798643Y-14418929D01*
X9812928Y-14390357D01*
X9812928Y-14376071D01*
X9798643Y-14347500D01*
X9770071Y-14333214D01*
X9727214Y-14333214D01*
X9698643Y-14318929D01*
X9684357Y-14290357D01*
X9684357Y-14276071D01*
X9698643Y-14247500D01*
X9727214Y-14233214D01*
X9770071Y-14233214D01*
X9798643Y-14247500D01*
X9912928Y-14547500D02*
X9927214Y-14533214D01*
X9955786Y-14490357D01*
X9970071Y-14461786D01*
X9984357Y-14418929D01*
X9998643Y-14347500D01*
X9998643Y-14290357D01*
X9984357Y-14218929D01*
X9970071Y-14176071D01*
X9955786Y-14147500D01*
X9927214Y-14104643D01*
X9912928Y-14090357D01*
X10455786Y-14547500D02*
X10441500Y-14533214D01*
X10412928Y-14490357D01*
X10398643Y-14461786D01*
X10384357Y-14418929D01*
X10370071Y-14347500D01*
X10370071Y-14290357D01*
X10384357Y-14218929D01*
X10398643Y-14176071D01*
X10412928Y-14147500D01*
X10441500Y-14104643D01*
X10455786Y-14090357D01*
X10570071Y-14233214D02*
X10570071Y-14433214D01*
X10570071Y-14261786D02*
X10584357Y-14247500D01*
X10612928Y-14233214D01*
X10655786Y-14233214D01*
X10684357Y-14247500D01*
X10698643Y-14276071D01*
X10698643Y-14433214D01*
X10884357Y-14433214D02*
X10855786Y-14418929D01*
X10841500Y-14404643D01*
X10827214Y-14376071D01*
X10827214Y-14290357D01*
X10841500Y-14261786D01*
X10855786Y-14247500D01*
X10884357Y-14233214D01*
X10927214Y-14233214D01*
X10955786Y-14247500D01*
X10970071Y-14261786D01*
X10984357Y-14290357D01*
X10984357Y-14376071D01*
X10970071Y-14404643D01*
X10955786Y-14418929D01*
X10927214Y-14433214D01*
X10884357Y-14433214D01*
X11070071Y-14233214D02*
X11184357Y-14233214D01*
X11112928Y-14133214D02*
X11112928Y-14390357D01*
X11127214Y-14418929D01*
X11155786Y-14433214D01*
X11184357Y-14433214D01*
X11512928Y-14233214D02*
X11512928Y-14533214D01*
X11512928Y-14247500D02*
X11541500Y-14233214D01*
X11598643Y-14233214D01*
X11627214Y-14247500D01*
X11641500Y-14261786D01*
X11655786Y-14290357D01*
X11655786Y-14376071D01*
X11641500Y-14404643D01*
X11627214Y-14418929D01*
X11598643Y-14433214D01*
X11541500Y-14433214D01*
X11512928Y-14418929D01*
X11827214Y-14433214D02*
X11798643Y-14418929D01*
X11784357Y-14390357D01*
X11784357Y-14133214D01*
X12070071Y-14433214D02*
X12070071Y-14276071D01*
X12055786Y-14247500D01*
X12027214Y-14233214D01*
X11970071Y-14233214D01*
X11941500Y-14247500D01*
X12070071Y-14418929D02*
X12041500Y-14433214D01*
X11970071Y-14433214D01*
X11941500Y-14418929D01*
X11927214Y-14390357D01*
X11927214Y-14361786D01*
X11941500Y-14333214D01*
X11970071Y-14318929D01*
X12041500Y-14318929D01*
X12070071Y-14304643D01*
X12170071Y-14233214D02*
X12284357Y-14233214D01*
X12212928Y-14133214D02*
X12212928Y-14390357D01*
X12227214Y-14418929D01*
X12255786Y-14433214D01*
X12284357Y-14433214D01*
X12498643Y-14418929D02*
X12470071Y-14433214D01*
X12412928Y-14433214D01*
X12384357Y-14418929D01*
X12370071Y-14390357D01*
X12370071Y-14276071D01*
X12384357Y-14247500D01*
X12412928Y-14233214D01*
X12470071Y-14233214D01*
X12498643Y-14247500D01*
X12512928Y-14276071D01*
X12512928Y-14304643D01*
X12370071Y-14333214D01*
X12770071Y-14433214D02*
X12770071Y-14133214D01*
X12770071Y-14418929D02*
X12741500Y-14433214D01*
X12684357Y-14433214D01*
X12655786Y-14418929D01*
X12641500Y-14404643D01*
X12627214Y-14376071D01*
X12627214Y-14290357D01*
X12641500Y-14261786D01*
X12655786Y-14247500D01*
X12684357Y-14233214D01*
X12741500Y-14233214D01*
X12770071Y-14247500D01*
X12884357Y-14547500D02*
X12898643Y-14533214D01*
X12927214Y-14490357D01*
X12941500Y-14461786D01*
X12955786Y-14418929D01*
X12970071Y-14347500D01*
X12970071Y-14290357D01*
X12955786Y-14218929D01*
X12941500Y-14176071D01*
X12927214Y-14147500D01*
X12898643Y-14104643D01*
X12884357Y-14090357D01*
M02*
