G04 #@! TF.GenerationSoftware,KiCad,Pcbnew,(5.1.2-1)-1*
G04 #@! TF.CreationDate,2023-07-30T19:34:21+02:00*
G04 #@! TF.ProjectId,overlay5x8,6f766572-6c61-4793-9578-382e6b696361,rev?*
G04 #@! TF.SameCoordinates,Original*
G04 #@! TF.FileFunction,Copper,L2,Bot*
G04 #@! TF.FilePolarity,Positive*
%FSLAX46Y46*%
G04 Gerber Fmt 4.6, Leading zero omitted, Abs format (unit mm)*
G04 Created by KiCad (PCBNEW (5.1.2-1)-1) date 2023-07-30 19:34:21*
%MOMM*%
%LPD*%
G04 APERTURE LIST*
%ADD10C,0.254000*%
G04 APERTURE END LIST*
D10*
G36*
X169914470Y-80744617D02*
G01*
X170897898Y-80961739D01*
X171839675Y-81318546D01*
X172720095Y-81807575D01*
X173520687Y-82418569D01*
X174224694Y-83138732D01*
X174817370Y-83952987D01*
X175286296Y-84844269D01*
X175621647Y-85793900D01*
X175817127Y-86785692D01*
X175870000Y-87650164D01*
X175870001Y-125706080D01*
X175795382Y-126734470D01*
X175578262Y-127717896D01*
X175221454Y-128659675D01*
X174732424Y-129540095D01*
X174121435Y-130340684D01*
X173401268Y-131044694D01*
X172587013Y-131637370D01*
X171695731Y-132106296D01*
X170746099Y-132441647D01*
X169754309Y-132637127D01*
X168889835Y-132690000D01*
X41933906Y-132690000D01*
X40905530Y-132615382D01*
X39922104Y-132398262D01*
X38980325Y-132041454D01*
X38099905Y-131552424D01*
X37299316Y-130941435D01*
X36595306Y-130221268D01*
X36002630Y-129407013D01*
X35533704Y-128515731D01*
X35198353Y-127566099D01*
X35002873Y-126574309D01*
X34950000Y-125709835D01*
X34950000Y-125509872D01*
X39675000Y-125509872D01*
X39675000Y-125950128D01*
X39760890Y-126381925D01*
X39929369Y-126788669D01*
X40173962Y-127154729D01*
X40485271Y-127466038D01*
X40851331Y-127710631D01*
X41258075Y-127879110D01*
X41689872Y-127965000D01*
X42130128Y-127965000D01*
X42561925Y-127879110D01*
X42968669Y-127710631D01*
X43334729Y-127466038D01*
X43646038Y-127154729D01*
X43890631Y-126788669D01*
X44059110Y-126381925D01*
X44145000Y-125950128D01*
X44145000Y-125509872D01*
X44059110Y-125078075D01*
X43923255Y-124750092D01*
X53803252Y-124750092D01*
X53859488Y-125251452D01*
X54012035Y-125732340D01*
X54255082Y-126174440D01*
X54579370Y-126560912D01*
X54972549Y-126877036D01*
X55419642Y-127110770D01*
X55903619Y-127253213D01*
X56406047Y-127298937D01*
X56907786Y-127246202D01*
X57389728Y-127097016D01*
X57833514Y-126857062D01*
X58222240Y-126535479D01*
X58541101Y-126144517D01*
X58777951Y-125699067D01*
X58923769Y-125216096D01*
X58969461Y-124750092D01*
X65233252Y-124750092D01*
X65289488Y-125251452D01*
X65442035Y-125732340D01*
X65685082Y-126174440D01*
X66009370Y-126560912D01*
X66402549Y-126877036D01*
X66849642Y-127110770D01*
X67333619Y-127253213D01*
X67836047Y-127298937D01*
X68337786Y-127246202D01*
X68819728Y-127097016D01*
X69263514Y-126857062D01*
X69652240Y-126535479D01*
X69971101Y-126144517D01*
X70207951Y-125699067D01*
X70353769Y-125216096D01*
X70399461Y-124750092D01*
X76663252Y-124750092D01*
X76719488Y-125251452D01*
X76872035Y-125732340D01*
X77115082Y-126174440D01*
X77439370Y-126560912D01*
X77832549Y-126877036D01*
X78279642Y-127110770D01*
X78763619Y-127253213D01*
X79266047Y-127298937D01*
X79767786Y-127246202D01*
X80249728Y-127097016D01*
X80693514Y-126857062D01*
X81082240Y-126535479D01*
X81401101Y-126144517D01*
X81637951Y-125699067D01*
X81783769Y-125216096D01*
X81829461Y-124750092D01*
X88093252Y-124750092D01*
X88149488Y-125251452D01*
X88302035Y-125732340D01*
X88545082Y-126174440D01*
X88869370Y-126560912D01*
X89262549Y-126877036D01*
X89709642Y-127110770D01*
X90193619Y-127253213D01*
X90696047Y-127298937D01*
X91197786Y-127246202D01*
X91679728Y-127097016D01*
X92123514Y-126857062D01*
X92512240Y-126535479D01*
X92831101Y-126144517D01*
X93067951Y-125699067D01*
X93213769Y-125216096D01*
X93259461Y-124750092D01*
X99523252Y-124750092D01*
X99579488Y-125251452D01*
X99732035Y-125732340D01*
X99975082Y-126174440D01*
X100299370Y-126560912D01*
X100692549Y-126877036D01*
X101139642Y-127110770D01*
X101623619Y-127253213D01*
X102126047Y-127298937D01*
X102627786Y-127246202D01*
X103109728Y-127097016D01*
X103553514Y-126857062D01*
X103942240Y-126535479D01*
X104261101Y-126144517D01*
X104497951Y-125699067D01*
X104643769Y-125216096D01*
X104689461Y-124750092D01*
X110953252Y-124750092D01*
X111009488Y-125251452D01*
X111162035Y-125732340D01*
X111405082Y-126174440D01*
X111729370Y-126560912D01*
X112122549Y-126877036D01*
X112569642Y-127110770D01*
X113053619Y-127253213D01*
X113556047Y-127298937D01*
X114057786Y-127246202D01*
X114539728Y-127097016D01*
X114983514Y-126857062D01*
X115372240Y-126535479D01*
X115691101Y-126144517D01*
X115927951Y-125699067D01*
X116073769Y-125216096D01*
X116119461Y-124750092D01*
X122383252Y-124750092D01*
X122439488Y-125251452D01*
X122592035Y-125732340D01*
X122835082Y-126174440D01*
X123159370Y-126560912D01*
X123552549Y-126877036D01*
X123999642Y-127110770D01*
X124483619Y-127253213D01*
X124986047Y-127298937D01*
X125487786Y-127246202D01*
X125969728Y-127097016D01*
X126413514Y-126857062D01*
X126802240Y-126535479D01*
X127121101Y-126144517D01*
X127357951Y-125699067D01*
X127503769Y-125216096D01*
X127549461Y-124750092D01*
X133813252Y-124750092D01*
X133869488Y-125251452D01*
X134022035Y-125732340D01*
X134265082Y-126174440D01*
X134589370Y-126560912D01*
X134982549Y-126877036D01*
X135429642Y-127110770D01*
X135913619Y-127253213D01*
X136416047Y-127298937D01*
X136917786Y-127246202D01*
X137399728Y-127097016D01*
X137843514Y-126857062D01*
X138232240Y-126535479D01*
X138551101Y-126144517D01*
X138787951Y-125699067D01*
X138933769Y-125216096D01*
X138979461Y-124750092D01*
X145243252Y-124750092D01*
X145299488Y-125251452D01*
X145452035Y-125732340D01*
X145695082Y-126174440D01*
X146019370Y-126560912D01*
X146412549Y-126877036D01*
X146859642Y-127110770D01*
X147343619Y-127253213D01*
X147846047Y-127298937D01*
X148347786Y-127246202D01*
X148829728Y-127097016D01*
X149273514Y-126857062D01*
X149662240Y-126535479D01*
X149981101Y-126144517D01*
X150217951Y-125699067D01*
X150363769Y-125216096D01*
X150409461Y-124750092D01*
X156673252Y-124750092D01*
X156729488Y-125251452D01*
X156882035Y-125732340D01*
X157125082Y-126174440D01*
X157449370Y-126560912D01*
X157842549Y-126877036D01*
X158289642Y-127110770D01*
X158773619Y-127253213D01*
X159276047Y-127298937D01*
X159777786Y-127246202D01*
X160259728Y-127097016D01*
X160703514Y-126857062D01*
X161092240Y-126535479D01*
X161411101Y-126144517D01*
X161647951Y-125699067D01*
X161705072Y-125509872D01*
X166675000Y-125509872D01*
X166675000Y-125950128D01*
X166760890Y-126381925D01*
X166929369Y-126788669D01*
X167173962Y-127154729D01*
X167485271Y-127466038D01*
X167851331Y-127710631D01*
X168258075Y-127879110D01*
X168689872Y-127965000D01*
X169130128Y-127965000D01*
X169561925Y-127879110D01*
X169968669Y-127710631D01*
X170334729Y-127466038D01*
X170646038Y-127154729D01*
X170890631Y-126788669D01*
X171059110Y-126381925D01*
X171145000Y-125950128D01*
X171145000Y-125509872D01*
X171059110Y-125078075D01*
X170890631Y-124671331D01*
X170646038Y-124305271D01*
X170334729Y-123993962D01*
X169968669Y-123749369D01*
X169561925Y-123580890D01*
X169130128Y-123495000D01*
X168689872Y-123495000D01*
X168258075Y-123580890D01*
X167851331Y-123749369D01*
X167485271Y-123993962D01*
X167173962Y-124305271D01*
X166929369Y-124671331D01*
X166760890Y-125078075D01*
X166675000Y-125509872D01*
X161705072Y-125509872D01*
X161793769Y-125216096D01*
X161843000Y-124714000D01*
X161841992Y-124641823D01*
X161778761Y-124141297D01*
X161619515Y-123662586D01*
X161370320Y-123223922D01*
X161040667Y-122842016D01*
X160643112Y-122531412D01*
X160192800Y-122303943D01*
X159706881Y-122168272D01*
X159203864Y-122129567D01*
X158702909Y-122189302D01*
X158223098Y-122345202D01*
X157782705Y-122591329D01*
X157398507Y-122918308D01*
X157085135Y-123313684D01*
X156854528Y-123762398D01*
X156715468Y-124247358D01*
X156673252Y-124750092D01*
X150409461Y-124750092D01*
X150413000Y-124714000D01*
X150411992Y-124641823D01*
X150348761Y-124141297D01*
X150189515Y-123662586D01*
X149940320Y-123223922D01*
X149610667Y-122842016D01*
X149213112Y-122531412D01*
X148762800Y-122303943D01*
X148276881Y-122168272D01*
X147773864Y-122129567D01*
X147272909Y-122189302D01*
X146793098Y-122345202D01*
X146352705Y-122591329D01*
X145968507Y-122918308D01*
X145655135Y-123313684D01*
X145424528Y-123762398D01*
X145285468Y-124247358D01*
X145243252Y-124750092D01*
X138979461Y-124750092D01*
X138983000Y-124714000D01*
X138981992Y-124641823D01*
X138918761Y-124141297D01*
X138759515Y-123662586D01*
X138510320Y-123223922D01*
X138180667Y-122842016D01*
X137783112Y-122531412D01*
X137332800Y-122303943D01*
X136846881Y-122168272D01*
X136343864Y-122129567D01*
X135842909Y-122189302D01*
X135363098Y-122345202D01*
X134922705Y-122591329D01*
X134538507Y-122918308D01*
X134225135Y-123313684D01*
X133994528Y-123762398D01*
X133855468Y-124247358D01*
X133813252Y-124750092D01*
X127549461Y-124750092D01*
X127553000Y-124714000D01*
X127551992Y-124641823D01*
X127488761Y-124141297D01*
X127329515Y-123662586D01*
X127080320Y-123223922D01*
X126750667Y-122842016D01*
X126353112Y-122531412D01*
X125902800Y-122303943D01*
X125416881Y-122168272D01*
X124913864Y-122129567D01*
X124412909Y-122189302D01*
X123933098Y-122345202D01*
X123492705Y-122591329D01*
X123108507Y-122918308D01*
X122795135Y-123313684D01*
X122564528Y-123762398D01*
X122425468Y-124247358D01*
X122383252Y-124750092D01*
X116119461Y-124750092D01*
X116123000Y-124714000D01*
X116121992Y-124641823D01*
X116058761Y-124141297D01*
X115899515Y-123662586D01*
X115650320Y-123223922D01*
X115320667Y-122842016D01*
X114923112Y-122531412D01*
X114472800Y-122303943D01*
X113986881Y-122168272D01*
X113483864Y-122129567D01*
X112982909Y-122189302D01*
X112503098Y-122345202D01*
X112062705Y-122591329D01*
X111678507Y-122918308D01*
X111365135Y-123313684D01*
X111134528Y-123762398D01*
X110995468Y-124247358D01*
X110953252Y-124750092D01*
X104689461Y-124750092D01*
X104693000Y-124714000D01*
X104691992Y-124641823D01*
X104628761Y-124141297D01*
X104469515Y-123662586D01*
X104220320Y-123223922D01*
X103890667Y-122842016D01*
X103493112Y-122531412D01*
X103042800Y-122303943D01*
X102556881Y-122168272D01*
X102053864Y-122129567D01*
X101552909Y-122189302D01*
X101073098Y-122345202D01*
X100632705Y-122591329D01*
X100248507Y-122918308D01*
X99935135Y-123313684D01*
X99704528Y-123762398D01*
X99565468Y-124247358D01*
X99523252Y-124750092D01*
X93259461Y-124750092D01*
X93263000Y-124714000D01*
X93261992Y-124641823D01*
X93198761Y-124141297D01*
X93039515Y-123662586D01*
X92790320Y-123223922D01*
X92460667Y-122842016D01*
X92063112Y-122531412D01*
X91612800Y-122303943D01*
X91126881Y-122168272D01*
X90623864Y-122129567D01*
X90122909Y-122189302D01*
X89643098Y-122345202D01*
X89202705Y-122591329D01*
X88818507Y-122918308D01*
X88505135Y-123313684D01*
X88274528Y-123762398D01*
X88135468Y-124247358D01*
X88093252Y-124750092D01*
X81829461Y-124750092D01*
X81833000Y-124714000D01*
X81831992Y-124641823D01*
X81768761Y-124141297D01*
X81609515Y-123662586D01*
X81360320Y-123223922D01*
X81030667Y-122842016D01*
X80633112Y-122531412D01*
X80182800Y-122303943D01*
X79696881Y-122168272D01*
X79193864Y-122129567D01*
X78692909Y-122189302D01*
X78213098Y-122345202D01*
X77772705Y-122591329D01*
X77388507Y-122918308D01*
X77075135Y-123313684D01*
X76844528Y-123762398D01*
X76705468Y-124247358D01*
X76663252Y-124750092D01*
X70399461Y-124750092D01*
X70403000Y-124714000D01*
X70401992Y-124641823D01*
X70338761Y-124141297D01*
X70179515Y-123662586D01*
X69930320Y-123223922D01*
X69600667Y-122842016D01*
X69203112Y-122531412D01*
X68752800Y-122303943D01*
X68266881Y-122168272D01*
X67763864Y-122129567D01*
X67262909Y-122189302D01*
X66783098Y-122345202D01*
X66342705Y-122591329D01*
X65958507Y-122918308D01*
X65645135Y-123313684D01*
X65414528Y-123762398D01*
X65275468Y-124247358D01*
X65233252Y-124750092D01*
X58969461Y-124750092D01*
X58973000Y-124714000D01*
X58971992Y-124641823D01*
X58908761Y-124141297D01*
X58749515Y-123662586D01*
X58500320Y-123223922D01*
X58170667Y-122842016D01*
X57773112Y-122531412D01*
X57322800Y-122303943D01*
X56836881Y-122168272D01*
X56333864Y-122129567D01*
X55832909Y-122189302D01*
X55353098Y-122345202D01*
X54912705Y-122591329D01*
X54528507Y-122918308D01*
X54215135Y-123313684D01*
X53984528Y-123762398D01*
X53845468Y-124247358D01*
X53803252Y-124750092D01*
X43923255Y-124750092D01*
X43890631Y-124671331D01*
X43646038Y-124305271D01*
X43334729Y-123993962D01*
X42968669Y-123749369D01*
X42561925Y-123580890D01*
X42130128Y-123495000D01*
X41689872Y-123495000D01*
X41258075Y-123580890D01*
X40851331Y-123749369D01*
X40485271Y-123993962D01*
X40173962Y-124305271D01*
X39929369Y-124671331D01*
X39760890Y-125078075D01*
X39675000Y-125509872D01*
X34950000Y-125509872D01*
X34950000Y-113320092D01*
X56343252Y-113320092D01*
X56399488Y-113821452D01*
X56552035Y-114302340D01*
X56795082Y-114744440D01*
X57119370Y-115130912D01*
X57512549Y-115447036D01*
X57959642Y-115680770D01*
X58443619Y-115823213D01*
X58946047Y-115868937D01*
X59447786Y-115816202D01*
X59929728Y-115667016D01*
X60373514Y-115427062D01*
X60762240Y-115105479D01*
X61081101Y-114714517D01*
X61317951Y-114269067D01*
X61463769Y-113786096D01*
X61509461Y-113320092D01*
X67773252Y-113320092D01*
X67829488Y-113821452D01*
X67982035Y-114302340D01*
X68225082Y-114744440D01*
X68549370Y-115130912D01*
X68942549Y-115447036D01*
X69389642Y-115680770D01*
X69873619Y-115823213D01*
X70376047Y-115868937D01*
X70877786Y-115816202D01*
X71359728Y-115667016D01*
X71803514Y-115427062D01*
X72192240Y-115105479D01*
X72511101Y-114714517D01*
X72747951Y-114269067D01*
X72893769Y-113786096D01*
X72939461Y-113320092D01*
X79203252Y-113320092D01*
X79259488Y-113821452D01*
X79412035Y-114302340D01*
X79655082Y-114744440D01*
X79979370Y-115130912D01*
X80372549Y-115447036D01*
X80819642Y-115680770D01*
X81303619Y-115823213D01*
X81806047Y-115868937D01*
X82307786Y-115816202D01*
X82789728Y-115667016D01*
X83233514Y-115427062D01*
X83622240Y-115105479D01*
X83941101Y-114714517D01*
X84177951Y-114269067D01*
X84323769Y-113786096D01*
X84369461Y-113320092D01*
X90633252Y-113320092D01*
X90689488Y-113821452D01*
X90842035Y-114302340D01*
X91085082Y-114744440D01*
X91409370Y-115130912D01*
X91802549Y-115447036D01*
X92249642Y-115680770D01*
X92733619Y-115823213D01*
X93236047Y-115868937D01*
X93737786Y-115816202D01*
X94219728Y-115667016D01*
X94663514Y-115427062D01*
X95052240Y-115105479D01*
X95371101Y-114714517D01*
X95607951Y-114269067D01*
X95753769Y-113786096D01*
X95799461Y-113320092D01*
X102063252Y-113320092D01*
X102119488Y-113821452D01*
X102272035Y-114302340D01*
X102515082Y-114744440D01*
X102839370Y-115130912D01*
X103232549Y-115447036D01*
X103679642Y-115680770D01*
X104163619Y-115823213D01*
X104666047Y-115868937D01*
X105167786Y-115816202D01*
X105649728Y-115667016D01*
X106093514Y-115427062D01*
X106482240Y-115105479D01*
X106801101Y-114714517D01*
X107037951Y-114269067D01*
X107183769Y-113786096D01*
X107229461Y-113320092D01*
X113493252Y-113320092D01*
X113549488Y-113821452D01*
X113702035Y-114302340D01*
X113945082Y-114744440D01*
X114269370Y-115130912D01*
X114662549Y-115447036D01*
X115109642Y-115680770D01*
X115593619Y-115823213D01*
X116096047Y-115868937D01*
X116597786Y-115816202D01*
X117079728Y-115667016D01*
X117523514Y-115427062D01*
X117912240Y-115105479D01*
X118231101Y-114714517D01*
X118467951Y-114269067D01*
X118613769Y-113786096D01*
X118659461Y-113320092D01*
X124923252Y-113320092D01*
X124979488Y-113821452D01*
X125132035Y-114302340D01*
X125375082Y-114744440D01*
X125699370Y-115130912D01*
X126092549Y-115447036D01*
X126539642Y-115680770D01*
X127023619Y-115823213D01*
X127526047Y-115868937D01*
X128027786Y-115816202D01*
X128509728Y-115667016D01*
X128953514Y-115427062D01*
X129342240Y-115105479D01*
X129661101Y-114714517D01*
X129897951Y-114269067D01*
X130043769Y-113786096D01*
X130089461Y-113320092D01*
X136353252Y-113320092D01*
X136409488Y-113821452D01*
X136562035Y-114302340D01*
X136805082Y-114744440D01*
X137129370Y-115130912D01*
X137522549Y-115447036D01*
X137969642Y-115680770D01*
X138453619Y-115823213D01*
X138956047Y-115868937D01*
X139457786Y-115816202D01*
X139939728Y-115667016D01*
X140383514Y-115427062D01*
X140772240Y-115105479D01*
X141091101Y-114714517D01*
X141327951Y-114269067D01*
X141473769Y-113786096D01*
X141519461Y-113320092D01*
X147783252Y-113320092D01*
X147839488Y-113821452D01*
X147992035Y-114302340D01*
X148235082Y-114744440D01*
X148559370Y-115130912D01*
X148952549Y-115447036D01*
X149399642Y-115680770D01*
X149883619Y-115823213D01*
X150386047Y-115868937D01*
X150887786Y-115816202D01*
X151369728Y-115667016D01*
X151813514Y-115427062D01*
X152202240Y-115105479D01*
X152521101Y-114714517D01*
X152757951Y-114269067D01*
X152903769Y-113786096D01*
X152949461Y-113320092D01*
X159213252Y-113320092D01*
X159269488Y-113821452D01*
X159422035Y-114302340D01*
X159665082Y-114744440D01*
X159989370Y-115130912D01*
X160382549Y-115447036D01*
X160829642Y-115680770D01*
X161313619Y-115823213D01*
X161816047Y-115868937D01*
X162317786Y-115816202D01*
X162799728Y-115667016D01*
X163243514Y-115427062D01*
X163632240Y-115105479D01*
X163951101Y-114714517D01*
X164187951Y-114269067D01*
X164333769Y-113786096D01*
X164383000Y-113284000D01*
X164381992Y-113211823D01*
X164318761Y-112711297D01*
X164159515Y-112232586D01*
X163910320Y-111793922D01*
X163580667Y-111412016D01*
X163183112Y-111101412D01*
X162732800Y-110873943D01*
X162246881Y-110738272D01*
X161743864Y-110699567D01*
X161242909Y-110759302D01*
X160763098Y-110915202D01*
X160322705Y-111161329D01*
X159938507Y-111488308D01*
X159625135Y-111883684D01*
X159394528Y-112332398D01*
X159255468Y-112817358D01*
X159213252Y-113320092D01*
X152949461Y-113320092D01*
X152953000Y-113284000D01*
X152951992Y-113211823D01*
X152888761Y-112711297D01*
X152729515Y-112232586D01*
X152480320Y-111793922D01*
X152150667Y-111412016D01*
X151753112Y-111101412D01*
X151302800Y-110873943D01*
X150816881Y-110738272D01*
X150313864Y-110699567D01*
X149812909Y-110759302D01*
X149333098Y-110915202D01*
X148892705Y-111161329D01*
X148508507Y-111488308D01*
X148195135Y-111883684D01*
X147964528Y-112332398D01*
X147825468Y-112817358D01*
X147783252Y-113320092D01*
X141519461Y-113320092D01*
X141523000Y-113284000D01*
X141521992Y-113211823D01*
X141458761Y-112711297D01*
X141299515Y-112232586D01*
X141050320Y-111793922D01*
X140720667Y-111412016D01*
X140323112Y-111101412D01*
X139872800Y-110873943D01*
X139386881Y-110738272D01*
X138883864Y-110699567D01*
X138382909Y-110759302D01*
X137903098Y-110915202D01*
X137462705Y-111161329D01*
X137078507Y-111488308D01*
X136765135Y-111883684D01*
X136534528Y-112332398D01*
X136395468Y-112817358D01*
X136353252Y-113320092D01*
X130089461Y-113320092D01*
X130093000Y-113284000D01*
X130091992Y-113211823D01*
X130028761Y-112711297D01*
X129869515Y-112232586D01*
X129620320Y-111793922D01*
X129290667Y-111412016D01*
X128893112Y-111101412D01*
X128442800Y-110873943D01*
X127956881Y-110738272D01*
X127453864Y-110699567D01*
X126952909Y-110759302D01*
X126473098Y-110915202D01*
X126032705Y-111161329D01*
X125648507Y-111488308D01*
X125335135Y-111883684D01*
X125104528Y-112332398D01*
X124965468Y-112817358D01*
X124923252Y-113320092D01*
X118659461Y-113320092D01*
X118663000Y-113284000D01*
X118661992Y-113211823D01*
X118598761Y-112711297D01*
X118439515Y-112232586D01*
X118190320Y-111793922D01*
X117860667Y-111412016D01*
X117463112Y-111101412D01*
X117012800Y-110873943D01*
X116526881Y-110738272D01*
X116023864Y-110699567D01*
X115522909Y-110759302D01*
X115043098Y-110915202D01*
X114602705Y-111161329D01*
X114218507Y-111488308D01*
X113905135Y-111883684D01*
X113674528Y-112332398D01*
X113535468Y-112817358D01*
X113493252Y-113320092D01*
X107229461Y-113320092D01*
X107233000Y-113284000D01*
X107231992Y-113211823D01*
X107168761Y-112711297D01*
X107009515Y-112232586D01*
X106760320Y-111793922D01*
X106430667Y-111412016D01*
X106033112Y-111101412D01*
X105582800Y-110873943D01*
X105096881Y-110738272D01*
X104593864Y-110699567D01*
X104092909Y-110759302D01*
X103613098Y-110915202D01*
X103172705Y-111161329D01*
X102788507Y-111488308D01*
X102475135Y-111883684D01*
X102244528Y-112332398D01*
X102105468Y-112817358D01*
X102063252Y-113320092D01*
X95799461Y-113320092D01*
X95803000Y-113284000D01*
X95801992Y-113211823D01*
X95738761Y-112711297D01*
X95579515Y-112232586D01*
X95330320Y-111793922D01*
X95000667Y-111412016D01*
X94603112Y-111101412D01*
X94152800Y-110873943D01*
X93666881Y-110738272D01*
X93163864Y-110699567D01*
X92662909Y-110759302D01*
X92183098Y-110915202D01*
X91742705Y-111161329D01*
X91358507Y-111488308D01*
X91045135Y-111883684D01*
X90814528Y-112332398D01*
X90675468Y-112817358D01*
X90633252Y-113320092D01*
X84369461Y-113320092D01*
X84373000Y-113284000D01*
X84371992Y-113211823D01*
X84308761Y-112711297D01*
X84149515Y-112232586D01*
X83900320Y-111793922D01*
X83570667Y-111412016D01*
X83173112Y-111101412D01*
X82722800Y-110873943D01*
X82236881Y-110738272D01*
X81733864Y-110699567D01*
X81232909Y-110759302D01*
X80753098Y-110915202D01*
X80312705Y-111161329D01*
X79928507Y-111488308D01*
X79615135Y-111883684D01*
X79384528Y-112332398D01*
X79245468Y-112817358D01*
X79203252Y-113320092D01*
X72939461Y-113320092D01*
X72943000Y-113284000D01*
X72941992Y-113211823D01*
X72878761Y-112711297D01*
X72719515Y-112232586D01*
X72470320Y-111793922D01*
X72140667Y-111412016D01*
X71743112Y-111101412D01*
X71292800Y-110873943D01*
X70806881Y-110738272D01*
X70303864Y-110699567D01*
X69802909Y-110759302D01*
X69323098Y-110915202D01*
X68882705Y-111161329D01*
X68498507Y-111488308D01*
X68185135Y-111883684D01*
X67954528Y-112332398D01*
X67815468Y-112817358D01*
X67773252Y-113320092D01*
X61509461Y-113320092D01*
X61513000Y-113284000D01*
X61511992Y-113211823D01*
X61448761Y-112711297D01*
X61289515Y-112232586D01*
X61040320Y-111793922D01*
X60710667Y-111412016D01*
X60313112Y-111101412D01*
X59862800Y-110873943D01*
X59376881Y-110738272D01*
X58873864Y-110699567D01*
X58372909Y-110759302D01*
X57893098Y-110915202D01*
X57452705Y-111161329D01*
X57068507Y-111488308D01*
X56755135Y-111883684D01*
X56524528Y-112332398D01*
X56385468Y-112817358D01*
X56343252Y-113320092D01*
X34950000Y-113320092D01*
X34950000Y-101890092D01*
X53803252Y-101890092D01*
X53859488Y-102391452D01*
X54012035Y-102872340D01*
X54255082Y-103314440D01*
X54579370Y-103700912D01*
X54972549Y-104017036D01*
X55419642Y-104250770D01*
X55903619Y-104393213D01*
X56406047Y-104438937D01*
X56907786Y-104386202D01*
X57389728Y-104237016D01*
X57833514Y-103997062D01*
X58222240Y-103675479D01*
X58541101Y-103284517D01*
X58777951Y-102839067D01*
X58923769Y-102356096D01*
X58969461Y-101890092D01*
X65233252Y-101890092D01*
X65289488Y-102391452D01*
X65442035Y-102872340D01*
X65685082Y-103314440D01*
X66009370Y-103700912D01*
X66402549Y-104017036D01*
X66849642Y-104250770D01*
X67333619Y-104393213D01*
X67836047Y-104438937D01*
X68337786Y-104386202D01*
X68819728Y-104237016D01*
X69263514Y-103997062D01*
X69652240Y-103675479D01*
X69971101Y-103284517D01*
X70207951Y-102839067D01*
X70353769Y-102356096D01*
X70399461Y-101890092D01*
X76663252Y-101890092D01*
X76719488Y-102391452D01*
X76872035Y-102872340D01*
X77115082Y-103314440D01*
X77439370Y-103700912D01*
X77832549Y-104017036D01*
X78279642Y-104250770D01*
X78763619Y-104393213D01*
X79266047Y-104438937D01*
X79767786Y-104386202D01*
X80249728Y-104237016D01*
X80693514Y-103997062D01*
X81082240Y-103675479D01*
X81401101Y-103284517D01*
X81637951Y-102839067D01*
X81783769Y-102356096D01*
X81829461Y-101890092D01*
X88093252Y-101890092D01*
X88149488Y-102391452D01*
X88302035Y-102872340D01*
X88545082Y-103314440D01*
X88869370Y-103700912D01*
X89262549Y-104017036D01*
X89709642Y-104250770D01*
X90193619Y-104393213D01*
X90696047Y-104438937D01*
X91197786Y-104386202D01*
X91679728Y-104237016D01*
X92123514Y-103997062D01*
X92512240Y-103675479D01*
X92831101Y-103284517D01*
X93067951Y-102839067D01*
X93213769Y-102356096D01*
X93259461Y-101890092D01*
X99523252Y-101890092D01*
X99579488Y-102391452D01*
X99732035Y-102872340D01*
X99975082Y-103314440D01*
X100299370Y-103700912D01*
X100692549Y-104017036D01*
X101139642Y-104250770D01*
X101623619Y-104393213D01*
X102126047Y-104438937D01*
X102627786Y-104386202D01*
X103109728Y-104237016D01*
X103553514Y-103997062D01*
X103942240Y-103675479D01*
X104261101Y-103284517D01*
X104497951Y-102839067D01*
X104643769Y-102356096D01*
X104689461Y-101890092D01*
X110953252Y-101890092D01*
X111009488Y-102391452D01*
X111162035Y-102872340D01*
X111405082Y-103314440D01*
X111729370Y-103700912D01*
X112122549Y-104017036D01*
X112569642Y-104250770D01*
X113053619Y-104393213D01*
X113556047Y-104438937D01*
X114057786Y-104386202D01*
X114539728Y-104237016D01*
X114983514Y-103997062D01*
X115372240Y-103675479D01*
X115691101Y-103284517D01*
X115927951Y-102839067D01*
X116073769Y-102356096D01*
X116119461Y-101890092D01*
X122383252Y-101890092D01*
X122439488Y-102391452D01*
X122592035Y-102872340D01*
X122835082Y-103314440D01*
X123159370Y-103700912D01*
X123552549Y-104017036D01*
X123999642Y-104250770D01*
X124483619Y-104393213D01*
X124986047Y-104438937D01*
X125487786Y-104386202D01*
X125969728Y-104237016D01*
X126413514Y-103997062D01*
X126802240Y-103675479D01*
X127121101Y-103284517D01*
X127357951Y-102839067D01*
X127503769Y-102356096D01*
X127549461Y-101890092D01*
X133813252Y-101890092D01*
X133869488Y-102391452D01*
X134022035Y-102872340D01*
X134265082Y-103314440D01*
X134589370Y-103700912D01*
X134982549Y-104017036D01*
X135429642Y-104250770D01*
X135913619Y-104393213D01*
X136416047Y-104438937D01*
X136917786Y-104386202D01*
X137399728Y-104237016D01*
X137843514Y-103997062D01*
X138232240Y-103675479D01*
X138551101Y-103284517D01*
X138787951Y-102839067D01*
X138933769Y-102356096D01*
X138979461Y-101890092D01*
X145243252Y-101890092D01*
X145299488Y-102391452D01*
X145452035Y-102872340D01*
X145695082Y-103314440D01*
X146019370Y-103700912D01*
X146412549Y-104017036D01*
X146859642Y-104250770D01*
X147343619Y-104393213D01*
X147846047Y-104438937D01*
X148347786Y-104386202D01*
X148829728Y-104237016D01*
X149273514Y-103997062D01*
X149662240Y-103675479D01*
X149981101Y-103284517D01*
X150217951Y-102839067D01*
X150363769Y-102356096D01*
X150409461Y-101890092D01*
X156673252Y-101890092D01*
X156729488Y-102391452D01*
X156882035Y-102872340D01*
X157125082Y-103314440D01*
X157449370Y-103700912D01*
X157842549Y-104017036D01*
X158289642Y-104250770D01*
X158773619Y-104393213D01*
X159276047Y-104438937D01*
X159777786Y-104386202D01*
X160259728Y-104237016D01*
X160703514Y-103997062D01*
X161092240Y-103675479D01*
X161411101Y-103284517D01*
X161647951Y-102839067D01*
X161793769Y-102356096D01*
X161843000Y-101854000D01*
X161841992Y-101781823D01*
X161778761Y-101281297D01*
X161619515Y-100802586D01*
X161370320Y-100363922D01*
X161040667Y-99982016D01*
X160643112Y-99671412D01*
X160192800Y-99443943D01*
X159706881Y-99308272D01*
X159203864Y-99269567D01*
X158702909Y-99329302D01*
X158223098Y-99485202D01*
X157782705Y-99731329D01*
X157398507Y-100058308D01*
X157085135Y-100453684D01*
X156854528Y-100902398D01*
X156715468Y-101387358D01*
X156673252Y-101890092D01*
X150409461Y-101890092D01*
X150413000Y-101854000D01*
X150411992Y-101781823D01*
X150348761Y-101281297D01*
X150189515Y-100802586D01*
X149940320Y-100363922D01*
X149610667Y-99982016D01*
X149213112Y-99671412D01*
X148762800Y-99443943D01*
X148276881Y-99308272D01*
X147773864Y-99269567D01*
X147272909Y-99329302D01*
X146793098Y-99485202D01*
X146352705Y-99731329D01*
X145968507Y-100058308D01*
X145655135Y-100453684D01*
X145424528Y-100902398D01*
X145285468Y-101387358D01*
X145243252Y-101890092D01*
X138979461Y-101890092D01*
X138983000Y-101854000D01*
X138981992Y-101781823D01*
X138918761Y-101281297D01*
X138759515Y-100802586D01*
X138510320Y-100363922D01*
X138180667Y-99982016D01*
X137783112Y-99671412D01*
X137332800Y-99443943D01*
X136846881Y-99308272D01*
X136343864Y-99269567D01*
X135842909Y-99329302D01*
X135363098Y-99485202D01*
X134922705Y-99731329D01*
X134538507Y-100058308D01*
X134225135Y-100453684D01*
X133994528Y-100902398D01*
X133855468Y-101387358D01*
X133813252Y-101890092D01*
X127549461Y-101890092D01*
X127553000Y-101854000D01*
X127551992Y-101781823D01*
X127488761Y-101281297D01*
X127329515Y-100802586D01*
X127080320Y-100363922D01*
X126750667Y-99982016D01*
X126353112Y-99671412D01*
X125902800Y-99443943D01*
X125416881Y-99308272D01*
X124913864Y-99269567D01*
X124412909Y-99329302D01*
X123933098Y-99485202D01*
X123492705Y-99731329D01*
X123108507Y-100058308D01*
X122795135Y-100453684D01*
X122564528Y-100902398D01*
X122425468Y-101387358D01*
X122383252Y-101890092D01*
X116119461Y-101890092D01*
X116123000Y-101854000D01*
X116121992Y-101781823D01*
X116058761Y-101281297D01*
X115899515Y-100802586D01*
X115650320Y-100363922D01*
X115320667Y-99982016D01*
X114923112Y-99671412D01*
X114472800Y-99443943D01*
X113986881Y-99308272D01*
X113483864Y-99269567D01*
X112982909Y-99329302D01*
X112503098Y-99485202D01*
X112062705Y-99731329D01*
X111678507Y-100058308D01*
X111365135Y-100453684D01*
X111134528Y-100902398D01*
X110995468Y-101387358D01*
X110953252Y-101890092D01*
X104689461Y-101890092D01*
X104693000Y-101854000D01*
X104691992Y-101781823D01*
X104628761Y-101281297D01*
X104469515Y-100802586D01*
X104220320Y-100363922D01*
X103890667Y-99982016D01*
X103493112Y-99671412D01*
X103042800Y-99443943D01*
X102556881Y-99308272D01*
X102053864Y-99269567D01*
X101552909Y-99329302D01*
X101073098Y-99485202D01*
X100632705Y-99731329D01*
X100248507Y-100058308D01*
X99935135Y-100453684D01*
X99704528Y-100902398D01*
X99565468Y-101387358D01*
X99523252Y-101890092D01*
X93259461Y-101890092D01*
X93263000Y-101854000D01*
X93261992Y-101781823D01*
X93198761Y-101281297D01*
X93039515Y-100802586D01*
X92790320Y-100363922D01*
X92460667Y-99982016D01*
X92063112Y-99671412D01*
X91612800Y-99443943D01*
X91126881Y-99308272D01*
X90623864Y-99269567D01*
X90122909Y-99329302D01*
X89643098Y-99485202D01*
X89202705Y-99731329D01*
X88818507Y-100058308D01*
X88505135Y-100453684D01*
X88274528Y-100902398D01*
X88135468Y-101387358D01*
X88093252Y-101890092D01*
X81829461Y-101890092D01*
X81833000Y-101854000D01*
X81831992Y-101781823D01*
X81768761Y-101281297D01*
X81609515Y-100802586D01*
X81360320Y-100363922D01*
X81030667Y-99982016D01*
X80633112Y-99671412D01*
X80182800Y-99443943D01*
X79696881Y-99308272D01*
X79193864Y-99269567D01*
X78692909Y-99329302D01*
X78213098Y-99485202D01*
X77772705Y-99731329D01*
X77388507Y-100058308D01*
X77075135Y-100453684D01*
X76844528Y-100902398D01*
X76705468Y-101387358D01*
X76663252Y-101890092D01*
X70399461Y-101890092D01*
X70403000Y-101854000D01*
X70401992Y-101781823D01*
X70338761Y-101281297D01*
X70179515Y-100802586D01*
X69930320Y-100363922D01*
X69600667Y-99982016D01*
X69203112Y-99671412D01*
X68752800Y-99443943D01*
X68266881Y-99308272D01*
X67763864Y-99269567D01*
X67262909Y-99329302D01*
X66783098Y-99485202D01*
X66342705Y-99731329D01*
X65958507Y-100058308D01*
X65645135Y-100453684D01*
X65414528Y-100902398D01*
X65275468Y-101387358D01*
X65233252Y-101890092D01*
X58969461Y-101890092D01*
X58973000Y-101854000D01*
X58971992Y-101781823D01*
X58908761Y-101281297D01*
X58749515Y-100802586D01*
X58500320Y-100363922D01*
X58170667Y-99982016D01*
X57773112Y-99671412D01*
X57322800Y-99443943D01*
X56836881Y-99308272D01*
X56333864Y-99269567D01*
X55832909Y-99329302D01*
X55353098Y-99485202D01*
X54912705Y-99731329D01*
X54528507Y-100058308D01*
X54215135Y-100453684D01*
X53984528Y-100902398D01*
X53845468Y-101387358D01*
X53803252Y-101890092D01*
X34950000Y-101890092D01*
X34950000Y-90460092D01*
X51263252Y-90460092D01*
X51319488Y-90961452D01*
X51472035Y-91442340D01*
X51715082Y-91884440D01*
X52039370Y-92270912D01*
X52432549Y-92587036D01*
X52879642Y-92820770D01*
X53363619Y-92963213D01*
X53866047Y-93008937D01*
X54367786Y-92956202D01*
X54849728Y-92807016D01*
X55293514Y-92567062D01*
X55682240Y-92245479D01*
X56001101Y-91854517D01*
X56237951Y-91409067D01*
X56383769Y-90926096D01*
X56429461Y-90460092D01*
X62693252Y-90460092D01*
X62749488Y-90961452D01*
X62902035Y-91442340D01*
X63145082Y-91884440D01*
X63469370Y-92270912D01*
X63862549Y-92587036D01*
X64309642Y-92820770D01*
X64793619Y-92963213D01*
X65296047Y-93008937D01*
X65797786Y-92956202D01*
X66279728Y-92807016D01*
X66723514Y-92567062D01*
X67112240Y-92245479D01*
X67431101Y-91854517D01*
X67667951Y-91409067D01*
X67813769Y-90926096D01*
X67859461Y-90460092D01*
X74123252Y-90460092D01*
X74179488Y-90961452D01*
X74332035Y-91442340D01*
X74575082Y-91884440D01*
X74899370Y-92270912D01*
X75292549Y-92587036D01*
X75739642Y-92820770D01*
X76223619Y-92963213D01*
X76726047Y-93008937D01*
X77227786Y-92956202D01*
X77709728Y-92807016D01*
X78153514Y-92567062D01*
X78542240Y-92245479D01*
X78861101Y-91854517D01*
X79097951Y-91409067D01*
X79243769Y-90926096D01*
X79289461Y-90460092D01*
X85553252Y-90460092D01*
X85609488Y-90961452D01*
X85762035Y-91442340D01*
X86005082Y-91884440D01*
X86329370Y-92270912D01*
X86722549Y-92587036D01*
X87169642Y-92820770D01*
X87653619Y-92963213D01*
X88156047Y-93008937D01*
X88657786Y-92956202D01*
X89139728Y-92807016D01*
X89583514Y-92567062D01*
X89972240Y-92245479D01*
X90291101Y-91854517D01*
X90527951Y-91409067D01*
X90673769Y-90926096D01*
X90719461Y-90460092D01*
X96983252Y-90460092D01*
X97039488Y-90961452D01*
X97192035Y-91442340D01*
X97435082Y-91884440D01*
X97759370Y-92270912D01*
X98152549Y-92587036D01*
X98599642Y-92820770D01*
X99083619Y-92963213D01*
X99586047Y-93008937D01*
X100087786Y-92956202D01*
X100569728Y-92807016D01*
X101013514Y-92567062D01*
X101402240Y-92245479D01*
X101721101Y-91854517D01*
X101957951Y-91409067D01*
X102103769Y-90926096D01*
X102149461Y-90460092D01*
X108413252Y-90460092D01*
X108469488Y-90961452D01*
X108622035Y-91442340D01*
X108865082Y-91884440D01*
X109189370Y-92270912D01*
X109582549Y-92587036D01*
X110029642Y-92820770D01*
X110513619Y-92963213D01*
X111016047Y-93008937D01*
X111517786Y-92956202D01*
X111999728Y-92807016D01*
X112443514Y-92567062D01*
X112832240Y-92245479D01*
X113151101Y-91854517D01*
X113387951Y-91409067D01*
X113533769Y-90926096D01*
X113579461Y-90460092D01*
X119843252Y-90460092D01*
X119899488Y-90961452D01*
X120052035Y-91442340D01*
X120295082Y-91884440D01*
X120619370Y-92270912D01*
X121012549Y-92587036D01*
X121459642Y-92820770D01*
X121943619Y-92963213D01*
X122446047Y-93008937D01*
X122947786Y-92956202D01*
X123429728Y-92807016D01*
X123873514Y-92567062D01*
X124262240Y-92245479D01*
X124581101Y-91854517D01*
X124817951Y-91409067D01*
X124963769Y-90926096D01*
X125009461Y-90460092D01*
X131273252Y-90460092D01*
X131329488Y-90961452D01*
X131482035Y-91442340D01*
X131725082Y-91884440D01*
X132049370Y-92270912D01*
X132442549Y-92587036D01*
X132889642Y-92820770D01*
X133373619Y-92963213D01*
X133876047Y-93008937D01*
X134377786Y-92956202D01*
X134859728Y-92807016D01*
X135303514Y-92567062D01*
X135692240Y-92245479D01*
X136011101Y-91854517D01*
X136247951Y-91409067D01*
X136393769Y-90926096D01*
X136439461Y-90460092D01*
X142703252Y-90460092D01*
X142759488Y-90961452D01*
X142912035Y-91442340D01*
X143155082Y-91884440D01*
X143479370Y-92270912D01*
X143872549Y-92587036D01*
X144319642Y-92820770D01*
X144803619Y-92963213D01*
X145306047Y-93008937D01*
X145807786Y-92956202D01*
X146289728Y-92807016D01*
X146733514Y-92567062D01*
X147122240Y-92245479D01*
X147441101Y-91854517D01*
X147677951Y-91409067D01*
X147823769Y-90926096D01*
X147869461Y-90460092D01*
X154133252Y-90460092D01*
X154189488Y-90961452D01*
X154342035Y-91442340D01*
X154585082Y-91884440D01*
X154909370Y-92270912D01*
X155302549Y-92587036D01*
X155749642Y-92820770D01*
X156233619Y-92963213D01*
X156736047Y-93008937D01*
X157237786Y-92956202D01*
X157719728Y-92807016D01*
X158163514Y-92567062D01*
X158552240Y-92245479D01*
X158871101Y-91854517D01*
X159107951Y-91409067D01*
X159253769Y-90926096D01*
X159303000Y-90424000D01*
X159301992Y-90351823D01*
X159238761Y-89851297D01*
X159079515Y-89372586D01*
X158830320Y-88933922D01*
X158500667Y-88552016D01*
X158103112Y-88241412D01*
X157652800Y-88013943D01*
X157166881Y-87878272D01*
X156663864Y-87839567D01*
X156162909Y-87899302D01*
X155683098Y-88055202D01*
X155242705Y-88301329D01*
X154858507Y-88628308D01*
X154545135Y-89023684D01*
X154314528Y-89472398D01*
X154175468Y-89957358D01*
X154133252Y-90460092D01*
X147869461Y-90460092D01*
X147873000Y-90424000D01*
X147871992Y-90351823D01*
X147808761Y-89851297D01*
X147649515Y-89372586D01*
X147400320Y-88933922D01*
X147070667Y-88552016D01*
X146673112Y-88241412D01*
X146222800Y-88013943D01*
X145736881Y-87878272D01*
X145233864Y-87839567D01*
X144732909Y-87899302D01*
X144253098Y-88055202D01*
X143812705Y-88301329D01*
X143428507Y-88628308D01*
X143115135Y-89023684D01*
X142884528Y-89472398D01*
X142745468Y-89957358D01*
X142703252Y-90460092D01*
X136439461Y-90460092D01*
X136443000Y-90424000D01*
X136441992Y-90351823D01*
X136378761Y-89851297D01*
X136219515Y-89372586D01*
X135970320Y-88933922D01*
X135640667Y-88552016D01*
X135243112Y-88241412D01*
X134792800Y-88013943D01*
X134306881Y-87878272D01*
X133803864Y-87839567D01*
X133302909Y-87899302D01*
X132823098Y-88055202D01*
X132382705Y-88301329D01*
X131998507Y-88628308D01*
X131685135Y-89023684D01*
X131454528Y-89472398D01*
X131315468Y-89957358D01*
X131273252Y-90460092D01*
X125009461Y-90460092D01*
X125013000Y-90424000D01*
X125011992Y-90351823D01*
X124948761Y-89851297D01*
X124789515Y-89372586D01*
X124540320Y-88933922D01*
X124210667Y-88552016D01*
X123813112Y-88241412D01*
X123362800Y-88013943D01*
X122876881Y-87878272D01*
X122373864Y-87839567D01*
X121872909Y-87899302D01*
X121393098Y-88055202D01*
X120952705Y-88301329D01*
X120568507Y-88628308D01*
X120255135Y-89023684D01*
X120024528Y-89472398D01*
X119885468Y-89957358D01*
X119843252Y-90460092D01*
X113579461Y-90460092D01*
X113583000Y-90424000D01*
X113581992Y-90351823D01*
X113518761Y-89851297D01*
X113359515Y-89372586D01*
X113110320Y-88933922D01*
X112780667Y-88552016D01*
X112383112Y-88241412D01*
X111932800Y-88013943D01*
X111446881Y-87878272D01*
X110943864Y-87839567D01*
X110442909Y-87899302D01*
X109963098Y-88055202D01*
X109522705Y-88301329D01*
X109138507Y-88628308D01*
X108825135Y-89023684D01*
X108594528Y-89472398D01*
X108455468Y-89957358D01*
X108413252Y-90460092D01*
X102149461Y-90460092D01*
X102153000Y-90424000D01*
X102151992Y-90351823D01*
X102088761Y-89851297D01*
X101929515Y-89372586D01*
X101680320Y-88933922D01*
X101350667Y-88552016D01*
X100953112Y-88241412D01*
X100502800Y-88013943D01*
X100016881Y-87878272D01*
X99513864Y-87839567D01*
X99012909Y-87899302D01*
X98533098Y-88055202D01*
X98092705Y-88301329D01*
X97708507Y-88628308D01*
X97395135Y-89023684D01*
X97164528Y-89472398D01*
X97025468Y-89957358D01*
X96983252Y-90460092D01*
X90719461Y-90460092D01*
X90723000Y-90424000D01*
X90721992Y-90351823D01*
X90658761Y-89851297D01*
X90499515Y-89372586D01*
X90250320Y-88933922D01*
X89920667Y-88552016D01*
X89523112Y-88241412D01*
X89072800Y-88013943D01*
X88586881Y-87878272D01*
X88083864Y-87839567D01*
X87582909Y-87899302D01*
X87103098Y-88055202D01*
X86662705Y-88301329D01*
X86278507Y-88628308D01*
X85965135Y-89023684D01*
X85734528Y-89472398D01*
X85595468Y-89957358D01*
X85553252Y-90460092D01*
X79289461Y-90460092D01*
X79293000Y-90424000D01*
X79291992Y-90351823D01*
X79228761Y-89851297D01*
X79069515Y-89372586D01*
X78820320Y-88933922D01*
X78490667Y-88552016D01*
X78093112Y-88241412D01*
X77642800Y-88013943D01*
X77156881Y-87878272D01*
X76653864Y-87839567D01*
X76152909Y-87899302D01*
X75673098Y-88055202D01*
X75232705Y-88301329D01*
X74848507Y-88628308D01*
X74535135Y-89023684D01*
X74304528Y-89472398D01*
X74165468Y-89957358D01*
X74123252Y-90460092D01*
X67859461Y-90460092D01*
X67863000Y-90424000D01*
X67861992Y-90351823D01*
X67798761Y-89851297D01*
X67639515Y-89372586D01*
X67390320Y-88933922D01*
X67060667Y-88552016D01*
X66663112Y-88241412D01*
X66212800Y-88013943D01*
X65726881Y-87878272D01*
X65223864Y-87839567D01*
X64722909Y-87899302D01*
X64243098Y-88055202D01*
X63802705Y-88301329D01*
X63418507Y-88628308D01*
X63105135Y-89023684D01*
X62874528Y-89472398D01*
X62735468Y-89957358D01*
X62693252Y-90460092D01*
X56429461Y-90460092D01*
X56433000Y-90424000D01*
X56431992Y-90351823D01*
X56368761Y-89851297D01*
X56209515Y-89372586D01*
X55960320Y-88933922D01*
X55630667Y-88552016D01*
X55233112Y-88241412D01*
X54782800Y-88013943D01*
X54296881Y-87878272D01*
X53793864Y-87839567D01*
X53292909Y-87899302D01*
X52813098Y-88055202D01*
X52372705Y-88301329D01*
X51988507Y-88628308D01*
X51675135Y-89023684D01*
X51444528Y-89472398D01*
X51305468Y-89957358D01*
X51263252Y-90460092D01*
X34950000Y-90460092D01*
X34950000Y-87653920D01*
X34967707Y-87409872D01*
X39675000Y-87409872D01*
X39675000Y-87850128D01*
X39760890Y-88281925D01*
X39929369Y-88688669D01*
X40173962Y-89054729D01*
X40485271Y-89366038D01*
X40851331Y-89610631D01*
X41258075Y-89779110D01*
X41689872Y-89865000D01*
X42130128Y-89865000D01*
X42561925Y-89779110D01*
X42968669Y-89610631D01*
X43334729Y-89366038D01*
X43646038Y-89054729D01*
X43890631Y-88688669D01*
X44059110Y-88281925D01*
X44145000Y-87850128D01*
X44145000Y-87409872D01*
X166675000Y-87409872D01*
X166675000Y-87850128D01*
X166760890Y-88281925D01*
X166929369Y-88688669D01*
X167173962Y-89054729D01*
X167485271Y-89366038D01*
X167851331Y-89610631D01*
X168258075Y-89779110D01*
X168689872Y-89865000D01*
X169130128Y-89865000D01*
X169561925Y-89779110D01*
X169968669Y-89610631D01*
X170334729Y-89366038D01*
X170646038Y-89054729D01*
X170890631Y-88688669D01*
X171059110Y-88281925D01*
X171145000Y-87850128D01*
X171145000Y-87409872D01*
X171059110Y-86978075D01*
X170890631Y-86571331D01*
X170646038Y-86205271D01*
X170334729Y-85893962D01*
X169968669Y-85649369D01*
X169561925Y-85480890D01*
X169130128Y-85395000D01*
X168689872Y-85395000D01*
X168258075Y-85480890D01*
X167851331Y-85649369D01*
X167485271Y-85893962D01*
X167173962Y-86205271D01*
X166929369Y-86571331D01*
X166760890Y-86978075D01*
X166675000Y-87409872D01*
X44145000Y-87409872D01*
X44059110Y-86978075D01*
X43890631Y-86571331D01*
X43646038Y-86205271D01*
X43334729Y-85893962D01*
X42968669Y-85649369D01*
X42561925Y-85480890D01*
X42130128Y-85395000D01*
X41689872Y-85395000D01*
X41258075Y-85480890D01*
X40851331Y-85649369D01*
X40485271Y-85893962D01*
X40173962Y-86205271D01*
X39929369Y-86571331D01*
X39760890Y-86978075D01*
X39675000Y-87409872D01*
X34967707Y-87409872D01*
X35024617Y-86625530D01*
X35241739Y-85642102D01*
X35598546Y-84700325D01*
X36087575Y-83819905D01*
X36698569Y-83019313D01*
X37418732Y-82315306D01*
X38232987Y-81722630D01*
X39124269Y-81253704D01*
X40073900Y-80918353D01*
X41065692Y-80722873D01*
X41930164Y-80670000D01*
X168886080Y-80670000D01*
X169914470Y-80744617D01*
X169914470Y-80744617D01*
G37*
X169914470Y-80744617D02*
X170897898Y-80961739D01*
X171839675Y-81318546D01*
X172720095Y-81807575D01*
X173520687Y-82418569D01*
X174224694Y-83138732D01*
X174817370Y-83952987D01*
X175286296Y-84844269D01*
X175621647Y-85793900D01*
X175817127Y-86785692D01*
X175870000Y-87650164D01*
X175870001Y-125706080D01*
X175795382Y-126734470D01*
X175578262Y-127717896D01*
X175221454Y-128659675D01*
X174732424Y-129540095D01*
X174121435Y-130340684D01*
X173401268Y-131044694D01*
X172587013Y-131637370D01*
X171695731Y-132106296D01*
X170746099Y-132441647D01*
X169754309Y-132637127D01*
X168889835Y-132690000D01*
X41933906Y-132690000D01*
X40905530Y-132615382D01*
X39922104Y-132398262D01*
X38980325Y-132041454D01*
X38099905Y-131552424D01*
X37299316Y-130941435D01*
X36595306Y-130221268D01*
X36002630Y-129407013D01*
X35533704Y-128515731D01*
X35198353Y-127566099D01*
X35002873Y-126574309D01*
X34950000Y-125709835D01*
X34950000Y-125509872D01*
X39675000Y-125509872D01*
X39675000Y-125950128D01*
X39760890Y-126381925D01*
X39929369Y-126788669D01*
X40173962Y-127154729D01*
X40485271Y-127466038D01*
X40851331Y-127710631D01*
X41258075Y-127879110D01*
X41689872Y-127965000D01*
X42130128Y-127965000D01*
X42561925Y-127879110D01*
X42968669Y-127710631D01*
X43334729Y-127466038D01*
X43646038Y-127154729D01*
X43890631Y-126788669D01*
X44059110Y-126381925D01*
X44145000Y-125950128D01*
X44145000Y-125509872D01*
X44059110Y-125078075D01*
X43923255Y-124750092D01*
X53803252Y-124750092D01*
X53859488Y-125251452D01*
X54012035Y-125732340D01*
X54255082Y-126174440D01*
X54579370Y-126560912D01*
X54972549Y-126877036D01*
X55419642Y-127110770D01*
X55903619Y-127253213D01*
X56406047Y-127298937D01*
X56907786Y-127246202D01*
X57389728Y-127097016D01*
X57833514Y-126857062D01*
X58222240Y-126535479D01*
X58541101Y-126144517D01*
X58777951Y-125699067D01*
X58923769Y-125216096D01*
X58969461Y-124750092D01*
X65233252Y-124750092D01*
X65289488Y-125251452D01*
X65442035Y-125732340D01*
X65685082Y-126174440D01*
X66009370Y-126560912D01*
X66402549Y-126877036D01*
X66849642Y-127110770D01*
X67333619Y-127253213D01*
X67836047Y-127298937D01*
X68337786Y-127246202D01*
X68819728Y-127097016D01*
X69263514Y-126857062D01*
X69652240Y-126535479D01*
X69971101Y-126144517D01*
X70207951Y-125699067D01*
X70353769Y-125216096D01*
X70399461Y-124750092D01*
X76663252Y-124750092D01*
X76719488Y-125251452D01*
X76872035Y-125732340D01*
X77115082Y-126174440D01*
X77439370Y-126560912D01*
X77832549Y-126877036D01*
X78279642Y-127110770D01*
X78763619Y-127253213D01*
X79266047Y-127298937D01*
X79767786Y-127246202D01*
X80249728Y-127097016D01*
X80693514Y-126857062D01*
X81082240Y-126535479D01*
X81401101Y-126144517D01*
X81637951Y-125699067D01*
X81783769Y-125216096D01*
X81829461Y-124750092D01*
X88093252Y-124750092D01*
X88149488Y-125251452D01*
X88302035Y-125732340D01*
X88545082Y-126174440D01*
X88869370Y-126560912D01*
X89262549Y-126877036D01*
X89709642Y-127110770D01*
X90193619Y-127253213D01*
X90696047Y-127298937D01*
X91197786Y-127246202D01*
X91679728Y-127097016D01*
X92123514Y-126857062D01*
X92512240Y-126535479D01*
X92831101Y-126144517D01*
X93067951Y-125699067D01*
X93213769Y-125216096D01*
X93259461Y-124750092D01*
X99523252Y-124750092D01*
X99579488Y-125251452D01*
X99732035Y-125732340D01*
X99975082Y-126174440D01*
X100299370Y-126560912D01*
X100692549Y-126877036D01*
X101139642Y-127110770D01*
X101623619Y-127253213D01*
X102126047Y-127298937D01*
X102627786Y-127246202D01*
X103109728Y-127097016D01*
X103553514Y-126857062D01*
X103942240Y-126535479D01*
X104261101Y-126144517D01*
X104497951Y-125699067D01*
X104643769Y-125216096D01*
X104689461Y-124750092D01*
X110953252Y-124750092D01*
X111009488Y-125251452D01*
X111162035Y-125732340D01*
X111405082Y-126174440D01*
X111729370Y-126560912D01*
X112122549Y-126877036D01*
X112569642Y-127110770D01*
X113053619Y-127253213D01*
X113556047Y-127298937D01*
X114057786Y-127246202D01*
X114539728Y-127097016D01*
X114983514Y-126857062D01*
X115372240Y-126535479D01*
X115691101Y-126144517D01*
X115927951Y-125699067D01*
X116073769Y-125216096D01*
X116119461Y-124750092D01*
X122383252Y-124750092D01*
X122439488Y-125251452D01*
X122592035Y-125732340D01*
X122835082Y-126174440D01*
X123159370Y-126560912D01*
X123552549Y-126877036D01*
X123999642Y-127110770D01*
X124483619Y-127253213D01*
X124986047Y-127298937D01*
X125487786Y-127246202D01*
X125969728Y-127097016D01*
X126413514Y-126857062D01*
X126802240Y-126535479D01*
X127121101Y-126144517D01*
X127357951Y-125699067D01*
X127503769Y-125216096D01*
X127549461Y-124750092D01*
X133813252Y-124750092D01*
X133869488Y-125251452D01*
X134022035Y-125732340D01*
X134265082Y-126174440D01*
X134589370Y-126560912D01*
X134982549Y-126877036D01*
X135429642Y-127110770D01*
X135913619Y-127253213D01*
X136416047Y-127298937D01*
X136917786Y-127246202D01*
X137399728Y-127097016D01*
X137843514Y-126857062D01*
X138232240Y-126535479D01*
X138551101Y-126144517D01*
X138787951Y-125699067D01*
X138933769Y-125216096D01*
X138979461Y-124750092D01*
X145243252Y-124750092D01*
X145299488Y-125251452D01*
X145452035Y-125732340D01*
X145695082Y-126174440D01*
X146019370Y-126560912D01*
X146412549Y-126877036D01*
X146859642Y-127110770D01*
X147343619Y-127253213D01*
X147846047Y-127298937D01*
X148347786Y-127246202D01*
X148829728Y-127097016D01*
X149273514Y-126857062D01*
X149662240Y-126535479D01*
X149981101Y-126144517D01*
X150217951Y-125699067D01*
X150363769Y-125216096D01*
X150409461Y-124750092D01*
X156673252Y-124750092D01*
X156729488Y-125251452D01*
X156882035Y-125732340D01*
X157125082Y-126174440D01*
X157449370Y-126560912D01*
X157842549Y-126877036D01*
X158289642Y-127110770D01*
X158773619Y-127253213D01*
X159276047Y-127298937D01*
X159777786Y-127246202D01*
X160259728Y-127097016D01*
X160703514Y-126857062D01*
X161092240Y-126535479D01*
X161411101Y-126144517D01*
X161647951Y-125699067D01*
X161705072Y-125509872D01*
X166675000Y-125509872D01*
X166675000Y-125950128D01*
X166760890Y-126381925D01*
X166929369Y-126788669D01*
X167173962Y-127154729D01*
X167485271Y-127466038D01*
X167851331Y-127710631D01*
X168258075Y-127879110D01*
X168689872Y-127965000D01*
X169130128Y-127965000D01*
X169561925Y-127879110D01*
X169968669Y-127710631D01*
X170334729Y-127466038D01*
X170646038Y-127154729D01*
X170890631Y-126788669D01*
X171059110Y-126381925D01*
X171145000Y-125950128D01*
X171145000Y-125509872D01*
X171059110Y-125078075D01*
X170890631Y-124671331D01*
X170646038Y-124305271D01*
X170334729Y-123993962D01*
X169968669Y-123749369D01*
X169561925Y-123580890D01*
X169130128Y-123495000D01*
X168689872Y-123495000D01*
X168258075Y-123580890D01*
X167851331Y-123749369D01*
X167485271Y-123993962D01*
X167173962Y-124305271D01*
X166929369Y-124671331D01*
X166760890Y-125078075D01*
X166675000Y-125509872D01*
X161705072Y-125509872D01*
X161793769Y-125216096D01*
X161843000Y-124714000D01*
X161841992Y-124641823D01*
X161778761Y-124141297D01*
X161619515Y-123662586D01*
X161370320Y-123223922D01*
X161040667Y-122842016D01*
X160643112Y-122531412D01*
X160192800Y-122303943D01*
X159706881Y-122168272D01*
X159203864Y-122129567D01*
X158702909Y-122189302D01*
X158223098Y-122345202D01*
X157782705Y-122591329D01*
X157398507Y-122918308D01*
X157085135Y-123313684D01*
X156854528Y-123762398D01*
X156715468Y-124247358D01*
X156673252Y-124750092D01*
X150409461Y-124750092D01*
X150413000Y-124714000D01*
X150411992Y-124641823D01*
X150348761Y-124141297D01*
X150189515Y-123662586D01*
X149940320Y-123223922D01*
X149610667Y-122842016D01*
X149213112Y-122531412D01*
X148762800Y-122303943D01*
X148276881Y-122168272D01*
X147773864Y-122129567D01*
X147272909Y-122189302D01*
X146793098Y-122345202D01*
X146352705Y-122591329D01*
X145968507Y-122918308D01*
X145655135Y-123313684D01*
X145424528Y-123762398D01*
X145285468Y-124247358D01*
X145243252Y-124750092D01*
X138979461Y-124750092D01*
X138983000Y-124714000D01*
X138981992Y-124641823D01*
X138918761Y-124141297D01*
X138759515Y-123662586D01*
X138510320Y-123223922D01*
X138180667Y-122842016D01*
X137783112Y-122531412D01*
X137332800Y-122303943D01*
X136846881Y-122168272D01*
X136343864Y-122129567D01*
X135842909Y-122189302D01*
X135363098Y-122345202D01*
X134922705Y-122591329D01*
X134538507Y-122918308D01*
X134225135Y-123313684D01*
X133994528Y-123762398D01*
X133855468Y-124247358D01*
X133813252Y-124750092D01*
X127549461Y-124750092D01*
X127553000Y-124714000D01*
X127551992Y-124641823D01*
X127488761Y-124141297D01*
X127329515Y-123662586D01*
X127080320Y-123223922D01*
X126750667Y-122842016D01*
X126353112Y-122531412D01*
X125902800Y-122303943D01*
X125416881Y-122168272D01*
X124913864Y-122129567D01*
X124412909Y-122189302D01*
X123933098Y-122345202D01*
X123492705Y-122591329D01*
X123108507Y-122918308D01*
X122795135Y-123313684D01*
X122564528Y-123762398D01*
X122425468Y-124247358D01*
X122383252Y-124750092D01*
X116119461Y-124750092D01*
X116123000Y-124714000D01*
X116121992Y-124641823D01*
X116058761Y-124141297D01*
X115899515Y-123662586D01*
X115650320Y-123223922D01*
X115320667Y-122842016D01*
X114923112Y-122531412D01*
X114472800Y-122303943D01*
X113986881Y-122168272D01*
X113483864Y-122129567D01*
X112982909Y-122189302D01*
X112503098Y-122345202D01*
X112062705Y-122591329D01*
X111678507Y-122918308D01*
X111365135Y-123313684D01*
X111134528Y-123762398D01*
X110995468Y-124247358D01*
X110953252Y-124750092D01*
X104689461Y-124750092D01*
X104693000Y-124714000D01*
X104691992Y-124641823D01*
X104628761Y-124141297D01*
X104469515Y-123662586D01*
X104220320Y-123223922D01*
X103890667Y-122842016D01*
X103493112Y-122531412D01*
X103042800Y-122303943D01*
X102556881Y-122168272D01*
X102053864Y-122129567D01*
X101552909Y-122189302D01*
X101073098Y-122345202D01*
X100632705Y-122591329D01*
X100248507Y-122918308D01*
X99935135Y-123313684D01*
X99704528Y-123762398D01*
X99565468Y-124247358D01*
X99523252Y-124750092D01*
X93259461Y-124750092D01*
X93263000Y-124714000D01*
X93261992Y-124641823D01*
X93198761Y-124141297D01*
X93039515Y-123662586D01*
X92790320Y-123223922D01*
X92460667Y-122842016D01*
X92063112Y-122531412D01*
X91612800Y-122303943D01*
X91126881Y-122168272D01*
X90623864Y-122129567D01*
X90122909Y-122189302D01*
X89643098Y-122345202D01*
X89202705Y-122591329D01*
X88818507Y-122918308D01*
X88505135Y-123313684D01*
X88274528Y-123762398D01*
X88135468Y-124247358D01*
X88093252Y-124750092D01*
X81829461Y-124750092D01*
X81833000Y-124714000D01*
X81831992Y-124641823D01*
X81768761Y-124141297D01*
X81609515Y-123662586D01*
X81360320Y-123223922D01*
X81030667Y-122842016D01*
X80633112Y-122531412D01*
X80182800Y-122303943D01*
X79696881Y-122168272D01*
X79193864Y-122129567D01*
X78692909Y-122189302D01*
X78213098Y-122345202D01*
X77772705Y-122591329D01*
X77388507Y-122918308D01*
X77075135Y-123313684D01*
X76844528Y-123762398D01*
X76705468Y-124247358D01*
X76663252Y-124750092D01*
X70399461Y-124750092D01*
X70403000Y-124714000D01*
X70401992Y-124641823D01*
X70338761Y-124141297D01*
X70179515Y-123662586D01*
X69930320Y-123223922D01*
X69600667Y-122842016D01*
X69203112Y-122531412D01*
X68752800Y-122303943D01*
X68266881Y-122168272D01*
X67763864Y-122129567D01*
X67262909Y-122189302D01*
X66783098Y-122345202D01*
X66342705Y-122591329D01*
X65958507Y-122918308D01*
X65645135Y-123313684D01*
X65414528Y-123762398D01*
X65275468Y-124247358D01*
X65233252Y-124750092D01*
X58969461Y-124750092D01*
X58973000Y-124714000D01*
X58971992Y-124641823D01*
X58908761Y-124141297D01*
X58749515Y-123662586D01*
X58500320Y-123223922D01*
X58170667Y-122842016D01*
X57773112Y-122531412D01*
X57322800Y-122303943D01*
X56836881Y-122168272D01*
X56333864Y-122129567D01*
X55832909Y-122189302D01*
X55353098Y-122345202D01*
X54912705Y-122591329D01*
X54528507Y-122918308D01*
X54215135Y-123313684D01*
X53984528Y-123762398D01*
X53845468Y-124247358D01*
X53803252Y-124750092D01*
X43923255Y-124750092D01*
X43890631Y-124671331D01*
X43646038Y-124305271D01*
X43334729Y-123993962D01*
X42968669Y-123749369D01*
X42561925Y-123580890D01*
X42130128Y-123495000D01*
X41689872Y-123495000D01*
X41258075Y-123580890D01*
X40851331Y-123749369D01*
X40485271Y-123993962D01*
X40173962Y-124305271D01*
X39929369Y-124671331D01*
X39760890Y-125078075D01*
X39675000Y-125509872D01*
X34950000Y-125509872D01*
X34950000Y-113320092D01*
X56343252Y-113320092D01*
X56399488Y-113821452D01*
X56552035Y-114302340D01*
X56795082Y-114744440D01*
X57119370Y-115130912D01*
X57512549Y-115447036D01*
X57959642Y-115680770D01*
X58443619Y-115823213D01*
X58946047Y-115868937D01*
X59447786Y-115816202D01*
X59929728Y-115667016D01*
X60373514Y-115427062D01*
X60762240Y-115105479D01*
X61081101Y-114714517D01*
X61317951Y-114269067D01*
X61463769Y-113786096D01*
X61509461Y-113320092D01*
X67773252Y-113320092D01*
X67829488Y-113821452D01*
X67982035Y-114302340D01*
X68225082Y-114744440D01*
X68549370Y-115130912D01*
X68942549Y-115447036D01*
X69389642Y-115680770D01*
X69873619Y-115823213D01*
X70376047Y-115868937D01*
X70877786Y-115816202D01*
X71359728Y-115667016D01*
X71803514Y-115427062D01*
X72192240Y-115105479D01*
X72511101Y-114714517D01*
X72747951Y-114269067D01*
X72893769Y-113786096D01*
X72939461Y-113320092D01*
X79203252Y-113320092D01*
X79259488Y-113821452D01*
X79412035Y-114302340D01*
X79655082Y-114744440D01*
X79979370Y-115130912D01*
X80372549Y-115447036D01*
X80819642Y-115680770D01*
X81303619Y-115823213D01*
X81806047Y-115868937D01*
X82307786Y-115816202D01*
X82789728Y-115667016D01*
X83233514Y-115427062D01*
X83622240Y-115105479D01*
X83941101Y-114714517D01*
X84177951Y-114269067D01*
X84323769Y-113786096D01*
X84369461Y-113320092D01*
X90633252Y-113320092D01*
X90689488Y-113821452D01*
X90842035Y-114302340D01*
X91085082Y-114744440D01*
X91409370Y-115130912D01*
X91802549Y-115447036D01*
X92249642Y-115680770D01*
X92733619Y-115823213D01*
X93236047Y-115868937D01*
X93737786Y-115816202D01*
X94219728Y-115667016D01*
X94663514Y-115427062D01*
X95052240Y-115105479D01*
X95371101Y-114714517D01*
X95607951Y-114269067D01*
X95753769Y-113786096D01*
X95799461Y-113320092D01*
X102063252Y-113320092D01*
X102119488Y-113821452D01*
X102272035Y-114302340D01*
X102515082Y-114744440D01*
X102839370Y-115130912D01*
X103232549Y-115447036D01*
X103679642Y-115680770D01*
X104163619Y-115823213D01*
X104666047Y-115868937D01*
X105167786Y-115816202D01*
X105649728Y-115667016D01*
X106093514Y-115427062D01*
X106482240Y-115105479D01*
X106801101Y-114714517D01*
X107037951Y-114269067D01*
X107183769Y-113786096D01*
X107229461Y-113320092D01*
X113493252Y-113320092D01*
X113549488Y-113821452D01*
X113702035Y-114302340D01*
X113945082Y-114744440D01*
X114269370Y-115130912D01*
X114662549Y-115447036D01*
X115109642Y-115680770D01*
X115593619Y-115823213D01*
X116096047Y-115868937D01*
X116597786Y-115816202D01*
X117079728Y-115667016D01*
X117523514Y-115427062D01*
X117912240Y-115105479D01*
X118231101Y-114714517D01*
X118467951Y-114269067D01*
X118613769Y-113786096D01*
X118659461Y-113320092D01*
X124923252Y-113320092D01*
X124979488Y-113821452D01*
X125132035Y-114302340D01*
X125375082Y-114744440D01*
X125699370Y-115130912D01*
X126092549Y-115447036D01*
X126539642Y-115680770D01*
X127023619Y-115823213D01*
X127526047Y-115868937D01*
X128027786Y-115816202D01*
X128509728Y-115667016D01*
X128953514Y-115427062D01*
X129342240Y-115105479D01*
X129661101Y-114714517D01*
X129897951Y-114269067D01*
X130043769Y-113786096D01*
X130089461Y-113320092D01*
X136353252Y-113320092D01*
X136409488Y-113821452D01*
X136562035Y-114302340D01*
X136805082Y-114744440D01*
X137129370Y-115130912D01*
X137522549Y-115447036D01*
X137969642Y-115680770D01*
X138453619Y-115823213D01*
X138956047Y-115868937D01*
X139457786Y-115816202D01*
X139939728Y-115667016D01*
X140383514Y-115427062D01*
X140772240Y-115105479D01*
X141091101Y-114714517D01*
X141327951Y-114269067D01*
X141473769Y-113786096D01*
X141519461Y-113320092D01*
X147783252Y-113320092D01*
X147839488Y-113821452D01*
X147992035Y-114302340D01*
X148235082Y-114744440D01*
X148559370Y-115130912D01*
X148952549Y-115447036D01*
X149399642Y-115680770D01*
X149883619Y-115823213D01*
X150386047Y-115868937D01*
X150887786Y-115816202D01*
X151369728Y-115667016D01*
X151813514Y-115427062D01*
X152202240Y-115105479D01*
X152521101Y-114714517D01*
X152757951Y-114269067D01*
X152903769Y-113786096D01*
X152949461Y-113320092D01*
X159213252Y-113320092D01*
X159269488Y-113821452D01*
X159422035Y-114302340D01*
X159665082Y-114744440D01*
X159989370Y-115130912D01*
X160382549Y-115447036D01*
X160829642Y-115680770D01*
X161313619Y-115823213D01*
X161816047Y-115868937D01*
X162317786Y-115816202D01*
X162799728Y-115667016D01*
X163243514Y-115427062D01*
X163632240Y-115105479D01*
X163951101Y-114714517D01*
X164187951Y-114269067D01*
X164333769Y-113786096D01*
X164383000Y-113284000D01*
X164381992Y-113211823D01*
X164318761Y-112711297D01*
X164159515Y-112232586D01*
X163910320Y-111793922D01*
X163580667Y-111412016D01*
X163183112Y-111101412D01*
X162732800Y-110873943D01*
X162246881Y-110738272D01*
X161743864Y-110699567D01*
X161242909Y-110759302D01*
X160763098Y-110915202D01*
X160322705Y-111161329D01*
X159938507Y-111488308D01*
X159625135Y-111883684D01*
X159394528Y-112332398D01*
X159255468Y-112817358D01*
X159213252Y-113320092D01*
X152949461Y-113320092D01*
X152953000Y-113284000D01*
X152951992Y-113211823D01*
X152888761Y-112711297D01*
X152729515Y-112232586D01*
X152480320Y-111793922D01*
X152150667Y-111412016D01*
X151753112Y-111101412D01*
X151302800Y-110873943D01*
X150816881Y-110738272D01*
X150313864Y-110699567D01*
X149812909Y-110759302D01*
X149333098Y-110915202D01*
X148892705Y-111161329D01*
X148508507Y-111488308D01*
X148195135Y-111883684D01*
X147964528Y-112332398D01*
X147825468Y-112817358D01*
X147783252Y-113320092D01*
X141519461Y-113320092D01*
X141523000Y-113284000D01*
X141521992Y-113211823D01*
X141458761Y-112711297D01*
X141299515Y-112232586D01*
X141050320Y-111793922D01*
X140720667Y-111412016D01*
X140323112Y-111101412D01*
X139872800Y-110873943D01*
X139386881Y-110738272D01*
X138883864Y-110699567D01*
X138382909Y-110759302D01*
X137903098Y-110915202D01*
X137462705Y-111161329D01*
X137078507Y-111488308D01*
X136765135Y-111883684D01*
X136534528Y-112332398D01*
X136395468Y-112817358D01*
X136353252Y-113320092D01*
X130089461Y-113320092D01*
X130093000Y-113284000D01*
X130091992Y-113211823D01*
X130028761Y-112711297D01*
X129869515Y-112232586D01*
X129620320Y-111793922D01*
X129290667Y-111412016D01*
X128893112Y-111101412D01*
X128442800Y-110873943D01*
X127956881Y-110738272D01*
X127453864Y-110699567D01*
X126952909Y-110759302D01*
X126473098Y-110915202D01*
X126032705Y-111161329D01*
X125648507Y-111488308D01*
X125335135Y-111883684D01*
X125104528Y-112332398D01*
X124965468Y-112817358D01*
X124923252Y-113320092D01*
X118659461Y-113320092D01*
X118663000Y-113284000D01*
X118661992Y-113211823D01*
X118598761Y-112711297D01*
X118439515Y-112232586D01*
X118190320Y-111793922D01*
X117860667Y-111412016D01*
X117463112Y-111101412D01*
X117012800Y-110873943D01*
X116526881Y-110738272D01*
X116023864Y-110699567D01*
X115522909Y-110759302D01*
X115043098Y-110915202D01*
X114602705Y-111161329D01*
X114218507Y-111488308D01*
X113905135Y-111883684D01*
X113674528Y-112332398D01*
X113535468Y-112817358D01*
X113493252Y-113320092D01*
X107229461Y-113320092D01*
X107233000Y-113284000D01*
X107231992Y-113211823D01*
X107168761Y-112711297D01*
X107009515Y-112232586D01*
X106760320Y-111793922D01*
X106430667Y-111412016D01*
X106033112Y-111101412D01*
X105582800Y-110873943D01*
X105096881Y-110738272D01*
X104593864Y-110699567D01*
X104092909Y-110759302D01*
X103613098Y-110915202D01*
X103172705Y-111161329D01*
X102788507Y-111488308D01*
X102475135Y-111883684D01*
X102244528Y-112332398D01*
X102105468Y-112817358D01*
X102063252Y-113320092D01*
X95799461Y-113320092D01*
X95803000Y-113284000D01*
X95801992Y-113211823D01*
X95738761Y-112711297D01*
X95579515Y-112232586D01*
X95330320Y-111793922D01*
X95000667Y-111412016D01*
X94603112Y-111101412D01*
X94152800Y-110873943D01*
X93666881Y-110738272D01*
X93163864Y-110699567D01*
X92662909Y-110759302D01*
X92183098Y-110915202D01*
X91742705Y-111161329D01*
X91358507Y-111488308D01*
X91045135Y-111883684D01*
X90814528Y-112332398D01*
X90675468Y-112817358D01*
X90633252Y-113320092D01*
X84369461Y-113320092D01*
X84373000Y-113284000D01*
X84371992Y-113211823D01*
X84308761Y-112711297D01*
X84149515Y-112232586D01*
X83900320Y-111793922D01*
X83570667Y-111412016D01*
X83173112Y-111101412D01*
X82722800Y-110873943D01*
X82236881Y-110738272D01*
X81733864Y-110699567D01*
X81232909Y-110759302D01*
X80753098Y-110915202D01*
X80312705Y-111161329D01*
X79928507Y-111488308D01*
X79615135Y-111883684D01*
X79384528Y-112332398D01*
X79245468Y-112817358D01*
X79203252Y-113320092D01*
X72939461Y-113320092D01*
X72943000Y-113284000D01*
X72941992Y-113211823D01*
X72878761Y-112711297D01*
X72719515Y-112232586D01*
X72470320Y-111793922D01*
X72140667Y-111412016D01*
X71743112Y-111101412D01*
X71292800Y-110873943D01*
X70806881Y-110738272D01*
X70303864Y-110699567D01*
X69802909Y-110759302D01*
X69323098Y-110915202D01*
X68882705Y-111161329D01*
X68498507Y-111488308D01*
X68185135Y-111883684D01*
X67954528Y-112332398D01*
X67815468Y-112817358D01*
X67773252Y-113320092D01*
X61509461Y-113320092D01*
X61513000Y-113284000D01*
X61511992Y-113211823D01*
X61448761Y-112711297D01*
X61289515Y-112232586D01*
X61040320Y-111793922D01*
X60710667Y-111412016D01*
X60313112Y-111101412D01*
X59862800Y-110873943D01*
X59376881Y-110738272D01*
X58873864Y-110699567D01*
X58372909Y-110759302D01*
X57893098Y-110915202D01*
X57452705Y-111161329D01*
X57068507Y-111488308D01*
X56755135Y-111883684D01*
X56524528Y-112332398D01*
X56385468Y-112817358D01*
X56343252Y-113320092D01*
X34950000Y-113320092D01*
X34950000Y-101890092D01*
X53803252Y-101890092D01*
X53859488Y-102391452D01*
X54012035Y-102872340D01*
X54255082Y-103314440D01*
X54579370Y-103700912D01*
X54972549Y-104017036D01*
X55419642Y-104250770D01*
X55903619Y-104393213D01*
X56406047Y-104438937D01*
X56907786Y-104386202D01*
X57389728Y-104237016D01*
X57833514Y-103997062D01*
X58222240Y-103675479D01*
X58541101Y-103284517D01*
X58777951Y-102839067D01*
X58923769Y-102356096D01*
X58969461Y-101890092D01*
X65233252Y-101890092D01*
X65289488Y-102391452D01*
X65442035Y-102872340D01*
X65685082Y-103314440D01*
X66009370Y-103700912D01*
X66402549Y-104017036D01*
X66849642Y-104250770D01*
X67333619Y-104393213D01*
X67836047Y-104438937D01*
X68337786Y-104386202D01*
X68819728Y-104237016D01*
X69263514Y-103997062D01*
X69652240Y-103675479D01*
X69971101Y-103284517D01*
X70207951Y-102839067D01*
X70353769Y-102356096D01*
X70399461Y-101890092D01*
X76663252Y-101890092D01*
X76719488Y-102391452D01*
X76872035Y-102872340D01*
X77115082Y-103314440D01*
X77439370Y-103700912D01*
X77832549Y-104017036D01*
X78279642Y-104250770D01*
X78763619Y-104393213D01*
X79266047Y-104438937D01*
X79767786Y-104386202D01*
X80249728Y-104237016D01*
X80693514Y-103997062D01*
X81082240Y-103675479D01*
X81401101Y-103284517D01*
X81637951Y-102839067D01*
X81783769Y-102356096D01*
X81829461Y-101890092D01*
X88093252Y-101890092D01*
X88149488Y-102391452D01*
X88302035Y-102872340D01*
X88545082Y-103314440D01*
X88869370Y-103700912D01*
X89262549Y-104017036D01*
X89709642Y-104250770D01*
X90193619Y-104393213D01*
X90696047Y-104438937D01*
X91197786Y-104386202D01*
X91679728Y-104237016D01*
X92123514Y-103997062D01*
X92512240Y-103675479D01*
X92831101Y-103284517D01*
X93067951Y-102839067D01*
X93213769Y-102356096D01*
X93259461Y-101890092D01*
X99523252Y-101890092D01*
X99579488Y-102391452D01*
X99732035Y-102872340D01*
X99975082Y-103314440D01*
X100299370Y-103700912D01*
X100692549Y-104017036D01*
X101139642Y-104250770D01*
X101623619Y-104393213D01*
X102126047Y-104438937D01*
X102627786Y-104386202D01*
X103109728Y-104237016D01*
X103553514Y-103997062D01*
X103942240Y-103675479D01*
X104261101Y-103284517D01*
X104497951Y-102839067D01*
X104643769Y-102356096D01*
X104689461Y-101890092D01*
X110953252Y-101890092D01*
X111009488Y-102391452D01*
X111162035Y-102872340D01*
X111405082Y-103314440D01*
X111729370Y-103700912D01*
X112122549Y-104017036D01*
X112569642Y-104250770D01*
X113053619Y-104393213D01*
X113556047Y-104438937D01*
X114057786Y-104386202D01*
X114539728Y-104237016D01*
X114983514Y-103997062D01*
X115372240Y-103675479D01*
X115691101Y-103284517D01*
X115927951Y-102839067D01*
X116073769Y-102356096D01*
X116119461Y-101890092D01*
X122383252Y-101890092D01*
X122439488Y-102391452D01*
X122592035Y-102872340D01*
X122835082Y-103314440D01*
X123159370Y-103700912D01*
X123552549Y-104017036D01*
X123999642Y-104250770D01*
X124483619Y-104393213D01*
X124986047Y-104438937D01*
X125487786Y-104386202D01*
X125969728Y-104237016D01*
X126413514Y-103997062D01*
X126802240Y-103675479D01*
X127121101Y-103284517D01*
X127357951Y-102839067D01*
X127503769Y-102356096D01*
X127549461Y-101890092D01*
X133813252Y-101890092D01*
X133869488Y-102391452D01*
X134022035Y-102872340D01*
X134265082Y-103314440D01*
X134589370Y-103700912D01*
X134982549Y-104017036D01*
X135429642Y-104250770D01*
X135913619Y-104393213D01*
X136416047Y-104438937D01*
X136917786Y-104386202D01*
X137399728Y-104237016D01*
X137843514Y-103997062D01*
X138232240Y-103675479D01*
X138551101Y-103284517D01*
X138787951Y-102839067D01*
X138933769Y-102356096D01*
X138979461Y-101890092D01*
X145243252Y-101890092D01*
X145299488Y-102391452D01*
X145452035Y-102872340D01*
X145695082Y-103314440D01*
X146019370Y-103700912D01*
X146412549Y-104017036D01*
X146859642Y-104250770D01*
X147343619Y-104393213D01*
X147846047Y-104438937D01*
X148347786Y-104386202D01*
X148829728Y-104237016D01*
X149273514Y-103997062D01*
X149662240Y-103675479D01*
X149981101Y-103284517D01*
X150217951Y-102839067D01*
X150363769Y-102356096D01*
X150409461Y-101890092D01*
X156673252Y-101890092D01*
X156729488Y-102391452D01*
X156882035Y-102872340D01*
X157125082Y-103314440D01*
X157449370Y-103700912D01*
X157842549Y-104017036D01*
X158289642Y-104250770D01*
X158773619Y-104393213D01*
X159276047Y-104438937D01*
X159777786Y-104386202D01*
X160259728Y-104237016D01*
X160703514Y-103997062D01*
X161092240Y-103675479D01*
X161411101Y-103284517D01*
X161647951Y-102839067D01*
X161793769Y-102356096D01*
X161843000Y-101854000D01*
X161841992Y-101781823D01*
X161778761Y-101281297D01*
X161619515Y-100802586D01*
X161370320Y-100363922D01*
X161040667Y-99982016D01*
X160643112Y-99671412D01*
X160192800Y-99443943D01*
X159706881Y-99308272D01*
X159203864Y-99269567D01*
X158702909Y-99329302D01*
X158223098Y-99485202D01*
X157782705Y-99731329D01*
X157398507Y-100058308D01*
X157085135Y-100453684D01*
X156854528Y-100902398D01*
X156715468Y-101387358D01*
X156673252Y-101890092D01*
X150409461Y-101890092D01*
X150413000Y-101854000D01*
X150411992Y-101781823D01*
X150348761Y-101281297D01*
X150189515Y-100802586D01*
X149940320Y-100363922D01*
X149610667Y-99982016D01*
X149213112Y-99671412D01*
X148762800Y-99443943D01*
X148276881Y-99308272D01*
X147773864Y-99269567D01*
X147272909Y-99329302D01*
X146793098Y-99485202D01*
X146352705Y-99731329D01*
X145968507Y-100058308D01*
X145655135Y-100453684D01*
X145424528Y-100902398D01*
X145285468Y-101387358D01*
X145243252Y-101890092D01*
X138979461Y-101890092D01*
X138983000Y-101854000D01*
X138981992Y-101781823D01*
X138918761Y-101281297D01*
X138759515Y-100802586D01*
X138510320Y-100363922D01*
X138180667Y-99982016D01*
X137783112Y-99671412D01*
X137332800Y-99443943D01*
X136846881Y-99308272D01*
X136343864Y-99269567D01*
X135842909Y-99329302D01*
X135363098Y-99485202D01*
X134922705Y-99731329D01*
X134538507Y-100058308D01*
X134225135Y-100453684D01*
X133994528Y-100902398D01*
X133855468Y-101387358D01*
X133813252Y-101890092D01*
X127549461Y-101890092D01*
X127553000Y-101854000D01*
X127551992Y-101781823D01*
X127488761Y-101281297D01*
X127329515Y-100802586D01*
X127080320Y-100363922D01*
X126750667Y-99982016D01*
X126353112Y-99671412D01*
X125902800Y-99443943D01*
X125416881Y-99308272D01*
X124913864Y-99269567D01*
X124412909Y-99329302D01*
X123933098Y-99485202D01*
X123492705Y-99731329D01*
X123108507Y-100058308D01*
X122795135Y-100453684D01*
X122564528Y-100902398D01*
X122425468Y-101387358D01*
X122383252Y-101890092D01*
X116119461Y-101890092D01*
X116123000Y-101854000D01*
X116121992Y-101781823D01*
X116058761Y-101281297D01*
X115899515Y-100802586D01*
X115650320Y-100363922D01*
X115320667Y-99982016D01*
X114923112Y-99671412D01*
X114472800Y-99443943D01*
X113986881Y-99308272D01*
X113483864Y-99269567D01*
X112982909Y-99329302D01*
X112503098Y-99485202D01*
X112062705Y-99731329D01*
X111678507Y-100058308D01*
X111365135Y-100453684D01*
X111134528Y-100902398D01*
X110995468Y-101387358D01*
X110953252Y-101890092D01*
X104689461Y-101890092D01*
X104693000Y-101854000D01*
X104691992Y-101781823D01*
X104628761Y-101281297D01*
X104469515Y-100802586D01*
X104220320Y-100363922D01*
X103890667Y-99982016D01*
X103493112Y-99671412D01*
X103042800Y-99443943D01*
X102556881Y-99308272D01*
X102053864Y-99269567D01*
X101552909Y-99329302D01*
X101073098Y-99485202D01*
X100632705Y-99731329D01*
X100248507Y-100058308D01*
X99935135Y-100453684D01*
X99704528Y-100902398D01*
X99565468Y-101387358D01*
X99523252Y-101890092D01*
X93259461Y-101890092D01*
X93263000Y-101854000D01*
X93261992Y-101781823D01*
X93198761Y-101281297D01*
X93039515Y-100802586D01*
X92790320Y-100363922D01*
X92460667Y-99982016D01*
X92063112Y-99671412D01*
X91612800Y-99443943D01*
X91126881Y-99308272D01*
X90623864Y-99269567D01*
X90122909Y-99329302D01*
X89643098Y-99485202D01*
X89202705Y-99731329D01*
X88818507Y-100058308D01*
X88505135Y-100453684D01*
X88274528Y-100902398D01*
X88135468Y-101387358D01*
X88093252Y-101890092D01*
X81829461Y-101890092D01*
X81833000Y-101854000D01*
X81831992Y-101781823D01*
X81768761Y-101281297D01*
X81609515Y-100802586D01*
X81360320Y-100363922D01*
X81030667Y-99982016D01*
X80633112Y-99671412D01*
X80182800Y-99443943D01*
X79696881Y-99308272D01*
X79193864Y-99269567D01*
X78692909Y-99329302D01*
X78213098Y-99485202D01*
X77772705Y-99731329D01*
X77388507Y-100058308D01*
X77075135Y-100453684D01*
X76844528Y-100902398D01*
X76705468Y-101387358D01*
X76663252Y-101890092D01*
X70399461Y-101890092D01*
X70403000Y-101854000D01*
X70401992Y-101781823D01*
X70338761Y-101281297D01*
X70179515Y-100802586D01*
X69930320Y-100363922D01*
X69600667Y-99982016D01*
X69203112Y-99671412D01*
X68752800Y-99443943D01*
X68266881Y-99308272D01*
X67763864Y-99269567D01*
X67262909Y-99329302D01*
X66783098Y-99485202D01*
X66342705Y-99731329D01*
X65958507Y-100058308D01*
X65645135Y-100453684D01*
X65414528Y-100902398D01*
X65275468Y-101387358D01*
X65233252Y-101890092D01*
X58969461Y-101890092D01*
X58973000Y-101854000D01*
X58971992Y-101781823D01*
X58908761Y-101281297D01*
X58749515Y-100802586D01*
X58500320Y-100363922D01*
X58170667Y-99982016D01*
X57773112Y-99671412D01*
X57322800Y-99443943D01*
X56836881Y-99308272D01*
X56333864Y-99269567D01*
X55832909Y-99329302D01*
X55353098Y-99485202D01*
X54912705Y-99731329D01*
X54528507Y-100058308D01*
X54215135Y-100453684D01*
X53984528Y-100902398D01*
X53845468Y-101387358D01*
X53803252Y-101890092D01*
X34950000Y-101890092D01*
X34950000Y-90460092D01*
X51263252Y-90460092D01*
X51319488Y-90961452D01*
X51472035Y-91442340D01*
X51715082Y-91884440D01*
X52039370Y-92270912D01*
X52432549Y-92587036D01*
X52879642Y-92820770D01*
X53363619Y-92963213D01*
X53866047Y-93008937D01*
X54367786Y-92956202D01*
X54849728Y-92807016D01*
X55293514Y-92567062D01*
X55682240Y-92245479D01*
X56001101Y-91854517D01*
X56237951Y-91409067D01*
X56383769Y-90926096D01*
X56429461Y-90460092D01*
X62693252Y-90460092D01*
X62749488Y-90961452D01*
X62902035Y-91442340D01*
X63145082Y-91884440D01*
X63469370Y-92270912D01*
X63862549Y-92587036D01*
X64309642Y-92820770D01*
X64793619Y-92963213D01*
X65296047Y-93008937D01*
X65797786Y-92956202D01*
X66279728Y-92807016D01*
X66723514Y-92567062D01*
X67112240Y-92245479D01*
X67431101Y-91854517D01*
X67667951Y-91409067D01*
X67813769Y-90926096D01*
X67859461Y-90460092D01*
X74123252Y-90460092D01*
X74179488Y-90961452D01*
X74332035Y-91442340D01*
X74575082Y-91884440D01*
X74899370Y-92270912D01*
X75292549Y-92587036D01*
X75739642Y-92820770D01*
X76223619Y-92963213D01*
X76726047Y-93008937D01*
X77227786Y-92956202D01*
X77709728Y-92807016D01*
X78153514Y-92567062D01*
X78542240Y-92245479D01*
X78861101Y-91854517D01*
X79097951Y-91409067D01*
X79243769Y-90926096D01*
X79289461Y-90460092D01*
X85553252Y-90460092D01*
X85609488Y-90961452D01*
X85762035Y-91442340D01*
X86005082Y-91884440D01*
X86329370Y-92270912D01*
X86722549Y-92587036D01*
X87169642Y-92820770D01*
X87653619Y-92963213D01*
X88156047Y-93008937D01*
X88657786Y-92956202D01*
X89139728Y-92807016D01*
X89583514Y-92567062D01*
X89972240Y-92245479D01*
X90291101Y-91854517D01*
X90527951Y-91409067D01*
X90673769Y-90926096D01*
X90719461Y-90460092D01*
X96983252Y-90460092D01*
X97039488Y-90961452D01*
X97192035Y-91442340D01*
X97435082Y-91884440D01*
X97759370Y-92270912D01*
X98152549Y-92587036D01*
X98599642Y-92820770D01*
X99083619Y-92963213D01*
X99586047Y-93008937D01*
X100087786Y-92956202D01*
X100569728Y-92807016D01*
X101013514Y-92567062D01*
X101402240Y-92245479D01*
X101721101Y-91854517D01*
X101957951Y-91409067D01*
X102103769Y-90926096D01*
X102149461Y-90460092D01*
X108413252Y-90460092D01*
X108469488Y-90961452D01*
X108622035Y-91442340D01*
X108865082Y-91884440D01*
X109189370Y-92270912D01*
X109582549Y-92587036D01*
X110029642Y-92820770D01*
X110513619Y-92963213D01*
X111016047Y-93008937D01*
X111517786Y-92956202D01*
X111999728Y-92807016D01*
X112443514Y-92567062D01*
X112832240Y-92245479D01*
X113151101Y-91854517D01*
X113387951Y-91409067D01*
X113533769Y-90926096D01*
X113579461Y-90460092D01*
X119843252Y-90460092D01*
X119899488Y-90961452D01*
X120052035Y-91442340D01*
X120295082Y-91884440D01*
X120619370Y-92270912D01*
X121012549Y-92587036D01*
X121459642Y-92820770D01*
X121943619Y-92963213D01*
X122446047Y-93008937D01*
X122947786Y-92956202D01*
X123429728Y-92807016D01*
X123873514Y-92567062D01*
X124262240Y-92245479D01*
X124581101Y-91854517D01*
X124817951Y-91409067D01*
X124963769Y-90926096D01*
X125009461Y-90460092D01*
X131273252Y-90460092D01*
X131329488Y-90961452D01*
X131482035Y-91442340D01*
X131725082Y-91884440D01*
X132049370Y-92270912D01*
X132442549Y-92587036D01*
X132889642Y-92820770D01*
X133373619Y-92963213D01*
X133876047Y-93008937D01*
X134377786Y-92956202D01*
X134859728Y-92807016D01*
X135303514Y-92567062D01*
X135692240Y-92245479D01*
X136011101Y-91854517D01*
X136247951Y-91409067D01*
X136393769Y-90926096D01*
X136439461Y-90460092D01*
X142703252Y-90460092D01*
X142759488Y-90961452D01*
X142912035Y-91442340D01*
X143155082Y-91884440D01*
X143479370Y-92270912D01*
X143872549Y-92587036D01*
X144319642Y-92820770D01*
X144803619Y-92963213D01*
X145306047Y-93008937D01*
X145807786Y-92956202D01*
X146289728Y-92807016D01*
X146733514Y-92567062D01*
X147122240Y-92245479D01*
X147441101Y-91854517D01*
X147677951Y-91409067D01*
X147823769Y-90926096D01*
X147869461Y-90460092D01*
X154133252Y-90460092D01*
X154189488Y-90961452D01*
X154342035Y-91442340D01*
X154585082Y-91884440D01*
X154909370Y-92270912D01*
X155302549Y-92587036D01*
X155749642Y-92820770D01*
X156233619Y-92963213D01*
X156736047Y-93008937D01*
X157237786Y-92956202D01*
X157719728Y-92807016D01*
X158163514Y-92567062D01*
X158552240Y-92245479D01*
X158871101Y-91854517D01*
X159107951Y-91409067D01*
X159253769Y-90926096D01*
X159303000Y-90424000D01*
X159301992Y-90351823D01*
X159238761Y-89851297D01*
X159079515Y-89372586D01*
X158830320Y-88933922D01*
X158500667Y-88552016D01*
X158103112Y-88241412D01*
X157652800Y-88013943D01*
X157166881Y-87878272D01*
X156663864Y-87839567D01*
X156162909Y-87899302D01*
X155683098Y-88055202D01*
X155242705Y-88301329D01*
X154858507Y-88628308D01*
X154545135Y-89023684D01*
X154314528Y-89472398D01*
X154175468Y-89957358D01*
X154133252Y-90460092D01*
X147869461Y-90460092D01*
X147873000Y-90424000D01*
X147871992Y-90351823D01*
X147808761Y-89851297D01*
X147649515Y-89372586D01*
X147400320Y-88933922D01*
X147070667Y-88552016D01*
X146673112Y-88241412D01*
X146222800Y-88013943D01*
X145736881Y-87878272D01*
X145233864Y-87839567D01*
X144732909Y-87899302D01*
X144253098Y-88055202D01*
X143812705Y-88301329D01*
X143428507Y-88628308D01*
X143115135Y-89023684D01*
X142884528Y-89472398D01*
X142745468Y-89957358D01*
X142703252Y-90460092D01*
X136439461Y-90460092D01*
X136443000Y-90424000D01*
X136441992Y-90351823D01*
X136378761Y-89851297D01*
X136219515Y-89372586D01*
X135970320Y-88933922D01*
X135640667Y-88552016D01*
X135243112Y-88241412D01*
X134792800Y-88013943D01*
X134306881Y-87878272D01*
X133803864Y-87839567D01*
X133302909Y-87899302D01*
X132823098Y-88055202D01*
X132382705Y-88301329D01*
X131998507Y-88628308D01*
X131685135Y-89023684D01*
X131454528Y-89472398D01*
X131315468Y-89957358D01*
X131273252Y-90460092D01*
X125009461Y-90460092D01*
X125013000Y-90424000D01*
X125011992Y-90351823D01*
X124948761Y-89851297D01*
X124789515Y-89372586D01*
X124540320Y-88933922D01*
X124210667Y-88552016D01*
X123813112Y-88241412D01*
X123362800Y-88013943D01*
X122876881Y-87878272D01*
X122373864Y-87839567D01*
X121872909Y-87899302D01*
X121393098Y-88055202D01*
X120952705Y-88301329D01*
X120568507Y-88628308D01*
X120255135Y-89023684D01*
X120024528Y-89472398D01*
X119885468Y-89957358D01*
X119843252Y-90460092D01*
X113579461Y-90460092D01*
X113583000Y-90424000D01*
X113581992Y-90351823D01*
X113518761Y-89851297D01*
X113359515Y-89372586D01*
X113110320Y-88933922D01*
X112780667Y-88552016D01*
X112383112Y-88241412D01*
X111932800Y-88013943D01*
X111446881Y-87878272D01*
X110943864Y-87839567D01*
X110442909Y-87899302D01*
X109963098Y-88055202D01*
X109522705Y-88301329D01*
X109138507Y-88628308D01*
X108825135Y-89023684D01*
X108594528Y-89472398D01*
X108455468Y-89957358D01*
X108413252Y-90460092D01*
X102149461Y-90460092D01*
X102153000Y-90424000D01*
X102151992Y-90351823D01*
X102088761Y-89851297D01*
X101929515Y-89372586D01*
X101680320Y-88933922D01*
X101350667Y-88552016D01*
X100953112Y-88241412D01*
X100502800Y-88013943D01*
X100016881Y-87878272D01*
X99513864Y-87839567D01*
X99012909Y-87899302D01*
X98533098Y-88055202D01*
X98092705Y-88301329D01*
X97708507Y-88628308D01*
X97395135Y-89023684D01*
X97164528Y-89472398D01*
X97025468Y-89957358D01*
X96983252Y-90460092D01*
X90719461Y-90460092D01*
X90723000Y-90424000D01*
X90721992Y-90351823D01*
X90658761Y-89851297D01*
X90499515Y-89372586D01*
X90250320Y-88933922D01*
X89920667Y-88552016D01*
X89523112Y-88241412D01*
X89072800Y-88013943D01*
X88586881Y-87878272D01*
X88083864Y-87839567D01*
X87582909Y-87899302D01*
X87103098Y-88055202D01*
X86662705Y-88301329D01*
X86278507Y-88628308D01*
X85965135Y-89023684D01*
X85734528Y-89472398D01*
X85595468Y-89957358D01*
X85553252Y-90460092D01*
X79289461Y-90460092D01*
X79293000Y-90424000D01*
X79291992Y-90351823D01*
X79228761Y-89851297D01*
X79069515Y-89372586D01*
X78820320Y-88933922D01*
X78490667Y-88552016D01*
X78093112Y-88241412D01*
X77642800Y-88013943D01*
X77156881Y-87878272D01*
X76653864Y-87839567D01*
X76152909Y-87899302D01*
X75673098Y-88055202D01*
X75232705Y-88301329D01*
X74848507Y-88628308D01*
X74535135Y-89023684D01*
X74304528Y-89472398D01*
X74165468Y-89957358D01*
X74123252Y-90460092D01*
X67859461Y-90460092D01*
X67863000Y-90424000D01*
X67861992Y-90351823D01*
X67798761Y-89851297D01*
X67639515Y-89372586D01*
X67390320Y-88933922D01*
X67060667Y-88552016D01*
X66663112Y-88241412D01*
X66212800Y-88013943D01*
X65726881Y-87878272D01*
X65223864Y-87839567D01*
X64722909Y-87899302D01*
X64243098Y-88055202D01*
X63802705Y-88301329D01*
X63418507Y-88628308D01*
X63105135Y-89023684D01*
X62874528Y-89472398D01*
X62735468Y-89957358D01*
X62693252Y-90460092D01*
X56429461Y-90460092D01*
X56433000Y-90424000D01*
X56431992Y-90351823D01*
X56368761Y-89851297D01*
X56209515Y-89372586D01*
X55960320Y-88933922D01*
X55630667Y-88552016D01*
X55233112Y-88241412D01*
X54782800Y-88013943D01*
X54296881Y-87878272D01*
X53793864Y-87839567D01*
X53292909Y-87899302D01*
X52813098Y-88055202D01*
X52372705Y-88301329D01*
X51988507Y-88628308D01*
X51675135Y-89023684D01*
X51444528Y-89472398D01*
X51305468Y-89957358D01*
X51263252Y-90460092D01*
X34950000Y-90460092D01*
X34950000Y-87653920D01*
X34967707Y-87409872D01*
X39675000Y-87409872D01*
X39675000Y-87850128D01*
X39760890Y-88281925D01*
X39929369Y-88688669D01*
X40173962Y-89054729D01*
X40485271Y-89366038D01*
X40851331Y-89610631D01*
X41258075Y-89779110D01*
X41689872Y-89865000D01*
X42130128Y-89865000D01*
X42561925Y-89779110D01*
X42968669Y-89610631D01*
X43334729Y-89366038D01*
X43646038Y-89054729D01*
X43890631Y-88688669D01*
X44059110Y-88281925D01*
X44145000Y-87850128D01*
X44145000Y-87409872D01*
X166675000Y-87409872D01*
X166675000Y-87850128D01*
X166760890Y-88281925D01*
X166929369Y-88688669D01*
X167173962Y-89054729D01*
X167485271Y-89366038D01*
X167851331Y-89610631D01*
X168258075Y-89779110D01*
X168689872Y-89865000D01*
X169130128Y-89865000D01*
X169561925Y-89779110D01*
X169968669Y-89610631D01*
X170334729Y-89366038D01*
X170646038Y-89054729D01*
X170890631Y-88688669D01*
X171059110Y-88281925D01*
X171145000Y-87850128D01*
X171145000Y-87409872D01*
X171059110Y-86978075D01*
X170890631Y-86571331D01*
X170646038Y-86205271D01*
X170334729Y-85893962D01*
X169968669Y-85649369D01*
X169561925Y-85480890D01*
X169130128Y-85395000D01*
X168689872Y-85395000D01*
X168258075Y-85480890D01*
X167851331Y-85649369D01*
X167485271Y-85893962D01*
X167173962Y-86205271D01*
X166929369Y-86571331D01*
X166760890Y-86978075D01*
X166675000Y-87409872D01*
X44145000Y-87409872D01*
X44059110Y-86978075D01*
X43890631Y-86571331D01*
X43646038Y-86205271D01*
X43334729Y-85893962D01*
X42968669Y-85649369D01*
X42561925Y-85480890D01*
X42130128Y-85395000D01*
X41689872Y-85395000D01*
X41258075Y-85480890D01*
X40851331Y-85649369D01*
X40485271Y-85893962D01*
X40173962Y-86205271D01*
X39929369Y-86571331D01*
X39760890Y-86978075D01*
X39675000Y-87409872D01*
X34967707Y-87409872D01*
X35024617Y-86625530D01*
X35241739Y-85642102D01*
X35598546Y-84700325D01*
X36087575Y-83819905D01*
X36698569Y-83019313D01*
X37418732Y-82315306D01*
X38232987Y-81722630D01*
X39124269Y-81253704D01*
X40073900Y-80918353D01*
X41065692Y-80722873D01*
X41930164Y-80670000D01*
X168886080Y-80670000D01*
X169914470Y-80744617D01*
M02*
