G04 #@! TF.GenerationSoftware,KiCad,Pcbnew,(5.1.2-1)-1*
G04 #@! TF.CreationDate,2023-07-30T19:32:53+02:00*
G04 #@! TF.ProjectId,cart32bbs,63617274-3332-4626-9273-2e6b69636164,rev?*
G04 #@! TF.SameCoordinates,Original*
G04 #@! TF.FileFunction,Copper,L1,Top*
G04 #@! TF.FilePolarity,Positive*
%FSLAX46Y46*%
G04 Gerber Fmt 4.6, Leading zero omitted, Abs format (unit mm)*
G04 Created by KiCad (PCBNEW (5.1.2-1)-1) date 2023-07-30 19:32:53*
%MOMM*%
%LPD*%
G04 APERTURE LIST*
%ADD10C,0.100000*%
%ADD11O,1.600000X1.600000*%
%ADD12R,1.600000X1.600000*%
%ADD13C,0.500000*%
%ADD14R,1.000000X1.500000*%
%ADD15R,1.500000X1.000000*%
%ADD16C,1.524000*%
%ADD17C,0.800000*%
%ADD18C,0.500000*%
%ADD19C,0.250000*%
%ADD20C,0.254000*%
G04 APERTURE END LIST*
D10*
G36*
X38440000Y-66375000D02*
G01*
X38940000Y-66375000D01*
X38940000Y-66975000D01*
X38440000Y-66975000D01*
X38440000Y-66375000D01*
G37*
G36*
X28310000Y-66375000D02*
G01*
X28810000Y-66375000D01*
X28810000Y-66975000D01*
X28310000Y-66975000D01*
X28310000Y-66375000D01*
G37*
G36*
X25227000Y-56780000D02*
G01*
X25227000Y-56280000D01*
X25827000Y-56280000D01*
X25827000Y-56780000D01*
X25227000Y-56780000D01*
G37*
D11*
X27940000Y-63500000D03*
X43180000Y-25400000D03*
X27940000Y-60960000D03*
X43180000Y-27940000D03*
X27940000Y-58420000D03*
X43180000Y-30480000D03*
X27940000Y-55880000D03*
X43180000Y-33020000D03*
X27940000Y-53340000D03*
X43180000Y-35560000D03*
X27940000Y-50800000D03*
X43180000Y-38100000D03*
X27940000Y-48260000D03*
X43180000Y-40640000D03*
X27940000Y-45720000D03*
X43180000Y-43180000D03*
X27940000Y-43180000D03*
X43180000Y-45720000D03*
X27940000Y-40640000D03*
X43180000Y-48260000D03*
X27940000Y-38100000D03*
X43180000Y-50800000D03*
X27940000Y-35560000D03*
X43180000Y-53340000D03*
X27940000Y-33020000D03*
X43180000Y-55880000D03*
X27940000Y-30480000D03*
X43180000Y-58420000D03*
X27940000Y-27940000D03*
X43180000Y-60960000D03*
X27940000Y-25400000D03*
D12*
X43180000Y-63500000D03*
D13*
X38040000Y-66675000D03*
D10*
G36*
X38590000Y-67425000D02*
G01*
X38040000Y-67425000D01*
X38040000Y-67424398D01*
X38015466Y-67424398D01*
X37966635Y-67419588D01*
X37918510Y-67410016D01*
X37871555Y-67395772D01*
X37826222Y-67376995D01*
X37782949Y-67353864D01*
X37742150Y-67326604D01*
X37704221Y-67295476D01*
X37669524Y-67260779D01*
X37638396Y-67222850D01*
X37611136Y-67182051D01*
X37588005Y-67138778D01*
X37569228Y-67093445D01*
X37554984Y-67046490D01*
X37545412Y-66998365D01*
X37540602Y-66949534D01*
X37540602Y-66925000D01*
X37540000Y-66925000D01*
X37540000Y-66425000D01*
X37540602Y-66425000D01*
X37540602Y-66400466D01*
X37545412Y-66351635D01*
X37554984Y-66303510D01*
X37569228Y-66256555D01*
X37588005Y-66211222D01*
X37611136Y-66167949D01*
X37638396Y-66127150D01*
X37669524Y-66089221D01*
X37704221Y-66054524D01*
X37742150Y-66023396D01*
X37782949Y-65996136D01*
X37826222Y-65973005D01*
X37871555Y-65954228D01*
X37918510Y-65939984D01*
X37966635Y-65930412D01*
X38015466Y-65925602D01*
X38040000Y-65925602D01*
X38040000Y-65925000D01*
X38590000Y-65925000D01*
X38590000Y-67425000D01*
X38590000Y-67425000D01*
G37*
D14*
X39340000Y-66675000D03*
D13*
X40640000Y-66675000D03*
D10*
G36*
X40640000Y-65925602D02*
G01*
X40664534Y-65925602D01*
X40713365Y-65930412D01*
X40761490Y-65939984D01*
X40808445Y-65954228D01*
X40853778Y-65973005D01*
X40897051Y-65996136D01*
X40937850Y-66023396D01*
X40975779Y-66054524D01*
X41010476Y-66089221D01*
X41041604Y-66127150D01*
X41068864Y-66167949D01*
X41091995Y-66211222D01*
X41110772Y-66256555D01*
X41125016Y-66303510D01*
X41134588Y-66351635D01*
X41139398Y-66400466D01*
X41139398Y-66425000D01*
X41140000Y-66425000D01*
X41140000Y-66925000D01*
X41139398Y-66925000D01*
X41139398Y-66949534D01*
X41134588Y-66998365D01*
X41125016Y-67046490D01*
X41110772Y-67093445D01*
X41091995Y-67138778D01*
X41068864Y-67182051D01*
X41041604Y-67222850D01*
X41010476Y-67260779D01*
X40975779Y-67295476D01*
X40937850Y-67326604D01*
X40897051Y-67353864D01*
X40853778Y-67376995D01*
X40808445Y-67395772D01*
X40761490Y-67410016D01*
X40713365Y-67419588D01*
X40664534Y-67424398D01*
X40640000Y-67424398D01*
X40640000Y-67425000D01*
X40090000Y-67425000D01*
X40090000Y-65925000D01*
X40640000Y-65925000D01*
X40640000Y-65925602D01*
X40640000Y-65925602D01*
G37*
D13*
X27910000Y-66675000D03*
D10*
G36*
X28460000Y-67425000D02*
G01*
X27910000Y-67425000D01*
X27910000Y-67424398D01*
X27885466Y-67424398D01*
X27836635Y-67419588D01*
X27788510Y-67410016D01*
X27741555Y-67395772D01*
X27696222Y-67376995D01*
X27652949Y-67353864D01*
X27612150Y-67326604D01*
X27574221Y-67295476D01*
X27539524Y-67260779D01*
X27508396Y-67222850D01*
X27481136Y-67182051D01*
X27458005Y-67138778D01*
X27439228Y-67093445D01*
X27424984Y-67046490D01*
X27415412Y-66998365D01*
X27410602Y-66949534D01*
X27410602Y-66925000D01*
X27410000Y-66925000D01*
X27410000Y-66425000D01*
X27410602Y-66425000D01*
X27410602Y-66400466D01*
X27415412Y-66351635D01*
X27424984Y-66303510D01*
X27439228Y-66256555D01*
X27458005Y-66211222D01*
X27481136Y-66167949D01*
X27508396Y-66127150D01*
X27539524Y-66089221D01*
X27574221Y-66054524D01*
X27612150Y-66023396D01*
X27652949Y-65996136D01*
X27696222Y-65973005D01*
X27741555Y-65954228D01*
X27788510Y-65939984D01*
X27836635Y-65930412D01*
X27885466Y-65925602D01*
X27910000Y-65925602D01*
X27910000Y-65925000D01*
X28460000Y-65925000D01*
X28460000Y-67425000D01*
X28460000Y-67425000D01*
G37*
D14*
X29210000Y-66675000D03*
D13*
X30510000Y-66675000D03*
D10*
G36*
X30510000Y-65925602D02*
G01*
X30534534Y-65925602D01*
X30583365Y-65930412D01*
X30631490Y-65939984D01*
X30678445Y-65954228D01*
X30723778Y-65973005D01*
X30767051Y-65996136D01*
X30807850Y-66023396D01*
X30845779Y-66054524D01*
X30880476Y-66089221D01*
X30911604Y-66127150D01*
X30938864Y-66167949D01*
X30961995Y-66211222D01*
X30980772Y-66256555D01*
X30995016Y-66303510D01*
X31004588Y-66351635D01*
X31009398Y-66400466D01*
X31009398Y-66425000D01*
X31010000Y-66425000D01*
X31010000Y-66925000D01*
X31009398Y-66925000D01*
X31009398Y-66949534D01*
X31004588Y-66998365D01*
X30995016Y-67046490D01*
X30980772Y-67093445D01*
X30961995Y-67138778D01*
X30938864Y-67182051D01*
X30911604Y-67222850D01*
X30880476Y-67260779D01*
X30845779Y-67295476D01*
X30807850Y-67326604D01*
X30767051Y-67353864D01*
X30723778Y-67376995D01*
X30678445Y-67395772D01*
X30631490Y-67410016D01*
X30583365Y-67419588D01*
X30534534Y-67424398D01*
X30510000Y-67424398D01*
X30510000Y-67425000D01*
X29960000Y-67425000D01*
X29960000Y-65925000D01*
X30510000Y-65925000D01*
X30510000Y-65925602D01*
X30510000Y-65925602D01*
G37*
D13*
X25527000Y-57180000D03*
D10*
G36*
X26277000Y-56630000D02*
G01*
X26277000Y-57180000D01*
X26276398Y-57180000D01*
X26276398Y-57204534D01*
X26271588Y-57253365D01*
X26262016Y-57301490D01*
X26247772Y-57348445D01*
X26228995Y-57393778D01*
X26205864Y-57437051D01*
X26178604Y-57477850D01*
X26147476Y-57515779D01*
X26112779Y-57550476D01*
X26074850Y-57581604D01*
X26034051Y-57608864D01*
X25990778Y-57631995D01*
X25945445Y-57650772D01*
X25898490Y-57665016D01*
X25850365Y-57674588D01*
X25801534Y-57679398D01*
X25777000Y-57679398D01*
X25777000Y-57680000D01*
X25277000Y-57680000D01*
X25277000Y-57679398D01*
X25252466Y-57679398D01*
X25203635Y-57674588D01*
X25155510Y-57665016D01*
X25108555Y-57650772D01*
X25063222Y-57631995D01*
X25019949Y-57608864D01*
X24979150Y-57581604D01*
X24941221Y-57550476D01*
X24906524Y-57515779D01*
X24875396Y-57477850D01*
X24848136Y-57437051D01*
X24825005Y-57393778D01*
X24806228Y-57348445D01*
X24791984Y-57301490D01*
X24782412Y-57253365D01*
X24777602Y-57204534D01*
X24777602Y-57180000D01*
X24777000Y-57180000D01*
X24777000Y-56630000D01*
X26277000Y-56630000D01*
X26277000Y-56630000D01*
G37*
D15*
X25527000Y-55880000D03*
D13*
X25527000Y-54580000D03*
D10*
G36*
X24777602Y-54580000D02*
G01*
X24777602Y-54555466D01*
X24782412Y-54506635D01*
X24791984Y-54458510D01*
X24806228Y-54411555D01*
X24825005Y-54366222D01*
X24848136Y-54322949D01*
X24875396Y-54282150D01*
X24906524Y-54244221D01*
X24941221Y-54209524D01*
X24979150Y-54178396D01*
X25019949Y-54151136D01*
X25063222Y-54128005D01*
X25108555Y-54109228D01*
X25155510Y-54094984D01*
X25203635Y-54085412D01*
X25252466Y-54080602D01*
X25277000Y-54080602D01*
X25277000Y-54080000D01*
X25777000Y-54080000D01*
X25777000Y-54080602D01*
X25801534Y-54080602D01*
X25850365Y-54085412D01*
X25898490Y-54094984D01*
X25945445Y-54109228D01*
X25990778Y-54128005D01*
X26034051Y-54151136D01*
X26074850Y-54178396D01*
X26112779Y-54209524D01*
X26147476Y-54244221D01*
X26178604Y-54282150D01*
X26205864Y-54322949D01*
X26228995Y-54366222D01*
X26247772Y-54411555D01*
X26262016Y-54458510D01*
X26271588Y-54506635D01*
X26276398Y-54555466D01*
X26276398Y-54580000D01*
X26277000Y-54580000D01*
X26277000Y-55130000D01*
X24777000Y-55130000D01*
X24777000Y-54580000D01*
X24777602Y-54580000D01*
X24777602Y-54580000D01*
G37*
D11*
X55880000Y-55880000D03*
X48260000Y-73660000D03*
X55880000Y-58420000D03*
X48260000Y-71120000D03*
X55880000Y-60960000D03*
X48260000Y-68580000D03*
X55880000Y-63500000D03*
X48260000Y-66040000D03*
X55880000Y-66040000D03*
X48260000Y-63500000D03*
X55880000Y-68580000D03*
X48260000Y-60960000D03*
X55880000Y-71120000D03*
X48260000Y-58420000D03*
X55880000Y-73660000D03*
D12*
X48260000Y-55880000D03*
D11*
X48260000Y-43180000D03*
X55880000Y-25400000D03*
X48260000Y-40640000D03*
X55880000Y-27940000D03*
X48260000Y-38100000D03*
X55880000Y-30480000D03*
X48260000Y-35560000D03*
X55880000Y-33020000D03*
X48260000Y-33020000D03*
X55880000Y-35560000D03*
X48260000Y-30480000D03*
X55880000Y-38100000D03*
X48260000Y-27940000D03*
X55880000Y-40640000D03*
X48260000Y-25400000D03*
D12*
X55880000Y-43180000D03*
D10*
G36*
X22706345Y-22099835D02*
G01*
X22743329Y-22105321D01*
X22779598Y-22114406D01*
X22814802Y-22127002D01*
X22848602Y-22142988D01*
X22880672Y-22162210D01*
X22910704Y-22184483D01*
X22938408Y-22209592D01*
X22963517Y-22237296D01*
X22985790Y-22267328D01*
X23005012Y-22299398D01*
X23020998Y-22333198D01*
X23033594Y-22368402D01*
X23042679Y-22404671D01*
X23048165Y-22441655D01*
X23050000Y-22479000D01*
X23050000Y-23241000D01*
X23048165Y-23278345D01*
X23042679Y-23315329D01*
X23033594Y-23351598D01*
X23020998Y-23386802D01*
X23005012Y-23420602D01*
X22985790Y-23452672D01*
X22963517Y-23482704D01*
X22938408Y-23510408D01*
X22910704Y-23535517D01*
X22880672Y-23557790D01*
X22848602Y-23577012D01*
X22814802Y-23592998D01*
X22779598Y-23605594D01*
X22743329Y-23614679D01*
X22706345Y-23620165D01*
X22669000Y-23622000D01*
X15431000Y-23622000D01*
X15393655Y-23620165D01*
X15356671Y-23614679D01*
X15320402Y-23605594D01*
X15285198Y-23592998D01*
X15251398Y-23577012D01*
X15219328Y-23557790D01*
X15189296Y-23535517D01*
X15161592Y-23510408D01*
X15136483Y-23482704D01*
X15114210Y-23452672D01*
X15094988Y-23420602D01*
X15079002Y-23386802D01*
X15066406Y-23351598D01*
X15057321Y-23315329D01*
X15051835Y-23278345D01*
X15050000Y-23241000D01*
X15050000Y-22479000D01*
X15051835Y-22441655D01*
X15057321Y-22404671D01*
X15066406Y-22368402D01*
X15079002Y-22333198D01*
X15094988Y-22299398D01*
X15114210Y-22267328D01*
X15136483Y-22237296D01*
X15161592Y-22209592D01*
X15189296Y-22184483D01*
X15219328Y-22162210D01*
X15251398Y-22142988D01*
X15285198Y-22127002D01*
X15320402Y-22114406D01*
X15356671Y-22105321D01*
X15393655Y-22099835D01*
X15431000Y-22098000D01*
X22669000Y-22098000D01*
X22706345Y-22099835D01*
X22706345Y-22099835D01*
G37*
D16*
X19050000Y-22860000D03*
D10*
G36*
X22706345Y-24639835D02*
G01*
X22743329Y-24645321D01*
X22779598Y-24654406D01*
X22814802Y-24667002D01*
X22848602Y-24682988D01*
X22880672Y-24702210D01*
X22910704Y-24724483D01*
X22938408Y-24749592D01*
X22963517Y-24777296D01*
X22985790Y-24807328D01*
X23005012Y-24839398D01*
X23020998Y-24873198D01*
X23033594Y-24908402D01*
X23042679Y-24944671D01*
X23048165Y-24981655D01*
X23050000Y-25019000D01*
X23050000Y-25781000D01*
X23048165Y-25818345D01*
X23042679Y-25855329D01*
X23033594Y-25891598D01*
X23020998Y-25926802D01*
X23005012Y-25960602D01*
X22985790Y-25992672D01*
X22963517Y-26022704D01*
X22938408Y-26050408D01*
X22910704Y-26075517D01*
X22880672Y-26097790D01*
X22848602Y-26117012D01*
X22814802Y-26132998D01*
X22779598Y-26145594D01*
X22743329Y-26154679D01*
X22706345Y-26160165D01*
X22669000Y-26162000D01*
X15431000Y-26162000D01*
X15393655Y-26160165D01*
X15356671Y-26154679D01*
X15320402Y-26145594D01*
X15285198Y-26132998D01*
X15251398Y-26117012D01*
X15219328Y-26097790D01*
X15189296Y-26075517D01*
X15161592Y-26050408D01*
X15136483Y-26022704D01*
X15114210Y-25992672D01*
X15094988Y-25960602D01*
X15079002Y-25926802D01*
X15066406Y-25891598D01*
X15057321Y-25855329D01*
X15051835Y-25818345D01*
X15050000Y-25781000D01*
X15050000Y-25019000D01*
X15051835Y-24981655D01*
X15057321Y-24944671D01*
X15066406Y-24908402D01*
X15079002Y-24873198D01*
X15094988Y-24839398D01*
X15114210Y-24807328D01*
X15136483Y-24777296D01*
X15161592Y-24749592D01*
X15189296Y-24724483D01*
X15219328Y-24702210D01*
X15251398Y-24682988D01*
X15285198Y-24667002D01*
X15320402Y-24654406D01*
X15356671Y-24645321D01*
X15393655Y-24639835D01*
X15431000Y-24638000D01*
X22669000Y-24638000D01*
X22706345Y-24639835D01*
X22706345Y-24639835D01*
G37*
D16*
X19050000Y-25400000D03*
D10*
G36*
X22706345Y-27179835D02*
G01*
X22743329Y-27185321D01*
X22779598Y-27194406D01*
X22814802Y-27207002D01*
X22848602Y-27222988D01*
X22880672Y-27242210D01*
X22910704Y-27264483D01*
X22938408Y-27289592D01*
X22963517Y-27317296D01*
X22985790Y-27347328D01*
X23005012Y-27379398D01*
X23020998Y-27413198D01*
X23033594Y-27448402D01*
X23042679Y-27484671D01*
X23048165Y-27521655D01*
X23050000Y-27559000D01*
X23050000Y-28321000D01*
X23048165Y-28358345D01*
X23042679Y-28395329D01*
X23033594Y-28431598D01*
X23020998Y-28466802D01*
X23005012Y-28500602D01*
X22985790Y-28532672D01*
X22963517Y-28562704D01*
X22938408Y-28590408D01*
X22910704Y-28615517D01*
X22880672Y-28637790D01*
X22848602Y-28657012D01*
X22814802Y-28672998D01*
X22779598Y-28685594D01*
X22743329Y-28694679D01*
X22706345Y-28700165D01*
X22669000Y-28702000D01*
X15431000Y-28702000D01*
X15393655Y-28700165D01*
X15356671Y-28694679D01*
X15320402Y-28685594D01*
X15285198Y-28672998D01*
X15251398Y-28657012D01*
X15219328Y-28637790D01*
X15189296Y-28615517D01*
X15161592Y-28590408D01*
X15136483Y-28562704D01*
X15114210Y-28532672D01*
X15094988Y-28500602D01*
X15079002Y-28466802D01*
X15066406Y-28431598D01*
X15057321Y-28395329D01*
X15051835Y-28358345D01*
X15050000Y-28321000D01*
X15050000Y-27559000D01*
X15051835Y-27521655D01*
X15057321Y-27484671D01*
X15066406Y-27448402D01*
X15079002Y-27413198D01*
X15094988Y-27379398D01*
X15114210Y-27347328D01*
X15136483Y-27317296D01*
X15161592Y-27289592D01*
X15189296Y-27264483D01*
X15219328Y-27242210D01*
X15251398Y-27222988D01*
X15285198Y-27207002D01*
X15320402Y-27194406D01*
X15356671Y-27185321D01*
X15393655Y-27179835D01*
X15431000Y-27178000D01*
X22669000Y-27178000D01*
X22706345Y-27179835D01*
X22706345Y-27179835D01*
G37*
D16*
X19050000Y-27940000D03*
D10*
G36*
X22706345Y-29719835D02*
G01*
X22743329Y-29725321D01*
X22779598Y-29734406D01*
X22814802Y-29747002D01*
X22848602Y-29762988D01*
X22880672Y-29782210D01*
X22910704Y-29804483D01*
X22938408Y-29829592D01*
X22963517Y-29857296D01*
X22985790Y-29887328D01*
X23005012Y-29919398D01*
X23020998Y-29953198D01*
X23033594Y-29988402D01*
X23042679Y-30024671D01*
X23048165Y-30061655D01*
X23050000Y-30099000D01*
X23050000Y-30861000D01*
X23048165Y-30898345D01*
X23042679Y-30935329D01*
X23033594Y-30971598D01*
X23020998Y-31006802D01*
X23005012Y-31040602D01*
X22985790Y-31072672D01*
X22963517Y-31102704D01*
X22938408Y-31130408D01*
X22910704Y-31155517D01*
X22880672Y-31177790D01*
X22848602Y-31197012D01*
X22814802Y-31212998D01*
X22779598Y-31225594D01*
X22743329Y-31234679D01*
X22706345Y-31240165D01*
X22669000Y-31242000D01*
X15431000Y-31242000D01*
X15393655Y-31240165D01*
X15356671Y-31234679D01*
X15320402Y-31225594D01*
X15285198Y-31212998D01*
X15251398Y-31197012D01*
X15219328Y-31177790D01*
X15189296Y-31155517D01*
X15161592Y-31130408D01*
X15136483Y-31102704D01*
X15114210Y-31072672D01*
X15094988Y-31040602D01*
X15079002Y-31006802D01*
X15066406Y-30971598D01*
X15057321Y-30935329D01*
X15051835Y-30898345D01*
X15050000Y-30861000D01*
X15050000Y-30099000D01*
X15051835Y-30061655D01*
X15057321Y-30024671D01*
X15066406Y-29988402D01*
X15079002Y-29953198D01*
X15094988Y-29919398D01*
X15114210Y-29887328D01*
X15136483Y-29857296D01*
X15161592Y-29829592D01*
X15189296Y-29804483D01*
X15219328Y-29782210D01*
X15251398Y-29762988D01*
X15285198Y-29747002D01*
X15320402Y-29734406D01*
X15356671Y-29725321D01*
X15393655Y-29719835D01*
X15431000Y-29718000D01*
X22669000Y-29718000D01*
X22706345Y-29719835D01*
X22706345Y-29719835D01*
G37*
D16*
X19050000Y-30480000D03*
D10*
G36*
X22706345Y-32259835D02*
G01*
X22743329Y-32265321D01*
X22779598Y-32274406D01*
X22814802Y-32287002D01*
X22848602Y-32302988D01*
X22880672Y-32322210D01*
X22910704Y-32344483D01*
X22938408Y-32369592D01*
X22963517Y-32397296D01*
X22985790Y-32427328D01*
X23005012Y-32459398D01*
X23020998Y-32493198D01*
X23033594Y-32528402D01*
X23042679Y-32564671D01*
X23048165Y-32601655D01*
X23050000Y-32639000D01*
X23050000Y-33401000D01*
X23048165Y-33438345D01*
X23042679Y-33475329D01*
X23033594Y-33511598D01*
X23020998Y-33546802D01*
X23005012Y-33580602D01*
X22985790Y-33612672D01*
X22963517Y-33642704D01*
X22938408Y-33670408D01*
X22910704Y-33695517D01*
X22880672Y-33717790D01*
X22848602Y-33737012D01*
X22814802Y-33752998D01*
X22779598Y-33765594D01*
X22743329Y-33774679D01*
X22706345Y-33780165D01*
X22669000Y-33782000D01*
X15431000Y-33782000D01*
X15393655Y-33780165D01*
X15356671Y-33774679D01*
X15320402Y-33765594D01*
X15285198Y-33752998D01*
X15251398Y-33737012D01*
X15219328Y-33717790D01*
X15189296Y-33695517D01*
X15161592Y-33670408D01*
X15136483Y-33642704D01*
X15114210Y-33612672D01*
X15094988Y-33580602D01*
X15079002Y-33546802D01*
X15066406Y-33511598D01*
X15057321Y-33475329D01*
X15051835Y-33438345D01*
X15050000Y-33401000D01*
X15050000Y-32639000D01*
X15051835Y-32601655D01*
X15057321Y-32564671D01*
X15066406Y-32528402D01*
X15079002Y-32493198D01*
X15094988Y-32459398D01*
X15114210Y-32427328D01*
X15136483Y-32397296D01*
X15161592Y-32369592D01*
X15189296Y-32344483D01*
X15219328Y-32322210D01*
X15251398Y-32302988D01*
X15285198Y-32287002D01*
X15320402Y-32274406D01*
X15356671Y-32265321D01*
X15393655Y-32259835D01*
X15431000Y-32258000D01*
X22669000Y-32258000D01*
X22706345Y-32259835D01*
X22706345Y-32259835D01*
G37*
D16*
X19050000Y-33020000D03*
D10*
G36*
X22706345Y-34799835D02*
G01*
X22743329Y-34805321D01*
X22779598Y-34814406D01*
X22814802Y-34827002D01*
X22848602Y-34842988D01*
X22880672Y-34862210D01*
X22910704Y-34884483D01*
X22938408Y-34909592D01*
X22963517Y-34937296D01*
X22985790Y-34967328D01*
X23005012Y-34999398D01*
X23020998Y-35033198D01*
X23033594Y-35068402D01*
X23042679Y-35104671D01*
X23048165Y-35141655D01*
X23050000Y-35179000D01*
X23050000Y-35941000D01*
X23048165Y-35978345D01*
X23042679Y-36015329D01*
X23033594Y-36051598D01*
X23020998Y-36086802D01*
X23005012Y-36120602D01*
X22985790Y-36152672D01*
X22963517Y-36182704D01*
X22938408Y-36210408D01*
X22910704Y-36235517D01*
X22880672Y-36257790D01*
X22848602Y-36277012D01*
X22814802Y-36292998D01*
X22779598Y-36305594D01*
X22743329Y-36314679D01*
X22706345Y-36320165D01*
X22669000Y-36322000D01*
X15431000Y-36322000D01*
X15393655Y-36320165D01*
X15356671Y-36314679D01*
X15320402Y-36305594D01*
X15285198Y-36292998D01*
X15251398Y-36277012D01*
X15219328Y-36257790D01*
X15189296Y-36235517D01*
X15161592Y-36210408D01*
X15136483Y-36182704D01*
X15114210Y-36152672D01*
X15094988Y-36120602D01*
X15079002Y-36086802D01*
X15066406Y-36051598D01*
X15057321Y-36015329D01*
X15051835Y-35978345D01*
X15050000Y-35941000D01*
X15050000Y-35179000D01*
X15051835Y-35141655D01*
X15057321Y-35104671D01*
X15066406Y-35068402D01*
X15079002Y-35033198D01*
X15094988Y-34999398D01*
X15114210Y-34967328D01*
X15136483Y-34937296D01*
X15161592Y-34909592D01*
X15189296Y-34884483D01*
X15219328Y-34862210D01*
X15251398Y-34842988D01*
X15285198Y-34827002D01*
X15320402Y-34814406D01*
X15356671Y-34805321D01*
X15393655Y-34799835D01*
X15431000Y-34798000D01*
X22669000Y-34798000D01*
X22706345Y-34799835D01*
X22706345Y-34799835D01*
G37*
D16*
X19050000Y-35560000D03*
D10*
G36*
X22706345Y-37339835D02*
G01*
X22743329Y-37345321D01*
X22779598Y-37354406D01*
X22814802Y-37367002D01*
X22848602Y-37382988D01*
X22880672Y-37402210D01*
X22910704Y-37424483D01*
X22938408Y-37449592D01*
X22963517Y-37477296D01*
X22985790Y-37507328D01*
X23005012Y-37539398D01*
X23020998Y-37573198D01*
X23033594Y-37608402D01*
X23042679Y-37644671D01*
X23048165Y-37681655D01*
X23050000Y-37719000D01*
X23050000Y-38481000D01*
X23048165Y-38518345D01*
X23042679Y-38555329D01*
X23033594Y-38591598D01*
X23020998Y-38626802D01*
X23005012Y-38660602D01*
X22985790Y-38692672D01*
X22963517Y-38722704D01*
X22938408Y-38750408D01*
X22910704Y-38775517D01*
X22880672Y-38797790D01*
X22848602Y-38817012D01*
X22814802Y-38832998D01*
X22779598Y-38845594D01*
X22743329Y-38854679D01*
X22706345Y-38860165D01*
X22669000Y-38862000D01*
X15431000Y-38862000D01*
X15393655Y-38860165D01*
X15356671Y-38854679D01*
X15320402Y-38845594D01*
X15285198Y-38832998D01*
X15251398Y-38817012D01*
X15219328Y-38797790D01*
X15189296Y-38775517D01*
X15161592Y-38750408D01*
X15136483Y-38722704D01*
X15114210Y-38692672D01*
X15094988Y-38660602D01*
X15079002Y-38626802D01*
X15066406Y-38591598D01*
X15057321Y-38555329D01*
X15051835Y-38518345D01*
X15050000Y-38481000D01*
X15050000Y-37719000D01*
X15051835Y-37681655D01*
X15057321Y-37644671D01*
X15066406Y-37608402D01*
X15079002Y-37573198D01*
X15094988Y-37539398D01*
X15114210Y-37507328D01*
X15136483Y-37477296D01*
X15161592Y-37449592D01*
X15189296Y-37424483D01*
X15219328Y-37402210D01*
X15251398Y-37382988D01*
X15285198Y-37367002D01*
X15320402Y-37354406D01*
X15356671Y-37345321D01*
X15393655Y-37339835D01*
X15431000Y-37338000D01*
X22669000Y-37338000D01*
X22706345Y-37339835D01*
X22706345Y-37339835D01*
G37*
D16*
X19050000Y-38100000D03*
D10*
G36*
X22706345Y-39879835D02*
G01*
X22743329Y-39885321D01*
X22779598Y-39894406D01*
X22814802Y-39907002D01*
X22848602Y-39922988D01*
X22880672Y-39942210D01*
X22910704Y-39964483D01*
X22938408Y-39989592D01*
X22963517Y-40017296D01*
X22985790Y-40047328D01*
X23005012Y-40079398D01*
X23020998Y-40113198D01*
X23033594Y-40148402D01*
X23042679Y-40184671D01*
X23048165Y-40221655D01*
X23050000Y-40259000D01*
X23050000Y-41021000D01*
X23048165Y-41058345D01*
X23042679Y-41095329D01*
X23033594Y-41131598D01*
X23020998Y-41166802D01*
X23005012Y-41200602D01*
X22985790Y-41232672D01*
X22963517Y-41262704D01*
X22938408Y-41290408D01*
X22910704Y-41315517D01*
X22880672Y-41337790D01*
X22848602Y-41357012D01*
X22814802Y-41372998D01*
X22779598Y-41385594D01*
X22743329Y-41394679D01*
X22706345Y-41400165D01*
X22669000Y-41402000D01*
X15431000Y-41402000D01*
X15393655Y-41400165D01*
X15356671Y-41394679D01*
X15320402Y-41385594D01*
X15285198Y-41372998D01*
X15251398Y-41357012D01*
X15219328Y-41337790D01*
X15189296Y-41315517D01*
X15161592Y-41290408D01*
X15136483Y-41262704D01*
X15114210Y-41232672D01*
X15094988Y-41200602D01*
X15079002Y-41166802D01*
X15066406Y-41131598D01*
X15057321Y-41095329D01*
X15051835Y-41058345D01*
X15050000Y-41021000D01*
X15050000Y-40259000D01*
X15051835Y-40221655D01*
X15057321Y-40184671D01*
X15066406Y-40148402D01*
X15079002Y-40113198D01*
X15094988Y-40079398D01*
X15114210Y-40047328D01*
X15136483Y-40017296D01*
X15161592Y-39989592D01*
X15189296Y-39964483D01*
X15219328Y-39942210D01*
X15251398Y-39922988D01*
X15285198Y-39907002D01*
X15320402Y-39894406D01*
X15356671Y-39885321D01*
X15393655Y-39879835D01*
X15431000Y-39878000D01*
X22669000Y-39878000D01*
X22706345Y-39879835D01*
X22706345Y-39879835D01*
G37*
D16*
X19050000Y-40640000D03*
D10*
G36*
X22706345Y-42419835D02*
G01*
X22743329Y-42425321D01*
X22779598Y-42434406D01*
X22814802Y-42447002D01*
X22848602Y-42462988D01*
X22880672Y-42482210D01*
X22910704Y-42504483D01*
X22938408Y-42529592D01*
X22963517Y-42557296D01*
X22985790Y-42587328D01*
X23005012Y-42619398D01*
X23020998Y-42653198D01*
X23033594Y-42688402D01*
X23042679Y-42724671D01*
X23048165Y-42761655D01*
X23050000Y-42799000D01*
X23050000Y-43561000D01*
X23048165Y-43598345D01*
X23042679Y-43635329D01*
X23033594Y-43671598D01*
X23020998Y-43706802D01*
X23005012Y-43740602D01*
X22985790Y-43772672D01*
X22963517Y-43802704D01*
X22938408Y-43830408D01*
X22910704Y-43855517D01*
X22880672Y-43877790D01*
X22848602Y-43897012D01*
X22814802Y-43912998D01*
X22779598Y-43925594D01*
X22743329Y-43934679D01*
X22706345Y-43940165D01*
X22669000Y-43942000D01*
X15431000Y-43942000D01*
X15393655Y-43940165D01*
X15356671Y-43934679D01*
X15320402Y-43925594D01*
X15285198Y-43912998D01*
X15251398Y-43897012D01*
X15219328Y-43877790D01*
X15189296Y-43855517D01*
X15161592Y-43830408D01*
X15136483Y-43802704D01*
X15114210Y-43772672D01*
X15094988Y-43740602D01*
X15079002Y-43706802D01*
X15066406Y-43671598D01*
X15057321Y-43635329D01*
X15051835Y-43598345D01*
X15050000Y-43561000D01*
X15050000Y-42799000D01*
X15051835Y-42761655D01*
X15057321Y-42724671D01*
X15066406Y-42688402D01*
X15079002Y-42653198D01*
X15094988Y-42619398D01*
X15114210Y-42587328D01*
X15136483Y-42557296D01*
X15161592Y-42529592D01*
X15189296Y-42504483D01*
X15219328Y-42482210D01*
X15251398Y-42462988D01*
X15285198Y-42447002D01*
X15320402Y-42434406D01*
X15356671Y-42425321D01*
X15393655Y-42419835D01*
X15431000Y-42418000D01*
X22669000Y-42418000D01*
X22706345Y-42419835D01*
X22706345Y-42419835D01*
G37*
D16*
X19050000Y-43180000D03*
D10*
G36*
X22706345Y-44959835D02*
G01*
X22743329Y-44965321D01*
X22779598Y-44974406D01*
X22814802Y-44987002D01*
X22848602Y-45002988D01*
X22880672Y-45022210D01*
X22910704Y-45044483D01*
X22938408Y-45069592D01*
X22963517Y-45097296D01*
X22985790Y-45127328D01*
X23005012Y-45159398D01*
X23020998Y-45193198D01*
X23033594Y-45228402D01*
X23042679Y-45264671D01*
X23048165Y-45301655D01*
X23050000Y-45339000D01*
X23050000Y-46101000D01*
X23048165Y-46138345D01*
X23042679Y-46175329D01*
X23033594Y-46211598D01*
X23020998Y-46246802D01*
X23005012Y-46280602D01*
X22985790Y-46312672D01*
X22963517Y-46342704D01*
X22938408Y-46370408D01*
X22910704Y-46395517D01*
X22880672Y-46417790D01*
X22848602Y-46437012D01*
X22814802Y-46452998D01*
X22779598Y-46465594D01*
X22743329Y-46474679D01*
X22706345Y-46480165D01*
X22669000Y-46482000D01*
X15431000Y-46482000D01*
X15393655Y-46480165D01*
X15356671Y-46474679D01*
X15320402Y-46465594D01*
X15285198Y-46452998D01*
X15251398Y-46437012D01*
X15219328Y-46417790D01*
X15189296Y-46395517D01*
X15161592Y-46370408D01*
X15136483Y-46342704D01*
X15114210Y-46312672D01*
X15094988Y-46280602D01*
X15079002Y-46246802D01*
X15066406Y-46211598D01*
X15057321Y-46175329D01*
X15051835Y-46138345D01*
X15050000Y-46101000D01*
X15050000Y-45339000D01*
X15051835Y-45301655D01*
X15057321Y-45264671D01*
X15066406Y-45228402D01*
X15079002Y-45193198D01*
X15094988Y-45159398D01*
X15114210Y-45127328D01*
X15136483Y-45097296D01*
X15161592Y-45069592D01*
X15189296Y-45044483D01*
X15219328Y-45022210D01*
X15251398Y-45002988D01*
X15285198Y-44987002D01*
X15320402Y-44974406D01*
X15356671Y-44965321D01*
X15393655Y-44959835D01*
X15431000Y-44958000D01*
X22669000Y-44958000D01*
X22706345Y-44959835D01*
X22706345Y-44959835D01*
G37*
D16*
X19050000Y-45720000D03*
D10*
G36*
X22706345Y-47499835D02*
G01*
X22743329Y-47505321D01*
X22779598Y-47514406D01*
X22814802Y-47527002D01*
X22848602Y-47542988D01*
X22880672Y-47562210D01*
X22910704Y-47584483D01*
X22938408Y-47609592D01*
X22963517Y-47637296D01*
X22985790Y-47667328D01*
X23005012Y-47699398D01*
X23020998Y-47733198D01*
X23033594Y-47768402D01*
X23042679Y-47804671D01*
X23048165Y-47841655D01*
X23050000Y-47879000D01*
X23050000Y-48641000D01*
X23048165Y-48678345D01*
X23042679Y-48715329D01*
X23033594Y-48751598D01*
X23020998Y-48786802D01*
X23005012Y-48820602D01*
X22985790Y-48852672D01*
X22963517Y-48882704D01*
X22938408Y-48910408D01*
X22910704Y-48935517D01*
X22880672Y-48957790D01*
X22848602Y-48977012D01*
X22814802Y-48992998D01*
X22779598Y-49005594D01*
X22743329Y-49014679D01*
X22706345Y-49020165D01*
X22669000Y-49022000D01*
X15431000Y-49022000D01*
X15393655Y-49020165D01*
X15356671Y-49014679D01*
X15320402Y-49005594D01*
X15285198Y-48992998D01*
X15251398Y-48977012D01*
X15219328Y-48957790D01*
X15189296Y-48935517D01*
X15161592Y-48910408D01*
X15136483Y-48882704D01*
X15114210Y-48852672D01*
X15094988Y-48820602D01*
X15079002Y-48786802D01*
X15066406Y-48751598D01*
X15057321Y-48715329D01*
X15051835Y-48678345D01*
X15050000Y-48641000D01*
X15050000Y-47879000D01*
X15051835Y-47841655D01*
X15057321Y-47804671D01*
X15066406Y-47768402D01*
X15079002Y-47733198D01*
X15094988Y-47699398D01*
X15114210Y-47667328D01*
X15136483Y-47637296D01*
X15161592Y-47609592D01*
X15189296Y-47584483D01*
X15219328Y-47562210D01*
X15251398Y-47542988D01*
X15285198Y-47527002D01*
X15320402Y-47514406D01*
X15356671Y-47505321D01*
X15393655Y-47499835D01*
X15431000Y-47498000D01*
X22669000Y-47498000D01*
X22706345Y-47499835D01*
X22706345Y-47499835D01*
G37*
D16*
X19050000Y-48260000D03*
D10*
G36*
X22706345Y-50039835D02*
G01*
X22743329Y-50045321D01*
X22779598Y-50054406D01*
X22814802Y-50067002D01*
X22848602Y-50082988D01*
X22880672Y-50102210D01*
X22910704Y-50124483D01*
X22938408Y-50149592D01*
X22963517Y-50177296D01*
X22985790Y-50207328D01*
X23005012Y-50239398D01*
X23020998Y-50273198D01*
X23033594Y-50308402D01*
X23042679Y-50344671D01*
X23048165Y-50381655D01*
X23050000Y-50419000D01*
X23050000Y-51181000D01*
X23048165Y-51218345D01*
X23042679Y-51255329D01*
X23033594Y-51291598D01*
X23020998Y-51326802D01*
X23005012Y-51360602D01*
X22985790Y-51392672D01*
X22963517Y-51422704D01*
X22938408Y-51450408D01*
X22910704Y-51475517D01*
X22880672Y-51497790D01*
X22848602Y-51517012D01*
X22814802Y-51532998D01*
X22779598Y-51545594D01*
X22743329Y-51554679D01*
X22706345Y-51560165D01*
X22669000Y-51562000D01*
X15431000Y-51562000D01*
X15393655Y-51560165D01*
X15356671Y-51554679D01*
X15320402Y-51545594D01*
X15285198Y-51532998D01*
X15251398Y-51517012D01*
X15219328Y-51497790D01*
X15189296Y-51475517D01*
X15161592Y-51450408D01*
X15136483Y-51422704D01*
X15114210Y-51392672D01*
X15094988Y-51360602D01*
X15079002Y-51326802D01*
X15066406Y-51291598D01*
X15057321Y-51255329D01*
X15051835Y-51218345D01*
X15050000Y-51181000D01*
X15050000Y-50419000D01*
X15051835Y-50381655D01*
X15057321Y-50344671D01*
X15066406Y-50308402D01*
X15079002Y-50273198D01*
X15094988Y-50239398D01*
X15114210Y-50207328D01*
X15136483Y-50177296D01*
X15161592Y-50149592D01*
X15189296Y-50124483D01*
X15219328Y-50102210D01*
X15251398Y-50082988D01*
X15285198Y-50067002D01*
X15320402Y-50054406D01*
X15356671Y-50045321D01*
X15393655Y-50039835D01*
X15431000Y-50038000D01*
X22669000Y-50038000D01*
X22706345Y-50039835D01*
X22706345Y-50039835D01*
G37*
D16*
X19050000Y-50800000D03*
D10*
G36*
X22706345Y-52579835D02*
G01*
X22743329Y-52585321D01*
X22779598Y-52594406D01*
X22814802Y-52607002D01*
X22848602Y-52622988D01*
X22880672Y-52642210D01*
X22910704Y-52664483D01*
X22938408Y-52689592D01*
X22963517Y-52717296D01*
X22985790Y-52747328D01*
X23005012Y-52779398D01*
X23020998Y-52813198D01*
X23033594Y-52848402D01*
X23042679Y-52884671D01*
X23048165Y-52921655D01*
X23050000Y-52959000D01*
X23050000Y-53721000D01*
X23048165Y-53758345D01*
X23042679Y-53795329D01*
X23033594Y-53831598D01*
X23020998Y-53866802D01*
X23005012Y-53900602D01*
X22985790Y-53932672D01*
X22963517Y-53962704D01*
X22938408Y-53990408D01*
X22910704Y-54015517D01*
X22880672Y-54037790D01*
X22848602Y-54057012D01*
X22814802Y-54072998D01*
X22779598Y-54085594D01*
X22743329Y-54094679D01*
X22706345Y-54100165D01*
X22669000Y-54102000D01*
X15431000Y-54102000D01*
X15393655Y-54100165D01*
X15356671Y-54094679D01*
X15320402Y-54085594D01*
X15285198Y-54072998D01*
X15251398Y-54057012D01*
X15219328Y-54037790D01*
X15189296Y-54015517D01*
X15161592Y-53990408D01*
X15136483Y-53962704D01*
X15114210Y-53932672D01*
X15094988Y-53900602D01*
X15079002Y-53866802D01*
X15066406Y-53831598D01*
X15057321Y-53795329D01*
X15051835Y-53758345D01*
X15050000Y-53721000D01*
X15050000Y-52959000D01*
X15051835Y-52921655D01*
X15057321Y-52884671D01*
X15066406Y-52848402D01*
X15079002Y-52813198D01*
X15094988Y-52779398D01*
X15114210Y-52747328D01*
X15136483Y-52717296D01*
X15161592Y-52689592D01*
X15189296Y-52664483D01*
X15219328Y-52642210D01*
X15251398Y-52622988D01*
X15285198Y-52607002D01*
X15320402Y-52594406D01*
X15356671Y-52585321D01*
X15393655Y-52579835D01*
X15431000Y-52578000D01*
X22669000Y-52578000D01*
X22706345Y-52579835D01*
X22706345Y-52579835D01*
G37*
D16*
X19050000Y-53340000D03*
D10*
G36*
X22706345Y-55119835D02*
G01*
X22743329Y-55125321D01*
X22779598Y-55134406D01*
X22814802Y-55147002D01*
X22848602Y-55162988D01*
X22880672Y-55182210D01*
X22910704Y-55204483D01*
X22938408Y-55229592D01*
X22963517Y-55257296D01*
X22985790Y-55287328D01*
X23005012Y-55319398D01*
X23020998Y-55353198D01*
X23033594Y-55388402D01*
X23042679Y-55424671D01*
X23048165Y-55461655D01*
X23050000Y-55499000D01*
X23050000Y-56261000D01*
X23048165Y-56298345D01*
X23042679Y-56335329D01*
X23033594Y-56371598D01*
X23020998Y-56406802D01*
X23005012Y-56440602D01*
X22985790Y-56472672D01*
X22963517Y-56502704D01*
X22938408Y-56530408D01*
X22910704Y-56555517D01*
X22880672Y-56577790D01*
X22848602Y-56597012D01*
X22814802Y-56612998D01*
X22779598Y-56625594D01*
X22743329Y-56634679D01*
X22706345Y-56640165D01*
X22669000Y-56642000D01*
X15431000Y-56642000D01*
X15393655Y-56640165D01*
X15356671Y-56634679D01*
X15320402Y-56625594D01*
X15285198Y-56612998D01*
X15251398Y-56597012D01*
X15219328Y-56577790D01*
X15189296Y-56555517D01*
X15161592Y-56530408D01*
X15136483Y-56502704D01*
X15114210Y-56472672D01*
X15094988Y-56440602D01*
X15079002Y-56406802D01*
X15066406Y-56371598D01*
X15057321Y-56335329D01*
X15051835Y-56298345D01*
X15050000Y-56261000D01*
X15050000Y-55499000D01*
X15051835Y-55461655D01*
X15057321Y-55424671D01*
X15066406Y-55388402D01*
X15079002Y-55353198D01*
X15094988Y-55319398D01*
X15114210Y-55287328D01*
X15136483Y-55257296D01*
X15161592Y-55229592D01*
X15189296Y-55204483D01*
X15219328Y-55182210D01*
X15251398Y-55162988D01*
X15285198Y-55147002D01*
X15320402Y-55134406D01*
X15356671Y-55125321D01*
X15393655Y-55119835D01*
X15431000Y-55118000D01*
X22669000Y-55118000D01*
X22706345Y-55119835D01*
X22706345Y-55119835D01*
G37*
D16*
X19050000Y-55880000D03*
D10*
G36*
X22706345Y-57659835D02*
G01*
X22743329Y-57665321D01*
X22779598Y-57674406D01*
X22814802Y-57687002D01*
X22848602Y-57702988D01*
X22880672Y-57722210D01*
X22910704Y-57744483D01*
X22938408Y-57769592D01*
X22963517Y-57797296D01*
X22985790Y-57827328D01*
X23005012Y-57859398D01*
X23020998Y-57893198D01*
X23033594Y-57928402D01*
X23042679Y-57964671D01*
X23048165Y-58001655D01*
X23050000Y-58039000D01*
X23050000Y-58801000D01*
X23048165Y-58838345D01*
X23042679Y-58875329D01*
X23033594Y-58911598D01*
X23020998Y-58946802D01*
X23005012Y-58980602D01*
X22985790Y-59012672D01*
X22963517Y-59042704D01*
X22938408Y-59070408D01*
X22910704Y-59095517D01*
X22880672Y-59117790D01*
X22848602Y-59137012D01*
X22814802Y-59152998D01*
X22779598Y-59165594D01*
X22743329Y-59174679D01*
X22706345Y-59180165D01*
X22669000Y-59182000D01*
X15431000Y-59182000D01*
X15393655Y-59180165D01*
X15356671Y-59174679D01*
X15320402Y-59165594D01*
X15285198Y-59152998D01*
X15251398Y-59137012D01*
X15219328Y-59117790D01*
X15189296Y-59095517D01*
X15161592Y-59070408D01*
X15136483Y-59042704D01*
X15114210Y-59012672D01*
X15094988Y-58980602D01*
X15079002Y-58946802D01*
X15066406Y-58911598D01*
X15057321Y-58875329D01*
X15051835Y-58838345D01*
X15050000Y-58801000D01*
X15050000Y-58039000D01*
X15051835Y-58001655D01*
X15057321Y-57964671D01*
X15066406Y-57928402D01*
X15079002Y-57893198D01*
X15094988Y-57859398D01*
X15114210Y-57827328D01*
X15136483Y-57797296D01*
X15161592Y-57769592D01*
X15189296Y-57744483D01*
X15219328Y-57722210D01*
X15251398Y-57702988D01*
X15285198Y-57687002D01*
X15320402Y-57674406D01*
X15356671Y-57665321D01*
X15393655Y-57659835D01*
X15431000Y-57658000D01*
X22669000Y-57658000D01*
X22706345Y-57659835D01*
X22706345Y-57659835D01*
G37*
D16*
X19050000Y-58420000D03*
D10*
G36*
X22706345Y-62739835D02*
G01*
X22743329Y-62745321D01*
X22779598Y-62754406D01*
X22814802Y-62767002D01*
X22848602Y-62782988D01*
X22880672Y-62802210D01*
X22910704Y-62824483D01*
X22938408Y-62849592D01*
X22963517Y-62877296D01*
X22985790Y-62907328D01*
X23005012Y-62939398D01*
X23020998Y-62973198D01*
X23033594Y-63008402D01*
X23042679Y-63044671D01*
X23048165Y-63081655D01*
X23050000Y-63119000D01*
X23050000Y-63881000D01*
X23048165Y-63918345D01*
X23042679Y-63955329D01*
X23033594Y-63991598D01*
X23020998Y-64026802D01*
X23005012Y-64060602D01*
X22985790Y-64092672D01*
X22963517Y-64122704D01*
X22938408Y-64150408D01*
X22910704Y-64175517D01*
X22880672Y-64197790D01*
X22848602Y-64217012D01*
X22814802Y-64232998D01*
X22779598Y-64245594D01*
X22743329Y-64254679D01*
X22706345Y-64260165D01*
X22669000Y-64262000D01*
X15431000Y-64262000D01*
X15393655Y-64260165D01*
X15356671Y-64254679D01*
X15320402Y-64245594D01*
X15285198Y-64232998D01*
X15251398Y-64217012D01*
X15219328Y-64197790D01*
X15189296Y-64175517D01*
X15161592Y-64150408D01*
X15136483Y-64122704D01*
X15114210Y-64092672D01*
X15094988Y-64060602D01*
X15079002Y-64026802D01*
X15066406Y-63991598D01*
X15057321Y-63955329D01*
X15051835Y-63918345D01*
X15050000Y-63881000D01*
X15050000Y-63119000D01*
X15051835Y-63081655D01*
X15057321Y-63044671D01*
X15066406Y-63008402D01*
X15079002Y-62973198D01*
X15094988Y-62939398D01*
X15114210Y-62907328D01*
X15136483Y-62877296D01*
X15161592Y-62849592D01*
X15189296Y-62824483D01*
X15219328Y-62802210D01*
X15251398Y-62782988D01*
X15285198Y-62767002D01*
X15320402Y-62754406D01*
X15356671Y-62745321D01*
X15393655Y-62739835D01*
X15431000Y-62738000D01*
X22669000Y-62738000D01*
X22706345Y-62739835D01*
X22706345Y-62739835D01*
G37*
D16*
X19050000Y-63500000D03*
D10*
G36*
X22706345Y-65279835D02*
G01*
X22743329Y-65285321D01*
X22779598Y-65294406D01*
X22814802Y-65307002D01*
X22848602Y-65322988D01*
X22880672Y-65342210D01*
X22910704Y-65364483D01*
X22938408Y-65389592D01*
X22963517Y-65417296D01*
X22985790Y-65447328D01*
X23005012Y-65479398D01*
X23020998Y-65513198D01*
X23033594Y-65548402D01*
X23042679Y-65584671D01*
X23048165Y-65621655D01*
X23050000Y-65659000D01*
X23050000Y-66421000D01*
X23048165Y-66458345D01*
X23042679Y-66495329D01*
X23033594Y-66531598D01*
X23020998Y-66566802D01*
X23005012Y-66600602D01*
X22985790Y-66632672D01*
X22963517Y-66662704D01*
X22938408Y-66690408D01*
X22910704Y-66715517D01*
X22880672Y-66737790D01*
X22848602Y-66757012D01*
X22814802Y-66772998D01*
X22779598Y-66785594D01*
X22743329Y-66794679D01*
X22706345Y-66800165D01*
X22669000Y-66802000D01*
X15431000Y-66802000D01*
X15393655Y-66800165D01*
X15356671Y-66794679D01*
X15320402Y-66785594D01*
X15285198Y-66772998D01*
X15251398Y-66757012D01*
X15219328Y-66737790D01*
X15189296Y-66715517D01*
X15161592Y-66690408D01*
X15136483Y-66662704D01*
X15114210Y-66632672D01*
X15094988Y-66600602D01*
X15079002Y-66566802D01*
X15066406Y-66531598D01*
X15057321Y-66495329D01*
X15051835Y-66458345D01*
X15050000Y-66421000D01*
X15050000Y-65659000D01*
X15051835Y-65621655D01*
X15057321Y-65584671D01*
X15066406Y-65548402D01*
X15079002Y-65513198D01*
X15094988Y-65479398D01*
X15114210Y-65447328D01*
X15136483Y-65417296D01*
X15161592Y-65389592D01*
X15189296Y-65364483D01*
X15219328Y-65342210D01*
X15251398Y-65322988D01*
X15285198Y-65307002D01*
X15320402Y-65294406D01*
X15356671Y-65285321D01*
X15393655Y-65279835D01*
X15431000Y-65278000D01*
X22669000Y-65278000D01*
X22706345Y-65279835D01*
X22706345Y-65279835D01*
G37*
D16*
X19050000Y-66040000D03*
D17*
X29845000Y-24130000D03*
X53340000Y-26670000D03*
X53340000Y-31750000D03*
X45720000Y-36830000D03*
X52070000Y-24130000D03*
X27940000Y-22860000D03*
X46355000Y-25400000D03*
X38100000Y-27940000D03*
X38100000Y-35560000D03*
X46355000Y-33020000D03*
X26670000Y-66040000D03*
X30480000Y-40640000D03*
X40640000Y-33020000D03*
X39370000Y-27940000D03*
X50075000Y-57150000D03*
X30480000Y-58420000D03*
X38100000Y-38100000D03*
X31750000Y-24130000D03*
X46355000Y-24130000D03*
D18*
X53340000Y-22860000D02*
X55880000Y-25400000D01*
X45720000Y-22860000D02*
X53340000Y-22860000D01*
X43180000Y-25400000D02*
X45720000Y-22860000D01*
X57785000Y-26035000D02*
X57150000Y-25400000D01*
X57150000Y-25400000D02*
X55880000Y-25400000D01*
X57785000Y-43815000D02*
X57785000Y-26035000D01*
X56515000Y-45085000D02*
X57785000Y-43815000D01*
X55245000Y-45085000D02*
X56515000Y-45085000D01*
X53340000Y-73660000D02*
X53975000Y-73025000D01*
X53975000Y-46355000D02*
X55245000Y-45085000D01*
X53975000Y-73025000D02*
X53975000Y-46355000D01*
X48260000Y-73660000D02*
X53340000Y-73660000D01*
X40640000Y-22860000D02*
X43180000Y-25400000D01*
X31115000Y-22860000D02*
X40640000Y-22860000D01*
X29845000Y-24130000D02*
X31115000Y-22860000D01*
D19*
X54610000Y-30480000D02*
X55880000Y-30480000D01*
X53340000Y-29210000D02*
X54610000Y-30480000D01*
X53340000Y-26670000D02*
X53340000Y-29210000D01*
X53340000Y-31750000D02*
X53340000Y-34290000D01*
X53340000Y-34290000D02*
X54610000Y-35560000D01*
X54610000Y-35560000D02*
X55880000Y-35560000D01*
X45720000Y-35560000D02*
X43180000Y-33020000D01*
X45720000Y-36830000D02*
X45720000Y-35560000D01*
X45085000Y-40640000D02*
X43180000Y-40640000D01*
X46355000Y-41910000D02*
X45085000Y-40640000D01*
X46355000Y-55245000D02*
X46355000Y-41910000D01*
X46990000Y-55880000D02*
X46355000Y-55245000D01*
X48260000Y-55880000D02*
X46990000Y-55880000D01*
X45720000Y-57785000D02*
X45720000Y-45720000D01*
X46355000Y-58420000D02*
X45720000Y-57785000D01*
X45720000Y-45720000D02*
X43180000Y-43180000D01*
X48260000Y-58420000D02*
X46355000Y-58420000D01*
X48260000Y-60960000D02*
X45720000Y-60960000D01*
X45720000Y-60960000D02*
X45085000Y-60325000D01*
X45085000Y-60325000D02*
X45085000Y-47625000D01*
X45085000Y-47625000D02*
X43180000Y-45720000D01*
X48260000Y-68580000D02*
X45720000Y-68580000D01*
X45720000Y-68580000D02*
X44450000Y-67310000D01*
X44450000Y-67310000D02*
X44450000Y-49530000D01*
X44450000Y-49530000D02*
X43180000Y-48260000D01*
X53340000Y-43180000D02*
X55880000Y-43180000D01*
X52070000Y-24130000D02*
X52070000Y-24130000D01*
X52070000Y-41910000D02*
X53340000Y-43180000D01*
X52070000Y-24130000D02*
X52070000Y-41910000D01*
X27940000Y-22860000D02*
X19050000Y-22860000D01*
X19050000Y-25400000D02*
X27940000Y-25400000D01*
X46355000Y-28575000D02*
X48260000Y-30480000D01*
X46355000Y-25400000D02*
X46355000Y-28575000D01*
X19050000Y-27940000D02*
X27940000Y-27940000D01*
X38100000Y-27940000D02*
X38100000Y-35560000D01*
X19050000Y-30480000D02*
X27940000Y-30480000D01*
X46355000Y-36195000D02*
X48260000Y-38100000D01*
X46355000Y-33020000D02*
X46355000Y-36195000D01*
X19050000Y-33020000D02*
X27940000Y-33020000D01*
X19050000Y-35560000D02*
X27940000Y-35560000D01*
X19050000Y-38100000D02*
X27940000Y-38100000D01*
X19050000Y-40640000D02*
X27940000Y-40640000D01*
X19050000Y-43180000D02*
X27940000Y-43180000D01*
X19050000Y-45720000D02*
X27940000Y-45720000D01*
X19050000Y-48260000D02*
X27940000Y-48260000D01*
X19050000Y-50800000D02*
X27940000Y-50800000D01*
X19050000Y-53340000D02*
X27940000Y-53340000D01*
D18*
X23150000Y-58420000D02*
X25400000Y-60670000D01*
X19050000Y-58420000D02*
X23150000Y-58420000D01*
X25400000Y-60670000D02*
X25400000Y-62230000D01*
X25400000Y-62230000D02*
X26670000Y-63500000D01*
X26670000Y-63500000D02*
X27940000Y-63500000D01*
X27940000Y-63500000D02*
X27910000Y-66675000D01*
X27910000Y-67522592D02*
X28332408Y-67945000D01*
X27910000Y-66675000D02*
X27910000Y-67522592D01*
X36770000Y-67945000D02*
X38040000Y-66675000D01*
X28332408Y-67945000D02*
X36770000Y-67945000D01*
D19*
X19050000Y-63500000D02*
X24130000Y-63500000D01*
X24130000Y-63500000D02*
X26670000Y-66040000D01*
X30480000Y-53340000D02*
X30480000Y-40640000D01*
X29240000Y-54580000D02*
X30480000Y-53340000D01*
X25527000Y-54580000D02*
X29240000Y-54580000D01*
X43180000Y-58420000D02*
X41910000Y-58420000D01*
X41910000Y-58420000D02*
X40640000Y-57150000D01*
X40640000Y-57150000D02*
X40640000Y-33655000D01*
X40640000Y-33655000D02*
X40640000Y-33020000D01*
X41910000Y-60960000D02*
X43180000Y-60960000D01*
X39370000Y-58420000D02*
X41910000Y-60960000D01*
X39370000Y-27940000D02*
X39370000Y-58420000D01*
X48260000Y-71120000D02*
X49530000Y-71120000D01*
X49530000Y-71120000D02*
X50800000Y-69850000D01*
X50800000Y-69850000D02*
X50800000Y-26670000D01*
X50800000Y-26670000D02*
X49530000Y-25400000D01*
X49530000Y-25400000D02*
X48260000Y-25400000D01*
X24160000Y-57180000D02*
X25400000Y-57180000D01*
X22860000Y-55880000D02*
X24160000Y-57180000D01*
X19050000Y-55880000D02*
X22860000Y-55880000D01*
X25527000Y-55880000D02*
X27940000Y-55880000D01*
X29210000Y-62230000D02*
X27940000Y-60960000D01*
X29210000Y-66675000D02*
X29210000Y-62230000D01*
X48260000Y-33020000D02*
X50165000Y-34925000D01*
X50165000Y-57060000D02*
X50075000Y-57150000D01*
X50165000Y-34925000D02*
X50165000Y-57060000D01*
X30480000Y-66645000D02*
X30510000Y-66675000D01*
X30480000Y-58420000D02*
X30480000Y-66645000D01*
X39340000Y-67675000D02*
X39610000Y-67945000D01*
X39340000Y-66675000D02*
X39340000Y-67675000D01*
X39610000Y-67945000D02*
X42545000Y-67945000D01*
X43180000Y-67310000D02*
X43180000Y-63500000D01*
X42545000Y-67945000D02*
X43180000Y-67310000D01*
X40640000Y-66675000D02*
X40640000Y-62230000D01*
X40640000Y-62230000D02*
X38100000Y-59690000D01*
X38100000Y-59690000D02*
X38100000Y-38100000D01*
X27940000Y-58420000D02*
X29210000Y-58420000D01*
X29210000Y-58420000D02*
X31205001Y-56424999D01*
X31205001Y-56424999D02*
X31750000Y-55880000D01*
X31750000Y-55880000D02*
X31750000Y-24130000D01*
X47460001Y-27140001D02*
X48260000Y-27940000D01*
X47134999Y-26814999D02*
X47460001Y-27140001D01*
X47134999Y-24909999D02*
X47134999Y-26814999D01*
X46355000Y-24130000D02*
X47134999Y-24909999D01*
D20*
G36*
X62347869Y-18454722D02*
G01*
X62461246Y-18488953D01*
X62565819Y-18544555D01*
X62657596Y-18619407D01*
X62733091Y-18710664D01*
X62789419Y-18814844D01*
X62824440Y-18927976D01*
X62840000Y-19076022D01*
X62840000Y-48864385D01*
X62798421Y-48535247D01*
X62521819Y-47703752D01*
X62088981Y-46941819D01*
X61516392Y-46278468D01*
X60825862Y-45738968D01*
X60043694Y-45343866D01*
X59199680Y-45108213D01*
X58325969Y-45040985D01*
X57455838Y-45144741D01*
X56622433Y-45415531D01*
X55857496Y-45843040D01*
X55190164Y-46410984D01*
X54645856Y-47097730D01*
X54245304Y-47877121D01*
X54003764Y-48719469D01*
X53930438Y-49592690D01*
X54028117Y-50463523D01*
X54293082Y-51298799D01*
X54715240Y-52066702D01*
X55278512Y-52737982D01*
X55961441Y-53287072D01*
X56738016Y-53693056D01*
X57578658Y-53940470D01*
X58451346Y-54019891D01*
X59322840Y-53928293D01*
X60159945Y-53669166D01*
X60930776Y-53252379D01*
X61605973Y-52693808D01*
X62159816Y-52014728D01*
X62571212Y-51241006D01*
X62824489Y-50402112D01*
X62840001Y-50243913D01*
X62840001Y-79977711D01*
X62825278Y-80127869D01*
X62791047Y-80241246D01*
X62735446Y-80345817D01*
X62660594Y-80437595D01*
X62569335Y-80513091D01*
X62465160Y-80569419D01*
X62352024Y-80604440D01*
X62203979Y-80620000D01*
X33052279Y-80620000D01*
X32902131Y-80605278D01*
X32788754Y-80571047D01*
X32684183Y-80515446D01*
X32592405Y-80440594D01*
X32516909Y-80349335D01*
X32460581Y-80245160D01*
X32425560Y-80132024D01*
X32407145Y-79956813D01*
X32407253Y-79941318D01*
X32406354Y-79932147D01*
X32380446Y-79685644D01*
X32368414Y-79627028D01*
X32357208Y-79568284D01*
X32354544Y-79559462D01*
X32281249Y-79322686D01*
X32258074Y-79267555D01*
X32235661Y-79212080D01*
X32231334Y-79203944D01*
X32113446Y-78985914D01*
X32080012Y-78936346D01*
X32047240Y-78886265D01*
X32041416Y-78879124D01*
X31883423Y-78688144D01*
X31840988Y-78646005D01*
X31799125Y-78603255D01*
X31792024Y-78597381D01*
X31599946Y-78440727D01*
X31550169Y-78407655D01*
X31500763Y-78373826D01*
X31492657Y-78369444D01*
X31273809Y-78253081D01*
X31218532Y-78230298D01*
X31163525Y-78206721D01*
X31154722Y-78203997D01*
X30917441Y-78132357D01*
X30858754Y-78120736D01*
X30800248Y-78108300D01*
X30791085Y-78107337D01*
X30791083Y-78107337D01*
X30544405Y-78083150D01*
X30544402Y-78083150D01*
X30512419Y-78080000D01*
X24257000Y-78080000D01*
X24257000Y-74009039D01*
X46868096Y-74009039D01*
X46908754Y-74143087D01*
X47028963Y-74397420D01*
X47196481Y-74623414D01*
X47404869Y-74812385D01*
X47646119Y-74957070D01*
X47910960Y-75051909D01*
X48133000Y-74930624D01*
X48133000Y-73787000D01*
X48387000Y-73787000D01*
X48387000Y-74930624D01*
X48609040Y-75051909D01*
X48873881Y-74957070D01*
X49115131Y-74812385D01*
X49323519Y-74623414D01*
X49491037Y-74397420D01*
X49611246Y-74143087D01*
X49651904Y-74009039D01*
X49529915Y-73787000D01*
X48387000Y-73787000D01*
X48133000Y-73787000D01*
X46990085Y-73787000D01*
X46868096Y-74009039D01*
X24257000Y-74009039D01*
X24257000Y-64701801D01*
X25635000Y-66079803D01*
X25635000Y-66141939D01*
X25674774Y-66341898D01*
X25752795Y-66530256D01*
X25866063Y-66699774D01*
X26010226Y-66843937D01*
X26179744Y-66957205D01*
X26368102Y-67035226D01*
X26568061Y-67075000D01*
X26771939Y-67075000D01*
X26784045Y-67072592D01*
X26786596Y-67098490D01*
X26805718Y-67194623D01*
X26842027Y-67314319D01*
X26879536Y-67404875D01*
X26938502Y-67515192D01*
X26992958Y-67596691D01*
X27032797Y-67645236D01*
X27037805Y-67696082D01*
X27088412Y-67862905D01*
X27170590Y-68016651D01*
X27253468Y-68117638D01*
X27253471Y-68117641D01*
X27281184Y-68151409D01*
X27314952Y-68179122D01*
X27675874Y-68540044D01*
X27703591Y-68573817D01*
X27838349Y-68684411D01*
X27992095Y-68766589D01*
X28158918Y-68817195D01*
X28288931Y-68830000D01*
X28288941Y-68830000D01*
X28332407Y-68834281D01*
X28375873Y-68830000D01*
X36726531Y-68830000D01*
X36770000Y-68834281D01*
X36813469Y-68830000D01*
X36813477Y-68830000D01*
X36943490Y-68817195D01*
X37110313Y-68766589D01*
X37264059Y-68684411D01*
X37398817Y-68573817D01*
X37426534Y-68540044D01*
X37913542Y-68053036D01*
X37990991Y-68060664D01*
X38015550Y-68060664D01*
X38040000Y-68063072D01*
X38590000Y-68063072D01*
X38680890Y-68054120D01*
X38705026Y-68099276D01*
X38776201Y-68186002D01*
X38800000Y-68215001D01*
X38828998Y-68238799D01*
X39046196Y-68455997D01*
X39069999Y-68485001D01*
X39185724Y-68579974D01*
X39317753Y-68650546D01*
X39461014Y-68694003D01*
X39572667Y-68705000D01*
X39572675Y-68705000D01*
X39610000Y-68708676D01*
X39647325Y-68705000D01*
X42507678Y-68705000D01*
X42545000Y-68708676D01*
X42582322Y-68705000D01*
X42582333Y-68705000D01*
X42693986Y-68694003D01*
X42837247Y-68650546D01*
X42969276Y-68579974D01*
X43085001Y-68485001D01*
X43108803Y-68455998D01*
X43691004Y-67873798D01*
X43720001Y-67850001D01*
X43814974Y-67734276D01*
X43815000Y-67734227D01*
X43815026Y-67734276D01*
X43838345Y-67762690D01*
X43909999Y-67850001D01*
X43939003Y-67873804D01*
X45156201Y-69091003D01*
X45179999Y-69120001D01*
X45295724Y-69214974D01*
X45427753Y-69285546D01*
X45571014Y-69329003D01*
X45682667Y-69340000D01*
X45682676Y-69340000D01*
X45719999Y-69343676D01*
X45757322Y-69340000D01*
X47039099Y-69340000D01*
X47061068Y-69381101D01*
X47240392Y-69599608D01*
X47458899Y-69778932D01*
X47591858Y-69850000D01*
X47458899Y-69921068D01*
X47240392Y-70100392D01*
X47061068Y-70318899D01*
X46927818Y-70568192D01*
X46845764Y-70838691D01*
X46818057Y-71120000D01*
X46845764Y-71401309D01*
X46927818Y-71671808D01*
X47061068Y-71921101D01*
X47240392Y-72139608D01*
X47458899Y-72318932D01*
X47596682Y-72392579D01*
X47404869Y-72507615D01*
X47196481Y-72696586D01*
X47028963Y-72922580D01*
X46908754Y-73176913D01*
X46868096Y-73310961D01*
X46990085Y-73533000D01*
X48133000Y-73533000D01*
X48133000Y-73513000D01*
X48387000Y-73513000D01*
X48387000Y-73533000D01*
X49529915Y-73533000D01*
X49651904Y-73310961D01*
X49611246Y-73176913D01*
X49491037Y-72922580D01*
X49323519Y-72696586D01*
X49115131Y-72507615D01*
X48923318Y-72392579D01*
X49061101Y-72318932D01*
X49279608Y-72139608D01*
X49458932Y-71921101D01*
X49480901Y-71880000D01*
X49492678Y-71880000D01*
X49530000Y-71883676D01*
X49567322Y-71880000D01*
X49567333Y-71880000D01*
X49678986Y-71869003D01*
X49822247Y-71825546D01*
X49954276Y-71754974D01*
X50070001Y-71660001D01*
X50093804Y-71630997D01*
X51311004Y-70413798D01*
X51340001Y-70390001D01*
X51434974Y-70274276D01*
X51505546Y-70142247D01*
X51549003Y-69998986D01*
X51560000Y-69887333D01*
X51560000Y-69887324D01*
X51563676Y-69850001D01*
X51560000Y-69812678D01*
X51560000Y-55880000D01*
X54438057Y-55880000D01*
X54465764Y-56161309D01*
X54547818Y-56431808D01*
X54681068Y-56681101D01*
X54860392Y-56899608D01*
X55078899Y-57078932D01*
X55211858Y-57150000D01*
X55078899Y-57221068D01*
X54860392Y-57400392D01*
X54681068Y-57618899D01*
X54547818Y-57868192D01*
X54465764Y-58138691D01*
X54438057Y-58420000D01*
X54465764Y-58701309D01*
X54547818Y-58971808D01*
X54681068Y-59221101D01*
X54860392Y-59439608D01*
X55078899Y-59618932D01*
X55211858Y-59690000D01*
X55078899Y-59761068D01*
X54860392Y-59940392D01*
X54681068Y-60158899D01*
X54547818Y-60408192D01*
X54465764Y-60678691D01*
X54438057Y-60960000D01*
X54465764Y-61241309D01*
X54547818Y-61511808D01*
X54681068Y-61761101D01*
X54860392Y-61979608D01*
X55078899Y-62158932D01*
X55211858Y-62230000D01*
X55078899Y-62301068D01*
X54860392Y-62480392D01*
X54681068Y-62698899D01*
X54547818Y-62948192D01*
X54465764Y-63218691D01*
X54438057Y-63500000D01*
X54465764Y-63781309D01*
X54547818Y-64051808D01*
X54681068Y-64301101D01*
X54860392Y-64519608D01*
X55078899Y-64698932D01*
X55211858Y-64770000D01*
X55078899Y-64841068D01*
X54860392Y-65020392D01*
X54681068Y-65238899D01*
X54547818Y-65488192D01*
X54465764Y-65758691D01*
X54438057Y-66040000D01*
X54465764Y-66321309D01*
X54547818Y-66591808D01*
X54681068Y-66841101D01*
X54860392Y-67059608D01*
X55078899Y-67238932D01*
X55211858Y-67310000D01*
X55078899Y-67381068D01*
X54860392Y-67560392D01*
X54681068Y-67778899D01*
X54547818Y-68028192D01*
X54465764Y-68298691D01*
X54438057Y-68580000D01*
X54465764Y-68861309D01*
X54547818Y-69131808D01*
X54681068Y-69381101D01*
X54860392Y-69599608D01*
X55078899Y-69778932D01*
X55211858Y-69850000D01*
X55078899Y-69921068D01*
X54860392Y-70100392D01*
X54681068Y-70318899D01*
X54547818Y-70568192D01*
X54465764Y-70838691D01*
X54438057Y-71120000D01*
X54465764Y-71401309D01*
X54547818Y-71671808D01*
X54681068Y-71921101D01*
X54860392Y-72139608D01*
X55078899Y-72318932D01*
X55211858Y-72390000D01*
X55078899Y-72461068D01*
X54860392Y-72640392D01*
X54681068Y-72858899D01*
X54547818Y-73108192D01*
X54465764Y-73378691D01*
X54438057Y-73660000D01*
X54465764Y-73941309D01*
X54547818Y-74211808D01*
X54681068Y-74461101D01*
X54860392Y-74679608D01*
X55078899Y-74858932D01*
X55328192Y-74992182D01*
X55598691Y-75074236D01*
X55809508Y-75095000D01*
X55950492Y-75095000D01*
X56161309Y-75074236D01*
X56431808Y-74992182D01*
X56681101Y-74858932D01*
X56899608Y-74679608D01*
X57078932Y-74461101D01*
X57212182Y-74211808D01*
X57294236Y-73941309D01*
X57321943Y-73660000D01*
X57294236Y-73378691D01*
X57212182Y-73108192D01*
X57078932Y-72858899D01*
X56899608Y-72640392D01*
X56681101Y-72461068D01*
X56548142Y-72390000D01*
X56681101Y-72318932D01*
X56899608Y-72139608D01*
X57078932Y-71921101D01*
X57212182Y-71671808D01*
X57294236Y-71401309D01*
X57321943Y-71120000D01*
X57294236Y-70838691D01*
X57212182Y-70568192D01*
X57078932Y-70318899D01*
X56899608Y-70100392D01*
X56681101Y-69921068D01*
X56548142Y-69850000D01*
X56681101Y-69778932D01*
X56899608Y-69599608D01*
X57078932Y-69381101D01*
X57212182Y-69131808D01*
X57294236Y-68861309D01*
X57321943Y-68580000D01*
X57294236Y-68298691D01*
X57212182Y-68028192D01*
X57078932Y-67778899D01*
X56899608Y-67560392D01*
X56681101Y-67381068D01*
X56548142Y-67310000D01*
X56681101Y-67238932D01*
X56899608Y-67059608D01*
X57078932Y-66841101D01*
X57212182Y-66591808D01*
X57294236Y-66321309D01*
X57321943Y-66040000D01*
X57294236Y-65758691D01*
X57212182Y-65488192D01*
X57078932Y-65238899D01*
X56899608Y-65020392D01*
X56681101Y-64841068D01*
X56548142Y-64770000D01*
X56681101Y-64698932D01*
X56899608Y-64519608D01*
X57078932Y-64301101D01*
X57212182Y-64051808D01*
X57294236Y-63781309D01*
X57321943Y-63500000D01*
X57294236Y-63218691D01*
X57212182Y-62948192D01*
X57078932Y-62698899D01*
X56899608Y-62480392D01*
X56681101Y-62301068D01*
X56548142Y-62230000D01*
X56681101Y-62158932D01*
X56899608Y-61979608D01*
X57078932Y-61761101D01*
X57212182Y-61511808D01*
X57294236Y-61241309D01*
X57321943Y-60960000D01*
X57294236Y-60678691D01*
X57212182Y-60408192D01*
X57078932Y-60158899D01*
X56899608Y-59940392D01*
X56681101Y-59761068D01*
X56548142Y-59690000D01*
X56681101Y-59618932D01*
X56899608Y-59439608D01*
X57078932Y-59221101D01*
X57212182Y-58971808D01*
X57294236Y-58701309D01*
X57321943Y-58420000D01*
X57294236Y-58138691D01*
X57212182Y-57868192D01*
X57078932Y-57618899D01*
X56899608Y-57400392D01*
X56681101Y-57221068D01*
X56548142Y-57150000D01*
X56681101Y-57078932D01*
X56899608Y-56899608D01*
X57078932Y-56681101D01*
X57212182Y-56431808D01*
X57294236Y-56161309D01*
X57321943Y-55880000D01*
X57294236Y-55598691D01*
X57212182Y-55328192D01*
X57078932Y-55078899D01*
X56899608Y-54860392D01*
X56681101Y-54681068D01*
X56431808Y-54547818D01*
X56161309Y-54465764D01*
X55950492Y-54445000D01*
X55809508Y-54445000D01*
X55598691Y-54465764D01*
X55328192Y-54547818D01*
X55078899Y-54681068D01*
X54860392Y-54860392D01*
X54681068Y-55078899D01*
X54547818Y-55328192D01*
X54465764Y-55598691D01*
X54438057Y-55880000D01*
X51560000Y-55880000D01*
X51560000Y-42474801D01*
X52776200Y-43691002D01*
X52799999Y-43720001D01*
X52915724Y-43814974D01*
X53047753Y-43885546D01*
X53191014Y-43929003D01*
X53302667Y-43940000D01*
X53302676Y-43940000D01*
X53339999Y-43943676D01*
X53377322Y-43940000D01*
X54441928Y-43940000D01*
X54441928Y-43980000D01*
X54454188Y-44104482D01*
X54490498Y-44224180D01*
X54549463Y-44334494D01*
X54628815Y-44431185D01*
X54725506Y-44510537D01*
X54835820Y-44569502D01*
X54955518Y-44605812D01*
X55080000Y-44618072D01*
X56680000Y-44618072D01*
X56804482Y-44605812D01*
X56924180Y-44569502D01*
X57034494Y-44510537D01*
X57131185Y-44431185D01*
X57210537Y-44334494D01*
X57269502Y-44224180D01*
X57305812Y-44104482D01*
X57318072Y-43980000D01*
X57318072Y-42380000D01*
X57305812Y-42255518D01*
X57269502Y-42135820D01*
X57210537Y-42025506D01*
X57131185Y-41928815D01*
X57034494Y-41849463D01*
X56924180Y-41790498D01*
X56804482Y-41754188D01*
X56786518Y-41752419D01*
X56899608Y-41659608D01*
X57078932Y-41441101D01*
X57212182Y-41191808D01*
X57294236Y-40921309D01*
X57321943Y-40640000D01*
X57294236Y-40358691D01*
X57212182Y-40088192D01*
X57078932Y-39838899D01*
X56899608Y-39620392D01*
X56681101Y-39441068D01*
X56548142Y-39370000D01*
X56681101Y-39298932D01*
X56899608Y-39119608D01*
X57078932Y-38901101D01*
X57212182Y-38651808D01*
X57294236Y-38381309D01*
X57321943Y-38100000D01*
X57294236Y-37818691D01*
X57212182Y-37548192D01*
X57078932Y-37298899D01*
X56899608Y-37080392D01*
X56681101Y-36901068D01*
X56548142Y-36830000D01*
X56681101Y-36758932D01*
X56899608Y-36579608D01*
X57078932Y-36361101D01*
X57212182Y-36111808D01*
X57294236Y-35841309D01*
X57321943Y-35560000D01*
X57294236Y-35278691D01*
X57212182Y-35008192D01*
X57078932Y-34758899D01*
X56899608Y-34540392D01*
X56681101Y-34361068D01*
X56548142Y-34290000D01*
X56681101Y-34218932D01*
X56899608Y-34039608D01*
X57078932Y-33821101D01*
X57212182Y-33571808D01*
X57294236Y-33301309D01*
X57321943Y-33020000D01*
X57294236Y-32738691D01*
X57212182Y-32468192D01*
X57078932Y-32218899D01*
X56899608Y-32000392D01*
X56681101Y-31821068D01*
X56548142Y-31750000D01*
X56681101Y-31678932D01*
X56899608Y-31499608D01*
X57078932Y-31281101D01*
X57212182Y-31031808D01*
X57294236Y-30761309D01*
X57321943Y-30480000D01*
X57294236Y-30198691D01*
X57212182Y-29928192D01*
X57078932Y-29678899D01*
X56899608Y-29460392D01*
X56681101Y-29281068D01*
X56548142Y-29210000D01*
X56681101Y-29138932D01*
X56899608Y-28959608D01*
X57078932Y-28741101D01*
X57212182Y-28491808D01*
X57294236Y-28221309D01*
X57321943Y-27940000D01*
X57294236Y-27658691D01*
X57212182Y-27388192D01*
X57078932Y-27138899D01*
X56899608Y-26920392D01*
X56681101Y-26741068D01*
X56543318Y-26667421D01*
X56735131Y-26552385D01*
X56943519Y-26363414D01*
X57111037Y-26137420D01*
X57231246Y-25883087D01*
X57271904Y-25749039D01*
X57149915Y-25527000D01*
X56007000Y-25527000D01*
X56007000Y-25547000D01*
X55753000Y-25547000D01*
X55753000Y-25527000D01*
X54610085Y-25527000D01*
X54488096Y-25749039D01*
X54528754Y-25883087D01*
X54648963Y-26137420D01*
X54816481Y-26363414D01*
X55024869Y-26552385D01*
X55216682Y-26667421D01*
X55078899Y-26741068D01*
X54860392Y-26920392D01*
X54681068Y-27138899D01*
X54547818Y-27388192D01*
X54465764Y-27658691D01*
X54438057Y-27940000D01*
X54465764Y-28221309D01*
X54547818Y-28491808D01*
X54681068Y-28741101D01*
X54860392Y-28959608D01*
X55078899Y-29138932D01*
X55211858Y-29210000D01*
X55078899Y-29281068D01*
X54860392Y-29460392D01*
X54772406Y-29567604D01*
X54100000Y-28895199D01*
X54100000Y-27373711D01*
X54143937Y-27329774D01*
X54257205Y-27160256D01*
X54335226Y-26971898D01*
X54375000Y-26771939D01*
X54375000Y-26568061D01*
X54335226Y-26368102D01*
X54257205Y-26179744D01*
X54143937Y-26010226D01*
X53999774Y-25866063D01*
X53830256Y-25752795D01*
X53641898Y-25674774D01*
X53441939Y-25635000D01*
X53238061Y-25635000D01*
X53038102Y-25674774D01*
X52849744Y-25752795D01*
X52830000Y-25765987D01*
X52830000Y-25050961D01*
X54488096Y-25050961D01*
X54610085Y-25273000D01*
X55753000Y-25273000D01*
X55753000Y-24129376D01*
X56007000Y-24129376D01*
X56007000Y-25273000D01*
X57149915Y-25273000D01*
X57271904Y-25050961D01*
X57231246Y-24916913D01*
X57111037Y-24662580D01*
X56943519Y-24436586D01*
X56735131Y-24247615D01*
X56493881Y-24102930D01*
X56229040Y-24008091D01*
X56007000Y-24129376D01*
X55753000Y-24129376D01*
X55530960Y-24008091D01*
X55266119Y-24102930D01*
X55024869Y-24247615D01*
X54816481Y-24436586D01*
X54648963Y-24662580D01*
X54528754Y-24916913D01*
X54488096Y-25050961D01*
X52830000Y-25050961D01*
X52830000Y-24833711D01*
X52873937Y-24789774D01*
X52987205Y-24620256D01*
X53065226Y-24431898D01*
X53105000Y-24231939D01*
X53105000Y-24028061D01*
X53065226Y-23828102D01*
X52987205Y-23639744D01*
X52873937Y-23470226D01*
X52729774Y-23326063D01*
X52560256Y-23212795D01*
X52371898Y-23134774D01*
X52171939Y-23095000D01*
X51968061Y-23095000D01*
X51768102Y-23134774D01*
X51579744Y-23212795D01*
X51410226Y-23326063D01*
X51266063Y-23470226D01*
X51152795Y-23639744D01*
X51074774Y-23828102D01*
X51035000Y-24028061D01*
X51035000Y-24231939D01*
X51074774Y-24431898D01*
X51152795Y-24620256D01*
X51266063Y-24789774D01*
X51310000Y-24833711D01*
X51310000Y-26105198D01*
X50093804Y-24889003D01*
X50070001Y-24859999D01*
X49954276Y-24765026D01*
X49822247Y-24694454D01*
X49678986Y-24650997D01*
X49567333Y-24640000D01*
X49567322Y-24640000D01*
X49530000Y-24636324D01*
X49492678Y-24640000D01*
X49480901Y-24640000D01*
X49458932Y-24598899D01*
X49279608Y-24380392D01*
X49061101Y-24201068D01*
X48811808Y-24067818D01*
X48541309Y-23985764D01*
X48330492Y-23965000D01*
X48189508Y-23965000D01*
X47978691Y-23985764D01*
X47708192Y-24067818D01*
X47486250Y-24186448D01*
X47390000Y-24090198D01*
X47390000Y-24028061D01*
X47350226Y-23828102D01*
X47272205Y-23639744D01*
X47158937Y-23470226D01*
X47014774Y-23326063D01*
X46845256Y-23212795D01*
X46656898Y-23134774D01*
X46456939Y-23095000D01*
X46253061Y-23095000D01*
X46053102Y-23134774D01*
X45864744Y-23212795D01*
X45695226Y-23326063D01*
X45551063Y-23470226D01*
X45437795Y-23639744D01*
X45359774Y-23828102D01*
X45320000Y-24028061D01*
X45320000Y-24231939D01*
X45359774Y-24431898D01*
X45437795Y-24620256D01*
X45534510Y-24765000D01*
X45437795Y-24909744D01*
X45359774Y-25098102D01*
X45320000Y-25298061D01*
X45320000Y-25501939D01*
X45359774Y-25701898D01*
X45437795Y-25890256D01*
X45551063Y-26059774D01*
X45595000Y-26103711D01*
X45595001Y-28537668D01*
X45591324Y-28575000D01*
X45595001Y-28612333D01*
X45602553Y-28689003D01*
X45605998Y-28723985D01*
X45649454Y-28867246D01*
X45720026Y-28999276D01*
X45774592Y-29065764D01*
X45815000Y-29115001D01*
X45843998Y-29138799D01*
X46859292Y-30154094D01*
X46845764Y-30198691D01*
X46818057Y-30480000D01*
X46845764Y-30761309D01*
X46927818Y-31031808D01*
X47061068Y-31281101D01*
X47240392Y-31499608D01*
X47458899Y-31678932D01*
X47591858Y-31750000D01*
X47458899Y-31821068D01*
X47240392Y-32000392D01*
X47061068Y-32218899D01*
X47045930Y-32247219D01*
X47014774Y-32216063D01*
X46845256Y-32102795D01*
X46656898Y-32024774D01*
X46456939Y-31985000D01*
X46253061Y-31985000D01*
X46053102Y-32024774D01*
X45864744Y-32102795D01*
X45695226Y-32216063D01*
X45551063Y-32360226D01*
X45437795Y-32529744D01*
X45359774Y-32718102D01*
X45320000Y-32918061D01*
X45320000Y-33121939D01*
X45359774Y-33321898D01*
X45437795Y-33510256D01*
X45551063Y-33679774D01*
X45595000Y-33723711D01*
X45595000Y-34360198D01*
X44580708Y-33345906D01*
X44594236Y-33301309D01*
X44621943Y-33020000D01*
X44594236Y-32738691D01*
X44512182Y-32468192D01*
X44378932Y-32218899D01*
X44199608Y-32000392D01*
X43981101Y-31821068D01*
X43848142Y-31750000D01*
X43981101Y-31678932D01*
X44199608Y-31499608D01*
X44378932Y-31281101D01*
X44512182Y-31031808D01*
X44594236Y-30761309D01*
X44621943Y-30480000D01*
X44594236Y-30198691D01*
X44512182Y-29928192D01*
X44378932Y-29678899D01*
X44199608Y-29460392D01*
X43981101Y-29281068D01*
X43848142Y-29210000D01*
X43981101Y-29138932D01*
X44199608Y-28959608D01*
X44378932Y-28741101D01*
X44512182Y-28491808D01*
X44594236Y-28221309D01*
X44621943Y-27940000D01*
X44594236Y-27658691D01*
X44512182Y-27388192D01*
X44378932Y-27138899D01*
X44199608Y-26920392D01*
X43981101Y-26741068D01*
X43843318Y-26667421D01*
X44035131Y-26552385D01*
X44243519Y-26363414D01*
X44411037Y-26137420D01*
X44531246Y-25883087D01*
X44571904Y-25749039D01*
X44449915Y-25527000D01*
X43307000Y-25527000D01*
X43307000Y-25547000D01*
X43053000Y-25547000D01*
X43053000Y-25527000D01*
X41910085Y-25527000D01*
X41788096Y-25749039D01*
X41828754Y-25883087D01*
X41948963Y-26137420D01*
X42116481Y-26363414D01*
X42324869Y-26552385D01*
X42516682Y-26667421D01*
X42378899Y-26741068D01*
X42160392Y-26920392D01*
X41981068Y-27138899D01*
X41847818Y-27388192D01*
X41765764Y-27658691D01*
X41738057Y-27940000D01*
X41765764Y-28221309D01*
X41847818Y-28491808D01*
X41981068Y-28741101D01*
X42160392Y-28959608D01*
X42378899Y-29138932D01*
X42511858Y-29210000D01*
X42378899Y-29281068D01*
X42160392Y-29460392D01*
X41981068Y-29678899D01*
X41847818Y-29928192D01*
X41765764Y-30198691D01*
X41738057Y-30480000D01*
X41765764Y-30761309D01*
X41847818Y-31031808D01*
X41981068Y-31281101D01*
X42160392Y-31499608D01*
X42378899Y-31678932D01*
X42511858Y-31750000D01*
X42378899Y-31821068D01*
X42160392Y-32000392D01*
X41981068Y-32218899D01*
X41847818Y-32468192D01*
X41765764Y-32738691D01*
X41738057Y-33020000D01*
X41765764Y-33301309D01*
X41847818Y-33571808D01*
X41981068Y-33821101D01*
X42160392Y-34039608D01*
X42378899Y-34218932D01*
X42511858Y-34290000D01*
X42378899Y-34361068D01*
X42160392Y-34540392D01*
X41981068Y-34758899D01*
X41847818Y-35008192D01*
X41765764Y-35278691D01*
X41738057Y-35560000D01*
X41765764Y-35841309D01*
X41847818Y-36111808D01*
X41981068Y-36361101D01*
X42160392Y-36579608D01*
X42378899Y-36758932D01*
X42511858Y-36830000D01*
X42378899Y-36901068D01*
X42160392Y-37080392D01*
X41981068Y-37298899D01*
X41847818Y-37548192D01*
X41765764Y-37818691D01*
X41738057Y-38100000D01*
X41765764Y-38381309D01*
X41847818Y-38651808D01*
X41981068Y-38901101D01*
X42160392Y-39119608D01*
X42378899Y-39298932D01*
X42511858Y-39370000D01*
X42378899Y-39441068D01*
X42160392Y-39620392D01*
X41981068Y-39838899D01*
X41847818Y-40088192D01*
X41765764Y-40358691D01*
X41738057Y-40640000D01*
X41765764Y-40921309D01*
X41847818Y-41191808D01*
X41981068Y-41441101D01*
X42160392Y-41659608D01*
X42378899Y-41838932D01*
X42511858Y-41910000D01*
X42378899Y-41981068D01*
X42160392Y-42160392D01*
X41981068Y-42378899D01*
X41847818Y-42628192D01*
X41765764Y-42898691D01*
X41738057Y-43180000D01*
X41765764Y-43461309D01*
X41847818Y-43731808D01*
X41981068Y-43981101D01*
X42160392Y-44199608D01*
X42378899Y-44378932D01*
X42511858Y-44450000D01*
X42378899Y-44521068D01*
X42160392Y-44700392D01*
X41981068Y-44918899D01*
X41847818Y-45168192D01*
X41765764Y-45438691D01*
X41738057Y-45720000D01*
X41765764Y-46001309D01*
X41847818Y-46271808D01*
X41981068Y-46521101D01*
X42160392Y-46739608D01*
X42378899Y-46918932D01*
X42511858Y-46990000D01*
X42378899Y-47061068D01*
X42160392Y-47240392D01*
X41981068Y-47458899D01*
X41847818Y-47708192D01*
X41765764Y-47978691D01*
X41738057Y-48260000D01*
X41765764Y-48541309D01*
X41847818Y-48811808D01*
X41981068Y-49061101D01*
X42160392Y-49279608D01*
X42378899Y-49458932D01*
X42511858Y-49530000D01*
X42378899Y-49601068D01*
X42160392Y-49780392D01*
X41981068Y-49998899D01*
X41847818Y-50248192D01*
X41765764Y-50518691D01*
X41738057Y-50800000D01*
X41765764Y-51081309D01*
X41847818Y-51351808D01*
X41981068Y-51601101D01*
X42160392Y-51819608D01*
X42378899Y-51998932D01*
X42511858Y-52070000D01*
X42378899Y-52141068D01*
X42160392Y-52320392D01*
X41981068Y-52538899D01*
X41847818Y-52788192D01*
X41765764Y-53058691D01*
X41738057Y-53340000D01*
X41765764Y-53621309D01*
X41847818Y-53891808D01*
X41981068Y-54141101D01*
X42160392Y-54359608D01*
X42378899Y-54538932D01*
X42511858Y-54610000D01*
X42378899Y-54681068D01*
X42160392Y-54860392D01*
X41981068Y-55078899D01*
X41847818Y-55328192D01*
X41765764Y-55598691D01*
X41738057Y-55880000D01*
X41765764Y-56161309D01*
X41847818Y-56431808D01*
X41981068Y-56681101D01*
X42160392Y-56899608D01*
X42378899Y-57078932D01*
X42511858Y-57150000D01*
X42378899Y-57221068D01*
X42160392Y-57400392D01*
X42072406Y-57507604D01*
X41400000Y-56835199D01*
X41400000Y-33723711D01*
X41443937Y-33679774D01*
X41557205Y-33510256D01*
X41635226Y-33321898D01*
X41675000Y-33121939D01*
X41675000Y-32918061D01*
X41635226Y-32718102D01*
X41557205Y-32529744D01*
X41443937Y-32360226D01*
X41299774Y-32216063D01*
X41130256Y-32102795D01*
X40941898Y-32024774D01*
X40741939Y-31985000D01*
X40538061Y-31985000D01*
X40338102Y-32024774D01*
X40149744Y-32102795D01*
X40130000Y-32115987D01*
X40130000Y-28643711D01*
X40173937Y-28599774D01*
X40287205Y-28430256D01*
X40365226Y-28241898D01*
X40405000Y-28041939D01*
X40405000Y-27838061D01*
X40365226Y-27638102D01*
X40287205Y-27449744D01*
X40173937Y-27280226D01*
X40029774Y-27136063D01*
X39860256Y-27022795D01*
X39671898Y-26944774D01*
X39471939Y-26905000D01*
X39268061Y-26905000D01*
X39068102Y-26944774D01*
X38879744Y-27022795D01*
X38735000Y-27119510D01*
X38590256Y-27022795D01*
X38401898Y-26944774D01*
X38201939Y-26905000D01*
X37998061Y-26905000D01*
X37798102Y-26944774D01*
X37609744Y-27022795D01*
X37440226Y-27136063D01*
X37296063Y-27280226D01*
X37182795Y-27449744D01*
X37104774Y-27638102D01*
X37065000Y-27838061D01*
X37065000Y-28041939D01*
X37104774Y-28241898D01*
X37182795Y-28430256D01*
X37296063Y-28599774D01*
X37340000Y-28643711D01*
X37340001Y-34856288D01*
X37296063Y-34900226D01*
X37182795Y-35069744D01*
X37104774Y-35258102D01*
X37065000Y-35458061D01*
X37065000Y-35661939D01*
X37104774Y-35861898D01*
X37182795Y-36050256D01*
X37296063Y-36219774D01*
X37440226Y-36363937D01*
X37609744Y-36477205D01*
X37798102Y-36555226D01*
X37998061Y-36595000D01*
X38201939Y-36595000D01*
X38401898Y-36555226D01*
X38590256Y-36477205D01*
X38610000Y-36464012D01*
X38610000Y-37195988D01*
X38590256Y-37182795D01*
X38401898Y-37104774D01*
X38201939Y-37065000D01*
X37998061Y-37065000D01*
X37798102Y-37104774D01*
X37609744Y-37182795D01*
X37440226Y-37296063D01*
X37296063Y-37440226D01*
X37182795Y-37609744D01*
X37104774Y-37798102D01*
X37065000Y-37998061D01*
X37065000Y-38201939D01*
X37104774Y-38401898D01*
X37182795Y-38590256D01*
X37296063Y-38759774D01*
X37340001Y-38803712D01*
X37340000Y-59652678D01*
X37336324Y-59690000D01*
X37340000Y-59727322D01*
X37340000Y-59727332D01*
X37350997Y-59838985D01*
X37381758Y-59940392D01*
X37394454Y-59982246D01*
X37465026Y-60114276D01*
X37501648Y-60158899D01*
X37559999Y-60230001D01*
X37589003Y-60253804D01*
X39880001Y-62544804D01*
X39880000Y-65290868D01*
X39840000Y-65286928D01*
X38840000Y-65286928D01*
X38715518Y-65299188D01*
X38715000Y-65299345D01*
X38714482Y-65299188D01*
X38590000Y-65286928D01*
X38040000Y-65286928D01*
X38015550Y-65289336D01*
X37990991Y-65289336D01*
X37866510Y-65301596D01*
X37770377Y-65320718D01*
X37650681Y-65357027D01*
X37560125Y-65394536D01*
X37449808Y-65453502D01*
X37368309Y-65507958D01*
X37271618Y-65587310D01*
X37202310Y-65656618D01*
X37122958Y-65753309D01*
X37068502Y-65834808D01*
X37009536Y-65945125D01*
X36972027Y-66035681D01*
X36935718Y-66155377D01*
X36916596Y-66251510D01*
X36904336Y-66375991D01*
X36904336Y-66400550D01*
X36901928Y-66425000D01*
X36901928Y-66561493D01*
X36403422Y-67060000D01*
X31637195Y-67060000D01*
X31645664Y-66974009D01*
X31645664Y-66949450D01*
X31648072Y-66925000D01*
X31648072Y-66425000D01*
X31645664Y-66400550D01*
X31645664Y-66375991D01*
X31633404Y-66251510D01*
X31614282Y-66155377D01*
X31577973Y-66035681D01*
X31540464Y-65945125D01*
X31481498Y-65834808D01*
X31427042Y-65753309D01*
X31347690Y-65656618D01*
X31278382Y-65587310D01*
X31240000Y-65555811D01*
X31240000Y-59123711D01*
X31283937Y-59079774D01*
X31397205Y-58910256D01*
X31475226Y-58721898D01*
X31515000Y-58521939D01*
X31515000Y-58318061D01*
X31475226Y-58118102D01*
X31397205Y-57929744D01*
X31283937Y-57760226D01*
X31139774Y-57616063D01*
X31109181Y-57595621D01*
X31768800Y-56936003D01*
X31768809Y-56935992D01*
X32261003Y-56443798D01*
X32290001Y-56420001D01*
X32343794Y-56354454D01*
X32384974Y-56304277D01*
X32455546Y-56172247D01*
X32477624Y-56099463D01*
X32499003Y-56028986D01*
X32510000Y-55917333D01*
X32510000Y-55917323D01*
X32513676Y-55880000D01*
X32510000Y-55842677D01*
X32510000Y-25050961D01*
X41788096Y-25050961D01*
X41910085Y-25273000D01*
X43053000Y-25273000D01*
X43053000Y-24129376D01*
X43307000Y-24129376D01*
X43307000Y-25273000D01*
X44449915Y-25273000D01*
X44571904Y-25050961D01*
X44531246Y-24916913D01*
X44411037Y-24662580D01*
X44243519Y-24436586D01*
X44035131Y-24247615D01*
X43793881Y-24102930D01*
X43529040Y-24008091D01*
X43307000Y-24129376D01*
X43053000Y-24129376D01*
X42830960Y-24008091D01*
X42566119Y-24102930D01*
X42324869Y-24247615D01*
X42116481Y-24436586D01*
X41948963Y-24662580D01*
X41828754Y-24916913D01*
X41788096Y-25050961D01*
X32510000Y-25050961D01*
X32510000Y-24833711D01*
X32553937Y-24789774D01*
X32667205Y-24620256D01*
X32745226Y-24431898D01*
X32785000Y-24231939D01*
X32785000Y-24028061D01*
X32745226Y-23828102D01*
X32667205Y-23639744D01*
X32553937Y-23470226D01*
X32409774Y-23326063D01*
X32240256Y-23212795D01*
X32051898Y-23134774D01*
X31851939Y-23095000D01*
X31648061Y-23095000D01*
X31448102Y-23134774D01*
X31259744Y-23212795D01*
X31090226Y-23326063D01*
X30946063Y-23470226D01*
X30832795Y-23639744D01*
X30754774Y-23828102D01*
X30715000Y-24028061D01*
X30715000Y-24231939D01*
X30754774Y-24431898D01*
X30832795Y-24620256D01*
X30946063Y-24789774D01*
X30990001Y-24833712D01*
X30990001Y-39735988D01*
X30970256Y-39722795D01*
X30781898Y-39644774D01*
X30581939Y-39605000D01*
X30378061Y-39605000D01*
X30178102Y-39644774D01*
X29989744Y-39722795D01*
X29820226Y-39836063D01*
X29676063Y-39980226D01*
X29562795Y-40149744D01*
X29484774Y-40338102D01*
X29445000Y-40538061D01*
X29445000Y-40741939D01*
X29484774Y-40941898D01*
X29562795Y-41130256D01*
X29676063Y-41299774D01*
X29720001Y-41343712D01*
X29720000Y-53025198D01*
X29379402Y-53365796D01*
X29381943Y-53340000D01*
X29354236Y-53058691D01*
X29272182Y-52788192D01*
X29138932Y-52538899D01*
X28959608Y-52320392D01*
X28741101Y-52141068D01*
X28608142Y-52070000D01*
X28741101Y-51998932D01*
X28959608Y-51819608D01*
X29138932Y-51601101D01*
X29272182Y-51351808D01*
X29354236Y-51081309D01*
X29381943Y-50800000D01*
X29354236Y-50518691D01*
X29272182Y-50248192D01*
X29138932Y-49998899D01*
X28959608Y-49780392D01*
X28741101Y-49601068D01*
X28608142Y-49530000D01*
X28741101Y-49458932D01*
X28959608Y-49279608D01*
X29138932Y-49061101D01*
X29272182Y-48811808D01*
X29354236Y-48541309D01*
X29381943Y-48260000D01*
X29354236Y-47978691D01*
X29272182Y-47708192D01*
X29138932Y-47458899D01*
X28959608Y-47240392D01*
X28741101Y-47061068D01*
X28608142Y-46990000D01*
X28741101Y-46918932D01*
X28959608Y-46739608D01*
X29138932Y-46521101D01*
X29272182Y-46271808D01*
X29354236Y-46001309D01*
X29381943Y-45720000D01*
X29354236Y-45438691D01*
X29272182Y-45168192D01*
X29138932Y-44918899D01*
X28959608Y-44700392D01*
X28741101Y-44521068D01*
X28608142Y-44450000D01*
X28741101Y-44378932D01*
X28959608Y-44199608D01*
X29138932Y-43981101D01*
X29272182Y-43731808D01*
X29354236Y-43461309D01*
X29381943Y-43180000D01*
X29354236Y-42898691D01*
X29272182Y-42628192D01*
X29138932Y-42378899D01*
X28959608Y-42160392D01*
X28741101Y-41981068D01*
X28608142Y-41910000D01*
X28741101Y-41838932D01*
X28959608Y-41659608D01*
X29138932Y-41441101D01*
X29272182Y-41191808D01*
X29354236Y-40921309D01*
X29381943Y-40640000D01*
X29354236Y-40358691D01*
X29272182Y-40088192D01*
X29138932Y-39838899D01*
X28959608Y-39620392D01*
X28741101Y-39441068D01*
X28608142Y-39370000D01*
X28741101Y-39298932D01*
X28959608Y-39119608D01*
X29138932Y-38901101D01*
X29272182Y-38651808D01*
X29354236Y-38381309D01*
X29381943Y-38100000D01*
X29354236Y-37818691D01*
X29272182Y-37548192D01*
X29138932Y-37298899D01*
X28959608Y-37080392D01*
X28741101Y-36901068D01*
X28608142Y-36830000D01*
X28741101Y-36758932D01*
X28959608Y-36579608D01*
X29138932Y-36361101D01*
X29272182Y-36111808D01*
X29354236Y-35841309D01*
X29381943Y-35560000D01*
X29354236Y-35278691D01*
X29272182Y-35008192D01*
X29138932Y-34758899D01*
X28959608Y-34540392D01*
X28741101Y-34361068D01*
X28608142Y-34290000D01*
X28741101Y-34218932D01*
X28959608Y-34039608D01*
X29138932Y-33821101D01*
X29272182Y-33571808D01*
X29354236Y-33301309D01*
X29381943Y-33020000D01*
X29354236Y-32738691D01*
X29272182Y-32468192D01*
X29138932Y-32218899D01*
X28959608Y-32000392D01*
X28741101Y-31821068D01*
X28608142Y-31750000D01*
X28741101Y-31678932D01*
X28959608Y-31499608D01*
X29138932Y-31281101D01*
X29272182Y-31031808D01*
X29354236Y-30761309D01*
X29381943Y-30480000D01*
X29354236Y-30198691D01*
X29272182Y-29928192D01*
X29138932Y-29678899D01*
X28959608Y-29460392D01*
X28741101Y-29281068D01*
X28608142Y-29210000D01*
X28741101Y-29138932D01*
X28959608Y-28959608D01*
X29138932Y-28741101D01*
X29272182Y-28491808D01*
X29354236Y-28221309D01*
X29381943Y-27940000D01*
X29354236Y-27658691D01*
X29272182Y-27388192D01*
X29138932Y-27138899D01*
X28959608Y-26920392D01*
X28741101Y-26741068D01*
X28608142Y-26670000D01*
X28741101Y-26598932D01*
X28959608Y-26419608D01*
X29138932Y-26201101D01*
X29272182Y-25951808D01*
X29354236Y-25681309D01*
X29381943Y-25400000D01*
X29354236Y-25118691D01*
X29272182Y-24848192D01*
X29138932Y-24598899D01*
X28959608Y-24380392D01*
X28741101Y-24201068D01*
X28491808Y-24067818D01*
X28221309Y-23985764D01*
X28010492Y-23965000D01*
X27869508Y-23965000D01*
X27658691Y-23985764D01*
X27388192Y-24067818D01*
X27138899Y-24201068D01*
X26920392Y-24380392D01*
X26741068Y-24598899D01*
X26719099Y-24640000D01*
X24257000Y-24640000D01*
X24257000Y-23620000D01*
X27236289Y-23620000D01*
X27280226Y-23663937D01*
X27449744Y-23777205D01*
X27638102Y-23855226D01*
X27838061Y-23895000D01*
X28041939Y-23895000D01*
X28241898Y-23855226D01*
X28430256Y-23777205D01*
X28599774Y-23663937D01*
X28743937Y-23519774D01*
X28857205Y-23350256D01*
X28935226Y-23161898D01*
X28975000Y-22961939D01*
X28975000Y-22758061D01*
X28935226Y-22558102D01*
X28857205Y-22369744D01*
X28743937Y-22200226D01*
X28599774Y-22056063D01*
X28430256Y-21942795D01*
X28241898Y-21864774D01*
X28041939Y-21825000D01*
X27838061Y-21825000D01*
X27638102Y-21864774D01*
X27449744Y-21942795D01*
X27280226Y-22056063D01*
X27236289Y-22100000D01*
X24257000Y-22100000D01*
X24257000Y-20980000D01*
X30512419Y-20980000D01*
X30540865Y-20977198D01*
X30548682Y-20977253D01*
X30557853Y-20976354D01*
X30804357Y-20950446D01*
X30862986Y-20938411D01*
X30921716Y-20927208D01*
X30930532Y-20924546D01*
X30930536Y-20924545D01*
X30930539Y-20924544D01*
X31167314Y-20851249D01*
X31222457Y-20828069D01*
X31277920Y-20805661D01*
X31286054Y-20801335D01*
X31286059Y-20801333D01*
X31286064Y-20801330D01*
X31504086Y-20683447D01*
X31553654Y-20650012D01*
X31603735Y-20617241D01*
X31610876Y-20611416D01*
X31801856Y-20453423D01*
X31843995Y-20410988D01*
X31886745Y-20369125D01*
X31892618Y-20362024D01*
X32049273Y-20169947D01*
X32082374Y-20120125D01*
X32116173Y-20070763D01*
X32120556Y-20062657D01*
X32236919Y-19843809D01*
X32259707Y-19788521D01*
X32283279Y-19733525D01*
X32286003Y-19724722D01*
X32357643Y-19487441D01*
X32369264Y-19428754D01*
X32381700Y-19370248D01*
X32382663Y-19361083D01*
X32406850Y-19114405D01*
X32424722Y-18932131D01*
X32458953Y-18818754D01*
X32514555Y-18714181D01*
X32589407Y-18622404D01*
X32680664Y-18546909D01*
X32784844Y-18490581D01*
X32897976Y-18455560D01*
X33046022Y-18440000D01*
X62197721Y-18440000D01*
X62347869Y-18454722D01*
X62347869Y-18454722D01*
G37*
X62347869Y-18454722D02*
X62461246Y-18488953D01*
X62565819Y-18544555D01*
X62657596Y-18619407D01*
X62733091Y-18710664D01*
X62789419Y-18814844D01*
X62824440Y-18927976D01*
X62840000Y-19076022D01*
X62840000Y-48864385D01*
X62798421Y-48535247D01*
X62521819Y-47703752D01*
X62088981Y-46941819D01*
X61516392Y-46278468D01*
X60825862Y-45738968D01*
X60043694Y-45343866D01*
X59199680Y-45108213D01*
X58325969Y-45040985D01*
X57455838Y-45144741D01*
X56622433Y-45415531D01*
X55857496Y-45843040D01*
X55190164Y-46410984D01*
X54645856Y-47097730D01*
X54245304Y-47877121D01*
X54003764Y-48719469D01*
X53930438Y-49592690D01*
X54028117Y-50463523D01*
X54293082Y-51298799D01*
X54715240Y-52066702D01*
X55278512Y-52737982D01*
X55961441Y-53287072D01*
X56738016Y-53693056D01*
X57578658Y-53940470D01*
X58451346Y-54019891D01*
X59322840Y-53928293D01*
X60159945Y-53669166D01*
X60930776Y-53252379D01*
X61605973Y-52693808D01*
X62159816Y-52014728D01*
X62571212Y-51241006D01*
X62824489Y-50402112D01*
X62840001Y-50243913D01*
X62840001Y-79977711D01*
X62825278Y-80127869D01*
X62791047Y-80241246D01*
X62735446Y-80345817D01*
X62660594Y-80437595D01*
X62569335Y-80513091D01*
X62465160Y-80569419D01*
X62352024Y-80604440D01*
X62203979Y-80620000D01*
X33052279Y-80620000D01*
X32902131Y-80605278D01*
X32788754Y-80571047D01*
X32684183Y-80515446D01*
X32592405Y-80440594D01*
X32516909Y-80349335D01*
X32460581Y-80245160D01*
X32425560Y-80132024D01*
X32407145Y-79956813D01*
X32407253Y-79941318D01*
X32406354Y-79932147D01*
X32380446Y-79685644D01*
X32368414Y-79627028D01*
X32357208Y-79568284D01*
X32354544Y-79559462D01*
X32281249Y-79322686D01*
X32258074Y-79267555D01*
X32235661Y-79212080D01*
X32231334Y-79203944D01*
X32113446Y-78985914D01*
X32080012Y-78936346D01*
X32047240Y-78886265D01*
X32041416Y-78879124D01*
X31883423Y-78688144D01*
X31840988Y-78646005D01*
X31799125Y-78603255D01*
X31792024Y-78597381D01*
X31599946Y-78440727D01*
X31550169Y-78407655D01*
X31500763Y-78373826D01*
X31492657Y-78369444D01*
X31273809Y-78253081D01*
X31218532Y-78230298D01*
X31163525Y-78206721D01*
X31154722Y-78203997D01*
X30917441Y-78132357D01*
X30858754Y-78120736D01*
X30800248Y-78108300D01*
X30791085Y-78107337D01*
X30791083Y-78107337D01*
X30544405Y-78083150D01*
X30544402Y-78083150D01*
X30512419Y-78080000D01*
X24257000Y-78080000D01*
X24257000Y-74009039D01*
X46868096Y-74009039D01*
X46908754Y-74143087D01*
X47028963Y-74397420D01*
X47196481Y-74623414D01*
X47404869Y-74812385D01*
X47646119Y-74957070D01*
X47910960Y-75051909D01*
X48133000Y-74930624D01*
X48133000Y-73787000D01*
X48387000Y-73787000D01*
X48387000Y-74930624D01*
X48609040Y-75051909D01*
X48873881Y-74957070D01*
X49115131Y-74812385D01*
X49323519Y-74623414D01*
X49491037Y-74397420D01*
X49611246Y-74143087D01*
X49651904Y-74009039D01*
X49529915Y-73787000D01*
X48387000Y-73787000D01*
X48133000Y-73787000D01*
X46990085Y-73787000D01*
X46868096Y-74009039D01*
X24257000Y-74009039D01*
X24257000Y-64701801D01*
X25635000Y-66079803D01*
X25635000Y-66141939D01*
X25674774Y-66341898D01*
X25752795Y-66530256D01*
X25866063Y-66699774D01*
X26010226Y-66843937D01*
X26179744Y-66957205D01*
X26368102Y-67035226D01*
X26568061Y-67075000D01*
X26771939Y-67075000D01*
X26784045Y-67072592D01*
X26786596Y-67098490D01*
X26805718Y-67194623D01*
X26842027Y-67314319D01*
X26879536Y-67404875D01*
X26938502Y-67515192D01*
X26992958Y-67596691D01*
X27032797Y-67645236D01*
X27037805Y-67696082D01*
X27088412Y-67862905D01*
X27170590Y-68016651D01*
X27253468Y-68117638D01*
X27253471Y-68117641D01*
X27281184Y-68151409D01*
X27314952Y-68179122D01*
X27675874Y-68540044D01*
X27703591Y-68573817D01*
X27838349Y-68684411D01*
X27992095Y-68766589D01*
X28158918Y-68817195D01*
X28288931Y-68830000D01*
X28288941Y-68830000D01*
X28332407Y-68834281D01*
X28375873Y-68830000D01*
X36726531Y-68830000D01*
X36770000Y-68834281D01*
X36813469Y-68830000D01*
X36813477Y-68830000D01*
X36943490Y-68817195D01*
X37110313Y-68766589D01*
X37264059Y-68684411D01*
X37398817Y-68573817D01*
X37426534Y-68540044D01*
X37913542Y-68053036D01*
X37990991Y-68060664D01*
X38015550Y-68060664D01*
X38040000Y-68063072D01*
X38590000Y-68063072D01*
X38680890Y-68054120D01*
X38705026Y-68099276D01*
X38776201Y-68186002D01*
X38800000Y-68215001D01*
X38828998Y-68238799D01*
X39046196Y-68455997D01*
X39069999Y-68485001D01*
X39185724Y-68579974D01*
X39317753Y-68650546D01*
X39461014Y-68694003D01*
X39572667Y-68705000D01*
X39572675Y-68705000D01*
X39610000Y-68708676D01*
X39647325Y-68705000D01*
X42507678Y-68705000D01*
X42545000Y-68708676D01*
X42582322Y-68705000D01*
X42582333Y-68705000D01*
X42693986Y-68694003D01*
X42837247Y-68650546D01*
X42969276Y-68579974D01*
X43085001Y-68485001D01*
X43108803Y-68455998D01*
X43691004Y-67873798D01*
X43720001Y-67850001D01*
X43814974Y-67734276D01*
X43815000Y-67734227D01*
X43815026Y-67734276D01*
X43838345Y-67762690D01*
X43909999Y-67850001D01*
X43939003Y-67873804D01*
X45156201Y-69091003D01*
X45179999Y-69120001D01*
X45295724Y-69214974D01*
X45427753Y-69285546D01*
X45571014Y-69329003D01*
X45682667Y-69340000D01*
X45682676Y-69340000D01*
X45719999Y-69343676D01*
X45757322Y-69340000D01*
X47039099Y-69340000D01*
X47061068Y-69381101D01*
X47240392Y-69599608D01*
X47458899Y-69778932D01*
X47591858Y-69850000D01*
X47458899Y-69921068D01*
X47240392Y-70100392D01*
X47061068Y-70318899D01*
X46927818Y-70568192D01*
X46845764Y-70838691D01*
X46818057Y-71120000D01*
X46845764Y-71401309D01*
X46927818Y-71671808D01*
X47061068Y-71921101D01*
X47240392Y-72139608D01*
X47458899Y-72318932D01*
X47596682Y-72392579D01*
X47404869Y-72507615D01*
X47196481Y-72696586D01*
X47028963Y-72922580D01*
X46908754Y-73176913D01*
X46868096Y-73310961D01*
X46990085Y-73533000D01*
X48133000Y-73533000D01*
X48133000Y-73513000D01*
X48387000Y-73513000D01*
X48387000Y-73533000D01*
X49529915Y-73533000D01*
X49651904Y-73310961D01*
X49611246Y-73176913D01*
X49491037Y-72922580D01*
X49323519Y-72696586D01*
X49115131Y-72507615D01*
X48923318Y-72392579D01*
X49061101Y-72318932D01*
X49279608Y-72139608D01*
X49458932Y-71921101D01*
X49480901Y-71880000D01*
X49492678Y-71880000D01*
X49530000Y-71883676D01*
X49567322Y-71880000D01*
X49567333Y-71880000D01*
X49678986Y-71869003D01*
X49822247Y-71825546D01*
X49954276Y-71754974D01*
X50070001Y-71660001D01*
X50093804Y-71630997D01*
X51311004Y-70413798D01*
X51340001Y-70390001D01*
X51434974Y-70274276D01*
X51505546Y-70142247D01*
X51549003Y-69998986D01*
X51560000Y-69887333D01*
X51560000Y-69887324D01*
X51563676Y-69850001D01*
X51560000Y-69812678D01*
X51560000Y-55880000D01*
X54438057Y-55880000D01*
X54465764Y-56161309D01*
X54547818Y-56431808D01*
X54681068Y-56681101D01*
X54860392Y-56899608D01*
X55078899Y-57078932D01*
X55211858Y-57150000D01*
X55078899Y-57221068D01*
X54860392Y-57400392D01*
X54681068Y-57618899D01*
X54547818Y-57868192D01*
X54465764Y-58138691D01*
X54438057Y-58420000D01*
X54465764Y-58701309D01*
X54547818Y-58971808D01*
X54681068Y-59221101D01*
X54860392Y-59439608D01*
X55078899Y-59618932D01*
X55211858Y-59690000D01*
X55078899Y-59761068D01*
X54860392Y-59940392D01*
X54681068Y-60158899D01*
X54547818Y-60408192D01*
X54465764Y-60678691D01*
X54438057Y-60960000D01*
X54465764Y-61241309D01*
X54547818Y-61511808D01*
X54681068Y-61761101D01*
X54860392Y-61979608D01*
X55078899Y-62158932D01*
X55211858Y-62230000D01*
X55078899Y-62301068D01*
X54860392Y-62480392D01*
X54681068Y-62698899D01*
X54547818Y-62948192D01*
X54465764Y-63218691D01*
X54438057Y-63500000D01*
X54465764Y-63781309D01*
X54547818Y-64051808D01*
X54681068Y-64301101D01*
X54860392Y-64519608D01*
X55078899Y-64698932D01*
X55211858Y-64770000D01*
X55078899Y-64841068D01*
X54860392Y-65020392D01*
X54681068Y-65238899D01*
X54547818Y-65488192D01*
X54465764Y-65758691D01*
X54438057Y-66040000D01*
X54465764Y-66321309D01*
X54547818Y-66591808D01*
X54681068Y-66841101D01*
X54860392Y-67059608D01*
X55078899Y-67238932D01*
X55211858Y-67310000D01*
X55078899Y-67381068D01*
X54860392Y-67560392D01*
X54681068Y-67778899D01*
X54547818Y-68028192D01*
X54465764Y-68298691D01*
X54438057Y-68580000D01*
X54465764Y-68861309D01*
X54547818Y-69131808D01*
X54681068Y-69381101D01*
X54860392Y-69599608D01*
X55078899Y-69778932D01*
X55211858Y-69850000D01*
X55078899Y-69921068D01*
X54860392Y-70100392D01*
X54681068Y-70318899D01*
X54547818Y-70568192D01*
X54465764Y-70838691D01*
X54438057Y-71120000D01*
X54465764Y-71401309D01*
X54547818Y-71671808D01*
X54681068Y-71921101D01*
X54860392Y-72139608D01*
X55078899Y-72318932D01*
X55211858Y-72390000D01*
X55078899Y-72461068D01*
X54860392Y-72640392D01*
X54681068Y-72858899D01*
X54547818Y-73108192D01*
X54465764Y-73378691D01*
X54438057Y-73660000D01*
X54465764Y-73941309D01*
X54547818Y-74211808D01*
X54681068Y-74461101D01*
X54860392Y-74679608D01*
X55078899Y-74858932D01*
X55328192Y-74992182D01*
X55598691Y-75074236D01*
X55809508Y-75095000D01*
X55950492Y-75095000D01*
X56161309Y-75074236D01*
X56431808Y-74992182D01*
X56681101Y-74858932D01*
X56899608Y-74679608D01*
X57078932Y-74461101D01*
X57212182Y-74211808D01*
X57294236Y-73941309D01*
X57321943Y-73660000D01*
X57294236Y-73378691D01*
X57212182Y-73108192D01*
X57078932Y-72858899D01*
X56899608Y-72640392D01*
X56681101Y-72461068D01*
X56548142Y-72390000D01*
X56681101Y-72318932D01*
X56899608Y-72139608D01*
X57078932Y-71921101D01*
X57212182Y-71671808D01*
X57294236Y-71401309D01*
X57321943Y-71120000D01*
X57294236Y-70838691D01*
X57212182Y-70568192D01*
X57078932Y-70318899D01*
X56899608Y-70100392D01*
X56681101Y-69921068D01*
X56548142Y-69850000D01*
X56681101Y-69778932D01*
X56899608Y-69599608D01*
X57078932Y-69381101D01*
X57212182Y-69131808D01*
X57294236Y-68861309D01*
X57321943Y-68580000D01*
X57294236Y-68298691D01*
X57212182Y-68028192D01*
X57078932Y-67778899D01*
X56899608Y-67560392D01*
X56681101Y-67381068D01*
X56548142Y-67310000D01*
X56681101Y-67238932D01*
X56899608Y-67059608D01*
X57078932Y-66841101D01*
X57212182Y-66591808D01*
X57294236Y-66321309D01*
X57321943Y-66040000D01*
X57294236Y-65758691D01*
X57212182Y-65488192D01*
X57078932Y-65238899D01*
X56899608Y-65020392D01*
X56681101Y-64841068D01*
X56548142Y-64770000D01*
X56681101Y-64698932D01*
X56899608Y-64519608D01*
X57078932Y-64301101D01*
X57212182Y-64051808D01*
X57294236Y-63781309D01*
X57321943Y-63500000D01*
X57294236Y-63218691D01*
X57212182Y-62948192D01*
X57078932Y-62698899D01*
X56899608Y-62480392D01*
X56681101Y-62301068D01*
X56548142Y-62230000D01*
X56681101Y-62158932D01*
X56899608Y-61979608D01*
X57078932Y-61761101D01*
X57212182Y-61511808D01*
X57294236Y-61241309D01*
X57321943Y-60960000D01*
X57294236Y-60678691D01*
X57212182Y-60408192D01*
X57078932Y-60158899D01*
X56899608Y-59940392D01*
X56681101Y-59761068D01*
X56548142Y-59690000D01*
X56681101Y-59618932D01*
X56899608Y-59439608D01*
X57078932Y-59221101D01*
X57212182Y-58971808D01*
X57294236Y-58701309D01*
X57321943Y-58420000D01*
X57294236Y-58138691D01*
X57212182Y-57868192D01*
X57078932Y-57618899D01*
X56899608Y-57400392D01*
X56681101Y-57221068D01*
X56548142Y-57150000D01*
X56681101Y-57078932D01*
X56899608Y-56899608D01*
X57078932Y-56681101D01*
X57212182Y-56431808D01*
X57294236Y-56161309D01*
X57321943Y-55880000D01*
X57294236Y-55598691D01*
X57212182Y-55328192D01*
X57078932Y-55078899D01*
X56899608Y-54860392D01*
X56681101Y-54681068D01*
X56431808Y-54547818D01*
X56161309Y-54465764D01*
X55950492Y-54445000D01*
X55809508Y-54445000D01*
X55598691Y-54465764D01*
X55328192Y-54547818D01*
X55078899Y-54681068D01*
X54860392Y-54860392D01*
X54681068Y-55078899D01*
X54547818Y-55328192D01*
X54465764Y-55598691D01*
X54438057Y-55880000D01*
X51560000Y-55880000D01*
X51560000Y-42474801D01*
X52776200Y-43691002D01*
X52799999Y-43720001D01*
X52915724Y-43814974D01*
X53047753Y-43885546D01*
X53191014Y-43929003D01*
X53302667Y-43940000D01*
X53302676Y-43940000D01*
X53339999Y-43943676D01*
X53377322Y-43940000D01*
X54441928Y-43940000D01*
X54441928Y-43980000D01*
X54454188Y-44104482D01*
X54490498Y-44224180D01*
X54549463Y-44334494D01*
X54628815Y-44431185D01*
X54725506Y-44510537D01*
X54835820Y-44569502D01*
X54955518Y-44605812D01*
X55080000Y-44618072D01*
X56680000Y-44618072D01*
X56804482Y-44605812D01*
X56924180Y-44569502D01*
X57034494Y-44510537D01*
X57131185Y-44431185D01*
X57210537Y-44334494D01*
X57269502Y-44224180D01*
X57305812Y-44104482D01*
X57318072Y-43980000D01*
X57318072Y-42380000D01*
X57305812Y-42255518D01*
X57269502Y-42135820D01*
X57210537Y-42025506D01*
X57131185Y-41928815D01*
X57034494Y-41849463D01*
X56924180Y-41790498D01*
X56804482Y-41754188D01*
X56786518Y-41752419D01*
X56899608Y-41659608D01*
X57078932Y-41441101D01*
X57212182Y-41191808D01*
X57294236Y-40921309D01*
X57321943Y-40640000D01*
X57294236Y-40358691D01*
X57212182Y-40088192D01*
X57078932Y-39838899D01*
X56899608Y-39620392D01*
X56681101Y-39441068D01*
X56548142Y-39370000D01*
X56681101Y-39298932D01*
X56899608Y-39119608D01*
X57078932Y-38901101D01*
X57212182Y-38651808D01*
X57294236Y-38381309D01*
X57321943Y-38100000D01*
X57294236Y-37818691D01*
X57212182Y-37548192D01*
X57078932Y-37298899D01*
X56899608Y-37080392D01*
X56681101Y-36901068D01*
X56548142Y-36830000D01*
X56681101Y-36758932D01*
X56899608Y-36579608D01*
X57078932Y-36361101D01*
X57212182Y-36111808D01*
X57294236Y-35841309D01*
X57321943Y-35560000D01*
X57294236Y-35278691D01*
X57212182Y-35008192D01*
X57078932Y-34758899D01*
X56899608Y-34540392D01*
X56681101Y-34361068D01*
X56548142Y-34290000D01*
X56681101Y-34218932D01*
X56899608Y-34039608D01*
X57078932Y-33821101D01*
X57212182Y-33571808D01*
X57294236Y-33301309D01*
X57321943Y-33020000D01*
X57294236Y-32738691D01*
X57212182Y-32468192D01*
X57078932Y-32218899D01*
X56899608Y-32000392D01*
X56681101Y-31821068D01*
X56548142Y-31750000D01*
X56681101Y-31678932D01*
X56899608Y-31499608D01*
X57078932Y-31281101D01*
X57212182Y-31031808D01*
X57294236Y-30761309D01*
X57321943Y-30480000D01*
X57294236Y-30198691D01*
X57212182Y-29928192D01*
X57078932Y-29678899D01*
X56899608Y-29460392D01*
X56681101Y-29281068D01*
X56548142Y-29210000D01*
X56681101Y-29138932D01*
X56899608Y-28959608D01*
X57078932Y-28741101D01*
X57212182Y-28491808D01*
X57294236Y-28221309D01*
X57321943Y-27940000D01*
X57294236Y-27658691D01*
X57212182Y-27388192D01*
X57078932Y-27138899D01*
X56899608Y-26920392D01*
X56681101Y-26741068D01*
X56543318Y-26667421D01*
X56735131Y-26552385D01*
X56943519Y-26363414D01*
X57111037Y-26137420D01*
X57231246Y-25883087D01*
X57271904Y-25749039D01*
X57149915Y-25527000D01*
X56007000Y-25527000D01*
X56007000Y-25547000D01*
X55753000Y-25547000D01*
X55753000Y-25527000D01*
X54610085Y-25527000D01*
X54488096Y-25749039D01*
X54528754Y-25883087D01*
X54648963Y-26137420D01*
X54816481Y-26363414D01*
X55024869Y-26552385D01*
X55216682Y-26667421D01*
X55078899Y-26741068D01*
X54860392Y-26920392D01*
X54681068Y-27138899D01*
X54547818Y-27388192D01*
X54465764Y-27658691D01*
X54438057Y-27940000D01*
X54465764Y-28221309D01*
X54547818Y-28491808D01*
X54681068Y-28741101D01*
X54860392Y-28959608D01*
X55078899Y-29138932D01*
X55211858Y-29210000D01*
X55078899Y-29281068D01*
X54860392Y-29460392D01*
X54772406Y-29567604D01*
X54100000Y-28895199D01*
X54100000Y-27373711D01*
X54143937Y-27329774D01*
X54257205Y-27160256D01*
X54335226Y-26971898D01*
X54375000Y-26771939D01*
X54375000Y-26568061D01*
X54335226Y-26368102D01*
X54257205Y-26179744D01*
X54143937Y-26010226D01*
X53999774Y-25866063D01*
X53830256Y-25752795D01*
X53641898Y-25674774D01*
X53441939Y-25635000D01*
X53238061Y-25635000D01*
X53038102Y-25674774D01*
X52849744Y-25752795D01*
X52830000Y-25765987D01*
X52830000Y-25050961D01*
X54488096Y-25050961D01*
X54610085Y-25273000D01*
X55753000Y-25273000D01*
X55753000Y-24129376D01*
X56007000Y-24129376D01*
X56007000Y-25273000D01*
X57149915Y-25273000D01*
X57271904Y-25050961D01*
X57231246Y-24916913D01*
X57111037Y-24662580D01*
X56943519Y-24436586D01*
X56735131Y-24247615D01*
X56493881Y-24102930D01*
X56229040Y-24008091D01*
X56007000Y-24129376D01*
X55753000Y-24129376D01*
X55530960Y-24008091D01*
X55266119Y-24102930D01*
X55024869Y-24247615D01*
X54816481Y-24436586D01*
X54648963Y-24662580D01*
X54528754Y-24916913D01*
X54488096Y-25050961D01*
X52830000Y-25050961D01*
X52830000Y-24833711D01*
X52873937Y-24789774D01*
X52987205Y-24620256D01*
X53065226Y-24431898D01*
X53105000Y-24231939D01*
X53105000Y-24028061D01*
X53065226Y-23828102D01*
X52987205Y-23639744D01*
X52873937Y-23470226D01*
X52729774Y-23326063D01*
X52560256Y-23212795D01*
X52371898Y-23134774D01*
X52171939Y-23095000D01*
X51968061Y-23095000D01*
X51768102Y-23134774D01*
X51579744Y-23212795D01*
X51410226Y-23326063D01*
X51266063Y-23470226D01*
X51152795Y-23639744D01*
X51074774Y-23828102D01*
X51035000Y-24028061D01*
X51035000Y-24231939D01*
X51074774Y-24431898D01*
X51152795Y-24620256D01*
X51266063Y-24789774D01*
X51310000Y-24833711D01*
X51310000Y-26105198D01*
X50093804Y-24889003D01*
X50070001Y-24859999D01*
X49954276Y-24765026D01*
X49822247Y-24694454D01*
X49678986Y-24650997D01*
X49567333Y-24640000D01*
X49567322Y-24640000D01*
X49530000Y-24636324D01*
X49492678Y-24640000D01*
X49480901Y-24640000D01*
X49458932Y-24598899D01*
X49279608Y-24380392D01*
X49061101Y-24201068D01*
X48811808Y-24067818D01*
X48541309Y-23985764D01*
X48330492Y-23965000D01*
X48189508Y-23965000D01*
X47978691Y-23985764D01*
X47708192Y-24067818D01*
X47486250Y-24186448D01*
X47390000Y-24090198D01*
X47390000Y-24028061D01*
X47350226Y-23828102D01*
X47272205Y-23639744D01*
X47158937Y-23470226D01*
X47014774Y-23326063D01*
X46845256Y-23212795D01*
X46656898Y-23134774D01*
X46456939Y-23095000D01*
X46253061Y-23095000D01*
X46053102Y-23134774D01*
X45864744Y-23212795D01*
X45695226Y-23326063D01*
X45551063Y-23470226D01*
X45437795Y-23639744D01*
X45359774Y-23828102D01*
X45320000Y-24028061D01*
X45320000Y-24231939D01*
X45359774Y-24431898D01*
X45437795Y-24620256D01*
X45534510Y-24765000D01*
X45437795Y-24909744D01*
X45359774Y-25098102D01*
X45320000Y-25298061D01*
X45320000Y-25501939D01*
X45359774Y-25701898D01*
X45437795Y-25890256D01*
X45551063Y-26059774D01*
X45595000Y-26103711D01*
X45595001Y-28537668D01*
X45591324Y-28575000D01*
X45595001Y-28612333D01*
X45602553Y-28689003D01*
X45605998Y-28723985D01*
X45649454Y-28867246D01*
X45720026Y-28999276D01*
X45774592Y-29065764D01*
X45815000Y-29115001D01*
X45843998Y-29138799D01*
X46859292Y-30154094D01*
X46845764Y-30198691D01*
X46818057Y-30480000D01*
X46845764Y-30761309D01*
X46927818Y-31031808D01*
X47061068Y-31281101D01*
X47240392Y-31499608D01*
X47458899Y-31678932D01*
X47591858Y-31750000D01*
X47458899Y-31821068D01*
X47240392Y-32000392D01*
X47061068Y-32218899D01*
X47045930Y-32247219D01*
X47014774Y-32216063D01*
X46845256Y-32102795D01*
X46656898Y-32024774D01*
X46456939Y-31985000D01*
X46253061Y-31985000D01*
X46053102Y-32024774D01*
X45864744Y-32102795D01*
X45695226Y-32216063D01*
X45551063Y-32360226D01*
X45437795Y-32529744D01*
X45359774Y-32718102D01*
X45320000Y-32918061D01*
X45320000Y-33121939D01*
X45359774Y-33321898D01*
X45437795Y-33510256D01*
X45551063Y-33679774D01*
X45595000Y-33723711D01*
X45595000Y-34360198D01*
X44580708Y-33345906D01*
X44594236Y-33301309D01*
X44621943Y-33020000D01*
X44594236Y-32738691D01*
X44512182Y-32468192D01*
X44378932Y-32218899D01*
X44199608Y-32000392D01*
X43981101Y-31821068D01*
X43848142Y-31750000D01*
X43981101Y-31678932D01*
X44199608Y-31499608D01*
X44378932Y-31281101D01*
X44512182Y-31031808D01*
X44594236Y-30761309D01*
X44621943Y-30480000D01*
X44594236Y-30198691D01*
X44512182Y-29928192D01*
X44378932Y-29678899D01*
X44199608Y-29460392D01*
X43981101Y-29281068D01*
X43848142Y-29210000D01*
X43981101Y-29138932D01*
X44199608Y-28959608D01*
X44378932Y-28741101D01*
X44512182Y-28491808D01*
X44594236Y-28221309D01*
X44621943Y-27940000D01*
X44594236Y-27658691D01*
X44512182Y-27388192D01*
X44378932Y-27138899D01*
X44199608Y-26920392D01*
X43981101Y-26741068D01*
X43843318Y-26667421D01*
X44035131Y-26552385D01*
X44243519Y-26363414D01*
X44411037Y-26137420D01*
X44531246Y-25883087D01*
X44571904Y-25749039D01*
X44449915Y-25527000D01*
X43307000Y-25527000D01*
X43307000Y-25547000D01*
X43053000Y-25547000D01*
X43053000Y-25527000D01*
X41910085Y-25527000D01*
X41788096Y-25749039D01*
X41828754Y-25883087D01*
X41948963Y-26137420D01*
X42116481Y-26363414D01*
X42324869Y-26552385D01*
X42516682Y-26667421D01*
X42378899Y-26741068D01*
X42160392Y-26920392D01*
X41981068Y-27138899D01*
X41847818Y-27388192D01*
X41765764Y-27658691D01*
X41738057Y-27940000D01*
X41765764Y-28221309D01*
X41847818Y-28491808D01*
X41981068Y-28741101D01*
X42160392Y-28959608D01*
X42378899Y-29138932D01*
X42511858Y-29210000D01*
X42378899Y-29281068D01*
X42160392Y-29460392D01*
X41981068Y-29678899D01*
X41847818Y-29928192D01*
X41765764Y-30198691D01*
X41738057Y-30480000D01*
X41765764Y-30761309D01*
X41847818Y-31031808D01*
X41981068Y-31281101D01*
X42160392Y-31499608D01*
X42378899Y-31678932D01*
X42511858Y-31750000D01*
X42378899Y-31821068D01*
X42160392Y-32000392D01*
X41981068Y-32218899D01*
X41847818Y-32468192D01*
X41765764Y-32738691D01*
X41738057Y-33020000D01*
X41765764Y-33301309D01*
X41847818Y-33571808D01*
X41981068Y-33821101D01*
X42160392Y-34039608D01*
X42378899Y-34218932D01*
X42511858Y-34290000D01*
X42378899Y-34361068D01*
X42160392Y-34540392D01*
X41981068Y-34758899D01*
X41847818Y-35008192D01*
X41765764Y-35278691D01*
X41738057Y-35560000D01*
X41765764Y-35841309D01*
X41847818Y-36111808D01*
X41981068Y-36361101D01*
X42160392Y-36579608D01*
X42378899Y-36758932D01*
X42511858Y-36830000D01*
X42378899Y-36901068D01*
X42160392Y-37080392D01*
X41981068Y-37298899D01*
X41847818Y-37548192D01*
X41765764Y-37818691D01*
X41738057Y-38100000D01*
X41765764Y-38381309D01*
X41847818Y-38651808D01*
X41981068Y-38901101D01*
X42160392Y-39119608D01*
X42378899Y-39298932D01*
X42511858Y-39370000D01*
X42378899Y-39441068D01*
X42160392Y-39620392D01*
X41981068Y-39838899D01*
X41847818Y-40088192D01*
X41765764Y-40358691D01*
X41738057Y-40640000D01*
X41765764Y-40921309D01*
X41847818Y-41191808D01*
X41981068Y-41441101D01*
X42160392Y-41659608D01*
X42378899Y-41838932D01*
X42511858Y-41910000D01*
X42378899Y-41981068D01*
X42160392Y-42160392D01*
X41981068Y-42378899D01*
X41847818Y-42628192D01*
X41765764Y-42898691D01*
X41738057Y-43180000D01*
X41765764Y-43461309D01*
X41847818Y-43731808D01*
X41981068Y-43981101D01*
X42160392Y-44199608D01*
X42378899Y-44378932D01*
X42511858Y-44450000D01*
X42378899Y-44521068D01*
X42160392Y-44700392D01*
X41981068Y-44918899D01*
X41847818Y-45168192D01*
X41765764Y-45438691D01*
X41738057Y-45720000D01*
X41765764Y-46001309D01*
X41847818Y-46271808D01*
X41981068Y-46521101D01*
X42160392Y-46739608D01*
X42378899Y-46918932D01*
X42511858Y-46990000D01*
X42378899Y-47061068D01*
X42160392Y-47240392D01*
X41981068Y-47458899D01*
X41847818Y-47708192D01*
X41765764Y-47978691D01*
X41738057Y-48260000D01*
X41765764Y-48541309D01*
X41847818Y-48811808D01*
X41981068Y-49061101D01*
X42160392Y-49279608D01*
X42378899Y-49458932D01*
X42511858Y-49530000D01*
X42378899Y-49601068D01*
X42160392Y-49780392D01*
X41981068Y-49998899D01*
X41847818Y-50248192D01*
X41765764Y-50518691D01*
X41738057Y-50800000D01*
X41765764Y-51081309D01*
X41847818Y-51351808D01*
X41981068Y-51601101D01*
X42160392Y-51819608D01*
X42378899Y-51998932D01*
X42511858Y-52070000D01*
X42378899Y-52141068D01*
X42160392Y-52320392D01*
X41981068Y-52538899D01*
X41847818Y-52788192D01*
X41765764Y-53058691D01*
X41738057Y-53340000D01*
X41765764Y-53621309D01*
X41847818Y-53891808D01*
X41981068Y-54141101D01*
X42160392Y-54359608D01*
X42378899Y-54538932D01*
X42511858Y-54610000D01*
X42378899Y-54681068D01*
X42160392Y-54860392D01*
X41981068Y-55078899D01*
X41847818Y-55328192D01*
X41765764Y-55598691D01*
X41738057Y-55880000D01*
X41765764Y-56161309D01*
X41847818Y-56431808D01*
X41981068Y-56681101D01*
X42160392Y-56899608D01*
X42378899Y-57078932D01*
X42511858Y-57150000D01*
X42378899Y-57221068D01*
X42160392Y-57400392D01*
X42072406Y-57507604D01*
X41400000Y-56835199D01*
X41400000Y-33723711D01*
X41443937Y-33679774D01*
X41557205Y-33510256D01*
X41635226Y-33321898D01*
X41675000Y-33121939D01*
X41675000Y-32918061D01*
X41635226Y-32718102D01*
X41557205Y-32529744D01*
X41443937Y-32360226D01*
X41299774Y-32216063D01*
X41130256Y-32102795D01*
X40941898Y-32024774D01*
X40741939Y-31985000D01*
X40538061Y-31985000D01*
X40338102Y-32024774D01*
X40149744Y-32102795D01*
X40130000Y-32115987D01*
X40130000Y-28643711D01*
X40173937Y-28599774D01*
X40287205Y-28430256D01*
X40365226Y-28241898D01*
X40405000Y-28041939D01*
X40405000Y-27838061D01*
X40365226Y-27638102D01*
X40287205Y-27449744D01*
X40173937Y-27280226D01*
X40029774Y-27136063D01*
X39860256Y-27022795D01*
X39671898Y-26944774D01*
X39471939Y-26905000D01*
X39268061Y-26905000D01*
X39068102Y-26944774D01*
X38879744Y-27022795D01*
X38735000Y-27119510D01*
X38590256Y-27022795D01*
X38401898Y-26944774D01*
X38201939Y-26905000D01*
X37998061Y-26905000D01*
X37798102Y-26944774D01*
X37609744Y-27022795D01*
X37440226Y-27136063D01*
X37296063Y-27280226D01*
X37182795Y-27449744D01*
X37104774Y-27638102D01*
X37065000Y-27838061D01*
X37065000Y-28041939D01*
X37104774Y-28241898D01*
X37182795Y-28430256D01*
X37296063Y-28599774D01*
X37340000Y-28643711D01*
X37340001Y-34856288D01*
X37296063Y-34900226D01*
X37182795Y-35069744D01*
X37104774Y-35258102D01*
X37065000Y-35458061D01*
X37065000Y-35661939D01*
X37104774Y-35861898D01*
X37182795Y-36050256D01*
X37296063Y-36219774D01*
X37440226Y-36363937D01*
X37609744Y-36477205D01*
X37798102Y-36555226D01*
X37998061Y-36595000D01*
X38201939Y-36595000D01*
X38401898Y-36555226D01*
X38590256Y-36477205D01*
X38610000Y-36464012D01*
X38610000Y-37195988D01*
X38590256Y-37182795D01*
X38401898Y-37104774D01*
X38201939Y-37065000D01*
X37998061Y-37065000D01*
X37798102Y-37104774D01*
X37609744Y-37182795D01*
X37440226Y-37296063D01*
X37296063Y-37440226D01*
X37182795Y-37609744D01*
X37104774Y-37798102D01*
X37065000Y-37998061D01*
X37065000Y-38201939D01*
X37104774Y-38401898D01*
X37182795Y-38590256D01*
X37296063Y-38759774D01*
X37340001Y-38803712D01*
X37340000Y-59652678D01*
X37336324Y-59690000D01*
X37340000Y-59727322D01*
X37340000Y-59727332D01*
X37350997Y-59838985D01*
X37381758Y-59940392D01*
X37394454Y-59982246D01*
X37465026Y-60114276D01*
X37501648Y-60158899D01*
X37559999Y-60230001D01*
X37589003Y-60253804D01*
X39880001Y-62544804D01*
X39880000Y-65290868D01*
X39840000Y-65286928D01*
X38840000Y-65286928D01*
X38715518Y-65299188D01*
X38715000Y-65299345D01*
X38714482Y-65299188D01*
X38590000Y-65286928D01*
X38040000Y-65286928D01*
X38015550Y-65289336D01*
X37990991Y-65289336D01*
X37866510Y-65301596D01*
X37770377Y-65320718D01*
X37650681Y-65357027D01*
X37560125Y-65394536D01*
X37449808Y-65453502D01*
X37368309Y-65507958D01*
X37271618Y-65587310D01*
X37202310Y-65656618D01*
X37122958Y-65753309D01*
X37068502Y-65834808D01*
X37009536Y-65945125D01*
X36972027Y-66035681D01*
X36935718Y-66155377D01*
X36916596Y-66251510D01*
X36904336Y-66375991D01*
X36904336Y-66400550D01*
X36901928Y-66425000D01*
X36901928Y-66561493D01*
X36403422Y-67060000D01*
X31637195Y-67060000D01*
X31645664Y-66974009D01*
X31645664Y-66949450D01*
X31648072Y-66925000D01*
X31648072Y-66425000D01*
X31645664Y-66400550D01*
X31645664Y-66375991D01*
X31633404Y-66251510D01*
X31614282Y-66155377D01*
X31577973Y-66035681D01*
X31540464Y-65945125D01*
X31481498Y-65834808D01*
X31427042Y-65753309D01*
X31347690Y-65656618D01*
X31278382Y-65587310D01*
X31240000Y-65555811D01*
X31240000Y-59123711D01*
X31283937Y-59079774D01*
X31397205Y-58910256D01*
X31475226Y-58721898D01*
X31515000Y-58521939D01*
X31515000Y-58318061D01*
X31475226Y-58118102D01*
X31397205Y-57929744D01*
X31283937Y-57760226D01*
X31139774Y-57616063D01*
X31109181Y-57595621D01*
X31768800Y-56936003D01*
X31768809Y-56935992D01*
X32261003Y-56443798D01*
X32290001Y-56420001D01*
X32343794Y-56354454D01*
X32384974Y-56304277D01*
X32455546Y-56172247D01*
X32477624Y-56099463D01*
X32499003Y-56028986D01*
X32510000Y-55917333D01*
X32510000Y-55917323D01*
X32513676Y-55880000D01*
X32510000Y-55842677D01*
X32510000Y-25050961D01*
X41788096Y-25050961D01*
X41910085Y-25273000D01*
X43053000Y-25273000D01*
X43053000Y-24129376D01*
X43307000Y-24129376D01*
X43307000Y-25273000D01*
X44449915Y-25273000D01*
X44571904Y-25050961D01*
X44531246Y-24916913D01*
X44411037Y-24662580D01*
X44243519Y-24436586D01*
X44035131Y-24247615D01*
X43793881Y-24102930D01*
X43529040Y-24008091D01*
X43307000Y-24129376D01*
X43053000Y-24129376D01*
X42830960Y-24008091D01*
X42566119Y-24102930D01*
X42324869Y-24247615D01*
X42116481Y-24436586D01*
X41948963Y-24662580D01*
X41828754Y-24916913D01*
X41788096Y-25050961D01*
X32510000Y-25050961D01*
X32510000Y-24833711D01*
X32553937Y-24789774D01*
X32667205Y-24620256D01*
X32745226Y-24431898D01*
X32785000Y-24231939D01*
X32785000Y-24028061D01*
X32745226Y-23828102D01*
X32667205Y-23639744D01*
X32553937Y-23470226D01*
X32409774Y-23326063D01*
X32240256Y-23212795D01*
X32051898Y-23134774D01*
X31851939Y-23095000D01*
X31648061Y-23095000D01*
X31448102Y-23134774D01*
X31259744Y-23212795D01*
X31090226Y-23326063D01*
X30946063Y-23470226D01*
X30832795Y-23639744D01*
X30754774Y-23828102D01*
X30715000Y-24028061D01*
X30715000Y-24231939D01*
X30754774Y-24431898D01*
X30832795Y-24620256D01*
X30946063Y-24789774D01*
X30990001Y-24833712D01*
X30990001Y-39735988D01*
X30970256Y-39722795D01*
X30781898Y-39644774D01*
X30581939Y-39605000D01*
X30378061Y-39605000D01*
X30178102Y-39644774D01*
X29989744Y-39722795D01*
X29820226Y-39836063D01*
X29676063Y-39980226D01*
X29562795Y-40149744D01*
X29484774Y-40338102D01*
X29445000Y-40538061D01*
X29445000Y-40741939D01*
X29484774Y-40941898D01*
X29562795Y-41130256D01*
X29676063Y-41299774D01*
X29720001Y-41343712D01*
X29720000Y-53025198D01*
X29379402Y-53365796D01*
X29381943Y-53340000D01*
X29354236Y-53058691D01*
X29272182Y-52788192D01*
X29138932Y-52538899D01*
X28959608Y-52320392D01*
X28741101Y-52141068D01*
X28608142Y-52070000D01*
X28741101Y-51998932D01*
X28959608Y-51819608D01*
X29138932Y-51601101D01*
X29272182Y-51351808D01*
X29354236Y-51081309D01*
X29381943Y-50800000D01*
X29354236Y-50518691D01*
X29272182Y-50248192D01*
X29138932Y-49998899D01*
X28959608Y-49780392D01*
X28741101Y-49601068D01*
X28608142Y-49530000D01*
X28741101Y-49458932D01*
X28959608Y-49279608D01*
X29138932Y-49061101D01*
X29272182Y-48811808D01*
X29354236Y-48541309D01*
X29381943Y-48260000D01*
X29354236Y-47978691D01*
X29272182Y-47708192D01*
X29138932Y-47458899D01*
X28959608Y-47240392D01*
X28741101Y-47061068D01*
X28608142Y-46990000D01*
X28741101Y-46918932D01*
X28959608Y-46739608D01*
X29138932Y-46521101D01*
X29272182Y-46271808D01*
X29354236Y-46001309D01*
X29381943Y-45720000D01*
X29354236Y-45438691D01*
X29272182Y-45168192D01*
X29138932Y-44918899D01*
X28959608Y-44700392D01*
X28741101Y-44521068D01*
X28608142Y-44450000D01*
X28741101Y-44378932D01*
X28959608Y-44199608D01*
X29138932Y-43981101D01*
X29272182Y-43731808D01*
X29354236Y-43461309D01*
X29381943Y-43180000D01*
X29354236Y-42898691D01*
X29272182Y-42628192D01*
X29138932Y-42378899D01*
X28959608Y-42160392D01*
X28741101Y-41981068D01*
X28608142Y-41910000D01*
X28741101Y-41838932D01*
X28959608Y-41659608D01*
X29138932Y-41441101D01*
X29272182Y-41191808D01*
X29354236Y-40921309D01*
X29381943Y-40640000D01*
X29354236Y-40358691D01*
X29272182Y-40088192D01*
X29138932Y-39838899D01*
X28959608Y-39620392D01*
X28741101Y-39441068D01*
X28608142Y-39370000D01*
X28741101Y-39298932D01*
X28959608Y-39119608D01*
X29138932Y-38901101D01*
X29272182Y-38651808D01*
X29354236Y-38381309D01*
X29381943Y-38100000D01*
X29354236Y-37818691D01*
X29272182Y-37548192D01*
X29138932Y-37298899D01*
X28959608Y-37080392D01*
X28741101Y-36901068D01*
X28608142Y-36830000D01*
X28741101Y-36758932D01*
X28959608Y-36579608D01*
X29138932Y-36361101D01*
X29272182Y-36111808D01*
X29354236Y-35841309D01*
X29381943Y-35560000D01*
X29354236Y-35278691D01*
X29272182Y-35008192D01*
X29138932Y-34758899D01*
X28959608Y-34540392D01*
X28741101Y-34361068D01*
X28608142Y-34290000D01*
X28741101Y-34218932D01*
X28959608Y-34039608D01*
X29138932Y-33821101D01*
X29272182Y-33571808D01*
X29354236Y-33301309D01*
X29381943Y-33020000D01*
X29354236Y-32738691D01*
X29272182Y-32468192D01*
X29138932Y-32218899D01*
X28959608Y-32000392D01*
X28741101Y-31821068D01*
X28608142Y-31750000D01*
X28741101Y-31678932D01*
X28959608Y-31499608D01*
X29138932Y-31281101D01*
X29272182Y-31031808D01*
X29354236Y-30761309D01*
X29381943Y-30480000D01*
X29354236Y-30198691D01*
X29272182Y-29928192D01*
X29138932Y-29678899D01*
X28959608Y-29460392D01*
X28741101Y-29281068D01*
X28608142Y-29210000D01*
X28741101Y-29138932D01*
X28959608Y-28959608D01*
X29138932Y-28741101D01*
X29272182Y-28491808D01*
X29354236Y-28221309D01*
X29381943Y-27940000D01*
X29354236Y-27658691D01*
X29272182Y-27388192D01*
X29138932Y-27138899D01*
X28959608Y-26920392D01*
X28741101Y-26741068D01*
X28608142Y-26670000D01*
X28741101Y-26598932D01*
X28959608Y-26419608D01*
X29138932Y-26201101D01*
X29272182Y-25951808D01*
X29354236Y-25681309D01*
X29381943Y-25400000D01*
X29354236Y-25118691D01*
X29272182Y-24848192D01*
X29138932Y-24598899D01*
X28959608Y-24380392D01*
X28741101Y-24201068D01*
X28491808Y-24067818D01*
X28221309Y-23985764D01*
X28010492Y-23965000D01*
X27869508Y-23965000D01*
X27658691Y-23985764D01*
X27388192Y-24067818D01*
X27138899Y-24201068D01*
X26920392Y-24380392D01*
X26741068Y-24598899D01*
X26719099Y-24640000D01*
X24257000Y-24640000D01*
X24257000Y-23620000D01*
X27236289Y-23620000D01*
X27280226Y-23663937D01*
X27449744Y-23777205D01*
X27638102Y-23855226D01*
X27838061Y-23895000D01*
X28041939Y-23895000D01*
X28241898Y-23855226D01*
X28430256Y-23777205D01*
X28599774Y-23663937D01*
X28743937Y-23519774D01*
X28857205Y-23350256D01*
X28935226Y-23161898D01*
X28975000Y-22961939D01*
X28975000Y-22758061D01*
X28935226Y-22558102D01*
X28857205Y-22369744D01*
X28743937Y-22200226D01*
X28599774Y-22056063D01*
X28430256Y-21942795D01*
X28241898Y-21864774D01*
X28041939Y-21825000D01*
X27838061Y-21825000D01*
X27638102Y-21864774D01*
X27449744Y-21942795D01*
X27280226Y-22056063D01*
X27236289Y-22100000D01*
X24257000Y-22100000D01*
X24257000Y-20980000D01*
X30512419Y-20980000D01*
X30540865Y-20977198D01*
X30548682Y-20977253D01*
X30557853Y-20976354D01*
X30804357Y-20950446D01*
X30862986Y-20938411D01*
X30921716Y-20927208D01*
X30930532Y-20924546D01*
X30930536Y-20924545D01*
X30930539Y-20924544D01*
X31167314Y-20851249D01*
X31222457Y-20828069D01*
X31277920Y-20805661D01*
X31286054Y-20801335D01*
X31286059Y-20801333D01*
X31286064Y-20801330D01*
X31504086Y-20683447D01*
X31553654Y-20650012D01*
X31603735Y-20617241D01*
X31610876Y-20611416D01*
X31801856Y-20453423D01*
X31843995Y-20410988D01*
X31886745Y-20369125D01*
X31892618Y-20362024D01*
X32049273Y-20169947D01*
X32082374Y-20120125D01*
X32116173Y-20070763D01*
X32120556Y-20062657D01*
X32236919Y-19843809D01*
X32259707Y-19788521D01*
X32283279Y-19733525D01*
X32286003Y-19724722D01*
X32357643Y-19487441D01*
X32369264Y-19428754D01*
X32381700Y-19370248D01*
X32382663Y-19361083D01*
X32406850Y-19114405D01*
X32424722Y-18932131D01*
X32458953Y-18818754D01*
X32514555Y-18714181D01*
X32589407Y-18622404D01*
X32680664Y-18546909D01*
X32784844Y-18490581D01*
X32897976Y-18455560D01*
X33046022Y-18440000D01*
X62197721Y-18440000D01*
X62347869Y-18454722D01*
M02*
