G04 #@! TF.GenerationSoftware,KiCad,Pcbnew,(5.1.2-1)-1*
G04 #@! TF.CreationDate,2023-07-30T19:32:53+02:00*
G04 #@! TF.ProjectId,cart32bbs,63617274-3332-4626-9273-2e6b69636164,rev?*
G04 #@! TF.SameCoordinates,Original*
G04 #@! TF.FileFunction,Paste,Top*
G04 #@! TF.FilePolarity,Positive*
%FSLAX46Y46*%
G04 Gerber Fmt 4.6, Leading zero omitted, Abs format (unit mm)*
G04 Created by KiCad (PCBNEW (5.1.2-1)-1) date 2023-07-30 19:32:53*
%MOMM*%
%LPD*%
G04 APERTURE LIST*
%ADD10C,0.100000*%
%ADD11C,1.524000*%
G04 APERTURE END LIST*
D10*
G36*
X22706345Y-22099835D02*
G01*
X22743329Y-22105321D01*
X22779598Y-22114406D01*
X22814802Y-22127002D01*
X22848602Y-22142988D01*
X22880672Y-22162210D01*
X22910704Y-22184483D01*
X22938408Y-22209592D01*
X22963517Y-22237296D01*
X22985790Y-22267328D01*
X23005012Y-22299398D01*
X23020998Y-22333198D01*
X23033594Y-22368402D01*
X23042679Y-22404671D01*
X23048165Y-22441655D01*
X23050000Y-22479000D01*
X23050000Y-23241000D01*
X23048165Y-23278345D01*
X23042679Y-23315329D01*
X23033594Y-23351598D01*
X23020998Y-23386802D01*
X23005012Y-23420602D01*
X22985790Y-23452672D01*
X22963517Y-23482704D01*
X22938408Y-23510408D01*
X22910704Y-23535517D01*
X22880672Y-23557790D01*
X22848602Y-23577012D01*
X22814802Y-23592998D01*
X22779598Y-23605594D01*
X22743329Y-23614679D01*
X22706345Y-23620165D01*
X22669000Y-23622000D01*
X15431000Y-23622000D01*
X15393655Y-23620165D01*
X15356671Y-23614679D01*
X15320402Y-23605594D01*
X15285198Y-23592998D01*
X15251398Y-23577012D01*
X15219328Y-23557790D01*
X15189296Y-23535517D01*
X15161592Y-23510408D01*
X15136483Y-23482704D01*
X15114210Y-23452672D01*
X15094988Y-23420602D01*
X15079002Y-23386802D01*
X15066406Y-23351598D01*
X15057321Y-23315329D01*
X15051835Y-23278345D01*
X15050000Y-23241000D01*
X15050000Y-22479000D01*
X15051835Y-22441655D01*
X15057321Y-22404671D01*
X15066406Y-22368402D01*
X15079002Y-22333198D01*
X15094988Y-22299398D01*
X15114210Y-22267328D01*
X15136483Y-22237296D01*
X15161592Y-22209592D01*
X15189296Y-22184483D01*
X15219328Y-22162210D01*
X15251398Y-22142988D01*
X15285198Y-22127002D01*
X15320402Y-22114406D01*
X15356671Y-22105321D01*
X15393655Y-22099835D01*
X15431000Y-22098000D01*
X22669000Y-22098000D01*
X22706345Y-22099835D01*
X22706345Y-22099835D01*
G37*
D11*
X19050000Y-22860000D03*
D10*
G36*
X22706345Y-24639835D02*
G01*
X22743329Y-24645321D01*
X22779598Y-24654406D01*
X22814802Y-24667002D01*
X22848602Y-24682988D01*
X22880672Y-24702210D01*
X22910704Y-24724483D01*
X22938408Y-24749592D01*
X22963517Y-24777296D01*
X22985790Y-24807328D01*
X23005012Y-24839398D01*
X23020998Y-24873198D01*
X23033594Y-24908402D01*
X23042679Y-24944671D01*
X23048165Y-24981655D01*
X23050000Y-25019000D01*
X23050000Y-25781000D01*
X23048165Y-25818345D01*
X23042679Y-25855329D01*
X23033594Y-25891598D01*
X23020998Y-25926802D01*
X23005012Y-25960602D01*
X22985790Y-25992672D01*
X22963517Y-26022704D01*
X22938408Y-26050408D01*
X22910704Y-26075517D01*
X22880672Y-26097790D01*
X22848602Y-26117012D01*
X22814802Y-26132998D01*
X22779598Y-26145594D01*
X22743329Y-26154679D01*
X22706345Y-26160165D01*
X22669000Y-26162000D01*
X15431000Y-26162000D01*
X15393655Y-26160165D01*
X15356671Y-26154679D01*
X15320402Y-26145594D01*
X15285198Y-26132998D01*
X15251398Y-26117012D01*
X15219328Y-26097790D01*
X15189296Y-26075517D01*
X15161592Y-26050408D01*
X15136483Y-26022704D01*
X15114210Y-25992672D01*
X15094988Y-25960602D01*
X15079002Y-25926802D01*
X15066406Y-25891598D01*
X15057321Y-25855329D01*
X15051835Y-25818345D01*
X15050000Y-25781000D01*
X15050000Y-25019000D01*
X15051835Y-24981655D01*
X15057321Y-24944671D01*
X15066406Y-24908402D01*
X15079002Y-24873198D01*
X15094988Y-24839398D01*
X15114210Y-24807328D01*
X15136483Y-24777296D01*
X15161592Y-24749592D01*
X15189296Y-24724483D01*
X15219328Y-24702210D01*
X15251398Y-24682988D01*
X15285198Y-24667002D01*
X15320402Y-24654406D01*
X15356671Y-24645321D01*
X15393655Y-24639835D01*
X15431000Y-24638000D01*
X22669000Y-24638000D01*
X22706345Y-24639835D01*
X22706345Y-24639835D01*
G37*
D11*
X19050000Y-25400000D03*
D10*
G36*
X22706345Y-27179835D02*
G01*
X22743329Y-27185321D01*
X22779598Y-27194406D01*
X22814802Y-27207002D01*
X22848602Y-27222988D01*
X22880672Y-27242210D01*
X22910704Y-27264483D01*
X22938408Y-27289592D01*
X22963517Y-27317296D01*
X22985790Y-27347328D01*
X23005012Y-27379398D01*
X23020998Y-27413198D01*
X23033594Y-27448402D01*
X23042679Y-27484671D01*
X23048165Y-27521655D01*
X23050000Y-27559000D01*
X23050000Y-28321000D01*
X23048165Y-28358345D01*
X23042679Y-28395329D01*
X23033594Y-28431598D01*
X23020998Y-28466802D01*
X23005012Y-28500602D01*
X22985790Y-28532672D01*
X22963517Y-28562704D01*
X22938408Y-28590408D01*
X22910704Y-28615517D01*
X22880672Y-28637790D01*
X22848602Y-28657012D01*
X22814802Y-28672998D01*
X22779598Y-28685594D01*
X22743329Y-28694679D01*
X22706345Y-28700165D01*
X22669000Y-28702000D01*
X15431000Y-28702000D01*
X15393655Y-28700165D01*
X15356671Y-28694679D01*
X15320402Y-28685594D01*
X15285198Y-28672998D01*
X15251398Y-28657012D01*
X15219328Y-28637790D01*
X15189296Y-28615517D01*
X15161592Y-28590408D01*
X15136483Y-28562704D01*
X15114210Y-28532672D01*
X15094988Y-28500602D01*
X15079002Y-28466802D01*
X15066406Y-28431598D01*
X15057321Y-28395329D01*
X15051835Y-28358345D01*
X15050000Y-28321000D01*
X15050000Y-27559000D01*
X15051835Y-27521655D01*
X15057321Y-27484671D01*
X15066406Y-27448402D01*
X15079002Y-27413198D01*
X15094988Y-27379398D01*
X15114210Y-27347328D01*
X15136483Y-27317296D01*
X15161592Y-27289592D01*
X15189296Y-27264483D01*
X15219328Y-27242210D01*
X15251398Y-27222988D01*
X15285198Y-27207002D01*
X15320402Y-27194406D01*
X15356671Y-27185321D01*
X15393655Y-27179835D01*
X15431000Y-27178000D01*
X22669000Y-27178000D01*
X22706345Y-27179835D01*
X22706345Y-27179835D01*
G37*
D11*
X19050000Y-27940000D03*
D10*
G36*
X22706345Y-29719835D02*
G01*
X22743329Y-29725321D01*
X22779598Y-29734406D01*
X22814802Y-29747002D01*
X22848602Y-29762988D01*
X22880672Y-29782210D01*
X22910704Y-29804483D01*
X22938408Y-29829592D01*
X22963517Y-29857296D01*
X22985790Y-29887328D01*
X23005012Y-29919398D01*
X23020998Y-29953198D01*
X23033594Y-29988402D01*
X23042679Y-30024671D01*
X23048165Y-30061655D01*
X23050000Y-30099000D01*
X23050000Y-30861000D01*
X23048165Y-30898345D01*
X23042679Y-30935329D01*
X23033594Y-30971598D01*
X23020998Y-31006802D01*
X23005012Y-31040602D01*
X22985790Y-31072672D01*
X22963517Y-31102704D01*
X22938408Y-31130408D01*
X22910704Y-31155517D01*
X22880672Y-31177790D01*
X22848602Y-31197012D01*
X22814802Y-31212998D01*
X22779598Y-31225594D01*
X22743329Y-31234679D01*
X22706345Y-31240165D01*
X22669000Y-31242000D01*
X15431000Y-31242000D01*
X15393655Y-31240165D01*
X15356671Y-31234679D01*
X15320402Y-31225594D01*
X15285198Y-31212998D01*
X15251398Y-31197012D01*
X15219328Y-31177790D01*
X15189296Y-31155517D01*
X15161592Y-31130408D01*
X15136483Y-31102704D01*
X15114210Y-31072672D01*
X15094988Y-31040602D01*
X15079002Y-31006802D01*
X15066406Y-30971598D01*
X15057321Y-30935329D01*
X15051835Y-30898345D01*
X15050000Y-30861000D01*
X15050000Y-30099000D01*
X15051835Y-30061655D01*
X15057321Y-30024671D01*
X15066406Y-29988402D01*
X15079002Y-29953198D01*
X15094988Y-29919398D01*
X15114210Y-29887328D01*
X15136483Y-29857296D01*
X15161592Y-29829592D01*
X15189296Y-29804483D01*
X15219328Y-29782210D01*
X15251398Y-29762988D01*
X15285198Y-29747002D01*
X15320402Y-29734406D01*
X15356671Y-29725321D01*
X15393655Y-29719835D01*
X15431000Y-29718000D01*
X22669000Y-29718000D01*
X22706345Y-29719835D01*
X22706345Y-29719835D01*
G37*
D11*
X19050000Y-30480000D03*
D10*
G36*
X22706345Y-32259835D02*
G01*
X22743329Y-32265321D01*
X22779598Y-32274406D01*
X22814802Y-32287002D01*
X22848602Y-32302988D01*
X22880672Y-32322210D01*
X22910704Y-32344483D01*
X22938408Y-32369592D01*
X22963517Y-32397296D01*
X22985790Y-32427328D01*
X23005012Y-32459398D01*
X23020998Y-32493198D01*
X23033594Y-32528402D01*
X23042679Y-32564671D01*
X23048165Y-32601655D01*
X23050000Y-32639000D01*
X23050000Y-33401000D01*
X23048165Y-33438345D01*
X23042679Y-33475329D01*
X23033594Y-33511598D01*
X23020998Y-33546802D01*
X23005012Y-33580602D01*
X22985790Y-33612672D01*
X22963517Y-33642704D01*
X22938408Y-33670408D01*
X22910704Y-33695517D01*
X22880672Y-33717790D01*
X22848602Y-33737012D01*
X22814802Y-33752998D01*
X22779598Y-33765594D01*
X22743329Y-33774679D01*
X22706345Y-33780165D01*
X22669000Y-33782000D01*
X15431000Y-33782000D01*
X15393655Y-33780165D01*
X15356671Y-33774679D01*
X15320402Y-33765594D01*
X15285198Y-33752998D01*
X15251398Y-33737012D01*
X15219328Y-33717790D01*
X15189296Y-33695517D01*
X15161592Y-33670408D01*
X15136483Y-33642704D01*
X15114210Y-33612672D01*
X15094988Y-33580602D01*
X15079002Y-33546802D01*
X15066406Y-33511598D01*
X15057321Y-33475329D01*
X15051835Y-33438345D01*
X15050000Y-33401000D01*
X15050000Y-32639000D01*
X15051835Y-32601655D01*
X15057321Y-32564671D01*
X15066406Y-32528402D01*
X15079002Y-32493198D01*
X15094988Y-32459398D01*
X15114210Y-32427328D01*
X15136483Y-32397296D01*
X15161592Y-32369592D01*
X15189296Y-32344483D01*
X15219328Y-32322210D01*
X15251398Y-32302988D01*
X15285198Y-32287002D01*
X15320402Y-32274406D01*
X15356671Y-32265321D01*
X15393655Y-32259835D01*
X15431000Y-32258000D01*
X22669000Y-32258000D01*
X22706345Y-32259835D01*
X22706345Y-32259835D01*
G37*
D11*
X19050000Y-33020000D03*
D10*
G36*
X22706345Y-34799835D02*
G01*
X22743329Y-34805321D01*
X22779598Y-34814406D01*
X22814802Y-34827002D01*
X22848602Y-34842988D01*
X22880672Y-34862210D01*
X22910704Y-34884483D01*
X22938408Y-34909592D01*
X22963517Y-34937296D01*
X22985790Y-34967328D01*
X23005012Y-34999398D01*
X23020998Y-35033198D01*
X23033594Y-35068402D01*
X23042679Y-35104671D01*
X23048165Y-35141655D01*
X23050000Y-35179000D01*
X23050000Y-35941000D01*
X23048165Y-35978345D01*
X23042679Y-36015329D01*
X23033594Y-36051598D01*
X23020998Y-36086802D01*
X23005012Y-36120602D01*
X22985790Y-36152672D01*
X22963517Y-36182704D01*
X22938408Y-36210408D01*
X22910704Y-36235517D01*
X22880672Y-36257790D01*
X22848602Y-36277012D01*
X22814802Y-36292998D01*
X22779598Y-36305594D01*
X22743329Y-36314679D01*
X22706345Y-36320165D01*
X22669000Y-36322000D01*
X15431000Y-36322000D01*
X15393655Y-36320165D01*
X15356671Y-36314679D01*
X15320402Y-36305594D01*
X15285198Y-36292998D01*
X15251398Y-36277012D01*
X15219328Y-36257790D01*
X15189296Y-36235517D01*
X15161592Y-36210408D01*
X15136483Y-36182704D01*
X15114210Y-36152672D01*
X15094988Y-36120602D01*
X15079002Y-36086802D01*
X15066406Y-36051598D01*
X15057321Y-36015329D01*
X15051835Y-35978345D01*
X15050000Y-35941000D01*
X15050000Y-35179000D01*
X15051835Y-35141655D01*
X15057321Y-35104671D01*
X15066406Y-35068402D01*
X15079002Y-35033198D01*
X15094988Y-34999398D01*
X15114210Y-34967328D01*
X15136483Y-34937296D01*
X15161592Y-34909592D01*
X15189296Y-34884483D01*
X15219328Y-34862210D01*
X15251398Y-34842988D01*
X15285198Y-34827002D01*
X15320402Y-34814406D01*
X15356671Y-34805321D01*
X15393655Y-34799835D01*
X15431000Y-34798000D01*
X22669000Y-34798000D01*
X22706345Y-34799835D01*
X22706345Y-34799835D01*
G37*
D11*
X19050000Y-35560000D03*
D10*
G36*
X22706345Y-37339835D02*
G01*
X22743329Y-37345321D01*
X22779598Y-37354406D01*
X22814802Y-37367002D01*
X22848602Y-37382988D01*
X22880672Y-37402210D01*
X22910704Y-37424483D01*
X22938408Y-37449592D01*
X22963517Y-37477296D01*
X22985790Y-37507328D01*
X23005012Y-37539398D01*
X23020998Y-37573198D01*
X23033594Y-37608402D01*
X23042679Y-37644671D01*
X23048165Y-37681655D01*
X23050000Y-37719000D01*
X23050000Y-38481000D01*
X23048165Y-38518345D01*
X23042679Y-38555329D01*
X23033594Y-38591598D01*
X23020998Y-38626802D01*
X23005012Y-38660602D01*
X22985790Y-38692672D01*
X22963517Y-38722704D01*
X22938408Y-38750408D01*
X22910704Y-38775517D01*
X22880672Y-38797790D01*
X22848602Y-38817012D01*
X22814802Y-38832998D01*
X22779598Y-38845594D01*
X22743329Y-38854679D01*
X22706345Y-38860165D01*
X22669000Y-38862000D01*
X15431000Y-38862000D01*
X15393655Y-38860165D01*
X15356671Y-38854679D01*
X15320402Y-38845594D01*
X15285198Y-38832998D01*
X15251398Y-38817012D01*
X15219328Y-38797790D01*
X15189296Y-38775517D01*
X15161592Y-38750408D01*
X15136483Y-38722704D01*
X15114210Y-38692672D01*
X15094988Y-38660602D01*
X15079002Y-38626802D01*
X15066406Y-38591598D01*
X15057321Y-38555329D01*
X15051835Y-38518345D01*
X15050000Y-38481000D01*
X15050000Y-37719000D01*
X15051835Y-37681655D01*
X15057321Y-37644671D01*
X15066406Y-37608402D01*
X15079002Y-37573198D01*
X15094988Y-37539398D01*
X15114210Y-37507328D01*
X15136483Y-37477296D01*
X15161592Y-37449592D01*
X15189296Y-37424483D01*
X15219328Y-37402210D01*
X15251398Y-37382988D01*
X15285198Y-37367002D01*
X15320402Y-37354406D01*
X15356671Y-37345321D01*
X15393655Y-37339835D01*
X15431000Y-37338000D01*
X22669000Y-37338000D01*
X22706345Y-37339835D01*
X22706345Y-37339835D01*
G37*
D11*
X19050000Y-38100000D03*
D10*
G36*
X22706345Y-39879835D02*
G01*
X22743329Y-39885321D01*
X22779598Y-39894406D01*
X22814802Y-39907002D01*
X22848602Y-39922988D01*
X22880672Y-39942210D01*
X22910704Y-39964483D01*
X22938408Y-39989592D01*
X22963517Y-40017296D01*
X22985790Y-40047328D01*
X23005012Y-40079398D01*
X23020998Y-40113198D01*
X23033594Y-40148402D01*
X23042679Y-40184671D01*
X23048165Y-40221655D01*
X23050000Y-40259000D01*
X23050000Y-41021000D01*
X23048165Y-41058345D01*
X23042679Y-41095329D01*
X23033594Y-41131598D01*
X23020998Y-41166802D01*
X23005012Y-41200602D01*
X22985790Y-41232672D01*
X22963517Y-41262704D01*
X22938408Y-41290408D01*
X22910704Y-41315517D01*
X22880672Y-41337790D01*
X22848602Y-41357012D01*
X22814802Y-41372998D01*
X22779598Y-41385594D01*
X22743329Y-41394679D01*
X22706345Y-41400165D01*
X22669000Y-41402000D01*
X15431000Y-41402000D01*
X15393655Y-41400165D01*
X15356671Y-41394679D01*
X15320402Y-41385594D01*
X15285198Y-41372998D01*
X15251398Y-41357012D01*
X15219328Y-41337790D01*
X15189296Y-41315517D01*
X15161592Y-41290408D01*
X15136483Y-41262704D01*
X15114210Y-41232672D01*
X15094988Y-41200602D01*
X15079002Y-41166802D01*
X15066406Y-41131598D01*
X15057321Y-41095329D01*
X15051835Y-41058345D01*
X15050000Y-41021000D01*
X15050000Y-40259000D01*
X15051835Y-40221655D01*
X15057321Y-40184671D01*
X15066406Y-40148402D01*
X15079002Y-40113198D01*
X15094988Y-40079398D01*
X15114210Y-40047328D01*
X15136483Y-40017296D01*
X15161592Y-39989592D01*
X15189296Y-39964483D01*
X15219328Y-39942210D01*
X15251398Y-39922988D01*
X15285198Y-39907002D01*
X15320402Y-39894406D01*
X15356671Y-39885321D01*
X15393655Y-39879835D01*
X15431000Y-39878000D01*
X22669000Y-39878000D01*
X22706345Y-39879835D01*
X22706345Y-39879835D01*
G37*
D11*
X19050000Y-40640000D03*
D10*
G36*
X22706345Y-42419835D02*
G01*
X22743329Y-42425321D01*
X22779598Y-42434406D01*
X22814802Y-42447002D01*
X22848602Y-42462988D01*
X22880672Y-42482210D01*
X22910704Y-42504483D01*
X22938408Y-42529592D01*
X22963517Y-42557296D01*
X22985790Y-42587328D01*
X23005012Y-42619398D01*
X23020998Y-42653198D01*
X23033594Y-42688402D01*
X23042679Y-42724671D01*
X23048165Y-42761655D01*
X23050000Y-42799000D01*
X23050000Y-43561000D01*
X23048165Y-43598345D01*
X23042679Y-43635329D01*
X23033594Y-43671598D01*
X23020998Y-43706802D01*
X23005012Y-43740602D01*
X22985790Y-43772672D01*
X22963517Y-43802704D01*
X22938408Y-43830408D01*
X22910704Y-43855517D01*
X22880672Y-43877790D01*
X22848602Y-43897012D01*
X22814802Y-43912998D01*
X22779598Y-43925594D01*
X22743329Y-43934679D01*
X22706345Y-43940165D01*
X22669000Y-43942000D01*
X15431000Y-43942000D01*
X15393655Y-43940165D01*
X15356671Y-43934679D01*
X15320402Y-43925594D01*
X15285198Y-43912998D01*
X15251398Y-43897012D01*
X15219328Y-43877790D01*
X15189296Y-43855517D01*
X15161592Y-43830408D01*
X15136483Y-43802704D01*
X15114210Y-43772672D01*
X15094988Y-43740602D01*
X15079002Y-43706802D01*
X15066406Y-43671598D01*
X15057321Y-43635329D01*
X15051835Y-43598345D01*
X15050000Y-43561000D01*
X15050000Y-42799000D01*
X15051835Y-42761655D01*
X15057321Y-42724671D01*
X15066406Y-42688402D01*
X15079002Y-42653198D01*
X15094988Y-42619398D01*
X15114210Y-42587328D01*
X15136483Y-42557296D01*
X15161592Y-42529592D01*
X15189296Y-42504483D01*
X15219328Y-42482210D01*
X15251398Y-42462988D01*
X15285198Y-42447002D01*
X15320402Y-42434406D01*
X15356671Y-42425321D01*
X15393655Y-42419835D01*
X15431000Y-42418000D01*
X22669000Y-42418000D01*
X22706345Y-42419835D01*
X22706345Y-42419835D01*
G37*
D11*
X19050000Y-43180000D03*
D10*
G36*
X22706345Y-44959835D02*
G01*
X22743329Y-44965321D01*
X22779598Y-44974406D01*
X22814802Y-44987002D01*
X22848602Y-45002988D01*
X22880672Y-45022210D01*
X22910704Y-45044483D01*
X22938408Y-45069592D01*
X22963517Y-45097296D01*
X22985790Y-45127328D01*
X23005012Y-45159398D01*
X23020998Y-45193198D01*
X23033594Y-45228402D01*
X23042679Y-45264671D01*
X23048165Y-45301655D01*
X23050000Y-45339000D01*
X23050000Y-46101000D01*
X23048165Y-46138345D01*
X23042679Y-46175329D01*
X23033594Y-46211598D01*
X23020998Y-46246802D01*
X23005012Y-46280602D01*
X22985790Y-46312672D01*
X22963517Y-46342704D01*
X22938408Y-46370408D01*
X22910704Y-46395517D01*
X22880672Y-46417790D01*
X22848602Y-46437012D01*
X22814802Y-46452998D01*
X22779598Y-46465594D01*
X22743329Y-46474679D01*
X22706345Y-46480165D01*
X22669000Y-46482000D01*
X15431000Y-46482000D01*
X15393655Y-46480165D01*
X15356671Y-46474679D01*
X15320402Y-46465594D01*
X15285198Y-46452998D01*
X15251398Y-46437012D01*
X15219328Y-46417790D01*
X15189296Y-46395517D01*
X15161592Y-46370408D01*
X15136483Y-46342704D01*
X15114210Y-46312672D01*
X15094988Y-46280602D01*
X15079002Y-46246802D01*
X15066406Y-46211598D01*
X15057321Y-46175329D01*
X15051835Y-46138345D01*
X15050000Y-46101000D01*
X15050000Y-45339000D01*
X15051835Y-45301655D01*
X15057321Y-45264671D01*
X15066406Y-45228402D01*
X15079002Y-45193198D01*
X15094988Y-45159398D01*
X15114210Y-45127328D01*
X15136483Y-45097296D01*
X15161592Y-45069592D01*
X15189296Y-45044483D01*
X15219328Y-45022210D01*
X15251398Y-45002988D01*
X15285198Y-44987002D01*
X15320402Y-44974406D01*
X15356671Y-44965321D01*
X15393655Y-44959835D01*
X15431000Y-44958000D01*
X22669000Y-44958000D01*
X22706345Y-44959835D01*
X22706345Y-44959835D01*
G37*
D11*
X19050000Y-45720000D03*
D10*
G36*
X22706345Y-47499835D02*
G01*
X22743329Y-47505321D01*
X22779598Y-47514406D01*
X22814802Y-47527002D01*
X22848602Y-47542988D01*
X22880672Y-47562210D01*
X22910704Y-47584483D01*
X22938408Y-47609592D01*
X22963517Y-47637296D01*
X22985790Y-47667328D01*
X23005012Y-47699398D01*
X23020998Y-47733198D01*
X23033594Y-47768402D01*
X23042679Y-47804671D01*
X23048165Y-47841655D01*
X23050000Y-47879000D01*
X23050000Y-48641000D01*
X23048165Y-48678345D01*
X23042679Y-48715329D01*
X23033594Y-48751598D01*
X23020998Y-48786802D01*
X23005012Y-48820602D01*
X22985790Y-48852672D01*
X22963517Y-48882704D01*
X22938408Y-48910408D01*
X22910704Y-48935517D01*
X22880672Y-48957790D01*
X22848602Y-48977012D01*
X22814802Y-48992998D01*
X22779598Y-49005594D01*
X22743329Y-49014679D01*
X22706345Y-49020165D01*
X22669000Y-49022000D01*
X15431000Y-49022000D01*
X15393655Y-49020165D01*
X15356671Y-49014679D01*
X15320402Y-49005594D01*
X15285198Y-48992998D01*
X15251398Y-48977012D01*
X15219328Y-48957790D01*
X15189296Y-48935517D01*
X15161592Y-48910408D01*
X15136483Y-48882704D01*
X15114210Y-48852672D01*
X15094988Y-48820602D01*
X15079002Y-48786802D01*
X15066406Y-48751598D01*
X15057321Y-48715329D01*
X15051835Y-48678345D01*
X15050000Y-48641000D01*
X15050000Y-47879000D01*
X15051835Y-47841655D01*
X15057321Y-47804671D01*
X15066406Y-47768402D01*
X15079002Y-47733198D01*
X15094988Y-47699398D01*
X15114210Y-47667328D01*
X15136483Y-47637296D01*
X15161592Y-47609592D01*
X15189296Y-47584483D01*
X15219328Y-47562210D01*
X15251398Y-47542988D01*
X15285198Y-47527002D01*
X15320402Y-47514406D01*
X15356671Y-47505321D01*
X15393655Y-47499835D01*
X15431000Y-47498000D01*
X22669000Y-47498000D01*
X22706345Y-47499835D01*
X22706345Y-47499835D01*
G37*
D11*
X19050000Y-48260000D03*
D10*
G36*
X22706345Y-50039835D02*
G01*
X22743329Y-50045321D01*
X22779598Y-50054406D01*
X22814802Y-50067002D01*
X22848602Y-50082988D01*
X22880672Y-50102210D01*
X22910704Y-50124483D01*
X22938408Y-50149592D01*
X22963517Y-50177296D01*
X22985790Y-50207328D01*
X23005012Y-50239398D01*
X23020998Y-50273198D01*
X23033594Y-50308402D01*
X23042679Y-50344671D01*
X23048165Y-50381655D01*
X23050000Y-50419000D01*
X23050000Y-51181000D01*
X23048165Y-51218345D01*
X23042679Y-51255329D01*
X23033594Y-51291598D01*
X23020998Y-51326802D01*
X23005012Y-51360602D01*
X22985790Y-51392672D01*
X22963517Y-51422704D01*
X22938408Y-51450408D01*
X22910704Y-51475517D01*
X22880672Y-51497790D01*
X22848602Y-51517012D01*
X22814802Y-51532998D01*
X22779598Y-51545594D01*
X22743329Y-51554679D01*
X22706345Y-51560165D01*
X22669000Y-51562000D01*
X15431000Y-51562000D01*
X15393655Y-51560165D01*
X15356671Y-51554679D01*
X15320402Y-51545594D01*
X15285198Y-51532998D01*
X15251398Y-51517012D01*
X15219328Y-51497790D01*
X15189296Y-51475517D01*
X15161592Y-51450408D01*
X15136483Y-51422704D01*
X15114210Y-51392672D01*
X15094988Y-51360602D01*
X15079002Y-51326802D01*
X15066406Y-51291598D01*
X15057321Y-51255329D01*
X15051835Y-51218345D01*
X15050000Y-51181000D01*
X15050000Y-50419000D01*
X15051835Y-50381655D01*
X15057321Y-50344671D01*
X15066406Y-50308402D01*
X15079002Y-50273198D01*
X15094988Y-50239398D01*
X15114210Y-50207328D01*
X15136483Y-50177296D01*
X15161592Y-50149592D01*
X15189296Y-50124483D01*
X15219328Y-50102210D01*
X15251398Y-50082988D01*
X15285198Y-50067002D01*
X15320402Y-50054406D01*
X15356671Y-50045321D01*
X15393655Y-50039835D01*
X15431000Y-50038000D01*
X22669000Y-50038000D01*
X22706345Y-50039835D01*
X22706345Y-50039835D01*
G37*
D11*
X19050000Y-50800000D03*
D10*
G36*
X22706345Y-52579835D02*
G01*
X22743329Y-52585321D01*
X22779598Y-52594406D01*
X22814802Y-52607002D01*
X22848602Y-52622988D01*
X22880672Y-52642210D01*
X22910704Y-52664483D01*
X22938408Y-52689592D01*
X22963517Y-52717296D01*
X22985790Y-52747328D01*
X23005012Y-52779398D01*
X23020998Y-52813198D01*
X23033594Y-52848402D01*
X23042679Y-52884671D01*
X23048165Y-52921655D01*
X23050000Y-52959000D01*
X23050000Y-53721000D01*
X23048165Y-53758345D01*
X23042679Y-53795329D01*
X23033594Y-53831598D01*
X23020998Y-53866802D01*
X23005012Y-53900602D01*
X22985790Y-53932672D01*
X22963517Y-53962704D01*
X22938408Y-53990408D01*
X22910704Y-54015517D01*
X22880672Y-54037790D01*
X22848602Y-54057012D01*
X22814802Y-54072998D01*
X22779598Y-54085594D01*
X22743329Y-54094679D01*
X22706345Y-54100165D01*
X22669000Y-54102000D01*
X15431000Y-54102000D01*
X15393655Y-54100165D01*
X15356671Y-54094679D01*
X15320402Y-54085594D01*
X15285198Y-54072998D01*
X15251398Y-54057012D01*
X15219328Y-54037790D01*
X15189296Y-54015517D01*
X15161592Y-53990408D01*
X15136483Y-53962704D01*
X15114210Y-53932672D01*
X15094988Y-53900602D01*
X15079002Y-53866802D01*
X15066406Y-53831598D01*
X15057321Y-53795329D01*
X15051835Y-53758345D01*
X15050000Y-53721000D01*
X15050000Y-52959000D01*
X15051835Y-52921655D01*
X15057321Y-52884671D01*
X15066406Y-52848402D01*
X15079002Y-52813198D01*
X15094988Y-52779398D01*
X15114210Y-52747328D01*
X15136483Y-52717296D01*
X15161592Y-52689592D01*
X15189296Y-52664483D01*
X15219328Y-52642210D01*
X15251398Y-52622988D01*
X15285198Y-52607002D01*
X15320402Y-52594406D01*
X15356671Y-52585321D01*
X15393655Y-52579835D01*
X15431000Y-52578000D01*
X22669000Y-52578000D01*
X22706345Y-52579835D01*
X22706345Y-52579835D01*
G37*
D11*
X19050000Y-53340000D03*
D10*
G36*
X22706345Y-55119835D02*
G01*
X22743329Y-55125321D01*
X22779598Y-55134406D01*
X22814802Y-55147002D01*
X22848602Y-55162988D01*
X22880672Y-55182210D01*
X22910704Y-55204483D01*
X22938408Y-55229592D01*
X22963517Y-55257296D01*
X22985790Y-55287328D01*
X23005012Y-55319398D01*
X23020998Y-55353198D01*
X23033594Y-55388402D01*
X23042679Y-55424671D01*
X23048165Y-55461655D01*
X23050000Y-55499000D01*
X23050000Y-56261000D01*
X23048165Y-56298345D01*
X23042679Y-56335329D01*
X23033594Y-56371598D01*
X23020998Y-56406802D01*
X23005012Y-56440602D01*
X22985790Y-56472672D01*
X22963517Y-56502704D01*
X22938408Y-56530408D01*
X22910704Y-56555517D01*
X22880672Y-56577790D01*
X22848602Y-56597012D01*
X22814802Y-56612998D01*
X22779598Y-56625594D01*
X22743329Y-56634679D01*
X22706345Y-56640165D01*
X22669000Y-56642000D01*
X15431000Y-56642000D01*
X15393655Y-56640165D01*
X15356671Y-56634679D01*
X15320402Y-56625594D01*
X15285198Y-56612998D01*
X15251398Y-56597012D01*
X15219328Y-56577790D01*
X15189296Y-56555517D01*
X15161592Y-56530408D01*
X15136483Y-56502704D01*
X15114210Y-56472672D01*
X15094988Y-56440602D01*
X15079002Y-56406802D01*
X15066406Y-56371598D01*
X15057321Y-56335329D01*
X15051835Y-56298345D01*
X15050000Y-56261000D01*
X15050000Y-55499000D01*
X15051835Y-55461655D01*
X15057321Y-55424671D01*
X15066406Y-55388402D01*
X15079002Y-55353198D01*
X15094988Y-55319398D01*
X15114210Y-55287328D01*
X15136483Y-55257296D01*
X15161592Y-55229592D01*
X15189296Y-55204483D01*
X15219328Y-55182210D01*
X15251398Y-55162988D01*
X15285198Y-55147002D01*
X15320402Y-55134406D01*
X15356671Y-55125321D01*
X15393655Y-55119835D01*
X15431000Y-55118000D01*
X22669000Y-55118000D01*
X22706345Y-55119835D01*
X22706345Y-55119835D01*
G37*
D11*
X19050000Y-55880000D03*
D10*
G36*
X22706345Y-57659835D02*
G01*
X22743329Y-57665321D01*
X22779598Y-57674406D01*
X22814802Y-57687002D01*
X22848602Y-57702988D01*
X22880672Y-57722210D01*
X22910704Y-57744483D01*
X22938408Y-57769592D01*
X22963517Y-57797296D01*
X22985790Y-57827328D01*
X23005012Y-57859398D01*
X23020998Y-57893198D01*
X23033594Y-57928402D01*
X23042679Y-57964671D01*
X23048165Y-58001655D01*
X23050000Y-58039000D01*
X23050000Y-58801000D01*
X23048165Y-58838345D01*
X23042679Y-58875329D01*
X23033594Y-58911598D01*
X23020998Y-58946802D01*
X23005012Y-58980602D01*
X22985790Y-59012672D01*
X22963517Y-59042704D01*
X22938408Y-59070408D01*
X22910704Y-59095517D01*
X22880672Y-59117790D01*
X22848602Y-59137012D01*
X22814802Y-59152998D01*
X22779598Y-59165594D01*
X22743329Y-59174679D01*
X22706345Y-59180165D01*
X22669000Y-59182000D01*
X15431000Y-59182000D01*
X15393655Y-59180165D01*
X15356671Y-59174679D01*
X15320402Y-59165594D01*
X15285198Y-59152998D01*
X15251398Y-59137012D01*
X15219328Y-59117790D01*
X15189296Y-59095517D01*
X15161592Y-59070408D01*
X15136483Y-59042704D01*
X15114210Y-59012672D01*
X15094988Y-58980602D01*
X15079002Y-58946802D01*
X15066406Y-58911598D01*
X15057321Y-58875329D01*
X15051835Y-58838345D01*
X15050000Y-58801000D01*
X15050000Y-58039000D01*
X15051835Y-58001655D01*
X15057321Y-57964671D01*
X15066406Y-57928402D01*
X15079002Y-57893198D01*
X15094988Y-57859398D01*
X15114210Y-57827328D01*
X15136483Y-57797296D01*
X15161592Y-57769592D01*
X15189296Y-57744483D01*
X15219328Y-57722210D01*
X15251398Y-57702988D01*
X15285198Y-57687002D01*
X15320402Y-57674406D01*
X15356671Y-57665321D01*
X15393655Y-57659835D01*
X15431000Y-57658000D01*
X22669000Y-57658000D01*
X22706345Y-57659835D01*
X22706345Y-57659835D01*
G37*
D11*
X19050000Y-58420000D03*
D10*
G36*
X22706345Y-62739835D02*
G01*
X22743329Y-62745321D01*
X22779598Y-62754406D01*
X22814802Y-62767002D01*
X22848602Y-62782988D01*
X22880672Y-62802210D01*
X22910704Y-62824483D01*
X22938408Y-62849592D01*
X22963517Y-62877296D01*
X22985790Y-62907328D01*
X23005012Y-62939398D01*
X23020998Y-62973198D01*
X23033594Y-63008402D01*
X23042679Y-63044671D01*
X23048165Y-63081655D01*
X23050000Y-63119000D01*
X23050000Y-63881000D01*
X23048165Y-63918345D01*
X23042679Y-63955329D01*
X23033594Y-63991598D01*
X23020998Y-64026802D01*
X23005012Y-64060602D01*
X22985790Y-64092672D01*
X22963517Y-64122704D01*
X22938408Y-64150408D01*
X22910704Y-64175517D01*
X22880672Y-64197790D01*
X22848602Y-64217012D01*
X22814802Y-64232998D01*
X22779598Y-64245594D01*
X22743329Y-64254679D01*
X22706345Y-64260165D01*
X22669000Y-64262000D01*
X15431000Y-64262000D01*
X15393655Y-64260165D01*
X15356671Y-64254679D01*
X15320402Y-64245594D01*
X15285198Y-64232998D01*
X15251398Y-64217012D01*
X15219328Y-64197790D01*
X15189296Y-64175517D01*
X15161592Y-64150408D01*
X15136483Y-64122704D01*
X15114210Y-64092672D01*
X15094988Y-64060602D01*
X15079002Y-64026802D01*
X15066406Y-63991598D01*
X15057321Y-63955329D01*
X15051835Y-63918345D01*
X15050000Y-63881000D01*
X15050000Y-63119000D01*
X15051835Y-63081655D01*
X15057321Y-63044671D01*
X15066406Y-63008402D01*
X15079002Y-62973198D01*
X15094988Y-62939398D01*
X15114210Y-62907328D01*
X15136483Y-62877296D01*
X15161592Y-62849592D01*
X15189296Y-62824483D01*
X15219328Y-62802210D01*
X15251398Y-62782988D01*
X15285198Y-62767002D01*
X15320402Y-62754406D01*
X15356671Y-62745321D01*
X15393655Y-62739835D01*
X15431000Y-62738000D01*
X22669000Y-62738000D01*
X22706345Y-62739835D01*
X22706345Y-62739835D01*
G37*
D11*
X19050000Y-63500000D03*
D10*
G36*
X22706345Y-65279835D02*
G01*
X22743329Y-65285321D01*
X22779598Y-65294406D01*
X22814802Y-65307002D01*
X22848602Y-65322988D01*
X22880672Y-65342210D01*
X22910704Y-65364483D01*
X22938408Y-65389592D01*
X22963517Y-65417296D01*
X22985790Y-65447328D01*
X23005012Y-65479398D01*
X23020998Y-65513198D01*
X23033594Y-65548402D01*
X23042679Y-65584671D01*
X23048165Y-65621655D01*
X23050000Y-65659000D01*
X23050000Y-66421000D01*
X23048165Y-66458345D01*
X23042679Y-66495329D01*
X23033594Y-66531598D01*
X23020998Y-66566802D01*
X23005012Y-66600602D01*
X22985790Y-66632672D01*
X22963517Y-66662704D01*
X22938408Y-66690408D01*
X22910704Y-66715517D01*
X22880672Y-66737790D01*
X22848602Y-66757012D01*
X22814802Y-66772998D01*
X22779598Y-66785594D01*
X22743329Y-66794679D01*
X22706345Y-66800165D01*
X22669000Y-66802000D01*
X15431000Y-66802000D01*
X15393655Y-66800165D01*
X15356671Y-66794679D01*
X15320402Y-66785594D01*
X15285198Y-66772998D01*
X15251398Y-66757012D01*
X15219328Y-66737790D01*
X15189296Y-66715517D01*
X15161592Y-66690408D01*
X15136483Y-66662704D01*
X15114210Y-66632672D01*
X15094988Y-66600602D01*
X15079002Y-66566802D01*
X15066406Y-66531598D01*
X15057321Y-66495329D01*
X15051835Y-66458345D01*
X15050000Y-66421000D01*
X15050000Y-65659000D01*
X15051835Y-65621655D01*
X15057321Y-65584671D01*
X15066406Y-65548402D01*
X15079002Y-65513198D01*
X15094988Y-65479398D01*
X15114210Y-65447328D01*
X15136483Y-65417296D01*
X15161592Y-65389592D01*
X15189296Y-65364483D01*
X15219328Y-65342210D01*
X15251398Y-65322988D01*
X15285198Y-65307002D01*
X15320402Y-65294406D01*
X15356671Y-65285321D01*
X15393655Y-65279835D01*
X15431000Y-65278000D01*
X22669000Y-65278000D01*
X22706345Y-65279835D01*
X22706345Y-65279835D01*
G37*
D11*
X19050000Y-66040000D03*
M02*
