M48
; DRILL file {KiCad (5.1.2-1)-1} date domingo, 30 de julio de 2023, 19:33:03
; FORMAT={-:-/ absolute / metric / decimal}
; #@! TF.CreationDate,2023-07-30T19:33:03+02:00
; #@! TF.GenerationSoftware,Kicad,Pcbnew,(5.1.2-1)-1
; #@! TF.FileFunction,Plated,1,2,PTH
FMAT,2
METRIC
T1C0.400
T2C0.800
%
G90
G05
T1
X26.67Y-66.04
X27.94Y-22.86
X29.845Y-24.13
X30.48Y-40.64
X30.48Y-58.42
X31.75Y-24.13
X38.1Y-27.94
X38.1Y-35.56
X38.1Y-38.1
X39.37Y-27.94
X40.64Y-33.02
X45.72Y-36.83
X46.355Y-24.13
X46.355Y-25.4
X46.355Y-33.02
X50.075Y-57.15
X52.07Y-24.13
X53.34Y-26.67
X53.34Y-31.75
T2
X27.94Y-25.4
X27.94Y-27.94
X27.94Y-30.48
X27.94Y-33.02
X27.94Y-35.56
X27.94Y-38.1
X27.94Y-40.64
X27.94Y-43.18
X27.94Y-45.72
X27.94Y-48.26
X27.94Y-50.8
X27.94Y-53.34
X27.94Y-55.88
X27.94Y-58.42
X27.94Y-60.96
X27.94Y-63.5
X43.18Y-25.4
X43.18Y-27.94
X43.18Y-30.48
X43.18Y-33.02
X43.18Y-35.56
X43.18Y-38.1
X43.18Y-40.64
X43.18Y-43.18
X43.18Y-45.72
X43.18Y-48.26
X43.18Y-50.8
X43.18Y-53.34
X43.18Y-55.88
X43.18Y-58.42
X43.18Y-60.96
X43.18Y-63.5
X48.26Y-25.4
X48.26Y-27.94
X48.26Y-30.48
X48.26Y-33.02
X48.26Y-35.56
X48.26Y-38.1
X48.26Y-40.64
X48.26Y-43.18
X55.88Y-25.4
X55.88Y-27.94
X55.88Y-30.48
X55.88Y-33.02
X55.88Y-35.56
X55.88Y-38.1
X55.88Y-40.64
X55.88Y-43.18
X48.26Y-55.88
X48.26Y-58.42
X48.26Y-60.96
X48.26Y-63.5
X48.26Y-66.04
X48.26Y-68.58
X48.26Y-71.12
X48.26Y-73.66
X55.88Y-55.88
X55.88Y-58.42
X55.88Y-60.96
X55.88Y-63.5
X55.88Y-66.04
X55.88Y-68.58
X55.88Y-71.12
X55.88Y-73.66
T0
M30
