G04 #@! TF.GenerationSoftware,KiCad,Pcbnew,(5.1.2-1)-1*
G04 #@! TF.CreationDate,2023-07-30T19:32:53+02:00*
G04 #@! TF.ProjectId,cart32bbs,63617274-3332-4626-9273-2e6b69636164,rev?*
G04 #@! TF.SameCoordinates,Original*
G04 #@! TF.FileFunction,Legend,Top*
G04 #@! TF.FilePolarity,Positive*
%FSLAX46Y46*%
G04 Gerber Fmt 4.6, Leading zero omitted, Abs format (unit mm)*
G04 Created by KiCad (PCBNEW (5.1.2-1)-1) date 2023-07-30 19:32:53*
%MOMM*%
%LPD*%
G04 APERTURE LIST*
%ADD10C,0.150000*%
%ADD11C,0.300000*%
%ADD12C,0.120000*%
%ADD13C,0.010000*%
%ADD14C,0.100000*%
%ADD15O,1.702000X1.702000*%
%ADD16R,1.702000X1.702000*%
%ADD17C,0.500000*%
%ADD18R,1.102000X1.602000*%
%ADD19R,1.602000X1.102000*%
%ADD20C,1.626000*%
G04 APERTURE END LIST*
D10*
X61044857Y-53841666D02*
X60973428Y-53984523D01*
X60973428Y-54222619D01*
X61044857Y-54317857D01*
X61116285Y-54365476D01*
X61259142Y-54413095D01*
X61402000Y-54413095D01*
X61544857Y-54365476D01*
X61616285Y-54317857D01*
X61687714Y-54222619D01*
X61759142Y-54032142D01*
X61830571Y-53936904D01*
X61902000Y-53889285D01*
X62044857Y-53841666D01*
X62187714Y-53841666D01*
X62330571Y-53889285D01*
X62402000Y-53936904D01*
X62473428Y-54032142D01*
X62473428Y-54270238D01*
X62402000Y-54413095D01*
X61973428Y-54746428D02*
X60973428Y-54936904D01*
X61687714Y-55127380D01*
X60973428Y-55317857D01*
X61973428Y-55508333D01*
X60973428Y-55889285D02*
X61973428Y-55889285D01*
X62473428Y-55889285D02*
X62402000Y-55841666D01*
X62330571Y-55889285D01*
X62402000Y-55936904D01*
X62473428Y-55889285D01*
X62330571Y-55889285D01*
X61973428Y-56222619D02*
X61973428Y-56603571D01*
X62473428Y-56365476D02*
X61187714Y-56365476D01*
X61044857Y-56413095D01*
X60973428Y-56508333D01*
X60973428Y-56603571D01*
X61044857Y-57365476D02*
X60973428Y-57270238D01*
X60973428Y-57079761D01*
X61044857Y-56984523D01*
X61116285Y-56936904D01*
X61259142Y-56889285D01*
X61687714Y-56889285D01*
X61830571Y-56936904D01*
X61902000Y-56984523D01*
X61973428Y-57079761D01*
X61973428Y-57270238D01*
X61902000Y-57365476D01*
X60973428Y-57794047D02*
X62473428Y-57794047D01*
X60973428Y-58222619D02*
X61759142Y-58222619D01*
X61902000Y-58175000D01*
X61973428Y-58079761D01*
X61973428Y-57936904D01*
X61902000Y-57841666D01*
X61830571Y-57794047D01*
X60973428Y-58698809D02*
X61973428Y-58698809D01*
X62473428Y-58698809D02*
X62402000Y-58651190D01*
X62330571Y-58698809D01*
X62402000Y-58746428D01*
X62473428Y-58698809D01*
X62330571Y-58698809D01*
X61973428Y-59175000D02*
X60973428Y-59175000D01*
X61830571Y-59175000D02*
X61902000Y-59222619D01*
X61973428Y-59317857D01*
X61973428Y-59460714D01*
X61902000Y-59555952D01*
X61759142Y-59603571D01*
X60973428Y-59603571D01*
X61973428Y-60508333D02*
X60759142Y-60508333D01*
X60616285Y-60460714D01*
X60544857Y-60413095D01*
X60473428Y-60317857D01*
X60473428Y-60175000D01*
X60544857Y-60079761D01*
X61044857Y-60508333D02*
X60973428Y-60413095D01*
X60973428Y-60222619D01*
X61044857Y-60127380D01*
X61116285Y-60079761D01*
X61259142Y-60032142D01*
X61687714Y-60032142D01*
X61830571Y-60079761D01*
X61902000Y-60127380D01*
X61973428Y-60222619D01*
X61973428Y-60413095D01*
X61902000Y-60508333D01*
X61044857Y-62175000D02*
X60973428Y-62079761D01*
X60973428Y-61889285D01*
X61044857Y-61794047D01*
X61116285Y-61746428D01*
X61259142Y-61698809D01*
X61687714Y-61698809D01*
X61830571Y-61746428D01*
X61902000Y-61794047D01*
X61973428Y-61889285D01*
X61973428Y-62079761D01*
X61902000Y-62175000D01*
X60973428Y-63032142D02*
X61759142Y-63032142D01*
X61902000Y-62984523D01*
X61973428Y-62889285D01*
X61973428Y-62698809D01*
X61902000Y-62603571D01*
X61044857Y-63032142D02*
X60973428Y-62936904D01*
X60973428Y-62698809D01*
X61044857Y-62603571D01*
X61187714Y-62555952D01*
X61330571Y-62555952D01*
X61473428Y-62603571D01*
X61544857Y-62698809D01*
X61544857Y-62936904D01*
X61616285Y-63032142D01*
X60973428Y-63508333D02*
X61973428Y-63508333D01*
X61687714Y-63508333D02*
X61830571Y-63555952D01*
X61902000Y-63603571D01*
X61973428Y-63698809D01*
X61973428Y-63794047D01*
X61973428Y-63984523D02*
X61973428Y-64365476D01*
X62473428Y-64127380D02*
X61187714Y-64127380D01*
X61044857Y-64175000D01*
X60973428Y-64270238D01*
X60973428Y-64365476D01*
X60973428Y-64698809D02*
X61973428Y-64698809D01*
X61687714Y-64698809D02*
X61830571Y-64746428D01*
X61902000Y-64794047D01*
X61973428Y-64889285D01*
X61973428Y-64984523D01*
X60973428Y-65317857D02*
X61973428Y-65317857D01*
X62473428Y-65317857D02*
X62402000Y-65270238D01*
X62330571Y-65317857D01*
X62402000Y-65365476D01*
X62473428Y-65317857D01*
X62330571Y-65317857D01*
X60973428Y-66222619D02*
X62473428Y-66222619D01*
X61044857Y-66222619D02*
X60973428Y-66127380D01*
X60973428Y-65936904D01*
X61044857Y-65841666D01*
X61116285Y-65794047D01*
X61259142Y-65746428D01*
X61687714Y-65746428D01*
X61830571Y-65794047D01*
X61902000Y-65841666D01*
X61973428Y-65936904D01*
X61973428Y-66127380D01*
X61902000Y-66222619D01*
X61973428Y-67127380D02*
X60759142Y-67127380D01*
X60616285Y-67079761D01*
X60544857Y-67032142D01*
X60473428Y-66936904D01*
X60473428Y-66794047D01*
X60544857Y-66698809D01*
X61044857Y-67127380D02*
X60973428Y-67032142D01*
X60973428Y-66841666D01*
X61044857Y-66746428D01*
X61116285Y-66698809D01*
X61259142Y-66651190D01*
X61687714Y-66651190D01*
X61830571Y-66698809D01*
X61902000Y-66746428D01*
X61973428Y-66841666D01*
X61973428Y-67032142D01*
X61902000Y-67127380D01*
X61044857Y-67984523D02*
X60973428Y-67889285D01*
X60973428Y-67698809D01*
X61044857Y-67603571D01*
X61187714Y-67555952D01*
X61759142Y-67555952D01*
X61902000Y-67603571D01*
X61973428Y-67698809D01*
X61973428Y-67889285D01*
X61902000Y-67984523D01*
X61759142Y-68032142D01*
X61616285Y-68032142D01*
X61473428Y-67555952D01*
X61973428Y-69079761D02*
X61973428Y-69460714D01*
X60973428Y-69222619D02*
X62259142Y-69222619D01*
X62402000Y-69270238D01*
X62473428Y-69365476D01*
X62473428Y-69460714D01*
X60973428Y-69936904D02*
X61044857Y-69841666D01*
X61116285Y-69794047D01*
X61259142Y-69746428D01*
X61687714Y-69746428D01*
X61830571Y-69794047D01*
X61902000Y-69841666D01*
X61973428Y-69936904D01*
X61973428Y-70079761D01*
X61902000Y-70175000D01*
X61830571Y-70222619D01*
X61687714Y-70270238D01*
X61259142Y-70270238D01*
X61116285Y-70222619D01*
X61044857Y-70175000D01*
X60973428Y-70079761D01*
X60973428Y-69936904D01*
X60973428Y-70698809D02*
X61973428Y-70698809D01*
X61687714Y-70698809D02*
X61830571Y-70746428D01*
X61902000Y-70794047D01*
X61973428Y-70889285D01*
X61973428Y-70984523D01*
X60973428Y-72079761D02*
X62473428Y-72079761D01*
X62473428Y-72317857D01*
X62402000Y-72460714D01*
X62259142Y-72555952D01*
X62116285Y-72603571D01*
X61830571Y-72651190D01*
X61616285Y-72651190D01*
X61330571Y-72603571D01*
X61187714Y-72555952D01*
X61044857Y-72460714D01*
X60973428Y-72317857D01*
X60973428Y-72079761D01*
X61973428Y-73508333D02*
X60973428Y-73508333D01*
X61973428Y-73079761D02*
X61187714Y-73079761D01*
X61044857Y-73127380D01*
X60973428Y-73222619D01*
X60973428Y-73365476D01*
X61044857Y-73460714D01*
X61116285Y-73508333D01*
X60973428Y-73984523D02*
X61973428Y-73984523D01*
X61687714Y-73984523D02*
X61830571Y-74032142D01*
X61902000Y-74079761D01*
X61973428Y-74175000D01*
X61973428Y-74270238D01*
X60973428Y-75032142D02*
X61759142Y-75032142D01*
X61902000Y-74984523D01*
X61973428Y-74889285D01*
X61973428Y-74698809D01*
X61902000Y-74603571D01*
X61044857Y-75032142D02*
X60973428Y-74936904D01*
X60973428Y-74698809D01*
X61044857Y-74603571D01*
X61187714Y-74555952D01*
X61330571Y-74555952D01*
X61473428Y-74603571D01*
X61544857Y-74698809D01*
X61544857Y-74936904D01*
X61616285Y-75032142D01*
X61973428Y-75508333D02*
X60973428Y-75508333D01*
X61830571Y-75508333D02*
X61902000Y-75555952D01*
X61973428Y-75651190D01*
X61973428Y-75794047D01*
X61902000Y-75889285D01*
X61759142Y-75936904D01*
X60973428Y-75936904D01*
X61973428Y-76841666D02*
X60759142Y-76841666D01*
X60616285Y-76794047D01*
X60544857Y-76746428D01*
X60473428Y-76651190D01*
X60473428Y-76508333D01*
X60544857Y-76413095D01*
X61044857Y-76841666D02*
X60973428Y-76746428D01*
X60973428Y-76555952D01*
X61044857Y-76460714D01*
X61116285Y-76413095D01*
X61259142Y-76365476D01*
X61687714Y-76365476D01*
X61830571Y-76413095D01*
X61902000Y-76460714D01*
X61973428Y-76555952D01*
X61973428Y-76746428D01*
X61902000Y-76841666D01*
X60973428Y-77460714D02*
X61044857Y-77365476D01*
X61116285Y-77317857D01*
X61259142Y-77270238D01*
X61687714Y-77270238D01*
X61830571Y-77317857D01*
X61902000Y-77365476D01*
X61973428Y-77460714D01*
X61973428Y-77603571D01*
X61902000Y-77698809D01*
X61830571Y-77746428D01*
X61687714Y-77794047D01*
X61259142Y-77794047D01*
X61116285Y-77746428D01*
X61044857Y-77698809D01*
X60973428Y-77603571D01*
X60973428Y-77460714D01*
X61616285Y-78365476D02*
X61544857Y-78317857D01*
X61473428Y-78365476D01*
X61544857Y-78413095D01*
X61616285Y-78365476D01*
X61473428Y-78365476D01*
X62473428Y-78889285D02*
X60973428Y-79555952D01*
X62473428Y-79555952D02*
X60973428Y-78889285D01*
X58002000Y-60175000D02*
X58073428Y-60127380D01*
X58287714Y-60032142D01*
X58430571Y-59984523D01*
X58644857Y-59936904D01*
X59002000Y-59889285D01*
X59287714Y-59889285D01*
X59644857Y-59936904D01*
X59859142Y-59984523D01*
X60002000Y-60032142D01*
X60216285Y-60127380D01*
X60287714Y-60175000D01*
X58573428Y-61079761D02*
X58573428Y-60508333D01*
X58573428Y-60794047D02*
X60073428Y-60794047D01*
X59859142Y-60698809D01*
X59716285Y-60603571D01*
X59644857Y-60508333D01*
X60073428Y-61936904D02*
X60073428Y-61746428D01*
X60002000Y-61651190D01*
X59930571Y-61603571D01*
X59716285Y-61508333D01*
X59430571Y-61460714D01*
X58859142Y-61460714D01*
X58716285Y-61508333D01*
X58644857Y-61555952D01*
X58573428Y-61651190D01*
X58573428Y-61841666D01*
X58644857Y-61936904D01*
X58716285Y-61984523D01*
X58859142Y-62032142D01*
X59216285Y-62032142D01*
X59359142Y-61984523D01*
X59430571Y-61936904D01*
X59502000Y-61841666D01*
X59502000Y-61651190D01*
X59430571Y-61555952D01*
X59359142Y-61508333D01*
X59216285Y-61460714D01*
X60144857Y-63175000D02*
X58216285Y-62317857D01*
X60073428Y-63413095D02*
X60073428Y-64032142D01*
X59502000Y-63698809D01*
X59502000Y-63841666D01*
X59430571Y-63936904D01*
X59359142Y-63984523D01*
X59216285Y-64032142D01*
X58859142Y-64032142D01*
X58716285Y-63984523D01*
X58644857Y-63936904D01*
X58573428Y-63841666D01*
X58573428Y-63555952D01*
X58644857Y-63460714D01*
X58716285Y-63413095D01*
X59930571Y-64413095D02*
X60002000Y-64460714D01*
X60073428Y-64555952D01*
X60073428Y-64794047D01*
X60002000Y-64889285D01*
X59930571Y-64936904D01*
X59787714Y-64984523D01*
X59644857Y-64984523D01*
X59430571Y-64936904D01*
X58573428Y-64365476D01*
X58573428Y-64984523D01*
X58573428Y-66175000D02*
X60073428Y-66175000D01*
X58573428Y-66746428D02*
X59430571Y-66317857D01*
X60073428Y-66746428D02*
X59216285Y-66175000D01*
X59359142Y-67508333D02*
X59287714Y-67651190D01*
X59216285Y-67698809D01*
X59073428Y-67746428D01*
X58859142Y-67746428D01*
X58716285Y-67698809D01*
X58644857Y-67651190D01*
X58573428Y-67555952D01*
X58573428Y-67175000D01*
X60073428Y-67175000D01*
X60073428Y-67508333D01*
X60002000Y-67603571D01*
X59930571Y-67651190D01*
X59787714Y-67698809D01*
X59644857Y-67698809D01*
X59502000Y-67651190D01*
X59430571Y-67603571D01*
X59359142Y-67508333D01*
X59359142Y-67175000D01*
X58573428Y-68936904D02*
X60073428Y-68936904D01*
X59502000Y-68936904D02*
X59573428Y-69032142D01*
X59573428Y-69222619D01*
X59502000Y-69317857D01*
X59430571Y-69365476D01*
X59287714Y-69413095D01*
X58859142Y-69413095D01*
X58716285Y-69365476D01*
X58644857Y-69317857D01*
X58573428Y-69222619D01*
X58573428Y-69032142D01*
X58644857Y-68936904D01*
X58573428Y-70270238D02*
X59359142Y-70270238D01*
X59502000Y-70222619D01*
X59573428Y-70127380D01*
X59573428Y-69936904D01*
X59502000Y-69841666D01*
X58644857Y-70270238D02*
X58573428Y-70175000D01*
X58573428Y-69936904D01*
X58644857Y-69841666D01*
X58787714Y-69794047D01*
X58930571Y-69794047D01*
X59073428Y-69841666D01*
X59144857Y-69936904D01*
X59144857Y-70175000D01*
X59216285Y-70270238D01*
X59573428Y-70746428D02*
X58573428Y-70746428D01*
X59430571Y-70746428D02*
X59502000Y-70794047D01*
X59573428Y-70889285D01*
X59573428Y-71032142D01*
X59502000Y-71127380D01*
X59359142Y-71175000D01*
X58573428Y-71175000D01*
X58573428Y-71651190D02*
X60073428Y-71651190D01*
X59144857Y-71746428D02*
X58573428Y-72032142D01*
X59573428Y-72032142D02*
X59002000Y-71651190D01*
X58644857Y-72413095D02*
X58573428Y-72508333D01*
X58573428Y-72698809D01*
X58644857Y-72794047D01*
X58787714Y-72841666D01*
X58859142Y-72841666D01*
X59002000Y-72794047D01*
X59073428Y-72698809D01*
X59073428Y-72555952D01*
X59144857Y-72460714D01*
X59287714Y-72413095D01*
X59359142Y-72413095D01*
X59502000Y-72460714D01*
X59573428Y-72555952D01*
X59573428Y-72698809D01*
X59502000Y-72794047D01*
X58002000Y-73175000D02*
X58073428Y-73222619D01*
X58287714Y-73317857D01*
X58430571Y-73365476D01*
X58644857Y-73413095D01*
X59002000Y-73460714D01*
X59287714Y-73460714D01*
X59644857Y-73413095D01*
X59859142Y-73365476D01*
X60002000Y-73317857D01*
X60216285Y-73222619D01*
X60287714Y-73175000D01*
X59646428Y-26956666D02*
X59646428Y-26385238D01*
X59646428Y-26670952D02*
X61146428Y-26670952D01*
X60932142Y-26575714D01*
X60789285Y-26480476D01*
X60717857Y-26385238D01*
X61003571Y-27337619D02*
X61075000Y-27385238D01*
X61146428Y-27480476D01*
X61146428Y-27718571D01*
X61075000Y-27813809D01*
X61003571Y-27861428D01*
X60860714Y-27909047D01*
X60717857Y-27909047D01*
X60503571Y-27861428D01*
X59646428Y-27290000D01*
X59646428Y-27909047D01*
X60503571Y-28480476D02*
X60575000Y-28385238D01*
X60646428Y-28337619D01*
X60789285Y-28290000D01*
X60860714Y-28290000D01*
X61003571Y-28337619D01*
X61075000Y-28385238D01*
X61146428Y-28480476D01*
X61146428Y-28670952D01*
X61075000Y-28766190D01*
X61003571Y-28813809D01*
X60860714Y-28861428D01*
X60789285Y-28861428D01*
X60646428Y-28813809D01*
X60575000Y-28766190D01*
X60503571Y-28670952D01*
X60503571Y-28480476D01*
X60432142Y-28385238D01*
X60360714Y-28337619D01*
X60217857Y-28290000D01*
X59932142Y-28290000D01*
X59789285Y-28337619D01*
X59717857Y-28385238D01*
X59646428Y-28480476D01*
X59646428Y-28670952D01*
X59717857Y-28766190D01*
X59789285Y-28813809D01*
X59932142Y-28861428D01*
X60217857Y-28861428D01*
X60360714Y-28813809D01*
X60432142Y-28766190D01*
X60503571Y-28670952D01*
X59646428Y-30051904D02*
X61146428Y-30051904D01*
X59646428Y-30623333D02*
X60503571Y-30194761D01*
X61146428Y-30623333D02*
X60289285Y-30051904D01*
X60432142Y-31385238D02*
X60360714Y-31528095D01*
X60289285Y-31575714D01*
X60146428Y-31623333D01*
X59932142Y-31623333D01*
X59789285Y-31575714D01*
X59717857Y-31528095D01*
X59646428Y-31432857D01*
X59646428Y-31051904D01*
X61146428Y-31051904D01*
X61146428Y-31385238D01*
X61075000Y-31480476D01*
X61003571Y-31528095D01*
X60860714Y-31575714D01*
X60717857Y-31575714D01*
X60575000Y-31528095D01*
X60503571Y-31480476D01*
X60432142Y-31385238D01*
X60432142Y-31051904D01*
X60217857Y-32813809D02*
X60217857Y-33575714D01*
X59646428Y-35337619D02*
X59646428Y-34766190D01*
X59646428Y-35051904D02*
X61146428Y-35051904D01*
X60932142Y-34956666D01*
X60789285Y-34861428D01*
X60717857Y-34766190D01*
X59646428Y-36528095D02*
X61146428Y-36528095D01*
X60075000Y-36861428D01*
X61146428Y-37194761D01*
X59646428Y-37194761D01*
X60432142Y-38004285D02*
X60360714Y-38147142D01*
X60289285Y-38194761D01*
X60146428Y-38242380D01*
X59932142Y-38242380D01*
X59789285Y-38194761D01*
X59717857Y-38147142D01*
X59646428Y-38051904D01*
X59646428Y-37670952D01*
X61146428Y-37670952D01*
X61146428Y-38004285D01*
X61075000Y-38099523D01*
X61003571Y-38147142D01*
X60860714Y-38194761D01*
X60717857Y-38194761D01*
X60575000Y-38147142D01*
X60503571Y-38099523D01*
X60432142Y-38004285D01*
X60432142Y-37670952D01*
X59646428Y-40004285D02*
X60360714Y-39670952D01*
X59646428Y-39432857D02*
X61146428Y-39432857D01*
X61146428Y-39813809D01*
X61075000Y-39909047D01*
X61003571Y-39956666D01*
X60860714Y-40004285D01*
X60646428Y-40004285D01*
X60503571Y-39956666D01*
X60432142Y-39909047D01*
X60360714Y-39813809D01*
X60360714Y-39432857D01*
X61146428Y-40623333D02*
X61146428Y-40813809D01*
X61075000Y-40909047D01*
X60932142Y-41004285D01*
X60646428Y-41051904D01*
X60146428Y-41051904D01*
X59860714Y-41004285D01*
X59717857Y-40909047D01*
X59646428Y-40813809D01*
X59646428Y-40623333D01*
X59717857Y-40528095D01*
X59860714Y-40432857D01*
X60146428Y-40385238D01*
X60646428Y-40385238D01*
X60932142Y-40432857D01*
X61075000Y-40528095D01*
X61146428Y-40623333D01*
X59646428Y-41480476D02*
X61146428Y-41480476D01*
X60075000Y-41813809D01*
X61146428Y-42147142D01*
X59646428Y-42147142D01*
D11*
X34097142Y-20284285D02*
X34025714Y-20212857D01*
X33882857Y-20141428D01*
X33740000Y-20141428D01*
X33597142Y-20212857D01*
X33525714Y-20284285D01*
X33454285Y-20427142D01*
X33454285Y-20570000D01*
X33525714Y-20712857D01*
X33597142Y-20784285D01*
X33740000Y-20855714D01*
X33882857Y-20855714D01*
X34025714Y-20784285D01*
X34097142Y-20712857D01*
X34097142Y-20141428D02*
X34097142Y-20712857D01*
X34168571Y-20784285D01*
X34240000Y-20784285D01*
X34382857Y-20712857D01*
X34454285Y-20570000D01*
X34454285Y-20212857D01*
X34311428Y-19998571D01*
X34097142Y-19855714D01*
X33811428Y-19784285D01*
X33525714Y-19855714D01*
X33311428Y-19998571D01*
X33168571Y-20212857D01*
X33097142Y-20498571D01*
X33168571Y-20784285D01*
X33311428Y-20998571D01*
X33525714Y-21141428D01*
X33811428Y-21212857D01*
X34097142Y-21141428D01*
X34311428Y-20998571D01*
X34954285Y-19998571D02*
X35740000Y-19998571D01*
X34954285Y-20998571D01*
X35740000Y-20998571D01*
X36954285Y-19998571D02*
X36954285Y-20998571D01*
X36311428Y-19998571D02*
X36311428Y-20784285D01*
X36382857Y-20927142D01*
X36525714Y-20998571D01*
X36740000Y-20998571D01*
X36882857Y-20927142D01*
X36954285Y-20855714D01*
X37668571Y-20998571D02*
X37668571Y-19998571D01*
X37668571Y-19498571D02*
X37597142Y-19570000D01*
X37668571Y-19641428D01*
X37740000Y-19570000D01*
X37668571Y-19498571D01*
X37668571Y-19641428D01*
X38382857Y-20998571D02*
X38382857Y-19498571D01*
X38525714Y-20427142D02*
X38954285Y-20998571D01*
X38954285Y-19998571D02*
X38382857Y-20570000D01*
X39811428Y-20998571D02*
X39668571Y-20927142D01*
X39597142Y-20855714D01*
X39525714Y-20712857D01*
X39525714Y-20284285D01*
X39597142Y-20141428D01*
X39668571Y-20070000D01*
X39811428Y-19998571D01*
X40025714Y-19998571D01*
X40168571Y-20070000D01*
X40240000Y-20141428D01*
X40311428Y-20284285D01*
X40311428Y-20712857D01*
X40240000Y-20855714D01*
X40168571Y-20927142D01*
X40025714Y-20998571D01*
X39811428Y-20998571D01*
X40882857Y-19641428D02*
X40954285Y-19570000D01*
X41097142Y-19498571D01*
X41454285Y-19498571D01*
X41597142Y-19570000D01*
X41668571Y-19641428D01*
X41740000Y-19784285D01*
X41740000Y-19927142D01*
X41668571Y-20141428D01*
X40811428Y-20998571D01*
X41740000Y-20998571D01*
X43168571Y-20998571D02*
X42311428Y-20998571D01*
X42740000Y-20998571D02*
X42740000Y-19498571D01*
X42597142Y-19712857D01*
X42454285Y-19855714D01*
X42311428Y-19927142D01*
X45954285Y-19998571D02*
X46311428Y-20998571D01*
X46668571Y-19998571D01*
X48025714Y-20998571D02*
X47168571Y-20998571D01*
X47597142Y-20998571D02*
X47597142Y-19498571D01*
X47454285Y-19712857D01*
X47311428Y-19855714D01*
X47168571Y-19927142D01*
X50240000Y-21570000D02*
X50168571Y-21498571D01*
X50025714Y-21284285D01*
X49954285Y-21141428D01*
X49882857Y-20927142D01*
X49811428Y-20570000D01*
X49811428Y-20284285D01*
X49882857Y-19927142D01*
X49954285Y-19712857D01*
X50025714Y-19570000D01*
X50168571Y-19355714D01*
X50240000Y-19284285D01*
X50740000Y-19641428D02*
X50811428Y-19570000D01*
X50954285Y-19498571D01*
X51311428Y-19498571D01*
X51454285Y-19570000D01*
X51525714Y-19641428D01*
X51597142Y-19784285D01*
X51597142Y-19927142D01*
X51525714Y-20141428D01*
X50668571Y-20998571D01*
X51597142Y-20998571D01*
X52525714Y-19498571D02*
X52668571Y-19498571D01*
X52811428Y-19570000D01*
X52882857Y-19641428D01*
X52954285Y-19784285D01*
X53025714Y-20070000D01*
X53025714Y-20427142D01*
X52954285Y-20712857D01*
X52882857Y-20855714D01*
X52811428Y-20927142D01*
X52668571Y-20998571D01*
X52525714Y-20998571D01*
X52382857Y-20927142D01*
X52311428Y-20855714D01*
X52240000Y-20712857D01*
X52168571Y-20427142D01*
X52168571Y-20070000D01*
X52240000Y-19784285D01*
X52311428Y-19641428D01*
X52382857Y-19570000D01*
X52525714Y-19498571D01*
X53597142Y-19641428D02*
X53668571Y-19570000D01*
X53811428Y-19498571D01*
X54168571Y-19498571D01*
X54311428Y-19570000D01*
X54382857Y-19641428D01*
X54454285Y-19784285D01*
X54454285Y-19927142D01*
X54382857Y-20141428D01*
X53525714Y-20998571D01*
X54454285Y-20998571D01*
X54954285Y-19498571D02*
X55882857Y-19498571D01*
X55382857Y-20070000D01*
X55597142Y-20070000D01*
X55740000Y-20141428D01*
X55811428Y-20212857D01*
X55882857Y-20355714D01*
X55882857Y-20712857D01*
X55811428Y-20855714D01*
X55740000Y-20927142D01*
X55597142Y-20998571D01*
X55168571Y-20998571D01*
X55025714Y-20927142D01*
X54954285Y-20855714D01*
X56740000Y-20355714D02*
X56668571Y-20427142D01*
X56740000Y-20498571D01*
X56811428Y-20427142D01*
X56740000Y-20355714D01*
X56740000Y-20498571D01*
X57954285Y-19498571D02*
X58097142Y-19498571D01*
X58240000Y-19570000D01*
X58311428Y-19641428D01*
X58382857Y-19784285D01*
X58454285Y-20070000D01*
X58454285Y-20427142D01*
X58382857Y-20712857D01*
X58311428Y-20855714D01*
X58240000Y-20927142D01*
X58097142Y-20998571D01*
X57954285Y-20998571D01*
X57811428Y-20927142D01*
X57740000Y-20855714D01*
X57668571Y-20712857D01*
X57597142Y-20427142D01*
X57597142Y-20070000D01*
X57668571Y-19784285D01*
X57740000Y-19641428D01*
X57811428Y-19570000D01*
X57954285Y-19498571D01*
X59740000Y-19498571D02*
X59454285Y-19498571D01*
X59311428Y-19570000D01*
X59240000Y-19641428D01*
X59097142Y-19855714D01*
X59025714Y-20141428D01*
X59025714Y-20712857D01*
X59097142Y-20855714D01*
X59168571Y-20927142D01*
X59311428Y-20998571D01*
X59597142Y-20998571D01*
X59740000Y-20927142D01*
X59811428Y-20855714D01*
X59882857Y-20712857D01*
X59882857Y-20355714D01*
X59811428Y-20212857D01*
X59740000Y-20141428D01*
X59597142Y-20070000D01*
X59311428Y-20070000D01*
X59168571Y-20141428D01*
X59097142Y-20212857D01*
X59025714Y-20355714D01*
X60382857Y-21570000D02*
X60454285Y-21498571D01*
X60597142Y-21284285D01*
X60668571Y-21141428D01*
X60740000Y-20927142D01*
X60811428Y-20570000D01*
X60811428Y-20284285D01*
X60740000Y-19927142D01*
X60668571Y-19712857D01*
X60597142Y-19570000D01*
X60454285Y-19355714D01*
X60382857Y-19284285D01*
X49022000Y-49530000D02*
X47117000Y-51435000D01*
X49022000Y-49530000D02*
X47117000Y-47625000D01*
X51562000Y-49530000D02*
X49022000Y-49530000D01*
X51054000Y-46990000D02*
X51054000Y-52070000D01*
X51054000Y-46990000D02*
G75*
G02X51054000Y-52070000I0J-2540000D01*
G01*
X52832000Y-49530000D02*
G75*
G03X52832000Y-49530000I-635000J0D01*
G01*
D12*
X29100000Y-64830000D02*
X34560000Y-64830000D01*
X29100000Y-24070000D02*
X29100000Y-64830000D01*
X42020000Y-24070000D02*
X29100000Y-24070000D01*
X42020000Y-64830000D02*
X42020000Y-24070000D01*
X36560000Y-64830000D02*
X42020000Y-64830000D01*
X34560000Y-64830000D02*
G75*
G02X36560000Y-64830000I1000000J0D01*
G01*
X37290000Y-66375000D02*
G75*
G02X37990000Y-65675000I700000J0D01*
G01*
X37990000Y-67675000D02*
G75*
G02X37290000Y-66975000I0J700000D01*
G01*
X41390000Y-66975000D02*
G75*
G02X40690000Y-67675000I-700000J0D01*
G01*
X40690000Y-65675000D02*
G75*
G02X41390000Y-66375000I0J-700000D01*
G01*
X37940000Y-65675000D02*
X40740000Y-65675000D01*
X41390000Y-66375000D02*
X41390000Y-66975000D01*
X40740000Y-67675000D02*
X37940000Y-67675000D01*
X37290000Y-66975000D02*
X37290000Y-66375000D01*
X38140000Y-67875000D02*
X37840000Y-68175000D01*
X37840000Y-68175000D02*
X38440000Y-68175000D01*
X38140000Y-67875000D02*
X38440000Y-68175000D01*
X27160000Y-66375000D02*
G75*
G02X27860000Y-65675000I700000J0D01*
G01*
X27860000Y-67675000D02*
G75*
G02X27160000Y-66975000I0J700000D01*
G01*
X31260000Y-66975000D02*
G75*
G02X30560000Y-67675000I-700000J0D01*
G01*
X30560000Y-65675000D02*
G75*
G02X31260000Y-66375000I0J-700000D01*
G01*
X27810000Y-65675000D02*
X30610000Y-65675000D01*
X31260000Y-66375000D02*
X31260000Y-66975000D01*
X30610000Y-67675000D02*
X27810000Y-67675000D01*
X27160000Y-66975000D02*
X27160000Y-66375000D01*
X28010000Y-67875000D02*
X27710000Y-68175000D01*
X27710000Y-68175000D02*
X28310000Y-68175000D01*
X28010000Y-67875000D02*
X28310000Y-68175000D01*
X25227000Y-57930000D02*
G75*
G02X24527000Y-57230000I0J700000D01*
G01*
X26527000Y-57230000D02*
G75*
G02X25827000Y-57930000I-700000J0D01*
G01*
X25827000Y-53830000D02*
G75*
G02X26527000Y-54530000I0J-700000D01*
G01*
X24527000Y-54530000D02*
G75*
G02X25227000Y-53830000I700000J0D01*
G01*
X24527000Y-57280000D02*
X24527000Y-54480000D01*
X25227000Y-53830000D02*
X25827000Y-53830000D01*
X26527000Y-54480000D02*
X26527000Y-57280000D01*
X25827000Y-57930000D02*
X25227000Y-57930000D01*
X26727000Y-57080000D02*
X27027000Y-57380000D01*
X27027000Y-57380000D02*
X27027000Y-56780000D01*
X26727000Y-57080000D02*
X27027000Y-56780000D01*
D13*
G36*
X46162678Y-76685285D02*
G01*
X46351371Y-76810780D01*
X46582859Y-76998228D01*
X46157635Y-77339947D01*
X45866410Y-77565114D01*
X45700687Y-77663052D01*
X45627733Y-77647115D01*
X45614166Y-77561653D01*
X45627353Y-77471806D01*
X45737704Y-77471806D01*
X46047596Y-77251143D01*
X46235724Y-77082567D01*
X46302606Y-76949584D01*
X46297081Y-76932740D01*
X46153432Y-76834557D01*
X45991830Y-76920581D01*
X45857888Y-77153403D01*
X45737704Y-77471806D01*
X45627353Y-77471806D01*
X45650627Y-77313238D01*
X45740316Y-77026532D01*
X45853694Y-76775361D01*
X45961218Y-76633555D01*
X45989610Y-76623333D01*
X46162678Y-76685285D01*
X46162678Y-76685285D01*
G37*
X46162678Y-76685285D02*
X46351371Y-76810780D01*
X46582859Y-76998228D01*
X46157635Y-77339947D01*
X45866410Y-77565114D01*
X45700687Y-77663052D01*
X45627733Y-77647115D01*
X45614166Y-77561653D01*
X45627353Y-77471806D01*
X45737704Y-77471806D01*
X46047596Y-77251143D01*
X46235724Y-77082567D01*
X46302606Y-76949584D01*
X46297081Y-76932740D01*
X46153432Y-76834557D01*
X45991830Y-76920581D01*
X45857888Y-77153403D01*
X45737704Y-77471806D01*
X45627353Y-77471806D01*
X45650627Y-77313238D01*
X45740316Y-77026532D01*
X45853694Y-76775361D01*
X45961218Y-76633555D01*
X45989610Y-76623333D01*
X46162678Y-76685285D01*
G36*
X47087901Y-78496055D02*
G01*
X47160609Y-78924023D01*
X47228639Y-79320365D01*
X47271867Y-79568525D01*
X47300525Y-79804873D01*
X47240902Y-79892085D01*
X47049783Y-79887837D01*
X47033982Y-79886025D01*
X46775010Y-79788492D01*
X46660776Y-79586666D01*
X46587765Y-79322083D01*
X46577216Y-79613125D01*
X46532233Y-79828648D01*
X46379916Y-79900971D01*
X46302083Y-79904166D01*
X46100598Y-79860236D01*
X46043864Y-79694820D01*
X46044142Y-79666041D01*
X46063616Y-79446910D01*
X46108714Y-79092084D01*
X46170069Y-78674621D01*
X46176433Y-78634166D01*
X46240679Y-78250656D01*
X46508194Y-78250656D01*
X46542094Y-78581250D01*
X46604126Y-79110416D01*
X46720043Y-78581250D01*
X46779715Y-78257565D01*
X46774646Y-78086621D01*
X46702470Y-78018888D01*
X46693030Y-78016269D01*
X46570436Y-78000950D01*
X46512777Y-78064280D01*
X46508194Y-78250656D01*
X46240679Y-78250656D01*
X46243839Y-78231796D01*
X46304825Y-77993020D01*
X46384703Y-77872158D01*
X46508788Y-77823530D01*
X46634163Y-77808138D01*
X46966244Y-77775860D01*
X47087901Y-78496055D01*
X47087901Y-78496055D01*
G37*
X47087901Y-78496055D02*
X47160609Y-78924023D01*
X47228639Y-79320365D01*
X47271867Y-79568525D01*
X47300525Y-79804873D01*
X47240902Y-79892085D01*
X47049783Y-79887837D01*
X47033982Y-79886025D01*
X46775010Y-79788492D01*
X46660776Y-79586666D01*
X46587765Y-79322083D01*
X46577216Y-79613125D01*
X46532233Y-79828648D01*
X46379916Y-79900971D01*
X46302083Y-79904166D01*
X46100598Y-79860236D01*
X46043864Y-79694820D01*
X46044142Y-79666041D01*
X46063616Y-79446910D01*
X46108714Y-79092084D01*
X46170069Y-78674621D01*
X46176433Y-78634166D01*
X46240679Y-78250656D01*
X46508194Y-78250656D01*
X46542094Y-78581250D01*
X46604126Y-79110416D01*
X46720043Y-78581250D01*
X46779715Y-78257565D01*
X46774646Y-78086621D01*
X46702470Y-78018888D01*
X46693030Y-78016269D01*
X46570436Y-78000950D01*
X46512777Y-78064280D01*
X46508194Y-78250656D01*
X46240679Y-78250656D01*
X46243839Y-78231796D01*
X46304825Y-77993020D01*
X46384703Y-77872158D01*
X46508788Y-77823530D01*
X46634163Y-77808138D01*
X46966244Y-77775860D01*
X47087901Y-78496055D01*
G36*
X45735677Y-77847963D02*
G01*
X45814171Y-77896678D01*
X45860823Y-78025671D01*
X45886812Y-78274053D01*
X45903313Y-78680934D01*
X45909040Y-78872291D01*
X45939331Y-79904166D01*
X45289001Y-79904166D01*
X45319292Y-78872291D01*
X45335113Y-78399263D01*
X45356427Y-78098715D01*
X45394409Y-77931537D01*
X45460237Y-77858617D01*
X45565088Y-77840845D01*
X45614166Y-77840416D01*
X45735677Y-77847963D01*
X45735677Y-77847963D01*
G37*
X45735677Y-77847963D02*
X45814171Y-77896678D01*
X45860823Y-78025671D01*
X45886812Y-78274053D01*
X45903313Y-78680934D01*
X45909040Y-78872291D01*
X45939331Y-79904166D01*
X45289001Y-79904166D01*
X45319292Y-78872291D01*
X45335113Y-78399263D01*
X45356427Y-78098715D01*
X45394409Y-77931537D01*
X45460237Y-77858617D01*
X45565088Y-77840845D01*
X45614166Y-77840416D01*
X45735677Y-77847963D01*
G36*
X44711056Y-77840684D02*
G01*
X44982181Y-77994451D01*
X45155459Y-78221933D01*
X45195506Y-78477499D01*
X45075778Y-78706888D01*
X45017959Y-78834637D01*
X45075778Y-78893050D01*
X45146245Y-79034127D01*
X45186891Y-79304333D01*
X45190833Y-79426603D01*
X45190833Y-79889047D01*
X44019184Y-79889047D01*
X44049383Y-78864732D01*
X44066608Y-78280468D01*
X44386263Y-78280468D01*
X44409699Y-78396041D01*
X44497791Y-78714287D01*
X44567753Y-78825108D01*
X44631200Y-78730645D01*
X44696735Y-78448958D01*
X44723257Y-78212593D01*
X44661292Y-78118398D01*
X44551171Y-78105000D01*
X44406836Y-78138807D01*
X44386263Y-78280468D01*
X44066608Y-78280468D01*
X44079583Y-77840416D01*
X44377465Y-77806268D01*
X44711056Y-77840684D01*
X44711056Y-77840684D01*
G37*
X44711056Y-77840684D02*
X44982181Y-77994451D01*
X45155459Y-78221933D01*
X45195506Y-78477499D01*
X45075778Y-78706888D01*
X45017959Y-78834637D01*
X45075778Y-78893050D01*
X45146245Y-79034127D01*
X45186891Y-79304333D01*
X45190833Y-79426603D01*
X45190833Y-79889047D01*
X44019184Y-79889047D01*
X44049383Y-78864732D01*
X44066608Y-78280468D01*
X44386263Y-78280468D01*
X44409699Y-78396041D01*
X44497791Y-78714287D01*
X44567753Y-78825108D01*
X44631200Y-78730645D01*
X44696735Y-78448958D01*
X44723257Y-78212593D01*
X44661292Y-78118398D01*
X44551171Y-78105000D01*
X44406836Y-78138807D01*
X44386263Y-78280468D01*
X44066608Y-78280468D01*
X44079583Y-77840416D01*
X44377465Y-77806268D01*
X44711056Y-77840684D01*
G36*
X43886484Y-77847478D02*
G01*
X43920595Y-77972834D01*
X43920833Y-77993081D01*
X43856076Y-78170228D01*
X43762083Y-78210833D01*
X43632798Y-78299066D01*
X43603333Y-78422500D01*
X43669507Y-78594880D01*
X43762083Y-78634166D01*
X43902393Y-78718882D01*
X43920833Y-78792916D01*
X43836117Y-78933227D01*
X43762083Y-78951666D01*
X43634404Y-79043667D01*
X43603333Y-79216250D01*
X43658534Y-79429048D01*
X43762083Y-79480833D01*
X43891368Y-79569066D01*
X43920833Y-79692500D01*
X43889941Y-79824362D01*
X43761443Y-79886983D01*
X43481608Y-79904052D01*
X43440750Y-79904166D01*
X42960668Y-79904166D01*
X43021250Y-77840416D01*
X43471041Y-77807873D01*
X43755336Y-77800192D01*
X43886484Y-77847478D01*
X43886484Y-77847478D01*
G37*
X43886484Y-77847478D02*
X43920595Y-77972834D01*
X43920833Y-77993081D01*
X43856076Y-78170228D01*
X43762083Y-78210833D01*
X43632798Y-78299066D01*
X43603333Y-78422500D01*
X43669507Y-78594880D01*
X43762083Y-78634166D01*
X43902393Y-78718882D01*
X43920833Y-78792916D01*
X43836117Y-78933227D01*
X43762083Y-78951666D01*
X43634404Y-79043667D01*
X43603333Y-79216250D01*
X43658534Y-79429048D01*
X43762083Y-79480833D01*
X43891368Y-79569066D01*
X43920833Y-79692500D01*
X43889941Y-79824362D01*
X43761443Y-79886983D01*
X43481608Y-79904052D01*
X43440750Y-79904166D01*
X42960668Y-79904166D01*
X43021250Y-77840416D01*
X43471041Y-77807873D01*
X43755336Y-77800192D01*
X43886484Y-77847478D01*
G36*
X42862500Y-78718833D02*
G01*
X42847254Y-79234679D01*
X42803797Y-79596938D01*
X42735547Y-79777119D01*
X42735500Y-79777166D01*
X42506285Y-79883316D01*
X42208022Y-79891408D01*
X41959244Y-79801442D01*
X41931166Y-79777166D01*
X41862902Y-79597103D01*
X41819430Y-79234944D01*
X41804166Y-78719182D01*
X41804166Y-78268513D01*
X42132117Y-78268513D01*
X42160198Y-78490187D01*
X42201676Y-78846240D01*
X42225366Y-79153140D01*
X42227500Y-79231021D01*
X42258050Y-79439929D01*
X42330156Y-79466757D01*
X42414499Y-79328875D01*
X42475742Y-79083958D01*
X42539762Y-78709197D01*
X42606459Y-78352491D01*
X42608331Y-78343125D01*
X42639727Y-78109063D01*
X42575636Y-78015727D01*
X42385093Y-77999166D01*
X42209685Y-78010500D01*
X42133875Y-78081688D01*
X42132117Y-78268513D01*
X41804166Y-78268513D01*
X41804166Y-77787500D01*
X42862500Y-77787500D01*
X42862500Y-78718833D01*
X42862500Y-78718833D01*
G37*
X42862500Y-78718833D02*
X42847254Y-79234679D01*
X42803797Y-79596938D01*
X42735547Y-79777119D01*
X42735500Y-79777166D01*
X42506285Y-79883316D01*
X42208022Y-79891408D01*
X41959244Y-79801442D01*
X41931166Y-79777166D01*
X41862902Y-79597103D01*
X41819430Y-79234944D01*
X41804166Y-78719182D01*
X41804166Y-78268513D01*
X42132117Y-78268513D01*
X42160198Y-78490187D01*
X42201676Y-78846240D01*
X42225366Y-79153140D01*
X42227500Y-79231021D01*
X42258050Y-79439929D01*
X42330156Y-79466757D01*
X42414499Y-79328875D01*
X42475742Y-79083958D01*
X42539762Y-78709197D01*
X42606459Y-78352491D01*
X42608331Y-78343125D01*
X42639727Y-78109063D01*
X42575636Y-78015727D01*
X42385093Y-77999166D01*
X42209685Y-78010500D01*
X42133875Y-78081688D01*
X42132117Y-78268513D01*
X41804166Y-78268513D01*
X41804166Y-77787500D01*
X42862500Y-77787500D01*
X42862500Y-78718833D01*
G36*
X41368662Y-77895981D02*
G01*
X41436416Y-77938264D01*
X41570582Y-78037816D01*
X41650355Y-78153887D01*
X41687526Y-78337516D01*
X41693887Y-78639740D01*
X41684392Y-79011610D01*
X41656447Y-79904166D01*
X41333432Y-79900948D01*
X41036239Y-79863704D01*
X40825208Y-79789856D01*
X40729273Y-79696351D01*
X40672447Y-79523065D01*
X40652933Y-79304403D01*
X40964854Y-79304403D01*
X41014251Y-79506016D01*
X41128608Y-79583549D01*
X41169166Y-79586666D01*
X41341014Y-79535000D01*
X41380833Y-79463044D01*
X41362838Y-79301072D01*
X41315795Y-78998412D01*
X41253865Y-78642835D01*
X41126897Y-77946250D01*
X41050043Y-78422500D01*
X40977692Y-78952100D01*
X40964854Y-79304403D01*
X40652933Y-79304403D01*
X40645739Y-79223799D01*
X40640000Y-78838305D01*
X40644467Y-78414806D01*
X40666837Y-78153195D01*
X40720559Y-78003738D01*
X40819085Y-77916703D01*
X40900247Y-77876051D01*
X41137785Y-77814932D01*
X41368662Y-77895981D01*
X41368662Y-77895981D01*
G37*
X41368662Y-77895981D02*
X41436416Y-77938264D01*
X41570582Y-78037816D01*
X41650355Y-78153887D01*
X41687526Y-78337516D01*
X41693887Y-78639740D01*
X41684392Y-79011610D01*
X41656447Y-79904166D01*
X41333432Y-79900948D01*
X41036239Y-79863704D01*
X40825208Y-79789856D01*
X40729273Y-79696351D01*
X40672447Y-79523065D01*
X40652933Y-79304403D01*
X40964854Y-79304403D01*
X41014251Y-79506016D01*
X41128608Y-79583549D01*
X41169166Y-79586666D01*
X41341014Y-79535000D01*
X41380833Y-79463044D01*
X41362838Y-79301072D01*
X41315795Y-78998412D01*
X41253865Y-78642835D01*
X41126897Y-77946250D01*
X41050043Y-78422500D01*
X40977692Y-78952100D01*
X40964854Y-79304403D01*
X40652933Y-79304403D01*
X40645739Y-79223799D01*
X40640000Y-78838305D01*
X40644467Y-78414806D01*
X40666837Y-78153195D01*
X40720559Y-78003738D01*
X40819085Y-77916703D01*
X40900247Y-77876051D01*
X41137785Y-77814932D01*
X41368662Y-77895981D01*
G36*
X40122365Y-77795182D02*
G01*
X40216793Y-77813686D01*
X40216811Y-77813958D01*
X40233945Y-77922769D01*
X40279571Y-78190633D01*
X40345234Y-78568186D01*
X40375416Y-78740000D01*
X40462773Y-79245108D01*
X40510109Y-79577773D01*
X40514151Y-79774008D01*
X40471624Y-79869820D01*
X40379255Y-79901222D01*
X40269583Y-79904166D01*
X40056785Y-79848965D01*
X40005000Y-79745416D01*
X39947853Y-79604576D01*
X39899166Y-79586666D01*
X39805273Y-79672387D01*
X39793333Y-79745416D01*
X39701332Y-79873095D01*
X39528750Y-79904166D01*
X39330074Y-79858977D01*
X39264311Y-79771875D01*
X39281874Y-79612297D01*
X39328561Y-79301656D01*
X39395585Y-78897131D01*
X39422916Y-78740000D01*
X39494259Y-78332224D01*
X39498550Y-78307284D01*
X39794134Y-78307284D01*
X39825843Y-78577761D01*
X39857572Y-78678427D01*
X39924794Y-78818546D01*
X39969927Y-78795844D01*
X40005670Y-78590692D01*
X40023138Y-78422500D01*
X40025618Y-78122346D01*
X39954489Y-78003043D01*
X39928421Y-77999166D01*
X39830984Y-78088937D01*
X39794134Y-78307284D01*
X39498550Y-78307284D01*
X39548969Y-78014262D01*
X39578591Y-77835478D01*
X39581521Y-77813958D01*
X39673816Y-77795361D01*
X39895908Y-77787501D01*
X39899166Y-77787500D01*
X40122365Y-77795182D01*
X40122365Y-77795182D01*
G37*
X40122365Y-77795182D02*
X40216793Y-77813686D01*
X40216811Y-77813958D01*
X40233945Y-77922769D01*
X40279571Y-78190633D01*
X40345234Y-78568186D01*
X40375416Y-78740000D01*
X40462773Y-79245108D01*
X40510109Y-79577773D01*
X40514151Y-79774008D01*
X40471624Y-79869820D01*
X40379255Y-79901222D01*
X40269583Y-79904166D01*
X40056785Y-79848965D01*
X40005000Y-79745416D01*
X39947853Y-79604576D01*
X39899166Y-79586666D01*
X39805273Y-79672387D01*
X39793333Y-79745416D01*
X39701332Y-79873095D01*
X39528750Y-79904166D01*
X39330074Y-79858977D01*
X39264311Y-79771875D01*
X39281874Y-79612297D01*
X39328561Y-79301656D01*
X39395585Y-78897131D01*
X39422916Y-78740000D01*
X39494259Y-78332224D01*
X39498550Y-78307284D01*
X39794134Y-78307284D01*
X39825843Y-78577761D01*
X39857572Y-78678427D01*
X39924794Y-78818546D01*
X39969927Y-78795844D01*
X40005670Y-78590692D01*
X40023138Y-78422500D01*
X40025618Y-78122346D01*
X39954489Y-78003043D01*
X39928421Y-77999166D01*
X39830984Y-78088937D01*
X39794134Y-78307284D01*
X39498550Y-78307284D01*
X39548969Y-78014262D01*
X39578591Y-77835478D01*
X39581521Y-77813958D01*
X39673816Y-77795361D01*
X39895908Y-77787501D01*
X39899166Y-77787500D01*
X40122365Y-77795182D01*
G36*
X37683033Y-71114319D02*
G01*
X38627753Y-71596250D01*
X38629356Y-72125416D01*
X38634727Y-72363301D01*
X38649154Y-72781440D01*
X38671355Y-73348672D01*
X38700051Y-74033837D01*
X38733959Y-74805776D01*
X38771799Y-75633327D01*
X38785975Y-75935416D01*
X38825644Y-76775275D01*
X38863186Y-77570609D01*
X38897131Y-78290252D01*
X38926011Y-78903043D01*
X38948356Y-79377816D01*
X38962696Y-79683407D01*
X38965589Y-79745416D01*
X38990188Y-80274583D01*
X37417319Y-80303965D01*
X36806437Y-80313700D01*
X36370150Y-80313602D01*
X36071460Y-80299532D01*
X35873372Y-80267354D01*
X35738889Y-80212928D01*
X35631017Y-80132119D01*
X35596391Y-80100308D01*
X35348333Y-79867270D01*
X35348333Y-80097385D01*
X35339238Y-80194316D01*
X35288488Y-80259325D01*
X35160881Y-80298778D01*
X34921216Y-80319044D01*
X34534293Y-80326492D01*
X34076316Y-80327500D01*
X33541079Y-80326267D01*
X33183678Y-80318173D01*
X32970284Y-80296622D01*
X32867069Y-80255017D01*
X32840201Y-80186763D01*
X32854977Y-80089375D01*
X32881313Y-79901101D01*
X32918984Y-79546865D01*
X32963604Y-79071785D01*
X33010789Y-78520981D01*
X33027256Y-78316666D01*
X33071210Y-77773120D01*
X33110191Y-77311843D01*
X33128106Y-77112601D01*
X33760833Y-77112601D01*
X33821270Y-77235447D01*
X33985596Y-77490084D01*
X34228330Y-77840773D01*
X34523992Y-78251773D01*
X34847104Y-78687344D01*
X35172184Y-79111747D01*
X35317155Y-79295625D01*
X35886623Y-80010000D01*
X38242729Y-80010000D01*
X38015448Y-79771875D01*
X37851882Y-79600632D01*
X37581568Y-79317766D01*
X37244039Y-78964640D01*
X36928110Y-78634166D01*
X36557419Y-78240844D01*
X36215016Y-77867547D01*
X35943100Y-77560852D01*
X35801466Y-77390625D01*
X35662954Y-77222871D01*
X35530264Y-77121060D01*
X35348181Y-77068732D01*
X35061492Y-77049422D01*
X34647855Y-77046666D01*
X34244449Y-77053926D01*
X33937006Y-77073280D01*
X33774458Y-77101091D01*
X33760833Y-77112601D01*
X33128106Y-77112601D01*
X33140890Y-76970427D01*
X33159999Y-76786462D01*
X33163804Y-76765153D01*
X33268634Y-76752132D01*
X33541800Y-76729646D01*
X33940356Y-76700989D01*
X34363548Y-76673102D01*
X35548346Y-76597982D01*
X35810998Y-76901699D01*
X35992216Y-77085018D01*
X36091651Y-77105900D01*
X36125914Y-77046666D01*
X36148846Y-76900941D01*
X36185810Y-76574735D01*
X36233824Y-76098548D01*
X36289901Y-75502883D01*
X36351057Y-74818238D01*
X36400363Y-74242083D01*
X36464500Y-73486544D01*
X36526169Y-72775277D01*
X36582195Y-72143742D01*
X36629401Y-71627402D01*
X36664613Y-71261716D01*
X36680430Y-71114319D01*
X36738313Y-70632389D01*
X37683033Y-71114319D01*
X37683033Y-71114319D01*
G37*
X37683033Y-71114319D02*
X38627753Y-71596250D01*
X38629356Y-72125416D01*
X38634727Y-72363301D01*
X38649154Y-72781440D01*
X38671355Y-73348672D01*
X38700051Y-74033837D01*
X38733959Y-74805776D01*
X38771799Y-75633327D01*
X38785975Y-75935416D01*
X38825644Y-76775275D01*
X38863186Y-77570609D01*
X38897131Y-78290252D01*
X38926011Y-78903043D01*
X38948356Y-79377816D01*
X38962696Y-79683407D01*
X38965589Y-79745416D01*
X38990188Y-80274583D01*
X37417319Y-80303965D01*
X36806437Y-80313700D01*
X36370150Y-80313602D01*
X36071460Y-80299532D01*
X35873372Y-80267354D01*
X35738889Y-80212928D01*
X35631017Y-80132119D01*
X35596391Y-80100308D01*
X35348333Y-79867270D01*
X35348333Y-80097385D01*
X35339238Y-80194316D01*
X35288488Y-80259325D01*
X35160881Y-80298778D01*
X34921216Y-80319044D01*
X34534293Y-80326492D01*
X34076316Y-80327500D01*
X33541079Y-80326267D01*
X33183678Y-80318173D01*
X32970284Y-80296622D01*
X32867069Y-80255017D01*
X32840201Y-80186763D01*
X32854977Y-80089375D01*
X32881313Y-79901101D01*
X32918984Y-79546865D01*
X32963604Y-79071785D01*
X33010789Y-78520981D01*
X33027256Y-78316666D01*
X33071210Y-77773120D01*
X33110191Y-77311843D01*
X33128106Y-77112601D01*
X33760833Y-77112601D01*
X33821270Y-77235447D01*
X33985596Y-77490084D01*
X34228330Y-77840773D01*
X34523992Y-78251773D01*
X34847104Y-78687344D01*
X35172184Y-79111747D01*
X35317155Y-79295625D01*
X35886623Y-80010000D01*
X38242729Y-80010000D01*
X38015448Y-79771875D01*
X37851882Y-79600632D01*
X37581568Y-79317766D01*
X37244039Y-78964640D01*
X36928110Y-78634166D01*
X36557419Y-78240844D01*
X36215016Y-77867547D01*
X35943100Y-77560852D01*
X35801466Y-77390625D01*
X35662954Y-77222871D01*
X35530264Y-77121060D01*
X35348181Y-77068732D01*
X35061492Y-77049422D01*
X34647855Y-77046666D01*
X34244449Y-77053926D01*
X33937006Y-77073280D01*
X33774458Y-77101091D01*
X33760833Y-77112601D01*
X33128106Y-77112601D01*
X33140890Y-76970427D01*
X33159999Y-76786462D01*
X33163804Y-76765153D01*
X33268634Y-76752132D01*
X33541800Y-76729646D01*
X33940356Y-76700989D01*
X34363548Y-76673102D01*
X35548346Y-76597982D01*
X35810998Y-76901699D01*
X35992216Y-77085018D01*
X36091651Y-77105900D01*
X36125914Y-77046666D01*
X36148846Y-76900941D01*
X36185810Y-76574735D01*
X36233824Y-76098548D01*
X36289901Y-75502883D01*
X36351057Y-74818238D01*
X36400363Y-74242083D01*
X36464500Y-73486544D01*
X36526169Y-72775277D01*
X36582195Y-72143742D01*
X36629401Y-71627402D01*
X36664613Y-71261716D01*
X36680430Y-71114319D01*
X36738313Y-70632389D01*
X37683033Y-71114319D01*
D12*
X54720000Y-54550000D02*
X53070000Y-54550000D01*
X54720000Y-74990000D02*
X54720000Y-54550000D01*
X49420000Y-74990000D02*
X54720000Y-74990000D01*
X49420000Y-54550000D02*
X49420000Y-74990000D01*
X51070000Y-54550000D02*
X49420000Y-54550000D01*
X53070000Y-54550000D02*
G75*
G02X51070000Y-54550000I-1000000J0D01*
G01*
X49420000Y-44510000D02*
X51070000Y-44510000D01*
X49420000Y-24070000D02*
X49420000Y-44510000D01*
X54720000Y-24070000D02*
X49420000Y-24070000D01*
X54720000Y-44510000D02*
X54720000Y-24070000D01*
X53070000Y-44510000D02*
X54720000Y-44510000D01*
X51070000Y-44510000D02*
G75*
G02X53070000Y-44510000I1000000J0D01*
G01*
D11*
X36374285Y-25761428D02*
X36460000Y-25847142D01*
X36545714Y-26018571D01*
X36545714Y-26447142D01*
X36460000Y-26618571D01*
X36374285Y-26704285D01*
X36202857Y-26789999D01*
X36031428Y-26789999D01*
X35774285Y-26704285D01*
X34745714Y-25675714D01*
X34745714Y-26789999D01*
X36545714Y-27389999D02*
X36545714Y-28589999D01*
X34745714Y-27818571D01*
X34917142Y-30304285D02*
X34831428Y-30218571D01*
X34745714Y-29961428D01*
X34745714Y-29789999D01*
X34831428Y-29532857D01*
X35002857Y-29361428D01*
X35174285Y-29275714D01*
X35517142Y-29189999D01*
X35774285Y-29189999D01*
X36117142Y-29275714D01*
X36288571Y-29361428D01*
X36460000Y-29532857D01*
X36545714Y-29789999D01*
X36545714Y-29961428D01*
X36460000Y-30218571D01*
X36374285Y-30304285D01*
X36545714Y-31418571D02*
X36545714Y-31589999D01*
X36460000Y-31761428D01*
X36374285Y-31847142D01*
X36202857Y-31932857D01*
X35860000Y-32018571D01*
X35431428Y-32018571D01*
X35088571Y-31932857D01*
X34917142Y-31847142D01*
X34831428Y-31761428D01*
X34745714Y-31589999D01*
X34745714Y-31418571D01*
X34831428Y-31247142D01*
X34917142Y-31161428D01*
X35088571Y-31075714D01*
X35431428Y-30989999D01*
X35860000Y-30989999D01*
X36202857Y-31075714D01*
X36374285Y-31161428D01*
X36460000Y-31247142D01*
X36545714Y-31418571D01*
X34745714Y-33732857D02*
X34745714Y-32704285D01*
X34745714Y-33218571D02*
X36545714Y-33218571D01*
X36288571Y-33047142D01*
X36117142Y-32875714D01*
X36031428Y-32704285D01*
X36545714Y-34847142D02*
X36545714Y-35018571D01*
X36460000Y-35190000D01*
X36374285Y-35275714D01*
X36202857Y-35361428D01*
X35860000Y-35447142D01*
X35431428Y-35447142D01*
X35088571Y-35361428D01*
X34917142Y-35275714D01*
X34831428Y-35190000D01*
X34745714Y-35018571D01*
X34745714Y-34847142D01*
X34831428Y-34675714D01*
X34917142Y-34590000D01*
X35088571Y-34504285D01*
X35431428Y-34418571D01*
X35860000Y-34418571D01*
X36202857Y-34504285D01*
X36374285Y-34590000D01*
X36460000Y-34675714D01*
X36545714Y-34847142D01*
X35431428Y-36218571D02*
X35431428Y-37590000D01*
X36545714Y-38790000D02*
X36545714Y-38961428D01*
X36460000Y-39132857D01*
X36374285Y-39218571D01*
X36202857Y-39304285D01*
X35860000Y-39390000D01*
X35431428Y-39390000D01*
X35088571Y-39304285D01*
X34917142Y-39218571D01*
X34831428Y-39132857D01*
X34745714Y-38961428D01*
X34745714Y-38790000D01*
X34831428Y-38618571D01*
X34917142Y-38532857D01*
X35088571Y-38447142D01*
X35431428Y-38361428D01*
X35860000Y-38361428D01*
X36202857Y-38447142D01*
X36374285Y-38532857D01*
X36460000Y-38618571D01*
X36545714Y-38790000D01*
X35774285Y-40418571D02*
X35860000Y-40247142D01*
X35945714Y-40161428D01*
X36117142Y-40075714D01*
X36202857Y-40075714D01*
X36374285Y-40161428D01*
X36460000Y-40247142D01*
X36545714Y-40418571D01*
X36545714Y-40761428D01*
X36460000Y-40932857D01*
X36374285Y-41018571D01*
X36202857Y-41104285D01*
X36117142Y-41104285D01*
X35945714Y-41018571D01*
X35860000Y-40932857D01*
X35774285Y-40761428D01*
X35774285Y-40418571D01*
X35688571Y-40247142D01*
X35602857Y-40161428D01*
X35431428Y-40075714D01*
X35088571Y-40075714D01*
X34917142Y-40161428D01*
X34831428Y-40247142D01*
X34745714Y-40418571D01*
X34745714Y-40761428D01*
X34831428Y-40932857D01*
X34917142Y-41018571D01*
X35088571Y-41104285D01*
X35431428Y-41104285D01*
X35602857Y-41018571D01*
X35688571Y-40932857D01*
X35774285Y-40761428D01*
X36545714Y-42218571D02*
X36545714Y-42390000D01*
X36460000Y-42561428D01*
X36374285Y-42647142D01*
X36202857Y-42732857D01*
X35860000Y-42818571D01*
X35431428Y-42818571D01*
X35088571Y-42732857D01*
X34917142Y-42647142D01*
X34831428Y-42561428D01*
X34745714Y-42390000D01*
X34745714Y-42218571D01*
X34831428Y-42047142D01*
X34917142Y-41961428D01*
X35088571Y-41875714D01*
X35431428Y-41790000D01*
X35860000Y-41790000D01*
X36202857Y-41875714D01*
X36374285Y-41961428D01*
X36460000Y-42047142D01*
X36545714Y-42218571D01*
D10*
X42180000Y-66127380D02*
X42275238Y-66127380D01*
X42370476Y-66175000D01*
X42418095Y-66222619D01*
X42465714Y-66317857D01*
X42513333Y-66508333D01*
X42513333Y-66746428D01*
X42465714Y-66936904D01*
X42418095Y-67032142D01*
X42370476Y-67079761D01*
X42275238Y-67127380D01*
X42180000Y-67127380D01*
X42084761Y-67079761D01*
X42037142Y-67032142D01*
X41989523Y-66936904D01*
X41941904Y-66746428D01*
X41941904Y-66508333D01*
X41989523Y-66317857D01*
X42037142Y-66222619D01*
X42084761Y-66175000D01*
X42180000Y-66127380D01*
X43084761Y-66555952D02*
X42989523Y-66508333D01*
X42941904Y-66460714D01*
X42894285Y-66365476D01*
X42894285Y-66317857D01*
X42941904Y-66222619D01*
X42989523Y-66175000D01*
X43084761Y-66127380D01*
X43275238Y-66127380D01*
X43370476Y-66175000D01*
X43418095Y-66222619D01*
X43465714Y-66317857D01*
X43465714Y-66365476D01*
X43418095Y-66460714D01*
X43370476Y-66508333D01*
X43275238Y-66555952D01*
X43084761Y-66555952D01*
X42989523Y-66603571D01*
X42941904Y-66651190D01*
X42894285Y-66746428D01*
X42894285Y-66936904D01*
X42941904Y-67032142D01*
X42989523Y-67079761D01*
X43084761Y-67127380D01*
X43275238Y-67127380D01*
X43370476Y-67079761D01*
X43418095Y-67032142D01*
X43465714Y-66936904D01*
X43465714Y-66746428D01*
X43418095Y-66651190D01*
X43370476Y-66603571D01*
X43275238Y-66555952D01*
X44084761Y-66127380D02*
X44180000Y-66127380D01*
X44275238Y-66175000D01*
X44322857Y-66222619D01*
X44370476Y-66317857D01*
X44418095Y-66508333D01*
X44418095Y-66746428D01*
X44370476Y-66936904D01*
X44322857Y-67032142D01*
X44275238Y-67079761D01*
X44180000Y-67127380D01*
X44084761Y-67127380D01*
X43989523Y-67079761D01*
X43941904Y-67032142D01*
X43894285Y-66936904D01*
X43846666Y-66746428D01*
X43846666Y-66508333D01*
X43894285Y-66317857D01*
X43941904Y-66222619D01*
X43989523Y-66175000D01*
X44084761Y-66127380D01*
X32035952Y-66127380D02*
X32131190Y-66127380D01*
X32226428Y-66175000D01*
X32274047Y-66222619D01*
X32321666Y-66317857D01*
X32369285Y-66508333D01*
X32369285Y-66746428D01*
X32321666Y-66936904D01*
X32274047Y-67032142D01*
X32226428Y-67079761D01*
X32131190Y-67127380D01*
X32035952Y-67127380D01*
X31940714Y-67079761D01*
X31893095Y-67032142D01*
X31845476Y-66936904D01*
X31797857Y-66746428D01*
X31797857Y-66508333D01*
X31845476Y-66317857D01*
X31893095Y-66222619D01*
X31940714Y-66175000D01*
X32035952Y-66127380D01*
X33226428Y-66460714D02*
X33226428Y-67127380D01*
X32988333Y-66079761D02*
X32750238Y-66794047D01*
X33369285Y-66794047D01*
X33940714Y-66127380D02*
X34035952Y-66127380D01*
X34131190Y-66175000D01*
X34178809Y-66222619D01*
X34226428Y-66317857D01*
X34274047Y-66508333D01*
X34274047Y-66746428D01*
X34226428Y-66936904D01*
X34178809Y-67032142D01*
X34131190Y-67079761D01*
X34035952Y-67127380D01*
X33940714Y-67127380D01*
X33845476Y-67079761D01*
X33797857Y-67032142D01*
X33750238Y-66936904D01*
X33702619Y-66746428D01*
X33702619Y-66508333D01*
X33750238Y-66317857D01*
X33797857Y-66222619D01*
X33845476Y-66175000D01*
X33940714Y-66127380D01*
X34702619Y-66746428D02*
X35464523Y-66746428D01*
X35083571Y-67127380D02*
X35083571Y-66365476D01*
X23514095Y-54146666D02*
X23514095Y-53689523D01*
X23514095Y-53918095D02*
X24314095Y-53918095D01*
X24199809Y-53841904D01*
X24123619Y-53765714D01*
X24085523Y-53689523D01*
X24314095Y-54832380D02*
X24314095Y-54680000D01*
X24276000Y-54603809D01*
X24237904Y-54565714D01*
X24123619Y-54489523D01*
X23971238Y-54451428D01*
X23666476Y-54451428D01*
X23590285Y-54489523D01*
X23552190Y-54527619D01*
X23514095Y-54603809D01*
X23514095Y-54756190D01*
X23552190Y-54832380D01*
X23590285Y-54870476D01*
X23666476Y-54908571D01*
X23856952Y-54908571D01*
X23933142Y-54870476D01*
X23971238Y-54832380D01*
X24009333Y-54756190D01*
X24009333Y-54603809D01*
X23971238Y-54527619D01*
X23933142Y-54489523D01*
X23856952Y-54451428D01*
X24352190Y-55822857D02*
X23323619Y-55137142D01*
X24314095Y-56013333D02*
X24314095Y-56508571D01*
X24009333Y-56241904D01*
X24009333Y-56356190D01*
X23971238Y-56432380D01*
X23933142Y-56470476D01*
X23856952Y-56508571D01*
X23666476Y-56508571D01*
X23590285Y-56470476D01*
X23552190Y-56432380D01*
X23514095Y-56356190D01*
X23514095Y-56127619D01*
X23552190Y-56051428D01*
X23590285Y-56013333D01*
X24237904Y-56813333D02*
X24276000Y-56851428D01*
X24314095Y-56927619D01*
X24314095Y-57118095D01*
X24276000Y-57194285D01*
X24237904Y-57232380D01*
X24161714Y-57270476D01*
X24085523Y-57270476D01*
X23971238Y-57232380D01*
X23514095Y-56775238D01*
X23514095Y-57270476D01*
X23514095Y-57613333D02*
X24314095Y-57613333D01*
X23514095Y-58070476D02*
X23971238Y-57727619D01*
X24314095Y-58070476D02*
X23856952Y-57613333D01*
X52617619Y-67223095D02*
X52617619Y-67889761D01*
X51617619Y-67461190D01*
X52284285Y-68699285D02*
X51617619Y-68699285D01*
X52665238Y-68461190D02*
X51950952Y-68223095D01*
X51950952Y-68842142D01*
X51617619Y-69223095D02*
X52617619Y-69223095D01*
X52141428Y-69223095D02*
X52141428Y-69794523D01*
X51617619Y-69794523D02*
X52617619Y-69794523D01*
X51712857Y-70842142D02*
X51665238Y-70794523D01*
X51617619Y-70651666D01*
X51617619Y-70556428D01*
X51665238Y-70413571D01*
X51760476Y-70318333D01*
X51855714Y-70270714D01*
X52046190Y-70223095D01*
X52189047Y-70223095D01*
X52379523Y-70270714D01*
X52474761Y-70318333D01*
X52570000Y-70413571D01*
X52617619Y-70556428D01*
X52617619Y-70651666D01*
X52570000Y-70794523D01*
X52522380Y-70842142D01*
X51617619Y-71794523D02*
X51617619Y-71223095D01*
X51617619Y-71508809D02*
X52617619Y-71508809D01*
X52474761Y-71413571D01*
X52379523Y-71318333D01*
X52331904Y-71223095D01*
X52617619Y-72127857D02*
X52617619Y-72746904D01*
X52236666Y-72413571D01*
X52236666Y-72556428D01*
X52189047Y-72651666D01*
X52141428Y-72699285D01*
X52046190Y-72746904D01*
X51808095Y-72746904D01*
X51712857Y-72699285D01*
X51665238Y-72651666D01*
X51617619Y-72556428D01*
X51617619Y-72270714D01*
X51665238Y-72175476D01*
X51712857Y-72127857D01*
X52189047Y-73318333D02*
X52236666Y-73223095D01*
X52284285Y-73175476D01*
X52379523Y-73127857D01*
X52427142Y-73127857D01*
X52522380Y-73175476D01*
X52570000Y-73223095D01*
X52617619Y-73318333D01*
X52617619Y-73508809D01*
X52570000Y-73604047D01*
X52522380Y-73651666D01*
X52427142Y-73699285D01*
X52379523Y-73699285D01*
X52284285Y-73651666D01*
X52236666Y-73604047D01*
X52189047Y-73508809D01*
X52189047Y-73318333D01*
X52141428Y-73223095D01*
X52093809Y-73175476D01*
X51998571Y-73127857D01*
X51808095Y-73127857D01*
X51712857Y-73175476D01*
X51665238Y-73223095D01*
X51617619Y-73318333D01*
X51617619Y-73508809D01*
X51665238Y-73604047D01*
X51712857Y-73651666D01*
X51808095Y-73699285D01*
X51998571Y-73699285D01*
X52093809Y-73651666D01*
X52141428Y-73604047D01*
X52189047Y-73508809D01*
X52617619Y-25313095D02*
X52617619Y-25979761D01*
X51617619Y-25551190D01*
X52284285Y-26789285D02*
X51617619Y-26789285D01*
X52665238Y-26551190D02*
X51950952Y-26313095D01*
X51950952Y-26932142D01*
X51617619Y-27313095D02*
X52617619Y-27313095D01*
X52141428Y-27313095D02*
X52141428Y-27884523D01*
X51617619Y-27884523D02*
X52617619Y-27884523D01*
X51712857Y-28932142D02*
X51665238Y-28884523D01*
X51617619Y-28741666D01*
X51617619Y-28646428D01*
X51665238Y-28503571D01*
X51760476Y-28408333D01*
X51855714Y-28360714D01*
X52046190Y-28313095D01*
X52189047Y-28313095D01*
X52379523Y-28360714D01*
X52474761Y-28408333D01*
X52570000Y-28503571D01*
X52617619Y-28646428D01*
X52617619Y-28741666D01*
X52570000Y-28884523D01*
X52522380Y-28932142D01*
X51617619Y-29884523D02*
X51617619Y-29313095D01*
X51617619Y-29598809D02*
X52617619Y-29598809D01*
X52474761Y-29503571D01*
X52379523Y-29408333D01*
X52331904Y-29313095D01*
X52617619Y-30217857D02*
X52617619Y-30884523D01*
X51617619Y-30455952D01*
X52284285Y-31694047D02*
X51617619Y-31694047D01*
X52665238Y-31455952D02*
X51950952Y-31217857D01*
X51950952Y-31836904D01*
%LPC*%
D14*
G36*
X15240000Y-20320000D02*
G01*
X15240000Y-68580000D01*
X22860000Y-68580000D01*
X22860000Y-20320000D01*
X15240000Y-20320000D01*
G37*
X15240000Y-20320000D02*
X15240000Y-68580000D01*
X22860000Y-68580000D01*
X22860000Y-20320000D01*
X15240000Y-20320000D01*
D15*
X27940000Y-63500000D03*
X43180000Y-25400000D03*
X27940000Y-60960000D03*
X43180000Y-27940000D03*
X27940000Y-58420000D03*
X43180000Y-30480000D03*
X27940000Y-55880000D03*
X43180000Y-33020000D03*
X27940000Y-53340000D03*
X43180000Y-35560000D03*
X27940000Y-50800000D03*
X43180000Y-38100000D03*
X27940000Y-48260000D03*
X43180000Y-40640000D03*
X27940000Y-45720000D03*
X43180000Y-43180000D03*
X27940000Y-43180000D03*
X43180000Y-45720000D03*
X27940000Y-40640000D03*
X43180000Y-48260000D03*
X27940000Y-38100000D03*
X43180000Y-50800000D03*
X27940000Y-35560000D03*
X43180000Y-53340000D03*
X27940000Y-33020000D03*
X43180000Y-55880000D03*
X27940000Y-30480000D03*
X43180000Y-58420000D03*
X27940000Y-27940000D03*
X43180000Y-60960000D03*
X27940000Y-25400000D03*
D16*
X43180000Y-63500000D03*
D17*
X38040000Y-66675000D03*
D14*
G36*
X38599950Y-65874980D02*
G01*
X38609517Y-65877882D01*
X38618334Y-65882595D01*
X38626062Y-65888938D01*
X38632405Y-65896666D01*
X38637118Y-65905483D01*
X38640020Y-65915050D01*
X38641000Y-65925000D01*
X38641000Y-67425000D01*
X38640020Y-67434950D01*
X38637118Y-67444517D01*
X38632405Y-67453334D01*
X38626062Y-67461062D01*
X38618334Y-67467405D01*
X38609517Y-67472118D01*
X38599950Y-67475020D01*
X38590000Y-67476000D01*
X38040000Y-67476000D01*
X38033888Y-67475398D01*
X38015466Y-67475398D01*
X38010467Y-67475152D01*
X37961636Y-67470342D01*
X37956686Y-67469608D01*
X37908561Y-67460036D01*
X37903705Y-67458820D01*
X37856750Y-67444576D01*
X37852039Y-67442890D01*
X37806706Y-67424113D01*
X37802180Y-67421973D01*
X37758907Y-67398842D01*
X37754616Y-67396269D01*
X37713817Y-67369009D01*
X37709796Y-67366027D01*
X37671867Y-67334899D01*
X37668159Y-67331538D01*
X37633462Y-67296841D01*
X37630101Y-67293133D01*
X37598973Y-67255204D01*
X37595991Y-67251183D01*
X37568731Y-67210384D01*
X37566158Y-67206093D01*
X37543027Y-67162820D01*
X37540887Y-67158294D01*
X37522110Y-67112961D01*
X37520424Y-67108250D01*
X37506180Y-67061295D01*
X37504964Y-67056439D01*
X37495392Y-67008314D01*
X37494658Y-67003364D01*
X37489848Y-66954533D01*
X37489602Y-66949534D01*
X37489602Y-66931112D01*
X37489000Y-66925000D01*
X37489000Y-66425000D01*
X37489602Y-66418888D01*
X37489602Y-66400466D01*
X37489848Y-66395467D01*
X37494658Y-66346636D01*
X37495392Y-66341686D01*
X37504964Y-66293561D01*
X37506180Y-66288705D01*
X37520424Y-66241750D01*
X37522110Y-66237039D01*
X37540887Y-66191706D01*
X37543027Y-66187180D01*
X37566158Y-66143907D01*
X37568731Y-66139616D01*
X37595991Y-66098817D01*
X37598973Y-66094796D01*
X37630101Y-66056867D01*
X37633462Y-66053159D01*
X37668159Y-66018462D01*
X37671867Y-66015101D01*
X37709796Y-65983973D01*
X37713817Y-65980991D01*
X37754616Y-65953731D01*
X37758907Y-65951158D01*
X37802180Y-65928027D01*
X37806706Y-65925887D01*
X37852039Y-65907110D01*
X37856750Y-65905424D01*
X37903705Y-65891180D01*
X37908561Y-65889964D01*
X37956686Y-65880392D01*
X37961636Y-65879658D01*
X38010467Y-65874848D01*
X38015466Y-65874602D01*
X38033888Y-65874602D01*
X38040000Y-65874000D01*
X38590000Y-65874000D01*
X38599950Y-65874980D01*
X38599950Y-65874980D01*
G37*
D18*
X39340000Y-66675000D03*
D17*
X40640000Y-66675000D03*
D14*
G36*
X40646112Y-65874602D02*
G01*
X40664534Y-65874602D01*
X40669533Y-65874848D01*
X40718364Y-65879658D01*
X40723314Y-65880392D01*
X40771439Y-65889964D01*
X40776295Y-65891180D01*
X40823250Y-65905424D01*
X40827961Y-65907110D01*
X40873294Y-65925887D01*
X40877820Y-65928027D01*
X40921093Y-65951158D01*
X40925384Y-65953731D01*
X40966183Y-65980991D01*
X40970204Y-65983973D01*
X41008133Y-66015101D01*
X41011841Y-66018462D01*
X41046538Y-66053159D01*
X41049899Y-66056867D01*
X41081027Y-66094796D01*
X41084009Y-66098817D01*
X41111269Y-66139616D01*
X41113842Y-66143907D01*
X41136973Y-66187180D01*
X41139113Y-66191706D01*
X41157890Y-66237039D01*
X41159576Y-66241750D01*
X41173820Y-66288705D01*
X41175036Y-66293561D01*
X41184608Y-66341686D01*
X41185342Y-66346636D01*
X41190152Y-66395467D01*
X41190398Y-66400466D01*
X41190398Y-66418888D01*
X41191000Y-66425000D01*
X41191000Y-66925000D01*
X41190398Y-66931112D01*
X41190398Y-66949534D01*
X41190152Y-66954533D01*
X41185342Y-67003364D01*
X41184608Y-67008314D01*
X41175036Y-67056439D01*
X41173820Y-67061295D01*
X41159576Y-67108250D01*
X41157890Y-67112961D01*
X41139113Y-67158294D01*
X41136973Y-67162820D01*
X41113842Y-67206093D01*
X41111269Y-67210384D01*
X41084009Y-67251183D01*
X41081027Y-67255204D01*
X41049899Y-67293133D01*
X41046538Y-67296841D01*
X41011841Y-67331538D01*
X41008133Y-67334899D01*
X40970204Y-67366027D01*
X40966183Y-67369009D01*
X40925384Y-67396269D01*
X40921093Y-67398842D01*
X40877820Y-67421973D01*
X40873294Y-67424113D01*
X40827961Y-67442890D01*
X40823250Y-67444576D01*
X40776295Y-67458820D01*
X40771439Y-67460036D01*
X40723314Y-67469608D01*
X40718364Y-67470342D01*
X40669533Y-67475152D01*
X40664534Y-67475398D01*
X40646112Y-67475398D01*
X40640000Y-67476000D01*
X40090000Y-67476000D01*
X40080050Y-67475020D01*
X40070483Y-67472118D01*
X40061666Y-67467405D01*
X40053938Y-67461062D01*
X40047595Y-67453334D01*
X40042882Y-67444517D01*
X40039980Y-67434950D01*
X40039000Y-67425000D01*
X40039000Y-65925000D01*
X40039980Y-65915050D01*
X40042882Y-65905483D01*
X40047595Y-65896666D01*
X40053938Y-65888938D01*
X40061666Y-65882595D01*
X40070483Y-65877882D01*
X40080050Y-65874980D01*
X40090000Y-65874000D01*
X40640000Y-65874000D01*
X40646112Y-65874602D01*
X40646112Y-65874602D01*
G37*
D17*
X27910000Y-66675000D03*
D14*
G36*
X28469950Y-65874980D02*
G01*
X28479517Y-65877882D01*
X28488334Y-65882595D01*
X28496062Y-65888938D01*
X28502405Y-65896666D01*
X28507118Y-65905483D01*
X28510020Y-65915050D01*
X28511000Y-65925000D01*
X28511000Y-67425000D01*
X28510020Y-67434950D01*
X28507118Y-67444517D01*
X28502405Y-67453334D01*
X28496062Y-67461062D01*
X28488334Y-67467405D01*
X28479517Y-67472118D01*
X28469950Y-67475020D01*
X28460000Y-67476000D01*
X27910000Y-67476000D01*
X27903888Y-67475398D01*
X27885466Y-67475398D01*
X27880467Y-67475152D01*
X27831636Y-67470342D01*
X27826686Y-67469608D01*
X27778561Y-67460036D01*
X27773705Y-67458820D01*
X27726750Y-67444576D01*
X27722039Y-67442890D01*
X27676706Y-67424113D01*
X27672180Y-67421973D01*
X27628907Y-67398842D01*
X27624616Y-67396269D01*
X27583817Y-67369009D01*
X27579796Y-67366027D01*
X27541867Y-67334899D01*
X27538159Y-67331538D01*
X27503462Y-67296841D01*
X27500101Y-67293133D01*
X27468973Y-67255204D01*
X27465991Y-67251183D01*
X27438731Y-67210384D01*
X27436158Y-67206093D01*
X27413027Y-67162820D01*
X27410887Y-67158294D01*
X27392110Y-67112961D01*
X27390424Y-67108250D01*
X27376180Y-67061295D01*
X27374964Y-67056439D01*
X27365392Y-67008314D01*
X27364658Y-67003364D01*
X27359848Y-66954533D01*
X27359602Y-66949534D01*
X27359602Y-66931112D01*
X27359000Y-66925000D01*
X27359000Y-66425000D01*
X27359602Y-66418888D01*
X27359602Y-66400466D01*
X27359848Y-66395467D01*
X27364658Y-66346636D01*
X27365392Y-66341686D01*
X27374964Y-66293561D01*
X27376180Y-66288705D01*
X27390424Y-66241750D01*
X27392110Y-66237039D01*
X27410887Y-66191706D01*
X27413027Y-66187180D01*
X27436158Y-66143907D01*
X27438731Y-66139616D01*
X27465991Y-66098817D01*
X27468973Y-66094796D01*
X27500101Y-66056867D01*
X27503462Y-66053159D01*
X27538159Y-66018462D01*
X27541867Y-66015101D01*
X27579796Y-65983973D01*
X27583817Y-65980991D01*
X27624616Y-65953731D01*
X27628907Y-65951158D01*
X27672180Y-65928027D01*
X27676706Y-65925887D01*
X27722039Y-65907110D01*
X27726750Y-65905424D01*
X27773705Y-65891180D01*
X27778561Y-65889964D01*
X27826686Y-65880392D01*
X27831636Y-65879658D01*
X27880467Y-65874848D01*
X27885466Y-65874602D01*
X27903888Y-65874602D01*
X27910000Y-65874000D01*
X28460000Y-65874000D01*
X28469950Y-65874980D01*
X28469950Y-65874980D01*
G37*
D18*
X29210000Y-66675000D03*
D17*
X30510000Y-66675000D03*
D14*
G36*
X30516112Y-65874602D02*
G01*
X30534534Y-65874602D01*
X30539533Y-65874848D01*
X30588364Y-65879658D01*
X30593314Y-65880392D01*
X30641439Y-65889964D01*
X30646295Y-65891180D01*
X30693250Y-65905424D01*
X30697961Y-65907110D01*
X30743294Y-65925887D01*
X30747820Y-65928027D01*
X30791093Y-65951158D01*
X30795384Y-65953731D01*
X30836183Y-65980991D01*
X30840204Y-65983973D01*
X30878133Y-66015101D01*
X30881841Y-66018462D01*
X30916538Y-66053159D01*
X30919899Y-66056867D01*
X30951027Y-66094796D01*
X30954009Y-66098817D01*
X30981269Y-66139616D01*
X30983842Y-66143907D01*
X31006973Y-66187180D01*
X31009113Y-66191706D01*
X31027890Y-66237039D01*
X31029576Y-66241750D01*
X31043820Y-66288705D01*
X31045036Y-66293561D01*
X31054608Y-66341686D01*
X31055342Y-66346636D01*
X31060152Y-66395467D01*
X31060398Y-66400466D01*
X31060398Y-66418888D01*
X31061000Y-66425000D01*
X31061000Y-66925000D01*
X31060398Y-66931112D01*
X31060398Y-66949534D01*
X31060152Y-66954533D01*
X31055342Y-67003364D01*
X31054608Y-67008314D01*
X31045036Y-67056439D01*
X31043820Y-67061295D01*
X31029576Y-67108250D01*
X31027890Y-67112961D01*
X31009113Y-67158294D01*
X31006973Y-67162820D01*
X30983842Y-67206093D01*
X30981269Y-67210384D01*
X30954009Y-67251183D01*
X30951027Y-67255204D01*
X30919899Y-67293133D01*
X30916538Y-67296841D01*
X30881841Y-67331538D01*
X30878133Y-67334899D01*
X30840204Y-67366027D01*
X30836183Y-67369009D01*
X30795384Y-67396269D01*
X30791093Y-67398842D01*
X30747820Y-67421973D01*
X30743294Y-67424113D01*
X30697961Y-67442890D01*
X30693250Y-67444576D01*
X30646295Y-67458820D01*
X30641439Y-67460036D01*
X30593314Y-67469608D01*
X30588364Y-67470342D01*
X30539533Y-67475152D01*
X30534534Y-67475398D01*
X30516112Y-67475398D01*
X30510000Y-67476000D01*
X29960000Y-67476000D01*
X29950050Y-67475020D01*
X29940483Y-67472118D01*
X29931666Y-67467405D01*
X29923938Y-67461062D01*
X29917595Y-67453334D01*
X29912882Y-67444517D01*
X29909980Y-67434950D01*
X29909000Y-67425000D01*
X29909000Y-65925000D01*
X29909980Y-65915050D01*
X29912882Y-65905483D01*
X29917595Y-65896666D01*
X29923938Y-65888938D01*
X29931666Y-65882595D01*
X29940483Y-65877882D01*
X29950050Y-65874980D01*
X29960000Y-65874000D01*
X30510000Y-65874000D01*
X30516112Y-65874602D01*
X30516112Y-65874602D01*
G37*
D17*
X25527000Y-57180000D03*
D14*
G36*
X24726980Y-56620050D02*
G01*
X24729882Y-56610483D01*
X24734595Y-56601666D01*
X24740938Y-56593938D01*
X24748666Y-56587595D01*
X24757483Y-56582882D01*
X24767050Y-56579980D01*
X24777000Y-56579000D01*
X26277000Y-56579000D01*
X26286950Y-56579980D01*
X26296517Y-56582882D01*
X26305334Y-56587595D01*
X26313062Y-56593938D01*
X26319405Y-56601666D01*
X26324118Y-56610483D01*
X26327020Y-56620050D01*
X26328000Y-56630000D01*
X26328000Y-57180000D01*
X26327398Y-57186112D01*
X26327398Y-57204534D01*
X26327152Y-57209533D01*
X26322342Y-57258364D01*
X26321608Y-57263314D01*
X26312036Y-57311439D01*
X26310820Y-57316295D01*
X26296576Y-57363250D01*
X26294890Y-57367961D01*
X26276113Y-57413294D01*
X26273973Y-57417820D01*
X26250842Y-57461093D01*
X26248269Y-57465384D01*
X26221009Y-57506183D01*
X26218027Y-57510204D01*
X26186899Y-57548133D01*
X26183538Y-57551841D01*
X26148841Y-57586538D01*
X26145133Y-57589899D01*
X26107204Y-57621027D01*
X26103183Y-57624009D01*
X26062384Y-57651269D01*
X26058093Y-57653842D01*
X26014820Y-57676973D01*
X26010294Y-57679113D01*
X25964961Y-57697890D01*
X25960250Y-57699576D01*
X25913295Y-57713820D01*
X25908439Y-57715036D01*
X25860314Y-57724608D01*
X25855364Y-57725342D01*
X25806533Y-57730152D01*
X25801534Y-57730398D01*
X25783112Y-57730398D01*
X25777000Y-57731000D01*
X25277000Y-57731000D01*
X25270888Y-57730398D01*
X25252466Y-57730398D01*
X25247467Y-57730152D01*
X25198636Y-57725342D01*
X25193686Y-57724608D01*
X25145561Y-57715036D01*
X25140705Y-57713820D01*
X25093750Y-57699576D01*
X25089039Y-57697890D01*
X25043706Y-57679113D01*
X25039180Y-57676973D01*
X24995907Y-57653842D01*
X24991616Y-57651269D01*
X24950817Y-57624009D01*
X24946796Y-57621027D01*
X24908867Y-57589899D01*
X24905159Y-57586538D01*
X24870462Y-57551841D01*
X24867101Y-57548133D01*
X24835973Y-57510204D01*
X24832991Y-57506183D01*
X24805731Y-57465384D01*
X24803158Y-57461093D01*
X24780027Y-57417820D01*
X24777887Y-57413294D01*
X24759110Y-57367961D01*
X24757424Y-57363250D01*
X24743180Y-57316295D01*
X24741964Y-57311439D01*
X24732392Y-57263314D01*
X24731658Y-57258364D01*
X24726848Y-57209533D01*
X24726602Y-57204534D01*
X24726602Y-57186112D01*
X24726000Y-57180000D01*
X24726000Y-56630000D01*
X24726980Y-56620050D01*
X24726980Y-56620050D01*
G37*
D19*
X25527000Y-55880000D03*
D17*
X25527000Y-54580000D03*
D14*
G36*
X24726602Y-54573888D02*
G01*
X24726602Y-54555466D01*
X24726848Y-54550467D01*
X24731658Y-54501636D01*
X24732392Y-54496686D01*
X24741964Y-54448561D01*
X24743180Y-54443705D01*
X24757424Y-54396750D01*
X24759110Y-54392039D01*
X24777887Y-54346706D01*
X24780027Y-54342180D01*
X24803158Y-54298907D01*
X24805731Y-54294616D01*
X24832991Y-54253817D01*
X24835973Y-54249796D01*
X24867101Y-54211867D01*
X24870462Y-54208159D01*
X24905159Y-54173462D01*
X24908867Y-54170101D01*
X24946796Y-54138973D01*
X24950817Y-54135991D01*
X24991616Y-54108731D01*
X24995907Y-54106158D01*
X25039180Y-54083027D01*
X25043706Y-54080887D01*
X25089039Y-54062110D01*
X25093750Y-54060424D01*
X25140705Y-54046180D01*
X25145561Y-54044964D01*
X25193686Y-54035392D01*
X25198636Y-54034658D01*
X25247467Y-54029848D01*
X25252466Y-54029602D01*
X25270888Y-54029602D01*
X25277000Y-54029000D01*
X25777000Y-54029000D01*
X25783112Y-54029602D01*
X25801534Y-54029602D01*
X25806533Y-54029848D01*
X25855364Y-54034658D01*
X25860314Y-54035392D01*
X25908439Y-54044964D01*
X25913295Y-54046180D01*
X25960250Y-54060424D01*
X25964961Y-54062110D01*
X26010294Y-54080887D01*
X26014820Y-54083027D01*
X26058093Y-54106158D01*
X26062384Y-54108731D01*
X26103183Y-54135991D01*
X26107204Y-54138973D01*
X26145133Y-54170101D01*
X26148841Y-54173462D01*
X26183538Y-54208159D01*
X26186899Y-54211867D01*
X26218027Y-54249796D01*
X26221009Y-54253817D01*
X26248269Y-54294616D01*
X26250842Y-54298907D01*
X26273973Y-54342180D01*
X26276113Y-54346706D01*
X26294890Y-54392039D01*
X26296576Y-54396750D01*
X26310820Y-54443705D01*
X26312036Y-54448561D01*
X26321608Y-54496686D01*
X26322342Y-54501636D01*
X26327152Y-54550467D01*
X26327398Y-54555466D01*
X26327398Y-54573888D01*
X26328000Y-54580000D01*
X26328000Y-55130000D01*
X26327020Y-55139950D01*
X26324118Y-55149517D01*
X26319405Y-55158334D01*
X26313062Y-55166062D01*
X26305334Y-55172405D01*
X26296517Y-55177118D01*
X26286950Y-55180020D01*
X26277000Y-55181000D01*
X24777000Y-55181000D01*
X24767050Y-55180020D01*
X24757483Y-55177118D01*
X24748666Y-55172405D01*
X24740938Y-55166062D01*
X24734595Y-55158334D01*
X24729882Y-55149517D01*
X24726980Y-55139950D01*
X24726000Y-55130000D01*
X24726000Y-54580000D01*
X24726602Y-54573888D01*
X24726602Y-54573888D01*
G37*
D15*
X55880000Y-55880000D03*
X48260000Y-73660000D03*
X55880000Y-58420000D03*
X48260000Y-71120000D03*
X55880000Y-60960000D03*
X48260000Y-68580000D03*
X55880000Y-63500000D03*
X48260000Y-66040000D03*
X55880000Y-66040000D03*
X48260000Y-63500000D03*
X55880000Y-68580000D03*
X48260000Y-60960000D03*
X55880000Y-71120000D03*
X48260000Y-58420000D03*
X55880000Y-73660000D03*
D16*
X48260000Y-55880000D03*
D15*
X48260000Y-43180000D03*
X55880000Y-25400000D03*
X48260000Y-40640000D03*
X55880000Y-27940000D03*
X48260000Y-38100000D03*
X55880000Y-30480000D03*
X48260000Y-35560000D03*
X55880000Y-33020000D03*
X48260000Y-33020000D03*
X55880000Y-35560000D03*
X48260000Y-30480000D03*
X55880000Y-38100000D03*
X48260000Y-27940000D03*
X55880000Y-40640000D03*
X48260000Y-25400000D03*
D16*
X55880000Y-43180000D03*
D14*
G36*
X22734344Y-22048957D02*
G01*
X22773804Y-22054811D01*
X22812501Y-22064504D01*
X22850061Y-22077943D01*
X22886123Y-22094999D01*
X22920339Y-22115508D01*
X22952381Y-22139271D01*
X22981939Y-22166061D01*
X23008729Y-22195619D01*
X23032492Y-22227661D01*
X23053001Y-22261877D01*
X23070057Y-22297939D01*
X23083496Y-22335499D01*
X23093189Y-22374196D01*
X23099043Y-22413656D01*
X23101000Y-22453500D01*
X23101000Y-23266500D01*
X23099043Y-23306344D01*
X23093189Y-23345804D01*
X23083496Y-23384501D01*
X23070057Y-23422061D01*
X23053001Y-23458123D01*
X23032492Y-23492339D01*
X23008729Y-23524381D01*
X22981939Y-23553939D01*
X22952381Y-23580729D01*
X22920339Y-23604492D01*
X22886123Y-23625001D01*
X22850061Y-23642057D01*
X22812501Y-23655496D01*
X22773804Y-23665189D01*
X22734344Y-23671043D01*
X22694500Y-23673000D01*
X15405500Y-23673000D01*
X15365656Y-23671043D01*
X15326196Y-23665189D01*
X15287499Y-23655496D01*
X15249939Y-23642057D01*
X15213877Y-23625001D01*
X15179661Y-23604492D01*
X15147619Y-23580729D01*
X15118061Y-23553939D01*
X15091271Y-23524381D01*
X15067508Y-23492339D01*
X15046999Y-23458123D01*
X15029943Y-23422061D01*
X15016504Y-23384501D01*
X15006811Y-23345804D01*
X15000957Y-23306344D01*
X14999000Y-23266500D01*
X14999000Y-22453500D01*
X15000957Y-22413656D01*
X15006811Y-22374196D01*
X15016504Y-22335499D01*
X15029943Y-22297939D01*
X15046999Y-22261877D01*
X15067508Y-22227661D01*
X15091271Y-22195619D01*
X15118061Y-22166061D01*
X15147619Y-22139271D01*
X15179661Y-22115508D01*
X15213877Y-22094999D01*
X15249939Y-22077943D01*
X15287499Y-22064504D01*
X15326196Y-22054811D01*
X15365656Y-22048957D01*
X15405500Y-22047000D01*
X22694500Y-22047000D01*
X22734344Y-22048957D01*
X22734344Y-22048957D01*
G37*
D20*
X19050000Y-22860000D03*
D14*
G36*
X22734344Y-24588957D02*
G01*
X22773804Y-24594811D01*
X22812501Y-24604504D01*
X22850061Y-24617943D01*
X22886123Y-24634999D01*
X22920339Y-24655508D01*
X22952381Y-24679271D01*
X22981939Y-24706061D01*
X23008729Y-24735619D01*
X23032492Y-24767661D01*
X23053001Y-24801877D01*
X23070057Y-24837939D01*
X23083496Y-24875499D01*
X23093189Y-24914196D01*
X23099043Y-24953656D01*
X23101000Y-24993500D01*
X23101000Y-25806500D01*
X23099043Y-25846344D01*
X23093189Y-25885804D01*
X23083496Y-25924501D01*
X23070057Y-25962061D01*
X23053001Y-25998123D01*
X23032492Y-26032339D01*
X23008729Y-26064381D01*
X22981939Y-26093939D01*
X22952381Y-26120729D01*
X22920339Y-26144492D01*
X22886123Y-26165001D01*
X22850061Y-26182057D01*
X22812501Y-26195496D01*
X22773804Y-26205189D01*
X22734344Y-26211043D01*
X22694500Y-26213000D01*
X15405500Y-26213000D01*
X15365656Y-26211043D01*
X15326196Y-26205189D01*
X15287499Y-26195496D01*
X15249939Y-26182057D01*
X15213877Y-26165001D01*
X15179661Y-26144492D01*
X15147619Y-26120729D01*
X15118061Y-26093939D01*
X15091271Y-26064381D01*
X15067508Y-26032339D01*
X15046999Y-25998123D01*
X15029943Y-25962061D01*
X15016504Y-25924501D01*
X15006811Y-25885804D01*
X15000957Y-25846344D01*
X14999000Y-25806500D01*
X14999000Y-24993500D01*
X15000957Y-24953656D01*
X15006811Y-24914196D01*
X15016504Y-24875499D01*
X15029943Y-24837939D01*
X15046999Y-24801877D01*
X15067508Y-24767661D01*
X15091271Y-24735619D01*
X15118061Y-24706061D01*
X15147619Y-24679271D01*
X15179661Y-24655508D01*
X15213877Y-24634999D01*
X15249939Y-24617943D01*
X15287499Y-24604504D01*
X15326196Y-24594811D01*
X15365656Y-24588957D01*
X15405500Y-24587000D01*
X22694500Y-24587000D01*
X22734344Y-24588957D01*
X22734344Y-24588957D01*
G37*
D20*
X19050000Y-25400000D03*
D14*
G36*
X22734344Y-27128957D02*
G01*
X22773804Y-27134811D01*
X22812501Y-27144504D01*
X22850061Y-27157943D01*
X22886123Y-27174999D01*
X22920339Y-27195508D01*
X22952381Y-27219271D01*
X22981939Y-27246061D01*
X23008729Y-27275619D01*
X23032492Y-27307661D01*
X23053001Y-27341877D01*
X23070057Y-27377939D01*
X23083496Y-27415499D01*
X23093189Y-27454196D01*
X23099043Y-27493656D01*
X23101000Y-27533500D01*
X23101000Y-28346500D01*
X23099043Y-28386344D01*
X23093189Y-28425804D01*
X23083496Y-28464501D01*
X23070057Y-28502061D01*
X23053001Y-28538123D01*
X23032492Y-28572339D01*
X23008729Y-28604381D01*
X22981939Y-28633939D01*
X22952381Y-28660729D01*
X22920339Y-28684492D01*
X22886123Y-28705001D01*
X22850061Y-28722057D01*
X22812501Y-28735496D01*
X22773804Y-28745189D01*
X22734344Y-28751043D01*
X22694500Y-28753000D01*
X15405500Y-28753000D01*
X15365656Y-28751043D01*
X15326196Y-28745189D01*
X15287499Y-28735496D01*
X15249939Y-28722057D01*
X15213877Y-28705001D01*
X15179661Y-28684492D01*
X15147619Y-28660729D01*
X15118061Y-28633939D01*
X15091271Y-28604381D01*
X15067508Y-28572339D01*
X15046999Y-28538123D01*
X15029943Y-28502061D01*
X15016504Y-28464501D01*
X15006811Y-28425804D01*
X15000957Y-28386344D01*
X14999000Y-28346500D01*
X14999000Y-27533500D01*
X15000957Y-27493656D01*
X15006811Y-27454196D01*
X15016504Y-27415499D01*
X15029943Y-27377939D01*
X15046999Y-27341877D01*
X15067508Y-27307661D01*
X15091271Y-27275619D01*
X15118061Y-27246061D01*
X15147619Y-27219271D01*
X15179661Y-27195508D01*
X15213877Y-27174999D01*
X15249939Y-27157943D01*
X15287499Y-27144504D01*
X15326196Y-27134811D01*
X15365656Y-27128957D01*
X15405500Y-27127000D01*
X22694500Y-27127000D01*
X22734344Y-27128957D01*
X22734344Y-27128957D01*
G37*
D20*
X19050000Y-27940000D03*
D14*
G36*
X22734344Y-29668957D02*
G01*
X22773804Y-29674811D01*
X22812501Y-29684504D01*
X22850061Y-29697943D01*
X22886123Y-29714999D01*
X22920339Y-29735508D01*
X22952381Y-29759271D01*
X22981939Y-29786061D01*
X23008729Y-29815619D01*
X23032492Y-29847661D01*
X23053001Y-29881877D01*
X23070057Y-29917939D01*
X23083496Y-29955499D01*
X23093189Y-29994196D01*
X23099043Y-30033656D01*
X23101000Y-30073500D01*
X23101000Y-30886500D01*
X23099043Y-30926344D01*
X23093189Y-30965804D01*
X23083496Y-31004501D01*
X23070057Y-31042061D01*
X23053001Y-31078123D01*
X23032492Y-31112339D01*
X23008729Y-31144381D01*
X22981939Y-31173939D01*
X22952381Y-31200729D01*
X22920339Y-31224492D01*
X22886123Y-31245001D01*
X22850061Y-31262057D01*
X22812501Y-31275496D01*
X22773804Y-31285189D01*
X22734344Y-31291043D01*
X22694500Y-31293000D01*
X15405500Y-31293000D01*
X15365656Y-31291043D01*
X15326196Y-31285189D01*
X15287499Y-31275496D01*
X15249939Y-31262057D01*
X15213877Y-31245001D01*
X15179661Y-31224492D01*
X15147619Y-31200729D01*
X15118061Y-31173939D01*
X15091271Y-31144381D01*
X15067508Y-31112339D01*
X15046999Y-31078123D01*
X15029943Y-31042061D01*
X15016504Y-31004501D01*
X15006811Y-30965804D01*
X15000957Y-30926344D01*
X14999000Y-30886500D01*
X14999000Y-30073500D01*
X15000957Y-30033656D01*
X15006811Y-29994196D01*
X15016504Y-29955499D01*
X15029943Y-29917939D01*
X15046999Y-29881877D01*
X15067508Y-29847661D01*
X15091271Y-29815619D01*
X15118061Y-29786061D01*
X15147619Y-29759271D01*
X15179661Y-29735508D01*
X15213877Y-29714999D01*
X15249939Y-29697943D01*
X15287499Y-29684504D01*
X15326196Y-29674811D01*
X15365656Y-29668957D01*
X15405500Y-29667000D01*
X22694500Y-29667000D01*
X22734344Y-29668957D01*
X22734344Y-29668957D01*
G37*
D20*
X19050000Y-30480000D03*
D14*
G36*
X22734344Y-32208957D02*
G01*
X22773804Y-32214811D01*
X22812501Y-32224504D01*
X22850061Y-32237943D01*
X22886123Y-32254999D01*
X22920339Y-32275508D01*
X22952381Y-32299271D01*
X22981939Y-32326061D01*
X23008729Y-32355619D01*
X23032492Y-32387661D01*
X23053001Y-32421877D01*
X23070057Y-32457939D01*
X23083496Y-32495499D01*
X23093189Y-32534196D01*
X23099043Y-32573656D01*
X23101000Y-32613500D01*
X23101000Y-33426500D01*
X23099043Y-33466344D01*
X23093189Y-33505804D01*
X23083496Y-33544501D01*
X23070057Y-33582061D01*
X23053001Y-33618123D01*
X23032492Y-33652339D01*
X23008729Y-33684381D01*
X22981939Y-33713939D01*
X22952381Y-33740729D01*
X22920339Y-33764492D01*
X22886123Y-33785001D01*
X22850061Y-33802057D01*
X22812501Y-33815496D01*
X22773804Y-33825189D01*
X22734344Y-33831043D01*
X22694500Y-33833000D01*
X15405500Y-33833000D01*
X15365656Y-33831043D01*
X15326196Y-33825189D01*
X15287499Y-33815496D01*
X15249939Y-33802057D01*
X15213877Y-33785001D01*
X15179661Y-33764492D01*
X15147619Y-33740729D01*
X15118061Y-33713939D01*
X15091271Y-33684381D01*
X15067508Y-33652339D01*
X15046999Y-33618123D01*
X15029943Y-33582061D01*
X15016504Y-33544501D01*
X15006811Y-33505804D01*
X15000957Y-33466344D01*
X14999000Y-33426500D01*
X14999000Y-32613500D01*
X15000957Y-32573656D01*
X15006811Y-32534196D01*
X15016504Y-32495499D01*
X15029943Y-32457939D01*
X15046999Y-32421877D01*
X15067508Y-32387661D01*
X15091271Y-32355619D01*
X15118061Y-32326061D01*
X15147619Y-32299271D01*
X15179661Y-32275508D01*
X15213877Y-32254999D01*
X15249939Y-32237943D01*
X15287499Y-32224504D01*
X15326196Y-32214811D01*
X15365656Y-32208957D01*
X15405500Y-32207000D01*
X22694500Y-32207000D01*
X22734344Y-32208957D01*
X22734344Y-32208957D01*
G37*
D20*
X19050000Y-33020000D03*
D14*
G36*
X22734344Y-34748957D02*
G01*
X22773804Y-34754811D01*
X22812501Y-34764504D01*
X22850061Y-34777943D01*
X22886123Y-34794999D01*
X22920339Y-34815508D01*
X22952381Y-34839271D01*
X22981939Y-34866061D01*
X23008729Y-34895619D01*
X23032492Y-34927661D01*
X23053001Y-34961877D01*
X23070057Y-34997939D01*
X23083496Y-35035499D01*
X23093189Y-35074196D01*
X23099043Y-35113656D01*
X23101000Y-35153500D01*
X23101000Y-35966500D01*
X23099043Y-36006344D01*
X23093189Y-36045804D01*
X23083496Y-36084501D01*
X23070057Y-36122061D01*
X23053001Y-36158123D01*
X23032492Y-36192339D01*
X23008729Y-36224381D01*
X22981939Y-36253939D01*
X22952381Y-36280729D01*
X22920339Y-36304492D01*
X22886123Y-36325001D01*
X22850061Y-36342057D01*
X22812501Y-36355496D01*
X22773804Y-36365189D01*
X22734344Y-36371043D01*
X22694500Y-36373000D01*
X15405500Y-36373000D01*
X15365656Y-36371043D01*
X15326196Y-36365189D01*
X15287499Y-36355496D01*
X15249939Y-36342057D01*
X15213877Y-36325001D01*
X15179661Y-36304492D01*
X15147619Y-36280729D01*
X15118061Y-36253939D01*
X15091271Y-36224381D01*
X15067508Y-36192339D01*
X15046999Y-36158123D01*
X15029943Y-36122061D01*
X15016504Y-36084501D01*
X15006811Y-36045804D01*
X15000957Y-36006344D01*
X14999000Y-35966500D01*
X14999000Y-35153500D01*
X15000957Y-35113656D01*
X15006811Y-35074196D01*
X15016504Y-35035499D01*
X15029943Y-34997939D01*
X15046999Y-34961877D01*
X15067508Y-34927661D01*
X15091271Y-34895619D01*
X15118061Y-34866061D01*
X15147619Y-34839271D01*
X15179661Y-34815508D01*
X15213877Y-34794999D01*
X15249939Y-34777943D01*
X15287499Y-34764504D01*
X15326196Y-34754811D01*
X15365656Y-34748957D01*
X15405500Y-34747000D01*
X22694500Y-34747000D01*
X22734344Y-34748957D01*
X22734344Y-34748957D01*
G37*
D20*
X19050000Y-35560000D03*
D14*
G36*
X22734344Y-37288957D02*
G01*
X22773804Y-37294811D01*
X22812501Y-37304504D01*
X22850061Y-37317943D01*
X22886123Y-37334999D01*
X22920339Y-37355508D01*
X22952381Y-37379271D01*
X22981939Y-37406061D01*
X23008729Y-37435619D01*
X23032492Y-37467661D01*
X23053001Y-37501877D01*
X23070057Y-37537939D01*
X23083496Y-37575499D01*
X23093189Y-37614196D01*
X23099043Y-37653656D01*
X23101000Y-37693500D01*
X23101000Y-38506500D01*
X23099043Y-38546344D01*
X23093189Y-38585804D01*
X23083496Y-38624501D01*
X23070057Y-38662061D01*
X23053001Y-38698123D01*
X23032492Y-38732339D01*
X23008729Y-38764381D01*
X22981939Y-38793939D01*
X22952381Y-38820729D01*
X22920339Y-38844492D01*
X22886123Y-38865001D01*
X22850061Y-38882057D01*
X22812501Y-38895496D01*
X22773804Y-38905189D01*
X22734344Y-38911043D01*
X22694500Y-38913000D01*
X15405500Y-38913000D01*
X15365656Y-38911043D01*
X15326196Y-38905189D01*
X15287499Y-38895496D01*
X15249939Y-38882057D01*
X15213877Y-38865001D01*
X15179661Y-38844492D01*
X15147619Y-38820729D01*
X15118061Y-38793939D01*
X15091271Y-38764381D01*
X15067508Y-38732339D01*
X15046999Y-38698123D01*
X15029943Y-38662061D01*
X15016504Y-38624501D01*
X15006811Y-38585804D01*
X15000957Y-38546344D01*
X14999000Y-38506500D01*
X14999000Y-37693500D01*
X15000957Y-37653656D01*
X15006811Y-37614196D01*
X15016504Y-37575499D01*
X15029943Y-37537939D01*
X15046999Y-37501877D01*
X15067508Y-37467661D01*
X15091271Y-37435619D01*
X15118061Y-37406061D01*
X15147619Y-37379271D01*
X15179661Y-37355508D01*
X15213877Y-37334999D01*
X15249939Y-37317943D01*
X15287499Y-37304504D01*
X15326196Y-37294811D01*
X15365656Y-37288957D01*
X15405500Y-37287000D01*
X22694500Y-37287000D01*
X22734344Y-37288957D01*
X22734344Y-37288957D01*
G37*
D20*
X19050000Y-38100000D03*
D14*
G36*
X22734344Y-39828957D02*
G01*
X22773804Y-39834811D01*
X22812501Y-39844504D01*
X22850061Y-39857943D01*
X22886123Y-39874999D01*
X22920339Y-39895508D01*
X22952381Y-39919271D01*
X22981939Y-39946061D01*
X23008729Y-39975619D01*
X23032492Y-40007661D01*
X23053001Y-40041877D01*
X23070057Y-40077939D01*
X23083496Y-40115499D01*
X23093189Y-40154196D01*
X23099043Y-40193656D01*
X23101000Y-40233500D01*
X23101000Y-41046500D01*
X23099043Y-41086344D01*
X23093189Y-41125804D01*
X23083496Y-41164501D01*
X23070057Y-41202061D01*
X23053001Y-41238123D01*
X23032492Y-41272339D01*
X23008729Y-41304381D01*
X22981939Y-41333939D01*
X22952381Y-41360729D01*
X22920339Y-41384492D01*
X22886123Y-41405001D01*
X22850061Y-41422057D01*
X22812501Y-41435496D01*
X22773804Y-41445189D01*
X22734344Y-41451043D01*
X22694500Y-41453000D01*
X15405500Y-41453000D01*
X15365656Y-41451043D01*
X15326196Y-41445189D01*
X15287499Y-41435496D01*
X15249939Y-41422057D01*
X15213877Y-41405001D01*
X15179661Y-41384492D01*
X15147619Y-41360729D01*
X15118061Y-41333939D01*
X15091271Y-41304381D01*
X15067508Y-41272339D01*
X15046999Y-41238123D01*
X15029943Y-41202061D01*
X15016504Y-41164501D01*
X15006811Y-41125804D01*
X15000957Y-41086344D01*
X14999000Y-41046500D01*
X14999000Y-40233500D01*
X15000957Y-40193656D01*
X15006811Y-40154196D01*
X15016504Y-40115499D01*
X15029943Y-40077939D01*
X15046999Y-40041877D01*
X15067508Y-40007661D01*
X15091271Y-39975619D01*
X15118061Y-39946061D01*
X15147619Y-39919271D01*
X15179661Y-39895508D01*
X15213877Y-39874999D01*
X15249939Y-39857943D01*
X15287499Y-39844504D01*
X15326196Y-39834811D01*
X15365656Y-39828957D01*
X15405500Y-39827000D01*
X22694500Y-39827000D01*
X22734344Y-39828957D01*
X22734344Y-39828957D01*
G37*
D20*
X19050000Y-40640000D03*
D14*
G36*
X22734344Y-42368957D02*
G01*
X22773804Y-42374811D01*
X22812501Y-42384504D01*
X22850061Y-42397943D01*
X22886123Y-42414999D01*
X22920339Y-42435508D01*
X22952381Y-42459271D01*
X22981939Y-42486061D01*
X23008729Y-42515619D01*
X23032492Y-42547661D01*
X23053001Y-42581877D01*
X23070057Y-42617939D01*
X23083496Y-42655499D01*
X23093189Y-42694196D01*
X23099043Y-42733656D01*
X23101000Y-42773500D01*
X23101000Y-43586500D01*
X23099043Y-43626344D01*
X23093189Y-43665804D01*
X23083496Y-43704501D01*
X23070057Y-43742061D01*
X23053001Y-43778123D01*
X23032492Y-43812339D01*
X23008729Y-43844381D01*
X22981939Y-43873939D01*
X22952381Y-43900729D01*
X22920339Y-43924492D01*
X22886123Y-43945001D01*
X22850061Y-43962057D01*
X22812501Y-43975496D01*
X22773804Y-43985189D01*
X22734344Y-43991043D01*
X22694500Y-43993000D01*
X15405500Y-43993000D01*
X15365656Y-43991043D01*
X15326196Y-43985189D01*
X15287499Y-43975496D01*
X15249939Y-43962057D01*
X15213877Y-43945001D01*
X15179661Y-43924492D01*
X15147619Y-43900729D01*
X15118061Y-43873939D01*
X15091271Y-43844381D01*
X15067508Y-43812339D01*
X15046999Y-43778123D01*
X15029943Y-43742061D01*
X15016504Y-43704501D01*
X15006811Y-43665804D01*
X15000957Y-43626344D01*
X14999000Y-43586500D01*
X14999000Y-42773500D01*
X15000957Y-42733656D01*
X15006811Y-42694196D01*
X15016504Y-42655499D01*
X15029943Y-42617939D01*
X15046999Y-42581877D01*
X15067508Y-42547661D01*
X15091271Y-42515619D01*
X15118061Y-42486061D01*
X15147619Y-42459271D01*
X15179661Y-42435508D01*
X15213877Y-42414999D01*
X15249939Y-42397943D01*
X15287499Y-42384504D01*
X15326196Y-42374811D01*
X15365656Y-42368957D01*
X15405500Y-42367000D01*
X22694500Y-42367000D01*
X22734344Y-42368957D01*
X22734344Y-42368957D01*
G37*
D20*
X19050000Y-43180000D03*
D14*
G36*
X22734344Y-44908957D02*
G01*
X22773804Y-44914811D01*
X22812501Y-44924504D01*
X22850061Y-44937943D01*
X22886123Y-44954999D01*
X22920339Y-44975508D01*
X22952381Y-44999271D01*
X22981939Y-45026061D01*
X23008729Y-45055619D01*
X23032492Y-45087661D01*
X23053001Y-45121877D01*
X23070057Y-45157939D01*
X23083496Y-45195499D01*
X23093189Y-45234196D01*
X23099043Y-45273656D01*
X23101000Y-45313500D01*
X23101000Y-46126500D01*
X23099043Y-46166344D01*
X23093189Y-46205804D01*
X23083496Y-46244501D01*
X23070057Y-46282061D01*
X23053001Y-46318123D01*
X23032492Y-46352339D01*
X23008729Y-46384381D01*
X22981939Y-46413939D01*
X22952381Y-46440729D01*
X22920339Y-46464492D01*
X22886123Y-46485001D01*
X22850061Y-46502057D01*
X22812501Y-46515496D01*
X22773804Y-46525189D01*
X22734344Y-46531043D01*
X22694500Y-46533000D01*
X15405500Y-46533000D01*
X15365656Y-46531043D01*
X15326196Y-46525189D01*
X15287499Y-46515496D01*
X15249939Y-46502057D01*
X15213877Y-46485001D01*
X15179661Y-46464492D01*
X15147619Y-46440729D01*
X15118061Y-46413939D01*
X15091271Y-46384381D01*
X15067508Y-46352339D01*
X15046999Y-46318123D01*
X15029943Y-46282061D01*
X15016504Y-46244501D01*
X15006811Y-46205804D01*
X15000957Y-46166344D01*
X14999000Y-46126500D01*
X14999000Y-45313500D01*
X15000957Y-45273656D01*
X15006811Y-45234196D01*
X15016504Y-45195499D01*
X15029943Y-45157939D01*
X15046999Y-45121877D01*
X15067508Y-45087661D01*
X15091271Y-45055619D01*
X15118061Y-45026061D01*
X15147619Y-44999271D01*
X15179661Y-44975508D01*
X15213877Y-44954999D01*
X15249939Y-44937943D01*
X15287499Y-44924504D01*
X15326196Y-44914811D01*
X15365656Y-44908957D01*
X15405500Y-44907000D01*
X22694500Y-44907000D01*
X22734344Y-44908957D01*
X22734344Y-44908957D01*
G37*
D20*
X19050000Y-45720000D03*
D14*
G36*
X22734344Y-47448957D02*
G01*
X22773804Y-47454811D01*
X22812501Y-47464504D01*
X22850061Y-47477943D01*
X22886123Y-47494999D01*
X22920339Y-47515508D01*
X22952381Y-47539271D01*
X22981939Y-47566061D01*
X23008729Y-47595619D01*
X23032492Y-47627661D01*
X23053001Y-47661877D01*
X23070057Y-47697939D01*
X23083496Y-47735499D01*
X23093189Y-47774196D01*
X23099043Y-47813656D01*
X23101000Y-47853500D01*
X23101000Y-48666500D01*
X23099043Y-48706344D01*
X23093189Y-48745804D01*
X23083496Y-48784501D01*
X23070057Y-48822061D01*
X23053001Y-48858123D01*
X23032492Y-48892339D01*
X23008729Y-48924381D01*
X22981939Y-48953939D01*
X22952381Y-48980729D01*
X22920339Y-49004492D01*
X22886123Y-49025001D01*
X22850061Y-49042057D01*
X22812501Y-49055496D01*
X22773804Y-49065189D01*
X22734344Y-49071043D01*
X22694500Y-49073000D01*
X15405500Y-49073000D01*
X15365656Y-49071043D01*
X15326196Y-49065189D01*
X15287499Y-49055496D01*
X15249939Y-49042057D01*
X15213877Y-49025001D01*
X15179661Y-49004492D01*
X15147619Y-48980729D01*
X15118061Y-48953939D01*
X15091271Y-48924381D01*
X15067508Y-48892339D01*
X15046999Y-48858123D01*
X15029943Y-48822061D01*
X15016504Y-48784501D01*
X15006811Y-48745804D01*
X15000957Y-48706344D01*
X14999000Y-48666500D01*
X14999000Y-47853500D01*
X15000957Y-47813656D01*
X15006811Y-47774196D01*
X15016504Y-47735499D01*
X15029943Y-47697939D01*
X15046999Y-47661877D01*
X15067508Y-47627661D01*
X15091271Y-47595619D01*
X15118061Y-47566061D01*
X15147619Y-47539271D01*
X15179661Y-47515508D01*
X15213877Y-47494999D01*
X15249939Y-47477943D01*
X15287499Y-47464504D01*
X15326196Y-47454811D01*
X15365656Y-47448957D01*
X15405500Y-47447000D01*
X22694500Y-47447000D01*
X22734344Y-47448957D01*
X22734344Y-47448957D01*
G37*
D20*
X19050000Y-48260000D03*
D14*
G36*
X22734344Y-49988957D02*
G01*
X22773804Y-49994811D01*
X22812501Y-50004504D01*
X22850061Y-50017943D01*
X22886123Y-50034999D01*
X22920339Y-50055508D01*
X22952381Y-50079271D01*
X22981939Y-50106061D01*
X23008729Y-50135619D01*
X23032492Y-50167661D01*
X23053001Y-50201877D01*
X23070057Y-50237939D01*
X23083496Y-50275499D01*
X23093189Y-50314196D01*
X23099043Y-50353656D01*
X23101000Y-50393500D01*
X23101000Y-51206500D01*
X23099043Y-51246344D01*
X23093189Y-51285804D01*
X23083496Y-51324501D01*
X23070057Y-51362061D01*
X23053001Y-51398123D01*
X23032492Y-51432339D01*
X23008729Y-51464381D01*
X22981939Y-51493939D01*
X22952381Y-51520729D01*
X22920339Y-51544492D01*
X22886123Y-51565001D01*
X22850061Y-51582057D01*
X22812501Y-51595496D01*
X22773804Y-51605189D01*
X22734344Y-51611043D01*
X22694500Y-51613000D01*
X15405500Y-51613000D01*
X15365656Y-51611043D01*
X15326196Y-51605189D01*
X15287499Y-51595496D01*
X15249939Y-51582057D01*
X15213877Y-51565001D01*
X15179661Y-51544492D01*
X15147619Y-51520729D01*
X15118061Y-51493939D01*
X15091271Y-51464381D01*
X15067508Y-51432339D01*
X15046999Y-51398123D01*
X15029943Y-51362061D01*
X15016504Y-51324501D01*
X15006811Y-51285804D01*
X15000957Y-51246344D01*
X14999000Y-51206500D01*
X14999000Y-50393500D01*
X15000957Y-50353656D01*
X15006811Y-50314196D01*
X15016504Y-50275499D01*
X15029943Y-50237939D01*
X15046999Y-50201877D01*
X15067508Y-50167661D01*
X15091271Y-50135619D01*
X15118061Y-50106061D01*
X15147619Y-50079271D01*
X15179661Y-50055508D01*
X15213877Y-50034999D01*
X15249939Y-50017943D01*
X15287499Y-50004504D01*
X15326196Y-49994811D01*
X15365656Y-49988957D01*
X15405500Y-49987000D01*
X22694500Y-49987000D01*
X22734344Y-49988957D01*
X22734344Y-49988957D01*
G37*
D20*
X19050000Y-50800000D03*
D14*
G36*
X22734344Y-52528957D02*
G01*
X22773804Y-52534811D01*
X22812501Y-52544504D01*
X22850061Y-52557943D01*
X22886123Y-52574999D01*
X22920339Y-52595508D01*
X22952381Y-52619271D01*
X22981939Y-52646061D01*
X23008729Y-52675619D01*
X23032492Y-52707661D01*
X23053001Y-52741877D01*
X23070057Y-52777939D01*
X23083496Y-52815499D01*
X23093189Y-52854196D01*
X23099043Y-52893656D01*
X23101000Y-52933500D01*
X23101000Y-53746500D01*
X23099043Y-53786344D01*
X23093189Y-53825804D01*
X23083496Y-53864501D01*
X23070057Y-53902061D01*
X23053001Y-53938123D01*
X23032492Y-53972339D01*
X23008729Y-54004381D01*
X22981939Y-54033939D01*
X22952381Y-54060729D01*
X22920339Y-54084492D01*
X22886123Y-54105001D01*
X22850061Y-54122057D01*
X22812501Y-54135496D01*
X22773804Y-54145189D01*
X22734344Y-54151043D01*
X22694500Y-54153000D01*
X15405500Y-54153000D01*
X15365656Y-54151043D01*
X15326196Y-54145189D01*
X15287499Y-54135496D01*
X15249939Y-54122057D01*
X15213877Y-54105001D01*
X15179661Y-54084492D01*
X15147619Y-54060729D01*
X15118061Y-54033939D01*
X15091271Y-54004381D01*
X15067508Y-53972339D01*
X15046999Y-53938123D01*
X15029943Y-53902061D01*
X15016504Y-53864501D01*
X15006811Y-53825804D01*
X15000957Y-53786344D01*
X14999000Y-53746500D01*
X14999000Y-52933500D01*
X15000957Y-52893656D01*
X15006811Y-52854196D01*
X15016504Y-52815499D01*
X15029943Y-52777939D01*
X15046999Y-52741877D01*
X15067508Y-52707661D01*
X15091271Y-52675619D01*
X15118061Y-52646061D01*
X15147619Y-52619271D01*
X15179661Y-52595508D01*
X15213877Y-52574999D01*
X15249939Y-52557943D01*
X15287499Y-52544504D01*
X15326196Y-52534811D01*
X15365656Y-52528957D01*
X15405500Y-52527000D01*
X22694500Y-52527000D01*
X22734344Y-52528957D01*
X22734344Y-52528957D01*
G37*
D20*
X19050000Y-53340000D03*
D14*
G36*
X22734344Y-55068957D02*
G01*
X22773804Y-55074811D01*
X22812501Y-55084504D01*
X22850061Y-55097943D01*
X22886123Y-55114999D01*
X22920339Y-55135508D01*
X22952381Y-55159271D01*
X22981939Y-55186061D01*
X23008729Y-55215619D01*
X23032492Y-55247661D01*
X23053001Y-55281877D01*
X23070057Y-55317939D01*
X23083496Y-55355499D01*
X23093189Y-55394196D01*
X23099043Y-55433656D01*
X23101000Y-55473500D01*
X23101000Y-56286500D01*
X23099043Y-56326344D01*
X23093189Y-56365804D01*
X23083496Y-56404501D01*
X23070057Y-56442061D01*
X23053001Y-56478123D01*
X23032492Y-56512339D01*
X23008729Y-56544381D01*
X22981939Y-56573939D01*
X22952381Y-56600729D01*
X22920339Y-56624492D01*
X22886123Y-56645001D01*
X22850061Y-56662057D01*
X22812501Y-56675496D01*
X22773804Y-56685189D01*
X22734344Y-56691043D01*
X22694500Y-56693000D01*
X15405500Y-56693000D01*
X15365656Y-56691043D01*
X15326196Y-56685189D01*
X15287499Y-56675496D01*
X15249939Y-56662057D01*
X15213877Y-56645001D01*
X15179661Y-56624492D01*
X15147619Y-56600729D01*
X15118061Y-56573939D01*
X15091271Y-56544381D01*
X15067508Y-56512339D01*
X15046999Y-56478123D01*
X15029943Y-56442061D01*
X15016504Y-56404501D01*
X15006811Y-56365804D01*
X15000957Y-56326344D01*
X14999000Y-56286500D01*
X14999000Y-55473500D01*
X15000957Y-55433656D01*
X15006811Y-55394196D01*
X15016504Y-55355499D01*
X15029943Y-55317939D01*
X15046999Y-55281877D01*
X15067508Y-55247661D01*
X15091271Y-55215619D01*
X15118061Y-55186061D01*
X15147619Y-55159271D01*
X15179661Y-55135508D01*
X15213877Y-55114999D01*
X15249939Y-55097943D01*
X15287499Y-55084504D01*
X15326196Y-55074811D01*
X15365656Y-55068957D01*
X15405500Y-55067000D01*
X22694500Y-55067000D01*
X22734344Y-55068957D01*
X22734344Y-55068957D01*
G37*
D20*
X19050000Y-55880000D03*
D14*
G36*
X22734344Y-57608957D02*
G01*
X22773804Y-57614811D01*
X22812501Y-57624504D01*
X22850061Y-57637943D01*
X22886123Y-57654999D01*
X22920339Y-57675508D01*
X22952381Y-57699271D01*
X22981939Y-57726061D01*
X23008729Y-57755619D01*
X23032492Y-57787661D01*
X23053001Y-57821877D01*
X23070057Y-57857939D01*
X23083496Y-57895499D01*
X23093189Y-57934196D01*
X23099043Y-57973656D01*
X23101000Y-58013500D01*
X23101000Y-58826500D01*
X23099043Y-58866344D01*
X23093189Y-58905804D01*
X23083496Y-58944501D01*
X23070057Y-58982061D01*
X23053001Y-59018123D01*
X23032492Y-59052339D01*
X23008729Y-59084381D01*
X22981939Y-59113939D01*
X22952381Y-59140729D01*
X22920339Y-59164492D01*
X22886123Y-59185001D01*
X22850061Y-59202057D01*
X22812501Y-59215496D01*
X22773804Y-59225189D01*
X22734344Y-59231043D01*
X22694500Y-59233000D01*
X15405500Y-59233000D01*
X15365656Y-59231043D01*
X15326196Y-59225189D01*
X15287499Y-59215496D01*
X15249939Y-59202057D01*
X15213877Y-59185001D01*
X15179661Y-59164492D01*
X15147619Y-59140729D01*
X15118061Y-59113939D01*
X15091271Y-59084381D01*
X15067508Y-59052339D01*
X15046999Y-59018123D01*
X15029943Y-58982061D01*
X15016504Y-58944501D01*
X15006811Y-58905804D01*
X15000957Y-58866344D01*
X14999000Y-58826500D01*
X14999000Y-58013500D01*
X15000957Y-57973656D01*
X15006811Y-57934196D01*
X15016504Y-57895499D01*
X15029943Y-57857939D01*
X15046999Y-57821877D01*
X15067508Y-57787661D01*
X15091271Y-57755619D01*
X15118061Y-57726061D01*
X15147619Y-57699271D01*
X15179661Y-57675508D01*
X15213877Y-57654999D01*
X15249939Y-57637943D01*
X15287499Y-57624504D01*
X15326196Y-57614811D01*
X15365656Y-57608957D01*
X15405500Y-57607000D01*
X22694500Y-57607000D01*
X22734344Y-57608957D01*
X22734344Y-57608957D01*
G37*
D20*
X19050000Y-58420000D03*
D14*
G36*
X22734344Y-62688957D02*
G01*
X22773804Y-62694811D01*
X22812501Y-62704504D01*
X22850061Y-62717943D01*
X22886123Y-62734999D01*
X22920339Y-62755508D01*
X22952381Y-62779271D01*
X22981939Y-62806061D01*
X23008729Y-62835619D01*
X23032492Y-62867661D01*
X23053001Y-62901877D01*
X23070057Y-62937939D01*
X23083496Y-62975499D01*
X23093189Y-63014196D01*
X23099043Y-63053656D01*
X23101000Y-63093500D01*
X23101000Y-63906500D01*
X23099043Y-63946344D01*
X23093189Y-63985804D01*
X23083496Y-64024501D01*
X23070057Y-64062061D01*
X23053001Y-64098123D01*
X23032492Y-64132339D01*
X23008729Y-64164381D01*
X22981939Y-64193939D01*
X22952381Y-64220729D01*
X22920339Y-64244492D01*
X22886123Y-64265001D01*
X22850061Y-64282057D01*
X22812501Y-64295496D01*
X22773804Y-64305189D01*
X22734344Y-64311043D01*
X22694500Y-64313000D01*
X15405500Y-64313000D01*
X15365656Y-64311043D01*
X15326196Y-64305189D01*
X15287499Y-64295496D01*
X15249939Y-64282057D01*
X15213877Y-64265001D01*
X15179661Y-64244492D01*
X15147619Y-64220729D01*
X15118061Y-64193939D01*
X15091271Y-64164381D01*
X15067508Y-64132339D01*
X15046999Y-64098123D01*
X15029943Y-64062061D01*
X15016504Y-64024501D01*
X15006811Y-63985804D01*
X15000957Y-63946344D01*
X14999000Y-63906500D01*
X14999000Y-63093500D01*
X15000957Y-63053656D01*
X15006811Y-63014196D01*
X15016504Y-62975499D01*
X15029943Y-62937939D01*
X15046999Y-62901877D01*
X15067508Y-62867661D01*
X15091271Y-62835619D01*
X15118061Y-62806061D01*
X15147619Y-62779271D01*
X15179661Y-62755508D01*
X15213877Y-62734999D01*
X15249939Y-62717943D01*
X15287499Y-62704504D01*
X15326196Y-62694811D01*
X15365656Y-62688957D01*
X15405500Y-62687000D01*
X22694500Y-62687000D01*
X22734344Y-62688957D01*
X22734344Y-62688957D01*
G37*
D20*
X19050000Y-63500000D03*
D14*
G36*
X22734344Y-65228957D02*
G01*
X22773804Y-65234811D01*
X22812501Y-65244504D01*
X22850061Y-65257943D01*
X22886123Y-65274999D01*
X22920339Y-65295508D01*
X22952381Y-65319271D01*
X22981939Y-65346061D01*
X23008729Y-65375619D01*
X23032492Y-65407661D01*
X23053001Y-65441877D01*
X23070057Y-65477939D01*
X23083496Y-65515499D01*
X23093189Y-65554196D01*
X23099043Y-65593656D01*
X23101000Y-65633500D01*
X23101000Y-66446500D01*
X23099043Y-66486344D01*
X23093189Y-66525804D01*
X23083496Y-66564501D01*
X23070057Y-66602061D01*
X23053001Y-66638123D01*
X23032492Y-66672339D01*
X23008729Y-66704381D01*
X22981939Y-66733939D01*
X22952381Y-66760729D01*
X22920339Y-66784492D01*
X22886123Y-66805001D01*
X22850061Y-66822057D01*
X22812501Y-66835496D01*
X22773804Y-66845189D01*
X22734344Y-66851043D01*
X22694500Y-66853000D01*
X15405500Y-66853000D01*
X15365656Y-66851043D01*
X15326196Y-66845189D01*
X15287499Y-66835496D01*
X15249939Y-66822057D01*
X15213877Y-66805001D01*
X15179661Y-66784492D01*
X15147619Y-66760729D01*
X15118061Y-66733939D01*
X15091271Y-66704381D01*
X15067508Y-66672339D01*
X15046999Y-66638123D01*
X15029943Y-66602061D01*
X15016504Y-66564501D01*
X15006811Y-66525804D01*
X15000957Y-66486344D01*
X14999000Y-66446500D01*
X14999000Y-65633500D01*
X15000957Y-65593656D01*
X15006811Y-65554196D01*
X15016504Y-65515499D01*
X15029943Y-65477939D01*
X15046999Y-65441877D01*
X15067508Y-65407661D01*
X15091271Y-65375619D01*
X15118061Y-65346061D01*
X15147619Y-65319271D01*
X15179661Y-65295508D01*
X15213877Y-65274999D01*
X15249939Y-65257943D01*
X15287499Y-65244504D01*
X15326196Y-65234811D01*
X15365656Y-65228957D01*
X15405500Y-65227000D01*
X22694500Y-65227000D01*
X22734344Y-65228957D01*
X22734344Y-65228957D01*
G37*
D20*
X19050000Y-66040000D03*
M02*
