G04 #@! TF.GenerationSoftware,KiCad,Pcbnew,(5.1.2-1)-1*
G04 #@! TF.CreationDate,2023-07-30T19:32:53+02:00*
G04 #@! TF.ProjectId,cart32bbs,63617274-3332-4626-9273-2e6b69636164,rev?*
G04 #@! TF.SameCoordinates,Original*
G04 #@! TF.FileFunction,Legend,Bot*
G04 #@! TF.FilePolarity,Positive*
%FSLAX46Y46*%
G04 Gerber Fmt 4.6, Leading zero omitted, Abs format (unit mm)*
G04 Created by KiCad (PCBNEW (5.1.2-1)-1) date 2023-07-30 19:32:53*
%MOMM*%
%LPD*%
G04 APERTURE LIST*
%ADD10C,0.150000*%
%ADD11C,0.100000*%
%ADD12O,1.702000X1.702000*%
%ADD13R,1.702000X1.702000*%
%ADD14C,1.626000*%
G04 APERTURE END LIST*
D10*
X50339047Y-78192380D02*
X50339047Y-78906666D01*
X50386666Y-79049523D01*
X50481904Y-79144761D01*
X50624761Y-79192380D01*
X50720000Y-79192380D01*
X49386666Y-79192380D02*
X49862857Y-79192380D01*
X49862857Y-78192380D01*
X48481904Y-79097142D02*
X48529523Y-79144761D01*
X48672380Y-79192380D01*
X48767619Y-79192380D01*
X48910476Y-79144761D01*
X49005714Y-79049523D01*
X49053333Y-78954285D01*
X49100952Y-78763809D01*
X49100952Y-78620952D01*
X49053333Y-78430476D01*
X49005714Y-78335238D01*
X48910476Y-78240000D01*
X48767619Y-78192380D01*
X48672380Y-78192380D01*
X48529523Y-78240000D01*
X48481904Y-78287619D01*
X47767619Y-78192380D02*
X47767619Y-78906666D01*
X47815238Y-79049523D01*
X47910476Y-79144761D01*
X48053333Y-79192380D01*
X48148571Y-79192380D01*
X46815238Y-79192380D02*
X47291428Y-79192380D01*
X47291428Y-78192380D01*
X45910476Y-79097142D02*
X45958095Y-79144761D01*
X46100952Y-79192380D01*
X46196190Y-79192380D01*
X46339047Y-79144761D01*
X46434285Y-79049523D01*
X46481904Y-78954285D01*
X46529523Y-78763809D01*
X46529523Y-78620952D01*
X46481904Y-78430476D01*
X46434285Y-78335238D01*
X46339047Y-78240000D01*
X46196190Y-78192380D01*
X46100952Y-78192380D01*
X45958095Y-78240000D01*
X45910476Y-78287619D01*
X45196190Y-78192380D02*
X45196190Y-78906666D01*
X45243809Y-79049523D01*
X45339047Y-79144761D01*
X45481904Y-79192380D01*
X45577142Y-79192380D01*
X44243809Y-79192380D02*
X44720000Y-79192380D01*
X44720000Y-78192380D01*
X43339047Y-79097142D02*
X43386666Y-79144761D01*
X43529523Y-79192380D01*
X43624761Y-79192380D01*
X43767619Y-79144761D01*
X43862857Y-79049523D01*
X43910476Y-78954285D01*
X43958095Y-78763809D01*
X43958095Y-78620952D01*
X43910476Y-78430476D01*
X43862857Y-78335238D01*
X43767619Y-78240000D01*
X43624761Y-78192380D01*
X43529523Y-78192380D01*
X43386666Y-78240000D01*
X43339047Y-78287619D01*
X42624761Y-78192380D02*
X42624761Y-78906666D01*
X42672380Y-79049523D01*
X42767619Y-79144761D01*
X42910476Y-79192380D01*
X43005714Y-79192380D01*
X41672380Y-79192380D02*
X42148571Y-79192380D01*
X42148571Y-78192380D01*
X40767619Y-79097142D02*
X40815238Y-79144761D01*
X40958095Y-79192380D01*
X41053333Y-79192380D01*
X41196190Y-79144761D01*
X41291428Y-79049523D01*
X41339047Y-78954285D01*
X41386666Y-78763809D01*
X41386666Y-78620952D01*
X41339047Y-78430476D01*
X41291428Y-78335238D01*
X41196190Y-78240000D01*
X41053333Y-78192380D01*
X40958095Y-78192380D01*
X40815238Y-78240000D01*
X40767619Y-78287619D01*
X36321904Y-62952380D02*
X36321904Y-63761904D01*
X36274285Y-63857142D01*
X36226666Y-63904761D01*
X36131428Y-63952380D01*
X35940952Y-63952380D01*
X35845714Y-63904761D01*
X35798095Y-63857142D01*
X35750476Y-63761904D01*
X35750476Y-62952380D01*
X34750476Y-63952380D02*
X35321904Y-63952380D01*
X35036190Y-63952380D02*
X35036190Y-62952380D01*
X35131428Y-63095238D01*
X35226666Y-63190476D01*
X35321904Y-63238095D01*
X40203333Y-66127380D02*
X40203333Y-66841666D01*
X40250952Y-66984523D01*
X40346190Y-67079761D01*
X40489047Y-67127380D01*
X40584285Y-67127380D01*
X39727142Y-67127380D02*
X39727142Y-66127380D01*
X39346190Y-66127380D01*
X39250952Y-66175000D01*
X39203333Y-66222619D01*
X39155714Y-66317857D01*
X39155714Y-66460714D01*
X39203333Y-66555952D01*
X39250952Y-66603571D01*
X39346190Y-66651190D01*
X39727142Y-66651190D01*
X38822380Y-66127380D02*
X38203333Y-66127380D01*
X38536666Y-66508333D01*
X38393809Y-66508333D01*
X38298571Y-66555952D01*
X38250952Y-66603571D01*
X38203333Y-66698809D01*
X38203333Y-66936904D01*
X38250952Y-67032142D01*
X38298571Y-67079761D01*
X38393809Y-67127380D01*
X38679523Y-67127380D01*
X38774761Y-67079761D01*
X38822380Y-67032142D01*
X30043333Y-66127380D02*
X30043333Y-66841666D01*
X30090952Y-66984523D01*
X30186190Y-67079761D01*
X30329047Y-67127380D01*
X30424285Y-67127380D01*
X29567142Y-67127380D02*
X29567142Y-66127380D01*
X29186190Y-66127380D01*
X29090952Y-66175000D01*
X29043333Y-66222619D01*
X28995714Y-66317857D01*
X28995714Y-66460714D01*
X29043333Y-66555952D01*
X29090952Y-66603571D01*
X29186190Y-66651190D01*
X29567142Y-66651190D01*
X28614761Y-66222619D02*
X28567142Y-66175000D01*
X28471904Y-66127380D01*
X28233809Y-66127380D01*
X28138571Y-66175000D01*
X28090952Y-66222619D01*
X28043333Y-66317857D01*
X28043333Y-66413095D01*
X28090952Y-66555952D01*
X28662380Y-67127380D01*
X28043333Y-67127380D01*
X26074619Y-56713333D02*
X25360333Y-56713333D01*
X25217476Y-56760952D01*
X25122238Y-56856190D01*
X25074619Y-56999047D01*
X25074619Y-57094285D01*
X25074619Y-56237142D02*
X26074619Y-56237142D01*
X26074619Y-55856190D01*
X26027000Y-55760952D01*
X25979380Y-55713333D01*
X25884142Y-55665714D01*
X25741285Y-55665714D01*
X25646047Y-55713333D01*
X25598428Y-55760952D01*
X25550809Y-55856190D01*
X25550809Y-56237142D01*
X25074619Y-54713333D02*
X25074619Y-55284761D01*
X25074619Y-54999047D02*
X26074619Y-54999047D01*
X25931761Y-55094285D01*
X25836523Y-55189523D01*
X25788904Y-55284761D01*
X52831904Y-55332380D02*
X52831904Y-56141904D01*
X52784285Y-56237142D01*
X52736666Y-56284761D01*
X52641428Y-56332380D01*
X52450952Y-56332380D01*
X52355714Y-56284761D01*
X52308095Y-56237142D01*
X52260476Y-56141904D01*
X52260476Y-55332380D01*
X51879523Y-55332380D02*
X51260476Y-55332380D01*
X51593809Y-55713333D01*
X51450952Y-55713333D01*
X51355714Y-55760952D01*
X51308095Y-55808571D01*
X51260476Y-55903809D01*
X51260476Y-56141904D01*
X51308095Y-56237142D01*
X51355714Y-56284761D01*
X51450952Y-56332380D01*
X51736666Y-56332380D01*
X51831904Y-56284761D01*
X51879523Y-56237142D01*
X52831904Y-42632380D02*
X52831904Y-43441904D01*
X52784285Y-43537142D01*
X52736666Y-43584761D01*
X52641428Y-43632380D01*
X52450952Y-43632380D01*
X52355714Y-43584761D01*
X52308095Y-43537142D01*
X52260476Y-43441904D01*
X52260476Y-42632380D01*
X51831904Y-42727619D02*
X51784285Y-42680000D01*
X51689047Y-42632380D01*
X51450952Y-42632380D01*
X51355714Y-42680000D01*
X51308095Y-42727619D01*
X51260476Y-42822857D01*
X51260476Y-42918095D01*
X51308095Y-43060952D01*
X51879523Y-43632380D01*
X51260476Y-43632380D01*
X24677619Y-66373333D02*
X23963333Y-66373333D01*
X23820476Y-66420952D01*
X23725238Y-66516190D01*
X23677619Y-66659047D01*
X23677619Y-66754285D01*
X23677619Y-65373333D02*
X23677619Y-65944761D01*
X23677619Y-65659047D02*
X24677619Y-65659047D01*
X24534761Y-65754285D01*
X24439523Y-65849523D01*
X24391904Y-65944761D01*
%LPC*%
D11*
G36*
X15240000Y-20320000D02*
G01*
X15240000Y-68580000D01*
X22860000Y-68580000D01*
X22860000Y-20320000D01*
X15240000Y-20320000D01*
G37*
X15240000Y-20320000D02*
X15240000Y-68580000D01*
X22860000Y-68580000D01*
X22860000Y-20320000D01*
X15240000Y-20320000D01*
D12*
X27940000Y-63500000D03*
X43180000Y-25400000D03*
X27940000Y-60960000D03*
X43180000Y-27940000D03*
X27940000Y-58420000D03*
X43180000Y-30480000D03*
X27940000Y-55880000D03*
X43180000Y-33020000D03*
X27940000Y-53340000D03*
X43180000Y-35560000D03*
X27940000Y-50800000D03*
X43180000Y-38100000D03*
X27940000Y-48260000D03*
X43180000Y-40640000D03*
X27940000Y-45720000D03*
X43180000Y-43180000D03*
X27940000Y-43180000D03*
X43180000Y-45720000D03*
X27940000Y-40640000D03*
X43180000Y-48260000D03*
X27940000Y-38100000D03*
X43180000Y-50800000D03*
X27940000Y-35560000D03*
X43180000Y-53340000D03*
X27940000Y-33020000D03*
X43180000Y-55880000D03*
X27940000Y-30480000D03*
X43180000Y-58420000D03*
X27940000Y-27940000D03*
X43180000Y-60960000D03*
X27940000Y-25400000D03*
D13*
X43180000Y-63500000D03*
D12*
X55880000Y-55880000D03*
X48260000Y-73660000D03*
X55880000Y-58420000D03*
X48260000Y-71120000D03*
X55880000Y-60960000D03*
X48260000Y-68580000D03*
X55880000Y-63500000D03*
X48260000Y-66040000D03*
X55880000Y-66040000D03*
X48260000Y-63500000D03*
X55880000Y-68580000D03*
X48260000Y-60960000D03*
X55880000Y-71120000D03*
X48260000Y-58420000D03*
X55880000Y-73660000D03*
D13*
X48260000Y-55880000D03*
D12*
X48260000Y-43180000D03*
X55880000Y-25400000D03*
X48260000Y-40640000D03*
X55880000Y-27940000D03*
X48260000Y-38100000D03*
X55880000Y-30480000D03*
X48260000Y-35560000D03*
X55880000Y-33020000D03*
X48260000Y-33020000D03*
X55880000Y-35560000D03*
X48260000Y-30480000D03*
X55880000Y-38100000D03*
X48260000Y-27940000D03*
X55880000Y-40640000D03*
X48260000Y-25400000D03*
D13*
X55880000Y-43180000D03*
D11*
G36*
X22734344Y-22048957D02*
G01*
X22773804Y-22054811D01*
X22812501Y-22064504D01*
X22850061Y-22077943D01*
X22886123Y-22094999D01*
X22920339Y-22115508D01*
X22952381Y-22139271D01*
X22981939Y-22166061D01*
X23008729Y-22195619D01*
X23032492Y-22227661D01*
X23053001Y-22261877D01*
X23070057Y-22297939D01*
X23083496Y-22335499D01*
X23093189Y-22374196D01*
X23099043Y-22413656D01*
X23101000Y-22453500D01*
X23101000Y-23266500D01*
X23099043Y-23306344D01*
X23093189Y-23345804D01*
X23083496Y-23384501D01*
X23070057Y-23422061D01*
X23053001Y-23458123D01*
X23032492Y-23492339D01*
X23008729Y-23524381D01*
X22981939Y-23553939D01*
X22952381Y-23580729D01*
X22920339Y-23604492D01*
X22886123Y-23625001D01*
X22850061Y-23642057D01*
X22812501Y-23655496D01*
X22773804Y-23665189D01*
X22734344Y-23671043D01*
X22694500Y-23673000D01*
X15405500Y-23673000D01*
X15365656Y-23671043D01*
X15326196Y-23665189D01*
X15287499Y-23655496D01*
X15249939Y-23642057D01*
X15213877Y-23625001D01*
X15179661Y-23604492D01*
X15147619Y-23580729D01*
X15118061Y-23553939D01*
X15091271Y-23524381D01*
X15067508Y-23492339D01*
X15046999Y-23458123D01*
X15029943Y-23422061D01*
X15016504Y-23384501D01*
X15006811Y-23345804D01*
X15000957Y-23306344D01*
X14999000Y-23266500D01*
X14999000Y-22453500D01*
X15000957Y-22413656D01*
X15006811Y-22374196D01*
X15016504Y-22335499D01*
X15029943Y-22297939D01*
X15046999Y-22261877D01*
X15067508Y-22227661D01*
X15091271Y-22195619D01*
X15118061Y-22166061D01*
X15147619Y-22139271D01*
X15179661Y-22115508D01*
X15213877Y-22094999D01*
X15249939Y-22077943D01*
X15287499Y-22064504D01*
X15326196Y-22054811D01*
X15365656Y-22048957D01*
X15405500Y-22047000D01*
X22694500Y-22047000D01*
X22734344Y-22048957D01*
X22734344Y-22048957D01*
G37*
D14*
X19050000Y-22860000D03*
D11*
G36*
X22734344Y-24588957D02*
G01*
X22773804Y-24594811D01*
X22812501Y-24604504D01*
X22850061Y-24617943D01*
X22886123Y-24634999D01*
X22920339Y-24655508D01*
X22952381Y-24679271D01*
X22981939Y-24706061D01*
X23008729Y-24735619D01*
X23032492Y-24767661D01*
X23053001Y-24801877D01*
X23070057Y-24837939D01*
X23083496Y-24875499D01*
X23093189Y-24914196D01*
X23099043Y-24953656D01*
X23101000Y-24993500D01*
X23101000Y-25806500D01*
X23099043Y-25846344D01*
X23093189Y-25885804D01*
X23083496Y-25924501D01*
X23070057Y-25962061D01*
X23053001Y-25998123D01*
X23032492Y-26032339D01*
X23008729Y-26064381D01*
X22981939Y-26093939D01*
X22952381Y-26120729D01*
X22920339Y-26144492D01*
X22886123Y-26165001D01*
X22850061Y-26182057D01*
X22812501Y-26195496D01*
X22773804Y-26205189D01*
X22734344Y-26211043D01*
X22694500Y-26213000D01*
X15405500Y-26213000D01*
X15365656Y-26211043D01*
X15326196Y-26205189D01*
X15287499Y-26195496D01*
X15249939Y-26182057D01*
X15213877Y-26165001D01*
X15179661Y-26144492D01*
X15147619Y-26120729D01*
X15118061Y-26093939D01*
X15091271Y-26064381D01*
X15067508Y-26032339D01*
X15046999Y-25998123D01*
X15029943Y-25962061D01*
X15016504Y-25924501D01*
X15006811Y-25885804D01*
X15000957Y-25846344D01*
X14999000Y-25806500D01*
X14999000Y-24993500D01*
X15000957Y-24953656D01*
X15006811Y-24914196D01*
X15016504Y-24875499D01*
X15029943Y-24837939D01*
X15046999Y-24801877D01*
X15067508Y-24767661D01*
X15091271Y-24735619D01*
X15118061Y-24706061D01*
X15147619Y-24679271D01*
X15179661Y-24655508D01*
X15213877Y-24634999D01*
X15249939Y-24617943D01*
X15287499Y-24604504D01*
X15326196Y-24594811D01*
X15365656Y-24588957D01*
X15405500Y-24587000D01*
X22694500Y-24587000D01*
X22734344Y-24588957D01*
X22734344Y-24588957D01*
G37*
D14*
X19050000Y-25400000D03*
D11*
G36*
X22734344Y-27128957D02*
G01*
X22773804Y-27134811D01*
X22812501Y-27144504D01*
X22850061Y-27157943D01*
X22886123Y-27174999D01*
X22920339Y-27195508D01*
X22952381Y-27219271D01*
X22981939Y-27246061D01*
X23008729Y-27275619D01*
X23032492Y-27307661D01*
X23053001Y-27341877D01*
X23070057Y-27377939D01*
X23083496Y-27415499D01*
X23093189Y-27454196D01*
X23099043Y-27493656D01*
X23101000Y-27533500D01*
X23101000Y-28346500D01*
X23099043Y-28386344D01*
X23093189Y-28425804D01*
X23083496Y-28464501D01*
X23070057Y-28502061D01*
X23053001Y-28538123D01*
X23032492Y-28572339D01*
X23008729Y-28604381D01*
X22981939Y-28633939D01*
X22952381Y-28660729D01*
X22920339Y-28684492D01*
X22886123Y-28705001D01*
X22850061Y-28722057D01*
X22812501Y-28735496D01*
X22773804Y-28745189D01*
X22734344Y-28751043D01*
X22694500Y-28753000D01*
X15405500Y-28753000D01*
X15365656Y-28751043D01*
X15326196Y-28745189D01*
X15287499Y-28735496D01*
X15249939Y-28722057D01*
X15213877Y-28705001D01*
X15179661Y-28684492D01*
X15147619Y-28660729D01*
X15118061Y-28633939D01*
X15091271Y-28604381D01*
X15067508Y-28572339D01*
X15046999Y-28538123D01*
X15029943Y-28502061D01*
X15016504Y-28464501D01*
X15006811Y-28425804D01*
X15000957Y-28386344D01*
X14999000Y-28346500D01*
X14999000Y-27533500D01*
X15000957Y-27493656D01*
X15006811Y-27454196D01*
X15016504Y-27415499D01*
X15029943Y-27377939D01*
X15046999Y-27341877D01*
X15067508Y-27307661D01*
X15091271Y-27275619D01*
X15118061Y-27246061D01*
X15147619Y-27219271D01*
X15179661Y-27195508D01*
X15213877Y-27174999D01*
X15249939Y-27157943D01*
X15287499Y-27144504D01*
X15326196Y-27134811D01*
X15365656Y-27128957D01*
X15405500Y-27127000D01*
X22694500Y-27127000D01*
X22734344Y-27128957D01*
X22734344Y-27128957D01*
G37*
D14*
X19050000Y-27940000D03*
D11*
G36*
X22734344Y-29668957D02*
G01*
X22773804Y-29674811D01*
X22812501Y-29684504D01*
X22850061Y-29697943D01*
X22886123Y-29714999D01*
X22920339Y-29735508D01*
X22952381Y-29759271D01*
X22981939Y-29786061D01*
X23008729Y-29815619D01*
X23032492Y-29847661D01*
X23053001Y-29881877D01*
X23070057Y-29917939D01*
X23083496Y-29955499D01*
X23093189Y-29994196D01*
X23099043Y-30033656D01*
X23101000Y-30073500D01*
X23101000Y-30886500D01*
X23099043Y-30926344D01*
X23093189Y-30965804D01*
X23083496Y-31004501D01*
X23070057Y-31042061D01*
X23053001Y-31078123D01*
X23032492Y-31112339D01*
X23008729Y-31144381D01*
X22981939Y-31173939D01*
X22952381Y-31200729D01*
X22920339Y-31224492D01*
X22886123Y-31245001D01*
X22850061Y-31262057D01*
X22812501Y-31275496D01*
X22773804Y-31285189D01*
X22734344Y-31291043D01*
X22694500Y-31293000D01*
X15405500Y-31293000D01*
X15365656Y-31291043D01*
X15326196Y-31285189D01*
X15287499Y-31275496D01*
X15249939Y-31262057D01*
X15213877Y-31245001D01*
X15179661Y-31224492D01*
X15147619Y-31200729D01*
X15118061Y-31173939D01*
X15091271Y-31144381D01*
X15067508Y-31112339D01*
X15046999Y-31078123D01*
X15029943Y-31042061D01*
X15016504Y-31004501D01*
X15006811Y-30965804D01*
X15000957Y-30926344D01*
X14999000Y-30886500D01*
X14999000Y-30073500D01*
X15000957Y-30033656D01*
X15006811Y-29994196D01*
X15016504Y-29955499D01*
X15029943Y-29917939D01*
X15046999Y-29881877D01*
X15067508Y-29847661D01*
X15091271Y-29815619D01*
X15118061Y-29786061D01*
X15147619Y-29759271D01*
X15179661Y-29735508D01*
X15213877Y-29714999D01*
X15249939Y-29697943D01*
X15287499Y-29684504D01*
X15326196Y-29674811D01*
X15365656Y-29668957D01*
X15405500Y-29667000D01*
X22694500Y-29667000D01*
X22734344Y-29668957D01*
X22734344Y-29668957D01*
G37*
D14*
X19050000Y-30480000D03*
D11*
G36*
X22734344Y-32208957D02*
G01*
X22773804Y-32214811D01*
X22812501Y-32224504D01*
X22850061Y-32237943D01*
X22886123Y-32254999D01*
X22920339Y-32275508D01*
X22952381Y-32299271D01*
X22981939Y-32326061D01*
X23008729Y-32355619D01*
X23032492Y-32387661D01*
X23053001Y-32421877D01*
X23070057Y-32457939D01*
X23083496Y-32495499D01*
X23093189Y-32534196D01*
X23099043Y-32573656D01*
X23101000Y-32613500D01*
X23101000Y-33426500D01*
X23099043Y-33466344D01*
X23093189Y-33505804D01*
X23083496Y-33544501D01*
X23070057Y-33582061D01*
X23053001Y-33618123D01*
X23032492Y-33652339D01*
X23008729Y-33684381D01*
X22981939Y-33713939D01*
X22952381Y-33740729D01*
X22920339Y-33764492D01*
X22886123Y-33785001D01*
X22850061Y-33802057D01*
X22812501Y-33815496D01*
X22773804Y-33825189D01*
X22734344Y-33831043D01*
X22694500Y-33833000D01*
X15405500Y-33833000D01*
X15365656Y-33831043D01*
X15326196Y-33825189D01*
X15287499Y-33815496D01*
X15249939Y-33802057D01*
X15213877Y-33785001D01*
X15179661Y-33764492D01*
X15147619Y-33740729D01*
X15118061Y-33713939D01*
X15091271Y-33684381D01*
X15067508Y-33652339D01*
X15046999Y-33618123D01*
X15029943Y-33582061D01*
X15016504Y-33544501D01*
X15006811Y-33505804D01*
X15000957Y-33466344D01*
X14999000Y-33426500D01*
X14999000Y-32613500D01*
X15000957Y-32573656D01*
X15006811Y-32534196D01*
X15016504Y-32495499D01*
X15029943Y-32457939D01*
X15046999Y-32421877D01*
X15067508Y-32387661D01*
X15091271Y-32355619D01*
X15118061Y-32326061D01*
X15147619Y-32299271D01*
X15179661Y-32275508D01*
X15213877Y-32254999D01*
X15249939Y-32237943D01*
X15287499Y-32224504D01*
X15326196Y-32214811D01*
X15365656Y-32208957D01*
X15405500Y-32207000D01*
X22694500Y-32207000D01*
X22734344Y-32208957D01*
X22734344Y-32208957D01*
G37*
D14*
X19050000Y-33020000D03*
D11*
G36*
X22734344Y-34748957D02*
G01*
X22773804Y-34754811D01*
X22812501Y-34764504D01*
X22850061Y-34777943D01*
X22886123Y-34794999D01*
X22920339Y-34815508D01*
X22952381Y-34839271D01*
X22981939Y-34866061D01*
X23008729Y-34895619D01*
X23032492Y-34927661D01*
X23053001Y-34961877D01*
X23070057Y-34997939D01*
X23083496Y-35035499D01*
X23093189Y-35074196D01*
X23099043Y-35113656D01*
X23101000Y-35153500D01*
X23101000Y-35966500D01*
X23099043Y-36006344D01*
X23093189Y-36045804D01*
X23083496Y-36084501D01*
X23070057Y-36122061D01*
X23053001Y-36158123D01*
X23032492Y-36192339D01*
X23008729Y-36224381D01*
X22981939Y-36253939D01*
X22952381Y-36280729D01*
X22920339Y-36304492D01*
X22886123Y-36325001D01*
X22850061Y-36342057D01*
X22812501Y-36355496D01*
X22773804Y-36365189D01*
X22734344Y-36371043D01*
X22694500Y-36373000D01*
X15405500Y-36373000D01*
X15365656Y-36371043D01*
X15326196Y-36365189D01*
X15287499Y-36355496D01*
X15249939Y-36342057D01*
X15213877Y-36325001D01*
X15179661Y-36304492D01*
X15147619Y-36280729D01*
X15118061Y-36253939D01*
X15091271Y-36224381D01*
X15067508Y-36192339D01*
X15046999Y-36158123D01*
X15029943Y-36122061D01*
X15016504Y-36084501D01*
X15006811Y-36045804D01*
X15000957Y-36006344D01*
X14999000Y-35966500D01*
X14999000Y-35153500D01*
X15000957Y-35113656D01*
X15006811Y-35074196D01*
X15016504Y-35035499D01*
X15029943Y-34997939D01*
X15046999Y-34961877D01*
X15067508Y-34927661D01*
X15091271Y-34895619D01*
X15118061Y-34866061D01*
X15147619Y-34839271D01*
X15179661Y-34815508D01*
X15213877Y-34794999D01*
X15249939Y-34777943D01*
X15287499Y-34764504D01*
X15326196Y-34754811D01*
X15365656Y-34748957D01*
X15405500Y-34747000D01*
X22694500Y-34747000D01*
X22734344Y-34748957D01*
X22734344Y-34748957D01*
G37*
D14*
X19050000Y-35560000D03*
D11*
G36*
X22734344Y-37288957D02*
G01*
X22773804Y-37294811D01*
X22812501Y-37304504D01*
X22850061Y-37317943D01*
X22886123Y-37334999D01*
X22920339Y-37355508D01*
X22952381Y-37379271D01*
X22981939Y-37406061D01*
X23008729Y-37435619D01*
X23032492Y-37467661D01*
X23053001Y-37501877D01*
X23070057Y-37537939D01*
X23083496Y-37575499D01*
X23093189Y-37614196D01*
X23099043Y-37653656D01*
X23101000Y-37693500D01*
X23101000Y-38506500D01*
X23099043Y-38546344D01*
X23093189Y-38585804D01*
X23083496Y-38624501D01*
X23070057Y-38662061D01*
X23053001Y-38698123D01*
X23032492Y-38732339D01*
X23008729Y-38764381D01*
X22981939Y-38793939D01*
X22952381Y-38820729D01*
X22920339Y-38844492D01*
X22886123Y-38865001D01*
X22850061Y-38882057D01*
X22812501Y-38895496D01*
X22773804Y-38905189D01*
X22734344Y-38911043D01*
X22694500Y-38913000D01*
X15405500Y-38913000D01*
X15365656Y-38911043D01*
X15326196Y-38905189D01*
X15287499Y-38895496D01*
X15249939Y-38882057D01*
X15213877Y-38865001D01*
X15179661Y-38844492D01*
X15147619Y-38820729D01*
X15118061Y-38793939D01*
X15091271Y-38764381D01*
X15067508Y-38732339D01*
X15046999Y-38698123D01*
X15029943Y-38662061D01*
X15016504Y-38624501D01*
X15006811Y-38585804D01*
X15000957Y-38546344D01*
X14999000Y-38506500D01*
X14999000Y-37693500D01*
X15000957Y-37653656D01*
X15006811Y-37614196D01*
X15016504Y-37575499D01*
X15029943Y-37537939D01*
X15046999Y-37501877D01*
X15067508Y-37467661D01*
X15091271Y-37435619D01*
X15118061Y-37406061D01*
X15147619Y-37379271D01*
X15179661Y-37355508D01*
X15213877Y-37334999D01*
X15249939Y-37317943D01*
X15287499Y-37304504D01*
X15326196Y-37294811D01*
X15365656Y-37288957D01*
X15405500Y-37287000D01*
X22694500Y-37287000D01*
X22734344Y-37288957D01*
X22734344Y-37288957D01*
G37*
D14*
X19050000Y-38100000D03*
D11*
G36*
X22734344Y-39828957D02*
G01*
X22773804Y-39834811D01*
X22812501Y-39844504D01*
X22850061Y-39857943D01*
X22886123Y-39874999D01*
X22920339Y-39895508D01*
X22952381Y-39919271D01*
X22981939Y-39946061D01*
X23008729Y-39975619D01*
X23032492Y-40007661D01*
X23053001Y-40041877D01*
X23070057Y-40077939D01*
X23083496Y-40115499D01*
X23093189Y-40154196D01*
X23099043Y-40193656D01*
X23101000Y-40233500D01*
X23101000Y-41046500D01*
X23099043Y-41086344D01*
X23093189Y-41125804D01*
X23083496Y-41164501D01*
X23070057Y-41202061D01*
X23053001Y-41238123D01*
X23032492Y-41272339D01*
X23008729Y-41304381D01*
X22981939Y-41333939D01*
X22952381Y-41360729D01*
X22920339Y-41384492D01*
X22886123Y-41405001D01*
X22850061Y-41422057D01*
X22812501Y-41435496D01*
X22773804Y-41445189D01*
X22734344Y-41451043D01*
X22694500Y-41453000D01*
X15405500Y-41453000D01*
X15365656Y-41451043D01*
X15326196Y-41445189D01*
X15287499Y-41435496D01*
X15249939Y-41422057D01*
X15213877Y-41405001D01*
X15179661Y-41384492D01*
X15147619Y-41360729D01*
X15118061Y-41333939D01*
X15091271Y-41304381D01*
X15067508Y-41272339D01*
X15046999Y-41238123D01*
X15029943Y-41202061D01*
X15016504Y-41164501D01*
X15006811Y-41125804D01*
X15000957Y-41086344D01*
X14999000Y-41046500D01*
X14999000Y-40233500D01*
X15000957Y-40193656D01*
X15006811Y-40154196D01*
X15016504Y-40115499D01*
X15029943Y-40077939D01*
X15046999Y-40041877D01*
X15067508Y-40007661D01*
X15091271Y-39975619D01*
X15118061Y-39946061D01*
X15147619Y-39919271D01*
X15179661Y-39895508D01*
X15213877Y-39874999D01*
X15249939Y-39857943D01*
X15287499Y-39844504D01*
X15326196Y-39834811D01*
X15365656Y-39828957D01*
X15405500Y-39827000D01*
X22694500Y-39827000D01*
X22734344Y-39828957D01*
X22734344Y-39828957D01*
G37*
D14*
X19050000Y-40640000D03*
D11*
G36*
X22734344Y-42368957D02*
G01*
X22773804Y-42374811D01*
X22812501Y-42384504D01*
X22850061Y-42397943D01*
X22886123Y-42414999D01*
X22920339Y-42435508D01*
X22952381Y-42459271D01*
X22981939Y-42486061D01*
X23008729Y-42515619D01*
X23032492Y-42547661D01*
X23053001Y-42581877D01*
X23070057Y-42617939D01*
X23083496Y-42655499D01*
X23093189Y-42694196D01*
X23099043Y-42733656D01*
X23101000Y-42773500D01*
X23101000Y-43586500D01*
X23099043Y-43626344D01*
X23093189Y-43665804D01*
X23083496Y-43704501D01*
X23070057Y-43742061D01*
X23053001Y-43778123D01*
X23032492Y-43812339D01*
X23008729Y-43844381D01*
X22981939Y-43873939D01*
X22952381Y-43900729D01*
X22920339Y-43924492D01*
X22886123Y-43945001D01*
X22850061Y-43962057D01*
X22812501Y-43975496D01*
X22773804Y-43985189D01*
X22734344Y-43991043D01*
X22694500Y-43993000D01*
X15405500Y-43993000D01*
X15365656Y-43991043D01*
X15326196Y-43985189D01*
X15287499Y-43975496D01*
X15249939Y-43962057D01*
X15213877Y-43945001D01*
X15179661Y-43924492D01*
X15147619Y-43900729D01*
X15118061Y-43873939D01*
X15091271Y-43844381D01*
X15067508Y-43812339D01*
X15046999Y-43778123D01*
X15029943Y-43742061D01*
X15016504Y-43704501D01*
X15006811Y-43665804D01*
X15000957Y-43626344D01*
X14999000Y-43586500D01*
X14999000Y-42773500D01*
X15000957Y-42733656D01*
X15006811Y-42694196D01*
X15016504Y-42655499D01*
X15029943Y-42617939D01*
X15046999Y-42581877D01*
X15067508Y-42547661D01*
X15091271Y-42515619D01*
X15118061Y-42486061D01*
X15147619Y-42459271D01*
X15179661Y-42435508D01*
X15213877Y-42414999D01*
X15249939Y-42397943D01*
X15287499Y-42384504D01*
X15326196Y-42374811D01*
X15365656Y-42368957D01*
X15405500Y-42367000D01*
X22694500Y-42367000D01*
X22734344Y-42368957D01*
X22734344Y-42368957D01*
G37*
D14*
X19050000Y-43180000D03*
D11*
G36*
X22734344Y-44908957D02*
G01*
X22773804Y-44914811D01*
X22812501Y-44924504D01*
X22850061Y-44937943D01*
X22886123Y-44954999D01*
X22920339Y-44975508D01*
X22952381Y-44999271D01*
X22981939Y-45026061D01*
X23008729Y-45055619D01*
X23032492Y-45087661D01*
X23053001Y-45121877D01*
X23070057Y-45157939D01*
X23083496Y-45195499D01*
X23093189Y-45234196D01*
X23099043Y-45273656D01*
X23101000Y-45313500D01*
X23101000Y-46126500D01*
X23099043Y-46166344D01*
X23093189Y-46205804D01*
X23083496Y-46244501D01*
X23070057Y-46282061D01*
X23053001Y-46318123D01*
X23032492Y-46352339D01*
X23008729Y-46384381D01*
X22981939Y-46413939D01*
X22952381Y-46440729D01*
X22920339Y-46464492D01*
X22886123Y-46485001D01*
X22850061Y-46502057D01*
X22812501Y-46515496D01*
X22773804Y-46525189D01*
X22734344Y-46531043D01*
X22694500Y-46533000D01*
X15405500Y-46533000D01*
X15365656Y-46531043D01*
X15326196Y-46525189D01*
X15287499Y-46515496D01*
X15249939Y-46502057D01*
X15213877Y-46485001D01*
X15179661Y-46464492D01*
X15147619Y-46440729D01*
X15118061Y-46413939D01*
X15091271Y-46384381D01*
X15067508Y-46352339D01*
X15046999Y-46318123D01*
X15029943Y-46282061D01*
X15016504Y-46244501D01*
X15006811Y-46205804D01*
X15000957Y-46166344D01*
X14999000Y-46126500D01*
X14999000Y-45313500D01*
X15000957Y-45273656D01*
X15006811Y-45234196D01*
X15016504Y-45195499D01*
X15029943Y-45157939D01*
X15046999Y-45121877D01*
X15067508Y-45087661D01*
X15091271Y-45055619D01*
X15118061Y-45026061D01*
X15147619Y-44999271D01*
X15179661Y-44975508D01*
X15213877Y-44954999D01*
X15249939Y-44937943D01*
X15287499Y-44924504D01*
X15326196Y-44914811D01*
X15365656Y-44908957D01*
X15405500Y-44907000D01*
X22694500Y-44907000D01*
X22734344Y-44908957D01*
X22734344Y-44908957D01*
G37*
D14*
X19050000Y-45720000D03*
D11*
G36*
X22734344Y-47448957D02*
G01*
X22773804Y-47454811D01*
X22812501Y-47464504D01*
X22850061Y-47477943D01*
X22886123Y-47494999D01*
X22920339Y-47515508D01*
X22952381Y-47539271D01*
X22981939Y-47566061D01*
X23008729Y-47595619D01*
X23032492Y-47627661D01*
X23053001Y-47661877D01*
X23070057Y-47697939D01*
X23083496Y-47735499D01*
X23093189Y-47774196D01*
X23099043Y-47813656D01*
X23101000Y-47853500D01*
X23101000Y-48666500D01*
X23099043Y-48706344D01*
X23093189Y-48745804D01*
X23083496Y-48784501D01*
X23070057Y-48822061D01*
X23053001Y-48858123D01*
X23032492Y-48892339D01*
X23008729Y-48924381D01*
X22981939Y-48953939D01*
X22952381Y-48980729D01*
X22920339Y-49004492D01*
X22886123Y-49025001D01*
X22850061Y-49042057D01*
X22812501Y-49055496D01*
X22773804Y-49065189D01*
X22734344Y-49071043D01*
X22694500Y-49073000D01*
X15405500Y-49073000D01*
X15365656Y-49071043D01*
X15326196Y-49065189D01*
X15287499Y-49055496D01*
X15249939Y-49042057D01*
X15213877Y-49025001D01*
X15179661Y-49004492D01*
X15147619Y-48980729D01*
X15118061Y-48953939D01*
X15091271Y-48924381D01*
X15067508Y-48892339D01*
X15046999Y-48858123D01*
X15029943Y-48822061D01*
X15016504Y-48784501D01*
X15006811Y-48745804D01*
X15000957Y-48706344D01*
X14999000Y-48666500D01*
X14999000Y-47853500D01*
X15000957Y-47813656D01*
X15006811Y-47774196D01*
X15016504Y-47735499D01*
X15029943Y-47697939D01*
X15046999Y-47661877D01*
X15067508Y-47627661D01*
X15091271Y-47595619D01*
X15118061Y-47566061D01*
X15147619Y-47539271D01*
X15179661Y-47515508D01*
X15213877Y-47494999D01*
X15249939Y-47477943D01*
X15287499Y-47464504D01*
X15326196Y-47454811D01*
X15365656Y-47448957D01*
X15405500Y-47447000D01*
X22694500Y-47447000D01*
X22734344Y-47448957D01*
X22734344Y-47448957D01*
G37*
D14*
X19050000Y-48260000D03*
D11*
G36*
X22734344Y-49988957D02*
G01*
X22773804Y-49994811D01*
X22812501Y-50004504D01*
X22850061Y-50017943D01*
X22886123Y-50034999D01*
X22920339Y-50055508D01*
X22952381Y-50079271D01*
X22981939Y-50106061D01*
X23008729Y-50135619D01*
X23032492Y-50167661D01*
X23053001Y-50201877D01*
X23070057Y-50237939D01*
X23083496Y-50275499D01*
X23093189Y-50314196D01*
X23099043Y-50353656D01*
X23101000Y-50393500D01*
X23101000Y-51206500D01*
X23099043Y-51246344D01*
X23093189Y-51285804D01*
X23083496Y-51324501D01*
X23070057Y-51362061D01*
X23053001Y-51398123D01*
X23032492Y-51432339D01*
X23008729Y-51464381D01*
X22981939Y-51493939D01*
X22952381Y-51520729D01*
X22920339Y-51544492D01*
X22886123Y-51565001D01*
X22850061Y-51582057D01*
X22812501Y-51595496D01*
X22773804Y-51605189D01*
X22734344Y-51611043D01*
X22694500Y-51613000D01*
X15405500Y-51613000D01*
X15365656Y-51611043D01*
X15326196Y-51605189D01*
X15287499Y-51595496D01*
X15249939Y-51582057D01*
X15213877Y-51565001D01*
X15179661Y-51544492D01*
X15147619Y-51520729D01*
X15118061Y-51493939D01*
X15091271Y-51464381D01*
X15067508Y-51432339D01*
X15046999Y-51398123D01*
X15029943Y-51362061D01*
X15016504Y-51324501D01*
X15006811Y-51285804D01*
X15000957Y-51246344D01*
X14999000Y-51206500D01*
X14999000Y-50393500D01*
X15000957Y-50353656D01*
X15006811Y-50314196D01*
X15016504Y-50275499D01*
X15029943Y-50237939D01*
X15046999Y-50201877D01*
X15067508Y-50167661D01*
X15091271Y-50135619D01*
X15118061Y-50106061D01*
X15147619Y-50079271D01*
X15179661Y-50055508D01*
X15213877Y-50034999D01*
X15249939Y-50017943D01*
X15287499Y-50004504D01*
X15326196Y-49994811D01*
X15365656Y-49988957D01*
X15405500Y-49987000D01*
X22694500Y-49987000D01*
X22734344Y-49988957D01*
X22734344Y-49988957D01*
G37*
D14*
X19050000Y-50800000D03*
D11*
G36*
X22734344Y-52528957D02*
G01*
X22773804Y-52534811D01*
X22812501Y-52544504D01*
X22850061Y-52557943D01*
X22886123Y-52574999D01*
X22920339Y-52595508D01*
X22952381Y-52619271D01*
X22981939Y-52646061D01*
X23008729Y-52675619D01*
X23032492Y-52707661D01*
X23053001Y-52741877D01*
X23070057Y-52777939D01*
X23083496Y-52815499D01*
X23093189Y-52854196D01*
X23099043Y-52893656D01*
X23101000Y-52933500D01*
X23101000Y-53746500D01*
X23099043Y-53786344D01*
X23093189Y-53825804D01*
X23083496Y-53864501D01*
X23070057Y-53902061D01*
X23053001Y-53938123D01*
X23032492Y-53972339D01*
X23008729Y-54004381D01*
X22981939Y-54033939D01*
X22952381Y-54060729D01*
X22920339Y-54084492D01*
X22886123Y-54105001D01*
X22850061Y-54122057D01*
X22812501Y-54135496D01*
X22773804Y-54145189D01*
X22734344Y-54151043D01*
X22694500Y-54153000D01*
X15405500Y-54153000D01*
X15365656Y-54151043D01*
X15326196Y-54145189D01*
X15287499Y-54135496D01*
X15249939Y-54122057D01*
X15213877Y-54105001D01*
X15179661Y-54084492D01*
X15147619Y-54060729D01*
X15118061Y-54033939D01*
X15091271Y-54004381D01*
X15067508Y-53972339D01*
X15046999Y-53938123D01*
X15029943Y-53902061D01*
X15016504Y-53864501D01*
X15006811Y-53825804D01*
X15000957Y-53786344D01*
X14999000Y-53746500D01*
X14999000Y-52933500D01*
X15000957Y-52893656D01*
X15006811Y-52854196D01*
X15016504Y-52815499D01*
X15029943Y-52777939D01*
X15046999Y-52741877D01*
X15067508Y-52707661D01*
X15091271Y-52675619D01*
X15118061Y-52646061D01*
X15147619Y-52619271D01*
X15179661Y-52595508D01*
X15213877Y-52574999D01*
X15249939Y-52557943D01*
X15287499Y-52544504D01*
X15326196Y-52534811D01*
X15365656Y-52528957D01*
X15405500Y-52527000D01*
X22694500Y-52527000D01*
X22734344Y-52528957D01*
X22734344Y-52528957D01*
G37*
D14*
X19050000Y-53340000D03*
D11*
G36*
X22734344Y-55068957D02*
G01*
X22773804Y-55074811D01*
X22812501Y-55084504D01*
X22850061Y-55097943D01*
X22886123Y-55114999D01*
X22920339Y-55135508D01*
X22952381Y-55159271D01*
X22981939Y-55186061D01*
X23008729Y-55215619D01*
X23032492Y-55247661D01*
X23053001Y-55281877D01*
X23070057Y-55317939D01*
X23083496Y-55355499D01*
X23093189Y-55394196D01*
X23099043Y-55433656D01*
X23101000Y-55473500D01*
X23101000Y-56286500D01*
X23099043Y-56326344D01*
X23093189Y-56365804D01*
X23083496Y-56404501D01*
X23070057Y-56442061D01*
X23053001Y-56478123D01*
X23032492Y-56512339D01*
X23008729Y-56544381D01*
X22981939Y-56573939D01*
X22952381Y-56600729D01*
X22920339Y-56624492D01*
X22886123Y-56645001D01*
X22850061Y-56662057D01*
X22812501Y-56675496D01*
X22773804Y-56685189D01*
X22734344Y-56691043D01*
X22694500Y-56693000D01*
X15405500Y-56693000D01*
X15365656Y-56691043D01*
X15326196Y-56685189D01*
X15287499Y-56675496D01*
X15249939Y-56662057D01*
X15213877Y-56645001D01*
X15179661Y-56624492D01*
X15147619Y-56600729D01*
X15118061Y-56573939D01*
X15091271Y-56544381D01*
X15067508Y-56512339D01*
X15046999Y-56478123D01*
X15029943Y-56442061D01*
X15016504Y-56404501D01*
X15006811Y-56365804D01*
X15000957Y-56326344D01*
X14999000Y-56286500D01*
X14999000Y-55473500D01*
X15000957Y-55433656D01*
X15006811Y-55394196D01*
X15016504Y-55355499D01*
X15029943Y-55317939D01*
X15046999Y-55281877D01*
X15067508Y-55247661D01*
X15091271Y-55215619D01*
X15118061Y-55186061D01*
X15147619Y-55159271D01*
X15179661Y-55135508D01*
X15213877Y-55114999D01*
X15249939Y-55097943D01*
X15287499Y-55084504D01*
X15326196Y-55074811D01*
X15365656Y-55068957D01*
X15405500Y-55067000D01*
X22694500Y-55067000D01*
X22734344Y-55068957D01*
X22734344Y-55068957D01*
G37*
D14*
X19050000Y-55880000D03*
D11*
G36*
X22734344Y-57608957D02*
G01*
X22773804Y-57614811D01*
X22812501Y-57624504D01*
X22850061Y-57637943D01*
X22886123Y-57654999D01*
X22920339Y-57675508D01*
X22952381Y-57699271D01*
X22981939Y-57726061D01*
X23008729Y-57755619D01*
X23032492Y-57787661D01*
X23053001Y-57821877D01*
X23070057Y-57857939D01*
X23083496Y-57895499D01*
X23093189Y-57934196D01*
X23099043Y-57973656D01*
X23101000Y-58013500D01*
X23101000Y-58826500D01*
X23099043Y-58866344D01*
X23093189Y-58905804D01*
X23083496Y-58944501D01*
X23070057Y-58982061D01*
X23053001Y-59018123D01*
X23032492Y-59052339D01*
X23008729Y-59084381D01*
X22981939Y-59113939D01*
X22952381Y-59140729D01*
X22920339Y-59164492D01*
X22886123Y-59185001D01*
X22850061Y-59202057D01*
X22812501Y-59215496D01*
X22773804Y-59225189D01*
X22734344Y-59231043D01*
X22694500Y-59233000D01*
X15405500Y-59233000D01*
X15365656Y-59231043D01*
X15326196Y-59225189D01*
X15287499Y-59215496D01*
X15249939Y-59202057D01*
X15213877Y-59185001D01*
X15179661Y-59164492D01*
X15147619Y-59140729D01*
X15118061Y-59113939D01*
X15091271Y-59084381D01*
X15067508Y-59052339D01*
X15046999Y-59018123D01*
X15029943Y-58982061D01*
X15016504Y-58944501D01*
X15006811Y-58905804D01*
X15000957Y-58866344D01*
X14999000Y-58826500D01*
X14999000Y-58013500D01*
X15000957Y-57973656D01*
X15006811Y-57934196D01*
X15016504Y-57895499D01*
X15029943Y-57857939D01*
X15046999Y-57821877D01*
X15067508Y-57787661D01*
X15091271Y-57755619D01*
X15118061Y-57726061D01*
X15147619Y-57699271D01*
X15179661Y-57675508D01*
X15213877Y-57654999D01*
X15249939Y-57637943D01*
X15287499Y-57624504D01*
X15326196Y-57614811D01*
X15365656Y-57608957D01*
X15405500Y-57607000D01*
X22694500Y-57607000D01*
X22734344Y-57608957D01*
X22734344Y-57608957D01*
G37*
D14*
X19050000Y-58420000D03*
D11*
G36*
X22734344Y-62688957D02*
G01*
X22773804Y-62694811D01*
X22812501Y-62704504D01*
X22850061Y-62717943D01*
X22886123Y-62734999D01*
X22920339Y-62755508D01*
X22952381Y-62779271D01*
X22981939Y-62806061D01*
X23008729Y-62835619D01*
X23032492Y-62867661D01*
X23053001Y-62901877D01*
X23070057Y-62937939D01*
X23083496Y-62975499D01*
X23093189Y-63014196D01*
X23099043Y-63053656D01*
X23101000Y-63093500D01*
X23101000Y-63906500D01*
X23099043Y-63946344D01*
X23093189Y-63985804D01*
X23083496Y-64024501D01*
X23070057Y-64062061D01*
X23053001Y-64098123D01*
X23032492Y-64132339D01*
X23008729Y-64164381D01*
X22981939Y-64193939D01*
X22952381Y-64220729D01*
X22920339Y-64244492D01*
X22886123Y-64265001D01*
X22850061Y-64282057D01*
X22812501Y-64295496D01*
X22773804Y-64305189D01*
X22734344Y-64311043D01*
X22694500Y-64313000D01*
X15405500Y-64313000D01*
X15365656Y-64311043D01*
X15326196Y-64305189D01*
X15287499Y-64295496D01*
X15249939Y-64282057D01*
X15213877Y-64265001D01*
X15179661Y-64244492D01*
X15147619Y-64220729D01*
X15118061Y-64193939D01*
X15091271Y-64164381D01*
X15067508Y-64132339D01*
X15046999Y-64098123D01*
X15029943Y-64062061D01*
X15016504Y-64024501D01*
X15006811Y-63985804D01*
X15000957Y-63946344D01*
X14999000Y-63906500D01*
X14999000Y-63093500D01*
X15000957Y-63053656D01*
X15006811Y-63014196D01*
X15016504Y-62975499D01*
X15029943Y-62937939D01*
X15046999Y-62901877D01*
X15067508Y-62867661D01*
X15091271Y-62835619D01*
X15118061Y-62806061D01*
X15147619Y-62779271D01*
X15179661Y-62755508D01*
X15213877Y-62734999D01*
X15249939Y-62717943D01*
X15287499Y-62704504D01*
X15326196Y-62694811D01*
X15365656Y-62688957D01*
X15405500Y-62687000D01*
X22694500Y-62687000D01*
X22734344Y-62688957D01*
X22734344Y-62688957D01*
G37*
D14*
X19050000Y-63500000D03*
D11*
G36*
X22734344Y-65228957D02*
G01*
X22773804Y-65234811D01*
X22812501Y-65244504D01*
X22850061Y-65257943D01*
X22886123Y-65274999D01*
X22920339Y-65295508D01*
X22952381Y-65319271D01*
X22981939Y-65346061D01*
X23008729Y-65375619D01*
X23032492Y-65407661D01*
X23053001Y-65441877D01*
X23070057Y-65477939D01*
X23083496Y-65515499D01*
X23093189Y-65554196D01*
X23099043Y-65593656D01*
X23101000Y-65633500D01*
X23101000Y-66446500D01*
X23099043Y-66486344D01*
X23093189Y-66525804D01*
X23083496Y-66564501D01*
X23070057Y-66602061D01*
X23053001Y-66638123D01*
X23032492Y-66672339D01*
X23008729Y-66704381D01*
X22981939Y-66733939D01*
X22952381Y-66760729D01*
X22920339Y-66784492D01*
X22886123Y-66805001D01*
X22850061Y-66822057D01*
X22812501Y-66835496D01*
X22773804Y-66845189D01*
X22734344Y-66851043D01*
X22694500Y-66853000D01*
X15405500Y-66853000D01*
X15365656Y-66851043D01*
X15326196Y-66845189D01*
X15287499Y-66835496D01*
X15249939Y-66822057D01*
X15213877Y-66805001D01*
X15179661Y-66784492D01*
X15147619Y-66760729D01*
X15118061Y-66733939D01*
X15091271Y-66704381D01*
X15067508Y-66672339D01*
X15046999Y-66638123D01*
X15029943Y-66602061D01*
X15016504Y-66564501D01*
X15006811Y-66525804D01*
X15000957Y-66486344D01*
X14999000Y-66446500D01*
X14999000Y-65633500D01*
X15000957Y-65593656D01*
X15006811Y-65554196D01*
X15016504Y-65515499D01*
X15029943Y-65477939D01*
X15046999Y-65441877D01*
X15067508Y-65407661D01*
X15091271Y-65375619D01*
X15118061Y-65346061D01*
X15147619Y-65319271D01*
X15179661Y-65295508D01*
X15213877Y-65274999D01*
X15249939Y-65257943D01*
X15287499Y-65244504D01*
X15326196Y-65234811D01*
X15365656Y-65228957D01*
X15405500Y-65227000D01*
X22694500Y-65227000D01*
X22734344Y-65228957D01*
X22734344Y-65228957D01*
G37*
D14*
X19050000Y-66040000D03*
M02*
