%FSLAX45Y45*%
G04 Gerber Fmt 4.5, Leading zero omitted, Abs format (unit mm)*
G04 Created by KiCad (PCBNEW (5.1.2-1)-1) date 2023-07-30 19:33:04*
%MOMM*%
%LPD*%
G04 APERTURE LIST*
%ADD10C,0.050000*%
%ADD11C,0.200000*%
%ADD12C,0.300000*%
G04 APERTURE END LIST*
D10*
X6223000Y-4953000D02*
G75*
G03X6223000Y-4953000I-381000J0D01*
G01*
X2286000Y-6159500D02*
G75*
G02X2222500Y-6223000I-63500J0D01*
G01*
X2222500Y-5969000D02*
G75*
G02X2286000Y-6032500I0J-63500D01*
G01*
X2286000Y-6159500D02*
X2286000Y-6032500D01*
X1587500Y-5969000D02*
G75*
G02X1524000Y-5905500I0J63500D01*
G01*
X1524000Y-6286500D02*
G75*
G02X1587500Y-6223000I63500J0D01*
G01*
X3175000Y-1905000D02*
G75*
G02X3048000Y-2032000I-127000J0D01*
G01*
X3175000Y-1905000D02*
G75*
G02X3302000Y-1778000I127000J0D01*
G01*
X6223000Y-1778000D02*
G75*
G02X6350000Y-1905000I0J-127000D01*
G01*
X6350000Y-8001000D02*
G75*
G02X6223000Y-8128000I-127000J0D01*
G01*
X3302000Y-8128000D02*
G75*
G02X3175000Y-8001000I0J127000D01*
G01*
X3048000Y-7874000D02*
G75*
G02X3175000Y-8001000I0J-127000D01*
G01*
X2413000Y-7874000D02*
G75*
G02X2286000Y-7747000I0J127000D01*
G01*
X2159000Y-6858000D02*
G75*
G02X2286000Y-6985000I0J-127000D01*
G01*
X1651000Y-6858000D02*
G75*
G02X1524000Y-6731000I0J127000D01*
G01*
X1524000Y-2159000D02*
G75*
G02X1651000Y-2032000I127000J0D01*
G01*
X1524000Y-5905500D02*
X1524000Y-2159000D01*
X2222500Y-5969000D02*
X1587500Y-5969000D01*
X1587500Y-6223000D02*
X2222500Y-6223000D01*
X1524000Y-6731000D02*
X1524000Y-6286500D01*
X2159000Y-6858000D02*
X1651000Y-6858000D01*
X2286000Y-7747000D02*
X2286000Y-6985000D01*
X3048000Y-7874000D02*
X2413000Y-7874000D01*
X6223000Y-8128000D02*
X3302000Y-8128000D01*
X6350000Y-1905000D02*
X6350000Y-8001000D01*
X3302000Y-1778000D02*
X6223000Y-1778000D01*
X1651000Y-2032000D02*
X3048000Y-2032000D01*
D11*
D12*
X1807928Y-8596214D02*
X1807928Y-8296214D01*
X1879357Y-8296214D01*
X1922214Y-8310500D01*
X1950786Y-8339071D01*
X1965071Y-8367643D01*
X1979357Y-8424786D01*
X1979357Y-8467643D01*
X1965071Y-8524786D01*
X1950786Y-8553357D01*
X1922214Y-8581929D01*
X1879357Y-8596214D01*
X1807928Y-8596214D01*
X2107928Y-8596214D02*
X2107928Y-8396214D01*
X2107928Y-8453357D02*
X2122214Y-8424786D01*
X2136500Y-8410500D01*
X2165071Y-8396214D01*
X2193643Y-8396214D01*
X2293643Y-8596214D02*
X2293643Y-8396214D01*
X2293643Y-8296214D02*
X2279357Y-8310500D01*
X2293643Y-8324786D01*
X2307928Y-8310500D01*
X2293643Y-8296214D01*
X2293643Y-8324786D01*
X2479357Y-8596214D02*
X2450786Y-8581929D01*
X2436500Y-8553357D01*
X2436500Y-8296214D01*
X2636500Y-8596214D02*
X2607928Y-8581929D01*
X2593643Y-8553357D01*
X2593643Y-8296214D01*
X2979357Y-8596214D02*
X2979357Y-8296214D01*
X3079357Y-8510500D01*
X3179357Y-8296214D01*
X3179357Y-8596214D01*
X3450786Y-8596214D02*
X3450786Y-8439072D01*
X3436500Y-8410500D01*
X3407928Y-8396214D01*
X3350786Y-8396214D01*
X3322214Y-8410500D01*
X3450786Y-8581929D02*
X3422214Y-8596214D01*
X3350786Y-8596214D01*
X3322214Y-8581929D01*
X3307928Y-8553357D01*
X3307928Y-8524786D01*
X3322214Y-8496214D01*
X3350786Y-8481929D01*
X3422214Y-8481929D01*
X3450786Y-8467643D01*
X3593643Y-8396214D02*
X3593643Y-8696214D01*
X3593643Y-8410500D02*
X3622214Y-8396214D01*
X3679357Y-8396214D01*
X3707928Y-8410500D01*
X3722214Y-8424786D01*
X3736500Y-8453357D01*
X3736500Y-8539072D01*
X3722214Y-8567643D01*
X3707928Y-8581929D01*
X3679357Y-8596214D01*
X3622214Y-8596214D01*
X3593643Y-8581929D01*
X3865071Y-8567643D02*
X3879357Y-8581929D01*
X3865071Y-8596214D01*
X3850786Y-8581929D01*
X3865071Y-8567643D01*
X3865071Y-8596214D01*
X3865071Y-8410500D02*
X3879357Y-8424786D01*
X3865071Y-8439072D01*
X3850786Y-8424786D01*
X3865071Y-8410500D01*
X3865071Y-8439072D01*
M02*
