%FSLAX45Y45*%
G04 Gerber Fmt 4.5, Leading zero omitted, Abs format (unit mm)*
G04 Created by KiCad (PCBNEW 5.1.12-84ad8e8a86~92~ubuntu18.04.1) date 2022-12-12 22:35:50*
%MOMM*%
%LPD*%
G01*
G04 APERTURE LIST*
%TA.AperFunction,Profile*%
%ADD10C,0.050000*%
%TD*%
%ADD11C,0.200000*%
%ADD12C,0.300000*%
G04 APERTURE END LIST*
D10*
X19050000Y-14097000D02*
G75*
G02*
X18796000Y-14351000I-254000J0D01*
G01*
X18796000Y-1270000D02*
G75*
G02*
X19050000Y-1524000I0J-254000D01*
G01*
X1270000Y-1524000D02*
G75*
G02*
X1524000Y-1270000I254000J0D01*
G01*
X1524000Y-14351000D02*
G75*
G02*
X1270000Y-14097000I0J254000D01*
G01*
X18796000Y-1270000D02*
X1524000Y-1270000D01*
X19050000Y-14097000D02*
X19050000Y-1524000D01*
X1524000Y-14351000D02*
X18796000Y-14351000D01*
X1270000Y-1524000D02*
X1270000Y-14097000D01*
D11*
X18162600Y-1551000D02*
X18362600Y-1751000D01*
X18362600Y-1551000D02*
X18162600Y-1751000D01*
X18207600Y-1741000D02*
X18317600Y-1741000D01*
X18207600Y-1561000D02*
X18317600Y-1561000D01*
X18317600Y-1741000D02*
G75*
G03*
X18317600Y-1561000I0J90000D01*
G01*
X18207600Y-1561000D02*
G75*
G03*
X18207600Y-1741000I0J-90000D01*
G01*
X18162600Y-5615000D02*
X18362600Y-5815000D01*
X18362600Y-5615000D02*
X18162600Y-5815000D01*
X18207600Y-5805000D02*
X18317600Y-5805000D01*
X18207600Y-5625000D02*
X18317600Y-5625000D01*
X18317600Y-5805000D02*
G75*
G03*
X18317600Y-5625000I0J90000D01*
G01*
X18207600Y-5625000D02*
G75*
G03*
X18207600Y-5805000I0J-90000D01*
G01*
X18162600Y-6872300D02*
X18362600Y-7072300D01*
X18362600Y-6872300D02*
X18162600Y-7072300D01*
X18207600Y-7062300D02*
X18317600Y-7062300D01*
X18207600Y-6882300D02*
X18317600Y-6882300D01*
X18317600Y-7062300D02*
G75*
G03*
X18317600Y-6882300I0J90000D01*
G01*
X18207600Y-6882300D02*
G75*
G03*
X18207600Y-7062300I0J-90000D01*
G01*
X18162600Y-10936300D02*
X18362600Y-11136300D01*
X18362600Y-10936300D02*
X18162600Y-11136300D01*
X18207600Y-11126300D02*
X18317600Y-11126300D01*
X18207600Y-10946300D02*
X18317600Y-10946300D01*
X18317600Y-11126300D02*
G75*
G03*
X18317600Y-10946300I0J90000D01*
G01*
X18207600Y-10946300D02*
G75*
G03*
X18207600Y-11126300I0J-90000D01*
G01*
X18417934Y-6367018D02*
G75*
G03*
X18417934Y-6367018I-150000J0D01*
G01*
X18217934Y-6507018D02*
X18317934Y-6507018D01*
X18217934Y-6227018D02*
X18317934Y-6227018D01*
X18317934Y-6507018D02*
G75*
G03*
X18317934Y-6227018I0J140000D01*
G01*
X18217934Y-6227018D02*
G75*
G03*
X18217934Y-6507018I0J-140000D01*
G01*
X18417934Y-11666982D02*
G75*
G03*
X18417934Y-11666982I-150000J0D01*
G01*
X18217934Y-11806982D02*
X18317934Y-11806982D01*
X18217934Y-11526982D02*
X18317934Y-11526982D01*
X18317934Y-11806982D02*
G75*
G03*
X18317934Y-11526982I0J140000D01*
G01*
X18217934Y-11526982D02*
G75*
G03*
X18217934Y-11806982I0J-140000D01*
G01*
D12*
X1553928Y-14819214D02*
X1553928Y-14519214D01*
X1625357Y-14519214D01*
X1668214Y-14533500D01*
X1696786Y-14562071D01*
X1711071Y-14590643D01*
X1725357Y-14647786D01*
X1725357Y-14690643D01*
X1711071Y-14747786D01*
X1696786Y-14776357D01*
X1668214Y-14804929D01*
X1625357Y-14819214D01*
X1553928Y-14819214D01*
X1853928Y-14819214D02*
X1853928Y-14619214D01*
X1853928Y-14676357D02*
X1868214Y-14647786D01*
X1882500Y-14633500D01*
X1911071Y-14619214D01*
X1939643Y-14619214D01*
X2039643Y-14819214D02*
X2039643Y-14619214D01*
X2039643Y-14519214D02*
X2025357Y-14533500D01*
X2039643Y-14547786D01*
X2053928Y-14533500D01*
X2039643Y-14519214D01*
X2039643Y-14547786D01*
X2225357Y-14819214D02*
X2196786Y-14804929D01*
X2182500Y-14776357D01*
X2182500Y-14519214D01*
X2382500Y-14819214D02*
X2353928Y-14804929D01*
X2339643Y-14776357D01*
X2339643Y-14519214D01*
X2725357Y-14819214D02*
X2725357Y-14519214D01*
X2825357Y-14733500D01*
X2925357Y-14519214D01*
X2925357Y-14819214D01*
X3196786Y-14819214D02*
X3196786Y-14662071D01*
X3182500Y-14633500D01*
X3153928Y-14619214D01*
X3096786Y-14619214D01*
X3068214Y-14633500D01*
X3196786Y-14804929D02*
X3168214Y-14819214D01*
X3096786Y-14819214D01*
X3068214Y-14804929D01*
X3053928Y-14776357D01*
X3053928Y-14747786D01*
X3068214Y-14719214D01*
X3096786Y-14704929D01*
X3168214Y-14704929D01*
X3196786Y-14690643D01*
X3339643Y-14619214D02*
X3339643Y-14919214D01*
X3339643Y-14633500D02*
X3368214Y-14619214D01*
X3425357Y-14619214D01*
X3453928Y-14633500D01*
X3468214Y-14647786D01*
X3482500Y-14676357D01*
X3482500Y-14762071D01*
X3468214Y-14790643D01*
X3453928Y-14804929D01*
X3425357Y-14819214D01*
X3368214Y-14819214D01*
X3339643Y-14804929D01*
X3611071Y-14790643D02*
X3625357Y-14804929D01*
X3611071Y-14819214D01*
X3596786Y-14804929D01*
X3611071Y-14790643D01*
X3611071Y-14819214D01*
X3611071Y-14633500D02*
X3625357Y-14647786D01*
X3611071Y-14662071D01*
X3596786Y-14647786D01*
X3611071Y-14633500D01*
X3611071Y-14662071D01*
X1067500Y-15213500D02*
X1267500Y-15413500D01*
X1267500Y-15213500D02*
X1067500Y-15413500D01*
X1539643Y-15177786D02*
X1553928Y-15163500D01*
X1582500Y-15149214D01*
X1653928Y-15149214D01*
X1682500Y-15163500D01*
X1696786Y-15177786D01*
X1711071Y-15206357D01*
X1711071Y-15234929D01*
X1696786Y-15277786D01*
X1525357Y-15449214D01*
X1711071Y-15449214D01*
X1839643Y-15420643D02*
X1853928Y-15434929D01*
X1839643Y-15449214D01*
X1825357Y-15434929D01*
X1839643Y-15420643D01*
X1839643Y-15449214D01*
X2039643Y-15149214D02*
X2068214Y-15149214D01*
X2096786Y-15163500D01*
X2111071Y-15177786D01*
X2125357Y-15206357D01*
X2139643Y-15263500D01*
X2139643Y-15334929D01*
X2125357Y-15392071D01*
X2111071Y-15420643D01*
X2096786Y-15434929D01*
X2068214Y-15449214D01*
X2039643Y-15449214D01*
X2011071Y-15434929D01*
X1996786Y-15420643D01*
X1982500Y-15392071D01*
X1968214Y-15334929D01*
X1968214Y-15263500D01*
X1982500Y-15206357D01*
X1996786Y-15177786D01*
X2011071Y-15163500D01*
X2039643Y-15149214D01*
X2325357Y-15149214D02*
X2353928Y-15149214D01*
X2382500Y-15163500D01*
X2396786Y-15177786D01*
X2411071Y-15206357D01*
X2425357Y-15263500D01*
X2425357Y-15334929D01*
X2411071Y-15392071D01*
X2396786Y-15420643D01*
X2382500Y-15434929D01*
X2353928Y-15449214D01*
X2325357Y-15449214D01*
X2296786Y-15434929D01*
X2282500Y-15420643D01*
X2268214Y-15392071D01*
X2253928Y-15334929D01*
X2253928Y-15263500D01*
X2268214Y-15206357D01*
X2282500Y-15177786D01*
X2296786Y-15163500D01*
X2325357Y-15149214D01*
X2611071Y-15149214D02*
X2639643Y-15149214D01*
X2668214Y-15163500D01*
X2682500Y-15177786D01*
X2696786Y-15206357D01*
X2711071Y-15263500D01*
X2711071Y-15334929D01*
X2696786Y-15392071D01*
X2682500Y-15420643D01*
X2668214Y-15434929D01*
X2639643Y-15449214D01*
X2611071Y-15449214D01*
X2582500Y-15434929D01*
X2568214Y-15420643D01*
X2553928Y-15392071D01*
X2539643Y-15334929D01*
X2539643Y-15263500D01*
X2553928Y-15206357D01*
X2568214Y-15177786D01*
X2582500Y-15163500D01*
X2611071Y-15149214D01*
X2839643Y-15449214D02*
X2839643Y-15249214D01*
X2839643Y-15277786D02*
X2853928Y-15263500D01*
X2882500Y-15249214D01*
X2925357Y-15249214D01*
X2953928Y-15263500D01*
X2968214Y-15292071D01*
X2968214Y-15449214D01*
X2968214Y-15292071D02*
X2982500Y-15263500D01*
X3011071Y-15249214D01*
X3053928Y-15249214D01*
X3082500Y-15263500D01*
X3096786Y-15292071D01*
X3096786Y-15449214D01*
X3239643Y-15449214D02*
X3239643Y-15249214D01*
X3239643Y-15277786D02*
X3253928Y-15263500D01*
X3282500Y-15249214D01*
X3325357Y-15249214D01*
X3353928Y-15263500D01*
X3368214Y-15292071D01*
X3368214Y-15449214D01*
X3368214Y-15292071D02*
X3382500Y-15263500D01*
X3411071Y-15249214D01*
X3453928Y-15249214D01*
X3482500Y-15263500D01*
X3496786Y-15292071D01*
X3496786Y-15449214D01*
X4082500Y-15134929D02*
X3825357Y-15520643D01*
X4468214Y-15149214D02*
X4496786Y-15149214D01*
X4525357Y-15163500D01*
X4539643Y-15177786D01*
X4553928Y-15206357D01*
X4568214Y-15263500D01*
X4568214Y-15334929D01*
X4553928Y-15392071D01*
X4539643Y-15420643D01*
X4525357Y-15434929D01*
X4496786Y-15449214D01*
X4468214Y-15449214D01*
X4439643Y-15434929D01*
X4425357Y-15420643D01*
X4411071Y-15392071D01*
X4396786Y-15334929D01*
X4396786Y-15263500D01*
X4411071Y-15206357D01*
X4425357Y-15177786D01*
X4439643Y-15163500D01*
X4468214Y-15149214D01*
X4696786Y-15420643D02*
X4711071Y-15434929D01*
X4696786Y-15449214D01*
X4682500Y-15434929D01*
X4696786Y-15420643D01*
X4696786Y-15449214D01*
X4896786Y-15149214D02*
X4925357Y-15149214D01*
X4953928Y-15163500D01*
X4968214Y-15177786D01*
X4982500Y-15206357D01*
X4996786Y-15263500D01*
X4996786Y-15334929D01*
X4982500Y-15392071D01*
X4968214Y-15420643D01*
X4953928Y-15434929D01*
X4925357Y-15449214D01*
X4896786Y-15449214D01*
X4868214Y-15434929D01*
X4853928Y-15420643D01*
X4839643Y-15392071D01*
X4825357Y-15334929D01*
X4825357Y-15263500D01*
X4839643Y-15206357D01*
X4853928Y-15177786D01*
X4868214Y-15163500D01*
X4896786Y-15149214D01*
X5096786Y-15149214D02*
X5296786Y-15149214D01*
X5168214Y-15449214D01*
X5453928Y-15277786D02*
X5425357Y-15263500D01*
X5411071Y-15249214D01*
X5396786Y-15220643D01*
X5396786Y-15206357D01*
X5411071Y-15177786D01*
X5425357Y-15163500D01*
X5453928Y-15149214D01*
X5511071Y-15149214D01*
X5539643Y-15163500D01*
X5553928Y-15177786D01*
X5568214Y-15206357D01*
X5568214Y-15220643D01*
X5553928Y-15249214D01*
X5539643Y-15263500D01*
X5511071Y-15277786D01*
X5453928Y-15277786D01*
X5425357Y-15292071D01*
X5411071Y-15306357D01*
X5396786Y-15334929D01*
X5396786Y-15392071D01*
X5411071Y-15420643D01*
X5425357Y-15434929D01*
X5453928Y-15449214D01*
X5511071Y-15449214D01*
X5539643Y-15434929D01*
X5553928Y-15420643D01*
X5568214Y-15392071D01*
X5568214Y-15334929D01*
X5553928Y-15306357D01*
X5539643Y-15292071D01*
X5511071Y-15277786D01*
X5668214Y-15149214D02*
X5868214Y-15149214D01*
X5739643Y-15449214D01*
X5968214Y-15149214D02*
X5968214Y-15206357D01*
X6082500Y-15149214D02*
X6082500Y-15206357D01*
X6525357Y-15563500D02*
X6511071Y-15549214D01*
X6482500Y-15506357D01*
X6468214Y-15477786D01*
X6453928Y-15434929D01*
X6439643Y-15363500D01*
X6439643Y-15306357D01*
X6453928Y-15234929D01*
X6468214Y-15192071D01*
X6482500Y-15163500D01*
X6511071Y-15120643D01*
X6525357Y-15106357D01*
X6696786Y-15149214D02*
X6725357Y-15149214D01*
X6753928Y-15163500D01*
X6768214Y-15177786D01*
X6782500Y-15206357D01*
X6796786Y-15263500D01*
X6796786Y-15334929D01*
X6782500Y-15392071D01*
X6768214Y-15420643D01*
X6753928Y-15434929D01*
X6725357Y-15449214D01*
X6696786Y-15449214D01*
X6668214Y-15434929D01*
X6653928Y-15420643D01*
X6639643Y-15392071D01*
X6625357Y-15334929D01*
X6625357Y-15263500D01*
X6639643Y-15206357D01*
X6653928Y-15177786D01*
X6668214Y-15163500D01*
X6696786Y-15149214D01*
X7153928Y-15449214D02*
X7153928Y-15149214D01*
X7282500Y-15449214D02*
X7282500Y-15292071D01*
X7268214Y-15263500D01*
X7239643Y-15249214D01*
X7196786Y-15249214D01*
X7168214Y-15263500D01*
X7153928Y-15277786D01*
X7468214Y-15449214D02*
X7439643Y-15434929D01*
X7425357Y-15420643D01*
X7411071Y-15392071D01*
X7411071Y-15306357D01*
X7425357Y-15277786D01*
X7439643Y-15263500D01*
X7468214Y-15249214D01*
X7511071Y-15249214D01*
X7539643Y-15263500D01*
X7553928Y-15277786D01*
X7568214Y-15306357D01*
X7568214Y-15392071D01*
X7553928Y-15420643D01*
X7539643Y-15434929D01*
X7511071Y-15449214D01*
X7468214Y-15449214D01*
X7739643Y-15449214D02*
X7711071Y-15434929D01*
X7696786Y-15406357D01*
X7696786Y-15149214D01*
X7968214Y-15434929D02*
X7939643Y-15449214D01*
X7882500Y-15449214D01*
X7853928Y-15434929D01*
X7839643Y-15406357D01*
X7839643Y-15292071D01*
X7853928Y-15263500D01*
X7882500Y-15249214D01*
X7939643Y-15249214D01*
X7968214Y-15263500D01*
X7982500Y-15292071D01*
X7982500Y-15320643D01*
X7839643Y-15349214D01*
X8096786Y-15434929D02*
X8125357Y-15449214D01*
X8182500Y-15449214D01*
X8211071Y-15434929D01*
X8225357Y-15406357D01*
X8225357Y-15392071D01*
X8211071Y-15363500D01*
X8182500Y-15349214D01*
X8139643Y-15349214D01*
X8111071Y-15334929D01*
X8096786Y-15306357D01*
X8096786Y-15292071D01*
X8111071Y-15263500D01*
X8139643Y-15249214D01*
X8182500Y-15249214D01*
X8211071Y-15263500D01*
X8582500Y-15334929D02*
X8811071Y-15334929D01*
X8696786Y-15449214D02*
X8696786Y-15220643D01*
X9311071Y-15249214D02*
X9311071Y-15449214D01*
X9239643Y-15134929D02*
X9168214Y-15349214D01*
X9353928Y-15349214D01*
X9682500Y-15434929D02*
X9711071Y-15449214D01*
X9768214Y-15449214D01*
X9796786Y-15434929D01*
X9811071Y-15406357D01*
X9811071Y-15392071D01*
X9796786Y-15363500D01*
X9768214Y-15349214D01*
X9725357Y-15349214D01*
X9696786Y-15334929D01*
X9682500Y-15306357D01*
X9682500Y-15292071D01*
X9696786Y-15263500D01*
X9725357Y-15249214D01*
X9768214Y-15249214D01*
X9796786Y-15263500D01*
X9982500Y-15449214D02*
X9953928Y-15434929D01*
X9939643Y-15406357D01*
X9939643Y-15149214D01*
X10139643Y-15449214D02*
X10111071Y-15434929D01*
X10096786Y-15420643D01*
X10082500Y-15392071D01*
X10082500Y-15306357D01*
X10096786Y-15277786D01*
X10111071Y-15263500D01*
X10139643Y-15249214D01*
X10182500Y-15249214D01*
X10211071Y-15263500D01*
X10225357Y-15277786D01*
X10239643Y-15306357D01*
X10239643Y-15392071D01*
X10225357Y-15420643D01*
X10211071Y-15434929D01*
X10182500Y-15449214D01*
X10139643Y-15449214D01*
X10325357Y-15249214D02*
X10439643Y-15249214D01*
X10368214Y-15149214D02*
X10368214Y-15406357D01*
X10382500Y-15434929D01*
X10411071Y-15449214D01*
X10439643Y-15449214D01*
X10525357Y-15434929D02*
X10553928Y-15449214D01*
X10611071Y-15449214D01*
X10639643Y-15434929D01*
X10653928Y-15406357D01*
X10653928Y-15392071D01*
X10639643Y-15363500D01*
X10611071Y-15349214D01*
X10568214Y-15349214D01*
X10539643Y-15334929D01*
X10525357Y-15306357D01*
X10525357Y-15292071D01*
X10539643Y-15263500D01*
X10568214Y-15249214D01*
X10611071Y-15249214D01*
X10639643Y-15263500D01*
X10753928Y-15563500D02*
X10768214Y-15549214D01*
X10796786Y-15506357D01*
X10811071Y-15477786D01*
X10825357Y-15434929D01*
X10839643Y-15363500D01*
X10839643Y-15306357D01*
X10825357Y-15234929D01*
X10811071Y-15192071D01*
X10796786Y-15163500D01*
X10768214Y-15120643D01*
X10753928Y-15106357D01*
X11296786Y-15563500D02*
X11282500Y-15549214D01*
X11253928Y-15506357D01*
X11239643Y-15477786D01*
X11225357Y-15434929D01*
X11211071Y-15363500D01*
X11211071Y-15306357D01*
X11225357Y-15234929D01*
X11239643Y-15192071D01*
X11253928Y-15163500D01*
X11282500Y-15120643D01*
X11296786Y-15106357D01*
X11411071Y-15249214D02*
X11411071Y-15449214D01*
X11411071Y-15277786D02*
X11425357Y-15263500D01*
X11453928Y-15249214D01*
X11496786Y-15249214D01*
X11525357Y-15263500D01*
X11539643Y-15292071D01*
X11539643Y-15449214D01*
X11725357Y-15449214D02*
X11696786Y-15434929D01*
X11682500Y-15420643D01*
X11668214Y-15392071D01*
X11668214Y-15306357D01*
X11682500Y-15277786D01*
X11696786Y-15263500D01*
X11725357Y-15249214D01*
X11768214Y-15249214D01*
X11796786Y-15263500D01*
X11811071Y-15277786D01*
X11825357Y-15306357D01*
X11825357Y-15392071D01*
X11811071Y-15420643D01*
X11796786Y-15434929D01*
X11768214Y-15449214D01*
X11725357Y-15449214D01*
X11911071Y-15249214D02*
X12025357Y-15249214D01*
X11953928Y-15149214D02*
X11953928Y-15406357D01*
X11968214Y-15434929D01*
X11996786Y-15449214D01*
X12025357Y-15449214D01*
X12353928Y-15249214D02*
X12353928Y-15549214D01*
X12353928Y-15263500D02*
X12382500Y-15249214D01*
X12439643Y-15249214D01*
X12468214Y-15263500D01*
X12482500Y-15277786D01*
X12496786Y-15306357D01*
X12496786Y-15392071D01*
X12482500Y-15420643D01*
X12468214Y-15434929D01*
X12439643Y-15449214D01*
X12382500Y-15449214D01*
X12353928Y-15434929D01*
X12668214Y-15449214D02*
X12639643Y-15434929D01*
X12625357Y-15406357D01*
X12625357Y-15149214D01*
X12911071Y-15449214D02*
X12911071Y-15292071D01*
X12896786Y-15263500D01*
X12868214Y-15249214D01*
X12811071Y-15249214D01*
X12782500Y-15263500D01*
X12911071Y-15434929D02*
X12882500Y-15449214D01*
X12811071Y-15449214D01*
X12782500Y-15434929D01*
X12768214Y-15406357D01*
X12768214Y-15377786D01*
X12782500Y-15349214D01*
X12811071Y-15334929D01*
X12882500Y-15334929D01*
X12911071Y-15320643D01*
X13011071Y-15249214D02*
X13125357Y-15249214D01*
X13053928Y-15149214D02*
X13053928Y-15406357D01*
X13068214Y-15434929D01*
X13096786Y-15449214D01*
X13125357Y-15449214D01*
X13339643Y-15434929D02*
X13311071Y-15449214D01*
X13253928Y-15449214D01*
X13225357Y-15434929D01*
X13211071Y-15406357D01*
X13211071Y-15292071D01*
X13225357Y-15263500D01*
X13253928Y-15249214D01*
X13311071Y-15249214D01*
X13339643Y-15263500D01*
X13353928Y-15292071D01*
X13353928Y-15320643D01*
X13211071Y-15349214D01*
X13611071Y-15449214D02*
X13611071Y-15149214D01*
X13611071Y-15434929D02*
X13582500Y-15449214D01*
X13525357Y-15449214D01*
X13496786Y-15434929D01*
X13482500Y-15420643D01*
X13468214Y-15392071D01*
X13468214Y-15306357D01*
X13482500Y-15277786D01*
X13496786Y-15263500D01*
X13525357Y-15249214D01*
X13582500Y-15249214D01*
X13611071Y-15263500D01*
X13725357Y-15563500D02*
X13739643Y-15549214D01*
X13768214Y-15506357D01*
X13782500Y-15477786D01*
X13796786Y-15434929D01*
X13811071Y-15363500D01*
X13811071Y-15306357D01*
X13796786Y-15234929D01*
X13782500Y-15192071D01*
X13768214Y-15163500D01*
X13739643Y-15120643D01*
X13725357Y-15106357D01*
X1267500Y-15709500D02*
G75*
G03*
X1267500Y-15709500I-150000J0D01*
G01*
X1525357Y-15545214D02*
X1711071Y-15545214D01*
X1611071Y-15659500D01*
X1653928Y-15659500D01*
X1682500Y-15673786D01*
X1696786Y-15688071D01*
X1711071Y-15716643D01*
X1711071Y-15788071D01*
X1696786Y-15816643D01*
X1682500Y-15830929D01*
X1653928Y-15845214D01*
X1568214Y-15845214D01*
X1539643Y-15830929D01*
X1525357Y-15816643D01*
X1839643Y-15816643D02*
X1853928Y-15830929D01*
X1839643Y-15845214D01*
X1825357Y-15830929D01*
X1839643Y-15816643D01*
X1839643Y-15845214D01*
X2039643Y-15545214D02*
X2068214Y-15545214D01*
X2096786Y-15559500D01*
X2111071Y-15573786D01*
X2125357Y-15602357D01*
X2139643Y-15659500D01*
X2139643Y-15730929D01*
X2125357Y-15788071D01*
X2111071Y-15816643D01*
X2096786Y-15830929D01*
X2068214Y-15845214D01*
X2039643Y-15845214D01*
X2011071Y-15830929D01*
X1996786Y-15816643D01*
X1982500Y-15788071D01*
X1968214Y-15730929D01*
X1968214Y-15659500D01*
X1982500Y-15602357D01*
X1996786Y-15573786D01*
X2011071Y-15559500D01*
X2039643Y-15545214D01*
X2325357Y-15545214D02*
X2353928Y-15545214D01*
X2382500Y-15559500D01*
X2396786Y-15573786D01*
X2411071Y-15602357D01*
X2425357Y-15659500D01*
X2425357Y-15730929D01*
X2411071Y-15788071D01*
X2396786Y-15816643D01*
X2382500Y-15830929D01*
X2353928Y-15845214D01*
X2325357Y-15845214D01*
X2296786Y-15830929D01*
X2282500Y-15816643D01*
X2268214Y-15788071D01*
X2253928Y-15730929D01*
X2253928Y-15659500D01*
X2268214Y-15602357D01*
X2282500Y-15573786D01*
X2296786Y-15559500D01*
X2325357Y-15545214D01*
X2611071Y-15545214D02*
X2639643Y-15545214D01*
X2668214Y-15559500D01*
X2682500Y-15573786D01*
X2696786Y-15602357D01*
X2711071Y-15659500D01*
X2711071Y-15730929D01*
X2696786Y-15788071D01*
X2682500Y-15816643D01*
X2668214Y-15830929D01*
X2639643Y-15845214D01*
X2611071Y-15845214D01*
X2582500Y-15830929D01*
X2568214Y-15816643D01*
X2553928Y-15788071D01*
X2539643Y-15730929D01*
X2539643Y-15659500D01*
X2553928Y-15602357D01*
X2568214Y-15573786D01*
X2582500Y-15559500D01*
X2611071Y-15545214D01*
X2839643Y-15845214D02*
X2839643Y-15645214D01*
X2839643Y-15673786D02*
X2853928Y-15659500D01*
X2882500Y-15645214D01*
X2925357Y-15645214D01*
X2953928Y-15659500D01*
X2968214Y-15688071D01*
X2968214Y-15845214D01*
X2968214Y-15688071D02*
X2982500Y-15659500D01*
X3011071Y-15645214D01*
X3053928Y-15645214D01*
X3082500Y-15659500D01*
X3096786Y-15688071D01*
X3096786Y-15845214D01*
X3239643Y-15845214D02*
X3239643Y-15645214D01*
X3239643Y-15673786D02*
X3253928Y-15659500D01*
X3282500Y-15645214D01*
X3325357Y-15645214D01*
X3353928Y-15659500D01*
X3368214Y-15688071D01*
X3368214Y-15845214D01*
X3368214Y-15688071D02*
X3382500Y-15659500D01*
X3411071Y-15645214D01*
X3453928Y-15645214D01*
X3482500Y-15659500D01*
X3496786Y-15688071D01*
X3496786Y-15845214D01*
X4082500Y-15530929D02*
X3825357Y-15916643D01*
X4468214Y-15545214D02*
X4496786Y-15545214D01*
X4525357Y-15559500D01*
X4539643Y-15573786D01*
X4553928Y-15602357D01*
X4568214Y-15659500D01*
X4568214Y-15730929D01*
X4553928Y-15788071D01*
X4539643Y-15816643D01*
X4525357Y-15830929D01*
X4496786Y-15845214D01*
X4468214Y-15845214D01*
X4439643Y-15830929D01*
X4425357Y-15816643D01*
X4411071Y-15788071D01*
X4396786Y-15730929D01*
X4396786Y-15659500D01*
X4411071Y-15602357D01*
X4425357Y-15573786D01*
X4439643Y-15559500D01*
X4468214Y-15545214D01*
X4696786Y-15816643D02*
X4711071Y-15830929D01*
X4696786Y-15845214D01*
X4682500Y-15830929D01*
X4696786Y-15816643D01*
X4696786Y-15845214D01*
X4996786Y-15845214D02*
X4825357Y-15845214D01*
X4911071Y-15845214D02*
X4911071Y-15545214D01*
X4882500Y-15588071D01*
X4853928Y-15616643D01*
X4825357Y-15630929D01*
X5282500Y-15845214D02*
X5111071Y-15845214D01*
X5196786Y-15845214D02*
X5196786Y-15545214D01*
X5168214Y-15588071D01*
X5139643Y-15616643D01*
X5111071Y-15630929D01*
X5453928Y-15673786D02*
X5425357Y-15659500D01*
X5411071Y-15645214D01*
X5396786Y-15616643D01*
X5396786Y-15602357D01*
X5411071Y-15573786D01*
X5425357Y-15559500D01*
X5453928Y-15545214D01*
X5511071Y-15545214D01*
X5539643Y-15559500D01*
X5553928Y-15573786D01*
X5568214Y-15602357D01*
X5568214Y-15616643D01*
X5553928Y-15645214D01*
X5539643Y-15659500D01*
X5511071Y-15673786D01*
X5453928Y-15673786D01*
X5425357Y-15688071D01*
X5411071Y-15702357D01*
X5396786Y-15730929D01*
X5396786Y-15788071D01*
X5411071Y-15816643D01*
X5425357Y-15830929D01*
X5453928Y-15845214D01*
X5511071Y-15845214D01*
X5539643Y-15830929D01*
X5553928Y-15816643D01*
X5568214Y-15788071D01*
X5568214Y-15730929D01*
X5553928Y-15702357D01*
X5539643Y-15688071D01*
X5511071Y-15673786D01*
X5853928Y-15845214D02*
X5682500Y-15845214D01*
X5768214Y-15845214D02*
X5768214Y-15545214D01*
X5739643Y-15588071D01*
X5711071Y-15616643D01*
X5682500Y-15630929D01*
X5968214Y-15545214D02*
X5968214Y-15602357D01*
X6082500Y-15545214D02*
X6082500Y-15602357D01*
X6525357Y-15959500D02*
X6511071Y-15945214D01*
X6482500Y-15902357D01*
X6468214Y-15873786D01*
X6453928Y-15830929D01*
X6439643Y-15759500D01*
X6439643Y-15702357D01*
X6453928Y-15630929D01*
X6468214Y-15588071D01*
X6482500Y-15559500D01*
X6511071Y-15516643D01*
X6525357Y-15502357D01*
X6696786Y-15545214D02*
X6725357Y-15545214D01*
X6753928Y-15559500D01*
X6768214Y-15573786D01*
X6782500Y-15602357D01*
X6796786Y-15659500D01*
X6796786Y-15730929D01*
X6782500Y-15788071D01*
X6768214Y-15816643D01*
X6753928Y-15830929D01*
X6725357Y-15845214D01*
X6696786Y-15845214D01*
X6668214Y-15830929D01*
X6653928Y-15816643D01*
X6639643Y-15788071D01*
X6625357Y-15730929D01*
X6625357Y-15659500D01*
X6639643Y-15602357D01*
X6653928Y-15573786D01*
X6668214Y-15559500D01*
X6696786Y-15545214D01*
X7153928Y-15845214D02*
X7153928Y-15545214D01*
X7282500Y-15845214D02*
X7282500Y-15688071D01*
X7268214Y-15659500D01*
X7239643Y-15645214D01*
X7196786Y-15645214D01*
X7168214Y-15659500D01*
X7153928Y-15673786D01*
X7468214Y-15845214D02*
X7439643Y-15830929D01*
X7425357Y-15816643D01*
X7411071Y-15788071D01*
X7411071Y-15702357D01*
X7425357Y-15673786D01*
X7439643Y-15659500D01*
X7468214Y-15645214D01*
X7511071Y-15645214D01*
X7539643Y-15659500D01*
X7553928Y-15673786D01*
X7568214Y-15702357D01*
X7568214Y-15788071D01*
X7553928Y-15816643D01*
X7539643Y-15830929D01*
X7511071Y-15845214D01*
X7468214Y-15845214D01*
X7739643Y-15845214D02*
X7711071Y-15830929D01*
X7696786Y-15802357D01*
X7696786Y-15545214D01*
X7968214Y-15830929D02*
X7939643Y-15845214D01*
X7882500Y-15845214D01*
X7853928Y-15830929D01*
X7839643Y-15802357D01*
X7839643Y-15688071D01*
X7853928Y-15659500D01*
X7882500Y-15645214D01*
X7939643Y-15645214D01*
X7968214Y-15659500D01*
X7982500Y-15688071D01*
X7982500Y-15716643D01*
X7839643Y-15745214D01*
X8096786Y-15830929D02*
X8125357Y-15845214D01*
X8182500Y-15845214D01*
X8211071Y-15830929D01*
X8225357Y-15802357D01*
X8225357Y-15788071D01*
X8211071Y-15759500D01*
X8182500Y-15745214D01*
X8139643Y-15745214D01*
X8111071Y-15730929D01*
X8096786Y-15702357D01*
X8096786Y-15688071D01*
X8111071Y-15659500D01*
X8139643Y-15645214D01*
X8182500Y-15645214D01*
X8211071Y-15659500D01*
X8582500Y-15730929D02*
X8811071Y-15730929D01*
X8696786Y-15845214D02*
X8696786Y-15616643D01*
X9168214Y-15573786D02*
X9182500Y-15559500D01*
X9211071Y-15545214D01*
X9282500Y-15545214D01*
X9311071Y-15559500D01*
X9325357Y-15573786D01*
X9339643Y-15602357D01*
X9339643Y-15630929D01*
X9325357Y-15673786D01*
X9153928Y-15845214D01*
X9339643Y-15845214D01*
X9682500Y-15830929D02*
X9711071Y-15845214D01*
X9768214Y-15845214D01*
X9796786Y-15830929D01*
X9811071Y-15802357D01*
X9811071Y-15788071D01*
X9796786Y-15759500D01*
X9768214Y-15745214D01*
X9725357Y-15745214D01*
X9696786Y-15730929D01*
X9682500Y-15702357D01*
X9682500Y-15688071D01*
X9696786Y-15659500D01*
X9725357Y-15645214D01*
X9768214Y-15645214D01*
X9796786Y-15659500D01*
X9982500Y-15845214D02*
X9953928Y-15830929D01*
X9939643Y-15802357D01*
X9939643Y-15545214D01*
X10139643Y-15845214D02*
X10111071Y-15830929D01*
X10096786Y-15816643D01*
X10082500Y-15788071D01*
X10082500Y-15702357D01*
X10096786Y-15673786D01*
X10111071Y-15659500D01*
X10139643Y-15645214D01*
X10182500Y-15645214D01*
X10211071Y-15659500D01*
X10225357Y-15673786D01*
X10239643Y-15702357D01*
X10239643Y-15788071D01*
X10225357Y-15816643D01*
X10211071Y-15830929D01*
X10182500Y-15845214D01*
X10139643Y-15845214D01*
X10325357Y-15645214D02*
X10439643Y-15645214D01*
X10368214Y-15545214D02*
X10368214Y-15802357D01*
X10382500Y-15830929D01*
X10411071Y-15845214D01*
X10439643Y-15845214D01*
X10525357Y-15830929D02*
X10553928Y-15845214D01*
X10611071Y-15845214D01*
X10639643Y-15830929D01*
X10653928Y-15802357D01*
X10653928Y-15788071D01*
X10639643Y-15759500D01*
X10611071Y-15745214D01*
X10568214Y-15745214D01*
X10539643Y-15730929D01*
X10525357Y-15702357D01*
X10525357Y-15688071D01*
X10539643Y-15659500D01*
X10568214Y-15645214D01*
X10611071Y-15645214D01*
X10639643Y-15659500D01*
X10753928Y-15959500D02*
X10768214Y-15945214D01*
X10796786Y-15902357D01*
X10811071Y-15873786D01*
X10825357Y-15830929D01*
X10839643Y-15759500D01*
X10839643Y-15702357D01*
X10825357Y-15630929D01*
X10811071Y-15588071D01*
X10796786Y-15559500D01*
X10768214Y-15516643D01*
X10753928Y-15502357D01*
X11296786Y-15959500D02*
X11282500Y-15945214D01*
X11253928Y-15902357D01*
X11239643Y-15873786D01*
X11225357Y-15830929D01*
X11211071Y-15759500D01*
X11211071Y-15702357D01*
X11225357Y-15630929D01*
X11239643Y-15588071D01*
X11253928Y-15559500D01*
X11282500Y-15516643D01*
X11296786Y-15502357D01*
X11411071Y-15645214D02*
X11411071Y-15845214D01*
X11411071Y-15673786D02*
X11425357Y-15659500D01*
X11453928Y-15645214D01*
X11496786Y-15645214D01*
X11525357Y-15659500D01*
X11539643Y-15688071D01*
X11539643Y-15845214D01*
X11725357Y-15845214D02*
X11696786Y-15830929D01*
X11682500Y-15816643D01*
X11668214Y-15788071D01*
X11668214Y-15702357D01*
X11682500Y-15673786D01*
X11696786Y-15659500D01*
X11725357Y-15645214D01*
X11768214Y-15645214D01*
X11796786Y-15659500D01*
X11811071Y-15673786D01*
X11825357Y-15702357D01*
X11825357Y-15788071D01*
X11811071Y-15816643D01*
X11796786Y-15830929D01*
X11768214Y-15845214D01*
X11725357Y-15845214D01*
X11911071Y-15645214D02*
X12025357Y-15645214D01*
X11953928Y-15545214D02*
X11953928Y-15802357D01*
X11968214Y-15830929D01*
X11996786Y-15845214D01*
X12025357Y-15845214D01*
X12353928Y-15645214D02*
X12353928Y-15945214D01*
X12353928Y-15659500D02*
X12382500Y-15645214D01*
X12439643Y-15645214D01*
X12468214Y-15659500D01*
X12482500Y-15673786D01*
X12496786Y-15702357D01*
X12496786Y-15788071D01*
X12482500Y-15816643D01*
X12468214Y-15830929D01*
X12439643Y-15845214D01*
X12382500Y-15845214D01*
X12353928Y-15830929D01*
X12668214Y-15845214D02*
X12639643Y-15830929D01*
X12625357Y-15802357D01*
X12625357Y-15545214D01*
X12911071Y-15845214D02*
X12911071Y-15688071D01*
X12896786Y-15659500D01*
X12868214Y-15645214D01*
X12811071Y-15645214D01*
X12782500Y-15659500D01*
X12911071Y-15830929D02*
X12882500Y-15845214D01*
X12811071Y-15845214D01*
X12782500Y-15830929D01*
X12768214Y-15802357D01*
X12768214Y-15773786D01*
X12782500Y-15745214D01*
X12811071Y-15730929D01*
X12882500Y-15730929D01*
X12911071Y-15716643D01*
X13011071Y-15645214D02*
X13125357Y-15645214D01*
X13053928Y-15545214D02*
X13053928Y-15802357D01*
X13068214Y-15830929D01*
X13096786Y-15845214D01*
X13125357Y-15845214D01*
X13339643Y-15830929D02*
X13311071Y-15845214D01*
X13253928Y-15845214D01*
X13225357Y-15830929D01*
X13211071Y-15802357D01*
X13211071Y-15688071D01*
X13225357Y-15659500D01*
X13253928Y-15645214D01*
X13311071Y-15645214D01*
X13339643Y-15659500D01*
X13353928Y-15688071D01*
X13353928Y-15716643D01*
X13211071Y-15745214D01*
X13611071Y-15845214D02*
X13611071Y-15545214D01*
X13611071Y-15830929D02*
X13582500Y-15845214D01*
X13525357Y-15845214D01*
X13496786Y-15830929D01*
X13482500Y-15816643D01*
X13468214Y-15788071D01*
X13468214Y-15702357D01*
X13482500Y-15673786D01*
X13496786Y-15659500D01*
X13525357Y-15645214D01*
X13582500Y-15645214D01*
X13611071Y-15659500D01*
X13725357Y-15959500D02*
X13739643Y-15945214D01*
X13768214Y-15902357D01*
X13782500Y-15873786D01*
X13796786Y-15830929D01*
X13811071Y-15759500D01*
X13811071Y-15702357D01*
X13796786Y-15630929D01*
X13782500Y-15588071D01*
X13768214Y-15559500D01*
X13739643Y-15516643D01*
X13725357Y-15502357D01*
M02*
