M48
; DRILL file {KiCad 5.1.12-84ad8e8a86~92~ubuntu18.04.1} date lun 12 dic 2022 22:35:19 CET
; FORMAT={-:-/ absolute / metric / decimal}
; #@! TF.CreationDate,2022-12-12T22:35:19+01:00
; #@! TF.GenerationSoftware,Kicad,Pcbnew,5.1.12-84ad8e8a86~92~ubuntu18.04.1
; #@! TF.FileFunction,Plated,1,2,PTH
FMAT,2
METRIC
T1C0.350
T2C0.500
T3C0.600
T4C0.750
T5C0.800
T6C0.900
T7C0.920
T8C1.000
T9C1.016
T10C1.100
T11C1.199
T12C2.330
T13C3.200
%
G90
G05
T1
X19.225Y-69.85
X19.685Y-60.325
X20.32Y-62.23
X21.59Y-107.315
X22.86Y-59.69
X23.495Y-34.29
X23.495Y-64.385
X24.13Y-73.66
X24.765Y-41.91
X25.4Y-40.005
X26.67Y-106.045
X27.94Y-41.91
X28.575Y-38.735
X28.583Y-72.398
X28.809Y-53.367
X29.21Y-45.72
X29.269Y-55.88
X29.32Y-48.26
X29.845Y-50.8
X31.115Y-64.135
X31.75Y-62.865
X32.385Y-33.655
X32.385Y-75.565
X33.02Y-86.62
X34.29Y-80.645
X40.005Y-83.185
X40.005Y-103.13
X42.164Y-57.15
X43.18Y-26.67
X43.18Y-101.6
X47.25Y-91.7
X48.01Y-65.155
X48.01Y-80.01
X48.01Y-82.55
X48.26Y-34.29
X48.47Y-42.12
X50.165Y-38.1
X51.86Y-54.4
X55.22Y-66.04
X55.245Y-49.79
X55.63Y-50.825
X55.68Y-91.44
X55.88Y-34.29
X55.88Y-115.57
X58.293Y-38.862
X58.42Y-67.31
X58.955Y-123.39
X59.055Y-34.29
X59.055Y-101.6
X59.69Y-31.75
X59.69Y-102.235
X59.69Y-127.0
X60.96Y-114.935
X61.595Y-26.67
X62.865Y-30.48
X62.865Y-42.11
X62.865Y-56.515
X63.5Y-33.02
X63.5Y-64.77
X63.5Y-66.04
X63.5Y-71.12
X64.135Y-52.07
X64.135Y-61.595
X64.135Y-87.63
X64.143Y-101.592
X64.77Y-37.465
X64.77Y-116.84
X65.03Y-125.99
X65.405Y-135.89
X66.04Y-83.185
X66.675Y-47.19
X66.675Y-114.935
X67.05Y-128.53
X67.31Y-24.13
X67.31Y-31.75
X67.31Y-124.46
X67.51Y-55.88
X67.51Y-60.785
X67.945Y-40.64
X67.945Y-67.945
X67.945Y-76.2
X67.945Y-77.47
X67.945Y-86.36
X67.945Y-101.6
X67.945Y-132.08
X67.97Y-58.42
X68.0Y-18.79
X68.58Y-38.735
X68.58Y-114.935
X68.58Y-123.91
X69.85Y-61.88
X69.85Y-124.46
X70.485Y-71.755
X71.12Y-50.8
X71.12Y-60.96
X71.12Y-68.58
X71.12Y-72.39
X71.12Y-78.94
X71.755Y-43.18
X71.755Y-43.915
X71.755Y-48.26
X71.755Y-56.9
X71.755Y-77.47
X71.755Y-120.015
X72.39Y-33.02
X72.39Y-45.085
X72.39Y-125.53
X73.025Y-36.83
X73.025Y-49.73
X73.66Y-61.98
X74.362Y-114.935
X74.67Y-52.33
X74.937Y-133.993
X75.13Y-53.34
X75.13Y-61.595
X75.13Y-74.93
X75.13Y-88.9
X75.647Y-132.08
X75.802Y-83.01
X76.2Y-60.96
X76.2Y-121.92
X76.835Y-47.19
X76.835Y-83.61
X76.92Y-109.379
X78.486Y-61.087
X78.74Y-21.39
X78.74Y-44.25
X78.74Y-50.8
X78.86Y-123.705
X78.94Y-37.03
X78.94Y-76.2
X79.375Y-132.715
X79.45Y-38.1
X80.01Y-17.78
X80.01Y-40.64
X80.518Y-87.884
X80.645Y-36.11
X82.675Y-20.32
X82.675Y-38.61
X83.185Y-61.07
X83.185Y-82.55
X83.57Y-95.25
X83.62Y-73.66
X83.812Y-79.383
X83.82Y-33.02
X83.82Y-61.595
X83.82Y-125.53
X84.455Y-49.73
X84.471Y-31.75
X85.09Y-61.849
X86.36Y-41.19
X86.36Y-111.76
X86.848Y-65.84
X86.97Y-34.265
X86.995Y-29.21
X86.995Y-72.39
X86.998Y-23.93
X87.51Y-127.755
X87.63Y-35.56
X87.63Y-46.99
X87.63Y-81.915
X88.265Y-115.37
X88.9Y-87.63
X89.91Y-125.99
X90.17Y-46.79
X90.37Y-61.849
X90.37Y-80.01
X90.37Y-82.55
X90.37Y-124.46
X90.805Y-72.39
X90.805Y-74.93
X91.44Y-114.3
X91.44Y-123.825
X92.075Y-52.705
X92.075Y-59.69
X92.71Y-60.325
X92.71Y-99.06
X92.82Y-69.85
X93.345Y-59.69
X93.345Y-124.46
X93.98Y-32.385
X94.615Y-64.77
X94.615Y-67.31
X94.615Y-114.3
X95.05Y-72.39
X95.05Y-102.235
X95.05Y-118.31
X95.05Y-123.39
X95.39Y-62.725
X97.79Y-62.23
X97.99Y-92.71
X98.425Y-133.35
X99.06Y-82.55
X99.06Y-123.825
X99.695Y-57.82
X100.33Y-73.025
X100.965Y-49.53
X101.6Y-44.45
X101.6Y-57.82
X101.6Y-104.14
X101.6Y-132.08
X102.235Y-20.93
X102.235Y-41.91
X102.235Y-67.31
X102.87Y-39.37
X104.14Y-13.97
X104.14Y-113.665
X104.74Y-115.37
X105.104Y-26.089
X106.045Y-40.64
X106.045Y-69.85
X106.045Y-83.566
X106.48Y-45.72
X106.48Y-56.9
X106.68Y-127.55
X106.982Y-59.69
X107.055Y-66.3
X107.235Y-123.328
X107.95Y-37.03
X108.966Y-62.23
X109.22Y-83.82
X109.22Y-130.81
X109.423Y-48.387
X109.425Y-55.88
X109.745Y-57.82
X109.855Y-47.244
X110.03Y-52.27
X110.49Y-21.85
X110.49Y-50.165
X110.49Y-115.57
X113.03Y-118.745
X113.555Y-50.8
X113.557Y-49.045
X113.665Y-78.74
X113.665Y-120.65
X113.792Y-58.42
X114.3Y-60.325
X114.3Y-119.38
X114.427Y-38.1
X114.427Y-44.196
X116.586Y-62.484
X117.044Y-48.26
X117.504Y-46.736
X117.602Y-52.27
X117.729Y-50.25
X118.102Y-52.713
X118.11Y-45.17
X118.11Y-49.33
X118.11Y-60.96
X118.11Y-66.675
X118.11Y-77.47
X118.37Y-125.47
X120.015Y-44.25
X120.65Y-30.48
X120.65Y-128.27
X121.285Y-58.42
X121.285Y-63.5
X121.285Y-69.65
X125.73Y-45.085
X125.73Y-80.21
X129.54Y-78.74
X132.08Y-97.79
X132.723Y-121.928
X133.35Y-30.48
X133.985Y-128.27
X134.62Y-92.71
X135.89Y-54.81
X136.287Y-49.8
X136.747Y-53.34
X136.747Y-44.212
X137.16Y-75.692
X139.7Y-27.305
X140.327Y-25.408
X140.335Y-92.71
X140.335Y-118.745
X140.97Y-52.705
X140.97Y-114.3
X142.24Y-26.035
X142.24Y-30.48
X142.24Y-46.99
X143.51Y-38.56
X143.51Y-76.835
X143.51Y-122.555
X144.145Y-132.715
X146.05Y-27.94
X148.59Y-72.39
X149.66Y-31.623
X149.86Y-21.59
X151.13Y-76.2
X151.13Y-76.835
X152.4Y-24.269
X153.67Y-72.39
X154.178Y-33.528
X156.007Y-38.938
X160.02Y-104.14
X160.02Y-111.76
X160.02Y-119.38
X165.1Y-64.77
X167.843Y-38.938
X168.91Y-55.88
T2
X29.21Y-43.18
X40.788Y-31.733
X45.085Y-88.9
X46.944Y-110.444
X46.99Y-31.75
X46.99Y-72.39
X88.9Y-61.195
X93.98Y-85.35
X95.25Y-58.42
X113.43Y-55.88
X118.745Y-111.76
X139.7Y-105.41
X140.335Y-34.925
X142.24Y-103.505
X144.78Y-130.81
X153.182Y-58.273
X157.48Y-82.55
X160.655Y-92.71
X161.925Y-29.21
X161.925Y-35.56
X165.1Y-80.01
X167.005Y-85.725
X172.085Y-87.63
X184.754Y-97.79
T3
X73.66Y-107.72
X73.66Y-109.22
X78.74Y-107.72
X78.74Y-109.22
X133.35Y-86.36
X133.35Y-91.44
X134.85Y-86.36
X134.85Y-91.44
X155.575Y-73.66
X157.075Y-73.66
T4
X53.34Y-105.41
X54.61Y-105.41
X55.88Y-105.41
X59.69Y-105.41
X60.96Y-105.41
X62.23Y-105.41
X85.09Y-93.98
X86.36Y-93.98
X87.63Y-93.98
X143.51Y-80.01
X144.78Y-80.01
X146.05Y-80.01
X149.86Y-80.01
X151.13Y-80.01
X152.4Y-80.01
X156.21Y-80.01
X157.48Y-80.01
X158.75Y-80.01
T5
X34.29Y-15.24
X34.29Y-17.78
X34.29Y-138.43
X34.29Y-140.97
X38.1Y-20.32
X38.1Y-22.86
X38.1Y-25.4
X38.1Y-27.94
X38.1Y-30.48
X38.1Y-34.29
X38.1Y-36.83
X39.37Y-114.3
X39.37Y-116.84
X39.37Y-119.38
X39.37Y-121.92
X39.37Y-124.46
X39.37Y-127.0
X39.37Y-129.54
X39.37Y-132.08
X39.37Y-134.62
X41.91Y-17.78
X41.91Y-20.32
X41.91Y-22.86
X41.91Y-25.4
X41.91Y-27.94
X41.91Y-30.48
X41.91Y-33.02
X41.91Y-35.56
X41.91Y-38.1
X41.91Y-40.64
X41.91Y-43.18
X41.91Y-45.72
X41.91Y-48.26
X41.91Y-50.8
X41.91Y-53.34
X41.91Y-55.88
X41.91Y-58.42
X41.91Y-60.96
X41.91Y-63.5
X41.91Y-66.04
X41.91Y-72.39
X41.91Y-74.93
X41.91Y-77.47
X41.91Y-80.01
X41.91Y-82.55
X41.91Y-85.09
X41.91Y-87.63
X42.545Y-96.52
X42.585Y-92.71
X43.18Y-111.76
X43.18Y-114.3
X43.18Y-116.84
X43.18Y-119.38
X43.18Y-121.92
X43.18Y-124.46
X43.18Y-127.0
X43.18Y-129.54
X43.18Y-132.08
X43.18Y-134.62
X45.085Y-92.71
X45.085Y-96.52
X48.26Y-92.71
X48.26Y-95.25
X49.53Y-72.39
X49.53Y-74.93
X49.53Y-77.47
X49.53Y-80.01
X49.53Y-82.55
X49.53Y-85.09
X49.53Y-87.63
X50.8Y-111.76
X50.8Y-114.3
X50.8Y-116.84
X50.8Y-119.38
X50.8Y-121.92
X50.8Y-124.46
X50.8Y-127.0
X50.8Y-129.54
X50.8Y-132.08
X50.8Y-134.62
X53.34Y-71.12
X53.34Y-73.66
X53.34Y-76.2
X53.34Y-78.74
X53.34Y-81.28
X53.34Y-83.82
X53.34Y-86.36
X53.34Y-88.9
X54.61Y-97.79
X54.61Y-100.33
X54.737Y-111.76
X54.737Y-114.3
X54.737Y-116.84
X54.737Y-119.38
X54.737Y-121.92
X54.737Y-124.46
X54.737Y-127.0
X54.737Y-129.54
X54.737Y-132.08
X54.737Y-134.62
X57.15Y-17.78
X57.15Y-20.32
X57.15Y-22.86
X57.15Y-25.4
X57.15Y-27.94
X57.15Y-30.48
X57.15Y-33.02
X57.15Y-35.56
X57.15Y-38.1
X57.15Y-40.64
X57.15Y-43.18
X57.15Y-45.72
X57.15Y-48.26
X57.15Y-50.8
X57.15Y-53.34
X57.15Y-55.88
X57.15Y-58.42
X57.15Y-60.96
X57.15Y-63.5
X57.15Y-66.04
X60.96Y-71.12
X60.96Y-73.66
X60.96Y-76.2
X60.96Y-78.74
X60.96Y-81.28
X60.96Y-83.82
X60.96Y-86.36
X60.96Y-88.9
X60.96Y-97.79
X60.96Y-100.33
X62.357Y-111.76
X62.357Y-114.3
X62.357Y-116.84
X62.357Y-119.38
X62.357Y-121.92
X62.357Y-124.46
X62.357Y-127.0
X62.357Y-129.54
X62.357Y-132.08
X62.357Y-134.62
X66.04Y-17.78
X66.04Y-20.32
X66.04Y-22.86
X66.04Y-25.4
X66.04Y-27.94
X66.04Y-30.48
X66.04Y-33.02
X66.04Y-35.56
X66.04Y-40.64
X66.04Y-43.18
X66.04Y-45.72
X66.04Y-48.26
X66.04Y-50.8
X66.04Y-53.34
X66.04Y-55.88
X66.04Y-58.42
X66.04Y-64.77
X66.04Y-67.31
X66.04Y-69.85
X66.04Y-72.39
X66.04Y-74.93
X66.04Y-77.47
X66.04Y-80.01
X66.04Y-86.36
X66.04Y-88.9
X66.04Y-91.44
X66.04Y-93.98
X66.04Y-96.52
X66.04Y-99.06
X66.04Y-101.6
X66.04Y-104.14
X66.04Y-107.95
X66.04Y-116.84
X66.04Y-119.38
X66.04Y-121.92
X66.04Y-124.46
X66.04Y-127.0
X66.04Y-129.54
X66.04Y-132.08
X66.04Y-134.62
X68.58Y-107.95
X73.66Y-17.78
X73.66Y-20.32
X73.66Y-22.86
X73.66Y-25.4
X73.66Y-27.94
X73.66Y-30.48
X73.66Y-33.02
X73.66Y-35.56
X73.66Y-40.64
X73.66Y-43.18
X73.66Y-45.72
X73.66Y-48.26
X73.66Y-50.8
X73.66Y-53.34
X73.66Y-55.88
X73.66Y-58.42
X73.66Y-64.77
X73.66Y-67.31
X73.66Y-69.85
X73.66Y-72.39
X73.66Y-74.93
X73.66Y-77.47
X73.66Y-80.01
X73.66Y-86.36
X73.66Y-88.9
X73.66Y-91.44
X73.66Y-93.98
X73.66Y-96.52
X73.66Y-99.06
X73.66Y-101.6
X73.66Y-104.14
X73.66Y-116.84
X73.66Y-119.38
X73.66Y-121.92
X73.66Y-124.46
X73.66Y-127.0
X73.66Y-129.54
X73.66Y-132.08
X73.66Y-134.62
X77.47Y-17.78
X77.47Y-20.32
X77.47Y-22.86
X77.47Y-25.4
X77.47Y-27.94
X77.47Y-30.48
X77.47Y-33.02
X77.47Y-35.56
X77.47Y-40.64
X77.47Y-43.18
X77.47Y-45.72
X77.47Y-48.26
X77.47Y-50.8
X77.47Y-53.34
X77.47Y-55.88
X77.47Y-58.42
X77.47Y-64.77
X77.47Y-67.31
X77.47Y-69.85
X77.47Y-72.39
X77.47Y-74.93
X77.47Y-77.47
X77.47Y-80.01
X77.47Y-88.9
X77.47Y-91.44
X77.47Y-97.79
X77.47Y-100.33
X77.47Y-116.84
X77.47Y-119.38
X77.47Y-121.92
X77.47Y-124.46
X77.47Y-127.0
X77.47Y-129.54
X77.47Y-132.08
X77.47Y-134.62
X81.28Y-88.9
X81.28Y-93.9
X81.28Y-97.79
X81.28Y-100.33
X84.455Y-86.36
X84.455Y-88.9
X85.09Y-17.78
X85.09Y-20.32
X85.09Y-22.86
X85.09Y-25.4
X85.09Y-27.94
X85.09Y-30.48
X85.09Y-33.02
X85.09Y-35.56
X85.09Y-40.64
X85.09Y-43.18
X85.09Y-45.72
X85.09Y-48.26
X85.09Y-50.8
X85.09Y-53.34
X85.09Y-55.88
X85.09Y-58.42
X85.09Y-64.77
X85.09Y-67.31
X85.09Y-69.85
X85.09Y-72.39
X85.09Y-74.93
X85.09Y-77.47
X85.09Y-80.01
X85.09Y-116.84
X85.09Y-119.38
X85.09Y-121.92
X85.09Y-124.46
X85.09Y-127.0
X85.09Y-129.54
X85.09Y-132.08
X85.09Y-134.62
X87.63Y-86.36
X87.63Y-88.9
X88.9Y-25.4
X88.9Y-27.94
X88.9Y-30.48
X88.9Y-33.02
X88.9Y-35.56
X88.9Y-38.1
X88.9Y-40.64
X88.9Y-43.18
X88.9Y-45.72
X88.9Y-48.26
X88.9Y-50.8
X88.9Y-53.34
X88.9Y-55.88
X88.9Y-58.42
X88.9Y-64.77
X88.9Y-67.31
X88.9Y-69.85
X88.9Y-72.39
X88.9Y-74.93
X88.9Y-77.47
X88.9Y-80.01
X88.9Y-111.76
X88.9Y-114.3
X88.9Y-116.84
X88.9Y-119.38
X88.9Y-121.92
X88.9Y-124.46
X88.9Y-127.0
X88.9Y-129.54
X88.9Y-132.08
X88.9Y-134.62
X90.805Y-86.36
X90.805Y-88.9
X96.52Y-64.77
X96.52Y-67.31
X96.52Y-69.85
X96.52Y-72.39
X96.52Y-74.93
X96.52Y-77.47
X96.52Y-80.01
X96.52Y-111.76
X96.52Y-114.3
X96.52Y-116.84
X96.52Y-119.38
X96.52Y-121.92
X96.52Y-124.46
X96.52Y-127.0
X96.52Y-129.54
X96.52Y-132.08
X96.52Y-134.62
X100.33Y-111.76
X100.33Y-116.84
X100.33Y-119.38
X100.33Y-121.92
X100.33Y-124.46
X100.33Y-127.0
X100.33Y-129.54
X100.33Y-132.08
X100.33Y-134.62
X102.87Y-111.76
X104.14Y-25.4
X104.14Y-27.94
X104.14Y-30.48
X104.14Y-33.02
X104.14Y-35.56
X104.14Y-38.1
X104.14Y-40.64
X104.14Y-43.18
X104.14Y-45.72
X104.14Y-48.26
X104.14Y-50.8
X104.14Y-53.34
X104.14Y-55.88
X104.14Y-58.42
X107.95Y-17.78
X107.95Y-20.32
X107.95Y-22.86
X107.95Y-25.4
X107.95Y-27.94
X107.95Y-30.48
X107.95Y-33.02
X107.95Y-35.56
X107.95Y-40.64
X107.95Y-43.18
X107.95Y-45.72
X107.95Y-48.26
X107.95Y-50.8
X107.95Y-53.34
X107.95Y-55.88
X107.95Y-58.42
X107.95Y-64.77
X107.95Y-67.31
X107.95Y-69.85
X107.95Y-72.39
X107.95Y-74.93
X107.95Y-77.47
X107.95Y-80.01
X107.95Y-116.84
X107.95Y-119.38
X107.95Y-121.92
X107.95Y-124.46
X107.95Y-127.0
X107.95Y-129.54
X107.95Y-132.08
X107.95Y-134.62
X111.76Y-116.84
X111.76Y-119.38
X111.76Y-121.92
X111.76Y-124.46
X111.76Y-127.0
X111.76Y-129.54
X111.76Y-132.08
X111.76Y-134.62
X115.57Y-17.78
X115.57Y-20.32
X115.57Y-22.86
X115.57Y-25.4
X115.57Y-27.94
X115.57Y-30.48
X115.57Y-33.02
X115.57Y-35.56
X115.57Y-40.64
X115.57Y-43.18
X115.57Y-45.72
X115.57Y-48.26
X115.57Y-50.8
X115.57Y-53.34
X115.57Y-55.88
X115.57Y-58.42
X115.57Y-64.77
X115.57Y-67.31
X115.57Y-69.85
X115.57Y-72.39
X115.57Y-74.93
X115.57Y-77.47
X115.57Y-80.01
X118.745Y-91.44
X119.38Y-17.78
X119.38Y-20.32
X119.38Y-22.86
X119.38Y-25.4
X119.38Y-27.94
X119.38Y-30.48
X119.38Y-33.02
X119.38Y-35.56
X119.38Y-40.64
X119.38Y-43.18
X119.38Y-45.72
X119.38Y-48.26
X119.38Y-50.8
X119.38Y-53.34
X119.38Y-55.88
X119.38Y-58.42
X119.38Y-63.5
X119.38Y-66.04
X119.38Y-68.58
X119.38Y-71.12
X119.38Y-73.66
X119.38Y-76.2
X119.38Y-78.74
X119.38Y-81.28
X119.38Y-116.84
X119.38Y-119.38
X119.38Y-121.92
X119.38Y-124.46
X119.38Y-127.0
X119.38Y-129.54
X119.38Y-132.08
X119.38Y-134.62
X121.285Y-91.44
X123.19Y-111.76
X123.19Y-114.3
X123.19Y-116.84
X123.19Y-119.38
X123.19Y-121.92
X123.19Y-124.46
X123.19Y-127.0
X123.19Y-129.54
X123.19Y-132.08
X123.19Y-134.62
X125.73Y-86.36
X125.73Y-91.44
X127.0Y-17.78
X127.0Y-20.32
X127.0Y-22.86
X127.0Y-25.4
X127.0Y-27.94
X127.0Y-30.48
X127.0Y-33.02
X127.0Y-35.56
X127.0Y-40.64
X127.0Y-43.18
X127.0Y-45.72
X127.0Y-48.26
X127.0Y-50.8
X127.0Y-53.34
X127.0Y-55.88
X127.0Y-58.42
X127.0Y-63.5
X127.0Y-66.04
X127.0Y-68.58
X127.0Y-71.12
X127.0Y-73.66
X127.0Y-76.2
X127.0Y-78.74
X127.0Y-81.28
X128.27Y-86.36
X128.27Y-91.44
X130.81Y-17.78
X130.81Y-20.32
X130.81Y-22.86
X130.81Y-25.4
X130.81Y-27.94
X130.81Y-30.48
X130.81Y-33.02
X130.81Y-35.56
X130.81Y-40.64
X130.81Y-43.18
X130.81Y-45.72
X130.81Y-48.26
X130.81Y-50.8
X130.81Y-53.34
X130.81Y-55.88
X130.81Y-58.42
X130.81Y-63.5
X130.81Y-66.04
X130.81Y-68.58
X130.81Y-71.12
X130.81Y-73.66
X130.81Y-76.2
X130.81Y-78.74
X130.81Y-81.28
X130.81Y-111.76
X130.81Y-114.3
X130.81Y-116.84
X130.81Y-119.38
X130.81Y-121.92
X130.81Y-124.46
X130.81Y-127.0
X130.81Y-129.54
X130.81Y-132.08
X130.81Y-134.62
X134.62Y-116.84
X134.62Y-119.38
X134.62Y-121.92
X134.62Y-124.46
X134.62Y-127.0
X134.62Y-129.54
X134.62Y-132.08
X134.62Y-134.62
X138.43Y-17.78
X138.43Y-20.32
X138.43Y-22.86
X138.43Y-25.4
X138.43Y-27.94
X138.43Y-30.48
X138.43Y-33.02
X138.43Y-35.56
X138.43Y-40.64
X138.43Y-43.18
X138.43Y-45.72
X138.43Y-48.26
X138.43Y-50.8
X138.43Y-53.34
X138.43Y-55.88
X138.43Y-58.42
X138.43Y-63.5
X138.43Y-66.04
X138.43Y-68.58
X138.43Y-71.12
X138.43Y-73.66
X138.43Y-76.2
X138.43Y-78.74
X138.43Y-81.28
X141.685Y-85.09
X141.685Y-88.9
X141.685Y-92.71
X142.24Y-116.84
X142.24Y-119.38
X142.24Y-121.92
X142.24Y-124.46
X142.24Y-127.0
X142.24Y-129.54
X142.24Y-132.08
X142.24Y-134.62
X143.51Y-19.05
X143.51Y-34.29
X143.51Y-41.91
X143.51Y-44.45
X143.51Y-46.99
X143.51Y-49.53
X143.51Y-52.07
X143.51Y-54.61
X143.51Y-57.15
X143.51Y-63.5
X143.51Y-68.58
X143.51Y-73.66
X146.05Y-63.5
X146.05Y-68.58
X146.05Y-73.66
X146.05Y-102.87
X146.05Y-105.41
X146.05Y-107.95
X146.05Y-110.49
X146.05Y-113.03
X146.05Y-115.57
X146.05Y-118.11
X146.685Y-85.09
X146.685Y-88.9
X146.685Y-92.71
X147.32Y-97.79
X149.86Y-63.5
X149.86Y-68.58
X149.86Y-73.66
X150.495Y-124.46
X150.495Y-129.46
X151.13Y-19.05
X151.13Y-34.29
X151.13Y-41.91
X151.13Y-44.45
X151.13Y-46.99
X151.13Y-49.53
X151.13Y-52.07
X151.13Y-54.61
X151.13Y-57.15
X152.2Y-97.79
X152.4Y-63.5
X152.4Y-68.58
X152.4Y-73.66
X153.67Y-102.87
X153.67Y-105.41
X153.67Y-107.95
X153.67Y-110.49
X153.67Y-113.03
X153.67Y-115.57
X153.67Y-118.11
X156.21Y-19.05
X156.21Y-21.59
X156.21Y-24.13
X156.21Y-26.67
X156.21Y-29.21
X156.21Y-31.75
X156.21Y-34.29
X156.21Y-41.91
X156.21Y-44.45
X156.21Y-46.99
X156.21Y-49.53
X156.21Y-52.07
X156.21Y-54.61
X156.21Y-57.15
X157.48Y-100.33
X157.48Y-102.87
X157.48Y-105.41
X157.48Y-107.95
X157.48Y-110.49
X157.48Y-113.03
X157.48Y-115.57
X157.48Y-118.11
X157.48Y-120.65
X157.48Y-123.19
X157.52Y-97.028
X157.52Y-129.54
X160.02Y-97.028
X160.02Y-129.54
X162.56Y-91.44
X162.56Y-93.98
X163.83Y-19.05
X163.83Y-21.59
X163.83Y-24.13
X163.83Y-26.67
X163.83Y-29.21
X163.83Y-31.75
X163.83Y-34.29
X163.83Y-41.91
X163.83Y-44.45
X163.83Y-46.99
X163.83Y-49.53
X163.83Y-52.07
X163.83Y-54.61
X163.83Y-57.15
X165.1Y-100.33
X165.1Y-102.87
X165.1Y-105.41
X165.1Y-107.95
X165.1Y-110.49
X165.1Y-113.03
X165.1Y-115.57
X165.1Y-118.11
X165.1Y-120.65
X165.1Y-123.19
X165.735Y-88.98
X165.735Y-93.98
X167.64Y-31.75
X167.64Y-34.29
X167.64Y-54.61
X167.64Y-57.15
X168.91Y-86.36
X168.91Y-90.17
X168.91Y-93.98
X168.91Y-97.79
X168.91Y-101.6
X168.91Y-105.41
X168.91Y-109.22
X168.91Y-113.03
X168.91Y-116.84
X168.91Y-120.65
X171.45Y-86.36
X171.45Y-90.17
X171.45Y-93.98
X171.45Y-97.79
X171.45Y-101.6
X171.45Y-105.41
X171.45Y-109.22
X171.45Y-113.03
X171.45Y-116.84
X171.45Y-120.65
T6
X16.51Y-16.51
X16.51Y-19.05
X16.51Y-137.16
X16.51Y-139.7
X106.807Y-85.09
X106.807Y-99.06
X109.307Y-90.09
X109.307Y-104.06
X111.807Y-85.09
X111.807Y-99.06
X167.64Y-22.86
X170.14Y-27.86
X172.64Y-22.86
T7
X175.26Y-129.54
X175.26Y-132.04
X177.26Y-129.54
X177.26Y-132.04
T8
X21.59Y-40.64
X21.59Y-43.18
X21.59Y-45.72
X21.59Y-48.26
X21.59Y-50.8
X21.59Y-53.34
X21.59Y-55.88
X21.59Y-58.42
X21.59Y-60.96
X21.59Y-63.5
X21.59Y-66.04
X21.59Y-68.58
X21.59Y-71.12
X21.59Y-73.66
X21.59Y-76.2
X21.59Y-78.74
X21.59Y-81.28
X21.59Y-83.82
X21.59Y-111.76
X21.59Y-114.3
X21.59Y-116.84
X21.59Y-119.38
X21.59Y-121.92
X21.59Y-124.46
X21.59Y-127.0
X21.59Y-129.54
X24.13Y-111.76
X24.13Y-114.3
X24.13Y-116.84
X24.13Y-119.38
X24.13Y-121.92
X24.13Y-124.46
X24.13Y-127.0
X24.13Y-129.54
X26.67Y-40.64
X26.67Y-43.18
X26.67Y-45.72
X26.67Y-48.26
X26.67Y-50.8
X26.67Y-53.34
X26.67Y-55.88
X26.67Y-58.42
X26.67Y-60.96
X26.67Y-63.5
X26.67Y-66.04
X26.67Y-68.58
X26.67Y-71.12
X26.67Y-73.66
X26.67Y-76.2
X26.67Y-78.74
X26.67Y-81.28
X26.67Y-83.82
X60.96Y-17.78
X60.96Y-20.32
X60.96Y-25.4
X60.96Y-27.94
X60.96Y-30.48
X60.96Y-33.02
X60.96Y-35.56
X60.96Y-38.1
X60.96Y-40.64
X60.96Y-43.18
X60.96Y-45.72
X60.96Y-48.26
X60.96Y-50.8
X60.96Y-53.34
X60.96Y-55.88
X60.96Y-58.42
X60.96Y-60.96
X60.96Y-63.5
X60.96Y-66.04
X85.09Y-100.33
X85.09Y-104.14
X87.63Y-100.33
X87.63Y-104.14
X92.71Y-18.415
X95.25Y-18.415
X97.79Y-18.415
X99.06Y-87.65
X99.06Y-95.25
X100.33Y-18.415
X104.14Y-80.01
X107.95Y-111.76
X110.49Y-111.76
X160.02Y-136.525
X162.56Y-85.725
X162.56Y-136.525
X165.1Y-85.725
T9
X30.48Y-111.76
X30.48Y-114.3
X30.48Y-116.84
X30.48Y-119.38
X30.48Y-121.92
X30.48Y-124.46
X30.48Y-127.0
X30.48Y-129.54
X33.02Y-111.76
X33.02Y-114.3
X33.02Y-116.84
X33.02Y-119.38
X33.02Y-121.92
X33.02Y-124.46
X33.02Y-127.0
X33.02Y-129.54
T10
X15.09Y-22.17
X15.09Y-26.67
X21.59Y-22.17
X21.59Y-26.67
X25.25Y-22.17
X25.25Y-26.67
X31.75Y-22.17
X31.75Y-26.67
T11
X175.6Y-71.12
X175.6Y-74.93
X175.6Y-78.74
X175.6Y-82.55
X175.6Y-86.36
X175.6Y-90.17
X175.6Y-93.98
X175.6Y-97.79
X175.6Y-101.6
X175.6Y-105.41
X175.6Y-109.22
X180.68Y-73.025
X180.68Y-76.835
X180.68Y-80.645
X180.68Y-84.455
X180.68Y-88.265
X180.68Y-92.075
X180.68Y-95.885
X180.68Y-99.695
X180.68Y-103.505
X180.68Y-107.315
T12
X179.97Y-124.77
X179.97Y-136.81
T13
X26.67Y-16.51
X26.67Y-139.7
X168.91Y-16.51
X168.91Y-139.7
T11
X178.054Y-26.92G85X178.054Y-26.42
G05
X178.054Y-40.89G85X178.054Y-40.39
G05
X178.054Y-54.86G85X178.054Y-54.36
G05
X178.054Y-80.133G85X178.054Y-79.633
G05
X178.054Y-94.103G85X178.054Y-93.603
G05
X178.054Y-108.073G85X178.054Y-107.573
G05
X185.514Y-26.67G85X186.514Y-26.67
G05
X185.514Y-40.64G85X186.514Y-40.64
G05
X185.514Y-54.61G85X186.514Y-54.61
G05
X185.514Y-79.883G85X186.514Y-79.883
G05
X185.514Y-93.853G85X186.514Y-93.853
G05
X185.514Y-107.823G85X186.514Y-107.823
G05
T0
M30
