G04 #@! TF.GenerationSoftware,KiCad,Pcbnew,5.1.12-84ad8e8a86~92~ubuntu18.04.1*
G04 #@! TF.CreationDate,2022-12-12T22:34:18+01:00*
G04 #@! TF.ProjectId,full,66756c6c-2e6b-4696-9361-645f70636258,rev?*
G04 #@! TF.SameCoordinates,Original*
G04 #@! TF.FileFunction,Soldermask,Top*
G04 #@! TF.FilePolarity,Negative*
%FSLAX46Y46*%
G04 Gerber Fmt 4.6, Leading zero omitted, Abs format (unit mm)*
G04 Created by KiCad (PCBNEW 5.1.12-84ad8e8a86~92~ubuntu18.04.1) date 2022-12-12 22:34:18*
%MOMM*%
%LPD*%
G01*
G04 APERTURE LIST*
%ADD10C,1.902000*%
%ADD11O,1.702000X1.702000*%
%ADD12C,1.702000*%
%ADD13O,3.302000X2.202000*%
%ADD14O,3.100980X2.100980*%
%ADD15O,2.100980X2.600980*%
%ADD16O,4.202000X3.202000*%
%ADD17C,2.100980*%
%ADD18O,1.802000X1.802000*%
%ADD19C,1.602000*%
%ADD20C,0.100000*%
%ADD21C,5.702000*%
%ADD22C,1.722000*%
%ADD23C,1.302000*%
%ADD24C,2.102000*%
%ADD25O,1.829200X1.829200*%
%ADD26C,3.602000*%
%ADD27C,1.802000*%
%ADD28O,1.152000X1.602000*%
G04 APERTURE END LIST*
D10*
X16510000Y-16510000D03*
G36*
G01*
X17410000Y-20001000D02*
X15610000Y-20001000D01*
G75*
G02*
X15559000Y-19950000I0J51000D01*
G01*
X15559000Y-18150000D01*
G75*
G02*
X15610000Y-18099000I51000J0D01*
G01*
X17410000Y-18099000D01*
G75*
G02*
X17461000Y-18150000I0J-51000D01*
G01*
X17461000Y-19950000D01*
G75*
G02*
X17410000Y-20001000I-51000J0D01*
G01*
G37*
X16510000Y-139700000D03*
G36*
G01*
X15610000Y-136209000D02*
X17410000Y-136209000D01*
G75*
G02*
X17461000Y-136260000I0J-51000D01*
G01*
X17461000Y-138060000D01*
G75*
G02*
X17410000Y-138111000I-51000J0D01*
G01*
X15610000Y-138111000D01*
G75*
G02*
X15559000Y-138060000I0J51000D01*
G01*
X15559000Y-136260000D01*
G75*
G02*
X15610000Y-136209000I51000J0D01*
G01*
G37*
D11*
X168910000Y-86360000D03*
D12*
X171450000Y-86360000D03*
D11*
X81280000Y-97790000D03*
D12*
X81280000Y-100330000D03*
D13*
X182626000Y-110363000D03*
X182626000Y-69723000D03*
D14*
X186014360Y-107823000D03*
D15*
X178054000Y-107823000D03*
D14*
X186014360Y-93853000D03*
D15*
X178054000Y-93853000D03*
D14*
X186014360Y-79883000D03*
D15*
X178054000Y-79883000D03*
D13*
X182626000Y-57150000D03*
X182626000Y-16510000D03*
D14*
X186014360Y-54610000D03*
D15*
X178054000Y-54610000D03*
D14*
X186014360Y-40640000D03*
D15*
X178054000Y-40640000D03*
D14*
X186014360Y-26670000D03*
D15*
X178054000Y-26670000D03*
D16*
X182679340Y-116669820D03*
X182679340Y-63670180D03*
D17*
X175600360Y-109220000D03*
X180680360Y-107315000D03*
X175600360Y-105410000D03*
X180680360Y-103505000D03*
X175600360Y-101600000D03*
X180680360Y-99695000D03*
X175600360Y-97790000D03*
X180680360Y-95885000D03*
X175600360Y-93980000D03*
X180680360Y-92075000D03*
X175600360Y-90170000D03*
X180680360Y-88265000D03*
X175600360Y-86360000D03*
X180680360Y-84455000D03*
X175600360Y-82550000D03*
X180680360Y-80645000D03*
X175600360Y-78740000D03*
X180680360Y-76835000D03*
X175600360Y-74930000D03*
X180680360Y-73025000D03*
X175600360Y-71120000D03*
D18*
X165100000Y-85725000D03*
G36*
G01*
X163410000Y-86626000D02*
X161710000Y-86626000D01*
G75*
G02*
X161659000Y-86575000I0J51000D01*
G01*
X161659000Y-84875000D01*
G75*
G02*
X161710000Y-84824000I51000J0D01*
G01*
X163410000Y-84824000D01*
G75*
G02*
X163461000Y-84875000I0J-51000D01*
G01*
X163461000Y-86575000D01*
G75*
G02*
X163410000Y-86626000I-51000J0D01*
G01*
G37*
D12*
X42585000Y-92710000D03*
X45085000Y-92710000D03*
X157520000Y-97028000D03*
X160020000Y-97028000D03*
X165735000Y-88980000D03*
X165735000Y-93980000D03*
D19*
X152200000Y-97790000D03*
X147320000Y-97790000D03*
G36*
G01*
X150670500Y-85326000D02*
X150319500Y-85326000D01*
G75*
G02*
X150144000Y-85150500I0J175500D01*
G01*
X150144000Y-83349500D01*
G75*
G02*
X150319500Y-83174000I175500J0D01*
G01*
X150670500Y-83174000D01*
G75*
G02*
X150846000Y-83349500I0J-175500D01*
G01*
X150846000Y-85150500D01*
G75*
G02*
X150670500Y-85326000I-175500J0D01*
G01*
G37*
G36*
G01*
X151940500Y-85326000D02*
X151589500Y-85326000D01*
G75*
G02*
X151414000Y-85150500I0J175500D01*
G01*
X151414000Y-83349500D01*
G75*
G02*
X151589500Y-83174000I175500J0D01*
G01*
X151940500Y-83174000D01*
G75*
G02*
X152116000Y-83349500I0J-175500D01*
G01*
X152116000Y-85150500D01*
G75*
G02*
X151940500Y-85326000I-175500J0D01*
G01*
G37*
G36*
G01*
X153210500Y-85326000D02*
X152859500Y-85326000D01*
G75*
G02*
X152684000Y-85150500I0J175500D01*
G01*
X152684000Y-83349500D01*
G75*
G02*
X152859500Y-83174000I175500J0D01*
G01*
X153210500Y-83174000D01*
G75*
G02*
X153386000Y-83349500I0J-175500D01*
G01*
X153386000Y-85150500D01*
G75*
G02*
X153210500Y-85326000I-175500J0D01*
G01*
G37*
G36*
G01*
X154480500Y-85326000D02*
X154129500Y-85326000D01*
G75*
G02*
X153954000Y-85150500I0J175500D01*
G01*
X153954000Y-83349500D01*
G75*
G02*
X154129500Y-83174000I175500J0D01*
G01*
X154480500Y-83174000D01*
G75*
G02*
X154656000Y-83349500I0J-175500D01*
G01*
X154656000Y-85150500D01*
G75*
G02*
X154480500Y-85326000I-175500J0D01*
G01*
G37*
G36*
G01*
X155750500Y-85326000D02*
X155399500Y-85326000D01*
G75*
G02*
X155224000Y-85150500I0J175500D01*
G01*
X155224000Y-83349500D01*
G75*
G02*
X155399500Y-83174000I175500J0D01*
G01*
X155750500Y-83174000D01*
G75*
G02*
X155926000Y-83349500I0J-175500D01*
G01*
X155926000Y-85150500D01*
G75*
G02*
X155750500Y-85326000I-175500J0D01*
G01*
G37*
G36*
G01*
X157020500Y-85326000D02*
X156669500Y-85326000D01*
G75*
G02*
X156494000Y-85150500I0J175500D01*
G01*
X156494000Y-83349500D01*
G75*
G02*
X156669500Y-83174000I175500J0D01*
G01*
X157020500Y-83174000D01*
G75*
G02*
X157196000Y-83349500I0J-175500D01*
G01*
X157196000Y-85150500D01*
G75*
G02*
X157020500Y-85326000I-175500J0D01*
G01*
G37*
G36*
G01*
X158290500Y-85326000D02*
X157939500Y-85326000D01*
G75*
G02*
X157764000Y-85150500I0J175500D01*
G01*
X157764000Y-83349500D01*
G75*
G02*
X157939500Y-83174000I175500J0D01*
G01*
X158290500Y-83174000D01*
G75*
G02*
X158466000Y-83349500I0J-175500D01*
G01*
X158466000Y-85150500D01*
G75*
G02*
X158290500Y-85326000I-175500J0D01*
G01*
G37*
G36*
G01*
X159560500Y-85326000D02*
X159209500Y-85326000D01*
G75*
G02*
X159034000Y-85150500I0J175500D01*
G01*
X159034000Y-83349500D01*
G75*
G02*
X159209500Y-83174000I175500J0D01*
G01*
X159560500Y-83174000D01*
G75*
G02*
X159736000Y-83349500I0J-175500D01*
G01*
X159736000Y-85150500D01*
G75*
G02*
X159560500Y-85326000I-175500J0D01*
G01*
G37*
G36*
G01*
X159560500Y-94626000D02*
X159209500Y-94626000D01*
G75*
G02*
X159034000Y-94450500I0J175500D01*
G01*
X159034000Y-92649500D01*
G75*
G02*
X159209500Y-92474000I175500J0D01*
G01*
X159560500Y-92474000D01*
G75*
G02*
X159736000Y-92649500I0J-175500D01*
G01*
X159736000Y-94450500D01*
G75*
G02*
X159560500Y-94626000I-175500J0D01*
G01*
G37*
G36*
G01*
X158290500Y-94626000D02*
X157939500Y-94626000D01*
G75*
G02*
X157764000Y-94450500I0J175500D01*
G01*
X157764000Y-92649500D01*
G75*
G02*
X157939500Y-92474000I175500J0D01*
G01*
X158290500Y-92474000D01*
G75*
G02*
X158466000Y-92649500I0J-175500D01*
G01*
X158466000Y-94450500D01*
G75*
G02*
X158290500Y-94626000I-175500J0D01*
G01*
G37*
G36*
G01*
X157020500Y-94626000D02*
X156669500Y-94626000D01*
G75*
G02*
X156494000Y-94450500I0J175500D01*
G01*
X156494000Y-92649500D01*
G75*
G02*
X156669500Y-92474000I175500J0D01*
G01*
X157020500Y-92474000D01*
G75*
G02*
X157196000Y-92649500I0J-175500D01*
G01*
X157196000Y-94450500D01*
G75*
G02*
X157020500Y-94626000I-175500J0D01*
G01*
G37*
G36*
G01*
X155750500Y-94626000D02*
X155399500Y-94626000D01*
G75*
G02*
X155224000Y-94450500I0J175500D01*
G01*
X155224000Y-92649500D01*
G75*
G02*
X155399500Y-92474000I175500J0D01*
G01*
X155750500Y-92474000D01*
G75*
G02*
X155926000Y-92649500I0J-175500D01*
G01*
X155926000Y-94450500D01*
G75*
G02*
X155750500Y-94626000I-175500J0D01*
G01*
G37*
G36*
G01*
X154480500Y-94626000D02*
X154129500Y-94626000D01*
G75*
G02*
X153954000Y-94450500I0J175500D01*
G01*
X153954000Y-92649500D01*
G75*
G02*
X154129500Y-92474000I175500J0D01*
G01*
X154480500Y-92474000D01*
G75*
G02*
X154656000Y-92649500I0J-175500D01*
G01*
X154656000Y-94450500D01*
G75*
G02*
X154480500Y-94626000I-175500J0D01*
G01*
G37*
G36*
G01*
X153210500Y-94626000D02*
X152859500Y-94626000D01*
G75*
G02*
X152684000Y-94450500I0J175500D01*
G01*
X152684000Y-92649500D01*
G75*
G02*
X152859500Y-92474000I175500J0D01*
G01*
X153210500Y-92474000D01*
G75*
G02*
X153386000Y-92649500I0J-175500D01*
G01*
X153386000Y-94450500D01*
G75*
G02*
X153210500Y-94626000I-175500J0D01*
G01*
G37*
G36*
G01*
X151940500Y-94626000D02*
X151589500Y-94626000D01*
G75*
G02*
X151414000Y-94450500I0J175500D01*
G01*
X151414000Y-92649500D01*
G75*
G02*
X151589500Y-92474000I175500J0D01*
G01*
X151940500Y-92474000D01*
G75*
G02*
X152116000Y-92649500I0J-175500D01*
G01*
X152116000Y-94450500D01*
G75*
G02*
X151940500Y-94626000I-175500J0D01*
G01*
G37*
G36*
G01*
X150670500Y-94626000D02*
X150319500Y-94626000D01*
G75*
G02*
X150144000Y-94450500I0J175500D01*
G01*
X150144000Y-92649500D01*
G75*
G02*
X150319500Y-92474000I175500J0D01*
G01*
X150670500Y-92474000D01*
G75*
G02*
X150846000Y-92649500I0J-175500D01*
G01*
X150846000Y-94450500D01*
G75*
G02*
X150670500Y-94626000I-175500J0D01*
G01*
G37*
D11*
X162560000Y-93980000D03*
D12*
X162560000Y-91440000D03*
D20*
G36*
X141439980Y-98530050D02*
G01*
X141442882Y-98520483D01*
X141447595Y-98511666D01*
X141453938Y-98503938D01*
X141461666Y-98497595D01*
X141470483Y-98492882D01*
X141480050Y-98489980D01*
X141490000Y-98489000D01*
X142990000Y-98489000D01*
X142999950Y-98489980D01*
X143009517Y-98492882D01*
X143018334Y-98497595D01*
X143026062Y-98503938D01*
X143032405Y-98511666D01*
X143037118Y-98520483D01*
X143040020Y-98530050D01*
X143041000Y-98540000D01*
X143041000Y-99090000D01*
X143040398Y-99096112D01*
X143040398Y-99114534D01*
X143040152Y-99119533D01*
X143035342Y-99168364D01*
X143034608Y-99173314D01*
X143025036Y-99221439D01*
X143023820Y-99226295D01*
X143009576Y-99273250D01*
X143007890Y-99277961D01*
X142989113Y-99323294D01*
X142986973Y-99327820D01*
X142963842Y-99371093D01*
X142961269Y-99375384D01*
X142934009Y-99416183D01*
X142931027Y-99420204D01*
X142899899Y-99458133D01*
X142896538Y-99461841D01*
X142861841Y-99496538D01*
X142858133Y-99499899D01*
X142820204Y-99531027D01*
X142816183Y-99534009D01*
X142775384Y-99561269D01*
X142771093Y-99563842D01*
X142727820Y-99586973D01*
X142723294Y-99589113D01*
X142677961Y-99607890D01*
X142673250Y-99609576D01*
X142626295Y-99623820D01*
X142621439Y-99625036D01*
X142573314Y-99634608D01*
X142568364Y-99635342D01*
X142519533Y-99640152D01*
X142514534Y-99640398D01*
X142496112Y-99640398D01*
X142490000Y-99641000D01*
X141990000Y-99641000D01*
X141983888Y-99640398D01*
X141965466Y-99640398D01*
X141960467Y-99640152D01*
X141911636Y-99635342D01*
X141906686Y-99634608D01*
X141858561Y-99625036D01*
X141853705Y-99623820D01*
X141806750Y-99609576D01*
X141802039Y-99607890D01*
X141756706Y-99589113D01*
X141752180Y-99586973D01*
X141708907Y-99563842D01*
X141704616Y-99561269D01*
X141663817Y-99534009D01*
X141659796Y-99531027D01*
X141621867Y-99499899D01*
X141618159Y-99496538D01*
X141583462Y-99461841D01*
X141580101Y-99458133D01*
X141548973Y-99420204D01*
X141545991Y-99416183D01*
X141518731Y-99375384D01*
X141516158Y-99371093D01*
X141493027Y-99327820D01*
X141490887Y-99323294D01*
X141472110Y-99277961D01*
X141470424Y-99273250D01*
X141456180Y-99226295D01*
X141454964Y-99221439D01*
X141445392Y-99173314D01*
X141444658Y-99168364D01*
X141439848Y-99119533D01*
X141439602Y-99114534D01*
X141439602Y-99096112D01*
X141439000Y-99090000D01*
X141439000Y-98540000D01*
X141439980Y-98530050D01*
G37*
G36*
G01*
X142990000Y-98341000D02*
X141490000Y-98341000D01*
G75*
G02*
X141439000Y-98290000I0J51000D01*
G01*
X141439000Y-97290000D01*
G75*
G02*
X141490000Y-97239000I51000J0D01*
G01*
X142990000Y-97239000D01*
G75*
G02*
X143041000Y-97290000I0J-51000D01*
G01*
X143041000Y-98290000D01*
G75*
G02*
X142990000Y-98341000I-51000J0D01*
G01*
G37*
G36*
X141439602Y-96483888D02*
G01*
X141439602Y-96465466D01*
X141439848Y-96460467D01*
X141444658Y-96411636D01*
X141445392Y-96406686D01*
X141454964Y-96358561D01*
X141456180Y-96353705D01*
X141470424Y-96306750D01*
X141472110Y-96302039D01*
X141490887Y-96256706D01*
X141493027Y-96252180D01*
X141516158Y-96208907D01*
X141518731Y-96204616D01*
X141545991Y-96163817D01*
X141548973Y-96159796D01*
X141580101Y-96121867D01*
X141583462Y-96118159D01*
X141618159Y-96083462D01*
X141621867Y-96080101D01*
X141659796Y-96048973D01*
X141663817Y-96045991D01*
X141704616Y-96018731D01*
X141708907Y-96016158D01*
X141752180Y-95993027D01*
X141756706Y-95990887D01*
X141802039Y-95972110D01*
X141806750Y-95970424D01*
X141853705Y-95956180D01*
X141858561Y-95954964D01*
X141906686Y-95945392D01*
X141911636Y-95944658D01*
X141960467Y-95939848D01*
X141965466Y-95939602D01*
X141983888Y-95939602D01*
X141990000Y-95939000D01*
X142490000Y-95939000D01*
X142496112Y-95939602D01*
X142514534Y-95939602D01*
X142519533Y-95939848D01*
X142568364Y-95944658D01*
X142573314Y-95945392D01*
X142621439Y-95954964D01*
X142626295Y-95956180D01*
X142673250Y-95970424D01*
X142677961Y-95972110D01*
X142723294Y-95990887D01*
X142727820Y-95993027D01*
X142771093Y-96016158D01*
X142775384Y-96018731D01*
X142816183Y-96045991D01*
X142820204Y-96048973D01*
X142858133Y-96080101D01*
X142861841Y-96083462D01*
X142896538Y-96118159D01*
X142899899Y-96121867D01*
X142931027Y-96159796D01*
X142934009Y-96163817D01*
X142961269Y-96204616D01*
X142963842Y-96208907D01*
X142986973Y-96252180D01*
X142989113Y-96256706D01*
X143007890Y-96302039D01*
X143009576Y-96306750D01*
X143023820Y-96353705D01*
X143025036Y-96358561D01*
X143034608Y-96406686D01*
X143035342Y-96411636D01*
X143040152Y-96460467D01*
X143040398Y-96465466D01*
X143040398Y-96483888D01*
X143041000Y-96490000D01*
X143041000Y-97040000D01*
X143040020Y-97049950D01*
X143037118Y-97059517D01*
X143032405Y-97068334D01*
X143026062Y-97076062D01*
X143018334Y-97082405D01*
X143009517Y-97087118D01*
X142999950Y-97090020D01*
X142990000Y-97091000D01*
X141490000Y-97091000D01*
X141480050Y-97090020D01*
X141470483Y-97087118D01*
X141461666Y-97082405D01*
X141453938Y-97076062D01*
X141447595Y-97068334D01*
X141442882Y-97059517D01*
X141439980Y-97049950D01*
X141439000Y-97040000D01*
X141439000Y-96490000D01*
X141439602Y-96483888D01*
G37*
D12*
X141685000Y-92710000D03*
X146685000Y-92710000D03*
X141685000Y-88900000D03*
X146685000Y-88900000D03*
X141685000Y-85090000D03*
X146685000Y-85090000D03*
D11*
X102870000Y-111760000D03*
D12*
X100330000Y-111760000D03*
D18*
X110490000Y-111760000D03*
G36*
G01*
X108800000Y-112661000D02*
X107100000Y-112661000D01*
G75*
G02*
X107049000Y-112610000I0J51000D01*
G01*
X107049000Y-110910000D01*
G75*
G02*
X107100000Y-110859000I51000J0D01*
G01*
X108800000Y-110859000D01*
G75*
G02*
X108851000Y-110910000I0J-51000D01*
G01*
X108851000Y-112610000D01*
G75*
G02*
X108800000Y-112661000I-51000J0D01*
G01*
G37*
D20*
G36*
X37458888Y-16040398D02*
G01*
X37440466Y-16040398D01*
X37435467Y-16040152D01*
X37386636Y-16035342D01*
X37381686Y-16034608D01*
X37333561Y-16025036D01*
X37328705Y-16023820D01*
X37281750Y-16009576D01*
X37277039Y-16007890D01*
X37231706Y-15989113D01*
X37227180Y-15986973D01*
X37183907Y-15963842D01*
X37179616Y-15961269D01*
X37138817Y-15934009D01*
X37134796Y-15931027D01*
X37096867Y-15899899D01*
X37093159Y-15896538D01*
X37058462Y-15861841D01*
X37055101Y-15858133D01*
X37023973Y-15820204D01*
X37020991Y-15816183D01*
X36993731Y-15775384D01*
X36991158Y-15771093D01*
X36968027Y-15727820D01*
X36965887Y-15723294D01*
X36947110Y-15677961D01*
X36945424Y-15673250D01*
X36931180Y-15626295D01*
X36929964Y-15621439D01*
X36920392Y-15573314D01*
X36919658Y-15568364D01*
X36914848Y-15519533D01*
X36914602Y-15514534D01*
X36914602Y-15496112D01*
X36914000Y-15490000D01*
X36914000Y-14990000D01*
X36914602Y-14983888D01*
X36914602Y-14965466D01*
X36914848Y-14960467D01*
X36919658Y-14911636D01*
X36920392Y-14906686D01*
X36929964Y-14858561D01*
X36931180Y-14853705D01*
X36945424Y-14806750D01*
X36947110Y-14802039D01*
X36965887Y-14756706D01*
X36968027Y-14752180D01*
X36991158Y-14708907D01*
X36993731Y-14704616D01*
X37020991Y-14663817D01*
X37023973Y-14659796D01*
X37055101Y-14621867D01*
X37058462Y-14618159D01*
X37093159Y-14583462D01*
X37096867Y-14580101D01*
X37134796Y-14548973D01*
X37138817Y-14545991D01*
X37179616Y-14518731D01*
X37183907Y-14516158D01*
X37227180Y-14493027D01*
X37231706Y-14490887D01*
X37277039Y-14472110D01*
X37281750Y-14470424D01*
X37328705Y-14456180D01*
X37333561Y-14454964D01*
X37381686Y-14445392D01*
X37386636Y-14444658D01*
X37435467Y-14439848D01*
X37440466Y-14439602D01*
X37458888Y-14439602D01*
X37465000Y-14439000D01*
X37965000Y-14439000D01*
X37974950Y-14439980D01*
X37984517Y-14442882D01*
X37993334Y-14447595D01*
X38001062Y-14453938D01*
X38007405Y-14461666D01*
X38012118Y-14470483D01*
X38015020Y-14480050D01*
X38016000Y-14490000D01*
X38016000Y-15990000D01*
X38015020Y-15999950D01*
X38012118Y-16009517D01*
X38007405Y-16018334D01*
X38001062Y-16026062D01*
X37993334Y-16032405D01*
X37984517Y-16037118D01*
X37974950Y-16040020D01*
X37965000Y-16041000D01*
X37465000Y-16041000D01*
X37458888Y-16040398D01*
G37*
G36*
X38255050Y-16040020D02*
G01*
X38245483Y-16037118D01*
X38236666Y-16032405D01*
X38228938Y-16026062D01*
X38222595Y-16018334D01*
X38217882Y-16009517D01*
X38214980Y-15999950D01*
X38214000Y-15990000D01*
X38214000Y-14490000D01*
X38214980Y-14480050D01*
X38217882Y-14470483D01*
X38222595Y-14461666D01*
X38228938Y-14453938D01*
X38236666Y-14447595D01*
X38245483Y-14442882D01*
X38255050Y-14439980D01*
X38265000Y-14439000D01*
X38765000Y-14439000D01*
X38771112Y-14439602D01*
X38789534Y-14439602D01*
X38794533Y-14439848D01*
X38843364Y-14444658D01*
X38848314Y-14445392D01*
X38896439Y-14454964D01*
X38901295Y-14456180D01*
X38948250Y-14470424D01*
X38952961Y-14472110D01*
X38998294Y-14490887D01*
X39002820Y-14493027D01*
X39046093Y-14516158D01*
X39050384Y-14518731D01*
X39091183Y-14545991D01*
X39095204Y-14548973D01*
X39133133Y-14580101D01*
X39136841Y-14583462D01*
X39171538Y-14618159D01*
X39174899Y-14621867D01*
X39206027Y-14659796D01*
X39209009Y-14663817D01*
X39236269Y-14704616D01*
X39238842Y-14708907D01*
X39261973Y-14752180D01*
X39264113Y-14756706D01*
X39282890Y-14802039D01*
X39284576Y-14806750D01*
X39298820Y-14853705D01*
X39300036Y-14858561D01*
X39309608Y-14906686D01*
X39310342Y-14911636D01*
X39315152Y-14960467D01*
X39315398Y-14965466D01*
X39315398Y-14983888D01*
X39316000Y-14990000D01*
X39316000Y-15490000D01*
X39315398Y-15496112D01*
X39315398Y-15514534D01*
X39315152Y-15519533D01*
X39310342Y-15568364D01*
X39309608Y-15573314D01*
X39300036Y-15621439D01*
X39298820Y-15626295D01*
X39284576Y-15673250D01*
X39282890Y-15677961D01*
X39264113Y-15723294D01*
X39261973Y-15727820D01*
X39238842Y-15771093D01*
X39236269Y-15775384D01*
X39209009Y-15816183D01*
X39206027Y-15820204D01*
X39174899Y-15858133D01*
X39171538Y-15861841D01*
X39136841Y-15896538D01*
X39133133Y-15899899D01*
X39095204Y-15931027D01*
X39091183Y-15934009D01*
X39050384Y-15961269D01*
X39046093Y-15963842D01*
X39002820Y-15986973D01*
X38998294Y-15989113D01*
X38952961Y-16007890D01*
X38948250Y-16009576D01*
X38901295Y-16023820D01*
X38896439Y-16025036D01*
X38848314Y-16034608D01*
X38843364Y-16035342D01*
X38794533Y-16040152D01*
X38789534Y-16040398D01*
X38771112Y-16040398D01*
X38765000Y-16041000D01*
X38265000Y-16041000D01*
X38255050Y-16040020D01*
G37*
D21*
X168910000Y-139700000D03*
X168910000Y-16510000D03*
X26670000Y-139700000D03*
X26670000Y-16510000D03*
D22*
X167640000Y-22860000D03*
X170140000Y-27860000D03*
X172640000Y-22860000D03*
X106807000Y-99060000D03*
X109307000Y-104060000D03*
X111807000Y-99060000D03*
X106807000Y-85090000D03*
X109307000Y-90090000D03*
X111807000Y-85090000D03*
D18*
X21590000Y-76200000D03*
X26670000Y-60960000D03*
X21590000Y-58420000D03*
X26670000Y-58420000D03*
X21590000Y-55880000D03*
X26670000Y-55880000D03*
X21590000Y-53340000D03*
X26670000Y-53340000D03*
X21590000Y-50800000D03*
X26670000Y-50800000D03*
X21590000Y-48260000D03*
X26670000Y-48260000D03*
X21590000Y-45720000D03*
X26670000Y-45720000D03*
X21590000Y-43180000D03*
X26670000Y-43180000D03*
X21590000Y-40640000D03*
X26670000Y-40640000D03*
X26670000Y-73660000D03*
X26670000Y-63500000D03*
X21590000Y-60960000D03*
X26670000Y-76200000D03*
X21590000Y-73660000D03*
X26670000Y-71120000D03*
X21590000Y-68580000D03*
X26670000Y-68580000D03*
X21590000Y-66040000D03*
X26670000Y-66040000D03*
X21590000Y-63500000D03*
G36*
G01*
X22491000Y-82970000D02*
X22491000Y-84670000D01*
G75*
G02*
X22440000Y-84721000I-51000J0D01*
G01*
X20740000Y-84721000D01*
G75*
G02*
X20689000Y-84670000I0J51000D01*
G01*
X20689000Y-82970000D01*
G75*
G02*
X20740000Y-82919000I51000J0D01*
G01*
X22440000Y-82919000D01*
G75*
G02*
X22491000Y-82970000I0J-51000D01*
G01*
G37*
X26670000Y-78740000D03*
X21590000Y-71120000D03*
X26670000Y-83820000D03*
X26670000Y-81280000D03*
X21590000Y-78740000D03*
X21590000Y-81280000D03*
D11*
X125730000Y-86360000D03*
D12*
X128270000Y-86360000D03*
D23*
X134850000Y-86360000D03*
G36*
G01*
X132699000Y-86960001D02*
X132699000Y-85759999D01*
G75*
G02*
X132749999Y-85709000I50999J0D01*
G01*
X133950001Y-85709000D01*
G75*
G02*
X134001000Y-85759999I0J-50999D01*
G01*
X134001000Y-86960001D01*
G75*
G02*
X133950001Y-87011000I-50999J0D01*
G01*
X132749999Y-87011000D01*
G75*
G02*
X132699000Y-86960001I0J50999D01*
G01*
G37*
D18*
X21590000Y-129540000D03*
X24130000Y-129540000D03*
X21590000Y-127000000D03*
X24130000Y-127000000D03*
X21590000Y-124460000D03*
X24130000Y-124460000D03*
X21590000Y-121920000D03*
X24130000Y-121920000D03*
X21590000Y-119380000D03*
X24130000Y-119380000D03*
X21590000Y-116840000D03*
X24130000Y-116840000D03*
X21590000Y-114300000D03*
X24130000Y-114300000D03*
X21590000Y-111760000D03*
G36*
G01*
X23229000Y-112610000D02*
X23229000Y-110910000D01*
G75*
G02*
X23280000Y-110859000I51000J0D01*
G01*
X24980000Y-110859000D01*
G75*
G02*
X25031000Y-110910000I0J-51000D01*
G01*
X25031000Y-112610000D01*
G75*
G02*
X24980000Y-112661000I-51000J0D01*
G01*
X23280000Y-112661000D01*
G75*
G02*
X23229000Y-112610000I0J51000D01*
G01*
G37*
X60960000Y-20320000D03*
G36*
G01*
X60059000Y-18630000D02*
X60059000Y-16930000D01*
G75*
G02*
X60110000Y-16879000I51000J0D01*
G01*
X61810000Y-16879000D01*
G75*
G02*
X61861000Y-16930000I0J-51000D01*
G01*
X61861000Y-18630000D01*
G75*
G02*
X61810000Y-18681000I-51000J0D01*
G01*
X60110000Y-18681000D01*
G75*
G02*
X60059000Y-18630000I0J51000D01*
G01*
G37*
D11*
X62357000Y-111760000D03*
X54737000Y-134620000D03*
X62357000Y-114300000D03*
X54737000Y-132080000D03*
X62357000Y-116840000D03*
X54737000Y-129540000D03*
X62357000Y-119380000D03*
X54737000Y-127000000D03*
X62357000Y-121920000D03*
X54737000Y-124460000D03*
X62357000Y-124460000D03*
X54737000Y-121920000D03*
X62357000Y-127000000D03*
X54737000Y-119380000D03*
X62357000Y-129540000D03*
X54737000Y-116840000D03*
X62357000Y-132080000D03*
X54737000Y-114300000D03*
X62357000Y-134620000D03*
G36*
G01*
X53886000Y-112560000D02*
X53886000Y-110960000D01*
G75*
G02*
X53937000Y-110909000I51000J0D01*
G01*
X55537000Y-110909000D01*
G75*
G02*
X55588000Y-110960000I0J-51000D01*
G01*
X55588000Y-112560000D01*
G75*
G02*
X55537000Y-112611000I-51000J0D01*
G01*
X53937000Y-112611000D01*
G75*
G02*
X53886000Y-112560000I0J51000D01*
G01*
G37*
X168910000Y-90170000D03*
D12*
X171450000Y-90170000D03*
D18*
X160020000Y-136525000D03*
G36*
G01*
X161710000Y-135624000D02*
X163410000Y-135624000D01*
G75*
G02*
X163461000Y-135675000I0J-51000D01*
G01*
X163461000Y-137375000D01*
G75*
G02*
X163410000Y-137426000I-51000J0D01*
G01*
X161710000Y-137426000D01*
G75*
G02*
X161659000Y-137375000I0J51000D01*
G01*
X161659000Y-135675000D01*
G75*
G02*
X161710000Y-135624000I51000J0D01*
G01*
G37*
X87630000Y-100330000D03*
G36*
G01*
X85940000Y-101231000D02*
X84240000Y-101231000D01*
G75*
G02*
X84189000Y-101180000I0J51000D01*
G01*
X84189000Y-99480000D01*
G75*
G02*
X84240000Y-99429000I51000J0D01*
G01*
X85940000Y-99429000D01*
G75*
G02*
X85991000Y-99480000I0J-51000D01*
G01*
X85991000Y-101180000D01*
G75*
G02*
X85940000Y-101231000I-51000J0D01*
G01*
G37*
X87630000Y-104140000D03*
G36*
G01*
X85940000Y-105041000D02*
X84240000Y-105041000D01*
G75*
G02*
X84189000Y-104990000I0J51000D01*
G01*
X84189000Y-103290000D01*
G75*
G02*
X84240000Y-103239000I51000J0D01*
G01*
X85940000Y-103239000D01*
G75*
G02*
X85991000Y-103290000I0J-51000D01*
G01*
X85991000Y-104990000D01*
G75*
G02*
X85940000Y-105041000I-51000J0D01*
G01*
G37*
G36*
G01*
X103239000Y-80860000D02*
X103239000Y-79160000D01*
G75*
G02*
X103290000Y-79109000I51000J0D01*
G01*
X104990000Y-79109000D01*
G75*
G02*
X105041000Y-79160000I0J-51000D01*
G01*
X105041000Y-80860000D01*
G75*
G02*
X104990000Y-80911000I-51000J0D01*
G01*
X103290000Y-80911000D01*
G75*
G02*
X103239000Y-80860000I0J51000D01*
G01*
G37*
D11*
X90805000Y-86360000D03*
G36*
G01*
X91605000Y-89751000D02*
X90005000Y-89751000D01*
G75*
G02*
X89954000Y-89700000I0J51000D01*
G01*
X89954000Y-88100000D01*
G75*
G02*
X90005000Y-88049000I51000J0D01*
G01*
X91605000Y-88049000D01*
G75*
G02*
X91656000Y-88100000I0J-51000D01*
G01*
X91656000Y-89700000D01*
G75*
G02*
X91605000Y-89751000I-51000J0D01*
G01*
G37*
D24*
X99060000Y-87650000D03*
G36*
G01*
X100060000Y-96301000D02*
X98060000Y-96301000D01*
G75*
G02*
X98009000Y-96250000I0J51000D01*
G01*
X98009000Y-94250000D01*
G75*
G02*
X98060000Y-94199000I51000J0D01*
G01*
X100060000Y-94199000D01*
G75*
G02*
X100111000Y-94250000I0J-51000D01*
G01*
X100111000Y-96250000D01*
G75*
G02*
X100060000Y-96301000I-51000J0D01*
G01*
G37*
D25*
X33020000Y-129540000D03*
X30480000Y-129540000D03*
X33020000Y-127000000D03*
X30480000Y-127000000D03*
X33020000Y-124460000D03*
X30480000Y-124460000D03*
X33020000Y-121920000D03*
X30480000Y-121920000D03*
X33020000Y-119380000D03*
X30480000Y-119380000D03*
X33020000Y-116840000D03*
X30480000Y-116840000D03*
X33020000Y-114300000D03*
X30480000Y-114300000D03*
X33020000Y-111760000D03*
G36*
G01*
X29565400Y-112623600D02*
X29565400Y-110896400D01*
G75*
G02*
X29616400Y-110845400I51000J0D01*
G01*
X31343600Y-110845400D01*
G75*
G02*
X31394600Y-110896400I0J-51000D01*
G01*
X31394600Y-112623600D01*
G75*
G02*
X31343600Y-112674600I-51000J0D01*
G01*
X29616400Y-112674600D01*
G75*
G02*
X29565400Y-112623600I0J51000D01*
G01*
G37*
D11*
X73660000Y-86360000D03*
X66040000Y-104140000D03*
X73660000Y-88900000D03*
X66040000Y-101600000D03*
X73660000Y-91440000D03*
X66040000Y-99060000D03*
X73660000Y-93980000D03*
X66040000Y-96520000D03*
X73660000Y-96520000D03*
X66040000Y-93980000D03*
X73660000Y-99060000D03*
X66040000Y-91440000D03*
X73660000Y-101600000D03*
X66040000Y-88900000D03*
X73660000Y-104140000D03*
G36*
G01*
X65189000Y-87160000D02*
X65189000Y-85560000D01*
G75*
G02*
X65240000Y-85509000I51000J0D01*
G01*
X66840000Y-85509000D01*
G75*
G02*
X66891000Y-85560000I0J-51000D01*
G01*
X66891000Y-87160000D01*
G75*
G02*
X66840000Y-87211000I-51000J0D01*
G01*
X65240000Y-87211000D01*
G75*
G02*
X65189000Y-87160000I0J51000D01*
G01*
G37*
X57150000Y-17780000D03*
X41910000Y-66040000D03*
X57150000Y-20320000D03*
X41910000Y-63500000D03*
X57150000Y-22860000D03*
X41910000Y-60960000D03*
X57150000Y-25400000D03*
X41910000Y-58420000D03*
X57150000Y-27940000D03*
X41910000Y-55880000D03*
X57150000Y-30480000D03*
X41910000Y-53340000D03*
X57150000Y-33020000D03*
X41910000Y-50800000D03*
X57150000Y-35560000D03*
X41910000Y-48260000D03*
X57150000Y-38100000D03*
X41910000Y-45720000D03*
X57150000Y-40640000D03*
X41910000Y-43180000D03*
X57150000Y-43180000D03*
X41910000Y-40640000D03*
X57150000Y-45720000D03*
X41910000Y-38100000D03*
X57150000Y-48260000D03*
X41910000Y-35560000D03*
X57150000Y-50800000D03*
X41910000Y-33020000D03*
X57150000Y-53340000D03*
X41910000Y-30480000D03*
X57150000Y-55880000D03*
X41910000Y-27940000D03*
X57150000Y-58420000D03*
X41910000Y-25400000D03*
X57150000Y-60960000D03*
X41910000Y-22860000D03*
X57150000Y-63500000D03*
X41910000Y-20320000D03*
X57150000Y-66040000D03*
G36*
G01*
X41059000Y-18580000D02*
X41059000Y-16980000D01*
G75*
G02*
X41110000Y-16929000I51000J0D01*
G01*
X42710000Y-16929000D01*
G75*
G02*
X42761000Y-16980000I0J-51000D01*
G01*
X42761000Y-18580000D01*
G75*
G02*
X42710000Y-18631000I-51000J0D01*
G01*
X41110000Y-18631000D01*
G75*
G02*
X41059000Y-18580000I0J51000D01*
G01*
G37*
D18*
X100330000Y-18415000D03*
X97790000Y-18415000D03*
X95250000Y-18415000D03*
G36*
G01*
X93560000Y-19316000D02*
X91860000Y-19316000D01*
G75*
G02*
X91809000Y-19265000I0J51000D01*
G01*
X91809000Y-17565000D01*
G75*
G02*
X91860000Y-17514000I51000J0D01*
G01*
X93560000Y-17514000D01*
G75*
G02*
X93611000Y-17565000I0J-51000D01*
G01*
X93611000Y-19265000D01*
G75*
G02*
X93560000Y-19316000I-51000J0D01*
G01*
G37*
D11*
X125730000Y-91440000D03*
D12*
X128270000Y-91440000D03*
D11*
X167640000Y-57150000D03*
D12*
X167640000Y-54610000D03*
D11*
X167640000Y-34290000D03*
D12*
X167640000Y-31750000D03*
D11*
X146050000Y-68580000D03*
D12*
X143510000Y-68580000D03*
D11*
X168910000Y-97790000D03*
D12*
X171450000Y-97790000D03*
D11*
X168910000Y-105410000D03*
D12*
X171450000Y-105410000D03*
D11*
X168910000Y-113030000D03*
D12*
X171450000Y-113030000D03*
D11*
X168910000Y-120650000D03*
D12*
X171450000Y-120650000D03*
D11*
X168910000Y-93980000D03*
D12*
X171450000Y-93980000D03*
D11*
X168910000Y-101600000D03*
D12*
X171450000Y-101600000D03*
D11*
X168910000Y-109220000D03*
D12*
X171450000Y-109220000D03*
D11*
X168910000Y-116840000D03*
D12*
X171450000Y-116840000D03*
D11*
X34290000Y-17780000D03*
D12*
X34290000Y-15240000D03*
D11*
X48260000Y-92710000D03*
D12*
X48260000Y-95250000D03*
D11*
X152400000Y-68580000D03*
D12*
X149860000Y-68580000D03*
D11*
X146050000Y-73660000D03*
D12*
X143510000Y-73660000D03*
D11*
X152400000Y-63500000D03*
D12*
X149860000Y-63500000D03*
D11*
X146050000Y-63500000D03*
D12*
X143510000Y-63500000D03*
D11*
X152400000Y-73660000D03*
D12*
X149860000Y-73660000D03*
D11*
X121285000Y-91440000D03*
D12*
X118745000Y-91440000D03*
D11*
X34290000Y-138430000D03*
D12*
X34290000Y-140970000D03*
D11*
X77470000Y-97790000D03*
D12*
X77470000Y-100330000D03*
D11*
X77470000Y-88900000D03*
D12*
X77470000Y-91440000D03*
D11*
X68580000Y-107950000D03*
D12*
X66040000Y-107950000D03*
D11*
X54610000Y-97790000D03*
D12*
X54610000Y-100330000D03*
D11*
X60960000Y-97790000D03*
D12*
X60960000Y-100330000D03*
X150495000Y-129460000D03*
X150495000Y-124460000D03*
X157520000Y-129540000D03*
G36*
G01*
X160871000Y-128740000D02*
X160871000Y-130340000D01*
G75*
G02*
X160820000Y-130391000I-51000J0D01*
G01*
X159220000Y-130391000D01*
G75*
G02*
X159169000Y-130340000I0J51000D01*
G01*
X159169000Y-128740000D01*
G75*
G02*
X159220000Y-128689000I51000J0D01*
G01*
X160820000Y-128689000D01*
G75*
G02*
X160871000Y-128740000I0J-51000D01*
G01*
G37*
D23*
X134850000Y-91440000D03*
G36*
G01*
X132699000Y-92040001D02*
X132699000Y-90839999D01*
G75*
G02*
X132749999Y-90789000I50999J0D01*
G01*
X133950001Y-90789000D01*
G75*
G02*
X134001000Y-90839999I0J-50999D01*
G01*
X134001000Y-92040001D01*
G75*
G02*
X133950001Y-92091000I-50999J0D01*
G01*
X132749999Y-92091000D01*
G75*
G02*
X132699000Y-92040001I0J50999D01*
G01*
G37*
X157075000Y-73660000D03*
G36*
G01*
X154924000Y-74260001D02*
X154924000Y-73059999D01*
G75*
G02*
X154974999Y-73009000I50999J0D01*
G01*
X156175001Y-73009000D01*
G75*
G02*
X156226000Y-73059999I0J-50999D01*
G01*
X156226000Y-74260001D01*
G75*
G02*
X156175001Y-74311000I-50999J0D01*
G01*
X154974999Y-74311000D01*
G75*
G02*
X154924000Y-74260001I0J50999D01*
G01*
G37*
X78740000Y-107720000D03*
G36*
G01*
X79340001Y-109871000D02*
X78139999Y-109871000D01*
G75*
G02*
X78089000Y-109820001I0J50999D01*
G01*
X78089000Y-108619999D01*
G75*
G02*
X78139999Y-108569000I50999J0D01*
G01*
X79340001Y-108569000D01*
G75*
G02*
X79391000Y-108619999I0J-50999D01*
G01*
X79391000Y-109820001D01*
G75*
G02*
X79340001Y-109871000I-50999J0D01*
G01*
G37*
D12*
X81280000Y-93900000D03*
X81280000Y-88900000D03*
D23*
X73660000Y-107720000D03*
G36*
G01*
X74260001Y-109871000D02*
X73059999Y-109871000D01*
G75*
G02*
X73009000Y-109820001I0J50999D01*
G01*
X73009000Y-108619999D01*
G75*
G02*
X73059999Y-108569000I50999J0D01*
G01*
X74260001Y-108569000D01*
G75*
G02*
X74311000Y-108619999I0J-50999D01*
G01*
X74311000Y-109820001D01*
G75*
G02*
X74260001Y-109871000I-50999J0D01*
G01*
G37*
D11*
X60960000Y-71120000D03*
X53340000Y-88900000D03*
X60960000Y-73660000D03*
X53340000Y-86360000D03*
X60960000Y-76200000D03*
X53340000Y-83820000D03*
X60960000Y-78740000D03*
X53340000Y-81280000D03*
X60960000Y-81280000D03*
X53340000Y-78740000D03*
X60960000Y-83820000D03*
X53340000Y-76200000D03*
X60960000Y-86360000D03*
X53340000Y-73660000D03*
X60960000Y-88900000D03*
G36*
G01*
X52489000Y-71920000D02*
X52489000Y-70320000D01*
G75*
G02*
X52540000Y-70269000I51000J0D01*
G01*
X54140000Y-70269000D01*
G75*
G02*
X54191000Y-70320000I0J-51000D01*
G01*
X54191000Y-71920000D01*
G75*
G02*
X54140000Y-71971000I-51000J0D01*
G01*
X52540000Y-71971000D01*
G75*
G02*
X52489000Y-71920000I0J51000D01*
G01*
G37*
D24*
X25250000Y-26670000D03*
X25250000Y-22170000D03*
X31750000Y-26670000D03*
X31750000Y-22170000D03*
X15090000Y-26670000D03*
X15090000Y-22170000D03*
X21590000Y-26670000D03*
X21590000Y-22170000D03*
D26*
X179970000Y-136810000D03*
X179970000Y-124770000D03*
D27*
X177260000Y-129540000D03*
X177260000Y-132040000D03*
X175260000Y-132040000D03*
G36*
G01*
X174359000Y-130390000D02*
X174359000Y-128690000D01*
G75*
G02*
X174410000Y-128639000I51000J0D01*
G01*
X176110000Y-128639000D01*
G75*
G02*
X176161000Y-128690000I0J-51000D01*
G01*
X176161000Y-130390000D01*
G75*
G02*
X176110000Y-130441000I-51000J0D01*
G01*
X174410000Y-130441000D01*
G75*
G02*
X174359000Y-130390000I0J51000D01*
G01*
G37*
D11*
X45085000Y-96520000D03*
G36*
G01*
X41694000Y-97320000D02*
X41694000Y-95720000D01*
G75*
G02*
X41745000Y-95669000I51000J0D01*
G01*
X43345000Y-95669000D01*
G75*
G02*
X43396000Y-95720000I0J-51000D01*
G01*
X43396000Y-97320000D01*
G75*
G02*
X43345000Y-97371000I-51000J0D01*
G01*
X41745000Y-97371000D01*
G75*
G02*
X41694000Y-97320000I0J51000D01*
G01*
G37*
X87630000Y-86360000D03*
G36*
G01*
X88430000Y-89751000D02*
X86830000Y-89751000D01*
G75*
G02*
X86779000Y-89700000I0J51000D01*
G01*
X86779000Y-88100000D01*
G75*
G02*
X86830000Y-88049000I51000J0D01*
G01*
X88430000Y-88049000D01*
G75*
G02*
X88481000Y-88100000I0J-51000D01*
G01*
X88481000Y-89700000D01*
G75*
G02*
X88430000Y-89751000I-51000J0D01*
G01*
G37*
X84455000Y-86360000D03*
G36*
G01*
X85255000Y-89751000D02*
X83655000Y-89751000D01*
G75*
G02*
X83604000Y-89700000I0J51000D01*
G01*
X83604000Y-88100000D01*
G75*
G02*
X83655000Y-88049000I51000J0D01*
G01*
X85255000Y-88049000D01*
G75*
G02*
X85306000Y-88100000I0J-51000D01*
G01*
X85306000Y-89700000D01*
G75*
G02*
X85255000Y-89751000I-51000J0D01*
G01*
G37*
X38100000Y-34290000D03*
G36*
G01*
X38900000Y-37681000D02*
X37300000Y-37681000D01*
G75*
G02*
X37249000Y-37630000I0J51000D01*
G01*
X37249000Y-36030000D01*
G75*
G02*
X37300000Y-35979000I51000J0D01*
G01*
X38900000Y-35979000D01*
G75*
G02*
X38951000Y-36030000I0J-51000D01*
G01*
X38951000Y-37630000D01*
G75*
G02*
X38900000Y-37681000I-51000J0D01*
G01*
G37*
X39370000Y-114300000D03*
X39370000Y-116840000D03*
X39370000Y-119380000D03*
X39370000Y-121920000D03*
X39370000Y-124460000D03*
X39370000Y-127000000D03*
X39370000Y-129540000D03*
X39370000Y-132080000D03*
G36*
G01*
X40170000Y-135471000D02*
X38570000Y-135471000D01*
G75*
G02*
X38519000Y-135420000I0J51000D01*
G01*
X38519000Y-133820000D01*
G75*
G02*
X38570000Y-133769000I51000J0D01*
G01*
X40170000Y-133769000D01*
G75*
G02*
X40221000Y-133820000I0J-51000D01*
G01*
X40221000Y-135420000D01*
G75*
G02*
X40170000Y-135471000I-51000J0D01*
G01*
G37*
X85090000Y-17780000D03*
X77470000Y-35560000D03*
X85090000Y-20320000D03*
X77470000Y-33020000D03*
X85090000Y-22860000D03*
X77470000Y-30480000D03*
X85090000Y-25400000D03*
X77470000Y-27940000D03*
X85090000Y-27940000D03*
X77470000Y-25400000D03*
X85090000Y-30480000D03*
X77470000Y-22860000D03*
X85090000Y-33020000D03*
X77470000Y-20320000D03*
X85090000Y-35560000D03*
G36*
G01*
X76619000Y-18580000D02*
X76619000Y-16980000D01*
G75*
G02*
X76670000Y-16929000I51000J0D01*
G01*
X78270000Y-16929000D01*
G75*
G02*
X78321000Y-16980000I0J-51000D01*
G01*
X78321000Y-18580000D01*
G75*
G02*
X78270000Y-18631000I-51000J0D01*
G01*
X76670000Y-18631000D01*
G75*
G02*
X76619000Y-18580000I0J51000D01*
G01*
G37*
X85090000Y-40640000D03*
X77470000Y-58420000D03*
X85090000Y-43180000D03*
X77470000Y-55880000D03*
X85090000Y-45720000D03*
X77470000Y-53340000D03*
X85090000Y-48260000D03*
X77470000Y-50800000D03*
X85090000Y-50800000D03*
X77470000Y-48260000D03*
X85090000Y-53340000D03*
X77470000Y-45720000D03*
X85090000Y-55880000D03*
X77470000Y-43180000D03*
X85090000Y-58420000D03*
G36*
G01*
X76619000Y-41440000D02*
X76619000Y-39840000D01*
G75*
G02*
X76670000Y-39789000I51000J0D01*
G01*
X78270000Y-39789000D01*
G75*
G02*
X78321000Y-39840000I0J-51000D01*
G01*
X78321000Y-41440000D01*
G75*
G02*
X78270000Y-41491000I-51000J0D01*
G01*
X76670000Y-41491000D01*
G75*
G02*
X76619000Y-41440000I0J51000D01*
G01*
G37*
X165100000Y-100330000D03*
X157480000Y-123190000D03*
X165100000Y-102870000D03*
X157480000Y-120650000D03*
X165100000Y-105410000D03*
X157480000Y-118110000D03*
X165100000Y-107950000D03*
X157480000Y-115570000D03*
X165100000Y-110490000D03*
X157480000Y-113030000D03*
X165100000Y-113030000D03*
X157480000Y-110490000D03*
X165100000Y-115570000D03*
X157480000Y-107950000D03*
X165100000Y-118110000D03*
X157480000Y-105410000D03*
X165100000Y-120650000D03*
X157480000Y-102870000D03*
X165100000Y-123190000D03*
G36*
G01*
X156629000Y-101130000D02*
X156629000Y-99530000D01*
G75*
G02*
X156680000Y-99479000I51000J0D01*
G01*
X158280000Y-99479000D01*
G75*
G02*
X158331000Y-99530000I0J-51000D01*
G01*
X158331000Y-101130000D01*
G75*
G02*
X158280000Y-101181000I-51000J0D01*
G01*
X156680000Y-101181000D01*
G75*
G02*
X156629000Y-101130000I0J51000D01*
G01*
G37*
X153670000Y-102870000D03*
X146050000Y-118110000D03*
X153670000Y-105410000D03*
X146050000Y-115570000D03*
X153670000Y-107950000D03*
X146050000Y-113030000D03*
X153670000Y-110490000D03*
X146050000Y-110490000D03*
X153670000Y-113030000D03*
X146050000Y-107950000D03*
X153670000Y-115570000D03*
X146050000Y-105410000D03*
X153670000Y-118110000D03*
G36*
G01*
X145199000Y-103670000D02*
X145199000Y-102070000D01*
G75*
G02*
X145250000Y-102019000I51000J0D01*
G01*
X146850000Y-102019000D01*
G75*
G02*
X146901000Y-102070000I0J-51000D01*
G01*
X146901000Y-103670000D01*
G75*
G02*
X146850000Y-103721000I-51000J0D01*
G01*
X145250000Y-103721000D01*
G75*
G02*
X145199000Y-103670000I0J51000D01*
G01*
G37*
X142240000Y-116840000D03*
X134620000Y-134620000D03*
X142240000Y-119380000D03*
X134620000Y-132080000D03*
X142240000Y-121920000D03*
X134620000Y-129540000D03*
X142240000Y-124460000D03*
X134620000Y-127000000D03*
X142240000Y-127000000D03*
X134620000Y-124460000D03*
X142240000Y-129540000D03*
X134620000Y-121920000D03*
X142240000Y-132080000D03*
X134620000Y-119380000D03*
X142240000Y-134620000D03*
G36*
G01*
X133769000Y-117640000D02*
X133769000Y-116040000D01*
G75*
G02*
X133820000Y-115989000I51000J0D01*
G01*
X135420000Y-115989000D01*
G75*
G02*
X135471000Y-116040000I0J-51000D01*
G01*
X135471000Y-117640000D01*
G75*
G02*
X135420000Y-117691000I-51000J0D01*
G01*
X133820000Y-117691000D01*
G75*
G02*
X133769000Y-117640000I0J51000D01*
G01*
G37*
X130810000Y-111760000D03*
X123190000Y-134620000D03*
X130810000Y-114300000D03*
X123190000Y-132080000D03*
X130810000Y-116840000D03*
X123190000Y-129540000D03*
X130810000Y-119380000D03*
X123190000Y-127000000D03*
X130810000Y-121920000D03*
X123190000Y-124460000D03*
X130810000Y-124460000D03*
X123190000Y-121920000D03*
X130810000Y-127000000D03*
X123190000Y-119380000D03*
X130810000Y-129540000D03*
X123190000Y-116840000D03*
X130810000Y-132080000D03*
X123190000Y-114300000D03*
X130810000Y-134620000D03*
G36*
G01*
X122339000Y-112560000D02*
X122339000Y-110960000D01*
G75*
G02*
X122390000Y-110909000I51000J0D01*
G01*
X123990000Y-110909000D01*
G75*
G02*
X124041000Y-110960000I0J-51000D01*
G01*
X124041000Y-112560000D01*
G75*
G02*
X123990000Y-112611000I-51000J0D01*
G01*
X122390000Y-112611000D01*
G75*
G02*
X122339000Y-112560000I0J51000D01*
G01*
G37*
X73660000Y-17780000D03*
X66040000Y-35560000D03*
X73660000Y-20320000D03*
X66040000Y-33020000D03*
X73660000Y-22860000D03*
X66040000Y-30480000D03*
X73660000Y-25400000D03*
X66040000Y-27940000D03*
X73660000Y-27940000D03*
X66040000Y-25400000D03*
X73660000Y-30480000D03*
X66040000Y-22860000D03*
X73660000Y-33020000D03*
X66040000Y-20320000D03*
X73660000Y-35560000D03*
G36*
G01*
X65189000Y-18580000D02*
X65189000Y-16980000D01*
G75*
G02*
X65240000Y-16929000I51000J0D01*
G01*
X66840000Y-16929000D01*
G75*
G02*
X66891000Y-16980000I0J-51000D01*
G01*
X66891000Y-18580000D01*
G75*
G02*
X66840000Y-18631000I-51000J0D01*
G01*
X65240000Y-18631000D01*
G75*
G02*
X65189000Y-18580000I0J51000D01*
G01*
G37*
X73660000Y-40640000D03*
X66040000Y-58420000D03*
X73660000Y-43180000D03*
X66040000Y-55880000D03*
X73660000Y-45720000D03*
X66040000Y-53340000D03*
X73660000Y-48260000D03*
X66040000Y-50800000D03*
X73660000Y-50800000D03*
X66040000Y-48260000D03*
X73660000Y-53340000D03*
X66040000Y-45720000D03*
X73660000Y-55880000D03*
X66040000Y-43180000D03*
X73660000Y-58420000D03*
G36*
G01*
X65189000Y-41440000D02*
X65189000Y-39840000D01*
G75*
G02*
X65240000Y-39789000I51000J0D01*
G01*
X66840000Y-39789000D01*
G75*
G02*
X66891000Y-39840000I0J-51000D01*
G01*
X66891000Y-41440000D01*
G75*
G02*
X66840000Y-41491000I-51000J0D01*
G01*
X65240000Y-41491000D01*
G75*
G02*
X65189000Y-41440000I0J51000D01*
G01*
G37*
X163830000Y-19050000D03*
X156210000Y-34290000D03*
X163830000Y-21590000D03*
X156210000Y-31750000D03*
X163830000Y-24130000D03*
X156210000Y-29210000D03*
X163830000Y-26670000D03*
X156210000Y-26670000D03*
X163830000Y-29210000D03*
X156210000Y-24130000D03*
X163830000Y-31750000D03*
X156210000Y-21590000D03*
X163830000Y-34290000D03*
G36*
G01*
X155359000Y-19850000D02*
X155359000Y-18250000D01*
G75*
G02*
X155410000Y-18199000I51000J0D01*
G01*
X157010000Y-18199000D01*
G75*
G02*
X157061000Y-18250000I0J-51000D01*
G01*
X157061000Y-19850000D01*
G75*
G02*
X157010000Y-19901000I-51000J0D01*
G01*
X155410000Y-19901000D01*
G75*
G02*
X155359000Y-19850000I0J51000D01*
G01*
G37*
X138430000Y-63500000D03*
X130810000Y-81280000D03*
X138430000Y-66040000D03*
X130810000Y-78740000D03*
X138430000Y-68580000D03*
X130810000Y-76200000D03*
X138430000Y-71120000D03*
X130810000Y-73660000D03*
X138430000Y-73660000D03*
X130810000Y-71120000D03*
X138430000Y-76200000D03*
X130810000Y-68580000D03*
X138430000Y-78740000D03*
X130810000Y-66040000D03*
X138430000Y-81280000D03*
G36*
G01*
X129959000Y-64300000D02*
X129959000Y-62700000D01*
G75*
G02*
X130010000Y-62649000I51000J0D01*
G01*
X131610000Y-62649000D01*
G75*
G02*
X131661000Y-62700000I0J-51000D01*
G01*
X131661000Y-64300000D01*
G75*
G02*
X131610000Y-64351000I-51000J0D01*
G01*
X130010000Y-64351000D01*
G75*
G02*
X129959000Y-64300000I0J51000D01*
G01*
G37*
X138430000Y-40640000D03*
X130810000Y-58420000D03*
X138430000Y-43180000D03*
X130810000Y-55880000D03*
X138430000Y-45720000D03*
X130810000Y-53340000D03*
X138430000Y-48260000D03*
X130810000Y-50800000D03*
X138430000Y-50800000D03*
X130810000Y-48260000D03*
X138430000Y-53340000D03*
X130810000Y-45720000D03*
X138430000Y-55880000D03*
X130810000Y-43180000D03*
X138430000Y-58420000D03*
G36*
G01*
X129959000Y-41440000D02*
X129959000Y-39840000D01*
G75*
G02*
X130010000Y-39789000I51000J0D01*
G01*
X131610000Y-39789000D01*
G75*
G02*
X131661000Y-39840000I0J-51000D01*
G01*
X131661000Y-41440000D01*
G75*
G02*
X131610000Y-41491000I-51000J0D01*
G01*
X130010000Y-41491000D01*
G75*
G02*
X129959000Y-41440000I0J51000D01*
G01*
G37*
X127000000Y-40640000D03*
X119380000Y-58420000D03*
X127000000Y-43180000D03*
X119380000Y-55880000D03*
X127000000Y-45720000D03*
X119380000Y-53340000D03*
X127000000Y-48260000D03*
X119380000Y-50800000D03*
X127000000Y-50800000D03*
X119380000Y-48260000D03*
X127000000Y-53340000D03*
X119380000Y-45720000D03*
X127000000Y-55880000D03*
X119380000Y-43180000D03*
X127000000Y-58420000D03*
G36*
G01*
X118529000Y-41440000D02*
X118529000Y-39840000D01*
G75*
G02*
X118580000Y-39789000I51000J0D01*
G01*
X120180000Y-39789000D01*
G75*
G02*
X120231000Y-39840000I0J-51000D01*
G01*
X120231000Y-41440000D01*
G75*
G02*
X120180000Y-41491000I-51000J0D01*
G01*
X118580000Y-41491000D01*
G75*
G02*
X118529000Y-41440000I0J51000D01*
G01*
G37*
X138430000Y-17780000D03*
X130810000Y-35560000D03*
X138430000Y-20320000D03*
X130810000Y-33020000D03*
X138430000Y-22860000D03*
X130810000Y-30480000D03*
X138430000Y-25400000D03*
X130810000Y-27940000D03*
X138430000Y-27940000D03*
X130810000Y-25400000D03*
X138430000Y-30480000D03*
X130810000Y-22860000D03*
X138430000Y-33020000D03*
X130810000Y-20320000D03*
X138430000Y-35560000D03*
G36*
G01*
X129959000Y-18580000D02*
X129959000Y-16980000D01*
G75*
G02*
X130010000Y-16929000I51000J0D01*
G01*
X131610000Y-16929000D01*
G75*
G02*
X131661000Y-16980000I0J-51000D01*
G01*
X131661000Y-18580000D01*
G75*
G02*
X131610000Y-18631000I-51000J0D01*
G01*
X130010000Y-18631000D01*
G75*
G02*
X129959000Y-18580000I0J51000D01*
G01*
G37*
X115570000Y-64770000D03*
X107950000Y-80010000D03*
X115570000Y-67310000D03*
X107950000Y-77470000D03*
X115570000Y-69850000D03*
X107950000Y-74930000D03*
X115570000Y-72390000D03*
X107950000Y-72390000D03*
X115570000Y-74930000D03*
X107950000Y-69850000D03*
X115570000Y-77470000D03*
X107950000Y-67310000D03*
X115570000Y-80010000D03*
G36*
G01*
X107099000Y-65570000D02*
X107099000Y-63970000D01*
G75*
G02*
X107150000Y-63919000I51000J0D01*
G01*
X108750000Y-63919000D01*
G75*
G02*
X108801000Y-63970000I0J-51000D01*
G01*
X108801000Y-65570000D01*
G75*
G02*
X108750000Y-65621000I-51000J0D01*
G01*
X107150000Y-65621000D01*
G75*
G02*
X107099000Y-65570000I0J51000D01*
G01*
G37*
X85090000Y-64770000D03*
X77470000Y-80010000D03*
X85090000Y-67310000D03*
X77470000Y-77470000D03*
X85090000Y-69850000D03*
X77470000Y-74930000D03*
X85090000Y-72390000D03*
X77470000Y-72390000D03*
X85090000Y-74930000D03*
X77470000Y-69850000D03*
X85090000Y-77470000D03*
X77470000Y-67310000D03*
X85090000Y-80010000D03*
G36*
G01*
X76619000Y-65570000D02*
X76619000Y-63970000D01*
G75*
G02*
X76670000Y-63919000I51000J0D01*
G01*
X78270000Y-63919000D01*
G75*
G02*
X78321000Y-63970000I0J-51000D01*
G01*
X78321000Y-65570000D01*
G75*
G02*
X78270000Y-65621000I-51000J0D01*
G01*
X76670000Y-65621000D01*
G75*
G02*
X76619000Y-65570000I0J51000D01*
G01*
G37*
X96520000Y-64770000D03*
X88900000Y-80010000D03*
X96520000Y-67310000D03*
X88900000Y-77470000D03*
X96520000Y-69850000D03*
X88900000Y-74930000D03*
X96520000Y-72390000D03*
X88900000Y-72390000D03*
X96520000Y-74930000D03*
X88900000Y-69850000D03*
X96520000Y-77470000D03*
X88900000Y-67310000D03*
X96520000Y-80010000D03*
G36*
G01*
X88049000Y-65570000D02*
X88049000Y-63970000D01*
G75*
G02*
X88100000Y-63919000I51000J0D01*
G01*
X89700000Y-63919000D01*
G75*
G02*
X89751000Y-63970000I0J-51000D01*
G01*
X89751000Y-65570000D01*
G75*
G02*
X89700000Y-65621000I-51000J0D01*
G01*
X88100000Y-65621000D01*
G75*
G02*
X88049000Y-65570000I0J51000D01*
G01*
G37*
X73660000Y-64770000D03*
X66040000Y-80010000D03*
X73660000Y-67310000D03*
X66040000Y-77470000D03*
X73660000Y-69850000D03*
X66040000Y-74930000D03*
X73660000Y-72390000D03*
X66040000Y-72390000D03*
X73660000Y-74930000D03*
X66040000Y-69850000D03*
X73660000Y-77470000D03*
X66040000Y-67310000D03*
X73660000Y-80010000D03*
G36*
G01*
X65189000Y-65570000D02*
X65189000Y-63970000D01*
G75*
G02*
X65240000Y-63919000I51000J0D01*
G01*
X66840000Y-63919000D01*
G75*
G02*
X66891000Y-63970000I0J-51000D01*
G01*
X66891000Y-65570000D01*
G75*
G02*
X66840000Y-65621000I-51000J0D01*
G01*
X65240000Y-65621000D01*
G75*
G02*
X65189000Y-65570000I0J51000D01*
G01*
G37*
X49530000Y-72390000D03*
X41910000Y-87630000D03*
X49530000Y-74930000D03*
X41910000Y-85090000D03*
X49530000Y-77470000D03*
X41910000Y-82550000D03*
X49530000Y-80010000D03*
X41910000Y-80010000D03*
X49530000Y-82550000D03*
X41910000Y-77470000D03*
X49530000Y-85090000D03*
X41910000Y-74930000D03*
X49530000Y-87630000D03*
G36*
G01*
X41059000Y-73190000D02*
X41059000Y-71590000D01*
G75*
G02*
X41110000Y-71539000I51000J0D01*
G01*
X42710000Y-71539000D01*
G75*
G02*
X42761000Y-71590000I0J-51000D01*
G01*
X42761000Y-73190000D01*
G75*
G02*
X42710000Y-73241000I-51000J0D01*
G01*
X41110000Y-73241000D01*
G75*
G02*
X41059000Y-73190000I0J51000D01*
G01*
G37*
X115570000Y-17780000D03*
X107950000Y-35560000D03*
X115570000Y-20320000D03*
X107950000Y-33020000D03*
X115570000Y-22860000D03*
X107950000Y-30480000D03*
X115570000Y-25400000D03*
X107950000Y-27940000D03*
X115570000Y-27940000D03*
X107950000Y-25400000D03*
X115570000Y-30480000D03*
X107950000Y-22860000D03*
X115570000Y-33020000D03*
X107950000Y-20320000D03*
X115570000Y-35560000D03*
G36*
G01*
X107099000Y-18580000D02*
X107099000Y-16980000D01*
G75*
G02*
X107150000Y-16929000I51000J0D01*
G01*
X108750000Y-16929000D01*
G75*
G02*
X108801000Y-16980000I0J-51000D01*
G01*
X108801000Y-18580000D01*
G75*
G02*
X108750000Y-18631000I-51000J0D01*
G01*
X107150000Y-18631000D01*
G75*
G02*
X107099000Y-18580000I0J51000D01*
G01*
G37*
X115570000Y-40640000D03*
X107950000Y-58420000D03*
X115570000Y-43180000D03*
X107950000Y-55880000D03*
X115570000Y-45720000D03*
X107950000Y-53340000D03*
X115570000Y-48260000D03*
X107950000Y-50800000D03*
X115570000Y-50800000D03*
X107950000Y-48260000D03*
X115570000Y-53340000D03*
X107950000Y-45720000D03*
X115570000Y-55880000D03*
X107950000Y-43180000D03*
X115570000Y-58420000D03*
G36*
G01*
X107099000Y-41440000D02*
X107099000Y-39840000D01*
G75*
G02*
X107150000Y-39789000I51000J0D01*
G01*
X108750000Y-39789000D01*
G75*
G02*
X108801000Y-39840000I0J-51000D01*
G01*
X108801000Y-41440000D01*
G75*
G02*
X108750000Y-41491000I-51000J0D01*
G01*
X107150000Y-41491000D01*
G75*
G02*
X107099000Y-41440000I0J51000D01*
G01*
G37*
X104140000Y-25400000D03*
X88900000Y-58420000D03*
X104140000Y-27940000D03*
X88900000Y-55880000D03*
X104140000Y-30480000D03*
X88900000Y-53340000D03*
X104140000Y-33020000D03*
X88900000Y-50800000D03*
X104140000Y-35560000D03*
X88900000Y-48260000D03*
X104140000Y-38100000D03*
X88900000Y-45720000D03*
X104140000Y-40640000D03*
X88900000Y-43180000D03*
X104140000Y-43180000D03*
X88900000Y-40640000D03*
X104140000Y-45720000D03*
X88900000Y-38100000D03*
X104140000Y-48260000D03*
X88900000Y-35560000D03*
X104140000Y-50800000D03*
X88900000Y-33020000D03*
X104140000Y-53340000D03*
X88900000Y-30480000D03*
X104140000Y-55880000D03*
X88900000Y-27940000D03*
X104140000Y-58420000D03*
G36*
G01*
X88049000Y-26200000D02*
X88049000Y-24600000D01*
G75*
G02*
X88100000Y-24549000I51000J0D01*
G01*
X89700000Y-24549000D01*
G75*
G02*
X89751000Y-24600000I0J-51000D01*
G01*
X89751000Y-26200000D01*
G75*
G02*
X89700000Y-26251000I-51000J0D01*
G01*
X88100000Y-26251000D01*
G75*
G02*
X88049000Y-26200000I0J51000D01*
G01*
G37*
X38100000Y-20320000D03*
X38100000Y-22860000D03*
X38100000Y-25400000D03*
X38100000Y-27940000D03*
G36*
G01*
X38900000Y-31331000D02*
X37300000Y-31331000D01*
G75*
G02*
X37249000Y-31280000I0J51000D01*
G01*
X37249000Y-29680000D01*
G75*
G02*
X37300000Y-29629000I51000J0D01*
G01*
X38900000Y-29629000D01*
G75*
G02*
X38951000Y-29680000I0J-51000D01*
G01*
X38951000Y-31280000D01*
G75*
G02*
X38900000Y-31331000I-51000J0D01*
G01*
G37*
D18*
X60960000Y-66040000D03*
X60960000Y-63500000D03*
X60960000Y-60960000D03*
X60960000Y-58420000D03*
X60960000Y-55880000D03*
X60960000Y-53340000D03*
X60960000Y-50800000D03*
X60960000Y-48260000D03*
X60960000Y-45720000D03*
X60960000Y-43180000D03*
X60960000Y-40640000D03*
X60960000Y-38100000D03*
X60960000Y-35560000D03*
X60960000Y-33020000D03*
X60960000Y-30480000D03*
X60960000Y-27940000D03*
G36*
G01*
X60059000Y-26250000D02*
X60059000Y-24550000D01*
G75*
G02*
X60110000Y-24499000I51000J0D01*
G01*
X61810000Y-24499000D01*
G75*
G02*
X61861000Y-24550000I0J-51000D01*
G01*
X61861000Y-26250000D01*
G75*
G02*
X61810000Y-26301000I-51000J0D01*
G01*
X60110000Y-26301000D01*
G75*
G02*
X60059000Y-26250000I0J51000D01*
G01*
G37*
D11*
X73660000Y-116840000D03*
X66040000Y-134620000D03*
X73660000Y-119380000D03*
X66040000Y-132080000D03*
X73660000Y-121920000D03*
X66040000Y-129540000D03*
X73660000Y-124460000D03*
X66040000Y-127000000D03*
X73660000Y-127000000D03*
X66040000Y-124460000D03*
X73660000Y-129540000D03*
X66040000Y-121920000D03*
X73660000Y-132080000D03*
X66040000Y-119380000D03*
X73660000Y-134620000D03*
G36*
G01*
X65189000Y-117640000D02*
X65189000Y-116040000D01*
G75*
G02*
X65240000Y-115989000I51000J0D01*
G01*
X66840000Y-115989000D01*
G75*
G02*
X66891000Y-116040000I0J-51000D01*
G01*
X66891000Y-117640000D01*
G75*
G02*
X66840000Y-117691000I-51000J0D01*
G01*
X65240000Y-117691000D01*
G75*
G02*
X65189000Y-117640000I0J51000D01*
G01*
G37*
X85090000Y-116840000D03*
X77470000Y-134620000D03*
X85090000Y-119380000D03*
X77470000Y-132080000D03*
X85090000Y-121920000D03*
X77470000Y-129540000D03*
X85090000Y-124460000D03*
X77470000Y-127000000D03*
X85090000Y-127000000D03*
X77470000Y-124460000D03*
X85090000Y-129540000D03*
X77470000Y-121920000D03*
X85090000Y-132080000D03*
X77470000Y-119380000D03*
X85090000Y-134620000D03*
G36*
G01*
X76619000Y-117640000D02*
X76619000Y-116040000D01*
G75*
G02*
X76670000Y-115989000I51000J0D01*
G01*
X78270000Y-115989000D01*
G75*
G02*
X78321000Y-116040000I0J-51000D01*
G01*
X78321000Y-117640000D01*
G75*
G02*
X78270000Y-117691000I-51000J0D01*
G01*
X76670000Y-117691000D01*
G75*
G02*
X76619000Y-117640000I0J51000D01*
G01*
G37*
X107950000Y-116840000D03*
X100330000Y-134620000D03*
X107950000Y-119380000D03*
X100330000Y-132080000D03*
X107950000Y-121920000D03*
X100330000Y-129540000D03*
X107950000Y-124460000D03*
X100330000Y-127000000D03*
X107950000Y-127000000D03*
X100330000Y-124460000D03*
X107950000Y-129540000D03*
X100330000Y-121920000D03*
X107950000Y-132080000D03*
X100330000Y-119380000D03*
X107950000Y-134620000D03*
G36*
G01*
X99479000Y-117640000D02*
X99479000Y-116040000D01*
G75*
G02*
X99530000Y-115989000I51000J0D01*
G01*
X101130000Y-115989000D01*
G75*
G02*
X101181000Y-116040000I0J-51000D01*
G01*
X101181000Y-117640000D01*
G75*
G02*
X101130000Y-117691000I-51000J0D01*
G01*
X99530000Y-117691000D01*
G75*
G02*
X99479000Y-117640000I0J51000D01*
G01*
G37*
X127000000Y-63500000D03*
X119380000Y-81280000D03*
X127000000Y-66040000D03*
X119380000Y-78740000D03*
X127000000Y-68580000D03*
X119380000Y-76200000D03*
X127000000Y-71120000D03*
X119380000Y-73660000D03*
X127000000Y-73660000D03*
X119380000Y-71120000D03*
X127000000Y-76200000D03*
X119380000Y-68580000D03*
X127000000Y-78740000D03*
X119380000Y-66040000D03*
X127000000Y-81280000D03*
G36*
G01*
X118529000Y-64300000D02*
X118529000Y-62700000D01*
G75*
G02*
X118580000Y-62649000I51000J0D01*
G01*
X120180000Y-62649000D01*
G75*
G02*
X120231000Y-62700000I0J-51000D01*
G01*
X120231000Y-64300000D01*
G75*
G02*
X120180000Y-64351000I-51000J0D01*
G01*
X118580000Y-64351000D01*
G75*
G02*
X118529000Y-64300000I0J51000D01*
G01*
G37*
X163830000Y-41910000D03*
X156210000Y-57150000D03*
X163830000Y-44450000D03*
X156210000Y-54610000D03*
X163830000Y-46990000D03*
X156210000Y-52070000D03*
X163830000Y-49530000D03*
X156210000Y-49530000D03*
X163830000Y-52070000D03*
X156210000Y-46990000D03*
X163830000Y-54610000D03*
X156210000Y-44450000D03*
X163830000Y-57150000D03*
G36*
G01*
X155359000Y-42710000D02*
X155359000Y-41110000D01*
G75*
G02*
X155410000Y-41059000I51000J0D01*
G01*
X157010000Y-41059000D01*
G75*
G02*
X157061000Y-41110000I0J-51000D01*
G01*
X157061000Y-42710000D01*
G75*
G02*
X157010000Y-42761000I-51000J0D01*
G01*
X155410000Y-42761000D01*
G75*
G02*
X155359000Y-42710000I0J51000D01*
G01*
G37*
X119380000Y-116840000D03*
X111760000Y-134620000D03*
X119380000Y-119380000D03*
X111760000Y-132080000D03*
X119380000Y-121920000D03*
X111760000Y-129540000D03*
X119380000Y-124460000D03*
X111760000Y-127000000D03*
X119380000Y-127000000D03*
X111760000Y-124460000D03*
X119380000Y-129540000D03*
X111760000Y-121920000D03*
X119380000Y-132080000D03*
X111760000Y-119380000D03*
X119380000Y-134620000D03*
G36*
G01*
X110909000Y-117640000D02*
X110909000Y-116040000D01*
G75*
G02*
X110960000Y-115989000I51000J0D01*
G01*
X112560000Y-115989000D01*
G75*
G02*
X112611000Y-116040000I0J-51000D01*
G01*
X112611000Y-117640000D01*
G75*
G02*
X112560000Y-117691000I-51000J0D01*
G01*
X110960000Y-117691000D01*
G75*
G02*
X110909000Y-117640000I0J51000D01*
G01*
G37*
X50800000Y-111760000D03*
X43180000Y-134620000D03*
X50800000Y-114300000D03*
X43180000Y-132080000D03*
X50800000Y-116840000D03*
X43180000Y-129540000D03*
X50800000Y-119380000D03*
X43180000Y-127000000D03*
X50800000Y-121920000D03*
X43180000Y-124460000D03*
X50800000Y-124460000D03*
X43180000Y-121920000D03*
X50800000Y-127000000D03*
X43180000Y-119380000D03*
X50800000Y-129540000D03*
X43180000Y-116840000D03*
X50800000Y-132080000D03*
X43180000Y-114300000D03*
X50800000Y-134620000D03*
G36*
G01*
X42329000Y-112560000D02*
X42329000Y-110960000D01*
G75*
G02*
X42380000Y-110909000I51000J0D01*
G01*
X43980000Y-110909000D01*
G75*
G02*
X44031000Y-110960000I0J-51000D01*
G01*
X44031000Y-112560000D01*
G75*
G02*
X43980000Y-112611000I-51000J0D01*
G01*
X42380000Y-112611000D01*
G75*
G02*
X42329000Y-112560000I0J51000D01*
G01*
G37*
X151130000Y-41910000D03*
X143510000Y-57150000D03*
X151130000Y-44450000D03*
X143510000Y-54610000D03*
X151130000Y-46990000D03*
X143510000Y-52070000D03*
X151130000Y-49530000D03*
X143510000Y-49530000D03*
X151130000Y-52070000D03*
X143510000Y-46990000D03*
X151130000Y-54610000D03*
X143510000Y-44450000D03*
X151130000Y-57150000D03*
G36*
G01*
X142659000Y-42710000D02*
X142659000Y-41110000D01*
G75*
G02*
X142710000Y-41059000I51000J0D01*
G01*
X144310000Y-41059000D01*
G75*
G02*
X144361000Y-41110000I0J-51000D01*
G01*
X144361000Y-42710000D01*
G75*
G02*
X144310000Y-42761000I-51000J0D01*
G01*
X142710000Y-42761000D01*
G75*
G02*
X142659000Y-42710000I0J51000D01*
G01*
G37*
X127000000Y-17780000D03*
X119380000Y-35560000D03*
X127000000Y-20320000D03*
X119380000Y-33020000D03*
X127000000Y-22860000D03*
X119380000Y-30480000D03*
X127000000Y-25400000D03*
X119380000Y-27940000D03*
X127000000Y-27940000D03*
X119380000Y-25400000D03*
X127000000Y-30480000D03*
X119380000Y-22860000D03*
X127000000Y-33020000D03*
X119380000Y-20320000D03*
X127000000Y-35560000D03*
G36*
G01*
X118529000Y-18580000D02*
X118529000Y-16980000D01*
G75*
G02*
X118580000Y-16929000I51000J0D01*
G01*
X120180000Y-16929000D01*
G75*
G02*
X120231000Y-16980000I0J-51000D01*
G01*
X120231000Y-18580000D01*
G75*
G02*
X120180000Y-18631000I-51000J0D01*
G01*
X118580000Y-18631000D01*
G75*
G02*
X118529000Y-18580000I0J51000D01*
G01*
G37*
X96520000Y-111760000D03*
X88900000Y-134620000D03*
X96520000Y-114300000D03*
X88900000Y-132080000D03*
X96520000Y-116840000D03*
X88900000Y-129540000D03*
X96520000Y-119380000D03*
X88900000Y-127000000D03*
X96520000Y-121920000D03*
X88900000Y-124460000D03*
X96520000Y-124460000D03*
X88900000Y-121920000D03*
X96520000Y-127000000D03*
X88900000Y-119380000D03*
X96520000Y-129540000D03*
X88900000Y-116840000D03*
X96520000Y-132080000D03*
X88900000Y-114300000D03*
X96520000Y-134620000D03*
G36*
G01*
X88049000Y-112560000D02*
X88049000Y-110960000D01*
G75*
G02*
X88100000Y-110909000I51000J0D01*
G01*
X89700000Y-110909000D01*
G75*
G02*
X89751000Y-110960000I0J-51000D01*
G01*
X89751000Y-112560000D01*
G75*
G02*
X89700000Y-112611000I-51000J0D01*
G01*
X88100000Y-112611000D01*
G75*
G02*
X88049000Y-112560000I0J51000D01*
G01*
G37*
G36*
G01*
X155634000Y-80760000D02*
X155634000Y-79260000D01*
G75*
G02*
X155685000Y-79209000I51000J0D01*
G01*
X156735000Y-79209000D01*
G75*
G02*
X156786000Y-79260000I0J-51000D01*
G01*
X156786000Y-80760000D01*
G75*
G02*
X156735000Y-80811000I-51000J0D01*
G01*
X155685000Y-80811000D01*
G75*
G02*
X155634000Y-80760000I0J51000D01*
G01*
G37*
D28*
X158750000Y-80010000D03*
X157480000Y-80010000D03*
D12*
X143510000Y-34290000D03*
X151130000Y-34290000D03*
X151130000Y-19050000D03*
G36*
G01*
X142710000Y-18199000D02*
X144310000Y-18199000D01*
G75*
G02*
X144361000Y-18250000I0J-51000D01*
G01*
X144361000Y-19850000D01*
G75*
G02*
X144310000Y-19901000I-51000J0D01*
G01*
X142710000Y-19901000D01*
G75*
G02*
X142659000Y-19850000I0J51000D01*
G01*
X142659000Y-18250000D01*
G75*
G02*
X142710000Y-18199000I51000J0D01*
G01*
G37*
G36*
G01*
X149284000Y-80760000D02*
X149284000Y-79260000D01*
G75*
G02*
X149335000Y-79209000I51000J0D01*
G01*
X150385000Y-79209000D01*
G75*
G02*
X150436000Y-79260000I0J-51000D01*
G01*
X150436000Y-80760000D01*
G75*
G02*
X150385000Y-80811000I-51000J0D01*
G01*
X149335000Y-80811000D01*
G75*
G02*
X149284000Y-80760000I0J51000D01*
G01*
G37*
D28*
X152400000Y-80010000D03*
X151130000Y-80010000D03*
G36*
G01*
X142934000Y-80760000D02*
X142934000Y-79260000D01*
G75*
G02*
X142985000Y-79209000I51000J0D01*
G01*
X144035000Y-79209000D01*
G75*
G02*
X144086000Y-79260000I0J-51000D01*
G01*
X144086000Y-80760000D01*
G75*
G02*
X144035000Y-80811000I-51000J0D01*
G01*
X142985000Y-80811000D01*
G75*
G02*
X142934000Y-80760000I0J51000D01*
G01*
G37*
X146050000Y-80010000D03*
X144780000Y-80010000D03*
G36*
G01*
X84514000Y-94730000D02*
X84514000Y-93230000D01*
G75*
G02*
X84565000Y-93179000I51000J0D01*
G01*
X85615000Y-93179000D01*
G75*
G02*
X85666000Y-93230000I0J-51000D01*
G01*
X85666000Y-94730000D01*
G75*
G02*
X85615000Y-94781000I-51000J0D01*
G01*
X84565000Y-94781000D01*
G75*
G02*
X84514000Y-94730000I0J51000D01*
G01*
G37*
X87630000Y-93980000D03*
X86360000Y-93980000D03*
G36*
G01*
X52764000Y-106160000D02*
X52764000Y-104660000D01*
G75*
G02*
X52815000Y-104609000I51000J0D01*
G01*
X53865000Y-104609000D01*
G75*
G02*
X53916000Y-104660000I0J-51000D01*
G01*
X53916000Y-106160000D01*
G75*
G02*
X53865000Y-106211000I-51000J0D01*
G01*
X52815000Y-106211000D01*
G75*
G02*
X52764000Y-106160000I0J51000D01*
G01*
G37*
X55880000Y-105410000D03*
X54610000Y-105410000D03*
G36*
G01*
X59114000Y-106160000D02*
X59114000Y-104660000D01*
G75*
G02*
X59165000Y-104609000I51000J0D01*
G01*
X60215000Y-104609000D01*
G75*
G02*
X60266000Y-104660000I0J-51000D01*
G01*
X60266000Y-106160000D01*
G75*
G02*
X60215000Y-106211000I-51000J0D01*
G01*
X59165000Y-106211000D01*
G75*
G02*
X59114000Y-106160000I0J51000D01*
G01*
G37*
X62230000Y-105410000D03*
X60960000Y-105410000D03*
D20*
G36*
X176382277Y-131862453D02*
G01*
X176382779Y-131864210D01*
X176365339Y-131951886D01*
X176365339Y-132128114D01*
X176382779Y-132215790D01*
X176382136Y-132217684D01*
X176380174Y-132218074D01*
X176378903Y-132216761D01*
X176373627Y-132199369D01*
X176362262Y-132178105D01*
X176346967Y-132159468D01*
X176328330Y-132144173D01*
X176307066Y-132132808D01*
X176283991Y-132125808D01*
X176260000Y-132123445D01*
X176236009Y-132125808D01*
X176212934Y-132132808D01*
X176191670Y-132144173D01*
X176173033Y-132159468D01*
X176157738Y-132178105D01*
X176146373Y-132199369D01*
X176141097Y-132216761D01*
X176139637Y-132218128D01*
X176137723Y-132217547D01*
X176137221Y-132215790D01*
X176154661Y-132128114D01*
X176154661Y-131951886D01*
X176137221Y-131864210D01*
X176137864Y-131862316D01*
X176139826Y-131861926D01*
X176141097Y-131863239D01*
X176146373Y-131880631D01*
X176157738Y-131901895D01*
X176173033Y-131920532D01*
X176191670Y-131935827D01*
X176212934Y-131947192D01*
X176236009Y-131954192D01*
X176260000Y-131956555D01*
X176283991Y-131954192D01*
X176307066Y-131947192D01*
X176328330Y-131935827D01*
X176346967Y-131920532D01*
X176362262Y-131901895D01*
X176373627Y-131880631D01*
X176378903Y-131863239D01*
X176380363Y-131861872D01*
X176382277Y-131862453D01*
G37*
G36*
X176162990Y-129223095D02*
G01*
X176165372Y-129247282D01*
X176172372Y-129270357D01*
X176183737Y-129291621D01*
X176199032Y-129310258D01*
X176217669Y-129325553D01*
X176238933Y-129336918D01*
X176262008Y-129343918D01*
X176285999Y-129346281D01*
X176309990Y-129343918D01*
X176333065Y-129336918D01*
X176354329Y-129325553D01*
X176372966Y-129310258D01*
X176388261Y-129291621D01*
X176396828Y-129275592D01*
X176398527Y-129274536D01*
X176400290Y-129275479D01*
X176400440Y-129277300D01*
X176399721Y-129279036D01*
X176365339Y-129451886D01*
X176365339Y-129628114D01*
X176399721Y-129800964D01*
X176400440Y-129802700D01*
X176400179Y-129804682D01*
X176398331Y-129805448D01*
X176396828Y-129804408D01*
X176388261Y-129788379D01*
X176372965Y-129769742D01*
X176354328Y-129754447D01*
X176333065Y-129743082D01*
X176309990Y-129736082D01*
X176285999Y-129733719D01*
X176262008Y-129736082D01*
X176238933Y-129743082D01*
X176217669Y-129754447D01*
X176199032Y-129769743D01*
X176183737Y-129788380D01*
X176172372Y-129809643D01*
X176165372Y-129832718D01*
X176162990Y-129856905D01*
X176161825Y-129858531D01*
X176159835Y-129858335D01*
X176159000Y-129856709D01*
X176159000Y-129223291D01*
X176160000Y-129221559D01*
X176162000Y-129221559D01*
X176162990Y-129223095D01*
G37*
G36*
X73878095Y-108329824D02*
G01*
X73878860Y-108331672D01*
X73877820Y-108333175D01*
X73861796Y-108341739D01*
X73843159Y-108357035D01*
X73827864Y-108375672D01*
X73816499Y-108396935D01*
X73809499Y-108420010D01*
X73807136Y-108444001D01*
X73809499Y-108467992D01*
X73816499Y-108491067D01*
X73827864Y-108512331D01*
X73843160Y-108530968D01*
X73861797Y-108546263D01*
X73883060Y-108557628D01*
X73906135Y-108564628D01*
X73930322Y-108567010D01*
X73931948Y-108568175D01*
X73931752Y-108570165D01*
X73930126Y-108571000D01*
X73389874Y-108571000D01*
X73388142Y-108570000D01*
X73388142Y-108568000D01*
X73389678Y-108567010D01*
X73413865Y-108564628D01*
X73436940Y-108557628D01*
X73458204Y-108546263D01*
X73476841Y-108530968D01*
X73492136Y-108512331D01*
X73503501Y-108491067D01*
X73510501Y-108467992D01*
X73512864Y-108444001D01*
X73510501Y-108420010D01*
X73503501Y-108396935D01*
X73492136Y-108375671D01*
X73476841Y-108357034D01*
X73458204Y-108341739D01*
X73442180Y-108333175D01*
X73441124Y-108331476D01*
X73442067Y-108329713D01*
X73443888Y-108329563D01*
X73471607Y-108341044D01*
X73596390Y-108365865D01*
X73723610Y-108365865D01*
X73848393Y-108341044D01*
X73876112Y-108329563D01*
X73878095Y-108329824D01*
G37*
G36*
X78958095Y-108329824D02*
G01*
X78958860Y-108331672D01*
X78957820Y-108333175D01*
X78941796Y-108341739D01*
X78923159Y-108357035D01*
X78907864Y-108375672D01*
X78896499Y-108396935D01*
X78889499Y-108420010D01*
X78887136Y-108444001D01*
X78889499Y-108467992D01*
X78896499Y-108491067D01*
X78907864Y-108512331D01*
X78923160Y-108530968D01*
X78941797Y-108546263D01*
X78963060Y-108557628D01*
X78986135Y-108564628D01*
X79010322Y-108567010D01*
X79011948Y-108568175D01*
X79011752Y-108570165D01*
X79010126Y-108571000D01*
X78469874Y-108571000D01*
X78468142Y-108570000D01*
X78468142Y-108568000D01*
X78469678Y-108567010D01*
X78493865Y-108564628D01*
X78516940Y-108557628D01*
X78538204Y-108546263D01*
X78556841Y-108530968D01*
X78572136Y-108512331D01*
X78583501Y-108491067D01*
X78590501Y-108467992D01*
X78592864Y-108444001D01*
X78590501Y-108420010D01*
X78583501Y-108396935D01*
X78572136Y-108375671D01*
X78556841Y-108357034D01*
X78538204Y-108341739D01*
X78522180Y-108333175D01*
X78521124Y-108331476D01*
X78522067Y-108329713D01*
X78523888Y-108329563D01*
X78551607Y-108341044D01*
X78676390Y-108365865D01*
X78803610Y-108365865D01*
X78928393Y-108341044D01*
X78956112Y-108329563D01*
X78958095Y-108329824D01*
G37*
G36*
X60267990Y-104778465D02*
G01*
X60270372Y-104802652D01*
X60277372Y-104825727D01*
X60288737Y-104846991D01*
X60304032Y-104865628D01*
X60322669Y-104880923D01*
X60343933Y-104892288D01*
X60367008Y-104899288D01*
X60390999Y-104901651D01*
X60414990Y-104899288D01*
X60438065Y-104892288D01*
X60459329Y-104880923D01*
X60478005Y-104865596D01*
X60479339Y-104864124D01*
X60481243Y-104863512D01*
X60482725Y-104864855D01*
X60482585Y-104866410D01*
X60429702Y-104965344D01*
X60397038Y-105073024D01*
X60386000Y-105185094D01*
X60386000Y-105634906D01*
X60397038Y-105746977D01*
X60429702Y-105854657D01*
X60482746Y-105953892D01*
X60484836Y-105956438D01*
X60485162Y-105958412D01*
X60483616Y-105959680D01*
X60481876Y-105959121D01*
X60469023Y-105946268D01*
X60448976Y-105932873D01*
X60426702Y-105923647D01*
X60403051Y-105918943D01*
X60378945Y-105918943D01*
X60355295Y-105923648D01*
X60333021Y-105932874D01*
X60312974Y-105946269D01*
X60295927Y-105963316D01*
X60282532Y-105983363D01*
X60273323Y-106005594D01*
X60267978Y-106041633D01*
X60266735Y-106043200D01*
X60264757Y-106042907D01*
X60264000Y-106041340D01*
X60264000Y-104778661D01*
X60265000Y-104776929D01*
X60267000Y-104776929D01*
X60267990Y-104778465D01*
G37*
G36*
X53917990Y-104778465D02*
G01*
X53920372Y-104802652D01*
X53927372Y-104825727D01*
X53938737Y-104846991D01*
X53954032Y-104865628D01*
X53972669Y-104880923D01*
X53993933Y-104892288D01*
X54017008Y-104899288D01*
X54040999Y-104901651D01*
X54064990Y-104899288D01*
X54088065Y-104892288D01*
X54109329Y-104880923D01*
X54128005Y-104865596D01*
X54129339Y-104864124D01*
X54131243Y-104863512D01*
X54132725Y-104864855D01*
X54132585Y-104866410D01*
X54079702Y-104965344D01*
X54047038Y-105073024D01*
X54036000Y-105185094D01*
X54036000Y-105634906D01*
X54047038Y-105746977D01*
X54079702Y-105854657D01*
X54132746Y-105953892D01*
X54134836Y-105956438D01*
X54135162Y-105958412D01*
X54133616Y-105959680D01*
X54131876Y-105959121D01*
X54119023Y-105946268D01*
X54098976Y-105932873D01*
X54076702Y-105923647D01*
X54053051Y-105918943D01*
X54028945Y-105918943D01*
X54005295Y-105923648D01*
X53983021Y-105932874D01*
X53962974Y-105946269D01*
X53945927Y-105963316D01*
X53932532Y-105983363D01*
X53923323Y-106005594D01*
X53917978Y-106041633D01*
X53916735Y-106043200D01*
X53914757Y-106042907D01*
X53914000Y-106041340D01*
X53914000Y-104778661D01*
X53915000Y-104776929D01*
X53917000Y-104776929D01*
X53917990Y-104778465D01*
G37*
G36*
X55353621Y-104956240D02*
G01*
X55353591Y-104958068D01*
X55349702Y-104965344D01*
X55317038Y-105073024D01*
X55306000Y-105185094D01*
X55306000Y-105634906D01*
X55317038Y-105746977D01*
X55349702Y-105854657D01*
X55353591Y-105861933D01*
X55353525Y-105863932D01*
X55351762Y-105864875D01*
X55350164Y-105863987D01*
X55340071Y-105848882D01*
X55323024Y-105831835D01*
X55302976Y-105818440D01*
X55280702Y-105809214D01*
X55257052Y-105804510D01*
X55232946Y-105804510D01*
X55209296Y-105809215D01*
X55187022Y-105818441D01*
X55166975Y-105831836D01*
X55149928Y-105848883D01*
X55139836Y-105863987D01*
X55138042Y-105864872D01*
X55136379Y-105863761D01*
X55136409Y-105861933D01*
X55140298Y-105854657D01*
X55172962Y-105746977D01*
X55184000Y-105634905D01*
X55184000Y-105185094D01*
X55172962Y-105073023D01*
X55140298Y-104965343D01*
X55136411Y-104958072D01*
X55136477Y-104956073D01*
X55138240Y-104955130D01*
X55139838Y-104956018D01*
X55149929Y-104971119D01*
X55166976Y-104988166D01*
X55187023Y-105001561D01*
X55209297Y-105010787D01*
X55232947Y-105015491D01*
X55257054Y-105015491D01*
X55280704Y-105010786D01*
X55302978Y-105001560D01*
X55323025Y-104988165D01*
X55340072Y-104971118D01*
X55350164Y-104956014D01*
X55351958Y-104955129D01*
X55353621Y-104956240D01*
G37*
G36*
X61703621Y-104956240D02*
G01*
X61703591Y-104958068D01*
X61699702Y-104965344D01*
X61667038Y-105073024D01*
X61656000Y-105185094D01*
X61656000Y-105634906D01*
X61667038Y-105746977D01*
X61699702Y-105854657D01*
X61703591Y-105861933D01*
X61703525Y-105863932D01*
X61701762Y-105864875D01*
X61700164Y-105863987D01*
X61690071Y-105848882D01*
X61673024Y-105831835D01*
X61652976Y-105818440D01*
X61630702Y-105809214D01*
X61607052Y-105804510D01*
X61582946Y-105804510D01*
X61559296Y-105809215D01*
X61537022Y-105818441D01*
X61516975Y-105831836D01*
X61499928Y-105848883D01*
X61489836Y-105863987D01*
X61488042Y-105864872D01*
X61486379Y-105863761D01*
X61486409Y-105861933D01*
X61490298Y-105854657D01*
X61522962Y-105746977D01*
X61534000Y-105634905D01*
X61534000Y-105185094D01*
X61522962Y-105073023D01*
X61490298Y-104965343D01*
X61486411Y-104958072D01*
X61486477Y-104956073D01*
X61488240Y-104955130D01*
X61489838Y-104956018D01*
X61499929Y-104971119D01*
X61516976Y-104988166D01*
X61537023Y-105001561D01*
X61559297Y-105010787D01*
X61582947Y-105015491D01*
X61607054Y-105015491D01*
X61630704Y-105010786D01*
X61652978Y-105001560D01*
X61673025Y-104988165D01*
X61690072Y-104971118D01*
X61700164Y-104956014D01*
X61701958Y-104955129D01*
X61703621Y-104956240D01*
G37*
G36*
X143042732Y-98340000D02*
G01*
X143043000Y-98341000D01*
X143043000Y-98404252D01*
X143042764Y-98405195D01*
X143035421Y-98418933D01*
X143028421Y-98442008D01*
X143026058Y-98465999D01*
X143028421Y-98489990D01*
X143035478Y-98513253D01*
X143035024Y-98515201D01*
X143033110Y-98515782D01*
X143031800Y-98514777D01*
X143030734Y-98512782D01*
X143024641Y-98505359D01*
X143017218Y-98499266D01*
X143008748Y-98494739D01*
X142999555Y-98491950D01*
X142989906Y-98491000D01*
X141490094Y-98491000D01*
X141480445Y-98491950D01*
X141471252Y-98494739D01*
X141462782Y-98499266D01*
X141455359Y-98505359D01*
X141449266Y-98512782D01*
X141446100Y-98518707D01*
X141444402Y-98519763D01*
X141442638Y-98518820D01*
X141442422Y-98517184D01*
X141442912Y-98515567D01*
X141442978Y-98515382D01*
X141448644Y-98501703D01*
X141453349Y-98478053D01*
X141453349Y-98453946D01*
X141448645Y-98430296D01*
X141439419Y-98408022D01*
X141437337Y-98404906D01*
X141437000Y-98403795D01*
X141437000Y-98341000D01*
X141438000Y-98339268D01*
X141439000Y-98339000D01*
X143041000Y-98339000D01*
X143042732Y-98340000D01*
G37*
G36*
X143037362Y-97061180D02*
G01*
X143037578Y-97062816D01*
X143037088Y-97064433D01*
X143037022Y-97064618D01*
X143031356Y-97078297D01*
X143026651Y-97101947D01*
X143026651Y-97126054D01*
X143031355Y-97149704D01*
X143040581Y-97171978D01*
X143042663Y-97175094D01*
X143043000Y-97176205D01*
X143043000Y-97239000D01*
X143042000Y-97240732D01*
X143041000Y-97241000D01*
X141439000Y-97241000D01*
X141437268Y-97240000D01*
X141437000Y-97239000D01*
X141437000Y-97175748D01*
X141437236Y-97174805D01*
X141444579Y-97161067D01*
X141451579Y-97137992D01*
X141453942Y-97114001D01*
X141451579Y-97090010D01*
X141444522Y-97066747D01*
X141444976Y-97064799D01*
X141446890Y-97064218D01*
X141448200Y-97065223D01*
X141449266Y-97067218D01*
X141455359Y-97074641D01*
X141462782Y-97080734D01*
X141471252Y-97085261D01*
X141480445Y-97088050D01*
X141490094Y-97089000D01*
X142989906Y-97089000D01*
X142999555Y-97088050D01*
X143008748Y-97085261D01*
X143017218Y-97080734D01*
X143024641Y-97074641D01*
X143030734Y-97067218D01*
X143033900Y-97061293D01*
X143035598Y-97060237D01*
X143037362Y-97061180D01*
G37*
G36*
X85667990Y-93348465D02*
G01*
X85670372Y-93372652D01*
X85677372Y-93395727D01*
X85688737Y-93416991D01*
X85704032Y-93435628D01*
X85722669Y-93450923D01*
X85743933Y-93462288D01*
X85767008Y-93469288D01*
X85790999Y-93471651D01*
X85814990Y-93469288D01*
X85838065Y-93462288D01*
X85859329Y-93450923D01*
X85878005Y-93435596D01*
X85879339Y-93434124D01*
X85881243Y-93433512D01*
X85882725Y-93434855D01*
X85882585Y-93436410D01*
X85829702Y-93535344D01*
X85797038Y-93643024D01*
X85786000Y-93755094D01*
X85786000Y-94204906D01*
X85797038Y-94316977D01*
X85829702Y-94424657D01*
X85882746Y-94523892D01*
X85884836Y-94526438D01*
X85885162Y-94528412D01*
X85883616Y-94529680D01*
X85881876Y-94529121D01*
X85869023Y-94516268D01*
X85848976Y-94502873D01*
X85826702Y-94493647D01*
X85803051Y-94488943D01*
X85778945Y-94488943D01*
X85755295Y-94493648D01*
X85733021Y-94502874D01*
X85712974Y-94516269D01*
X85695927Y-94533316D01*
X85682532Y-94553363D01*
X85673323Y-94575594D01*
X85667978Y-94611633D01*
X85666735Y-94613200D01*
X85664757Y-94612907D01*
X85664000Y-94611340D01*
X85664000Y-93348661D01*
X85665000Y-93346929D01*
X85667000Y-93346929D01*
X85667990Y-93348465D01*
G37*
G36*
X87103621Y-93526240D02*
G01*
X87103591Y-93528068D01*
X87099702Y-93535344D01*
X87067038Y-93643024D01*
X87056000Y-93755094D01*
X87056000Y-94204906D01*
X87067038Y-94316977D01*
X87099702Y-94424657D01*
X87103591Y-94431933D01*
X87103525Y-94433932D01*
X87101762Y-94434875D01*
X87100164Y-94433987D01*
X87090071Y-94418882D01*
X87073024Y-94401835D01*
X87052976Y-94388440D01*
X87030702Y-94379214D01*
X87007052Y-94374510D01*
X86982946Y-94374510D01*
X86959296Y-94379215D01*
X86937022Y-94388441D01*
X86916975Y-94401836D01*
X86899928Y-94418883D01*
X86889836Y-94433987D01*
X86888042Y-94434872D01*
X86886379Y-94433761D01*
X86886409Y-94431933D01*
X86890298Y-94424657D01*
X86922962Y-94316977D01*
X86934000Y-94204905D01*
X86934000Y-93755094D01*
X86922962Y-93643023D01*
X86890298Y-93535343D01*
X86886411Y-93528072D01*
X86886477Y-93526073D01*
X86888240Y-93525130D01*
X86889838Y-93526018D01*
X86899929Y-93541119D01*
X86916976Y-93558166D01*
X86937023Y-93571561D01*
X86959297Y-93580787D01*
X86982947Y-93585491D01*
X87007054Y-93585491D01*
X87030704Y-93580786D01*
X87052978Y-93571560D01*
X87073025Y-93558165D01*
X87090072Y-93541118D01*
X87100164Y-93526014D01*
X87101958Y-93525129D01*
X87103621Y-93526240D01*
G37*
G36*
X134002990Y-91169678D02*
G01*
X134005372Y-91193865D01*
X134012372Y-91216940D01*
X134023737Y-91238204D01*
X134039032Y-91256841D01*
X134057669Y-91272136D01*
X134078933Y-91283501D01*
X134102008Y-91290501D01*
X134125999Y-91292864D01*
X134149990Y-91290501D01*
X134173065Y-91283501D01*
X134194329Y-91272136D01*
X134212966Y-91256841D01*
X134228261Y-91238204D01*
X134236825Y-91222180D01*
X134238524Y-91221124D01*
X134240287Y-91222067D01*
X134240437Y-91223888D01*
X134228956Y-91251607D01*
X134204135Y-91376390D01*
X134204135Y-91503610D01*
X134228956Y-91628393D01*
X134240437Y-91656112D01*
X134240176Y-91658095D01*
X134238328Y-91658860D01*
X134236825Y-91657820D01*
X134228261Y-91641796D01*
X134212965Y-91623159D01*
X134194328Y-91607864D01*
X134173065Y-91596499D01*
X134149990Y-91589499D01*
X134125999Y-91587136D01*
X134102008Y-91589499D01*
X134078933Y-91596499D01*
X134057669Y-91607864D01*
X134039032Y-91623160D01*
X134023737Y-91641797D01*
X134012372Y-91663060D01*
X134005372Y-91686135D01*
X134002990Y-91710322D01*
X134001825Y-91711948D01*
X133999835Y-91711752D01*
X133999000Y-91710126D01*
X133999000Y-91169874D01*
X134000000Y-91168142D01*
X134002000Y-91168142D01*
X134002990Y-91169678D01*
G37*
G36*
X134002990Y-86089678D02*
G01*
X134005372Y-86113865D01*
X134012372Y-86136940D01*
X134023737Y-86158204D01*
X134039032Y-86176841D01*
X134057669Y-86192136D01*
X134078933Y-86203501D01*
X134102008Y-86210501D01*
X134125999Y-86212864D01*
X134149990Y-86210501D01*
X134173065Y-86203501D01*
X134194329Y-86192136D01*
X134212966Y-86176841D01*
X134228261Y-86158204D01*
X134236825Y-86142180D01*
X134238524Y-86141124D01*
X134240287Y-86142067D01*
X134240437Y-86143888D01*
X134228956Y-86171607D01*
X134204135Y-86296390D01*
X134204135Y-86423610D01*
X134228956Y-86548393D01*
X134240437Y-86576112D01*
X134240176Y-86578095D01*
X134238328Y-86578860D01*
X134236825Y-86577820D01*
X134228261Y-86561796D01*
X134212965Y-86543159D01*
X134194328Y-86527864D01*
X134173065Y-86516499D01*
X134149990Y-86509499D01*
X134125999Y-86507136D01*
X134102008Y-86509499D01*
X134078933Y-86516499D01*
X134057669Y-86527864D01*
X134039032Y-86543160D01*
X134023737Y-86561797D01*
X134012372Y-86583060D01*
X134005372Y-86606135D01*
X134002990Y-86630322D01*
X134001825Y-86631948D01*
X133999835Y-86631752D01*
X133999000Y-86630126D01*
X133999000Y-86089874D01*
X134000000Y-86088142D01*
X134002000Y-86088142D01*
X134002990Y-86089678D01*
G37*
G36*
X144087990Y-79378465D02*
G01*
X144090372Y-79402652D01*
X144097372Y-79425727D01*
X144108737Y-79446991D01*
X144124032Y-79465628D01*
X144142669Y-79480923D01*
X144163933Y-79492288D01*
X144187008Y-79499288D01*
X144210999Y-79501651D01*
X144234990Y-79499288D01*
X144258065Y-79492288D01*
X144279329Y-79480923D01*
X144298005Y-79465596D01*
X144299339Y-79464124D01*
X144301243Y-79463512D01*
X144302725Y-79464855D01*
X144302585Y-79466410D01*
X144249702Y-79565344D01*
X144217038Y-79673024D01*
X144206000Y-79785094D01*
X144206000Y-80234906D01*
X144217038Y-80346977D01*
X144249702Y-80454657D01*
X144302746Y-80553892D01*
X144304836Y-80556438D01*
X144305162Y-80558412D01*
X144303616Y-80559680D01*
X144301876Y-80559121D01*
X144289023Y-80546268D01*
X144268976Y-80532873D01*
X144246702Y-80523647D01*
X144223051Y-80518943D01*
X144198945Y-80518943D01*
X144175295Y-80523648D01*
X144153021Y-80532874D01*
X144132974Y-80546269D01*
X144115927Y-80563316D01*
X144102532Y-80583363D01*
X144093323Y-80605594D01*
X144087978Y-80641633D01*
X144086735Y-80643200D01*
X144084757Y-80642907D01*
X144084000Y-80641340D01*
X144084000Y-79378661D01*
X144085000Y-79376929D01*
X144087000Y-79376929D01*
X144087990Y-79378465D01*
G37*
G36*
X156787990Y-79378465D02*
G01*
X156790372Y-79402652D01*
X156797372Y-79425727D01*
X156808737Y-79446991D01*
X156824032Y-79465628D01*
X156842669Y-79480923D01*
X156863933Y-79492288D01*
X156887008Y-79499288D01*
X156910999Y-79501651D01*
X156934990Y-79499288D01*
X156958065Y-79492288D01*
X156979329Y-79480923D01*
X156998005Y-79465596D01*
X156999339Y-79464124D01*
X157001243Y-79463512D01*
X157002725Y-79464855D01*
X157002585Y-79466410D01*
X156949702Y-79565344D01*
X156917038Y-79673024D01*
X156906000Y-79785094D01*
X156906000Y-80234906D01*
X156917038Y-80346977D01*
X156949702Y-80454657D01*
X157002746Y-80553892D01*
X157004836Y-80556438D01*
X157005162Y-80558412D01*
X157003616Y-80559680D01*
X157001876Y-80559121D01*
X156989023Y-80546268D01*
X156968976Y-80532873D01*
X156946702Y-80523647D01*
X156923051Y-80518943D01*
X156898945Y-80518943D01*
X156875295Y-80523648D01*
X156853021Y-80532874D01*
X156832974Y-80546269D01*
X156815927Y-80563316D01*
X156802532Y-80583363D01*
X156793323Y-80605594D01*
X156787978Y-80641633D01*
X156786735Y-80643200D01*
X156784757Y-80642907D01*
X156784000Y-80641340D01*
X156784000Y-79378661D01*
X156785000Y-79376929D01*
X156787000Y-79376929D01*
X156787990Y-79378465D01*
G37*
G36*
X150437990Y-79378465D02*
G01*
X150440372Y-79402652D01*
X150447372Y-79425727D01*
X150458737Y-79446991D01*
X150474032Y-79465628D01*
X150492669Y-79480923D01*
X150513933Y-79492288D01*
X150537008Y-79499288D01*
X150560999Y-79501651D01*
X150584990Y-79499288D01*
X150608065Y-79492288D01*
X150629329Y-79480923D01*
X150648005Y-79465596D01*
X150649339Y-79464124D01*
X150651243Y-79463512D01*
X150652725Y-79464855D01*
X150652585Y-79466410D01*
X150599702Y-79565344D01*
X150567038Y-79673024D01*
X150556000Y-79785094D01*
X150556000Y-80234906D01*
X150567038Y-80346977D01*
X150599702Y-80454657D01*
X150652746Y-80553892D01*
X150654836Y-80556438D01*
X150655162Y-80558412D01*
X150653616Y-80559680D01*
X150651876Y-80559121D01*
X150639023Y-80546268D01*
X150618976Y-80532873D01*
X150596702Y-80523647D01*
X150573051Y-80518943D01*
X150548945Y-80518943D01*
X150525295Y-80523648D01*
X150503021Y-80532874D01*
X150482974Y-80546269D01*
X150465927Y-80563316D01*
X150452532Y-80583363D01*
X150443323Y-80605594D01*
X150437978Y-80641633D01*
X150436735Y-80643200D01*
X150434757Y-80642907D01*
X150434000Y-80641340D01*
X150434000Y-79378661D01*
X150435000Y-79376929D01*
X150437000Y-79376929D01*
X150437990Y-79378465D01*
G37*
G36*
X151873621Y-79556240D02*
G01*
X151873591Y-79558068D01*
X151869702Y-79565344D01*
X151837038Y-79673024D01*
X151826000Y-79785094D01*
X151826000Y-80234906D01*
X151837038Y-80346977D01*
X151869702Y-80454657D01*
X151873591Y-80461933D01*
X151873525Y-80463932D01*
X151871762Y-80464875D01*
X151870164Y-80463987D01*
X151860071Y-80448882D01*
X151843024Y-80431835D01*
X151822976Y-80418440D01*
X151800702Y-80409214D01*
X151777052Y-80404510D01*
X151752946Y-80404510D01*
X151729296Y-80409215D01*
X151707022Y-80418441D01*
X151686975Y-80431836D01*
X151669928Y-80448883D01*
X151659836Y-80463987D01*
X151658042Y-80464872D01*
X151656379Y-80463761D01*
X151656409Y-80461933D01*
X151660298Y-80454657D01*
X151692962Y-80346977D01*
X151704000Y-80234905D01*
X151704000Y-79785094D01*
X151692962Y-79673023D01*
X151660298Y-79565343D01*
X151656411Y-79558072D01*
X151656477Y-79556073D01*
X151658240Y-79555130D01*
X151659838Y-79556018D01*
X151669929Y-79571119D01*
X151686976Y-79588166D01*
X151707023Y-79601561D01*
X151729297Y-79610787D01*
X151752947Y-79615491D01*
X151777054Y-79615491D01*
X151800704Y-79610786D01*
X151822978Y-79601560D01*
X151843025Y-79588165D01*
X151860072Y-79571118D01*
X151870164Y-79556014D01*
X151871958Y-79555129D01*
X151873621Y-79556240D01*
G37*
G36*
X158223621Y-79556240D02*
G01*
X158223591Y-79558068D01*
X158219702Y-79565344D01*
X158187038Y-79673024D01*
X158176000Y-79785094D01*
X158176000Y-80234906D01*
X158187038Y-80346977D01*
X158219702Y-80454657D01*
X158223591Y-80461933D01*
X158223525Y-80463932D01*
X158221762Y-80464875D01*
X158220164Y-80463987D01*
X158210071Y-80448882D01*
X158193024Y-80431835D01*
X158172976Y-80418440D01*
X158150702Y-80409214D01*
X158127052Y-80404510D01*
X158102946Y-80404510D01*
X158079296Y-80409215D01*
X158057022Y-80418441D01*
X158036975Y-80431836D01*
X158019928Y-80448883D01*
X158009836Y-80463987D01*
X158008042Y-80464872D01*
X158006379Y-80463761D01*
X158006409Y-80461933D01*
X158010298Y-80454657D01*
X158042962Y-80346977D01*
X158054000Y-80234905D01*
X158054000Y-79785094D01*
X158042962Y-79673023D01*
X158010298Y-79565343D01*
X158006411Y-79558072D01*
X158006477Y-79556073D01*
X158008240Y-79555130D01*
X158009838Y-79556018D01*
X158019929Y-79571119D01*
X158036976Y-79588166D01*
X158057023Y-79601561D01*
X158079297Y-79610787D01*
X158102947Y-79615491D01*
X158127054Y-79615491D01*
X158150704Y-79610786D01*
X158172978Y-79601560D01*
X158193025Y-79588165D01*
X158210072Y-79571118D01*
X158220164Y-79556014D01*
X158221958Y-79555129D01*
X158223621Y-79556240D01*
G37*
G36*
X145523621Y-79556240D02*
G01*
X145523591Y-79558068D01*
X145519702Y-79565344D01*
X145487038Y-79673024D01*
X145476000Y-79785094D01*
X145476000Y-80234906D01*
X145487038Y-80346977D01*
X145519702Y-80454657D01*
X145523591Y-80461933D01*
X145523525Y-80463932D01*
X145521762Y-80464875D01*
X145520164Y-80463987D01*
X145510071Y-80448882D01*
X145493024Y-80431835D01*
X145472976Y-80418440D01*
X145450702Y-80409214D01*
X145427052Y-80404510D01*
X145402946Y-80404510D01*
X145379296Y-80409215D01*
X145357022Y-80418441D01*
X145336975Y-80431836D01*
X145319928Y-80448883D01*
X145309836Y-80463987D01*
X145308042Y-80464872D01*
X145306379Y-80463761D01*
X145306409Y-80461933D01*
X145310298Y-80454657D01*
X145342962Y-80346977D01*
X145354000Y-80234905D01*
X145354000Y-79785094D01*
X145342962Y-79673023D01*
X145310298Y-79565343D01*
X145306411Y-79558072D01*
X145306477Y-79556073D01*
X145308240Y-79555130D01*
X145309838Y-79556018D01*
X145319929Y-79571119D01*
X145336976Y-79588166D01*
X145357023Y-79601561D01*
X145379297Y-79610787D01*
X145402947Y-79615491D01*
X145427054Y-79615491D01*
X145450704Y-79610786D01*
X145472978Y-79601560D01*
X145493025Y-79588165D01*
X145510072Y-79571118D01*
X145520164Y-79556014D01*
X145521958Y-79555129D01*
X145523621Y-79556240D01*
G37*
G36*
X156227990Y-73389678D02*
G01*
X156230372Y-73413865D01*
X156237372Y-73436940D01*
X156248737Y-73458204D01*
X156264032Y-73476841D01*
X156282669Y-73492136D01*
X156303933Y-73503501D01*
X156327008Y-73510501D01*
X156350999Y-73512864D01*
X156374990Y-73510501D01*
X156398065Y-73503501D01*
X156419329Y-73492136D01*
X156437966Y-73476841D01*
X156453261Y-73458204D01*
X156461825Y-73442180D01*
X156463524Y-73441124D01*
X156465287Y-73442067D01*
X156465437Y-73443888D01*
X156453956Y-73471607D01*
X156429135Y-73596390D01*
X156429135Y-73723610D01*
X156453956Y-73848393D01*
X156465437Y-73876112D01*
X156465176Y-73878095D01*
X156463328Y-73878860D01*
X156461825Y-73877820D01*
X156453261Y-73861796D01*
X156437965Y-73843159D01*
X156419328Y-73827864D01*
X156398065Y-73816499D01*
X156374990Y-73809499D01*
X156350999Y-73807136D01*
X156327008Y-73809499D01*
X156303933Y-73816499D01*
X156282669Y-73827864D01*
X156264032Y-73843160D01*
X156248737Y-73861797D01*
X156237372Y-73883060D01*
X156230372Y-73906135D01*
X156227990Y-73930322D01*
X156226825Y-73931948D01*
X156224835Y-73931752D01*
X156224000Y-73930126D01*
X156224000Y-73389874D01*
X156225000Y-73388142D01*
X156227000Y-73388142D01*
X156227990Y-73389678D01*
G37*
G36*
X38010405Y-14463117D02*
G01*
X38011334Y-14464249D01*
X38011451Y-14464407D01*
X38019929Y-14477096D01*
X38036976Y-14494143D01*
X38057024Y-14507538D01*
X38079298Y-14516764D01*
X38102948Y-14521468D01*
X38127054Y-14521468D01*
X38150704Y-14516763D01*
X38172978Y-14507537D01*
X38193025Y-14494142D01*
X38210072Y-14477095D01*
X38218550Y-14464407D01*
X38218667Y-14464249D01*
X38219593Y-14463121D01*
X38221465Y-14462417D01*
X38223011Y-14463686D01*
X38222903Y-14465333D01*
X38219739Y-14471252D01*
X38216950Y-14480445D01*
X38216000Y-14490094D01*
X38216000Y-15989906D01*
X38216950Y-15999555D01*
X38219739Y-16008748D01*
X38222905Y-16014671D01*
X38222839Y-16016670D01*
X38221076Y-16017613D01*
X38219595Y-16016883D01*
X38218666Y-16015751D01*
X38218549Y-16015593D01*
X38210071Y-16002904D01*
X38193024Y-15985857D01*
X38172976Y-15972462D01*
X38150702Y-15963236D01*
X38127052Y-15958532D01*
X38102946Y-15958532D01*
X38079296Y-15963237D01*
X38057022Y-15972463D01*
X38036975Y-15985858D01*
X38019928Y-16002905D01*
X38011450Y-16015593D01*
X38011333Y-16015751D01*
X38010407Y-16016879D01*
X38008535Y-16017583D01*
X38006989Y-16016314D01*
X38007097Y-16014667D01*
X38010261Y-16008748D01*
X38013050Y-15999555D01*
X38014000Y-15989906D01*
X38014000Y-14490094D01*
X38013050Y-14480445D01*
X38010261Y-14471252D01*
X38007095Y-14465329D01*
X38007161Y-14463330D01*
X38008924Y-14462387D01*
X38010405Y-14463117D01*
G37*
M02*
