G04 #@! TF.GenerationSoftware,KiCad,Pcbnew,5.1.12-84ad8e8a86~92~ubuntu18.04.1*
G04 #@! TF.CreationDate,2022-12-12T22:34:18+01:00*
G04 #@! TF.ProjectId,full,66756c6c-2e6b-4696-9361-645f70636258,rev?*
G04 #@! TF.SameCoordinates,Original*
G04 #@! TF.FileFunction,Paste,Top*
G04 #@! TF.FilePolarity,Positive*
%FSLAX46Y46*%
G04 Gerber Fmt 4.6, Leading zero omitted, Abs format (unit mm)*
G04 Created by KiCad (PCBNEW 5.1.12-84ad8e8a86~92~ubuntu18.04.1) date 2022-12-12 22:34:18*
%MOMM*%
%LPD*%
G01*
G04 APERTURE LIST*
G04 APERTURE END LIST*
G36*
G01*
X150645000Y-85275000D02*
X150345000Y-85275000D01*
G75*
G02*
X150195000Y-85125000I0J150000D01*
G01*
X150195000Y-83375000D01*
G75*
G02*
X150345000Y-83225000I150000J0D01*
G01*
X150645000Y-83225000D01*
G75*
G02*
X150795000Y-83375000I0J-150000D01*
G01*
X150795000Y-85125000D01*
G75*
G02*
X150645000Y-85275000I-150000J0D01*
G01*
G37*
G36*
G01*
X151915000Y-85275000D02*
X151615000Y-85275000D01*
G75*
G02*
X151465000Y-85125000I0J150000D01*
G01*
X151465000Y-83375000D01*
G75*
G02*
X151615000Y-83225000I150000J0D01*
G01*
X151915000Y-83225000D01*
G75*
G02*
X152065000Y-83375000I0J-150000D01*
G01*
X152065000Y-85125000D01*
G75*
G02*
X151915000Y-85275000I-150000J0D01*
G01*
G37*
G36*
G01*
X153185000Y-85275000D02*
X152885000Y-85275000D01*
G75*
G02*
X152735000Y-85125000I0J150000D01*
G01*
X152735000Y-83375000D01*
G75*
G02*
X152885000Y-83225000I150000J0D01*
G01*
X153185000Y-83225000D01*
G75*
G02*
X153335000Y-83375000I0J-150000D01*
G01*
X153335000Y-85125000D01*
G75*
G02*
X153185000Y-85275000I-150000J0D01*
G01*
G37*
G36*
G01*
X154455000Y-85275000D02*
X154155000Y-85275000D01*
G75*
G02*
X154005000Y-85125000I0J150000D01*
G01*
X154005000Y-83375000D01*
G75*
G02*
X154155000Y-83225000I150000J0D01*
G01*
X154455000Y-83225000D01*
G75*
G02*
X154605000Y-83375000I0J-150000D01*
G01*
X154605000Y-85125000D01*
G75*
G02*
X154455000Y-85275000I-150000J0D01*
G01*
G37*
G36*
G01*
X155725000Y-85275000D02*
X155425000Y-85275000D01*
G75*
G02*
X155275000Y-85125000I0J150000D01*
G01*
X155275000Y-83375000D01*
G75*
G02*
X155425000Y-83225000I150000J0D01*
G01*
X155725000Y-83225000D01*
G75*
G02*
X155875000Y-83375000I0J-150000D01*
G01*
X155875000Y-85125000D01*
G75*
G02*
X155725000Y-85275000I-150000J0D01*
G01*
G37*
G36*
G01*
X156995000Y-85275000D02*
X156695000Y-85275000D01*
G75*
G02*
X156545000Y-85125000I0J150000D01*
G01*
X156545000Y-83375000D01*
G75*
G02*
X156695000Y-83225000I150000J0D01*
G01*
X156995000Y-83225000D01*
G75*
G02*
X157145000Y-83375000I0J-150000D01*
G01*
X157145000Y-85125000D01*
G75*
G02*
X156995000Y-85275000I-150000J0D01*
G01*
G37*
G36*
G01*
X158265000Y-85275000D02*
X157965000Y-85275000D01*
G75*
G02*
X157815000Y-85125000I0J150000D01*
G01*
X157815000Y-83375000D01*
G75*
G02*
X157965000Y-83225000I150000J0D01*
G01*
X158265000Y-83225000D01*
G75*
G02*
X158415000Y-83375000I0J-150000D01*
G01*
X158415000Y-85125000D01*
G75*
G02*
X158265000Y-85275000I-150000J0D01*
G01*
G37*
G36*
G01*
X159535000Y-85275000D02*
X159235000Y-85275000D01*
G75*
G02*
X159085000Y-85125000I0J150000D01*
G01*
X159085000Y-83375000D01*
G75*
G02*
X159235000Y-83225000I150000J0D01*
G01*
X159535000Y-83225000D01*
G75*
G02*
X159685000Y-83375000I0J-150000D01*
G01*
X159685000Y-85125000D01*
G75*
G02*
X159535000Y-85275000I-150000J0D01*
G01*
G37*
G36*
G01*
X159535000Y-94575000D02*
X159235000Y-94575000D01*
G75*
G02*
X159085000Y-94425000I0J150000D01*
G01*
X159085000Y-92675000D01*
G75*
G02*
X159235000Y-92525000I150000J0D01*
G01*
X159535000Y-92525000D01*
G75*
G02*
X159685000Y-92675000I0J-150000D01*
G01*
X159685000Y-94425000D01*
G75*
G02*
X159535000Y-94575000I-150000J0D01*
G01*
G37*
G36*
G01*
X158265000Y-94575000D02*
X157965000Y-94575000D01*
G75*
G02*
X157815000Y-94425000I0J150000D01*
G01*
X157815000Y-92675000D01*
G75*
G02*
X157965000Y-92525000I150000J0D01*
G01*
X158265000Y-92525000D01*
G75*
G02*
X158415000Y-92675000I0J-150000D01*
G01*
X158415000Y-94425000D01*
G75*
G02*
X158265000Y-94575000I-150000J0D01*
G01*
G37*
G36*
G01*
X156995000Y-94575000D02*
X156695000Y-94575000D01*
G75*
G02*
X156545000Y-94425000I0J150000D01*
G01*
X156545000Y-92675000D01*
G75*
G02*
X156695000Y-92525000I150000J0D01*
G01*
X156995000Y-92525000D01*
G75*
G02*
X157145000Y-92675000I0J-150000D01*
G01*
X157145000Y-94425000D01*
G75*
G02*
X156995000Y-94575000I-150000J0D01*
G01*
G37*
G36*
G01*
X155725000Y-94575000D02*
X155425000Y-94575000D01*
G75*
G02*
X155275000Y-94425000I0J150000D01*
G01*
X155275000Y-92675000D01*
G75*
G02*
X155425000Y-92525000I150000J0D01*
G01*
X155725000Y-92525000D01*
G75*
G02*
X155875000Y-92675000I0J-150000D01*
G01*
X155875000Y-94425000D01*
G75*
G02*
X155725000Y-94575000I-150000J0D01*
G01*
G37*
G36*
G01*
X154455000Y-94575000D02*
X154155000Y-94575000D01*
G75*
G02*
X154005000Y-94425000I0J150000D01*
G01*
X154005000Y-92675000D01*
G75*
G02*
X154155000Y-92525000I150000J0D01*
G01*
X154455000Y-92525000D01*
G75*
G02*
X154605000Y-92675000I0J-150000D01*
G01*
X154605000Y-94425000D01*
G75*
G02*
X154455000Y-94575000I-150000J0D01*
G01*
G37*
G36*
G01*
X153185000Y-94575000D02*
X152885000Y-94575000D01*
G75*
G02*
X152735000Y-94425000I0J150000D01*
G01*
X152735000Y-92675000D01*
G75*
G02*
X152885000Y-92525000I150000J0D01*
G01*
X153185000Y-92525000D01*
G75*
G02*
X153335000Y-92675000I0J-150000D01*
G01*
X153335000Y-94425000D01*
G75*
G02*
X153185000Y-94575000I-150000J0D01*
G01*
G37*
G36*
G01*
X151915000Y-94575000D02*
X151615000Y-94575000D01*
G75*
G02*
X151465000Y-94425000I0J150000D01*
G01*
X151465000Y-92675000D01*
G75*
G02*
X151615000Y-92525000I150000J0D01*
G01*
X151915000Y-92525000D01*
G75*
G02*
X152065000Y-92675000I0J-150000D01*
G01*
X152065000Y-94425000D01*
G75*
G02*
X151915000Y-94575000I-150000J0D01*
G01*
G37*
G36*
G01*
X150645000Y-94575000D02*
X150345000Y-94575000D01*
G75*
G02*
X150195000Y-94425000I0J150000D01*
G01*
X150195000Y-92675000D01*
G75*
G02*
X150345000Y-92525000I150000J0D01*
G01*
X150645000Y-92525000D01*
G75*
G02*
X150795000Y-92675000I0J-150000D01*
G01*
X150795000Y-94425000D01*
G75*
G02*
X150645000Y-94575000I-150000J0D01*
G01*
G37*
M02*
