M48
; DRILL file {KiCad (5.1.2-1)-1} date domingo, 30 de julio de 2023, 18:56:59
; FORMAT={-:-/ absolute / metric / decimal}
; #@! TF.CreationDate,2023-07-30T18:56:59+02:00
; #@! TF.GenerationSoftware,Kicad,Pcbnew,(5.1.2-1)-1
; #@! TF.FileFunction,Plated,1,2,PTH
FMAT,2
METRIC
T1C0.350
T2C0.500
T3C0.700
T4C0.750
T5C0.800
T6C1.000
T7C1.016
T8C1.100
T9C1.200
T10C3.200
T11C3.700
%
G90
G05
T1
X55.88Y-29.21
X65.275Y-15.745
X69.215Y-19.685
X69.85Y-26.67
X70.393Y-14.847
X70.866Y-14.372
X71.627Y-14.372
X74.93Y-31.75
X75.057Y-16.383
X98.044Y-39.878
X99.695Y-39.37
X101.6Y-35.052
X104.633Y-42.74
X106.553Y-42.74
X109.855Y-40.64
X110.109Y-23.96
X110.49Y-43.053
X111.394Y-43.195
X112.649Y-14.986
X112.903Y-31.52
X113.284Y-15.621
X114.525Y-33.61
X116.637Y-40.09
X117.079Y-43.195
X121.539Y-31.115
X121.793Y-38.989
X122.349Y-44.371
X124.079Y-42.672
X125.095Y-28.575
X125.095Y-38.735
X127.0Y-42.291
X132.715Y-30.48
X132.715Y-35.56
X136.21Y-32.47
X136.38Y-45.22
X136.685Y-28.956
X137.16Y-38.1
X138.684Y-46.609
X139.827Y-43.241
X140.335Y-15.621
X140.335Y-38.1
X140.843Y-27.05
X141.211Y-47.371
X142.367Y-39.75
X142.367Y-43.942
X143.383Y-37.465
X143.383Y-44.196
X144.018Y-43.241
X144.23Y-24.51
X151.104Y-20.966
X151.765Y-20.955
X152.4Y-27.94
X152.654Y-29.59
X163.355Y-26.416
X163.449Y-36.6
X166.37Y-33.528
X166.37Y-38.1
X168.148Y-39.497
X168.157Y-31.505
X169.037Y-26.924
X172.72Y-20.32
X175.387Y-43.307
X179.578Y-39.497
X180.467Y-41.021
X180.975Y-40.386
X182.29Y-32.131
T2
X43.63Y-34.29
X63.373Y-28.575
X63.373Y-30.48
X64.262Y-25.4
X64.262Y-27.94
X65.278Y-24.003
X66.04Y-41.94
X67.31Y-36.703
X72.136Y-20.32
X72.36Y-27.432
X72.517Y-42.39
X72.56Y-26.5
X79.883Y-21.59
X82.72Y-23.96
X83.434Y-24.632
X85.532Y-42.39
X85.598Y-35.56
X90.424Y-32.131
X90.805Y-28.575
X98.679Y-38.989
X98.679Y-42.672
X105.283Y-24.638
X111.506Y-17.78
X112.672Y-20.32
X113.157Y-47.87
X114.173Y-26.797
X115.316Y-42.19
X116.967Y-33.401
X117.475Y-36.01
X118.375Y-34.66
X144.78Y-26.67
X144.78Y-36.83
X151.765Y-22.86
X158.75Y-25.781
X169.605Y-58.42
T3
X59.182Y-67.945
X60.198Y-67.056
X61.285Y-66.167
X68.961Y-22.86
X70.739Y-25.4
X71.538Y-28.232
X72.425Y-47.57
X75.603Y-45.72
X77.47Y-47.57
X78.37Y-44.99
X79.375Y-48.514
X82.61Y-44.51
X84.01Y-43.561
X84.074Y-25.4
X86.476Y-42.72
X87.376Y-43.67
X97.282Y-26.04
X97.282Y-43.67
X131.318Y-48.02
X132.08Y-47.12
X134.079Y-64.345
X134.818Y-63.445
X136.618Y-64.345
X137.395Y-63.445
X152.419Y-63.445
T4
X73.66Y-45.72
X81.28Y-45.72
X124.46Y-45.72
X132.08Y-45.72
X114.3Y-45.72
X121.92Y-45.72
X134.62Y-45.72
X142.24Y-45.72
X63.5Y-45.72
X71.12Y-45.72
X93.98Y-45.72
X101.6Y-45.72
X104.14Y-45.72
X111.76Y-45.72
X83.82Y-45.72
X91.44Y-45.72
T5
X81.28Y-22.86
X81.28Y-25.4
X81.28Y-27.94
X81.28Y-30.48
X81.28Y-33.02
X81.28Y-35.56
X81.28Y-38.1
X81.28Y-40.64
X88.9Y-22.86
X88.9Y-25.4
X88.9Y-27.94
X88.9Y-30.48
X88.9Y-33.02
X88.9Y-35.56
X88.9Y-38.1
X88.9Y-40.64
X157.48Y-22.86
X157.48Y-25.4
X157.48Y-27.94
X157.48Y-30.48
X157.48Y-33.02
X157.48Y-35.56
X157.48Y-38.1
X157.48Y-40.64
X165.1Y-22.86
X165.1Y-25.4
X165.1Y-27.94
X165.1Y-30.48
X165.1Y-33.02
X165.1Y-35.56
X165.1Y-38.1
X165.1Y-40.64
X130.81Y-17.78
X130.81Y-20.32
X130.81Y-22.86
X130.81Y-25.4
X130.81Y-27.94
X130.81Y-30.48
X130.81Y-33.02
X130.81Y-35.56
X130.81Y-38.1
X130.81Y-40.64
X138.43Y-17.78
X138.43Y-20.32
X138.43Y-22.86
X138.43Y-25.4
X138.43Y-27.94
X138.43Y-30.48
X138.43Y-33.02
X138.43Y-35.56
X138.43Y-38.1
X138.43Y-40.64
X77.47Y-20.32
X77.47Y-22.86
X77.47Y-25.4
X77.47Y-27.94
X77.47Y-30.48
X77.47Y-33.02
X77.47Y-35.56
X77.47Y-38.1
X77.47Y-40.64
X146.05Y-22.86
X146.05Y-25.4
X146.05Y-27.94
X146.05Y-30.48
X146.05Y-33.02
X146.05Y-35.56
X146.05Y-38.1
X146.05Y-40.64
X153.67Y-22.86
X153.67Y-25.4
X153.67Y-27.94
X153.67Y-30.48
X153.67Y-33.02
X153.67Y-35.56
X153.67Y-38.1
X153.67Y-40.64
X127.0Y-17.78
X127.0Y-20.32
X127.0Y-22.86
X127.0Y-25.4
X127.0Y-27.94
X127.0Y-30.48
X127.0Y-33.02
X127.0Y-35.56
X127.0Y-38.1
X40.64Y-27.94
X40.64Y-35.56
X43.18Y-27.94
X43.18Y-35.56
X45.72Y-27.94
X45.72Y-35.56
X48.26Y-27.94
X48.26Y-35.56
X50.8Y-27.94
X50.8Y-35.56
X53.34Y-27.94
X53.34Y-35.56
X55.88Y-27.94
X55.88Y-35.56
X115.57Y-17.78
X115.57Y-20.32
X115.57Y-22.86
X115.57Y-25.4
X115.57Y-27.94
X115.57Y-30.48
X115.57Y-33.02
X115.57Y-35.56
X115.57Y-38.1
X115.57Y-40.64
X123.19Y-17.78
X123.19Y-20.32
X123.19Y-22.86
X123.19Y-25.4
X123.19Y-27.94
X123.19Y-30.48
X123.19Y-33.02
X123.19Y-35.56
X123.19Y-38.1
X123.19Y-40.64
X92.71Y-22.86
X92.71Y-25.4
X92.71Y-27.94
X92.71Y-30.48
X92.71Y-33.02
X92.71Y-35.56
X92.71Y-38.1
X92.71Y-40.64
X100.33Y-22.86
X100.33Y-25.4
X100.33Y-27.94
X100.33Y-30.48
X100.33Y-33.02
X100.33Y-35.56
X100.33Y-38.1
X100.33Y-40.64
X104.14Y-22.86
X104.14Y-25.4
X104.14Y-27.94
X104.14Y-30.48
X104.14Y-33.02
X104.14Y-35.56
X104.14Y-38.1
X104.14Y-40.64
X111.76Y-22.86
X111.76Y-25.4
X111.76Y-27.94
X111.76Y-30.48
X111.76Y-33.02
X111.76Y-35.56
X111.76Y-38.1
X111.76Y-40.64
X142.24Y-17.78
X142.24Y-20.32
X142.24Y-22.86
X142.24Y-25.4
X142.24Y-27.94
X142.24Y-30.48
X142.24Y-33.02
X142.24Y-35.56
X142.24Y-38.1
X66.04Y-17.78
X66.04Y-20.32
X66.04Y-22.86
X66.04Y-25.4
X66.04Y-27.94
X66.04Y-30.48
X66.04Y-33.02
X66.04Y-35.56
X66.04Y-38.1
X66.04Y-40.64
X73.66Y-17.78
X73.66Y-20.32
X73.66Y-22.86
X73.66Y-25.4
X73.66Y-27.94
X73.66Y-30.48
X73.66Y-33.02
X73.66Y-35.56
X73.66Y-38.1
X73.66Y-40.64
T6
X177.8Y-58.77
X177.8Y-61.54
X177.8Y-64.31
X177.8Y-67.08
X177.8Y-69.85
X180.64Y-60.155
X180.64Y-62.925
X180.64Y-65.695
X180.64Y-68.465
X66.04Y-69.85
X68.58Y-69.85
X71.12Y-69.85
X73.66Y-69.85
X76.2Y-69.85
X177.8Y-25.75
X177.8Y-28.52
X177.8Y-31.29
X177.8Y-34.06
X177.8Y-36.83
X180.64Y-27.135
X180.64Y-29.905
X180.64Y-32.675
X180.64Y-35.445
X30.48Y-111.76
X30.48Y-114.3
X30.48Y-116.84
X30.48Y-119.38
X30.48Y-121.92
X30.48Y-124.46
X30.48Y-127.0
X30.48Y-129.54
X33.02Y-111.76
X33.02Y-114.3
X33.02Y-116.84
X33.02Y-119.38
X33.02Y-121.92
X33.02Y-124.46
X33.02Y-127.0
X33.02Y-129.54
X142.24Y-69.85
X144.78Y-69.85
X147.32Y-69.85
X149.86Y-69.85
X152.4Y-69.85
X154.94Y-69.85
X157.48Y-69.85
X160.02Y-69.85
T7
X39.37Y-17.78
X39.37Y-20.32
X41.91Y-17.78
X41.91Y-20.32
X44.45Y-17.78
X44.45Y-20.32
X46.99Y-17.78
X46.99Y-20.32
X49.53Y-17.78
X49.53Y-20.32
X52.07Y-17.78
X52.07Y-20.32
X54.61Y-17.78
X54.61Y-20.32
X57.15Y-17.78
X57.15Y-20.32
X20.32Y-111.76
X20.32Y-114.3
X20.32Y-116.84
X20.32Y-119.38
X20.32Y-121.92
X20.32Y-124.46
X20.32Y-127.0
X20.32Y-129.54
X22.86Y-111.76
X22.86Y-114.3
X22.86Y-116.84
X22.86Y-119.38
X22.86Y-121.92
X22.86Y-124.46
X22.86Y-127.0
X22.86Y-129.54
T8
X153.52Y-88.21
X153.52Y-92.71
X160.02Y-88.21
X160.02Y-92.71
X84.94Y-88.21
X84.94Y-92.71
X91.44Y-88.21
X91.44Y-92.71
X144.63Y-99.64
X144.63Y-104.14
X151.13Y-99.64
X151.13Y-104.14
X62.08Y-88.21
X62.08Y-92.71
X68.58Y-88.21
X68.58Y-92.71
X67.16Y-111.07
X67.16Y-115.57
X73.66Y-111.07
X73.66Y-115.57
X53.19Y-99.64
X53.19Y-104.14
X59.69Y-99.64
X59.69Y-104.14
X133.2Y-122.5
X133.2Y-127.0
X139.7Y-122.5
X139.7Y-127.0
X87.48Y-99.64
X87.48Y-104.14
X93.98Y-99.64
X93.98Y-104.14
X121.77Y-99.64
X121.77Y-104.14
X128.27Y-99.64
X128.27Y-104.14
X121.77Y-122.5
X121.77Y-127.0
X128.27Y-122.5
X128.27Y-127.0
X135.74Y-111.07
X135.74Y-115.57
X142.24Y-111.07
X142.24Y-115.57
X156.06Y-122.5
X156.06Y-127.0
X162.56Y-122.5
X162.56Y-127.0
X101.45Y-111.07
X101.45Y-115.57
X107.95Y-111.07
X107.95Y-115.57
X147.17Y-111.07
X147.17Y-115.57
X153.67Y-111.07
X153.67Y-115.57
X87.48Y-122.5
X87.48Y-127.0
X93.98Y-122.5
X93.98Y-127.0
X156.06Y-99.64
X156.06Y-104.14
X162.56Y-99.64
X162.56Y-104.14
X96.37Y-88.21
X96.37Y-92.71
X102.87Y-88.21
X102.87Y-92.71
X73.51Y-88.21
X73.51Y-92.71
X80.01Y-88.21
X80.01Y-92.71
X78.59Y-111.07
X78.59Y-115.57
X85.09Y-111.07
X85.09Y-115.57
X50.65Y-88.21
X50.65Y-92.71
X57.15Y-88.21
X57.15Y-92.71
X76.05Y-122.5
X76.05Y-127.0
X82.55Y-122.5
X82.55Y-127.0
X98.91Y-99.64
X98.91Y-104.14
X105.41Y-99.64
X105.41Y-104.14
X133.2Y-99.64
X133.2Y-104.14
X139.7Y-99.64
X139.7Y-104.14
X112.88Y-111.07
X112.88Y-115.57
X119.38Y-111.07
X119.38Y-115.57
X98.91Y-122.5
X98.91Y-127.0
X105.41Y-122.5
X105.41Y-127.0
X130.66Y-88.21
X130.66Y-92.71
X137.16Y-88.21
X137.16Y-92.71
X119.23Y-88.21
X119.23Y-92.71
X125.73Y-88.21
X125.73Y-92.71
X110.34Y-122.5
X110.34Y-127.0
X116.84Y-122.5
X116.84Y-127.0
X55.73Y-111.07
X55.73Y-115.57
X62.23Y-111.07
X62.23Y-115.57
X64.62Y-99.64
X64.62Y-104.14
X71.12Y-99.64
X71.12Y-104.14
X158.6Y-111.07
X158.6Y-115.57
X165.1Y-111.07
X165.1Y-115.57
X142.09Y-88.21
X142.09Y-92.71
X148.59Y-88.21
X148.59Y-92.71
X53.19Y-122.5
X53.19Y-127.0
X59.69Y-122.5
X59.69Y-127.0
X107.8Y-88.21
X107.8Y-92.71
X114.3Y-88.21
X114.3Y-92.71
X64.62Y-122.5
X64.62Y-127.0
X71.12Y-122.5
X71.12Y-127.0
X124.31Y-111.07
X124.31Y-115.57
X130.81Y-111.07
X130.81Y-115.57
X110.34Y-99.64
X110.34Y-104.14
X116.84Y-99.64
X116.84Y-104.14
X90.02Y-111.07
X90.02Y-115.57
X96.52Y-111.07
X96.52Y-115.57
X144.63Y-122.5
X144.63Y-127.0
X151.13Y-122.5
X151.13Y-127.0
X76.05Y-99.64
X76.05Y-104.14
X82.55Y-99.64
X82.55Y-104.14
T9
X171.45Y-58.42
X171.45Y-62.23
X171.45Y-66.04
X171.45Y-69.85
X175.26Y-62.23
X175.26Y-66.04
X175.26Y-69.85
X171.45Y-26.67
X171.45Y-30.48
X171.45Y-34.29
X171.45Y-38.1
X175.26Y-30.48
X175.26Y-34.29
X175.26Y-38.1
T10
X178.1Y-18.79
X178.1Y-43.79
X168.91Y-16.51
X168.91Y-139.7
X26.67Y-16.51
X26.67Y-139.7
X178.1Y-51.81
X178.1Y-76.81
T11
X185.42Y-54.61
X185.42Y-73.66
X185.42Y-22.86
X185.42Y-41.91
T0
M30
