%FSLAX45Y45*%
G04 Gerber Fmt 4.5, Leading zero omitted, Abs format (unit mm)*
G04 Created by KiCad (PCBNEW (5.1.2-1)-1) date 2022-12-12 22:43:06*
%MOMM*%
%LPD*%
G04 APERTURE LIST*
%ADD10C,0.050000*%
%ADD11C,0.200000*%
%ADD12C,0.300000*%
G04 APERTURE END LIST*
D10*
X19050000Y-14097000D02*
G75*
G02X18796000Y-14351000I-254000J0D01*
G01*
X18796000Y-1270000D02*
G75*
G02X19050000Y-1524000I0J-254000D01*
G01*
X1270000Y-1524000D02*
G75*
G02X1524000Y-1270000I254000J0D01*
G01*
X1524000Y-14351000D02*
G75*
G02X1270000Y-14097000I0J254000D01*
G01*
X18796000Y-1270000D02*
X1524000Y-1270000D01*
X19050000Y-14097000D02*
X19050000Y-1524000D01*
X1524000Y-14351000D02*
X18796000Y-14351000D01*
X1270000Y-1524000D02*
X1270000Y-14097000D01*
D11*
X18162600Y-1551000D02*
X18362600Y-1751000D01*
X18362600Y-1551000D02*
X18162600Y-1751000D01*
X18207600Y-1741000D02*
X18317600Y-1741000D01*
X18207600Y-1561000D02*
X18317600Y-1561000D01*
X18317600Y-1741000D02*
G75*
G03X18317600Y-1561000I0J90000D01*
G01*
X18207600Y-1561000D02*
G75*
G03X18207600Y-1741000I0J-90000D01*
G01*
X18162600Y-5615000D02*
X18362600Y-5815000D01*
X18362600Y-5615000D02*
X18162600Y-5815000D01*
X18207600Y-5805000D02*
X18317600Y-5805000D01*
X18207600Y-5625000D02*
X18317600Y-5625000D01*
X18317600Y-5805000D02*
G75*
G03X18317600Y-5625000I0J90000D01*
G01*
X18207600Y-5625000D02*
G75*
G03X18207600Y-5805000I0J-90000D01*
G01*
X18162600Y-6872300D02*
X18362600Y-7072300D01*
X18362600Y-6872300D02*
X18162600Y-7072300D01*
X18207600Y-7062300D02*
X18317600Y-7062300D01*
X18207600Y-6882300D02*
X18317600Y-6882300D01*
X18317600Y-7062300D02*
G75*
G03X18317600Y-6882300I0J90000D01*
G01*
X18207600Y-6882300D02*
G75*
G03X18207600Y-7062300I0J-90000D01*
G01*
X18162600Y-10936300D02*
X18362600Y-11136300D01*
X18362600Y-10936300D02*
X18162600Y-11136300D01*
X18207600Y-11126300D02*
X18317600Y-11126300D01*
X18207600Y-10946300D02*
X18317600Y-10946300D01*
X18317600Y-11126300D02*
G75*
G03X18317600Y-10946300I0J90000D01*
G01*
X18207600Y-10946300D02*
G75*
G03X18207600Y-11126300I0J-90000D01*
G01*
X18417934Y-6367018D02*
G75*
G03X18417934Y-6367018I-150000J0D01*
G01*
X18217934Y-6507018D02*
X18317934Y-6507018D01*
X18217934Y-6227018D02*
X18317934Y-6227018D01*
X18317934Y-6507018D02*
G75*
G03X18317934Y-6227018I0J140000D01*
G01*
X18217934Y-6227018D02*
G75*
G03X18217934Y-6507018I0J-140000D01*
G01*
X18417934Y-11666982D02*
G75*
G03X18417934Y-11666982I-150000J0D01*
G01*
X18217934Y-11806982D02*
X18317934Y-11806982D01*
X18217934Y-11526982D02*
X18317934Y-11526982D01*
X18317934Y-11806982D02*
G75*
G03X18317934Y-11526982I0J140000D01*
G01*
X18217934Y-11526982D02*
G75*
G03X18217934Y-11806982I0J-140000D01*
G01*
D12*
X1553928Y-14819214D02*
X1553928Y-14519214D01*
X1625357Y-14519214D01*
X1668214Y-14533500D01*
X1696786Y-14562071D01*
X1711071Y-14590643D01*
X1725357Y-14647786D01*
X1725357Y-14690643D01*
X1711071Y-14747786D01*
X1696786Y-14776357D01*
X1668214Y-14804929D01*
X1625357Y-14819214D01*
X1553928Y-14819214D01*
X1853928Y-14819214D02*
X1853928Y-14619214D01*
X1853928Y-14676357D02*
X1868214Y-14647786D01*
X1882500Y-14633500D01*
X1911071Y-14619214D01*
X1939643Y-14619214D01*
X2039643Y-14819214D02*
X2039643Y-14619214D01*
X2039643Y-14519214D02*
X2025357Y-14533500D01*
X2039643Y-14547786D01*
X2053928Y-14533500D01*
X2039643Y-14519214D01*
X2039643Y-14547786D01*
X2225357Y-14819214D02*
X2196786Y-14804929D01*
X2182500Y-14776357D01*
X2182500Y-14519214D01*
X2382500Y-14819214D02*
X2353928Y-14804929D01*
X2339643Y-14776357D01*
X2339643Y-14519214D01*
X2725357Y-14819214D02*
X2725357Y-14519214D01*
X2825357Y-14733500D01*
X2925357Y-14519214D01*
X2925357Y-14819214D01*
X3196786Y-14819214D02*
X3196786Y-14662071D01*
X3182500Y-14633500D01*
X3153928Y-14619214D01*
X3096786Y-14619214D01*
X3068214Y-14633500D01*
X3196786Y-14804929D02*
X3168214Y-14819214D01*
X3096786Y-14819214D01*
X3068214Y-14804929D01*
X3053928Y-14776357D01*
X3053928Y-14747786D01*
X3068214Y-14719214D01*
X3096786Y-14704929D01*
X3168214Y-14704929D01*
X3196786Y-14690643D01*
X3339643Y-14619214D02*
X3339643Y-14919214D01*
X3339643Y-14633500D02*
X3368214Y-14619214D01*
X3425357Y-14619214D01*
X3453928Y-14633500D01*
X3468214Y-14647786D01*
X3482500Y-14676357D01*
X3482500Y-14762071D01*
X3468214Y-14790643D01*
X3453928Y-14804929D01*
X3425357Y-14819214D01*
X3368214Y-14819214D01*
X3339643Y-14804929D01*
X3611071Y-14790643D02*
X3625357Y-14804929D01*
X3611071Y-14819214D01*
X3596786Y-14804929D01*
X3611071Y-14790643D01*
X3611071Y-14819214D01*
X3611071Y-14633500D02*
X3625357Y-14647786D01*
X3611071Y-14662071D01*
X3596786Y-14647786D01*
X3611071Y-14633500D01*
X3611071Y-14662071D01*
X1067500Y-15213500D02*
X1267500Y-15413500D01*
X1267500Y-15213500D02*
X1067500Y-15413500D01*
X1539643Y-15177786D02*
X1553928Y-15163500D01*
X1582500Y-15149214D01*
X1653928Y-15149214D01*
X1682500Y-15163500D01*
X1696786Y-15177786D01*
X1711071Y-15206357D01*
X1711071Y-15234929D01*
X1696786Y-15277786D01*
X1525357Y-15449214D01*
X1711071Y-15449214D01*
X1839643Y-15420643D02*
X1853928Y-15434929D01*
X1839643Y-15449214D01*
X1825357Y-15434929D01*
X1839643Y-15420643D01*
X1839643Y-15449214D01*
X2039643Y-15149214D02*
X2068214Y-15149214D01*
X2096786Y-15163500D01*
X2111071Y-15177786D01*
X2125357Y-15206357D01*
X2139643Y-15263500D01*
X2139643Y-15334929D01*
X2125357Y-15392071D01*
X2111071Y-15420643D01*
X2096786Y-15434929D01*
X2068214Y-15449214D01*
X2039643Y-15449214D01*
X2011071Y-15434929D01*
X1996786Y-15420643D01*
X1982500Y-15392071D01*
X1968214Y-15334929D01*
X1968214Y-15263500D01*
X1982500Y-15206357D01*
X1996786Y-15177786D01*
X2011071Y-15163500D01*
X2039643Y-15149214D01*
X2325357Y-15149214D02*
X2353928Y-15149214D01*
X2382500Y-15163500D01*
X2396786Y-15177786D01*
X2411071Y-15206357D01*
X2425357Y-15263500D01*
X2425357Y-15334929D01*
X2411071Y-15392071D01*
X2396786Y-15420643D01*
X2382500Y-15434929D01*
X2353928Y-15449214D01*
X2325357Y-15449214D01*
X2296786Y-15434929D01*
X2282500Y-15420643D01*
X2268214Y-15392071D01*
X2253928Y-15334929D01*
X2253928Y-15263500D01*
X2268214Y-15206357D01*
X2282500Y-15177786D01*
X2296786Y-15163500D01*
X2325357Y-15149214D01*
X2553928Y-15449214D02*
X2553928Y-15249214D01*
X2553928Y-15277786D02*
X2568214Y-15263500D01*
X2596786Y-15249214D01*
X2639643Y-15249214D01*
X2668214Y-15263500D01*
X2682500Y-15292071D01*
X2682500Y-15449214D01*
X2682500Y-15292071D02*
X2696786Y-15263500D01*
X2725357Y-15249214D01*
X2768214Y-15249214D01*
X2796786Y-15263500D01*
X2811071Y-15292071D01*
X2811071Y-15449214D01*
X2953928Y-15449214D02*
X2953928Y-15249214D01*
X2953928Y-15277786D02*
X2968214Y-15263500D01*
X2996786Y-15249214D01*
X3039643Y-15249214D01*
X3068214Y-15263500D01*
X3082500Y-15292071D01*
X3082500Y-15449214D01*
X3082500Y-15292071D02*
X3096786Y-15263500D01*
X3125357Y-15249214D01*
X3168214Y-15249214D01*
X3196786Y-15263500D01*
X3211071Y-15292071D01*
X3211071Y-15449214D01*
X3796786Y-15134929D02*
X3539643Y-15520643D01*
X4182500Y-15149214D02*
X4211071Y-15149214D01*
X4239643Y-15163500D01*
X4253928Y-15177786D01*
X4268214Y-15206357D01*
X4282500Y-15263500D01*
X4282500Y-15334929D01*
X4268214Y-15392071D01*
X4253928Y-15420643D01*
X4239643Y-15434929D01*
X4211071Y-15449214D01*
X4182500Y-15449214D01*
X4153928Y-15434929D01*
X4139643Y-15420643D01*
X4125357Y-15392071D01*
X4111071Y-15334929D01*
X4111071Y-15263500D01*
X4125357Y-15206357D01*
X4139643Y-15177786D01*
X4153928Y-15163500D01*
X4182500Y-15149214D01*
X4411071Y-15420643D02*
X4425357Y-15434929D01*
X4411071Y-15449214D01*
X4396786Y-15434929D01*
X4411071Y-15420643D01*
X4411071Y-15449214D01*
X4611071Y-15149214D02*
X4639643Y-15149214D01*
X4668214Y-15163500D01*
X4682500Y-15177786D01*
X4696786Y-15206357D01*
X4711071Y-15263500D01*
X4711071Y-15334929D01*
X4696786Y-15392071D01*
X4682500Y-15420643D01*
X4668214Y-15434929D01*
X4639643Y-15449214D01*
X4611071Y-15449214D01*
X4582500Y-15434929D01*
X4568214Y-15420643D01*
X4553928Y-15392071D01*
X4539643Y-15334929D01*
X4539643Y-15263500D01*
X4553928Y-15206357D01*
X4568214Y-15177786D01*
X4582500Y-15163500D01*
X4611071Y-15149214D01*
X4811071Y-15149214D02*
X5011071Y-15149214D01*
X4882500Y-15449214D01*
X5139643Y-15449214D02*
X5196786Y-15449214D01*
X5225357Y-15434929D01*
X5239643Y-15420643D01*
X5268214Y-15377786D01*
X5282500Y-15320643D01*
X5282500Y-15206357D01*
X5268214Y-15177786D01*
X5253928Y-15163500D01*
X5225357Y-15149214D01*
X5168214Y-15149214D01*
X5139643Y-15163500D01*
X5125357Y-15177786D01*
X5111071Y-15206357D01*
X5111071Y-15277786D01*
X5125357Y-15306357D01*
X5139643Y-15320643D01*
X5168214Y-15334929D01*
X5225357Y-15334929D01*
X5253928Y-15320643D01*
X5268214Y-15306357D01*
X5282500Y-15277786D01*
X5396786Y-15149214D02*
X5396786Y-15206357D01*
X5511071Y-15149214D02*
X5511071Y-15206357D01*
X5953928Y-15563500D02*
X5939643Y-15549214D01*
X5911071Y-15506357D01*
X5896786Y-15477786D01*
X5882500Y-15434929D01*
X5868214Y-15363500D01*
X5868214Y-15306357D01*
X5882500Y-15234929D01*
X5896786Y-15192071D01*
X5911071Y-15163500D01*
X5939643Y-15120643D01*
X5953928Y-15106357D01*
X6125357Y-15149214D02*
X6153928Y-15149214D01*
X6182500Y-15163500D01*
X6196786Y-15177786D01*
X6211071Y-15206357D01*
X6225357Y-15263500D01*
X6225357Y-15334929D01*
X6211071Y-15392071D01*
X6196786Y-15420643D01*
X6182500Y-15434929D01*
X6153928Y-15449214D01*
X6125357Y-15449214D01*
X6096786Y-15434929D01*
X6082500Y-15420643D01*
X6068214Y-15392071D01*
X6053928Y-15334929D01*
X6053928Y-15263500D01*
X6068214Y-15206357D01*
X6082500Y-15177786D01*
X6096786Y-15163500D01*
X6125357Y-15149214D01*
X6582500Y-15449214D02*
X6582500Y-15149214D01*
X6711071Y-15449214D02*
X6711071Y-15292071D01*
X6696786Y-15263500D01*
X6668214Y-15249214D01*
X6625357Y-15249214D01*
X6596786Y-15263500D01*
X6582500Y-15277786D01*
X6896786Y-15449214D02*
X6868214Y-15434929D01*
X6853928Y-15420643D01*
X6839643Y-15392071D01*
X6839643Y-15306357D01*
X6853928Y-15277786D01*
X6868214Y-15263500D01*
X6896786Y-15249214D01*
X6939643Y-15249214D01*
X6968214Y-15263500D01*
X6982500Y-15277786D01*
X6996786Y-15306357D01*
X6996786Y-15392071D01*
X6982500Y-15420643D01*
X6968214Y-15434929D01*
X6939643Y-15449214D01*
X6896786Y-15449214D01*
X7168214Y-15449214D02*
X7139643Y-15434929D01*
X7125357Y-15406357D01*
X7125357Y-15149214D01*
X7396786Y-15434929D02*
X7368214Y-15449214D01*
X7311071Y-15449214D01*
X7282500Y-15434929D01*
X7268214Y-15406357D01*
X7268214Y-15292071D01*
X7282500Y-15263500D01*
X7311071Y-15249214D01*
X7368214Y-15249214D01*
X7396786Y-15263500D01*
X7411071Y-15292071D01*
X7411071Y-15320643D01*
X7268214Y-15349214D01*
X7525357Y-15434929D02*
X7553928Y-15449214D01*
X7611071Y-15449214D01*
X7639643Y-15434929D01*
X7653928Y-15406357D01*
X7653928Y-15392071D01*
X7639643Y-15363500D01*
X7611071Y-15349214D01*
X7568214Y-15349214D01*
X7539643Y-15334929D01*
X7525357Y-15306357D01*
X7525357Y-15292071D01*
X7539643Y-15263500D01*
X7568214Y-15249214D01*
X7611071Y-15249214D01*
X7639643Y-15263500D01*
X8011071Y-15334929D02*
X8239643Y-15334929D01*
X8125357Y-15449214D02*
X8125357Y-15220643D01*
X8739643Y-15249214D02*
X8739643Y-15449214D01*
X8668214Y-15134929D02*
X8596786Y-15349214D01*
X8782500Y-15349214D01*
X9111071Y-15434929D02*
X9139643Y-15449214D01*
X9196786Y-15449214D01*
X9225357Y-15434929D01*
X9239643Y-15406357D01*
X9239643Y-15392071D01*
X9225357Y-15363500D01*
X9196786Y-15349214D01*
X9153928Y-15349214D01*
X9125357Y-15334929D01*
X9111071Y-15306357D01*
X9111071Y-15292071D01*
X9125357Y-15263500D01*
X9153928Y-15249214D01*
X9196786Y-15249214D01*
X9225357Y-15263500D01*
X9411071Y-15449214D02*
X9382500Y-15434929D01*
X9368214Y-15406357D01*
X9368214Y-15149214D01*
X9568214Y-15449214D02*
X9539643Y-15434929D01*
X9525357Y-15420643D01*
X9511071Y-15392071D01*
X9511071Y-15306357D01*
X9525357Y-15277786D01*
X9539643Y-15263500D01*
X9568214Y-15249214D01*
X9611071Y-15249214D01*
X9639643Y-15263500D01*
X9653928Y-15277786D01*
X9668214Y-15306357D01*
X9668214Y-15392071D01*
X9653928Y-15420643D01*
X9639643Y-15434929D01*
X9611071Y-15449214D01*
X9568214Y-15449214D01*
X9753928Y-15249214D02*
X9868214Y-15249214D01*
X9796786Y-15149214D02*
X9796786Y-15406357D01*
X9811071Y-15434929D01*
X9839643Y-15449214D01*
X9868214Y-15449214D01*
X9953928Y-15434929D02*
X9982500Y-15449214D01*
X10039643Y-15449214D01*
X10068214Y-15434929D01*
X10082500Y-15406357D01*
X10082500Y-15392071D01*
X10068214Y-15363500D01*
X10039643Y-15349214D01*
X9996786Y-15349214D01*
X9968214Y-15334929D01*
X9953928Y-15306357D01*
X9953928Y-15292071D01*
X9968214Y-15263500D01*
X9996786Y-15249214D01*
X10039643Y-15249214D01*
X10068214Y-15263500D01*
X10182500Y-15563500D02*
X10196786Y-15549214D01*
X10225357Y-15506357D01*
X10239643Y-15477786D01*
X10253928Y-15434929D01*
X10268214Y-15363500D01*
X10268214Y-15306357D01*
X10253928Y-15234929D01*
X10239643Y-15192071D01*
X10225357Y-15163500D01*
X10196786Y-15120643D01*
X10182500Y-15106357D01*
X10725357Y-15563500D02*
X10711071Y-15549214D01*
X10682500Y-15506357D01*
X10668214Y-15477786D01*
X10653928Y-15434929D01*
X10639643Y-15363500D01*
X10639643Y-15306357D01*
X10653928Y-15234929D01*
X10668214Y-15192071D01*
X10682500Y-15163500D01*
X10711071Y-15120643D01*
X10725357Y-15106357D01*
X10839643Y-15249214D02*
X10839643Y-15449214D01*
X10839643Y-15277786D02*
X10853928Y-15263500D01*
X10882500Y-15249214D01*
X10925357Y-15249214D01*
X10953928Y-15263500D01*
X10968214Y-15292071D01*
X10968214Y-15449214D01*
X11153928Y-15449214D02*
X11125357Y-15434929D01*
X11111071Y-15420643D01*
X11096786Y-15392071D01*
X11096786Y-15306357D01*
X11111071Y-15277786D01*
X11125357Y-15263500D01*
X11153928Y-15249214D01*
X11196786Y-15249214D01*
X11225357Y-15263500D01*
X11239643Y-15277786D01*
X11253928Y-15306357D01*
X11253928Y-15392071D01*
X11239643Y-15420643D01*
X11225357Y-15434929D01*
X11196786Y-15449214D01*
X11153928Y-15449214D01*
X11339643Y-15249214D02*
X11453928Y-15249214D01*
X11382500Y-15149214D02*
X11382500Y-15406357D01*
X11396786Y-15434929D01*
X11425357Y-15449214D01*
X11453928Y-15449214D01*
X11782500Y-15249214D02*
X11782500Y-15549214D01*
X11782500Y-15263500D02*
X11811071Y-15249214D01*
X11868214Y-15249214D01*
X11896786Y-15263500D01*
X11911071Y-15277786D01*
X11925357Y-15306357D01*
X11925357Y-15392071D01*
X11911071Y-15420643D01*
X11896786Y-15434929D01*
X11868214Y-15449214D01*
X11811071Y-15449214D01*
X11782500Y-15434929D01*
X12096786Y-15449214D02*
X12068214Y-15434929D01*
X12053928Y-15406357D01*
X12053928Y-15149214D01*
X12339643Y-15449214D02*
X12339643Y-15292071D01*
X12325357Y-15263500D01*
X12296786Y-15249214D01*
X12239643Y-15249214D01*
X12211071Y-15263500D01*
X12339643Y-15434929D02*
X12311071Y-15449214D01*
X12239643Y-15449214D01*
X12211071Y-15434929D01*
X12196786Y-15406357D01*
X12196786Y-15377786D01*
X12211071Y-15349214D01*
X12239643Y-15334929D01*
X12311071Y-15334929D01*
X12339643Y-15320643D01*
X12439643Y-15249214D02*
X12553928Y-15249214D01*
X12482500Y-15149214D02*
X12482500Y-15406357D01*
X12496786Y-15434929D01*
X12525357Y-15449214D01*
X12553928Y-15449214D01*
X12768214Y-15434929D02*
X12739643Y-15449214D01*
X12682500Y-15449214D01*
X12653928Y-15434929D01*
X12639643Y-15406357D01*
X12639643Y-15292071D01*
X12653928Y-15263500D01*
X12682500Y-15249214D01*
X12739643Y-15249214D01*
X12768214Y-15263500D01*
X12782500Y-15292071D01*
X12782500Y-15320643D01*
X12639643Y-15349214D01*
X13039643Y-15449214D02*
X13039643Y-15149214D01*
X13039643Y-15434929D02*
X13011071Y-15449214D01*
X12953928Y-15449214D01*
X12925357Y-15434929D01*
X12911071Y-15420643D01*
X12896786Y-15392071D01*
X12896786Y-15306357D01*
X12911071Y-15277786D01*
X12925357Y-15263500D01*
X12953928Y-15249214D01*
X13011071Y-15249214D01*
X13039643Y-15263500D01*
X13153928Y-15563500D02*
X13168214Y-15549214D01*
X13196786Y-15506357D01*
X13211071Y-15477786D01*
X13225357Y-15434929D01*
X13239643Y-15363500D01*
X13239643Y-15306357D01*
X13225357Y-15234929D01*
X13211071Y-15192071D01*
X13196786Y-15163500D01*
X13168214Y-15120643D01*
X13153928Y-15106357D01*
X1267500Y-15709500D02*
G75*
G03X1267500Y-15709500I-150000J0D01*
G01*
X1525357Y-15545214D02*
X1711071Y-15545214D01*
X1611071Y-15659500D01*
X1653928Y-15659500D01*
X1682500Y-15673786D01*
X1696786Y-15688071D01*
X1711071Y-15716643D01*
X1711071Y-15788071D01*
X1696786Y-15816643D01*
X1682500Y-15830929D01*
X1653928Y-15845214D01*
X1568214Y-15845214D01*
X1539643Y-15830929D01*
X1525357Y-15816643D01*
X1839643Y-15816643D02*
X1853928Y-15830929D01*
X1839643Y-15845214D01*
X1825357Y-15830929D01*
X1839643Y-15816643D01*
X1839643Y-15845214D01*
X2039643Y-15545214D02*
X2068214Y-15545214D01*
X2096786Y-15559500D01*
X2111071Y-15573786D01*
X2125357Y-15602357D01*
X2139643Y-15659500D01*
X2139643Y-15730929D01*
X2125357Y-15788071D01*
X2111071Y-15816643D01*
X2096786Y-15830929D01*
X2068214Y-15845214D01*
X2039643Y-15845214D01*
X2011071Y-15830929D01*
X1996786Y-15816643D01*
X1982500Y-15788071D01*
X1968214Y-15730929D01*
X1968214Y-15659500D01*
X1982500Y-15602357D01*
X1996786Y-15573786D01*
X2011071Y-15559500D01*
X2039643Y-15545214D01*
X2325357Y-15545214D02*
X2353928Y-15545214D01*
X2382500Y-15559500D01*
X2396786Y-15573786D01*
X2411071Y-15602357D01*
X2425357Y-15659500D01*
X2425357Y-15730929D01*
X2411071Y-15788071D01*
X2396786Y-15816643D01*
X2382500Y-15830929D01*
X2353928Y-15845214D01*
X2325357Y-15845214D01*
X2296786Y-15830929D01*
X2282500Y-15816643D01*
X2268214Y-15788071D01*
X2253928Y-15730929D01*
X2253928Y-15659500D01*
X2268214Y-15602357D01*
X2282500Y-15573786D01*
X2296786Y-15559500D01*
X2325357Y-15545214D01*
X2553928Y-15845214D02*
X2553928Y-15645214D01*
X2553928Y-15673786D02*
X2568214Y-15659500D01*
X2596786Y-15645214D01*
X2639643Y-15645214D01*
X2668214Y-15659500D01*
X2682500Y-15688071D01*
X2682500Y-15845214D01*
X2682500Y-15688071D02*
X2696786Y-15659500D01*
X2725357Y-15645214D01*
X2768214Y-15645214D01*
X2796786Y-15659500D01*
X2811071Y-15688071D01*
X2811071Y-15845214D01*
X2953928Y-15845214D02*
X2953928Y-15645214D01*
X2953928Y-15673786D02*
X2968214Y-15659500D01*
X2996786Y-15645214D01*
X3039643Y-15645214D01*
X3068214Y-15659500D01*
X3082500Y-15688071D01*
X3082500Y-15845214D01*
X3082500Y-15688071D02*
X3096786Y-15659500D01*
X3125357Y-15645214D01*
X3168214Y-15645214D01*
X3196786Y-15659500D01*
X3211071Y-15688071D01*
X3211071Y-15845214D01*
X3796786Y-15530929D02*
X3539643Y-15916643D01*
X4182500Y-15545214D02*
X4211071Y-15545214D01*
X4239643Y-15559500D01*
X4253928Y-15573786D01*
X4268214Y-15602357D01*
X4282500Y-15659500D01*
X4282500Y-15730929D01*
X4268214Y-15788071D01*
X4253928Y-15816643D01*
X4239643Y-15830929D01*
X4211071Y-15845214D01*
X4182500Y-15845214D01*
X4153928Y-15830929D01*
X4139643Y-15816643D01*
X4125357Y-15788071D01*
X4111071Y-15730929D01*
X4111071Y-15659500D01*
X4125357Y-15602357D01*
X4139643Y-15573786D01*
X4153928Y-15559500D01*
X4182500Y-15545214D01*
X4411071Y-15816643D02*
X4425357Y-15830929D01*
X4411071Y-15845214D01*
X4396786Y-15830929D01*
X4411071Y-15816643D01*
X4411071Y-15845214D01*
X4711071Y-15845214D02*
X4539643Y-15845214D01*
X4625357Y-15845214D02*
X4625357Y-15545214D01*
X4596786Y-15588071D01*
X4568214Y-15616643D01*
X4539643Y-15630929D01*
X4996786Y-15845214D02*
X4825357Y-15845214D01*
X4911071Y-15845214D02*
X4911071Y-15545214D01*
X4882500Y-15588071D01*
X4853928Y-15616643D01*
X4825357Y-15630929D01*
X5168214Y-15673786D02*
X5139643Y-15659500D01*
X5125357Y-15645214D01*
X5111071Y-15616643D01*
X5111071Y-15602357D01*
X5125357Y-15573786D01*
X5139643Y-15559500D01*
X5168214Y-15545214D01*
X5225357Y-15545214D01*
X5253928Y-15559500D01*
X5268214Y-15573786D01*
X5282500Y-15602357D01*
X5282500Y-15616643D01*
X5268214Y-15645214D01*
X5253928Y-15659500D01*
X5225357Y-15673786D01*
X5168214Y-15673786D01*
X5139643Y-15688071D01*
X5125357Y-15702357D01*
X5111071Y-15730929D01*
X5111071Y-15788071D01*
X5125357Y-15816643D01*
X5139643Y-15830929D01*
X5168214Y-15845214D01*
X5225357Y-15845214D01*
X5253928Y-15830929D01*
X5268214Y-15816643D01*
X5282500Y-15788071D01*
X5282500Y-15730929D01*
X5268214Y-15702357D01*
X5253928Y-15688071D01*
X5225357Y-15673786D01*
X5396786Y-15545214D02*
X5396786Y-15602357D01*
X5511071Y-15545214D02*
X5511071Y-15602357D01*
X5953928Y-15959500D02*
X5939643Y-15945214D01*
X5911071Y-15902357D01*
X5896786Y-15873786D01*
X5882500Y-15830929D01*
X5868214Y-15759500D01*
X5868214Y-15702357D01*
X5882500Y-15630929D01*
X5896786Y-15588071D01*
X5911071Y-15559500D01*
X5939643Y-15516643D01*
X5953928Y-15502357D01*
X6125357Y-15545214D02*
X6153928Y-15545214D01*
X6182500Y-15559500D01*
X6196786Y-15573786D01*
X6211071Y-15602357D01*
X6225357Y-15659500D01*
X6225357Y-15730929D01*
X6211071Y-15788071D01*
X6196786Y-15816643D01*
X6182500Y-15830929D01*
X6153928Y-15845214D01*
X6125357Y-15845214D01*
X6096786Y-15830929D01*
X6082500Y-15816643D01*
X6068214Y-15788071D01*
X6053928Y-15730929D01*
X6053928Y-15659500D01*
X6068214Y-15602357D01*
X6082500Y-15573786D01*
X6096786Y-15559500D01*
X6125357Y-15545214D01*
X6582500Y-15845214D02*
X6582500Y-15545214D01*
X6711071Y-15845214D02*
X6711071Y-15688071D01*
X6696786Y-15659500D01*
X6668214Y-15645214D01*
X6625357Y-15645214D01*
X6596786Y-15659500D01*
X6582500Y-15673786D01*
X6896786Y-15845214D02*
X6868214Y-15830929D01*
X6853928Y-15816643D01*
X6839643Y-15788071D01*
X6839643Y-15702357D01*
X6853928Y-15673786D01*
X6868214Y-15659500D01*
X6896786Y-15645214D01*
X6939643Y-15645214D01*
X6968214Y-15659500D01*
X6982500Y-15673786D01*
X6996786Y-15702357D01*
X6996786Y-15788071D01*
X6982500Y-15816643D01*
X6968214Y-15830929D01*
X6939643Y-15845214D01*
X6896786Y-15845214D01*
X7168214Y-15845214D02*
X7139643Y-15830929D01*
X7125357Y-15802357D01*
X7125357Y-15545214D01*
X7396786Y-15830929D02*
X7368214Y-15845214D01*
X7311071Y-15845214D01*
X7282500Y-15830929D01*
X7268214Y-15802357D01*
X7268214Y-15688071D01*
X7282500Y-15659500D01*
X7311071Y-15645214D01*
X7368214Y-15645214D01*
X7396786Y-15659500D01*
X7411071Y-15688071D01*
X7411071Y-15716643D01*
X7268214Y-15745214D01*
X7525357Y-15830929D02*
X7553928Y-15845214D01*
X7611071Y-15845214D01*
X7639643Y-15830929D01*
X7653928Y-15802357D01*
X7653928Y-15788071D01*
X7639643Y-15759500D01*
X7611071Y-15745214D01*
X7568214Y-15745214D01*
X7539643Y-15730929D01*
X7525357Y-15702357D01*
X7525357Y-15688071D01*
X7539643Y-15659500D01*
X7568214Y-15645214D01*
X7611071Y-15645214D01*
X7639643Y-15659500D01*
X8011071Y-15730929D02*
X8239643Y-15730929D01*
X8125357Y-15845214D02*
X8125357Y-15616643D01*
X8596786Y-15573786D02*
X8611071Y-15559500D01*
X8639643Y-15545214D01*
X8711071Y-15545214D01*
X8739643Y-15559500D01*
X8753928Y-15573786D01*
X8768214Y-15602357D01*
X8768214Y-15630929D01*
X8753928Y-15673786D01*
X8582500Y-15845214D01*
X8768214Y-15845214D01*
X9111071Y-15830929D02*
X9139643Y-15845214D01*
X9196786Y-15845214D01*
X9225357Y-15830929D01*
X9239643Y-15802357D01*
X9239643Y-15788071D01*
X9225357Y-15759500D01*
X9196786Y-15745214D01*
X9153928Y-15745214D01*
X9125357Y-15730929D01*
X9111071Y-15702357D01*
X9111071Y-15688071D01*
X9125357Y-15659500D01*
X9153928Y-15645214D01*
X9196786Y-15645214D01*
X9225357Y-15659500D01*
X9411071Y-15845214D02*
X9382500Y-15830929D01*
X9368214Y-15802357D01*
X9368214Y-15545214D01*
X9568214Y-15845214D02*
X9539643Y-15830929D01*
X9525357Y-15816643D01*
X9511071Y-15788071D01*
X9511071Y-15702357D01*
X9525357Y-15673786D01*
X9539643Y-15659500D01*
X9568214Y-15645214D01*
X9611071Y-15645214D01*
X9639643Y-15659500D01*
X9653928Y-15673786D01*
X9668214Y-15702357D01*
X9668214Y-15788071D01*
X9653928Y-15816643D01*
X9639643Y-15830929D01*
X9611071Y-15845214D01*
X9568214Y-15845214D01*
X9753928Y-15645214D02*
X9868214Y-15645214D01*
X9796786Y-15545214D02*
X9796786Y-15802357D01*
X9811071Y-15830929D01*
X9839643Y-15845214D01*
X9868214Y-15845214D01*
X9953928Y-15830929D02*
X9982500Y-15845214D01*
X10039643Y-15845214D01*
X10068214Y-15830929D01*
X10082500Y-15802357D01*
X10082500Y-15788071D01*
X10068214Y-15759500D01*
X10039643Y-15745214D01*
X9996786Y-15745214D01*
X9968214Y-15730929D01*
X9953928Y-15702357D01*
X9953928Y-15688071D01*
X9968214Y-15659500D01*
X9996786Y-15645214D01*
X10039643Y-15645214D01*
X10068214Y-15659500D01*
X10182500Y-15959500D02*
X10196786Y-15945214D01*
X10225357Y-15902357D01*
X10239643Y-15873786D01*
X10253928Y-15830929D01*
X10268214Y-15759500D01*
X10268214Y-15702357D01*
X10253928Y-15630929D01*
X10239643Y-15588071D01*
X10225357Y-15559500D01*
X10196786Y-15516643D01*
X10182500Y-15502357D01*
X10725357Y-15959500D02*
X10711071Y-15945214D01*
X10682500Y-15902357D01*
X10668214Y-15873786D01*
X10653928Y-15830929D01*
X10639643Y-15759500D01*
X10639643Y-15702357D01*
X10653928Y-15630929D01*
X10668214Y-15588071D01*
X10682500Y-15559500D01*
X10711071Y-15516643D01*
X10725357Y-15502357D01*
X10839643Y-15645214D02*
X10839643Y-15845214D01*
X10839643Y-15673786D02*
X10853928Y-15659500D01*
X10882500Y-15645214D01*
X10925357Y-15645214D01*
X10953928Y-15659500D01*
X10968214Y-15688071D01*
X10968214Y-15845214D01*
X11153928Y-15845214D02*
X11125357Y-15830929D01*
X11111071Y-15816643D01*
X11096786Y-15788071D01*
X11096786Y-15702357D01*
X11111071Y-15673786D01*
X11125357Y-15659500D01*
X11153928Y-15645214D01*
X11196786Y-15645214D01*
X11225357Y-15659500D01*
X11239643Y-15673786D01*
X11253928Y-15702357D01*
X11253928Y-15788071D01*
X11239643Y-15816643D01*
X11225357Y-15830929D01*
X11196786Y-15845214D01*
X11153928Y-15845214D01*
X11339643Y-15645214D02*
X11453928Y-15645214D01*
X11382500Y-15545214D02*
X11382500Y-15802357D01*
X11396786Y-15830929D01*
X11425357Y-15845214D01*
X11453928Y-15845214D01*
X11782500Y-15645214D02*
X11782500Y-15945214D01*
X11782500Y-15659500D02*
X11811071Y-15645214D01*
X11868214Y-15645214D01*
X11896786Y-15659500D01*
X11911071Y-15673786D01*
X11925357Y-15702357D01*
X11925357Y-15788071D01*
X11911071Y-15816643D01*
X11896786Y-15830929D01*
X11868214Y-15845214D01*
X11811071Y-15845214D01*
X11782500Y-15830929D01*
X12096786Y-15845214D02*
X12068214Y-15830929D01*
X12053928Y-15802357D01*
X12053928Y-15545214D01*
X12339643Y-15845214D02*
X12339643Y-15688071D01*
X12325357Y-15659500D01*
X12296786Y-15645214D01*
X12239643Y-15645214D01*
X12211071Y-15659500D01*
X12339643Y-15830929D02*
X12311071Y-15845214D01*
X12239643Y-15845214D01*
X12211071Y-15830929D01*
X12196786Y-15802357D01*
X12196786Y-15773786D01*
X12211071Y-15745214D01*
X12239643Y-15730929D01*
X12311071Y-15730929D01*
X12339643Y-15716643D01*
X12439643Y-15645214D02*
X12553928Y-15645214D01*
X12482500Y-15545214D02*
X12482500Y-15802357D01*
X12496786Y-15830929D01*
X12525357Y-15845214D01*
X12553928Y-15845214D01*
X12768214Y-15830929D02*
X12739643Y-15845214D01*
X12682500Y-15845214D01*
X12653928Y-15830929D01*
X12639643Y-15802357D01*
X12639643Y-15688071D01*
X12653928Y-15659500D01*
X12682500Y-15645214D01*
X12739643Y-15645214D01*
X12768214Y-15659500D01*
X12782500Y-15688071D01*
X12782500Y-15716643D01*
X12639643Y-15745214D01*
X13039643Y-15845214D02*
X13039643Y-15545214D01*
X13039643Y-15830929D02*
X13011071Y-15845214D01*
X12953928Y-15845214D01*
X12925357Y-15830929D01*
X12911071Y-15816643D01*
X12896786Y-15788071D01*
X12896786Y-15702357D01*
X12911071Y-15673786D01*
X12925357Y-15659500D01*
X12953928Y-15645214D01*
X13011071Y-15645214D01*
X13039643Y-15659500D01*
X13153928Y-15959500D02*
X13168214Y-15945214D01*
X13196786Y-15902357D01*
X13211071Y-15873786D01*
X13225357Y-15830929D01*
X13239643Y-15759500D01*
X13239643Y-15702357D01*
X13225357Y-15630929D01*
X13211071Y-15588071D01*
X13196786Y-15559500D01*
X13168214Y-15516643D01*
X13153928Y-15502357D01*
M02*
