G04 #@! TF.GenerationSoftware,KiCad,Pcbnew,(5.1.2-1)-1*
G04 #@! TF.CreationDate,2022-12-12T22:42:53+01:00*
G04 #@! TF.ProjectId,full,66756c6c-2e6b-4696-9361-645f70636258,rev?*
G04 #@! TF.SameCoordinates,Original*
G04 #@! TF.FileFunction,Paste,Top*
G04 #@! TF.FilePolarity,Positive*
%FSLAX46Y46*%
G04 Gerber Fmt 4.6, Leading zero omitted, Abs format (unit mm)*
G04 Created by KiCad (PCBNEW (5.1.2-1)-1) date 2022-12-12 22:42:53*
%MOMM*%
%LPD*%
G04 APERTURE LIST*
%ADD10C,0.100000*%
%ADD11C,0.600000*%
G04 APERTURE END LIST*
D10*
G36*
X150659703Y-83225722D02*
G01*
X150674264Y-83227882D01*
X150688543Y-83231459D01*
X150702403Y-83236418D01*
X150715710Y-83242712D01*
X150728336Y-83250280D01*
X150740159Y-83259048D01*
X150751066Y-83268934D01*
X150760952Y-83279841D01*
X150769720Y-83291664D01*
X150777288Y-83304290D01*
X150783582Y-83317597D01*
X150788541Y-83331457D01*
X150792118Y-83345736D01*
X150794278Y-83360297D01*
X150795000Y-83375000D01*
X150795000Y-85125000D01*
X150794278Y-85139703D01*
X150792118Y-85154264D01*
X150788541Y-85168543D01*
X150783582Y-85182403D01*
X150777288Y-85195710D01*
X150769720Y-85208336D01*
X150760952Y-85220159D01*
X150751066Y-85231066D01*
X150740159Y-85240952D01*
X150728336Y-85249720D01*
X150715710Y-85257288D01*
X150702403Y-85263582D01*
X150688543Y-85268541D01*
X150674264Y-85272118D01*
X150659703Y-85274278D01*
X150645000Y-85275000D01*
X150345000Y-85275000D01*
X150330297Y-85274278D01*
X150315736Y-85272118D01*
X150301457Y-85268541D01*
X150287597Y-85263582D01*
X150274290Y-85257288D01*
X150261664Y-85249720D01*
X150249841Y-85240952D01*
X150238934Y-85231066D01*
X150229048Y-85220159D01*
X150220280Y-85208336D01*
X150212712Y-85195710D01*
X150206418Y-85182403D01*
X150201459Y-85168543D01*
X150197882Y-85154264D01*
X150195722Y-85139703D01*
X150195000Y-85125000D01*
X150195000Y-83375000D01*
X150195722Y-83360297D01*
X150197882Y-83345736D01*
X150201459Y-83331457D01*
X150206418Y-83317597D01*
X150212712Y-83304290D01*
X150220280Y-83291664D01*
X150229048Y-83279841D01*
X150238934Y-83268934D01*
X150249841Y-83259048D01*
X150261664Y-83250280D01*
X150274290Y-83242712D01*
X150287597Y-83236418D01*
X150301457Y-83231459D01*
X150315736Y-83227882D01*
X150330297Y-83225722D01*
X150345000Y-83225000D01*
X150645000Y-83225000D01*
X150659703Y-83225722D01*
X150659703Y-83225722D01*
G37*
D11*
X150495000Y-84250000D03*
D10*
G36*
X151929703Y-83225722D02*
G01*
X151944264Y-83227882D01*
X151958543Y-83231459D01*
X151972403Y-83236418D01*
X151985710Y-83242712D01*
X151998336Y-83250280D01*
X152010159Y-83259048D01*
X152021066Y-83268934D01*
X152030952Y-83279841D01*
X152039720Y-83291664D01*
X152047288Y-83304290D01*
X152053582Y-83317597D01*
X152058541Y-83331457D01*
X152062118Y-83345736D01*
X152064278Y-83360297D01*
X152065000Y-83375000D01*
X152065000Y-85125000D01*
X152064278Y-85139703D01*
X152062118Y-85154264D01*
X152058541Y-85168543D01*
X152053582Y-85182403D01*
X152047288Y-85195710D01*
X152039720Y-85208336D01*
X152030952Y-85220159D01*
X152021066Y-85231066D01*
X152010159Y-85240952D01*
X151998336Y-85249720D01*
X151985710Y-85257288D01*
X151972403Y-85263582D01*
X151958543Y-85268541D01*
X151944264Y-85272118D01*
X151929703Y-85274278D01*
X151915000Y-85275000D01*
X151615000Y-85275000D01*
X151600297Y-85274278D01*
X151585736Y-85272118D01*
X151571457Y-85268541D01*
X151557597Y-85263582D01*
X151544290Y-85257288D01*
X151531664Y-85249720D01*
X151519841Y-85240952D01*
X151508934Y-85231066D01*
X151499048Y-85220159D01*
X151490280Y-85208336D01*
X151482712Y-85195710D01*
X151476418Y-85182403D01*
X151471459Y-85168543D01*
X151467882Y-85154264D01*
X151465722Y-85139703D01*
X151465000Y-85125000D01*
X151465000Y-83375000D01*
X151465722Y-83360297D01*
X151467882Y-83345736D01*
X151471459Y-83331457D01*
X151476418Y-83317597D01*
X151482712Y-83304290D01*
X151490280Y-83291664D01*
X151499048Y-83279841D01*
X151508934Y-83268934D01*
X151519841Y-83259048D01*
X151531664Y-83250280D01*
X151544290Y-83242712D01*
X151557597Y-83236418D01*
X151571457Y-83231459D01*
X151585736Y-83227882D01*
X151600297Y-83225722D01*
X151615000Y-83225000D01*
X151915000Y-83225000D01*
X151929703Y-83225722D01*
X151929703Y-83225722D01*
G37*
D11*
X151765000Y-84250000D03*
D10*
G36*
X153199703Y-83225722D02*
G01*
X153214264Y-83227882D01*
X153228543Y-83231459D01*
X153242403Y-83236418D01*
X153255710Y-83242712D01*
X153268336Y-83250280D01*
X153280159Y-83259048D01*
X153291066Y-83268934D01*
X153300952Y-83279841D01*
X153309720Y-83291664D01*
X153317288Y-83304290D01*
X153323582Y-83317597D01*
X153328541Y-83331457D01*
X153332118Y-83345736D01*
X153334278Y-83360297D01*
X153335000Y-83375000D01*
X153335000Y-85125000D01*
X153334278Y-85139703D01*
X153332118Y-85154264D01*
X153328541Y-85168543D01*
X153323582Y-85182403D01*
X153317288Y-85195710D01*
X153309720Y-85208336D01*
X153300952Y-85220159D01*
X153291066Y-85231066D01*
X153280159Y-85240952D01*
X153268336Y-85249720D01*
X153255710Y-85257288D01*
X153242403Y-85263582D01*
X153228543Y-85268541D01*
X153214264Y-85272118D01*
X153199703Y-85274278D01*
X153185000Y-85275000D01*
X152885000Y-85275000D01*
X152870297Y-85274278D01*
X152855736Y-85272118D01*
X152841457Y-85268541D01*
X152827597Y-85263582D01*
X152814290Y-85257288D01*
X152801664Y-85249720D01*
X152789841Y-85240952D01*
X152778934Y-85231066D01*
X152769048Y-85220159D01*
X152760280Y-85208336D01*
X152752712Y-85195710D01*
X152746418Y-85182403D01*
X152741459Y-85168543D01*
X152737882Y-85154264D01*
X152735722Y-85139703D01*
X152735000Y-85125000D01*
X152735000Y-83375000D01*
X152735722Y-83360297D01*
X152737882Y-83345736D01*
X152741459Y-83331457D01*
X152746418Y-83317597D01*
X152752712Y-83304290D01*
X152760280Y-83291664D01*
X152769048Y-83279841D01*
X152778934Y-83268934D01*
X152789841Y-83259048D01*
X152801664Y-83250280D01*
X152814290Y-83242712D01*
X152827597Y-83236418D01*
X152841457Y-83231459D01*
X152855736Y-83227882D01*
X152870297Y-83225722D01*
X152885000Y-83225000D01*
X153185000Y-83225000D01*
X153199703Y-83225722D01*
X153199703Y-83225722D01*
G37*
D11*
X153035000Y-84250000D03*
D10*
G36*
X154469703Y-83225722D02*
G01*
X154484264Y-83227882D01*
X154498543Y-83231459D01*
X154512403Y-83236418D01*
X154525710Y-83242712D01*
X154538336Y-83250280D01*
X154550159Y-83259048D01*
X154561066Y-83268934D01*
X154570952Y-83279841D01*
X154579720Y-83291664D01*
X154587288Y-83304290D01*
X154593582Y-83317597D01*
X154598541Y-83331457D01*
X154602118Y-83345736D01*
X154604278Y-83360297D01*
X154605000Y-83375000D01*
X154605000Y-85125000D01*
X154604278Y-85139703D01*
X154602118Y-85154264D01*
X154598541Y-85168543D01*
X154593582Y-85182403D01*
X154587288Y-85195710D01*
X154579720Y-85208336D01*
X154570952Y-85220159D01*
X154561066Y-85231066D01*
X154550159Y-85240952D01*
X154538336Y-85249720D01*
X154525710Y-85257288D01*
X154512403Y-85263582D01*
X154498543Y-85268541D01*
X154484264Y-85272118D01*
X154469703Y-85274278D01*
X154455000Y-85275000D01*
X154155000Y-85275000D01*
X154140297Y-85274278D01*
X154125736Y-85272118D01*
X154111457Y-85268541D01*
X154097597Y-85263582D01*
X154084290Y-85257288D01*
X154071664Y-85249720D01*
X154059841Y-85240952D01*
X154048934Y-85231066D01*
X154039048Y-85220159D01*
X154030280Y-85208336D01*
X154022712Y-85195710D01*
X154016418Y-85182403D01*
X154011459Y-85168543D01*
X154007882Y-85154264D01*
X154005722Y-85139703D01*
X154005000Y-85125000D01*
X154005000Y-83375000D01*
X154005722Y-83360297D01*
X154007882Y-83345736D01*
X154011459Y-83331457D01*
X154016418Y-83317597D01*
X154022712Y-83304290D01*
X154030280Y-83291664D01*
X154039048Y-83279841D01*
X154048934Y-83268934D01*
X154059841Y-83259048D01*
X154071664Y-83250280D01*
X154084290Y-83242712D01*
X154097597Y-83236418D01*
X154111457Y-83231459D01*
X154125736Y-83227882D01*
X154140297Y-83225722D01*
X154155000Y-83225000D01*
X154455000Y-83225000D01*
X154469703Y-83225722D01*
X154469703Y-83225722D01*
G37*
D11*
X154305000Y-84250000D03*
D10*
G36*
X155739703Y-83225722D02*
G01*
X155754264Y-83227882D01*
X155768543Y-83231459D01*
X155782403Y-83236418D01*
X155795710Y-83242712D01*
X155808336Y-83250280D01*
X155820159Y-83259048D01*
X155831066Y-83268934D01*
X155840952Y-83279841D01*
X155849720Y-83291664D01*
X155857288Y-83304290D01*
X155863582Y-83317597D01*
X155868541Y-83331457D01*
X155872118Y-83345736D01*
X155874278Y-83360297D01*
X155875000Y-83375000D01*
X155875000Y-85125000D01*
X155874278Y-85139703D01*
X155872118Y-85154264D01*
X155868541Y-85168543D01*
X155863582Y-85182403D01*
X155857288Y-85195710D01*
X155849720Y-85208336D01*
X155840952Y-85220159D01*
X155831066Y-85231066D01*
X155820159Y-85240952D01*
X155808336Y-85249720D01*
X155795710Y-85257288D01*
X155782403Y-85263582D01*
X155768543Y-85268541D01*
X155754264Y-85272118D01*
X155739703Y-85274278D01*
X155725000Y-85275000D01*
X155425000Y-85275000D01*
X155410297Y-85274278D01*
X155395736Y-85272118D01*
X155381457Y-85268541D01*
X155367597Y-85263582D01*
X155354290Y-85257288D01*
X155341664Y-85249720D01*
X155329841Y-85240952D01*
X155318934Y-85231066D01*
X155309048Y-85220159D01*
X155300280Y-85208336D01*
X155292712Y-85195710D01*
X155286418Y-85182403D01*
X155281459Y-85168543D01*
X155277882Y-85154264D01*
X155275722Y-85139703D01*
X155275000Y-85125000D01*
X155275000Y-83375000D01*
X155275722Y-83360297D01*
X155277882Y-83345736D01*
X155281459Y-83331457D01*
X155286418Y-83317597D01*
X155292712Y-83304290D01*
X155300280Y-83291664D01*
X155309048Y-83279841D01*
X155318934Y-83268934D01*
X155329841Y-83259048D01*
X155341664Y-83250280D01*
X155354290Y-83242712D01*
X155367597Y-83236418D01*
X155381457Y-83231459D01*
X155395736Y-83227882D01*
X155410297Y-83225722D01*
X155425000Y-83225000D01*
X155725000Y-83225000D01*
X155739703Y-83225722D01*
X155739703Y-83225722D01*
G37*
D11*
X155575000Y-84250000D03*
D10*
G36*
X157009703Y-83225722D02*
G01*
X157024264Y-83227882D01*
X157038543Y-83231459D01*
X157052403Y-83236418D01*
X157065710Y-83242712D01*
X157078336Y-83250280D01*
X157090159Y-83259048D01*
X157101066Y-83268934D01*
X157110952Y-83279841D01*
X157119720Y-83291664D01*
X157127288Y-83304290D01*
X157133582Y-83317597D01*
X157138541Y-83331457D01*
X157142118Y-83345736D01*
X157144278Y-83360297D01*
X157145000Y-83375000D01*
X157145000Y-85125000D01*
X157144278Y-85139703D01*
X157142118Y-85154264D01*
X157138541Y-85168543D01*
X157133582Y-85182403D01*
X157127288Y-85195710D01*
X157119720Y-85208336D01*
X157110952Y-85220159D01*
X157101066Y-85231066D01*
X157090159Y-85240952D01*
X157078336Y-85249720D01*
X157065710Y-85257288D01*
X157052403Y-85263582D01*
X157038543Y-85268541D01*
X157024264Y-85272118D01*
X157009703Y-85274278D01*
X156995000Y-85275000D01*
X156695000Y-85275000D01*
X156680297Y-85274278D01*
X156665736Y-85272118D01*
X156651457Y-85268541D01*
X156637597Y-85263582D01*
X156624290Y-85257288D01*
X156611664Y-85249720D01*
X156599841Y-85240952D01*
X156588934Y-85231066D01*
X156579048Y-85220159D01*
X156570280Y-85208336D01*
X156562712Y-85195710D01*
X156556418Y-85182403D01*
X156551459Y-85168543D01*
X156547882Y-85154264D01*
X156545722Y-85139703D01*
X156545000Y-85125000D01*
X156545000Y-83375000D01*
X156545722Y-83360297D01*
X156547882Y-83345736D01*
X156551459Y-83331457D01*
X156556418Y-83317597D01*
X156562712Y-83304290D01*
X156570280Y-83291664D01*
X156579048Y-83279841D01*
X156588934Y-83268934D01*
X156599841Y-83259048D01*
X156611664Y-83250280D01*
X156624290Y-83242712D01*
X156637597Y-83236418D01*
X156651457Y-83231459D01*
X156665736Y-83227882D01*
X156680297Y-83225722D01*
X156695000Y-83225000D01*
X156995000Y-83225000D01*
X157009703Y-83225722D01*
X157009703Y-83225722D01*
G37*
D11*
X156845000Y-84250000D03*
D10*
G36*
X158279703Y-83225722D02*
G01*
X158294264Y-83227882D01*
X158308543Y-83231459D01*
X158322403Y-83236418D01*
X158335710Y-83242712D01*
X158348336Y-83250280D01*
X158360159Y-83259048D01*
X158371066Y-83268934D01*
X158380952Y-83279841D01*
X158389720Y-83291664D01*
X158397288Y-83304290D01*
X158403582Y-83317597D01*
X158408541Y-83331457D01*
X158412118Y-83345736D01*
X158414278Y-83360297D01*
X158415000Y-83375000D01*
X158415000Y-85125000D01*
X158414278Y-85139703D01*
X158412118Y-85154264D01*
X158408541Y-85168543D01*
X158403582Y-85182403D01*
X158397288Y-85195710D01*
X158389720Y-85208336D01*
X158380952Y-85220159D01*
X158371066Y-85231066D01*
X158360159Y-85240952D01*
X158348336Y-85249720D01*
X158335710Y-85257288D01*
X158322403Y-85263582D01*
X158308543Y-85268541D01*
X158294264Y-85272118D01*
X158279703Y-85274278D01*
X158265000Y-85275000D01*
X157965000Y-85275000D01*
X157950297Y-85274278D01*
X157935736Y-85272118D01*
X157921457Y-85268541D01*
X157907597Y-85263582D01*
X157894290Y-85257288D01*
X157881664Y-85249720D01*
X157869841Y-85240952D01*
X157858934Y-85231066D01*
X157849048Y-85220159D01*
X157840280Y-85208336D01*
X157832712Y-85195710D01*
X157826418Y-85182403D01*
X157821459Y-85168543D01*
X157817882Y-85154264D01*
X157815722Y-85139703D01*
X157815000Y-85125000D01*
X157815000Y-83375000D01*
X157815722Y-83360297D01*
X157817882Y-83345736D01*
X157821459Y-83331457D01*
X157826418Y-83317597D01*
X157832712Y-83304290D01*
X157840280Y-83291664D01*
X157849048Y-83279841D01*
X157858934Y-83268934D01*
X157869841Y-83259048D01*
X157881664Y-83250280D01*
X157894290Y-83242712D01*
X157907597Y-83236418D01*
X157921457Y-83231459D01*
X157935736Y-83227882D01*
X157950297Y-83225722D01*
X157965000Y-83225000D01*
X158265000Y-83225000D01*
X158279703Y-83225722D01*
X158279703Y-83225722D01*
G37*
D11*
X158115000Y-84250000D03*
D10*
G36*
X159549703Y-83225722D02*
G01*
X159564264Y-83227882D01*
X159578543Y-83231459D01*
X159592403Y-83236418D01*
X159605710Y-83242712D01*
X159618336Y-83250280D01*
X159630159Y-83259048D01*
X159641066Y-83268934D01*
X159650952Y-83279841D01*
X159659720Y-83291664D01*
X159667288Y-83304290D01*
X159673582Y-83317597D01*
X159678541Y-83331457D01*
X159682118Y-83345736D01*
X159684278Y-83360297D01*
X159685000Y-83375000D01*
X159685000Y-85125000D01*
X159684278Y-85139703D01*
X159682118Y-85154264D01*
X159678541Y-85168543D01*
X159673582Y-85182403D01*
X159667288Y-85195710D01*
X159659720Y-85208336D01*
X159650952Y-85220159D01*
X159641066Y-85231066D01*
X159630159Y-85240952D01*
X159618336Y-85249720D01*
X159605710Y-85257288D01*
X159592403Y-85263582D01*
X159578543Y-85268541D01*
X159564264Y-85272118D01*
X159549703Y-85274278D01*
X159535000Y-85275000D01*
X159235000Y-85275000D01*
X159220297Y-85274278D01*
X159205736Y-85272118D01*
X159191457Y-85268541D01*
X159177597Y-85263582D01*
X159164290Y-85257288D01*
X159151664Y-85249720D01*
X159139841Y-85240952D01*
X159128934Y-85231066D01*
X159119048Y-85220159D01*
X159110280Y-85208336D01*
X159102712Y-85195710D01*
X159096418Y-85182403D01*
X159091459Y-85168543D01*
X159087882Y-85154264D01*
X159085722Y-85139703D01*
X159085000Y-85125000D01*
X159085000Y-83375000D01*
X159085722Y-83360297D01*
X159087882Y-83345736D01*
X159091459Y-83331457D01*
X159096418Y-83317597D01*
X159102712Y-83304290D01*
X159110280Y-83291664D01*
X159119048Y-83279841D01*
X159128934Y-83268934D01*
X159139841Y-83259048D01*
X159151664Y-83250280D01*
X159164290Y-83242712D01*
X159177597Y-83236418D01*
X159191457Y-83231459D01*
X159205736Y-83227882D01*
X159220297Y-83225722D01*
X159235000Y-83225000D01*
X159535000Y-83225000D01*
X159549703Y-83225722D01*
X159549703Y-83225722D01*
G37*
D11*
X159385000Y-84250000D03*
D10*
G36*
X159549703Y-92525722D02*
G01*
X159564264Y-92527882D01*
X159578543Y-92531459D01*
X159592403Y-92536418D01*
X159605710Y-92542712D01*
X159618336Y-92550280D01*
X159630159Y-92559048D01*
X159641066Y-92568934D01*
X159650952Y-92579841D01*
X159659720Y-92591664D01*
X159667288Y-92604290D01*
X159673582Y-92617597D01*
X159678541Y-92631457D01*
X159682118Y-92645736D01*
X159684278Y-92660297D01*
X159685000Y-92675000D01*
X159685000Y-94425000D01*
X159684278Y-94439703D01*
X159682118Y-94454264D01*
X159678541Y-94468543D01*
X159673582Y-94482403D01*
X159667288Y-94495710D01*
X159659720Y-94508336D01*
X159650952Y-94520159D01*
X159641066Y-94531066D01*
X159630159Y-94540952D01*
X159618336Y-94549720D01*
X159605710Y-94557288D01*
X159592403Y-94563582D01*
X159578543Y-94568541D01*
X159564264Y-94572118D01*
X159549703Y-94574278D01*
X159535000Y-94575000D01*
X159235000Y-94575000D01*
X159220297Y-94574278D01*
X159205736Y-94572118D01*
X159191457Y-94568541D01*
X159177597Y-94563582D01*
X159164290Y-94557288D01*
X159151664Y-94549720D01*
X159139841Y-94540952D01*
X159128934Y-94531066D01*
X159119048Y-94520159D01*
X159110280Y-94508336D01*
X159102712Y-94495710D01*
X159096418Y-94482403D01*
X159091459Y-94468543D01*
X159087882Y-94454264D01*
X159085722Y-94439703D01*
X159085000Y-94425000D01*
X159085000Y-92675000D01*
X159085722Y-92660297D01*
X159087882Y-92645736D01*
X159091459Y-92631457D01*
X159096418Y-92617597D01*
X159102712Y-92604290D01*
X159110280Y-92591664D01*
X159119048Y-92579841D01*
X159128934Y-92568934D01*
X159139841Y-92559048D01*
X159151664Y-92550280D01*
X159164290Y-92542712D01*
X159177597Y-92536418D01*
X159191457Y-92531459D01*
X159205736Y-92527882D01*
X159220297Y-92525722D01*
X159235000Y-92525000D01*
X159535000Y-92525000D01*
X159549703Y-92525722D01*
X159549703Y-92525722D01*
G37*
D11*
X159385000Y-93550000D03*
D10*
G36*
X158279703Y-92525722D02*
G01*
X158294264Y-92527882D01*
X158308543Y-92531459D01*
X158322403Y-92536418D01*
X158335710Y-92542712D01*
X158348336Y-92550280D01*
X158360159Y-92559048D01*
X158371066Y-92568934D01*
X158380952Y-92579841D01*
X158389720Y-92591664D01*
X158397288Y-92604290D01*
X158403582Y-92617597D01*
X158408541Y-92631457D01*
X158412118Y-92645736D01*
X158414278Y-92660297D01*
X158415000Y-92675000D01*
X158415000Y-94425000D01*
X158414278Y-94439703D01*
X158412118Y-94454264D01*
X158408541Y-94468543D01*
X158403582Y-94482403D01*
X158397288Y-94495710D01*
X158389720Y-94508336D01*
X158380952Y-94520159D01*
X158371066Y-94531066D01*
X158360159Y-94540952D01*
X158348336Y-94549720D01*
X158335710Y-94557288D01*
X158322403Y-94563582D01*
X158308543Y-94568541D01*
X158294264Y-94572118D01*
X158279703Y-94574278D01*
X158265000Y-94575000D01*
X157965000Y-94575000D01*
X157950297Y-94574278D01*
X157935736Y-94572118D01*
X157921457Y-94568541D01*
X157907597Y-94563582D01*
X157894290Y-94557288D01*
X157881664Y-94549720D01*
X157869841Y-94540952D01*
X157858934Y-94531066D01*
X157849048Y-94520159D01*
X157840280Y-94508336D01*
X157832712Y-94495710D01*
X157826418Y-94482403D01*
X157821459Y-94468543D01*
X157817882Y-94454264D01*
X157815722Y-94439703D01*
X157815000Y-94425000D01*
X157815000Y-92675000D01*
X157815722Y-92660297D01*
X157817882Y-92645736D01*
X157821459Y-92631457D01*
X157826418Y-92617597D01*
X157832712Y-92604290D01*
X157840280Y-92591664D01*
X157849048Y-92579841D01*
X157858934Y-92568934D01*
X157869841Y-92559048D01*
X157881664Y-92550280D01*
X157894290Y-92542712D01*
X157907597Y-92536418D01*
X157921457Y-92531459D01*
X157935736Y-92527882D01*
X157950297Y-92525722D01*
X157965000Y-92525000D01*
X158265000Y-92525000D01*
X158279703Y-92525722D01*
X158279703Y-92525722D01*
G37*
D11*
X158115000Y-93550000D03*
D10*
G36*
X157009703Y-92525722D02*
G01*
X157024264Y-92527882D01*
X157038543Y-92531459D01*
X157052403Y-92536418D01*
X157065710Y-92542712D01*
X157078336Y-92550280D01*
X157090159Y-92559048D01*
X157101066Y-92568934D01*
X157110952Y-92579841D01*
X157119720Y-92591664D01*
X157127288Y-92604290D01*
X157133582Y-92617597D01*
X157138541Y-92631457D01*
X157142118Y-92645736D01*
X157144278Y-92660297D01*
X157145000Y-92675000D01*
X157145000Y-94425000D01*
X157144278Y-94439703D01*
X157142118Y-94454264D01*
X157138541Y-94468543D01*
X157133582Y-94482403D01*
X157127288Y-94495710D01*
X157119720Y-94508336D01*
X157110952Y-94520159D01*
X157101066Y-94531066D01*
X157090159Y-94540952D01*
X157078336Y-94549720D01*
X157065710Y-94557288D01*
X157052403Y-94563582D01*
X157038543Y-94568541D01*
X157024264Y-94572118D01*
X157009703Y-94574278D01*
X156995000Y-94575000D01*
X156695000Y-94575000D01*
X156680297Y-94574278D01*
X156665736Y-94572118D01*
X156651457Y-94568541D01*
X156637597Y-94563582D01*
X156624290Y-94557288D01*
X156611664Y-94549720D01*
X156599841Y-94540952D01*
X156588934Y-94531066D01*
X156579048Y-94520159D01*
X156570280Y-94508336D01*
X156562712Y-94495710D01*
X156556418Y-94482403D01*
X156551459Y-94468543D01*
X156547882Y-94454264D01*
X156545722Y-94439703D01*
X156545000Y-94425000D01*
X156545000Y-92675000D01*
X156545722Y-92660297D01*
X156547882Y-92645736D01*
X156551459Y-92631457D01*
X156556418Y-92617597D01*
X156562712Y-92604290D01*
X156570280Y-92591664D01*
X156579048Y-92579841D01*
X156588934Y-92568934D01*
X156599841Y-92559048D01*
X156611664Y-92550280D01*
X156624290Y-92542712D01*
X156637597Y-92536418D01*
X156651457Y-92531459D01*
X156665736Y-92527882D01*
X156680297Y-92525722D01*
X156695000Y-92525000D01*
X156995000Y-92525000D01*
X157009703Y-92525722D01*
X157009703Y-92525722D01*
G37*
D11*
X156845000Y-93550000D03*
D10*
G36*
X155739703Y-92525722D02*
G01*
X155754264Y-92527882D01*
X155768543Y-92531459D01*
X155782403Y-92536418D01*
X155795710Y-92542712D01*
X155808336Y-92550280D01*
X155820159Y-92559048D01*
X155831066Y-92568934D01*
X155840952Y-92579841D01*
X155849720Y-92591664D01*
X155857288Y-92604290D01*
X155863582Y-92617597D01*
X155868541Y-92631457D01*
X155872118Y-92645736D01*
X155874278Y-92660297D01*
X155875000Y-92675000D01*
X155875000Y-94425000D01*
X155874278Y-94439703D01*
X155872118Y-94454264D01*
X155868541Y-94468543D01*
X155863582Y-94482403D01*
X155857288Y-94495710D01*
X155849720Y-94508336D01*
X155840952Y-94520159D01*
X155831066Y-94531066D01*
X155820159Y-94540952D01*
X155808336Y-94549720D01*
X155795710Y-94557288D01*
X155782403Y-94563582D01*
X155768543Y-94568541D01*
X155754264Y-94572118D01*
X155739703Y-94574278D01*
X155725000Y-94575000D01*
X155425000Y-94575000D01*
X155410297Y-94574278D01*
X155395736Y-94572118D01*
X155381457Y-94568541D01*
X155367597Y-94563582D01*
X155354290Y-94557288D01*
X155341664Y-94549720D01*
X155329841Y-94540952D01*
X155318934Y-94531066D01*
X155309048Y-94520159D01*
X155300280Y-94508336D01*
X155292712Y-94495710D01*
X155286418Y-94482403D01*
X155281459Y-94468543D01*
X155277882Y-94454264D01*
X155275722Y-94439703D01*
X155275000Y-94425000D01*
X155275000Y-92675000D01*
X155275722Y-92660297D01*
X155277882Y-92645736D01*
X155281459Y-92631457D01*
X155286418Y-92617597D01*
X155292712Y-92604290D01*
X155300280Y-92591664D01*
X155309048Y-92579841D01*
X155318934Y-92568934D01*
X155329841Y-92559048D01*
X155341664Y-92550280D01*
X155354290Y-92542712D01*
X155367597Y-92536418D01*
X155381457Y-92531459D01*
X155395736Y-92527882D01*
X155410297Y-92525722D01*
X155425000Y-92525000D01*
X155725000Y-92525000D01*
X155739703Y-92525722D01*
X155739703Y-92525722D01*
G37*
D11*
X155575000Y-93550000D03*
D10*
G36*
X154469703Y-92525722D02*
G01*
X154484264Y-92527882D01*
X154498543Y-92531459D01*
X154512403Y-92536418D01*
X154525710Y-92542712D01*
X154538336Y-92550280D01*
X154550159Y-92559048D01*
X154561066Y-92568934D01*
X154570952Y-92579841D01*
X154579720Y-92591664D01*
X154587288Y-92604290D01*
X154593582Y-92617597D01*
X154598541Y-92631457D01*
X154602118Y-92645736D01*
X154604278Y-92660297D01*
X154605000Y-92675000D01*
X154605000Y-94425000D01*
X154604278Y-94439703D01*
X154602118Y-94454264D01*
X154598541Y-94468543D01*
X154593582Y-94482403D01*
X154587288Y-94495710D01*
X154579720Y-94508336D01*
X154570952Y-94520159D01*
X154561066Y-94531066D01*
X154550159Y-94540952D01*
X154538336Y-94549720D01*
X154525710Y-94557288D01*
X154512403Y-94563582D01*
X154498543Y-94568541D01*
X154484264Y-94572118D01*
X154469703Y-94574278D01*
X154455000Y-94575000D01*
X154155000Y-94575000D01*
X154140297Y-94574278D01*
X154125736Y-94572118D01*
X154111457Y-94568541D01*
X154097597Y-94563582D01*
X154084290Y-94557288D01*
X154071664Y-94549720D01*
X154059841Y-94540952D01*
X154048934Y-94531066D01*
X154039048Y-94520159D01*
X154030280Y-94508336D01*
X154022712Y-94495710D01*
X154016418Y-94482403D01*
X154011459Y-94468543D01*
X154007882Y-94454264D01*
X154005722Y-94439703D01*
X154005000Y-94425000D01*
X154005000Y-92675000D01*
X154005722Y-92660297D01*
X154007882Y-92645736D01*
X154011459Y-92631457D01*
X154016418Y-92617597D01*
X154022712Y-92604290D01*
X154030280Y-92591664D01*
X154039048Y-92579841D01*
X154048934Y-92568934D01*
X154059841Y-92559048D01*
X154071664Y-92550280D01*
X154084290Y-92542712D01*
X154097597Y-92536418D01*
X154111457Y-92531459D01*
X154125736Y-92527882D01*
X154140297Y-92525722D01*
X154155000Y-92525000D01*
X154455000Y-92525000D01*
X154469703Y-92525722D01*
X154469703Y-92525722D01*
G37*
D11*
X154305000Y-93550000D03*
D10*
G36*
X153199703Y-92525722D02*
G01*
X153214264Y-92527882D01*
X153228543Y-92531459D01*
X153242403Y-92536418D01*
X153255710Y-92542712D01*
X153268336Y-92550280D01*
X153280159Y-92559048D01*
X153291066Y-92568934D01*
X153300952Y-92579841D01*
X153309720Y-92591664D01*
X153317288Y-92604290D01*
X153323582Y-92617597D01*
X153328541Y-92631457D01*
X153332118Y-92645736D01*
X153334278Y-92660297D01*
X153335000Y-92675000D01*
X153335000Y-94425000D01*
X153334278Y-94439703D01*
X153332118Y-94454264D01*
X153328541Y-94468543D01*
X153323582Y-94482403D01*
X153317288Y-94495710D01*
X153309720Y-94508336D01*
X153300952Y-94520159D01*
X153291066Y-94531066D01*
X153280159Y-94540952D01*
X153268336Y-94549720D01*
X153255710Y-94557288D01*
X153242403Y-94563582D01*
X153228543Y-94568541D01*
X153214264Y-94572118D01*
X153199703Y-94574278D01*
X153185000Y-94575000D01*
X152885000Y-94575000D01*
X152870297Y-94574278D01*
X152855736Y-94572118D01*
X152841457Y-94568541D01*
X152827597Y-94563582D01*
X152814290Y-94557288D01*
X152801664Y-94549720D01*
X152789841Y-94540952D01*
X152778934Y-94531066D01*
X152769048Y-94520159D01*
X152760280Y-94508336D01*
X152752712Y-94495710D01*
X152746418Y-94482403D01*
X152741459Y-94468543D01*
X152737882Y-94454264D01*
X152735722Y-94439703D01*
X152735000Y-94425000D01*
X152735000Y-92675000D01*
X152735722Y-92660297D01*
X152737882Y-92645736D01*
X152741459Y-92631457D01*
X152746418Y-92617597D01*
X152752712Y-92604290D01*
X152760280Y-92591664D01*
X152769048Y-92579841D01*
X152778934Y-92568934D01*
X152789841Y-92559048D01*
X152801664Y-92550280D01*
X152814290Y-92542712D01*
X152827597Y-92536418D01*
X152841457Y-92531459D01*
X152855736Y-92527882D01*
X152870297Y-92525722D01*
X152885000Y-92525000D01*
X153185000Y-92525000D01*
X153199703Y-92525722D01*
X153199703Y-92525722D01*
G37*
D11*
X153035000Y-93550000D03*
D10*
G36*
X151929703Y-92525722D02*
G01*
X151944264Y-92527882D01*
X151958543Y-92531459D01*
X151972403Y-92536418D01*
X151985710Y-92542712D01*
X151998336Y-92550280D01*
X152010159Y-92559048D01*
X152021066Y-92568934D01*
X152030952Y-92579841D01*
X152039720Y-92591664D01*
X152047288Y-92604290D01*
X152053582Y-92617597D01*
X152058541Y-92631457D01*
X152062118Y-92645736D01*
X152064278Y-92660297D01*
X152065000Y-92675000D01*
X152065000Y-94425000D01*
X152064278Y-94439703D01*
X152062118Y-94454264D01*
X152058541Y-94468543D01*
X152053582Y-94482403D01*
X152047288Y-94495710D01*
X152039720Y-94508336D01*
X152030952Y-94520159D01*
X152021066Y-94531066D01*
X152010159Y-94540952D01*
X151998336Y-94549720D01*
X151985710Y-94557288D01*
X151972403Y-94563582D01*
X151958543Y-94568541D01*
X151944264Y-94572118D01*
X151929703Y-94574278D01*
X151915000Y-94575000D01*
X151615000Y-94575000D01*
X151600297Y-94574278D01*
X151585736Y-94572118D01*
X151571457Y-94568541D01*
X151557597Y-94563582D01*
X151544290Y-94557288D01*
X151531664Y-94549720D01*
X151519841Y-94540952D01*
X151508934Y-94531066D01*
X151499048Y-94520159D01*
X151490280Y-94508336D01*
X151482712Y-94495710D01*
X151476418Y-94482403D01*
X151471459Y-94468543D01*
X151467882Y-94454264D01*
X151465722Y-94439703D01*
X151465000Y-94425000D01*
X151465000Y-92675000D01*
X151465722Y-92660297D01*
X151467882Y-92645736D01*
X151471459Y-92631457D01*
X151476418Y-92617597D01*
X151482712Y-92604290D01*
X151490280Y-92591664D01*
X151499048Y-92579841D01*
X151508934Y-92568934D01*
X151519841Y-92559048D01*
X151531664Y-92550280D01*
X151544290Y-92542712D01*
X151557597Y-92536418D01*
X151571457Y-92531459D01*
X151585736Y-92527882D01*
X151600297Y-92525722D01*
X151615000Y-92525000D01*
X151915000Y-92525000D01*
X151929703Y-92525722D01*
X151929703Y-92525722D01*
G37*
D11*
X151765000Y-93550000D03*
D10*
G36*
X150659703Y-92525722D02*
G01*
X150674264Y-92527882D01*
X150688543Y-92531459D01*
X150702403Y-92536418D01*
X150715710Y-92542712D01*
X150728336Y-92550280D01*
X150740159Y-92559048D01*
X150751066Y-92568934D01*
X150760952Y-92579841D01*
X150769720Y-92591664D01*
X150777288Y-92604290D01*
X150783582Y-92617597D01*
X150788541Y-92631457D01*
X150792118Y-92645736D01*
X150794278Y-92660297D01*
X150795000Y-92675000D01*
X150795000Y-94425000D01*
X150794278Y-94439703D01*
X150792118Y-94454264D01*
X150788541Y-94468543D01*
X150783582Y-94482403D01*
X150777288Y-94495710D01*
X150769720Y-94508336D01*
X150760952Y-94520159D01*
X150751066Y-94531066D01*
X150740159Y-94540952D01*
X150728336Y-94549720D01*
X150715710Y-94557288D01*
X150702403Y-94563582D01*
X150688543Y-94568541D01*
X150674264Y-94572118D01*
X150659703Y-94574278D01*
X150645000Y-94575000D01*
X150345000Y-94575000D01*
X150330297Y-94574278D01*
X150315736Y-94572118D01*
X150301457Y-94568541D01*
X150287597Y-94563582D01*
X150274290Y-94557288D01*
X150261664Y-94549720D01*
X150249841Y-94540952D01*
X150238934Y-94531066D01*
X150229048Y-94520159D01*
X150220280Y-94508336D01*
X150212712Y-94495710D01*
X150206418Y-94482403D01*
X150201459Y-94468543D01*
X150197882Y-94454264D01*
X150195722Y-94439703D01*
X150195000Y-94425000D01*
X150195000Y-92675000D01*
X150195722Y-92660297D01*
X150197882Y-92645736D01*
X150201459Y-92631457D01*
X150206418Y-92617597D01*
X150212712Y-92604290D01*
X150220280Y-92591664D01*
X150229048Y-92579841D01*
X150238934Y-92568934D01*
X150249841Y-92559048D01*
X150261664Y-92550280D01*
X150274290Y-92542712D01*
X150287597Y-92536418D01*
X150301457Y-92531459D01*
X150315736Y-92527882D01*
X150330297Y-92525722D01*
X150345000Y-92525000D01*
X150645000Y-92525000D01*
X150659703Y-92525722D01*
X150659703Y-92525722D01*
G37*
D11*
X150495000Y-93550000D03*
M02*
