G04 #@! TF.GenerationSoftware,KiCad,Pcbnew,(5.1.2-1)-1*
G04 #@! TF.CreationDate,2022-12-12T22:42:53+01:00*
G04 #@! TF.ProjectId,full,66756c6c-2e6b-4696-9361-645f70636258,rev?*
G04 #@! TF.SameCoordinates,Original*
G04 #@! TF.FileFunction,Legend,Bot*
G04 #@! TF.FilePolarity,Positive*
%FSLAX46Y46*%
G04 Gerber Fmt 4.6, Leading zero omitted, Abs format (unit mm)*
G04 Created by KiCad (PCBNEW (5.1.2-1)-1) date 2022-12-12 22:42:53*
%MOMM*%
%LPD*%
G04 APERTURE LIST*
%ADD10C,0.150000*%
%ADD11C,0.100000*%
%ADD12C,0.304800*%
%ADD13C,0.127000*%
%ADD14C,1.902000*%
%ADD15R,1.902000X1.902000*%
%ADD16O,1.702000X1.702000*%
%ADD17C,1.702000*%
%ADD18O,3.302000X2.202000*%
%ADD19O,3.100980X2.100980*%
%ADD20O,2.100980X2.600980*%
%ADD21O,4.202000X3.202000*%
%ADD22C,2.100980*%
%ADD23O,1.802000X1.802000*%
%ADD24R,1.802000X1.802000*%
%ADD25C,1.602000*%
%ADD26C,5.702000*%
%ADD27C,1.722000*%
%ADD28C,1.302000*%
%ADD29R,1.302000X1.302000*%
%ADD30R,1.702000X1.702000*%
%ADD31C,2.102000*%
%ADD32R,2.102000X2.102000*%
%ADD33O,1.829200X1.829200*%
%ADD34R,1.829200X1.829200*%
%ADD35C,3.602000*%
%ADD36C,1.802000*%
%ADD37R,1.152000X1.602000*%
%ADD38O,1.152000X1.602000*%
G04 APERTURE END LIST*
D10*
X30241428Y-93749761D02*
X30098571Y-93797380D01*
X29860476Y-93797380D01*
X29765238Y-93749761D01*
X29717619Y-93702142D01*
X29670000Y-93606904D01*
X29670000Y-93511666D01*
X29717619Y-93416428D01*
X29765238Y-93368809D01*
X29860476Y-93321190D01*
X30050952Y-93273571D01*
X30146190Y-93225952D01*
X30193809Y-93178333D01*
X30241428Y-93083095D01*
X30241428Y-92987857D01*
X30193809Y-92892619D01*
X30146190Y-92845000D01*
X30050952Y-92797380D01*
X29812857Y-92797380D01*
X29670000Y-92845000D01*
X28860476Y-93749761D02*
X28955714Y-93797380D01*
X29146190Y-93797380D01*
X29241428Y-93749761D01*
X29289047Y-93654523D01*
X29289047Y-93273571D01*
X29241428Y-93178333D01*
X29146190Y-93130714D01*
X28955714Y-93130714D01*
X28860476Y-93178333D01*
X28812857Y-93273571D01*
X28812857Y-93368809D01*
X29289047Y-93464047D01*
X28384285Y-93797380D02*
X28384285Y-93130714D01*
X28384285Y-93321190D02*
X28336666Y-93225952D01*
X28289047Y-93178333D01*
X28193809Y-93130714D01*
X28098571Y-93130714D01*
X27765238Y-93797380D02*
X27765238Y-93130714D01*
X27765238Y-92797380D02*
X27812857Y-92845000D01*
X27765238Y-92892619D01*
X27717619Y-92845000D01*
X27765238Y-92797380D01*
X27765238Y-92892619D01*
X26860476Y-93797380D02*
X26860476Y-93273571D01*
X26908095Y-93178333D01*
X27003333Y-93130714D01*
X27193809Y-93130714D01*
X27289047Y-93178333D01*
X26860476Y-93749761D02*
X26955714Y-93797380D01*
X27193809Y-93797380D01*
X27289047Y-93749761D01*
X27336666Y-93654523D01*
X27336666Y-93559285D01*
X27289047Y-93464047D01*
X27193809Y-93416428D01*
X26955714Y-93416428D01*
X26860476Y-93368809D01*
X26241428Y-93797380D02*
X26336666Y-93749761D01*
X26384285Y-93654523D01*
X26384285Y-92797380D01*
X25098571Y-93797380D02*
X25098571Y-92797380D01*
X24527142Y-93797380D01*
X24527142Y-92797380D01*
X23908095Y-93797380D02*
X24003333Y-93749761D01*
X24050952Y-93702142D01*
X24098571Y-93606904D01*
X24098571Y-93321190D01*
X24050952Y-93225952D01*
X24003333Y-93178333D01*
X23908095Y-93130714D01*
X23765238Y-93130714D01*
X23670000Y-93178333D01*
X23622380Y-93225952D01*
X23574761Y-93321190D01*
X23574761Y-93606904D01*
X23622380Y-93702142D01*
X23670000Y-93749761D01*
X23765238Y-93797380D01*
X23908095Y-93797380D01*
X23146190Y-93702142D02*
X23098571Y-93749761D01*
X23146190Y-93797380D01*
X23193809Y-93749761D01*
X23146190Y-93702142D01*
X23146190Y-93797380D01*
D11*
G36*
X36195000Y-105410000D02*
G01*
X17780000Y-105410000D01*
X17780000Y-94615000D01*
X36195000Y-94615000D01*
X36195000Y-105410000D01*
G37*
X36195000Y-105410000D02*
X17780000Y-105410000D01*
X17780000Y-94615000D01*
X36195000Y-94615000D01*
X36195000Y-105410000D01*
D10*
X19153095Y-18232380D02*
X19153095Y-17232380D01*
X18915000Y-17232380D01*
X18772142Y-17280000D01*
X18676904Y-17375238D01*
X18629285Y-17470476D01*
X18581666Y-17660952D01*
X18581666Y-17803809D01*
X18629285Y-17994285D01*
X18676904Y-18089523D01*
X18772142Y-18184761D01*
X18915000Y-18232380D01*
X19153095Y-18232380D01*
X17724523Y-17232380D02*
X17915000Y-17232380D01*
X18010238Y-17280000D01*
X18057857Y-17327619D01*
X18153095Y-17470476D01*
X18200714Y-17660952D01*
X18200714Y-18041904D01*
X18153095Y-18137142D01*
X18105476Y-18184761D01*
X18010238Y-18232380D01*
X17819761Y-18232380D01*
X17724523Y-18184761D01*
X17676904Y-18137142D01*
X17629285Y-18041904D01*
X17629285Y-17803809D01*
X17676904Y-17708571D01*
X17724523Y-17660952D01*
X17819761Y-17613333D01*
X18010238Y-17613333D01*
X18105476Y-17660952D01*
X18153095Y-17708571D01*
X18200714Y-17803809D01*
X20208095Y-138882380D02*
X20208095Y-137882380D01*
X19970000Y-137882380D01*
X19827142Y-137930000D01*
X19731904Y-138025238D01*
X19684285Y-138120476D01*
X19636666Y-138310952D01*
X19636666Y-138453809D01*
X19684285Y-138644285D01*
X19731904Y-138739523D01*
X19827142Y-138834761D01*
X19970000Y-138882380D01*
X20208095Y-138882380D01*
X18779523Y-138215714D02*
X18779523Y-138882380D01*
X19017619Y-137834761D02*
X19255714Y-138549047D01*
X18636666Y-138549047D01*
X171299047Y-85542380D02*
X171632380Y-85066190D01*
X171870476Y-85542380D02*
X171870476Y-84542380D01*
X171489523Y-84542380D01*
X171394285Y-84590000D01*
X171346666Y-84637619D01*
X171299047Y-84732857D01*
X171299047Y-84875714D01*
X171346666Y-84970952D01*
X171394285Y-85018571D01*
X171489523Y-85066190D01*
X171870476Y-85066190D01*
X170441904Y-84542380D02*
X170632380Y-84542380D01*
X170727619Y-84590000D01*
X170775238Y-84637619D01*
X170870476Y-84780476D01*
X170918095Y-84970952D01*
X170918095Y-85351904D01*
X170870476Y-85447142D01*
X170822857Y-85494761D01*
X170727619Y-85542380D01*
X170537142Y-85542380D01*
X170441904Y-85494761D01*
X170394285Y-85447142D01*
X170346666Y-85351904D01*
X170346666Y-85113809D01*
X170394285Y-85018571D01*
X170441904Y-84970952D01*
X170537142Y-84923333D01*
X170727619Y-84923333D01*
X170822857Y-84970952D01*
X170870476Y-85018571D01*
X170918095Y-85113809D01*
X170013333Y-84542380D02*
X169394285Y-84542380D01*
X169727619Y-84923333D01*
X169584761Y-84923333D01*
X169489523Y-84970952D01*
X169441904Y-85018571D01*
X169394285Y-85113809D01*
X169394285Y-85351904D01*
X169441904Y-85447142D01*
X169489523Y-85494761D01*
X169584761Y-85542380D01*
X169870476Y-85542380D01*
X169965714Y-85494761D01*
X170013333Y-85447142D01*
X168537142Y-84875714D02*
X168537142Y-85542380D01*
X168775238Y-84494761D02*
X169013333Y-85209047D01*
X168394285Y-85209047D01*
X81922857Y-103322380D02*
X82256190Y-102846190D01*
X82494285Y-103322380D02*
X82494285Y-102322380D01*
X82113333Y-102322380D01*
X82018095Y-102370000D01*
X81970476Y-102417619D01*
X81922857Y-102512857D01*
X81922857Y-102655714D01*
X81970476Y-102750952D01*
X82018095Y-102798571D01*
X82113333Y-102846190D01*
X82494285Y-102846190D01*
X81541904Y-102417619D02*
X81494285Y-102370000D01*
X81399047Y-102322380D01*
X81160952Y-102322380D01*
X81065714Y-102370000D01*
X81018095Y-102417619D01*
X80970476Y-102512857D01*
X80970476Y-102608095D01*
X81018095Y-102750952D01*
X81589523Y-103322380D01*
X80970476Y-103322380D01*
X80637142Y-102322380D02*
X80018095Y-102322380D01*
X80351428Y-102703333D01*
X80208571Y-102703333D01*
X80113333Y-102750952D01*
X80065714Y-102798571D01*
X80018095Y-102893809D01*
X80018095Y-103131904D01*
X80065714Y-103227142D01*
X80113333Y-103274761D01*
X80208571Y-103322380D01*
X80494285Y-103322380D01*
X80589523Y-103274761D01*
X80637142Y-103227142D01*
D12*
X187887428Y-76508428D02*
X187887428Y-77597000D01*
X187960000Y-77814714D01*
X188105142Y-77959857D01*
X188322857Y-78032428D01*
X188468000Y-78032428D01*
X186871428Y-76508428D02*
X186726285Y-76508428D01*
X186581142Y-76581000D01*
X186508571Y-76653571D01*
X186436000Y-76798714D01*
X186363428Y-77089000D01*
X186363428Y-77451857D01*
X186436000Y-77742142D01*
X186508571Y-77887285D01*
X186581142Y-77959857D01*
X186726285Y-78032428D01*
X186871428Y-78032428D01*
X187016571Y-77959857D01*
X187089142Y-77887285D01*
X187161714Y-77742142D01*
X187234285Y-77451857D01*
X187234285Y-77089000D01*
X187161714Y-76798714D01*
X187089142Y-76653571D01*
X187016571Y-76581000D01*
X186871428Y-76508428D01*
X185420000Y-76508428D02*
X185274857Y-76508428D01*
X185129714Y-76581000D01*
X185057142Y-76653571D01*
X184984571Y-76798714D01*
X184912000Y-77089000D01*
X184912000Y-77451857D01*
X184984571Y-77742142D01*
X185057142Y-77887285D01*
X185129714Y-77959857D01*
X185274857Y-78032428D01*
X185420000Y-78032428D01*
X185565142Y-77959857D01*
X185637714Y-77887285D01*
X185710285Y-77742142D01*
X185782857Y-77451857D01*
X185782857Y-77089000D01*
X185710285Y-76798714D01*
X185637714Y-76653571D01*
X185565142Y-76581000D01*
X185420000Y-76508428D01*
X183533142Y-76508428D02*
X184258857Y-76508428D01*
X184331428Y-77234142D01*
X184258857Y-77161571D01*
X184113714Y-77089000D01*
X183750857Y-77089000D01*
X183605714Y-77161571D01*
X183533142Y-77234142D01*
X183460571Y-77379285D01*
X183460571Y-77742142D01*
X183533142Y-77887285D01*
X183605714Y-77959857D01*
X183750857Y-78032428D01*
X184113714Y-78032428D01*
X184258857Y-77959857D01*
X184331428Y-77887285D01*
X185928000Y-23295428D02*
X185928000Y-24384000D01*
X186000571Y-24601714D01*
X186145714Y-24746857D01*
X186363428Y-24819428D01*
X186508571Y-24819428D01*
X184549142Y-23295428D02*
X184839428Y-23295428D01*
X184984571Y-23368000D01*
X185057142Y-23440571D01*
X185202285Y-23658285D01*
X185274857Y-23948571D01*
X185274857Y-24529142D01*
X185202285Y-24674285D01*
X185129714Y-24746857D01*
X184984571Y-24819428D01*
X184694285Y-24819428D01*
X184549142Y-24746857D01*
X184476571Y-24674285D01*
X184404000Y-24529142D01*
X184404000Y-24166285D01*
X184476571Y-24021142D01*
X184549142Y-23948571D01*
X184694285Y-23876000D01*
X184984571Y-23876000D01*
X185129714Y-23948571D01*
X185202285Y-24021142D01*
X185274857Y-24166285D01*
X177727428Y-67491428D02*
X177727428Y-68580000D01*
X177800000Y-68797714D01*
X177945142Y-68942857D01*
X178162857Y-69015428D01*
X178308000Y-69015428D01*
X176203428Y-69015428D02*
X177074285Y-69015428D01*
X176638857Y-69015428D02*
X176638857Y-67491428D01*
X176784000Y-67709142D01*
X176929142Y-67854285D01*
X177074285Y-67926857D01*
X175260000Y-67491428D02*
X175114857Y-67491428D01*
X174969714Y-67564000D01*
X174897142Y-67636571D01*
X174824571Y-67781714D01*
X174752000Y-68072000D01*
X174752000Y-68434857D01*
X174824571Y-68725142D01*
X174897142Y-68870285D01*
X174969714Y-68942857D01*
X175114857Y-69015428D01*
X175260000Y-69015428D01*
X175405142Y-68942857D01*
X175477714Y-68870285D01*
X175550285Y-68725142D01*
X175622857Y-68434857D01*
X175622857Y-68072000D01*
X175550285Y-67781714D01*
X175477714Y-67636571D01*
X175405142Y-67564000D01*
X175260000Y-67491428D01*
X173373142Y-67491428D02*
X174098857Y-67491428D01*
X174171428Y-68217142D01*
X174098857Y-68144571D01*
X173953714Y-68072000D01*
X173590857Y-68072000D01*
X173445714Y-68144571D01*
X173373142Y-68217142D01*
X173300571Y-68362285D01*
X173300571Y-68725142D01*
X173373142Y-68870285D01*
X173445714Y-68942857D01*
X173590857Y-69015428D01*
X173953714Y-69015428D01*
X174098857Y-68942857D01*
X174171428Y-68870285D01*
D10*
X165615714Y-83272380D02*
X165615714Y-83986666D01*
X165663333Y-84129523D01*
X165758571Y-84224761D01*
X165901428Y-84272380D01*
X165996666Y-84272380D01*
X165139523Y-84272380D02*
X165139523Y-83272380D01*
X164758571Y-83272380D01*
X164663333Y-83320000D01*
X164615714Y-83367619D01*
X164568095Y-83462857D01*
X164568095Y-83605714D01*
X164615714Y-83700952D01*
X164663333Y-83748571D01*
X164758571Y-83796190D01*
X165139523Y-83796190D01*
X163710952Y-83272380D02*
X163901428Y-83272380D01*
X163996666Y-83320000D01*
X164044285Y-83367619D01*
X164139523Y-83510476D01*
X164187142Y-83700952D01*
X164187142Y-84081904D01*
X164139523Y-84177142D01*
X164091904Y-84224761D01*
X163996666Y-84272380D01*
X163806190Y-84272380D01*
X163710952Y-84224761D01*
X163663333Y-84177142D01*
X163615714Y-84081904D01*
X163615714Y-83843809D01*
X163663333Y-83748571D01*
X163710952Y-83700952D01*
X163806190Y-83653333D01*
X163996666Y-83653333D01*
X164091904Y-83700952D01*
X164139523Y-83748571D01*
X164187142Y-83843809D01*
X162996666Y-83272380D02*
X162901428Y-83272380D01*
X162806190Y-83320000D01*
X162758571Y-83367619D01*
X162710952Y-83462857D01*
X162663333Y-83653333D01*
X162663333Y-83891428D01*
X162710952Y-84081904D01*
X162758571Y-84177142D01*
X162806190Y-84224761D01*
X162901428Y-84272380D01*
X162996666Y-84272380D01*
X163091904Y-84224761D01*
X163139523Y-84177142D01*
X163187142Y-84081904D01*
X163234761Y-83891428D01*
X163234761Y-83653333D01*
X163187142Y-83462857D01*
X163139523Y-83367619D01*
X163091904Y-83320000D01*
X162996666Y-83272380D01*
X161806190Y-83272380D02*
X161996666Y-83272380D01*
X162091904Y-83320000D01*
X162139523Y-83367619D01*
X162234761Y-83510476D01*
X162282380Y-83700952D01*
X162282380Y-84081904D01*
X162234761Y-84177142D01*
X162187142Y-84224761D01*
X162091904Y-84272380D01*
X161901428Y-84272380D01*
X161806190Y-84224761D01*
X161758571Y-84177142D01*
X161710952Y-84081904D01*
X161710952Y-83843809D01*
X161758571Y-83748571D01*
X161806190Y-83700952D01*
X161901428Y-83653333D01*
X162091904Y-83653333D01*
X162187142Y-83700952D01*
X162234761Y-83748571D01*
X162282380Y-83843809D01*
X44001666Y-91162142D02*
X44049285Y-91209761D01*
X44192142Y-91257380D01*
X44287380Y-91257380D01*
X44430238Y-91209761D01*
X44525476Y-91114523D01*
X44573095Y-91019285D01*
X44620714Y-90828809D01*
X44620714Y-90685952D01*
X44573095Y-90495476D01*
X44525476Y-90400238D01*
X44430238Y-90305000D01*
X44287380Y-90257380D01*
X44192142Y-90257380D01*
X44049285Y-90305000D01*
X44001666Y-90352619D01*
X43430238Y-90685952D02*
X43525476Y-90638333D01*
X43573095Y-90590714D01*
X43620714Y-90495476D01*
X43620714Y-90447857D01*
X43573095Y-90352619D01*
X43525476Y-90305000D01*
X43430238Y-90257380D01*
X43239761Y-90257380D01*
X43144523Y-90305000D01*
X43096904Y-90352619D01*
X43049285Y-90447857D01*
X43049285Y-90495476D01*
X43096904Y-90590714D01*
X43144523Y-90638333D01*
X43239761Y-90685952D01*
X43430238Y-90685952D01*
X43525476Y-90733571D01*
X43573095Y-90781190D01*
X43620714Y-90876428D01*
X43620714Y-91066904D01*
X43573095Y-91162142D01*
X43525476Y-91209761D01*
X43430238Y-91257380D01*
X43239761Y-91257380D01*
X43144523Y-91209761D01*
X43096904Y-91162142D01*
X43049285Y-91066904D01*
X43049285Y-90876428D01*
X43096904Y-90781190D01*
X43144523Y-90733571D01*
X43239761Y-90685952D01*
X159869047Y-95607142D02*
X159916666Y-95654761D01*
X160059523Y-95702380D01*
X160154761Y-95702380D01*
X160297619Y-95654761D01*
X160392857Y-95559523D01*
X160440476Y-95464285D01*
X160488095Y-95273809D01*
X160488095Y-95130952D01*
X160440476Y-94940476D01*
X160392857Y-94845238D01*
X160297619Y-94750000D01*
X160154761Y-94702380D01*
X160059523Y-94702380D01*
X159916666Y-94750000D01*
X159869047Y-94797619D01*
X159011904Y-94702380D02*
X159202380Y-94702380D01*
X159297619Y-94750000D01*
X159345238Y-94797619D01*
X159440476Y-94940476D01*
X159488095Y-95130952D01*
X159488095Y-95511904D01*
X159440476Y-95607142D01*
X159392857Y-95654761D01*
X159297619Y-95702380D01*
X159107142Y-95702380D01*
X159011904Y-95654761D01*
X158964285Y-95607142D01*
X158916666Y-95511904D01*
X158916666Y-95273809D01*
X158964285Y-95178571D01*
X159011904Y-95130952D01*
X159107142Y-95083333D01*
X159297619Y-95083333D01*
X159392857Y-95130952D01*
X159440476Y-95178571D01*
X159488095Y-95273809D01*
X157964285Y-95702380D02*
X158535714Y-95702380D01*
X158250000Y-95702380D02*
X158250000Y-94702380D01*
X158345238Y-94845238D01*
X158440476Y-94940476D01*
X158535714Y-94988095D01*
X157107142Y-95035714D02*
X157107142Y-95702380D01*
X157345238Y-94654761D02*
X157583333Y-95369047D01*
X156964285Y-95369047D01*
D13*
X166981142Y-90320952D02*
X167028761Y-90273333D01*
X167076380Y-90130476D01*
X167076380Y-90035238D01*
X167028761Y-89892380D01*
X166933523Y-89797142D01*
X166838285Y-89749523D01*
X166647809Y-89701904D01*
X166504952Y-89701904D01*
X166314476Y-89749523D01*
X166219238Y-89797142D01*
X166124000Y-89892380D01*
X166076380Y-90035238D01*
X166076380Y-90130476D01*
X166124000Y-90273333D01*
X166171619Y-90320952D01*
X166076380Y-91178095D02*
X166076380Y-90987619D01*
X166124000Y-90892380D01*
X166171619Y-90844761D01*
X166314476Y-90749523D01*
X166504952Y-90701904D01*
X166885904Y-90701904D01*
X166981142Y-90749523D01*
X167028761Y-90797142D01*
X167076380Y-90892380D01*
X167076380Y-91082857D01*
X167028761Y-91178095D01*
X166981142Y-91225714D01*
X166885904Y-91273333D01*
X166647809Y-91273333D01*
X166552571Y-91225714D01*
X166504952Y-91178095D01*
X166457333Y-91082857D01*
X166457333Y-90892380D01*
X166504952Y-90797142D01*
X166552571Y-90749523D01*
X166647809Y-90701904D01*
X167076380Y-92225714D02*
X167076380Y-91654285D01*
X167076380Y-91940000D02*
X166076380Y-91940000D01*
X166219238Y-91844761D01*
X166314476Y-91749523D01*
X166362095Y-91654285D01*
X166076380Y-92559047D02*
X166076380Y-93178095D01*
X166457333Y-92844761D01*
X166457333Y-92987619D01*
X166504952Y-93082857D01*
X166552571Y-93130476D01*
X166647809Y-93178095D01*
X166885904Y-93178095D01*
X166981142Y-93130476D01*
X167028761Y-93082857D01*
X167076380Y-92987619D01*
X167076380Y-92701904D01*
X167028761Y-92606666D01*
X166981142Y-92559047D01*
D10*
X151288571Y-96496190D02*
X151288571Y-96972380D01*
X151621904Y-95972380D02*
X151288571Y-96496190D01*
X150955238Y-95972380D01*
X150193333Y-95972380D02*
X150383809Y-95972380D01*
X150479047Y-96020000D01*
X150526666Y-96067619D01*
X150621904Y-96210476D01*
X150669523Y-96400952D01*
X150669523Y-96781904D01*
X150621904Y-96877142D01*
X150574285Y-96924761D01*
X150479047Y-96972380D01*
X150288571Y-96972380D01*
X150193333Y-96924761D01*
X150145714Y-96877142D01*
X150098095Y-96781904D01*
X150098095Y-96543809D01*
X150145714Y-96448571D01*
X150193333Y-96400952D01*
X150288571Y-96353333D01*
X150479047Y-96353333D01*
X150574285Y-96400952D01*
X150621904Y-96448571D01*
X150669523Y-96543809D01*
X149479047Y-95972380D02*
X149383809Y-95972380D01*
X149288571Y-96020000D01*
X149240952Y-96067619D01*
X149193333Y-96162857D01*
X149145714Y-96353333D01*
X149145714Y-96591428D01*
X149193333Y-96781904D01*
X149240952Y-96877142D01*
X149288571Y-96924761D01*
X149383809Y-96972380D01*
X149479047Y-96972380D01*
X149574285Y-96924761D01*
X149621904Y-96877142D01*
X149669523Y-96781904D01*
X149717142Y-96591428D01*
X149717142Y-96353333D01*
X149669523Y-96162857D01*
X149621904Y-96067619D01*
X149574285Y-96020000D01*
X149479047Y-95972380D01*
X148193333Y-96972380D02*
X148764761Y-96972380D01*
X148479047Y-96972380D02*
X148479047Y-95972380D01*
X148574285Y-96115238D01*
X148669523Y-96210476D01*
X148764761Y-96258095D01*
X156654285Y-88352380D02*
X156654285Y-89161904D01*
X156606666Y-89257142D01*
X156559047Y-89304761D01*
X156463809Y-89352380D01*
X156273333Y-89352380D01*
X156178095Y-89304761D01*
X156130476Y-89257142D01*
X156082857Y-89161904D01*
X156082857Y-88352380D01*
X155178095Y-88352380D02*
X155368571Y-88352380D01*
X155463809Y-88400000D01*
X155511428Y-88447619D01*
X155606666Y-88590476D01*
X155654285Y-88780952D01*
X155654285Y-89161904D01*
X155606666Y-89257142D01*
X155559047Y-89304761D01*
X155463809Y-89352380D01*
X155273333Y-89352380D01*
X155178095Y-89304761D01*
X155130476Y-89257142D01*
X155082857Y-89161904D01*
X155082857Y-88923809D01*
X155130476Y-88828571D01*
X155178095Y-88780952D01*
X155273333Y-88733333D01*
X155463809Y-88733333D01*
X155559047Y-88780952D01*
X155606666Y-88828571D01*
X155654285Y-88923809D01*
X154749523Y-88352380D02*
X154130476Y-88352380D01*
X154463809Y-88733333D01*
X154320952Y-88733333D01*
X154225714Y-88780952D01*
X154178095Y-88828571D01*
X154130476Y-88923809D01*
X154130476Y-89161904D01*
X154178095Y-89257142D01*
X154225714Y-89304761D01*
X154320952Y-89352380D01*
X154606666Y-89352380D01*
X154701904Y-89304761D01*
X154749523Y-89257142D01*
X153797142Y-88352380D02*
X153178095Y-88352380D01*
X153511428Y-88733333D01*
X153368571Y-88733333D01*
X153273333Y-88780952D01*
X153225714Y-88828571D01*
X153178095Y-88923809D01*
X153178095Y-89161904D01*
X153225714Y-89257142D01*
X153273333Y-89304761D01*
X153368571Y-89352380D01*
X153654285Y-89352380D01*
X153749523Y-89304761D01*
X153797142Y-89257142D01*
X163679047Y-89987380D02*
X164012380Y-89511190D01*
X164250476Y-89987380D02*
X164250476Y-88987380D01*
X163869523Y-88987380D01*
X163774285Y-89035000D01*
X163726666Y-89082619D01*
X163679047Y-89177857D01*
X163679047Y-89320714D01*
X163726666Y-89415952D01*
X163774285Y-89463571D01*
X163869523Y-89511190D01*
X164250476Y-89511190D01*
X162821904Y-88987380D02*
X163012380Y-88987380D01*
X163107619Y-89035000D01*
X163155238Y-89082619D01*
X163250476Y-89225476D01*
X163298095Y-89415952D01*
X163298095Y-89796904D01*
X163250476Y-89892142D01*
X163202857Y-89939761D01*
X163107619Y-89987380D01*
X162917142Y-89987380D01*
X162821904Y-89939761D01*
X162774285Y-89892142D01*
X162726666Y-89796904D01*
X162726666Y-89558809D01*
X162774285Y-89463571D01*
X162821904Y-89415952D01*
X162917142Y-89368333D01*
X163107619Y-89368333D01*
X163202857Y-89415952D01*
X163250476Y-89463571D01*
X163298095Y-89558809D01*
X162393333Y-88987380D02*
X161774285Y-88987380D01*
X162107619Y-89368333D01*
X161964761Y-89368333D01*
X161869523Y-89415952D01*
X161821904Y-89463571D01*
X161774285Y-89558809D01*
X161774285Y-89796904D01*
X161821904Y-89892142D01*
X161869523Y-89939761D01*
X161964761Y-89987380D01*
X162250476Y-89987380D01*
X162345714Y-89939761D01*
X162393333Y-89892142D01*
X161440952Y-88987380D02*
X160821904Y-88987380D01*
X161155238Y-89368333D01*
X161012380Y-89368333D01*
X160917142Y-89415952D01*
X160869523Y-89463571D01*
X160821904Y-89558809D01*
X160821904Y-89796904D01*
X160869523Y-89892142D01*
X160917142Y-89939761D01*
X161012380Y-89987380D01*
X161298095Y-89987380D01*
X161393333Y-89939761D01*
X161440952Y-89892142D01*
X142787619Y-99575714D02*
X142073333Y-99575714D01*
X141930476Y-99623333D01*
X141835238Y-99718571D01*
X141787619Y-99861428D01*
X141787619Y-99956666D01*
X141787619Y-99099523D02*
X142787619Y-99099523D01*
X142787619Y-98718571D01*
X142740000Y-98623333D01*
X142692380Y-98575714D01*
X142597142Y-98528095D01*
X142454285Y-98528095D01*
X142359047Y-98575714D01*
X142311428Y-98623333D01*
X142263809Y-98718571D01*
X142263809Y-99099523D01*
X142787619Y-97670952D02*
X142787619Y-97861428D01*
X142740000Y-97956666D01*
X142692380Y-98004285D01*
X142549523Y-98099523D01*
X142359047Y-98147142D01*
X141978095Y-98147142D01*
X141882857Y-98099523D01*
X141835238Y-98051904D01*
X141787619Y-97956666D01*
X141787619Y-97766190D01*
X141835238Y-97670952D01*
X141882857Y-97623333D01*
X141978095Y-97575714D01*
X142216190Y-97575714D01*
X142311428Y-97623333D01*
X142359047Y-97670952D01*
X142406666Y-97766190D01*
X142406666Y-97956666D01*
X142359047Y-98051904D01*
X142311428Y-98099523D01*
X142216190Y-98147142D01*
X142787619Y-96956666D02*
X142787619Y-96861428D01*
X142740000Y-96766190D01*
X142692380Y-96718571D01*
X142597142Y-96670952D01*
X142406666Y-96623333D01*
X142168571Y-96623333D01*
X141978095Y-96670952D01*
X141882857Y-96718571D01*
X141835238Y-96766190D01*
X141787619Y-96861428D01*
X141787619Y-96956666D01*
X141835238Y-97051904D01*
X141882857Y-97099523D01*
X141978095Y-97147142D01*
X142168571Y-97194761D01*
X142406666Y-97194761D01*
X142597142Y-97147142D01*
X142692380Y-97099523D01*
X142740000Y-97051904D01*
X142787619Y-96956666D01*
X142787619Y-95718571D02*
X142787619Y-96194761D01*
X142311428Y-96242380D01*
X142359047Y-96194761D01*
X142406666Y-96099523D01*
X142406666Y-95861428D01*
X142359047Y-95766190D01*
X142311428Y-95718571D01*
X142216190Y-95670952D01*
X141978095Y-95670952D01*
X141882857Y-95718571D01*
X141835238Y-95766190D01*
X141787619Y-95861428D01*
X141787619Y-96099523D01*
X141835238Y-96194761D01*
X141882857Y-96242380D01*
D13*
X145304047Y-91797142D02*
X145351666Y-91844761D01*
X145494523Y-91892380D01*
X145589761Y-91892380D01*
X145732619Y-91844761D01*
X145827857Y-91749523D01*
X145875476Y-91654285D01*
X145923095Y-91463809D01*
X145923095Y-91320952D01*
X145875476Y-91130476D01*
X145827857Y-91035238D01*
X145732619Y-90940000D01*
X145589761Y-90892380D01*
X145494523Y-90892380D01*
X145351666Y-90940000D01*
X145304047Y-90987619D01*
X144446904Y-90892380D02*
X144637380Y-90892380D01*
X144732619Y-90940000D01*
X144780238Y-90987619D01*
X144875476Y-91130476D01*
X144923095Y-91320952D01*
X144923095Y-91701904D01*
X144875476Y-91797142D01*
X144827857Y-91844761D01*
X144732619Y-91892380D01*
X144542142Y-91892380D01*
X144446904Y-91844761D01*
X144399285Y-91797142D01*
X144351666Y-91701904D01*
X144351666Y-91463809D01*
X144399285Y-91368571D01*
X144446904Y-91320952D01*
X144542142Y-91273333D01*
X144732619Y-91273333D01*
X144827857Y-91320952D01*
X144875476Y-91368571D01*
X144923095Y-91463809D01*
X143399285Y-91892380D02*
X143970714Y-91892380D01*
X143685000Y-91892380D02*
X143685000Y-90892380D01*
X143780238Y-91035238D01*
X143875476Y-91130476D01*
X143970714Y-91178095D01*
X143018333Y-90987619D02*
X142970714Y-90940000D01*
X142875476Y-90892380D01*
X142637380Y-90892380D01*
X142542142Y-90940000D01*
X142494523Y-90987619D01*
X142446904Y-91082857D01*
X142446904Y-91178095D01*
X142494523Y-91320952D01*
X143065952Y-91892380D01*
X142446904Y-91892380D01*
X145304047Y-87987142D02*
X145351666Y-88034761D01*
X145494523Y-88082380D01*
X145589761Y-88082380D01*
X145732619Y-88034761D01*
X145827857Y-87939523D01*
X145875476Y-87844285D01*
X145923095Y-87653809D01*
X145923095Y-87510952D01*
X145875476Y-87320476D01*
X145827857Y-87225238D01*
X145732619Y-87130000D01*
X145589761Y-87082380D01*
X145494523Y-87082380D01*
X145351666Y-87130000D01*
X145304047Y-87177619D01*
X144446904Y-87082380D02*
X144637380Y-87082380D01*
X144732619Y-87130000D01*
X144780238Y-87177619D01*
X144875476Y-87320476D01*
X144923095Y-87510952D01*
X144923095Y-87891904D01*
X144875476Y-87987142D01*
X144827857Y-88034761D01*
X144732619Y-88082380D01*
X144542142Y-88082380D01*
X144446904Y-88034761D01*
X144399285Y-87987142D01*
X144351666Y-87891904D01*
X144351666Y-87653809D01*
X144399285Y-87558571D01*
X144446904Y-87510952D01*
X144542142Y-87463333D01*
X144732619Y-87463333D01*
X144827857Y-87510952D01*
X144875476Y-87558571D01*
X144923095Y-87653809D01*
X143399285Y-88082380D02*
X143970714Y-88082380D01*
X143685000Y-88082380D02*
X143685000Y-87082380D01*
X143780238Y-87225238D01*
X143875476Y-87320476D01*
X143970714Y-87368095D01*
X142446904Y-88082380D02*
X143018333Y-88082380D01*
X142732619Y-88082380D02*
X142732619Y-87082380D01*
X142827857Y-87225238D01*
X142923095Y-87320476D01*
X143018333Y-87368095D01*
X145304047Y-84177142D02*
X145351666Y-84224761D01*
X145494523Y-84272380D01*
X145589761Y-84272380D01*
X145732619Y-84224761D01*
X145827857Y-84129523D01*
X145875476Y-84034285D01*
X145923095Y-83843809D01*
X145923095Y-83700952D01*
X145875476Y-83510476D01*
X145827857Y-83415238D01*
X145732619Y-83320000D01*
X145589761Y-83272380D01*
X145494523Y-83272380D01*
X145351666Y-83320000D01*
X145304047Y-83367619D01*
X144446904Y-83272380D02*
X144637380Y-83272380D01*
X144732619Y-83320000D01*
X144780238Y-83367619D01*
X144875476Y-83510476D01*
X144923095Y-83700952D01*
X144923095Y-84081904D01*
X144875476Y-84177142D01*
X144827857Y-84224761D01*
X144732619Y-84272380D01*
X144542142Y-84272380D01*
X144446904Y-84224761D01*
X144399285Y-84177142D01*
X144351666Y-84081904D01*
X144351666Y-83843809D01*
X144399285Y-83748571D01*
X144446904Y-83700952D01*
X144542142Y-83653333D01*
X144732619Y-83653333D01*
X144827857Y-83700952D01*
X144875476Y-83748571D01*
X144923095Y-83843809D01*
X143399285Y-84272380D02*
X143970714Y-84272380D01*
X143685000Y-84272380D02*
X143685000Y-83272380D01*
X143780238Y-83415238D01*
X143875476Y-83510476D01*
X143970714Y-83558095D01*
X142780238Y-83272380D02*
X142685000Y-83272380D01*
X142589761Y-83320000D01*
X142542142Y-83367619D01*
X142494523Y-83462857D01*
X142446904Y-83653333D01*
X142446904Y-83891428D01*
X142494523Y-84081904D01*
X142542142Y-84177142D01*
X142589761Y-84224761D01*
X142685000Y-84272380D01*
X142780238Y-84272380D01*
X142875476Y-84224761D01*
X142923095Y-84177142D01*
X142970714Y-84081904D01*
X143018333Y-83891428D01*
X143018333Y-83653333D01*
X142970714Y-83462857D01*
X142923095Y-83367619D01*
X142875476Y-83320000D01*
X142780238Y-83272380D01*
D10*
X102242857Y-110307380D02*
X102576190Y-109831190D01*
X102814285Y-110307380D02*
X102814285Y-109307380D01*
X102433333Y-109307380D01*
X102338095Y-109355000D01*
X102290476Y-109402619D01*
X102242857Y-109497857D01*
X102242857Y-109640714D01*
X102290476Y-109735952D01*
X102338095Y-109783571D01*
X102433333Y-109831190D01*
X102814285Y-109831190D01*
X101909523Y-109307380D02*
X101290476Y-109307380D01*
X101623809Y-109688333D01*
X101480952Y-109688333D01*
X101385714Y-109735952D01*
X101338095Y-109783571D01*
X101290476Y-109878809D01*
X101290476Y-110116904D01*
X101338095Y-110212142D01*
X101385714Y-110259761D01*
X101480952Y-110307380D01*
X101766666Y-110307380D01*
X101861904Y-110259761D01*
X101909523Y-110212142D01*
X100909523Y-109402619D02*
X100861904Y-109355000D01*
X100766666Y-109307380D01*
X100528571Y-109307380D01*
X100433333Y-109355000D01*
X100385714Y-109402619D01*
X100338095Y-109497857D01*
X100338095Y-109593095D01*
X100385714Y-109735952D01*
X100957142Y-110307380D01*
X100338095Y-110307380D01*
X109553333Y-109307380D02*
X109553333Y-110021666D01*
X109600952Y-110164523D01*
X109696190Y-110259761D01*
X109839047Y-110307380D01*
X109934285Y-110307380D01*
X108648571Y-109640714D02*
X108648571Y-110307380D01*
X108886666Y-109259761D02*
X109124761Y-109974047D01*
X108505714Y-109974047D01*
X38948333Y-14692380D02*
X38948333Y-15406666D01*
X38995952Y-15549523D01*
X39091190Y-15644761D01*
X39234047Y-15692380D01*
X39329285Y-15692380D01*
X38472142Y-15692380D02*
X38472142Y-14692380D01*
X38091190Y-14692380D01*
X37995952Y-14740000D01*
X37948333Y-14787619D01*
X37900714Y-14882857D01*
X37900714Y-15025714D01*
X37948333Y-15120952D01*
X37995952Y-15168571D01*
X38091190Y-15216190D01*
X38472142Y-15216190D01*
X37043571Y-15025714D02*
X37043571Y-15692380D01*
X37281666Y-14644761D02*
X37519761Y-15359047D01*
X36900714Y-15359047D01*
X171727619Y-25852380D02*
X172060952Y-25376190D01*
X172299047Y-25852380D02*
X172299047Y-24852380D01*
X171918095Y-24852380D01*
X171822857Y-24900000D01*
X171775238Y-24947619D01*
X171727619Y-25042857D01*
X171727619Y-25185714D01*
X171775238Y-25280952D01*
X171822857Y-25328571D01*
X171918095Y-25376190D01*
X172299047Y-25376190D01*
X171441904Y-24852380D02*
X171108571Y-25852380D01*
X170775238Y-24852380D01*
X170489523Y-24947619D02*
X170441904Y-24900000D01*
X170346666Y-24852380D01*
X170108571Y-24852380D01*
X170013333Y-24900000D01*
X169965714Y-24947619D01*
X169918095Y-25042857D01*
X169918095Y-25138095D01*
X169965714Y-25280952D01*
X170537142Y-25852380D01*
X169918095Y-25852380D01*
X169584761Y-24852380D02*
X168965714Y-24852380D01*
X169299047Y-25233333D01*
X169156190Y-25233333D01*
X169060952Y-25280952D01*
X169013333Y-25328571D01*
X168965714Y-25423809D01*
X168965714Y-25661904D01*
X169013333Y-25757142D01*
X169060952Y-25804761D01*
X169156190Y-25852380D01*
X169441904Y-25852380D01*
X169537142Y-25804761D01*
X169584761Y-25757142D01*
X168013333Y-25852380D02*
X168584761Y-25852380D01*
X168299047Y-25852380D02*
X168299047Y-24852380D01*
X168394285Y-24995238D01*
X168489523Y-25090476D01*
X168584761Y-25138095D01*
X110767619Y-102052380D02*
X111100952Y-101576190D01*
X111339047Y-102052380D02*
X111339047Y-101052380D01*
X110958095Y-101052380D01*
X110862857Y-101100000D01*
X110815238Y-101147619D01*
X110767619Y-101242857D01*
X110767619Y-101385714D01*
X110815238Y-101480952D01*
X110862857Y-101528571D01*
X110958095Y-101576190D01*
X111339047Y-101576190D01*
X110481904Y-101052380D02*
X110148571Y-102052380D01*
X109815238Y-101052380D01*
X108958095Y-102052380D02*
X109529523Y-102052380D01*
X109243809Y-102052380D02*
X109243809Y-101052380D01*
X109339047Y-101195238D01*
X109434285Y-101290476D01*
X109529523Y-101338095D01*
X108577142Y-101147619D02*
X108529523Y-101100000D01*
X108434285Y-101052380D01*
X108196190Y-101052380D01*
X108100952Y-101100000D01*
X108053333Y-101147619D01*
X108005714Y-101242857D01*
X108005714Y-101338095D01*
X108053333Y-101480952D01*
X108624761Y-102052380D01*
X108005714Y-102052380D01*
X107434285Y-101480952D02*
X107529523Y-101433333D01*
X107577142Y-101385714D01*
X107624761Y-101290476D01*
X107624761Y-101242857D01*
X107577142Y-101147619D01*
X107529523Y-101100000D01*
X107434285Y-101052380D01*
X107243809Y-101052380D01*
X107148571Y-101100000D01*
X107100952Y-101147619D01*
X107053333Y-101242857D01*
X107053333Y-101290476D01*
X107100952Y-101385714D01*
X107148571Y-101433333D01*
X107243809Y-101480952D01*
X107434285Y-101480952D01*
X107529523Y-101528571D01*
X107577142Y-101576190D01*
X107624761Y-101671428D01*
X107624761Y-101861904D01*
X107577142Y-101957142D01*
X107529523Y-102004761D01*
X107434285Y-102052380D01*
X107243809Y-102052380D01*
X107148571Y-102004761D01*
X107100952Y-101957142D01*
X107053333Y-101861904D01*
X107053333Y-101671428D01*
X107100952Y-101576190D01*
X107148571Y-101528571D01*
X107243809Y-101480952D01*
X110767619Y-88082380D02*
X111100952Y-87606190D01*
X111339047Y-88082380D02*
X111339047Y-87082380D01*
X110958095Y-87082380D01*
X110862857Y-87130000D01*
X110815238Y-87177619D01*
X110767619Y-87272857D01*
X110767619Y-87415714D01*
X110815238Y-87510952D01*
X110862857Y-87558571D01*
X110958095Y-87606190D01*
X111339047Y-87606190D01*
X110481904Y-87082380D02*
X110148571Y-88082380D01*
X109815238Y-87082380D01*
X108958095Y-88082380D02*
X109529523Y-88082380D01*
X109243809Y-88082380D02*
X109243809Y-87082380D01*
X109339047Y-87225238D01*
X109434285Y-87320476D01*
X109529523Y-87368095D01*
X108577142Y-87177619D02*
X108529523Y-87130000D01*
X108434285Y-87082380D01*
X108196190Y-87082380D01*
X108100952Y-87130000D01*
X108053333Y-87177619D01*
X108005714Y-87272857D01*
X108005714Y-87368095D01*
X108053333Y-87510952D01*
X108624761Y-88082380D01*
X108005714Y-88082380D01*
X107672380Y-87082380D02*
X107005714Y-87082380D01*
X107434285Y-88082380D01*
X24463333Y-83272380D02*
X24463333Y-83986666D01*
X24510952Y-84129523D01*
X24606190Y-84224761D01*
X24749047Y-84272380D01*
X24844285Y-84272380D01*
X23939523Y-84272380D02*
X23749047Y-84272380D01*
X23653809Y-84224761D01*
X23606190Y-84177142D01*
X23510952Y-84034285D01*
X23463333Y-83843809D01*
X23463333Y-83462857D01*
X23510952Y-83367619D01*
X23558571Y-83320000D01*
X23653809Y-83272380D01*
X23844285Y-83272380D01*
X23939523Y-83320000D01*
X23987142Y-83367619D01*
X24034761Y-83462857D01*
X24034761Y-83700952D01*
X23987142Y-83796190D01*
X23939523Y-83843809D01*
X23844285Y-83891428D01*
X23653809Y-83891428D01*
X23558571Y-83843809D01*
X23510952Y-83796190D01*
X23463333Y-83700952D01*
X127642857Y-84907380D02*
X127976190Y-84431190D01*
X128214285Y-84907380D02*
X128214285Y-83907380D01*
X127833333Y-83907380D01*
X127738095Y-83955000D01*
X127690476Y-84002619D01*
X127642857Y-84097857D01*
X127642857Y-84240714D01*
X127690476Y-84335952D01*
X127738095Y-84383571D01*
X127833333Y-84431190D01*
X128214285Y-84431190D01*
X127309523Y-83907380D02*
X126690476Y-83907380D01*
X127023809Y-84288333D01*
X126880952Y-84288333D01*
X126785714Y-84335952D01*
X126738095Y-84383571D01*
X126690476Y-84478809D01*
X126690476Y-84716904D01*
X126738095Y-84812142D01*
X126785714Y-84859761D01*
X126880952Y-84907380D01*
X127166666Y-84907380D01*
X127261904Y-84859761D01*
X127309523Y-84812142D01*
X125738095Y-84907380D02*
X126309523Y-84907380D01*
X126023809Y-84907380D02*
X126023809Y-83907380D01*
X126119047Y-84050238D01*
X126214285Y-84145476D01*
X126309523Y-84193095D01*
X134151666Y-84812142D02*
X134199285Y-84859761D01*
X134342142Y-84907380D01*
X134437380Y-84907380D01*
X134580238Y-84859761D01*
X134675476Y-84764523D01*
X134723095Y-84669285D01*
X134770714Y-84478809D01*
X134770714Y-84335952D01*
X134723095Y-84145476D01*
X134675476Y-84050238D01*
X134580238Y-83955000D01*
X134437380Y-83907380D01*
X134342142Y-83907380D01*
X134199285Y-83955000D01*
X134151666Y-84002619D01*
X133675476Y-84907380D02*
X133485000Y-84907380D01*
X133389761Y-84859761D01*
X133342142Y-84812142D01*
X133246904Y-84669285D01*
X133199285Y-84478809D01*
X133199285Y-84097857D01*
X133246904Y-84002619D01*
X133294523Y-83955000D01*
X133389761Y-83907380D01*
X133580238Y-83907380D01*
X133675476Y-83955000D01*
X133723095Y-84002619D01*
X133770714Y-84097857D01*
X133770714Y-84335952D01*
X133723095Y-84431190D01*
X133675476Y-84478809D01*
X133580238Y-84526428D01*
X133389761Y-84526428D01*
X133294523Y-84478809D01*
X133246904Y-84431190D01*
X133199285Y-84335952D01*
X23669523Y-108672380D02*
X23669523Y-109386666D01*
X23717142Y-109529523D01*
X23812380Y-109624761D01*
X23955238Y-109672380D01*
X24050476Y-109672380D01*
X22669523Y-109672380D02*
X23240952Y-109672380D01*
X22955238Y-109672380D02*
X22955238Y-108672380D01*
X23050476Y-108815238D01*
X23145714Y-108910476D01*
X23240952Y-108958095D01*
X21717142Y-109672380D02*
X22288571Y-109672380D01*
X22002857Y-109672380D02*
X22002857Y-108672380D01*
X22098095Y-108815238D01*
X22193333Y-108910476D01*
X22288571Y-108958095D01*
X61769523Y-15327380D02*
X61769523Y-16041666D01*
X61817142Y-16184523D01*
X61912380Y-16279761D01*
X62055238Y-16327380D01*
X62150476Y-16327380D01*
X60769523Y-16327380D02*
X61340952Y-16327380D01*
X61055238Y-16327380D02*
X61055238Y-15327380D01*
X61150476Y-15470238D01*
X61245714Y-15565476D01*
X61340952Y-15613095D01*
X60150476Y-15327380D02*
X60055238Y-15327380D01*
X59960000Y-15375000D01*
X59912380Y-15422619D01*
X59864761Y-15517857D01*
X59817142Y-15708333D01*
X59817142Y-15946428D01*
X59864761Y-16136904D01*
X59912380Y-16232142D01*
X59960000Y-16279761D01*
X60055238Y-16327380D01*
X60150476Y-16327380D01*
X60245714Y-16279761D01*
X60293333Y-16232142D01*
X60340952Y-16136904D01*
X60388571Y-15946428D01*
X60388571Y-15708333D01*
X60340952Y-15517857D01*
X60293333Y-15422619D01*
X60245714Y-15375000D01*
X60150476Y-15327380D01*
X59785095Y-111212380D02*
X59785095Y-112021904D01*
X59737476Y-112117142D01*
X59689857Y-112164761D01*
X59594619Y-112212380D01*
X59404142Y-112212380D01*
X59308904Y-112164761D01*
X59261285Y-112117142D01*
X59213666Y-112021904D01*
X59213666Y-111212380D01*
X58832714Y-111212380D02*
X58213666Y-111212380D01*
X58547000Y-111593333D01*
X58404142Y-111593333D01*
X58308904Y-111640952D01*
X58261285Y-111688571D01*
X58213666Y-111783809D01*
X58213666Y-112021904D01*
X58261285Y-112117142D01*
X58308904Y-112164761D01*
X58404142Y-112212380D01*
X58689857Y-112212380D01*
X58785095Y-112164761D01*
X58832714Y-112117142D01*
X57832714Y-111307619D02*
X57785095Y-111260000D01*
X57689857Y-111212380D01*
X57451761Y-111212380D01*
X57356523Y-111260000D01*
X57308904Y-111307619D01*
X57261285Y-111402857D01*
X57261285Y-111498095D01*
X57308904Y-111640952D01*
X57880333Y-112212380D01*
X57261285Y-112212380D01*
X171299047Y-89352380D02*
X171632380Y-88876190D01*
X171870476Y-89352380D02*
X171870476Y-88352380D01*
X171489523Y-88352380D01*
X171394285Y-88400000D01*
X171346666Y-88447619D01*
X171299047Y-88542857D01*
X171299047Y-88685714D01*
X171346666Y-88780952D01*
X171394285Y-88828571D01*
X171489523Y-88876190D01*
X171870476Y-88876190D01*
X170346666Y-89352380D02*
X170918095Y-89352380D01*
X170632380Y-89352380D02*
X170632380Y-88352380D01*
X170727619Y-88495238D01*
X170822857Y-88590476D01*
X170918095Y-88638095D01*
X169965714Y-88447619D02*
X169918095Y-88400000D01*
X169822857Y-88352380D01*
X169584761Y-88352380D01*
X169489523Y-88400000D01*
X169441904Y-88447619D01*
X169394285Y-88542857D01*
X169394285Y-88638095D01*
X169441904Y-88780952D01*
X170013333Y-89352380D01*
X169394285Y-89352380D01*
X169013333Y-88447619D02*
X168965714Y-88400000D01*
X168870476Y-88352380D01*
X168632380Y-88352380D01*
X168537142Y-88400000D01*
X168489523Y-88447619D01*
X168441904Y-88542857D01*
X168441904Y-88638095D01*
X168489523Y-88780952D01*
X169060952Y-89352380D01*
X168441904Y-89352380D01*
X162123333Y-134072380D02*
X162123333Y-134786666D01*
X162170952Y-134929523D01*
X162266190Y-135024761D01*
X162409047Y-135072380D01*
X162504285Y-135072380D01*
X161647142Y-135072380D02*
X161647142Y-134072380D01*
X161266190Y-134072380D01*
X161170952Y-134120000D01*
X161123333Y-134167619D01*
X161075714Y-134262857D01*
X161075714Y-134405714D01*
X161123333Y-134500952D01*
X161170952Y-134548571D01*
X161266190Y-134596190D01*
X161647142Y-134596190D01*
X160742380Y-134072380D02*
X160123333Y-134072380D01*
X160456666Y-134453333D01*
X160313809Y-134453333D01*
X160218571Y-134500952D01*
X160170952Y-134548571D01*
X160123333Y-134643809D01*
X160123333Y-134881904D01*
X160170952Y-134977142D01*
X160218571Y-135024761D01*
X160313809Y-135072380D01*
X160599523Y-135072380D01*
X160694761Y-135024761D01*
X160742380Y-134977142D01*
X87193333Y-97877380D02*
X87193333Y-98591666D01*
X87240952Y-98734523D01*
X87336190Y-98829761D01*
X87479047Y-98877380D01*
X87574285Y-98877380D01*
X86717142Y-98877380D02*
X86717142Y-97877380D01*
X86336190Y-97877380D01*
X86240952Y-97925000D01*
X86193333Y-97972619D01*
X86145714Y-98067857D01*
X86145714Y-98210714D01*
X86193333Y-98305952D01*
X86240952Y-98353571D01*
X86336190Y-98401190D01*
X86717142Y-98401190D01*
X85764761Y-97972619D02*
X85717142Y-97925000D01*
X85621904Y-97877380D01*
X85383809Y-97877380D01*
X85288571Y-97925000D01*
X85240952Y-97972619D01*
X85193333Y-98067857D01*
X85193333Y-98163095D01*
X85240952Y-98305952D01*
X85812380Y-98877380D01*
X85193333Y-98877380D01*
X87193333Y-101687380D02*
X87193333Y-102401666D01*
X87240952Y-102544523D01*
X87336190Y-102639761D01*
X87479047Y-102687380D01*
X87574285Y-102687380D01*
X86717142Y-102687380D02*
X86717142Y-101687380D01*
X86336190Y-101687380D01*
X86240952Y-101735000D01*
X86193333Y-101782619D01*
X86145714Y-101877857D01*
X86145714Y-102020714D01*
X86193333Y-102115952D01*
X86240952Y-102163571D01*
X86336190Y-102211190D01*
X86717142Y-102211190D01*
X85193333Y-102687380D02*
X85764761Y-102687380D01*
X85479047Y-102687380D02*
X85479047Y-101687380D01*
X85574285Y-101830238D01*
X85669523Y-101925476D01*
X85764761Y-101973095D01*
X104473333Y-77557380D02*
X104473333Y-78271666D01*
X104520952Y-78414523D01*
X104616190Y-78509761D01*
X104759047Y-78557380D01*
X104854285Y-78557380D01*
X104044761Y-77652619D02*
X103997142Y-77605000D01*
X103901904Y-77557380D01*
X103663809Y-77557380D01*
X103568571Y-77605000D01*
X103520952Y-77652619D01*
X103473333Y-77747857D01*
X103473333Y-77843095D01*
X103520952Y-77985952D01*
X104092380Y-78557380D01*
X103473333Y-78557380D01*
X91543095Y-84907380D02*
X91543095Y-83907380D01*
X91305000Y-83907380D01*
X91162142Y-83955000D01*
X91066904Y-84050238D01*
X91019285Y-84145476D01*
X90971666Y-84335952D01*
X90971666Y-84478809D01*
X91019285Y-84669285D01*
X91066904Y-84764523D01*
X91162142Y-84859761D01*
X91305000Y-84907380D01*
X91543095Y-84907380D01*
X90638333Y-83907380D02*
X89971666Y-83907380D01*
X90400238Y-84907380D01*
X99813952Y-91368571D02*
X99671095Y-91416190D01*
X99623476Y-91463809D01*
X99575857Y-91559047D01*
X99575857Y-91701904D01*
X99623476Y-91797142D01*
X99671095Y-91844761D01*
X99766333Y-91892380D01*
X100147285Y-91892380D01*
X100147285Y-90892380D01*
X99813952Y-90892380D01*
X99718714Y-90940000D01*
X99671095Y-90987619D01*
X99623476Y-91082857D01*
X99623476Y-91178095D01*
X99671095Y-91273333D01*
X99718714Y-91320952D01*
X99813952Y-91368571D01*
X100147285Y-91368571D01*
X99242523Y-90892380D02*
X98575857Y-90892380D01*
X99242523Y-91892380D01*
X98575857Y-91892380D01*
X97671095Y-91892380D02*
X98242523Y-91892380D01*
X97956809Y-91892380D02*
X97956809Y-90892380D01*
X98052047Y-91035238D01*
X98147285Y-91130476D01*
X98242523Y-91178095D01*
X32083333Y-108672380D02*
X32083333Y-109386666D01*
X32130952Y-109529523D01*
X32226190Y-109624761D01*
X32369047Y-109672380D01*
X32464285Y-109672380D01*
X31702380Y-108672380D02*
X31083333Y-108672380D01*
X31416666Y-109053333D01*
X31273809Y-109053333D01*
X31178571Y-109100952D01*
X31130952Y-109148571D01*
X31083333Y-109243809D01*
X31083333Y-109481904D01*
X31130952Y-109577142D01*
X31178571Y-109624761D01*
X31273809Y-109672380D01*
X31559523Y-109672380D01*
X31654761Y-109624761D01*
X31702380Y-109577142D01*
X71088095Y-85812380D02*
X71088095Y-86621904D01*
X71040476Y-86717142D01*
X70992857Y-86764761D01*
X70897619Y-86812380D01*
X70707142Y-86812380D01*
X70611904Y-86764761D01*
X70564285Y-86717142D01*
X70516666Y-86621904D01*
X70516666Y-85812380D01*
X69516666Y-86812380D02*
X70088095Y-86812380D01*
X69802380Y-86812380D02*
X69802380Y-85812380D01*
X69897619Y-85955238D01*
X69992857Y-86050476D01*
X70088095Y-86098095D01*
X68897619Y-85812380D02*
X68802380Y-85812380D01*
X68707142Y-85860000D01*
X68659523Y-85907619D01*
X68611904Y-86002857D01*
X68564285Y-86193333D01*
X68564285Y-86431428D01*
X68611904Y-86621904D01*
X68659523Y-86717142D01*
X68707142Y-86764761D01*
X68802380Y-86812380D01*
X68897619Y-86812380D01*
X68992857Y-86764761D01*
X69040476Y-86717142D01*
X69088095Y-86621904D01*
X69135714Y-86431428D01*
X69135714Y-86193333D01*
X69088095Y-86002857D01*
X69040476Y-85907619D01*
X68992857Y-85860000D01*
X68897619Y-85812380D01*
X50497619Y-17084523D02*
X50497619Y-18112619D01*
X50437142Y-18233571D01*
X50376666Y-18294047D01*
X50255714Y-18354523D01*
X50013809Y-18354523D01*
X49892857Y-18294047D01*
X49832380Y-18233571D01*
X49771904Y-18112619D01*
X49771904Y-17084523D01*
X48501904Y-18354523D02*
X49227619Y-18354523D01*
X48864761Y-18354523D02*
X48864761Y-17084523D01*
X48985714Y-17265952D01*
X49106666Y-17386904D01*
X49227619Y-17447380D01*
X96726333Y-15962380D02*
X96726333Y-16676666D01*
X96773952Y-16819523D01*
X96869190Y-16914761D01*
X97012047Y-16962380D01*
X97107285Y-16962380D01*
X95726333Y-16962380D02*
X96297761Y-16962380D01*
X96012047Y-16962380D02*
X96012047Y-15962380D01*
X96107285Y-16105238D01*
X96202523Y-16200476D01*
X96297761Y-16248095D01*
X127642857Y-89987380D02*
X127976190Y-89511190D01*
X128214285Y-89987380D02*
X128214285Y-88987380D01*
X127833333Y-88987380D01*
X127738095Y-89035000D01*
X127690476Y-89082619D01*
X127642857Y-89177857D01*
X127642857Y-89320714D01*
X127690476Y-89415952D01*
X127738095Y-89463571D01*
X127833333Y-89511190D01*
X128214285Y-89511190D01*
X127309523Y-88987380D02*
X126690476Y-88987380D01*
X127023809Y-89368333D01*
X126880952Y-89368333D01*
X126785714Y-89415952D01*
X126738095Y-89463571D01*
X126690476Y-89558809D01*
X126690476Y-89796904D01*
X126738095Y-89892142D01*
X126785714Y-89939761D01*
X126880952Y-89987380D01*
X127166666Y-89987380D01*
X127261904Y-89939761D01*
X127309523Y-89892142D01*
X126071428Y-88987380D02*
X125976190Y-88987380D01*
X125880952Y-89035000D01*
X125833333Y-89082619D01*
X125785714Y-89177857D01*
X125738095Y-89368333D01*
X125738095Y-89606428D01*
X125785714Y-89796904D01*
X125833333Y-89892142D01*
X125880952Y-89939761D01*
X125976190Y-89987380D01*
X126071428Y-89987380D01*
X126166666Y-89939761D01*
X126214285Y-89892142D01*
X126261904Y-89796904D01*
X126309523Y-89606428D01*
X126309523Y-89368333D01*
X126261904Y-89177857D01*
X126214285Y-89082619D01*
X126166666Y-89035000D01*
X126071428Y-88987380D01*
X169092619Y-56999047D02*
X169568809Y-57332380D01*
X169092619Y-57570476D02*
X170092619Y-57570476D01*
X170092619Y-57189523D01*
X170045000Y-57094285D01*
X169997380Y-57046666D01*
X169902142Y-56999047D01*
X169759285Y-56999047D01*
X169664047Y-57046666D01*
X169616428Y-57094285D01*
X169568809Y-57189523D01*
X169568809Y-57570476D01*
X169664047Y-56427619D02*
X169711666Y-56522857D01*
X169759285Y-56570476D01*
X169854523Y-56618095D01*
X169902142Y-56618095D01*
X169997380Y-56570476D01*
X170045000Y-56522857D01*
X170092619Y-56427619D01*
X170092619Y-56237142D01*
X170045000Y-56141904D01*
X169997380Y-56094285D01*
X169902142Y-56046666D01*
X169854523Y-56046666D01*
X169759285Y-56094285D01*
X169711666Y-56141904D01*
X169664047Y-56237142D01*
X169664047Y-56427619D01*
X169616428Y-56522857D01*
X169568809Y-56570476D01*
X169473571Y-56618095D01*
X169283095Y-56618095D01*
X169187857Y-56570476D01*
X169140238Y-56522857D01*
X169092619Y-56427619D01*
X169092619Y-56237142D01*
X169140238Y-56141904D01*
X169187857Y-56094285D01*
X169283095Y-56046666D01*
X169473571Y-56046666D01*
X169568809Y-56094285D01*
X169616428Y-56141904D01*
X169664047Y-56237142D01*
X169997380Y-55665714D02*
X170045000Y-55618095D01*
X170092619Y-55522857D01*
X170092619Y-55284761D01*
X170045000Y-55189523D01*
X169997380Y-55141904D01*
X169902142Y-55094285D01*
X169806904Y-55094285D01*
X169664047Y-55141904D01*
X169092619Y-55713333D01*
X169092619Y-55094285D01*
X170092619Y-54189523D02*
X170092619Y-54665714D01*
X169616428Y-54713333D01*
X169664047Y-54665714D01*
X169711666Y-54570476D01*
X169711666Y-54332380D01*
X169664047Y-54237142D01*
X169616428Y-54189523D01*
X169521190Y-54141904D01*
X169283095Y-54141904D01*
X169187857Y-54189523D01*
X169140238Y-54237142D01*
X169092619Y-54332380D01*
X169092619Y-54570476D01*
X169140238Y-54665714D01*
X169187857Y-54713333D01*
X169092619Y-34139047D02*
X169568809Y-34472380D01*
X169092619Y-34710476D02*
X170092619Y-34710476D01*
X170092619Y-34329523D01*
X170045000Y-34234285D01*
X169997380Y-34186666D01*
X169902142Y-34139047D01*
X169759285Y-34139047D01*
X169664047Y-34186666D01*
X169616428Y-34234285D01*
X169568809Y-34329523D01*
X169568809Y-34710476D01*
X169664047Y-33567619D02*
X169711666Y-33662857D01*
X169759285Y-33710476D01*
X169854523Y-33758095D01*
X169902142Y-33758095D01*
X169997380Y-33710476D01*
X170045000Y-33662857D01*
X170092619Y-33567619D01*
X170092619Y-33377142D01*
X170045000Y-33281904D01*
X169997380Y-33234285D01*
X169902142Y-33186666D01*
X169854523Y-33186666D01*
X169759285Y-33234285D01*
X169711666Y-33281904D01*
X169664047Y-33377142D01*
X169664047Y-33567619D01*
X169616428Y-33662857D01*
X169568809Y-33710476D01*
X169473571Y-33758095D01*
X169283095Y-33758095D01*
X169187857Y-33710476D01*
X169140238Y-33662857D01*
X169092619Y-33567619D01*
X169092619Y-33377142D01*
X169140238Y-33281904D01*
X169187857Y-33234285D01*
X169283095Y-33186666D01*
X169473571Y-33186666D01*
X169568809Y-33234285D01*
X169616428Y-33281904D01*
X169664047Y-33377142D01*
X169997380Y-32805714D02*
X170045000Y-32758095D01*
X170092619Y-32662857D01*
X170092619Y-32424761D01*
X170045000Y-32329523D01*
X169997380Y-32281904D01*
X169902142Y-32234285D01*
X169806904Y-32234285D01*
X169664047Y-32281904D01*
X169092619Y-32853333D01*
X169092619Y-32234285D01*
X169759285Y-31377142D02*
X169092619Y-31377142D01*
X170140238Y-31615238D02*
X169425952Y-31853333D01*
X169425952Y-31234285D01*
X145899047Y-67127380D02*
X146232380Y-66651190D01*
X146470476Y-67127380D02*
X146470476Y-66127380D01*
X146089523Y-66127380D01*
X145994285Y-66175000D01*
X145946666Y-66222619D01*
X145899047Y-66317857D01*
X145899047Y-66460714D01*
X145946666Y-66555952D01*
X145994285Y-66603571D01*
X146089523Y-66651190D01*
X146470476Y-66651190D01*
X145518095Y-66222619D02*
X145470476Y-66175000D01*
X145375238Y-66127380D01*
X145137142Y-66127380D01*
X145041904Y-66175000D01*
X144994285Y-66222619D01*
X144946666Y-66317857D01*
X144946666Y-66413095D01*
X144994285Y-66555952D01*
X145565714Y-67127380D01*
X144946666Y-67127380D01*
X144565714Y-66222619D02*
X144518095Y-66175000D01*
X144422857Y-66127380D01*
X144184761Y-66127380D01*
X144089523Y-66175000D01*
X144041904Y-66222619D01*
X143994285Y-66317857D01*
X143994285Y-66413095D01*
X144041904Y-66555952D01*
X144613333Y-67127380D01*
X143994285Y-67127380D01*
X143375238Y-66127380D02*
X143280000Y-66127380D01*
X143184761Y-66175000D01*
X143137142Y-66222619D01*
X143089523Y-66317857D01*
X143041904Y-66508333D01*
X143041904Y-66746428D01*
X143089523Y-66936904D01*
X143137142Y-67032142D01*
X143184761Y-67079761D01*
X143280000Y-67127380D01*
X143375238Y-67127380D01*
X143470476Y-67079761D01*
X143518095Y-67032142D01*
X143565714Y-66936904D01*
X143613333Y-66746428D01*
X143613333Y-66508333D01*
X143565714Y-66317857D01*
X143518095Y-66222619D01*
X143470476Y-66175000D01*
X143375238Y-66127380D01*
X171299047Y-96972380D02*
X171632380Y-96496190D01*
X171870476Y-96972380D02*
X171870476Y-95972380D01*
X171489523Y-95972380D01*
X171394285Y-96020000D01*
X171346666Y-96067619D01*
X171299047Y-96162857D01*
X171299047Y-96305714D01*
X171346666Y-96400952D01*
X171394285Y-96448571D01*
X171489523Y-96496190D01*
X171870476Y-96496190D01*
X170346666Y-96972380D02*
X170918095Y-96972380D01*
X170632380Y-96972380D02*
X170632380Y-95972380D01*
X170727619Y-96115238D01*
X170822857Y-96210476D01*
X170918095Y-96258095D01*
X169394285Y-96972380D02*
X169965714Y-96972380D01*
X169680000Y-96972380D02*
X169680000Y-95972380D01*
X169775238Y-96115238D01*
X169870476Y-96210476D01*
X169965714Y-96258095D01*
X168537142Y-96305714D02*
X168537142Y-96972380D01*
X168775238Y-95924761D02*
X169013333Y-96639047D01*
X168394285Y-96639047D01*
X171299047Y-104592380D02*
X171632380Y-104116190D01*
X171870476Y-104592380D02*
X171870476Y-103592380D01*
X171489523Y-103592380D01*
X171394285Y-103640000D01*
X171346666Y-103687619D01*
X171299047Y-103782857D01*
X171299047Y-103925714D01*
X171346666Y-104020952D01*
X171394285Y-104068571D01*
X171489523Y-104116190D01*
X171870476Y-104116190D01*
X170346666Y-104592380D02*
X170918095Y-104592380D01*
X170632380Y-104592380D02*
X170632380Y-103592380D01*
X170727619Y-103735238D01*
X170822857Y-103830476D01*
X170918095Y-103878095D01*
X169394285Y-104592380D02*
X169965714Y-104592380D01*
X169680000Y-104592380D02*
X169680000Y-103592380D01*
X169775238Y-103735238D01*
X169870476Y-103830476D01*
X169965714Y-103878095D01*
X169060952Y-103592380D02*
X168441904Y-103592380D01*
X168775238Y-103973333D01*
X168632380Y-103973333D01*
X168537142Y-104020952D01*
X168489523Y-104068571D01*
X168441904Y-104163809D01*
X168441904Y-104401904D01*
X168489523Y-104497142D01*
X168537142Y-104544761D01*
X168632380Y-104592380D01*
X168918095Y-104592380D01*
X169013333Y-104544761D01*
X169060952Y-104497142D01*
X171299047Y-112212380D02*
X171632380Y-111736190D01*
X171870476Y-112212380D02*
X171870476Y-111212380D01*
X171489523Y-111212380D01*
X171394285Y-111260000D01*
X171346666Y-111307619D01*
X171299047Y-111402857D01*
X171299047Y-111545714D01*
X171346666Y-111640952D01*
X171394285Y-111688571D01*
X171489523Y-111736190D01*
X171870476Y-111736190D01*
X170346666Y-112212380D02*
X170918095Y-112212380D01*
X170632380Y-112212380D02*
X170632380Y-111212380D01*
X170727619Y-111355238D01*
X170822857Y-111450476D01*
X170918095Y-111498095D01*
X169394285Y-112212380D02*
X169965714Y-112212380D01*
X169680000Y-112212380D02*
X169680000Y-111212380D01*
X169775238Y-111355238D01*
X169870476Y-111450476D01*
X169965714Y-111498095D01*
X169013333Y-111307619D02*
X168965714Y-111260000D01*
X168870476Y-111212380D01*
X168632380Y-111212380D01*
X168537142Y-111260000D01*
X168489523Y-111307619D01*
X168441904Y-111402857D01*
X168441904Y-111498095D01*
X168489523Y-111640952D01*
X169060952Y-112212380D01*
X168441904Y-112212380D01*
X171299047Y-119832380D02*
X171632380Y-119356190D01*
X171870476Y-119832380D02*
X171870476Y-118832380D01*
X171489523Y-118832380D01*
X171394285Y-118880000D01*
X171346666Y-118927619D01*
X171299047Y-119022857D01*
X171299047Y-119165714D01*
X171346666Y-119260952D01*
X171394285Y-119308571D01*
X171489523Y-119356190D01*
X171870476Y-119356190D01*
X170346666Y-119832380D02*
X170918095Y-119832380D01*
X170632380Y-119832380D02*
X170632380Y-118832380D01*
X170727619Y-118975238D01*
X170822857Y-119070476D01*
X170918095Y-119118095D01*
X169394285Y-119832380D02*
X169965714Y-119832380D01*
X169680000Y-119832380D02*
X169680000Y-118832380D01*
X169775238Y-118975238D01*
X169870476Y-119070476D01*
X169965714Y-119118095D01*
X168441904Y-119832380D02*
X169013333Y-119832380D01*
X168727619Y-119832380D02*
X168727619Y-118832380D01*
X168822857Y-118975238D01*
X168918095Y-119070476D01*
X169013333Y-119118095D01*
X171299047Y-93162380D02*
X171632380Y-92686190D01*
X171870476Y-93162380D02*
X171870476Y-92162380D01*
X171489523Y-92162380D01*
X171394285Y-92210000D01*
X171346666Y-92257619D01*
X171299047Y-92352857D01*
X171299047Y-92495714D01*
X171346666Y-92590952D01*
X171394285Y-92638571D01*
X171489523Y-92686190D01*
X171870476Y-92686190D01*
X170346666Y-93162380D02*
X170918095Y-93162380D01*
X170632380Y-93162380D02*
X170632380Y-92162380D01*
X170727619Y-92305238D01*
X170822857Y-92400476D01*
X170918095Y-92448095D01*
X169394285Y-93162380D02*
X169965714Y-93162380D01*
X169680000Y-93162380D02*
X169680000Y-92162380D01*
X169775238Y-92305238D01*
X169870476Y-92400476D01*
X169965714Y-92448095D01*
X168775238Y-92162380D02*
X168680000Y-92162380D01*
X168584761Y-92210000D01*
X168537142Y-92257619D01*
X168489523Y-92352857D01*
X168441904Y-92543333D01*
X168441904Y-92781428D01*
X168489523Y-92971904D01*
X168537142Y-93067142D01*
X168584761Y-93114761D01*
X168680000Y-93162380D01*
X168775238Y-93162380D01*
X168870476Y-93114761D01*
X168918095Y-93067142D01*
X168965714Y-92971904D01*
X169013333Y-92781428D01*
X169013333Y-92543333D01*
X168965714Y-92352857D01*
X168918095Y-92257619D01*
X168870476Y-92210000D01*
X168775238Y-92162380D01*
X171299047Y-100782380D02*
X171632380Y-100306190D01*
X171870476Y-100782380D02*
X171870476Y-99782380D01*
X171489523Y-99782380D01*
X171394285Y-99830000D01*
X171346666Y-99877619D01*
X171299047Y-99972857D01*
X171299047Y-100115714D01*
X171346666Y-100210952D01*
X171394285Y-100258571D01*
X171489523Y-100306190D01*
X171870476Y-100306190D01*
X170346666Y-100782380D02*
X170918095Y-100782380D01*
X170632380Y-100782380D02*
X170632380Y-99782380D01*
X170727619Y-99925238D01*
X170822857Y-100020476D01*
X170918095Y-100068095D01*
X169727619Y-99782380D02*
X169632380Y-99782380D01*
X169537142Y-99830000D01*
X169489523Y-99877619D01*
X169441904Y-99972857D01*
X169394285Y-100163333D01*
X169394285Y-100401428D01*
X169441904Y-100591904D01*
X169489523Y-100687142D01*
X169537142Y-100734761D01*
X169632380Y-100782380D01*
X169727619Y-100782380D01*
X169822857Y-100734761D01*
X169870476Y-100687142D01*
X169918095Y-100591904D01*
X169965714Y-100401428D01*
X169965714Y-100163333D01*
X169918095Y-99972857D01*
X169870476Y-99877619D01*
X169822857Y-99830000D01*
X169727619Y-99782380D01*
X168918095Y-100782380D02*
X168727619Y-100782380D01*
X168632380Y-100734761D01*
X168584761Y-100687142D01*
X168489523Y-100544285D01*
X168441904Y-100353809D01*
X168441904Y-99972857D01*
X168489523Y-99877619D01*
X168537142Y-99830000D01*
X168632380Y-99782380D01*
X168822857Y-99782380D01*
X168918095Y-99830000D01*
X168965714Y-99877619D01*
X169013333Y-99972857D01*
X169013333Y-100210952D01*
X168965714Y-100306190D01*
X168918095Y-100353809D01*
X168822857Y-100401428D01*
X168632380Y-100401428D01*
X168537142Y-100353809D01*
X168489523Y-100306190D01*
X168441904Y-100210952D01*
X171299047Y-108402380D02*
X171632380Y-107926190D01*
X171870476Y-108402380D02*
X171870476Y-107402380D01*
X171489523Y-107402380D01*
X171394285Y-107450000D01*
X171346666Y-107497619D01*
X171299047Y-107592857D01*
X171299047Y-107735714D01*
X171346666Y-107830952D01*
X171394285Y-107878571D01*
X171489523Y-107926190D01*
X171870476Y-107926190D01*
X170346666Y-108402380D02*
X170918095Y-108402380D01*
X170632380Y-108402380D02*
X170632380Y-107402380D01*
X170727619Y-107545238D01*
X170822857Y-107640476D01*
X170918095Y-107688095D01*
X169727619Y-107402380D02*
X169632380Y-107402380D01*
X169537142Y-107450000D01*
X169489523Y-107497619D01*
X169441904Y-107592857D01*
X169394285Y-107783333D01*
X169394285Y-108021428D01*
X169441904Y-108211904D01*
X169489523Y-108307142D01*
X169537142Y-108354761D01*
X169632380Y-108402380D01*
X169727619Y-108402380D01*
X169822857Y-108354761D01*
X169870476Y-108307142D01*
X169918095Y-108211904D01*
X169965714Y-108021428D01*
X169965714Y-107783333D01*
X169918095Y-107592857D01*
X169870476Y-107497619D01*
X169822857Y-107450000D01*
X169727619Y-107402380D01*
X168822857Y-107830952D02*
X168918095Y-107783333D01*
X168965714Y-107735714D01*
X169013333Y-107640476D01*
X169013333Y-107592857D01*
X168965714Y-107497619D01*
X168918095Y-107450000D01*
X168822857Y-107402380D01*
X168632380Y-107402380D01*
X168537142Y-107450000D01*
X168489523Y-107497619D01*
X168441904Y-107592857D01*
X168441904Y-107640476D01*
X168489523Y-107735714D01*
X168537142Y-107783333D01*
X168632380Y-107830952D01*
X168822857Y-107830952D01*
X168918095Y-107878571D01*
X168965714Y-107926190D01*
X169013333Y-108021428D01*
X169013333Y-108211904D01*
X168965714Y-108307142D01*
X168918095Y-108354761D01*
X168822857Y-108402380D01*
X168632380Y-108402380D01*
X168537142Y-108354761D01*
X168489523Y-108307142D01*
X168441904Y-108211904D01*
X168441904Y-108021428D01*
X168489523Y-107926190D01*
X168537142Y-107878571D01*
X168632380Y-107830952D01*
X171299047Y-116022380D02*
X171632380Y-115546190D01*
X171870476Y-116022380D02*
X171870476Y-115022380D01*
X171489523Y-115022380D01*
X171394285Y-115070000D01*
X171346666Y-115117619D01*
X171299047Y-115212857D01*
X171299047Y-115355714D01*
X171346666Y-115450952D01*
X171394285Y-115498571D01*
X171489523Y-115546190D01*
X171870476Y-115546190D01*
X170346666Y-116022380D02*
X170918095Y-116022380D01*
X170632380Y-116022380D02*
X170632380Y-115022380D01*
X170727619Y-115165238D01*
X170822857Y-115260476D01*
X170918095Y-115308095D01*
X169727619Y-115022380D02*
X169632380Y-115022380D01*
X169537142Y-115070000D01*
X169489523Y-115117619D01*
X169441904Y-115212857D01*
X169394285Y-115403333D01*
X169394285Y-115641428D01*
X169441904Y-115831904D01*
X169489523Y-115927142D01*
X169537142Y-115974761D01*
X169632380Y-116022380D01*
X169727619Y-116022380D01*
X169822857Y-115974761D01*
X169870476Y-115927142D01*
X169918095Y-115831904D01*
X169965714Y-115641428D01*
X169965714Y-115403333D01*
X169918095Y-115212857D01*
X169870476Y-115117619D01*
X169822857Y-115070000D01*
X169727619Y-115022380D01*
X169060952Y-115022380D02*
X168394285Y-115022380D01*
X168822857Y-116022380D01*
X32392857Y-16962380D02*
X32726190Y-16486190D01*
X32964285Y-16962380D02*
X32964285Y-15962380D01*
X32583333Y-15962380D01*
X32488095Y-16010000D01*
X32440476Y-16057619D01*
X32392857Y-16152857D01*
X32392857Y-16295714D01*
X32440476Y-16390952D01*
X32488095Y-16438571D01*
X32583333Y-16486190D01*
X32964285Y-16486190D01*
X32011904Y-16057619D02*
X31964285Y-16010000D01*
X31869047Y-15962380D01*
X31630952Y-15962380D01*
X31535714Y-16010000D01*
X31488095Y-16057619D01*
X31440476Y-16152857D01*
X31440476Y-16248095D01*
X31488095Y-16390952D01*
X32059523Y-16962380D01*
X31440476Y-16962380D01*
X30964285Y-16962380D02*
X30773809Y-16962380D01*
X30678571Y-16914761D01*
X30630952Y-16867142D01*
X30535714Y-16724285D01*
X30488095Y-16533809D01*
X30488095Y-16152857D01*
X30535714Y-16057619D01*
X30583333Y-16010000D01*
X30678571Y-15962380D01*
X30869047Y-15962380D01*
X30964285Y-16010000D01*
X31011904Y-16057619D01*
X31059523Y-16152857D01*
X31059523Y-16390952D01*
X31011904Y-16486190D01*
X30964285Y-16533809D01*
X30869047Y-16581428D01*
X30678571Y-16581428D01*
X30583333Y-16533809D01*
X30535714Y-16486190D01*
X30488095Y-16390952D01*
X48902857Y-91257380D02*
X49236190Y-90781190D01*
X49474285Y-91257380D02*
X49474285Y-90257380D01*
X49093333Y-90257380D01*
X48998095Y-90305000D01*
X48950476Y-90352619D01*
X48902857Y-90447857D01*
X48902857Y-90590714D01*
X48950476Y-90685952D01*
X48998095Y-90733571D01*
X49093333Y-90781190D01*
X49474285Y-90781190D01*
X48521904Y-90352619D02*
X48474285Y-90305000D01*
X48379047Y-90257380D01*
X48140952Y-90257380D01*
X48045714Y-90305000D01*
X47998095Y-90352619D01*
X47950476Y-90447857D01*
X47950476Y-90543095D01*
X47998095Y-90685952D01*
X48569523Y-91257380D01*
X47950476Y-91257380D01*
X47093333Y-90257380D02*
X47283809Y-90257380D01*
X47379047Y-90305000D01*
X47426666Y-90352619D01*
X47521904Y-90495476D01*
X47569523Y-90685952D01*
X47569523Y-91066904D01*
X47521904Y-91162142D01*
X47474285Y-91209761D01*
X47379047Y-91257380D01*
X47188571Y-91257380D01*
X47093333Y-91209761D01*
X47045714Y-91162142D01*
X46998095Y-91066904D01*
X46998095Y-90828809D01*
X47045714Y-90733571D01*
X47093333Y-90685952D01*
X47188571Y-90638333D01*
X47379047Y-90638333D01*
X47474285Y-90685952D01*
X47521904Y-90733571D01*
X47569523Y-90828809D01*
X151772857Y-67127380D02*
X152106190Y-66651190D01*
X152344285Y-67127380D02*
X152344285Y-66127380D01*
X151963333Y-66127380D01*
X151868095Y-66175000D01*
X151820476Y-66222619D01*
X151772857Y-66317857D01*
X151772857Y-66460714D01*
X151820476Y-66555952D01*
X151868095Y-66603571D01*
X151963333Y-66651190D01*
X152344285Y-66651190D01*
X151391904Y-66222619D02*
X151344285Y-66175000D01*
X151249047Y-66127380D01*
X151010952Y-66127380D01*
X150915714Y-66175000D01*
X150868095Y-66222619D01*
X150820476Y-66317857D01*
X150820476Y-66413095D01*
X150868095Y-66555952D01*
X151439523Y-67127380D01*
X150820476Y-67127380D01*
X149868095Y-67127380D02*
X150439523Y-67127380D01*
X150153809Y-67127380D02*
X150153809Y-66127380D01*
X150249047Y-66270238D01*
X150344285Y-66365476D01*
X150439523Y-66413095D01*
X145422857Y-72207380D02*
X145756190Y-71731190D01*
X145994285Y-72207380D02*
X145994285Y-71207380D01*
X145613333Y-71207380D01*
X145518095Y-71255000D01*
X145470476Y-71302619D01*
X145422857Y-71397857D01*
X145422857Y-71540714D01*
X145470476Y-71635952D01*
X145518095Y-71683571D01*
X145613333Y-71731190D01*
X145994285Y-71731190D01*
X144470476Y-72207380D02*
X145041904Y-72207380D01*
X144756190Y-72207380D02*
X144756190Y-71207380D01*
X144851428Y-71350238D01*
X144946666Y-71445476D01*
X145041904Y-71493095D01*
X143994285Y-72207380D02*
X143803809Y-72207380D01*
X143708571Y-72159761D01*
X143660952Y-72112142D01*
X143565714Y-71969285D01*
X143518095Y-71778809D01*
X143518095Y-71397857D01*
X143565714Y-71302619D01*
X143613333Y-71255000D01*
X143708571Y-71207380D01*
X143899047Y-71207380D01*
X143994285Y-71255000D01*
X144041904Y-71302619D01*
X144089523Y-71397857D01*
X144089523Y-71635952D01*
X144041904Y-71731190D01*
X143994285Y-71778809D01*
X143899047Y-71826428D01*
X143708571Y-71826428D01*
X143613333Y-71778809D01*
X143565714Y-71731190D01*
X143518095Y-71635952D01*
X151772857Y-62047380D02*
X152106190Y-61571190D01*
X152344285Y-62047380D02*
X152344285Y-61047380D01*
X151963333Y-61047380D01*
X151868095Y-61095000D01*
X151820476Y-61142619D01*
X151772857Y-61237857D01*
X151772857Y-61380714D01*
X151820476Y-61475952D01*
X151868095Y-61523571D01*
X151963333Y-61571190D01*
X152344285Y-61571190D01*
X150820476Y-62047380D02*
X151391904Y-62047380D01*
X151106190Y-62047380D02*
X151106190Y-61047380D01*
X151201428Y-61190238D01*
X151296666Y-61285476D01*
X151391904Y-61333095D01*
X150249047Y-61475952D02*
X150344285Y-61428333D01*
X150391904Y-61380714D01*
X150439523Y-61285476D01*
X150439523Y-61237857D01*
X150391904Y-61142619D01*
X150344285Y-61095000D01*
X150249047Y-61047380D01*
X150058571Y-61047380D01*
X149963333Y-61095000D01*
X149915714Y-61142619D01*
X149868095Y-61237857D01*
X149868095Y-61285476D01*
X149915714Y-61380714D01*
X149963333Y-61428333D01*
X150058571Y-61475952D01*
X150249047Y-61475952D01*
X150344285Y-61523571D01*
X150391904Y-61571190D01*
X150439523Y-61666428D01*
X150439523Y-61856904D01*
X150391904Y-61952142D01*
X150344285Y-61999761D01*
X150249047Y-62047380D01*
X150058571Y-62047380D01*
X149963333Y-61999761D01*
X149915714Y-61952142D01*
X149868095Y-61856904D01*
X149868095Y-61666428D01*
X149915714Y-61571190D01*
X149963333Y-61523571D01*
X150058571Y-61475952D01*
X145422857Y-62047380D02*
X145756190Y-61571190D01*
X145994285Y-62047380D02*
X145994285Y-61047380D01*
X145613333Y-61047380D01*
X145518095Y-61095000D01*
X145470476Y-61142619D01*
X145422857Y-61237857D01*
X145422857Y-61380714D01*
X145470476Y-61475952D01*
X145518095Y-61523571D01*
X145613333Y-61571190D01*
X145994285Y-61571190D01*
X144470476Y-62047380D02*
X145041904Y-62047380D01*
X144756190Y-62047380D02*
X144756190Y-61047380D01*
X144851428Y-61190238D01*
X144946666Y-61285476D01*
X145041904Y-61333095D01*
X144137142Y-61047380D02*
X143470476Y-61047380D01*
X143899047Y-62047380D01*
X151772857Y-72207380D02*
X152106190Y-71731190D01*
X152344285Y-72207380D02*
X152344285Y-71207380D01*
X151963333Y-71207380D01*
X151868095Y-71255000D01*
X151820476Y-71302619D01*
X151772857Y-71397857D01*
X151772857Y-71540714D01*
X151820476Y-71635952D01*
X151868095Y-71683571D01*
X151963333Y-71731190D01*
X152344285Y-71731190D01*
X150820476Y-72207380D02*
X151391904Y-72207380D01*
X151106190Y-72207380D02*
X151106190Y-71207380D01*
X151201428Y-71350238D01*
X151296666Y-71445476D01*
X151391904Y-71493095D01*
X149963333Y-71207380D02*
X150153809Y-71207380D01*
X150249047Y-71255000D01*
X150296666Y-71302619D01*
X150391904Y-71445476D01*
X150439523Y-71635952D01*
X150439523Y-72016904D01*
X150391904Y-72112142D01*
X150344285Y-72159761D01*
X150249047Y-72207380D01*
X150058571Y-72207380D01*
X149963333Y-72159761D01*
X149915714Y-72112142D01*
X149868095Y-72016904D01*
X149868095Y-71778809D01*
X149915714Y-71683571D01*
X149963333Y-71635952D01*
X150058571Y-71588333D01*
X150249047Y-71588333D01*
X150344285Y-71635952D01*
X150391904Y-71683571D01*
X150439523Y-71778809D01*
X120657857Y-89987380D02*
X120991190Y-89511190D01*
X121229285Y-89987380D02*
X121229285Y-88987380D01*
X120848333Y-88987380D01*
X120753095Y-89035000D01*
X120705476Y-89082619D01*
X120657857Y-89177857D01*
X120657857Y-89320714D01*
X120705476Y-89415952D01*
X120753095Y-89463571D01*
X120848333Y-89511190D01*
X121229285Y-89511190D01*
X119705476Y-89987380D02*
X120276904Y-89987380D01*
X119991190Y-89987380D02*
X119991190Y-88987380D01*
X120086428Y-89130238D01*
X120181666Y-89225476D01*
X120276904Y-89273095D01*
X118800714Y-88987380D02*
X119276904Y-88987380D01*
X119324523Y-89463571D01*
X119276904Y-89415952D01*
X119181666Y-89368333D01*
X118943571Y-89368333D01*
X118848333Y-89415952D01*
X118800714Y-89463571D01*
X118753095Y-89558809D01*
X118753095Y-89796904D01*
X118800714Y-89892142D01*
X118848333Y-89939761D01*
X118943571Y-89987380D01*
X119181666Y-89987380D01*
X119276904Y-89939761D01*
X119324523Y-89892142D01*
X32551666Y-140152380D02*
X32885000Y-139676190D01*
X33123095Y-140152380D02*
X33123095Y-139152380D01*
X32742142Y-139152380D01*
X32646904Y-139200000D01*
X32599285Y-139247619D01*
X32551666Y-139342857D01*
X32551666Y-139485714D01*
X32599285Y-139580952D01*
X32646904Y-139628571D01*
X32742142Y-139676190D01*
X33123095Y-139676190D01*
X31694523Y-139152380D02*
X31885000Y-139152380D01*
X31980238Y-139200000D01*
X32027857Y-139247619D01*
X32123095Y-139390476D01*
X32170714Y-139580952D01*
X32170714Y-139961904D01*
X32123095Y-140057142D01*
X32075476Y-140104761D01*
X31980238Y-140152380D01*
X31789761Y-140152380D01*
X31694523Y-140104761D01*
X31646904Y-140057142D01*
X31599285Y-139961904D01*
X31599285Y-139723809D01*
X31646904Y-139628571D01*
X31694523Y-139580952D01*
X31789761Y-139533333D01*
X31980238Y-139533333D01*
X32075476Y-139580952D01*
X32123095Y-139628571D01*
X32170714Y-139723809D01*
X77636666Y-103068380D02*
X77970000Y-102592190D01*
X78208095Y-103068380D02*
X78208095Y-102068380D01*
X77827142Y-102068380D01*
X77731904Y-102116000D01*
X77684285Y-102163619D01*
X77636666Y-102258857D01*
X77636666Y-102401714D01*
X77684285Y-102496952D01*
X77731904Y-102544571D01*
X77827142Y-102592190D01*
X78208095Y-102592190D01*
X76731904Y-102068380D02*
X77208095Y-102068380D01*
X77255714Y-102544571D01*
X77208095Y-102496952D01*
X77112857Y-102449333D01*
X76874761Y-102449333D01*
X76779523Y-102496952D01*
X76731904Y-102544571D01*
X76684285Y-102639809D01*
X76684285Y-102877904D01*
X76731904Y-102973142D01*
X76779523Y-103020761D01*
X76874761Y-103068380D01*
X77112857Y-103068380D01*
X77208095Y-103020761D01*
X77255714Y-102973142D01*
X77636666Y-87447380D02*
X77970000Y-86971190D01*
X78208095Y-87447380D02*
X78208095Y-86447380D01*
X77827142Y-86447380D01*
X77731904Y-86495000D01*
X77684285Y-86542619D01*
X77636666Y-86637857D01*
X77636666Y-86780714D01*
X77684285Y-86875952D01*
X77731904Y-86923571D01*
X77827142Y-86971190D01*
X78208095Y-86971190D01*
X76779523Y-86780714D02*
X76779523Y-87447380D01*
X77017619Y-86399761D02*
X77255714Y-87114047D01*
X76636666Y-87114047D01*
X67476666Y-110307380D02*
X67810000Y-109831190D01*
X68048095Y-110307380D02*
X68048095Y-109307380D01*
X67667142Y-109307380D01*
X67571904Y-109355000D01*
X67524285Y-109402619D01*
X67476666Y-109497857D01*
X67476666Y-109640714D01*
X67524285Y-109735952D01*
X67571904Y-109783571D01*
X67667142Y-109831190D01*
X68048095Y-109831190D01*
X67143333Y-109307380D02*
X66524285Y-109307380D01*
X66857619Y-109688333D01*
X66714761Y-109688333D01*
X66619523Y-109735952D01*
X66571904Y-109783571D01*
X66524285Y-109878809D01*
X66524285Y-110116904D01*
X66571904Y-110212142D01*
X66619523Y-110259761D01*
X66714761Y-110307380D01*
X67000476Y-110307380D01*
X67095714Y-110259761D01*
X67143333Y-110212142D01*
X54776666Y-96337380D02*
X55110000Y-95861190D01*
X55348095Y-96337380D02*
X55348095Y-95337380D01*
X54967142Y-95337380D01*
X54871904Y-95385000D01*
X54824285Y-95432619D01*
X54776666Y-95527857D01*
X54776666Y-95670714D01*
X54824285Y-95765952D01*
X54871904Y-95813571D01*
X54967142Y-95861190D01*
X55348095Y-95861190D01*
X54395714Y-95432619D02*
X54348095Y-95385000D01*
X54252857Y-95337380D01*
X54014761Y-95337380D01*
X53919523Y-95385000D01*
X53871904Y-95432619D01*
X53824285Y-95527857D01*
X53824285Y-95623095D01*
X53871904Y-95765952D01*
X54443333Y-96337380D01*
X53824285Y-96337380D01*
X61126666Y-96337380D02*
X61460000Y-95861190D01*
X61698095Y-96337380D02*
X61698095Y-95337380D01*
X61317142Y-95337380D01*
X61221904Y-95385000D01*
X61174285Y-95432619D01*
X61126666Y-95527857D01*
X61126666Y-95670714D01*
X61174285Y-95765952D01*
X61221904Y-95813571D01*
X61317142Y-95861190D01*
X61698095Y-95861190D01*
X60174285Y-96337380D02*
X60745714Y-96337380D01*
X60460000Y-96337380D02*
X60460000Y-95337380D01*
X60555238Y-95480238D01*
X60650476Y-95575476D01*
X60745714Y-95623095D01*
X150661666Y-127317142D02*
X150709285Y-127364761D01*
X150852142Y-127412380D01*
X150947380Y-127412380D01*
X151090238Y-127364761D01*
X151185476Y-127269523D01*
X151233095Y-127174285D01*
X151280714Y-126983809D01*
X151280714Y-126840952D01*
X151233095Y-126650476D01*
X151185476Y-126555238D01*
X151090238Y-126460000D01*
X150947380Y-126412380D01*
X150852142Y-126412380D01*
X150709285Y-126460000D01*
X150661666Y-126507619D01*
X150328333Y-126412380D02*
X149661666Y-126412380D01*
X150090238Y-127412380D01*
X158916666Y-128119142D02*
X158964285Y-128166761D01*
X159107142Y-128214380D01*
X159202380Y-128214380D01*
X159345238Y-128166761D01*
X159440476Y-128071523D01*
X159488095Y-127976285D01*
X159535714Y-127785809D01*
X159535714Y-127642952D01*
X159488095Y-127452476D01*
X159440476Y-127357238D01*
X159345238Y-127262000D01*
X159202380Y-127214380D01*
X159107142Y-127214380D01*
X158964285Y-127262000D01*
X158916666Y-127309619D01*
X158059523Y-127214380D02*
X158250000Y-127214380D01*
X158345238Y-127262000D01*
X158392857Y-127309619D01*
X158488095Y-127452476D01*
X158535714Y-127642952D01*
X158535714Y-128023904D01*
X158488095Y-128119142D01*
X158440476Y-128166761D01*
X158345238Y-128214380D01*
X158154761Y-128214380D01*
X158059523Y-128166761D01*
X158011904Y-128119142D01*
X157964285Y-128023904D01*
X157964285Y-127785809D01*
X158011904Y-127690571D01*
X158059523Y-127642952D01*
X158154761Y-127595333D01*
X158345238Y-127595333D01*
X158440476Y-127642952D01*
X158488095Y-127690571D01*
X158535714Y-127785809D01*
X134151666Y-89892142D02*
X134199285Y-89939761D01*
X134342142Y-89987380D01*
X134437380Y-89987380D01*
X134580238Y-89939761D01*
X134675476Y-89844523D01*
X134723095Y-89749285D01*
X134770714Y-89558809D01*
X134770714Y-89415952D01*
X134723095Y-89225476D01*
X134675476Y-89130238D01*
X134580238Y-89035000D01*
X134437380Y-88987380D01*
X134342142Y-88987380D01*
X134199285Y-89035000D01*
X134151666Y-89082619D01*
X133246904Y-88987380D02*
X133723095Y-88987380D01*
X133770714Y-89463571D01*
X133723095Y-89415952D01*
X133627857Y-89368333D01*
X133389761Y-89368333D01*
X133294523Y-89415952D01*
X133246904Y-89463571D01*
X133199285Y-89558809D01*
X133199285Y-89796904D01*
X133246904Y-89892142D01*
X133294523Y-89939761D01*
X133389761Y-89987380D01*
X133627857Y-89987380D01*
X133723095Y-89939761D01*
X133770714Y-89892142D01*
X156376666Y-72112142D02*
X156424285Y-72159761D01*
X156567142Y-72207380D01*
X156662380Y-72207380D01*
X156805238Y-72159761D01*
X156900476Y-72064523D01*
X156948095Y-71969285D01*
X156995714Y-71778809D01*
X156995714Y-71635952D01*
X156948095Y-71445476D01*
X156900476Y-71350238D01*
X156805238Y-71255000D01*
X156662380Y-71207380D01*
X156567142Y-71207380D01*
X156424285Y-71255000D01*
X156376666Y-71302619D01*
X155519523Y-71540714D02*
X155519523Y-72207380D01*
X155757619Y-71159761D02*
X155995714Y-71874047D01*
X155376666Y-71874047D01*
X78906666Y-111482142D02*
X78954285Y-111529761D01*
X79097142Y-111577380D01*
X79192380Y-111577380D01*
X79335238Y-111529761D01*
X79430476Y-111434523D01*
X79478095Y-111339285D01*
X79525714Y-111148809D01*
X79525714Y-111005952D01*
X79478095Y-110815476D01*
X79430476Y-110720238D01*
X79335238Y-110625000D01*
X79192380Y-110577380D01*
X79097142Y-110577380D01*
X78954285Y-110625000D01*
X78906666Y-110672619D01*
X78573333Y-110577380D02*
X77954285Y-110577380D01*
X78287619Y-110958333D01*
X78144761Y-110958333D01*
X78049523Y-111005952D01*
X78001904Y-111053571D01*
X77954285Y-111148809D01*
X77954285Y-111386904D01*
X78001904Y-111482142D01*
X78049523Y-111529761D01*
X78144761Y-111577380D01*
X78430476Y-111577380D01*
X78525714Y-111529761D01*
X78573333Y-111482142D01*
X81446666Y-91797142D02*
X81494285Y-91844761D01*
X81637142Y-91892380D01*
X81732380Y-91892380D01*
X81875238Y-91844761D01*
X81970476Y-91749523D01*
X82018095Y-91654285D01*
X82065714Y-91463809D01*
X82065714Y-91320952D01*
X82018095Y-91130476D01*
X81970476Y-91035238D01*
X81875238Y-90940000D01*
X81732380Y-90892380D01*
X81637142Y-90892380D01*
X81494285Y-90940000D01*
X81446666Y-90987619D01*
X81065714Y-90987619D02*
X81018095Y-90940000D01*
X80922857Y-90892380D01*
X80684761Y-90892380D01*
X80589523Y-90940000D01*
X80541904Y-90987619D01*
X80494285Y-91082857D01*
X80494285Y-91178095D01*
X80541904Y-91320952D01*
X81113333Y-91892380D01*
X80494285Y-91892380D01*
X73826666Y-111482142D02*
X73874285Y-111529761D01*
X74017142Y-111577380D01*
X74112380Y-111577380D01*
X74255238Y-111529761D01*
X74350476Y-111434523D01*
X74398095Y-111339285D01*
X74445714Y-111148809D01*
X74445714Y-111005952D01*
X74398095Y-110815476D01*
X74350476Y-110720238D01*
X74255238Y-110625000D01*
X74112380Y-110577380D01*
X74017142Y-110577380D01*
X73874285Y-110625000D01*
X73826666Y-110672619D01*
X72874285Y-111577380D02*
X73445714Y-111577380D01*
X73160000Y-111577380D02*
X73160000Y-110577380D01*
X73255238Y-110720238D01*
X73350476Y-110815476D01*
X73445714Y-110863095D01*
X58388095Y-70572380D02*
X58388095Y-71381904D01*
X58340476Y-71477142D01*
X58292857Y-71524761D01*
X58197619Y-71572380D01*
X58007142Y-71572380D01*
X57911904Y-71524761D01*
X57864285Y-71477142D01*
X57816666Y-71381904D01*
X57816666Y-70572380D01*
X56816666Y-71572380D02*
X57388095Y-71572380D01*
X57102380Y-71572380D02*
X57102380Y-70572380D01*
X57197619Y-70715238D01*
X57292857Y-70810476D01*
X57388095Y-70858095D01*
X55959523Y-70905714D02*
X55959523Y-71572380D01*
X56197619Y-70524761D02*
X56435714Y-71239047D01*
X55816666Y-71239047D01*
X28638333Y-25169761D02*
X28495476Y-25217380D01*
X28257380Y-25217380D01*
X28162142Y-25169761D01*
X28114523Y-25122142D01*
X28066904Y-25026904D01*
X28066904Y-24931666D01*
X28114523Y-24836428D01*
X28162142Y-24788809D01*
X28257380Y-24741190D01*
X28447857Y-24693571D01*
X28543095Y-24645952D01*
X28590714Y-24598333D01*
X28638333Y-24503095D01*
X28638333Y-24407857D01*
X28590714Y-24312619D01*
X28543095Y-24265000D01*
X28447857Y-24217380D01*
X28209761Y-24217380D01*
X28066904Y-24265000D01*
X27733571Y-24217380D02*
X27495476Y-25217380D01*
X27305000Y-24503095D01*
X27114523Y-25217380D01*
X26876428Y-24217380D01*
X26543095Y-24312619D02*
X26495476Y-24265000D01*
X26400238Y-24217380D01*
X26162142Y-24217380D01*
X26066904Y-24265000D01*
X26019285Y-24312619D01*
X25971666Y-24407857D01*
X25971666Y-24503095D01*
X26019285Y-24645952D01*
X26590714Y-25217380D01*
X25971666Y-25217380D01*
X18478333Y-25169761D02*
X18335476Y-25217380D01*
X18097380Y-25217380D01*
X18002142Y-25169761D01*
X17954523Y-25122142D01*
X17906904Y-25026904D01*
X17906904Y-24931666D01*
X17954523Y-24836428D01*
X18002142Y-24788809D01*
X18097380Y-24741190D01*
X18287857Y-24693571D01*
X18383095Y-24645952D01*
X18430714Y-24598333D01*
X18478333Y-24503095D01*
X18478333Y-24407857D01*
X18430714Y-24312619D01*
X18383095Y-24265000D01*
X18287857Y-24217380D01*
X18049761Y-24217380D01*
X17906904Y-24265000D01*
X17573571Y-24217380D02*
X17335476Y-25217380D01*
X17145000Y-24503095D01*
X16954523Y-25217380D01*
X16716428Y-24217380D01*
X15811666Y-25217380D02*
X16383095Y-25217380D01*
X16097380Y-25217380D02*
X16097380Y-24217380D01*
X16192619Y-24360238D01*
X16287857Y-24455476D01*
X16383095Y-24503095D01*
X179403333Y-130262380D02*
X179403333Y-130976666D01*
X179450952Y-131119523D01*
X179546190Y-131214761D01*
X179689047Y-131262380D01*
X179784285Y-131262380D01*
X179022380Y-130262380D02*
X178355714Y-130262380D01*
X178784285Y-131262380D01*
X44553095Y-98877380D02*
X44553095Y-97877380D01*
X44315000Y-97877380D01*
X44172142Y-97925000D01*
X44076904Y-98020238D01*
X44029285Y-98115476D01*
X43981666Y-98305952D01*
X43981666Y-98448809D01*
X44029285Y-98639285D01*
X44076904Y-98734523D01*
X44172142Y-98829761D01*
X44315000Y-98877380D01*
X44553095Y-98877380D01*
X43076904Y-97877380D02*
X43553095Y-97877380D01*
X43600714Y-98353571D01*
X43553095Y-98305952D01*
X43457857Y-98258333D01*
X43219761Y-98258333D01*
X43124523Y-98305952D01*
X43076904Y-98353571D01*
X43029285Y-98448809D01*
X43029285Y-98686904D01*
X43076904Y-98782142D01*
X43124523Y-98829761D01*
X43219761Y-98877380D01*
X43457857Y-98877380D01*
X43553095Y-98829761D01*
X43600714Y-98782142D01*
X88368095Y-84907380D02*
X88368095Y-83907380D01*
X88130000Y-83907380D01*
X87987142Y-83955000D01*
X87891904Y-84050238D01*
X87844285Y-84145476D01*
X87796666Y-84335952D01*
X87796666Y-84478809D01*
X87844285Y-84669285D01*
X87891904Y-84764523D01*
X87987142Y-84859761D01*
X88130000Y-84907380D01*
X88368095Y-84907380D01*
X87463333Y-83907380D02*
X86844285Y-83907380D01*
X87177619Y-84288333D01*
X87034761Y-84288333D01*
X86939523Y-84335952D01*
X86891904Y-84383571D01*
X86844285Y-84478809D01*
X86844285Y-84716904D01*
X86891904Y-84812142D01*
X86939523Y-84859761D01*
X87034761Y-84907380D01*
X87320476Y-84907380D01*
X87415714Y-84859761D01*
X87463333Y-84812142D01*
X85193095Y-84907380D02*
X85193095Y-83907380D01*
X84955000Y-83907380D01*
X84812142Y-83955000D01*
X84716904Y-84050238D01*
X84669285Y-84145476D01*
X84621666Y-84335952D01*
X84621666Y-84478809D01*
X84669285Y-84669285D01*
X84716904Y-84764523D01*
X84812142Y-84859761D01*
X84955000Y-84907380D01*
X85193095Y-84907380D01*
X84240714Y-84002619D02*
X84193095Y-83955000D01*
X84097857Y-83907380D01*
X83859761Y-83907380D01*
X83764523Y-83955000D01*
X83716904Y-84002619D01*
X83669285Y-84097857D01*
X83669285Y-84193095D01*
X83716904Y-84335952D01*
X84288333Y-84907380D01*
X83669285Y-84907380D01*
X36511724Y-37282380D02*
X36511724Y-36282380D01*
X36273629Y-36282380D01*
X36130771Y-36330000D01*
X36035533Y-36425238D01*
X35987914Y-36520476D01*
X35940295Y-36710952D01*
X35940295Y-36853809D01*
X35987914Y-37044285D01*
X36035533Y-37139523D01*
X36130771Y-37234761D01*
X36273629Y-37282380D01*
X36511724Y-37282380D01*
X34987914Y-37282380D02*
X35559343Y-37282380D01*
X35273629Y-37282380D02*
X35273629Y-36282380D01*
X35368867Y-36425238D01*
X35464105Y-36520476D01*
X35559343Y-36568095D01*
X40060476Y-136977380D02*
X40393809Y-136501190D01*
X40631904Y-136977380D02*
X40631904Y-135977380D01*
X40250952Y-135977380D01*
X40155714Y-136025000D01*
X40108095Y-136072619D01*
X40060476Y-136167857D01*
X40060476Y-136310714D01*
X40108095Y-136405952D01*
X40155714Y-136453571D01*
X40250952Y-136501190D01*
X40631904Y-136501190D01*
X39631904Y-136977380D02*
X39631904Y-135977380D01*
X39060476Y-136977380D01*
X39060476Y-135977380D01*
X38631904Y-136072619D02*
X38584285Y-136025000D01*
X38489047Y-135977380D01*
X38250952Y-135977380D01*
X38155714Y-136025000D01*
X38108095Y-136072619D01*
X38060476Y-136167857D01*
X38060476Y-136263095D01*
X38108095Y-136405952D01*
X38679523Y-136977380D01*
X38060476Y-136977380D01*
X82994285Y-17232380D02*
X82994285Y-18041904D01*
X82946666Y-18137142D01*
X82899047Y-18184761D01*
X82803809Y-18232380D01*
X82613333Y-18232380D01*
X82518095Y-18184761D01*
X82470476Y-18137142D01*
X82422857Y-18041904D01*
X82422857Y-17232380D01*
X81994285Y-17327619D02*
X81946666Y-17280000D01*
X81851428Y-17232380D01*
X81613333Y-17232380D01*
X81518095Y-17280000D01*
X81470476Y-17327619D01*
X81422857Y-17422857D01*
X81422857Y-17518095D01*
X81470476Y-17660952D01*
X82041904Y-18232380D01*
X81422857Y-18232380D01*
X80803809Y-17232380D02*
X80708571Y-17232380D01*
X80613333Y-17280000D01*
X80565714Y-17327619D01*
X80518095Y-17422857D01*
X80470476Y-17613333D01*
X80470476Y-17851428D01*
X80518095Y-18041904D01*
X80565714Y-18137142D01*
X80613333Y-18184761D01*
X80708571Y-18232380D01*
X80803809Y-18232380D01*
X80899047Y-18184761D01*
X80946666Y-18137142D01*
X80994285Y-18041904D01*
X81041904Y-17851428D01*
X81041904Y-17613333D01*
X80994285Y-17422857D01*
X80946666Y-17327619D01*
X80899047Y-17280000D01*
X80803809Y-17232380D01*
X79565714Y-17232380D02*
X80041904Y-17232380D01*
X80089523Y-17708571D01*
X80041904Y-17660952D01*
X79946666Y-17613333D01*
X79708571Y-17613333D01*
X79613333Y-17660952D01*
X79565714Y-17708571D01*
X79518095Y-17803809D01*
X79518095Y-18041904D01*
X79565714Y-18137142D01*
X79613333Y-18184761D01*
X79708571Y-18232380D01*
X79946666Y-18232380D01*
X80041904Y-18184761D01*
X80089523Y-18137142D01*
X82867285Y-40092380D02*
X82867285Y-40901904D01*
X82819666Y-40997142D01*
X82772047Y-41044761D01*
X82676809Y-41092380D01*
X82486333Y-41092380D01*
X82391095Y-41044761D01*
X82343476Y-40997142D01*
X82295857Y-40901904D01*
X82295857Y-40092380D01*
X81867285Y-40187619D02*
X81819666Y-40140000D01*
X81724428Y-40092380D01*
X81486333Y-40092380D01*
X81391095Y-40140000D01*
X81343476Y-40187619D01*
X81295857Y-40282857D01*
X81295857Y-40378095D01*
X81343476Y-40520952D01*
X81914904Y-41092380D01*
X81295857Y-41092380D01*
X80676809Y-40092380D02*
X80581571Y-40092380D01*
X80486333Y-40140000D01*
X80438714Y-40187619D01*
X80391095Y-40282857D01*
X80343476Y-40473333D01*
X80343476Y-40711428D01*
X80391095Y-40901904D01*
X80438714Y-40997142D01*
X80486333Y-41044761D01*
X80581571Y-41092380D01*
X80676809Y-41092380D01*
X80772047Y-41044761D01*
X80819666Y-40997142D01*
X80867285Y-40901904D01*
X80914904Y-40711428D01*
X80914904Y-40473333D01*
X80867285Y-40282857D01*
X80819666Y-40187619D01*
X80772047Y-40140000D01*
X80676809Y-40092380D01*
X79486333Y-40425714D02*
X79486333Y-41092380D01*
X79724428Y-40044761D02*
X79962523Y-40759047D01*
X79343476Y-40759047D01*
X163004285Y-99782380D02*
X163004285Y-100591904D01*
X162956666Y-100687142D01*
X162909047Y-100734761D01*
X162813809Y-100782380D01*
X162623333Y-100782380D01*
X162528095Y-100734761D01*
X162480476Y-100687142D01*
X162432857Y-100591904D01*
X162432857Y-99782380D01*
X161432857Y-100782380D02*
X162004285Y-100782380D01*
X161718571Y-100782380D02*
X161718571Y-99782380D01*
X161813809Y-99925238D01*
X161909047Y-100020476D01*
X162004285Y-100068095D01*
X161051904Y-99877619D02*
X161004285Y-99830000D01*
X160909047Y-99782380D01*
X160670952Y-99782380D01*
X160575714Y-99830000D01*
X160528095Y-99877619D01*
X160480476Y-99972857D01*
X160480476Y-100068095D01*
X160528095Y-100210952D01*
X161099523Y-100782380D01*
X160480476Y-100782380D01*
X160147142Y-99782380D02*
X159480476Y-99782380D01*
X159909047Y-100782380D01*
X151574285Y-102322380D02*
X151574285Y-103131904D01*
X151526666Y-103227142D01*
X151479047Y-103274761D01*
X151383809Y-103322380D01*
X151193333Y-103322380D01*
X151098095Y-103274761D01*
X151050476Y-103227142D01*
X151002857Y-103131904D01*
X151002857Y-102322380D01*
X150002857Y-103322380D02*
X150574285Y-103322380D01*
X150288571Y-103322380D02*
X150288571Y-102322380D01*
X150383809Y-102465238D01*
X150479047Y-102560476D01*
X150574285Y-102608095D01*
X149621904Y-102417619D02*
X149574285Y-102370000D01*
X149479047Y-102322380D01*
X149240952Y-102322380D01*
X149145714Y-102370000D01*
X149098095Y-102417619D01*
X149050476Y-102512857D01*
X149050476Y-102608095D01*
X149098095Y-102750952D01*
X149669523Y-103322380D01*
X149050476Y-103322380D01*
X148193333Y-102322380D02*
X148383809Y-102322380D01*
X148479047Y-102370000D01*
X148526666Y-102417619D01*
X148621904Y-102560476D01*
X148669523Y-102750952D01*
X148669523Y-103131904D01*
X148621904Y-103227142D01*
X148574285Y-103274761D01*
X148479047Y-103322380D01*
X148288571Y-103322380D01*
X148193333Y-103274761D01*
X148145714Y-103227142D01*
X148098095Y-103131904D01*
X148098095Y-102893809D01*
X148145714Y-102798571D01*
X148193333Y-102750952D01*
X148288571Y-102703333D01*
X148479047Y-102703333D01*
X148574285Y-102750952D01*
X148621904Y-102798571D01*
X148669523Y-102893809D01*
X140017285Y-116292380D02*
X140017285Y-117101904D01*
X139969666Y-117197142D01*
X139922047Y-117244761D01*
X139826809Y-117292380D01*
X139636333Y-117292380D01*
X139541095Y-117244761D01*
X139493476Y-117197142D01*
X139445857Y-117101904D01*
X139445857Y-116292380D01*
X138445857Y-117292380D02*
X139017285Y-117292380D01*
X138731571Y-117292380D02*
X138731571Y-116292380D01*
X138826809Y-116435238D01*
X138922047Y-116530476D01*
X139017285Y-116578095D01*
X138064904Y-116387619D02*
X138017285Y-116340000D01*
X137922047Y-116292380D01*
X137683952Y-116292380D01*
X137588714Y-116340000D01*
X137541095Y-116387619D01*
X137493476Y-116482857D01*
X137493476Y-116578095D01*
X137541095Y-116720952D01*
X138112523Y-117292380D01*
X137493476Y-117292380D01*
X136588714Y-116292380D02*
X137064904Y-116292380D01*
X137112523Y-116768571D01*
X137064904Y-116720952D01*
X136969666Y-116673333D01*
X136731571Y-116673333D01*
X136636333Y-116720952D01*
X136588714Y-116768571D01*
X136541095Y-116863809D01*
X136541095Y-117101904D01*
X136588714Y-117197142D01*
X136636333Y-117244761D01*
X136731571Y-117292380D01*
X136969666Y-117292380D01*
X137064904Y-117244761D01*
X137112523Y-117197142D01*
X128714285Y-111212380D02*
X128714285Y-112021904D01*
X128666666Y-112117142D01*
X128619047Y-112164761D01*
X128523809Y-112212380D01*
X128333333Y-112212380D01*
X128238095Y-112164761D01*
X128190476Y-112117142D01*
X128142857Y-112021904D01*
X128142857Y-111212380D01*
X127142857Y-112212380D02*
X127714285Y-112212380D01*
X127428571Y-112212380D02*
X127428571Y-111212380D01*
X127523809Y-111355238D01*
X127619047Y-111450476D01*
X127714285Y-111498095D01*
X126761904Y-111307619D02*
X126714285Y-111260000D01*
X126619047Y-111212380D01*
X126380952Y-111212380D01*
X126285714Y-111260000D01*
X126238095Y-111307619D01*
X126190476Y-111402857D01*
X126190476Y-111498095D01*
X126238095Y-111640952D01*
X126809523Y-112212380D01*
X126190476Y-112212380D01*
X125333333Y-111545714D02*
X125333333Y-112212380D01*
X125571428Y-111164761D02*
X125809523Y-111879047D01*
X125190476Y-111879047D01*
X71437285Y-17232380D02*
X71437285Y-18041904D01*
X71389666Y-18137142D01*
X71342047Y-18184761D01*
X71246809Y-18232380D01*
X71056333Y-18232380D01*
X70961095Y-18184761D01*
X70913476Y-18137142D01*
X70865857Y-18041904D01*
X70865857Y-17232380D01*
X69865857Y-18232380D02*
X70437285Y-18232380D01*
X70151571Y-18232380D02*
X70151571Y-17232380D01*
X70246809Y-17375238D01*
X70342047Y-17470476D01*
X70437285Y-17518095D01*
X69246809Y-17232380D02*
X69151571Y-17232380D01*
X69056333Y-17280000D01*
X69008714Y-17327619D01*
X68961095Y-17422857D01*
X68913476Y-17613333D01*
X68913476Y-17851428D01*
X68961095Y-18041904D01*
X69008714Y-18137142D01*
X69056333Y-18184761D01*
X69151571Y-18232380D01*
X69246809Y-18232380D01*
X69342047Y-18184761D01*
X69389666Y-18137142D01*
X69437285Y-18041904D01*
X69484904Y-17851428D01*
X69484904Y-17613333D01*
X69437285Y-17422857D01*
X69389666Y-17327619D01*
X69342047Y-17280000D01*
X69246809Y-17232380D01*
X68008714Y-17232380D02*
X68484904Y-17232380D01*
X68532523Y-17708571D01*
X68484904Y-17660952D01*
X68389666Y-17613333D01*
X68151571Y-17613333D01*
X68056333Y-17660952D01*
X68008714Y-17708571D01*
X67961095Y-17803809D01*
X67961095Y-18041904D01*
X68008714Y-18137142D01*
X68056333Y-18184761D01*
X68151571Y-18232380D01*
X68389666Y-18232380D01*
X68484904Y-18184761D01*
X68532523Y-18137142D01*
X71564285Y-40092380D02*
X71564285Y-40901904D01*
X71516666Y-40997142D01*
X71469047Y-41044761D01*
X71373809Y-41092380D01*
X71183333Y-41092380D01*
X71088095Y-41044761D01*
X71040476Y-40997142D01*
X70992857Y-40901904D01*
X70992857Y-40092380D01*
X69992857Y-41092380D02*
X70564285Y-41092380D01*
X70278571Y-41092380D02*
X70278571Y-40092380D01*
X70373809Y-40235238D01*
X70469047Y-40330476D01*
X70564285Y-40378095D01*
X69373809Y-40092380D02*
X69278571Y-40092380D01*
X69183333Y-40140000D01*
X69135714Y-40187619D01*
X69088095Y-40282857D01*
X69040476Y-40473333D01*
X69040476Y-40711428D01*
X69088095Y-40901904D01*
X69135714Y-40997142D01*
X69183333Y-41044761D01*
X69278571Y-41092380D01*
X69373809Y-41092380D01*
X69469047Y-41044761D01*
X69516666Y-40997142D01*
X69564285Y-40901904D01*
X69611904Y-40711428D01*
X69611904Y-40473333D01*
X69564285Y-40282857D01*
X69516666Y-40187619D01*
X69469047Y-40140000D01*
X69373809Y-40092380D01*
X68183333Y-40425714D02*
X68183333Y-41092380D01*
X68421428Y-40044761D02*
X68659523Y-40759047D01*
X68040476Y-40759047D01*
X161258095Y-18502380D02*
X161258095Y-19311904D01*
X161210476Y-19407142D01*
X161162857Y-19454761D01*
X161067619Y-19502380D01*
X160877142Y-19502380D01*
X160781904Y-19454761D01*
X160734285Y-19407142D01*
X160686666Y-19311904D01*
X160686666Y-18502380D01*
X160258095Y-18597619D02*
X160210476Y-18550000D01*
X160115238Y-18502380D01*
X159877142Y-18502380D01*
X159781904Y-18550000D01*
X159734285Y-18597619D01*
X159686666Y-18692857D01*
X159686666Y-18788095D01*
X159734285Y-18930952D01*
X160305714Y-19502380D01*
X159686666Y-19502380D01*
X159353333Y-18502380D02*
X158734285Y-18502380D01*
X159067619Y-18883333D01*
X158924761Y-18883333D01*
X158829523Y-18930952D01*
X158781904Y-18978571D01*
X158734285Y-19073809D01*
X158734285Y-19311904D01*
X158781904Y-19407142D01*
X158829523Y-19454761D01*
X158924761Y-19502380D01*
X159210476Y-19502380D01*
X159305714Y-19454761D01*
X159353333Y-19407142D01*
X135858095Y-62952380D02*
X135858095Y-63761904D01*
X135810476Y-63857142D01*
X135762857Y-63904761D01*
X135667619Y-63952380D01*
X135477142Y-63952380D01*
X135381904Y-63904761D01*
X135334285Y-63857142D01*
X135286666Y-63761904D01*
X135286666Y-62952380D01*
X134858095Y-63047619D02*
X134810476Y-63000000D01*
X134715238Y-62952380D01*
X134477142Y-62952380D01*
X134381904Y-63000000D01*
X134334285Y-63047619D01*
X134286666Y-63142857D01*
X134286666Y-63238095D01*
X134334285Y-63380952D01*
X134905714Y-63952380D01*
X134286666Y-63952380D01*
X133905714Y-63047619D02*
X133858095Y-63000000D01*
X133762857Y-62952380D01*
X133524761Y-62952380D01*
X133429523Y-63000000D01*
X133381904Y-63047619D01*
X133334285Y-63142857D01*
X133334285Y-63238095D01*
X133381904Y-63380952D01*
X133953333Y-63952380D01*
X133334285Y-63952380D01*
X135858095Y-40092380D02*
X135858095Y-40901904D01*
X135810476Y-40997142D01*
X135762857Y-41044761D01*
X135667619Y-41092380D01*
X135477142Y-41092380D01*
X135381904Y-41044761D01*
X135334285Y-40997142D01*
X135286666Y-40901904D01*
X135286666Y-40092380D01*
X134858095Y-40187619D02*
X134810476Y-40140000D01*
X134715238Y-40092380D01*
X134477142Y-40092380D01*
X134381904Y-40140000D01*
X134334285Y-40187619D01*
X134286666Y-40282857D01*
X134286666Y-40378095D01*
X134334285Y-40520952D01*
X134905714Y-41092380D01*
X134286666Y-41092380D01*
X133667619Y-40092380D02*
X133572380Y-40092380D01*
X133477142Y-40140000D01*
X133429523Y-40187619D01*
X133381904Y-40282857D01*
X133334285Y-40473333D01*
X133334285Y-40711428D01*
X133381904Y-40901904D01*
X133429523Y-40997142D01*
X133477142Y-41044761D01*
X133572380Y-41092380D01*
X133667619Y-41092380D01*
X133762857Y-41044761D01*
X133810476Y-40997142D01*
X133858095Y-40901904D01*
X133905714Y-40711428D01*
X133905714Y-40473333D01*
X133858095Y-40282857D01*
X133810476Y-40187619D01*
X133762857Y-40140000D01*
X133667619Y-40092380D01*
X124428095Y-40092380D02*
X124428095Y-40901904D01*
X124380476Y-40997142D01*
X124332857Y-41044761D01*
X124237619Y-41092380D01*
X124047142Y-41092380D01*
X123951904Y-41044761D01*
X123904285Y-40997142D01*
X123856666Y-40901904D01*
X123856666Y-40092380D01*
X122856666Y-41092380D02*
X123428095Y-41092380D01*
X123142380Y-41092380D02*
X123142380Y-40092380D01*
X123237619Y-40235238D01*
X123332857Y-40330476D01*
X123428095Y-40378095D01*
X122380476Y-41092380D02*
X122190000Y-41092380D01*
X122094761Y-41044761D01*
X122047142Y-40997142D01*
X121951904Y-40854285D01*
X121904285Y-40663809D01*
X121904285Y-40282857D01*
X121951904Y-40187619D01*
X121999523Y-40140000D01*
X122094761Y-40092380D01*
X122285238Y-40092380D01*
X122380476Y-40140000D01*
X122428095Y-40187619D01*
X122475714Y-40282857D01*
X122475714Y-40520952D01*
X122428095Y-40616190D01*
X122380476Y-40663809D01*
X122285238Y-40711428D01*
X122094761Y-40711428D01*
X121999523Y-40663809D01*
X121951904Y-40616190D01*
X121904285Y-40520952D01*
X135858095Y-17232380D02*
X135858095Y-18041904D01*
X135810476Y-18137142D01*
X135762857Y-18184761D01*
X135667619Y-18232380D01*
X135477142Y-18232380D01*
X135381904Y-18184761D01*
X135334285Y-18137142D01*
X135286666Y-18041904D01*
X135286666Y-17232380D01*
X134286666Y-18232380D02*
X134858095Y-18232380D01*
X134572380Y-18232380D02*
X134572380Y-17232380D01*
X134667619Y-17375238D01*
X134762857Y-17470476D01*
X134858095Y-17518095D01*
X133715238Y-17660952D02*
X133810476Y-17613333D01*
X133858095Y-17565714D01*
X133905714Y-17470476D01*
X133905714Y-17422857D01*
X133858095Y-17327619D01*
X133810476Y-17280000D01*
X133715238Y-17232380D01*
X133524761Y-17232380D01*
X133429523Y-17280000D01*
X133381904Y-17327619D01*
X133334285Y-17422857D01*
X133334285Y-17470476D01*
X133381904Y-17565714D01*
X133429523Y-17613333D01*
X133524761Y-17660952D01*
X133715238Y-17660952D01*
X133810476Y-17708571D01*
X133858095Y-17756190D01*
X133905714Y-17851428D01*
X133905714Y-18041904D01*
X133858095Y-18137142D01*
X133810476Y-18184761D01*
X133715238Y-18232380D01*
X133524761Y-18232380D01*
X133429523Y-18184761D01*
X133381904Y-18137142D01*
X133334285Y-18041904D01*
X133334285Y-17851428D01*
X133381904Y-17756190D01*
X133429523Y-17708571D01*
X133524761Y-17660952D01*
X112998095Y-64222380D02*
X112998095Y-65031904D01*
X112950476Y-65127142D01*
X112902857Y-65174761D01*
X112807619Y-65222380D01*
X112617142Y-65222380D01*
X112521904Y-65174761D01*
X112474285Y-65127142D01*
X112426666Y-65031904D01*
X112426666Y-64222380D01*
X111426666Y-65222380D02*
X111998095Y-65222380D01*
X111712380Y-65222380D02*
X111712380Y-64222380D01*
X111807619Y-64365238D01*
X111902857Y-64460476D01*
X111998095Y-64508095D01*
X110569523Y-64222380D02*
X110760000Y-64222380D01*
X110855238Y-64270000D01*
X110902857Y-64317619D01*
X110998095Y-64460476D01*
X111045714Y-64650952D01*
X111045714Y-65031904D01*
X110998095Y-65127142D01*
X110950476Y-65174761D01*
X110855238Y-65222380D01*
X110664761Y-65222380D01*
X110569523Y-65174761D01*
X110521904Y-65127142D01*
X110474285Y-65031904D01*
X110474285Y-64793809D01*
X110521904Y-64698571D01*
X110569523Y-64650952D01*
X110664761Y-64603333D01*
X110855238Y-64603333D01*
X110950476Y-64650952D01*
X110998095Y-64698571D01*
X111045714Y-64793809D01*
X82518095Y-64222380D02*
X82518095Y-65031904D01*
X82470476Y-65127142D01*
X82422857Y-65174761D01*
X82327619Y-65222380D01*
X82137142Y-65222380D01*
X82041904Y-65174761D01*
X81994285Y-65127142D01*
X81946666Y-65031904D01*
X81946666Y-64222380D01*
X80946666Y-65222380D02*
X81518095Y-65222380D01*
X81232380Y-65222380D02*
X81232380Y-64222380D01*
X81327619Y-64365238D01*
X81422857Y-64460476D01*
X81518095Y-64508095D01*
X80613333Y-64222380D02*
X79994285Y-64222380D01*
X80327619Y-64603333D01*
X80184761Y-64603333D01*
X80089523Y-64650952D01*
X80041904Y-64698571D01*
X79994285Y-64793809D01*
X79994285Y-65031904D01*
X80041904Y-65127142D01*
X80089523Y-65174761D01*
X80184761Y-65222380D01*
X80470476Y-65222380D01*
X80565714Y-65174761D01*
X80613333Y-65127142D01*
X93948095Y-64222380D02*
X93948095Y-65031904D01*
X93900476Y-65127142D01*
X93852857Y-65174761D01*
X93757619Y-65222380D01*
X93567142Y-65222380D01*
X93471904Y-65174761D01*
X93424285Y-65127142D01*
X93376666Y-65031904D01*
X93376666Y-64222380D01*
X92376666Y-65222380D02*
X92948095Y-65222380D01*
X92662380Y-65222380D02*
X92662380Y-64222380D01*
X92757619Y-64365238D01*
X92852857Y-64460476D01*
X92948095Y-64508095D01*
X91995714Y-64317619D02*
X91948095Y-64270000D01*
X91852857Y-64222380D01*
X91614761Y-64222380D01*
X91519523Y-64270000D01*
X91471904Y-64317619D01*
X91424285Y-64412857D01*
X91424285Y-64508095D01*
X91471904Y-64650952D01*
X92043333Y-65222380D01*
X91424285Y-65222380D01*
X70611904Y-64222380D02*
X70611904Y-65031904D01*
X70564285Y-65127142D01*
X70516666Y-65174761D01*
X70421428Y-65222380D01*
X70230952Y-65222380D01*
X70135714Y-65174761D01*
X70088095Y-65127142D01*
X70040476Y-65031904D01*
X70040476Y-64222380D01*
X69516666Y-65222380D02*
X69326190Y-65222380D01*
X69230952Y-65174761D01*
X69183333Y-65127142D01*
X69088095Y-64984285D01*
X69040476Y-64793809D01*
X69040476Y-64412857D01*
X69088095Y-64317619D01*
X69135714Y-64270000D01*
X69230952Y-64222380D01*
X69421428Y-64222380D01*
X69516666Y-64270000D01*
X69564285Y-64317619D01*
X69611904Y-64412857D01*
X69611904Y-64650952D01*
X69564285Y-64746190D01*
X69516666Y-64793809D01*
X69421428Y-64841428D01*
X69230952Y-64841428D01*
X69135714Y-64793809D01*
X69088095Y-64746190D01*
X69040476Y-64650952D01*
X46481904Y-71842380D02*
X46481904Y-72651904D01*
X46434285Y-72747142D01*
X46386666Y-72794761D01*
X46291428Y-72842380D01*
X46100952Y-72842380D01*
X46005714Y-72794761D01*
X45958095Y-72747142D01*
X45910476Y-72651904D01*
X45910476Y-71842380D01*
X45291428Y-72270952D02*
X45386666Y-72223333D01*
X45434285Y-72175714D01*
X45481904Y-72080476D01*
X45481904Y-72032857D01*
X45434285Y-71937619D01*
X45386666Y-71890000D01*
X45291428Y-71842380D01*
X45100952Y-71842380D01*
X45005714Y-71890000D01*
X44958095Y-71937619D01*
X44910476Y-72032857D01*
X44910476Y-72080476D01*
X44958095Y-72175714D01*
X45005714Y-72223333D01*
X45100952Y-72270952D01*
X45291428Y-72270952D01*
X45386666Y-72318571D01*
X45434285Y-72366190D01*
X45481904Y-72461428D01*
X45481904Y-72651904D01*
X45434285Y-72747142D01*
X45386666Y-72794761D01*
X45291428Y-72842380D01*
X45100952Y-72842380D01*
X45005714Y-72794761D01*
X44958095Y-72747142D01*
X44910476Y-72651904D01*
X44910476Y-72461428D01*
X44958095Y-72366190D01*
X45005714Y-72318571D01*
X45100952Y-72270952D01*
X112394904Y-17232380D02*
X112394904Y-18041904D01*
X112347285Y-18137142D01*
X112299666Y-18184761D01*
X112204428Y-18232380D01*
X112013952Y-18232380D01*
X111918714Y-18184761D01*
X111871095Y-18137142D01*
X111823476Y-18041904D01*
X111823476Y-17232380D01*
X111442523Y-17232380D02*
X110775857Y-17232380D01*
X111204428Y-18232380D01*
X112521904Y-40092380D02*
X112521904Y-40901904D01*
X112474285Y-40997142D01*
X112426666Y-41044761D01*
X112331428Y-41092380D01*
X112140952Y-41092380D01*
X112045714Y-41044761D01*
X111998095Y-40997142D01*
X111950476Y-40901904D01*
X111950476Y-40092380D01*
X111045714Y-40092380D02*
X111236190Y-40092380D01*
X111331428Y-40140000D01*
X111379047Y-40187619D01*
X111474285Y-40330476D01*
X111521904Y-40520952D01*
X111521904Y-40901904D01*
X111474285Y-40997142D01*
X111426666Y-41044761D01*
X111331428Y-41092380D01*
X111140952Y-41092380D01*
X111045714Y-41044761D01*
X110998095Y-40997142D01*
X110950476Y-40901904D01*
X110950476Y-40663809D01*
X110998095Y-40568571D01*
X111045714Y-40520952D01*
X111140952Y-40473333D01*
X111331428Y-40473333D01*
X111426666Y-40520952D01*
X111474285Y-40568571D01*
X111521904Y-40663809D01*
X97487619Y-24704523D02*
X97487619Y-25732619D01*
X97427142Y-25853571D01*
X97366666Y-25914047D01*
X97245714Y-25974523D01*
X97003809Y-25974523D01*
X96882857Y-25914047D01*
X96822380Y-25853571D01*
X96761904Y-25732619D01*
X96761904Y-24704523D01*
X96278095Y-24704523D02*
X95491904Y-24704523D01*
X95915238Y-25188333D01*
X95733809Y-25188333D01*
X95612857Y-25248809D01*
X95552380Y-25309285D01*
X95491904Y-25430238D01*
X95491904Y-25732619D01*
X95552380Y-25853571D01*
X95612857Y-25914047D01*
X95733809Y-25974523D01*
X96096666Y-25974523D01*
X96217619Y-25914047D01*
X96278095Y-25853571D01*
X36250476Y-30932380D02*
X36583809Y-30456190D01*
X36821904Y-30932380D02*
X36821904Y-29932380D01*
X36440952Y-29932380D01*
X36345714Y-29980000D01*
X36298095Y-30027619D01*
X36250476Y-30122857D01*
X36250476Y-30265714D01*
X36298095Y-30360952D01*
X36345714Y-30408571D01*
X36440952Y-30456190D01*
X36821904Y-30456190D01*
X35821904Y-30932380D02*
X35821904Y-29932380D01*
X35250476Y-30932380D01*
X35250476Y-29932380D01*
X34250476Y-30932380D02*
X34821904Y-30932380D01*
X34536190Y-30932380D02*
X34536190Y-29932380D01*
X34631428Y-30075238D01*
X34726666Y-30170476D01*
X34821904Y-30218095D01*
X61293333Y-22947380D02*
X61293333Y-23661666D01*
X61340952Y-23804523D01*
X61436190Y-23899761D01*
X61579047Y-23947380D01*
X61674285Y-23947380D01*
X60674285Y-23375952D02*
X60769523Y-23328333D01*
X60817142Y-23280714D01*
X60864761Y-23185476D01*
X60864761Y-23137857D01*
X60817142Y-23042619D01*
X60769523Y-22995000D01*
X60674285Y-22947380D01*
X60483809Y-22947380D01*
X60388571Y-22995000D01*
X60340952Y-23042619D01*
X60293333Y-23137857D01*
X60293333Y-23185476D01*
X60340952Y-23280714D01*
X60388571Y-23328333D01*
X60483809Y-23375952D01*
X60674285Y-23375952D01*
X60769523Y-23423571D01*
X60817142Y-23471190D01*
X60864761Y-23566428D01*
X60864761Y-23756904D01*
X60817142Y-23852142D01*
X60769523Y-23899761D01*
X60674285Y-23947380D01*
X60483809Y-23947380D01*
X60388571Y-23899761D01*
X60340952Y-23852142D01*
X60293333Y-23756904D01*
X60293333Y-23566428D01*
X60340952Y-23471190D01*
X60388571Y-23423571D01*
X60483809Y-23375952D01*
X71564285Y-116292380D02*
X71564285Y-117101904D01*
X71516666Y-117197142D01*
X71469047Y-117244761D01*
X71373809Y-117292380D01*
X71183333Y-117292380D01*
X71088095Y-117244761D01*
X71040476Y-117197142D01*
X70992857Y-117101904D01*
X70992857Y-116292380D01*
X70040476Y-116292380D02*
X70516666Y-116292380D01*
X70564285Y-116768571D01*
X70516666Y-116720952D01*
X70421428Y-116673333D01*
X70183333Y-116673333D01*
X70088095Y-116720952D01*
X70040476Y-116768571D01*
X69992857Y-116863809D01*
X69992857Y-117101904D01*
X70040476Y-117197142D01*
X70088095Y-117244761D01*
X70183333Y-117292380D01*
X70421428Y-117292380D01*
X70516666Y-117244761D01*
X70564285Y-117197142D01*
X69659523Y-116292380D02*
X69040476Y-116292380D01*
X69373809Y-116673333D01*
X69230952Y-116673333D01*
X69135714Y-116720952D01*
X69088095Y-116768571D01*
X69040476Y-116863809D01*
X69040476Y-117101904D01*
X69088095Y-117197142D01*
X69135714Y-117244761D01*
X69230952Y-117292380D01*
X69516666Y-117292380D01*
X69611904Y-117244761D01*
X69659523Y-117197142D01*
X68421428Y-116292380D02*
X68326190Y-116292380D01*
X68230952Y-116340000D01*
X68183333Y-116387619D01*
X68135714Y-116482857D01*
X68088095Y-116673333D01*
X68088095Y-116911428D01*
X68135714Y-117101904D01*
X68183333Y-117197142D01*
X68230952Y-117244761D01*
X68326190Y-117292380D01*
X68421428Y-117292380D01*
X68516666Y-117244761D01*
X68564285Y-117197142D01*
X68611904Y-117101904D01*
X68659523Y-116911428D01*
X68659523Y-116673333D01*
X68611904Y-116482857D01*
X68564285Y-116387619D01*
X68516666Y-116340000D01*
X68421428Y-116292380D01*
X82994285Y-116292380D02*
X82994285Y-117101904D01*
X82946666Y-117197142D01*
X82899047Y-117244761D01*
X82803809Y-117292380D01*
X82613333Y-117292380D01*
X82518095Y-117244761D01*
X82470476Y-117197142D01*
X82422857Y-117101904D01*
X82422857Y-116292380D01*
X81470476Y-116292380D02*
X81946666Y-116292380D01*
X81994285Y-116768571D01*
X81946666Y-116720952D01*
X81851428Y-116673333D01*
X81613333Y-116673333D01*
X81518095Y-116720952D01*
X81470476Y-116768571D01*
X81422857Y-116863809D01*
X81422857Y-117101904D01*
X81470476Y-117197142D01*
X81518095Y-117244761D01*
X81613333Y-117292380D01*
X81851428Y-117292380D01*
X81946666Y-117244761D01*
X81994285Y-117197142D01*
X81041904Y-116387619D02*
X80994285Y-116340000D01*
X80899047Y-116292380D01*
X80660952Y-116292380D01*
X80565714Y-116340000D01*
X80518095Y-116387619D01*
X80470476Y-116482857D01*
X80470476Y-116578095D01*
X80518095Y-116720952D01*
X81089523Y-117292380D01*
X80470476Y-117292380D01*
X79994285Y-117292380D02*
X79803809Y-117292380D01*
X79708571Y-117244761D01*
X79660952Y-117197142D01*
X79565714Y-117054285D01*
X79518095Y-116863809D01*
X79518095Y-116482857D01*
X79565714Y-116387619D01*
X79613333Y-116340000D01*
X79708571Y-116292380D01*
X79899047Y-116292380D01*
X79994285Y-116340000D01*
X80041904Y-116387619D01*
X80089523Y-116482857D01*
X80089523Y-116720952D01*
X80041904Y-116816190D01*
X79994285Y-116863809D01*
X79899047Y-116911428D01*
X79708571Y-116911428D01*
X79613333Y-116863809D01*
X79565714Y-116816190D01*
X79518095Y-116720952D01*
X105727285Y-116292380D02*
X105727285Y-117101904D01*
X105679666Y-117197142D01*
X105632047Y-117244761D01*
X105536809Y-117292380D01*
X105346333Y-117292380D01*
X105251095Y-117244761D01*
X105203476Y-117197142D01*
X105155857Y-117101904D01*
X105155857Y-116292380D01*
X104251095Y-116625714D02*
X104251095Y-117292380D01*
X104489190Y-116244761D02*
X104727285Y-116959047D01*
X104108238Y-116959047D01*
X103774904Y-116387619D02*
X103727285Y-116340000D01*
X103632047Y-116292380D01*
X103393952Y-116292380D01*
X103298714Y-116340000D01*
X103251095Y-116387619D01*
X103203476Y-116482857D01*
X103203476Y-116578095D01*
X103251095Y-116720952D01*
X103822523Y-117292380D01*
X103203476Y-117292380D01*
X102632047Y-116720952D02*
X102727285Y-116673333D01*
X102774904Y-116625714D01*
X102822523Y-116530476D01*
X102822523Y-116482857D01*
X102774904Y-116387619D01*
X102727285Y-116340000D01*
X102632047Y-116292380D01*
X102441571Y-116292380D01*
X102346333Y-116340000D01*
X102298714Y-116387619D01*
X102251095Y-116482857D01*
X102251095Y-116530476D01*
X102298714Y-116625714D01*
X102346333Y-116673333D01*
X102441571Y-116720952D01*
X102632047Y-116720952D01*
X102727285Y-116768571D01*
X102774904Y-116816190D01*
X102822523Y-116911428D01*
X102822523Y-117101904D01*
X102774904Y-117197142D01*
X102727285Y-117244761D01*
X102632047Y-117292380D01*
X102441571Y-117292380D01*
X102346333Y-117244761D01*
X102298714Y-117197142D01*
X102251095Y-117101904D01*
X102251095Y-116911428D01*
X102298714Y-116816190D01*
X102346333Y-116768571D01*
X102441571Y-116720952D01*
X124904285Y-62952380D02*
X124904285Y-63761904D01*
X124856666Y-63857142D01*
X124809047Y-63904761D01*
X124713809Y-63952380D01*
X124523333Y-63952380D01*
X124428095Y-63904761D01*
X124380476Y-63857142D01*
X124332857Y-63761904D01*
X124332857Y-62952380D01*
X123951904Y-62952380D02*
X123332857Y-62952380D01*
X123666190Y-63333333D01*
X123523333Y-63333333D01*
X123428095Y-63380952D01*
X123380476Y-63428571D01*
X123332857Y-63523809D01*
X123332857Y-63761904D01*
X123380476Y-63857142D01*
X123428095Y-63904761D01*
X123523333Y-63952380D01*
X123809047Y-63952380D01*
X123904285Y-63904761D01*
X123951904Y-63857142D01*
X122951904Y-63047619D02*
X122904285Y-63000000D01*
X122809047Y-62952380D01*
X122570952Y-62952380D01*
X122475714Y-63000000D01*
X122428095Y-63047619D01*
X122380476Y-63142857D01*
X122380476Y-63238095D01*
X122428095Y-63380952D01*
X122999523Y-63952380D01*
X122380476Y-63952380D01*
X121428095Y-63952380D02*
X121999523Y-63952380D01*
X121713809Y-63952380D02*
X121713809Y-62952380D01*
X121809047Y-63095238D01*
X121904285Y-63190476D01*
X121999523Y-63238095D01*
X161734285Y-41362380D02*
X161734285Y-42171904D01*
X161686666Y-42267142D01*
X161639047Y-42314761D01*
X161543809Y-42362380D01*
X161353333Y-42362380D01*
X161258095Y-42314761D01*
X161210476Y-42267142D01*
X161162857Y-42171904D01*
X161162857Y-41362380D01*
X160734285Y-41457619D02*
X160686666Y-41410000D01*
X160591428Y-41362380D01*
X160353333Y-41362380D01*
X160258095Y-41410000D01*
X160210476Y-41457619D01*
X160162857Y-41552857D01*
X160162857Y-41648095D01*
X160210476Y-41790952D01*
X160781904Y-42362380D01*
X160162857Y-42362380D01*
X159781904Y-41457619D02*
X159734285Y-41410000D01*
X159639047Y-41362380D01*
X159400952Y-41362380D01*
X159305714Y-41410000D01*
X159258095Y-41457619D01*
X159210476Y-41552857D01*
X159210476Y-41648095D01*
X159258095Y-41790952D01*
X159829523Y-42362380D01*
X159210476Y-42362380D01*
X158877142Y-41362380D02*
X158210476Y-41362380D01*
X158639047Y-42362380D01*
X117284285Y-116292380D02*
X117284285Y-117101904D01*
X117236666Y-117197142D01*
X117189047Y-117244761D01*
X117093809Y-117292380D01*
X116903333Y-117292380D01*
X116808095Y-117244761D01*
X116760476Y-117197142D01*
X116712857Y-117101904D01*
X116712857Y-116292380D01*
X116284285Y-116387619D02*
X116236666Y-116340000D01*
X116141428Y-116292380D01*
X115903333Y-116292380D01*
X115808095Y-116340000D01*
X115760476Y-116387619D01*
X115712857Y-116482857D01*
X115712857Y-116578095D01*
X115760476Y-116720952D01*
X116331904Y-117292380D01*
X115712857Y-117292380D01*
X115331904Y-116387619D02*
X115284285Y-116340000D01*
X115189047Y-116292380D01*
X114950952Y-116292380D01*
X114855714Y-116340000D01*
X114808095Y-116387619D01*
X114760476Y-116482857D01*
X114760476Y-116578095D01*
X114808095Y-116720952D01*
X115379523Y-117292380D01*
X114760476Y-117292380D01*
X113903333Y-116625714D02*
X113903333Y-117292380D01*
X114141428Y-116244761D02*
X114379523Y-116959047D01*
X113760476Y-116959047D01*
X48101095Y-111212380D02*
X48101095Y-112021904D01*
X48053476Y-112117142D01*
X48005857Y-112164761D01*
X47910619Y-112212380D01*
X47720142Y-112212380D01*
X47624904Y-112164761D01*
X47577285Y-112117142D01*
X47529666Y-112021904D01*
X47529666Y-111212380D01*
X47148714Y-111212380D02*
X46529666Y-111212380D01*
X46863000Y-111593333D01*
X46720142Y-111593333D01*
X46624904Y-111640952D01*
X46577285Y-111688571D01*
X46529666Y-111783809D01*
X46529666Y-112021904D01*
X46577285Y-112117142D01*
X46624904Y-112164761D01*
X46720142Y-112212380D01*
X47005857Y-112212380D01*
X47101095Y-112164761D01*
X47148714Y-112117142D01*
X45577285Y-112212380D02*
X46148714Y-112212380D01*
X45863000Y-112212380D02*
X45863000Y-111212380D01*
X45958238Y-111355238D01*
X46053476Y-111450476D01*
X46148714Y-111498095D01*
X148558095Y-41362380D02*
X148558095Y-42171904D01*
X148510476Y-42267142D01*
X148462857Y-42314761D01*
X148367619Y-42362380D01*
X148177142Y-42362380D01*
X148081904Y-42314761D01*
X148034285Y-42267142D01*
X147986666Y-42171904D01*
X147986666Y-41362380D01*
X146986666Y-42362380D02*
X147558095Y-42362380D01*
X147272380Y-42362380D02*
X147272380Y-41362380D01*
X147367619Y-41505238D01*
X147462857Y-41600476D01*
X147558095Y-41648095D01*
X146653333Y-41362380D02*
X145986666Y-41362380D01*
X146415238Y-42362380D01*
X124428095Y-17232380D02*
X124428095Y-18041904D01*
X124380476Y-18137142D01*
X124332857Y-18184761D01*
X124237619Y-18232380D01*
X124047142Y-18232380D01*
X123951904Y-18184761D01*
X123904285Y-18137142D01*
X123856666Y-18041904D01*
X123856666Y-17232380D01*
X122856666Y-18232380D02*
X123428095Y-18232380D01*
X123142380Y-18232380D02*
X123142380Y-17232380D01*
X123237619Y-17375238D01*
X123332857Y-17470476D01*
X123428095Y-17518095D01*
X121951904Y-17232380D02*
X122428095Y-17232380D01*
X122475714Y-17708571D01*
X122428095Y-17660952D01*
X122332857Y-17613333D01*
X122094761Y-17613333D01*
X121999523Y-17660952D01*
X121951904Y-17708571D01*
X121904285Y-17803809D01*
X121904285Y-18041904D01*
X121951904Y-18137142D01*
X121999523Y-18184761D01*
X122094761Y-18232380D01*
X122332857Y-18232380D01*
X122428095Y-18184761D01*
X122475714Y-18137142D01*
X93948095Y-111212380D02*
X93948095Y-112021904D01*
X93900476Y-112117142D01*
X93852857Y-112164761D01*
X93757619Y-112212380D01*
X93567142Y-112212380D01*
X93471904Y-112164761D01*
X93424285Y-112117142D01*
X93376666Y-112021904D01*
X93376666Y-111212380D01*
X92376666Y-112212380D02*
X92948095Y-112212380D01*
X92662380Y-112212380D02*
X92662380Y-111212380D01*
X92757619Y-111355238D01*
X92852857Y-111450476D01*
X92948095Y-111498095D01*
X91424285Y-112212380D02*
X91995714Y-112212380D01*
X91710000Y-112212380D02*
X91710000Y-111212380D01*
X91805238Y-111355238D01*
X91900476Y-111450476D01*
X91995714Y-111498095D01*
X158527619Y-78652619D02*
X158622857Y-78605000D01*
X158718095Y-78509761D01*
X158860952Y-78366904D01*
X158956190Y-78319285D01*
X159051428Y-78319285D01*
X159003809Y-78557380D02*
X159099047Y-78509761D01*
X159194285Y-78414523D01*
X159241904Y-78224047D01*
X159241904Y-77890714D01*
X159194285Y-77700238D01*
X159099047Y-77605000D01*
X159003809Y-77557380D01*
X158813333Y-77557380D01*
X158718095Y-77605000D01*
X158622857Y-77700238D01*
X158575238Y-77890714D01*
X158575238Y-78224047D01*
X158622857Y-78414523D01*
X158718095Y-78509761D01*
X158813333Y-78557380D01*
X159003809Y-78557380D01*
X158241904Y-77557380D02*
X157622857Y-77557380D01*
X157956190Y-77938333D01*
X157813333Y-77938333D01*
X157718095Y-77985952D01*
X157670476Y-78033571D01*
X157622857Y-78128809D01*
X157622857Y-78366904D01*
X157670476Y-78462142D01*
X157718095Y-78509761D01*
X157813333Y-78557380D01*
X158099047Y-78557380D01*
X158194285Y-78509761D01*
X158241904Y-78462142D01*
X157003809Y-77557380D02*
X156908571Y-77557380D01*
X156813333Y-77605000D01*
X156765714Y-77652619D01*
X156718095Y-77747857D01*
X156670476Y-77938333D01*
X156670476Y-78176428D01*
X156718095Y-78366904D01*
X156765714Y-78462142D01*
X156813333Y-78509761D01*
X156908571Y-78557380D01*
X157003809Y-78557380D01*
X157099047Y-78509761D01*
X157146666Y-78462142D01*
X157194285Y-78366904D01*
X157241904Y-78176428D01*
X157241904Y-77938333D01*
X157194285Y-77747857D01*
X157146666Y-77652619D01*
X157099047Y-77605000D01*
X157003809Y-77557380D01*
X155813333Y-77557380D02*
X156003809Y-77557380D01*
X156099047Y-77605000D01*
X156146666Y-77652619D01*
X156241904Y-77795476D01*
X156289523Y-77985952D01*
X156289523Y-78366904D01*
X156241904Y-78462142D01*
X156194285Y-78509761D01*
X156099047Y-78557380D01*
X155908571Y-78557380D01*
X155813333Y-78509761D01*
X155765714Y-78462142D01*
X155718095Y-78366904D01*
X155718095Y-78128809D01*
X155765714Y-78033571D01*
X155813333Y-77985952D01*
X155908571Y-77938333D01*
X156099047Y-77938333D01*
X156194285Y-77985952D01*
X156241904Y-78033571D01*
X156289523Y-78128809D01*
X148002523Y-18502380D02*
X147335857Y-19502380D01*
X147335857Y-18502380D02*
X148002523Y-19502380D01*
X146431095Y-19502380D02*
X147002523Y-19502380D01*
X146716809Y-19502380D02*
X146716809Y-18502380D01*
X146812047Y-18645238D01*
X146907285Y-18740476D01*
X147002523Y-18788095D01*
X151225238Y-78652619D02*
X151320476Y-78605000D01*
X151415714Y-78509761D01*
X151558571Y-78366904D01*
X151653809Y-78319285D01*
X151749047Y-78319285D01*
X151701428Y-78557380D02*
X151796666Y-78509761D01*
X151891904Y-78414523D01*
X151939523Y-78224047D01*
X151939523Y-77890714D01*
X151891904Y-77700238D01*
X151796666Y-77605000D01*
X151701428Y-77557380D01*
X151510952Y-77557380D01*
X151415714Y-77605000D01*
X151320476Y-77700238D01*
X151272857Y-77890714D01*
X151272857Y-78224047D01*
X151320476Y-78414523D01*
X151415714Y-78509761D01*
X151510952Y-78557380D01*
X151701428Y-78557380D01*
X150368095Y-77557380D02*
X150844285Y-77557380D01*
X150891904Y-78033571D01*
X150844285Y-77985952D01*
X150749047Y-77938333D01*
X150510952Y-77938333D01*
X150415714Y-77985952D01*
X150368095Y-78033571D01*
X150320476Y-78128809D01*
X150320476Y-78366904D01*
X150368095Y-78462142D01*
X150415714Y-78509761D01*
X150510952Y-78557380D01*
X150749047Y-78557380D01*
X150844285Y-78509761D01*
X150891904Y-78462142D01*
X144875238Y-78652619D02*
X144970476Y-78605000D01*
X145065714Y-78509761D01*
X145208571Y-78366904D01*
X145303809Y-78319285D01*
X145399047Y-78319285D01*
X145351428Y-78557380D02*
X145446666Y-78509761D01*
X145541904Y-78414523D01*
X145589523Y-78224047D01*
X145589523Y-77890714D01*
X145541904Y-77700238D01*
X145446666Y-77605000D01*
X145351428Y-77557380D01*
X145160952Y-77557380D01*
X145065714Y-77605000D01*
X144970476Y-77700238D01*
X144922857Y-77890714D01*
X144922857Y-78224047D01*
X144970476Y-78414523D01*
X145065714Y-78509761D01*
X145160952Y-78557380D01*
X145351428Y-78557380D01*
X144065714Y-77890714D02*
X144065714Y-78557380D01*
X144303809Y-77509761D02*
X144541904Y-78224047D01*
X143922857Y-78224047D01*
X86455238Y-92622619D02*
X86550476Y-92575000D01*
X86645714Y-92479761D01*
X86788571Y-92336904D01*
X86883809Y-92289285D01*
X86979047Y-92289285D01*
X86931428Y-92527380D02*
X87026666Y-92479761D01*
X87121904Y-92384523D01*
X87169523Y-92194047D01*
X87169523Y-91860714D01*
X87121904Y-91670238D01*
X87026666Y-91575000D01*
X86931428Y-91527380D01*
X86740952Y-91527380D01*
X86645714Y-91575000D01*
X86550476Y-91670238D01*
X86502857Y-91860714D01*
X86502857Y-92194047D01*
X86550476Y-92384523D01*
X86645714Y-92479761D01*
X86740952Y-92527380D01*
X86931428Y-92527380D01*
X86169523Y-91527380D02*
X85550476Y-91527380D01*
X85883809Y-91908333D01*
X85740952Y-91908333D01*
X85645714Y-91955952D01*
X85598095Y-92003571D01*
X85550476Y-92098809D01*
X85550476Y-92336904D01*
X85598095Y-92432142D01*
X85645714Y-92479761D01*
X85740952Y-92527380D01*
X86026666Y-92527380D01*
X86121904Y-92479761D01*
X86169523Y-92432142D01*
X54705238Y-104052619D02*
X54800476Y-104005000D01*
X54895714Y-103909761D01*
X55038571Y-103766904D01*
X55133809Y-103719285D01*
X55229047Y-103719285D01*
X55181428Y-103957380D02*
X55276666Y-103909761D01*
X55371904Y-103814523D01*
X55419523Y-103624047D01*
X55419523Y-103290714D01*
X55371904Y-103100238D01*
X55276666Y-103005000D01*
X55181428Y-102957380D01*
X54990952Y-102957380D01*
X54895714Y-103005000D01*
X54800476Y-103100238D01*
X54752857Y-103290714D01*
X54752857Y-103624047D01*
X54800476Y-103814523D01*
X54895714Y-103909761D01*
X54990952Y-103957380D01*
X55181428Y-103957380D01*
X54371904Y-103052619D02*
X54324285Y-103005000D01*
X54229047Y-102957380D01*
X53990952Y-102957380D01*
X53895714Y-103005000D01*
X53848095Y-103052619D01*
X53800476Y-103147857D01*
X53800476Y-103243095D01*
X53848095Y-103385952D01*
X54419523Y-103957380D01*
X53800476Y-103957380D01*
X61055238Y-104052619D02*
X61150476Y-104005000D01*
X61245714Y-103909761D01*
X61388571Y-103766904D01*
X61483809Y-103719285D01*
X61579047Y-103719285D01*
X61531428Y-103957380D02*
X61626666Y-103909761D01*
X61721904Y-103814523D01*
X61769523Y-103624047D01*
X61769523Y-103290714D01*
X61721904Y-103100238D01*
X61626666Y-103005000D01*
X61531428Y-102957380D01*
X61340952Y-102957380D01*
X61245714Y-103005000D01*
X61150476Y-103100238D01*
X61102857Y-103290714D01*
X61102857Y-103624047D01*
X61150476Y-103814523D01*
X61245714Y-103909761D01*
X61340952Y-103957380D01*
X61531428Y-103957380D01*
X60150476Y-103957380D02*
X60721904Y-103957380D01*
X60436190Y-103957380D02*
X60436190Y-102957380D01*
X60531428Y-103100238D01*
X60626666Y-103195476D01*
X60721904Y-103243095D01*
%LPC*%
D14*
X16510000Y-16510000D03*
D15*
X16510000Y-19050000D03*
D14*
X16510000Y-139700000D03*
D15*
X16510000Y-137160000D03*
D16*
X168910000Y-86360000D03*
D17*
X171450000Y-86360000D03*
D16*
X81280000Y-97790000D03*
D17*
X81280000Y-100330000D03*
D18*
X182626000Y-110363000D03*
X182626000Y-69723000D03*
D19*
X186014360Y-107823000D03*
D20*
X178054000Y-107823000D03*
D19*
X186014360Y-93853000D03*
D20*
X178054000Y-93853000D03*
D19*
X186014360Y-79883000D03*
D20*
X178054000Y-79883000D03*
D18*
X182626000Y-57150000D03*
X182626000Y-16510000D03*
D19*
X186014360Y-54610000D03*
D20*
X178054000Y-54610000D03*
D19*
X186014360Y-40640000D03*
D20*
X178054000Y-40640000D03*
D19*
X186014360Y-26670000D03*
D20*
X178054000Y-26670000D03*
D21*
X182679340Y-116669820D03*
X182679340Y-63670180D03*
D22*
X175600360Y-109220000D03*
X180680360Y-107315000D03*
X175600360Y-105410000D03*
X180680360Y-103505000D03*
X175600360Y-101600000D03*
X180680360Y-99695000D03*
X175600360Y-97790000D03*
X180680360Y-95885000D03*
X175600360Y-93980000D03*
X180680360Y-92075000D03*
X175600360Y-90170000D03*
X180680360Y-88265000D03*
X175600360Y-86360000D03*
X180680360Y-84455000D03*
X175600360Y-82550000D03*
X180680360Y-80645000D03*
X175600360Y-78740000D03*
X180680360Y-76835000D03*
X175600360Y-74930000D03*
X180680360Y-73025000D03*
X175600360Y-71120000D03*
D23*
X165100000Y-85725000D03*
D24*
X162560000Y-85725000D03*
D17*
X42585000Y-92710000D03*
X45085000Y-92710000D03*
X157520000Y-97028000D03*
X160020000Y-97028000D03*
X165735000Y-88980000D03*
X165735000Y-93980000D03*
D25*
X152200000Y-97790000D03*
X147320000Y-97790000D03*
D16*
X162560000Y-93980000D03*
D17*
X162560000Y-91440000D03*
X141685000Y-92710000D03*
X146685000Y-92710000D03*
X141685000Y-88900000D03*
X146685000Y-88900000D03*
X141685000Y-85090000D03*
X146685000Y-85090000D03*
D16*
X102870000Y-111760000D03*
D17*
X100330000Y-111760000D03*
D23*
X110490000Y-111760000D03*
D24*
X107950000Y-111760000D03*
D26*
X168910000Y-139700000D03*
X168910000Y-16510000D03*
X26670000Y-139700000D03*
X26670000Y-16510000D03*
D27*
X167640000Y-22860000D03*
X170140000Y-27860000D03*
X172640000Y-22860000D03*
X106807000Y-99060000D03*
X109307000Y-104060000D03*
X111807000Y-99060000D03*
X106807000Y-85090000D03*
X109307000Y-90090000D03*
X111807000Y-85090000D03*
D23*
X21590000Y-76200000D03*
X26670000Y-60960000D03*
X21590000Y-58420000D03*
X26670000Y-58420000D03*
X21590000Y-55880000D03*
X26670000Y-55880000D03*
X21590000Y-53340000D03*
X26670000Y-53340000D03*
X21590000Y-50800000D03*
X26670000Y-50800000D03*
X21590000Y-48260000D03*
X26670000Y-48260000D03*
X21590000Y-45720000D03*
X26670000Y-45720000D03*
X21590000Y-43180000D03*
X26670000Y-43180000D03*
X21590000Y-40640000D03*
X26670000Y-40640000D03*
X26670000Y-73660000D03*
X26670000Y-63500000D03*
X21590000Y-60960000D03*
X26670000Y-76200000D03*
X21590000Y-73660000D03*
X26670000Y-71120000D03*
X21590000Y-68580000D03*
X26670000Y-68580000D03*
X21590000Y-66040000D03*
X26670000Y-66040000D03*
X21590000Y-63500000D03*
D24*
X21590000Y-83820000D03*
D23*
X26670000Y-78740000D03*
X21590000Y-71120000D03*
X26670000Y-83820000D03*
X26670000Y-81280000D03*
X21590000Y-78740000D03*
X21590000Y-81280000D03*
D16*
X125730000Y-86360000D03*
D17*
X128270000Y-86360000D03*
D28*
X134850000Y-86360000D03*
D29*
X133350000Y-86360000D03*
D23*
X21590000Y-129540000D03*
X24130000Y-129540000D03*
X21590000Y-127000000D03*
X24130000Y-127000000D03*
X21590000Y-124460000D03*
X24130000Y-124460000D03*
X21590000Y-121920000D03*
X24130000Y-121920000D03*
X21590000Y-119380000D03*
X24130000Y-119380000D03*
X21590000Y-116840000D03*
X24130000Y-116840000D03*
X21590000Y-114300000D03*
X24130000Y-114300000D03*
X21590000Y-111760000D03*
D24*
X24130000Y-111760000D03*
D23*
X60960000Y-20320000D03*
D24*
X60960000Y-17780000D03*
D16*
X62357000Y-111760000D03*
X54737000Y-134620000D03*
X62357000Y-114300000D03*
X54737000Y-132080000D03*
X62357000Y-116840000D03*
X54737000Y-129540000D03*
X62357000Y-119380000D03*
X54737000Y-127000000D03*
X62357000Y-121920000D03*
X54737000Y-124460000D03*
X62357000Y-124460000D03*
X54737000Y-121920000D03*
X62357000Y-127000000D03*
X54737000Y-119380000D03*
X62357000Y-129540000D03*
X54737000Y-116840000D03*
X62357000Y-132080000D03*
X54737000Y-114300000D03*
X62357000Y-134620000D03*
D30*
X54737000Y-111760000D03*
D16*
X168910000Y-90170000D03*
D17*
X171450000Y-90170000D03*
D23*
X160020000Y-136525000D03*
D24*
X162560000Y-136525000D03*
D23*
X87630000Y-100330000D03*
D24*
X85090000Y-100330000D03*
D23*
X87630000Y-104140000D03*
D24*
X85090000Y-104140000D03*
X104140000Y-80010000D03*
D16*
X90805000Y-86360000D03*
D30*
X90805000Y-88900000D03*
D31*
X99060000Y-87650000D03*
D32*
X99060000Y-95250000D03*
D33*
X33020000Y-129540000D03*
X30480000Y-129540000D03*
X33020000Y-127000000D03*
X30480000Y-127000000D03*
X33020000Y-124460000D03*
X30480000Y-124460000D03*
X33020000Y-121920000D03*
X30480000Y-121920000D03*
X33020000Y-119380000D03*
X30480000Y-119380000D03*
X33020000Y-116840000D03*
X30480000Y-116840000D03*
X33020000Y-114300000D03*
X30480000Y-114300000D03*
X33020000Y-111760000D03*
D34*
X30480000Y-111760000D03*
D16*
X73660000Y-86360000D03*
X66040000Y-104140000D03*
X73660000Y-88900000D03*
X66040000Y-101600000D03*
X73660000Y-91440000D03*
X66040000Y-99060000D03*
X73660000Y-93980000D03*
X66040000Y-96520000D03*
X73660000Y-96520000D03*
X66040000Y-93980000D03*
X73660000Y-99060000D03*
X66040000Y-91440000D03*
X73660000Y-101600000D03*
X66040000Y-88900000D03*
X73660000Y-104140000D03*
D30*
X66040000Y-86360000D03*
D16*
X57150000Y-17780000D03*
X41910000Y-66040000D03*
X57150000Y-20320000D03*
X41910000Y-63500000D03*
X57150000Y-22860000D03*
X41910000Y-60960000D03*
X57150000Y-25400000D03*
X41910000Y-58420000D03*
X57150000Y-27940000D03*
X41910000Y-55880000D03*
X57150000Y-30480000D03*
X41910000Y-53340000D03*
X57150000Y-33020000D03*
X41910000Y-50800000D03*
X57150000Y-35560000D03*
X41910000Y-48260000D03*
X57150000Y-38100000D03*
X41910000Y-45720000D03*
X57150000Y-40640000D03*
X41910000Y-43180000D03*
X57150000Y-43180000D03*
X41910000Y-40640000D03*
X57150000Y-45720000D03*
X41910000Y-38100000D03*
X57150000Y-48260000D03*
X41910000Y-35560000D03*
X57150000Y-50800000D03*
X41910000Y-33020000D03*
X57150000Y-53340000D03*
X41910000Y-30480000D03*
X57150000Y-55880000D03*
X41910000Y-27940000D03*
X57150000Y-58420000D03*
X41910000Y-25400000D03*
X57150000Y-60960000D03*
X41910000Y-22860000D03*
X57150000Y-63500000D03*
X41910000Y-20320000D03*
X57150000Y-66040000D03*
D30*
X41910000Y-17780000D03*
D23*
X100330000Y-18415000D03*
X97790000Y-18415000D03*
X95250000Y-18415000D03*
D24*
X92710000Y-18415000D03*
D16*
X125730000Y-91440000D03*
D17*
X128270000Y-91440000D03*
D16*
X167640000Y-57150000D03*
D17*
X167640000Y-54610000D03*
D16*
X167640000Y-34290000D03*
D17*
X167640000Y-31750000D03*
D16*
X146050000Y-68580000D03*
D17*
X143510000Y-68580000D03*
D16*
X168910000Y-97790000D03*
D17*
X171450000Y-97790000D03*
D16*
X168910000Y-105410000D03*
D17*
X171450000Y-105410000D03*
D16*
X168910000Y-113030000D03*
D17*
X171450000Y-113030000D03*
D16*
X168910000Y-120650000D03*
D17*
X171450000Y-120650000D03*
D16*
X168910000Y-93980000D03*
D17*
X171450000Y-93980000D03*
D16*
X168910000Y-101600000D03*
D17*
X171450000Y-101600000D03*
D16*
X168910000Y-109220000D03*
D17*
X171450000Y-109220000D03*
D16*
X168910000Y-116840000D03*
D17*
X171450000Y-116840000D03*
D16*
X34290000Y-17780000D03*
D17*
X34290000Y-15240000D03*
D16*
X48260000Y-92710000D03*
D17*
X48260000Y-95250000D03*
D16*
X152400000Y-68580000D03*
D17*
X149860000Y-68580000D03*
D16*
X146050000Y-73660000D03*
D17*
X143510000Y-73660000D03*
D16*
X152400000Y-63500000D03*
D17*
X149860000Y-63500000D03*
D16*
X146050000Y-63500000D03*
D17*
X143510000Y-63500000D03*
D16*
X152400000Y-73660000D03*
D17*
X149860000Y-73660000D03*
D16*
X121285000Y-91440000D03*
D17*
X118745000Y-91440000D03*
D16*
X34290000Y-138430000D03*
D17*
X34290000Y-140970000D03*
D16*
X77470000Y-97790000D03*
D17*
X77470000Y-100330000D03*
D16*
X77470000Y-88900000D03*
D17*
X77470000Y-91440000D03*
D16*
X68580000Y-107950000D03*
D17*
X66040000Y-107950000D03*
D16*
X54610000Y-97790000D03*
D17*
X54610000Y-100330000D03*
D16*
X60960000Y-97790000D03*
D17*
X60960000Y-100330000D03*
X150495000Y-129460000D03*
X150495000Y-124460000D03*
X157520000Y-129540000D03*
D30*
X160020000Y-129540000D03*
D28*
X134850000Y-91440000D03*
D29*
X133350000Y-91440000D03*
D28*
X157075000Y-73660000D03*
D29*
X155575000Y-73660000D03*
D28*
X78740000Y-107720000D03*
D29*
X78740000Y-109220000D03*
D17*
X81280000Y-93900000D03*
X81280000Y-88900000D03*
D28*
X73660000Y-107720000D03*
D29*
X73660000Y-109220000D03*
D16*
X60960000Y-71120000D03*
X53340000Y-88900000D03*
X60960000Y-73660000D03*
X53340000Y-86360000D03*
X60960000Y-76200000D03*
X53340000Y-83820000D03*
X60960000Y-78740000D03*
X53340000Y-81280000D03*
X60960000Y-81280000D03*
X53340000Y-78740000D03*
X60960000Y-83820000D03*
X53340000Y-76200000D03*
X60960000Y-86360000D03*
X53340000Y-73660000D03*
X60960000Y-88900000D03*
D30*
X53340000Y-71120000D03*
D31*
X25250000Y-26670000D03*
X25250000Y-22170000D03*
X31750000Y-26670000D03*
X31750000Y-22170000D03*
X15090000Y-26670000D03*
X15090000Y-22170000D03*
X21590000Y-26670000D03*
X21590000Y-22170000D03*
D35*
X179970000Y-136810000D03*
X179970000Y-124770000D03*
D36*
X177260000Y-129540000D03*
X177260000Y-132040000D03*
X175260000Y-132040000D03*
D24*
X175260000Y-129540000D03*
D16*
X45085000Y-96520000D03*
D30*
X42545000Y-96520000D03*
D16*
X87630000Y-86360000D03*
D30*
X87630000Y-88900000D03*
D16*
X84455000Y-86360000D03*
D30*
X84455000Y-88900000D03*
D16*
X38100000Y-34290000D03*
D30*
X38100000Y-36830000D03*
D16*
X39370000Y-114300000D03*
X39370000Y-116840000D03*
X39370000Y-119380000D03*
X39370000Y-121920000D03*
X39370000Y-124460000D03*
X39370000Y-127000000D03*
X39370000Y-129540000D03*
X39370000Y-132080000D03*
D30*
X39370000Y-134620000D03*
D16*
X85090000Y-17780000D03*
X77470000Y-35560000D03*
X85090000Y-20320000D03*
X77470000Y-33020000D03*
X85090000Y-22860000D03*
X77470000Y-30480000D03*
X85090000Y-25400000D03*
X77470000Y-27940000D03*
X85090000Y-27940000D03*
X77470000Y-25400000D03*
X85090000Y-30480000D03*
X77470000Y-22860000D03*
X85090000Y-33020000D03*
X77470000Y-20320000D03*
X85090000Y-35560000D03*
D30*
X77470000Y-17780000D03*
D16*
X85090000Y-40640000D03*
X77470000Y-58420000D03*
X85090000Y-43180000D03*
X77470000Y-55880000D03*
X85090000Y-45720000D03*
X77470000Y-53340000D03*
X85090000Y-48260000D03*
X77470000Y-50800000D03*
X85090000Y-50800000D03*
X77470000Y-48260000D03*
X85090000Y-53340000D03*
X77470000Y-45720000D03*
X85090000Y-55880000D03*
X77470000Y-43180000D03*
X85090000Y-58420000D03*
D30*
X77470000Y-40640000D03*
D16*
X165100000Y-100330000D03*
X157480000Y-123190000D03*
X165100000Y-102870000D03*
X157480000Y-120650000D03*
X165100000Y-105410000D03*
X157480000Y-118110000D03*
X165100000Y-107950000D03*
X157480000Y-115570000D03*
X165100000Y-110490000D03*
X157480000Y-113030000D03*
X165100000Y-113030000D03*
X157480000Y-110490000D03*
X165100000Y-115570000D03*
X157480000Y-107950000D03*
X165100000Y-118110000D03*
X157480000Y-105410000D03*
X165100000Y-120650000D03*
X157480000Y-102870000D03*
X165100000Y-123190000D03*
D30*
X157480000Y-100330000D03*
D16*
X153670000Y-102870000D03*
X146050000Y-118110000D03*
X153670000Y-105410000D03*
X146050000Y-115570000D03*
X153670000Y-107950000D03*
X146050000Y-113030000D03*
X153670000Y-110490000D03*
X146050000Y-110490000D03*
X153670000Y-113030000D03*
X146050000Y-107950000D03*
X153670000Y-115570000D03*
X146050000Y-105410000D03*
X153670000Y-118110000D03*
D30*
X146050000Y-102870000D03*
D16*
X142240000Y-116840000D03*
X134620000Y-134620000D03*
X142240000Y-119380000D03*
X134620000Y-132080000D03*
X142240000Y-121920000D03*
X134620000Y-129540000D03*
X142240000Y-124460000D03*
X134620000Y-127000000D03*
X142240000Y-127000000D03*
X134620000Y-124460000D03*
X142240000Y-129540000D03*
X134620000Y-121920000D03*
X142240000Y-132080000D03*
X134620000Y-119380000D03*
X142240000Y-134620000D03*
D30*
X134620000Y-116840000D03*
D16*
X130810000Y-111760000D03*
X123190000Y-134620000D03*
X130810000Y-114300000D03*
X123190000Y-132080000D03*
X130810000Y-116840000D03*
X123190000Y-129540000D03*
X130810000Y-119380000D03*
X123190000Y-127000000D03*
X130810000Y-121920000D03*
X123190000Y-124460000D03*
X130810000Y-124460000D03*
X123190000Y-121920000D03*
X130810000Y-127000000D03*
X123190000Y-119380000D03*
X130810000Y-129540000D03*
X123190000Y-116840000D03*
X130810000Y-132080000D03*
X123190000Y-114300000D03*
X130810000Y-134620000D03*
D30*
X123190000Y-111760000D03*
D16*
X73660000Y-17780000D03*
X66040000Y-35560000D03*
X73660000Y-20320000D03*
X66040000Y-33020000D03*
X73660000Y-22860000D03*
X66040000Y-30480000D03*
X73660000Y-25400000D03*
X66040000Y-27940000D03*
X73660000Y-27940000D03*
X66040000Y-25400000D03*
X73660000Y-30480000D03*
X66040000Y-22860000D03*
X73660000Y-33020000D03*
X66040000Y-20320000D03*
X73660000Y-35560000D03*
D30*
X66040000Y-17780000D03*
D16*
X73660000Y-40640000D03*
X66040000Y-58420000D03*
X73660000Y-43180000D03*
X66040000Y-55880000D03*
X73660000Y-45720000D03*
X66040000Y-53340000D03*
X73660000Y-48260000D03*
X66040000Y-50800000D03*
X73660000Y-50800000D03*
X66040000Y-48260000D03*
X73660000Y-53340000D03*
X66040000Y-45720000D03*
X73660000Y-55880000D03*
X66040000Y-43180000D03*
X73660000Y-58420000D03*
D30*
X66040000Y-40640000D03*
D16*
X163830000Y-19050000D03*
X156210000Y-34290000D03*
X163830000Y-21590000D03*
X156210000Y-31750000D03*
X163830000Y-24130000D03*
X156210000Y-29210000D03*
X163830000Y-26670000D03*
X156210000Y-26670000D03*
X163830000Y-29210000D03*
X156210000Y-24130000D03*
X163830000Y-31750000D03*
X156210000Y-21590000D03*
X163830000Y-34290000D03*
D30*
X156210000Y-19050000D03*
D16*
X138430000Y-63500000D03*
X130810000Y-81280000D03*
X138430000Y-66040000D03*
X130810000Y-78740000D03*
X138430000Y-68580000D03*
X130810000Y-76200000D03*
X138430000Y-71120000D03*
X130810000Y-73660000D03*
X138430000Y-73660000D03*
X130810000Y-71120000D03*
X138430000Y-76200000D03*
X130810000Y-68580000D03*
X138430000Y-78740000D03*
X130810000Y-66040000D03*
X138430000Y-81280000D03*
D30*
X130810000Y-63500000D03*
D16*
X138430000Y-40640000D03*
X130810000Y-58420000D03*
X138430000Y-43180000D03*
X130810000Y-55880000D03*
X138430000Y-45720000D03*
X130810000Y-53340000D03*
X138430000Y-48260000D03*
X130810000Y-50800000D03*
X138430000Y-50800000D03*
X130810000Y-48260000D03*
X138430000Y-53340000D03*
X130810000Y-45720000D03*
X138430000Y-55880000D03*
X130810000Y-43180000D03*
X138430000Y-58420000D03*
D30*
X130810000Y-40640000D03*
D16*
X127000000Y-40640000D03*
X119380000Y-58420000D03*
X127000000Y-43180000D03*
X119380000Y-55880000D03*
X127000000Y-45720000D03*
X119380000Y-53340000D03*
X127000000Y-48260000D03*
X119380000Y-50800000D03*
X127000000Y-50800000D03*
X119380000Y-48260000D03*
X127000000Y-53340000D03*
X119380000Y-45720000D03*
X127000000Y-55880000D03*
X119380000Y-43180000D03*
X127000000Y-58420000D03*
D30*
X119380000Y-40640000D03*
D16*
X138430000Y-17780000D03*
X130810000Y-35560000D03*
X138430000Y-20320000D03*
X130810000Y-33020000D03*
X138430000Y-22860000D03*
X130810000Y-30480000D03*
X138430000Y-25400000D03*
X130810000Y-27940000D03*
X138430000Y-27940000D03*
X130810000Y-25400000D03*
X138430000Y-30480000D03*
X130810000Y-22860000D03*
X138430000Y-33020000D03*
X130810000Y-20320000D03*
X138430000Y-35560000D03*
D30*
X130810000Y-17780000D03*
D16*
X115570000Y-64770000D03*
X107950000Y-80010000D03*
X115570000Y-67310000D03*
X107950000Y-77470000D03*
X115570000Y-69850000D03*
X107950000Y-74930000D03*
X115570000Y-72390000D03*
X107950000Y-72390000D03*
X115570000Y-74930000D03*
X107950000Y-69850000D03*
X115570000Y-77470000D03*
X107950000Y-67310000D03*
X115570000Y-80010000D03*
D30*
X107950000Y-64770000D03*
D16*
X85090000Y-64770000D03*
X77470000Y-80010000D03*
X85090000Y-67310000D03*
X77470000Y-77470000D03*
X85090000Y-69850000D03*
X77470000Y-74930000D03*
X85090000Y-72390000D03*
X77470000Y-72390000D03*
X85090000Y-74930000D03*
X77470000Y-69850000D03*
X85090000Y-77470000D03*
X77470000Y-67310000D03*
X85090000Y-80010000D03*
D30*
X77470000Y-64770000D03*
D16*
X96520000Y-64770000D03*
X88900000Y-80010000D03*
X96520000Y-67310000D03*
X88900000Y-77470000D03*
X96520000Y-69850000D03*
X88900000Y-74930000D03*
X96520000Y-72390000D03*
X88900000Y-72390000D03*
X96520000Y-74930000D03*
X88900000Y-69850000D03*
X96520000Y-77470000D03*
X88900000Y-67310000D03*
X96520000Y-80010000D03*
D30*
X88900000Y-64770000D03*
D16*
X73660000Y-64770000D03*
X66040000Y-80010000D03*
X73660000Y-67310000D03*
X66040000Y-77470000D03*
X73660000Y-69850000D03*
X66040000Y-74930000D03*
X73660000Y-72390000D03*
X66040000Y-72390000D03*
X73660000Y-74930000D03*
X66040000Y-69850000D03*
X73660000Y-77470000D03*
X66040000Y-67310000D03*
X73660000Y-80010000D03*
D30*
X66040000Y-64770000D03*
D16*
X49530000Y-72390000D03*
X41910000Y-87630000D03*
X49530000Y-74930000D03*
X41910000Y-85090000D03*
X49530000Y-77470000D03*
X41910000Y-82550000D03*
X49530000Y-80010000D03*
X41910000Y-80010000D03*
X49530000Y-82550000D03*
X41910000Y-77470000D03*
X49530000Y-85090000D03*
X41910000Y-74930000D03*
X49530000Y-87630000D03*
D30*
X41910000Y-72390000D03*
D16*
X115570000Y-17780000D03*
X107950000Y-35560000D03*
X115570000Y-20320000D03*
X107950000Y-33020000D03*
X115570000Y-22860000D03*
X107950000Y-30480000D03*
X115570000Y-25400000D03*
X107950000Y-27940000D03*
X115570000Y-27940000D03*
X107950000Y-25400000D03*
X115570000Y-30480000D03*
X107950000Y-22860000D03*
X115570000Y-33020000D03*
X107950000Y-20320000D03*
X115570000Y-35560000D03*
D30*
X107950000Y-17780000D03*
D16*
X115570000Y-40640000D03*
X107950000Y-58420000D03*
X115570000Y-43180000D03*
X107950000Y-55880000D03*
X115570000Y-45720000D03*
X107950000Y-53340000D03*
X115570000Y-48260000D03*
X107950000Y-50800000D03*
X115570000Y-50800000D03*
X107950000Y-48260000D03*
X115570000Y-53340000D03*
X107950000Y-45720000D03*
X115570000Y-55880000D03*
X107950000Y-43180000D03*
X115570000Y-58420000D03*
D30*
X107950000Y-40640000D03*
D16*
X104140000Y-25400000D03*
X88900000Y-58420000D03*
X104140000Y-27940000D03*
X88900000Y-55880000D03*
X104140000Y-30480000D03*
X88900000Y-53340000D03*
X104140000Y-33020000D03*
X88900000Y-50800000D03*
X104140000Y-35560000D03*
X88900000Y-48260000D03*
X104140000Y-38100000D03*
X88900000Y-45720000D03*
X104140000Y-40640000D03*
X88900000Y-43180000D03*
X104140000Y-43180000D03*
X88900000Y-40640000D03*
X104140000Y-45720000D03*
X88900000Y-38100000D03*
X104140000Y-48260000D03*
X88900000Y-35560000D03*
X104140000Y-50800000D03*
X88900000Y-33020000D03*
X104140000Y-53340000D03*
X88900000Y-30480000D03*
X104140000Y-55880000D03*
X88900000Y-27940000D03*
X104140000Y-58420000D03*
D30*
X88900000Y-25400000D03*
D16*
X38100000Y-20320000D03*
X38100000Y-22860000D03*
X38100000Y-25400000D03*
X38100000Y-27940000D03*
D30*
X38100000Y-30480000D03*
D23*
X60960000Y-66040000D03*
X60960000Y-63500000D03*
X60960000Y-60960000D03*
X60960000Y-58420000D03*
X60960000Y-55880000D03*
X60960000Y-53340000D03*
X60960000Y-50800000D03*
X60960000Y-48260000D03*
X60960000Y-45720000D03*
X60960000Y-43180000D03*
X60960000Y-40640000D03*
X60960000Y-38100000D03*
X60960000Y-35560000D03*
X60960000Y-33020000D03*
X60960000Y-30480000D03*
X60960000Y-27940000D03*
D24*
X60960000Y-25400000D03*
D16*
X73660000Y-116840000D03*
X66040000Y-134620000D03*
X73660000Y-119380000D03*
X66040000Y-132080000D03*
X73660000Y-121920000D03*
X66040000Y-129540000D03*
X73660000Y-124460000D03*
X66040000Y-127000000D03*
X73660000Y-127000000D03*
X66040000Y-124460000D03*
X73660000Y-129540000D03*
X66040000Y-121920000D03*
X73660000Y-132080000D03*
X66040000Y-119380000D03*
X73660000Y-134620000D03*
D30*
X66040000Y-116840000D03*
D16*
X85090000Y-116840000D03*
X77470000Y-134620000D03*
X85090000Y-119380000D03*
X77470000Y-132080000D03*
X85090000Y-121920000D03*
X77470000Y-129540000D03*
X85090000Y-124460000D03*
X77470000Y-127000000D03*
X85090000Y-127000000D03*
X77470000Y-124460000D03*
X85090000Y-129540000D03*
X77470000Y-121920000D03*
X85090000Y-132080000D03*
X77470000Y-119380000D03*
X85090000Y-134620000D03*
D30*
X77470000Y-116840000D03*
D16*
X107950000Y-116840000D03*
X100330000Y-134620000D03*
X107950000Y-119380000D03*
X100330000Y-132080000D03*
X107950000Y-121920000D03*
X100330000Y-129540000D03*
X107950000Y-124460000D03*
X100330000Y-127000000D03*
X107950000Y-127000000D03*
X100330000Y-124460000D03*
X107950000Y-129540000D03*
X100330000Y-121920000D03*
X107950000Y-132080000D03*
X100330000Y-119380000D03*
X107950000Y-134620000D03*
D30*
X100330000Y-116840000D03*
D16*
X127000000Y-63500000D03*
X119380000Y-81280000D03*
X127000000Y-66040000D03*
X119380000Y-78740000D03*
X127000000Y-68580000D03*
X119380000Y-76200000D03*
X127000000Y-71120000D03*
X119380000Y-73660000D03*
X127000000Y-73660000D03*
X119380000Y-71120000D03*
X127000000Y-76200000D03*
X119380000Y-68580000D03*
X127000000Y-78740000D03*
X119380000Y-66040000D03*
X127000000Y-81280000D03*
D30*
X119380000Y-63500000D03*
D16*
X163830000Y-41910000D03*
X156210000Y-57150000D03*
X163830000Y-44450000D03*
X156210000Y-54610000D03*
X163830000Y-46990000D03*
X156210000Y-52070000D03*
X163830000Y-49530000D03*
X156210000Y-49530000D03*
X163830000Y-52070000D03*
X156210000Y-46990000D03*
X163830000Y-54610000D03*
X156210000Y-44450000D03*
X163830000Y-57150000D03*
D30*
X156210000Y-41910000D03*
D16*
X119380000Y-116840000D03*
X111760000Y-134620000D03*
X119380000Y-119380000D03*
X111760000Y-132080000D03*
X119380000Y-121920000D03*
X111760000Y-129540000D03*
X119380000Y-124460000D03*
X111760000Y-127000000D03*
X119380000Y-127000000D03*
X111760000Y-124460000D03*
X119380000Y-129540000D03*
X111760000Y-121920000D03*
X119380000Y-132080000D03*
X111760000Y-119380000D03*
X119380000Y-134620000D03*
D30*
X111760000Y-116840000D03*
D16*
X50800000Y-111760000D03*
X43180000Y-134620000D03*
X50800000Y-114300000D03*
X43180000Y-132080000D03*
X50800000Y-116840000D03*
X43180000Y-129540000D03*
X50800000Y-119380000D03*
X43180000Y-127000000D03*
X50800000Y-121920000D03*
X43180000Y-124460000D03*
X50800000Y-124460000D03*
X43180000Y-121920000D03*
X50800000Y-127000000D03*
X43180000Y-119380000D03*
X50800000Y-129540000D03*
X43180000Y-116840000D03*
X50800000Y-132080000D03*
X43180000Y-114300000D03*
X50800000Y-134620000D03*
D30*
X43180000Y-111760000D03*
D16*
X151130000Y-41910000D03*
X143510000Y-57150000D03*
X151130000Y-44450000D03*
X143510000Y-54610000D03*
X151130000Y-46990000D03*
X143510000Y-52070000D03*
X151130000Y-49530000D03*
X143510000Y-49530000D03*
X151130000Y-52070000D03*
X143510000Y-46990000D03*
X151130000Y-54610000D03*
X143510000Y-44450000D03*
X151130000Y-57150000D03*
D30*
X143510000Y-41910000D03*
D16*
X127000000Y-17780000D03*
X119380000Y-35560000D03*
X127000000Y-20320000D03*
X119380000Y-33020000D03*
X127000000Y-22860000D03*
X119380000Y-30480000D03*
X127000000Y-25400000D03*
X119380000Y-27940000D03*
X127000000Y-27940000D03*
X119380000Y-25400000D03*
X127000000Y-30480000D03*
X119380000Y-22860000D03*
X127000000Y-33020000D03*
X119380000Y-20320000D03*
X127000000Y-35560000D03*
D30*
X119380000Y-17780000D03*
D16*
X96520000Y-111760000D03*
X88900000Y-134620000D03*
X96520000Y-114300000D03*
X88900000Y-132080000D03*
X96520000Y-116840000D03*
X88900000Y-129540000D03*
X96520000Y-119380000D03*
X88900000Y-127000000D03*
X96520000Y-121920000D03*
X88900000Y-124460000D03*
X96520000Y-124460000D03*
X88900000Y-121920000D03*
X96520000Y-127000000D03*
X88900000Y-119380000D03*
X96520000Y-129540000D03*
X88900000Y-116840000D03*
X96520000Y-132080000D03*
X88900000Y-114300000D03*
X96520000Y-134620000D03*
D30*
X88900000Y-111760000D03*
D37*
X156210000Y-80010000D03*
D38*
X158750000Y-80010000D03*
X157480000Y-80010000D03*
D17*
X143510000Y-34290000D03*
X151130000Y-34290000D03*
X151130000Y-19050000D03*
D30*
X143510000Y-19050000D03*
D37*
X149860000Y-80010000D03*
D38*
X152400000Y-80010000D03*
X151130000Y-80010000D03*
D37*
X143510000Y-80010000D03*
D38*
X146050000Y-80010000D03*
X144780000Y-80010000D03*
D37*
X85090000Y-93980000D03*
D38*
X87630000Y-93980000D03*
X86360000Y-93980000D03*
D37*
X53340000Y-105410000D03*
D38*
X55880000Y-105410000D03*
X54610000Y-105410000D03*
D37*
X59690000Y-105410000D03*
D38*
X62230000Y-105410000D03*
X60960000Y-105410000D03*
M02*
