G04 #@! TF.GenerationSoftware,KiCad,Pcbnew,(5.1.2-1)-1*
G04 #@! TF.CreationDate,2023-07-30T19:23:29+02:00*
G04 #@! TF.ProjectId,psg-riser,7073672d-7269-4736-9572-2e6b69636164,rev?*
G04 #@! TF.SameCoordinates,Original*
G04 #@! TF.FileFunction,Copper,L1,Top*
G04 #@! TF.FilePolarity,Positive*
%FSLAX46Y46*%
G04 Gerber Fmt 4.6, Leading zero omitted, Abs format (unit mm)*
G04 Created by KiCad (PCBNEW (5.1.2-1)-1) date 2023-07-30 19:23:29*
%MOMM*%
%LPD*%
G04 APERTURE LIST*
%ADD10O,1.600000X1.600000*%
%ADD11R,1.600000X1.600000*%
%ADD12C,1.600000*%
%ADD13O,1.700000X1.700000*%
%ADD14R,1.700000X1.700000*%
%ADD15C,0.100000*%
%ADD16C,1.524000*%
%ADD17C,1.200000*%
%ADD18R,1.200000X1.200000*%
%ADD19C,0.800000*%
%ADD20C,0.250000*%
%ADD21C,0.500000*%
%ADD22C,0.254000*%
G04 APERTURE END LIST*
D10*
X54610000Y-69850000D03*
X36830000Y-62230000D03*
X52070000Y-69850000D03*
X39370000Y-62230000D03*
X49530000Y-69850000D03*
X41910000Y-62230000D03*
X46990000Y-69850000D03*
X44450000Y-62230000D03*
X44450000Y-69850000D03*
X46990000Y-62230000D03*
X41910000Y-69850000D03*
X49530000Y-62230000D03*
X39370000Y-69850000D03*
X52070000Y-62230000D03*
X36830000Y-69850000D03*
D11*
X54610000Y-62230000D03*
D10*
X53340000Y-57150000D03*
X38100000Y-49530000D03*
X50800000Y-57150000D03*
X40640000Y-49530000D03*
X48260000Y-57150000D03*
X43180000Y-49530000D03*
X45720000Y-57150000D03*
X45720000Y-49530000D03*
X43180000Y-57150000D03*
X48260000Y-49530000D03*
X40640000Y-57150000D03*
X50800000Y-49530000D03*
X38100000Y-57150000D03*
D11*
X53340000Y-49530000D03*
D10*
X59690000Y-31750000D03*
X36830000Y-24130000D03*
X57150000Y-31750000D03*
X39370000Y-24130000D03*
X54610000Y-31750000D03*
X41910000Y-24130000D03*
X52070000Y-31750000D03*
X44450000Y-24130000D03*
X49530000Y-31750000D03*
X46990000Y-24130000D03*
X46990000Y-31750000D03*
X49530000Y-24130000D03*
X44450000Y-31750000D03*
X52070000Y-24130000D03*
X41910000Y-31750000D03*
X54610000Y-24130000D03*
X39370000Y-31750000D03*
X57150000Y-24130000D03*
X36830000Y-31750000D03*
D11*
X59690000Y-24130000D03*
D10*
X54610000Y-44450000D03*
X36830000Y-36830000D03*
X52070000Y-44450000D03*
X39370000Y-36830000D03*
X49530000Y-44450000D03*
X41910000Y-36830000D03*
X46990000Y-44450000D03*
X44450000Y-36830000D03*
X44450000Y-44450000D03*
X46990000Y-36830000D03*
X41910000Y-44450000D03*
X49530000Y-36830000D03*
X39370000Y-44450000D03*
X52070000Y-36830000D03*
X36830000Y-44450000D03*
D11*
X54610000Y-36830000D03*
D10*
X58420000Y-49530000D03*
D12*
X60960000Y-49530000D03*
D10*
X58420000Y-69850000D03*
D12*
X60960000Y-69850000D03*
D10*
X58420000Y-62230000D03*
D12*
X60960000Y-62230000D03*
D13*
X66040000Y-60960000D03*
X71120000Y-45720000D03*
X66040000Y-43180000D03*
X71120000Y-43180000D03*
X66040000Y-40640000D03*
X71120000Y-40640000D03*
X66040000Y-38100000D03*
X71120000Y-38100000D03*
X66040000Y-35560000D03*
X71120000Y-35560000D03*
X66040000Y-33020000D03*
X71120000Y-33020000D03*
X66040000Y-30480000D03*
X71120000Y-30480000D03*
D10*
X66040000Y-27940000D03*
D13*
X71120000Y-27940000D03*
D10*
X66040000Y-25400000D03*
D13*
X71120000Y-25400000D03*
X71120000Y-58420000D03*
X71120000Y-48260000D03*
X66040000Y-45720000D03*
X71120000Y-60960000D03*
X66040000Y-58420000D03*
X71120000Y-55880000D03*
X66040000Y-53340000D03*
X71120000Y-53340000D03*
X66040000Y-50800000D03*
X71120000Y-50800000D03*
X66040000Y-48260000D03*
D14*
X66040000Y-68580000D03*
D13*
X71120000Y-63500000D03*
X66040000Y-55880000D03*
X71120000Y-68580000D03*
X71120000Y-66040000D03*
X66040000Y-63500000D03*
X66040000Y-66040000D03*
D15*
G36*
X32866345Y-24639835D02*
G01*
X32903329Y-24645321D01*
X32939598Y-24654406D01*
X32974802Y-24667002D01*
X33008602Y-24682988D01*
X33040672Y-24702210D01*
X33070704Y-24724483D01*
X33098408Y-24749592D01*
X33123517Y-24777296D01*
X33145790Y-24807328D01*
X33165012Y-24839398D01*
X33180998Y-24873198D01*
X33193594Y-24908402D01*
X33202679Y-24944671D01*
X33208165Y-24981655D01*
X33210000Y-25019000D01*
X33210000Y-25781000D01*
X33208165Y-25818345D01*
X33202679Y-25855329D01*
X33193594Y-25891598D01*
X33180998Y-25926802D01*
X33165012Y-25960602D01*
X33145790Y-25992672D01*
X33123517Y-26022704D01*
X33098408Y-26050408D01*
X33070704Y-26075517D01*
X33040672Y-26097790D01*
X33008602Y-26117012D01*
X32974802Y-26132998D01*
X32939598Y-26145594D01*
X32903329Y-26154679D01*
X32866345Y-26160165D01*
X32829000Y-26162000D01*
X25591000Y-26162000D01*
X25553655Y-26160165D01*
X25516671Y-26154679D01*
X25480402Y-26145594D01*
X25445198Y-26132998D01*
X25411398Y-26117012D01*
X25379328Y-26097790D01*
X25349296Y-26075517D01*
X25321592Y-26050408D01*
X25296483Y-26022704D01*
X25274210Y-25992672D01*
X25254988Y-25960602D01*
X25239002Y-25926802D01*
X25226406Y-25891598D01*
X25217321Y-25855329D01*
X25211835Y-25818345D01*
X25210000Y-25781000D01*
X25210000Y-25019000D01*
X25211835Y-24981655D01*
X25217321Y-24944671D01*
X25226406Y-24908402D01*
X25239002Y-24873198D01*
X25254988Y-24839398D01*
X25274210Y-24807328D01*
X25296483Y-24777296D01*
X25321592Y-24749592D01*
X25349296Y-24724483D01*
X25379328Y-24702210D01*
X25411398Y-24682988D01*
X25445198Y-24667002D01*
X25480402Y-24654406D01*
X25516671Y-24645321D01*
X25553655Y-24639835D01*
X25591000Y-24638000D01*
X32829000Y-24638000D01*
X32866345Y-24639835D01*
X32866345Y-24639835D01*
G37*
D16*
X29210000Y-25400000D03*
D15*
G36*
X32866345Y-27179835D02*
G01*
X32903329Y-27185321D01*
X32939598Y-27194406D01*
X32974802Y-27207002D01*
X33008602Y-27222988D01*
X33040672Y-27242210D01*
X33070704Y-27264483D01*
X33098408Y-27289592D01*
X33123517Y-27317296D01*
X33145790Y-27347328D01*
X33165012Y-27379398D01*
X33180998Y-27413198D01*
X33193594Y-27448402D01*
X33202679Y-27484671D01*
X33208165Y-27521655D01*
X33210000Y-27559000D01*
X33210000Y-28321000D01*
X33208165Y-28358345D01*
X33202679Y-28395329D01*
X33193594Y-28431598D01*
X33180998Y-28466802D01*
X33165012Y-28500602D01*
X33145790Y-28532672D01*
X33123517Y-28562704D01*
X33098408Y-28590408D01*
X33070704Y-28615517D01*
X33040672Y-28637790D01*
X33008602Y-28657012D01*
X32974802Y-28672998D01*
X32939598Y-28685594D01*
X32903329Y-28694679D01*
X32866345Y-28700165D01*
X32829000Y-28702000D01*
X25591000Y-28702000D01*
X25553655Y-28700165D01*
X25516671Y-28694679D01*
X25480402Y-28685594D01*
X25445198Y-28672998D01*
X25411398Y-28657012D01*
X25379328Y-28637790D01*
X25349296Y-28615517D01*
X25321592Y-28590408D01*
X25296483Y-28562704D01*
X25274210Y-28532672D01*
X25254988Y-28500602D01*
X25239002Y-28466802D01*
X25226406Y-28431598D01*
X25217321Y-28395329D01*
X25211835Y-28358345D01*
X25210000Y-28321000D01*
X25210000Y-27559000D01*
X25211835Y-27521655D01*
X25217321Y-27484671D01*
X25226406Y-27448402D01*
X25239002Y-27413198D01*
X25254988Y-27379398D01*
X25274210Y-27347328D01*
X25296483Y-27317296D01*
X25321592Y-27289592D01*
X25349296Y-27264483D01*
X25379328Y-27242210D01*
X25411398Y-27222988D01*
X25445198Y-27207002D01*
X25480402Y-27194406D01*
X25516671Y-27185321D01*
X25553655Y-27179835D01*
X25591000Y-27178000D01*
X32829000Y-27178000D01*
X32866345Y-27179835D01*
X32866345Y-27179835D01*
G37*
D16*
X29210000Y-27940000D03*
D15*
G36*
X32866345Y-29719835D02*
G01*
X32903329Y-29725321D01*
X32939598Y-29734406D01*
X32974802Y-29747002D01*
X33008602Y-29762988D01*
X33040672Y-29782210D01*
X33070704Y-29804483D01*
X33098408Y-29829592D01*
X33123517Y-29857296D01*
X33145790Y-29887328D01*
X33165012Y-29919398D01*
X33180998Y-29953198D01*
X33193594Y-29988402D01*
X33202679Y-30024671D01*
X33208165Y-30061655D01*
X33210000Y-30099000D01*
X33210000Y-30861000D01*
X33208165Y-30898345D01*
X33202679Y-30935329D01*
X33193594Y-30971598D01*
X33180998Y-31006802D01*
X33165012Y-31040602D01*
X33145790Y-31072672D01*
X33123517Y-31102704D01*
X33098408Y-31130408D01*
X33070704Y-31155517D01*
X33040672Y-31177790D01*
X33008602Y-31197012D01*
X32974802Y-31212998D01*
X32939598Y-31225594D01*
X32903329Y-31234679D01*
X32866345Y-31240165D01*
X32829000Y-31242000D01*
X25591000Y-31242000D01*
X25553655Y-31240165D01*
X25516671Y-31234679D01*
X25480402Y-31225594D01*
X25445198Y-31212998D01*
X25411398Y-31197012D01*
X25379328Y-31177790D01*
X25349296Y-31155517D01*
X25321592Y-31130408D01*
X25296483Y-31102704D01*
X25274210Y-31072672D01*
X25254988Y-31040602D01*
X25239002Y-31006802D01*
X25226406Y-30971598D01*
X25217321Y-30935329D01*
X25211835Y-30898345D01*
X25210000Y-30861000D01*
X25210000Y-30099000D01*
X25211835Y-30061655D01*
X25217321Y-30024671D01*
X25226406Y-29988402D01*
X25239002Y-29953198D01*
X25254988Y-29919398D01*
X25274210Y-29887328D01*
X25296483Y-29857296D01*
X25321592Y-29829592D01*
X25349296Y-29804483D01*
X25379328Y-29782210D01*
X25411398Y-29762988D01*
X25445198Y-29747002D01*
X25480402Y-29734406D01*
X25516671Y-29725321D01*
X25553655Y-29719835D01*
X25591000Y-29718000D01*
X32829000Y-29718000D01*
X32866345Y-29719835D01*
X32866345Y-29719835D01*
G37*
D16*
X29210000Y-30480000D03*
D15*
G36*
X32866345Y-32259835D02*
G01*
X32903329Y-32265321D01*
X32939598Y-32274406D01*
X32974802Y-32287002D01*
X33008602Y-32302988D01*
X33040672Y-32322210D01*
X33070704Y-32344483D01*
X33098408Y-32369592D01*
X33123517Y-32397296D01*
X33145790Y-32427328D01*
X33165012Y-32459398D01*
X33180998Y-32493198D01*
X33193594Y-32528402D01*
X33202679Y-32564671D01*
X33208165Y-32601655D01*
X33210000Y-32639000D01*
X33210000Y-33401000D01*
X33208165Y-33438345D01*
X33202679Y-33475329D01*
X33193594Y-33511598D01*
X33180998Y-33546802D01*
X33165012Y-33580602D01*
X33145790Y-33612672D01*
X33123517Y-33642704D01*
X33098408Y-33670408D01*
X33070704Y-33695517D01*
X33040672Y-33717790D01*
X33008602Y-33737012D01*
X32974802Y-33752998D01*
X32939598Y-33765594D01*
X32903329Y-33774679D01*
X32866345Y-33780165D01*
X32829000Y-33782000D01*
X25591000Y-33782000D01*
X25553655Y-33780165D01*
X25516671Y-33774679D01*
X25480402Y-33765594D01*
X25445198Y-33752998D01*
X25411398Y-33737012D01*
X25379328Y-33717790D01*
X25349296Y-33695517D01*
X25321592Y-33670408D01*
X25296483Y-33642704D01*
X25274210Y-33612672D01*
X25254988Y-33580602D01*
X25239002Y-33546802D01*
X25226406Y-33511598D01*
X25217321Y-33475329D01*
X25211835Y-33438345D01*
X25210000Y-33401000D01*
X25210000Y-32639000D01*
X25211835Y-32601655D01*
X25217321Y-32564671D01*
X25226406Y-32528402D01*
X25239002Y-32493198D01*
X25254988Y-32459398D01*
X25274210Y-32427328D01*
X25296483Y-32397296D01*
X25321592Y-32369592D01*
X25349296Y-32344483D01*
X25379328Y-32322210D01*
X25411398Y-32302988D01*
X25445198Y-32287002D01*
X25480402Y-32274406D01*
X25516671Y-32265321D01*
X25553655Y-32259835D01*
X25591000Y-32258000D01*
X32829000Y-32258000D01*
X32866345Y-32259835D01*
X32866345Y-32259835D01*
G37*
D16*
X29210000Y-33020000D03*
D15*
G36*
X32866345Y-34799835D02*
G01*
X32903329Y-34805321D01*
X32939598Y-34814406D01*
X32974802Y-34827002D01*
X33008602Y-34842988D01*
X33040672Y-34862210D01*
X33070704Y-34884483D01*
X33098408Y-34909592D01*
X33123517Y-34937296D01*
X33145790Y-34967328D01*
X33165012Y-34999398D01*
X33180998Y-35033198D01*
X33193594Y-35068402D01*
X33202679Y-35104671D01*
X33208165Y-35141655D01*
X33210000Y-35179000D01*
X33210000Y-35941000D01*
X33208165Y-35978345D01*
X33202679Y-36015329D01*
X33193594Y-36051598D01*
X33180998Y-36086802D01*
X33165012Y-36120602D01*
X33145790Y-36152672D01*
X33123517Y-36182704D01*
X33098408Y-36210408D01*
X33070704Y-36235517D01*
X33040672Y-36257790D01*
X33008602Y-36277012D01*
X32974802Y-36292998D01*
X32939598Y-36305594D01*
X32903329Y-36314679D01*
X32866345Y-36320165D01*
X32829000Y-36322000D01*
X25591000Y-36322000D01*
X25553655Y-36320165D01*
X25516671Y-36314679D01*
X25480402Y-36305594D01*
X25445198Y-36292998D01*
X25411398Y-36277012D01*
X25379328Y-36257790D01*
X25349296Y-36235517D01*
X25321592Y-36210408D01*
X25296483Y-36182704D01*
X25274210Y-36152672D01*
X25254988Y-36120602D01*
X25239002Y-36086802D01*
X25226406Y-36051598D01*
X25217321Y-36015329D01*
X25211835Y-35978345D01*
X25210000Y-35941000D01*
X25210000Y-35179000D01*
X25211835Y-35141655D01*
X25217321Y-35104671D01*
X25226406Y-35068402D01*
X25239002Y-35033198D01*
X25254988Y-34999398D01*
X25274210Y-34967328D01*
X25296483Y-34937296D01*
X25321592Y-34909592D01*
X25349296Y-34884483D01*
X25379328Y-34862210D01*
X25411398Y-34842988D01*
X25445198Y-34827002D01*
X25480402Y-34814406D01*
X25516671Y-34805321D01*
X25553655Y-34799835D01*
X25591000Y-34798000D01*
X32829000Y-34798000D01*
X32866345Y-34799835D01*
X32866345Y-34799835D01*
G37*
D16*
X29210000Y-35560000D03*
D15*
G36*
X32866345Y-37339835D02*
G01*
X32903329Y-37345321D01*
X32939598Y-37354406D01*
X32974802Y-37367002D01*
X33008602Y-37382988D01*
X33040672Y-37402210D01*
X33070704Y-37424483D01*
X33098408Y-37449592D01*
X33123517Y-37477296D01*
X33145790Y-37507328D01*
X33165012Y-37539398D01*
X33180998Y-37573198D01*
X33193594Y-37608402D01*
X33202679Y-37644671D01*
X33208165Y-37681655D01*
X33210000Y-37719000D01*
X33210000Y-38481000D01*
X33208165Y-38518345D01*
X33202679Y-38555329D01*
X33193594Y-38591598D01*
X33180998Y-38626802D01*
X33165012Y-38660602D01*
X33145790Y-38692672D01*
X33123517Y-38722704D01*
X33098408Y-38750408D01*
X33070704Y-38775517D01*
X33040672Y-38797790D01*
X33008602Y-38817012D01*
X32974802Y-38832998D01*
X32939598Y-38845594D01*
X32903329Y-38854679D01*
X32866345Y-38860165D01*
X32829000Y-38862000D01*
X25591000Y-38862000D01*
X25553655Y-38860165D01*
X25516671Y-38854679D01*
X25480402Y-38845594D01*
X25445198Y-38832998D01*
X25411398Y-38817012D01*
X25379328Y-38797790D01*
X25349296Y-38775517D01*
X25321592Y-38750408D01*
X25296483Y-38722704D01*
X25274210Y-38692672D01*
X25254988Y-38660602D01*
X25239002Y-38626802D01*
X25226406Y-38591598D01*
X25217321Y-38555329D01*
X25211835Y-38518345D01*
X25210000Y-38481000D01*
X25210000Y-37719000D01*
X25211835Y-37681655D01*
X25217321Y-37644671D01*
X25226406Y-37608402D01*
X25239002Y-37573198D01*
X25254988Y-37539398D01*
X25274210Y-37507328D01*
X25296483Y-37477296D01*
X25321592Y-37449592D01*
X25349296Y-37424483D01*
X25379328Y-37402210D01*
X25411398Y-37382988D01*
X25445198Y-37367002D01*
X25480402Y-37354406D01*
X25516671Y-37345321D01*
X25553655Y-37339835D01*
X25591000Y-37338000D01*
X32829000Y-37338000D01*
X32866345Y-37339835D01*
X32866345Y-37339835D01*
G37*
D16*
X29210000Y-38100000D03*
D15*
G36*
X32866345Y-39879835D02*
G01*
X32903329Y-39885321D01*
X32939598Y-39894406D01*
X32974802Y-39907002D01*
X33008602Y-39922988D01*
X33040672Y-39942210D01*
X33070704Y-39964483D01*
X33098408Y-39989592D01*
X33123517Y-40017296D01*
X33145790Y-40047328D01*
X33165012Y-40079398D01*
X33180998Y-40113198D01*
X33193594Y-40148402D01*
X33202679Y-40184671D01*
X33208165Y-40221655D01*
X33210000Y-40259000D01*
X33210000Y-41021000D01*
X33208165Y-41058345D01*
X33202679Y-41095329D01*
X33193594Y-41131598D01*
X33180998Y-41166802D01*
X33165012Y-41200602D01*
X33145790Y-41232672D01*
X33123517Y-41262704D01*
X33098408Y-41290408D01*
X33070704Y-41315517D01*
X33040672Y-41337790D01*
X33008602Y-41357012D01*
X32974802Y-41372998D01*
X32939598Y-41385594D01*
X32903329Y-41394679D01*
X32866345Y-41400165D01*
X32829000Y-41402000D01*
X25591000Y-41402000D01*
X25553655Y-41400165D01*
X25516671Y-41394679D01*
X25480402Y-41385594D01*
X25445198Y-41372998D01*
X25411398Y-41357012D01*
X25379328Y-41337790D01*
X25349296Y-41315517D01*
X25321592Y-41290408D01*
X25296483Y-41262704D01*
X25274210Y-41232672D01*
X25254988Y-41200602D01*
X25239002Y-41166802D01*
X25226406Y-41131598D01*
X25217321Y-41095329D01*
X25211835Y-41058345D01*
X25210000Y-41021000D01*
X25210000Y-40259000D01*
X25211835Y-40221655D01*
X25217321Y-40184671D01*
X25226406Y-40148402D01*
X25239002Y-40113198D01*
X25254988Y-40079398D01*
X25274210Y-40047328D01*
X25296483Y-40017296D01*
X25321592Y-39989592D01*
X25349296Y-39964483D01*
X25379328Y-39942210D01*
X25411398Y-39922988D01*
X25445198Y-39907002D01*
X25480402Y-39894406D01*
X25516671Y-39885321D01*
X25553655Y-39879835D01*
X25591000Y-39878000D01*
X32829000Y-39878000D01*
X32866345Y-39879835D01*
X32866345Y-39879835D01*
G37*
D16*
X29210000Y-40640000D03*
D15*
G36*
X32866345Y-42419835D02*
G01*
X32903329Y-42425321D01*
X32939598Y-42434406D01*
X32974802Y-42447002D01*
X33008602Y-42462988D01*
X33040672Y-42482210D01*
X33070704Y-42504483D01*
X33098408Y-42529592D01*
X33123517Y-42557296D01*
X33145790Y-42587328D01*
X33165012Y-42619398D01*
X33180998Y-42653198D01*
X33193594Y-42688402D01*
X33202679Y-42724671D01*
X33208165Y-42761655D01*
X33210000Y-42799000D01*
X33210000Y-43561000D01*
X33208165Y-43598345D01*
X33202679Y-43635329D01*
X33193594Y-43671598D01*
X33180998Y-43706802D01*
X33165012Y-43740602D01*
X33145790Y-43772672D01*
X33123517Y-43802704D01*
X33098408Y-43830408D01*
X33070704Y-43855517D01*
X33040672Y-43877790D01*
X33008602Y-43897012D01*
X32974802Y-43912998D01*
X32939598Y-43925594D01*
X32903329Y-43934679D01*
X32866345Y-43940165D01*
X32829000Y-43942000D01*
X25591000Y-43942000D01*
X25553655Y-43940165D01*
X25516671Y-43934679D01*
X25480402Y-43925594D01*
X25445198Y-43912998D01*
X25411398Y-43897012D01*
X25379328Y-43877790D01*
X25349296Y-43855517D01*
X25321592Y-43830408D01*
X25296483Y-43802704D01*
X25274210Y-43772672D01*
X25254988Y-43740602D01*
X25239002Y-43706802D01*
X25226406Y-43671598D01*
X25217321Y-43635329D01*
X25211835Y-43598345D01*
X25210000Y-43561000D01*
X25210000Y-42799000D01*
X25211835Y-42761655D01*
X25217321Y-42724671D01*
X25226406Y-42688402D01*
X25239002Y-42653198D01*
X25254988Y-42619398D01*
X25274210Y-42587328D01*
X25296483Y-42557296D01*
X25321592Y-42529592D01*
X25349296Y-42504483D01*
X25379328Y-42482210D01*
X25411398Y-42462988D01*
X25445198Y-42447002D01*
X25480402Y-42434406D01*
X25516671Y-42425321D01*
X25553655Y-42419835D01*
X25591000Y-42418000D01*
X32829000Y-42418000D01*
X32866345Y-42419835D01*
X32866345Y-42419835D01*
G37*
D16*
X29210000Y-43180000D03*
D15*
G36*
X32866345Y-44959835D02*
G01*
X32903329Y-44965321D01*
X32939598Y-44974406D01*
X32974802Y-44987002D01*
X33008602Y-45002988D01*
X33040672Y-45022210D01*
X33070704Y-45044483D01*
X33098408Y-45069592D01*
X33123517Y-45097296D01*
X33145790Y-45127328D01*
X33165012Y-45159398D01*
X33180998Y-45193198D01*
X33193594Y-45228402D01*
X33202679Y-45264671D01*
X33208165Y-45301655D01*
X33210000Y-45339000D01*
X33210000Y-46101000D01*
X33208165Y-46138345D01*
X33202679Y-46175329D01*
X33193594Y-46211598D01*
X33180998Y-46246802D01*
X33165012Y-46280602D01*
X33145790Y-46312672D01*
X33123517Y-46342704D01*
X33098408Y-46370408D01*
X33070704Y-46395517D01*
X33040672Y-46417790D01*
X33008602Y-46437012D01*
X32974802Y-46452998D01*
X32939598Y-46465594D01*
X32903329Y-46474679D01*
X32866345Y-46480165D01*
X32829000Y-46482000D01*
X25591000Y-46482000D01*
X25553655Y-46480165D01*
X25516671Y-46474679D01*
X25480402Y-46465594D01*
X25445198Y-46452998D01*
X25411398Y-46437012D01*
X25379328Y-46417790D01*
X25349296Y-46395517D01*
X25321592Y-46370408D01*
X25296483Y-46342704D01*
X25274210Y-46312672D01*
X25254988Y-46280602D01*
X25239002Y-46246802D01*
X25226406Y-46211598D01*
X25217321Y-46175329D01*
X25211835Y-46138345D01*
X25210000Y-46101000D01*
X25210000Y-45339000D01*
X25211835Y-45301655D01*
X25217321Y-45264671D01*
X25226406Y-45228402D01*
X25239002Y-45193198D01*
X25254988Y-45159398D01*
X25274210Y-45127328D01*
X25296483Y-45097296D01*
X25321592Y-45069592D01*
X25349296Y-45044483D01*
X25379328Y-45022210D01*
X25411398Y-45002988D01*
X25445198Y-44987002D01*
X25480402Y-44974406D01*
X25516671Y-44965321D01*
X25553655Y-44959835D01*
X25591000Y-44958000D01*
X32829000Y-44958000D01*
X32866345Y-44959835D01*
X32866345Y-44959835D01*
G37*
D16*
X29210000Y-45720000D03*
D15*
G36*
X32866345Y-47499835D02*
G01*
X32903329Y-47505321D01*
X32939598Y-47514406D01*
X32974802Y-47527002D01*
X33008602Y-47542988D01*
X33040672Y-47562210D01*
X33070704Y-47584483D01*
X33098408Y-47609592D01*
X33123517Y-47637296D01*
X33145790Y-47667328D01*
X33165012Y-47699398D01*
X33180998Y-47733198D01*
X33193594Y-47768402D01*
X33202679Y-47804671D01*
X33208165Y-47841655D01*
X33210000Y-47879000D01*
X33210000Y-48641000D01*
X33208165Y-48678345D01*
X33202679Y-48715329D01*
X33193594Y-48751598D01*
X33180998Y-48786802D01*
X33165012Y-48820602D01*
X33145790Y-48852672D01*
X33123517Y-48882704D01*
X33098408Y-48910408D01*
X33070704Y-48935517D01*
X33040672Y-48957790D01*
X33008602Y-48977012D01*
X32974802Y-48992998D01*
X32939598Y-49005594D01*
X32903329Y-49014679D01*
X32866345Y-49020165D01*
X32829000Y-49022000D01*
X25591000Y-49022000D01*
X25553655Y-49020165D01*
X25516671Y-49014679D01*
X25480402Y-49005594D01*
X25445198Y-48992998D01*
X25411398Y-48977012D01*
X25379328Y-48957790D01*
X25349296Y-48935517D01*
X25321592Y-48910408D01*
X25296483Y-48882704D01*
X25274210Y-48852672D01*
X25254988Y-48820602D01*
X25239002Y-48786802D01*
X25226406Y-48751598D01*
X25217321Y-48715329D01*
X25211835Y-48678345D01*
X25210000Y-48641000D01*
X25210000Y-47879000D01*
X25211835Y-47841655D01*
X25217321Y-47804671D01*
X25226406Y-47768402D01*
X25239002Y-47733198D01*
X25254988Y-47699398D01*
X25274210Y-47667328D01*
X25296483Y-47637296D01*
X25321592Y-47609592D01*
X25349296Y-47584483D01*
X25379328Y-47562210D01*
X25411398Y-47542988D01*
X25445198Y-47527002D01*
X25480402Y-47514406D01*
X25516671Y-47505321D01*
X25553655Y-47499835D01*
X25591000Y-47498000D01*
X32829000Y-47498000D01*
X32866345Y-47499835D01*
X32866345Y-47499835D01*
G37*
D16*
X29210000Y-48260000D03*
D15*
G36*
X32866345Y-50039835D02*
G01*
X32903329Y-50045321D01*
X32939598Y-50054406D01*
X32974802Y-50067002D01*
X33008602Y-50082988D01*
X33040672Y-50102210D01*
X33070704Y-50124483D01*
X33098408Y-50149592D01*
X33123517Y-50177296D01*
X33145790Y-50207328D01*
X33165012Y-50239398D01*
X33180998Y-50273198D01*
X33193594Y-50308402D01*
X33202679Y-50344671D01*
X33208165Y-50381655D01*
X33210000Y-50419000D01*
X33210000Y-51181000D01*
X33208165Y-51218345D01*
X33202679Y-51255329D01*
X33193594Y-51291598D01*
X33180998Y-51326802D01*
X33165012Y-51360602D01*
X33145790Y-51392672D01*
X33123517Y-51422704D01*
X33098408Y-51450408D01*
X33070704Y-51475517D01*
X33040672Y-51497790D01*
X33008602Y-51517012D01*
X32974802Y-51532998D01*
X32939598Y-51545594D01*
X32903329Y-51554679D01*
X32866345Y-51560165D01*
X32829000Y-51562000D01*
X25591000Y-51562000D01*
X25553655Y-51560165D01*
X25516671Y-51554679D01*
X25480402Y-51545594D01*
X25445198Y-51532998D01*
X25411398Y-51517012D01*
X25379328Y-51497790D01*
X25349296Y-51475517D01*
X25321592Y-51450408D01*
X25296483Y-51422704D01*
X25274210Y-51392672D01*
X25254988Y-51360602D01*
X25239002Y-51326802D01*
X25226406Y-51291598D01*
X25217321Y-51255329D01*
X25211835Y-51218345D01*
X25210000Y-51181000D01*
X25210000Y-50419000D01*
X25211835Y-50381655D01*
X25217321Y-50344671D01*
X25226406Y-50308402D01*
X25239002Y-50273198D01*
X25254988Y-50239398D01*
X25274210Y-50207328D01*
X25296483Y-50177296D01*
X25321592Y-50149592D01*
X25349296Y-50124483D01*
X25379328Y-50102210D01*
X25411398Y-50082988D01*
X25445198Y-50067002D01*
X25480402Y-50054406D01*
X25516671Y-50045321D01*
X25553655Y-50039835D01*
X25591000Y-50038000D01*
X32829000Y-50038000D01*
X32866345Y-50039835D01*
X32866345Y-50039835D01*
G37*
D16*
X29210000Y-50800000D03*
D15*
G36*
X32866345Y-52579835D02*
G01*
X32903329Y-52585321D01*
X32939598Y-52594406D01*
X32974802Y-52607002D01*
X33008602Y-52622988D01*
X33040672Y-52642210D01*
X33070704Y-52664483D01*
X33098408Y-52689592D01*
X33123517Y-52717296D01*
X33145790Y-52747328D01*
X33165012Y-52779398D01*
X33180998Y-52813198D01*
X33193594Y-52848402D01*
X33202679Y-52884671D01*
X33208165Y-52921655D01*
X33210000Y-52959000D01*
X33210000Y-53721000D01*
X33208165Y-53758345D01*
X33202679Y-53795329D01*
X33193594Y-53831598D01*
X33180998Y-53866802D01*
X33165012Y-53900602D01*
X33145790Y-53932672D01*
X33123517Y-53962704D01*
X33098408Y-53990408D01*
X33070704Y-54015517D01*
X33040672Y-54037790D01*
X33008602Y-54057012D01*
X32974802Y-54072998D01*
X32939598Y-54085594D01*
X32903329Y-54094679D01*
X32866345Y-54100165D01*
X32829000Y-54102000D01*
X25591000Y-54102000D01*
X25553655Y-54100165D01*
X25516671Y-54094679D01*
X25480402Y-54085594D01*
X25445198Y-54072998D01*
X25411398Y-54057012D01*
X25379328Y-54037790D01*
X25349296Y-54015517D01*
X25321592Y-53990408D01*
X25296483Y-53962704D01*
X25274210Y-53932672D01*
X25254988Y-53900602D01*
X25239002Y-53866802D01*
X25226406Y-53831598D01*
X25217321Y-53795329D01*
X25211835Y-53758345D01*
X25210000Y-53721000D01*
X25210000Y-52959000D01*
X25211835Y-52921655D01*
X25217321Y-52884671D01*
X25226406Y-52848402D01*
X25239002Y-52813198D01*
X25254988Y-52779398D01*
X25274210Y-52747328D01*
X25296483Y-52717296D01*
X25321592Y-52689592D01*
X25349296Y-52664483D01*
X25379328Y-52642210D01*
X25411398Y-52622988D01*
X25445198Y-52607002D01*
X25480402Y-52594406D01*
X25516671Y-52585321D01*
X25553655Y-52579835D01*
X25591000Y-52578000D01*
X32829000Y-52578000D01*
X32866345Y-52579835D01*
X32866345Y-52579835D01*
G37*
D16*
X29210000Y-53340000D03*
D15*
G36*
X32866345Y-55119835D02*
G01*
X32903329Y-55125321D01*
X32939598Y-55134406D01*
X32974802Y-55147002D01*
X33008602Y-55162988D01*
X33040672Y-55182210D01*
X33070704Y-55204483D01*
X33098408Y-55229592D01*
X33123517Y-55257296D01*
X33145790Y-55287328D01*
X33165012Y-55319398D01*
X33180998Y-55353198D01*
X33193594Y-55388402D01*
X33202679Y-55424671D01*
X33208165Y-55461655D01*
X33210000Y-55499000D01*
X33210000Y-56261000D01*
X33208165Y-56298345D01*
X33202679Y-56335329D01*
X33193594Y-56371598D01*
X33180998Y-56406802D01*
X33165012Y-56440602D01*
X33145790Y-56472672D01*
X33123517Y-56502704D01*
X33098408Y-56530408D01*
X33070704Y-56555517D01*
X33040672Y-56577790D01*
X33008602Y-56597012D01*
X32974802Y-56612998D01*
X32939598Y-56625594D01*
X32903329Y-56634679D01*
X32866345Y-56640165D01*
X32829000Y-56642000D01*
X25591000Y-56642000D01*
X25553655Y-56640165D01*
X25516671Y-56634679D01*
X25480402Y-56625594D01*
X25445198Y-56612998D01*
X25411398Y-56597012D01*
X25379328Y-56577790D01*
X25349296Y-56555517D01*
X25321592Y-56530408D01*
X25296483Y-56502704D01*
X25274210Y-56472672D01*
X25254988Y-56440602D01*
X25239002Y-56406802D01*
X25226406Y-56371598D01*
X25217321Y-56335329D01*
X25211835Y-56298345D01*
X25210000Y-56261000D01*
X25210000Y-55499000D01*
X25211835Y-55461655D01*
X25217321Y-55424671D01*
X25226406Y-55388402D01*
X25239002Y-55353198D01*
X25254988Y-55319398D01*
X25274210Y-55287328D01*
X25296483Y-55257296D01*
X25321592Y-55229592D01*
X25349296Y-55204483D01*
X25379328Y-55182210D01*
X25411398Y-55162988D01*
X25445198Y-55147002D01*
X25480402Y-55134406D01*
X25516671Y-55125321D01*
X25553655Y-55119835D01*
X25591000Y-55118000D01*
X32829000Y-55118000D01*
X32866345Y-55119835D01*
X32866345Y-55119835D01*
G37*
D16*
X29210000Y-55880000D03*
D15*
G36*
X32866345Y-57659835D02*
G01*
X32903329Y-57665321D01*
X32939598Y-57674406D01*
X32974802Y-57687002D01*
X33008602Y-57702988D01*
X33040672Y-57722210D01*
X33070704Y-57744483D01*
X33098408Y-57769592D01*
X33123517Y-57797296D01*
X33145790Y-57827328D01*
X33165012Y-57859398D01*
X33180998Y-57893198D01*
X33193594Y-57928402D01*
X33202679Y-57964671D01*
X33208165Y-58001655D01*
X33210000Y-58039000D01*
X33210000Y-58801000D01*
X33208165Y-58838345D01*
X33202679Y-58875329D01*
X33193594Y-58911598D01*
X33180998Y-58946802D01*
X33165012Y-58980602D01*
X33145790Y-59012672D01*
X33123517Y-59042704D01*
X33098408Y-59070408D01*
X33070704Y-59095517D01*
X33040672Y-59117790D01*
X33008602Y-59137012D01*
X32974802Y-59152998D01*
X32939598Y-59165594D01*
X32903329Y-59174679D01*
X32866345Y-59180165D01*
X32829000Y-59182000D01*
X25591000Y-59182000D01*
X25553655Y-59180165D01*
X25516671Y-59174679D01*
X25480402Y-59165594D01*
X25445198Y-59152998D01*
X25411398Y-59137012D01*
X25379328Y-59117790D01*
X25349296Y-59095517D01*
X25321592Y-59070408D01*
X25296483Y-59042704D01*
X25274210Y-59012672D01*
X25254988Y-58980602D01*
X25239002Y-58946802D01*
X25226406Y-58911598D01*
X25217321Y-58875329D01*
X25211835Y-58838345D01*
X25210000Y-58801000D01*
X25210000Y-58039000D01*
X25211835Y-58001655D01*
X25217321Y-57964671D01*
X25226406Y-57928402D01*
X25239002Y-57893198D01*
X25254988Y-57859398D01*
X25274210Y-57827328D01*
X25296483Y-57797296D01*
X25321592Y-57769592D01*
X25349296Y-57744483D01*
X25379328Y-57722210D01*
X25411398Y-57702988D01*
X25445198Y-57687002D01*
X25480402Y-57674406D01*
X25516671Y-57665321D01*
X25553655Y-57659835D01*
X25591000Y-57658000D01*
X32829000Y-57658000D01*
X32866345Y-57659835D01*
X32866345Y-57659835D01*
G37*
D16*
X29210000Y-58420000D03*
D15*
G36*
X32866345Y-60199835D02*
G01*
X32903329Y-60205321D01*
X32939598Y-60214406D01*
X32974802Y-60227002D01*
X33008602Y-60242988D01*
X33040672Y-60262210D01*
X33070704Y-60284483D01*
X33098408Y-60309592D01*
X33123517Y-60337296D01*
X33145790Y-60367328D01*
X33165012Y-60399398D01*
X33180998Y-60433198D01*
X33193594Y-60468402D01*
X33202679Y-60504671D01*
X33208165Y-60541655D01*
X33210000Y-60579000D01*
X33210000Y-61341000D01*
X33208165Y-61378345D01*
X33202679Y-61415329D01*
X33193594Y-61451598D01*
X33180998Y-61486802D01*
X33165012Y-61520602D01*
X33145790Y-61552672D01*
X33123517Y-61582704D01*
X33098408Y-61610408D01*
X33070704Y-61635517D01*
X33040672Y-61657790D01*
X33008602Y-61677012D01*
X32974802Y-61692998D01*
X32939598Y-61705594D01*
X32903329Y-61714679D01*
X32866345Y-61720165D01*
X32829000Y-61722000D01*
X25591000Y-61722000D01*
X25553655Y-61720165D01*
X25516671Y-61714679D01*
X25480402Y-61705594D01*
X25445198Y-61692998D01*
X25411398Y-61677012D01*
X25379328Y-61657790D01*
X25349296Y-61635517D01*
X25321592Y-61610408D01*
X25296483Y-61582704D01*
X25274210Y-61552672D01*
X25254988Y-61520602D01*
X25239002Y-61486802D01*
X25226406Y-61451598D01*
X25217321Y-61415329D01*
X25211835Y-61378345D01*
X25210000Y-61341000D01*
X25210000Y-60579000D01*
X25211835Y-60541655D01*
X25217321Y-60504671D01*
X25226406Y-60468402D01*
X25239002Y-60433198D01*
X25254988Y-60399398D01*
X25274210Y-60367328D01*
X25296483Y-60337296D01*
X25321592Y-60309592D01*
X25349296Y-60284483D01*
X25379328Y-60262210D01*
X25411398Y-60242988D01*
X25445198Y-60227002D01*
X25480402Y-60214406D01*
X25516671Y-60205321D01*
X25553655Y-60199835D01*
X25591000Y-60198000D01*
X32829000Y-60198000D01*
X32866345Y-60199835D01*
X32866345Y-60199835D01*
G37*
D16*
X29210000Y-60960000D03*
D15*
G36*
X32866345Y-65279835D02*
G01*
X32903329Y-65285321D01*
X32939598Y-65294406D01*
X32974802Y-65307002D01*
X33008602Y-65322988D01*
X33040672Y-65342210D01*
X33070704Y-65364483D01*
X33098408Y-65389592D01*
X33123517Y-65417296D01*
X33145790Y-65447328D01*
X33165012Y-65479398D01*
X33180998Y-65513198D01*
X33193594Y-65548402D01*
X33202679Y-65584671D01*
X33208165Y-65621655D01*
X33210000Y-65659000D01*
X33210000Y-66421000D01*
X33208165Y-66458345D01*
X33202679Y-66495329D01*
X33193594Y-66531598D01*
X33180998Y-66566802D01*
X33165012Y-66600602D01*
X33145790Y-66632672D01*
X33123517Y-66662704D01*
X33098408Y-66690408D01*
X33070704Y-66715517D01*
X33040672Y-66737790D01*
X33008602Y-66757012D01*
X32974802Y-66772998D01*
X32939598Y-66785594D01*
X32903329Y-66794679D01*
X32866345Y-66800165D01*
X32829000Y-66802000D01*
X25591000Y-66802000D01*
X25553655Y-66800165D01*
X25516671Y-66794679D01*
X25480402Y-66785594D01*
X25445198Y-66772998D01*
X25411398Y-66757012D01*
X25379328Y-66737790D01*
X25349296Y-66715517D01*
X25321592Y-66690408D01*
X25296483Y-66662704D01*
X25274210Y-66632672D01*
X25254988Y-66600602D01*
X25239002Y-66566802D01*
X25226406Y-66531598D01*
X25217321Y-66495329D01*
X25211835Y-66458345D01*
X25210000Y-66421000D01*
X25210000Y-65659000D01*
X25211835Y-65621655D01*
X25217321Y-65584671D01*
X25226406Y-65548402D01*
X25239002Y-65513198D01*
X25254988Y-65479398D01*
X25274210Y-65447328D01*
X25296483Y-65417296D01*
X25321592Y-65389592D01*
X25349296Y-65364483D01*
X25379328Y-65342210D01*
X25411398Y-65322988D01*
X25445198Y-65307002D01*
X25480402Y-65294406D01*
X25516671Y-65285321D01*
X25553655Y-65279835D01*
X25591000Y-65278000D01*
X32829000Y-65278000D01*
X32866345Y-65279835D01*
X32866345Y-65279835D01*
G37*
D16*
X29210000Y-66040000D03*
D15*
G36*
X32866345Y-67819835D02*
G01*
X32903329Y-67825321D01*
X32939598Y-67834406D01*
X32974802Y-67847002D01*
X33008602Y-67862988D01*
X33040672Y-67882210D01*
X33070704Y-67904483D01*
X33098408Y-67929592D01*
X33123517Y-67957296D01*
X33145790Y-67987328D01*
X33165012Y-68019398D01*
X33180998Y-68053198D01*
X33193594Y-68088402D01*
X33202679Y-68124671D01*
X33208165Y-68161655D01*
X33210000Y-68199000D01*
X33210000Y-68961000D01*
X33208165Y-68998345D01*
X33202679Y-69035329D01*
X33193594Y-69071598D01*
X33180998Y-69106802D01*
X33165012Y-69140602D01*
X33145790Y-69172672D01*
X33123517Y-69202704D01*
X33098408Y-69230408D01*
X33070704Y-69255517D01*
X33040672Y-69277790D01*
X33008602Y-69297012D01*
X32974802Y-69312998D01*
X32939598Y-69325594D01*
X32903329Y-69334679D01*
X32866345Y-69340165D01*
X32829000Y-69342000D01*
X25591000Y-69342000D01*
X25553655Y-69340165D01*
X25516671Y-69334679D01*
X25480402Y-69325594D01*
X25445198Y-69312998D01*
X25411398Y-69297012D01*
X25379328Y-69277790D01*
X25349296Y-69255517D01*
X25321592Y-69230408D01*
X25296483Y-69202704D01*
X25274210Y-69172672D01*
X25254988Y-69140602D01*
X25239002Y-69106802D01*
X25226406Y-69071598D01*
X25217321Y-69035329D01*
X25211835Y-68998345D01*
X25210000Y-68961000D01*
X25210000Y-68199000D01*
X25211835Y-68161655D01*
X25217321Y-68124671D01*
X25226406Y-68088402D01*
X25239002Y-68053198D01*
X25254988Y-68019398D01*
X25274210Y-67987328D01*
X25296483Y-67957296D01*
X25321592Y-67929592D01*
X25349296Y-67904483D01*
X25379328Y-67882210D01*
X25411398Y-67862988D01*
X25445198Y-67847002D01*
X25480402Y-67834406D01*
X25516671Y-67825321D01*
X25553655Y-67819835D01*
X25591000Y-67818000D01*
X32829000Y-67818000D01*
X32866345Y-67819835D01*
X32866345Y-67819835D01*
G37*
D16*
X29210000Y-68580000D03*
D17*
X59460000Y-36830000D03*
D18*
X60960000Y-36830000D03*
D19*
X60960000Y-66040000D03*
X55880000Y-26035000D03*
X36830000Y-27940000D03*
X59690000Y-27940000D03*
X58420000Y-64770000D03*
X44450000Y-39550000D03*
X36830000Y-39550000D03*
X44450000Y-29390001D03*
X43180000Y-33020000D03*
X40640000Y-34835000D03*
X51874847Y-34729847D03*
X52070000Y-39550000D03*
X57785000Y-39550000D03*
X60960000Y-34835000D03*
X57695000Y-38100000D03*
X59690000Y-41185000D03*
X64135000Y-41910000D03*
X63500000Y-63500000D03*
X39370000Y-46449990D03*
X41910000Y-47535000D03*
X55245000Y-50800000D03*
X46990000Y-60110000D03*
X34925000Y-26125000D03*
X34925000Y-29120000D03*
X47080001Y-28790000D03*
X34925000Y-31115000D03*
X49530000Y-29935000D03*
X34925000Y-33745000D03*
X52070000Y-33745000D03*
X34925000Y-36195000D03*
X35980000Y-26862565D03*
X54065000Y-34470000D03*
X34925000Y-38825000D03*
X40550000Y-38825000D03*
X63805000Y-38100000D03*
X34925000Y-41365000D03*
X34925000Y-43815000D03*
X34925000Y-46445000D03*
X34925000Y-48895000D03*
X34925000Y-51525000D03*
X34925000Y-54065000D03*
X34925000Y-56515000D03*
X34925000Y-59145000D03*
X34925000Y-61595000D03*
X58420000Y-57150000D03*
X60960000Y-44450000D03*
X62955000Y-43905000D03*
X34925000Y-66765000D03*
X44450000Y-66765000D03*
X34925000Y-69215000D03*
X36195000Y-52250000D03*
X45720000Y-52250000D03*
X48260000Y-52250000D03*
X55880000Y-52250000D03*
X45720000Y-46900000D03*
X58420000Y-46900000D03*
X48260000Y-26489999D03*
X57150000Y-26489999D03*
X57060000Y-35560000D03*
X58420000Y-40550000D03*
X39370000Y-40550000D03*
D20*
X60960000Y-66040000D02*
X60960000Y-69850000D01*
X60960000Y-62230000D02*
X60960000Y-66040000D01*
X60960000Y-62230000D02*
X60960000Y-52070000D01*
X60960000Y-52070000D02*
X62230000Y-50800000D01*
X60960000Y-37680000D02*
X60960000Y-36830000D01*
X62230000Y-38950000D02*
X60960000Y-37680000D01*
X62230000Y-50800000D02*
X62230000Y-38950000D01*
X52849999Y-45575001D02*
X50655001Y-45575001D01*
X53340000Y-45085000D02*
X52849999Y-45575001D01*
X57785000Y-34050002D02*
X57785000Y-36936998D01*
X53340000Y-41381998D02*
X53340000Y-45085000D01*
X50655001Y-45575001D02*
X49530000Y-44450000D01*
X55880000Y-32145002D02*
X57785000Y-34050002D01*
X57785000Y-36936998D02*
X53340000Y-41381998D01*
X55880000Y-26035000D02*
X55880000Y-32145002D01*
D21*
X36830000Y-27940000D02*
X36830000Y-24130000D01*
X59690000Y-27940000D02*
X59690000Y-24130000D01*
X58420000Y-64770000D02*
X58420000Y-69850000D01*
X36830000Y-36195000D02*
X36830000Y-36830000D01*
X38080001Y-34944999D02*
X36830000Y-36195000D01*
X38080001Y-29190001D02*
X38080001Y-34944999D01*
X36830000Y-27940000D02*
X38080001Y-29190001D01*
X38080001Y-43795001D02*
X38100000Y-49530000D01*
X36830000Y-42545000D02*
X38080001Y-43795001D01*
X36830000Y-36830000D02*
X36830000Y-42545000D01*
X38100000Y-54610000D02*
X38100000Y-49530000D01*
X39370000Y-55880000D02*
X38100000Y-54610000D01*
X39370000Y-59690000D02*
X39370000Y-55880000D01*
X36830000Y-62230000D02*
X39370000Y-59690000D01*
D20*
X44450000Y-36830000D02*
X44450000Y-39550000D01*
X44450000Y-24130000D02*
X44450000Y-29390001D01*
X41910000Y-24130000D02*
X41910000Y-27940000D01*
X41910000Y-27940000D02*
X43180000Y-29210000D01*
X43180000Y-29210000D02*
X43180000Y-33020000D01*
X39370000Y-24130000D02*
X39370000Y-27940000D01*
X40640000Y-29210000D02*
X40640000Y-34835000D01*
X39370000Y-27940000D02*
X40640000Y-29210000D01*
X52889990Y-35744990D02*
X52889990Y-35746400D01*
X51874847Y-34729847D02*
X52889990Y-35744990D01*
X53195001Y-36051411D02*
X53195001Y-38424999D01*
X53195001Y-38424999D02*
X52070000Y-39550000D01*
X52889990Y-35746400D02*
X53195001Y-36051411D01*
X57785000Y-39370000D02*
X57785000Y-39550000D01*
X57695000Y-39280000D02*
X57785000Y-39370000D01*
X57785000Y-39550000D02*
X58420000Y-38915000D01*
X58420000Y-38915000D02*
X58420000Y-36830000D01*
X58420000Y-36830000D02*
X58420000Y-36195000D01*
X59780000Y-34835000D02*
X60960000Y-34835000D01*
X58420000Y-36195000D02*
X59780000Y-34835000D01*
X50800000Y-49530000D02*
X52070000Y-48260000D01*
X52070000Y-48260000D02*
X53975000Y-48260000D01*
X57295001Y-38499999D02*
X57695000Y-38100000D01*
X57059999Y-38735001D02*
X57295001Y-38499999D01*
X57059999Y-45175001D02*
X57059999Y-38735001D01*
X53975000Y-48260000D02*
X57059999Y-45175001D01*
X59690000Y-41750685D02*
X59690000Y-41185000D01*
X59690000Y-44230000D02*
X59690000Y-41750685D01*
X54390000Y-49530000D02*
X59690000Y-44230000D01*
X53340000Y-49530000D02*
X54390000Y-49530000D01*
X64135000Y-62865000D02*
X63500000Y-63500000D01*
X64135000Y-41910000D02*
X64135000Y-62865000D01*
X40640000Y-55880000D02*
X40640000Y-57150000D01*
X39370000Y-54610000D02*
X40640000Y-55880000D01*
X39370000Y-46449990D02*
X39370000Y-54610000D01*
X41910000Y-47626410D02*
X41910000Y-47535000D01*
X41910000Y-55880000D02*
X41910000Y-47535000D01*
X41910000Y-55880000D02*
X43180000Y-57150000D01*
X55154999Y-50890001D02*
X55245000Y-50800000D01*
X52070000Y-62230000D02*
X55154999Y-59145001D01*
X55154999Y-59145001D02*
X55154999Y-50890001D01*
X46990000Y-62230000D02*
X46990000Y-60110000D01*
X34200000Y-25400000D02*
X34925000Y-26125000D01*
X29210000Y-25400000D02*
X34200000Y-25400000D01*
X29210000Y-27940000D02*
X33655000Y-27940000D01*
X34835000Y-29120000D02*
X34925000Y-29120000D01*
X33655000Y-27940000D02*
X34835000Y-29120000D01*
X46990000Y-28699999D02*
X47080001Y-28790000D01*
X46990000Y-24130000D02*
X46990000Y-28699999D01*
X29210000Y-30480000D02*
X34290000Y-30480000D01*
X34290000Y-30480000D02*
X34925000Y-31115000D01*
X49530000Y-24130000D02*
X49530000Y-29935000D01*
X29210000Y-33020000D02*
X33655000Y-33020000D01*
X34200000Y-33020000D02*
X34925000Y-33745000D01*
X33655000Y-33020000D02*
X34200000Y-33020000D01*
X52070000Y-24130000D02*
X52070000Y-29210000D01*
X52070000Y-29210000D02*
X50944999Y-30335001D01*
X50944999Y-30335001D02*
X50800000Y-30480000D01*
X50800000Y-30480000D02*
X50800000Y-31750000D01*
X52070000Y-33653590D02*
X52070000Y-33745000D01*
X50800000Y-32383590D02*
X52070000Y-33653590D01*
X50800000Y-31750000D02*
X50800000Y-32383590D01*
X34290000Y-35560000D02*
X34925000Y-36195000D01*
X29210000Y-35560000D02*
X34290000Y-35560000D01*
X34925000Y-35560000D02*
X35650001Y-34834999D01*
X35650001Y-34834999D02*
X35650001Y-27192564D01*
X35650001Y-27192564D02*
X35980000Y-26862565D01*
X34925000Y-36195000D02*
X34925000Y-35560000D01*
X53340000Y-32383590D02*
X53975705Y-33019295D01*
X53340000Y-30480000D02*
X53340000Y-32383590D01*
X54610000Y-29210000D02*
X53340000Y-30480000D01*
X54610000Y-24130000D02*
X54610000Y-29210000D01*
X53975705Y-34380705D02*
X54065000Y-34470000D01*
X53975705Y-33019295D02*
X53975705Y-34380705D01*
X34200000Y-38100000D02*
X34925000Y-38825000D01*
X29210000Y-38100000D02*
X34200000Y-38100000D01*
X63805000Y-33325000D02*
X63805000Y-38100000D01*
X58420000Y-26670000D02*
X58420000Y-27940000D01*
X57150000Y-25400000D02*
X58420000Y-26670000D01*
X57150000Y-24130000D02*
X57150000Y-25400000D01*
X58420000Y-27940000D02*
X63805000Y-33325000D01*
X34290000Y-40730000D02*
X34925000Y-41365000D01*
X34200000Y-40640000D02*
X34290000Y-40730000D01*
X29210000Y-40640000D02*
X34200000Y-40640000D01*
X29210000Y-43180000D02*
X33655000Y-43180000D01*
X34290000Y-43180000D02*
X34925000Y-43815000D01*
X33655000Y-43180000D02*
X34290000Y-43180000D01*
X29210000Y-45720000D02*
X33655000Y-45720000D01*
X34200000Y-45720000D02*
X34925000Y-46445000D01*
X33655000Y-45720000D02*
X34200000Y-45720000D01*
X29210000Y-48260000D02*
X33655000Y-48260000D01*
X34290000Y-48260000D02*
X34925000Y-48895000D01*
X33655000Y-48260000D02*
X34290000Y-48260000D01*
X29210000Y-50800000D02*
X33655000Y-50800000D01*
X34200000Y-50800000D02*
X34925000Y-51525000D01*
X33655000Y-50800000D02*
X34200000Y-50800000D01*
X29210000Y-53340000D02*
X33655000Y-53340000D01*
X34200000Y-53340000D02*
X34925000Y-54065000D01*
X33655000Y-53340000D02*
X34200000Y-53340000D01*
X29210000Y-55880000D02*
X33655000Y-55880000D01*
X34290000Y-55880000D02*
X34925000Y-56515000D01*
X33655000Y-55880000D02*
X34290000Y-55880000D01*
X29210000Y-58420000D02*
X33655000Y-58420000D01*
X34200000Y-58420000D02*
X34925000Y-59145000D01*
X33655000Y-58420000D02*
X34200000Y-58420000D01*
D21*
X29210000Y-60960000D02*
X33655000Y-60960000D01*
X34290000Y-60960000D02*
X34925000Y-61595000D01*
X33655000Y-60960000D02*
X34290000Y-60960000D01*
X58420000Y-57150000D02*
X58420000Y-62230000D01*
X54610000Y-66040000D02*
X54610000Y-69850000D01*
X58420000Y-62230000D02*
X54610000Y-66040000D01*
X58420000Y-52070000D02*
X60960000Y-49530000D01*
X58420000Y-57150000D02*
X58420000Y-52070000D01*
X60960000Y-49530000D02*
X60960000Y-44450000D01*
X62955000Y-35015000D02*
X62955000Y-43905000D01*
X59690000Y-31750000D02*
X62955000Y-35015000D01*
D20*
X29210000Y-66040000D02*
X33655000Y-66040000D01*
X34200000Y-66040000D02*
X34925000Y-66765000D01*
X33655000Y-66040000D02*
X34200000Y-66040000D01*
X44450000Y-62230000D02*
X44450000Y-66765000D01*
X29210000Y-68580000D02*
X34290000Y-68580000D01*
X34290000Y-68580000D02*
X34925000Y-69215000D01*
X40640000Y-44054998D02*
X40640000Y-49530000D01*
X41910000Y-42784998D02*
X40640000Y-44054998D01*
X41910000Y-36830000D02*
X41910000Y-42784998D01*
X35704999Y-51759999D02*
X36195000Y-52250000D01*
X35704999Y-36050001D02*
X35704999Y-51759999D01*
X35704999Y-36050001D02*
X36830000Y-34925000D01*
X36830000Y-34925000D02*
X36830000Y-31750000D01*
X45720000Y-52250000D02*
X45720000Y-49530000D01*
X46990000Y-53520000D02*
X45720000Y-52250000D01*
X48260000Y-58815002D02*
X46990000Y-57545002D01*
X46990000Y-57545002D02*
X46990000Y-53520000D01*
X48260000Y-68580000D02*
X48260000Y-58815002D01*
X49530000Y-69850000D02*
X48260000Y-68580000D01*
X36434998Y-63500000D02*
X35650001Y-62715003D01*
X35650001Y-59599999D02*
X38100000Y-57150000D01*
X35650001Y-62715003D02*
X35650001Y-59599999D01*
X40640000Y-63500000D02*
X36434998Y-63500000D01*
X41910000Y-62230000D02*
X40640000Y-63500000D01*
X55880000Y-52250000D02*
X55880000Y-59690000D01*
X54610000Y-60960000D02*
X54610000Y-62230000D01*
X55880000Y-59690000D02*
X54610000Y-60960000D01*
X48260000Y-52250000D02*
X48260000Y-49530000D01*
X58420000Y-46900000D02*
X58420000Y-49530000D01*
X46990000Y-42784998D02*
X46990000Y-36830000D01*
X45720000Y-44054998D02*
X46990000Y-42784998D01*
X45720000Y-46900000D02*
X45720000Y-44054998D01*
X45720000Y-46990000D02*
X45720000Y-46900000D01*
X43180000Y-49530000D02*
X45720000Y-46990000D01*
X49530000Y-31750000D02*
X50800000Y-33020000D01*
X50800000Y-43180000D02*
X52070000Y-44450000D01*
X50800000Y-33020000D02*
X50800000Y-43180000D01*
X48260000Y-43180000D02*
X46990000Y-44450000D01*
X48260000Y-33020000D02*
X48260000Y-43180000D01*
X46990000Y-31750000D02*
X48260000Y-33020000D01*
X44450000Y-31750000D02*
X45720000Y-33020000D01*
X45720000Y-33020000D02*
X45720000Y-43180000D01*
X45720000Y-43180000D02*
X44450000Y-44450000D01*
X41910000Y-35164998D02*
X41910000Y-31750000D01*
X43180000Y-36434998D02*
X41910000Y-35164998D01*
X43180000Y-43180000D02*
X43180000Y-36434998D01*
X41910000Y-44450000D02*
X43180000Y-43180000D01*
X49530000Y-33415002D02*
X48260000Y-32145002D01*
X49530000Y-36830000D02*
X49530000Y-33415002D01*
X48260000Y-32145002D02*
X48260000Y-26489999D01*
X57150000Y-26489999D02*
X57150000Y-31750000D01*
X39370000Y-43318630D02*
X38100000Y-42048630D01*
X39370000Y-44450000D02*
X39370000Y-43318630D01*
X38100000Y-36434998D02*
X39370000Y-35164998D01*
X38100000Y-42048630D02*
X38100000Y-36434998D01*
X39370000Y-35164998D02*
X39370000Y-31750000D01*
X57060000Y-34200000D02*
X54610000Y-31750000D01*
X57060000Y-35560000D02*
X57060000Y-34200000D01*
X53340000Y-35560000D02*
X54610000Y-36830000D01*
X53340000Y-33020000D02*
X53340000Y-35560000D01*
X52070000Y-31750000D02*
X53340000Y-33020000D01*
X59460000Y-39510000D02*
X58420000Y-40550000D01*
X59460000Y-36830000D02*
X59460000Y-39510000D01*
X39370000Y-40550000D02*
X39370000Y-36830000D01*
D22*
G36*
X72507869Y-20994722D02*
G01*
X72621246Y-21028953D01*
X72725819Y-21084555D01*
X72817596Y-21159407D01*
X72893091Y-21250664D01*
X72949419Y-21354844D01*
X72984440Y-21467976D01*
X73000000Y-21616022D01*
X73000001Y-72357711D01*
X72985278Y-72507869D01*
X72951047Y-72621246D01*
X72895446Y-72725817D01*
X72820594Y-72817595D01*
X72729335Y-72893091D01*
X72625160Y-72949419D01*
X72512024Y-72984440D01*
X72363979Y-73000000D01*
X36862279Y-73000000D01*
X36712131Y-72985278D01*
X36598754Y-72951047D01*
X36494183Y-72895446D01*
X36402405Y-72820594D01*
X36326909Y-72729335D01*
X36270581Y-72625160D01*
X36235560Y-72512024D01*
X36217145Y-72336813D01*
X36217253Y-72321318D01*
X36216354Y-72312147D01*
X36190446Y-72065644D01*
X36178414Y-72007028D01*
X36167208Y-71948284D01*
X36164544Y-71939462D01*
X36091249Y-71702686D01*
X36068074Y-71647555D01*
X36045661Y-71592080D01*
X36041334Y-71583944D01*
X35923446Y-71365914D01*
X35890012Y-71316346D01*
X35857240Y-71266265D01*
X35851416Y-71259124D01*
X35693423Y-71068144D01*
X35650988Y-71026005D01*
X35609125Y-70983255D01*
X35602024Y-70977381D01*
X35409946Y-70820727D01*
X35360169Y-70787655D01*
X35310763Y-70753826D01*
X35302657Y-70749444D01*
X35083809Y-70633081D01*
X35028532Y-70610298D01*
X34973525Y-70586721D01*
X34964722Y-70583997D01*
X34727441Y-70512357D01*
X34668754Y-70500736D01*
X34610248Y-70488300D01*
X34601085Y-70487337D01*
X34601083Y-70487337D01*
X34354405Y-70463150D01*
X34354402Y-70463150D01*
X34322419Y-70460000D01*
X33782000Y-70460000D01*
X33782000Y-69340000D01*
X33894587Y-69340000D01*
X33929774Y-69516898D01*
X34007795Y-69705256D01*
X34121063Y-69874774D01*
X34265226Y-70018937D01*
X34434744Y-70132205D01*
X34623102Y-70210226D01*
X34823061Y-70250000D01*
X35026939Y-70250000D01*
X35226898Y-70210226D01*
X35415256Y-70132205D01*
X35415904Y-70131772D01*
X35497818Y-70401808D01*
X35631068Y-70651101D01*
X35810392Y-70869608D01*
X36028899Y-71048932D01*
X36278192Y-71182182D01*
X36548691Y-71264236D01*
X36759508Y-71285000D01*
X36900492Y-71285000D01*
X37111309Y-71264236D01*
X37381808Y-71182182D01*
X37631101Y-71048932D01*
X37849608Y-70869608D01*
X38028932Y-70651101D01*
X38100000Y-70518142D01*
X38171068Y-70651101D01*
X38350392Y-70869608D01*
X38568899Y-71048932D01*
X38818192Y-71182182D01*
X39088691Y-71264236D01*
X39299508Y-71285000D01*
X39440492Y-71285000D01*
X39651309Y-71264236D01*
X39921808Y-71182182D01*
X40171101Y-71048932D01*
X40389608Y-70869608D01*
X40568932Y-70651101D01*
X40640000Y-70518142D01*
X40711068Y-70651101D01*
X40890392Y-70869608D01*
X41108899Y-71048932D01*
X41358192Y-71182182D01*
X41628691Y-71264236D01*
X41839508Y-71285000D01*
X41980492Y-71285000D01*
X42191309Y-71264236D01*
X42461808Y-71182182D01*
X42711101Y-71048932D01*
X42929608Y-70869608D01*
X43108932Y-70651101D01*
X43180000Y-70518142D01*
X43251068Y-70651101D01*
X43430392Y-70869608D01*
X43648899Y-71048932D01*
X43898192Y-71182182D01*
X44168691Y-71264236D01*
X44379508Y-71285000D01*
X44520492Y-71285000D01*
X44731309Y-71264236D01*
X45001808Y-71182182D01*
X45251101Y-71048932D01*
X45469608Y-70869608D01*
X45648932Y-70651101D01*
X45720000Y-70518142D01*
X45791068Y-70651101D01*
X45970392Y-70869608D01*
X46188899Y-71048932D01*
X46438192Y-71182182D01*
X46708691Y-71264236D01*
X46919508Y-71285000D01*
X47060492Y-71285000D01*
X47271309Y-71264236D01*
X47541808Y-71182182D01*
X47791101Y-71048932D01*
X48009608Y-70869608D01*
X48188932Y-70651101D01*
X48260000Y-70518142D01*
X48331068Y-70651101D01*
X48510392Y-70869608D01*
X48728899Y-71048932D01*
X48978192Y-71182182D01*
X49248691Y-71264236D01*
X49459508Y-71285000D01*
X49600492Y-71285000D01*
X49811309Y-71264236D01*
X50081808Y-71182182D01*
X50331101Y-71048932D01*
X50549608Y-70869608D01*
X50728932Y-70651101D01*
X50800000Y-70518142D01*
X50871068Y-70651101D01*
X51050392Y-70869608D01*
X51268899Y-71048932D01*
X51518192Y-71182182D01*
X51788691Y-71264236D01*
X51999508Y-71285000D01*
X52140492Y-71285000D01*
X52351309Y-71264236D01*
X52621808Y-71182182D01*
X52871101Y-71048932D01*
X53089608Y-70869608D01*
X53268932Y-70651101D01*
X53342579Y-70513318D01*
X53457615Y-70705131D01*
X53646586Y-70913519D01*
X53872580Y-71081037D01*
X54126913Y-71201246D01*
X54260961Y-71241904D01*
X54483000Y-71119915D01*
X54483000Y-69977000D01*
X54737000Y-69977000D01*
X54737000Y-71119915D01*
X54959039Y-71241904D01*
X55093087Y-71201246D01*
X55347420Y-71081037D01*
X55573414Y-70913519D01*
X55762385Y-70705131D01*
X55907070Y-70463881D01*
X56001909Y-70199040D01*
X55880624Y-69977000D01*
X54737000Y-69977000D01*
X54483000Y-69977000D01*
X54463000Y-69977000D01*
X54463000Y-69723000D01*
X54483000Y-69723000D01*
X54483000Y-68580085D01*
X54737000Y-68580085D01*
X54737000Y-69723000D01*
X55880624Y-69723000D01*
X56001909Y-69500960D01*
X55907070Y-69236119D01*
X55762385Y-68994869D01*
X55573414Y-68786481D01*
X55347420Y-68618963D01*
X55093087Y-68498754D01*
X54959039Y-68458096D01*
X54737000Y-68580085D01*
X54483000Y-68580085D01*
X54260961Y-68458096D01*
X54126913Y-68498754D01*
X53872580Y-68618963D01*
X53646586Y-68786481D01*
X53457615Y-68994869D01*
X53342579Y-69186682D01*
X53268932Y-69048899D01*
X53089608Y-68830392D01*
X52871101Y-68651068D01*
X52621808Y-68517818D01*
X52351309Y-68435764D01*
X52140492Y-68415000D01*
X51999508Y-68415000D01*
X51788691Y-68435764D01*
X51518192Y-68517818D01*
X51268899Y-68651068D01*
X51050392Y-68830392D01*
X50871068Y-69048899D01*
X50800000Y-69181858D01*
X50728932Y-69048899D01*
X50549608Y-68830392D01*
X50331101Y-68651068D01*
X50081808Y-68517818D01*
X49811309Y-68435764D01*
X49600492Y-68415000D01*
X49459508Y-68415000D01*
X49248691Y-68435764D01*
X49204094Y-68449292D01*
X49020000Y-68265199D01*
X49020000Y-63574864D01*
X49248691Y-63644236D01*
X49459508Y-63665000D01*
X49600492Y-63665000D01*
X49811309Y-63644236D01*
X50081808Y-63562182D01*
X50331101Y-63428932D01*
X50549608Y-63249608D01*
X50728932Y-63031101D01*
X50800000Y-62898142D01*
X50871068Y-63031101D01*
X51050392Y-63249608D01*
X51268899Y-63428932D01*
X51518192Y-63562182D01*
X51788691Y-63644236D01*
X51999508Y-63665000D01*
X52140492Y-63665000D01*
X52351309Y-63644236D01*
X52621808Y-63562182D01*
X52871101Y-63428932D01*
X53089608Y-63249608D01*
X53182419Y-63136518D01*
X53184188Y-63154482D01*
X53220498Y-63274180D01*
X53279463Y-63384494D01*
X53358815Y-63481185D01*
X53455506Y-63560537D01*
X53565820Y-63619502D01*
X53685518Y-63655812D01*
X53810000Y-63668072D01*
X55410000Y-63668072D01*
X55534482Y-63655812D01*
X55654180Y-63619502D01*
X55764494Y-63560537D01*
X55861185Y-63481185D01*
X55940537Y-63384494D01*
X55999502Y-63274180D01*
X56035812Y-63154482D01*
X56048072Y-63030000D01*
X56048072Y-62579039D01*
X57028096Y-62579039D01*
X57068754Y-62713087D01*
X57188963Y-62967420D01*
X57356481Y-63193414D01*
X57564869Y-63382385D01*
X57806119Y-63527070D01*
X58070960Y-63621909D01*
X58293000Y-63500624D01*
X58293000Y-62357000D01*
X57150085Y-62357000D01*
X57028096Y-62579039D01*
X56048072Y-62579039D01*
X56048072Y-61880961D01*
X57028096Y-61880961D01*
X57150085Y-62103000D01*
X58293000Y-62103000D01*
X58293000Y-60959376D01*
X58070960Y-60838091D01*
X57806119Y-60932930D01*
X57564869Y-61077615D01*
X57356481Y-61266586D01*
X57188963Y-61492580D01*
X57068754Y-61746913D01*
X57028096Y-61880961D01*
X56048072Y-61880961D01*
X56048072Y-61430000D01*
X56035812Y-61305518D01*
X55999502Y-61185820D01*
X55940537Y-61075506D01*
X55861185Y-60978815D01*
X55764494Y-60899463D01*
X55752011Y-60892791D01*
X56391003Y-60253799D01*
X56420001Y-60230001D01*
X56514974Y-60114276D01*
X56585546Y-59982247D01*
X56629003Y-59838986D01*
X56640000Y-59727333D01*
X56640000Y-59727324D01*
X56643676Y-59690001D01*
X56640000Y-59652678D01*
X56640000Y-52953711D01*
X56683937Y-52909774D01*
X56797205Y-52740256D01*
X56875226Y-52551898D01*
X56915000Y-52351939D01*
X56915000Y-52148061D01*
X56875226Y-51948102D01*
X56797205Y-51759744D01*
X56683937Y-51590226D01*
X56539774Y-51446063D01*
X56370256Y-51332795D01*
X56181898Y-51254774D01*
X56177283Y-51253856D01*
X56240226Y-51101898D01*
X56280000Y-50901939D01*
X56280000Y-50698061D01*
X56240226Y-50498102D01*
X56162205Y-50309744D01*
X56048937Y-50140226D01*
X55904774Y-49996063D01*
X55735256Y-49882795D01*
X55546898Y-49804774D01*
X55346939Y-49765000D01*
X55229801Y-49765000D01*
X57543550Y-47451251D01*
X57616063Y-47559774D01*
X57660000Y-47603711D01*
X57660001Y-48309099D01*
X57618899Y-48331068D01*
X57400392Y-48510392D01*
X57221068Y-48728899D01*
X57087818Y-48978192D01*
X57005764Y-49248691D01*
X56978057Y-49530000D01*
X57005764Y-49811309D01*
X57087818Y-50081808D01*
X57221068Y-50331101D01*
X57400392Y-50549608D01*
X57618899Y-50728932D01*
X57868192Y-50862182D01*
X58138691Y-50944236D01*
X58349508Y-50965000D01*
X58490492Y-50965000D01*
X58701309Y-50944236D01*
X58971808Y-50862182D01*
X59221101Y-50728932D01*
X59439608Y-50549608D01*
X59618932Y-50331101D01*
X59687056Y-50203651D01*
X59723329Y-50271514D01*
X59967298Y-50343097D01*
X60780395Y-49530000D01*
X59967298Y-48716903D01*
X59723329Y-48788486D01*
X59689264Y-48860480D01*
X59618932Y-48728899D01*
X59439608Y-48510392D01*
X59221101Y-48331068D01*
X59180000Y-48309099D01*
X59180000Y-47603711D01*
X59223937Y-47559774D01*
X59337205Y-47390256D01*
X59415226Y-47201898D01*
X59455000Y-47001939D01*
X59455000Y-46798061D01*
X59415226Y-46598102D01*
X59337205Y-46409744D01*
X59223937Y-46240226D01*
X59079774Y-46096063D01*
X58971251Y-46023551D01*
X60201004Y-44793798D01*
X60230001Y-44770001D01*
X60261755Y-44731309D01*
X60324974Y-44654277D01*
X60395546Y-44522247D01*
X60408581Y-44479274D01*
X60439003Y-44378986D01*
X60450000Y-44267333D01*
X60450000Y-44267323D01*
X60453676Y-44230000D01*
X60450000Y-44192677D01*
X60450000Y-41888711D01*
X60493937Y-41844774D01*
X60607205Y-41675256D01*
X60685226Y-41486898D01*
X60725000Y-41286939D01*
X60725000Y-41083061D01*
X60685226Y-40883102D01*
X60607205Y-40694744D01*
X60493937Y-40525226D01*
X60349774Y-40381063D01*
X60180256Y-40267795D01*
X59991898Y-40189774D01*
X59877736Y-40167066D01*
X59971003Y-40073799D01*
X60000001Y-40050001D01*
X60036955Y-40004973D01*
X60094974Y-39934277D01*
X60165546Y-39802247D01*
X60192413Y-39713676D01*
X60209003Y-39658986D01*
X60220000Y-39547333D01*
X60220000Y-39547324D01*
X60223676Y-39510001D01*
X60220000Y-39472678D01*
X60220000Y-38051105D01*
X60235518Y-38055812D01*
X60302656Y-38062424D01*
X60325026Y-38104276D01*
X60363637Y-38151323D01*
X60419999Y-38220001D01*
X60449003Y-38243804D01*
X61470001Y-39264803D01*
X61470000Y-48183783D01*
X61446004Y-48172429D01*
X61171816Y-48103700D01*
X60889488Y-48089783D01*
X60609870Y-48131213D01*
X60343708Y-48226397D01*
X60218486Y-48293329D01*
X60146903Y-48537298D01*
X60960000Y-49350395D01*
X60974143Y-49336253D01*
X61153748Y-49515858D01*
X61139605Y-49530000D01*
X61153748Y-49544143D01*
X60974143Y-49723748D01*
X60960000Y-49709605D01*
X60146903Y-50522702D01*
X60218486Y-50766671D01*
X60473996Y-50887571D01*
X60748184Y-50956300D01*
X60987120Y-50968078D01*
X60448998Y-51506201D01*
X60420000Y-51529999D01*
X60396202Y-51558997D01*
X60396201Y-51558998D01*
X60325026Y-51645724D01*
X60254454Y-51777754D01*
X60231023Y-51855000D01*
X60210998Y-51921014D01*
X60200001Y-52032667D01*
X60196324Y-52070000D01*
X60200001Y-52107332D01*
X60200000Y-61011956D01*
X60045241Y-61115363D01*
X59845363Y-61315241D01*
X59688320Y-61550273D01*
X59683643Y-61561565D01*
X59651037Y-61492580D01*
X59483519Y-61266586D01*
X59275131Y-61077615D01*
X59033881Y-60932930D01*
X58769040Y-60838091D01*
X58547000Y-60959376D01*
X58547000Y-62103000D01*
X58567000Y-62103000D01*
X58567000Y-62357000D01*
X58547000Y-62357000D01*
X58547000Y-63500624D01*
X58769040Y-63621909D01*
X59033881Y-63527070D01*
X59275131Y-63382385D01*
X59483519Y-63193414D01*
X59651037Y-62967420D01*
X59683643Y-62898435D01*
X59688320Y-62909727D01*
X59845363Y-63144759D01*
X60045241Y-63344637D01*
X60200000Y-63448044D01*
X60200001Y-65336288D01*
X60156063Y-65380226D01*
X60042795Y-65549744D01*
X59964774Y-65738102D01*
X59925000Y-65938061D01*
X59925000Y-66141939D01*
X59964774Y-66341898D01*
X60042795Y-66530256D01*
X60156063Y-66699774D01*
X60200000Y-66743711D01*
X60200001Y-68631956D01*
X60045241Y-68735363D01*
X59845363Y-68935241D01*
X59688320Y-69170273D01*
X59686350Y-69175029D01*
X59618932Y-69048899D01*
X59439608Y-68830392D01*
X59305000Y-68719922D01*
X59305000Y-65308454D01*
X59337205Y-65260256D01*
X59415226Y-65071898D01*
X59455000Y-64871939D01*
X59455000Y-64668061D01*
X59415226Y-64468102D01*
X59337205Y-64279744D01*
X59223937Y-64110226D01*
X59079774Y-63966063D01*
X58910256Y-63852795D01*
X58721898Y-63774774D01*
X58521939Y-63735000D01*
X58318061Y-63735000D01*
X58118102Y-63774774D01*
X57929744Y-63852795D01*
X57760226Y-63966063D01*
X57616063Y-64110226D01*
X57502795Y-64279744D01*
X57424774Y-64468102D01*
X57385000Y-64668061D01*
X57385000Y-64871939D01*
X57424774Y-65071898D01*
X57502795Y-65260256D01*
X57535000Y-65308454D01*
X57535001Y-68719921D01*
X57400392Y-68830392D01*
X57221068Y-69048899D01*
X57087818Y-69298192D01*
X57005764Y-69568691D01*
X56978057Y-69850000D01*
X57005764Y-70131309D01*
X57087818Y-70401808D01*
X57221068Y-70651101D01*
X57400392Y-70869608D01*
X57618899Y-71048932D01*
X57868192Y-71182182D01*
X58138691Y-71264236D01*
X58349508Y-71285000D01*
X58490492Y-71285000D01*
X58701309Y-71264236D01*
X58971808Y-71182182D01*
X59221101Y-71048932D01*
X59439608Y-70869608D01*
X59618932Y-70651101D01*
X59686350Y-70524971D01*
X59688320Y-70529727D01*
X59845363Y-70764759D01*
X60045241Y-70964637D01*
X60280273Y-71121680D01*
X60541426Y-71229853D01*
X60818665Y-71285000D01*
X61101335Y-71285000D01*
X61378574Y-71229853D01*
X61639727Y-71121680D01*
X61874759Y-70964637D01*
X62074637Y-70764759D01*
X62231680Y-70529727D01*
X62339853Y-70268574D01*
X62395000Y-69991335D01*
X62395000Y-69708665D01*
X62339853Y-69431426D01*
X62231680Y-69170273D01*
X62074637Y-68935241D01*
X61874759Y-68735363D01*
X61720000Y-68631957D01*
X61720000Y-66743711D01*
X61763937Y-66699774D01*
X61877205Y-66530256D01*
X61955226Y-66341898D01*
X61995000Y-66141939D01*
X61995000Y-65938061D01*
X61955226Y-65738102D01*
X61877205Y-65549744D01*
X61763937Y-65380226D01*
X61720000Y-65336289D01*
X61720000Y-63448043D01*
X61874759Y-63344637D01*
X62074637Y-63144759D01*
X62231680Y-62909727D01*
X62339853Y-62648574D01*
X62395000Y-62371335D01*
X62395000Y-62088665D01*
X62339853Y-61811426D01*
X62231680Y-61550273D01*
X62074637Y-61315241D01*
X61874759Y-61115363D01*
X61720000Y-61011957D01*
X61720000Y-52384801D01*
X62741004Y-51363798D01*
X62770001Y-51340001D01*
X62864974Y-51224276D01*
X62935546Y-51092247D01*
X62979003Y-50948986D01*
X62990000Y-50837333D01*
X62990000Y-50837324D01*
X62993676Y-50800001D01*
X62990000Y-50762678D01*
X62990000Y-38987322D01*
X62993676Y-38949999D01*
X62990000Y-38912676D01*
X62990000Y-38912667D01*
X62979003Y-38801014D01*
X62937750Y-38665019D01*
X63001063Y-38759774D01*
X63145226Y-38903937D01*
X63314744Y-39017205D01*
X63503102Y-39095226D01*
X63703061Y-39135000D01*
X63906939Y-39135000D01*
X64106898Y-39095226D01*
X64295256Y-39017205D01*
X64464774Y-38903937D01*
X64608937Y-38759774D01*
X64664436Y-38676713D01*
X64799294Y-38929014D01*
X64984866Y-39155134D01*
X65210986Y-39340706D01*
X65265791Y-39370000D01*
X65210986Y-39399294D01*
X64984866Y-39584866D01*
X64799294Y-39810986D01*
X64661401Y-40068966D01*
X64576487Y-40348889D01*
X64547815Y-40640000D01*
X64576487Y-40931111D01*
X64590879Y-40978556D01*
X64436898Y-40914774D01*
X64236939Y-40875000D01*
X64033061Y-40875000D01*
X63833102Y-40914774D01*
X63644744Y-40992795D01*
X63475226Y-41106063D01*
X63331063Y-41250226D01*
X63217795Y-41419744D01*
X63139774Y-41608102D01*
X63100000Y-41808061D01*
X63100000Y-42011939D01*
X63139774Y-42211898D01*
X63217795Y-42400256D01*
X63331063Y-42569774D01*
X63375000Y-42613711D01*
X63375001Y-62469587D01*
X63198102Y-62504774D01*
X63009744Y-62582795D01*
X62840226Y-62696063D01*
X62696063Y-62840226D01*
X62582795Y-63009744D01*
X62504774Y-63198102D01*
X62465000Y-63398061D01*
X62465000Y-63601939D01*
X62504774Y-63801898D01*
X62582795Y-63990256D01*
X62696063Y-64159774D01*
X62840226Y-64303937D01*
X63009744Y-64417205D01*
X63198102Y-64495226D01*
X63398061Y-64535000D01*
X63601939Y-64535000D01*
X63801898Y-64495226D01*
X63990256Y-64417205D01*
X64159774Y-64303937D01*
X64303937Y-64159774D01*
X64417205Y-63990256D01*
X64495226Y-63801898D01*
X64535000Y-63601939D01*
X64535000Y-63539802D01*
X64550235Y-63524567D01*
X64576487Y-63791111D01*
X64661401Y-64071034D01*
X64799294Y-64329014D01*
X64984866Y-64555134D01*
X65210986Y-64740706D01*
X65265791Y-64770000D01*
X65210986Y-64799294D01*
X64984866Y-64984866D01*
X64799294Y-65210986D01*
X64661401Y-65468966D01*
X64576487Y-65748889D01*
X64547815Y-66040000D01*
X64576487Y-66331111D01*
X64661401Y-66611034D01*
X64799294Y-66869014D01*
X64984866Y-67095134D01*
X65014687Y-67119607D01*
X64945820Y-67140498D01*
X64835506Y-67199463D01*
X64738815Y-67278815D01*
X64659463Y-67375506D01*
X64600498Y-67485820D01*
X64564188Y-67605518D01*
X64551928Y-67730000D01*
X64551928Y-69430000D01*
X64564188Y-69554482D01*
X64600498Y-69674180D01*
X64659463Y-69784494D01*
X64738815Y-69881185D01*
X64835506Y-69960537D01*
X64945820Y-70019502D01*
X65065518Y-70055812D01*
X65190000Y-70068072D01*
X66890000Y-70068072D01*
X67014482Y-70055812D01*
X67134180Y-70019502D01*
X67244494Y-69960537D01*
X67341185Y-69881185D01*
X67420537Y-69784494D01*
X67479502Y-69674180D01*
X67515812Y-69554482D01*
X67528072Y-69430000D01*
X67528072Y-67730000D01*
X67515812Y-67605518D01*
X67479502Y-67485820D01*
X67420537Y-67375506D01*
X67341185Y-67278815D01*
X67244494Y-67199463D01*
X67134180Y-67140498D01*
X67065313Y-67119607D01*
X67095134Y-67095134D01*
X67280706Y-66869014D01*
X67418599Y-66611034D01*
X67503513Y-66331111D01*
X67532185Y-66040000D01*
X67503513Y-65748889D01*
X67418599Y-65468966D01*
X67280706Y-65210986D01*
X67095134Y-64984866D01*
X66869014Y-64799294D01*
X66814209Y-64770000D01*
X66869014Y-64740706D01*
X67095134Y-64555134D01*
X67280706Y-64329014D01*
X67418599Y-64071034D01*
X67503513Y-63791111D01*
X67532185Y-63500000D01*
X67503513Y-63208889D01*
X67418599Y-62928966D01*
X67280706Y-62670986D01*
X67095134Y-62444866D01*
X66869014Y-62259294D01*
X66804477Y-62224799D01*
X66921355Y-62155178D01*
X67137588Y-61960269D01*
X67311641Y-61726920D01*
X67436825Y-61464099D01*
X67481476Y-61316890D01*
X67360155Y-61087000D01*
X66167000Y-61087000D01*
X66167000Y-61107000D01*
X65913000Y-61107000D01*
X65913000Y-61087000D01*
X65893000Y-61087000D01*
X65893000Y-60833000D01*
X65913000Y-60833000D01*
X65913000Y-60813000D01*
X66167000Y-60813000D01*
X66167000Y-60833000D01*
X67360155Y-60833000D01*
X67481476Y-60603110D01*
X67436825Y-60455901D01*
X67311641Y-60193080D01*
X67137588Y-59959731D01*
X66921355Y-59764822D01*
X66804477Y-59695201D01*
X66869014Y-59660706D01*
X67095134Y-59475134D01*
X67280706Y-59249014D01*
X67418599Y-58991034D01*
X67503513Y-58711111D01*
X67532185Y-58420000D01*
X67503513Y-58128889D01*
X67418599Y-57848966D01*
X67280706Y-57590986D01*
X67095134Y-57364866D01*
X66869014Y-57179294D01*
X66814209Y-57150000D01*
X66869014Y-57120706D01*
X67095134Y-56935134D01*
X67280706Y-56709014D01*
X67418599Y-56451034D01*
X67503513Y-56171111D01*
X67532185Y-55880000D01*
X67503513Y-55588889D01*
X67418599Y-55308966D01*
X67280706Y-55050986D01*
X67095134Y-54824866D01*
X66869014Y-54639294D01*
X66814209Y-54610000D01*
X66869014Y-54580706D01*
X67095134Y-54395134D01*
X67280706Y-54169014D01*
X67418599Y-53911034D01*
X67503513Y-53631111D01*
X67532185Y-53340000D01*
X67503513Y-53048889D01*
X67418599Y-52768966D01*
X67280706Y-52510986D01*
X67095134Y-52284866D01*
X66869014Y-52099294D01*
X66814209Y-52070000D01*
X66869014Y-52040706D01*
X67095134Y-51855134D01*
X67280706Y-51629014D01*
X67418599Y-51371034D01*
X67503513Y-51091111D01*
X67532185Y-50800000D01*
X67503513Y-50508889D01*
X67418599Y-50228966D01*
X67280706Y-49970986D01*
X67095134Y-49744866D01*
X66869014Y-49559294D01*
X66814209Y-49530000D01*
X66869014Y-49500706D01*
X67095134Y-49315134D01*
X67280706Y-49089014D01*
X67418599Y-48831034D01*
X67503513Y-48551111D01*
X67532185Y-48260000D01*
X67503513Y-47968889D01*
X67418599Y-47688966D01*
X67280706Y-47430986D01*
X67095134Y-47204866D01*
X66869014Y-47019294D01*
X66814209Y-46990000D01*
X66869014Y-46960706D01*
X67095134Y-46775134D01*
X67280706Y-46549014D01*
X67418599Y-46291034D01*
X67503513Y-46011111D01*
X67532185Y-45720000D01*
X67503513Y-45428889D01*
X67418599Y-45148966D01*
X67280706Y-44890986D01*
X67095134Y-44664866D01*
X66869014Y-44479294D01*
X66814209Y-44450000D01*
X66869014Y-44420706D01*
X67095134Y-44235134D01*
X67280706Y-44009014D01*
X67418599Y-43751034D01*
X67503513Y-43471111D01*
X67532185Y-43180000D01*
X67503513Y-42888889D01*
X67418599Y-42608966D01*
X67280706Y-42350986D01*
X67095134Y-42124866D01*
X66869014Y-41939294D01*
X66814209Y-41910000D01*
X66869014Y-41880706D01*
X67095134Y-41695134D01*
X67280706Y-41469014D01*
X67418599Y-41211034D01*
X67503513Y-40931111D01*
X67532185Y-40640000D01*
X67503513Y-40348889D01*
X67418599Y-40068966D01*
X67280706Y-39810986D01*
X67095134Y-39584866D01*
X66869014Y-39399294D01*
X66814209Y-39370000D01*
X66869014Y-39340706D01*
X67095134Y-39155134D01*
X67280706Y-38929014D01*
X67418599Y-38671034D01*
X67503513Y-38391111D01*
X67532185Y-38100000D01*
X67503513Y-37808889D01*
X67418599Y-37528966D01*
X67280706Y-37270986D01*
X67095134Y-37044866D01*
X66869014Y-36859294D01*
X66814209Y-36830000D01*
X66869014Y-36800706D01*
X67095134Y-36615134D01*
X67280706Y-36389014D01*
X67418599Y-36131034D01*
X67503513Y-35851111D01*
X67532185Y-35560000D01*
X67503513Y-35268889D01*
X67418599Y-34988966D01*
X67280706Y-34730986D01*
X67095134Y-34504866D01*
X66869014Y-34319294D01*
X66814209Y-34290000D01*
X66869014Y-34260706D01*
X67095134Y-34075134D01*
X67280706Y-33849014D01*
X67418599Y-33591034D01*
X67503513Y-33311111D01*
X67532185Y-33020000D01*
X67503513Y-32728889D01*
X67418599Y-32448966D01*
X67280706Y-32190986D01*
X67095134Y-31964866D01*
X66869014Y-31779294D01*
X66814209Y-31750000D01*
X66869014Y-31720706D01*
X67095134Y-31535134D01*
X67280706Y-31309014D01*
X67418599Y-31051034D01*
X67503513Y-30771111D01*
X67532185Y-30480000D01*
X67503513Y-30188889D01*
X67418599Y-29908966D01*
X67280706Y-29650986D01*
X67095134Y-29424866D01*
X66869014Y-29239294D01*
X66761175Y-29181653D01*
X66841101Y-29138932D01*
X67059608Y-28959608D01*
X67238932Y-28741101D01*
X67372182Y-28491808D01*
X67454236Y-28221309D01*
X67481943Y-27940000D01*
X67454236Y-27658691D01*
X67372182Y-27388192D01*
X67238932Y-27138899D01*
X67059608Y-26920392D01*
X66841101Y-26741068D01*
X66708142Y-26670000D01*
X66841101Y-26598932D01*
X67059608Y-26419608D01*
X67238932Y-26201101D01*
X67372182Y-25951808D01*
X67454236Y-25681309D01*
X67481943Y-25400000D01*
X69627815Y-25400000D01*
X69656487Y-25691111D01*
X69741401Y-25971034D01*
X69879294Y-26229014D01*
X70064866Y-26455134D01*
X70290986Y-26640706D01*
X70345791Y-26670000D01*
X70290986Y-26699294D01*
X70064866Y-26884866D01*
X69879294Y-27110986D01*
X69741401Y-27368966D01*
X69656487Y-27648889D01*
X69627815Y-27940000D01*
X69656487Y-28231111D01*
X69741401Y-28511034D01*
X69879294Y-28769014D01*
X70064866Y-28995134D01*
X70290986Y-29180706D01*
X70345791Y-29210000D01*
X70290986Y-29239294D01*
X70064866Y-29424866D01*
X69879294Y-29650986D01*
X69741401Y-29908966D01*
X69656487Y-30188889D01*
X69627815Y-30480000D01*
X69656487Y-30771111D01*
X69741401Y-31051034D01*
X69879294Y-31309014D01*
X70064866Y-31535134D01*
X70290986Y-31720706D01*
X70345791Y-31750000D01*
X70290986Y-31779294D01*
X70064866Y-31964866D01*
X69879294Y-32190986D01*
X69741401Y-32448966D01*
X69656487Y-32728889D01*
X69627815Y-33020000D01*
X69656487Y-33311111D01*
X69741401Y-33591034D01*
X69879294Y-33849014D01*
X70064866Y-34075134D01*
X70290986Y-34260706D01*
X70345791Y-34290000D01*
X70290986Y-34319294D01*
X70064866Y-34504866D01*
X69879294Y-34730986D01*
X69741401Y-34988966D01*
X69656487Y-35268889D01*
X69627815Y-35560000D01*
X69656487Y-35851111D01*
X69741401Y-36131034D01*
X69879294Y-36389014D01*
X70064866Y-36615134D01*
X70290986Y-36800706D01*
X70345791Y-36830000D01*
X70290986Y-36859294D01*
X70064866Y-37044866D01*
X69879294Y-37270986D01*
X69741401Y-37528966D01*
X69656487Y-37808889D01*
X69627815Y-38100000D01*
X69656487Y-38391111D01*
X69741401Y-38671034D01*
X69879294Y-38929014D01*
X70064866Y-39155134D01*
X70290986Y-39340706D01*
X70345791Y-39370000D01*
X70290986Y-39399294D01*
X70064866Y-39584866D01*
X69879294Y-39810986D01*
X69741401Y-40068966D01*
X69656487Y-40348889D01*
X69627815Y-40640000D01*
X69656487Y-40931111D01*
X69741401Y-41211034D01*
X69879294Y-41469014D01*
X70064866Y-41695134D01*
X70290986Y-41880706D01*
X70345791Y-41910000D01*
X70290986Y-41939294D01*
X70064866Y-42124866D01*
X69879294Y-42350986D01*
X69741401Y-42608966D01*
X69656487Y-42888889D01*
X69627815Y-43180000D01*
X69656487Y-43471111D01*
X69741401Y-43751034D01*
X69879294Y-44009014D01*
X70064866Y-44235134D01*
X70290986Y-44420706D01*
X70345791Y-44450000D01*
X70290986Y-44479294D01*
X70064866Y-44664866D01*
X69879294Y-44890986D01*
X69741401Y-45148966D01*
X69656487Y-45428889D01*
X69627815Y-45720000D01*
X69656487Y-46011111D01*
X69741401Y-46291034D01*
X69879294Y-46549014D01*
X70064866Y-46775134D01*
X70290986Y-46960706D01*
X70345791Y-46990000D01*
X70290986Y-47019294D01*
X70064866Y-47204866D01*
X69879294Y-47430986D01*
X69741401Y-47688966D01*
X69656487Y-47968889D01*
X69627815Y-48260000D01*
X69656487Y-48551111D01*
X69741401Y-48831034D01*
X69879294Y-49089014D01*
X70064866Y-49315134D01*
X70290986Y-49500706D01*
X70345791Y-49530000D01*
X70290986Y-49559294D01*
X70064866Y-49744866D01*
X69879294Y-49970986D01*
X69741401Y-50228966D01*
X69656487Y-50508889D01*
X69627815Y-50800000D01*
X69656487Y-51091111D01*
X69741401Y-51371034D01*
X69879294Y-51629014D01*
X70064866Y-51855134D01*
X70290986Y-52040706D01*
X70345791Y-52070000D01*
X70290986Y-52099294D01*
X70064866Y-52284866D01*
X69879294Y-52510986D01*
X69741401Y-52768966D01*
X69656487Y-53048889D01*
X69627815Y-53340000D01*
X69656487Y-53631111D01*
X69741401Y-53911034D01*
X69879294Y-54169014D01*
X70064866Y-54395134D01*
X70290986Y-54580706D01*
X70345791Y-54610000D01*
X70290986Y-54639294D01*
X70064866Y-54824866D01*
X69879294Y-55050986D01*
X69741401Y-55308966D01*
X69656487Y-55588889D01*
X69627815Y-55880000D01*
X69656487Y-56171111D01*
X69741401Y-56451034D01*
X69879294Y-56709014D01*
X70064866Y-56935134D01*
X70290986Y-57120706D01*
X70345791Y-57150000D01*
X70290986Y-57179294D01*
X70064866Y-57364866D01*
X69879294Y-57590986D01*
X69741401Y-57848966D01*
X69656487Y-58128889D01*
X69627815Y-58420000D01*
X69656487Y-58711111D01*
X69741401Y-58991034D01*
X69879294Y-59249014D01*
X70064866Y-59475134D01*
X70290986Y-59660706D01*
X70345791Y-59690000D01*
X70290986Y-59719294D01*
X70064866Y-59904866D01*
X69879294Y-60130986D01*
X69741401Y-60388966D01*
X69656487Y-60668889D01*
X69627815Y-60960000D01*
X69656487Y-61251111D01*
X69741401Y-61531034D01*
X69879294Y-61789014D01*
X70064866Y-62015134D01*
X70290986Y-62200706D01*
X70345791Y-62230000D01*
X70290986Y-62259294D01*
X70064866Y-62444866D01*
X69879294Y-62670986D01*
X69741401Y-62928966D01*
X69656487Y-63208889D01*
X69627815Y-63500000D01*
X69656487Y-63791111D01*
X69741401Y-64071034D01*
X69879294Y-64329014D01*
X70064866Y-64555134D01*
X70290986Y-64740706D01*
X70345791Y-64770000D01*
X70290986Y-64799294D01*
X70064866Y-64984866D01*
X69879294Y-65210986D01*
X69741401Y-65468966D01*
X69656487Y-65748889D01*
X69627815Y-66040000D01*
X69656487Y-66331111D01*
X69741401Y-66611034D01*
X69879294Y-66869014D01*
X70064866Y-67095134D01*
X70290986Y-67280706D01*
X70345791Y-67310000D01*
X70290986Y-67339294D01*
X70064866Y-67524866D01*
X69879294Y-67750986D01*
X69741401Y-68008966D01*
X69656487Y-68288889D01*
X69627815Y-68580000D01*
X69656487Y-68871111D01*
X69741401Y-69151034D01*
X69879294Y-69409014D01*
X70064866Y-69635134D01*
X70290986Y-69820706D01*
X70548966Y-69958599D01*
X70828889Y-70043513D01*
X71047050Y-70065000D01*
X71192950Y-70065000D01*
X71411111Y-70043513D01*
X71691034Y-69958599D01*
X71949014Y-69820706D01*
X72175134Y-69635134D01*
X72360706Y-69409014D01*
X72498599Y-69151034D01*
X72583513Y-68871111D01*
X72612185Y-68580000D01*
X72583513Y-68288889D01*
X72498599Y-68008966D01*
X72360706Y-67750986D01*
X72175134Y-67524866D01*
X71949014Y-67339294D01*
X71894209Y-67310000D01*
X71949014Y-67280706D01*
X72175134Y-67095134D01*
X72360706Y-66869014D01*
X72498599Y-66611034D01*
X72583513Y-66331111D01*
X72612185Y-66040000D01*
X72583513Y-65748889D01*
X72498599Y-65468966D01*
X72360706Y-65210986D01*
X72175134Y-64984866D01*
X71949014Y-64799294D01*
X71894209Y-64770000D01*
X71949014Y-64740706D01*
X72175134Y-64555134D01*
X72360706Y-64329014D01*
X72498599Y-64071034D01*
X72583513Y-63791111D01*
X72612185Y-63500000D01*
X72583513Y-63208889D01*
X72498599Y-62928966D01*
X72360706Y-62670986D01*
X72175134Y-62444866D01*
X71949014Y-62259294D01*
X71894209Y-62230000D01*
X71949014Y-62200706D01*
X72175134Y-62015134D01*
X72360706Y-61789014D01*
X72498599Y-61531034D01*
X72583513Y-61251111D01*
X72612185Y-60960000D01*
X72583513Y-60668889D01*
X72498599Y-60388966D01*
X72360706Y-60130986D01*
X72175134Y-59904866D01*
X71949014Y-59719294D01*
X71894209Y-59690000D01*
X71949014Y-59660706D01*
X72175134Y-59475134D01*
X72360706Y-59249014D01*
X72498599Y-58991034D01*
X72583513Y-58711111D01*
X72612185Y-58420000D01*
X72583513Y-58128889D01*
X72498599Y-57848966D01*
X72360706Y-57590986D01*
X72175134Y-57364866D01*
X71949014Y-57179294D01*
X71894209Y-57150000D01*
X71949014Y-57120706D01*
X72175134Y-56935134D01*
X72360706Y-56709014D01*
X72498599Y-56451034D01*
X72583513Y-56171111D01*
X72612185Y-55880000D01*
X72583513Y-55588889D01*
X72498599Y-55308966D01*
X72360706Y-55050986D01*
X72175134Y-54824866D01*
X71949014Y-54639294D01*
X71894209Y-54610000D01*
X71949014Y-54580706D01*
X72175134Y-54395134D01*
X72360706Y-54169014D01*
X72498599Y-53911034D01*
X72583513Y-53631111D01*
X72612185Y-53340000D01*
X72583513Y-53048889D01*
X72498599Y-52768966D01*
X72360706Y-52510986D01*
X72175134Y-52284866D01*
X71949014Y-52099294D01*
X71894209Y-52070000D01*
X71949014Y-52040706D01*
X72175134Y-51855134D01*
X72360706Y-51629014D01*
X72498599Y-51371034D01*
X72583513Y-51091111D01*
X72612185Y-50800000D01*
X72583513Y-50508889D01*
X72498599Y-50228966D01*
X72360706Y-49970986D01*
X72175134Y-49744866D01*
X71949014Y-49559294D01*
X71894209Y-49530000D01*
X71949014Y-49500706D01*
X72175134Y-49315134D01*
X72360706Y-49089014D01*
X72498599Y-48831034D01*
X72583513Y-48551111D01*
X72612185Y-48260000D01*
X72583513Y-47968889D01*
X72498599Y-47688966D01*
X72360706Y-47430986D01*
X72175134Y-47204866D01*
X71949014Y-47019294D01*
X71894209Y-46990000D01*
X71949014Y-46960706D01*
X72175134Y-46775134D01*
X72360706Y-46549014D01*
X72498599Y-46291034D01*
X72583513Y-46011111D01*
X72612185Y-45720000D01*
X72583513Y-45428889D01*
X72498599Y-45148966D01*
X72360706Y-44890986D01*
X72175134Y-44664866D01*
X71949014Y-44479294D01*
X71894209Y-44450000D01*
X71949014Y-44420706D01*
X72175134Y-44235134D01*
X72360706Y-44009014D01*
X72498599Y-43751034D01*
X72583513Y-43471111D01*
X72612185Y-43180000D01*
X72583513Y-42888889D01*
X72498599Y-42608966D01*
X72360706Y-42350986D01*
X72175134Y-42124866D01*
X71949014Y-41939294D01*
X71894209Y-41910000D01*
X71949014Y-41880706D01*
X72175134Y-41695134D01*
X72360706Y-41469014D01*
X72498599Y-41211034D01*
X72583513Y-40931111D01*
X72612185Y-40640000D01*
X72583513Y-40348889D01*
X72498599Y-40068966D01*
X72360706Y-39810986D01*
X72175134Y-39584866D01*
X71949014Y-39399294D01*
X71894209Y-39370000D01*
X71949014Y-39340706D01*
X72175134Y-39155134D01*
X72360706Y-38929014D01*
X72498599Y-38671034D01*
X72583513Y-38391111D01*
X72612185Y-38100000D01*
X72583513Y-37808889D01*
X72498599Y-37528966D01*
X72360706Y-37270986D01*
X72175134Y-37044866D01*
X71949014Y-36859294D01*
X71894209Y-36830000D01*
X71949014Y-36800706D01*
X72175134Y-36615134D01*
X72360706Y-36389014D01*
X72498599Y-36131034D01*
X72583513Y-35851111D01*
X72612185Y-35560000D01*
X72583513Y-35268889D01*
X72498599Y-34988966D01*
X72360706Y-34730986D01*
X72175134Y-34504866D01*
X71949014Y-34319294D01*
X71894209Y-34290000D01*
X71949014Y-34260706D01*
X72175134Y-34075134D01*
X72360706Y-33849014D01*
X72498599Y-33591034D01*
X72583513Y-33311111D01*
X72612185Y-33020000D01*
X72583513Y-32728889D01*
X72498599Y-32448966D01*
X72360706Y-32190986D01*
X72175134Y-31964866D01*
X71949014Y-31779294D01*
X71894209Y-31750000D01*
X71949014Y-31720706D01*
X72175134Y-31535134D01*
X72360706Y-31309014D01*
X72498599Y-31051034D01*
X72583513Y-30771111D01*
X72612185Y-30480000D01*
X72583513Y-30188889D01*
X72498599Y-29908966D01*
X72360706Y-29650986D01*
X72175134Y-29424866D01*
X71949014Y-29239294D01*
X71894209Y-29210000D01*
X71949014Y-29180706D01*
X72175134Y-28995134D01*
X72360706Y-28769014D01*
X72498599Y-28511034D01*
X72583513Y-28231111D01*
X72612185Y-27940000D01*
X72583513Y-27648889D01*
X72498599Y-27368966D01*
X72360706Y-27110986D01*
X72175134Y-26884866D01*
X71949014Y-26699294D01*
X71894209Y-26670000D01*
X71949014Y-26640706D01*
X72175134Y-26455134D01*
X72360706Y-26229014D01*
X72498599Y-25971034D01*
X72583513Y-25691111D01*
X72612185Y-25400000D01*
X72583513Y-25108889D01*
X72498599Y-24828966D01*
X72360706Y-24570986D01*
X72175134Y-24344866D01*
X71949014Y-24159294D01*
X71691034Y-24021401D01*
X71411111Y-23936487D01*
X71192950Y-23915000D01*
X71047050Y-23915000D01*
X70828889Y-23936487D01*
X70548966Y-24021401D01*
X70290986Y-24159294D01*
X70064866Y-24344866D01*
X69879294Y-24570986D01*
X69741401Y-24828966D01*
X69656487Y-25108889D01*
X69627815Y-25400000D01*
X67481943Y-25400000D01*
X67454236Y-25118691D01*
X67372182Y-24848192D01*
X67238932Y-24598899D01*
X67059608Y-24380392D01*
X66841101Y-24201068D01*
X66591808Y-24067818D01*
X66321309Y-23985764D01*
X66110492Y-23965000D01*
X65969508Y-23965000D01*
X65758691Y-23985764D01*
X65488192Y-24067818D01*
X65238899Y-24201068D01*
X65020392Y-24380392D01*
X64841068Y-24598899D01*
X64707818Y-24848192D01*
X64625764Y-25118691D01*
X64598057Y-25400000D01*
X64625764Y-25681309D01*
X64707818Y-25951808D01*
X64841068Y-26201101D01*
X65020392Y-26419608D01*
X65238899Y-26598932D01*
X65371858Y-26670000D01*
X65238899Y-26741068D01*
X65020392Y-26920392D01*
X64841068Y-27138899D01*
X64707818Y-27388192D01*
X64625764Y-27658691D01*
X64598057Y-27940000D01*
X64625764Y-28221309D01*
X64707818Y-28491808D01*
X64841068Y-28741101D01*
X65020392Y-28959608D01*
X65238899Y-29138932D01*
X65318825Y-29181653D01*
X65210986Y-29239294D01*
X64984866Y-29424866D01*
X64799294Y-29650986D01*
X64661401Y-29908966D01*
X64576487Y-30188889D01*
X64547815Y-30480000D01*
X64576487Y-30771111D01*
X64661401Y-31051034D01*
X64799294Y-31309014D01*
X64984866Y-31535134D01*
X65210986Y-31720706D01*
X65265791Y-31750000D01*
X65210986Y-31779294D01*
X64984866Y-31964866D01*
X64799294Y-32190986D01*
X64661401Y-32448966D01*
X64576487Y-32728889D01*
X64547815Y-33020000D01*
X64576487Y-33311111D01*
X64661401Y-33591034D01*
X64799294Y-33849014D01*
X64984866Y-34075134D01*
X65210986Y-34260706D01*
X65265791Y-34290000D01*
X65210986Y-34319294D01*
X64984866Y-34504866D01*
X64799294Y-34730986D01*
X64661401Y-34988966D01*
X64576487Y-35268889D01*
X64565000Y-35385518D01*
X64565000Y-33362322D01*
X64568676Y-33324999D01*
X64565000Y-33287676D01*
X64565000Y-33287667D01*
X64554003Y-33176014D01*
X64510546Y-33032753D01*
X64465742Y-32948932D01*
X64439974Y-32900723D01*
X64368799Y-32813997D01*
X64345001Y-32784999D01*
X64316004Y-32761202D01*
X60319180Y-28764379D01*
X60349774Y-28743937D01*
X60493937Y-28599774D01*
X60607205Y-28430256D01*
X60685226Y-28241898D01*
X60725000Y-28041939D01*
X60725000Y-27838061D01*
X60685226Y-27638102D01*
X60607205Y-27449744D01*
X60575000Y-27401546D01*
X60575000Y-25559701D01*
X60614482Y-25555812D01*
X60734180Y-25519502D01*
X60844494Y-25460537D01*
X60941185Y-25381185D01*
X61020537Y-25284494D01*
X61079502Y-25174180D01*
X61115812Y-25054482D01*
X61128072Y-24930000D01*
X61128072Y-23330000D01*
X61115812Y-23205518D01*
X61079502Y-23085820D01*
X61020537Y-22975506D01*
X60941185Y-22878815D01*
X60844494Y-22799463D01*
X60734180Y-22740498D01*
X60614482Y-22704188D01*
X60490000Y-22691928D01*
X58890000Y-22691928D01*
X58765518Y-22704188D01*
X58645820Y-22740498D01*
X58535506Y-22799463D01*
X58438815Y-22878815D01*
X58359463Y-22975506D01*
X58300498Y-23085820D01*
X58264188Y-23205518D01*
X58262419Y-23223482D01*
X58169608Y-23110392D01*
X57951101Y-22931068D01*
X57701808Y-22797818D01*
X57431309Y-22715764D01*
X57220492Y-22695000D01*
X57079508Y-22695000D01*
X56868691Y-22715764D01*
X56598192Y-22797818D01*
X56348899Y-22931068D01*
X56130392Y-23110392D01*
X55951068Y-23328899D01*
X55880000Y-23461858D01*
X55808932Y-23328899D01*
X55629608Y-23110392D01*
X55411101Y-22931068D01*
X55161808Y-22797818D01*
X54891309Y-22715764D01*
X54680492Y-22695000D01*
X54539508Y-22695000D01*
X54328691Y-22715764D01*
X54058192Y-22797818D01*
X53808899Y-22931068D01*
X53590392Y-23110392D01*
X53411068Y-23328899D01*
X53340000Y-23461858D01*
X53268932Y-23328899D01*
X53089608Y-23110392D01*
X52871101Y-22931068D01*
X52621808Y-22797818D01*
X52351309Y-22715764D01*
X52140492Y-22695000D01*
X51999508Y-22695000D01*
X51788691Y-22715764D01*
X51518192Y-22797818D01*
X51268899Y-22931068D01*
X51050392Y-23110392D01*
X50871068Y-23328899D01*
X50800000Y-23461858D01*
X50728932Y-23328899D01*
X50549608Y-23110392D01*
X50331101Y-22931068D01*
X50081808Y-22797818D01*
X49811309Y-22715764D01*
X49600492Y-22695000D01*
X49459508Y-22695000D01*
X49248691Y-22715764D01*
X48978192Y-22797818D01*
X48728899Y-22931068D01*
X48510392Y-23110392D01*
X48331068Y-23328899D01*
X48260000Y-23461858D01*
X48188932Y-23328899D01*
X48009608Y-23110392D01*
X47791101Y-22931068D01*
X47541808Y-22797818D01*
X47271309Y-22715764D01*
X47060492Y-22695000D01*
X46919508Y-22695000D01*
X46708691Y-22715764D01*
X46438192Y-22797818D01*
X46188899Y-22931068D01*
X45970392Y-23110392D01*
X45791068Y-23328899D01*
X45720000Y-23461858D01*
X45648932Y-23328899D01*
X45469608Y-23110392D01*
X45251101Y-22931068D01*
X45001808Y-22797818D01*
X44731309Y-22715764D01*
X44520492Y-22695000D01*
X44379508Y-22695000D01*
X44168691Y-22715764D01*
X43898192Y-22797818D01*
X43648899Y-22931068D01*
X43430392Y-23110392D01*
X43251068Y-23328899D01*
X43180000Y-23461858D01*
X43108932Y-23328899D01*
X42929608Y-23110392D01*
X42711101Y-22931068D01*
X42461808Y-22797818D01*
X42191309Y-22715764D01*
X41980492Y-22695000D01*
X41839508Y-22695000D01*
X41628691Y-22715764D01*
X41358192Y-22797818D01*
X41108899Y-22931068D01*
X40890392Y-23110392D01*
X40711068Y-23328899D01*
X40640000Y-23461858D01*
X40568932Y-23328899D01*
X40389608Y-23110392D01*
X40171101Y-22931068D01*
X39921808Y-22797818D01*
X39651309Y-22715764D01*
X39440492Y-22695000D01*
X39299508Y-22695000D01*
X39088691Y-22715764D01*
X38818192Y-22797818D01*
X38568899Y-22931068D01*
X38350392Y-23110392D01*
X38171068Y-23328899D01*
X38100000Y-23461858D01*
X38028932Y-23328899D01*
X37849608Y-23110392D01*
X37631101Y-22931068D01*
X37381808Y-22797818D01*
X37111309Y-22715764D01*
X36900492Y-22695000D01*
X36759508Y-22695000D01*
X36548691Y-22715764D01*
X36278192Y-22797818D01*
X36028899Y-22931068D01*
X35810392Y-23110392D01*
X35631068Y-23328899D01*
X35497818Y-23578192D01*
X35415764Y-23848691D01*
X35388057Y-24130000D01*
X35415764Y-24411309D01*
X35497818Y-24681808D01*
X35631068Y-24931101D01*
X35810392Y-25149608D01*
X35945001Y-25260078D01*
X35945001Y-25827565D01*
X35921114Y-25827565D01*
X35920226Y-25823102D01*
X35842205Y-25634744D01*
X35728937Y-25465226D01*
X35584774Y-25321063D01*
X35415256Y-25207795D01*
X35226898Y-25129774D01*
X35026939Y-25090000D01*
X34964801Y-25090000D01*
X34763803Y-24889002D01*
X34740001Y-24859999D01*
X34624276Y-24765026D01*
X34492247Y-24694454D01*
X34348986Y-24650997D01*
X34237333Y-24640000D01*
X34237322Y-24640000D01*
X34200000Y-24636324D01*
X34162678Y-24640000D01*
X33782000Y-24640000D01*
X33782000Y-23520000D01*
X34322419Y-23520000D01*
X34350865Y-23517198D01*
X34358682Y-23517253D01*
X34367853Y-23516354D01*
X34614357Y-23490446D01*
X34672986Y-23478411D01*
X34731716Y-23467208D01*
X34740532Y-23464546D01*
X34740536Y-23464545D01*
X34740539Y-23464544D01*
X34977314Y-23391249D01*
X35032457Y-23368069D01*
X35087920Y-23345661D01*
X35096054Y-23341335D01*
X35096059Y-23341333D01*
X35096064Y-23341330D01*
X35314086Y-23223447D01*
X35363654Y-23190012D01*
X35413735Y-23157241D01*
X35420876Y-23151416D01*
X35611856Y-22993423D01*
X35653995Y-22950988D01*
X35696745Y-22909125D01*
X35702618Y-22902024D01*
X35859273Y-22709947D01*
X35892374Y-22660125D01*
X35926173Y-22610763D01*
X35930556Y-22602657D01*
X36046919Y-22383809D01*
X36069707Y-22328521D01*
X36093279Y-22273525D01*
X36096003Y-22264722D01*
X36167643Y-22027441D01*
X36179264Y-21968754D01*
X36191700Y-21910248D01*
X36192663Y-21901083D01*
X36216850Y-21654405D01*
X36234722Y-21472131D01*
X36268953Y-21358754D01*
X36324555Y-21254181D01*
X36399407Y-21162404D01*
X36490664Y-21086909D01*
X36594844Y-21030581D01*
X36707976Y-20995560D01*
X36856022Y-20980000D01*
X72357721Y-20980000D01*
X72507869Y-20994722D01*
X72507869Y-20994722D01*
G37*
X72507869Y-20994722D02*
X72621246Y-21028953D01*
X72725819Y-21084555D01*
X72817596Y-21159407D01*
X72893091Y-21250664D01*
X72949419Y-21354844D01*
X72984440Y-21467976D01*
X73000000Y-21616022D01*
X73000001Y-72357711D01*
X72985278Y-72507869D01*
X72951047Y-72621246D01*
X72895446Y-72725817D01*
X72820594Y-72817595D01*
X72729335Y-72893091D01*
X72625160Y-72949419D01*
X72512024Y-72984440D01*
X72363979Y-73000000D01*
X36862279Y-73000000D01*
X36712131Y-72985278D01*
X36598754Y-72951047D01*
X36494183Y-72895446D01*
X36402405Y-72820594D01*
X36326909Y-72729335D01*
X36270581Y-72625160D01*
X36235560Y-72512024D01*
X36217145Y-72336813D01*
X36217253Y-72321318D01*
X36216354Y-72312147D01*
X36190446Y-72065644D01*
X36178414Y-72007028D01*
X36167208Y-71948284D01*
X36164544Y-71939462D01*
X36091249Y-71702686D01*
X36068074Y-71647555D01*
X36045661Y-71592080D01*
X36041334Y-71583944D01*
X35923446Y-71365914D01*
X35890012Y-71316346D01*
X35857240Y-71266265D01*
X35851416Y-71259124D01*
X35693423Y-71068144D01*
X35650988Y-71026005D01*
X35609125Y-70983255D01*
X35602024Y-70977381D01*
X35409946Y-70820727D01*
X35360169Y-70787655D01*
X35310763Y-70753826D01*
X35302657Y-70749444D01*
X35083809Y-70633081D01*
X35028532Y-70610298D01*
X34973525Y-70586721D01*
X34964722Y-70583997D01*
X34727441Y-70512357D01*
X34668754Y-70500736D01*
X34610248Y-70488300D01*
X34601085Y-70487337D01*
X34601083Y-70487337D01*
X34354405Y-70463150D01*
X34354402Y-70463150D01*
X34322419Y-70460000D01*
X33782000Y-70460000D01*
X33782000Y-69340000D01*
X33894587Y-69340000D01*
X33929774Y-69516898D01*
X34007795Y-69705256D01*
X34121063Y-69874774D01*
X34265226Y-70018937D01*
X34434744Y-70132205D01*
X34623102Y-70210226D01*
X34823061Y-70250000D01*
X35026939Y-70250000D01*
X35226898Y-70210226D01*
X35415256Y-70132205D01*
X35415904Y-70131772D01*
X35497818Y-70401808D01*
X35631068Y-70651101D01*
X35810392Y-70869608D01*
X36028899Y-71048932D01*
X36278192Y-71182182D01*
X36548691Y-71264236D01*
X36759508Y-71285000D01*
X36900492Y-71285000D01*
X37111309Y-71264236D01*
X37381808Y-71182182D01*
X37631101Y-71048932D01*
X37849608Y-70869608D01*
X38028932Y-70651101D01*
X38100000Y-70518142D01*
X38171068Y-70651101D01*
X38350392Y-70869608D01*
X38568899Y-71048932D01*
X38818192Y-71182182D01*
X39088691Y-71264236D01*
X39299508Y-71285000D01*
X39440492Y-71285000D01*
X39651309Y-71264236D01*
X39921808Y-71182182D01*
X40171101Y-71048932D01*
X40389608Y-70869608D01*
X40568932Y-70651101D01*
X40640000Y-70518142D01*
X40711068Y-70651101D01*
X40890392Y-70869608D01*
X41108899Y-71048932D01*
X41358192Y-71182182D01*
X41628691Y-71264236D01*
X41839508Y-71285000D01*
X41980492Y-71285000D01*
X42191309Y-71264236D01*
X42461808Y-71182182D01*
X42711101Y-71048932D01*
X42929608Y-70869608D01*
X43108932Y-70651101D01*
X43180000Y-70518142D01*
X43251068Y-70651101D01*
X43430392Y-70869608D01*
X43648899Y-71048932D01*
X43898192Y-71182182D01*
X44168691Y-71264236D01*
X44379508Y-71285000D01*
X44520492Y-71285000D01*
X44731309Y-71264236D01*
X45001808Y-71182182D01*
X45251101Y-71048932D01*
X45469608Y-70869608D01*
X45648932Y-70651101D01*
X45720000Y-70518142D01*
X45791068Y-70651101D01*
X45970392Y-70869608D01*
X46188899Y-71048932D01*
X46438192Y-71182182D01*
X46708691Y-71264236D01*
X46919508Y-71285000D01*
X47060492Y-71285000D01*
X47271309Y-71264236D01*
X47541808Y-71182182D01*
X47791101Y-71048932D01*
X48009608Y-70869608D01*
X48188932Y-70651101D01*
X48260000Y-70518142D01*
X48331068Y-70651101D01*
X48510392Y-70869608D01*
X48728899Y-71048932D01*
X48978192Y-71182182D01*
X49248691Y-71264236D01*
X49459508Y-71285000D01*
X49600492Y-71285000D01*
X49811309Y-71264236D01*
X50081808Y-71182182D01*
X50331101Y-71048932D01*
X50549608Y-70869608D01*
X50728932Y-70651101D01*
X50800000Y-70518142D01*
X50871068Y-70651101D01*
X51050392Y-70869608D01*
X51268899Y-71048932D01*
X51518192Y-71182182D01*
X51788691Y-71264236D01*
X51999508Y-71285000D01*
X52140492Y-71285000D01*
X52351309Y-71264236D01*
X52621808Y-71182182D01*
X52871101Y-71048932D01*
X53089608Y-70869608D01*
X53268932Y-70651101D01*
X53342579Y-70513318D01*
X53457615Y-70705131D01*
X53646586Y-70913519D01*
X53872580Y-71081037D01*
X54126913Y-71201246D01*
X54260961Y-71241904D01*
X54483000Y-71119915D01*
X54483000Y-69977000D01*
X54737000Y-69977000D01*
X54737000Y-71119915D01*
X54959039Y-71241904D01*
X55093087Y-71201246D01*
X55347420Y-71081037D01*
X55573414Y-70913519D01*
X55762385Y-70705131D01*
X55907070Y-70463881D01*
X56001909Y-70199040D01*
X55880624Y-69977000D01*
X54737000Y-69977000D01*
X54483000Y-69977000D01*
X54463000Y-69977000D01*
X54463000Y-69723000D01*
X54483000Y-69723000D01*
X54483000Y-68580085D01*
X54737000Y-68580085D01*
X54737000Y-69723000D01*
X55880624Y-69723000D01*
X56001909Y-69500960D01*
X55907070Y-69236119D01*
X55762385Y-68994869D01*
X55573414Y-68786481D01*
X55347420Y-68618963D01*
X55093087Y-68498754D01*
X54959039Y-68458096D01*
X54737000Y-68580085D01*
X54483000Y-68580085D01*
X54260961Y-68458096D01*
X54126913Y-68498754D01*
X53872580Y-68618963D01*
X53646586Y-68786481D01*
X53457615Y-68994869D01*
X53342579Y-69186682D01*
X53268932Y-69048899D01*
X53089608Y-68830392D01*
X52871101Y-68651068D01*
X52621808Y-68517818D01*
X52351309Y-68435764D01*
X52140492Y-68415000D01*
X51999508Y-68415000D01*
X51788691Y-68435764D01*
X51518192Y-68517818D01*
X51268899Y-68651068D01*
X51050392Y-68830392D01*
X50871068Y-69048899D01*
X50800000Y-69181858D01*
X50728932Y-69048899D01*
X50549608Y-68830392D01*
X50331101Y-68651068D01*
X50081808Y-68517818D01*
X49811309Y-68435764D01*
X49600492Y-68415000D01*
X49459508Y-68415000D01*
X49248691Y-68435764D01*
X49204094Y-68449292D01*
X49020000Y-68265199D01*
X49020000Y-63574864D01*
X49248691Y-63644236D01*
X49459508Y-63665000D01*
X49600492Y-63665000D01*
X49811309Y-63644236D01*
X50081808Y-63562182D01*
X50331101Y-63428932D01*
X50549608Y-63249608D01*
X50728932Y-63031101D01*
X50800000Y-62898142D01*
X50871068Y-63031101D01*
X51050392Y-63249608D01*
X51268899Y-63428932D01*
X51518192Y-63562182D01*
X51788691Y-63644236D01*
X51999508Y-63665000D01*
X52140492Y-63665000D01*
X52351309Y-63644236D01*
X52621808Y-63562182D01*
X52871101Y-63428932D01*
X53089608Y-63249608D01*
X53182419Y-63136518D01*
X53184188Y-63154482D01*
X53220498Y-63274180D01*
X53279463Y-63384494D01*
X53358815Y-63481185D01*
X53455506Y-63560537D01*
X53565820Y-63619502D01*
X53685518Y-63655812D01*
X53810000Y-63668072D01*
X55410000Y-63668072D01*
X55534482Y-63655812D01*
X55654180Y-63619502D01*
X55764494Y-63560537D01*
X55861185Y-63481185D01*
X55940537Y-63384494D01*
X55999502Y-63274180D01*
X56035812Y-63154482D01*
X56048072Y-63030000D01*
X56048072Y-62579039D01*
X57028096Y-62579039D01*
X57068754Y-62713087D01*
X57188963Y-62967420D01*
X57356481Y-63193414D01*
X57564869Y-63382385D01*
X57806119Y-63527070D01*
X58070960Y-63621909D01*
X58293000Y-63500624D01*
X58293000Y-62357000D01*
X57150085Y-62357000D01*
X57028096Y-62579039D01*
X56048072Y-62579039D01*
X56048072Y-61880961D01*
X57028096Y-61880961D01*
X57150085Y-62103000D01*
X58293000Y-62103000D01*
X58293000Y-60959376D01*
X58070960Y-60838091D01*
X57806119Y-60932930D01*
X57564869Y-61077615D01*
X57356481Y-61266586D01*
X57188963Y-61492580D01*
X57068754Y-61746913D01*
X57028096Y-61880961D01*
X56048072Y-61880961D01*
X56048072Y-61430000D01*
X56035812Y-61305518D01*
X55999502Y-61185820D01*
X55940537Y-61075506D01*
X55861185Y-60978815D01*
X55764494Y-60899463D01*
X55752011Y-60892791D01*
X56391003Y-60253799D01*
X56420001Y-60230001D01*
X56514974Y-60114276D01*
X56585546Y-59982247D01*
X56629003Y-59838986D01*
X56640000Y-59727333D01*
X56640000Y-59727324D01*
X56643676Y-59690001D01*
X56640000Y-59652678D01*
X56640000Y-52953711D01*
X56683937Y-52909774D01*
X56797205Y-52740256D01*
X56875226Y-52551898D01*
X56915000Y-52351939D01*
X56915000Y-52148061D01*
X56875226Y-51948102D01*
X56797205Y-51759744D01*
X56683937Y-51590226D01*
X56539774Y-51446063D01*
X56370256Y-51332795D01*
X56181898Y-51254774D01*
X56177283Y-51253856D01*
X56240226Y-51101898D01*
X56280000Y-50901939D01*
X56280000Y-50698061D01*
X56240226Y-50498102D01*
X56162205Y-50309744D01*
X56048937Y-50140226D01*
X55904774Y-49996063D01*
X55735256Y-49882795D01*
X55546898Y-49804774D01*
X55346939Y-49765000D01*
X55229801Y-49765000D01*
X57543550Y-47451251D01*
X57616063Y-47559774D01*
X57660000Y-47603711D01*
X57660001Y-48309099D01*
X57618899Y-48331068D01*
X57400392Y-48510392D01*
X57221068Y-48728899D01*
X57087818Y-48978192D01*
X57005764Y-49248691D01*
X56978057Y-49530000D01*
X57005764Y-49811309D01*
X57087818Y-50081808D01*
X57221068Y-50331101D01*
X57400392Y-50549608D01*
X57618899Y-50728932D01*
X57868192Y-50862182D01*
X58138691Y-50944236D01*
X58349508Y-50965000D01*
X58490492Y-50965000D01*
X58701309Y-50944236D01*
X58971808Y-50862182D01*
X59221101Y-50728932D01*
X59439608Y-50549608D01*
X59618932Y-50331101D01*
X59687056Y-50203651D01*
X59723329Y-50271514D01*
X59967298Y-50343097D01*
X60780395Y-49530000D01*
X59967298Y-48716903D01*
X59723329Y-48788486D01*
X59689264Y-48860480D01*
X59618932Y-48728899D01*
X59439608Y-48510392D01*
X59221101Y-48331068D01*
X59180000Y-48309099D01*
X59180000Y-47603711D01*
X59223937Y-47559774D01*
X59337205Y-47390256D01*
X59415226Y-47201898D01*
X59455000Y-47001939D01*
X59455000Y-46798061D01*
X59415226Y-46598102D01*
X59337205Y-46409744D01*
X59223937Y-46240226D01*
X59079774Y-46096063D01*
X58971251Y-46023551D01*
X60201004Y-44793798D01*
X60230001Y-44770001D01*
X60261755Y-44731309D01*
X60324974Y-44654277D01*
X60395546Y-44522247D01*
X60408581Y-44479274D01*
X60439003Y-44378986D01*
X60450000Y-44267333D01*
X60450000Y-44267323D01*
X60453676Y-44230000D01*
X60450000Y-44192677D01*
X60450000Y-41888711D01*
X60493937Y-41844774D01*
X60607205Y-41675256D01*
X60685226Y-41486898D01*
X60725000Y-41286939D01*
X60725000Y-41083061D01*
X60685226Y-40883102D01*
X60607205Y-40694744D01*
X60493937Y-40525226D01*
X60349774Y-40381063D01*
X60180256Y-40267795D01*
X59991898Y-40189774D01*
X59877736Y-40167066D01*
X59971003Y-40073799D01*
X60000001Y-40050001D01*
X60036955Y-40004973D01*
X60094974Y-39934277D01*
X60165546Y-39802247D01*
X60192413Y-39713676D01*
X60209003Y-39658986D01*
X60220000Y-39547333D01*
X60220000Y-39547324D01*
X60223676Y-39510001D01*
X60220000Y-39472678D01*
X60220000Y-38051105D01*
X60235518Y-38055812D01*
X60302656Y-38062424D01*
X60325026Y-38104276D01*
X60363637Y-38151323D01*
X60419999Y-38220001D01*
X60449003Y-38243804D01*
X61470001Y-39264803D01*
X61470000Y-48183783D01*
X61446004Y-48172429D01*
X61171816Y-48103700D01*
X60889488Y-48089783D01*
X60609870Y-48131213D01*
X60343708Y-48226397D01*
X60218486Y-48293329D01*
X60146903Y-48537298D01*
X60960000Y-49350395D01*
X60974143Y-49336253D01*
X61153748Y-49515858D01*
X61139605Y-49530000D01*
X61153748Y-49544143D01*
X60974143Y-49723748D01*
X60960000Y-49709605D01*
X60146903Y-50522702D01*
X60218486Y-50766671D01*
X60473996Y-50887571D01*
X60748184Y-50956300D01*
X60987120Y-50968078D01*
X60448998Y-51506201D01*
X60420000Y-51529999D01*
X60396202Y-51558997D01*
X60396201Y-51558998D01*
X60325026Y-51645724D01*
X60254454Y-51777754D01*
X60231023Y-51855000D01*
X60210998Y-51921014D01*
X60200001Y-52032667D01*
X60196324Y-52070000D01*
X60200001Y-52107332D01*
X60200000Y-61011956D01*
X60045241Y-61115363D01*
X59845363Y-61315241D01*
X59688320Y-61550273D01*
X59683643Y-61561565D01*
X59651037Y-61492580D01*
X59483519Y-61266586D01*
X59275131Y-61077615D01*
X59033881Y-60932930D01*
X58769040Y-60838091D01*
X58547000Y-60959376D01*
X58547000Y-62103000D01*
X58567000Y-62103000D01*
X58567000Y-62357000D01*
X58547000Y-62357000D01*
X58547000Y-63500624D01*
X58769040Y-63621909D01*
X59033881Y-63527070D01*
X59275131Y-63382385D01*
X59483519Y-63193414D01*
X59651037Y-62967420D01*
X59683643Y-62898435D01*
X59688320Y-62909727D01*
X59845363Y-63144759D01*
X60045241Y-63344637D01*
X60200000Y-63448044D01*
X60200001Y-65336288D01*
X60156063Y-65380226D01*
X60042795Y-65549744D01*
X59964774Y-65738102D01*
X59925000Y-65938061D01*
X59925000Y-66141939D01*
X59964774Y-66341898D01*
X60042795Y-66530256D01*
X60156063Y-66699774D01*
X60200000Y-66743711D01*
X60200001Y-68631956D01*
X60045241Y-68735363D01*
X59845363Y-68935241D01*
X59688320Y-69170273D01*
X59686350Y-69175029D01*
X59618932Y-69048899D01*
X59439608Y-68830392D01*
X59305000Y-68719922D01*
X59305000Y-65308454D01*
X59337205Y-65260256D01*
X59415226Y-65071898D01*
X59455000Y-64871939D01*
X59455000Y-64668061D01*
X59415226Y-64468102D01*
X59337205Y-64279744D01*
X59223937Y-64110226D01*
X59079774Y-63966063D01*
X58910256Y-63852795D01*
X58721898Y-63774774D01*
X58521939Y-63735000D01*
X58318061Y-63735000D01*
X58118102Y-63774774D01*
X57929744Y-63852795D01*
X57760226Y-63966063D01*
X57616063Y-64110226D01*
X57502795Y-64279744D01*
X57424774Y-64468102D01*
X57385000Y-64668061D01*
X57385000Y-64871939D01*
X57424774Y-65071898D01*
X57502795Y-65260256D01*
X57535000Y-65308454D01*
X57535001Y-68719921D01*
X57400392Y-68830392D01*
X57221068Y-69048899D01*
X57087818Y-69298192D01*
X57005764Y-69568691D01*
X56978057Y-69850000D01*
X57005764Y-70131309D01*
X57087818Y-70401808D01*
X57221068Y-70651101D01*
X57400392Y-70869608D01*
X57618899Y-71048932D01*
X57868192Y-71182182D01*
X58138691Y-71264236D01*
X58349508Y-71285000D01*
X58490492Y-71285000D01*
X58701309Y-71264236D01*
X58971808Y-71182182D01*
X59221101Y-71048932D01*
X59439608Y-70869608D01*
X59618932Y-70651101D01*
X59686350Y-70524971D01*
X59688320Y-70529727D01*
X59845363Y-70764759D01*
X60045241Y-70964637D01*
X60280273Y-71121680D01*
X60541426Y-71229853D01*
X60818665Y-71285000D01*
X61101335Y-71285000D01*
X61378574Y-71229853D01*
X61639727Y-71121680D01*
X61874759Y-70964637D01*
X62074637Y-70764759D01*
X62231680Y-70529727D01*
X62339853Y-70268574D01*
X62395000Y-69991335D01*
X62395000Y-69708665D01*
X62339853Y-69431426D01*
X62231680Y-69170273D01*
X62074637Y-68935241D01*
X61874759Y-68735363D01*
X61720000Y-68631957D01*
X61720000Y-66743711D01*
X61763937Y-66699774D01*
X61877205Y-66530256D01*
X61955226Y-66341898D01*
X61995000Y-66141939D01*
X61995000Y-65938061D01*
X61955226Y-65738102D01*
X61877205Y-65549744D01*
X61763937Y-65380226D01*
X61720000Y-65336289D01*
X61720000Y-63448043D01*
X61874759Y-63344637D01*
X62074637Y-63144759D01*
X62231680Y-62909727D01*
X62339853Y-62648574D01*
X62395000Y-62371335D01*
X62395000Y-62088665D01*
X62339853Y-61811426D01*
X62231680Y-61550273D01*
X62074637Y-61315241D01*
X61874759Y-61115363D01*
X61720000Y-61011957D01*
X61720000Y-52384801D01*
X62741004Y-51363798D01*
X62770001Y-51340001D01*
X62864974Y-51224276D01*
X62935546Y-51092247D01*
X62979003Y-50948986D01*
X62990000Y-50837333D01*
X62990000Y-50837324D01*
X62993676Y-50800001D01*
X62990000Y-50762678D01*
X62990000Y-38987322D01*
X62993676Y-38949999D01*
X62990000Y-38912676D01*
X62990000Y-38912667D01*
X62979003Y-38801014D01*
X62937750Y-38665019D01*
X63001063Y-38759774D01*
X63145226Y-38903937D01*
X63314744Y-39017205D01*
X63503102Y-39095226D01*
X63703061Y-39135000D01*
X63906939Y-39135000D01*
X64106898Y-39095226D01*
X64295256Y-39017205D01*
X64464774Y-38903937D01*
X64608937Y-38759774D01*
X64664436Y-38676713D01*
X64799294Y-38929014D01*
X64984866Y-39155134D01*
X65210986Y-39340706D01*
X65265791Y-39370000D01*
X65210986Y-39399294D01*
X64984866Y-39584866D01*
X64799294Y-39810986D01*
X64661401Y-40068966D01*
X64576487Y-40348889D01*
X64547815Y-40640000D01*
X64576487Y-40931111D01*
X64590879Y-40978556D01*
X64436898Y-40914774D01*
X64236939Y-40875000D01*
X64033061Y-40875000D01*
X63833102Y-40914774D01*
X63644744Y-40992795D01*
X63475226Y-41106063D01*
X63331063Y-41250226D01*
X63217795Y-41419744D01*
X63139774Y-41608102D01*
X63100000Y-41808061D01*
X63100000Y-42011939D01*
X63139774Y-42211898D01*
X63217795Y-42400256D01*
X63331063Y-42569774D01*
X63375000Y-42613711D01*
X63375001Y-62469587D01*
X63198102Y-62504774D01*
X63009744Y-62582795D01*
X62840226Y-62696063D01*
X62696063Y-62840226D01*
X62582795Y-63009744D01*
X62504774Y-63198102D01*
X62465000Y-63398061D01*
X62465000Y-63601939D01*
X62504774Y-63801898D01*
X62582795Y-63990256D01*
X62696063Y-64159774D01*
X62840226Y-64303937D01*
X63009744Y-64417205D01*
X63198102Y-64495226D01*
X63398061Y-64535000D01*
X63601939Y-64535000D01*
X63801898Y-64495226D01*
X63990256Y-64417205D01*
X64159774Y-64303937D01*
X64303937Y-64159774D01*
X64417205Y-63990256D01*
X64495226Y-63801898D01*
X64535000Y-63601939D01*
X64535000Y-63539802D01*
X64550235Y-63524567D01*
X64576487Y-63791111D01*
X64661401Y-64071034D01*
X64799294Y-64329014D01*
X64984866Y-64555134D01*
X65210986Y-64740706D01*
X65265791Y-64770000D01*
X65210986Y-64799294D01*
X64984866Y-64984866D01*
X64799294Y-65210986D01*
X64661401Y-65468966D01*
X64576487Y-65748889D01*
X64547815Y-66040000D01*
X64576487Y-66331111D01*
X64661401Y-66611034D01*
X64799294Y-66869014D01*
X64984866Y-67095134D01*
X65014687Y-67119607D01*
X64945820Y-67140498D01*
X64835506Y-67199463D01*
X64738815Y-67278815D01*
X64659463Y-67375506D01*
X64600498Y-67485820D01*
X64564188Y-67605518D01*
X64551928Y-67730000D01*
X64551928Y-69430000D01*
X64564188Y-69554482D01*
X64600498Y-69674180D01*
X64659463Y-69784494D01*
X64738815Y-69881185D01*
X64835506Y-69960537D01*
X64945820Y-70019502D01*
X65065518Y-70055812D01*
X65190000Y-70068072D01*
X66890000Y-70068072D01*
X67014482Y-70055812D01*
X67134180Y-70019502D01*
X67244494Y-69960537D01*
X67341185Y-69881185D01*
X67420537Y-69784494D01*
X67479502Y-69674180D01*
X67515812Y-69554482D01*
X67528072Y-69430000D01*
X67528072Y-67730000D01*
X67515812Y-67605518D01*
X67479502Y-67485820D01*
X67420537Y-67375506D01*
X67341185Y-67278815D01*
X67244494Y-67199463D01*
X67134180Y-67140498D01*
X67065313Y-67119607D01*
X67095134Y-67095134D01*
X67280706Y-66869014D01*
X67418599Y-66611034D01*
X67503513Y-66331111D01*
X67532185Y-66040000D01*
X67503513Y-65748889D01*
X67418599Y-65468966D01*
X67280706Y-65210986D01*
X67095134Y-64984866D01*
X66869014Y-64799294D01*
X66814209Y-64770000D01*
X66869014Y-64740706D01*
X67095134Y-64555134D01*
X67280706Y-64329014D01*
X67418599Y-64071034D01*
X67503513Y-63791111D01*
X67532185Y-63500000D01*
X67503513Y-63208889D01*
X67418599Y-62928966D01*
X67280706Y-62670986D01*
X67095134Y-62444866D01*
X66869014Y-62259294D01*
X66804477Y-62224799D01*
X66921355Y-62155178D01*
X67137588Y-61960269D01*
X67311641Y-61726920D01*
X67436825Y-61464099D01*
X67481476Y-61316890D01*
X67360155Y-61087000D01*
X66167000Y-61087000D01*
X66167000Y-61107000D01*
X65913000Y-61107000D01*
X65913000Y-61087000D01*
X65893000Y-61087000D01*
X65893000Y-60833000D01*
X65913000Y-60833000D01*
X65913000Y-60813000D01*
X66167000Y-60813000D01*
X66167000Y-60833000D01*
X67360155Y-60833000D01*
X67481476Y-60603110D01*
X67436825Y-60455901D01*
X67311641Y-60193080D01*
X67137588Y-59959731D01*
X66921355Y-59764822D01*
X66804477Y-59695201D01*
X66869014Y-59660706D01*
X67095134Y-59475134D01*
X67280706Y-59249014D01*
X67418599Y-58991034D01*
X67503513Y-58711111D01*
X67532185Y-58420000D01*
X67503513Y-58128889D01*
X67418599Y-57848966D01*
X67280706Y-57590986D01*
X67095134Y-57364866D01*
X66869014Y-57179294D01*
X66814209Y-57150000D01*
X66869014Y-57120706D01*
X67095134Y-56935134D01*
X67280706Y-56709014D01*
X67418599Y-56451034D01*
X67503513Y-56171111D01*
X67532185Y-55880000D01*
X67503513Y-55588889D01*
X67418599Y-55308966D01*
X67280706Y-55050986D01*
X67095134Y-54824866D01*
X66869014Y-54639294D01*
X66814209Y-54610000D01*
X66869014Y-54580706D01*
X67095134Y-54395134D01*
X67280706Y-54169014D01*
X67418599Y-53911034D01*
X67503513Y-53631111D01*
X67532185Y-53340000D01*
X67503513Y-53048889D01*
X67418599Y-52768966D01*
X67280706Y-52510986D01*
X67095134Y-52284866D01*
X66869014Y-52099294D01*
X66814209Y-52070000D01*
X66869014Y-52040706D01*
X67095134Y-51855134D01*
X67280706Y-51629014D01*
X67418599Y-51371034D01*
X67503513Y-51091111D01*
X67532185Y-50800000D01*
X67503513Y-50508889D01*
X67418599Y-50228966D01*
X67280706Y-49970986D01*
X67095134Y-49744866D01*
X66869014Y-49559294D01*
X66814209Y-49530000D01*
X66869014Y-49500706D01*
X67095134Y-49315134D01*
X67280706Y-49089014D01*
X67418599Y-48831034D01*
X67503513Y-48551111D01*
X67532185Y-48260000D01*
X67503513Y-47968889D01*
X67418599Y-47688966D01*
X67280706Y-47430986D01*
X67095134Y-47204866D01*
X66869014Y-47019294D01*
X66814209Y-46990000D01*
X66869014Y-46960706D01*
X67095134Y-46775134D01*
X67280706Y-46549014D01*
X67418599Y-46291034D01*
X67503513Y-46011111D01*
X67532185Y-45720000D01*
X67503513Y-45428889D01*
X67418599Y-45148966D01*
X67280706Y-44890986D01*
X67095134Y-44664866D01*
X66869014Y-44479294D01*
X66814209Y-44450000D01*
X66869014Y-44420706D01*
X67095134Y-44235134D01*
X67280706Y-44009014D01*
X67418599Y-43751034D01*
X67503513Y-43471111D01*
X67532185Y-43180000D01*
X67503513Y-42888889D01*
X67418599Y-42608966D01*
X67280706Y-42350986D01*
X67095134Y-42124866D01*
X66869014Y-41939294D01*
X66814209Y-41910000D01*
X66869014Y-41880706D01*
X67095134Y-41695134D01*
X67280706Y-41469014D01*
X67418599Y-41211034D01*
X67503513Y-40931111D01*
X67532185Y-40640000D01*
X67503513Y-40348889D01*
X67418599Y-40068966D01*
X67280706Y-39810986D01*
X67095134Y-39584866D01*
X66869014Y-39399294D01*
X66814209Y-39370000D01*
X66869014Y-39340706D01*
X67095134Y-39155134D01*
X67280706Y-38929014D01*
X67418599Y-38671034D01*
X67503513Y-38391111D01*
X67532185Y-38100000D01*
X67503513Y-37808889D01*
X67418599Y-37528966D01*
X67280706Y-37270986D01*
X67095134Y-37044866D01*
X66869014Y-36859294D01*
X66814209Y-36830000D01*
X66869014Y-36800706D01*
X67095134Y-36615134D01*
X67280706Y-36389014D01*
X67418599Y-36131034D01*
X67503513Y-35851111D01*
X67532185Y-35560000D01*
X67503513Y-35268889D01*
X67418599Y-34988966D01*
X67280706Y-34730986D01*
X67095134Y-34504866D01*
X66869014Y-34319294D01*
X66814209Y-34290000D01*
X66869014Y-34260706D01*
X67095134Y-34075134D01*
X67280706Y-33849014D01*
X67418599Y-33591034D01*
X67503513Y-33311111D01*
X67532185Y-33020000D01*
X67503513Y-32728889D01*
X67418599Y-32448966D01*
X67280706Y-32190986D01*
X67095134Y-31964866D01*
X66869014Y-31779294D01*
X66814209Y-31750000D01*
X66869014Y-31720706D01*
X67095134Y-31535134D01*
X67280706Y-31309014D01*
X67418599Y-31051034D01*
X67503513Y-30771111D01*
X67532185Y-30480000D01*
X67503513Y-30188889D01*
X67418599Y-29908966D01*
X67280706Y-29650986D01*
X67095134Y-29424866D01*
X66869014Y-29239294D01*
X66761175Y-29181653D01*
X66841101Y-29138932D01*
X67059608Y-28959608D01*
X67238932Y-28741101D01*
X67372182Y-28491808D01*
X67454236Y-28221309D01*
X67481943Y-27940000D01*
X67454236Y-27658691D01*
X67372182Y-27388192D01*
X67238932Y-27138899D01*
X67059608Y-26920392D01*
X66841101Y-26741068D01*
X66708142Y-26670000D01*
X66841101Y-26598932D01*
X67059608Y-26419608D01*
X67238932Y-26201101D01*
X67372182Y-25951808D01*
X67454236Y-25681309D01*
X67481943Y-25400000D01*
X69627815Y-25400000D01*
X69656487Y-25691111D01*
X69741401Y-25971034D01*
X69879294Y-26229014D01*
X70064866Y-26455134D01*
X70290986Y-26640706D01*
X70345791Y-26670000D01*
X70290986Y-26699294D01*
X70064866Y-26884866D01*
X69879294Y-27110986D01*
X69741401Y-27368966D01*
X69656487Y-27648889D01*
X69627815Y-27940000D01*
X69656487Y-28231111D01*
X69741401Y-28511034D01*
X69879294Y-28769014D01*
X70064866Y-28995134D01*
X70290986Y-29180706D01*
X70345791Y-29210000D01*
X70290986Y-29239294D01*
X70064866Y-29424866D01*
X69879294Y-29650986D01*
X69741401Y-29908966D01*
X69656487Y-30188889D01*
X69627815Y-30480000D01*
X69656487Y-30771111D01*
X69741401Y-31051034D01*
X69879294Y-31309014D01*
X70064866Y-31535134D01*
X70290986Y-31720706D01*
X70345791Y-31750000D01*
X70290986Y-31779294D01*
X70064866Y-31964866D01*
X69879294Y-32190986D01*
X69741401Y-32448966D01*
X69656487Y-32728889D01*
X69627815Y-33020000D01*
X69656487Y-33311111D01*
X69741401Y-33591034D01*
X69879294Y-33849014D01*
X70064866Y-34075134D01*
X70290986Y-34260706D01*
X70345791Y-34290000D01*
X70290986Y-34319294D01*
X70064866Y-34504866D01*
X69879294Y-34730986D01*
X69741401Y-34988966D01*
X69656487Y-35268889D01*
X69627815Y-35560000D01*
X69656487Y-35851111D01*
X69741401Y-36131034D01*
X69879294Y-36389014D01*
X70064866Y-36615134D01*
X70290986Y-36800706D01*
X70345791Y-36830000D01*
X70290986Y-36859294D01*
X70064866Y-37044866D01*
X69879294Y-37270986D01*
X69741401Y-37528966D01*
X69656487Y-37808889D01*
X69627815Y-38100000D01*
X69656487Y-38391111D01*
X69741401Y-38671034D01*
X69879294Y-38929014D01*
X70064866Y-39155134D01*
X70290986Y-39340706D01*
X70345791Y-39370000D01*
X70290986Y-39399294D01*
X70064866Y-39584866D01*
X69879294Y-39810986D01*
X69741401Y-40068966D01*
X69656487Y-40348889D01*
X69627815Y-40640000D01*
X69656487Y-40931111D01*
X69741401Y-41211034D01*
X69879294Y-41469014D01*
X70064866Y-41695134D01*
X70290986Y-41880706D01*
X70345791Y-41910000D01*
X70290986Y-41939294D01*
X70064866Y-42124866D01*
X69879294Y-42350986D01*
X69741401Y-42608966D01*
X69656487Y-42888889D01*
X69627815Y-43180000D01*
X69656487Y-43471111D01*
X69741401Y-43751034D01*
X69879294Y-44009014D01*
X70064866Y-44235134D01*
X70290986Y-44420706D01*
X70345791Y-44450000D01*
X70290986Y-44479294D01*
X70064866Y-44664866D01*
X69879294Y-44890986D01*
X69741401Y-45148966D01*
X69656487Y-45428889D01*
X69627815Y-45720000D01*
X69656487Y-46011111D01*
X69741401Y-46291034D01*
X69879294Y-46549014D01*
X70064866Y-46775134D01*
X70290986Y-46960706D01*
X70345791Y-46990000D01*
X70290986Y-47019294D01*
X70064866Y-47204866D01*
X69879294Y-47430986D01*
X69741401Y-47688966D01*
X69656487Y-47968889D01*
X69627815Y-48260000D01*
X69656487Y-48551111D01*
X69741401Y-48831034D01*
X69879294Y-49089014D01*
X70064866Y-49315134D01*
X70290986Y-49500706D01*
X70345791Y-49530000D01*
X70290986Y-49559294D01*
X70064866Y-49744866D01*
X69879294Y-49970986D01*
X69741401Y-50228966D01*
X69656487Y-50508889D01*
X69627815Y-50800000D01*
X69656487Y-51091111D01*
X69741401Y-51371034D01*
X69879294Y-51629014D01*
X70064866Y-51855134D01*
X70290986Y-52040706D01*
X70345791Y-52070000D01*
X70290986Y-52099294D01*
X70064866Y-52284866D01*
X69879294Y-52510986D01*
X69741401Y-52768966D01*
X69656487Y-53048889D01*
X69627815Y-53340000D01*
X69656487Y-53631111D01*
X69741401Y-53911034D01*
X69879294Y-54169014D01*
X70064866Y-54395134D01*
X70290986Y-54580706D01*
X70345791Y-54610000D01*
X70290986Y-54639294D01*
X70064866Y-54824866D01*
X69879294Y-55050986D01*
X69741401Y-55308966D01*
X69656487Y-55588889D01*
X69627815Y-55880000D01*
X69656487Y-56171111D01*
X69741401Y-56451034D01*
X69879294Y-56709014D01*
X70064866Y-56935134D01*
X70290986Y-57120706D01*
X70345791Y-57150000D01*
X70290986Y-57179294D01*
X70064866Y-57364866D01*
X69879294Y-57590986D01*
X69741401Y-57848966D01*
X69656487Y-58128889D01*
X69627815Y-58420000D01*
X69656487Y-58711111D01*
X69741401Y-58991034D01*
X69879294Y-59249014D01*
X70064866Y-59475134D01*
X70290986Y-59660706D01*
X70345791Y-59690000D01*
X70290986Y-59719294D01*
X70064866Y-59904866D01*
X69879294Y-60130986D01*
X69741401Y-60388966D01*
X69656487Y-60668889D01*
X69627815Y-60960000D01*
X69656487Y-61251111D01*
X69741401Y-61531034D01*
X69879294Y-61789014D01*
X70064866Y-62015134D01*
X70290986Y-62200706D01*
X70345791Y-62230000D01*
X70290986Y-62259294D01*
X70064866Y-62444866D01*
X69879294Y-62670986D01*
X69741401Y-62928966D01*
X69656487Y-63208889D01*
X69627815Y-63500000D01*
X69656487Y-63791111D01*
X69741401Y-64071034D01*
X69879294Y-64329014D01*
X70064866Y-64555134D01*
X70290986Y-64740706D01*
X70345791Y-64770000D01*
X70290986Y-64799294D01*
X70064866Y-64984866D01*
X69879294Y-65210986D01*
X69741401Y-65468966D01*
X69656487Y-65748889D01*
X69627815Y-66040000D01*
X69656487Y-66331111D01*
X69741401Y-66611034D01*
X69879294Y-66869014D01*
X70064866Y-67095134D01*
X70290986Y-67280706D01*
X70345791Y-67310000D01*
X70290986Y-67339294D01*
X70064866Y-67524866D01*
X69879294Y-67750986D01*
X69741401Y-68008966D01*
X69656487Y-68288889D01*
X69627815Y-68580000D01*
X69656487Y-68871111D01*
X69741401Y-69151034D01*
X69879294Y-69409014D01*
X70064866Y-69635134D01*
X70290986Y-69820706D01*
X70548966Y-69958599D01*
X70828889Y-70043513D01*
X71047050Y-70065000D01*
X71192950Y-70065000D01*
X71411111Y-70043513D01*
X71691034Y-69958599D01*
X71949014Y-69820706D01*
X72175134Y-69635134D01*
X72360706Y-69409014D01*
X72498599Y-69151034D01*
X72583513Y-68871111D01*
X72612185Y-68580000D01*
X72583513Y-68288889D01*
X72498599Y-68008966D01*
X72360706Y-67750986D01*
X72175134Y-67524866D01*
X71949014Y-67339294D01*
X71894209Y-67310000D01*
X71949014Y-67280706D01*
X72175134Y-67095134D01*
X72360706Y-66869014D01*
X72498599Y-66611034D01*
X72583513Y-66331111D01*
X72612185Y-66040000D01*
X72583513Y-65748889D01*
X72498599Y-65468966D01*
X72360706Y-65210986D01*
X72175134Y-64984866D01*
X71949014Y-64799294D01*
X71894209Y-64770000D01*
X71949014Y-64740706D01*
X72175134Y-64555134D01*
X72360706Y-64329014D01*
X72498599Y-64071034D01*
X72583513Y-63791111D01*
X72612185Y-63500000D01*
X72583513Y-63208889D01*
X72498599Y-62928966D01*
X72360706Y-62670986D01*
X72175134Y-62444866D01*
X71949014Y-62259294D01*
X71894209Y-62230000D01*
X71949014Y-62200706D01*
X72175134Y-62015134D01*
X72360706Y-61789014D01*
X72498599Y-61531034D01*
X72583513Y-61251111D01*
X72612185Y-60960000D01*
X72583513Y-60668889D01*
X72498599Y-60388966D01*
X72360706Y-60130986D01*
X72175134Y-59904866D01*
X71949014Y-59719294D01*
X71894209Y-59690000D01*
X71949014Y-59660706D01*
X72175134Y-59475134D01*
X72360706Y-59249014D01*
X72498599Y-58991034D01*
X72583513Y-58711111D01*
X72612185Y-58420000D01*
X72583513Y-58128889D01*
X72498599Y-57848966D01*
X72360706Y-57590986D01*
X72175134Y-57364866D01*
X71949014Y-57179294D01*
X71894209Y-57150000D01*
X71949014Y-57120706D01*
X72175134Y-56935134D01*
X72360706Y-56709014D01*
X72498599Y-56451034D01*
X72583513Y-56171111D01*
X72612185Y-55880000D01*
X72583513Y-55588889D01*
X72498599Y-55308966D01*
X72360706Y-55050986D01*
X72175134Y-54824866D01*
X71949014Y-54639294D01*
X71894209Y-54610000D01*
X71949014Y-54580706D01*
X72175134Y-54395134D01*
X72360706Y-54169014D01*
X72498599Y-53911034D01*
X72583513Y-53631111D01*
X72612185Y-53340000D01*
X72583513Y-53048889D01*
X72498599Y-52768966D01*
X72360706Y-52510986D01*
X72175134Y-52284866D01*
X71949014Y-52099294D01*
X71894209Y-52070000D01*
X71949014Y-52040706D01*
X72175134Y-51855134D01*
X72360706Y-51629014D01*
X72498599Y-51371034D01*
X72583513Y-51091111D01*
X72612185Y-50800000D01*
X72583513Y-50508889D01*
X72498599Y-50228966D01*
X72360706Y-49970986D01*
X72175134Y-49744866D01*
X71949014Y-49559294D01*
X71894209Y-49530000D01*
X71949014Y-49500706D01*
X72175134Y-49315134D01*
X72360706Y-49089014D01*
X72498599Y-48831034D01*
X72583513Y-48551111D01*
X72612185Y-48260000D01*
X72583513Y-47968889D01*
X72498599Y-47688966D01*
X72360706Y-47430986D01*
X72175134Y-47204866D01*
X71949014Y-47019294D01*
X71894209Y-46990000D01*
X71949014Y-46960706D01*
X72175134Y-46775134D01*
X72360706Y-46549014D01*
X72498599Y-46291034D01*
X72583513Y-46011111D01*
X72612185Y-45720000D01*
X72583513Y-45428889D01*
X72498599Y-45148966D01*
X72360706Y-44890986D01*
X72175134Y-44664866D01*
X71949014Y-44479294D01*
X71894209Y-44450000D01*
X71949014Y-44420706D01*
X72175134Y-44235134D01*
X72360706Y-44009014D01*
X72498599Y-43751034D01*
X72583513Y-43471111D01*
X72612185Y-43180000D01*
X72583513Y-42888889D01*
X72498599Y-42608966D01*
X72360706Y-42350986D01*
X72175134Y-42124866D01*
X71949014Y-41939294D01*
X71894209Y-41910000D01*
X71949014Y-41880706D01*
X72175134Y-41695134D01*
X72360706Y-41469014D01*
X72498599Y-41211034D01*
X72583513Y-40931111D01*
X72612185Y-40640000D01*
X72583513Y-40348889D01*
X72498599Y-40068966D01*
X72360706Y-39810986D01*
X72175134Y-39584866D01*
X71949014Y-39399294D01*
X71894209Y-39370000D01*
X71949014Y-39340706D01*
X72175134Y-39155134D01*
X72360706Y-38929014D01*
X72498599Y-38671034D01*
X72583513Y-38391111D01*
X72612185Y-38100000D01*
X72583513Y-37808889D01*
X72498599Y-37528966D01*
X72360706Y-37270986D01*
X72175134Y-37044866D01*
X71949014Y-36859294D01*
X71894209Y-36830000D01*
X71949014Y-36800706D01*
X72175134Y-36615134D01*
X72360706Y-36389014D01*
X72498599Y-36131034D01*
X72583513Y-35851111D01*
X72612185Y-35560000D01*
X72583513Y-35268889D01*
X72498599Y-34988966D01*
X72360706Y-34730986D01*
X72175134Y-34504866D01*
X71949014Y-34319294D01*
X71894209Y-34290000D01*
X71949014Y-34260706D01*
X72175134Y-34075134D01*
X72360706Y-33849014D01*
X72498599Y-33591034D01*
X72583513Y-33311111D01*
X72612185Y-33020000D01*
X72583513Y-32728889D01*
X72498599Y-32448966D01*
X72360706Y-32190986D01*
X72175134Y-31964866D01*
X71949014Y-31779294D01*
X71894209Y-31750000D01*
X71949014Y-31720706D01*
X72175134Y-31535134D01*
X72360706Y-31309014D01*
X72498599Y-31051034D01*
X72583513Y-30771111D01*
X72612185Y-30480000D01*
X72583513Y-30188889D01*
X72498599Y-29908966D01*
X72360706Y-29650986D01*
X72175134Y-29424866D01*
X71949014Y-29239294D01*
X71894209Y-29210000D01*
X71949014Y-29180706D01*
X72175134Y-28995134D01*
X72360706Y-28769014D01*
X72498599Y-28511034D01*
X72583513Y-28231111D01*
X72612185Y-27940000D01*
X72583513Y-27648889D01*
X72498599Y-27368966D01*
X72360706Y-27110986D01*
X72175134Y-26884866D01*
X71949014Y-26699294D01*
X71894209Y-26670000D01*
X71949014Y-26640706D01*
X72175134Y-26455134D01*
X72360706Y-26229014D01*
X72498599Y-25971034D01*
X72583513Y-25691111D01*
X72612185Y-25400000D01*
X72583513Y-25108889D01*
X72498599Y-24828966D01*
X72360706Y-24570986D01*
X72175134Y-24344866D01*
X71949014Y-24159294D01*
X71691034Y-24021401D01*
X71411111Y-23936487D01*
X71192950Y-23915000D01*
X71047050Y-23915000D01*
X70828889Y-23936487D01*
X70548966Y-24021401D01*
X70290986Y-24159294D01*
X70064866Y-24344866D01*
X69879294Y-24570986D01*
X69741401Y-24828966D01*
X69656487Y-25108889D01*
X69627815Y-25400000D01*
X67481943Y-25400000D01*
X67454236Y-25118691D01*
X67372182Y-24848192D01*
X67238932Y-24598899D01*
X67059608Y-24380392D01*
X66841101Y-24201068D01*
X66591808Y-24067818D01*
X66321309Y-23985764D01*
X66110492Y-23965000D01*
X65969508Y-23965000D01*
X65758691Y-23985764D01*
X65488192Y-24067818D01*
X65238899Y-24201068D01*
X65020392Y-24380392D01*
X64841068Y-24598899D01*
X64707818Y-24848192D01*
X64625764Y-25118691D01*
X64598057Y-25400000D01*
X64625764Y-25681309D01*
X64707818Y-25951808D01*
X64841068Y-26201101D01*
X65020392Y-26419608D01*
X65238899Y-26598932D01*
X65371858Y-26670000D01*
X65238899Y-26741068D01*
X65020392Y-26920392D01*
X64841068Y-27138899D01*
X64707818Y-27388192D01*
X64625764Y-27658691D01*
X64598057Y-27940000D01*
X64625764Y-28221309D01*
X64707818Y-28491808D01*
X64841068Y-28741101D01*
X65020392Y-28959608D01*
X65238899Y-29138932D01*
X65318825Y-29181653D01*
X65210986Y-29239294D01*
X64984866Y-29424866D01*
X64799294Y-29650986D01*
X64661401Y-29908966D01*
X64576487Y-30188889D01*
X64547815Y-30480000D01*
X64576487Y-30771111D01*
X64661401Y-31051034D01*
X64799294Y-31309014D01*
X64984866Y-31535134D01*
X65210986Y-31720706D01*
X65265791Y-31750000D01*
X65210986Y-31779294D01*
X64984866Y-31964866D01*
X64799294Y-32190986D01*
X64661401Y-32448966D01*
X64576487Y-32728889D01*
X64547815Y-33020000D01*
X64576487Y-33311111D01*
X64661401Y-33591034D01*
X64799294Y-33849014D01*
X64984866Y-34075134D01*
X65210986Y-34260706D01*
X65265791Y-34290000D01*
X65210986Y-34319294D01*
X64984866Y-34504866D01*
X64799294Y-34730986D01*
X64661401Y-34988966D01*
X64576487Y-35268889D01*
X64565000Y-35385518D01*
X64565000Y-33362322D01*
X64568676Y-33324999D01*
X64565000Y-33287676D01*
X64565000Y-33287667D01*
X64554003Y-33176014D01*
X64510546Y-33032753D01*
X64465742Y-32948932D01*
X64439974Y-32900723D01*
X64368799Y-32813997D01*
X64345001Y-32784999D01*
X64316004Y-32761202D01*
X60319180Y-28764379D01*
X60349774Y-28743937D01*
X60493937Y-28599774D01*
X60607205Y-28430256D01*
X60685226Y-28241898D01*
X60725000Y-28041939D01*
X60725000Y-27838061D01*
X60685226Y-27638102D01*
X60607205Y-27449744D01*
X60575000Y-27401546D01*
X60575000Y-25559701D01*
X60614482Y-25555812D01*
X60734180Y-25519502D01*
X60844494Y-25460537D01*
X60941185Y-25381185D01*
X61020537Y-25284494D01*
X61079502Y-25174180D01*
X61115812Y-25054482D01*
X61128072Y-24930000D01*
X61128072Y-23330000D01*
X61115812Y-23205518D01*
X61079502Y-23085820D01*
X61020537Y-22975506D01*
X60941185Y-22878815D01*
X60844494Y-22799463D01*
X60734180Y-22740498D01*
X60614482Y-22704188D01*
X60490000Y-22691928D01*
X58890000Y-22691928D01*
X58765518Y-22704188D01*
X58645820Y-22740498D01*
X58535506Y-22799463D01*
X58438815Y-22878815D01*
X58359463Y-22975506D01*
X58300498Y-23085820D01*
X58264188Y-23205518D01*
X58262419Y-23223482D01*
X58169608Y-23110392D01*
X57951101Y-22931068D01*
X57701808Y-22797818D01*
X57431309Y-22715764D01*
X57220492Y-22695000D01*
X57079508Y-22695000D01*
X56868691Y-22715764D01*
X56598192Y-22797818D01*
X56348899Y-22931068D01*
X56130392Y-23110392D01*
X55951068Y-23328899D01*
X55880000Y-23461858D01*
X55808932Y-23328899D01*
X55629608Y-23110392D01*
X55411101Y-22931068D01*
X55161808Y-22797818D01*
X54891309Y-22715764D01*
X54680492Y-22695000D01*
X54539508Y-22695000D01*
X54328691Y-22715764D01*
X54058192Y-22797818D01*
X53808899Y-22931068D01*
X53590392Y-23110392D01*
X53411068Y-23328899D01*
X53340000Y-23461858D01*
X53268932Y-23328899D01*
X53089608Y-23110392D01*
X52871101Y-22931068D01*
X52621808Y-22797818D01*
X52351309Y-22715764D01*
X52140492Y-22695000D01*
X51999508Y-22695000D01*
X51788691Y-22715764D01*
X51518192Y-22797818D01*
X51268899Y-22931068D01*
X51050392Y-23110392D01*
X50871068Y-23328899D01*
X50800000Y-23461858D01*
X50728932Y-23328899D01*
X50549608Y-23110392D01*
X50331101Y-22931068D01*
X50081808Y-22797818D01*
X49811309Y-22715764D01*
X49600492Y-22695000D01*
X49459508Y-22695000D01*
X49248691Y-22715764D01*
X48978192Y-22797818D01*
X48728899Y-22931068D01*
X48510392Y-23110392D01*
X48331068Y-23328899D01*
X48260000Y-23461858D01*
X48188932Y-23328899D01*
X48009608Y-23110392D01*
X47791101Y-22931068D01*
X47541808Y-22797818D01*
X47271309Y-22715764D01*
X47060492Y-22695000D01*
X46919508Y-22695000D01*
X46708691Y-22715764D01*
X46438192Y-22797818D01*
X46188899Y-22931068D01*
X45970392Y-23110392D01*
X45791068Y-23328899D01*
X45720000Y-23461858D01*
X45648932Y-23328899D01*
X45469608Y-23110392D01*
X45251101Y-22931068D01*
X45001808Y-22797818D01*
X44731309Y-22715764D01*
X44520492Y-22695000D01*
X44379508Y-22695000D01*
X44168691Y-22715764D01*
X43898192Y-22797818D01*
X43648899Y-22931068D01*
X43430392Y-23110392D01*
X43251068Y-23328899D01*
X43180000Y-23461858D01*
X43108932Y-23328899D01*
X42929608Y-23110392D01*
X42711101Y-22931068D01*
X42461808Y-22797818D01*
X42191309Y-22715764D01*
X41980492Y-22695000D01*
X41839508Y-22695000D01*
X41628691Y-22715764D01*
X41358192Y-22797818D01*
X41108899Y-22931068D01*
X40890392Y-23110392D01*
X40711068Y-23328899D01*
X40640000Y-23461858D01*
X40568932Y-23328899D01*
X40389608Y-23110392D01*
X40171101Y-22931068D01*
X39921808Y-22797818D01*
X39651309Y-22715764D01*
X39440492Y-22695000D01*
X39299508Y-22695000D01*
X39088691Y-22715764D01*
X38818192Y-22797818D01*
X38568899Y-22931068D01*
X38350392Y-23110392D01*
X38171068Y-23328899D01*
X38100000Y-23461858D01*
X38028932Y-23328899D01*
X37849608Y-23110392D01*
X37631101Y-22931068D01*
X37381808Y-22797818D01*
X37111309Y-22715764D01*
X36900492Y-22695000D01*
X36759508Y-22695000D01*
X36548691Y-22715764D01*
X36278192Y-22797818D01*
X36028899Y-22931068D01*
X35810392Y-23110392D01*
X35631068Y-23328899D01*
X35497818Y-23578192D01*
X35415764Y-23848691D01*
X35388057Y-24130000D01*
X35415764Y-24411309D01*
X35497818Y-24681808D01*
X35631068Y-24931101D01*
X35810392Y-25149608D01*
X35945001Y-25260078D01*
X35945001Y-25827565D01*
X35921114Y-25827565D01*
X35920226Y-25823102D01*
X35842205Y-25634744D01*
X35728937Y-25465226D01*
X35584774Y-25321063D01*
X35415256Y-25207795D01*
X35226898Y-25129774D01*
X35026939Y-25090000D01*
X34964801Y-25090000D01*
X34763803Y-24889002D01*
X34740001Y-24859999D01*
X34624276Y-24765026D01*
X34492247Y-24694454D01*
X34348986Y-24650997D01*
X34237333Y-24640000D01*
X34237322Y-24640000D01*
X34200000Y-24636324D01*
X34162678Y-24640000D01*
X33782000Y-24640000D01*
X33782000Y-23520000D01*
X34322419Y-23520000D01*
X34350865Y-23517198D01*
X34358682Y-23517253D01*
X34367853Y-23516354D01*
X34614357Y-23490446D01*
X34672986Y-23478411D01*
X34731716Y-23467208D01*
X34740532Y-23464546D01*
X34740536Y-23464545D01*
X34740539Y-23464544D01*
X34977314Y-23391249D01*
X35032457Y-23368069D01*
X35087920Y-23345661D01*
X35096054Y-23341335D01*
X35096059Y-23341333D01*
X35096064Y-23341330D01*
X35314086Y-23223447D01*
X35363654Y-23190012D01*
X35413735Y-23157241D01*
X35420876Y-23151416D01*
X35611856Y-22993423D01*
X35653995Y-22950988D01*
X35696745Y-22909125D01*
X35702618Y-22902024D01*
X35859273Y-22709947D01*
X35892374Y-22660125D01*
X35926173Y-22610763D01*
X35930556Y-22602657D01*
X36046919Y-22383809D01*
X36069707Y-22328521D01*
X36093279Y-22273525D01*
X36096003Y-22264722D01*
X36167643Y-22027441D01*
X36179264Y-21968754D01*
X36191700Y-21910248D01*
X36192663Y-21901083D01*
X36216850Y-21654405D01*
X36234722Y-21472131D01*
X36268953Y-21358754D01*
X36324555Y-21254181D01*
X36399407Y-21162404D01*
X36490664Y-21086909D01*
X36594844Y-21030581D01*
X36707976Y-20995560D01*
X36856022Y-20980000D01*
X72357721Y-20980000D01*
X72507869Y-20994722D01*
G36*
X33890000Y-59184801D02*
G01*
X33890000Y-59246939D01*
X33929774Y-59446898D01*
X34007795Y-59635256D01*
X34121063Y-59804774D01*
X34265226Y-59948937D01*
X34434744Y-60062205D01*
X34623102Y-60140226D01*
X34823061Y-60180000D01*
X34890002Y-60180000D01*
X34890001Y-62677680D01*
X34886325Y-62715003D01*
X34890001Y-62752325D01*
X34890001Y-62752335D01*
X34900998Y-62863988D01*
X34932527Y-62967926D01*
X34944455Y-63007249D01*
X35015027Y-63139279D01*
X35037583Y-63166763D01*
X35110000Y-63255004D01*
X35139003Y-63278806D01*
X35871203Y-64011008D01*
X35894997Y-64040001D01*
X35923990Y-64063795D01*
X35923994Y-64063799D01*
X35980296Y-64110004D01*
X36010722Y-64134974D01*
X36142751Y-64205546D01*
X36286012Y-64249003D01*
X36397665Y-64260000D01*
X36397674Y-64260000D01*
X36434997Y-64263676D01*
X36472320Y-64260000D01*
X40602678Y-64260000D01*
X40640000Y-64263676D01*
X40677322Y-64260000D01*
X40677333Y-64260000D01*
X40788986Y-64249003D01*
X40932247Y-64205546D01*
X41064276Y-64134974D01*
X41180001Y-64040001D01*
X41203804Y-64010997D01*
X41584094Y-63630708D01*
X41628691Y-63644236D01*
X41839508Y-63665000D01*
X41980492Y-63665000D01*
X42191309Y-63644236D01*
X42461808Y-63562182D01*
X42711101Y-63428932D01*
X42929608Y-63249608D01*
X43108932Y-63031101D01*
X43180000Y-62898142D01*
X43251068Y-63031101D01*
X43430392Y-63249608D01*
X43648899Y-63428932D01*
X43690000Y-63450901D01*
X43690001Y-66061288D01*
X43646063Y-66105226D01*
X43532795Y-66274744D01*
X43454774Y-66463102D01*
X43415000Y-66663061D01*
X43415000Y-66866939D01*
X43454774Y-67066898D01*
X43532795Y-67255256D01*
X43646063Y-67424774D01*
X43790226Y-67568937D01*
X43959744Y-67682205D01*
X44148102Y-67760226D01*
X44348061Y-67800000D01*
X44551939Y-67800000D01*
X44751898Y-67760226D01*
X44940256Y-67682205D01*
X45109774Y-67568937D01*
X45253937Y-67424774D01*
X45367205Y-67255256D01*
X45445226Y-67066898D01*
X45485000Y-66866939D01*
X45485000Y-66663061D01*
X45445226Y-66463102D01*
X45367205Y-66274744D01*
X45253937Y-66105226D01*
X45210000Y-66061289D01*
X45210000Y-63450901D01*
X45251101Y-63428932D01*
X45469608Y-63249608D01*
X45648932Y-63031101D01*
X45720000Y-62898142D01*
X45791068Y-63031101D01*
X45970392Y-63249608D01*
X46188899Y-63428932D01*
X46438192Y-63562182D01*
X46708691Y-63644236D01*
X46919508Y-63665000D01*
X47060492Y-63665000D01*
X47271309Y-63644236D01*
X47500001Y-63574864D01*
X47500000Y-68505136D01*
X47271309Y-68435764D01*
X47060492Y-68415000D01*
X46919508Y-68415000D01*
X46708691Y-68435764D01*
X46438192Y-68517818D01*
X46188899Y-68651068D01*
X45970392Y-68830392D01*
X45791068Y-69048899D01*
X45720000Y-69181858D01*
X45648932Y-69048899D01*
X45469608Y-68830392D01*
X45251101Y-68651068D01*
X45001808Y-68517818D01*
X44731309Y-68435764D01*
X44520492Y-68415000D01*
X44379508Y-68415000D01*
X44168691Y-68435764D01*
X43898192Y-68517818D01*
X43648899Y-68651068D01*
X43430392Y-68830392D01*
X43251068Y-69048899D01*
X43180000Y-69181858D01*
X43108932Y-69048899D01*
X42929608Y-68830392D01*
X42711101Y-68651068D01*
X42461808Y-68517818D01*
X42191309Y-68435764D01*
X41980492Y-68415000D01*
X41839508Y-68415000D01*
X41628691Y-68435764D01*
X41358192Y-68517818D01*
X41108899Y-68651068D01*
X40890392Y-68830392D01*
X40711068Y-69048899D01*
X40640000Y-69181858D01*
X40568932Y-69048899D01*
X40389608Y-68830392D01*
X40171101Y-68651068D01*
X39921808Y-68517818D01*
X39651309Y-68435764D01*
X39440492Y-68415000D01*
X39299508Y-68415000D01*
X39088691Y-68435764D01*
X38818192Y-68517818D01*
X38568899Y-68651068D01*
X38350392Y-68830392D01*
X38171068Y-69048899D01*
X38100000Y-69181858D01*
X38028932Y-69048899D01*
X37849608Y-68830392D01*
X37631101Y-68651068D01*
X37381808Y-68517818D01*
X37111309Y-68435764D01*
X36900492Y-68415000D01*
X36759508Y-68415000D01*
X36548691Y-68435764D01*
X36278192Y-68517818D01*
X36028899Y-68651068D01*
X35866793Y-68784105D01*
X35842205Y-68724744D01*
X35728937Y-68555226D01*
X35584774Y-68411063D01*
X35415256Y-68297795D01*
X35226898Y-68219774D01*
X35026939Y-68180000D01*
X34964801Y-68180000D01*
X34853803Y-68069002D01*
X34830001Y-68039999D01*
X34714276Y-67945026D01*
X34582247Y-67874454D01*
X34438986Y-67830997D01*
X34327333Y-67820000D01*
X34327322Y-67820000D01*
X34290000Y-67816324D01*
X34252678Y-67820000D01*
X33782000Y-67820000D01*
X33782000Y-66800000D01*
X33885199Y-66800000D01*
X33890000Y-66804801D01*
X33890000Y-66866939D01*
X33929774Y-67066898D01*
X34007795Y-67255256D01*
X34121063Y-67424774D01*
X34265226Y-67568937D01*
X34434744Y-67682205D01*
X34623102Y-67760226D01*
X34823061Y-67800000D01*
X35026939Y-67800000D01*
X35226898Y-67760226D01*
X35415256Y-67682205D01*
X35584774Y-67568937D01*
X35728937Y-67424774D01*
X35842205Y-67255256D01*
X35920226Y-67066898D01*
X35960000Y-66866939D01*
X35960000Y-66663061D01*
X35920226Y-66463102D01*
X35842205Y-66274744D01*
X35728937Y-66105226D01*
X35584774Y-65961063D01*
X35415256Y-65847795D01*
X35226898Y-65769774D01*
X35026939Y-65730000D01*
X34964801Y-65730000D01*
X34763803Y-65529002D01*
X34740001Y-65499999D01*
X34624276Y-65405026D01*
X34492247Y-65334454D01*
X34348986Y-65290997D01*
X34237333Y-65280000D01*
X34237322Y-65280000D01*
X34200000Y-65276324D01*
X34162678Y-65280000D01*
X33782000Y-65280000D01*
X33782000Y-61998923D01*
X33799502Y-61966180D01*
X33835812Y-61846482D01*
X33848072Y-61722000D01*
X33845000Y-61245750D01*
X33782000Y-61182750D01*
X33782000Y-60737250D01*
X33845000Y-60674250D01*
X33848072Y-60198000D01*
X33835812Y-60073518D01*
X33799502Y-59953820D01*
X33782000Y-59921077D01*
X33782000Y-59180000D01*
X33885199Y-59180000D01*
X33890000Y-59184801D01*
X33890000Y-59184801D01*
G37*
X33890000Y-59184801D02*
X33890000Y-59246939D01*
X33929774Y-59446898D01*
X34007795Y-59635256D01*
X34121063Y-59804774D01*
X34265226Y-59948937D01*
X34434744Y-60062205D01*
X34623102Y-60140226D01*
X34823061Y-60180000D01*
X34890002Y-60180000D01*
X34890001Y-62677680D01*
X34886325Y-62715003D01*
X34890001Y-62752325D01*
X34890001Y-62752335D01*
X34900998Y-62863988D01*
X34932527Y-62967926D01*
X34944455Y-63007249D01*
X35015027Y-63139279D01*
X35037583Y-63166763D01*
X35110000Y-63255004D01*
X35139003Y-63278806D01*
X35871203Y-64011008D01*
X35894997Y-64040001D01*
X35923990Y-64063795D01*
X35923994Y-64063799D01*
X35980296Y-64110004D01*
X36010722Y-64134974D01*
X36142751Y-64205546D01*
X36286012Y-64249003D01*
X36397665Y-64260000D01*
X36397674Y-64260000D01*
X36434997Y-64263676D01*
X36472320Y-64260000D01*
X40602678Y-64260000D01*
X40640000Y-64263676D01*
X40677322Y-64260000D01*
X40677333Y-64260000D01*
X40788986Y-64249003D01*
X40932247Y-64205546D01*
X41064276Y-64134974D01*
X41180001Y-64040001D01*
X41203804Y-64010997D01*
X41584094Y-63630708D01*
X41628691Y-63644236D01*
X41839508Y-63665000D01*
X41980492Y-63665000D01*
X42191309Y-63644236D01*
X42461808Y-63562182D01*
X42711101Y-63428932D01*
X42929608Y-63249608D01*
X43108932Y-63031101D01*
X43180000Y-62898142D01*
X43251068Y-63031101D01*
X43430392Y-63249608D01*
X43648899Y-63428932D01*
X43690000Y-63450901D01*
X43690001Y-66061288D01*
X43646063Y-66105226D01*
X43532795Y-66274744D01*
X43454774Y-66463102D01*
X43415000Y-66663061D01*
X43415000Y-66866939D01*
X43454774Y-67066898D01*
X43532795Y-67255256D01*
X43646063Y-67424774D01*
X43790226Y-67568937D01*
X43959744Y-67682205D01*
X44148102Y-67760226D01*
X44348061Y-67800000D01*
X44551939Y-67800000D01*
X44751898Y-67760226D01*
X44940256Y-67682205D01*
X45109774Y-67568937D01*
X45253937Y-67424774D01*
X45367205Y-67255256D01*
X45445226Y-67066898D01*
X45485000Y-66866939D01*
X45485000Y-66663061D01*
X45445226Y-66463102D01*
X45367205Y-66274744D01*
X45253937Y-66105226D01*
X45210000Y-66061289D01*
X45210000Y-63450901D01*
X45251101Y-63428932D01*
X45469608Y-63249608D01*
X45648932Y-63031101D01*
X45720000Y-62898142D01*
X45791068Y-63031101D01*
X45970392Y-63249608D01*
X46188899Y-63428932D01*
X46438192Y-63562182D01*
X46708691Y-63644236D01*
X46919508Y-63665000D01*
X47060492Y-63665000D01*
X47271309Y-63644236D01*
X47500001Y-63574864D01*
X47500000Y-68505136D01*
X47271309Y-68435764D01*
X47060492Y-68415000D01*
X46919508Y-68415000D01*
X46708691Y-68435764D01*
X46438192Y-68517818D01*
X46188899Y-68651068D01*
X45970392Y-68830392D01*
X45791068Y-69048899D01*
X45720000Y-69181858D01*
X45648932Y-69048899D01*
X45469608Y-68830392D01*
X45251101Y-68651068D01*
X45001808Y-68517818D01*
X44731309Y-68435764D01*
X44520492Y-68415000D01*
X44379508Y-68415000D01*
X44168691Y-68435764D01*
X43898192Y-68517818D01*
X43648899Y-68651068D01*
X43430392Y-68830392D01*
X43251068Y-69048899D01*
X43180000Y-69181858D01*
X43108932Y-69048899D01*
X42929608Y-68830392D01*
X42711101Y-68651068D01*
X42461808Y-68517818D01*
X42191309Y-68435764D01*
X41980492Y-68415000D01*
X41839508Y-68415000D01*
X41628691Y-68435764D01*
X41358192Y-68517818D01*
X41108899Y-68651068D01*
X40890392Y-68830392D01*
X40711068Y-69048899D01*
X40640000Y-69181858D01*
X40568932Y-69048899D01*
X40389608Y-68830392D01*
X40171101Y-68651068D01*
X39921808Y-68517818D01*
X39651309Y-68435764D01*
X39440492Y-68415000D01*
X39299508Y-68415000D01*
X39088691Y-68435764D01*
X38818192Y-68517818D01*
X38568899Y-68651068D01*
X38350392Y-68830392D01*
X38171068Y-69048899D01*
X38100000Y-69181858D01*
X38028932Y-69048899D01*
X37849608Y-68830392D01*
X37631101Y-68651068D01*
X37381808Y-68517818D01*
X37111309Y-68435764D01*
X36900492Y-68415000D01*
X36759508Y-68415000D01*
X36548691Y-68435764D01*
X36278192Y-68517818D01*
X36028899Y-68651068D01*
X35866793Y-68784105D01*
X35842205Y-68724744D01*
X35728937Y-68555226D01*
X35584774Y-68411063D01*
X35415256Y-68297795D01*
X35226898Y-68219774D01*
X35026939Y-68180000D01*
X34964801Y-68180000D01*
X34853803Y-68069002D01*
X34830001Y-68039999D01*
X34714276Y-67945026D01*
X34582247Y-67874454D01*
X34438986Y-67830997D01*
X34327333Y-67820000D01*
X34327322Y-67820000D01*
X34290000Y-67816324D01*
X34252678Y-67820000D01*
X33782000Y-67820000D01*
X33782000Y-66800000D01*
X33885199Y-66800000D01*
X33890000Y-66804801D01*
X33890000Y-66866939D01*
X33929774Y-67066898D01*
X34007795Y-67255256D01*
X34121063Y-67424774D01*
X34265226Y-67568937D01*
X34434744Y-67682205D01*
X34623102Y-67760226D01*
X34823061Y-67800000D01*
X35026939Y-67800000D01*
X35226898Y-67760226D01*
X35415256Y-67682205D01*
X35584774Y-67568937D01*
X35728937Y-67424774D01*
X35842205Y-67255256D01*
X35920226Y-67066898D01*
X35960000Y-66866939D01*
X35960000Y-66663061D01*
X35920226Y-66463102D01*
X35842205Y-66274744D01*
X35728937Y-66105226D01*
X35584774Y-65961063D01*
X35415256Y-65847795D01*
X35226898Y-65769774D01*
X35026939Y-65730000D01*
X34964801Y-65730000D01*
X34763803Y-65529002D01*
X34740001Y-65499999D01*
X34624276Y-65405026D01*
X34492247Y-65334454D01*
X34348986Y-65290997D01*
X34237333Y-65280000D01*
X34237322Y-65280000D01*
X34200000Y-65276324D01*
X34162678Y-65280000D01*
X33782000Y-65280000D01*
X33782000Y-61998923D01*
X33799502Y-61966180D01*
X33835812Y-61846482D01*
X33848072Y-61722000D01*
X33845000Y-61245750D01*
X33782000Y-61182750D01*
X33782000Y-60737250D01*
X33845000Y-60674250D01*
X33848072Y-60198000D01*
X33835812Y-60073518D01*
X33799502Y-59953820D01*
X33782000Y-59921077D01*
X33782000Y-59180000D01*
X33885199Y-59180000D01*
X33890000Y-59184801D01*
G36*
X49601068Y-50331101D02*
G01*
X49780392Y-50549608D01*
X49998899Y-50728932D01*
X50248192Y-50862182D01*
X50518691Y-50944236D01*
X50729508Y-50965000D01*
X50870492Y-50965000D01*
X51081309Y-50944236D01*
X51351808Y-50862182D01*
X51601101Y-50728932D01*
X51819608Y-50549608D01*
X51912419Y-50436518D01*
X51914188Y-50454482D01*
X51950498Y-50574180D01*
X52009463Y-50684494D01*
X52088815Y-50781185D01*
X52185506Y-50860537D01*
X52295820Y-50919502D01*
X52415518Y-50955812D01*
X52540000Y-50968072D01*
X54140000Y-50968072D01*
X54221557Y-50960040D01*
X54249774Y-51101898D01*
X54327795Y-51290256D01*
X54395000Y-51390836D01*
X54394999Y-56187477D01*
X54303414Y-56086481D01*
X54077420Y-55918963D01*
X53823087Y-55798754D01*
X53689039Y-55758096D01*
X53467000Y-55880085D01*
X53467000Y-57023000D01*
X53487000Y-57023000D01*
X53487000Y-57277000D01*
X53467000Y-57277000D01*
X53467000Y-58419915D01*
X53689039Y-58541904D01*
X53823087Y-58501246D01*
X54077420Y-58381037D01*
X54303414Y-58213519D01*
X54394999Y-58112523D01*
X54394999Y-58830198D01*
X52395906Y-60829292D01*
X52351309Y-60815764D01*
X52140492Y-60795000D01*
X51999508Y-60795000D01*
X51788691Y-60815764D01*
X51518192Y-60897818D01*
X51268899Y-61031068D01*
X51050392Y-61210392D01*
X50871068Y-61428899D01*
X50800000Y-61561858D01*
X50728932Y-61428899D01*
X50549608Y-61210392D01*
X50331101Y-61031068D01*
X50081808Y-60897818D01*
X49811309Y-60815764D01*
X49600492Y-60795000D01*
X49459508Y-60795000D01*
X49248691Y-60815764D01*
X49020000Y-60885136D01*
X49020000Y-58852324D01*
X49023676Y-58815001D01*
X49020000Y-58777678D01*
X49020000Y-58777669D01*
X49009003Y-58666016D01*
X48965546Y-58522755D01*
X48911501Y-58421646D01*
X48997420Y-58381037D01*
X49223414Y-58213519D01*
X49412385Y-58005131D01*
X49530000Y-57809018D01*
X49647615Y-58005131D01*
X49836586Y-58213519D01*
X50062580Y-58381037D01*
X50316913Y-58501246D01*
X50450961Y-58541904D01*
X50673000Y-58419915D01*
X50673000Y-57277000D01*
X50927000Y-57277000D01*
X50927000Y-58419915D01*
X51149039Y-58541904D01*
X51283087Y-58501246D01*
X51537420Y-58381037D01*
X51763414Y-58213519D01*
X51952385Y-58005131D01*
X52070000Y-57809018D01*
X52187615Y-58005131D01*
X52376586Y-58213519D01*
X52602580Y-58381037D01*
X52856913Y-58501246D01*
X52990961Y-58541904D01*
X53213000Y-58419915D01*
X53213000Y-57277000D01*
X50927000Y-57277000D01*
X50673000Y-57277000D01*
X48387000Y-57277000D01*
X48387000Y-57297000D01*
X48133000Y-57297000D01*
X48133000Y-57277000D01*
X48113000Y-57277000D01*
X48113000Y-57023000D01*
X48133000Y-57023000D01*
X48133000Y-55880085D01*
X48387000Y-55880085D01*
X48387000Y-57023000D01*
X50673000Y-57023000D01*
X50673000Y-55880085D01*
X50927000Y-55880085D01*
X50927000Y-57023000D01*
X53213000Y-57023000D01*
X53213000Y-55880085D01*
X52990961Y-55758096D01*
X52856913Y-55798754D01*
X52602580Y-55918963D01*
X52376586Y-56086481D01*
X52187615Y-56294869D01*
X52070000Y-56490982D01*
X51952385Y-56294869D01*
X51763414Y-56086481D01*
X51537420Y-55918963D01*
X51283087Y-55798754D01*
X51149039Y-55758096D01*
X50927000Y-55880085D01*
X50673000Y-55880085D01*
X50450961Y-55758096D01*
X50316913Y-55798754D01*
X50062580Y-55918963D01*
X49836586Y-56086481D01*
X49647615Y-56294869D01*
X49530000Y-56490982D01*
X49412385Y-56294869D01*
X49223414Y-56086481D01*
X48997420Y-55918963D01*
X48743087Y-55798754D01*
X48609039Y-55758096D01*
X48387000Y-55880085D01*
X48133000Y-55880085D01*
X47910961Y-55758096D01*
X47776913Y-55798754D01*
X47750000Y-55811474D01*
X47750000Y-53557322D01*
X47753676Y-53519999D01*
X47750000Y-53482676D01*
X47750000Y-53482667D01*
X47739003Y-53371014D01*
X47695546Y-53227753D01*
X47624974Y-53095724D01*
X47546994Y-53000705D01*
X47600226Y-53053937D01*
X47769744Y-53167205D01*
X47958102Y-53245226D01*
X48158061Y-53285000D01*
X48361939Y-53285000D01*
X48561898Y-53245226D01*
X48750256Y-53167205D01*
X48919774Y-53053937D01*
X49063937Y-52909774D01*
X49177205Y-52740256D01*
X49255226Y-52551898D01*
X49295000Y-52351939D01*
X49295000Y-52148061D01*
X49255226Y-51948102D01*
X49177205Y-51759744D01*
X49063937Y-51590226D01*
X49020000Y-51546289D01*
X49020000Y-50750901D01*
X49061101Y-50728932D01*
X49279608Y-50549608D01*
X49458932Y-50331101D01*
X49530000Y-50198142D01*
X49601068Y-50331101D01*
X49601068Y-50331101D01*
G37*
X49601068Y-50331101D02*
X49780392Y-50549608D01*
X49998899Y-50728932D01*
X50248192Y-50862182D01*
X50518691Y-50944236D01*
X50729508Y-50965000D01*
X50870492Y-50965000D01*
X51081309Y-50944236D01*
X51351808Y-50862182D01*
X51601101Y-50728932D01*
X51819608Y-50549608D01*
X51912419Y-50436518D01*
X51914188Y-50454482D01*
X51950498Y-50574180D01*
X52009463Y-50684494D01*
X52088815Y-50781185D01*
X52185506Y-50860537D01*
X52295820Y-50919502D01*
X52415518Y-50955812D01*
X52540000Y-50968072D01*
X54140000Y-50968072D01*
X54221557Y-50960040D01*
X54249774Y-51101898D01*
X54327795Y-51290256D01*
X54395000Y-51390836D01*
X54394999Y-56187477D01*
X54303414Y-56086481D01*
X54077420Y-55918963D01*
X53823087Y-55798754D01*
X53689039Y-55758096D01*
X53467000Y-55880085D01*
X53467000Y-57023000D01*
X53487000Y-57023000D01*
X53487000Y-57277000D01*
X53467000Y-57277000D01*
X53467000Y-58419915D01*
X53689039Y-58541904D01*
X53823087Y-58501246D01*
X54077420Y-58381037D01*
X54303414Y-58213519D01*
X54394999Y-58112523D01*
X54394999Y-58830198D01*
X52395906Y-60829292D01*
X52351309Y-60815764D01*
X52140492Y-60795000D01*
X51999508Y-60795000D01*
X51788691Y-60815764D01*
X51518192Y-60897818D01*
X51268899Y-61031068D01*
X51050392Y-61210392D01*
X50871068Y-61428899D01*
X50800000Y-61561858D01*
X50728932Y-61428899D01*
X50549608Y-61210392D01*
X50331101Y-61031068D01*
X50081808Y-60897818D01*
X49811309Y-60815764D01*
X49600492Y-60795000D01*
X49459508Y-60795000D01*
X49248691Y-60815764D01*
X49020000Y-60885136D01*
X49020000Y-58852324D01*
X49023676Y-58815001D01*
X49020000Y-58777678D01*
X49020000Y-58777669D01*
X49009003Y-58666016D01*
X48965546Y-58522755D01*
X48911501Y-58421646D01*
X48997420Y-58381037D01*
X49223414Y-58213519D01*
X49412385Y-58005131D01*
X49530000Y-57809018D01*
X49647615Y-58005131D01*
X49836586Y-58213519D01*
X50062580Y-58381037D01*
X50316913Y-58501246D01*
X50450961Y-58541904D01*
X50673000Y-58419915D01*
X50673000Y-57277000D01*
X50927000Y-57277000D01*
X50927000Y-58419915D01*
X51149039Y-58541904D01*
X51283087Y-58501246D01*
X51537420Y-58381037D01*
X51763414Y-58213519D01*
X51952385Y-58005131D01*
X52070000Y-57809018D01*
X52187615Y-58005131D01*
X52376586Y-58213519D01*
X52602580Y-58381037D01*
X52856913Y-58501246D01*
X52990961Y-58541904D01*
X53213000Y-58419915D01*
X53213000Y-57277000D01*
X50927000Y-57277000D01*
X50673000Y-57277000D01*
X48387000Y-57277000D01*
X48387000Y-57297000D01*
X48133000Y-57297000D01*
X48133000Y-57277000D01*
X48113000Y-57277000D01*
X48113000Y-57023000D01*
X48133000Y-57023000D01*
X48133000Y-55880085D01*
X48387000Y-55880085D01*
X48387000Y-57023000D01*
X50673000Y-57023000D01*
X50673000Y-55880085D01*
X50927000Y-55880085D01*
X50927000Y-57023000D01*
X53213000Y-57023000D01*
X53213000Y-55880085D01*
X52990961Y-55758096D01*
X52856913Y-55798754D01*
X52602580Y-55918963D01*
X52376586Y-56086481D01*
X52187615Y-56294869D01*
X52070000Y-56490982D01*
X51952385Y-56294869D01*
X51763414Y-56086481D01*
X51537420Y-55918963D01*
X51283087Y-55798754D01*
X51149039Y-55758096D01*
X50927000Y-55880085D01*
X50673000Y-55880085D01*
X50450961Y-55758096D01*
X50316913Y-55798754D01*
X50062580Y-55918963D01*
X49836586Y-56086481D01*
X49647615Y-56294869D01*
X49530000Y-56490982D01*
X49412385Y-56294869D01*
X49223414Y-56086481D01*
X48997420Y-55918963D01*
X48743087Y-55798754D01*
X48609039Y-55758096D01*
X48387000Y-55880085D01*
X48133000Y-55880085D01*
X47910961Y-55758096D01*
X47776913Y-55798754D01*
X47750000Y-55811474D01*
X47750000Y-53557322D01*
X47753676Y-53519999D01*
X47750000Y-53482676D01*
X47750000Y-53482667D01*
X47739003Y-53371014D01*
X47695546Y-53227753D01*
X47624974Y-53095724D01*
X47546994Y-53000705D01*
X47600226Y-53053937D01*
X47769744Y-53167205D01*
X47958102Y-53245226D01*
X48158061Y-53285000D01*
X48361939Y-53285000D01*
X48561898Y-53245226D01*
X48750256Y-53167205D01*
X48919774Y-53053937D01*
X49063937Y-52909774D01*
X49177205Y-52740256D01*
X49255226Y-52551898D01*
X49295000Y-52351939D01*
X49295000Y-52148061D01*
X49255226Y-51948102D01*
X49177205Y-51759744D01*
X49063937Y-51590226D01*
X49020000Y-51546289D01*
X49020000Y-50750901D01*
X49061101Y-50728932D01*
X49279608Y-50549608D01*
X49458932Y-50331101D01*
X49530000Y-50198142D01*
X49601068Y-50331101D01*
G36*
X56299999Y-44860198D02*
G01*
X53660199Y-47500000D01*
X52107322Y-47500000D01*
X52069999Y-47496324D01*
X52032676Y-47500000D01*
X52032667Y-47500000D01*
X51921014Y-47510997D01*
X51777753Y-47554454D01*
X51645724Y-47625026D01*
X51529999Y-47719999D01*
X51506201Y-47748997D01*
X51125906Y-48129292D01*
X51081309Y-48115764D01*
X50870492Y-48095000D01*
X50729508Y-48095000D01*
X50518691Y-48115764D01*
X50248192Y-48197818D01*
X49998899Y-48331068D01*
X49780392Y-48510392D01*
X49601068Y-48728899D01*
X49530000Y-48861858D01*
X49458932Y-48728899D01*
X49279608Y-48510392D01*
X49061101Y-48331068D01*
X48811808Y-48197818D01*
X48541309Y-48115764D01*
X48330492Y-48095000D01*
X48189508Y-48095000D01*
X47978691Y-48115764D01*
X47708192Y-48197818D01*
X47458899Y-48331068D01*
X47240392Y-48510392D01*
X47061068Y-48728899D01*
X46990000Y-48861858D01*
X46918932Y-48728899D01*
X46739608Y-48510392D01*
X46521101Y-48331068D01*
X46271808Y-48197818D01*
X46001309Y-48115764D01*
X45790492Y-48095000D01*
X45689803Y-48095000D01*
X45856721Y-47928081D01*
X46021898Y-47895226D01*
X46210256Y-47817205D01*
X46379774Y-47703937D01*
X46523937Y-47559774D01*
X46637205Y-47390256D01*
X46715226Y-47201898D01*
X46755000Y-47001939D01*
X46755000Y-46798061D01*
X46715226Y-46598102D01*
X46637205Y-46409744D01*
X46523937Y-46240226D01*
X46480000Y-46196289D01*
X46480000Y-45794864D01*
X46708691Y-45864236D01*
X46919508Y-45885000D01*
X47060492Y-45885000D01*
X47271309Y-45864236D01*
X47541808Y-45782182D01*
X47791101Y-45648932D01*
X48009608Y-45469608D01*
X48188932Y-45251101D01*
X48260000Y-45118142D01*
X48331068Y-45251101D01*
X48510392Y-45469608D01*
X48728899Y-45648932D01*
X48978192Y-45782182D01*
X49248691Y-45864236D01*
X49459508Y-45885000D01*
X49600492Y-45885000D01*
X49811309Y-45864236D01*
X49855906Y-45850708D01*
X50091202Y-46086004D01*
X50115000Y-46115002D01*
X50230725Y-46209975D01*
X50362754Y-46280547D01*
X50506015Y-46324004D01*
X50617668Y-46335001D01*
X50617676Y-46335001D01*
X50655001Y-46338677D01*
X50692326Y-46335001D01*
X52812677Y-46335001D01*
X52849999Y-46338677D01*
X52887321Y-46335001D01*
X52887332Y-46335001D01*
X52998985Y-46324004D01*
X53142246Y-46280547D01*
X53274275Y-46209975D01*
X53390000Y-46115002D01*
X53413803Y-46085998D01*
X53841673Y-45658128D01*
X53872580Y-45681037D01*
X54126913Y-45801246D01*
X54260961Y-45841904D01*
X54483000Y-45719915D01*
X54483000Y-44577000D01*
X54737000Y-44577000D01*
X54737000Y-45719915D01*
X54959039Y-45841904D01*
X55093087Y-45801246D01*
X55347420Y-45681037D01*
X55573414Y-45513519D01*
X55762385Y-45305131D01*
X55907070Y-45063881D01*
X56001909Y-44799040D01*
X55880624Y-44577000D01*
X54737000Y-44577000D01*
X54483000Y-44577000D01*
X54463000Y-44577000D01*
X54463000Y-44323000D01*
X54483000Y-44323000D01*
X54483000Y-43180085D01*
X54737000Y-43180085D01*
X54737000Y-44323000D01*
X55880624Y-44323000D01*
X56001909Y-44100960D01*
X55907070Y-43836119D01*
X55762385Y-43594869D01*
X55573414Y-43386481D01*
X55347420Y-43218963D01*
X55093087Y-43098754D01*
X54959039Y-43058096D01*
X54737000Y-43180085D01*
X54483000Y-43180085D01*
X54260961Y-43058096D01*
X54126913Y-43098754D01*
X54100000Y-43111474D01*
X54100000Y-41696799D01*
X56300000Y-39496800D01*
X56299999Y-44860198D01*
X56299999Y-44860198D01*
G37*
X56299999Y-44860198D02*
X53660199Y-47500000D01*
X52107322Y-47500000D01*
X52069999Y-47496324D01*
X52032676Y-47500000D01*
X52032667Y-47500000D01*
X51921014Y-47510997D01*
X51777753Y-47554454D01*
X51645724Y-47625026D01*
X51529999Y-47719999D01*
X51506201Y-47748997D01*
X51125906Y-48129292D01*
X51081309Y-48115764D01*
X50870492Y-48095000D01*
X50729508Y-48095000D01*
X50518691Y-48115764D01*
X50248192Y-48197818D01*
X49998899Y-48331068D01*
X49780392Y-48510392D01*
X49601068Y-48728899D01*
X49530000Y-48861858D01*
X49458932Y-48728899D01*
X49279608Y-48510392D01*
X49061101Y-48331068D01*
X48811808Y-48197818D01*
X48541309Y-48115764D01*
X48330492Y-48095000D01*
X48189508Y-48095000D01*
X47978691Y-48115764D01*
X47708192Y-48197818D01*
X47458899Y-48331068D01*
X47240392Y-48510392D01*
X47061068Y-48728899D01*
X46990000Y-48861858D01*
X46918932Y-48728899D01*
X46739608Y-48510392D01*
X46521101Y-48331068D01*
X46271808Y-48197818D01*
X46001309Y-48115764D01*
X45790492Y-48095000D01*
X45689803Y-48095000D01*
X45856721Y-47928081D01*
X46021898Y-47895226D01*
X46210256Y-47817205D01*
X46379774Y-47703937D01*
X46523937Y-47559774D01*
X46637205Y-47390256D01*
X46715226Y-47201898D01*
X46755000Y-47001939D01*
X46755000Y-46798061D01*
X46715226Y-46598102D01*
X46637205Y-46409744D01*
X46523937Y-46240226D01*
X46480000Y-46196289D01*
X46480000Y-45794864D01*
X46708691Y-45864236D01*
X46919508Y-45885000D01*
X47060492Y-45885000D01*
X47271309Y-45864236D01*
X47541808Y-45782182D01*
X47791101Y-45648932D01*
X48009608Y-45469608D01*
X48188932Y-45251101D01*
X48260000Y-45118142D01*
X48331068Y-45251101D01*
X48510392Y-45469608D01*
X48728899Y-45648932D01*
X48978192Y-45782182D01*
X49248691Y-45864236D01*
X49459508Y-45885000D01*
X49600492Y-45885000D01*
X49811309Y-45864236D01*
X49855906Y-45850708D01*
X50091202Y-46086004D01*
X50115000Y-46115002D01*
X50230725Y-46209975D01*
X50362754Y-46280547D01*
X50506015Y-46324004D01*
X50617668Y-46335001D01*
X50617676Y-46335001D01*
X50655001Y-46338677D01*
X50692326Y-46335001D01*
X52812677Y-46335001D01*
X52849999Y-46338677D01*
X52887321Y-46335001D01*
X52887332Y-46335001D01*
X52998985Y-46324004D01*
X53142246Y-46280547D01*
X53274275Y-46209975D01*
X53390000Y-46115002D01*
X53413803Y-46085998D01*
X53841673Y-45658128D01*
X53872580Y-45681037D01*
X54126913Y-45801246D01*
X54260961Y-45841904D01*
X54483000Y-45719915D01*
X54483000Y-44577000D01*
X54737000Y-44577000D01*
X54737000Y-45719915D01*
X54959039Y-45841904D01*
X55093087Y-45801246D01*
X55347420Y-45681037D01*
X55573414Y-45513519D01*
X55762385Y-45305131D01*
X55907070Y-45063881D01*
X56001909Y-44799040D01*
X55880624Y-44577000D01*
X54737000Y-44577000D01*
X54483000Y-44577000D01*
X54463000Y-44577000D01*
X54463000Y-44323000D01*
X54483000Y-44323000D01*
X54483000Y-43180085D01*
X54737000Y-43180085D01*
X54737000Y-44323000D01*
X55880624Y-44323000D01*
X56001909Y-44100960D01*
X55907070Y-43836119D01*
X55762385Y-43594869D01*
X55573414Y-43386481D01*
X55347420Y-43218963D01*
X55093087Y-43098754D01*
X54959039Y-43058096D01*
X54737000Y-43180085D01*
X54483000Y-43180085D01*
X54260961Y-43058096D01*
X54126913Y-43098754D01*
X54100000Y-43111474D01*
X54100000Y-41696799D01*
X56300000Y-39496800D01*
X56299999Y-44860198D01*
G36*
X59861071Y-30455872D02*
G01*
X59817000Y-30480085D01*
X59817000Y-31623000D01*
X60960624Y-31623000D01*
X60984496Y-31579297D01*
X63045000Y-33639802D01*
X63045001Y-37396288D01*
X63001063Y-37440226D01*
X62887795Y-37609744D01*
X62809774Y-37798102D01*
X62770000Y-37998061D01*
X62770000Y-38201939D01*
X62809774Y-38401898D01*
X62857081Y-38516106D01*
X62770001Y-38409999D01*
X62741003Y-38386201D01*
X62107521Y-37752720D01*
X62149502Y-37674180D01*
X62185812Y-37554482D01*
X62198072Y-37430000D01*
X62198072Y-36230000D01*
X62185812Y-36105518D01*
X62149502Y-35985820D01*
X62090537Y-35875506D01*
X62011185Y-35778815D01*
X61914494Y-35699463D01*
X61804180Y-35640498D01*
X61684482Y-35604188D01*
X61657209Y-35601502D01*
X61763937Y-35494774D01*
X61877205Y-35325256D01*
X61955226Y-35136898D01*
X61995000Y-34936939D01*
X61995000Y-34733061D01*
X61955226Y-34533102D01*
X61877205Y-34344744D01*
X61763937Y-34175226D01*
X61619774Y-34031063D01*
X61450256Y-33917795D01*
X61261898Y-33839774D01*
X61061939Y-33800000D01*
X60858061Y-33800000D01*
X60658102Y-33839774D01*
X60469744Y-33917795D01*
X60300226Y-34031063D01*
X60256289Y-34075000D01*
X59817322Y-34075000D01*
X59779999Y-34071324D01*
X59742676Y-34075000D01*
X59742667Y-34075000D01*
X59631014Y-34085997D01*
X59487753Y-34129454D01*
X59355724Y-34200026D01*
X59339685Y-34213189D01*
X59268996Y-34271201D01*
X59268992Y-34271205D01*
X59239999Y-34294999D01*
X59216205Y-34323992D01*
X58545000Y-34995198D01*
X58545000Y-34087325D01*
X58548676Y-34050002D01*
X58545000Y-34012679D01*
X58545000Y-34012669D01*
X58534003Y-33901016D01*
X58490546Y-33757755D01*
X58419974Y-33625726D01*
X58325001Y-33510001D01*
X58296004Y-33486204D01*
X57825739Y-33015939D01*
X57951101Y-32948932D01*
X58169608Y-32769608D01*
X58348932Y-32551101D01*
X58422579Y-32413318D01*
X58537615Y-32605131D01*
X58726586Y-32813519D01*
X58952580Y-32981037D01*
X59206913Y-33101246D01*
X59340961Y-33141904D01*
X59563000Y-33019915D01*
X59563000Y-31877000D01*
X59817000Y-31877000D01*
X59817000Y-33019915D01*
X60039039Y-33141904D01*
X60173087Y-33101246D01*
X60427420Y-32981037D01*
X60653414Y-32813519D01*
X60842385Y-32605131D01*
X60987070Y-32363881D01*
X61081909Y-32099040D01*
X60960624Y-31877000D01*
X59817000Y-31877000D01*
X59563000Y-31877000D01*
X59543000Y-31877000D01*
X59543000Y-31623000D01*
X59563000Y-31623000D01*
X59563000Y-30480085D01*
X59340961Y-30358096D01*
X59206913Y-30398754D01*
X58952580Y-30518963D01*
X58726586Y-30686481D01*
X58537615Y-30894869D01*
X58422579Y-31086682D01*
X58348932Y-30948899D01*
X58169608Y-30730392D01*
X57951101Y-30551068D01*
X57910000Y-30529099D01*
X57910000Y-28504801D01*
X59861071Y-30455872D01*
X59861071Y-30455872D01*
G37*
X59861071Y-30455872D02*
X59817000Y-30480085D01*
X59817000Y-31623000D01*
X60960624Y-31623000D01*
X60984496Y-31579297D01*
X63045000Y-33639802D01*
X63045001Y-37396288D01*
X63001063Y-37440226D01*
X62887795Y-37609744D01*
X62809774Y-37798102D01*
X62770000Y-37998061D01*
X62770000Y-38201939D01*
X62809774Y-38401898D01*
X62857081Y-38516106D01*
X62770001Y-38409999D01*
X62741003Y-38386201D01*
X62107521Y-37752720D01*
X62149502Y-37674180D01*
X62185812Y-37554482D01*
X62198072Y-37430000D01*
X62198072Y-36230000D01*
X62185812Y-36105518D01*
X62149502Y-35985820D01*
X62090537Y-35875506D01*
X62011185Y-35778815D01*
X61914494Y-35699463D01*
X61804180Y-35640498D01*
X61684482Y-35604188D01*
X61657209Y-35601502D01*
X61763937Y-35494774D01*
X61877205Y-35325256D01*
X61955226Y-35136898D01*
X61995000Y-34936939D01*
X61995000Y-34733061D01*
X61955226Y-34533102D01*
X61877205Y-34344744D01*
X61763937Y-34175226D01*
X61619774Y-34031063D01*
X61450256Y-33917795D01*
X61261898Y-33839774D01*
X61061939Y-33800000D01*
X60858061Y-33800000D01*
X60658102Y-33839774D01*
X60469744Y-33917795D01*
X60300226Y-34031063D01*
X60256289Y-34075000D01*
X59817322Y-34075000D01*
X59779999Y-34071324D01*
X59742676Y-34075000D01*
X59742667Y-34075000D01*
X59631014Y-34085997D01*
X59487753Y-34129454D01*
X59355724Y-34200026D01*
X59339685Y-34213189D01*
X59268996Y-34271201D01*
X59268992Y-34271205D01*
X59239999Y-34294999D01*
X59216205Y-34323992D01*
X58545000Y-34995198D01*
X58545000Y-34087325D01*
X58548676Y-34050002D01*
X58545000Y-34012679D01*
X58545000Y-34012669D01*
X58534003Y-33901016D01*
X58490546Y-33757755D01*
X58419974Y-33625726D01*
X58325001Y-33510001D01*
X58296004Y-33486204D01*
X57825739Y-33015939D01*
X57951101Y-32948932D01*
X58169608Y-32769608D01*
X58348932Y-32551101D01*
X58422579Y-32413318D01*
X58537615Y-32605131D01*
X58726586Y-32813519D01*
X58952580Y-32981037D01*
X59206913Y-33101246D01*
X59340961Y-33141904D01*
X59563000Y-33019915D01*
X59563000Y-31877000D01*
X59817000Y-31877000D01*
X59817000Y-33019915D01*
X60039039Y-33141904D01*
X60173087Y-33101246D01*
X60427420Y-32981037D01*
X60653414Y-32813519D01*
X60842385Y-32605131D01*
X60987070Y-32363881D01*
X61081909Y-32099040D01*
X60960624Y-31877000D01*
X59817000Y-31877000D01*
X59563000Y-31877000D01*
X59543000Y-31877000D01*
X59543000Y-31623000D01*
X59563000Y-31623000D01*
X59563000Y-30480085D01*
X59340961Y-30358096D01*
X59206913Y-30398754D01*
X58952580Y-30518963D01*
X58726586Y-30686481D01*
X58537615Y-30894869D01*
X58422579Y-31086682D01*
X58348932Y-30948899D01*
X58169608Y-30730392D01*
X57951101Y-30551068D01*
X57910000Y-30529099D01*
X57910000Y-28504801D01*
X59861071Y-30455872D01*
M02*
