G04 #@! TF.GenerationSoftware,KiCad,Pcbnew,(5.1.2-1)-1*
G04 #@! TF.CreationDate,2023-07-30T19:23:30+02:00*
G04 #@! TF.ProjectId,psg-riser,7073672d-7269-4736-9572-2e6b69636164,rev?*
G04 #@! TF.SameCoordinates,Original*
G04 #@! TF.FileFunction,Profile,NP*
%FSLAX46Y46*%
G04 Gerber Fmt 4.6, Leading zero omitted, Abs format (unit mm)*
G04 Created by KiCad (PCBNEW (5.1.2-1)-1) date 2023-07-30 19:23:30*
%MOMM*%
%LPD*%
G04 APERTURE LIST*
%ADD10C,0.050000*%
G04 APERTURE END LIST*
D10*
X25400000Y-65405000D02*
G75*
G02X26035000Y-64770000I635000J0D01*
G01*
X33020000Y-64135000D02*
G75*
G02X32385000Y-64770000I-635000J0D01*
G01*
X32385000Y-62230000D02*
G75*
G02X33020000Y-62865000I0J-635000D01*
G01*
X26035000Y-62230000D02*
G75*
G02X25400000Y-61595000I0J635000D01*
G01*
X35560000Y-21590000D02*
G75*
G02X34290000Y-22860000I-1270000J0D01*
G01*
X35560000Y-21590000D02*
G75*
G02X36830000Y-20320000I1270000J0D01*
G01*
X72390000Y-20320000D02*
G75*
G02X73660000Y-21590000I0J-1270000D01*
G01*
X73660000Y-72390000D02*
G75*
G02X72390000Y-73660000I-1270000J0D01*
G01*
X36830000Y-73660000D02*
G75*
G02X35560000Y-72390000I0J1270000D01*
G01*
X34290000Y-71120000D02*
G75*
G02X35560000Y-72390000I0J-1270000D01*
G01*
X26670000Y-71120000D02*
G75*
G02X25400000Y-69850000I0J1270000D01*
G01*
X25400000Y-24130000D02*
G75*
G02X26670000Y-22860000I1270000J0D01*
G01*
X25400000Y-61595000D02*
X25400000Y-24130000D01*
X32385000Y-62230000D02*
X26035000Y-62230000D01*
X33020000Y-64135000D02*
X33020000Y-62865000D01*
X26035000Y-64770000D02*
X32385000Y-64770000D01*
X25400000Y-69850000D02*
X25400000Y-65405000D01*
X34290000Y-71120000D02*
X26670000Y-71120000D01*
X72390000Y-73660000D02*
X36830000Y-73660000D01*
X73660000Y-21590000D02*
X73660000Y-72390000D01*
X36830000Y-20320000D02*
X72390000Y-20320000D01*
X26670000Y-22860000D02*
X34290000Y-22860000D01*
M02*
