G04 #@! TF.GenerationSoftware,KiCad,Pcbnew,(5.1.2-1)-1*
G04 #@! TF.CreationDate,2023-07-30T19:23:29+02:00*
G04 #@! TF.ProjectId,psg-riser,7073672d-7269-4736-9572-2e6b69636164,rev?*
G04 #@! TF.SameCoordinates,Original*
G04 #@! TF.FileFunction,Legend,Bot*
G04 #@! TF.FilePolarity,Positive*
%FSLAX46Y46*%
G04 Gerber Fmt 4.6, Leading zero omitted, Abs format (unit mm)*
G04 Created by KiCad (PCBNEW (5.1.2-1)-1) date 2023-07-30 19:23:29*
%MOMM*%
%LPD*%
G04 APERTURE LIST*
%ADD10C,0.300000*%
%ADD11C,0.010000*%
%ADD12C,0.150000*%
%ADD13C,0.100000*%
%ADD14O,1.702000X1.702000*%
%ADD15R,1.702000X1.702000*%
%ADD16C,1.702000*%
%ADD17O,1.802000X1.802000*%
%ADD18R,1.802000X1.802000*%
%ADD19C,1.626000*%
%ADD20C,1.302000*%
%ADD21R,1.302000X1.302000*%
G04 APERTURE END LIST*
D10*
X67770476Y-61347142D02*
X67675238Y-61132857D01*
X67675238Y-60775714D01*
X67770476Y-60632857D01*
X67865714Y-60561428D01*
X68056190Y-60490000D01*
X68246666Y-60490000D01*
X68437142Y-60561428D01*
X68532380Y-60632857D01*
X68627619Y-60775714D01*
X68722857Y-61061428D01*
X68818095Y-61204285D01*
X68913333Y-61275714D01*
X69103809Y-61347142D01*
X69294285Y-61347142D01*
X69484761Y-61275714D01*
X69580000Y-61204285D01*
X69675238Y-61061428D01*
X69675238Y-60704285D01*
X69580000Y-60490000D01*
X67675238Y-59847142D02*
X69675238Y-59847142D01*
X67675238Y-58990000D01*
X69675238Y-58990000D01*
X69675238Y-58418571D02*
X69675238Y-57418571D01*
X67675238Y-58061428D01*
X69675238Y-56204285D02*
X69675238Y-56490000D01*
X69580000Y-56632857D01*
X69484761Y-56704285D01*
X69199047Y-56847142D01*
X68818095Y-56918571D01*
X68056190Y-56918571D01*
X67865714Y-56847142D01*
X67770476Y-56775714D01*
X67675238Y-56632857D01*
X67675238Y-56347142D01*
X67770476Y-56204285D01*
X67865714Y-56132857D01*
X68056190Y-56061428D01*
X68532380Y-56061428D01*
X68722857Y-56132857D01*
X68818095Y-56204285D01*
X68913333Y-56347142D01*
X68913333Y-56632857D01*
X68818095Y-56775714D01*
X68722857Y-56847142D01*
X68532380Y-56918571D01*
X69008571Y-54775714D02*
X67675238Y-54775714D01*
X69770476Y-55132857D02*
X68341904Y-55490000D01*
X68341904Y-54561428D01*
X68818095Y-53775714D02*
X68913333Y-53918571D01*
X69008571Y-53990000D01*
X69199047Y-54061428D01*
X69294285Y-54061428D01*
X69484761Y-53990000D01*
X69580000Y-53918571D01*
X69675238Y-53775714D01*
X69675238Y-53490000D01*
X69580000Y-53347142D01*
X69484761Y-53275714D01*
X69294285Y-53204285D01*
X69199047Y-53204285D01*
X69008571Y-53275714D01*
X68913333Y-53347142D01*
X68818095Y-53490000D01*
X68818095Y-53775714D01*
X68722857Y-53918571D01*
X68627619Y-53990000D01*
X68437142Y-54061428D01*
X68056190Y-54061428D01*
X67865714Y-53990000D01*
X67770476Y-53918571D01*
X67675238Y-53775714D01*
X67675238Y-53490000D01*
X67770476Y-53347142D01*
X67865714Y-53275714D01*
X68056190Y-53204285D01*
X68437142Y-53204285D01*
X68627619Y-53275714D01*
X68722857Y-53347142D01*
X68818095Y-53490000D01*
X67675238Y-52490000D02*
X67675238Y-52204285D01*
X67770476Y-52061428D01*
X67865714Y-51990000D01*
X68151428Y-51847142D01*
X68532380Y-51775714D01*
X69294285Y-51775714D01*
X69484761Y-51847142D01*
X69580000Y-51918571D01*
X69675238Y-52061428D01*
X69675238Y-52347142D01*
X69580000Y-52490000D01*
X69484761Y-52561428D01*
X69294285Y-52632857D01*
X68818095Y-52632857D01*
X68627619Y-52561428D01*
X68532380Y-52490000D01*
X68437142Y-52347142D01*
X68437142Y-52061428D01*
X68532380Y-51918571D01*
X68627619Y-51847142D01*
X68818095Y-51775714D01*
X68246666Y-51204285D02*
X68246666Y-50490000D01*
X67675238Y-51347142D02*
X69675238Y-50847142D01*
X67675238Y-50347142D01*
X67675238Y-48704285D02*
X69675238Y-48704285D01*
X69675238Y-48132857D01*
X69580000Y-47990000D01*
X69484761Y-47918571D01*
X69294285Y-47847142D01*
X69008571Y-47847142D01*
X68818095Y-47918571D01*
X68722857Y-47990000D01*
X68627619Y-48132857D01*
X68627619Y-48704285D01*
X67770476Y-47275714D02*
X67675238Y-47061428D01*
X67675238Y-46704285D01*
X67770476Y-46561428D01*
X67865714Y-46490000D01*
X68056190Y-46418571D01*
X68246666Y-46418571D01*
X68437142Y-46490000D01*
X68532380Y-46561428D01*
X68627619Y-46704285D01*
X68722857Y-46990000D01*
X68818095Y-47132857D01*
X68913333Y-47204285D01*
X69103809Y-47275714D01*
X69294285Y-47275714D01*
X69484761Y-47204285D01*
X69580000Y-47132857D01*
X69675238Y-46990000D01*
X69675238Y-46632857D01*
X69580000Y-46418571D01*
X69580000Y-44990000D02*
X69675238Y-45132857D01*
X69675238Y-45347142D01*
X69580000Y-45561428D01*
X69389523Y-45704285D01*
X69199047Y-45775714D01*
X68818095Y-45847142D01*
X68532380Y-45847142D01*
X68151428Y-45775714D01*
X67960952Y-45704285D01*
X67770476Y-45561428D01*
X67675238Y-45347142D01*
X67675238Y-45204285D01*
X67770476Y-44990000D01*
X67865714Y-44918571D01*
X68532380Y-44918571D01*
X68532380Y-45204285D01*
X67675238Y-43132857D02*
X69008571Y-43132857D01*
X68627619Y-43132857D02*
X68818095Y-43061428D01*
X68913333Y-42990000D01*
X69008571Y-42847142D01*
X69008571Y-42704285D01*
X67675238Y-42204285D02*
X69008571Y-42204285D01*
X69675238Y-42204285D02*
X69580000Y-42275714D01*
X69484761Y-42204285D01*
X69580000Y-42132857D01*
X69675238Y-42204285D01*
X69484761Y-42204285D01*
X67770476Y-41561428D02*
X67675238Y-41418571D01*
X67675238Y-41132857D01*
X67770476Y-40990000D01*
X67960952Y-40918571D01*
X68056190Y-40918571D01*
X68246666Y-40990000D01*
X68341904Y-41132857D01*
X68341904Y-41347142D01*
X68437142Y-41490000D01*
X68627619Y-41561428D01*
X68722857Y-41561428D01*
X68913333Y-41490000D01*
X69008571Y-41347142D01*
X69008571Y-41132857D01*
X68913333Y-40990000D01*
X67770476Y-39704285D02*
X67675238Y-39847142D01*
X67675238Y-40132857D01*
X67770476Y-40275714D01*
X67960952Y-40347142D01*
X68722857Y-40347142D01*
X68913333Y-40275714D01*
X69008571Y-40132857D01*
X69008571Y-39847142D01*
X68913333Y-39704285D01*
X68722857Y-39632857D01*
X68532380Y-39632857D01*
X68341904Y-40347142D01*
X67675238Y-38990000D02*
X69008571Y-38990000D01*
X68627619Y-38990000D02*
X68818095Y-38918571D01*
X68913333Y-38847142D01*
X69008571Y-38704285D01*
X69008571Y-38561428D01*
X67770476Y-36275714D02*
X67675238Y-36418571D01*
X67675238Y-36704285D01*
X67770476Y-36847142D01*
X67865714Y-36918571D01*
X68056190Y-36990000D01*
X68627619Y-36990000D01*
X68818095Y-36918571D01*
X68913333Y-36847142D01*
X69008571Y-36704285D01*
X69008571Y-36418571D01*
X68913333Y-36275714D01*
X67675238Y-34990000D02*
X68722857Y-34990000D01*
X68913333Y-35061428D01*
X69008571Y-35204285D01*
X69008571Y-35490000D01*
X68913333Y-35632857D01*
X67770476Y-34990000D02*
X67675238Y-35132857D01*
X67675238Y-35490000D01*
X67770476Y-35632857D01*
X67960952Y-35704285D01*
X68151428Y-35704285D01*
X68341904Y-35632857D01*
X68437142Y-35490000D01*
X68437142Y-35132857D01*
X68532380Y-34990000D01*
X67675238Y-34275714D02*
X69008571Y-34275714D01*
X68627619Y-34275714D02*
X68818095Y-34204285D01*
X68913333Y-34132857D01*
X69008571Y-33990000D01*
X69008571Y-33847142D01*
X67675238Y-32704285D02*
X69675238Y-32704285D01*
X67770476Y-32704285D02*
X67675238Y-32847142D01*
X67675238Y-33132857D01*
X67770476Y-33275714D01*
X67865714Y-33347142D01*
X68056190Y-33418571D01*
X68627619Y-33418571D01*
X68818095Y-33347142D01*
X68913333Y-33275714D01*
X69008571Y-33132857D01*
X69008571Y-32847142D01*
X68913333Y-32704285D01*
D11*
G36*
X64469118Y-53137348D02*
G01*
X64378452Y-52944934D01*
X64240458Y-52671676D01*
X64157331Y-52512503D01*
X63796333Y-51828447D01*
X63119000Y-51782755D01*
X62824304Y-51764549D01*
X62398574Y-51740498D01*
X61879928Y-51712641D01*
X61306482Y-51683019D01*
X60716352Y-51653672D01*
X60621333Y-51649062D01*
X60007267Y-51619078D01*
X59380332Y-51587941D01*
X58785277Y-51557910D01*
X58266849Y-51531245D01*
X57869798Y-51510206D01*
X57848500Y-51509045D01*
X56896000Y-51457031D01*
X56896000Y-52744778D01*
X56897219Y-53239014D01*
X56903364Y-53592239D01*
X56918163Y-53832768D01*
X56945345Y-53988919D01*
X56988638Y-54089009D01*
X57051771Y-54161354D01*
X57086500Y-54191446D01*
X57277000Y-54350367D01*
X57095558Y-54353184D01*
X56978609Y-54373357D01*
X56898475Y-54447029D01*
X56848468Y-54600334D01*
X56821898Y-54859408D01*
X56812074Y-55250385D01*
X56811333Y-55463592D01*
X56814434Y-55849590D01*
X56827274Y-56096365D01*
X56855162Y-56233966D01*
X56903405Y-56292445D01*
X56959500Y-56302460D01*
X57144254Y-56293950D01*
X57453305Y-56272264D01*
X57842478Y-56241266D01*
X58267596Y-56204817D01*
X58684482Y-56166778D01*
X59048959Y-56131012D01*
X59316852Y-56101380D01*
X59414833Y-56087821D01*
X59451096Y-56081738D01*
X59451096Y-55710667D01*
X59326193Y-55659943D01*
X59101173Y-55522065D01*
X58804046Y-55318477D01*
X58462819Y-55070622D01*
X58105501Y-54799945D01*
X57760100Y-54527888D01*
X57454625Y-54275895D01*
X57217084Y-54065410D01*
X57075485Y-53917875D01*
X57048647Y-53871325D01*
X57040417Y-53736696D01*
X57038530Y-53474823D01*
X57042939Y-53127676D01*
X57049817Y-52853998D01*
X57076635Y-51964741D01*
X57896484Y-52761460D01*
X58242704Y-53094456D01*
X58586436Y-53419069D01*
X58888872Y-53699005D01*
X59111202Y-53897970D01*
X59118500Y-53904264D01*
X59520666Y-54250349D01*
X59520666Y-54980508D01*
X59513214Y-55308314D01*
X59493307Y-55559913D01*
X59464623Y-55696718D01*
X59451096Y-55710667D01*
X59451096Y-56081738D01*
X59690000Y-56041661D01*
X59690763Y-55092997D01*
X59691526Y-54144334D01*
X59422158Y-53922928D01*
X59152789Y-53701522D01*
X59696561Y-53650442D01*
X59934512Y-53628722D01*
X60310224Y-53595201D01*
X60792745Y-53552607D01*
X61351129Y-53503663D01*
X61954424Y-53451095D01*
X62357000Y-53416186D01*
X62936090Y-53365450D01*
X63456515Y-53318663D01*
X63895407Y-53277978D01*
X64229898Y-53245549D01*
X64437121Y-53223529D01*
X64495998Y-53214785D01*
X64469118Y-53137348D01*
X64469118Y-53137348D01*
G37*
X64469118Y-53137348D02*
X64378452Y-52944934D01*
X64240458Y-52671676D01*
X64157331Y-52512503D01*
X63796333Y-51828447D01*
X63119000Y-51782755D01*
X62824304Y-51764549D01*
X62398574Y-51740498D01*
X61879928Y-51712641D01*
X61306482Y-51683019D01*
X60716352Y-51653672D01*
X60621333Y-51649062D01*
X60007267Y-51619078D01*
X59380332Y-51587941D01*
X58785277Y-51557910D01*
X58266849Y-51531245D01*
X57869798Y-51510206D01*
X57848500Y-51509045D01*
X56896000Y-51457031D01*
X56896000Y-52744778D01*
X56897219Y-53239014D01*
X56903364Y-53592239D01*
X56918163Y-53832768D01*
X56945345Y-53988919D01*
X56988638Y-54089009D01*
X57051771Y-54161354D01*
X57086500Y-54191446D01*
X57277000Y-54350367D01*
X57095558Y-54353184D01*
X56978609Y-54373357D01*
X56898475Y-54447029D01*
X56848468Y-54600334D01*
X56821898Y-54859408D01*
X56812074Y-55250385D01*
X56811333Y-55463592D01*
X56814434Y-55849590D01*
X56827274Y-56096365D01*
X56855162Y-56233966D01*
X56903405Y-56292445D01*
X56959500Y-56302460D01*
X57144254Y-56293950D01*
X57453305Y-56272264D01*
X57842478Y-56241266D01*
X58267596Y-56204817D01*
X58684482Y-56166778D01*
X59048959Y-56131012D01*
X59316852Y-56101380D01*
X59414833Y-56087821D01*
X59451096Y-56081738D01*
X59451096Y-55710667D01*
X59326193Y-55659943D01*
X59101173Y-55522065D01*
X58804046Y-55318477D01*
X58462819Y-55070622D01*
X58105501Y-54799945D01*
X57760100Y-54527888D01*
X57454625Y-54275895D01*
X57217084Y-54065410D01*
X57075485Y-53917875D01*
X57048647Y-53871325D01*
X57040417Y-53736696D01*
X57038530Y-53474823D01*
X57042939Y-53127676D01*
X57049817Y-52853998D01*
X57076635Y-51964741D01*
X57896484Y-52761460D01*
X58242704Y-53094456D01*
X58586436Y-53419069D01*
X58888872Y-53699005D01*
X59111202Y-53897970D01*
X59118500Y-53904264D01*
X59520666Y-54250349D01*
X59520666Y-54980508D01*
X59513214Y-55308314D01*
X59493307Y-55559913D01*
X59464623Y-55696718D01*
X59451096Y-55710667D01*
X59451096Y-56081738D01*
X59690000Y-56041661D01*
X59690763Y-55092997D01*
X59691526Y-54144334D01*
X59422158Y-53922928D01*
X59152789Y-53701522D01*
X59696561Y-53650442D01*
X59934512Y-53628722D01*
X60310224Y-53595201D01*
X60792745Y-53552607D01*
X61351129Y-53503663D01*
X61954424Y-53451095D01*
X62357000Y-53416186D01*
X62936090Y-53365450D01*
X63456515Y-53318663D01*
X63895407Y-53277978D01*
X64229898Y-53245549D01*
X64437121Y-53223529D01*
X64495998Y-53214785D01*
X64469118Y-53137348D01*
D12*
X55157619Y-66801904D02*
X54348095Y-66801904D01*
X54252857Y-66754285D01*
X54205238Y-66706666D01*
X54157619Y-66611428D01*
X54157619Y-66420952D01*
X54205238Y-66325714D01*
X54252857Y-66278095D01*
X54348095Y-66230476D01*
X55157619Y-66230476D01*
X55157619Y-65849523D02*
X55157619Y-65230476D01*
X54776666Y-65563809D01*
X54776666Y-65420952D01*
X54729047Y-65325714D01*
X54681428Y-65278095D01*
X54586190Y-65230476D01*
X54348095Y-65230476D01*
X54252857Y-65278095D01*
X54205238Y-65325714D01*
X54157619Y-65420952D01*
X54157619Y-65706666D01*
X54205238Y-65801904D01*
X54252857Y-65849523D01*
X53887619Y-54101904D02*
X53078095Y-54101904D01*
X52982857Y-54054285D01*
X52935238Y-54006666D01*
X52887619Y-53911428D01*
X52887619Y-53720952D01*
X52935238Y-53625714D01*
X52982857Y-53578095D01*
X53078095Y-53530476D01*
X53887619Y-53530476D01*
X53554285Y-52625714D02*
X52887619Y-52625714D01*
X53935238Y-52863809D02*
X53220952Y-53101904D01*
X53220952Y-52482857D01*
X60237619Y-27431904D02*
X59428095Y-27431904D01*
X59332857Y-27384285D01*
X59285238Y-27336666D01*
X59237619Y-27241428D01*
X59237619Y-27050952D01*
X59285238Y-26955714D01*
X59332857Y-26908095D01*
X59428095Y-26860476D01*
X60237619Y-26860476D01*
X60142380Y-26431904D02*
X60190000Y-26384285D01*
X60237619Y-26289047D01*
X60237619Y-26050952D01*
X60190000Y-25955714D01*
X60142380Y-25908095D01*
X60047142Y-25860476D01*
X59951904Y-25860476D01*
X59809047Y-25908095D01*
X59237619Y-26479523D01*
X59237619Y-25860476D01*
X55157619Y-41401904D02*
X54348095Y-41401904D01*
X54252857Y-41354285D01*
X54205238Y-41306666D01*
X54157619Y-41211428D01*
X54157619Y-41020952D01*
X54205238Y-40925714D01*
X54252857Y-40878095D01*
X54348095Y-40830476D01*
X55157619Y-40830476D01*
X54157619Y-39830476D02*
X54157619Y-40401904D01*
X54157619Y-40116190D02*
X55157619Y-40116190D01*
X55014761Y-40211428D01*
X54919523Y-40306666D01*
X54871904Y-40401904D01*
X62412619Y-49696666D02*
X62888809Y-50030000D01*
X62412619Y-50268095D02*
X63412619Y-50268095D01*
X63412619Y-49887142D01*
X63365000Y-49791904D01*
X63317380Y-49744285D01*
X63222142Y-49696666D01*
X63079285Y-49696666D01*
X62984047Y-49744285D01*
X62936428Y-49791904D01*
X62888809Y-49887142D01*
X62888809Y-50268095D01*
X63412619Y-49363333D02*
X63412619Y-48744285D01*
X63031666Y-49077619D01*
X63031666Y-48934761D01*
X62984047Y-48839523D01*
X62936428Y-48791904D01*
X62841190Y-48744285D01*
X62603095Y-48744285D01*
X62507857Y-48791904D01*
X62460238Y-48839523D01*
X62412619Y-48934761D01*
X62412619Y-49220476D01*
X62460238Y-49315714D01*
X62507857Y-49363333D01*
X62412619Y-70016666D02*
X62888809Y-70350000D01*
X62412619Y-70588095D02*
X63412619Y-70588095D01*
X63412619Y-70207142D01*
X63365000Y-70111904D01*
X63317380Y-70064285D01*
X63222142Y-70016666D01*
X63079285Y-70016666D01*
X62984047Y-70064285D01*
X62936428Y-70111904D01*
X62888809Y-70207142D01*
X62888809Y-70588095D01*
X63317380Y-69635714D02*
X63365000Y-69588095D01*
X63412619Y-69492857D01*
X63412619Y-69254761D01*
X63365000Y-69159523D01*
X63317380Y-69111904D01*
X63222142Y-69064285D01*
X63126904Y-69064285D01*
X62984047Y-69111904D01*
X62412619Y-69683333D01*
X62412619Y-69064285D01*
X62412619Y-62396666D02*
X62888809Y-62730000D01*
X62412619Y-62968095D02*
X63412619Y-62968095D01*
X63412619Y-62587142D01*
X63365000Y-62491904D01*
X63317380Y-62444285D01*
X63222142Y-62396666D01*
X63079285Y-62396666D01*
X62984047Y-62444285D01*
X62936428Y-62491904D01*
X62888809Y-62587142D01*
X62888809Y-62968095D01*
X62412619Y-61444285D02*
X62412619Y-62015714D01*
X62412619Y-61730000D02*
X63412619Y-61730000D01*
X63269761Y-61825238D01*
X63174523Y-61920476D01*
X63126904Y-62015714D01*
X69127619Y-68913333D02*
X68413333Y-68913333D01*
X68270476Y-68960952D01*
X68175238Y-69056190D01*
X68127619Y-69199047D01*
X68127619Y-69294285D01*
X69032380Y-68484761D02*
X69080000Y-68437142D01*
X69127619Y-68341904D01*
X69127619Y-68103809D01*
X69080000Y-68008571D01*
X69032380Y-67960952D01*
X68937142Y-67913333D01*
X68841904Y-67913333D01*
X68699047Y-67960952D01*
X68127619Y-68532380D01*
X68127619Y-67913333D01*
X62507857Y-36996666D02*
X62460238Y-37044285D01*
X62412619Y-37187142D01*
X62412619Y-37282380D01*
X62460238Y-37425238D01*
X62555476Y-37520476D01*
X62650714Y-37568095D01*
X62841190Y-37615714D01*
X62984047Y-37615714D01*
X63174523Y-37568095D01*
X63269761Y-37520476D01*
X63365000Y-37425238D01*
X63412619Y-37282380D01*
X63412619Y-37187142D01*
X63365000Y-37044285D01*
X63317380Y-36996666D01*
X62412619Y-36044285D02*
X62412619Y-36615714D01*
X62412619Y-36330000D02*
X63412619Y-36330000D01*
X63269761Y-36425238D01*
X63174523Y-36520476D01*
X63126904Y-36615714D01*
%LPC*%
D13*
G36*
X25400000Y-22860000D02*
G01*
X25400000Y-71120000D01*
X33020000Y-71120000D01*
X33020000Y-22860000D01*
X25400000Y-22860000D01*
G37*
X25400000Y-22860000D02*
X25400000Y-71120000D01*
X33020000Y-71120000D01*
X33020000Y-22860000D01*
X25400000Y-22860000D01*
D14*
X54610000Y-69850000D03*
X36830000Y-62230000D03*
X52070000Y-69850000D03*
X39370000Y-62230000D03*
X49530000Y-69850000D03*
X41910000Y-62230000D03*
X46990000Y-69850000D03*
X44450000Y-62230000D03*
X44450000Y-69850000D03*
X46990000Y-62230000D03*
X41910000Y-69850000D03*
X49530000Y-62230000D03*
X39370000Y-69850000D03*
X52070000Y-62230000D03*
X36830000Y-69850000D03*
D15*
X54610000Y-62230000D03*
D14*
X53340000Y-57150000D03*
X38100000Y-49530000D03*
X50800000Y-57150000D03*
X40640000Y-49530000D03*
X48260000Y-57150000D03*
X43180000Y-49530000D03*
X45720000Y-57150000D03*
X45720000Y-49530000D03*
X43180000Y-57150000D03*
X48260000Y-49530000D03*
X40640000Y-57150000D03*
X50800000Y-49530000D03*
X38100000Y-57150000D03*
D15*
X53340000Y-49530000D03*
D14*
X59690000Y-31750000D03*
X36830000Y-24130000D03*
X57150000Y-31750000D03*
X39370000Y-24130000D03*
X54610000Y-31750000D03*
X41910000Y-24130000D03*
X52070000Y-31750000D03*
X44450000Y-24130000D03*
X49530000Y-31750000D03*
X46990000Y-24130000D03*
X46990000Y-31750000D03*
X49530000Y-24130000D03*
X44450000Y-31750000D03*
X52070000Y-24130000D03*
X41910000Y-31750000D03*
X54610000Y-24130000D03*
X39370000Y-31750000D03*
X57150000Y-24130000D03*
X36830000Y-31750000D03*
D15*
X59690000Y-24130000D03*
D14*
X54610000Y-44450000D03*
X36830000Y-36830000D03*
X52070000Y-44450000D03*
X39370000Y-36830000D03*
X49530000Y-44450000D03*
X41910000Y-36830000D03*
X46990000Y-44450000D03*
X44450000Y-36830000D03*
X44450000Y-44450000D03*
X46990000Y-36830000D03*
X41910000Y-44450000D03*
X49530000Y-36830000D03*
X39370000Y-44450000D03*
X52070000Y-36830000D03*
X36830000Y-44450000D03*
D15*
X54610000Y-36830000D03*
D14*
X58420000Y-49530000D03*
D16*
X60960000Y-49530000D03*
D14*
X58420000Y-69850000D03*
D16*
X60960000Y-69850000D03*
D14*
X58420000Y-62230000D03*
D16*
X60960000Y-62230000D03*
D17*
X66040000Y-60960000D03*
X71120000Y-45720000D03*
X66040000Y-43180000D03*
X71120000Y-43180000D03*
X66040000Y-40640000D03*
X71120000Y-40640000D03*
X66040000Y-38100000D03*
X71120000Y-38100000D03*
X66040000Y-35560000D03*
X71120000Y-35560000D03*
X66040000Y-33020000D03*
X71120000Y-33020000D03*
X66040000Y-30480000D03*
X71120000Y-30480000D03*
D14*
X66040000Y-27940000D03*
D17*
X71120000Y-27940000D03*
D14*
X66040000Y-25400000D03*
D17*
X71120000Y-25400000D03*
X71120000Y-58420000D03*
X71120000Y-48260000D03*
X66040000Y-45720000D03*
X71120000Y-60960000D03*
X66040000Y-58420000D03*
X71120000Y-55880000D03*
X66040000Y-53340000D03*
X71120000Y-53340000D03*
X66040000Y-50800000D03*
X71120000Y-50800000D03*
X66040000Y-48260000D03*
D18*
X66040000Y-68580000D03*
D17*
X71120000Y-63500000D03*
X66040000Y-55880000D03*
X71120000Y-68580000D03*
X71120000Y-66040000D03*
X66040000Y-63500000D03*
X66040000Y-66040000D03*
D13*
G36*
X32894344Y-24588957D02*
G01*
X32933804Y-24594811D01*
X32972501Y-24604504D01*
X33010061Y-24617943D01*
X33046123Y-24634999D01*
X33080339Y-24655508D01*
X33112381Y-24679271D01*
X33141939Y-24706061D01*
X33168729Y-24735619D01*
X33192492Y-24767661D01*
X33213001Y-24801877D01*
X33230057Y-24837939D01*
X33243496Y-24875499D01*
X33253189Y-24914196D01*
X33259043Y-24953656D01*
X33261000Y-24993500D01*
X33261000Y-25806500D01*
X33259043Y-25846344D01*
X33253189Y-25885804D01*
X33243496Y-25924501D01*
X33230057Y-25962061D01*
X33213001Y-25998123D01*
X33192492Y-26032339D01*
X33168729Y-26064381D01*
X33141939Y-26093939D01*
X33112381Y-26120729D01*
X33080339Y-26144492D01*
X33046123Y-26165001D01*
X33010061Y-26182057D01*
X32972501Y-26195496D01*
X32933804Y-26205189D01*
X32894344Y-26211043D01*
X32854500Y-26213000D01*
X25565500Y-26213000D01*
X25525656Y-26211043D01*
X25486196Y-26205189D01*
X25447499Y-26195496D01*
X25409939Y-26182057D01*
X25373877Y-26165001D01*
X25339661Y-26144492D01*
X25307619Y-26120729D01*
X25278061Y-26093939D01*
X25251271Y-26064381D01*
X25227508Y-26032339D01*
X25206999Y-25998123D01*
X25189943Y-25962061D01*
X25176504Y-25924501D01*
X25166811Y-25885804D01*
X25160957Y-25846344D01*
X25159000Y-25806500D01*
X25159000Y-24993500D01*
X25160957Y-24953656D01*
X25166811Y-24914196D01*
X25176504Y-24875499D01*
X25189943Y-24837939D01*
X25206999Y-24801877D01*
X25227508Y-24767661D01*
X25251271Y-24735619D01*
X25278061Y-24706061D01*
X25307619Y-24679271D01*
X25339661Y-24655508D01*
X25373877Y-24634999D01*
X25409939Y-24617943D01*
X25447499Y-24604504D01*
X25486196Y-24594811D01*
X25525656Y-24588957D01*
X25565500Y-24587000D01*
X32854500Y-24587000D01*
X32894344Y-24588957D01*
X32894344Y-24588957D01*
G37*
D19*
X29210000Y-25400000D03*
D13*
G36*
X32894344Y-27128957D02*
G01*
X32933804Y-27134811D01*
X32972501Y-27144504D01*
X33010061Y-27157943D01*
X33046123Y-27174999D01*
X33080339Y-27195508D01*
X33112381Y-27219271D01*
X33141939Y-27246061D01*
X33168729Y-27275619D01*
X33192492Y-27307661D01*
X33213001Y-27341877D01*
X33230057Y-27377939D01*
X33243496Y-27415499D01*
X33253189Y-27454196D01*
X33259043Y-27493656D01*
X33261000Y-27533500D01*
X33261000Y-28346500D01*
X33259043Y-28386344D01*
X33253189Y-28425804D01*
X33243496Y-28464501D01*
X33230057Y-28502061D01*
X33213001Y-28538123D01*
X33192492Y-28572339D01*
X33168729Y-28604381D01*
X33141939Y-28633939D01*
X33112381Y-28660729D01*
X33080339Y-28684492D01*
X33046123Y-28705001D01*
X33010061Y-28722057D01*
X32972501Y-28735496D01*
X32933804Y-28745189D01*
X32894344Y-28751043D01*
X32854500Y-28753000D01*
X25565500Y-28753000D01*
X25525656Y-28751043D01*
X25486196Y-28745189D01*
X25447499Y-28735496D01*
X25409939Y-28722057D01*
X25373877Y-28705001D01*
X25339661Y-28684492D01*
X25307619Y-28660729D01*
X25278061Y-28633939D01*
X25251271Y-28604381D01*
X25227508Y-28572339D01*
X25206999Y-28538123D01*
X25189943Y-28502061D01*
X25176504Y-28464501D01*
X25166811Y-28425804D01*
X25160957Y-28386344D01*
X25159000Y-28346500D01*
X25159000Y-27533500D01*
X25160957Y-27493656D01*
X25166811Y-27454196D01*
X25176504Y-27415499D01*
X25189943Y-27377939D01*
X25206999Y-27341877D01*
X25227508Y-27307661D01*
X25251271Y-27275619D01*
X25278061Y-27246061D01*
X25307619Y-27219271D01*
X25339661Y-27195508D01*
X25373877Y-27174999D01*
X25409939Y-27157943D01*
X25447499Y-27144504D01*
X25486196Y-27134811D01*
X25525656Y-27128957D01*
X25565500Y-27127000D01*
X32854500Y-27127000D01*
X32894344Y-27128957D01*
X32894344Y-27128957D01*
G37*
D19*
X29210000Y-27940000D03*
D13*
G36*
X32894344Y-29668957D02*
G01*
X32933804Y-29674811D01*
X32972501Y-29684504D01*
X33010061Y-29697943D01*
X33046123Y-29714999D01*
X33080339Y-29735508D01*
X33112381Y-29759271D01*
X33141939Y-29786061D01*
X33168729Y-29815619D01*
X33192492Y-29847661D01*
X33213001Y-29881877D01*
X33230057Y-29917939D01*
X33243496Y-29955499D01*
X33253189Y-29994196D01*
X33259043Y-30033656D01*
X33261000Y-30073500D01*
X33261000Y-30886500D01*
X33259043Y-30926344D01*
X33253189Y-30965804D01*
X33243496Y-31004501D01*
X33230057Y-31042061D01*
X33213001Y-31078123D01*
X33192492Y-31112339D01*
X33168729Y-31144381D01*
X33141939Y-31173939D01*
X33112381Y-31200729D01*
X33080339Y-31224492D01*
X33046123Y-31245001D01*
X33010061Y-31262057D01*
X32972501Y-31275496D01*
X32933804Y-31285189D01*
X32894344Y-31291043D01*
X32854500Y-31293000D01*
X25565500Y-31293000D01*
X25525656Y-31291043D01*
X25486196Y-31285189D01*
X25447499Y-31275496D01*
X25409939Y-31262057D01*
X25373877Y-31245001D01*
X25339661Y-31224492D01*
X25307619Y-31200729D01*
X25278061Y-31173939D01*
X25251271Y-31144381D01*
X25227508Y-31112339D01*
X25206999Y-31078123D01*
X25189943Y-31042061D01*
X25176504Y-31004501D01*
X25166811Y-30965804D01*
X25160957Y-30926344D01*
X25159000Y-30886500D01*
X25159000Y-30073500D01*
X25160957Y-30033656D01*
X25166811Y-29994196D01*
X25176504Y-29955499D01*
X25189943Y-29917939D01*
X25206999Y-29881877D01*
X25227508Y-29847661D01*
X25251271Y-29815619D01*
X25278061Y-29786061D01*
X25307619Y-29759271D01*
X25339661Y-29735508D01*
X25373877Y-29714999D01*
X25409939Y-29697943D01*
X25447499Y-29684504D01*
X25486196Y-29674811D01*
X25525656Y-29668957D01*
X25565500Y-29667000D01*
X32854500Y-29667000D01*
X32894344Y-29668957D01*
X32894344Y-29668957D01*
G37*
D19*
X29210000Y-30480000D03*
D13*
G36*
X32894344Y-32208957D02*
G01*
X32933804Y-32214811D01*
X32972501Y-32224504D01*
X33010061Y-32237943D01*
X33046123Y-32254999D01*
X33080339Y-32275508D01*
X33112381Y-32299271D01*
X33141939Y-32326061D01*
X33168729Y-32355619D01*
X33192492Y-32387661D01*
X33213001Y-32421877D01*
X33230057Y-32457939D01*
X33243496Y-32495499D01*
X33253189Y-32534196D01*
X33259043Y-32573656D01*
X33261000Y-32613500D01*
X33261000Y-33426500D01*
X33259043Y-33466344D01*
X33253189Y-33505804D01*
X33243496Y-33544501D01*
X33230057Y-33582061D01*
X33213001Y-33618123D01*
X33192492Y-33652339D01*
X33168729Y-33684381D01*
X33141939Y-33713939D01*
X33112381Y-33740729D01*
X33080339Y-33764492D01*
X33046123Y-33785001D01*
X33010061Y-33802057D01*
X32972501Y-33815496D01*
X32933804Y-33825189D01*
X32894344Y-33831043D01*
X32854500Y-33833000D01*
X25565500Y-33833000D01*
X25525656Y-33831043D01*
X25486196Y-33825189D01*
X25447499Y-33815496D01*
X25409939Y-33802057D01*
X25373877Y-33785001D01*
X25339661Y-33764492D01*
X25307619Y-33740729D01*
X25278061Y-33713939D01*
X25251271Y-33684381D01*
X25227508Y-33652339D01*
X25206999Y-33618123D01*
X25189943Y-33582061D01*
X25176504Y-33544501D01*
X25166811Y-33505804D01*
X25160957Y-33466344D01*
X25159000Y-33426500D01*
X25159000Y-32613500D01*
X25160957Y-32573656D01*
X25166811Y-32534196D01*
X25176504Y-32495499D01*
X25189943Y-32457939D01*
X25206999Y-32421877D01*
X25227508Y-32387661D01*
X25251271Y-32355619D01*
X25278061Y-32326061D01*
X25307619Y-32299271D01*
X25339661Y-32275508D01*
X25373877Y-32254999D01*
X25409939Y-32237943D01*
X25447499Y-32224504D01*
X25486196Y-32214811D01*
X25525656Y-32208957D01*
X25565500Y-32207000D01*
X32854500Y-32207000D01*
X32894344Y-32208957D01*
X32894344Y-32208957D01*
G37*
D19*
X29210000Y-33020000D03*
D13*
G36*
X32894344Y-34748957D02*
G01*
X32933804Y-34754811D01*
X32972501Y-34764504D01*
X33010061Y-34777943D01*
X33046123Y-34794999D01*
X33080339Y-34815508D01*
X33112381Y-34839271D01*
X33141939Y-34866061D01*
X33168729Y-34895619D01*
X33192492Y-34927661D01*
X33213001Y-34961877D01*
X33230057Y-34997939D01*
X33243496Y-35035499D01*
X33253189Y-35074196D01*
X33259043Y-35113656D01*
X33261000Y-35153500D01*
X33261000Y-35966500D01*
X33259043Y-36006344D01*
X33253189Y-36045804D01*
X33243496Y-36084501D01*
X33230057Y-36122061D01*
X33213001Y-36158123D01*
X33192492Y-36192339D01*
X33168729Y-36224381D01*
X33141939Y-36253939D01*
X33112381Y-36280729D01*
X33080339Y-36304492D01*
X33046123Y-36325001D01*
X33010061Y-36342057D01*
X32972501Y-36355496D01*
X32933804Y-36365189D01*
X32894344Y-36371043D01*
X32854500Y-36373000D01*
X25565500Y-36373000D01*
X25525656Y-36371043D01*
X25486196Y-36365189D01*
X25447499Y-36355496D01*
X25409939Y-36342057D01*
X25373877Y-36325001D01*
X25339661Y-36304492D01*
X25307619Y-36280729D01*
X25278061Y-36253939D01*
X25251271Y-36224381D01*
X25227508Y-36192339D01*
X25206999Y-36158123D01*
X25189943Y-36122061D01*
X25176504Y-36084501D01*
X25166811Y-36045804D01*
X25160957Y-36006344D01*
X25159000Y-35966500D01*
X25159000Y-35153500D01*
X25160957Y-35113656D01*
X25166811Y-35074196D01*
X25176504Y-35035499D01*
X25189943Y-34997939D01*
X25206999Y-34961877D01*
X25227508Y-34927661D01*
X25251271Y-34895619D01*
X25278061Y-34866061D01*
X25307619Y-34839271D01*
X25339661Y-34815508D01*
X25373877Y-34794999D01*
X25409939Y-34777943D01*
X25447499Y-34764504D01*
X25486196Y-34754811D01*
X25525656Y-34748957D01*
X25565500Y-34747000D01*
X32854500Y-34747000D01*
X32894344Y-34748957D01*
X32894344Y-34748957D01*
G37*
D19*
X29210000Y-35560000D03*
D13*
G36*
X32894344Y-37288957D02*
G01*
X32933804Y-37294811D01*
X32972501Y-37304504D01*
X33010061Y-37317943D01*
X33046123Y-37334999D01*
X33080339Y-37355508D01*
X33112381Y-37379271D01*
X33141939Y-37406061D01*
X33168729Y-37435619D01*
X33192492Y-37467661D01*
X33213001Y-37501877D01*
X33230057Y-37537939D01*
X33243496Y-37575499D01*
X33253189Y-37614196D01*
X33259043Y-37653656D01*
X33261000Y-37693500D01*
X33261000Y-38506500D01*
X33259043Y-38546344D01*
X33253189Y-38585804D01*
X33243496Y-38624501D01*
X33230057Y-38662061D01*
X33213001Y-38698123D01*
X33192492Y-38732339D01*
X33168729Y-38764381D01*
X33141939Y-38793939D01*
X33112381Y-38820729D01*
X33080339Y-38844492D01*
X33046123Y-38865001D01*
X33010061Y-38882057D01*
X32972501Y-38895496D01*
X32933804Y-38905189D01*
X32894344Y-38911043D01*
X32854500Y-38913000D01*
X25565500Y-38913000D01*
X25525656Y-38911043D01*
X25486196Y-38905189D01*
X25447499Y-38895496D01*
X25409939Y-38882057D01*
X25373877Y-38865001D01*
X25339661Y-38844492D01*
X25307619Y-38820729D01*
X25278061Y-38793939D01*
X25251271Y-38764381D01*
X25227508Y-38732339D01*
X25206999Y-38698123D01*
X25189943Y-38662061D01*
X25176504Y-38624501D01*
X25166811Y-38585804D01*
X25160957Y-38546344D01*
X25159000Y-38506500D01*
X25159000Y-37693500D01*
X25160957Y-37653656D01*
X25166811Y-37614196D01*
X25176504Y-37575499D01*
X25189943Y-37537939D01*
X25206999Y-37501877D01*
X25227508Y-37467661D01*
X25251271Y-37435619D01*
X25278061Y-37406061D01*
X25307619Y-37379271D01*
X25339661Y-37355508D01*
X25373877Y-37334999D01*
X25409939Y-37317943D01*
X25447499Y-37304504D01*
X25486196Y-37294811D01*
X25525656Y-37288957D01*
X25565500Y-37287000D01*
X32854500Y-37287000D01*
X32894344Y-37288957D01*
X32894344Y-37288957D01*
G37*
D19*
X29210000Y-38100000D03*
D13*
G36*
X32894344Y-39828957D02*
G01*
X32933804Y-39834811D01*
X32972501Y-39844504D01*
X33010061Y-39857943D01*
X33046123Y-39874999D01*
X33080339Y-39895508D01*
X33112381Y-39919271D01*
X33141939Y-39946061D01*
X33168729Y-39975619D01*
X33192492Y-40007661D01*
X33213001Y-40041877D01*
X33230057Y-40077939D01*
X33243496Y-40115499D01*
X33253189Y-40154196D01*
X33259043Y-40193656D01*
X33261000Y-40233500D01*
X33261000Y-41046500D01*
X33259043Y-41086344D01*
X33253189Y-41125804D01*
X33243496Y-41164501D01*
X33230057Y-41202061D01*
X33213001Y-41238123D01*
X33192492Y-41272339D01*
X33168729Y-41304381D01*
X33141939Y-41333939D01*
X33112381Y-41360729D01*
X33080339Y-41384492D01*
X33046123Y-41405001D01*
X33010061Y-41422057D01*
X32972501Y-41435496D01*
X32933804Y-41445189D01*
X32894344Y-41451043D01*
X32854500Y-41453000D01*
X25565500Y-41453000D01*
X25525656Y-41451043D01*
X25486196Y-41445189D01*
X25447499Y-41435496D01*
X25409939Y-41422057D01*
X25373877Y-41405001D01*
X25339661Y-41384492D01*
X25307619Y-41360729D01*
X25278061Y-41333939D01*
X25251271Y-41304381D01*
X25227508Y-41272339D01*
X25206999Y-41238123D01*
X25189943Y-41202061D01*
X25176504Y-41164501D01*
X25166811Y-41125804D01*
X25160957Y-41086344D01*
X25159000Y-41046500D01*
X25159000Y-40233500D01*
X25160957Y-40193656D01*
X25166811Y-40154196D01*
X25176504Y-40115499D01*
X25189943Y-40077939D01*
X25206999Y-40041877D01*
X25227508Y-40007661D01*
X25251271Y-39975619D01*
X25278061Y-39946061D01*
X25307619Y-39919271D01*
X25339661Y-39895508D01*
X25373877Y-39874999D01*
X25409939Y-39857943D01*
X25447499Y-39844504D01*
X25486196Y-39834811D01*
X25525656Y-39828957D01*
X25565500Y-39827000D01*
X32854500Y-39827000D01*
X32894344Y-39828957D01*
X32894344Y-39828957D01*
G37*
D19*
X29210000Y-40640000D03*
D13*
G36*
X32894344Y-42368957D02*
G01*
X32933804Y-42374811D01*
X32972501Y-42384504D01*
X33010061Y-42397943D01*
X33046123Y-42414999D01*
X33080339Y-42435508D01*
X33112381Y-42459271D01*
X33141939Y-42486061D01*
X33168729Y-42515619D01*
X33192492Y-42547661D01*
X33213001Y-42581877D01*
X33230057Y-42617939D01*
X33243496Y-42655499D01*
X33253189Y-42694196D01*
X33259043Y-42733656D01*
X33261000Y-42773500D01*
X33261000Y-43586500D01*
X33259043Y-43626344D01*
X33253189Y-43665804D01*
X33243496Y-43704501D01*
X33230057Y-43742061D01*
X33213001Y-43778123D01*
X33192492Y-43812339D01*
X33168729Y-43844381D01*
X33141939Y-43873939D01*
X33112381Y-43900729D01*
X33080339Y-43924492D01*
X33046123Y-43945001D01*
X33010061Y-43962057D01*
X32972501Y-43975496D01*
X32933804Y-43985189D01*
X32894344Y-43991043D01*
X32854500Y-43993000D01*
X25565500Y-43993000D01*
X25525656Y-43991043D01*
X25486196Y-43985189D01*
X25447499Y-43975496D01*
X25409939Y-43962057D01*
X25373877Y-43945001D01*
X25339661Y-43924492D01*
X25307619Y-43900729D01*
X25278061Y-43873939D01*
X25251271Y-43844381D01*
X25227508Y-43812339D01*
X25206999Y-43778123D01*
X25189943Y-43742061D01*
X25176504Y-43704501D01*
X25166811Y-43665804D01*
X25160957Y-43626344D01*
X25159000Y-43586500D01*
X25159000Y-42773500D01*
X25160957Y-42733656D01*
X25166811Y-42694196D01*
X25176504Y-42655499D01*
X25189943Y-42617939D01*
X25206999Y-42581877D01*
X25227508Y-42547661D01*
X25251271Y-42515619D01*
X25278061Y-42486061D01*
X25307619Y-42459271D01*
X25339661Y-42435508D01*
X25373877Y-42414999D01*
X25409939Y-42397943D01*
X25447499Y-42384504D01*
X25486196Y-42374811D01*
X25525656Y-42368957D01*
X25565500Y-42367000D01*
X32854500Y-42367000D01*
X32894344Y-42368957D01*
X32894344Y-42368957D01*
G37*
D19*
X29210000Y-43180000D03*
D13*
G36*
X32894344Y-44908957D02*
G01*
X32933804Y-44914811D01*
X32972501Y-44924504D01*
X33010061Y-44937943D01*
X33046123Y-44954999D01*
X33080339Y-44975508D01*
X33112381Y-44999271D01*
X33141939Y-45026061D01*
X33168729Y-45055619D01*
X33192492Y-45087661D01*
X33213001Y-45121877D01*
X33230057Y-45157939D01*
X33243496Y-45195499D01*
X33253189Y-45234196D01*
X33259043Y-45273656D01*
X33261000Y-45313500D01*
X33261000Y-46126500D01*
X33259043Y-46166344D01*
X33253189Y-46205804D01*
X33243496Y-46244501D01*
X33230057Y-46282061D01*
X33213001Y-46318123D01*
X33192492Y-46352339D01*
X33168729Y-46384381D01*
X33141939Y-46413939D01*
X33112381Y-46440729D01*
X33080339Y-46464492D01*
X33046123Y-46485001D01*
X33010061Y-46502057D01*
X32972501Y-46515496D01*
X32933804Y-46525189D01*
X32894344Y-46531043D01*
X32854500Y-46533000D01*
X25565500Y-46533000D01*
X25525656Y-46531043D01*
X25486196Y-46525189D01*
X25447499Y-46515496D01*
X25409939Y-46502057D01*
X25373877Y-46485001D01*
X25339661Y-46464492D01*
X25307619Y-46440729D01*
X25278061Y-46413939D01*
X25251271Y-46384381D01*
X25227508Y-46352339D01*
X25206999Y-46318123D01*
X25189943Y-46282061D01*
X25176504Y-46244501D01*
X25166811Y-46205804D01*
X25160957Y-46166344D01*
X25159000Y-46126500D01*
X25159000Y-45313500D01*
X25160957Y-45273656D01*
X25166811Y-45234196D01*
X25176504Y-45195499D01*
X25189943Y-45157939D01*
X25206999Y-45121877D01*
X25227508Y-45087661D01*
X25251271Y-45055619D01*
X25278061Y-45026061D01*
X25307619Y-44999271D01*
X25339661Y-44975508D01*
X25373877Y-44954999D01*
X25409939Y-44937943D01*
X25447499Y-44924504D01*
X25486196Y-44914811D01*
X25525656Y-44908957D01*
X25565500Y-44907000D01*
X32854500Y-44907000D01*
X32894344Y-44908957D01*
X32894344Y-44908957D01*
G37*
D19*
X29210000Y-45720000D03*
D13*
G36*
X32894344Y-47448957D02*
G01*
X32933804Y-47454811D01*
X32972501Y-47464504D01*
X33010061Y-47477943D01*
X33046123Y-47494999D01*
X33080339Y-47515508D01*
X33112381Y-47539271D01*
X33141939Y-47566061D01*
X33168729Y-47595619D01*
X33192492Y-47627661D01*
X33213001Y-47661877D01*
X33230057Y-47697939D01*
X33243496Y-47735499D01*
X33253189Y-47774196D01*
X33259043Y-47813656D01*
X33261000Y-47853500D01*
X33261000Y-48666500D01*
X33259043Y-48706344D01*
X33253189Y-48745804D01*
X33243496Y-48784501D01*
X33230057Y-48822061D01*
X33213001Y-48858123D01*
X33192492Y-48892339D01*
X33168729Y-48924381D01*
X33141939Y-48953939D01*
X33112381Y-48980729D01*
X33080339Y-49004492D01*
X33046123Y-49025001D01*
X33010061Y-49042057D01*
X32972501Y-49055496D01*
X32933804Y-49065189D01*
X32894344Y-49071043D01*
X32854500Y-49073000D01*
X25565500Y-49073000D01*
X25525656Y-49071043D01*
X25486196Y-49065189D01*
X25447499Y-49055496D01*
X25409939Y-49042057D01*
X25373877Y-49025001D01*
X25339661Y-49004492D01*
X25307619Y-48980729D01*
X25278061Y-48953939D01*
X25251271Y-48924381D01*
X25227508Y-48892339D01*
X25206999Y-48858123D01*
X25189943Y-48822061D01*
X25176504Y-48784501D01*
X25166811Y-48745804D01*
X25160957Y-48706344D01*
X25159000Y-48666500D01*
X25159000Y-47853500D01*
X25160957Y-47813656D01*
X25166811Y-47774196D01*
X25176504Y-47735499D01*
X25189943Y-47697939D01*
X25206999Y-47661877D01*
X25227508Y-47627661D01*
X25251271Y-47595619D01*
X25278061Y-47566061D01*
X25307619Y-47539271D01*
X25339661Y-47515508D01*
X25373877Y-47494999D01*
X25409939Y-47477943D01*
X25447499Y-47464504D01*
X25486196Y-47454811D01*
X25525656Y-47448957D01*
X25565500Y-47447000D01*
X32854500Y-47447000D01*
X32894344Y-47448957D01*
X32894344Y-47448957D01*
G37*
D19*
X29210000Y-48260000D03*
D13*
G36*
X32894344Y-49988957D02*
G01*
X32933804Y-49994811D01*
X32972501Y-50004504D01*
X33010061Y-50017943D01*
X33046123Y-50034999D01*
X33080339Y-50055508D01*
X33112381Y-50079271D01*
X33141939Y-50106061D01*
X33168729Y-50135619D01*
X33192492Y-50167661D01*
X33213001Y-50201877D01*
X33230057Y-50237939D01*
X33243496Y-50275499D01*
X33253189Y-50314196D01*
X33259043Y-50353656D01*
X33261000Y-50393500D01*
X33261000Y-51206500D01*
X33259043Y-51246344D01*
X33253189Y-51285804D01*
X33243496Y-51324501D01*
X33230057Y-51362061D01*
X33213001Y-51398123D01*
X33192492Y-51432339D01*
X33168729Y-51464381D01*
X33141939Y-51493939D01*
X33112381Y-51520729D01*
X33080339Y-51544492D01*
X33046123Y-51565001D01*
X33010061Y-51582057D01*
X32972501Y-51595496D01*
X32933804Y-51605189D01*
X32894344Y-51611043D01*
X32854500Y-51613000D01*
X25565500Y-51613000D01*
X25525656Y-51611043D01*
X25486196Y-51605189D01*
X25447499Y-51595496D01*
X25409939Y-51582057D01*
X25373877Y-51565001D01*
X25339661Y-51544492D01*
X25307619Y-51520729D01*
X25278061Y-51493939D01*
X25251271Y-51464381D01*
X25227508Y-51432339D01*
X25206999Y-51398123D01*
X25189943Y-51362061D01*
X25176504Y-51324501D01*
X25166811Y-51285804D01*
X25160957Y-51246344D01*
X25159000Y-51206500D01*
X25159000Y-50393500D01*
X25160957Y-50353656D01*
X25166811Y-50314196D01*
X25176504Y-50275499D01*
X25189943Y-50237939D01*
X25206999Y-50201877D01*
X25227508Y-50167661D01*
X25251271Y-50135619D01*
X25278061Y-50106061D01*
X25307619Y-50079271D01*
X25339661Y-50055508D01*
X25373877Y-50034999D01*
X25409939Y-50017943D01*
X25447499Y-50004504D01*
X25486196Y-49994811D01*
X25525656Y-49988957D01*
X25565500Y-49987000D01*
X32854500Y-49987000D01*
X32894344Y-49988957D01*
X32894344Y-49988957D01*
G37*
D19*
X29210000Y-50800000D03*
D13*
G36*
X32894344Y-52528957D02*
G01*
X32933804Y-52534811D01*
X32972501Y-52544504D01*
X33010061Y-52557943D01*
X33046123Y-52574999D01*
X33080339Y-52595508D01*
X33112381Y-52619271D01*
X33141939Y-52646061D01*
X33168729Y-52675619D01*
X33192492Y-52707661D01*
X33213001Y-52741877D01*
X33230057Y-52777939D01*
X33243496Y-52815499D01*
X33253189Y-52854196D01*
X33259043Y-52893656D01*
X33261000Y-52933500D01*
X33261000Y-53746500D01*
X33259043Y-53786344D01*
X33253189Y-53825804D01*
X33243496Y-53864501D01*
X33230057Y-53902061D01*
X33213001Y-53938123D01*
X33192492Y-53972339D01*
X33168729Y-54004381D01*
X33141939Y-54033939D01*
X33112381Y-54060729D01*
X33080339Y-54084492D01*
X33046123Y-54105001D01*
X33010061Y-54122057D01*
X32972501Y-54135496D01*
X32933804Y-54145189D01*
X32894344Y-54151043D01*
X32854500Y-54153000D01*
X25565500Y-54153000D01*
X25525656Y-54151043D01*
X25486196Y-54145189D01*
X25447499Y-54135496D01*
X25409939Y-54122057D01*
X25373877Y-54105001D01*
X25339661Y-54084492D01*
X25307619Y-54060729D01*
X25278061Y-54033939D01*
X25251271Y-54004381D01*
X25227508Y-53972339D01*
X25206999Y-53938123D01*
X25189943Y-53902061D01*
X25176504Y-53864501D01*
X25166811Y-53825804D01*
X25160957Y-53786344D01*
X25159000Y-53746500D01*
X25159000Y-52933500D01*
X25160957Y-52893656D01*
X25166811Y-52854196D01*
X25176504Y-52815499D01*
X25189943Y-52777939D01*
X25206999Y-52741877D01*
X25227508Y-52707661D01*
X25251271Y-52675619D01*
X25278061Y-52646061D01*
X25307619Y-52619271D01*
X25339661Y-52595508D01*
X25373877Y-52574999D01*
X25409939Y-52557943D01*
X25447499Y-52544504D01*
X25486196Y-52534811D01*
X25525656Y-52528957D01*
X25565500Y-52527000D01*
X32854500Y-52527000D01*
X32894344Y-52528957D01*
X32894344Y-52528957D01*
G37*
D19*
X29210000Y-53340000D03*
D13*
G36*
X32894344Y-55068957D02*
G01*
X32933804Y-55074811D01*
X32972501Y-55084504D01*
X33010061Y-55097943D01*
X33046123Y-55114999D01*
X33080339Y-55135508D01*
X33112381Y-55159271D01*
X33141939Y-55186061D01*
X33168729Y-55215619D01*
X33192492Y-55247661D01*
X33213001Y-55281877D01*
X33230057Y-55317939D01*
X33243496Y-55355499D01*
X33253189Y-55394196D01*
X33259043Y-55433656D01*
X33261000Y-55473500D01*
X33261000Y-56286500D01*
X33259043Y-56326344D01*
X33253189Y-56365804D01*
X33243496Y-56404501D01*
X33230057Y-56442061D01*
X33213001Y-56478123D01*
X33192492Y-56512339D01*
X33168729Y-56544381D01*
X33141939Y-56573939D01*
X33112381Y-56600729D01*
X33080339Y-56624492D01*
X33046123Y-56645001D01*
X33010061Y-56662057D01*
X32972501Y-56675496D01*
X32933804Y-56685189D01*
X32894344Y-56691043D01*
X32854500Y-56693000D01*
X25565500Y-56693000D01*
X25525656Y-56691043D01*
X25486196Y-56685189D01*
X25447499Y-56675496D01*
X25409939Y-56662057D01*
X25373877Y-56645001D01*
X25339661Y-56624492D01*
X25307619Y-56600729D01*
X25278061Y-56573939D01*
X25251271Y-56544381D01*
X25227508Y-56512339D01*
X25206999Y-56478123D01*
X25189943Y-56442061D01*
X25176504Y-56404501D01*
X25166811Y-56365804D01*
X25160957Y-56326344D01*
X25159000Y-56286500D01*
X25159000Y-55473500D01*
X25160957Y-55433656D01*
X25166811Y-55394196D01*
X25176504Y-55355499D01*
X25189943Y-55317939D01*
X25206999Y-55281877D01*
X25227508Y-55247661D01*
X25251271Y-55215619D01*
X25278061Y-55186061D01*
X25307619Y-55159271D01*
X25339661Y-55135508D01*
X25373877Y-55114999D01*
X25409939Y-55097943D01*
X25447499Y-55084504D01*
X25486196Y-55074811D01*
X25525656Y-55068957D01*
X25565500Y-55067000D01*
X32854500Y-55067000D01*
X32894344Y-55068957D01*
X32894344Y-55068957D01*
G37*
D19*
X29210000Y-55880000D03*
D13*
G36*
X32894344Y-57608957D02*
G01*
X32933804Y-57614811D01*
X32972501Y-57624504D01*
X33010061Y-57637943D01*
X33046123Y-57654999D01*
X33080339Y-57675508D01*
X33112381Y-57699271D01*
X33141939Y-57726061D01*
X33168729Y-57755619D01*
X33192492Y-57787661D01*
X33213001Y-57821877D01*
X33230057Y-57857939D01*
X33243496Y-57895499D01*
X33253189Y-57934196D01*
X33259043Y-57973656D01*
X33261000Y-58013500D01*
X33261000Y-58826500D01*
X33259043Y-58866344D01*
X33253189Y-58905804D01*
X33243496Y-58944501D01*
X33230057Y-58982061D01*
X33213001Y-59018123D01*
X33192492Y-59052339D01*
X33168729Y-59084381D01*
X33141939Y-59113939D01*
X33112381Y-59140729D01*
X33080339Y-59164492D01*
X33046123Y-59185001D01*
X33010061Y-59202057D01*
X32972501Y-59215496D01*
X32933804Y-59225189D01*
X32894344Y-59231043D01*
X32854500Y-59233000D01*
X25565500Y-59233000D01*
X25525656Y-59231043D01*
X25486196Y-59225189D01*
X25447499Y-59215496D01*
X25409939Y-59202057D01*
X25373877Y-59185001D01*
X25339661Y-59164492D01*
X25307619Y-59140729D01*
X25278061Y-59113939D01*
X25251271Y-59084381D01*
X25227508Y-59052339D01*
X25206999Y-59018123D01*
X25189943Y-58982061D01*
X25176504Y-58944501D01*
X25166811Y-58905804D01*
X25160957Y-58866344D01*
X25159000Y-58826500D01*
X25159000Y-58013500D01*
X25160957Y-57973656D01*
X25166811Y-57934196D01*
X25176504Y-57895499D01*
X25189943Y-57857939D01*
X25206999Y-57821877D01*
X25227508Y-57787661D01*
X25251271Y-57755619D01*
X25278061Y-57726061D01*
X25307619Y-57699271D01*
X25339661Y-57675508D01*
X25373877Y-57654999D01*
X25409939Y-57637943D01*
X25447499Y-57624504D01*
X25486196Y-57614811D01*
X25525656Y-57608957D01*
X25565500Y-57607000D01*
X32854500Y-57607000D01*
X32894344Y-57608957D01*
X32894344Y-57608957D01*
G37*
D19*
X29210000Y-58420000D03*
D13*
G36*
X32894344Y-60148957D02*
G01*
X32933804Y-60154811D01*
X32972501Y-60164504D01*
X33010061Y-60177943D01*
X33046123Y-60194999D01*
X33080339Y-60215508D01*
X33112381Y-60239271D01*
X33141939Y-60266061D01*
X33168729Y-60295619D01*
X33192492Y-60327661D01*
X33213001Y-60361877D01*
X33230057Y-60397939D01*
X33243496Y-60435499D01*
X33253189Y-60474196D01*
X33259043Y-60513656D01*
X33261000Y-60553500D01*
X33261000Y-61366500D01*
X33259043Y-61406344D01*
X33253189Y-61445804D01*
X33243496Y-61484501D01*
X33230057Y-61522061D01*
X33213001Y-61558123D01*
X33192492Y-61592339D01*
X33168729Y-61624381D01*
X33141939Y-61653939D01*
X33112381Y-61680729D01*
X33080339Y-61704492D01*
X33046123Y-61725001D01*
X33010061Y-61742057D01*
X32972501Y-61755496D01*
X32933804Y-61765189D01*
X32894344Y-61771043D01*
X32854500Y-61773000D01*
X25565500Y-61773000D01*
X25525656Y-61771043D01*
X25486196Y-61765189D01*
X25447499Y-61755496D01*
X25409939Y-61742057D01*
X25373877Y-61725001D01*
X25339661Y-61704492D01*
X25307619Y-61680729D01*
X25278061Y-61653939D01*
X25251271Y-61624381D01*
X25227508Y-61592339D01*
X25206999Y-61558123D01*
X25189943Y-61522061D01*
X25176504Y-61484501D01*
X25166811Y-61445804D01*
X25160957Y-61406344D01*
X25159000Y-61366500D01*
X25159000Y-60553500D01*
X25160957Y-60513656D01*
X25166811Y-60474196D01*
X25176504Y-60435499D01*
X25189943Y-60397939D01*
X25206999Y-60361877D01*
X25227508Y-60327661D01*
X25251271Y-60295619D01*
X25278061Y-60266061D01*
X25307619Y-60239271D01*
X25339661Y-60215508D01*
X25373877Y-60194999D01*
X25409939Y-60177943D01*
X25447499Y-60164504D01*
X25486196Y-60154811D01*
X25525656Y-60148957D01*
X25565500Y-60147000D01*
X32854500Y-60147000D01*
X32894344Y-60148957D01*
X32894344Y-60148957D01*
G37*
D19*
X29210000Y-60960000D03*
D13*
G36*
X32894344Y-65228957D02*
G01*
X32933804Y-65234811D01*
X32972501Y-65244504D01*
X33010061Y-65257943D01*
X33046123Y-65274999D01*
X33080339Y-65295508D01*
X33112381Y-65319271D01*
X33141939Y-65346061D01*
X33168729Y-65375619D01*
X33192492Y-65407661D01*
X33213001Y-65441877D01*
X33230057Y-65477939D01*
X33243496Y-65515499D01*
X33253189Y-65554196D01*
X33259043Y-65593656D01*
X33261000Y-65633500D01*
X33261000Y-66446500D01*
X33259043Y-66486344D01*
X33253189Y-66525804D01*
X33243496Y-66564501D01*
X33230057Y-66602061D01*
X33213001Y-66638123D01*
X33192492Y-66672339D01*
X33168729Y-66704381D01*
X33141939Y-66733939D01*
X33112381Y-66760729D01*
X33080339Y-66784492D01*
X33046123Y-66805001D01*
X33010061Y-66822057D01*
X32972501Y-66835496D01*
X32933804Y-66845189D01*
X32894344Y-66851043D01*
X32854500Y-66853000D01*
X25565500Y-66853000D01*
X25525656Y-66851043D01*
X25486196Y-66845189D01*
X25447499Y-66835496D01*
X25409939Y-66822057D01*
X25373877Y-66805001D01*
X25339661Y-66784492D01*
X25307619Y-66760729D01*
X25278061Y-66733939D01*
X25251271Y-66704381D01*
X25227508Y-66672339D01*
X25206999Y-66638123D01*
X25189943Y-66602061D01*
X25176504Y-66564501D01*
X25166811Y-66525804D01*
X25160957Y-66486344D01*
X25159000Y-66446500D01*
X25159000Y-65633500D01*
X25160957Y-65593656D01*
X25166811Y-65554196D01*
X25176504Y-65515499D01*
X25189943Y-65477939D01*
X25206999Y-65441877D01*
X25227508Y-65407661D01*
X25251271Y-65375619D01*
X25278061Y-65346061D01*
X25307619Y-65319271D01*
X25339661Y-65295508D01*
X25373877Y-65274999D01*
X25409939Y-65257943D01*
X25447499Y-65244504D01*
X25486196Y-65234811D01*
X25525656Y-65228957D01*
X25565500Y-65227000D01*
X32854500Y-65227000D01*
X32894344Y-65228957D01*
X32894344Y-65228957D01*
G37*
D19*
X29210000Y-66040000D03*
D13*
G36*
X32894344Y-67768957D02*
G01*
X32933804Y-67774811D01*
X32972501Y-67784504D01*
X33010061Y-67797943D01*
X33046123Y-67814999D01*
X33080339Y-67835508D01*
X33112381Y-67859271D01*
X33141939Y-67886061D01*
X33168729Y-67915619D01*
X33192492Y-67947661D01*
X33213001Y-67981877D01*
X33230057Y-68017939D01*
X33243496Y-68055499D01*
X33253189Y-68094196D01*
X33259043Y-68133656D01*
X33261000Y-68173500D01*
X33261000Y-68986500D01*
X33259043Y-69026344D01*
X33253189Y-69065804D01*
X33243496Y-69104501D01*
X33230057Y-69142061D01*
X33213001Y-69178123D01*
X33192492Y-69212339D01*
X33168729Y-69244381D01*
X33141939Y-69273939D01*
X33112381Y-69300729D01*
X33080339Y-69324492D01*
X33046123Y-69345001D01*
X33010061Y-69362057D01*
X32972501Y-69375496D01*
X32933804Y-69385189D01*
X32894344Y-69391043D01*
X32854500Y-69393000D01*
X25565500Y-69393000D01*
X25525656Y-69391043D01*
X25486196Y-69385189D01*
X25447499Y-69375496D01*
X25409939Y-69362057D01*
X25373877Y-69345001D01*
X25339661Y-69324492D01*
X25307619Y-69300729D01*
X25278061Y-69273939D01*
X25251271Y-69244381D01*
X25227508Y-69212339D01*
X25206999Y-69178123D01*
X25189943Y-69142061D01*
X25176504Y-69104501D01*
X25166811Y-69065804D01*
X25160957Y-69026344D01*
X25159000Y-68986500D01*
X25159000Y-68173500D01*
X25160957Y-68133656D01*
X25166811Y-68094196D01*
X25176504Y-68055499D01*
X25189943Y-68017939D01*
X25206999Y-67981877D01*
X25227508Y-67947661D01*
X25251271Y-67915619D01*
X25278061Y-67886061D01*
X25307619Y-67859271D01*
X25339661Y-67835508D01*
X25373877Y-67814999D01*
X25409939Y-67797943D01*
X25447499Y-67784504D01*
X25486196Y-67774811D01*
X25525656Y-67768957D01*
X25565500Y-67767000D01*
X32854500Y-67767000D01*
X32894344Y-67768957D01*
X32894344Y-67768957D01*
G37*
D19*
X29210000Y-68580000D03*
D20*
X59460000Y-36830000D03*
D21*
X60960000Y-36830000D03*
M02*
